<?xml version="1.0" encoding="utf-8"?>
<!-- Generator: Adobe Illustrator 25.4.1, SVG Export Plug-In . SVG Version: 6.00 Build 0)  -->
<svg version="1.1" id="レイヤー_1" xmlns="http://www.w3.org/2000/svg" xmlns:xlink="http://www.w3.org/1999/xlink" x="0px"
	 y="0px" viewBox="0 0 141 84" style="enable-background:new 0 0 141 84;" xml:space="preserve">
<style type="text/css">
	.st0{fill:#769DAC;stroke:#769DAC;stroke-width:0.3;stroke-miterlimit:10;}
	.st1{fill:#FFFFFF;stroke:#FFFFFF;stroke-width:0.5;stroke-miterlimit:10;}
</style>
<ellipse transform="matrix(0.9734 -0.2289 0.2289 0.9734 -7.7424 17.2538)" class="st0" cx="70.5" cy="42" rx="71.82" ry="39.17"/>
<g>
	<path class="st1" d="M34.59,32.29c0.26-0.06,0.57-0.11,0.93-0.16c0.36-0.04,0.76-0.06,1.18-0.06c0.42,0,0.86,0.04,1.31,0.09
		c0.45,0.06,0.89,0.16,1.32,0.31l1.37,4.44c-0.8-1.77-1.74-2.99-2.82-3.68c-1.08-0.69-2.2-0.9-3.34-0.63
		c-0.65,0.15-1.22,0.43-1.72,0.84c-0.5,0.41-0.9,0.94-1.19,1.59c-0.29,0.65-0.46,1.42-0.5,2.3c-0.04,0.88,0.06,1.87,0.32,2.97
		c0.26,1.12,0.62,2.07,1.07,2.84c0.45,0.78,0.96,1.39,1.52,1.83c0.57,0.44,1.18,0.73,1.84,0.86c0.66,0.13,1.33,0.11,2.01-0.05
		c0.43-0.1,0.84-0.26,1.25-0.47c0.41-0.21,0.78-0.5,1.12-0.86c0.34-0.36,0.65-0.8,0.9-1.33c0.26-0.52,0.45-1.15,0.56-1.88l0.51,2.15
		c-0.43,0.57-1,1.1-1.74,1.6c-0.73,0.5-1.57,0.85-2.5,1.07s-1.84,0.25-2.72,0.08c-0.88-0.16-1.69-0.49-2.42-0.97
		c-0.73-0.48-1.37-1.11-1.9-1.87c-0.54-0.77-0.92-1.65-1.15-2.64c-0.23-0.98-0.27-1.93-0.13-2.85c0.14-0.92,0.44-1.76,0.88-2.51
		c0.44-0.75,1.01-1.39,1.7-1.93C32.95,32.86,33.72,32.49,34.59,32.29z"/>
	<path class="st1" d="M48.03,31.83c0.83-0.19,1.61-0.23,2.35-0.12c0.74,0.11,1.42,0.37,2.03,0.75c0.61,0.39,1.13,0.89,1.56,1.51
		c0.43,0.62,0.74,1.34,0.94,2.16l0,0.02c0.19,0.82,0.23,1.61,0.12,2.35s-0.35,1.43-0.72,2.05c-0.37,0.62-0.87,1.14-1.48,1.58
		c-0.61,0.43-1.33,0.75-2.16,0.94c-0.83,0.19-1.61,0.23-2.35,0.12c-0.74-0.11-1.42-0.36-2.03-0.75c-0.61-0.39-1.13-0.89-1.56-1.51
		s-0.74-1.34-0.94-2.16l0-0.02c-0.19-0.82-0.23-1.61-0.12-2.35c0.11-0.75,0.35-1.43,0.72-2.05c0.37-0.62,0.87-1.14,1.48-1.58
		C46.48,32.34,47.2,32.03,48.03,31.83z M45.36,38.38c0.18,0.78,0.45,1.48,0.8,2.08c0.35,0.61,0.75,1.11,1.21,1.5
		c0.46,0.39,0.97,0.66,1.52,0.81c0.55,0.15,1.12,0.15,1.72,0.01c0.59-0.14,1.1-0.4,1.53-0.77c0.43-0.38,0.76-0.84,1-1.4
		c0.24-0.56,0.38-1.19,0.42-1.88c0.04-0.7-0.03-1.44-0.22-2.22c-0.18-0.78-0.45-1.48-0.8-2.08c-0.35-0.61-0.75-1.1-1.21-1.49
		c-0.46-0.39-0.96-0.65-1.52-0.8c-0.55-0.15-1.12-0.15-1.72-0.01c-0.59,0.14-1.1,0.4-1.53,0.77c-0.43,0.38-0.76,0.84-1,1.39
		c-0.24,0.55-0.38,1.18-0.42,1.87C45.1,36.86,45.17,37.6,45.36,38.38z"/>
	<path class="st1" d="M58.82,39.26l-1.7-7.22c-0.06-0.27-0.13-0.51-0.2-0.71c-0.07-0.2-0.14-0.37-0.21-0.52
		c-0.08-0.15-0.16-0.28-0.27-0.39c-0.1-0.11-0.22-0.22-0.35-0.33l1.93-0.64l0.73,3.09c0.09-1.02,0.41-1.89,0.97-2.6
		c0.56-0.71,1.35-1.18,2.37-1.42c1.12-0.26,2.08-0.18,2.88,0.24c0.79,0.43,1.35,1.1,1.68,2.01c0.07-1.05,0.38-1.93,0.94-2.66
		c0.56-0.72,1.36-1.21,2.41-1.45c0.61-0.14,1.17-0.18,1.69-0.12c0.52,0.06,0.98,0.22,1.39,0.47c0.41,0.25,0.75,0.58,1.03,0.99
		c0.28,0.41,0.48,0.88,0.61,1.41l1.36,5.79c0.06,0.27,0.14,0.5,0.21,0.68c0.08,0.18,0.17,0.33,0.28,0.44
		c0.11,0.11,0.24,0.19,0.38,0.24c0.15,0.05,0.33,0.08,0.53,0.1l-3.45,0.81c0.19-0.11,0.34-0.23,0.45-0.33
		c0.11-0.11,0.19-0.23,0.24-0.38c0.05-0.14,0.06-0.31,0.04-0.52c-0.02-0.2-0.06-0.44-0.13-0.71l-1.41-5.98
		C73,28.58,72.59,27.86,72,27.4c-0.59-0.46-1.33-0.58-2.22-0.37c-0.46,0.11-0.89,0.31-1.28,0.61c-0.39,0.3-0.71,0.67-0.97,1.13
		c-0.26,0.45-0.44,0.97-0.54,1.56c-0.1,0.59-0.09,1.23,0.04,1.93l1.13,4.81c0.06,0.27,0.13,0.5,0.21,0.68
		c0.08,0.18,0.17,0.33,0.28,0.44c0.11,0.11,0.24,0.19,0.38,0.24c0.15,0.05,0.33,0.08,0.53,0.1l-3.45,0.81
		c0.19-0.11,0.34-0.22,0.45-0.33c0.11-0.11,0.19-0.23,0.24-0.38s0.06-0.31,0.04-0.52s-0.06-0.44-0.13-0.71l-1.41-5.98
		c-0.23-0.98-0.64-1.7-1.23-2.16c-0.59-0.46-1.33-0.59-2.2-0.38c-0.46,0.11-0.89,0.31-1.28,0.61c-0.39,0.3-0.71,0.67-0.97,1.13
		c-0.26,0.45-0.44,0.97-0.54,1.56c-0.1,0.59-0.09,1.23,0.04,1.93l1.13,4.81c0.06,0.27,0.13,0.5,0.21,0.68
		c0.08,0.18,0.17,0.33,0.28,0.44c0.11,0.11,0.24,0.19,0.38,0.24c0.15,0.05,0.33,0.08,0.53,0.1l-3.45,0.81
		c0.19-0.11,0.34-0.22,0.45-0.33c0.11-0.11,0.19-0.23,0.24-0.38s0.06-0.31,0.04-0.52S58.89,39.53,58.82,39.26z"/>
	<path class="st1" d="M77.56,21.3c0.3-0.07,0.56-0.04,0.8,0.09c0.24,0.13,0.39,0.35,0.46,0.65c0.07,0.3,0.03,0.56-0.12,0.79
		c-0.15,0.23-0.37,0.38-0.67,0.45c-0.28,0.07-0.54,0.03-0.78-0.11c-0.24-0.14-0.39-0.36-0.46-0.66c-0.07-0.3-0.03-0.56,0.12-0.78
		C77.06,21.51,77.28,21.36,77.56,21.3z M79.32,36.24c0.19-0.11,0.34-0.22,0.45-0.33c0.11-0.11,0.19-0.23,0.24-0.38
		c0.05-0.14,0.06-0.31,0.04-0.52c-0.02-0.2-0.06-0.44-0.13-0.71l-1.7-7.22c-0.06-0.27-0.13-0.51-0.2-0.71
		c-0.07-0.2-0.14-0.37-0.21-0.52c-0.08-0.15-0.16-0.28-0.27-0.39c-0.1-0.11-0.22-0.22-0.35-0.33l1.93-0.64l2.23,9.46
		c0.06,0.27,0.13,0.5,0.21,0.68c0.08,0.18,0.17,0.33,0.28,0.44c0.11,0.11,0.24,0.19,0.38,0.24c0.15,0.05,0.33,0.08,0.53,0.1
		L79.32,36.24z"/>
	<path class="st1" d="M84.68,34.97c0.19-0.11,0.34-0.22,0.45-0.33c0.11-0.11,0.19-0.23,0.24-0.38c0.05-0.14,0.06-0.31,0.04-0.52
		c-0.02-0.2-0.06-0.44-0.13-0.71l-1.7-7.22c-0.06-0.27-0.13-0.51-0.2-0.71c-0.07-0.2-0.14-0.37-0.21-0.52
		c-0.08-0.15-0.16-0.28-0.27-0.39c-0.1-0.11-0.22-0.22-0.35-0.33l1.93-0.64l0.73,3.11c0.1-1.03,0.44-1.9,1.02-2.62
		c0.58-0.72,1.42-1.21,2.51-1.47c0.62-0.15,1.19-0.19,1.71-0.12c0.52,0.06,0.98,0.22,1.39,0.47c0.41,0.25,0.75,0.58,1.03,0.99
		c0.28,0.41,0.48,0.88,0.61,1.42l1.36,5.79c0.06,0.27,0.14,0.5,0.21,0.68s0.17,0.33,0.28,0.44c0.11,0.11,0.24,0.19,0.38,0.24
		c0.15,0.05,0.33,0.08,0.53,0.1l-3.45,0.81c0.19-0.11,0.34-0.22,0.45-0.33s0.19-0.23,0.24-0.38c0.05-0.14,0.06-0.31,0.04-0.52
		c-0.02-0.2-0.06-0.44-0.13-0.71l-1.41-5.98c-0.23-0.98-0.64-1.69-1.24-2.13c-0.59-0.44-1.34-0.56-2.23-0.35
		c-0.5,0.12-0.97,0.33-1.39,0.62c-0.42,0.3-0.77,0.67-1.04,1.12c-0.28,0.45-0.46,0.97-0.56,1.56c-0.1,0.59-0.09,1.23,0.04,1.93
		l1.13,4.81c0.06,0.27,0.13,0.5,0.21,0.68c0.08,0.18,0.17,0.33,0.28,0.44c0.11,0.11,0.24,0.19,0.38,0.24
		c0.15,0.05,0.33,0.08,0.53,0.1L84.68,34.97z"/>
	<path class="st1" d="M97.76,32.66c-0.15-0.64,0.04-1.2,0.58-1.69s1.48-0.93,2.84-1.32c-0.95,0.14-1.65,0.1-2.11-0.11
		c-0.46-0.22-0.74-0.55-0.85-1.01c-0.06-0.25-0.05-0.47,0.02-0.67c0.07-0.2,0.18-0.38,0.34-0.54c0.16-0.16,0.36-0.3,0.59-0.41
		c0.23-0.11,0.48-0.19,0.74-0.26l0.27-0.06c-0.78-0.09-1.45-0.36-1.99-0.81c-0.54-0.45-0.9-1.05-1.08-1.81
		c-0.12-0.51-0.13-0.99-0.04-1.46c0.1-0.46,0.29-0.89,0.58-1.27c0.29-0.38,0.66-0.72,1.12-1.01c0.46-0.29,0.98-0.5,1.58-0.64
		c0.5-0.12,0.98-0.17,1.45-0.15c0.46,0.02,0.88,0.1,1.27,0.24c-0.08-0.73,0.03-1.32,0.32-1.8c0.29-0.47,0.66-0.76,1.11-0.87
		c0.3-0.07,0.56-0.05,0.78,0.05c0.22,0.11,0.36,0.29,0.43,0.55c0.06,0.23,0.02,0.45-0.1,0.64c-0.12,0.19-0.31,0.32-0.55,0.38
		c-0.14,0.03-0.28,0.04-0.4,0.02s-0.25-0.04-0.37-0.08c-0.12-0.03-0.23-0.06-0.34-0.09c-0.11-0.02-0.21-0.02-0.32,0
		c-0.17,0.04-0.28,0.15-0.35,0.34c-0.07,0.19-0.07,0.5-0.03,0.92c0.48,0.2,0.89,0.5,1.23,0.9c0.34,0.4,0.57,0.87,0.7,1.41
		c0.12,0.51,0.13,1,0.04,1.47s-0.28,0.9-0.57,1.29c-0.28,0.39-0.65,0.73-1.11,1.01c-0.46,0.29-0.98,0.5-1.58,0.64
		c-0.28,0.07-0.57,0.11-0.85,0.14c-0.16,0.02-0.3,0.05-0.41,0.07c-0.12,0.02-0.23,0.04-0.33,0.07c-0.49,0.12-0.86,0.27-1.11,0.48
		c-0.25,0.2-0.35,0.43-0.29,0.68c0.05,0.2,0.16,0.33,0.34,0.41c0.18,0.08,0.38,0.13,0.6,0.15c0.22,0.02,0.42,0.02,0.62,0l2.35-0.24
		c0.77-0.08,1.46-0.14,2.08-0.17c0.62-0.03,1.16,0,1.62,0.07c0.46,0.08,0.83,0.23,1.12,0.47c0.29,0.24,0.48,0.58,0.59,1.04
		c0.11,0.48,0.09,0.95-0.07,1.4c-0.16,0.45-0.44,0.87-0.83,1.25c-0.39,0.38-0.9,0.72-1.51,1.02c-0.61,0.3-1.31,0.55-2.12,0.73
		c-0.67,0.16-1.34,0.26-2.01,0.3c-0.67,0.04-1.29,0.01-1.85-0.09c-0.56-0.1-1.04-0.28-1.42-0.53C98.11,33.45,97.87,33.1,97.76,32.66
		z M102.02,26.17c0.36-0.08,0.68-0.24,0.96-0.45c0.28-0.22,0.5-0.48,0.66-0.79c0.17-0.31,0.27-0.66,0.31-1.05
		c0.04-0.4,0.01-0.81-0.09-1.24c-0.1-0.43-0.26-0.84-0.49-1.22c-0.23-0.38-0.49-0.7-0.81-0.96c-0.31-0.26-0.66-0.44-1.05-0.56
		c-0.39-0.12-0.79-0.12-1.22-0.02c-0.37,0.09-0.7,0.24-0.98,0.46c-0.28,0.22-0.5,0.48-0.66,0.8c-0.16,0.31-0.27,0.66-0.3,1.05
		c-0.04,0.39-0.01,0.79,0.09,1.21c0.1,0.42,0.26,0.82,0.49,1.2c0.23,0.38,0.5,0.7,0.81,0.97c0.31,0.26,0.67,0.46,1.05,0.58
		C101.18,26.26,101.59,26.27,102.02,26.17z M98.99,32.43c0.17,0.73,0.68,1.21,1.52,1.45c0.84,0.24,1.92,0.2,3.23-0.11
		c0.7-0.16,1.3-0.37,1.82-0.61c0.51-0.24,0.94-0.52,1.27-0.81c0.33-0.3,0.56-0.6,0.7-0.91c0.13-0.31,0.16-0.61,0.09-0.91
		c-0.1-0.44-0.37-0.76-0.79-0.94c-0.42-0.18-0.91-0.28-1.47-0.3c-0.56-0.02-1.12,0.01-1.69,0.1c-0.57,0.09-1.06,0.18-1.48,0.28
		c-0.71,0.17-1.29,0.35-1.74,0.54c-0.45,0.2-0.8,0.41-1.04,0.64c-0.24,0.23-0.39,0.48-0.44,0.74
		C98.92,31.85,98.92,32.13,98.99,32.43z"/>
	<path class="st1" d="M51.64,64.9l-0.55-3.71c0.52,1.52,1.25,2.61,2.18,3.29c0.94,0.68,2.05,0.87,3.34,0.57
		c0.52-0.12,0.96-0.31,1.34-0.55c0.38-0.25,0.68-0.54,0.9-0.87c0.22-0.33,0.36-0.69,0.43-1.08c0.07-0.39,0.05-0.78-0.04-1.17
		c-0.12-0.5-0.32-0.89-0.6-1.18c-0.29-0.29-0.6-0.52-0.93-0.69c-0.33-0.17-0.67-0.29-1-0.35c-0.34-0.07-0.61-0.11-0.82-0.15
		l-2.05-0.28c-0.27-0.03-0.59-0.09-0.98-0.17c-0.39-0.08-0.78-0.22-1.17-0.42c-0.39-0.2-0.75-0.47-1.08-0.82
		c-0.33-0.35-0.56-0.82-0.7-1.4c-0.11-0.47-0.13-0.93-0.06-1.39c0.07-0.46,0.24-0.88,0.5-1.27c0.26-0.39,0.62-0.73,1.07-1.02
		c0.45-0.29,1-0.51,1.66-0.67c0.59-0.14,1.27-0.21,2.03-0.2c0.76,0.01,1.46,0.13,2.1,0.36l1.01,3.7c-0.56-1.38-1.25-2.39-2.09-3.03
		c-0.84-0.64-1.82-0.82-2.96-0.55c-0.45,0.11-0.86,0.27-1.21,0.48c-0.36,0.22-0.65,0.47-0.87,0.76c-0.22,0.29-0.38,0.61-0.46,0.95
		c-0.08,0.34-0.08,0.69,0,1.04c0.1,0.4,0.27,0.73,0.52,0.97c0.25,0.24,0.54,0.44,0.85,0.58c0.31,0.15,0.63,0.25,0.96,0.31
		c0.33,0.06,0.61,0.1,0.85,0.13l2.17,0.29c1.07,0.15,1.97,0.46,2.69,0.93c0.72,0.47,1.2,1.19,1.43,2.15
		c0.13,0.55,0.15,1.08,0.06,1.6c-0.09,0.52-0.28,0.99-0.57,1.43c-0.29,0.43-0.69,0.81-1.18,1.14s-1.08,0.57-1.77,0.74
		c-0.9,0.21-1.8,0.29-2.7,0.22C53.04,65.51,52.28,65.28,51.64,64.9z"/>
	<path class="st1" d="M66.24,51.21c0.83-0.19,1.61-0.23,2.35-0.12s1.42,0.37,2.03,0.75c0.61,0.39,1.13,0.89,1.56,1.51
		c0.43,0.62,0.74,1.34,0.94,2.16l0,0.02c0.19,0.82,0.23,1.61,0.12,2.35c-0.11,0.75-0.35,1.43-0.72,2.05
		c-0.37,0.62-0.87,1.14-1.48,1.58c-0.61,0.43-1.33,0.75-2.16,0.94s-1.61,0.23-2.35,0.12c-0.74-0.11-1.42-0.36-2.03-0.75
		c-0.61-0.39-1.13-0.89-1.56-1.51c-0.43-0.62-0.74-1.34-0.94-2.16l0-0.02c-0.19-0.82-0.23-1.61-0.12-2.35
		c0.11-0.75,0.35-1.43,0.72-2.05c0.37-0.62,0.87-1.14,1.48-1.58C64.69,51.72,65.41,51.4,66.24,51.21z M63.57,57.76
		c0.18,0.78,0.45,1.48,0.8,2.08c0.35,0.61,0.75,1.11,1.21,1.5c0.46,0.39,0.97,0.66,1.52,0.81c0.55,0.15,1.12,0.15,1.72,0.01
		c0.59-0.14,1.1-0.4,1.53-0.77c0.43-0.38,0.76-0.84,1-1.4s0.38-1.19,0.42-1.88c0.04-0.7-0.03-1.44-0.22-2.22
		c-0.18-0.78-0.45-1.48-0.8-2.08c-0.35-0.61-0.75-1.1-1.21-1.49c-0.46-0.39-0.96-0.65-1.52-0.8s-1.12-0.15-1.72-0.01
		c-0.59,0.14-1.11,0.4-1.53,0.77c-0.43,0.38-0.76,0.84-1,1.39c-0.24,0.55-0.38,1.18-0.42,1.87C63.31,56.24,63.38,56.98,63.57,57.76z
		"/>
	<path class="st1" d="M79.42,48.11c0.83-0.19,1.61-0.23,2.35-0.12c0.74,0.11,1.42,0.37,2.03,0.75c0.61,0.39,1.13,0.89,1.56,1.51
		c0.43,0.62,0.74,1.34,0.94,2.16l0,0.02c0.19,0.82,0.23,1.61,0.12,2.35s-0.35,1.43-0.72,2.05c-0.37,0.62-0.87,1.14-1.48,1.58
		s-1.33,0.75-2.16,0.94c-0.83,0.19-1.61,0.23-2.35,0.12c-0.74-0.11-1.42-0.36-2.03-0.75c-0.61-0.39-1.13-0.89-1.56-1.51
		c-0.43-0.62-0.74-1.34-0.94-2.16l0-0.02c-0.19-0.82-0.23-1.61-0.12-2.35c0.11-0.75,0.35-1.43,0.72-2.05s0.87-1.14,1.48-1.58
		S78.59,48.3,79.42,48.11z M76.75,54.66c0.18,0.78,0.45,1.48,0.8,2.08c0.35,0.61,0.75,1.11,1.21,1.5c0.46,0.39,0.97,0.66,1.52,0.81
		c0.55,0.15,1.12,0.15,1.72,0.01c0.59-0.14,1.1-0.4,1.53-0.77c0.43-0.38,0.76-0.84,1-1.4c0.24-0.56,0.38-1.19,0.42-1.88
		c0.04-0.7-0.03-1.44-0.22-2.22c-0.18-0.78-0.45-1.48-0.8-2.08c-0.35-0.61-0.75-1.1-1.21-1.49c-0.46-0.39-0.96-0.65-1.52-0.8
		c-0.55-0.15-1.12-0.15-1.72-0.01c-0.59,0.14-1.11,0.4-1.53,0.77c-0.43,0.38-0.76,0.84-1,1.39c-0.24,0.55-0.38,1.18-0.42,1.87
		C76.5,53.14,76.57,53.88,76.75,54.66z"/>
	<path class="st1" d="M89.61,57.47c0.19-0.11,0.34-0.22,0.45-0.33c0.11-0.11,0.19-0.23,0.24-0.38s0.06-0.31,0.04-0.52
		c-0.02-0.2-0.06-0.44-0.13-0.71l-1.7-7.22c-0.06-0.27-0.13-0.51-0.2-0.71c-0.07-0.2-0.14-0.37-0.21-0.52s-0.16-0.28-0.27-0.39
		c-0.1-0.11-0.22-0.22-0.35-0.33l1.93-0.64l0.73,3.11c0.1-1.03,0.44-1.9,1.02-2.62c0.58-0.72,1.42-1.21,2.51-1.47
		c0.62-0.15,1.19-0.19,1.71-0.12c0.52,0.06,0.98,0.22,1.39,0.47c0.41,0.25,0.75,0.58,1.03,0.99c0.28,0.41,0.48,0.88,0.61,1.42
		l1.36,5.79c0.06,0.27,0.13,0.5,0.21,0.68c0.08,0.18,0.17,0.33,0.28,0.44c0.11,0.11,0.24,0.19,0.38,0.24
		c0.15,0.05,0.33,0.08,0.53,0.1l-3.45,0.81c0.19-0.11,0.34-0.22,0.45-0.33c0.11-0.11,0.19-0.23,0.24-0.38
		c0.05-0.14,0.06-0.31,0.04-0.52c-0.02-0.2-0.06-0.44-0.13-0.71l-1.41-5.98c-0.23-0.98-0.64-1.69-1.24-2.13
		c-0.59-0.44-1.34-0.56-2.23-0.35c-0.5,0.12-0.97,0.33-1.39,0.62c-0.42,0.3-0.77,0.67-1.04,1.12c-0.28,0.45-0.46,0.97-0.56,1.56
		c-0.1,0.59-0.09,1.23,0.04,1.93l1.13,4.81c0.06,0.27,0.13,0.5,0.21,0.68c0.08,0.18,0.17,0.33,0.28,0.44
		c0.11,0.11,0.24,0.19,0.38,0.24c0.15,0.05,0.33,0.08,0.53,0.1L89.61,57.47z"/>
</g>
</svg>
