<?xml version="1.0" encoding="utf-8"?>
<!-- Generator: Adobe Illustrator 25.4.1, SVG Export Plug-In . SVG Version: 6.00 Build 0)  -->
<svg version="1.1" id="レイヤー_1" xmlns="http://www.w3.org/2000/svg" xmlns:xlink="http://www.w3.org/1999/xlink" x="0px"
	 y="0px" viewBox="0 0 76 72" style="enable-background:new 0 0 76 72;" xml:space="preserve">
<style type="text/css">
	.st0{fill:#82B1BC;}
</style>
<g>
	<path class="st0" d="M37.2,6.5c8.5,0,9.5,0,12.8,0.2c3.1,0.1,4.8,0.7,5.9,1.1c1.5,0.6,2.5,1.3,3.7,2.4s1.8,2.2,2.4,3.6
		c0.4,1.1,1,2.8,1.1,5.9c0.2,3.3,0.2,4.4,0.2,12.8s0,9.5-0.2,12.8c-0.1,3.1-0.7,4.8-1.1,5.9c-0.6,1.5-1.3,2.5-2.4,3.7
		s-2.2,1.8-3.7,2.4c-1.1,0.4-2.8,1-5.9,1.1c-3.3,0.2-4.3,0.2-12.8,0.2s-9.5,0-12.8-0.2c-3.1-0.1-4.8-0.7-5.9-1.1
		c-1.5-0.6-2.5-1.3-3.6-2.4s-1.8-2.2-2.4-3.7c-0.4-1.1-0.9-2.8-1.1-5.9c-0.1-3.3-0.2-4.3-0.2-12.8s0-9.5,0.2-12.8
		c0.1-3.1,0.7-4.8,1.1-5.9c0.6-1.5,1.3-2.5,2.4-3.6s2.2-1.8,3.6-2.4c1.1-0.4,2.8-0.9,5.9-1.1C27.7,6.5,28.7,6.5,37.2,6.5 M37.2,0.8
		c-8.6,0-9.7,0-13.1,0.2c-3.4,0.2-5.7,0.7-7.7,1.5c-2.1,0.8-3.9,1.9-5.6,3.7C9,7.9,7.9,9.6,7.1,11.7c-0.8,2-1.3,4.3-1.5,7.7
		s-0.2,4.5-0.2,13.1s0,9.7,0.2,13.1c0.2,3.4,0.7,5.7,1.5,7.7c0.8,2.1,1.9,3.8,3.7,5.6c1.8,1.8,3.5,2.8,5.6,3.7
		c2,0.8,4.3,1.3,7.7,1.5c3.4,0.2,4.5,0.2,13.1,0.2s9.7,0,13.1-0.2c3.4-0.2,5.7-0.7,7.7-1.5c2.1-0.8,3.8-1.9,5.6-3.7
		c1.8-1.8,2.8-3.5,3.7-5.6c0.8-2,1.3-4.3,1.5-7.7s0.2-4.5,0.2-13.1s0-9.7-0.2-13.1c-0.2-3.4-0.7-5.7-1.5-7.7
		c-0.8-2.1-1.9-3.8-3.7-5.6c-1.8-1.8-3.5-2.8-5.6-3.7c-2-0.8-4.3-1.3-7.7-1.5C46.9,0.8,45.8,0.8,37.2,0.8L37.2,0.8z"/>
	<path class="st0" d="M37.2,16.2c-9,0-16.3,7.3-16.3,16.3s7.3,16.3,16.3,16.3s16.3-7.3,16.3-16.3S46.2,16.2,37.2,16.2z M37.2,43
		c-5.8,0-10.6-4.7-10.6-10.6s4.7-10.6,10.6-10.6s10.6,4.7,10.6,10.6C47.7,38.3,43,43,37.2,43z"/>
	<circle class="st0" cx="54.1" cy="15.6" r="3.8"/>
</g>
</svg>
