<?xml version="1.0" encoding="utf-8"?>
<!-- Generator: Adobe Illustrator 25.4.1, SVG Export Plug-In . SVG Version: 6.00 Build 0)  -->
<svg version="1.1" id="レイヤー_1" xmlns="http://www.w3.org/2000/svg" xmlns:xlink="http://www.w3.org/1999/xlink" x="0px"
	 y="0px" viewBox="0 0 151 151" style="enable-background:new 0 0 151 151;" xml:space="preserve">
<style type="text/css">
	.st0{fill:#FFFFFF;}
</style>
<g>
	<path class="st0" d="M27.37,37.97c-1.09-1.05-1.95-2.12-2.6-3.21s-1.06-2.17-1.25-3.23c-0.19-1.06-0.15-2.07,0.12-3.04
		c0.27-0.97,0.78-1.84,1.52-2.62c0.76-0.79,1.62-1.33,2.58-1.64c0.96-0.3,1.97-0.38,3.04-0.24c1.06,0.15,2.15,0.52,3.27,1.13
		c1.12,0.61,2.22,1.43,3.31,2.48c1.07,1.03,1.94,2.1,2.59,3.2s1.07,2.18,1.26,3.24s0.14,2.07-0.13,3.04s-0.78,1.85-1.54,2.64
		c-0.75,0.77-1.6,1.31-2.56,1.62c-0.96,0.3-1.97,0.38-3.04,0.24c-1.06-0.15-2.16-0.53-3.28-1.14
		C29.54,39.83,28.44,39.01,27.37,37.97z M29.03,36.24c2.16,2.08,4.13,3.41,5.91,3.99c1.78,0.58,3.21,0.32,4.29-0.8
		c1.09-1.13,1.31-2.57,0.66-4.33s-2.05-3.68-4.21-5.76s-4.13-3.41-5.91-3.99c-1.78-0.58-3.22-0.31-4.31,0.82
		c-1.07,1.11-1.29,2.55-0.64,4.31C25.47,32.24,26.88,34.16,29.03,36.24z"/>
	<path class="st0" d="M51.67,29.92c0.56-0.3,1.03-0.7,1.41-1.18c0.37-0.48,0.62-1.03,0.75-1.64c0.13-0.62,0.12-1.29-0.01-2.02
		c-0.14-0.73-0.43-1.51-0.88-2.34c-0.8-1.48-1.73-2.42-2.78-2.84c-1.06-0.41-2.19-0.3-3.38,0.34c-0.38,0.21-0.78,0.47-1.18,0.78
		c-0.41,0.32-0.8,0.7-1.19,1.14l-0.19-0.18l2.47-9.37L42,15.14c-0.61,0.33-1.08,0.67-1.41,1.02c-0.33,0.35-0.56,0.7-0.69,1.05
		c-0.13,0.35-0.2,0.68-0.2,0.99s0.03,0.6,0.11,0.86l-1.94-3.71l9.71-5.24l0.13,0.25l-2.9,10.88c0.68-0.65,1.4-1.17,2.17-1.59
		c0.85-0.46,1.67-0.74,2.48-0.85s1.57-0.08,2.28,0.11s1.35,0.5,1.92,0.96s1.03,1.02,1.4,1.7c0.36,0.66,0.58,1.39,0.66,2.18
		c0.08,0.79,0,1.58-0.24,2.38c-0.24,0.8-0.66,1.55-1.23,2.27c-0.58,0.72-1.36,1.34-2.33,1.87c-0.48,0.26-0.94,0.48-1.38,0.65
		s-0.88,0.31-1.32,0.41s-0.91,0.16-1.4,0.18s-1.03,0-1.61-0.04l-2.35-4.36c0.8,1,1.58,1.76,2.33,2.26c0.75,0.5,1.46,0.84,2.13,1
		c0.67,0.17,1.29,0.19,1.86,0.08C50.72,30.33,51.23,30.16,51.67,29.92z"/>
	<path class="st0" d="M77.33,3.91c0.38,0,0.82,0.02,1.34,0.08c0.52,0.05,1.07,0.15,1.66,0.29c0.59,0.14,1.18,0.32,1.79,0.54
		s1.18,0.5,1.73,0.84l0.49,6.53c-0.54-2.67-1.46-4.65-2.74-5.94c-1.28-1.28-2.76-1.92-4.44-1.91c-0.94,0.01-1.83,0.21-2.65,0.61
		c-0.83,0.4-1.54,1-2.15,1.81s-1.08,1.81-1.42,3.01s-0.51,2.59-0.5,4.17c0.01,1.62,0.2,3.04,0.58,4.24c0.38,1.2,0.89,2.2,1.53,2.99
		c0.64,0.79,1.4,1.37,2.27,1.75c0.87,0.38,1.8,0.57,2.8,0.56c0.62,0,1.25-0.09,1.88-0.25s1.24-0.44,1.83-0.83
		c0.59-0.39,1.15-0.9,1.67-1.54s0.98-1.44,1.37-2.4l0.02,3.11c-0.77,0.65-1.74,1.19-2.92,1.64c-1.18,0.45-2.44,0.68-3.8,0.69
		s-2.62-0.24-3.8-0.74c-1.17-0.5-2.19-1.2-3.05-2.09s-1.54-1.95-2.04-3.17s-0.75-2.55-0.76-3.98c-0.01-1.41,0.23-2.73,0.72-3.95
		S69.9,7.7,70.76,6.8c0.85-0.89,1.84-1.6,2.97-2.11C74.87,4.18,76.06,3.92,77.33,3.91z"/>
	<path class="st0" d="M86.33,23.97c0.32,0.01,0.58,0,0.8-0.05s0.41-0.13,0.57-0.26c0.17-0.13,0.32-0.32,0.45-0.58
		c0.13-0.25,0.26-0.57,0.4-0.94L94.13,6.5c0.2-0.55,0.29-0.97,0.29-1.25c0-0.28-0.09-0.57-0.28-0.88L96.88,5l-3.28,9.19
		c0.91-1.14,1.98-1.91,3.23-2.32s2.62-0.34,4.13,0.2c0.85,0.3,1.56,0.69,2.14,1.17c0.57,0.47,1,1.01,1.3,1.62
		c0.29,0.61,0.45,1.26,0.47,1.96c0.02,0.7-0.1,1.41-0.36,2.14l-2.81,7.89c-0.13,0.37-0.22,0.7-0.27,0.97
		c-0.05,0.27-0.05,0.52-0.01,0.73c0.04,0.22,0.13,0.41,0.27,0.58s0.33,0.35,0.56,0.53l-4.74-1.69c0.32,0.01,0.58,0,0.8-0.05
		c0.22-0.04,0.41-0.13,0.58-0.26c0.17-0.13,0.31-0.32,0.45-0.58c0.13-0.25,0.26-0.57,0.4-0.94l2.91-8.15
		c0.48-1.33,0.53-2.49,0.16-3.47c-0.37-0.98-1.17-1.69-2.39-2.13c-0.69-0.25-1.4-0.36-2.13-0.33c-0.73,0.03-1.44,0.2-2.11,0.52
		c-0.67,0.32-1.3,0.79-1.87,1.41s-1.05,1.39-1.44,2.31l-2.34,6.55c-0.13,0.37-0.23,0.7-0.27,0.97c-0.05,0.27-0.05,0.52-0.01,0.73
		c0.04,0.22,0.14,0.41,0.27,0.58c0.14,0.17,0.33,0.35,0.56,0.53L86.33,23.97z"/>
	<path class="st0" d="M103.21,30.94c0.3,0.09,0.57,0.14,0.79,0.15s0.42-0.03,0.62-0.12c0.19-0.09,0.38-0.24,0.57-0.45
		c0.19-0.22,0.39-0.49,0.61-0.82l5.75-8.71c0.22-0.33,0.4-0.63,0.53-0.88c0.14-0.26,0.24-0.5,0.32-0.72s0.12-0.44,0.14-0.65
		s0.01-0.44-0.01-0.68l2.55,1.38l-7.54,11.43c-0.22,0.33-0.38,0.62-0.49,0.88c-0.11,0.25-0.17,0.49-0.18,0.71s0.03,0.43,0.13,0.63
		s0.23,0.41,0.42,0.65L103.21,30.94z M116.83,14.72c0.36,0.24,0.59,0.54,0.69,0.91c0.09,0.37,0.02,0.73-0.22,1.1
		c-0.24,0.36-0.55,0.58-0.93,0.64s-0.75-0.02-1.11-0.26c-0.35-0.23-0.57-0.53-0.66-0.91c-0.09-0.38-0.02-0.74,0.22-1.11
		c0.24-0.36,0.55-0.57,0.92-0.63C116.12,14.4,116.49,14.49,116.83,14.72z"/>
	<path class="st0" d="M108.98,34.91c0.29,0.13,0.54,0.21,0.76,0.25s0.43,0.03,0.63-0.03c0.2-0.06,0.41-0.18,0.63-0.37
		c0.22-0.19,0.45-0.43,0.71-0.73l10.94-12.49c0.39-0.44,0.63-0.79,0.73-1.05c0.1-0.26,0.12-0.57,0.06-0.93l2.33,1.59L113.28,35.4
		c-0.26,0.3-0.46,0.56-0.61,0.8c-0.15,0.24-0.24,0.46-0.28,0.68s-0.03,0.43,0.04,0.64s0.18,0.44,0.33,0.7L108.98,34.91z"/>
	<path class="st0" d="M114.18,39.66c0.27,0.17,0.51,0.28,0.72,0.35s0.42,0.09,0.63,0.05c0.21-0.03,0.43-0.13,0.67-0.28
		c0.24-0.16,0.51-0.37,0.81-0.63l7.88-6.85c0.3-0.26,0.55-0.5,0.75-0.71s0.37-0.42,0.5-0.61s0.24-0.39,0.31-0.59
		s0.13-0.42,0.18-0.66l2.09,2.01l-10.33,8.98c-0.3,0.26-0.54,0.5-0.71,0.71c-0.18,0.21-0.3,0.43-0.37,0.64s-0.08,0.42-0.04,0.64
		s0.11,0.46,0.23,0.74L114.18,39.66z M131.66,27.69c0.28,0.33,0.42,0.68,0.42,1.06c-0.01,0.38-0.17,0.71-0.5,1
		c-0.33,0.28-0.68,0.41-1.07,0.37c-0.38-0.04-0.72-0.22-1-0.55c-0.27-0.31-0.4-0.66-0.39-1.05s0.18-0.72,0.51-1.01
		c0.33-0.28,0.68-0.4,1.06-0.36C131.06,27.19,131.39,27.37,131.66,27.69z"/>
	<path class="st0" d="M133.24,49.14c1.36-0.4,2.69-0.54,4-0.44c1.31,0.11,2.51,0.44,3.61,0.99c1.1,0.55,2.05,1.31,2.87,2.28
		c0.81,0.97,1.42,2.11,1.8,3.44c0.39,1.32,0.5,2.61,0.34,3.87s-0.55,2.41-1.18,3.47c-0.62,1.06-1.46,1.98-2.5,2.78
		c-1.04,0.8-2.24,1.4-3.6,1.79c-1.36,0.4-2.69,0.54-4,0.44c-1.31-0.11-2.51-0.44-3.61-0.99c-1.1-0.55-2.05-1.31-2.87-2.28
		c-0.82-0.97-1.42-2.11-1.8-3.44c-0.39-1.32-0.5-2.61-0.34-3.87s0.55-2.41,1.18-3.47c0.62-1.06,1.45-1.99,2.5-2.78
		C130.68,50.13,131.88,49.53,133.24,49.14z M126.71,60.93c0.3,1.01,0.76,1.88,1.38,2.6c0.62,0.72,1.41,1.27,2.35,1.64
		s2.04,0.55,3.28,0.54s2.64-0.24,4.17-0.69c1.54-0.45,2.83-1.01,3.89-1.67c1.05-0.66,1.88-1.41,2.47-2.23s0.96-1.71,1.09-2.65
		c0.14-0.94,0.05-1.92-0.24-2.94c-0.3-1.01-0.76-1.88-1.38-2.6c-0.62-0.72-1.41-1.27-2.35-1.64s-2.04-0.55-3.28-0.54
		s-2.64,0.24-4.17,0.69c-1.54,0.45-2.83,1.01-3.89,1.67c-1.05,0.66-1.88,1.41-2.47,2.23s-0.96,1.71-1.09,2.65
		C126.33,58.94,126.41,59.91,126.71,60.93z"/>
	<path class="st0" d="M128.65,71.95c0.09,0.3,0.18,0.55,0.29,0.74c0.11,0.19,0.25,0.35,0.43,0.46c0.18,0.12,0.41,0.2,0.69,0.24
		s0.62,0.07,1.02,0.08l10.43,0.25c0.4,0.01,0.74,0,1.03-0.02s0.55-0.06,0.78-0.11s0.44-0.13,0.63-0.23c0.19-0.1,0.38-0.22,0.58-0.37
		l0.19,2.86l-3.79-0.09c0.52,0.24,1.01,0.51,1.45,0.8c0.45,0.29,0.83,0.63,1.16,1.02s0.58,0.83,0.76,1.33s0.26,1.08,0.24,1.72
		c-0.01,0.6-0.09,1.14-0.24,1.61l-2.71-0.09c0.21-0.16,0.43-0.36,0.67-0.59c0.23-0.23,0.45-0.48,0.64-0.73
		c0.19-0.26,0.36-0.53,0.49-0.81s0.2-0.57,0.21-0.87c0.01-0.38-0.08-0.73-0.26-1.05c-0.18-0.33-0.42-0.63-0.73-0.91
		c-0.31-0.28-0.67-0.54-1.08-0.78c-0.42-0.24-0.86-0.45-1.33-0.63l-9.16-0.22c-0.4-0.01-0.73,0.01-1.01,0.05
		c-0.27,0.04-0.51,0.12-0.7,0.22c-0.19,0.11-0.34,0.26-0.46,0.44c-0.12,0.19-0.23,0.42-0.33,0.7L128.65,71.95z"/>
	<path class="st0" d="M134.97,92.2l-0.11,3.23l1.96,0.55c1.36,0.38,2.44,0.39,3.23,0.03s1.34-1.08,1.65-2.17
		c0.14-0.51,0.2-1.05,0.17-1.63c-0.03-0.57-0.2-1.16-0.51-1.74c-0.32-0.59-0.8-1.18-1.46-1.78c-0.65-0.6-1.53-1.19-2.62-1.77
		l4.6,1.1c0.34,0.82,0.53,1.76,0.56,2.83c0.04,1.07-0.09,2.12-0.38,3.15c-0.44,1.6-1.18,2.76-2.2,3.48s-2.27,0.88-3.74,0.47
		l-8.64-2.4c-0.53-0.15-1.01-0.22-1.44-0.21s-0.81,0.11-1.14,0.31l0.66-2.69l3.6,1c-0.4-0.31-0.78-0.66-1.14-1.07
		c-0.36-0.4-0.65-0.86-0.88-1.36c-0.23-0.5-0.37-1.07-0.41-1.69s0.04-1.29,0.24-2.02c0.18-0.65,0.43-1.25,0.73-1.78
		c0.3-0.53,0.66-0.96,1.08-1.29s0.87-0.54,1.39-0.66c0.51-0.11,1.07-0.09,1.67,0.08c0.82,0.23,1.45,0.64,1.89,1.24
		s0.76,1.29,0.95,2.07c0.2,0.78,0.3,1.58,0.31,2.41C134.99,90.74,134.99,91.5,134.97,92.2z M131.24,86.41
		c-0.93-0.26-1.76-0.22-2.5,0.11s-1.23,0.95-1.49,1.86c-0.14,0.51-0.18,1.06-0.1,1.64c0.07,0.59,0.26,1.16,0.57,1.71
		c0.31,0.55,0.74,1.07,1.29,1.53c0.55,0.47,1.25,0.84,2.07,1.1l3.38,0.94l0.12-3.17c0.02-0.41,0-0.89-0.03-1.46
		c-0.04-0.57-0.16-1.13-0.37-1.69c-0.21-0.56-0.54-1.07-1-1.54C132.72,86.99,132.08,86.64,131.24,86.41z"/>
	<path class="st0" d="M124.58,97.12c-0.09,0.3-0.14,0.57-0.15,0.79s0.03,0.43,0.12,0.62c0.09,0.19,0.24,0.38,0.45,0.57
		c0.22,0.19,0.49,0.39,0.82,0.61l8.71,5.76c0.33,0.22,0.62,0.4,0.88,0.53s0.5,0.25,0.72,0.32c0.22,0.08,0.44,0.12,0.65,0.14
		c0.22,0.02,0.44,0.02,0.68-0.01l-1.38,2.55l-3.75-2.48c0.89,1.15,1.38,2.38,1.48,3.69c0.1,1.31-0.3,2.63-1.18,3.97
		c-0.5,0.76-1.05,1.35-1.64,1.8c-0.6,0.44-1.23,0.73-1.88,0.87c-0.66,0.14-1.33,0.14-2.01-0.01s-1.35-0.43-1.99-0.86l-6.98-4.62
		c-0.33-0.22-0.62-0.38-0.88-0.49c-0.25-0.11-0.49-0.17-0.71-0.18s-0.43,0.03-0.63,0.13c-0.2,0.09-0.42,0.23-0.65,0.42l2.78-4.2
		c-0.09,0.3-0.14,0.57-0.15,0.78c-0.01,0.22,0.03,0.43,0.12,0.62c0.09,0.19,0.24,0.38,0.45,0.57s0.49,0.39,0.82,0.61l7.22,4.77
		c1.18,0.78,2.29,1.11,3.33,0.98c1.04-0.12,1.92-0.73,2.64-1.81c0.4-0.61,0.68-1.28,0.83-2c0.15-0.72,0.15-1.44,0-2.17
		c-0.15-0.73-0.46-1.45-0.92-2.15c-0.46-0.7-1.09-1.35-1.9-1.95l-5.8-3.84c-0.33-0.22-0.62-0.38-0.88-0.49
		c-0.25-0.11-0.49-0.17-0.71-0.18s-0.43,0.03-0.63,0.13c-0.2,0.09-0.42,0.23-0.65,0.42L124.58,97.12z"/>
	<path class="st0" d="M114.26,110.63c0.57,0.73,0.65,1.57,0.24,2.52s-1.37,2.08-2.88,3.38c1.14-0.75,2.07-1.12,2.79-1.12
		s1.28,0.26,1.69,0.78c0.22,0.28,0.35,0.57,0.38,0.87s-0.01,0.6-0.12,0.9s-0.28,0.59-0.52,0.87c-0.24,0.28-0.5,0.54-0.8,0.77
		l-0.31,0.24c1.06-0.35,2.08-0.4,3.04-0.15s1.78,0.81,2.46,1.67c0.45,0.58,0.75,1.19,0.9,1.84c0.15,0.65,0.15,1.31,0,1.97
		c-0.15,0.67-0.44,1.32-0.86,1.96s-0.97,1.23-1.66,1.76c-0.58,0.45-1.17,0.81-1.77,1.06s-1.19,0.41-1.78,0.46
		c0.52,0.88,0.74,1.72,0.64,2.5s-0.4,1.37-0.92,1.78c-0.34,0.27-0.69,0.4-1.04,0.4s-0.64-0.15-0.87-0.45
		c-0.21-0.27-0.29-0.56-0.24-0.89c0.05-0.32,0.21-0.6,0.49-0.82c0.16-0.13,0.33-0.22,0.51-0.27s0.35-0.09,0.52-0.12
		s0.33-0.06,0.49-0.09c0.15-0.04,0.29-0.1,0.41-0.19c0.19-0.15,0.28-0.37,0.25-0.64c-0.03-0.28-0.19-0.68-0.51-1.2
		c-0.74,0.03-1.45-0.11-2.12-0.41s-1.25-0.77-1.73-1.39c-0.45-0.58-0.76-1.2-0.91-1.85c-0.15-0.66-0.16-1.32-0.03-1.99
		c0.14-0.67,0.42-1.32,0.84-1.96s0.98-1.23,1.66-1.76c0.33-0.26,0.66-0.48,1.01-0.68c0.19-0.12,0.35-0.24,0.49-0.33
		c0.14-0.1,0.27-0.19,0.39-0.28c0.56-0.44,0.95-0.87,1.15-1.28c0.21-0.41,0.2-0.76-0.02-1.04c-0.17-0.22-0.4-0.33-0.69-0.33
		s-0.57,0.06-0.86,0.17s-0.56,0.23-0.8,0.38l-2.89,1.72c-0.94,0.57-1.81,1.06-2.59,1.47s-1.49,0.7-2.13,0.88s-1.22,0.2-1.72,0.07
		c-0.51-0.13-0.97-0.45-1.37-0.97c-0.43-0.55-0.67-1.16-0.73-1.83c-0.06-0.67,0.05-1.37,0.34-2.09c0.28-0.72,0.73-1.46,1.34-2.21
		s1.38-1.49,2.3-2.21c0.77-0.6,1.58-1.13,2.42-1.59c0.84-0.45,1.66-0.78,2.44-0.99c0.79-0.21,1.5-0.26,2.15-0.17
		C113.34,109.82,113.86,110.12,114.26,110.63z M112.8,111.66c-0.65-0.83-1.58-1.15-2.8-0.95c-1.22,0.2-2.59,0.89-4.1,2.07
		c-0.8,0.63-1.46,1.25-1.98,1.87c-0.52,0.62-0.91,1.22-1.16,1.8s-0.37,1.11-0.36,1.58s0.15,0.88,0.41,1.22
		c0.4,0.51,0.92,0.75,1.57,0.73s1.35-0.18,2.07-0.49c0.73-0.31,1.44-0.69,2.13-1.14c0.69-0.45,1.27-0.87,1.74-1.24
		c0.82-0.64,1.46-1.22,1.93-1.74s0.79-1,0.96-1.43c0.17-0.44,0.22-0.84,0.13-1.21C113.25,112.36,113.07,112,112.8,111.66z
		 M112.58,121.48c-0.42,0.32-0.74,0.71-0.97,1.15s-0.36,0.91-0.39,1.4s0.04,1.01,0.21,1.54c0.18,0.53,0.46,1.04,0.84,1.53
		s0.83,0.91,1.35,1.26c0.51,0.35,1.05,0.6,1.6,0.74c0.55,0.14,1.11,0.17,1.68,0.09s1.1-0.32,1.59-0.7c0.43-0.34,0.76-0.73,0.99-1.17
		c0.23-0.44,0.36-0.91,0.38-1.41c0.03-0.5-0.05-1.01-0.22-1.53c-0.18-0.52-0.45-1.02-0.83-1.49c-0.37-0.48-0.81-0.89-1.33-1.24
		c-0.51-0.35-1.05-0.6-1.61-0.75s-1.12-0.19-1.7-0.11C113.6,120.87,113.07,121.1,112.58,121.48z"/>
	<path class="st0" d="M100.3,139.24c-1.06,0.4-2.04,0.59-2.94,0.59c-0.9-0.01-1.71-0.19-2.42-0.54c-0.72-0.35-1.34-0.85-1.88-1.5
		c-0.53-0.65-0.98-1.41-1.32-2.28l11.15-4.19c-0.06-0.28-0.14-0.56-0.22-0.84s-0.18-0.56-0.29-0.84c-0.38-1.01-0.87-1.89-1.47-2.67
		c-0.6-0.77-1.27-1.38-1.99-1.84c-0.72-0.45-1.49-0.73-2.3-0.84c-0.81-0.11-1.61-0.02-2.4,0.28c-0.71,0.27-1.3,0.63-1.78,1.1
		c-0.48,0.47-0.87,1.04-1.16,1.69c-0.3,0.66-0.51,1.39-0.64,2.19c-0.13,0.8-0.19,1.66-0.17,2.56l-1.2-3.93
		c0.53-0.95,1.23-1.76,2.11-2.44c0.87-0.68,1.78-1.2,2.71-1.55c1.11-0.42,2.2-0.62,3.28-0.61c1.07,0.01,2.07,0.21,2.99,0.61
		s1.75,1,2.47,1.79c0.72,0.8,1.29,1.76,1.72,2.89c0.42,1.11,0.64,2.2,0.66,3.26c0.02,1.06-0.14,2.05-0.5,2.97s-0.9,1.73-1.64,2.44
		C102.33,138.25,101.41,138.82,100.3,139.24z M102.95,131.65l-9.03,3.39c0.31,0.77,0.68,1.44,1.12,2.03
		c0.44,0.58,0.93,1.05,1.47,1.41s1.12,0.58,1.74,0.66c0.62,0.08,1.27-0.01,1.94-0.26c0.64-0.24,1.17-0.59,1.6-1.05
		s0.76-1.02,0.99-1.66c0.23-0.64,0.36-1.34,0.39-2.11C103.2,133.3,103.12,132.49,102.95,131.65z"/>
</g>
</svg>
