<?xml version="1.0" encoding="utf-8"?>
<!-- Generator: Adobe Illustrator 25.4.1, SVG Export Plug-In . SVG Version: 6.00 Build 0)  -->
<svg version="1.1" id="レイヤー_1" xmlns="http://www.w3.org/2000/svg" xmlns:xlink="http://www.w3.org/1999/xlink" x="0px"
	 y="0px" viewBox="0 0 151 151" style="enable-background:new 0 0 151 151;" xml:space="preserve">
<style type="text/css">
	.st0{fill:#FFFFFF;}
</style>
<g>
	<path class="st0" d="M36.97,26.59c-0.79-1.28-1.37-2.53-1.72-3.74c-0.36-1.22-0.49-2.36-0.41-3.43c0.08-1.07,0.37-2.04,0.87-2.91
		s1.2-1.59,2.12-2.16c0.93-0.57,1.89-0.89,2.89-0.95c1-0.06,2,0.11,2.99,0.52c0.99,0.4,1.95,1.04,2.88,1.9
		c0.93,0.86,1.79,1.93,2.59,3.21c0.78,1.26,1.36,2.51,1.72,3.73s0.5,2.37,0.42,3.44c-0.08,1.07-0.37,2.04-0.87,2.91
		s-1.21,1.6-2.14,2.17c-0.91,0.56-1.87,0.88-2.87,0.93c-1,0.06-2-0.11-2.99-0.52c-0.99-0.4-1.96-1.04-2.89-1.91
		C38.61,28.92,37.75,27.85,36.97,26.59z M39,25.33c1.58,2.54,3.15,4.31,4.74,5.31c1.58,1,3.03,1.09,4.34,0.28
		c1.33-0.82,1.89-2.16,1.7-4.03c-0.19-1.86-1.08-4.06-2.65-6.6c-1.57-2.54-3.15-4.31-4.73-5.31c-1.58-1-3.04-1.09-4.36-0.27
		c-1.31,0.81-1.87,2.15-1.68,4.01C36.54,20.58,37.43,22.78,39,25.33z"/>
	<path class="st0" d="M55.47,6.54l0.05-0.02l4.93,15.6c0.19,0.59,0.36,1.07,0.52,1.42c0.16,0.35,0.33,0.63,0.51,0.82
		c0.18,0.19,0.38,0.32,0.6,0.39c0.22,0.07,0.49,0.1,0.8,0.1l-4.92,1.55c0.26-0.18,0.46-0.36,0.62-0.53
		c0.15-0.18,0.25-0.39,0.28-0.65c0.04-0.26,0.02-0.58-0.06-0.97c-0.07-0.39-0.21-0.88-0.39-1.47l-3.63-11.49
		c-0.09-0.29-0.2-0.53-0.32-0.74c-0.12-0.21-0.31-0.36-0.55-0.46c-0.24-0.1-0.56-0.14-0.98-0.1c-0.41,0.03-0.94,0.15-1.59,0.35
		c1-0.63,1.81-1.25,2.42-1.86S54.93,7.22,55.47,6.54z"/>
	<path class="st0" d="M76.23,3.18l2.68,0.38l11.52,17.99l1.93-13.57c0.06-0.41,0.08-0.75,0.08-1.03c-0.01-0.28-0.06-0.52-0.14-0.72
		c-0.09-0.2-0.22-0.38-0.4-0.53c-0.18-0.15-0.41-0.28-0.7-0.4l3.49,0.5c-0.6,0.1-1.04,0.3-1.3,0.6c-0.26,0.3-0.45,0.84-0.56,1.64
		L90.42,25l-0.2-0.03L77.89,5.7L75.8,20.42c-0.11,0.8-0.09,1.38,0.08,1.74s0.53,0.67,1.08,0.94l-3.49-0.5
		c0.62-0.08,1.05-0.28,1.31-0.58c0.25-0.31,0.44-0.86,0.55-1.66l2.06-14.49c0.06-0.41,0.08-0.75,0.07-1.03
		c-0.01-0.28-0.06-0.52-0.14-0.72c-0.08-0.2-0.22-0.38-0.39-0.53C76.75,3.43,76.51,3.3,76.23,3.18z"/>
	<path class="st0" d="M100.84,12.08l2.66,1.13l-5.38,10.11c-0.38,0.71-0.62,1.36-0.74,1.92c-0.11,0.57-0.11,1.08,0,1.53
		c0.11,0.45,0.33,0.85,0.64,1.19c0.32,0.34,0.71,0.63,1.18,0.88c0.75,0.4,1.48,0.57,2.21,0.52c0.73-0.05,1.42-0.24,2.07-0.58
		c0.65-0.34,1.24-0.78,1.79-1.32c0.54-0.54,0.99-1.11,1.33-1.72l3-5.63c0.19-0.35,0.33-0.66,0.45-0.93c0.11-0.27,0.2-0.52,0.25-0.74
		s0.08-0.45,0.08-0.66c0-0.21-0.03-0.44-0.07-0.68l2.66,1.13L106.7,30c-0.39,0.73-0.62,1.3-0.68,1.7c-0.06,0.4-0.04,0.78,0.06,1.14
		l-2.48-1.23l2-3.76c-0.57,0.46-1.12,0.85-1.66,1.16c-0.54,0.31-1.09,0.53-1.64,0.66c-0.56,0.13-1.14,0.15-1.74,0.05
		c-0.6-0.1-1.23-0.32-1.89-0.67c-1.43-0.76-2.37-1.72-2.83-2.88c-0.46-1.16-0.29-2.48,0.49-3.96l3.79-7.12
		c0.19-0.35,0.34-0.66,0.45-0.93c0.11-0.27,0.2-0.52,0.25-0.74c0.06-0.23,0.08-0.45,0.08-0.66
		C100.91,12.54,100.89,12.31,100.84,12.08z"/>
	<path class="st0" d="M124.3,28.13c0.61,0.64,1.09,1.33,1.42,2.07c0.34,0.74,0.53,1.53,0.56,2.36l3.3-3.16
		c0.42-0.4,0.69-0.73,0.82-0.98c0.12-0.25,0.17-0.56,0.14-0.92l2.18,1.78l-13.41,12.88c-0.58,0.56-0.97,1.02-1.16,1.38
		c-0.19,0.36-0.29,0.73-0.29,1.1l-1.97-1.94l1.57-1.5c-0.97,0.13-1.87,0.01-2.7-0.34c-0.82-0.36-1.53-0.84-2.12-1.45
		c-0.82-0.85-1.42-1.77-1.81-2.74c-0.39-0.97-0.56-1.94-0.54-2.9c0.03-0.96,0.25-1.91,0.67-2.83c0.42-0.92,1.02-1.76,1.81-2.52
		c0.91-0.87,1.87-1.53,2.89-1.98c1.02-0.45,2.04-0.68,3.07-0.7c1.02-0.02,2.01,0.17,2.97,0.57
		C122.65,26.71,123.52,27.31,124.3,28.13z M115.1,29.18c-0.83,0.79-1.51,1.64-2.06,2.54s-0.9,1.81-1.08,2.72
		c-0.18,0.91-0.16,1.8,0.05,2.66c0.21,0.86,0.66,1.65,1.34,2.35c0.56,0.58,1.22,0.98,1.98,1.19c0.76,0.21,1.57,0.24,2.42,0.1
		l6.9-6.62c0.52-1.17,0.69-2.24,0.51-3.21c-0.17-0.97-0.62-1.83-1.35-2.59c-0.59-0.61-1.23-1.04-1.93-1.3s-1.43-0.34-2.18-0.25
		c-0.75,0.08-1.52,0.33-2.31,0.73C116.62,27.9,115.85,28.46,115.1,29.18z"/>
	<path class="st0" d="M136.52,45.76c0.49,1.01,0.78,1.97,0.86,2.86c0.08,0.89-0.03,1.71-0.31,2.46s-0.72,1.41-1.32,2
		c-0.59,0.59-1.3,1.1-2.14,1.53l-5.19-10.68c-0.27,0.09-0.54,0.19-0.81,0.3c-0.27,0.11-0.54,0.23-0.81,0.36
		c-0.96,0.47-1.8,1.04-2.51,1.71c-0.71,0.67-1.26,1.38-1.64,2.14c-0.38,0.76-0.59,1.55-0.63,2.36c-0.04,0.81,0.13,1.6,0.5,2.36
		c0.33,0.68,0.75,1.23,1.26,1.66c0.51,0.43,1.11,0.76,1.79,1c0.68,0.24,1.42,0.38,2.23,0.44c0.81,0.06,1.66,0.03,2.56-0.06
		l-3.79,1.56c-0.99-0.44-1.86-1.06-2.62-1.87c-0.76-0.8-1.35-1.65-1.79-2.55c-0.52-1.07-0.82-2.13-0.91-3.2
		c-0.09-1.07,0.02-2.08,0.33-3.03c0.31-0.96,0.83-1.83,1.55-2.62c0.72-0.79,1.63-1.45,2.71-1.97c1.06-0.52,2.12-0.84,3.17-0.96
		c1.05-0.12,2.04-0.05,2.99,0.22c0.95,0.27,1.81,0.74,2.58,1.4C135.36,43.83,136,44.7,136.52,45.76z M128.75,43.83l4.2,8.65
		c0.74-0.38,1.37-0.81,1.91-1.3c0.54-0.49,0.96-1.02,1.27-1.59c0.31-0.57,0.47-1.17,0.49-1.79c0.02-0.63-0.13-1.26-0.44-1.9
		c-0.3-0.61-0.7-1.11-1.2-1.49c-0.5-0.38-1.08-0.66-1.74-0.83s-1.37-0.23-2.13-0.19C130.35,43.43,129.56,43.58,128.75,43.83z"/>
	<path class="st0" d="M129.81,70.7l14.63,0.59c0.41,0.02,0.76,0.01,1.03-0.03c0.27-0.04,0.51-0.11,0.7-0.21
		c0.19-0.1,0.35-0.25,0.48-0.45c0.13-0.19,0.24-0.44,0.33-0.73l-0.28,6.85c-0.04,0.9-0.16,1.78-0.36,2.63
		c-0.2,0.85-0.51,1.6-0.92,2.25c-0.41,0.65-0.94,1.17-1.57,1.55c-0.64,0.38-1.41,0.55-2.31,0.51c-0.79-0.03-1.48-0.22-2.08-0.55
		s-1.11-0.77-1.53-1.32c-0.42-0.54-0.75-1.16-0.98-1.85c-0.23-0.69-0.39-1.4-0.48-2.14l-5.71,4.37c-0.33,0.27-0.72,0.58-1.15,0.93
		c-0.44,0.35-0.86,0.69-1.27,1.04c-0.41,0.34-0.76,0.65-1.07,0.92c-0.3,0.27-0.48,0.45-0.54,0.54l0.15-3.78
		c0.26,0.01,0.52-0.02,0.78-0.1s0.52-0.19,0.79-0.35c0.27-0.16,0.57-0.35,0.9-0.58s0.7-0.5,1.11-0.8l6-4.44l0.1-2.42l-6.82-0.28
		c-0.81-0.03-1.38,0.05-1.72,0.26c-0.34,0.2-0.61,0.59-0.82,1.17l0.21-5.19c0.14,0.61,0.38,1.02,0.71,1.24
		C128.43,70.54,129,70.67,129.81,70.7z M136.99,73.14l-0.12,2.85c-0.07,1.65,0.3,2.96,1.1,3.93c0.8,0.96,1.98,1.48,3.54,1.54
		c0.86,0.03,1.59-0.09,2.19-0.36c0.6-0.28,1.08-0.66,1.45-1.16c0.37-0.49,0.64-1.07,0.82-1.73c0.18-0.66,0.28-1.37,0.31-2.12
		l0.11-2.56L136.99,73.14z"/>
	<path class="st0" d="M138.31,100.26c-0.45,1.12-1.04,2.06-1.77,2.83c-0.73,0.77-1.57,1.35-2.51,1.75c-0.94,0.39-1.94,0.59-3,0.59
		c-1.06,0-2.14-0.22-3.24-0.66l-0.03-0.01c-1.1-0.44-2.04-1.03-2.8-1.76s-1.36-1.57-1.77-2.5c-0.41-0.93-0.61-1.93-0.61-2.99
		c0-1.06,0.22-2.15,0.67-3.27c0.45-1.12,1.04-2.06,1.77-2.83c0.73-0.77,1.57-1.35,2.51-1.75c0.94-0.39,1.94-0.59,3-0.59
		c1.06,0,2.14,0.22,3.24,0.66l0.03,0.01c1.1,0.44,2.04,1.03,2.8,1.76s1.36,1.57,1.77,2.5c0.41,0.93,0.61,1.93,0.61,2.99
		C138.98,98.05,138.75,99.14,138.31,100.26z M132.95,91.86c-1.04-0.42-2.06-0.67-3.04-0.76c-0.98-0.09-1.88-0.02-2.71,0.19
		c-0.83,0.22-1.55,0.59-2.16,1.11c-0.62,0.52-1.08,1.19-1.4,1.99c-0.32,0.8-0.44,1.61-0.36,2.41c0.08,0.8,0.35,1.57,0.8,2.29
		c0.45,0.73,1.06,1.4,1.82,2.01c0.77,0.61,1.68,1.13,2.72,1.55c1.05,0.42,2.06,0.67,3.04,0.76c0.98,0.09,1.88,0.02,2.69-0.2
		c0.82-0.22,1.53-0.59,2.15-1.12c0.61-0.52,1.08-1.19,1.4-1.99c0.32-0.8,0.44-1.61,0.36-2.41c-0.08-0.8-0.35-1.57-0.79-2.29
		c-0.44-0.72-1.04-1.39-1.81-2C134.91,92.79,134,92.28,132.95,91.86z"/>
	<path class="st0" d="M120.42,103.96l3.86,3.7c-1.07-0.72-2.03-1.22-2.88-1.51c-0.85-0.29-1.62-0.41-2.3-0.37
		c-0.68,0.04-1.28,0.23-1.81,0.56c-0.54,0.33-1.01,0.76-1.44,1.29c-0.89,1.1-1.28,2.12-1.17,3.06c0.11,0.94,0.54,1.72,1.3,2.34
		c0.44,0.35,0.87,0.57,1.3,0.65c0.43,0.08,0.84,0.09,1.22,0.02c0.38-0.07,0.73-0.19,1.05-0.36c0.32-0.17,0.61-0.34,0.86-0.5
		l2.69-1.71c0.26-0.18,0.59-0.35,0.98-0.51c0.39-0.17,0.81-0.28,1.28-0.35c0.46-0.06,0.94-0.04,1.45,0.07
		c0.51,0.11,1,0.36,1.48,0.75c0.96,0.78,1.44,1.75,1.41,2.92c-0.02,1.17-0.51,2.34-1.47,3.53c-0.65,0.8-1.37,1.44-2.16,1.9
		c-0.79,0.46-1.59,0.77-2.4,0.91l-2.84-2.55c1.73,0.79,3.15,1.15,4.25,1.06c1.11-0.08,2.06-0.62,2.87-1.62
		c0.64-0.79,0.98-1.6,1.04-2.43c0.05-0.83-0.31-1.56-1.08-2.18c-0.35-0.28-0.7-0.45-1.05-0.49c-0.35-0.04-0.69-0.02-1.02,0.07
		c-0.32,0.09-0.64,0.22-0.93,0.39c-0.29,0.17-0.57,0.34-0.82,0.5l-2.42,1.56c-0.31,0.21-0.69,0.42-1.14,0.65
		c-0.45,0.23-0.94,0.39-1.47,0.5c-0.53,0.1-1.09,0.1-1.67,0c-0.58-0.11-1.16-0.4-1.75-0.87c-0.54-0.44-0.96-0.94-1.24-1.51
		c-0.29-0.57-0.44-1.19-0.46-1.86c-0.02-0.67,0.11-1.37,0.39-2.1c0.28-0.73,0.72-1.48,1.34-2.24c0.67-0.83,1.43-1.55,2.27-2.14
		C118.78,104.5,119.61,104.12,120.42,103.96z"/>
	<path class="st0" d="M113.89,130.8c-0.93,0.64-1.82,1.07-2.7,1.29c-0.87,0.22-1.69,0.24-2.47,0.07c-0.78-0.17-1.51-0.5-2.19-0.99
		c-0.67-0.49-1.29-1.12-1.84-1.88l9.75-6.78c-0.13-0.25-0.27-0.5-0.42-0.75c-0.15-0.25-0.31-0.5-0.48-0.75
		c-0.61-0.88-1.3-1.62-2.07-2.22c-0.77-0.6-1.56-1.03-2.38-1.29c-0.81-0.26-1.62-0.34-2.43-0.25c-0.81,0.09-1.56,0.38-2.25,0.86
		c-0.62,0.43-1.1,0.93-1.45,1.5c-0.35,0.57-0.58,1.21-0.71,1.92c-0.13,0.71-0.15,1.47-0.08,2.28c0.07,0.81,0.22,1.65,0.46,2.51
		l-2.13-3.5c0.28-1.04,0.76-2,1.44-2.87c0.68-0.87,1.42-1.59,2.24-2.16c0.97-0.68,1.98-1.14,3.02-1.39c1.04-0.25,2.05-0.3,3.04-0.14
		c0.99,0.16,1.93,0.53,2.83,1.12c0.89,0.59,1.69,1.38,2.37,2.37c0.68,0.97,1.16,1.97,1.44,2.98c0.29,1.02,0.37,2.01,0.24,2.99
		c-0.12,0.98-0.45,1.9-0.98,2.76C115.62,129.35,114.86,130.12,113.89,130.8z M114.59,122.82l-7.9,5.49
		c0.49,0.67,1.02,1.23,1.58,1.68c0.57,0.45,1.16,0.79,1.77,1.01c0.61,0.22,1.22,0.29,1.85,0.21c0.62-0.08,1.23-0.32,1.81-0.73
		c0.56-0.39,0.99-0.86,1.29-1.41c0.3-0.55,0.49-1.17,0.55-1.85c0.07-0.68,0.02-1.39-0.14-2.13
		C115.24,124.34,114.97,123.59,114.59,122.82z"/>
</g>
</svg>
