<?xml version="1.0" encoding="utf-8"?>
<!-- Generator: Adobe Illustrator 25.4.1, SVG Export Plug-In . SVG Version: 6.00 Build 0)  -->
<svg version="1.1" id="レイヤー_1" xmlns="http://www.w3.org/2000/svg" xmlns:xlink="http://www.w3.org/1999/xlink" x="0px"
	 y="0px" viewBox="0 0 58 548" style="enable-background:new 0 0 58 548;" xml:space="preserve">
<style type="text/css">
	.st0{fill:#D16646;}
</style>
<g>
	<path class="st0" d="M53.92,9.24c-0.12-0.28-0.29-0.54-0.52-0.79c-0.22-0.24-0.54-0.42-0.97-0.51c-0.42-0.1-0.97-0.1-1.64,0
		c-0.67,0.1-1.49,0.35-2.46,0.76L17.66,21.55l30.56,12.43c1.05,0.44,1.92,0.74,2.61,0.88c0.69,0.14,1.24,0.19,1.67,0.15
		c0.42-0.04,0.74-0.15,0.94-0.33c0.2-0.18,0.36-0.39,0.49-0.64v5.33c-0.08-0.28-0.23-0.58-0.46-0.88c-0.22-0.3-0.63-0.67-1.21-1.09
		c-0.59-0.42-1.42-0.92-2.52-1.49c-1.09-0.57-2.57-1.23-4.43-2L11.78,20.15v-0.36L49.73,3.66c1.46-0.61,2.48-1.19,3.06-1.76
		c0.58-0.57,0.96-1.11,1.12-1.64V9.24z"/>
	<path class="st0" d="M46.34,59.26c0,2.42-0.34,4.54-1.03,6.34c-0.69,1.8-1.66,3.28-2.91,4.46c-1.25,1.17-2.73,2.05-4.43,2.64
		c-1.7,0.58-3.56,0.9-5.58,0.94V48.1c-0.61-0.08-1.22-0.14-1.85-0.18c-0.63-0.04-1.26-0.06-1.91-0.06c-2.3,0-4.46,0.31-6.46,0.94
		c-2,0.63-3.73,1.49-5.18,2.61c-1.46,1.11-2.6,2.43-3.43,3.97c-0.83,1.54-1.24,3.21-1.24,5.03c0,1.62,0.29,3.08,0.88,4.4
		c0.58,1.31,1.42,2.52,2.52,3.61c1.09,1.09,2.4,2.07,3.91,2.94c1.52,0.87,3.18,1.63,5,2.27l-8.79-0.55c-1.5-1.78-2.6-3.8-3.3-6.06
		c-0.71-2.26-1.06-4.47-1.06-6.61c0-2.55,0.41-4.89,1.24-7.03c0.83-2.14,1.99-3.99,3.49-5.55c1.5-1.56,3.31-2.76,5.46-3.61
		c2.14-0.85,4.51-1.27,7.09-1.27c2.55,0,4.89,0.37,7.03,1.12c2.14,0.75,4,1.83,5.58,3.24c1.58,1.41,2.8,3.12,3.67,5.12
		C45.9,54.44,46.34,56.71,46.34,59.26z M33.12,48.22V68.9c1.78-0.04,3.42-0.28,4.91-0.73c1.5-0.45,2.81-1.07,3.94-1.88
		c1.13-0.81,2.01-1.81,2.64-3c0.63-1.19,0.94-2.56,0.94-4.09c0-1.46-0.3-2.79-0.91-4c-0.61-1.21-1.46-2.29-2.58-3.24
		c-1.11-0.95-2.43-1.74-3.94-2.36C36.61,48.96,34.94,48.5,33.12,48.22z"/>
	<path class="st0" d="M11.78,77.99c0.2,0.65,0.42,1.17,0.67,1.58s0.55,0.73,0.94,0.97c0.38,0.24,0.88,0.4,1.49,0.48
		s1.33,0.12,2.18,0.12h35.59c1.25,0,2.16-0.1,2.73-0.3c0.57-0.2,1.09-0.61,1.58-1.21l0.73,6H17.06c-0.85,0-1.57,0.05-2.15,0.15
		c-0.59,0.1-1.08,0.27-1.49,0.52c-0.4,0.24-0.73,0.57-0.97,0.97c-0.24,0.4-0.46,0.91-0.67,1.52V77.99z"/>
	<path class="st0" d="M46.04,98.85c-0.28-0.32-0.69-0.58-1.21-0.76c-0.53-0.18-1.38-0.03-2.55,0.46L17.3,109.33l21.4,9.15
		c1.58,0.69,2.83,1.09,3.76,1.21s1.64,0.12,2.12,0c0.49-0.12,0.82-0.31,1-0.58c0.18-0.26,0.33-0.48,0.45-0.64v5.88
		c-0.28-0.45-0.78-1.03-1.49-1.76s-1.93-1.46-3.67-2.18L11.78,108v-0.67L40.7,94.78c1.82-0.81,3.11-1.5,3.88-2.06
		c0.77-0.57,1.25-1.05,1.46-1.46V98.85z"/>
	<path class="st0" d="M46.34,143.41c0,2.42-0.34,4.54-1.03,6.34c-0.69,1.8-1.66,3.28-2.91,4.46c-1.25,1.17-2.73,2.05-4.43,2.64
		c-1.7,0.58-3.56,0.9-5.58,0.94v-25.52c-0.61-0.08-1.22-0.14-1.85-0.18c-0.63-0.04-1.26-0.06-1.91-0.06c-2.3,0-4.46,0.31-6.46,0.94
		c-2,0.63-3.73,1.49-5.18,2.61c-1.46,1.11-2.6,2.43-3.43,3.97c-0.83,1.54-1.24,3.21-1.24,5.03c0,1.62,0.29,3.08,0.88,4.4
		c0.58,1.31,1.42,2.52,2.52,3.61c1.09,1.09,2.4,2.07,3.91,2.94c1.52,0.87,3.18,1.63,5,2.27l-8.79-0.55c-1.5-1.78-2.6-3.8-3.3-6.06
		c-0.71-2.26-1.06-4.47-1.06-6.61c0-2.55,0.41-4.89,1.24-7.03c0.83-2.14,1.99-3.99,3.49-5.55c1.5-1.56,3.31-2.76,5.46-3.61
		c2.14-0.85,4.51-1.27,7.09-1.27c2.55,0,4.89,0.37,7.03,1.12c2.14,0.75,4,1.83,5.58,3.24c1.58,1.41,2.8,3.12,3.67,5.12
		C45.9,138.59,46.34,140.86,46.34,143.41z M33.12,132.37v20.67c1.78-0.04,3.42-0.28,4.91-0.73c1.5-0.45,2.81-1.07,3.94-1.88
		c1.13-0.81,2.01-1.81,2.64-3c0.63-1.19,0.94-2.56,0.94-4.09c0-1.46-0.3-2.79-0.91-4c-0.61-1.21-1.46-2.29-2.58-3.24
		c-1.11-0.95-2.43-1.74-3.94-2.36C36.61,133.11,34.94,132.66,33.12,132.37z"/>
	<path class="st0" d="M46.04,167.96l8.43,4.18h-8.43v9.94h-0.67v-9.94H19.3c-1.33,0-2.45,0.09-3.33,0.27
		c-0.89,0.18-1.6,0.43-2.12,0.76c-0.53,0.32-0.89,0.74-1.09,1.24c-0.2,0.5-0.3,1.08-0.3,1.73c0,1.17,0.33,2.16,1,2.97
		c0.67,0.81,1.61,1.56,2.82,2.24l-0.55,0.79c-1.29-0.81-2.31-1.69-3.06-2.64c-0.75-0.95-1.12-2.33-1.12-4.15
		c0-2.83,0.82-4.82,2.46-5.97c1.64-1.15,3.95-1.73,6.94-1.73h24.43v-5.94h0.67V167.96z"/>
	<path class="st0" d="M17.24,207.25H48.7c0.89,0,1.63-0.04,2.21-0.12c0.58-0.08,1.07-0.22,1.46-0.42c0.38-0.2,0.7-0.51,0.94-0.91
		c0.24-0.4,0.44-0.93,0.61-1.58v27.22l-11.09,1.27c2.1-0.48,3.81-1.17,5.12-2.06c1.31-0.89,2.33-1.91,3.06-3.06
		c0.73-1.15,1.22-2.41,1.49-3.76c0.26-1.35,0.39-2.78,0.39-4.27v-7.7H33.97v5.03c0,2.06,0.12,3.75,0.36,5.06
		c0.24,1.31,0.61,2.36,1.09,3.15c0.48,0.79,1.07,1.36,1.76,1.73c0.69,0.36,1.47,0.65,2.36,0.85l-12.31-0.85
		c0.89-0.04,1.69-0.19,2.4-0.45c0.71-0.26,1.3-0.75,1.79-1.46c0.49-0.71,0.86-1.71,1.12-3c0.26-1.29,0.39-3.01,0.39-5.15v-4.91
		h-15.7c-1.78,0-3.04,0.26-3.79,0.79c-0.75,0.52-1.3,1.43-1.67,2.73v-11.64c0.36,1.29,0.92,2.2,1.67,2.73S15.46,207.25,17.24,207.25
		z"/>
	<path class="st0" d="M11.78,236.83c0.2,0.65,0.42,1.17,0.67,1.58c0.24,0.4,0.55,0.73,0.94,0.97c0.38,0.24,0.88,0.4,1.49,0.49
		c0.61,0.08,1.33,0.12,2.18,0.12h22.37c0.85,0,1.59-0.03,2.21-0.09c0.63-0.06,1.18-0.15,1.67-0.27c0.49-0.12,0.93-0.29,1.33-0.52
		s0.81-0.5,1.21-0.82l0.55,6.18H17.06c-0.85,0-1.57,0.05-2.15,0.15c-0.59,0.1-1.08,0.27-1.49,0.52c-0.4,0.24-0.73,0.57-0.97,0.97
		c-0.24,0.4-0.46,0.91-0.67,1.52V236.83z M56.89,242.05c0,0.93-0.27,1.7-0.82,2.3s-1.28,0.91-2.21,0.91c-0.93,0-1.68-0.3-2.24-0.91
		c-0.57-0.61-0.85-1.38-0.85-2.3c0-0.89,0.28-1.64,0.85-2.24c0.57-0.61,1.31-0.91,2.24-0.91c0.93,0,1.67,0.3,2.21,0.91
		C56.62,240.41,56.89,241.16,56.89,242.05z"/>
	<path class="st0" d="M11.78,249.69c0.24,0.28,0.73,0.89,1.46,1.82c0.73,0.93,1.94,2.04,3.64,3.33l11.94,9.28l12.07-8.61
		c1.7-1.21,2.93-2.15,3.7-2.82c0.77-0.67,1.25-1.22,1.46-1.67v8c-0.28-0.28-0.71-0.5-1.27-0.64s-1.39,0.17-2.49,0.94l-10.55,7.58
		l8.25,6.43c1.25,0.97,2.24,1.61,2.97,1.91c0.73,0.3,1.3,0.43,1.73,0.39c0.42-0.04,0.73-0.18,0.91-0.42
		c0.18-0.24,0.33-0.41,0.45-0.49v6c-0.28-0.53-0.79-1.28-1.52-2.27c-0.73-0.99-1.94-2.13-3.64-3.43L31,267.39l-14.13,10.12
		c-1.29,0.93-2.39,1.73-3.27,2.39c-0.89,0.67-1.5,1.38-1.82,2.15V274c0.12,0.12,0.25,0.26,0.39,0.42c0.14,0.16,0.35,0.26,0.64,0.3
		c0.28,0.04,0.64-0.01,1.06-0.15c0.42-0.14,0.96-0.46,1.61-0.94l12.61-9.03l-10.25-8.06c-1.25-0.97-2.25-1.6-3-1.88
		c-0.75-0.28-1.33-0.39-1.76-0.33c-0.42,0.06-0.72,0.22-0.88,0.48c-0.16,0.26-0.3,0.43-0.42,0.52V249.69z"/>
	<path class="st0" d="M53.92,314.01c-0.2-0.65-0.43-1.17-0.7-1.58c-0.26-0.4-0.59-0.73-0.97-0.97c-0.38-0.24-0.88-0.42-1.49-0.54
		c-0.61-0.12-1.33-0.18-2.18-0.18H12.81v10.25c0,1.49,0.14,2.76,0.42,3.79c0.28,1.03,0.8,1.92,1.55,2.67s1.78,1.39,3.09,1.94
		s3.02,1.06,5.12,1.55l-11.22-1.21v-26.86c0.36,1.29,0.91,2.16,1.64,2.61c0.73,0.44,1.96,0.67,3.7,0.67h31.47
		c0.89,0,1.63-0.05,2.21-0.15c0.58-0.1,1.08-0.27,1.49-0.52c0.4-0.24,0.74-0.58,1-1c0.26-0.42,0.47-0.96,0.64-1.61V314.01z"/>
	<path class="st0" d="M11.78,335.05c0.2,0.65,0.42,1.17,0.67,1.58c0.24,0.4,0.55,0.73,0.94,0.97c0.38,0.24,0.88,0.4,1.49,0.49
		c0.61,0.08,1.33,0.12,2.18,0.12h22.37c0.85,0,1.59-0.03,2.21-0.09c0.63-0.06,1.18-0.15,1.67-0.27c0.49-0.12,0.93-0.29,1.33-0.52
		s0.81-0.5,1.21-0.82l0.55,6.18H17.06c-0.85,0-1.57,0.05-2.15,0.15c-0.59,0.1-1.08,0.27-1.49,0.52c-0.4,0.24-0.73,0.57-0.97,0.97
		c-0.24,0.4-0.46,0.91-0.67,1.52V335.05z M56.89,340.27c0,0.93-0.27,1.7-0.82,2.3s-1.28,0.91-2.21,0.91c-0.93,0-1.68-0.3-2.24-0.91
		c-0.57-0.61-0.85-1.38-0.85-2.3c0-0.89,0.28-1.64,0.85-2.24c0.57-0.61,1.31-0.91,2.24-0.91c0.93,0,1.67,0.3,2.21,0.91
		C56.62,338.63,56.89,339.38,56.89,340.27z"/>
	<path class="st0" d="M5.6,352.39h33.83c0.85,0,1.59-0.03,2.21-0.09c0.63-0.06,1.18-0.15,1.67-0.27c0.49-0.12,0.93-0.29,1.33-0.52
		c0.4-0.22,0.81-0.5,1.21-0.82l0.55,6.06h-4.3c0.89,0.73,1.61,1.52,2.15,2.36s0.97,1.72,1.27,2.61c0.3,0.89,0.51,1.78,0.64,2.67
		c0.12,0.89,0.18,1.72,0.18,2.49c0,2.59-0.39,4.93-1.18,7.03s-1.91,3.91-3.37,5.43s-3.2,2.69-5.24,3.52
		c-2.04,0.83-4.31,1.24-6.82,1.24c-2.55,0-4.93-0.43-7.15-1.3c-2.22-0.87-4.15-2.07-5.79-3.61s-2.93-3.38-3.88-5.52
		c-0.95-2.14-1.42-4.47-1.42-6.97c0-1.9,0.29-3.68,0.88-5.33c0.58-1.66,1.46-3.15,2.64-4.49H5.6c-0.85,0-1.57,0.05-2.15,0.15
		c-0.59,0.1-1.08,0.27-1.49,0.52c-0.4,0.24-0.73,0.57-0.97,0.97c-0.24,0.4-0.46,0.91-0.67,1.52v-10.79
		c0.16,0.65,0.37,1.17,0.64,1.58c0.26,0.4,0.59,0.73,0.97,0.97c0.38,0.24,0.88,0.4,1.49,0.48C4.02,352.35,4.75,352.39,5.6,352.39z
		 M12.51,367.12c0,1.9,0.39,3.61,1.18,5.12s1.86,2.81,3.21,3.88c1.35,1.07,2.96,1.89,4.82,2.46c1.86,0.57,3.86,0.85,6,0.85
		c2.51,0,4.83-0.28,6.97-0.85c2.14-0.57,4-1.42,5.58-2.58c1.58-1.15,2.81-2.58,3.7-4.27c0.89-1.7,1.33-3.7,1.33-6
		c0-1.46-0.29-2.99-0.88-4.61c-0.59-1.62-1.71-3.03-3.37-4.24H19.12c-2.26,1.09-3.93,2.5-5,4.21
		C13.04,362.81,12.51,364.82,12.51,367.12z"/>
	<path class="st0" d="M11.78,406.11c0.36,1.29,0.91,2.16,1.64,2.61c0.73,0.44,1.96,0.67,3.7,0.67h31.47c0.89,0,1.63-0.05,2.21-0.15
		c0.58-0.1,1.08-0.27,1.49-0.52c0.4-0.24,0.74-0.58,1-1c0.26-0.42,0.47-0.96,0.64-1.61v13.82c0,4.77-0.86,8.55-2.58,11.34
		c-1.72,2.79-4.19,4.18-7.43,4.18c-2.67,0-4.91-1.01-6.73-3.03c-1.82-2.02-3.05-4.83-3.7-8.43c-0.49,4.04-1.61,7.2-3.37,9.49
		c-1.76,2.28-4.03,3.43-6.82,3.43c-1.82,0-3.44-0.36-4.85-1.09c-1.42-0.73-2.62-1.76-3.61-3.09s-1.75-2.96-2.27-4.88
		c-0.53-1.92-0.79-4.07-0.79-6.46V406.11z M12.75,413.99v6.49c0,3.64,0.91,6.47,2.73,8.49c1.82,2.02,4.34,3.03,7.58,3.03
		c3.15,0,5.59-1.02,7.31-3.06c1.72-2.04,2.58-4.78,2.58-8.21v-6.73H12.75z M33.91,413.99v6.49c0,3.11,0.89,5.59,2.67,7.43
		c1.78,1.84,4.1,2.76,6.97,2.76c3.03,0,5.36-1,6.97-3s2.43-4.82,2.43-8.46v-5.21H33.91z"/>
	<path class="st0" d="M30.58,456.37l1.64,6.73h4.37c3.03,0,5.26-0.6,6.7-1.79c1.43-1.19,2.15-3,2.15-5.43
		c0-1.13-0.19-2.28-0.58-3.46c-0.38-1.17-1.07-2.27-2.06-3.3c-0.99-1.03-2.33-1.98-4.03-2.85c-1.7-0.87-3.84-1.59-6.43-2.15
		l10.12-0.36c1.17,1.49,2.1,3.33,2.79,5.52c0.69,2.18,1.03,4.43,1.03,6.73c0,3.56-0.85,6.38-2.55,8.46
		c-1.7,2.08-4.18,3.12-7.46,3.12H17.06c-1.17,0-2.2,0.13-3.09,0.39c-0.89,0.26-1.62,0.7-2.18,1.3l-0.18-5.94h8
		c-1.01-0.41-2-0.92-2.97-1.55c-0.97-0.63-1.84-1.39-2.61-2.3c-0.77-0.91-1.37-1.99-1.82-3.24c-0.44-1.25-0.67-2.69-0.67-4.3
		c0-1.46,0.16-2.82,0.48-4.09c0.32-1.27,0.82-2.36,1.49-3.27c0.67-0.91,1.5-1.63,2.49-2.15c0.99-0.53,2.15-0.79,3.49-0.79
		c1.82,0,3.35,0.49,4.61,1.49c1.25,0.99,2.3,2.23,3.15,3.73c0.85,1.5,1.53,3.09,2.03,4.79C29.78,453.34,30.21,454.91,30.58,456.37z
		 M19.54,446.55c-2.06,0-3.76,0.56-5.09,1.67c-1.33,1.11-2,2.68-2,4.7c0,1.13,0.24,2.28,0.73,3.46c0.49,1.17,1.2,2.24,2.15,3.21
		c0.95,0.97,2.13,1.78,3.55,2.43c1.41,0.65,3.05,1.01,4.91,1.09h7.52l-1.58-6.61c-0.2-0.85-0.51-1.85-0.91-3s-0.98-2.24-1.73-3.27
		c-0.75-1.03-1.73-1.9-2.94-2.61C22.94,446.9,21.4,446.55,19.54,446.55z"/>
	<path class="st0" d="M11.78,473.1c0.2,0.65,0.42,1.17,0.67,1.58s0.55,0.73,0.94,0.97c0.38,0.24,0.88,0.4,1.49,0.48
		s1.33,0.12,2.18,0.12h35.59c1.25,0,2.16-0.1,2.73-0.3c0.57-0.2,1.09-0.61,1.58-1.21l0.73,6H17.06c-0.85,0-1.57,0.05-2.15,0.15
		c-0.59,0.1-1.08,0.27-1.49,0.52c-0.4,0.24-0.73,0.57-0.97,0.97c-0.24,0.4-0.46,0.91-0.67,1.52V473.1z"/>
	<path class="st0" d="M17.06,490.56h22.37c0.85,0,1.59-0.03,2.21-0.09c0.63-0.06,1.18-0.15,1.67-0.27c0.49-0.12,0.93-0.29,1.33-0.52
		s0.81-0.5,1.21-0.82l0.55,6.18h-9.58c2.95,0.97,5.27,2.54,6.97,4.7s2.55,4.84,2.55,8.03c0,3.52-0.9,6.31-2.7,8.37
		c-1.8,2.06-4.15,3.25-7.06,3.58c3.03,0.93,5.42,2.48,7.15,4.64c1.74,2.16,2.61,4.88,2.61,8.16c0,1.9-0.27,3.6-0.82,5.09
		c-0.55,1.49-1.33,2.76-2.33,3.79c-1.01,1.03-2.21,1.82-3.61,2.36s-2.92,0.82-4.58,0.82H17.06c-0.85,0-1.57,0.05-2.15,0.15
		s-1.08,0.27-1.49,0.52s-0.73,0.57-0.97,0.97s-0.46,0.91-0.67,1.52v-10.79c0.2,0.65,0.42,1.17,0.67,1.58
		c0.24,0.4,0.55,0.73,0.94,0.97c0.38,0.24,0.88,0.4,1.49,0.49c0.61,0.08,1.33,0.12,2.18,0.12h18.55c3.03,0,5.43-0.72,7.18-2.15
		c1.76-1.44,2.64-3.55,2.64-6.34c0-1.46-0.3-2.86-0.91-4.21s-1.49-2.58-2.64-3.67c-1.15-1.09-2.56-1.99-4.21-2.7
		c-1.66-0.71-3.56-1.12-5.7-1.24H17.06c-0.85,0-1.57,0.05-2.15,0.15c-0.59,0.1-1.08,0.27-1.49,0.52s-0.73,0.57-0.97,0.97
		c-0.24,0.4-0.46,0.91-0.67,1.52v-10.79c0.2,0.65,0.42,1.17,0.67,1.58c0.24,0.4,0.55,0.73,0.94,0.97c0.38,0.24,0.88,0.4,1.49,0.49
		c0.61,0.08,1.33,0.12,2.18,0.12h18.55c3.03,0,5.43-0.72,7.18-2.15c1.76-1.44,2.64-3.53,2.64-6.28c0-1.46-0.3-2.86-0.91-4.21
		s-1.49-2.58-2.64-3.67c-1.15-1.09-2.56-1.99-4.21-2.7c-1.66-0.71-3.56-1.12-5.7-1.24H17.06c-0.85,0-1.57,0.05-2.15,0.15
		c-0.59,0.1-1.08,0.27-1.49,0.52c-0.4,0.24-0.73,0.57-0.97,0.97c-0.24,0.4-0.46,0.91-0.67,1.52v-10.79c0.2,0.65,0.42,1.17,0.67,1.58
		c0.24,0.4,0.55,0.73,0.94,0.97c0.38,0.24,0.88,0.4,1.49,0.49C15.48,490.52,16.21,490.56,17.06,490.56z"/>
</g>
</svg>
