<?xml version="1.0" encoding="utf-8"?>
<!-- Generator: Adobe Illustrator 25.4.1, SVG Export Plug-In . SVG Version: 6.00 Build 0)  -->
<svg version="1.1" id="レイヤー_1" xmlns="http://www.w3.org/2000/svg" xmlns:xlink="http://www.w3.org/1999/xlink" x="0px"
	 y="0px" viewBox="0 0 368 78" style="enable-background:new 0 0 368 78;" xml:space="preserve">
<style type="text/css">
	.st0{fill:#C37C5F;}
</style>
<g>
	<path class="st0" d="M8.31,0.24v1.11H4.84v9.95H3.65V1.34H0.18V0.24H8.31z"/>
	<path class="st0" d="M13.76,3.55c2.13,0,3.87,1.74,3.87,3.95c0,2.21-1.74,3.95-3.87,3.95S9.89,9.71,9.89,7.5
		C9.89,5.29,11.63,3.55,13.76,3.55z M13.76,4.58C12.26,4.58,11,5.84,11,7.5c0,1.64,1.26,2.92,2.76,2.92s2.76-1.26,2.76-2.92
		C16.52,5.84,15.26,4.58,13.76,4.58z"/>
	<path class="st0" d="M30.34,6.79c0-1.44-0.79-2.21-1.9-2.21s-2.05,0.95-2.05,2.53v4.19h-1.11v-4.5c0-1.42-0.79-2.21-1.9-2.21
		s-2.05,0.95-2.05,2.53v4.19h-1.11V3.71h1.11v0.95c0,0,0.63-1.11,2.13-1.11c1.82,0,2.45,1.34,2.45,1.34s0.71-1.34,2.61-1.34
		c1.66,0,2.92,1.12,2.92,3.24v4.5h-1.11V6.79z"/>
	<path class="st0" d="M37.92,3.55c2.13,0,3.87,1.74,3.87,3.95c0,2.21-1.74,3.95-3.87,3.95s-3.87-1.74-3.87-3.95
		C34.05,5.29,35.78,3.55,37.92,3.55z M37.92,4.58c-1.5,0-2.76,1.26-2.76,2.92c0,1.64,1.26,2.92,2.76,2.92s2.76-1.26,2.76-2.92
		C40.68,5.84,39.42,4.58,37.92,4.58z"/>
	<path class="st0" d="M48.34,4.66h-0.47c-1.26,0-2.37,0.95-2.37,2.45v4.19h-1.11V3.71h1.11v1.03c0,0,0.79-1.18,2.53-1.18h0.32V4.66z
		"/>
	<path class="st0" d="M54.42,4.66h-0.47c-1.26,0-2.37,0.95-2.37,2.45v4.19h-1.11V3.71h1.11v1.03c0,0,0.79-1.18,2.53-1.18h0.32V4.66z
		"/>
	<path class="st0" d="M59.86,3.55c2.13,0,3.87,1.74,3.87,3.95c0,2.21-1.74,3.95-3.87,3.95s-3.87-1.74-3.87-3.95
		C55.99,5.29,57.73,3.55,59.86,3.55z M59.86,4.58c-1.5,0-2.76,1.26-2.76,2.92c0,1.64,1.26,2.92,2.76,2.92s2.76-1.26,2.76-2.92
		C62.63,5.84,61.36,4.58,59.86,4.58z"/>
	<path class="st0" d="M71.31,3.71l1.9,5.84l1.97-5.84h1.18l-2.61,7.58h-1.03l-1.89-5.76l-1.9,5.76h-1.03l-2.61-7.58h1.18l1.97,5.84
		l1.9-5.84H71.31z"/>
	<path class="st0" d="M79.84,10.5l-1.82,2.84l-0.71-0.4l1.42-3.08L79.84,10.5z"/>
	<path class="st0" d="M90.02,6.16l3.32-5.92h1.34l-4.11,7.19v3.87h-1.18V7.42l-4.11-7.19h1.34l3.32,5.92H90.02z"/>
	<path class="st0" d="M100.12,3.55c2.13,0,3.87,1.74,3.87,3.95c0,2.21-1.74,3.95-3.87,3.95s-3.87-1.74-3.87-3.95
		C96.26,5.29,97.99,3.55,100.12,3.55z M100.12,4.58c-1.5,0-2.76,1.26-2.76,2.92c0,1.64,1.26,2.92,2.76,2.92s2.76-1.26,2.76-2.92
		C102.89,5.84,101.62,4.58,100.12,4.58z"/>
	<path class="st0" d="M112.12,10.26c0,0-0.79,1.18-2.45,1.18c-1.74,0-3.08-1.34-3.08-3.32V3.71h1.11v4.42
		c0,1.34,0.95,2.29,2.13,2.29c1.26,0,2.29-1.03,2.29-2.53V3.71h1.11v7.58h-1.11V10.26z"/>
	<path class="st0" d="M125.07,3.71l1.9,5.84l1.97-5.84h1.18l-2.61,7.58h-1.03l-1.89-5.76l-1.9,5.76h-1.03l-2.61-7.58h1.18l1.97,5.84
		l1.9-5.84H125.07z"/>
	<path class="st0" d="M132.81,0.47c0.39,0,0.71,0.32,0.71,0.71s-0.32,0.71-0.71,0.71s-0.71-0.32-0.71-0.71S132.41,0.47,132.81,0.47z
		 M132.25,3.71h1.11v7.58h-1.11V3.71z"/>
	<path class="st0" d="M137.7,11.29h-1.11V0.24h1.11V11.29z"/>
	<path class="st0" d="M142.12,11.29h-1.11V0.24h1.11V11.29z"/>
	<path class="st0" d="M150.18,4.9c0,0,0.95-1.34,2.68-1.34c1.9,0,3.63,1.74,3.63,3.95c0,2.21-1.74,3.95-3.63,3.95
		c-1.74,0-2.68-1.34-2.68-1.34v1.18h-1.11V0.24h1.11V4.9z M152.86,10.42c1.26,0,2.53-1.26,2.53-2.92c0-1.66-1.26-2.92-2.53-2.92
		c-1.34,0-2.68,1.34-2.68,2.92C150.18,9.08,151.52,10.42,152.86,10.42z"/>
	<path class="st0" d="M159.65,7.9c0.08,1.34,1.26,2.53,2.68,2.53c1.59,0,2.45-1.26,2.45-1.26l0.71,0.71c0,0-1.11,1.58-3.16,1.58
		s-3.79-1.74-3.79-3.95c0-2.21,1.74-3.95,3.71-3.95c2.05,0,3.63,1.58,3.63,3.79c0,0.32-0.08,0.57-0.08,0.57L159.65,7.9z
		 M159.65,6.95h5.13c-0.16-1.34-1.18-2.37-2.53-2.37C160.91,4.58,159.81,5.68,159.65,6.95z"/>
	<path class="st0" d="M173.31,4.9c0,0,0.95-1.34,2.68-1.34c1.9,0,3.63,1.74,3.63,3.95c0,2.21-1.74,3.95-3.63,3.95
		c-1.74,0-2.68-1.34-2.68-1.34v1.18h-1.11V0.24h1.11V4.9z M175.99,10.42c1.26,0,2.53-1.26,2.53-2.92c0-1.66-1.26-2.92-2.53-2.92
		c-1.34,0-2.68,1.34-2.68,2.92C173.31,9.08,174.65,10.42,175.99,10.42z"/>
	<path class="st0" d="M182.78,7.9c0.08,1.34,1.26,2.53,2.68,2.53c1.59,0,2.45-1.26,2.45-1.26l0.71,0.71c0,0-1.11,1.58-3.16,1.58
		s-3.79-1.74-3.79-3.95c0-2.21,1.74-3.95,3.71-3.95c2.05,0,3.63,1.58,3.63,3.79c0,0.32-0.08,0.57-0.08,0.57L182.78,7.9z
		 M182.78,6.95h5.13c-0.16-1.34-1.18-2.37-2.53-2.37C184.04,4.58,182.94,5.68,182.78,6.95z"/>
	<path class="st0" d="M192.33,1.18h1.03v2.53h1.66v1.03h-1.66v4.5c0,0.79,0.39,1.18,1.03,1.18c0.55,0,1.03-0.24,1.03-0.24v1.03
		c0,0-0.47,0.24-1.07,0.24c-1.29,0-2.08-0.79-2.08-2.21v-4.5h-1.42V3.71h0.87c0.39,0,0.63-0.24,0.63-0.79V1.18z"/>
	<path class="st0" d="M198.65,1.18h1.03v2.53h1.66v1.03h-1.66v4.5c0,0.79,0.39,1.18,1.03,1.18c0.55,0,1.03-0.24,1.03-0.24v1.03
		c0,0-0.47,0.24-1.07,0.24c-1.29,0-2.08-0.79-2.08-2.21v-4.5h-1.42V3.71h0.87c0.39,0,0.63-0.24,0.63-0.79V1.18z"/>
	<path class="st0" d="M204.8,7.9c0.08,1.34,1.26,2.53,2.68,2.53c1.59,0,2.45-1.26,2.45-1.26l0.71,0.71c0,0-1.11,1.58-3.16,1.58
		s-3.79-1.74-3.79-3.95c0-2.21,1.74-3.95,3.71-3.95c2.05,0,3.63,1.58,3.63,3.79c0,0.32-0.08,0.57-0.08,0.57L204.8,7.9z M204.8,6.95
		h5.13c-0.16-1.34-1.18-2.37-2.53-2.37C206.07,4.58,204.96,5.68,204.8,6.95z"/>
	<path class="st0" d="M217.59,4.66h-0.47c-1.26,0-2.37,0.95-2.37,2.45v4.19h-1.11V3.71h1.11v1.03c0,0,0.79-1.18,2.53-1.18h0.32V4.66
		z"/>
	<path class="st0" d="M224.07,1.18h1.03v2.53h1.66v1.03h-1.66v4.5c0,0.79,0.39,1.18,1.03,1.18c0.55,0,1.03-0.24,1.03-0.24v1.03
		c0,0-0.47,0.24-1.07,0.24c-1.29,0-2.08-0.79-2.08-2.21v-4.5h-1.42V3.71h0.87c0.39,0,0.63-0.24,0.63-0.79V1.18z"/>
	<path class="st0" d="M230.86,4.82c0,0,0.79-1.26,2.45-1.26c1.82,0,3.08,1.26,3.08,3.24v4.5h-1.11v-4.5c0-1.34-0.87-2.21-2.05-2.21
		c-1.34,0-2.37,1.03-2.37,2.53v4.19h-1.11V0.24h1.11V4.82z"/>
	<path class="st0" d="M244.12,6.47c0-1.11-0.79-1.9-1.9-1.9c-1.34,0-2.13,1.11-2.13,1.11l-0.71-0.71c0,0,1.03-1.42,2.84-1.42
		c1.74,0,3,1.26,3,2.92v4.82h-1.11v-1.03c0,0-0.79,1.18-2.45,1.18c-1.58,0-2.68-1.11-2.68-2.21c0-1.26,0.79-2.05,2.21-2.29
		L244.12,6.47z M244.12,7.9V7.42l-2.61,0.47c-0.95,0.17-1.42,0.63-1.42,1.34c0,0.63,0.55,1.18,1.58,1.18
		C243.09,10.42,244.12,9.4,244.12,7.9z"/>
	<path class="st0" d="M249.49,4.82c0,0,0.79-1.26,2.45-1.26c1.82,0,3.08,1.26,3.08,3.24v4.5h-1.11v-4.5c0-1.34-0.87-2.21-2.05-2.21
		c-1.34,0-2.37,1.03-2.37,2.53v4.19h-1.11V3.71h1.11V4.82z"/>
	<path class="st0" d="M263.85,11.29l-3.08-7.58h1.18l2.45,6.16l2.45-6.16h1.18l-3.47,8.69c-0.63,1.58-1.26,2.21-2.37,2.21
		c-0.55,0-0.95-0.16-0.95-0.16v-1.03c0,0,0.39,0.16,0.79,0.16c0.71,0,1.14-0.4,1.42-1.18L263.85,11.29z"/>
	<path class="st0" d="M273.48,3.55c2.13,0,3.87,1.74,3.87,3.95c0,2.21-1.74,3.95-3.87,3.95s-3.87-1.74-3.87-3.95
		C269.62,5.29,271.35,3.55,273.48,3.55z M273.48,4.58c-1.5,0-2.76,1.26-2.76,2.92c0,1.64,1.26,2.92,2.76,2.92s2.76-1.26,2.76-2.92
		C276.25,5.84,274.98,4.58,273.48,4.58z"/>
	<path class="st0" d="M285.48,10.26c0,0-0.79,1.18-2.45,1.18c-1.74,0-3.08-1.34-3.08-3.32V3.71h1.11v4.42
		c0,1.34,0.95,2.29,2.13,2.29c1.26,0,2.29-1.03,2.29-2.53V3.71h1.11v7.58h-1.11V10.26z"/>
	<path class="st0" d="M298.04,6.47c0-1.11-0.79-1.9-1.9-1.9c-1.34,0-2.13,1.11-2.13,1.11l-0.71-0.71c0,0,1.03-1.42,2.84-1.42
		c1.74,0,3,1.26,3,2.92v4.82h-1.11v-1.03c0,0-0.79,1.18-2.45,1.18c-1.58,0-2.68-1.11-2.68-2.21c0-1.26,0.79-2.05,2.21-2.29
		L298.04,6.47z M298.04,7.9V7.42l-2.61,0.47c-0.95,0.17-1.42,0.63-1.42,1.34c0,0.63,0.55,1.18,1.58,1.18
		C297.01,10.42,298.04,9.4,298.04,7.9z"/>
	<path class="st0" d="M306.25,4.66h-0.47c-1.26,0-2.37,0.95-2.37,2.45v4.19h-1.11V3.71h1.11v1.03c0,0,0.79-1.18,2.53-1.18h0.32V4.66
		z"/>
	<path class="st0" d="M308.93,7.9c0.08,1.34,1.26,2.53,2.68,2.53c1.59,0,2.45-1.26,2.45-1.26l0.71,0.71c0,0-1.11,1.58-3.16,1.58
		s-3.79-1.74-3.79-3.95c0-2.21,1.74-3.95,3.71-3.95c2.05,0,3.63,1.58,3.63,3.79c0,0.32-0.08,0.57-0.08,0.57L308.93,7.9z
		 M308.93,6.95h5.13c-0.16-1.34-1.18-2.37-2.53-2.37C310.19,4.58,309.09,5.68,308.93,6.95z"/>
	<path class="st0" d="M318.25,9.87c0.47,0,0.79,0.32,0.79,0.79c0,0.47-0.32,0.79-0.79,0.79s-0.79-0.32-0.79-0.79
		C317.46,10.19,317.77,9.87,318.25,9.87z"/>
	<path class="st0" d="M1.52,32.34V21.29h1.18v9.95h5.69v1.11H1.52z"/>
	<path class="st0" d="M11.07,28.95c0.08,1.34,1.26,2.53,2.68,2.53c1.59,0,2.45-1.26,2.45-1.26l0.71,0.71c0,0-1.11,1.58-3.16,1.58
		s-3.79-1.74-3.79-3.95c0-2.21,1.74-3.95,3.71-3.95c2.05,0,3.63,1.58,3.63,3.79c0,0.32-0.08,0.57-0.08,0.57L11.07,28.95z M11.07,28
		h5.13c-0.16-1.34-1.18-2.37-2.53-2.37C12.34,25.63,11.23,26.74,11.07,28z"/>
	<path class="st0" d="M20.63,22.24h1.03v2.53h1.66v1.03h-1.66v4.5c0,0.79,0.39,1.18,1.03,1.18c0.55,0,1.03-0.24,1.03-0.24v1.03
		c0,0-0.47,0.24-1.07,0.24c-1.29,0-2.08-0.79-2.08-2.21v-4.5h-1.42v-1.03h0.87c0.39,0,0.63-0.24,0.63-0.79V22.24z"/>
	<path class="st0" d="M31.92,32.34l-3.08-7.58h1.18l2.45,6.16l2.45-6.16h1.18l-3.47,8.69c-0.63,1.58-1.26,2.21-2.37,2.21
		c-0.55,0-0.95-0.16-0.95-0.16v-1.03c0,0,0.39,0.16,0.79,0.16c0.71,0,1.14-0.4,1.42-1.18L31.92,32.34z"/>
	<path class="st0" d="M41.55,24.6c2.13,0,3.87,1.74,3.87,3.95c0,2.21-1.74,3.95-3.87,3.95s-3.87-1.74-3.87-3.95
		C37.68,26.34,39.42,24.6,41.55,24.6z M41.55,25.63c-1.5,0-2.76,1.26-2.76,2.92c0,1.64,1.26,2.92,2.76,2.92s2.76-1.26,2.76-2.92
		C44.31,26.89,43.05,25.63,41.55,25.63z"/>
	<path class="st0" d="M53.55,31.32c0,0-0.79,1.18-2.45,1.18c-1.74,0-3.08-1.34-3.08-3.32v-4.42h1.11v4.42
		c0,1.34,0.95,2.29,2.13,2.29c1.26,0,2.29-1.03,2.29-2.53v-4.19h1.11v7.58h-1.11V31.32z"/>
	<path class="st0" d="M61.84,25.71h-0.47c-1.26,0-2.37,0.95-2.37,2.45v4.19h-1.11v-7.58h1.11v1.03c0,0,0.79-1.18,2.53-1.18h0.32
		V25.71z"/>
	<path class="st0" d="M71.39,26.42c0,0-0.55-0.79-1.66-0.79c-0.87,0-1.42,0.55-1.42,1.11c0,1.66,4.11,0.79,4.11,3.47
		c0,1.26-1.03,2.29-2.76,2.29c-1.89,0-2.76-1.34-2.76-1.34l0.79-0.79c0,0,0.71,1.11,1.97,1.11c1.11,0,1.66-0.55,1.66-1.26
		c0-1.74-4.11-0.87-4.11-3.47c0-1.11,1.03-2.13,2.53-2.13c1.58,0,2.45,1.03,2.45,1.03L71.39,26.42z"/>
	<path class="st0" d="M75.57,28.95c0.08,1.34,1.26,2.53,2.68,2.53c1.59,0,2.45-1.26,2.45-1.26l0.71,0.71c0,0-1.11,1.58-3.16,1.58
		s-3.79-1.74-3.79-3.95c0-2.21,1.74-3.95,3.71-3.95c2.05,0,3.63,1.58,3.63,3.79c0,0.32-0.08,0.57-0.08,0.57L75.57,28.95z M75.57,28
		h5.13c-0.16-1.34-1.18-2.37-2.53-2.37C76.83,25.63,75.73,26.74,75.57,28z"/>
	<path class="st0" d="M85.52,25.87c0,0,0.79-1.26,2.45-1.26c1.82,0,3.08,1.26,3.08,3.24v4.5h-1.11v-4.5c0-1.34-0.87-2.21-2.05-2.21
		c-1.34,0-2.37,1.03-2.37,2.53v4.19h-1.11v-7.58h1.11V25.87z"/>
	<path class="st0" d="M97.99,26.42c0,0-0.55-0.79-1.66-0.79c-0.87,0-1.42,0.55-1.42,1.11c0,1.66,4.11,0.79,4.11,3.47
		c0,1.26-1.03,2.29-2.76,2.29c-1.89,0-2.76-1.34-2.76-1.34l0.79-0.79c0,0,0.71,1.11,1.97,1.11c1.11,0,1.66-0.55,1.66-1.26
		c0-1.74-4.11-0.87-4.11-3.47c0-1.11,1.03-2.13,2.53-2.13c1.58,0,2.45,1.03,2.45,1.03L97.99,26.42z"/>
	<path class="st0" d="M102.17,21.53c0.39,0,0.71,0.32,0.71,0.71s-0.32,0.71-0.71,0.71s-0.71-0.32-0.71-0.71
		S101.78,21.53,102.17,21.53z M101.62,24.76h1.11v7.58h-1.11V24.76z"/>
	<path class="st0" d="M106.6,22.24h1.03v2.53h1.66v1.03h-1.66v4.5c0,0.79,0.39,1.18,1.03,1.18c0.55,0,1.03-0.24,1.03-0.24v1.03
		c0,0-0.47,0.24-1.07,0.24c-1.29,0-2.08-0.79-2.08-2.21v-4.5h-1.42v-1.03h0.87c0.39,0,0.63-0.24,0.63-0.79V22.24z"/>
	<path class="st0" d="M112.75,21.53c0.39,0,0.71,0.32,0.71,0.71s-0.32,0.71-0.71,0.71s-0.71-0.32-0.71-0.71
		S112.36,21.53,112.75,21.53z M112.2,24.76h1.11v7.58h-1.11V24.76z"/>
	<path class="st0" d="M118.52,32.34l-3.08-7.58h1.18l2.45,6.08l2.45-6.08h1.18l-3.08,7.58H118.52z"/>
	<path class="st0" d="M125.38,21.53c0.39,0,0.71,0.32,0.71,0.71s-0.32,0.71-0.71,0.71s-0.71-0.32-0.71-0.71
		S124.99,21.53,125.38,21.53z M124.83,24.76h1.11v7.58h-1.11V24.76z"/>
	<path class="st0" d="M129.81,22.24h1.03v2.53h1.66v1.03h-1.66v4.5c0,0.79,0.39,1.18,1.03,1.18c0.55,0,1.03-0.24,1.03-0.24v1.03
		c0,0-0.47,0.24-1.07,0.24c-1.29,0-2.08-0.79-2.08-2.21v-4.5h-1.42v-1.03h0.87c0.39,0,0.63-0.24,0.63-0.79V22.24z"/>
	<path class="st0" d="M137.46,32.34l-3.08-7.58h1.18l2.45,6.16l2.45-6.16h1.18l-3.47,8.69c-0.63,1.58-1.26,2.21-2.37,2.21
		c-0.55,0-0.95-0.16-0.95-0.16v-1.03c0,0,0.39,0.16,0.79,0.16c0.71,0,1.14-0.4,1.42-1.18L137.46,32.34z"/>
	<path class="st0" d="M152.38,24.76l1.9,5.84l1.97-5.84h1.18l-2.61,7.58h-1.03l-1.9-5.76l-1.9,5.76h-1.03l-2.61-7.58h1.18l1.97,5.84
		l1.9-5.84H152.38z"/>
	<path class="st0" d="M160.75,25.87c0,0,0.79-1.26,2.45-1.26c1.82,0,3.08,1.26,3.08,3.24v4.5h-1.11v-4.5c0-1.34-0.87-2.21-2.05-2.21
		c-1.34,0-2.37,1.03-2.37,2.53v4.19h-1.11V21.29h1.11V25.87z"/>
	<path class="st0" d="M169.99,28.95c0.08,1.34,1.26,2.53,2.68,2.53c1.59,0,2.45-1.26,2.45-1.26l0.71,0.71c0,0-1.11,1.58-3.16,1.58
		s-3.79-1.74-3.79-3.95c0-2.21,1.74-3.95,3.71-3.95c2.05,0,3.63,1.58,3.63,3.79c0,0.32-0.08,0.57-0.08,0.57L169.99,28.95z
		 M169.99,28h5.13c-0.16-1.34-1.18-2.37-2.53-2.37C171.25,25.63,170.15,26.74,169.99,28z"/>
	<path class="st0" d="M182.78,25.71h-0.47c-1.26,0-2.37,0.95-2.37,2.45v4.19h-1.11v-7.58h1.11v1.03c0,0,0.79-1.18,2.53-1.18h0.32
		V25.71z"/>
	<path class="st0" d="M185.46,28.95c0.08,1.34,1.26,2.53,2.68,2.53c1.59,0,2.45-1.26,2.45-1.26l0.71,0.71c0,0-1.11,1.58-3.16,1.58
		s-3.79-1.74-3.79-3.95c0-2.21,1.74-3.95,3.71-3.95c2.05,0,3.63,1.58,3.63,3.79c0,0.32-0.08,0.57-0.08,0.57L185.46,28.95z
		 M185.46,28h5.13c-0.16-1.34-1.18-2.37-2.53-2.37C186.73,25.63,185.62,26.74,185.46,28z"/>
	<path class="st0" d="M196.36,32.34l-3.08-7.58h1.18l2.45,6.08l2.45-6.08h1.18l-3.08,7.58H196.36z"/>
	<path class="st0" d="M203.22,28.95c0.08,1.34,1.26,2.53,2.68,2.53c1.59,0,2.45-1.26,2.45-1.26l0.71,0.71c0,0-1.11,1.58-3.16,1.58
		s-3.79-1.74-3.79-3.95c0-2.21,1.74-3.95,3.71-3.95c2.05,0,3.63,1.58,3.63,3.79c0,0.32-0.08,0.57-0.08,0.57L203.22,28.95z
		 M203.22,28h5.13c-0.16-1.34-1.18-2.37-2.53-2.37C204.49,25.63,203.38,26.74,203.22,28z"/>
	<path class="st0" d="M216.01,25.71h-0.47c-1.26,0-2.37,0.95-2.37,2.45v4.19h-1.11v-7.58h1.11v1.03c0,0,0.79-1.18,2.53-1.18h0.32
		V25.71z"/>
	<path class="st0" d="M223.83,32.34l-3.08-7.58h1.18l2.45,6.16l2.45-6.16h1.18l-3.47,8.69c-0.63,1.58-1.26,2.21-2.37,2.21
		c-0.55,0-0.95-0.16-0.95-0.16v-1.03c0,0,0.39,0.16,0.79,0.16c0.71,0,1.14-0.4,1.42-1.18L223.83,32.34z"/>
	<path class="st0" d="M233.46,24.6c2.13,0,3.87,1.74,3.87,3.95c0,2.21-1.74,3.95-3.87,3.95s-3.87-1.74-3.87-3.95
		C229.59,26.34,231.33,24.6,233.46,24.6z M233.46,25.63c-1.5,0-2.76,1.26-2.76,2.92c0,1.64,1.26,2.92,2.76,2.92s2.76-1.26,2.76-2.92
		C236.22,26.89,234.96,25.63,233.46,25.63z"/>
	<path class="st0" d="M245.46,31.32c0,0-0.79,1.18-2.45,1.18c-1.74,0-3.08-1.34-3.08-3.32v-4.42h1.11v4.42
		c0,1.34,0.95,2.29,2.13,2.29c1.26,0,2.29-1.03,2.29-2.53v-4.19h1.11v7.58h-1.11V31.32z"/>
	<path class="st0" d="M253.75,25.71h-0.47c-1.26,0-2.37,0.95-2.37,2.45v4.19h-1.11v-7.58h1.11v1.03c0,0,0.79-1.18,2.53-1.18h0.32
		V25.71z"/>
	<path class="st0" d="M260.69,25.87c0,0,0.79-1.26,2.45-1.26c1.82,0,3.08,1.26,3.08,3.24v4.5h-1.11v-4.5c0-1.34-0.87-2.21-2.05-2.21
		c-1.34,0-2.37,1.03-2.37,2.53v4.19h-1.11V21.29h1.11V25.87z"/>
	<path class="st0" d="M273.96,27.53c0-1.11-0.79-1.9-1.9-1.9c-1.34,0-2.13,1.11-2.13,1.11l-0.71-0.71c0,0,1.03-1.42,2.84-1.42
		c1.74,0,3,1.26,3,2.92v4.82h-1.11v-1.03c0,0-0.79,1.18-2.45,1.18c-1.58,0-2.68-1.11-2.68-2.21c0-1.26,0.79-2.05,2.21-2.29
		L273.96,27.53z M273.96,28.95v-0.47l-2.61,0.47c-0.95,0.17-1.42,0.63-1.42,1.34c0,0.63,0.55,1.18,1.58,1.18
		C272.93,31.47,273.96,30.45,273.96,28.95z"/>
	<path class="st0" d="M282.17,25.71h-0.47c-1.26,0-2.37,0.95-2.37,2.45v4.19h-1.11v-7.58h1.11v1.03c0,0,0.79-1.18,2.53-1.18h0.32
		V25.71z"/>
	<path class="st0" d="M285.01,22.24h1.03v2.53h1.66v1.03h-1.66v4.5c0,0.79,0.39,1.18,1.03,1.18c0.55,0,1.03-0.24,1.03-0.24v1.03
		c0,0-0.47,0.24-1.07,0.24c-1.29,0-2.08-0.79-2.08-2.21v-4.5h-1.42v-1.03h0.87c0.39,0,0.63-0.24,0.63-0.79V22.24z"/>
	<path class="st0" d="M294.96,22.24h1.03v2.53h1.66v1.03h-1.66v4.5c0,0.79,0.39,1.18,1.03,1.18c0.55,0,1.03-0.24,1.03-0.24v1.03
		c0,0-0.47,0.24-1.07,0.24c-1.29,0-2.08-0.79-2.08-2.21v-4.5h-1.42v-1.03h0.87c0.39,0,0.63-0.24,0.63-0.79V22.24z"/>
	<path class="st0" d="M305.14,27.53c0-1.11-0.79-1.9-1.9-1.9c-1.34,0-2.13,1.11-2.13,1.11l-0.71-0.71c0,0,1.03-1.42,2.84-1.42
		c1.74,0,3,1.26,3,2.92v4.82h-1.11v-1.03c0,0-0.79,1.18-2.45,1.18c-1.58,0-2.68-1.11-2.68-2.21c0-1.26,0.79-2.05,2.21-2.29
		L305.14,27.53z M305.14,28.95v-0.47l-2.61,0.47c-0.95,0.17-1.42,0.63-1.42,1.34c0,0.63,0.55,1.18,1.58,1.18
		C304.11,31.47,305.14,30.45,305.14,28.95z"/>
	<path class="st0" d="M310.59,32.34h-1.11V21.29h1.11v7.5l3.79-4.03h1.34l-2.92,3.08l3.24,4.5h-1.26l-2.68-3.71l-1.5,1.58V32.34z"/>
	<path class="st0" d="M318.64,28.95c0.08,1.34,1.26,2.53,2.68,2.53c1.59,0,2.45-1.26,2.45-1.26l0.71,0.71c0,0-1.11,1.58-3.16,1.58
		s-3.79-1.74-3.79-3.95c0-2.21,1.74-3.95,3.71-3.95c2.05,0,3.63,1.58,3.63,3.79c0,0.32-0.08,0.57-0.08,0.57L318.64,28.95z
		 M318.64,28h5.13c-0.16-1.34-1.18-2.37-2.53-2.37C319.9,25.63,318.8,26.74,318.64,28z"/>
	<path class="st0" d="M331.27,26.42c0,0-0.55-0.79-1.66-0.79c-0.87,0-1.42,0.55-1.42,1.11c0,1.66,4.11,0.79,4.11,3.47
		c0,1.26-1.03,2.29-2.76,2.29c-1.89,0-2.76-1.34-2.76-1.34l0.79-0.79c0,0,0.71,1.11,1.97,1.11c1.11,0,1.66-0.55,1.66-1.26
		c0-1.74-4.11-0.87-4.11-3.47c0-1.11,1.03-2.13,2.53-2.13c1.58,0,2.45,1.03,2.45,1.03L331.27,26.42z"/>
	<path class="st0" d="M340.59,32.34l-3.08-7.58h1.18l2.45,6.16l2.45-6.16h1.18l-3.47,8.69c-0.63,1.58-1.26,2.21-2.37,2.21
		c-0.55,0-0.95-0.16-0.95-0.16v-1.03c0,0,0.39,0.16,0.79,0.16c0.71,0,1.14-0.4,1.42-1.18L340.59,32.34z"/>
	<path class="st0" d="M350.22,24.6c2.13,0,3.87,1.74,3.87,3.95c0,2.21-1.74,3.95-3.87,3.95s-3.87-1.74-3.87-3.95
		C346.35,26.34,348.09,24.6,350.22,24.6z M350.22,25.63c-1.5,0-2.76,1.26-2.76,2.92c0,1.64,1.26,2.92,2.76,2.92s2.76-1.26,2.76-2.92
		C352.98,26.89,351.72,25.63,350.22,25.63z"/>
	<path class="st0" d="M362.22,31.32c0,0-0.79,1.18-2.45,1.18c-1.74,0-3.08-1.34-3.08-3.32v-4.42h1.11v4.42
		c0,1.34,0.95,2.29,2.13,2.29c1.26,0,2.29-1.03,2.29-2.53v-4.19h1.11v7.58h-1.11V31.32z"/>
	<path class="st0" d="M367.03,30.92c0.47,0,0.79,0.32,0.79,0.79c0,0.47-0.32,0.79-0.79,0.79s-0.79-0.32-0.79-0.79
		C366.24,31.24,366.56,30.92,367.03,30.92z"/>
	<path class="st0" d="M9.02,42.34v1.11H2.71v3.79h5.05v1.11H2.71v5.05H1.52V42.34H9.02z"/>
	<path class="st0" d="M11.94,42.58c0.39,0,0.71,0.32,0.71,0.71S12.34,44,11.94,44s-0.71-0.32-0.71-0.71S11.55,42.58,11.94,42.58z
		 M11.39,45.81h1.11v7.58h-1.11V45.81z"/>
	<path class="st0" d="M16.76,46.92c0,0,0.79-1.26,2.45-1.26c1.82,0,3.08,1.26,3.08,3.24v4.5h-1.11v-4.5c0-1.34-0.87-2.21-2.05-2.21
		c-1.34,0-2.37,1.03-2.37,2.53v4.19h-1.11v-7.58h1.11V46.92z"/>
	<path class="st0" d="M31.21,42.34h1.11V53.4h-1.11v-1.18c0,0-0.95,1.34-2.69,1.34c-1.89,0-3.63-1.74-3.63-3.95
		c0-2.21,1.74-3.95,3.63-3.95c1.74,0,2.69,1.34,2.69,1.34V42.34z M28.52,46.68c-1.26,0-2.53,1.26-2.53,2.92
		c0,1.66,1.26,2.92,2.53,2.92c1.34,0,2.69-1.34,2.69-2.92C31.21,48.03,29.86,46.68,28.52,46.68z"/>
	<path class="st0" d="M40.36,46.92c0,0,0.79-1.26,2.45-1.26c1.82,0,3.08,1.26,3.08,3.24v4.5h-1.11v-4.5c0-1.34-0.87-2.21-2.05-2.21
		c-1.34,0-2.37,1.03-2.37,2.53v4.19h-1.11V42.34h1.11V46.92z"/>
	<path class="st0" d="M49.6,42.58c0.39,0,0.71,0.32,0.71,0.71S49.99,44,49.6,44s-0.71-0.32-0.71-0.71S49.2,42.58,49.6,42.58z
		 M49.05,45.81h1.11v7.58h-1.11V45.81z"/>
	<path class="st0" d="M59.07,42.34h1.11V53.4h-1.11v-1.18c0,0-0.95,1.34-2.69,1.34c-1.89,0-3.63-1.74-3.63-3.95
		c0-2.21,1.74-3.95,3.63-3.95c1.74,0,2.69,1.34,2.69,1.34V42.34z M56.39,46.68c-1.26,0-2.53,1.26-2.53,2.92
		c0,1.66,1.26,2.92,2.53,2.92c1.34,0,2.69-1.34,2.69-2.92C59.07,48.03,57.73,46.68,56.39,46.68z"/>
	<path class="st0" d="M69.18,42.34h1.11V53.4h-1.11v-1.18c0,0-0.95,1.34-2.69,1.34c-1.89,0-3.63-1.74-3.63-3.95
		c0-2.21,1.74-3.95,3.63-3.95c1.74,0,2.69,1.34,2.69,1.34V42.34z M66.49,46.68c-1.26,0-2.53,1.26-2.53,2.92
		c0,1.66,1.26,2.92,2.53,2.92c1.34,0,2.69-1.34,2.69-2.92C69.18,48.03,67.84,46.68,66.49,46.68z"/>
	<path class="st0" d="M74.07,50c0.08,1.34,1.26,2.53,2.68,2.53c1.59,0,2.45-1.26,2.45-1.26l0.71,0.71c0,0-1.11,1.58-3.16,1.58
		s-3.79-1.74-3.79-3.95c0-2.21,1.74-3.95,3.71-3.95c2.05,0,3.63,1.58,3.63,3.79c0,0.32-0.08,0.57-0.08,0.57L74.07,50z M74.07,49.05
		h5.13c-0.16-1.34-1.18-2.37-2.53-2.37C75.34,46.68,74.23,47.79,74.07,49.05z"/>
	<path class="st0" d="M84.02,46.92c0,0,0.79-1.26,2.45-1.26c1.82,0,3.08,1.26,3.08,3.24v4.5h-1.11v-4.5c0-1.34-0.87-2.21-2.05-2.21
		c-1.34,0-2.37,1.03-2.37,2.53v4.19h-1.11v-7.58h1.11V46.92z"/>
	<path class="st0" d="M98.39,53.4l-3.08-7.58h1.18l2.45,6.16l2.45-6.16h1.18L99.1,54.5c-0.63,1.58-1.26,2.21-2.37,2.21
		c-0.55,0-0.95-0.16-0.95-0.16v-1.03c0,0,0.39,0.16,0.79,0.16c0.71,0,1.14-0.4,1.42-1.18L98.39,53.4z"/>
	<path class="st0" d="M108.02,45.66c2.13,0,3.87,1.74,3.87,3.95c0,2.21-1.74,3.95-3.87,3.95s-3.87-1.74-3.87-3.95
		C104.15,47.39,105.89,45.66,108.02,45.66z M108.02,46.68c-1.5,0-2.76,1.26-2.76,2.92c0,1.64,1.26,2.92,2.76,2.92
		s2.76-1.26,2.76-2.92C110.78,47.95,109.52,46.68,108.02,46.68z"/>
	<path class="st0" d="M120.02,52.37c0,0-0.79,1.18-2.45,1.18c-1.74,0-3.08-1.34-3.08-3.32v-4.42h1.11v4.42
		c0,1.34,0.95,2.29,2.13,2.29c1.26,0,2.29-1.03,2.29-2.53v-4.19h1.11v7.58h-1.11V52.37z"/>
	<path class="st0" d="M128.31,46.76h-0.47c-1.26,0-2.37,0.95-2.37,2.45v4.19h-1.11v-7.58h1.11v1.03c0,0,0.79-1.18,2.53-1.18h0.32
		V46.76z"/>
	<path class="st0" d="M137.39,45.66c2.13,0,3.87,1.74,3.87,3.95c0,2.21-1.74,3.95-3.87,3.95s-3.87-1.74-3.87-3.95
		C133.52,47.39,135.25,45.66,137.39,45.66z M137.39,46.68c-1.5,0-2.76,1.26-2.76,2.92c0,1.64,1.26,2.92,2.76,2.92
		s2.76-1.26,2.76-2.92C140.15,47.95,138.89,46.68,137.39,46.68z"/>
	<path class="st0" d="M148.83,45.81l1.9,5.84l1.97-5.84h1.18l-2.61,7.58h-1.03l-1.9-5.76l-1.9,5.76h-1.03l-2.61-7.58h1.18l1.97,5.84
		l1.9-5.84H148.83z"/>
	<path class="st0" d="M157.12,46.92c0,0,0.79-1.26,2.45-1.26c1.82,0,3.08,1.26,3.08,3.24v4.5h-1.11v-4.5c0-1.34-0.87-2.21-2.05-2.21
		c-1.34,0-2.37,1.03-2.37,2.53v4.19h-1.11v-7.58h1.11V46.92z"/>
	<path class="st0" d="M170.62,47c0,0,0.95-1.34,2.68-1.34c1.9,0,3.63,1.74,3.63,3.95c0,2.21-1.74,3.95-3.63,3.95
		c-1.74,0-2.68-1.34-2.68-1.34v1.18h-1.11V42.34h1.11V47z M173.31,52.53c1.26,0,2.53-1.26,2.53-2.92c0-1.66-1.26-2.92-2.53-2.92
		c-1.34,0-2.68,1.34-2.68,2.92C170.62,51.18,171.96,52.53,173.31,52.53z"/>
	<path class="st0" d="M180.1,50c0.08,1.34,1.26,2.53,2.68,2.53c1.59,0,2.45-1.26,2.45-1.26l0.71,0.71c0,0-1.11,1.58-3.16,1.58
		s-3.79-1.74-3.79-3.95c0-2.21,1.74-3.95,3.71-3.95c2.05,0,3.63,1.58,3.63,3.79c0,0.32-0.08,0.57-0.08,0.57L180.1,50z M180.1,49.05
		h5.13c-0.16-1.34-1.18-2.37-2.53-2.37C181.36,46.68,180.25,47.79,180.1,49.05z"/>
	<path class="st0" d="M193.52,48.58c0-1.11-0.79-1.9-1.9-1.9c-1.34,0-2.13,1.11-2.13,1.11l-0.71-0.71c0,0,1.03-1.42,2.84-1.42
		c1.74,0,3,1.26,3,2.92v4.82h-1.11v-1.03c0,0-0.79,1.18-2.45,1.18c-1.58,0-2.68-1.11-2.68-2.21c0-1.26,0.79-2.05,2.21-2.29
		L193.52,48.58z M193.52,50v-0.47L190.91,50c-0.95,0.17-1.42,0.63-1.42,1.34c0,0.63,0.55,1.18,1.58,1.18
		C192.49,52.53,193.52,51.5,193.52,50z"/>
	<path class="st0" d="M203.31,52.37c0,0-0.79,1.18-2.45,1.18c-1.74,0-3.08-1.34-3.08-3.32v-4.42h1.11v4.42
		c0,1.34,0.95,2.29,2.13,2.29c1.26,0,2.29-1.03,2.29-2.53v-4.19h1.11v7.58h-1.11V52.37z"/>
	<path class="st0" d="M208.36,43.29h1.03v2.53h1.66v1.03h-1.66v4.5c0,0.79,0.39,1.18,1.03,1.18c0.55,0,1.03-0.24,1.03-0.24v1.03
		c0,0-0.47,0.24-1.07,0.24c-1.29,0-2.08-0.79-2.08-2.21v-4.5h-1.42v-1.03h0.87c0.39,0,0.63-0.24,0.63-0.79V43.29z"/>
	<path class="st0" d="M216.01,53.4l-3.08-7.58h1.18l2.45,6.16l2.45-6.16h1.18l-3.47,8.69c-0.63,1.58-1.26,2.21-2.37,2.21
		c-0.55,0-0.95-0.16-0.95-0.16v-1.03c0,0,0.39,0.16,0.79,0.16c0.71,0,1.14-0.4,1.42-1.18L216.01,53.4z"/>
	<path class="st0" d="M230.94,45.81l1.9,5.84l1.97-5.84h1.18l-2.61,7.58h-1.03l-1.9-5.76l-1.9,5.76h-1.03l-2.61-7.58h1.18l1.97,5.84
		l1.9-5.84H230.94z"/>
	<path class="st0" d="M238.67,42.58c0.39,0,0.71,0.32,0.71,0.71S239.07,44,238.67,44s-0.71-0.32-0.71-0.71
		S238.28,42.58,238.67,42.58z M238.12,45.81h1.11v7.58h-1.11V45.81z"/>
	<path class="st0" d="M243.09,43.29h1.03v2.53h1.66v1.03h-1.66v4.5c0,0.79,0.39,1.18,1.03,1.18c0.55,0,1.03-0.24,1.03-0.24v1.03
		c0,0-0.47,0.24-1.07,0.24c-1.29,0-2.08-0.79-2.08-2.21v-4.5h-1.42v-1.03h0.87c0.39,0,0.63-0.24,0.63-0.79V43.29z"/>
	<path class="st0" d="M249.88,46.92c0,0,0.79-1.26,2.45-1.26c1.82,0,3.08,1.26,3.08,3.24v4.5h-1.11v-4.5c0-1.34-0.87-2.21-2.05-2.21
		c-1.34,0-2.37,1.03-2.37,2.53v4.19h-1.11V42.34h1.11V46.92z"/>
	<path class="st0" d="M259.12,42.58c0.39,0,0.71,0.32,0.71,0.71S259.51,44,259.12,44s-0.71-0.32-0.71-0.71
		S258.72,42.58,259.12,42.58z M258.56,45.81h1.11v7.58h-1.11V45.81z"/>
	<path class="st0" d="M263.93,46.92c0,0,0.79-1.26,2.45-1.26c1.82,0,3.08,1.26,3.08,3.24v4.5h-1.11v-4.5c0-1.34-0.87-2.21-2.05-2.21
		c-1.34,0-2.37,1.03-2.37,2.53v4.19h-1.11v-7.58h1.11V46.92z"/>
	<path class="st0" d="M278.3,53.4l-3.08-7.58h1.18l2.45,6.16l2.45-6.16h1.18l-3.47,8.69c-0.63,1.58-1.26,2.21-2.37,2.21
		c-0.55,0-0.95-0.16-0.95-0.16v-1.03c0,0,0.39,0.16,0.79,0.16c0.71,0,1.14-0.4,1.42-1.18L278.3,53.4z"/>
	<path class="st0" d="M287.93,45.66c2.13,0,3.87,1.74,3.87,3.95c0,2.21-1.74,3.95-3.87,3.95s-3.87-1.74-3.87-3.95
		C284.06,47.39,285.8,45.66,287.93,45.66z M287.93,46.68c-1.5,0-2.76,1.26-2.76,2.92c0,1.64,1.26,2.92,2.76,2.92
		s2.76-1.26,2.76-2.92C290.7,47.95,289.43,46.68,287.93,46.68z"/>
	<path class="st0" d="M299.93,52.37c0,0-0.79,1.18-2.45,1.18c-1.74,0-3.08-1.34-3.08-3.32v-4.42h1.11v4.42
		c0,1.34,0.95,2.29,2.13,2.29c1.26,0,2.29-1.03,2.29-2.53v-4.19h1.11v7.58h-1.11V52.37z"/>
	<path class="st0" d="M308.22,46.76h-0.47c-1.26,0-2.37,0.95-2.37,2.45v4.19h-1.11v-7.58h1.11v1.03c0,0,0.79-1.18,2.53-1.18h0.32
		V46.76z"/>
	<path class="st0" d="M314.14,47.47c0,0-0.55-0.79-1.66-0.79c-0.87,0-1.42,0.55-1.42,1.11c0,1.66,4.11,0.79,4.11,3.47
		c0,1.26-1.03,2.29-2.76,2.29c-1.89,0-2.76-1.34-2.76-1.34l0.79-0.79c0,0,0.71,1.11,1.97,1.11c1.11,0,1.66-0.55,1.66-1.26
		c0-1.74-4.11-0.87-4.11-3.47c0-1.11,1.03-2.13,2.53-2.13c1.58,0,2.45,1.03,2.45,1.03L314.14,47.47z"/>
	<path class="st0" d="M318.33,50c0.08,1.34,1.26,2.53,2.68,2.53c1.59,0,2.45-1.26,2.45-1.26l0.71,0.71c0,0-1.11,1.58-3.16,1.58
		s-3.79-1.74-3.79-3.95c0-2.21,1.74-3.95,3.71-3.95c2.05,0,3.63,1.58,3.63,3.79c0,0.32-0.08,0.57-0.08,0.57L318.33,50z
		 M318.33,49.05h5.13c-0.16-1.34-1.18-2.37-2.53-2.37C319.59,46.68,318.48,47.79,318.33,49.05z"/>
	<path class="st0" d="M328.35,53.4h-1.11V42.34h1.11V53.4z"/>
	<path class="st0" d="M334.9,46.84h-1.82v6.55h-1.11v-6.55h-1.18v-1.03h1.18v-1.42c0-1.42,0.79-2.21,2.05-2.21
		c0.63,0,1.11,0.24,1.11,0.24v1.03c0,0-0.47-0.24-1.03-0.24c-0.63,0-1.03,0.4-1.03,1.18v1.42h1.82V46.84z"/>
	<path class="st0" d="M337.75,51.97c0.47,0,0.79,0.32,0.79,0.79c0,0.47-0.32,0.79-0.79,0.79s-0.79-0.32-0.79-0.79
		C336.96,52.29,337.27,51.97,337.75,51.97z"/>
	<path class="st0" d="M7.13,71.29l-4.42-5.84v9H1.52V63.39h1.03l4.58,6l4.58-6h1.03v11.06h-1.18v-9L7.13,71.29z"/>
	<path class="st0" d="M16.76,71.05c0.08,1.34,1.26,2.53,2.68,2.53c1.59,0,2.45-1.26,2.45-1.26l0.71,0.71c0,0-1.11,1.58-3.16,1.58
		s-3.79-1.74-3.79-3.95c0-2.21,1.74-3.95,3.71-3.95c2.05,0,3.63,1.58,3.63,3.79c0,0.32-0.08,0.57-0.08,0.57L16.76,71.05z
		 M16.76,70.1h5.13c-0.16-1.34-1.18-2.37-2.53-2.37C18.02,67.74,16.92,68.84,16.76,70.1z"/>
	<path class="st0" d="M26.15,71.05c0.08,1.34,1.26,2.53,2.68,2.53c1.59,0,2.45-1.26,2.45-1.26L32,73.03c0,0-1.11,1.58-3.16,1.58
		s-3.79-1.74-3.79-3.95c0-2.21,1.74-3.95,3.71-3.95c2.05,0,3.63,1.58,3.63,3.79c0,0.32-0.08,0.57-0.08,0.57L26.15,71.05z
		 M26.15,70.1h5.13c-0.16-1.34-1.18-2.37-2.53-2.37C27.42,67.74,26.31,68.84,26.15,70.1z"/>
	<path class="st0" d="M35.71,64.34h1.03v2.53h1.66v1.03h-1.66v4.5c0,0.79,0.39,1.18,1.03,1.18c0.55,0,1.03-0.24,1.03-0.24v1.03
		c0,0-0.47,0.24-1.07,0.24c-1.29,0-2.08-0.79-2.08-2.21v-4.5H34.2v-1.03h0.87c0.39,0,0.63-0.24,0.63-0.79V64.34z"/>
	<path class="st0" d="M49.52,69.63c0-1.11-0.79-1.9-1.9-1.9c-1.34,0-2.13,1.11-2.13,1.11l-0.71-0.71c0,0,1.03-1.42,2.84-1.42
		c1.74,0,3,1.26,3,2.92v4.82h-1.11v-1.03c0,0-0.79,1.18-2.45,1.18c-1.58,0-2.68-1.11-2.68-2.21c0-1.26,0.79-2.05,2.21-2.29
		L49.52,69.63z M49.52,71.05v-0.47l-2.61,0.47c-0.95,0.17-1.42,0.63-1.42,1.34c0,0.63,0.55,1.18,1.58,1.18
		C48.5,73.58,49.52,72.55,49.52,71.05z"/>
	<path class="st0" d="M58.52,67.97c0,0,0.79-1.26,2.45-1.26c1.82,0,3.08,1.26,3.08,3.24v4.5h-1.11v-4.5c0-1.34-0.87-2.21-2.05-2.21
		c-1.34,0-2.37,1.03-2.37,2.53v4.19h-1.11v-7.58h1.11V67.97z"/>
	<path class="st0" d="M67.76,71.05c0.08,1.34,1.26,2.53,2.68,2.53c1.59,0,2.45-1.26,2.45-1.26l0.71,0.71c0,0-1.11,1.58-3.16,1.58
		s-3.79-1.74-3.79-3.95c0-2.21,1.74-3.95,3.71-3.95c2.05,0,3.63,1.58,3.63,3.79c0,0.32-0.08,0.57-0.08,0.57L67.76,71.05z
		 M67.76,70.1h5.13c-0.16-1.34-1.18-2.37-2.53-2.37C69.02,67.74,67.91,68.84,67.76,70.1z"/>
	<path class="st0" d="M81.57,66.87l1.9,5.84l1.97-5.84h1.18l-2.61,7.58h-1.03l-1.89-5.76l-1.9,5.76h-1.03l-2.61-7.58h1.18l1.97,5.84
		l1.9-5.84H81.57z"/>
	<path class="st0" d="M94.44,74.45l-3.08-7.58h1.18l2.45,6.16l2.45-6.16h1.18l-3.47,8.69c-0.63,1.58-1.26,2.21-2.37,2.21
		c-0.55,0-0.95-0.16-0.95-0.16v-1.03c0,0,0.39,0.16,0.79,0.16c0.71,0,1.14-0.4,1.42-1.18L94.44,74.45z"/>
	<path class="st0" d="M104.07,66.71c2.13,0,3.87,1.74,3.87,3.95c0,2.21-1.74,3.95-3.87,3.95s-3.87-1.74-3.87-3.95
		C100.2,68.45,101.94,66.71,104.07,66.71z M104.07,67.74c-1.5,0-2.76,1.26-2.76,2.92c0,1.64,1.26,2.92,2.76,2.92
		s2.76-1.26,2.76-2.92C106.84,69,105.57,67.74,104.07,67.74z"/>
	<path class="st0" d="M116.07,73.42c0,0-0.79,1.18-2.45,1.18c-1.74,0-3.08-1.34-3.08-3.32v-4.42h1.11v4.42
		c0,1.34,0.95,2.29,2.13,2.29c1.26,0,2.29-1.03,2.29-2.53v-4.19h1.11v7.58h-1.11V73.42z"/>
	<path class="st0" d="M129.02,66.87l1.9,5.84l1.97-5.84h1.18l-2.61,7.58h-1.03l-1.89-5.76l-1.9,5.76h-1.03l-2.61-7.58h1.18
		l1.97,5.84l1.9-5.84H129.02z"/>
	<path class="st0" d="M136.75,63.63c0.39,0,0.71,0.32,0.71,0.71s-0.32,0.71-0.71,0.71s-0.71-0.32-0.71-0.71
		S136.36,63.63,136.75,63.63z M136.2,66.87h1.11v7.58h-1.11V66.87z"/>
	<path class="st0" d="M141.18,64.34h1.03v2.53h1.66v1.03h-1.66v4.5c0,0.79,0.39,1.18,1.03,1.18c0.55,0,1.03-0.24,1.03-0.24v1.03
		c0,0-0.47,0.24-1.07,0.24c-1.29,0-2.08-0.79-2.08-2.21v-4.5h-1.42v-1.03h0.87c0.39,0,0.63-0.24,0.63-0.79V64.34z"/>
	<path class="st0" d="M147.96,67.97c0,0,0.79-1.26,2.45-1.26c1.82,0,3.08,1.26,3.08,3.24v4.5h-1.11v-4.5c0-1.34-0.87-2.21-2.05-2.21
		c-1.34,0-2.37,1.03-2.37,2.53v4.19h-1.11V63.39h1.11V67.97z"/>
	<path class="st0" d="M161.38,77.76h-1.11v-10.9h1.11v1.18c0,0,0.95-1.34,2.68-1.34c1.9,0,3.63,1.74,3.63,3.95
		c0,2.21-1.74,3.95-3.63,3.95c-1.74,0-2.68-1.34-2.68-1.34V77.76z M164.07,73.58c1.26,0,2.53-1.26,2.53-2.92
		c0-1.66-1.26-2.92-2.53-2.92c-1.34,0-2.68,1.34-2.68,2.92C161.38,72.24,162.73,73.58,164.07,73.58z"/>
	<path class="st0" d="M170.86,71.05c0.08,1.34,1.26,2.53,2.68,2.53c1.59,0,2.45-1.26,2.45-1.26l0.71,0.71c0,0-1.11,1.58-3.16,1.58
		s-3.79-1.74-3.79-3.95c0-2.21,1.74-3.95,3.71-3.95c2.05,0,3.63,1.58,3.63,3.79c0,0.32-0.08,0.57-0.08,0.57L170.86,71.05z
		 M170.86,70.1h5.13c-0.16-1.34-1.18-2.37-2.53-2.37C172.12,67.74,171.02,68.84,170.86,70.1z"/>
	<path class="st0" d="M183.65,67.81h-0.47c-1.26,0-2.37,0.95-2.37,2.45v4.19h-1.11v-7.58h1.11v1.03c0,0,0.79-1.18,2.53-1.18h0.32
		V67.81z"/>
	<path class="st0" d="M189.57,68.53c0,0-0.55-0.79-1.66-0.79c-0.87,0-1.42,0.55-1.42,1.11c0,1.66,4.11,0.79,4.11,3.47
		c0,1.26-1.03,2.29-2.76,2.29c-1.89,0-2.76-1.34-2.76-1.34l0.79-0.79c0,0,0.71,1.11,1.97,1.11c1.11,0,1.66-0.55,1.66-1.26
		c0-1.74-4.11-0.87-4.11-3.47c0-1.11,1.03-2.13,2.53-2.13c1.58,0,2.45,1.03,2.45,1.03L189.57,68.53z"/>
	<path class="st0" d="M193.75,71.05c0.08,1.34,1.26,2.53,2.68,2.53c1.59,0,2.45-1.26,2.45-1.26l0.71,0.71c0,0-1.11,1.58-3.16,1.58
		s-3.79-1.74-3.79-3.95c0-2.21,1.74-3.95,3.71-3.95c2.05,0,3.63,1.58,3.63,3.79c0,0.32-0.08,0.57-0.08,0.57L193.75,71.05z
		 M193.75,70.1h5.13c-0.16-1.34-1.18-2.37-2.53-2.37C195.02,67.74,193.91,68.84,193.75,70.1z"/>
	<path class="st0" d="M203.07,73.03c0.47,0,0.79,0.32,0.79,0.79c0,0.47-0.32,0.79-0.79,0.79s-0.79-0.32-0.79-0.79
		C202.28,73.34,202.59,73.03,203.07,73.03z"/>
</g>
</svg>
