<?xml version="1.0" encoding="utf-8"?>
<!-- Generator: Adobe Illustrator 25.4.1, SVG Export Plug-In . SVG Version: 6.00 Build 0)  -->
<svg version="1.1" id="レイヤー_1" xmlns="http://www.w3.org/2000/svg" xmlns:xlink="http://www.w3.org/1999/xlink" x="0px"
	 y="0px" viewBox="0 0 336 30" style="enable-background:new 0 0 336 30;" xml:space="preserve">
<style type="text/css">
	.st0{fill:#FFFFFF;}
</style>
<g>
	<path class="st0" d="M9.6,27.61H2.47c1.68-0.47,2.1-1.17,2.1-4.6V6.37c0-1.68-0.35-2.65-4.13-2.69C3.6,2.86,5.51,1.77,7.46,0.41
		h0.08v22.6C7.54,26.4,7.97,27.1,9.6,27.61z"/>
	<path class="st0" d="M15.33,14.05c0-8.26,3.94-13.76,9.9-13.76c6,0,9.94,5.49,9.94,13.76s-3.94,13.76-9.94,13.76
		C19.27,27.81,15.33,22.31,15.33,14.05z M31.86,14.05c0-8.26-2.3-13.17-6.62-13.17c-4.29,0-6.59,4.91-6.59,13.17
		s2.3,13.17,6.59,13.17C29.56,27.22,31.86,22.31,31.86,14.05z"/>
	<path class="st0" d="M46.63,1.45c3.04,0,5.61,3.74,5.61,7.87c0,4.21-2.57,7.95-5.61,7.95c-3,0-5.57-3.78-5.57-7.95
		C41.06,5.2,43.63,1.45,46.63,1.45z M46.63,16.19c1.79,0,2.77-2.26,2.77-6.86c0-4.56-0.97-6.78-2.77-6.78
		c-1.75,0-2.73,2.22-2.73,6.7C43.9,13.89,44.88,16.19,46.63,16.19z M63.04,0.67l1.29,0.82L45.46,29.75l-1.29-0.78L63.04,0.67z
		 M61.94,13.11c3.08,0,5.61,3.74,5.61,7.91c0,4.21-2.53,7.91-5.61,7.91c-3,0-5.57-3.74-5.57-7.91
		C56.37,16.89,58.94,13.11,61.94,13.11z M61.94,27.84c1.79,0,2.81-2.22,2.81-6.82c0-4.56-1.01-6.82-2.81-6.82
		c-1.75,0-2.73,2.26-2.73,6.74C59.22,25.58,60.19,27.84,61.94,27.84z"/>
	<path class="st0" d="M99.13,14.05c0,7.83-5.49,13.8-13.05,13.8s-13.06-5.96-13.06-13.8s5.5-13.8,13.06-13.8S99.13,6.22,99.13,14.05
		z M95.81,14.05c0-8.81-3.94-13.21-9.74-13.21s-9.74,4.4-9.74,13.21s3.94,13.21,9.74,13.21S95.81,22.86,95.81,14.05z"/>
	<path class="st0" d="M109.65,1.19v12.16h3.23c5.34,0,6.43-1.33,6.94-3.59l-0.55,7.91c-0.16-2.3-0.97-3.66-6.47-3.66h-3.16V24.1
		c0,2.26,0.58,3.04,2.26,3.51h-7.48c1.68-0.47,2.26-1.25,2.26-3.51V3.88c0-2.26-0.27-2.88-1.95-3.35h17.5l0.82,7.13
		c-1.29-5.38-4.64-6.47-8.46-6.47H109.65z"/>
	<path class="st0" d="M133.27,1.19v12.16h3.23c5.34,0,6.43-1.33,6.94-3.59l-0.54,7.91c-0.16-2.3-0.97-3.66-6.47-3.66h-3.16V24.1
		c0,2.26,0.58,3.04,2.26,3.51h-7.48c1.68-0.47,2.26-1.25,2.26-3.51V3.88c0-2.26-0.27-2.88-1.95-3.35h17.5l0.82,7.13
		c-1.29-5.38-4.64-6.47-8.46-6.47H133.27z"/>
	<path class="st0" d="M187.41,20.4v4.29c-2.1,1.75-5.57,3.16-9.28,3.16c-7.52,0-13.21-5.92-13.21-13.83
		c0-7.79,5.92-13.72,12.9-13.72c2.03,0,5.96,0.58,8.96,2.46l0.62,9c-1.44-7.37-5.18-10.87-9.82-10.87c-5.22,0-9.35,4.4-9.35,13.17
		c0,8.96,4.29,13.21,9.82,13.21C181.45,27.26,185.19,25.66,187.41,20.4z"/>
	<path class="st0" d="M219.29,14.05c0,7.83-5.5,13.8-13.06,13.8s-13.05-5.96-13.05-13.8s5.49-13.8,13.05-13.8
		S219.29,6.22,219.29,14.05z M215.98,14.05c0-8.81-3.94-13.21-9.74-13.21s-9.74,4.4-9.74,13.21s3.94,13.21,9.74,13.21
		S215.98,22.86,215.98,14.05z"/>
	<path class="st0" d="M245.91,3.96v12.78c0,6.98-3.47,11.07-9.28,11.07c-6.51,0-10.17-3.39-10.17-9.78V3.96
		c0-2.26-0.43-2.96-2.1-3.43h7.17c-1.64,0.51-2.1,1.21-2.1,3.43V17.4c0,6.16,2.69,9.82,7.21,9.82c5.38,0,8.57-3.86,8.57-10.37V3.96
		c0-2.26-0.43-2.96-2.1-3.43h4.91C246.38,1.03,245.91,1.73,245.91,3.96z"/>
	<path class="st0" d="M273.31,8.01c0,5.57-5.69,8.11-10.44,8.11h-4.83v8.07c0,2.22,0.47,2.92,2.1,3.43h-7.17
		c1.68-0.47,2.1-1.17,2.1-3.43V3.96c0-2.26-0.43-2.96-2.1-3.43h10.02C267.62,0.53,273.31,2.32,273.31,8.01z M270.12,8.16
		c0-4.52-2.92-7.01-7.99-7.01h-4.09v14.34h4.09C266.26,15.49,270.12,13.35,270.12,8.16z"/>
	<path class="st0" d="M304.49,14.05c0,7.83-5.5,13.8-13.06,13.8s-13.05-5.96-13.05-13.8s5.49-13.8,13.05-13.8
		S304.49,6.22,304.49,14.05z M301.18,14.05c0-8.81-3.94-13.21-9.74-13.21s-9.74,4.4-9.74,13.21s3.94,13.21,9.74,13.21
		S301.18,22.86,301.18,14.05z"/>
	<path class="st0" d="M335.56,0.53c-1.64,0.51-2.1,1.21-2.1,3.43v23.66h-0.27L312.56,3.64v20.54c0,2.22,0.47,2.92,2.1,3.43h-4.87
		c1.68-0.47,2.1-1.17,2.1-3.43V3.96c0-2.26-0.43-2.96-2.1-3.43h3.74l19.25,22.37V3.96c0-2.26-0.43-2.96-2.1-3.43H335.56z"/>
</g>
</svg>
