<?xml version="1.0" encoding="utf-8"?>
<!-- Generator: Adobe Illustrator 25.4.1, SVG Export Plug-In . SVG Version: 6.00 Build 0)  -->
<svg version="1.1" id="レイヤー_1" xmlns="http://www.w3.org/2000/svg" xmlns:xlink="http://www.w3.org/1999/xlink" x="0px"
	 y="0px" viewBox="0 0 365 28" style="enable-background:new 0 0 365 28;" xml:space="preserve">
<style type="text/css">
	.st0{fill:#FFFFFF;}
</style>
<g>
	<g>
		<path class="st0" d="M18.16,20.35l-0.78,7.21H0.11c1.68-0.47,2.11-1.17,2.11-3.43V3.91c0-2.26-0.43-2.96-2.11-3.43h7.17
			c-1.64,0.51-2.07,1.21-2.1,3.43V26.9h6.59C15.59,26.9,16.87,25.73,18.16,20.35z"/>
		<path class="st0" d="M30.28,27.56h-7.13c1.68-0.47,2.1-1.17,2.1-4.6V5.08c0-3.43-0.43-4.13-2.1-4.6h7.13
			c-1.64,0.51-2.07,1.21-2.07,4.6v17.89C28.22,26.35,28.64,27.06,30.28,27.56z"/>
		<path class="st0" d="M65.86,27.56h-7.13c1.68-0.47,2.1-1.17,2.1-3.43V3.13L50.12,27.56h-0.47L38.27,4.65v19.49
			c0,2.22,0.47,2.92,2.1,3.43H35.5c1.68-0.47,2.1-1.17,2.1-3.43V3.91c0-2.26-0.43-2.96-2.1-3.43h3.74l11.73,23.62L61.19,0.48h4.68
			c-1.64,0.51-2.1,1.21-2.1,3.43v20.23C63.76,26.35,64.23,27.06,65.86,27.56z"/>
		<path class="st0" d="M78.22,27.56h-7.13c1.68-0.47,2.1-1.17,2.1-4.6V5.08c0-3.43-0.43-4.13-2.1-4.6h7.13
			c-1.64,0.51-2.07,1.21-2.07,4.6v17.89C76.15,26.35,76.58,27.06,78.22,27.56z"/>
		<path class="st0" d="M105.46,9.64c-1.05-7.33-2.73-8.5-6.55-8.5h-3v22.99c0,2.22,0.43,2.92,2.03,3.43h-7.09
			c1.64-0.51,2.1-1.17,2.1-3.43V1.14h-2.96c-3.82,0-5.5,1.17-6.62,8.5l0.55-9.16H105L105.46,9.64z"/>
		<path class="st0" d="M129.86,19.49l-0.7,8.07h-18.55c1.68-0.47,2.26-1.25,2.26-3.51V3.83c0-2.26-0.27-2.88-1.95-3.35h17.42
			l0.82,7.13c-1.29-5.38-4.64-6.47-8.46-6.47h-4.87v11.54h3.16c5.34,0,6.43-1.33,6.94-3.59L125.38,17c-0.16-2.3-0.97-3.66-6.47-3.66
			h-3.08V26.9h5.96C125.61,26.9,128.58,25.65,129.86,19.49z"/>
		<path class="st0" d="M159.87,13.84c0,8.15-5.73,13.72-13.6,13.72h-11.03c1.68-0.47,2.26-1.25,2.26-3.51V3.83
			c0-2.26-0.27-2.88-1.95-3.35h10.72C154.14,0.48,159.87,5.74,159.87,13.84z M156.52,13.92c0-8.85-4.4-12.78-10.41-12.78h-5.65V26.9
			h5.65C152.12,26.9,156.52,22.81,156.52,13.92z"/>
		<path class="st0" d="M201.89,27.68l-2.85-2.77c-2.1,1.91-4.87,2.88-7.56,2.88c-7.29,0-13.06-5.96-13.06-13.8
			c0-7.68,5.3-13.76,12.86-13.76c2.77,0,6.62,0.82,9.04,2.61l0.54,7.37c-1.44-5.88-5.14-9.39-9.78-9.39c-5.22,0-9.35,4.4-9.35,13.17
			c0,8.96,4.17,13.21,9.78,13.21c2.11,0,5.11-0.74,7.41-3.62v-8.11h-0.97c-1.17,0-4.72,0-5.96,0.16l0.08-0.97
			c1.01,0.16,1.99,0.16,5.3,0.16h4.52V27.68z"/>
		<path class="st0" d="M215.3,27.56h-7.13c1.68-0.47,2.11-1.17,2.11-4.6V5.08c0-3.43-0.43-4.13-2.11-4.6h7.13
			c-1.64,0.51-2.07,1.21-2.07,4.6v17.89C213.23,26.35,213.66,27.06,215.3,27.56z"/>
		<path class="st0" d="M225.74,1.14V13.3h3.23c5.34,0,6.43-1.33,6.94-3.59l-0.55,7.91c-0.16-2.3-0.97-3.66-6.47-3.66h-3.16v10.09
			c0,2.26,0.58,3.04,2.26,3.51h-7.48c1.68-0.47,2.26-1.25,2.26-3.51V3.83c0-2.26-0.27-2.88-1.95-3.35h17.5l0.82,7.13
			c-1.29-5.38-4.64-6.47-8.46-6.47H225.74z"/>
		<path class="st0" d="M266.16,9.64c-1.05-7.33-2.73-8.5-6.55-8.5h-3v22.99c0,2.22,0.43,2.92,2.03,3.43h-7.09
			c1.64-0.51,2.1-1.17,2.1-3.43V1.14h-2.96c-3.82,0-5.5,1.17-6.62,8.5l0.55-9.16h21.08L266.16,9.64z"/>
		<path class="st0" d="M304.28,20.16c0,4.64-3.86,7.4-9.98,7.4h-9.82c1.68-0.47,2.1-1.17,2.1-3.43V3.91c0-2.26-0.43-2.96-2.1-3.43
			h8.89c6.12,0,9.98,2.3,9.98,6.43c0,3.43-2.77,5.88-7.37,6.7C301.16,14.23,304.28,16.57,304.28,20.16z M289.55,1.1v12.24h4.17
			c3.98,0,6.55-2.53,6.55-6.2c0-3.86-2.73-6.04-7.37-6.04H289.55z M301.12,20.31c0-4.05-2.84-6.35-7.25-6.35h-4.33v12.98h4.17
			C298.36,26.94,301.12,24.44,301.12,20.31z"/>
		<path class="st0" d="M335.69,14c0,7.83-5.5,13.8-13.05,13.8c-7.56,0-13.06-5.96-13.06-13.8c0-7.83,5.5-13.8,13.06-13.8
			C330.2,0.2,335.69,6.17,335.69,14z M332.38,14c0-8.81-3.94-13.21-9.74-13.21c-5.81,0-9.74,4.4-9.74,13.21
			c0,8.81,3.94,13.21,9.74,13.21C328.44,27.21,332.38,22.81,332.38,14z"/>
		<path class="st0" d="M358.81,24.6l-6.66-9.82l-6.47,8.46c-2.61,3.35-1.4,3.9-1.13,4.33h-4.21c0.78-0.43,2.3-1.4,4.01-3.59
			l7.44-9.7l-6.59-9.7c-1.83-2.73-2.81-3.74-3.55-4.09h5.73c-0.43,0.47-0.94,1.21,0.27,3l6,8.81l5.73-7.44
			c2.61-3.43,1.36-3.94,1.09-4.36h4.17c-0.78,0.43-2.26,1.4-3.94,3.62l-6.7,8.73l7.25,10.68c1.44,2.1,2.42,3.55,3.62,4.05h-5.81
			C359.47,27.21,360.21,26.7,358.81,24.6z"/>
	</g>
</g>
</svg>
