<?xml version="1.0" encoding="utf-8"?>
<!-- Generator: Adobe Illustrator 25.4.1, SVG Export Plug-In . SVG Version: 6.00 Build 0)  -->
<svg version="1.1" id="レイヤー_1" xmlns="http://www.w3.org/2000/svg" xmlns:xlink="http://www.w3.org/1999/xlink" x="0px"
	 y="0px" viewBox="0 0 220 126" style="enable-background:new 0 0 220 126;" xml:space="preserve">
<style type="text/css">
	.st0{fill:#F5F1EE;}
</style>
<g>
	<path class="st0" d="M52.39,80.77c8.46,0,16.25,4.2,20.92,11.27h71.88c2.74-4.14,6.7-7.43,11.24-9.34V0.46H0.41v91.59h31.06
		C36.13,84.97,43.91,80.77,52.39,80.77z"/>
	<path class="st0" d="M0.41,102.06c0,0.74,0.33,1.45,0.93,1.99c0.62,0.55,1.47,0.86,2.37,0.86h23.67c0.09-2.57,0.56-5.07,1.41-7.46
		H0.41V102.06z"/>
	<path class="st0" d="M77.41,104.91h63.67c0.09-2.57,0.56-5.07,1.41-7.46H76C76.85,99.84,77.32,102.34,77.41,104.91z"/>
	<path class="st0" d="M186.6,15.27c-7.06-1.05-20.07-1.26-23.6-1.3v67c1.01-0.13,2.05-0.19,3.11-0.19
		c13.51,0,24.55,10.75,25.02,24.14h19.35c2.44,0,4.73-0.95,6.43-2.66c1.73-1.73,2.68-4.01,2.68-6.44V52.22
		c0-8.89-3.47-17.26-9.76-23.55C202.4,21.24,193.93,16.36,186.6,15.27z M214.36,60.51c0,1.34-0.6,2.6-1.63,3.46
		c-0.81,0.66-1.8,1-2.82,1c-0.29,0-0.59-0.03-0.88-0.09l-35.75-7.13c-1-0.19-1.91-0.74-2.57-1.54c-0.65-0.77-1.01-1.78-1.01-2.83
		V21.92l0.9,0c0.49,0,12.1,0.06,18.21,0.98c5.71,0.86,12.24,4.6,17.92,10.29c4.92,4.92,7.63,11.45,7.63,18.39V60.51z"/>
	<path class="st0" d="M68.77,94.8l-0.01-0.01c-0.31-0.43-0.61-0.87-0.95-1.28c-3.77-4.72-9.38-7.42-15.42-7.42
		c-6.03,0-11.66,2.7-15.43,7.42c-0.34,0.41-0.64,0.85-0.95,1.28c-0.5,0.75-0.91,1.46-1.25,2.16c-1.4,2.75-2.11,5.73-2.11,8.86
		c0,10.88,8.85,19.74,19.74,19.74c10.88,0,19.72-8.85,19.72-19.74c0-3.13-0.71-6.11-2.1-8.85C69.67,96.24,69.27,95.54,68.77,94.8z
		 M52.39,117.38c-6.39,0-11.58-5.19-11.58-11.58c0-4.14,2.23-7.98,5.82-10.03c3.45-2.02,8.06-2.03,11.52,0
		c3.58,2.05,5.81,5.89,5.81,10.03C63.97,112.19,58.78,117.38,52.39,117.38z"/>
	<path class="st0" d="M166.11,86.08c-1.28,0-2.57,0.13-3.83,0.37c-1.57,0.3-3.1,0.81-4.56,1.51c-3.22,1.5-5.97,3.86-7.98,6.83
		c-2.19,3.26-3.35,7.07-3.35,11.02c0,10.88,8.85,19.74,19.72,19.74c10.88,0,19.72-8.85,19.72-19.74
		C185.83,94.93,176.99,86.08,166.11,86.08z M166.11,117.38c-6.38,0-11.58-5.19-11.58-11.58c0-2.38,0.71-4.66,2.06-6.59
		c1.28-1.86,3.07-3.29,5.18-4.14c1.38-0.56,2.84-0.85,4.34-0.85c6.38,0,11.58,5.19,11.58,11.58
		C177.69,112.19,172.49,117.38,166.11,117.38z"/>
</g>
</svg>
