<?xml version="1.0" encoding="utf-8"?>
<!-- Generator: Adobe Illustrator 25.4.1, SVG Export Plug-In . SVG Version: 6.00 Build 0)  -->
<svg version="1.1" id="レイヤー_1" xmlns="http://www.w3.org/2000/svg" xmlns:xlink="http://www.w3.org/1999/xlink" x="0px"
	 y="0px" viewBox="0 0 750 770" style="enable-background:new 0 0 750 770;" xml:space="preserve">
<style type="text/css">
	.st0{fill:#FFFFFF;stroke:#FFFFFF;stroke-width:0.25;stroke-miterlimit:10;}
</style>
<g>
	<g>
		<path class="st0" d="M130.15,397.08c0.03,0.69,0.01,1.52-0.05,2.47c-0.06,0.96-0.2,1.98-0.42,3.06c-0.21,1.08-0.5,2.19-0.87,3.32
			c-0.37,1.13-0.84,2.2-1.42,3.24l-11.97,1.34c4.88-1.18,8.45-2.99,10.72-5.43c2.27-2.44,3.34-5.2,3.21-8.28
			c-0.07-1.73-0.51-3.34-1.3-4.84s-1.95-2.77-3.47-3.83s-3.39-1.87-5.62-2.41c-2.23-0.55-4.79-0.76-7.7-0.63
			c-2.98,0.13-5.56,0.58-7.75,1.35c-2.19,0.77-3.98,1.77-5.39,3.02c-1.4,1.24-2.43,2.67-3.07,4.29c-0.64,1.62-0.92,3.35-0.85,5.19
			c0.05,1.14,0.25,2.29,0.59,3.44c0.34,1.15,0.89,2.25,1.65,3.31c0.76,1.06,1.73,2.05,2.94,2.97c1.2,0.92,2.7,1.71,4.5,2.36
			l-5.71,0.24c-1.24-1.37-2.31-3.12-3.22-5.25c-0.91-2.13-1.41-4.44-1.52-6.94c-0.11-2.49,0.26-4.83,1.11-7.02
			c0.84-2.19,2.05-4.1,3.63-5.75c1.58-1.65,3.47-2.97,5.69-3.96c2.21-1,4.63-1.55,7.27-1.66c2.6-0.11,5.03,0.24,7.31,1.07
			c2.27,0.82,4.26,1.99,5.95,3.49c1.7,1.51,3.05,3.28,4.08,5.32C129.49,392.58,130.05,394.75,130.15,397.08z"/>
		<path class="st0" d="M95.68,421.43c0.26,0.52,0.52,0.93,0.79,1.24c0.26,0.31,0.57,0.54,0.93,0.69c0.36,0.15,0.8,0.22,1.33,0.2
			c0.52-0.02,1.14-0.08,1.86-0.2l18.93-3.13c0.72-0.12,1.34-0.25,1.86-0.39c0.52-0.14,0.98-0.29,1.37-0.46
			c0.39-0.17,0.75-0.38,1.06-0.62c0.31-0.25,0.62-0.53,0.91-0.86l1.32,5.11l-6.87,1.14c1.02,0.25,1.99,0.57,2.9,0.94
			c0.91,0.38,1.72,0.86,2.45,1.44c0.73,0.58,1.34,1.3,1.83,2.15c0.49,0.85,0.83,1.86,1.03,3.02c0.18,1.09,0.22,2.09,0.12,2.98
			l-4.93,0.76c0.33-0.37,0.66-0.8,1-1.3c0.34-0.5,0.64-1.01,0.9-1.55c0.26-0.54,0.46-1.08,0.6-1.63c0.14-0.55,0.16-1.1,0.07-1.65
			c-0.11-0.68-0.39-1.29-0.83-1.81c-0.44-0.53-0.98-0.99-1.63-1.39c-0.65-0.4-1.39-0.75-2.23-1.03c-0.84-0.28-1.71-0.51-2.61-0.67
			l-16.62,2.75c-0.72,0.12-1.32,0.26-1.8,0.43c-0.48,0.17-0.88,0.38-1.19,0.64c-0.31,0.26-0.54,0.58-0.68,0.96
			c-0.15,0.38-0.27,0.83-0.35,1.38L95.68,421.43z"/>
		<path class="st0" d="M132.53,452.78c0.57,2,0.77,3.83,0.63,5.47c-0.15,1.64-0.6,3.1-1.37,4.36c-0.76,1.26-1.77,2.33-3.04,3.21
			c-1.27,0.88-2.73,1.57-4.39,2.08l-5.95-21.07c-0.52,0.07-1.04,0.17-1.57,0.28c-0.53,0.11-1.06,0.24-1.59,0.4
			c-1.9,0.54-3.61,1.3-5.11,2.28c-1.51,0.98-2.73,2.1-3.67,3.36c-0.94,1.26-1.58,2.62-1.9,4.08c-0.33,1.46-0.28,2.94,0.15,4.44
			c0.38,1.33,0.96,2.48,1.75,3.42c0.79,0.95,1.76,1.74,2.92,2.39c1.16,0.65,2.46,1.15,3.91,1.52c1.45,0.36,3.01,0.6,4.66,0.71
			l-7.38,1.6c-1.65-1.12-3.03-2.53-4.14-4.23c-1.11-1.7-1.92-3.44-2.42-5.21c-0.59-2.1-0.8-4.13-0.61-6.1
			c0.18-1.96,0.71-3.76,1.58-5.39c0.87-1.63,2.09-3.05,3.66-4.25c1.57-1.2,3.42-2.1,5.56-2.7c2.1-0.59,4.12-0.83,6.07-0.71
			c1.94,0.12,3.73,0.58,5.36,1.38c1.63,0.8,3.04,1.93,4.22,3.37C131.05,448.9,131.93,450.68,132.53,452.78z M119.05,446.75
			l4.82,17.07c1.46-0.45,2.75-1.03,3.88-1.74c1.13-0.72,2.07-1.54,2.81-2.47c0.75-0.93,1.24-1.96,1.48-3.09
			c0.24-1.13,0.18-2.33-0.18-3.6c-0.34-1.2-0.9-2.23-1.68-3.09c-0.78-0.86-1.74-1.55-2.88-2.08c-1.14-0.52-2.41-0.87-3.8-1.03
			C122.1,446.55,120.61,446.56,119.05,446.75z"/>
		<path class="st0" d="M130.38,487.19l3.54,4.77l3.45-1.46c2.4-1.01,3.96-2.23,4.7-3.65c0.74-1.42,0.7-3.09-0.11-5.01
			c-0.38-0.89-0.91-1.74-1.61-2.54c-0.7-0.8-1.61-1.44-2.73-1.92c-1.13-0.48-2.5-0.79-4.14-0.91c-1.63-0.12-3.56,0.03-5.8,0.44
			l7.88-3.66c1.42,0.79,2.77,1.93,4.04,3.43s2.29,3.15,3.06,4.97c1.19,2.81,1.46,5.32,0.81,7.53s-2.26,3.86-4.85,4.95l-15.19,6.41
			c-0.93,0.39-1.7,0.84-2.31,1.34c-0.62,0.5-1.04,1.09-1.29,1.76l-2.12-4.63l6.33-2.67c-0.93,0.02-1.89-0.06-2.86-0.23
			c-0.98-0.17-1.92-0.49-2.83-0.95c-0.91-0.46-1.75-1.11-2.52-1.96c-0.77-0.84-1.42-1.9-1.96-3.18c-0.49-1.15-0.81-2.28-0.98-3.4
			c-0.17-1.11-0.14-2.14,0.08-3.08c0.22-0.94,0.64-1.78,1.25-2.53c0.61-0.75,1.44-1.34,2.49-1.78c1.44-0.61,2.82-0.73,4.14-0.36
			c1.32,0.37,2.56,1,3.73,1.9c1.17,0.9,2.24,1.94,3.2,3.11C128.74,485.06,129.61,486.17,130.38,487.19z M118.39,483.11
			c-1.63,0.69-2.79,1.69-3.47,3.02c-0.68,1.32-0.69,2.78-0.01,4.38c0.38,0.89,0.95,1.72,1.73,2.49c0.77,0.76,1.7,1.37,2.77,1.82
			c1.07,0.45,2.28,0.7,3.61,0.73c1.33,0.04,2.75-0.22,4.25-0.77l5.94-2.51l-3.45-4.7c-0.44-0.6-1.02-1.29-1.72-2.07
			c-0.7-0.78-1.52-1.45-2.46-2.01c-0.93-0.57-2-0.93-3.19-1.08S119.85,482.49,118.39,483.11z"/>
		<path class="st0" d="M151.87,501.48l8.06-0.34l-6.33,3.49l4.11,7.47l-0.5,0.28l-4.11-7.47l-19.59,10.79
			c-1,0.55-1.8,1.08-2.39,1.58c-0.59,0.5-1.02,0.99-1.28,1.45c-0.26,0.46-0.36,0.92-0.31,1.39c0.06,0.46,0.22,0.94,0.49,1.42
			c0.49,0.88,1.14,1.49,1.98,1.82s1.85,0.5,3.05,0.52l-0.08,0.82c-1.31-0.07-2.44-0.31-3.39-0.71c-0.96-0.4-1.81-1.29-2.56-2.66
			c-1.17-2.13-1.38-3.96-0.63-5.5c0.75-1.54,2.25-2.93,4.5-4.17l18.36-10.11l-2.46-4.46l0.5-0.28L151.87,501.48z"/>
		<path class="st0" d="M168.38,527.7c1.2,1.7,2,3.35,2.41,4.95c0.41,1.6,0.46,3.12,0.16,4.56c-0.3,1.44-0.9,2.79-1.8,4.04
			c-0.9,1.25-2.05,2.39-3.45,3.41l-12.61-17.9c-0.46,0.24-0.93,0.5-1.39,0.79c-0.46,0.28-0.92,0.58-1.37,0.9
			c-1.62,1.14-2.97,2.42-4.06,3.85c-1.09,1.43-1.88,2.89-2.35,4.39c-0.47,1.5-0.62,2.99-0.44,4.48c0.18,1.49,0.72,2.87,1.61,4.14
			c0.8,1.13,1.73,2.02,2.79,2.65c1.06,0.63,2.24,1.06,3.55,1.29c1.3,0.23,2.7,0.27,4.19,0.13c1.49-0.14,3.04-0.43,4.63-0.88
			l-6.43,3.96c-1.93-0.51-3.7-1.38-5.31-2.62c-1.62-1.24-2.95-2.61-4.01-4.11c-1.26-1.79-2.13-3.63-2.6-5.55
			c-0.48-1.91-0.58-3.78-0.3-5.61c0.28-1.83,0.96-3.57,2.04-5.22c1.08-1.65,2.53-3.12,4.34-4.4c1.79-1.26,3.61-2.15,5.49-2.69
			c1.87-0.53,3.71-0.69,5.51-0.48c1.8,0.21,3.5,0.81,5.1,1.78C165.7,524.54,167.12,525.92,168.38,527.7z M153.66,526.5l10.21,14.5
			c1.23-0.91,2.26-1.89,3.08-2.94c0.83-1.05,1.44-2.14,1.83-3.26c0.39-1.13,0.52-2.26,0.37-3.41c-0.15-1.15-0.6-2.26-1.36-3.33
			c-0.72-1.02-1.59-1.81-2.61-2.36c-1.02-0.55-2.16-0.88-3.41-1c-1.25-0.12-2.56-0.02-3.93,0.29
			C156.47,525.29,155.08,525.79,153.66,526.5z"/>
		<path class="st0" d="M189.75,555.35l0.4-0.41l3.8,3.7l1.74-1.79c1.14-1.17,2.28-2,3.44-2.49c1.16-0.49,2.31-0.72,3.45-0.67
			c1.14,0.05,2.25,0.35,3.32,0.91c1.07,0.56,2.09,1.31,3.06,2.26c1.04,1.02,1.83,2,2.38,2.96c0.54,0.96,0.91,1.88,1.12,2.76
			l-4.57,4.4c1.32-2.05,2.07-3.85,2.26-5.38c0.19-1.53-0.38-2.94-1.69-4.22c-1.19-1.16-2.55-1.72-4.07-1.67
			c-1.52,0.04-3.23,1.05-5.14,3.01l-2.54,2.61l7.68,7.47l-0.4,0.41l-7.68-7.47l-16.93,17.41c-0.51,0.52-0.91,0.99-1.2,1.41
			c-0.29,0.42-0.48,0.83-0.57,1.22c-0.09,0.39-0.09,0.79,0.02,1.18c0.1,0.39,0.28,0.83,0.53,1.32l-6.63-6.45
			c0.52,0.26,0.97,0.44,1.37,0.53c0.39,0.09,0.78,0.09,1.16,0c0.38-0.09,0.77-0.3,1.19-0.62c0.41-0.32,0.87-0.75,1.38-1.27
			l16.93-17.41L189.75,555.35z"/>
		<path class="st0" d="M219.56,580.78c1.76,1.35,3.14,2.86,4.15,4.55c1,1.68,1.62,3.46,1.86,5.32c0.23,1.86,0.09,3.73-0.44,5.62
			c-0.53,1.89-1.46,3.7-2.78,5.43l-0.03,0.04c-1.33,1.73-2.83,3.1-4.52,4.11c-1.68,1-3.46,1.63-5.31,1.89s-3.73,0.12-5.62-0.4
			c-1.89-0.53-3.71-1.47-5.47-2.81c-1.76-1.35-3.14-2.86-4.15-4.55c-1-1.68-1.62-3.46-1.86-5.32c-0.24-1.86-0.09-3.73,0.44-5.62
			c0.53-1.89,1.46-3.7,2.78-5.43l0.03-0.04c1.33-1.73,2.83-3.1,4.52-4.11c1.68-1,3.46-1.63,5.31-1.89c1.86-0.26,3.73-0.12,5.62,0.4
			C215.98,578.49,217.8,579.43,219.56,580.78z M201.99,586.12c-1.26,1.65-2.22,3.32-2.86,5.02c-0.64,1.69-0.97,3.33-1,4.9
			c-0.03,1.57,0.27,3.04,0.9,4.39c0.62,1.35,1.57,2.51,2.84,3.48c1.27,0.97,2.63,1.58,4.1,1.83c1.47,0.25,2.96,0.16,4.47-0.28
			c1.51-0.44,3-1.18,4.47-2.24c1.47-1.06,2.83-2.42,4.1-4.07c1.26-1.65,2.22-3.32,2.86-5.02c0.64-1.69,0.97-3.32,0.98-4.88
			c0.02-1.56-0.29-3.02-0.91-4.37c-0.62-1.35-1.57-2.51-2.84-3.48c-1.27-0.97-2.63-1.58-4.1-1.83c-1.47-0.25-2.95-0.16-4.45,0.26
			c-1.5,0.42-2.99,1.16-4.45,2.22C204.61,583.11,203.25,584.47,201.99,586.12z"/>
		<path class="st0" d="M220.89,618.03c0.56,0.13,1.05,0.2,1.45,0.2c0.4,0,0.78-0.09,1.13-0.27c0.35-0.18,0.68-0.47,1.01-0.88
			c0.33-0.41,0.67-0.93,1.05-1.56l9.82-16.48c0.37-0.63,0.67-1.18,0.9-1.67c0.23-0.49,0.41-0.94,0.53-1.35
			c0.12-0.41,0.19-0.81,0.21-1.21s-0.01-0.81-0.07-1.25l4.75,2.29l-3.57,5.99c0.85-0.62,1.72-1.16,2.59-1.6
			c0.87-0.45,1.77-0.76,2.68-0.94c0.91-0.18,1.86-0.19,2.82-0.01c0.96,0.17,1.96,0.56,2.97,1.16c0.95,0.57,1.74,1.18,2.36,1.83
			l-2.6,4.26c-0.07-0.49-0.19-1.02-0.35-1.6c-0.16-0.58-0.36-1.14-0.6-1.69c-0.24-0.55-0.53-1.05-0.86-1.51
			c-0.33-0.46-0.74-0.83-1.21-1.12c-0.6-0.35-1.24-0.53-1.92-0.54c-0.68,0-1.39,0.11-2.11,0.34c-0.73,0.23-1.47,0.58-2.22,1.04
			c-0.76,0.46-1.49,0.98-2.2,1.56l-8.62,14.47c-0.37,0.62-0.65,1.18-0.83,1.65c-0.18,0.48-0.27,0.92-0.27,1.32
			c0,0.4,0.1,0.78,0.29,1.14c0.19,0.36,0.47,0.74,0.82,1.16L220.89,618.03z"/>
		<path class="st0" d="M280.51,608.28c-0.17,0.05-0.34,0.15-0.52,0.31c-0.18,0.15-0.34,0.37-0.47,0.63c-0.13,0.27-0.2,0.61-0.2,1.03
			c0,0.42,0.06,0.95,0.2,1.59l4.38,18.19l12.92-9.57c1.16-0.87,1.98-1.6,2.46-2.18c0.48-0.58,0.8-1.07,0.94-1.46
			c0.14-0.39,0.16-0.71,0.06-0.94c-0.1-0.24-0.17-0.44-0.23-0.61l4.55,1.63c-0.47-0.02-1.14,0.18-2.01,0.61
			c-0.87,0.43-1.95,1.11-3.24,2.04l-15.23,11.23l-3.9,10.92c-0.5,1.4-0.67,2.46-0.5,3.16c0.17,0.71,0.71,1.4,1.6,2.09l-9.01-3.22
			c1.15,0.08,2.01-0.11,2.58-0.57c0.57-0.46,1.1-1.39,1.61-2.79l3.75-10.48l-4.29-17.66c-0.48-2.05-0.92-3.54-1.33-4.48
			c-0.4-0.94-0.79-1.6-1.17-1.99L280.51,608.28z"/>
		<path class="st0" d="M321.86,627.1c2.18,0.43,4.09,1.18,5.73,2.24c1.65,1.07,2.98,2.38,4.02,3.95c1.03,1.56,1.73,3.31,2.09,5.24
			s0.33,3.96-0.09,6.1l-0.01,0.05c-0.42,2.14-1.17,4.04-2.23,5.68s-2.38,3-3.93,4.05s-3.29,1.76-5.21,2.12
			c-1.93,0.36-3.98,0.33-6.15-0.1c-2.18-0.43-4.09-1.18-5.73-2.24c-1.65-1.07-2.99-2.38-4.02-3.95c-1.04-1.56-1.73-3.31-2.09-5.24
			c-0.36-1.93-0.33-3.96,0.09-6.1l0.01-0.05c0.42-2.14,1.17-4.04,2.23-5.68c1.07-1.65,2.37-2.99,3.92-4.05
			c1.55-1.05,3.29-1.76,5.22-2.12C317.63,626.64,319.68,626.67,321.86,627.1z M308.46,639.67c-0.4,2.04-0.52,3.96-0.34,5.76
			c0.17,1.8,0.6,3.41,1.27,4.83c0.67,1.42,1.59,2.6,2.75,3.54c1.16,0.94,2.52,1.56,4.08,1.87c1.56,0.31,3.06,0.25,4.49-0.18
			c1.43-0.43,2.72-1.17,3.88-2.23c1.16-1.06,2.17-2.39,3.01-3.99c0.84-1.6,1.47-3.42,1.87-5.46c0.4-2.04,0.52-3.96,0.34-5.76
			c-0.17-1.8-0.6-3.4-1.28-4.81c-0.68-1.4-1.6-2.57-2.75-3.51c-1.16-0.94-2.52-1.56-4.08-1.87c-1.56-0.31-3.06-0.25-4.49,0.18
			c-1.43,0.43-2.72,1.16-3.88,2.2c-1.16,1.04-2.16,2.37-3.01,3.97C309.49,635.81,308.87,637.63,308.46,639.67z"/>
		<path class="st0" d="M341.92,630.98l5.32-0.16l-1.21,21.08c-0.08,1.49,0,2.75,0.25,3.79c0.25,1.04,0.65,1.89,1.18,2.57
			c0.53,0.67,1.2,1.17,2,1.5c0.8,0.32,1.68,0.51,2.65,0.57c1.56,0.09,2.93-0.19,4.11-0.83c1.18-0.64,2.19-1.5,3.01-2.56
			c0.83-1.06,1.48-2.26,1.98-3.58c0.49-1.33,0.79-2.63,0.9-3.91l0.67-11.73c0.04-0.73,0.05-1.36,0.03-1.9
			c-0.02-0.54-0.07-1.02-0.15-1.44c-0.08-0.42-0.21-0.81-0.38-1.17c-0.17-0.36-0.38-0.72-0.64-1.08l5.32-0.16l-1.41,24.5
			c-0.09,1.52-0.03,2.65,0.17,3.37c0.2,0.72,0.53,1.34,0.99,1.85l-5.1-0.14l0.45-7.84c-0.59,1.22-1.22,2.29-1.88,3.23
			c-0.66,0.93-1.41,1.73-2.25,2.37c-0.84,0.65-1.79,1.12-2.87,1.42c-1.08,0.3-2.31,0.42-3.69,0.33c-2.98-0.17-5.3-1.05-6.96-2.64
			c-1.66-1.59-2.4-3.92-2.23-7l0.85-14.85c0.04-0.73,0.05-1.36,0.03-1.9c-0.02-0.54-0.07-1.02-0.15-1.44
			c-0.08-0.42-0.21-0.81-0.38-1.17C342.39,631.7,342.18,631.34,341.92,630.98z"/>
		<path class="st0" d="M375.7,661.44c0.54-0.2,0.98-0.42,1.32-0.65c0.33-0.23,0.6-0.51,0.79-0.85c0.19-0.34,0.3-0.77,0.35-1.29
			c0.04-0.52,0.04-1.15,0-1.88l-1.05-19.16c-0.04-0.73-0.1-1.36-0.18-1.89s-0.18-1.01-0.31-1.42c-0.13-0.41-0.29-0.78-0.5-1.12
			c-0.21-0.34-0.46-0.67-0.76-1l5.22-0.75l0.38,6.96c0.36-0.99,0.78-1.92,1.25-2.78c0.47-0.86,1.04-1.62,1.7-2.28
			s1.44-1.19,2.33-1.59c0.9-0.4,1.94-0.63,3.11-0.69c1.11-0.06,2.1,0.01,2.98,0.2l0.22,4.99c-0.33-0.36-0.73-0.74-1.18-1.13
			s-0.93-0.75-1.44-1.07c-0.5-0.32-1.02-0.58-1.55-0.77c-0.53-0.2-1.07-0.28-1.63-0.25c-0.69,0.04-1.32,0.25-1.89,0.62
			c-0.57,0.38-1.09,0.87-1.56,1.47c-0.47,0.6-0.89,1.3-1.27,2.1c-0.37,0.8-0.69,1.64-0.96,2.53l0.92,16.82
			c0.04,0.73,0.12,1.34,0.23,1.83c0.11,0.5,0.28,0.91,0.51,1.25c0.23,0.33,0.52,0.6,0.88,0.79s0.8,0.36,1.33,0.5L375.7,661.44z"/>
		<path class="st0" d="M401.44,656.95l-0.7-9.84c0.57,2.3,1.26,4.17,2.06,5.62c0.81,1.45,1.7,2.57,2.68,3.34
			c0.98,0.78,2.04,1.27,3.18,1.48c1.14,0.21,2.32,0.21,3.56,0.02c2.57-0.4,4.36-1.32,5.39-2.74c1.02-1.42,1.4-3.03,1.12-4.81
			c-0.16-1.03-0.49-1.86-0.97-2.51c-0.49-0.64-1.03-1.15-1.64-1.53c-0.6-0.38-1.23-0.65-1.89-0.81c-0.66-0.16-1.25-0.29-1.8-0.38
			l-5.79-0.99c-0.58-0.08-1.23-0.25-1.97-0.51c-0.74-0.25-1.46-0.62-2.17-1.11c-0.71-0.48-1.34-1.11-1.9-1.89
			c-0.56-0.77-0.93-1.72-1.11-2.85c-0.35-2.26,0.21-4.17,1.68-5.74s3.6-2.56,6.37-3c1.88-0.3,3.65-0.27,5.3,0.06
			c1.65,0.34,3.12,0.92,4.4,1.73l0.73,6.99c-1.38-3.22-2.88-5.46-4.5-6.72c-1.62-1.25-3.59-1.7-5.92-1.34
			c-1.85,0.29-3.32,0.97-4.42,2.03c-1.1,1.07-1.5,2.51-1.22,4.32c0.13,0.82,0.41,1.48,0.84,1.97c0.43,0.5,0.92,0.88,1.47,1.17
			c0.55,0.28,1.14,0.49,1.75,0.62c0.62,0.13,1.2,0.24,1.74,0.33l5.24,0.86c0.68,0.1,1.47,0.28,2.37,0.52
			c0.9,0.25,1.77,0.63,2.63,1.14c0.85,0.52,1.61,1.2,2.27,2.07c0.66,0.86,1.1,1.98,1.31,3.35c0.2,1.27,0.14,2.47-0.17,3.61
			c-0.31,1.14-0.87,2.17-1.67,3.1c-0.8,0.93-1.84,1.73-3.13,2.38c-1.28,0.66-2.82,1.13-4.6,1.4c-1.95,0.31-3.87,0.34-5.75,0.11
			C404.35,658.23,402.76,657.73,401.44,656.95z"/>
		<path class="st0" d="M437.26,622.26c2-0.56,3.83-0.77,5.47-0.62c1.64,0.15,3.1,0.6,4.36,1.37c1.26,0.76,2.33,1.77,3.21,3.04
			c0.88,1.27,1.57,2.73,2.07,4.39l-21.07,5.94c0.07,0.52,0.17,1.04,0.28,1.57c0.11,0.53,0.24,1.06,0.39,1.59
			c0.54,1.9,1.3,3.61,2.28,5.11c0.98,1.51,2.1,2.73,3.36,3.67c1.26,0.94,2.61,1.58,4.08,1.9c1.46,0.33,2.94,0.28,4.44-0.15
			c1.33-0.38,2.48-0.96,3.42-1.75c0.95-0.79,1.75-1.76,2.39-2.92c0.65-1.16,1.15-2.46,1.52-3.91c0.36-1.45,0.6-3.01,0.71-4.66
			l1.6,7.38c-1.12,1.65-2.53,3.03-4.24,4.14c-1.7,1.11-3.44,1.92-5.21,2.41c-2.1,0.59-4.13,0.8-6.09,0.61
			c-1.96-0.18-3.76-0.71-5.39-1.59c-1.63-0.87-3.05-2.09-4.25-3.67c-1.2-1.57-2.1-3.42-2.7-5.56c-0.59-2.1-0.83-4.12-0.71-6.07
			c0.12-1.94,0.58-3.73,1.38-5.36c0.8-1.63,1.93-3.04,3.38-4.22C433.39,623.75,435.16,622.86,437.26,622.26z M431.23,635.74
			l17.07-4.81c-0.45-1.46-1.03-2.75-1.74-3.88c-0.72-1.13-1.54-2.07-2.47-2.82c-0.93-0.75-1.96-1.24-3.09-1.48
			c-1.13-0.24-2.33-0.18-3.6,0.18c-1.2,0.34-2.23,0.9-3.09,1.68c-0.86,0.78-1.55,1.74-2.08,2.88c-0.52,1.14-0.87,2.41-1.03,3.8
			C431.03,632.69,431.04,634.18,431.23,635.74z"/>
		<path class="st0" d="M465.37,644.3c0.45-0.36,0.8-0.7,1.05-1.02c0.25-0.32,0.41-0.67,0.49-1.05c0.08-0.38,0.05-0.83-0.07-1.34
			c-0.12-0.51-0.32-1.1-0.58-1.78l-11.02-28.46c-0.39-1-0.75-1.7-1.09-2.09c-0.34-0.39-0.82-0.69-1.46-0.89l4.58-2.44l12.58,32.49
			c0.26,0.68,0.53,1.24,0.79,1.67c0.26,0.44,0.55,0.78,0.87,1.03c0.32,0.25,0.68,0.41,1.08,0.48c0.4,0.07,0.87,0.09,1.42,0.06
			L465.37,644.3z"/>
		<path class="st0" d="M467.8,612.49l-0.25-0.52l4.79-2.29l-1.08-2.25c-0.7-1.47-1.09-2.83-1.15-4.09
			c-0.06-1.26,0.12-2.41,0.56-3.47c0.44-1.05,1.1-1.99,2-2.8c0.9-0.81,1.96-1.51,3.18-2.1c1.31-0.63,2.51-1.03,3.6-1.21
			c1.09-0.18,2.08-0.21,2.98-0.1l2.55,5.81c-1.47-1.95-2.89-3.27-4.27-3.98c-1.38-0.71-2.89-0.66-4.55,0.13
			c-1.5,0.72-2.49,1.8-2.97,3.24c-0.48,1.44-0.13,3.4,1.05,5.87l1.57,3.28l9.66-4.63l0.25,0.52l-9.66,4.62l10.49,21.9
			c0.31,0.66,0.62,1.19,0.92,1.61c0.29,0.42,0.61,0.74,0.95,0.96c0.34,0.22,0.71,0.35,1.11,0.39s0.88,0.02,1.42-0.05l-8.35,4
			c0.43-0.39,0.75-0.76,0.97-1.1c0.22-0.34,0.36-0.7,0.4-1.09c0.05-0.39-0.01-0.83-0.17-1.33c-0.16-0.5-0.4-1.08-0.71-1.73
			l-10.49-21.9L467.8,612.49z"/>
	</g>
</g>
</svg>
