<?xml version="1.0" encoding="utf-8"?>
<!-- Generator: Adobe Illustrator 25.4.1, SVG Export Plug-In . SVG Version: 6.00 Build 0)  -->
<svg version="1.1" id="レイヤー_1" xmlns="http://www.w3.org/2000/svg" xmlns:xlink="http://www.w3.org/1999/xlink" x="0px"
	 y="0px" viewBox="0 0 353 29" style="enable-background:new 0 0 353 29;" xml:space="preserve">
<style type="text/css">
	.st0{fill:#FFFFFF;}
</style>
<g>
	<path class="st0" d="M19.02,24.92c-0.66,0.79-1.37,1.43-2.11,1.92c-0.74,0.48-1.51,0.83-2.3,1.03c-0.79,0.2-1.58,0.3-2.36,0.3
		c-1.25,0-2.43-0.24-3.51-0.73c-1.08-0.48-2.03-1.23-2.83-2.21c-0.8-0.99-1.44-2.26-1.9-3.77c-0.46-1.52-0.7-3.32-0.7-5.36
		c0-1.99,0.22-3.77,0.66-5.27c0.44-1.5,1.05-2.77,1.82-3.77c0.76-1,1.67-1.75,2.71-2.25c1.03-0.49,2.15-0.74,3.33-0.74
		c2.09,0,3.95,0.82,5.54,2.43c1.59,1.62,2.74,4.14,3.4,7.51l0.25-0.03L20.43,5.6l-0.05-0.03c-0.7-0.43-1.44-0.8-2.22-1.09
		c-0.77-0.29-1.54-0.53-2.28-0.71c-0.75-0.18-1.46-0.31-2.12-0.38c-0.66-0.07-1.24-0.11-1.72-0.11c-1.62,0-3.17,0.33-4.62,0.98
		C5.97,4.91,4.68,5.81,3.58,6.95S1.6,9.44,0.96,11C0.32,12.55,0,14.26,0,16.06c0,1.83,0.32,3.55,0.94,5.12
		c0.63,1.57,1.5,2.94,2.6,4.09c1.1,1.15,2.41,2.06,3.91,2.71c1.5,0.65,3.14,0.98,4.87,0.98s3.38-0.29,4.88-0.85
		c1.5-0.57,2.77-1.27,3.76-2.09l0.04-0.04v-4.65l-0.24,0.58C20.27,23.12,19.68,24.14,19.02,24.92z"/>
	<path class="st0" d="M35.85,8.02c-0.82,0-1.57,0.12-2.22,0.37c-0.65,0.24-1.22,0.59-1.71,1.03c-0.49,0.44-0.92,0.96-1.28,1.54
		c-0.26,0.42-0.51,0.88-0.74,1.36V7.94l-4,0.36l0.14,0.18c0.19,0.23,0.35,0.47,0.47,0.7c0.13,0.23,0.23,0.49,0.29,0.76
		c0.07,0.28,0.12,0.61,0.16,0.97c0.04,0.36,0.05,0.8,0.05,1.3v13.28c0,0.49-0.02,0.92-0.07,1.28c-0.04,0.34-0.14,0.62-0.27,0.83
		c-0.13,0.21-0.31,0.38-0.53,0.52c-0.23,0.14-0.53,0.27-0.91,0.38l-0.78,0.24h7.99l-0.73-0.24c-0.35-0.12-0.64-0.25-0.87-0.39
		c-0.22-0.13-0.4-0.31-0.53-0.53c-0.14-0.23-0.23-0.51-0.29-0.84c-0.06-0.34-0.09-0.76-0.09-1.26V13.86
		c0.21-0.58,0.46-1.15,0.74-1.67c0.28-0.53,0.6-0.99,0.94-1.38c0.34-0.38,0.71-0.7,1.1-0.93c0.7-0.41,1.56-0.45,2.33-0.12
		c0.35,0.15,0.69,0.35,1.02,0.58c0.33,0.23,0.64,0.5,0.94,0.78c0.29,0.28,0.55,0.55,0.76,0.82l0.22,0.27l0.04-3.89l-0.09-0.03
		C37.32,8.11,36.62,8.02,35.85,8.02z"/>
	<path class="st0" d="M57.78,23.9c-0.51,0.89-1.09,1.66-1.72,2.29c-0.64,0.63-1.34,1.13-2.1,1.47c-0.76,0.34-1.62,0.51-2.56,0.51
		c-1.05,0-2.04-0.24-2.93-0.72c-0.89-0.48-1.67-1.15-2.32-2c-0.65-0.85-1.16-1.87-1.53-3.04c-0.37-1.17-0.55-2.45-0.55-3.79
		c0-0.38,0.01-0.76,0.04-1.13c0.02-0.33,0.05-0.66,0.09-0.98h15.16l0-0.13c-0.02-1.21-0.21-2.33-0.56-3.35
		c-0.35-1.02-0.89-1.92-1.59-2.67c-0.71-0.75-1.61-1.35-2.69-1.76c-1.08-0.41-2.36-0.62-3.8-0.62c-1.52,0-2.9,0.26-4.1,0.78
		c-1.2,0.52-2.24,1.26-3.08,2.21c-0.85,0.94-1.5,2.07-1.95,3.35c-0.45,1.28-0.67,2.7-0.67,4.21c0,1.54,0.26,2.98,0.76,4.26
		c0.51,1.28,1.24,2.39,2.17,3.28c0.93,0.9,2.05,1.6,3.33,2.1c1.28,0.49,2.7,0.75,4.22,0.75c1.28,0,2.61-0.21,3.96-0.64
		c1.35-0.42,2.58-1.09,3.64-1.98l0.04-0.03l0.38-6.16l-0.3,0.84C58.74,22.02,58.29,23.01,57.78,23.9z M50.67,8.71
		c0.89,0,1.68,0.18,2.37,0.54c0.69,0.36,1.27,0.88,1.74,1.53c0.47,0.65,0.84,1.43,1.1,2.3c0.25,0.84,0.39,1.76,0.42,2.75H44.31
		c0.17-1.01,0.43-1.95,0.78-2.8c0.36-0.88,0.83-1.66,1.38-2.31c0.55-0.64,1.18-1.15,1.89-1.5C49.05,8.88,49.83,8.71,50.67,8.71z"/>
	<path class="st0" d="M79.05,27.29c-0.15-0.51-0.23-1.12-0.23-1.8v-11.4c0-1.97-0.64-3.49-1.9-4.52c-1.25-1.02-2.97-1.54-5.1-1.54
		c-1.37,0-2.73,0.21-4.03,0.62c-1.3,0.41-2.42,0.97-3.31,1.68l-0.05,0.04l0.25,7.06l0.21-0.97c0.33-1.52,0.76-2.79,1.27-3.78
		c0.5-0.99,1.06-1.78,1.67-2.36c0.59-0.57,1.24-0.97,1.91-1.19c0.68-0.22,1.36-0.34,2.01-0.34c1.39,0,2.44,0.41,3.12,1.23
		c0.69,0.83,1.03,2.14,1.03,3.9v2.49l-3.9,0.95l0,0c-0.85,0.21-1.8,0.47-2.81,0.77c-1.01,0.3-1.98,0.71-2.87,1.22
		c-0.9,0.51-1.65,1.15-2.25,1.9c-0.6,0.76-0.91,1.71-0.91,2.81c0,0.81,0.16,1.53,0.48,2.13c0.32,0.6,0.76,1.11,1.31,1.52
		c0.55,0.4,1.22,0.71,1.99,0.9c0.76,0.19,1.59,0.29,2.46,0.29c0.97,0,1.84-0.14,2.6-0.4c0.75-0.27,1.41-0.64,1.96-1.1
		c0.55-0.46,1.02-0.99,1.39-1.57c0.26-0.4,0.49-0.81,0.69-1.23v4.28l3.96-0.12l-0.22-0.21C79.45,28.21,79.2,27.79,79.05,27.29z
		 M75.91,17.19v4.3c-0.05,1.08-0.26,2.05-0.64,2.87c-0.38,0.82-0.85,1.52-1.41,2.07c-0.56,0.55-1.19,0.97-1.87,1.25
		c-0.68,0.28-1.35,0.42-2,0.42c-1.16,0-2.06-0.38-2.69-1.14c-0.64-0.76-0.96-1.75-0.96-2.94c0-1.08,0.21-1.98,0.61-2.67
		c0.41-0.7,0.91-1.27,1.51-1.71c0.6-0.43,1.24-0.77,1.91-1.01c0.67-0.24,1.27-0.42,1.77-0.54L75.91,17.19z"/>
	<path class="st0" d="M94.56,25.9c-0.4,0.7-0.84,1.26-1.3,1.64c-0.45,0.37-1.02,0.57-1.68,0.57c-0.37,0-0.7-0.06-0.98-0.17
		c-0.27-0.11-0.5-0.31-0.68-0.6c-0.18-0.3-0.33-0.71-0.43-1.22c-0.11-0.51-0.16-1.17-0.16-1.95V8.81h5.9V8.17h-5.9V2.76l-2.68,5.41
		h-3.75v0.65h3.53v14.37c0,1.79,0.35,3.2,1.05,4.19c0.7,1,1.93,1.51,3.65,1.51c1.1,0,1.96-0.23,2.54-0.69
		c0.57-0.45,1.11-1.07,1.59-1.85l0.06-0.1l-0.68-0.47L94.56,25.9z"/>
	<path class="st0" d="M115.09,23.9c-0.51,0.89-1.09,1.66-1.72,2.29c-0.64,0.63-1.34,1.13-2.1,1.47c-0.76,0.34-1.62,0.51-2.56,0.51
		c-1.05,0-2.04-0.24-2.93-0.72c-0.89-0.48-1.67-1.15-2.32-2c-0.65-0.85-1.16-1.87-1.53-3.04c-0.37-1.17-0.55-2.45-0.55-3.79
		c0-0.38,0.01-0.76,0.04-1.13c0.02-0.33,0.05-0.66,0.09-0.98h15.16l0-0.13c-0.02-1.21-0.21-2.33-0.56-3.35
		c-0.35-1.02-0.89-1.92-1.59-2.67c-0.71-0.75-1.61-1.35-2.69-1.76c-1.08-0.41-2.36-0.62-3.8-0.62c-1.52,0-2.9,0.26-4.1,0.78
		c-1.2,0.52-2.24,1.26-3.08,2.21c-0.85,0.94-1.5,2.07-1.95,3.35c-0.45,1.28-0.67,2.7-0.67,4.21c0,1.54,0.26,2.98,0.76,4.26
		c0.51,1.28,1.24,2.39,2.17,3.28c0.93,0.9,2.05,1.6,3.33,2.1c1.28,0.49,2.7,0.75,4.22,0.75c1.28,0,2.61-0.21,3.96-0.64
		c1.35-0.42,2.58-1.09,3.64-1.98l0.04-0.03l0.38-6.16l-0.3,0.84C116.05,22.02,115.6,23.01,115.09,23.9z M107.98,8.71
		c0.89,0,1.68,0.18,2.37,0.54c0.69,0.36,1.27,0.88,1.74,1.53c0.47,0.65,0.84,1.43,1.1,2.3c0.25,0.84,0.39,1.76,0.42,2.75h-11.99
		c0.17-1.01,0.43-1.95,0.78-2.8c0.36-0.88,0.83-1.66,1.38-2.31c0.55-0.64,1.18-1.15,1.89-1.5C106.36,8.88,107.14,8.71,107.98,8.71z"
		/>
	<path class="st0" d="M144.52,0.37c-0.74-0.22-1.63-0.33-2.64-0.33c-0.94,0-1.83,0.12-2.64,0.36c-0.82,0.24-1.53,0.64-2.13,1.18
		c-0.6,0.54-1.07,1.22-1.42,2.04c-0.34,0.81-0.51,1.8-0.51,2.94v1.6h-3.67v0.65h3.67v16.68c0,0.49-0.02,0.92-0.07,1.28
		c-0.04,0.34-0.14,0.62-0.27,0.83c-0.13,0.21-0.31,0.38-0.53,0.52c-0.23,0.14-0.53,0.27-0.91,0.38l-0.78,0.24h7.99l-0.73-0.24
		c-0.35-0.12-0.65-0.25-0.87-0.39c-0.22-0.13-0.4-0.31-0.53-0.53c-0.14-0.23-0.23-0.51-0.29-0.84c-0.06-0.33-0.09-0.76-0.09-1.26
		V8.81h7.41V8.17h-7.41V5.78c0-1.85,0.36-3.16,1.06-3.89c0.7-0.73,1.62-1.09,2.73-1.09c1.22,0,2.16,0.41,2.78,1.23
		c0.63,0.83,1.12,2.08,1.45,3.71l0.21,1.05l0.18-5.53l-0.06-0.04C145.9,0.87,145.26,0.59,144.52,0.37z"/>
	<path class="st0" d="M166.14,10.92c-0.92-0.93-2.03-1.66-3.3-2.17c-1.27-0.51-2.69-0.76-4.24-0.76s-2.97,0.26-4.24,0.76
		c-1.27,0.51-2.38,1.24-3.3,2.17c-0.92,0.93-1.64,2.05-2.15,3.32c-0.51,1.27-0.76,2.68-0.76,4.2v0.04c0,1.52,0.26,2.93,0.76,4.2
		c0.51,1.27,1.23,2.39,2.15,3.32c0.92,0.93,2.03,1.66,3.3,2.17c1.27,0.51,2.69,0.76,4.24,0.76s2.97-0.26,4.24-0.76
		c1.27-0.51,2.38-1.24,3.3-2.17c0.92-0.93,1.64-2.05,2.15-3.32c0.51-1.27,0.76-2.68,0.76-4.2v-0.04c0-1.52-0.26-2.93-0.76-4.2
		C167.78,12.97,167.06,11.85,166.14,10.92z M158.6,28.14c-1.08,0-2.08-0.24-2.96-0.7c-0.89-0.47-1.66-1.14-2.3-2
		c-0.64-0.86-1.14-1.89-1.49-3.07c-0.35-1.18-0.53-2.5-0.53-3.92c0-1.42,0.18-2.74,0.53-3.92c0.35-1.18,0.86-2.21,1.49-3.05
		c0.63-0.84,1.41-1.51,2.3-1.98c0.89-0.47,1.89-0.71,2.96-0.71c1.08,0,2.07,0.24,2.96,0.71c0.89,0.47,1.67,1.14,2.3,1.98
		c0.64,0.85,1.14,1.87,1.49,3.05c0.36,1.18,0.53,2.5,0.53,3.92c0,1.42-0.18,2.74-0.53,3.92c-0.35,1.18-0.86,2.21-1.49,3.07
		c-0.63,0.86-1.4,1.53-2.3,2C160.68,27.9,159.68,28.14,158.6,28.14z"/>
	<path class="st0" d="M183.06,8.02c-0.82,0-1.57,0.12-2.22,0.37c-0.65,0.24-1.22,0.59-1.71,1.03c-0.49,0.44-0.92,0.96-1.28,1.54
		c-0.26,0.42-0.51,0.88-0.74,1.36V7.94l-4,0.36l0.14,0.18c0.19,0.23,0.35,0.47,0.47,0.7c0.13,0.23,0.23,0.49,0.29,0.76
		c0.07,0.28,0.12,0.61,0.16,0.97c0.04,0.36,0.05,0.8,0.05,1.3v13.28c0,0.49-0.02,0.92-0.07,1.28c-0.04,0.34-0.14,0.62-0.27,0.83
		c-0.13,0.21-0.31,0.38-0.53,0.52c-0.23,0.14-0.53,0.27-0.91,0.38l-0.78,0.24h7.99l-0.73-0.24c-0.35-0.12-0.64-0.25-0.87-0.39
		c-0.22-0.13-0.4-0.31-0.53-0.53c-0.14-0.23-0.23-0.51-0.29-0.84c-0.06-0.34-0.09-0.76-0.09-1.26V13.86
		c0.21-0.58,0.46-1.15,0.74-1.67c0.28-0.53,0.6-0.99,0.94-1.38c0.34-0.38,0.71-0.7,1.1-0.93c0.7-0.41,1.56-0.45,2.33-0.12
		c0.35,0.15,0.69,0.35,1.02,0.58c0.33,0.23,0.64,0.5,0.94,0.78c0.29,0.28,0.55,0.55,0.76,0.82l0.22,0.27l0.04-3.89l-0.09-0.03
		C184.54,8.11,183.84,8.02,183.06,8.02z"/>
	<path class="st0" d="M219.23,3.69c0.08,0.1,0.18,0.22,0.29,0.35c0.1,0.11,0.15,0.29,0.15,0.55c0,0.27-0.09,0.65-0.26,1.13
		c-0.18,0.48-0.54,1.14-1.08,1.97l-6.08,9.09l-6.98-10.67c-0.24-0.38-0.4-0.7-0.49-0.96c-0.09-0.26-0.12-0.48-0.1-0.66
		c0.02-0.19,0.07-0.34,0.15-0.47c0.07-0.13,0.15-0.22,0.24-0.28l0.3-0.23h-6.09l0.47,0.24c0.32,0.16,0.72,0.5,1.19,1
		c0.48,0.51,1.11,1.38,1.89,2.59l6.89,10.47v7.66c0,1-0.13,1.72-0.38,2.13c-0.25,0.4-0.74,0.71-1.47,0.92l-0.87,0.24h8.32
		l-0.76-0.24c-0.71-0.23-1.2-0.54-1.46-0.94c-0.26-0.4-0.39-1.11-0.39-2.11v-7.99l7.28-10.83c0.62-0.9,1.16-1.6,1.62-2.07
		c0.45-0.46,0.83-0.74,1.12-0.83l0.8-0.24h-4.43L219.23,3.69z"/>
	<path class="st0" d="M243.96,10.92c-0.92-0.93-2.03-1.66-3.3-2.17c-1.27-0.51-2.69-0.76-4.24-0.76s-2.97,0.26-4.24,0.76
		c-1.27,0.51-2.38,1.24-3.3,2.17s-1.64,2.05-2.15,3.32c-0.51,1.27-0.76,2.68-0.76,4.2v0.04c0,1.52,0.26,2.93,0.76,4.2
		c0.51,1.27,1.23,2.39,2.15,3.32c0.92,0.93,2.03,1.66,3.3,2.17c1.27,0.51,2.69,0.76,4.24,0.76s2.97-0.26,4.24-0.76
		c1.27-0.51,2.38-1.24,3.3-2.17c0.92-0.93,1.64-2.05,2.15-3.32c0.51-1.27,0.76-2.68,0.76-4.2v-0.04c0-1.52-0.26-2.93-0.76-4.2
		C245.6,12.97,244.87,11.85,243.96,10.92z M236.42,28.14c-1.08,0-2.08-0.24-2.96-0.7c-0.89-0.47-1.66-1.14-2.3-2
		c-0.64-0.86-1.14-1.89-1.49-3.07c-0.35-1.18-0.53-2.5-0.53-3.92c0-1.42,0.18-2.74,0.53-3.92c0.35-1.18,0.86-2.21,1.49-3.05
		c0.63-0.84,1.41-1.51,2.3-1.98c0.89-0.47,1.89-0.71,2.96-0.71c1.08,0,2.07,0.24,2.96,0.71c0.89,0.47,1.67,1.14,2.3,1.98
		c0.64,0.85,1.14,1.87,1.49,3.05c0.36,1.18,0.53,2.5,0.53,3.92c0,1.42-0.18,2.74-0.53,3.92c-0.35,1.18-0.86,2.21-1.49,3.07
		c-0.63,0.86-1.4,1.53-2.3,2C238.49,27.9,237.5,28.14,236.42,28.14z"/>
	<path class="st0" d="M268.2,27.34c-0.16-0.48-0.24-1.24-0.24-2.28V7.94l-4.04,0.36l0.14,0.18c0.19,0.23,0.35,0.47,0.47,0.7
		c0.13,0.23,0.23,0.49,0.29,0.76c0.07,0.28,0.12,0.61,0.16,0.97c0.04,0.36,0.05,0.8,0.05,1.3v8.13c-0.02,0.87-0.18,1.78-0.46,2.7
		c-0.28,0.92-0.69,1.77-1.21,2.52c-0.51,0.75-1.17,1.37-1.94,1.85c-0.77,0.48-1.69,0.72-2.74,0.72c-0.66,0-1.27-0.09-1.81-0.28
		c-0.54-0.18-1.01-0.49-1.39-0.92c-0.38-0.43-0.68-0.99-0.89-1.68c-0.21-0.69-0.32-1.56-0.32-2.57V7.94l-4.04,0.36l0.14,0.18
		c0.19,0.23,0.35,0.47,0.47,0.7c0.13,0.23,0.23,0.49,0.29,0.76c0.07,0.29,0.12,0.61,0.16,0.97c0.04,0.37,0.05,0.81,0.05,1.3V22.5
		c0,2.16,0.63,3.79,1.86,4.84c1.23,1.05,2.91,1.58,4.99,1.58c0.97,0,1.84-0.13,2.58-0.38c0.74-0.26,1.41-0.63,1.97-1.12
		c0.56-0.49,1.06-1.08,1.48-1.76c0.33-0.53,0.64-1.12,0.94-1.77v4.96l3.94-0.12l-0.2-0.2C268.6,28.21,268.36,27.81,268.2,27.34z"/>
	<path class="st0" d="M283.15,8.02c-0.82,0-1.57,0.12-2.22,0.37c-0.65,0.24-1.22,0.59-1.71,1.03c-0.49,0.44-0.92,0.96-1.28,1.54
		c-0.26,0.42-0.51,0.88-0.74,1.36V7.94l-4,0.36l0.14,0.18c0.19,0.23,0.35,0.47,0.47,0.7c0.13,0.23,0.23,0.49,0.29,0.76
		c0.07,0.28,0.12,0.61,0.16,0.97c0.04,0.36,0.05,0.8,0.05,1.3v13.28c0,0.49-0.02,0.92-0.07,1.28c-0.04,0.34-0.14,0.62-0.27,0.83
		c-0.13,0.21-0.31,0.38-0.53,0.52c-0.23,0.14-0.53,0.27-0.91,0.38l-0.78,0.24h7.99l-0.73-0.24c-0.35-0.12-0.64-0.25-0.87-0.39
		c-0.22-0.13-0.4-0.31-0.53-0.53c-0.14-0.23-0.23-0.51-0.29-0.84c-0.06-0.34-0.09-0.76-0.09-1.26V13.86
		c0.21-0.58,0.46-1.15,0.74-1.67c0.28-0.53,0.6-0.99,0.94-1.38c0.34-0.38,0.71-0.7,1.1-0.93c0.7-0.41,1.56-0.45,2.33-0.12
		c0.35,0.15,0.69,0.35,1.02,0.58c0.33,0.23,0.64,0.5,0.94,0.78c0.29,0.28,0.55,0.55,0.76,0.82l0.22,0.27l0.04-3.89l-0.09-0.03
		C284.62,8.11,283.92,8.02,283.15,8.02z"/>
	<path class="st0" d="M301.36,18.47c-0.53-0.45-1.11-0.81-1.7-1.08c-0.59-0.26-1.12-0.47-1.58-0.62l-3.49-1.15
		c-0.37-0.12-0.75-0.26-1.15-0.41c-0.4-0.15-0.77-0.35-1.11-0.6c-0.33-0.24-0.62-0.55-0.85-0.92c-0.23-0.36-0.34-0.82-0.34-1.37
		c0-1.22,0.42-2.14,1.24-2.72c0.84-0.59,1.9-0.89,3.16-0.89c1.59,0,2.87,0.51,3.81,1.51c0.95,1.01,1.73,2.7,2.33,5.02l0.2,0.8
		l0.3-5.74l-0.05-0.04c-0.8-0.7-1.76-1.27-2.86-1.68c-1.1-0.41-2.33-0.62-3.66-0.62c-1.96,0-3.56,0.47-4.75,1.39
		c-1.2,0.93-1.81,2.22-1.81,3.84c0,0.81,0.16,1.52,0.46,2.13c0.3,0.6,0.68,1.11,1.12,1.53c0.44,0.41,0.91,0.75,1.4,1.01
		c0.48,0.25,0.93,0.44,1.31,0.57l3.85,1.3c0.35,0.12,0.74,0.26,1.18,0.45c0.42,0.17,0.81,0.42,1.17,0.73
		c0.36,0.31,0.67,0.71,0.92,1.19c0.25,0.47,0.38,1.06,0.38,1.76c0,1.21-0.42,2.24-1.24,3.08c-0.82,0.83-2.13,1.26-3.89,1.26
		c-0.85,0-1.65-0.13-2.39-0.39c-0.73-0.26-1.39-0.7-1.96-1.32c-0.57-0.62-1.06-1.47-1.45-2.53c-0.39-1.06-0.66-2.42-0.8-4.03h-0.25
		l-0.58,6.86l0.05,0.04c0.83,0.68,1.89,1.21,3.16,1.57c1.26,0.36,2.6,0.54,3.97,0.54c1.25,0,2.37-0.16,3.33-0.47
		c0.96-0.32,1.78-0.76,2.43-1.32c0.66-0.56,1.16-1.23,1.51-1.99c0.34-0.76,0.51-1.6,0.51-2.5c0-0.97-0.19-1.81-0.56-2.49
		C302.36,19.49,301.9,18.92,301.36,18.47z"/>
	<path class="st0" d="M323.64,23.9c-0.51,0.89-1.09,1.66-1.72,2.29c-0.64,0.63-1.34,1.13-2.1,1.47c-0.76,0.34-1.62,0.51-2.56,0.51
		c-1.05,0-2.04-0.24-2.93-0.72c-0.89-0.48-1.67-1.15-2.32-2c-0.65-0.85-1.16-1.87-1.53-3.04c-0.37-1.17-0.55-2.45-0.55-3.79
		c0-0.38,0.01-0.76,0.04-1.13c0.02-0.33,0.05-0.66,0.09-0.98h15.16l0-0.13c-0.02-1.21-0.21-2.33-0.56-3.35
		c-0.35-1.02-0.89-1.92-1.59-2.67c-0.71-0.75-1.61-1.35-2.69-1.76c-1.08-0.41-2.36-0.62-3.8-0.62c-1.52,0-2.9,0.26-4.1,0.78
		c-1.2,0.52-2.24,1.26-3.08,2.21c-0.85,0.94-1.5,2.07-1.95,3.35c-0.45,1.28-0.67,2.7-0.67,4.21c0,1.54,0.26,2.98,0.76,4.26
		c0.51,1.28,1.24,2.39,2.17,3.28c0.93,0.9,2.05,1.6,3.33,2.1c1.28,0.49,2.7,0.75,4.22,0.75c1.28,0,2.61-0.21,3.96-0.64
		c1.35-0.42,2.58-1.09,3.64-1.98l0.04-0.03l0.38-6.16l-0.3,0.84C324.6,22.02,324.15,23.01,323.64,23.9z M316.54,8.71
		c0.89,0,1.68,0.18,2.37,0.54c0.69,0.36,1.27,0.88,1.74,1.53c0.47,0.65,0.84,1.43,1.1,2.3c0.25,0.84,0.39,1.76,0.42,2.75h-11.99
		c0.17-1.01,0.43-1.95,0.78-2.8c0.36-0.88,0.83-1.66,1.38-2.31c0.55-0.64,1.18-1.15,1.89-1.5C314.92,8.88,315.7,8.71,316.54,8.71z"
		/>
	<path class="st0" d="M334.55,28.12c-0.22-0.13-0.4-0.31-0.53-0.53c-0.14-0.23-0.23-0.51-0.29-0.84c-0.06-0.34-0.09-0.76-0.09-1.26
		V1.25l-4,0.48l0.23,0.19c0.34,0.27,0.57,0.57,0.68,0.88c0.11,0.32,0.17,0.85,0.17,1.58v21.12c0,0.49-0.02,0.92-0.07,1.28
		c-0.05,0.34-0.14,0.62-0.27,0.83c-0.13,0.21-0.31,0.38-0.53,0.52c-0.23,0.14-0.53,0.27-0.91,0.38l-0.78,0.24h7.99l-0.73-0.24
		C335.08,28.39,334.78,28.26,334.55,28.12z"/>
	<path class="st0" d="M352.94,1.21c-0.53-0.34-1.18-0.62-1.92-0.84c-0.74-0.22-1.63-0.33-2.64-0.33c-0.94,0-1.83,0.12-2.64,0.36
		c-0.82,0.24-1.53,0.64-2.13,1.18c-0.6,0.54-1.08,1.22-1.42,2.04c-0.34,0.81-0.51,1.8-0.51,2.94v1.6H338v0.65h3.67v16.68
		c0,0.49-0.02,0.92-0.07,1.28c-0.04,0.34-0.14,0.62-0.27,0.83c-0.13,0.21-0.31,0.38-0.53,0.52c-0.23,0.14-0.53,0.27-0.91,0.38
		l-0.78,0.24h7.99l-0.73-0.24c-0.35-0.12-0.65-0.25-0.87-0.39c-0.22-0.13-0.4-0.31-0.53-0.53c-0.14-0.23-0.23-0.51-0.29-0.84
		c-0.06-0.33-0.09-0.76-0.09-1.26V8.81h7.41V8.17h-7.41V5.78c0-1.85,0.36-3.16,1.06-3.89c0.7-0.73,1.62-1.09,2.73-1.09
		c1.22,0,2.16,0.41,2.78,1.23c0.63,0.83,1.12,2.08,1.45,3.71l0.21,1.05L353,1.25L352.94,1.21z"/>
</g>
</svg>
