<?xml version="1.0" encoding="utf-8"?>
<!-- Generator: Adobe Illustrator 25.4.1, SVG Export Plug-In . SVG Version: 6.00 Build 0)  -->
<svg version="1.1" id="レイヤー_1" xmlns="http://www.w3.org/2000/svg" xmlns:xlink="http://www.w3.org/1999/xlink" x="0px"
	 y="0px" viewBox="0 0 512 110" style="enable-background:new 0 0 512 110;" xml:space="preserve">
<style type="text/css">
	.st0{fill:#E02D47;}
</style>
<g>
	<path class="st0" d="M11.73,0v1.54H6.9v13.83H5.25V1.54H0.42V0H11.73z"/>
	<path class="st0" d="M19.3,4.61c2.96,0,5.38,2.41,5.38,5.49c0,3.07-2.42,5.49-5.38,5.49c-2.96,0-5.38-2.41-5.38-5.49
		C13.92,7.03,16.34,4.61,19.3,4.61z M19.3,6.04c-2.09,0-3.84,1.76-3.84,4.06c0,2.28,1.76,4.06,3.84,4.06c2.09,0,3.84-1.76,3.84-4.06
		C23.14,7.79,21.39,6.04,19.3,6.04z"/>
	<path class="st0" d="M42.35,9.11c0-2-1.1-3.07-2.63-3.07c-1.54,0-2.85,1.32-2.85,3.51v5.82h-1.54V9.11c0-1.98-1.1-3.07-2.63-3.07
		s-2.85,1.32-2.85,3.51v5.82H28.3V4.83h1.54v1.32c0,0,0.88-1.54,2.96-1.54c2.52,0,3.4,1.87,3.4,1.87s0.99-1.87,3.62-1.87
		c2.31,0,4.06,1.56,4.06,4.5v6.26h-1.54V9.11z"/>
	<path class="st0" d="M52.89,4.61c2.96,0,5.38,2.41,5.38,5.49c0,3.07-2.42,5.49-5.38,5.49c-2.96,0-5.38-2.41-5.38-5.49
		C47.51,7.03,49.92,4.61,52.89,4.61z M52.89,6.04c-2.09,0-3.84,1.76-3.84,4.06c0,2.28,1.76,4.06,3.84,4.06
		c2.09,0,3.84-1.76,3.84-4.06C56.73,7.79,54.97,6.04,52.89,6.04z"/>
	<path class="st0" d="M67.38,6.15h-0.66c-1.76,0-3.29,1.32-3.29,3.4v5.82h-1.54V4.83h1.54v1.43c0,0,1.1-1.65,3.51-1.65h0.44V6.15z"
		/>
	<path class="st0" d="M75.83,6.15h-0.66c-1.76,0-3.29,1.32-3.29,3.4v5.82h-1.54V4.83h1.54v1.43c0,0,1.1-1.65,3.51-1.65h0.44V6.15z"
		/>
	<path class="st0" d="M83.4,4.61c2.96,0,5.38,2.41,5.38,5.49c0,3.07-2.42,5.49-5.38,5.49c-2.96,0-5.38-2.41-5.38-5.49
		C78.02,7.03,80.44,4.61,83.4,4.61z M83.4,6.04c-2.09,0-3.84,1.76-3.84,4.06c0,2.28,1.76,4.06,3.84,4.06c2.09,0,3.84-1.76,3.84-4.06
		C87.24,7.79,85.49,6.04,83.4,6.04z"/>
	<path class="st0" d="M99.32,4.83l2.63,8.12l2.74-8.12h1.65l-3.62,10.54h-1.43l-2.63-8.01l-2.63,8.01H94.6L90.97,4.83h1.65
		l2.75,8.12L98,4.83H99.32z"/>
	<path class="st0" d="M111.17,14.27l-2.52,3.95l-0.99-0.55l1.98-4.28L111.17,14.27z"/>
	<path class="st0" d="M125.33,8.23L129.94,0h1.87l-5.71,9.99v5.38h-1.65V9.99L118.74,0h1.87l4.61,8.23H125.33z"/>
	<path class="st0" d="M139.38,4.61c2.96,0,5.38,2.41,5.38,5.49c0,3.07-2.42,5.49-5.38,5.49c-2.96,0-5.38-2.41-5.38-5.49
		C134,7.03,136.41,4.61,139.38,4.61z M139.38,6.04c-2.09,0-3.84,1.76-3.84,4.06c0,2.28,1.76,4.06,3.84,4.06
		c2.09,0,3.84-1.76,3.84-4.06C143.22,7.79,141.46,6.04,139.38,6.04z"/>
	<path class="st0" d="M156.06,13.94c0,0-1.1,1.65-3.4,1.65c-2.41,0-4.28-1.87-4.28-4.61V4.83h1.54v6.15c0,1.87,1.32,3.18,2.96,3.18
		c1.76,0,3.18-1.43,3.18-3.51V4.83h1.54v10.54h-1.54V13.94z"/>
	<path class="st0" d="M174.06,4.83l2.63,8.12l2.74-8.12h1.65l-3.62,10.54h-1.43l-2.63-8.01l-2.63,8.01h-1.43l-3.62-10.54h1.65
		l2.75,8.12l2.63-8.12H174.06z"/>
	<path class="st0" d="M184.82,0.33c0.55,0,0.99,0.44,0.99,0.99s-0.44,0.99-0.99,0.99c-0.55,0-0.99-0.44-0.99-0.99
		S184.27,0.33,184.82,0.33z M184.05,4.83h1.54v10.54h-1.54V4.83z"/>
	<path class="st0" d="M191.62,15.37h-1.54V0h1.54V15.37z"/>
	<path class="st0" d="M197.77,15.37h-1.54V0h1.54V15.37z"/>
	<path class="st0" d="M208.96,6.48c0,0,1.32-1.87,3.73-1.87c2.63,0,5.05,2.41,5.05,5.49c0,3.07-2.41,5.49-5.05,5.49
		c-2.41,0-3.73-1.87-3.73-1.87v1.65h-1.54V0h1.54V6.48z M212.7,14.16c1.76,0,3.51-1.76,3.51-4.06c0-2.3-1.76-4.06-3.51-4.06
		c-1.87,0-3.73,1.87-3.73,4.06C208.96,12.3,210.83,14.16,212.7,14.16z"/>
	<path class="st0" d="M222.14,10.65c0.11,1.87,1.76,3.51,3.73,3.51c2.22,0,3.4-1.76,3.4-1.76l0.99,0.99c0,0-1.54,2.2-4.39,2.2
		c-2.85,0-5.27-2.41-5.27-5.49c0-3.07,2.42-5.49,5.16-5.49c2.85,0,5.05,2.2,5.05,5.27c0,0.44-0.11,0.79-0.11,0.79L222.14,10.65z
		 M222.14,9.33h7.14c-0.22-1.87-1.65-3.29-3.51-3.29C223.89,6.04,222.36,7.57,222.14,9.33z"/>
	<path class="st0" d="M241.13,6.48c0,0,1.32-1.87,3.73-1.87c2.63,0,5.05,2.41,5.05,5.49c0,3.07-2.41,5.49-5.05,5.49
		c-2.41,0-3.73-1.87-3.73-1.87v1.65h-1.54V0h1.54V6.48z M244.86,14.16c1.76,0,3.51-1.76,3.51-4.06c0-2.3-1.76-4.06-3.51-4.06
		c-1.87,0-3.73,1.87-3.73,4.06C241.13,12.3,242.99,14.16,244.86,14.16z"/>
	<path class="st0" d="M254.3,10.65c0.11,1.87,1.76,3.51,3.73,3.51c2.22,0,3.4-1.76,3.4-1.76l0.99,0.99c0,0-1.54,2.2-4.39,2.2
		c-2.85,0-5.27-2.41-5.27-5.49c0-3.07,2.42-5.49,5.16-5.49c2.85,0,5.05,2.2,5.05,5.27c0,0.44-0.11,0.79-0.11,0.79L254.3,10.65z
		 M254.3,9.33h7.14c-0.22-1.87-1.65-3.29-3.51-3.29S254.52,7.57,254.3,9.33z"/>
	<path class="st0" d="M267.58,1.32H269v3.51h2.31v1.43H269v6.26c0,1.1,0.55,1.65,1.43,1.65c0.77,0,1.43-0.33,1.43-0.33v1.43
		c0,0-0.66,0.33-1.49,0.33c-1.8,0-2.9-1.1-2.9-3.07V6.26h-1.98V4.83h1.21c0.55,0,0.88-0.33,0.88-1.1V1.32z"/>
	<path class="st0" d="M276.36,1.32h1.43v3.51h2.31v1.43h-2.31v6.26c0,1.1,0.55,1.65,1.43,1.65c0.77,0,1.43-0.33,1.43-0.33v1.43
		c0,0-0.66,0.33-1.49,0.33c-1.8,0-2.9-1.1-2.9-3.07V6.26h-1.98V4.83h1.21c0.55,0,0.88-0.33,0.88-1.1V1.32z"/>
	<path class="st0" d="M284.92,10.65c0.11,1.87,1.76,3.51,3.73,3.51c2.22,0,3.4-1.76,3.4-1.76l0.99,0.99c0,0-1.54,2.2-4.39,2.2
		s-5.27-2.41-5.27-5.49c0-3.07,2.42-5.49,5.16-5.49c2.85,0,5.05,2.2,5.05,5.27c0,0.44-0.11,0.79-0.11,0.79L284.92,10.65z
		 M284.92,9.33h7.14c-0.22-1.87-1.65-3.29-3.51-3.29C286.68,6.04,285.14,7.57,284.92,9.33z"/>
	<path class="st0" d="M302.7,6.15h-0.66c-1.76,0-3.29,1.32-3.29,3.4v5.82h-1.54V4.83h1.54v1.43c0,0,1.1-1.65,3.51-1.65h0.44V6.15z"
		/>
	<path class="st0" d="M311.7,1.32h1.43v3.51h2.31v1.43h-2.31v6.26c0,1.1,0.55,1.65,1.43,1.65c0.77,0,1.43-0.33,1.43-0.33v1.43
		c0,0-0.66,0.33-1.49,0.33c-1.8,0-2.9-1.1-2.9-3.07V6.26h-1.98V4.83h1.21c0.55,0,0.88-0.33,0.88-1.1V1.32z"/>
	<path class="st0" d="M321.14,6.37c0,0,1.1-1.76,3.4-1.76c2.52,0,4.28,1.76,4.28,4.5v6.26h-1.54V9.11c0-1.87-1.21-3.07-2.85-3.07
		c-1.87,0-3.29,1.43-3.29,3.51v5.82h-1.54V0h1.54V6.37z"/>
	<path class="st0" d="M339.58,8.67c0-1.54-1.1-2.63-2.63-2.63c-1.87,0-2.96,1.54-2.96,1.54L333,6.59c0,0,1.43-1.98,3.95-1.98
		c2.42,0,4.17,1.76,4.17,4.06v6.7h-1.54v-1.43c0,0-1.1,1.65-3.4,1.65c-2.2,0-3.73-1.54-3.73-3.07c0-1.76,1.1-2.85,3.07-3.18
		L339.58,8.67z M339.58,10.65V9.99l-3.62,0.66c-1.32,0.24-1.98,0.88-1.98,1.87c0,0.88,0.77,1.65,2.2,1.65
		C338.16,14.16,339.58,12.73,339.58,10.65z"/>
	<path class="st0" d="M347.05,6.37c0,0,1.1-1.76,3.4-1.76c2.52,0,4.28,1.76,4.28,4.5v6.26h-1.54V9.11c0-1.87-1.21-3.07-2.85-3.07
		c-1.87,0-3.29,1.43-3.29,3.51v5.82h-1.54V4.83h1.54V6.37z"/>
	<path class="st0" d="M367.02,15.37l-4.28-10.54h1.65l3.4,8.56l3.4-8.56h1.65l-4.83,12.08c-0.88,2.2-1.76,3.07-3.29,3.07
		c-0.77,0-1.32-0.22-1.32-0.22v-1.43c0,0,0.55,0.22,1.1,0.22c0.99,0,1.58-0.55,1.98-1.65L367.02,15.37z"/>
	<path class="st0" d="M380.41,4.61c2.96,0,5.38,2.41,5.38,5.49c0,3.07-2.42,5.49-5.38,5.49c-2.96,0-5.38-2.41-5.38-5.49
		C375.03,7.03,377.45,4.61,380.41,4.61z M380.41,6.04c-2.09,0-3.84,1.76-3.84,4.06c0,2.28,1.76,4.06,3.84,4.06
		c2.09,0,3.84-1.76,3.84-4.06C384.25,7.79,382.5,6.04,380.41,6.04z"/>
	<path class="st0" d="M397.1,13.94c0,0-1.1,1.65-3.4,1.65c-2.41,0-4.28-1.87-4.28-4.61V4.83h1.54v6.15c0,1.87,1.32,3.18,2.96,3.18
		c1.76,0,3.18-1.43,3.18-3.51V4.83h1.54v10.54h-1.54V13.94z"/>
	<path class="st0" d="M414.55,8.67c0-1.54-1.1-2.63-2.63-2.63c-1.87,0-2.96,1.54-2.96,1.54l-0.99-0.99c0,0,1.43-1.98,3.95-1.98
		c2.42,0,4.17,1.76,4.17,4.06v6.7h-1.54v-1.43c0,0-1.1,1.65-3.4,1.65c-2.2,0-3.73-1.54-3.73-3.07c0-1.76,1.1-2.85,3.07-3.18
		L414.55,8.67z M414.55,10.65V9.99l-3.62,0.66c-1.32,0.24-1.98,0.88-1.98,1.87c0,0.88,0.77,1.65,2.2,1.65
		C413.12,14.16,414.55,12.73,414.55,10.65z"/>
	<path class="st0" d="M425.96,6.15h-0.66c-1.76,0-3.29,1.32-3.29,3.4v5.82h-1.54V4.83h1.54v1.43c0,0,1.1-1.65,3.51-1.65h0.44V6.15z"
		/>
	<path class="st0" d="M429.69,10.65c0.11,1.87,1.76,3.51,3.73,3.51c2.22,0,3.4-1.76,3.4-1.76l0.99,0.99c0,0-1.54,2.2-4.39,2.2
		c-2.85,0-5.27-2.41-5.27-5.49c0-3.07,2.42-5.49,5.16-5.49c2.85,0,5.05,2.2,5.05,5.27c0,0.44-0.11,0.79-0.11,0.79L429.69,10.65z
		 M429.69,9.33h7.14c-0.22-1.87-1.65-3.29-3.51-3.29S429.91,7.57,429.69,9.33z"/>
	<path class="st0" d="M442.65,13.39c0.66,0,1.1,0.44,1.1,1.1s-0.44,1.1-1.1,1.1c-0.66,0-1.1-0.44-1.1-1.1S441.99,13.39,442.65,13.39
		z"/>
	<path class="st0" d="M2.29,45.38V30.01h1.65v13.83h7.9v1.54H2.29z"/>
	<path class="st0" d="M15.57,40.66c0.11,1.87,1.76,3.51,3.73,3.51c2.22,0,3.4-1.76,3.4-1.76l0.99,0.99c0,0-1.54,2.2-4.39,2.2
		s-5.27-2.41-5.27-5.49c0-3.07,2.42-5.49,5.16-5.49c2.85,0,5.05,2.2,5.05,5.27c0,0.44-0.11,0.79-0.11,0.79L15.57,40.66z
		 M15.57,39.34h7.14c-0.22-1.87-1.65-3.29-3.51-3.29S15.79,37.58,15.57,39.34z"/>
	<path class="st0" d="M28.85,31.32h1.43v3.51h2.31v1.43h-2.31v6.26c0,1.1,0.55,1.65,1.43,1.65c0.77,0,1.43-0.33,1.43-0.33v1.43
		c0,0-0.66,0.33-1.49,0.33c-1.8,0-2.9-1.1-2.9-3.07v-6.26h-1.98v-1.43h1.21c0.55,0,0.88-0.33,0.88-1.1V31.32z"/>
	<path class="st0" d="M44.54,45.38l-4.28-10.54h1.65l3.4,8.56l3.4-8.56h1.65l-4.83,12.08c-0.88,2.2-1.76,3.07-3.29,3.07
		c-0.77,0-1.32-0.22-1.32-0.22v-1.43c0,0,0.55,0.22,1.1,0.22c0.99,0,1.58-0.55,1.98-1.65L44.54,45.38z"/>
	<path class="st0" d="M57.94,34.62c2.96,0,5.38,2.41,5.38,5.49c0,3.07-2.42,5.49-5.38,5.49c-2.96,0-5.38-2.41-5.38-5.49
		C52.56,37.03,54.97,34.62,57.94,34.62z M57.94,36.04c-2.09,0-3.84,1.76-3.84,4.06c0,2.28,1.76,4.06,3.84,4.06
		c2.09,0,3.84-1.76,3.84-4.06C61.78,37.8,60.02,36.04,57.94,36.04z"/>
	<path class="st0" d="M74.62,43.95c0,0-1.1,1.65-3.4,1.65c-2.41,0-4.28-1.87-4.28-4.61v-6.15h1.54v6.15c0,1.87,1.32,3.18,2.96,3.18
		c1.76,0,3.18-1.43,3.18-3.51v-5.82h1.54v10.54h-1.54V43.95z"/>
	<path class="st0" d="M86.15,36.15h-0.66c-1.76,0-3.29,1.32-3.29,3.4v5.82h-1.54V34.84h1.54v1.43c0,0,1.1-1.65,3.51-1.65h0.44V36.15
		z"/>
	<path class="st0" d="M99.43,37.14c0,0-0.77-1.1-2.3-1.1c-1.21,0-1.98,0.77-1.98,1.54c0,2.31,5.71,1.1,5.71,4.83
		c0,1.76-1.43,3.18-3.84,3.18c-2.63,0-3.84-1.87-3.84-1.87l1.1-1.1c0,0,0.99,1.54,2.74,1.54c1.54,0,2.31-0.77,2.31-1.76
		c0-2.41-5.71-1.21-5.71-4.83c0-1.54,1.43-2.96,3.51-2.96c2.2,0,3.4,1.43,3.4,1.43L99.43,37.14z"/>
	<path class="st0" d="M105.24,40.66c0.11,1.87,1.76,3.51,3.73,3.51c2.22,0,3.4-1.76,3.4-1.76l0.99,0.99c0,0-1.54,2.2-4.39,2.2
		s-5.27-2.41-5.27-5.49c0-3.07,2.42-5.49,5.16-5.49c2.85,0,5.05,2.2,5.05,5.27c0,0.44-0.11,0.79-0.11,0.79L105.24,40.66z
		 M105.24,39.34h7.14c-0.22-1.87-1.65-3.29-3.51-3.29C107,36.04,105.46,37.58,105.24,39.34z"/>
	<path class="st0" d="M119.07,36.37c0,0,1.1-1.76,3.4-1.76c2.52,0,4.28,1.76,4.28,4.5v6.26h-1.54v-6.26c0-1.87-1.21-3.07-2.85-3.07
		c-1.87,0-3.29,1.43-3.29,3.51v5.82h-1.54V34.84h1.54V36.37z"/>
	<path class="st0" d="M136.42,37.14c0,0-0.77-1.1-2.3-1.1c-1.21,0-1.98,0.77-1.98,1.54c0,2.31,5.71,1.1,5.71,4.83
		c0,1.76-1.43,3.18-3.84,3.18c-2.63,0-3.84-1.87-3.84-1.87l1.1-1.1c0,0,0.99,1.54,2.75,1.54c1.54,0,2.31-0.77,2.31-1.76
		c0-2.41-5.71-1.21-5.71-4.83c0-1.54,1.43-2.96,3.51-2.96c2.2,0,3.4,1.43,3.4,1.43L136.42,37.14z"/>
	<path class="st0" d="M142.23,30.34c0.55,0,0.99,0.44,0.99,0.99c0,0.55-0.44,0.99-0.99,0.99c-0.55,0-0.99-0.44-0.99-0.99
		C141.25,30.78,141.68,30.34,142.23,30.34z M141.47,34.84H143v10.54h-1.54V34.84z"/>
	<path class="st0" d="M148.38,31.32h1.43v3.51h2.31v1.43h-2.31v6.26c0,1.1,0.55,1.65,1.43,1.65c0.77,0,1.43-0.33,1.43-0.33v1.43
		c0,0-0.66,0.33-1.49,0.33c-1.8,0-2.9-1.1-2.9-3.07v-6.26h-1.98v-1.43h1.21c0.55,0,0.88-0.33,0.88-1.1V31.32z"/>
	<path class="st0" d="M156.94,30.34c0.55,0,0.99,0.44,0.99,0.99c0,0.55-0.44,0.99-0.99,0.99c-0.55,0-0.99-0.44-0.99-0.99
		C155.95,30.78,156.39,30.34,156.94,30.34z M156.17,34.84h1.54v10.54h-1.54V34.84z"/>
	<path class="st0" d="M164.95,45.38l-4.28-10.54h1.65l3.4,8.45l3.4-8.45h1.65l-4.28,10.54H164.95z"/>
	<path class="st0" d="M174.5,30.34c0.55,0,0.99,0.44,0.99,0.99c0,0.55-0.44,0.99-0.99,0.99c-0.55,0-0.99-0.44-0.99-0.99
		C173.51,30.78,173.95,30.34,174.5,30.34z M173.73,34.84h1.54v10.54h-1.54V34.84z"/>
	<path class="st0" d="M180.65,31.32h1.43v3.51h2.31v1.43h-2.31v6.26c0,1.1,0.55,1.65,1.43,1.65c0.77,0,1.43-0.33,1.43-0.33v1.43
		c0,0-0.66,0.33-1.49,0.33c-1.8,0-2.9-1.1-2.9-3.07v-6.26h-1.98v-1.43h1.21c0.55,0,0.88-0.33,0.88-1.1V31.32z"/>
	<path class="st0" d="M191.3,45.38l-4.28-10.54h1.65l3.4,8.56l3.4-8.56h1.65l-4.83,12.08c-0.88,2.2-1.76,3.07-3.29,3.07
		c-0.77,0-1.32-0.22-1.32-0.22v-1.43c0,0,0.55,0.22,1.1,0.22c0.99,0,1.58-0.55,1.98-1.65L191.3,45.38z"/>
	<path class="st0" d="M212.04,34.84l2.63,8.12l2.74-8.12h1.65l-3.62,10.54h-1.43l-2.63-8.01l-2.63,8.01h-1.43l-3.62-10.54h1.65
		l2.75,8.12l2.63-8.12H212.04z"/>
	<path class="st0" d="M223.68,36.37c0,0,1.1-1.76,3.4-1.76c2.52,0,4.28,1.76,4.28,4.5v6.26h-1.54v-6.26c0-1.87-1.21-3.07-2.85-3.07
		c-1.87,0-3.29,1.43-3.29,3.51v5.82h-1.54V30.01h1.54V36.37z"/>
	<path class="st0" d="M236.52,40.66c0.11,1.87,1.76,3.51,3.73,3.51c2.22,0,3.4-1.76,3.4-1.76l0.99,0.99c0,0-1.54,2.2-4.39,2.2
		c-2.85,0-5.27-2.41-5.27-5.49c0-3.07,2.42-5.49,5.16-5.49c2.85,0,5.05,2.2,5.05,5.27c0,0.44-0.11,0.79-0.11,0.79L236.52,40.66z
		 M236.52,39.34h7.14c-0.22-1.87-1.65-3.29-3.51-3.29S236.74,37.58,236.52,39.34z"/>
	<path class="st0" d="M254.3,36.15h-0.66c-1.76,0-3.29,1.32-3.29,3.4v5.82h-1.54V34.84h1.54v1.43c0,0,1.1-1.65,3.51-1.65h0.44V36.15
		z"/>
	<path class="st0" d="M258.03,40.66c0.11,1.87,1.76,3.51,3.73,3.51c2.22,0,3.4-1.76,3.4-1.76l0.99,0.99c0,0-1.54,2.2-4.39,2.2
		c-2.85,0-5.27-2.41-5.27-5.49c0-3.07,2.42-5.49,5.16-5.49c2.85,0,5.05,2.2,5.05,5.27c0,0.44-0.11,0.79-0.11,0.79L258.03,40.66z
		 M258.03,39.34h7.14c-0.22-1.87-1.65-3.29-3.51-3.29S258.25,37.58,258.03,39.34z"/>
	<path class="st0" d="M273.18,45.38l-4.28-10.54h1.65l3.4,8.45l3.4-8.45H279l-4.28,10.54H273.18z"/>
	<path class="st0" d="M282.73,40.66c0.11,1.87,1.76,3.51,3.73,3.51c2.22,0,3.4-1.76,3.4-1.76l0.99,0.99c0,0-1.54,2.2-4.39,2.2
		s-5.27-2.41-5.27-5.49c0-3.07,2.42-5.49,5.16-5.49c2.85,0,5.05,2.2,5.05,5.27c0,0.44-0.11,0.79-0.11,0.79L282.73,40.66z
		 M282.73,39.34h7.14c-0.22-1.87-1.65-3.29-3.51-3.29S282.95,37.58,282.73,39.34z"/>
	<path class="st0" d="M300.51,36.15h-0.66c-1.76,0-3.29,1.32-3.29,3.4v5.82h-1.54V34.84h1.54v1.43c0,0,1.1-1.65,3.51-1.65h0.44
		V36.15z"/>
	<path class="st0" d="M311.38,45.38l-4.28-10.54h1.65l3.4,8.56l3.4-8.56h1.65l-4.83,12.08c-0.88,2.2-1.76,3.07-3.29,3.07
		c-0.77,0-1.32-0.22-1.32-0.22v-1.43c0,0,0.55,0.22,1.1,0.22c0.99,0,1.58-0.55,1.98-1.65L311.38,45.38z"/>
	<path class="st0" d="M324.77,34.62c2.96,0,5.38,2.41,5.38,5.49c0,3.07-2.42,5.49-5.38,5.49c-2.96,0-5.38-2.41-5.38-5.49
		C319.39,37.03,321.8,34.62,324.77,34.62z M324.77,36.04c-2.09,0-3.84,1.76-3.84,4.06c0,2.28,1.76,4.06,3.84,4.06
		c2.09,0,3.84-1.76,3.84-4.06C328.61,37.8,326.85,36.04,324.77,36.04z"/>
	<path class="st0" d="M341.45,43.95c0,0-1.1,1.65-3.4,1.65c-2.41,0-4.28-1.87-4.28-4.61v-6.15h1.54v6.15c0,1.87,1.32,3.18,2.96,3.18
		c1.76,0,3.18-1.43,3.18-3.51v-5.82h1.54v10.54h-1.54V43.95z"/>
	<path class="st0" d="M352.98,36.15h-0.66c-1.76,0-3.29,1.32-3.29,3.4v5.82h-1.54V34.84h1.54v1.43c0,0,1.1-1.65,3.51-1.65h0.44
		V36.15z"/>
	<path class="st0" d="M362.63,36.37c0,0,1.1-1.76,3.4-1.76c2.52,0,4.28,1.76,4.28,4.5v6.26h-1.54v-6.26c0-1.87-1.21-3.07-2.85-3.07
		c-1.87,0-3.29,1.43-3.29,3.51v5.82h-1.54V30.01h1.54V36.37z"/>
	<path class="st0" d="M381.07,38.68c0-1.54-1.1-2.63-2.63-2.63c-1.87,0-2.96,1.54-2.96,1.54l-0.99-0.99c0,0,1.43-1.98,3.95-1.98
		c2.42,0,4.17,1.76,4.17,4.06v6.7h-1.54v-1.43c0,0-1.1,1.65-3.4,1.65c-2.2,0-3.73-1.54-3.73-3.07c0-1.76,1.1-2.85,3.07-3.18
		L381.07,38.68z M381.07,40.66V40l-3.62,0.66c-1.32,0.24-1.98,0.88-1.98,1.87c0,0.88,0.77,1.65,2.2,1.65
		C379.65,44.17,381.07,42.74,381.07,40.66z"/>
	<path class="st0" d="M392.49,36.15h-0.66c-1.76,0-3.29,1.32-3.29,3.4v5.82H387V34.84h1.54v1.43c0,0,1.1-1.65,3.51-1.65h0.44V36.15z
		"/>
	<path class="st0" d="M396.44,31.32h1.43v3.51h2.31v1.43h-2.31v6.26c0,1.1,0.55,1.65,1.43,1.65c0.77,0,1.43-0.33,1.43-0.33v1.43
		c0,0-0.66,0.33-1.49,0.33c-1.8,0-2.9-1.1-2.9-3.07v-6.26h-1.98v-1.43h1.21c0.55,0,0.88-0.33,0.88-1.1V31.32z"/>
	<path class="st0" d="M410.27,31.32h1.43v3.51H414v1.43h-2.31v6.26c0,1.1,0.55,1.65,1.43,1.65c0.77,0,1.43-0.33,1.43-0.33v1.43
		c0,0-0.66,0.33-1.49,0.33c-1.8,0-2.9-1.1-2.9-3.07v-6.26h-1.98v-1.43h1.21c0.55,0,0.88-0.33,0.88-1.1V31.32z"/>
	<path class="st0" d="M424.43,38.68c0-1.54-1.1-2.63-2.63-2.63c-1.87,0-2.96,1.54-2.96,1.54l-0.99-0.99c0,0,1.43-1.98,3.95-1.98
		c2.42,0,4.17,1.76,4.17,4.06v6.7h-1.54v-1.43c0,0-1.1,1.65-3.4,1.65c-2.2,0-3.73-1.54-3.73-3.07c0-1.76,1.1-2.85,3.07-3.18
		L424.43,38.68z M424.43,40.66V40l-3.62,0.66c-1.32,0.24-1.98,0.88-1.98,1.87c0,0.88,0.77,1.65,2.2,1.65
		C423,44.17,424.43,42.74,424.43,40.66z"/>
	<path class="st0" d="M432,45.38h-1.54V30.01H432v10.43l5.27-5.6h1.87l-4.06,4.28l4.5,6.26h-1.76l-3.73-5.16l-2.09,2.2V45.38z"/>
	<path class="st0" d="M443.2,40.66c0.11,1.87,1.76,3.51,3.73,3.51c2.22,0,3.4-1.76,3.4-1.76l0.99,0.99c0,0-1.54,2.2-4.39,2.2
		s-5.27-2.41-5.27-5.49c0-3.07,2.42-5.49,5.16-5.49c2.85,0,5.05,2.2,5.05,5.27c0,0.44-0.11,0.79-0.11,0.79L443.2,40.66z
		 M443.2,39.34h7.14c-0.22-1.87-1.65-3.29-3.51-3.29S443.42,37.58,443.2,39.34z"/>
	<path class="st0" d="M460.76,37.14c0,0-0.77-1.1-2.3-1.1c-1.21,0-1.98,0.77-1.98,1.54c0,2.31,5.71,1.1,5.71,4.83
		c0,1.76-1.43,3.18-3.84,3.18c-2.63,0-3.84-1.87-3.84-1.87l1.1-1.1c0,0,0.99,1.54,2.74,1.54c1.54,0,2.31-0.77,2.31-1.76
		c0-2.41-5.71-1.21-5.71-4.83c0-1.54,1.43-2.96,3.51-2.96c2.2,0,3.4,1.43,3.4,1.43L460.76,37.14z"/>
	<path class="st0" d="M473.71,45.38l-4.28-10.54h1.65l3.4,8.56l3.4-8.56h1.65l-4.83,12.08c-0.88,2.2-1.76,3.07-3.29,3.07
		c-0.77,0-1.32-0.22-1.32-0.22v-1.43c0,0,0.55,0.22,1.1,0.22c0.99,0,1.58-0.55,1.98-1.65L473.71,45.38z"/>
	<path class="st0" d="M487.1,34.62c2.96,0,5.38,2.41,5.38,5.49c0,3.07-2.42,5.49-5.38,5.49c-2.96,0-5.38-2.41-5.38-5.49
		C481.72,37.03,484.14,34.62,487.1,34.62z M487.1,36.04c-2.09,0-3.84,1.76-3.84,4.06c0,2.28,1.76,4.06,3.84,4.06
		c2.09,0,3.84-1.76,3.84-4.06C490.95,37.8,489.19,36.04,487.1,36.04z"/>
	<path class="st0" d="M503.79,43.95c0,0-1.1,1.65-3.4,1.65c-2.41,0-4.28-1.87-4.28-4.61v-6.15h1.54v6.15c0,1.87,1.32,3.18,2.96,3.18
		c1.76,0,3.18-1.43,3.18-3.51v-5.82h1.54v10.54h-1.54V43.95z"/>
	<path class="st0" d="M510.48,43.4c0.66,0,1.1,0.44,1.1,1.1c0,0.66-0.44,1.1-1.1,1.1c-0.66,0-1.1-0.44-1.1-1.1
		C509.38,43.84,509.82,43.4,510.48,43.4z"/>
	<path class="st0" d="M12.71,60.01v1.54H3.93v5.27h7.03v1.54H3.93v7.03H2.29V60.01H12.71z"/>
	<path class="st0" d="M16.77,60.34c0.55,0,0.99,0.44,0.99,0.99s-0.44,0.99-0.99,0.99c-0.55,0-0.99-0.44-0.99-0.99
		S16.22,60.34,16.77,60.34z M16.01,64.84h1.54v10.54h-1.54V64.84z"/>
	<path class="st0" d="M23.47,66.38c0,0,1.1-1.76,3.4-1.76c2.52,0,4.28,1.76,4.28,4.5v6.26h-1.54v-6.26c0-1.87-1.21-3.07-2.85-3.07
		c-1.87,0-3.29,1.43-3.29,3.51v5.82h-1.54V64.84h1.54V66.38z"/>
	<path class="st0" d="M43.56,60.01h1.54v15.37h-1.54v-1.65c0,0-1.32,1.87-3.73,1.87c-2.63,0-5.05-2.41-5.05-5.49
		c0-3.07,2.42-5.49,5.05-5.49c2.42,0,3.73,1.87,3.73,1.87V60.01z M39.82,66.05c-1.76,0-3.51,1.76-3.51,4.06
		c0,2.31,1.76,4.06,3.51,4.06c1.87,0,3.73-1.87,3.73-4.06C43.56,67.92,41.69,66.05,39.82,66.05z"/>
	<path class="st0" d="M56.29,66.38c0,0,1.1-1.76,3.4-1.76c2.52,0,4.28,1.76,4.28,4.5v6.26h-1.54v-6.26c0-1.87-1.21-3.07-2.85-3.07
		c-1.87,0-3.29,1.43-3.29,3.51v5.82h-1.54V60.01h1.54V66.38z"/>
	<path class="st0" d="M69.13,60.34c0.55,0,0.99,0.44,0.99,0.99s-0.44,0.99-0.99,0.99c-0.55,0-0.99-0.44-0.99-0.99
		S68.58,60.34,69.13,60.34z M68.36,64.84h1.54v10.54h-1.54V64.84z"/>
	<path class="st0" d="M82.3,60.01h1.54v15.37H82.3v-1.65c0,0-1.32,1.87-3.73,1.87c-2.63,0-5.05-2.41-5.05-5.49
		c0-3.07,2.42-5.49,5.05-5.49c2.42,0,3.73,1.87,3.73,1.87V60.01z M78.57,66.05c-1.76,0-3.51,1.76-3.51,4.06
		c0,2.31,1.76,4.06,3.51,4.06c1.87,0,3.73-1.87,3.73-4.06C82.3,67.92,80.44,66.05,78.57,66.05z"/>
	<path class="st0" d="M96.35,60.01h1.54v15.37h-1.54v-1.65c0,0-1.32,1.87-3.73,1.87c-2.63,0-5.05-2.41-5.05-5.49
		c0-3.07,2.42-5.49,5.05-5.49c2.42,0,3.73,1.87,3.73,1.87V60.01z M92.62,66.05c-1.76,0-3.51,1.76-3.51,4.06
		c0,2.31,1.76,4.06,3.51,4.06c1.87,0,3.73-1.87,3.73-4.06C96.35,67.92,94.49,66.05,92.62,66.05z"/>
	<path class="st0" d="M103.16,70.66c0.11,1.87,1.76,3.51,3.73,3.51c2.22,0,3.4-1.76,3.4-1.76l0.99,0.99c0,0-1.54,2.2-4.39,2.2
		s-5.27-2.41-5.27-5.49c0-3.07,2.42-5.49,5.16-5.49c2.85,0,5.05,2.2,5.05,5.27c0,0.44-0.11,0.79-0.11,0.79L103.16,70.66z
		 M103.16,69.34h7.14c-0.22-1.87-1.65-3.29-3.51-3.29S103.38,67.59,103.16,69.34z"/>
	<path class="st0" d="M116.99,66.38c0,0,1.1-1.76,3.4-1.76c2.52,0,4.28,1.76,4.28,4.5v6.26h-1.54v-6.26c0-1.87-1.21-3.07-2.85-3.07
		c-1.87,0-3.29,1.43-3.29,3.51v5.82h-1.54V64.84h1.54V66.38z"/>
	<path class="st0" d="M136.96,75.38l-4.28-10.54h1.65l3.4,8.56l3.4-8.56h1.65l-4.83,12.08c-0.88,2.2-1.76,3.07-3.29,3.07
		c-0.77,0-1.32-0.22-1.32-0.22v-1.43c0,0,0.55,0.22,1.1,0.22c0.99,0,1.58-0.55,1.98-1.65L136.96,75.38z"/>
	<path class="st0" d="M150.36,64.62c2.96,0,5.38,2.41,5.38,5.49c0,3.07-2.42,5.49-5.38,5.49c-2.96,0-5.38-2.41-5.38-5.49
		C144.98,67.04,147.39,64.62,150.36,64.62z M150.36,66.05c-2.09,0-3.84,1.76-3.84,4.06c0,2.28,1.76,4.06,3.84,4.06
		c2.09,0,3.84-1.76,3.84-4.06C154.2,67.81,152.44,66.05,150.36,66.05z"/>
	<path class="st0" d="M167.04,73.95c0,0-1.1,1.65-3.4,1.65c-2.41,0-4.28-1.87-4.28-4.61v-6.15h1.54v6.15c0,1.87,1.32,3.18,2.96,3.18
		c1.76,0,3.18-1.43,3.18-3.51v-5.82h1.54v10.54h-1.54V73.95z"/>
	<path class="st0" d="M178.57,66.16h-0.66c-1.76,0-3.29,1.32-3.29,3.4v5.82h-1.54V64.84h1.54v1.43c0,0,1.1-1.65,3.51-1.65h0.44
		V66.16z"/>
	<path class="st0" d="M191.19,64.62c2.96,0,5.38,2.41,5.38,5.49c0,3.07-2.42,5.49-5.38,5.49c-2.96,0-5.38-2.41-5.38-5.49
		C185.81,67.04,188.22,64.62,191.19,64.62z M191.19,66.05c-2.09,0-3.84,1.76-3.84,4.06c0,2.28,1.76,4.06,3.84,4.06
		c2.09,0,3.84-1.76,3.84-4.06C195.03,67.81,193.27,66.05,191.19,66.05z"/>
	<path class="st0" d="M207.1,64.84l2.63,8.12l2.74-8.12h1.65l-3.62,10.54h-1.43l-2.63-8.01l-2.63,8.01h-1.43l-3.62-10.54h1.65
		l2.75,8.12l2.63-8.12H207.1z"/>
	<path class="st0" d="M218.63,66.38c0,0,1.1-1.76,3.4-1.76c2.52,0,4.28,1.76,4.28,4.5v6.26h-1.54v-6.26c0-1.87-1.21-3.07-2.85-3.07
		c-1.87,0-3.29,1.43-3.29,3.51v5.82h-1.54V64.84h1.54V66.38z"/>
	<path class="st0" d="M237.4,66.49c0,0,1.32-1.87,3.73-1.87c2.63,0,5.05,2.41,5.05,5.49c0,3.07-2.41,5.49-5.05,5.49
		c-2.41,0-3.73-1.87-3.73-1.87v1.65h-1.54V60.01h1.54V66.49z M241.13,74.17c1.76,0,3.51-1.76,3.51-4.06c0-2.3-1.76-4.06-3.51-4.06
		c-1.87,0-3.73,1.87-3.73,4.06C237.4,72.31,239.26,74.17,241.13,74.17z"/>
	<path class="st0" d="M250.57,70.66c0.11,1.87,1.76,3.51,3.73,3.51c2.22,0,3.4-1.76,3.4-1.76l0.99,0.99c0,0-1.54,2.2-4.39,2.2
		s-5.27-2.41-5.27-5.49c0-3.07,2.42-5.49,5.16-5.49c2.85,0,5.05,2.2,5.05,5.27c0,0.44-0.11,0.79-0.11,0.79L250.57,70.66z
		 M250.57,69.34h7.14c-0.22-1.87-1.65-3.29-3.51-3.29S250.79,67.59,250.57,69.34z"/>
	<path class="st0" d="M269.23,68.69c0-1.54-1.1-2.63-2.63-2.63c-1.87,0-2.96,1.54-2.96,1.54l-0.99-0.99c0,0,1.43-1.98,3.95-1.98
		c2.42,0,4.17,1.76,4.17,4.06v6.7h-1.54v-1.43c0,0-1.1,1.65-3.4,1.65c-2.2,0-3.73-1.54-3.73-3.07c0-1.76,1.1-2.85,3.07-3.18
		L269.23,68.69z M269.23,70.66V70l-3.62,0.66c-1.32,0.24-1.98,0.88-1.98,1.87c0,0.88,0.77,1.65,2.2,1.65
		C267.8,74.17,269.23,72.75,269.23,70.66z"/>
	<path class="st0" d="M282.84,73.95c0,0-1.1,1.65-3.4,1.65c-2.41,0-4.28-1.87-4.28-4.61v-6.15h1.54v6.15c0,1.87,1.32,3.18,2.96,3.18
		c1.76,0,3.18-1.43,3.18-3.51v-5.82h1.54v10.54h-1.54V73.95z"/>
	<path class="st0" d="M289.86,61.33h1.43v3.51h2.31v1.43h-2.31v6.26c0,1.1,0.55,1.65,1.43,1.65c0.77,0,1.43-0.33,1.43-0.33v1.43
		c0,0-0.66,0.33-1.49,0.33c-1.8,0-2.9-1.1-2.9-3.07v-6.26h-1.98v-1.43h1.21c0.55,0,0.88-0.33,0.88-1.1V61.33z"/>
	<path class="st0" d="M300.51,75.38l-4.28-10.54h1.65l3.4,8.56l3.4-8.56h1.65l-4.83,12.08c-0.88,2.2-1.76,3.07-3.29,3.07
		c-0.77,0-1.32-0.22-1.32-0.22v-1.43c0,0,0.55,0.22,1.1,0.22c0.99,0,1.58-0.55,1.98-1.65L300.51,75.38z"/>
	<path class="st0" d="M321.25,64.84l2.63,8.12l2.74-8.12h1.65l-3.62,10.54h-1.43l-2.63-8.01l-2.63,8.01h-1.43l-3.62-10.54h1.65
		l2.75,8.12l2.63-8.12H321.25z"/>
	<path class="st0" d="M332.01,60.34c0.55,0,0.99,0.44,0.99,0.99s-0.44,0.99-0.99,0.99c-0.55,0-0.99-0.44-0.99-0.99
		S331.46,60.34,332.01,60.34z M331.24,64.84h1.54v10.54h-1.54V64.84z"/>
	<path class="st0" d="M338.16,61.33h1.43v3.51h2.31v1.43h-2.31v6.26c0,1.1,0.55,1.65,1.43,1.65c0.77,0,1.43-0.33,1.43-0.33v1.43
		c0,0-0.66,0.33-1.49,0.33c-1.8,0-2.9-1.1-2.9-3.07v-6.26h-1.98v-1.43h1.21c0.55,0,0.88-0.33,0.88-1.1V61.33z"/>
	<path class="st0" d="M347.6,66.38c0,0,1.1-1.76,3.4-1.76c2.52,0,4.28,1.76,4.28,4.5v6.26h-1.54v-6.26c0-1.87-1.21-3.07-2.85-3.07
		c-1.87,0-3.29,1.43-3.29,3.51v5.82h-1.54V60.01h1.54V66.38z"/>
	<path class="st0" d="M360.44,60.34c0.55,0,0.99,0.44,0.99,0.99s-0.44,0.99-0.99,0.99c-0.55,0-0.99-0.44-0.99-0.99
		S359.89,60.34,360.44,60.34z M359.67,64.84h1.54v10.54h-1.54V64.84z"/>
	<path class="st0" d="M367.13,66.38c0,0,1.1-1.76,3.4-1.76c2.52,0,4.28,1.76,4.28,4.5v6.26h-1.54v-6.26c0-1.87-1.21-3.07-2.85-3.07
		c-1.87,0-3.29,1.43-3.29,3.51v5.82h-1.54V64.84h1.54V66.38z"/>
	<path class="st0" d="M387.11,75.38l-4.28-10.54h1.65l3.4,8.56l3.4-8.56h1.65l-4.83,12.08c-0.88,2.2-1.76,3.07-3.29,3.07
		c-0.77,0-1.32-0.22-1.32-0.22v-1.43c0,0,0.55,0.22,1.1,0.22c0.99,0,1.58-0.55,1.98-1.65L387.11,75.38z"/>
	<path class="st0" d="M400.5,64.62c2.96,0,5.38,2.41,5.38,5.49c0,3.07-2.42,5.49-5.38,5.49c-2.96,0-5.38-2.41-5.38-5.49
		C395.12,67.04,397.54,64.62,400.5,64.62z M400.5,66.05c-2.09,0-3.84,1.76-3.84,4.06c0,2.28,1.76,4.06,3.84,4.06
		c2.09,0,3.84-1.76,3.84-4.06C404.34,67.81,402.59,66.05,400.5,66.05z"/>
	<path class="st0" d="M417.18,73.95c0,0-1.1,1.65-3.4,1.65c-2.41,0-4.28-1.87-4.28-4.61v-6.15h1.54v6.15c0,1.87,1.32,3.18,2.96,3.18
		c1.76,0,3.18-1.43,3.18-3.51v-5.82h1.54v10.54h-1.54V73.95z"/>
	<path class="st0" d="M428.71,66.16h-0.66c-1.76,0-3.29,1.32-3.29,3.4v5.82h-1.54V64.84h1.54v1.43c0,0,1.1-1.65,3.51-1.65h0.44
		V66.16z"/>
	<path class="st0" d="M436.94,67.15c0,0-0.77-1.1-2.3-1.1c-1.21,0-1.98,0.77-1.98,1.54c0,2.31,5.71,1.1,5.71,4.83
		c0,1.76-1.43,3.18-3.84,3.18c-2.63,0-3.84-1.87-3.84-1.87l1.1-1.1c0,0,0.99,1.54,2.74,1.54c1.54,0,2.31-0.77,2.31-1.76
		c0-2.41-5.71-1.21-5.71-4.83c0-1.54,1.43-2.96,3.51-2.96c2.2,0,3.4,1.43,3.4,1.43L436.94,67.15z"/>
	<path class="st0" d="M442.76,70.66c0.11,1.87,1.76,3.51,3.73,3.51c2.22,0,3.4-1.76,3.4-1.76l0.99,0.99c0,0-1.54,2.2-4.39,2.2
		s-5.27-2.41-5.27-5.49c0-3.07,2.42-5.49,5.16-5.49c2.85,0,5.05,2.2,5.05,5.27c0,0.44-0.11,0.79-0.11,0.79L442.76,70.66z
		 M442.76,69.34h7.14c-0.22-1.87-1.65-3.29-3.51-3.29S442.98,67.59,442.76,69.34z"/>
	<path class="st0" d="M456.7,75.38h-1.54V60.01h1.54V75.38z"/>
	<path class="st0" d="M465.81,66.27h-2.52v9.11h-1.54v-9.11h-1.65v-1.43h1.65v-1.98c0-1.98,1.1-3.07,2.85-3.07
		c0.88,0,1.54,0.33,1.54,0.33v1.43c0,0-0.66-0.33-1.43-0.33c-0.88,0-1.43,0.55-1.43,1.65v1.98h2.52V66.27z"/>
	<path class="st0" d="M469.76,73.41c0.66,0,1.1,0.44,1.1,1.1s-0.44,1.1-1.1,1.1s-1.1-0.44-1.1-1.1S469.1,73.41,469.76,73.41z"/>
	<path class="st0" d="M10.08,101l-6.15-8.12v12.51H2.29V90.02h1.43l6.37,8.34l6.37-8.34h1.43v15.37h-1.65V92.87L10.08,101z"/>
	<path class="st0" d="M23.47,100.67c0.11,1.87,1.76,3.51,3.73,3.51c2.22,0,3.4-1.76,3.4-1.76l0.99,0.99c0,0-1.54,2.2-4.39,2.2
		s-5.27-2.41-5.27-5.49c0-3.07,2.42-5.49,5.16-5.49c2.85,0,5.05,2.2,5.05,5.27c0,0.44-0.11,0.79-0.11,0.79L23.47,100.67z
		 M23.47,99.35h7.14c-0.22-1.87-1.65-3.29-3.51-3.29C25.23,96.06,23.69,97.59,23.47,99.35z"/>
	<path class="st0" d="M36.53,100.67c0.11,1.87,1.76,3.51,3.73,3.51c2.22,0,3.4-1.76,3.4-1.76l0.99,0.99c0,0-1.54,2.2-4.39,2.2
		s-5.27-2.41-5.27-5.49c0-3.07,2.42-5.49,5.16-5.49c2.85,0,5.05,2.2,5.05,5.27c0,0.44-0.11,0.79-0.11,0.79L36.53,100.67z
		 M36.53,99.35h7.14c-0.22-1.87-1.65-3.29-3.51-3.29C38.29,96.06,36.75,97.59,36.53,99.35z"/>
	<path class="st0" d="M49.81,91.34h1.43v3.51h2.31v1.43h-2.31v6.26c0,1.1,0.55,1.65,1.43,1.65c0.77,0,1.43-0.33,1.43-0.33v1.43
		c0,0-0.66,0.33-1.49,0.33c-1.8,0-2.9-1.1-2.9-3.07v-6.26h-1.98v-1.43h1.21c0.55,0,0.88-0.33,0.88-1.1V91.34z"/>
	<path class="st0" d="M69.02,98.69c0-1.54-1.1-2.63-2.63-2.63c-1.87,0-2.96,1.54-2.96,1.54l-0.99-0.99c0,0,1.43-1.98,3.95-1.98
		c2.42,0,4.17,1.76,4.17,4.06v6.7h-1.54v-1.43c0,0-1.1,1.65-3.4,1.65c-2.2,0-3.73-1.54-3.73-3.07c0-1.76,1.1-2.85,3.07-3.18
		L69.02,98.69z M69.02,100.67v-0.66l-3.62,0.66c-1.32,0.24-1.98,0.88-1.98,1.87c0,0.88,0.77,1.65,2.2,1.65
		C67.6,104.18,69.02,102.75,69.02,100.67z"/>
	<path class="st0" d="M81.53,96.39c0,0,1.1-1.76,3.4-1.76c2.52,0,4.28,1.76,4.28,4.5v6.26h-1.54v-6.26c0-1.87-1.21-3.07-2.85-3.07
		c-1.87,0-3.29,1.43-3.29,3.51v5.82H80V94.85h1.54V96.39z"/>
	<path class="st0" d="M94.38,100.67c0.11,1.87,1.76,3.51,3.73,3.51c2.22,0,3.4-1.76,3.4-1.76l0.99,0.99c0,0-1.54,2.2-4.39,2.2
		s-5.27-2.41-5.27-5.49c0-3.07,2.42-5.49,5.16-5.49c2.85,0,5.05,2.2,5.05,5.27c0,0.44-0.11,0.79-0.11,0.79L94.38,100.67z
		 M94.38,99.35h7.14c-0.22-1.87-1.65-3.29-3.51-3.29S94.6,97.59,94.38,99.35z"/>
	<path class="st0" d="M113.59,94.85l2.63,8.12l2.74-8.12h1.65l-3.62,10.54h-1.43l-2.63-8.01l-2.63,8.01h-1.43l-3.62-10.54h1.65
		l2.75,8.12l2.63-8.12H113.59z"/>
	<path class="st0" d="M131.48,105.39l-4.28-10.54h1.65l3.4,8.56l3.4-8.56h1.65l-4.83,12.08c-0.88,2.2-1.76,3.07-3.29,3.07
		c-0.77,0-1.32-0.22-1.32-0.22v-1.43c0,0,0.55,0.22,1.1,0.22c0.99,0,1.58-0.55,1.98-1.65L131.48,105.39z"/>
	<path class="st0" d="M144.87,94.63c2.96,0,5.38,2.41,5.38,5.49c0,3.07-2.42,5.49-5.38,5.49c-2.96,0-5.38-2.41-5.38-5.49
		C139.49,97.05,141.9,94.63,144.87,94.63z M144.87,96.06c-2.09,0-3.84,1.76-3.84,4.06c0,2.28,1.76,4.06,3.84,4.06
		c2.09,0,3.84-1.76,3.84-4.06C148.71,97.81,146.95,96.06,144.87,96.06z"/>
	<path class="st0" d="M161.55,103.96c0,0-1.1,1.65-3.4,1.65c-2.41,0-4.28-1.87-4.28-4.61v-6.15h1.54V101c0,1.87,1.32,3.18,2.96,3.18
		c1.76,0,3.18-1.43,3.18-3.51v-5.82h1.54v10.54h-1.54V103.96z"/>
	<path class="st0" d="M179.55,94.85l2.63,8.12l2.74-8.12h1.65l-3.62,10.54h-1.43l-2.63-8.01l-2.63,8.01h-1.43l-3.62-10.54h1.65
		l2.75,8.12l2.63-8.12H179.55z"/>
	<path class="st0" d="M190.31,90.35c0.55,0,0.99,0.44,0.99,0.99s-0.44,0.99-0.99,0.99c-0.55,0-0.99-0.44-0.99-0.99
		S189.76,90.35,190.31,90.35z M189.54,94.85h1.54v10.54h-1.54V94.85z"/>
	<path class="st0" d="M196.45,91.34h1.43v3.51h2.31v1.43h-2.31v6.26c0,1.1,0.55,1.65,1.43,1.65c0.77,0,1.43-0.33,1.43-0.33v1.43
		c0,0-0.66,0.33-1.49,0.33c-1.8,0-2.9-1.1-2.9-3.07v-6.26h-1.98v-1.43h1.21c0.55,0,0.88-0.33,0.88-1.1V91.34z"/>
	<path class="st0" d="M205.89,96.39c0,0,1.1-1.76,3.4-1.76c2.52,0,4.28,1.76,4.28,4.5v6.26h-1.54v-6.26c0-1.87-1.21-3.07-2.85-3.07
		c-1.87,0-3.29,1.43-3.29,3.51v5.82h-1.54V90.02h1.54V96.39z"/>
	<path class="st0" d="M224.55,110h-1.54V94.85h1.54v1.65c0,0,1.32-1.87,3.73-1.87c2.63,0,5.05,2.41,5.05,5.49
		c0,3.07-2.42,5.49-5.05,5.49c-2.41,0-3.73-1.87-3.73-1.87V110z M228.28,104.18c1.76,0,3.51-1.76,3.51-4.06
		c0-2.31-1.76-4.06-3.51-4.06c-1.87,0-3.73,1.87-3.73,4.06C224.55,102.32,226.42,104.18,228.28,104.18z"/>
	<path class="st0" d="M237.72,100.67c0.11,1.87,1.76,3.51,3.73,3.51c2.22,0,3.4-1.76,3.4-1.76l0.99,0.99c0,0-1.54,2.2-4.39,2.2
		c-2.85,0-5.27-2.41-5.27-5.49c0-3.07,2.42-5.49,5.16-5.49c2.85,0,5.05,2.2,5.05,5.27c0,0.44-0.11,0.79-0.11,0.79L237.72,100.67z
		 M237.72,99.35h7.14c-0.22-1.87-1.65-3.29-3.51-3.29S237.94,97.59,237.72,99.35z"/>
	<path class="st0" d="M255.51,96.17h-0.66c-1.76,0-3.29,1.32-3.29,3.4v5.82h-1.54V94.85h1.54v1.43c0,0,1.1-1.65,3.51-1.65h0.44
		V96.17z"/>
	<path class="st0" d="M263.74,97.16c0,0-0.77-1.1-2.3-1.1c-1.21,0-1.98,0.77-1.98,1.54c0,2.31,5.71,1.1,5.71,4.83
		c0,1.76-1.43,3.18-3.84,3.18c-2.63,0-3.84-1.87-3.84-1.87l1.1-1.1c0,0,0.99,1.54,2.74,1.54c1.54,0,2.31-0.77,2.31-1.76
		c0-2.41-5.71-1.21-5.71-4.83c0-1.54,1.43-2.96,3.51-2.96c2.2,0,3.4,1.43,3.4,1.43L263.74,97.16z"/>
	<path class="st0" d="M269.55,100.67c0.11,1.87,1.76,3.51,3.73,3.51c2.22,0,3.4-1.76,3.4-1.76l0.99,0.99c0,0-1.54,2.2-4.39,2.2
		s-5.27-2.41-5.27-5.49c0-3.07,2.42-5.49,5.16-5.49c2.85,0,5.05,2.2,5.05,5.27c0,0.44-0.11,0.79-0.11,0.79L269.55,100.67z
		 M269.55,99.35h7.14c-0.22-1.87-1.65-3.29-3.51-3.29S269.77,97.59,269.55,99.35z"/>
	<path class="st0" d="M282.51,103.41c0.66,0,1.1,0.44,1.1,1.1s-0.44,1.1-1.1,1.1c-0.66,0-1.1-0.44-1.1-1.1
		S281.85,103.41,282.51,103.41z"/>
</g>
</svg>
