<?xml version="1.0" encoding="utf-8"?>
<!-- Generator: Adobe Illustrator 25.4.1, SVG Export Plug-In . SVG Version: 6.00 Build 0)  -->
<svg version="1.1" id="レイヤー_1" xmlns="http://www.w3.org/2000/svg" xmlns:xlink="http://www.w3.org/1999/xlink" x="0px"
	 y="0px" viewBox="0 0 442 37" style="enable-background:new 0 0 442 37;" xml:space="preserve">
<style type="text/css">
	.st0{fill:#F08984;}
</style>
<g>
	<g>
		<path class="st0" d="M29.12,19.81c0-2.5,0.28-4.77,0.85-6.81c0.56-2.03,1.37-3.77,2.42-5.21c1.05-1.44,2.31-2.56,3.78-3.36
			c1.47-0.8,3.1-1.2,4.88-1.2c1.82,0,3.46,0.4,4.93,1.2c1.47,0.8,2.73,1.92,3.78,3.36c1.05,1.44,1.86,3.18,2.42,5.21
			c0.56,2.04,0.84,4.3,0.84,6.81c0,2.47-0.28,4.74-0.84,6.79c-0.56,2.05-1.37,3.8-2.42,5.24c-1.05,1.44-2.31,2.56-3.78,3.36
			c-1.47,0.8-3.12,1.2-4.93,1.2c-1.78,0-3.41-0.4-4.88-1.2c-1.47-0.8-2.73-1.92-3.78-3.36c-1.05-1.44-1.85-3.18-2.42-5.24
			C29.4,24.55,29.12,22.29,29.12,19.81z M33.11,19.81c0,4.98,0.68,8.87,2.04,11.67c1.36,2.8,3.33,4.2,5.89,4.2
			c2.6,0,4.58-1.4,5.94-4.2c1.36-2.8,2.04-6.69,2.04-11.67c0-4.98-0.68-8.87-2.04-11.67c-1.36-2.8-3.34-4.2-5.94-4.2
			c-2.57,0-4.53,1.4-5.89,4.2C33.79,10.95,33.11,14.84,33.11,19.81z"/>
		<path class="st0" d="M58.51,35.78c2.72-2.72,5.08-5.21,7.07-7.47c1.99-2.25,3.62-4.36,4.88-6.32c1.27-1.96,2.21-3.8,2.82-5.52
			c0.61-1.72,0.92-3.41,0.92-5.07c0-2.38-0.53-4.22-1.6-5.52c-1.07-1.3-2.44-1.95-4.13-1.95c-0.75,0-1.55,0.16-2.39,0.49
			c-0.84,0.33-1.68,0.92-2.51,1.76c-0.83,0.85-1.6,1.99-2.32,3.43c-0.72,1.44-1.33,3.29-1.83,5.54l0.47-9.16
			c1.41-0.91,2.82-1.6,4.23-2.07c1.41-0.47,2.99-0.7,4.74-0.7c2.97,0,5.27,0.64,6.9,1.93c1.63,1.28,2.44,2.96,2.44,5.02
			c0,1.35-0.36,2.81-1.08,4.39c-0.72,1.58-1.78,3.31-3.17,5.19c-1.39,1.88-3.1,3.92-5.12,6.13c-2.02,2.21-4.34,4.62-6.97,7.25h10.14
			c1.19,0,2.18-0.05,2.98-0.14c0.8-0.09,1.47-0.28,2.02-0.56s1-0.69,1.36-1.22c0.36-0.53,0.7-1.24,1.01-2.11l-0.23,7.04H58.56
			L58.51,35.78z"/>
		<path class="st0" d="M107.91,3.52c-0.5,0.16-0.91,0.34-1.22,0.54c-0.31,0.2-0.56,0.51-0.75,0.92c-0.19,0.41-0.32,0.93-0.4,1.57
			c-0.08,0.64-0.12,1.48-0.12,2.51v21.55c0,1.03,0.04,1.87,0.12,2.51c0.08,0.64,0.21,1.16,0.4,1.55c0.19,0.39,0.44,0.7,0.75,0.92
			c0.31,0.22,0.72,0.41,1.22,0.56h-8.59c0.5-0.16,0.92-0.34,1.25-0.54c0.33-0.2,0.59-0.5,0.77-0.89c0.19-0.39,0.32-0.92,0.4-1.57
			c0.08-0.66,0.12-1.5,0.12-2.54V9.06c0-1.03-0.04-1.88-0.12-2.54c-0.08-0.66-0.21-1.18-0.4-1.57c-0.19-0.39-0.45-0.7-0.77-0.92
			c-0.33-0.22-0.74-0.39-1.25-0.52H107.91z"/>
		<path class="st0" d="M112.32,36.15c0.5-0.16,0.91-0.33,1.22-0.52c0.31-0.19,0.56-0.43,0.75-0.73c0.19-0.3,0.31-0.68,0.38-1.15
			c0.06-0.47,0.09-1.03,0.09-1.69V14.74c0-0.66-0.02-1.23-0.07-1.71c-0.05-0.48-0.12-0.92-0.21-1.29c-0.09-0.38-0.23-0.72-0.4-1.03
			c-0.17-0.31-0.38-0.63-0.63-0.94l4.79-0.42v7.47c0.78-2.28,2.03-4.09,3.76-5.42c1.72-1.33,3.91-2,6.57-2
			c1.5,0,2.83,0.21,3.99,0.63s2.14,1.03,2.94,1.81c0.8,0.78,1.41,1.71,1.83,2.79c0.42,1.08,0.63,2.26,0.63,3.55v13.9
			c0,0.66,0.04,1.21,0.12,1.67c0.08,0.45,0.21,0.84,0.4,1.15c0.19,0.31,0.44,0.56,0.75,0.75c0.31,0.19,0.7,0.36,1.17,0.52h-8.36
			c0.5-0.16,0.91-0.33,1.22-0.52c0.31-0.19,0.56-0.43,0.75-0.73c0.19-0.3,0.31-0.68,0.38-1.15c0.06-0.47,0.09-1.03,0.09-1.69V17.7
			c0-2.35-0.56-4.19-1.69-5.52c-1.13-1.33-2.77-2-4.93-2c-1.22,0-2.39,0.23-3.52,0.68c-1.13,0.45-2.13,1.12-3,2
			c-0.88,0.88-1.59,1.96-2.14,3.24c-0.55,1.28-0.87,2.75-0.96,4.41v11.55c0,0.66,0.04,1.21,0.12,1.67c0.08,0.45,0.21,0.84,0.4,1.15
			c0.19,0.31,0.44,0.56,0.75,0.75c0.31,0.19,0.7,0.36,1.17,0.52H112.32z"/>
		<path class="st0" d="M143.88,36.15c0.5-0.16,0.91-0.33,1.22-0.52c0.31-0.19,0.56-0.43,0.75-0.73c0.19-0.3,0.31-0.68,0.38-1.15
			c0.06-0.47,0.09-1.03,0.09-1.69V14.74c0-0.66-0.02-1.23-0.07-1.71c-0.05-0.48-0.12-0.92-0.21-1.29c-0.09-0.38-0.23-0.72-0.4-1.03
			c-0.17-0.31-0.38-0.63-0.63-0.94l4.79-0.42v7.47c0.78-2.28,2.03-4.09,3.76-5.42c1.72-1.33,3.91-2,6.57-2
			c1.5,0,2.83,0.21,3.99,0.63s2.14,1.03,2.94,1.81c0.8,0.78,1.41,1.71,1.83,2.79c0.42,1.08,0.63,2.26,0.63,3.55v13.9
			c0,0.66,0.04,1.21,0.12,1.67c0.08,0.45,0.21,0.84,0.4,1.15c0.19,0.31,0.44,0.56,0.75,0.75c0.31,0.19,0.7,0.36,1.17,0.52h-8.36
			c0.5-0.16,0.91-0.33,1.22-0.52c0.31-0.19,0.56-0.43,0.75-0.73c0.19-0.3,0.31-0.68,0.38-1.15c0.06-0.47,0.09-1.03,0.09-1.69V17.7
			c0-2.35-0.56-4.19-1.69-5.52c-1.13-1.33-2.77-2-4.93-2c-1.22,0-2.39,0.23-3.52,0.68c-1.13,0.45-2.13,1.12-3,2
			c-0.88,0.88-1.59,1.96-2.14,3.24c-0.55,1.28-0.87,2.75-0.96,4.41v11.55c0,0.66,0.04,1.21,0.12,1.67c0.08,0.45,0.21,0.84,0.4,1.15
			c0.19,0.31,0.44,0.56,0.75,0.75c0.31,0.19,0.7,0.36,1.17,0.52H143.88z"/>
		<path class="st0" d="M189.05,9.39c2,0,3.83,0.33,5.47,0.99c1.64,0.66,3.06,1.59,4.25,2.79c1.19,1.21,2.11,2.63,2.77,4.27
			s0.99,3.45,0.99,5.42v0.05c0,1.97-0.33,3.78-0.99,5.42c-0.66,1.64-1.58,3.07-2.77,4.27c-1.19,1.21-2.61,2.14-4.25,2.79
			c-1.64,0.66-3.47,0.99-5.47,0.99c-2,0-3.83-0.33-5.47-0.99c-1.64-0.66-3.06-1.59-4.25-2.79c-1.19-1.2-2.11-2.63-2.77-4.27
			c-0.66-1.64-0.99-3.45-0.99-5.42v-0.05c0-1.97,0.33-3.78,0.99-5.42s1.58-3.07,2.77-4.27c1.19-1.2,2.61-2.14,4.25-2.79
			C185.22,9.72,187.04,9.39,189.05,9.39z M179.38,22.87c0,1.88,0.24,3.6,0.7,5.17c0.47,1.57,1.13,2.92,1.97,4.06
			c0.84,1.14,1.86,2.03,3.05,2.65c1.19,0.63,2.5,0.94,3.94,0.94c1.44,0,2.75-0.31,3.94-0.94c1.19-0.63,2.21-1.51,3.05-2.65
			c0.85-1.14,1.5-2.5,1.97-4.06c0.47-1.56,0.7-3.29,0.7-5.17s-0.24-3.6-0.7-5.17c-0.47-1.56-1.13-2.91-1.97-4.04
			c-0.84-1.13-1.86-2-3.05-2.63c-1.19-0.63-2.5-0.94-3.94-0.94c-1.44,0-2.75,0.31-3.94,0.94c-1.19,0.63-2.21,1.5-3.05,2.63
			c-0.85,1.13-1.5,2.47-1.97,4.04C179.61,19.27,179.38,20.99,179.38,22.87z"/>
		<path class="st0" d="M219.43,9.39c2.03,0,3.94,0.35,5.71,1.06c1.77,0.7,3.33,1.59,4.67,2.65l-1.55,7.42
			c-0.19-1.97-0.56-3.63-1.13-4.98c-0.56-1.35-1.24-2.43-2.04-3.24c-0.8-0.81-1.68-1.39-2.65-1.74c-0.97-0.34-1.96-0.52-2.96-0.52
			c-1.35,0-2.58,0.31-3.69,0.92c-1.11,0.61-2.07,1.48-2.86,2.61c-0.8,1.13-1.42,2.47-1.88,4.04c-0.45,1.57-0.68,3.3-0.68,5.21
			c0,1.94,0.24,3.71,0.7,5.31c0.47,1.6,1.13,2.96,1.97,4.09c0.84,1.13,1.85,2,3,2.61c1.16,0.61,2.44,0.92,3.85,0.92
			c2.38,0,4.46-0.9,6.25-2.7c1.78-1.8,3.11-4.41,3.99-7.82l-0.33,7.84c-0.72,0.66-1.51,1.2-2.37,1.62
			c-0.86,0.42-1.73,0.76-2.61,1.01c-0.88,0.25-1.75,0.43-2.61,0.54c-0.86,0.11-1.65,0.16-2.37,0.16c-1.91,0-3.68-0.32-5.31-0.96
			c-1.63-0.64-3.03-1.56-4.2-2.75c-1.17-1.19-2.1-2.62-2.77-4.3c-0.67-1.67-1.01-3.55-1.01-5.61c0-1.97,0.31-3.77,0.94-5.4
			c0.63-1.63,1.5-3.04,2.63-4.23c1.13-1.19,2.48-2.11,4.06-2.77C215.77,9.72,217.52,9.39,219.43,9.39z"/>
		<path class="st0" d="M247.18,9.39c1.88,0,3.51,0.27,4.91,0.8c1.39,0.53,2.54,1.28,3.45,2.25c0.91,0.97,1.59,2.11,2.04,3.43
			c0.45,1.31,0.7,2.75,0.73,4.32h-19.77c-0.06,0.47-0.11,0.95-0.14,1.43c-0.03,0.49-0.05,0.98-0.05,1.48c0,1.78,0.24,3.45,0.73,5
			s1.16,2.89,2.02,4.01c0.86,1.13,1.89,2.01,3.08,2.65c1.19,0.64,2.49,0.96,3.9,0.96c1.25,0,2.39-0.23,3.4-0.68
			c1.02-0.45,1.95-1.1,2.79-1.95c0.84-0.85,1.6-1.85,2.28-3.03c0.67-1.17,1.26-2.47,1.76-3.87l-0.42,6.81
			c-1.38,1.16-2.94,2.01-4.7,2.56c-1.75,0.55-3.46,0.82-5.12,0.82c-1.97,0-3.79-0.32-5.45-0.96c-1.66-0.64-3.09-1.54-4.3-2.7
			c-1.21-1.16-2.14-2.57-2.79-4.23c-0.66-1.66-0.99-3.49-0.99-5.49c0-1.97,0.29-3.79,0.87-5.45c0.58-1.66,1.42-3.1,2.51-4.32
			c1.1-1.22,2.42-2.17,3.97-2.84C243.44,9.73,245.21,9.39,247.18,9.39z M238.63,19.63h16.01c-0.03-1.38-0.22-2.64-0.56-3.8
			c-0.34-1.16-0.83-2.18-1.46-3.05c-0.63-0.88-1.4-1.56-2.32-2.04c-0.92-0.48-1.98-0.73-3.17-0.73c-1.13,0-2.16,0.23-3.1,0.7
			s-1.78,1.14-2.51,2c-0.74,0.86-1.35,1.88-1.83,3.05S238.85,18.22,238.63,19.63z"/>
		<path class="st0" d="M262.67,36.15c0.5-0.16,0.91-0.33,1.22-0.52c0.31-0.19,0.56-0.43,0.75-0.73c0.19-0.3,0.31-0.68,0.38-1.15
			c0.06-0.47,0.09-1.03,0.09-1.69V14.74c0-0.66-0.02-1.23-0.07-1.71c-0.05-0.48-0.12-0.92-0.21-1.29c-0.09-0.38-0.23-0.72-0.4-1.03
			c-0.17-0.31-0.38-0.63-0.63-0.94l4.79-0.42v7.47c0.78-2.28,2.03-4.09,3.76-5.42c1.72-1.33,3.91-2,6.57-2
			c1.5,0,2.83,0.21,3.99,0.63s2.14,1.03,2.94,1.81c0.8,0.78,1.41,1.71,1.83,2.79c0.42,1.08,0.63,2.26,0.63,3.55v13.9
			c0,0.66,0.04,1.21,0.12,1.67c0.08,0.45,0.21,0.84,0.4,1.15c0.19,0.31,0.44,0.56,0.75,0.75c0.31,0.19,0.7,0.36,1.17,0.52h-8.36
			c0.5-0.16,0.91-0.33,1.22-0.52c0.31-0.19,0.56-0.43,0.75-0.73c0.19-0.3,0.31-0.68,0.38-1.15c0.06-0.47,0.09-1.03,0.09-1.69V17.7
			c0-2.35-0.56-4.19-1.69-5.52c-1.13-1.33-2.77-2-4.93-2c-1.22,0-2.39,0.23-3.52,0.68c-1.13,0.45-2.13,1.12-3,2
			c-0.88,0.88-1.59,1.96-2.14,3.24c-0.55,1.28-0.87,2.75-0.96,4.41v11.55c0,0.66,0.04,1.21,0.12,1.67c0.08,0.45,0.21,0.84,0.4,1.15
			c0.19,0.31,0.44,0.56,0.75,0.75c0.31,0.19,0.7,0.36,1.17,0.52H262.67z"/>
		<path class="st0" d="M298.69,9.63l3.24-6.53v6.53h7.7v0.52h-7.7v20.19c0,1.03,0.07,1.89,0.21,2.58c0.14,0.69,0.34,1.24,0.59,1.64
			c0.25,0.41,0.57,0.69,0.96,0.85c0.39,0.16,0.84,0.23,1.34,0.23c0.91,0,1.67-0.26,2.3-0.77c0.63-0.52,1.21-1.24,1.74-2.18
			l0.61,0.42c-0.63,1-1.31,1.79-2.04,2.37c-0.74,0.58-1.81,0.87-3.22,0.87c-2.19,0-3.73-0.63-4.62-1.9s-1.34-3.06-1.34-5.38V10.14
			h-4.6V9.63H298.69z"/>
		<path class="st0" d="M330.8,32.02V7.65c0-0.69-0.04-1.26-0.12-1.71c-0.08-0.45-0.21-0.84-0.4-1.15c-0.19-0.31-0.45-0.57-0.77-0.77
			c-0.33-0.2-0.74-0.37-1.25-0.49h11.41c1.5,0,2.97,0.14,4.39,0.42c1.42,0.28,2.69,0.74,3.8,1.39c1.11,0.64,2,1.48,2.68,2.51
			c0.67,1.03,1.01,2.3,1.01,3.8c0,1.31-0.26,2.48-0.77,3.5c-0.52,1.02-1.21,1.89-2.09,2.63c-0.88,0.74-1.88,1.32-3,1.76
			c-1.13,0.44-2.3,0.75-3.52,0.94l7.65,9.2c0.47,0.53,1.01,1.15,1.62,1.85s1.21,1.39,1.81,2.04c0.59,0.66,1.13,1.23,1.6,1.71
			c0.47,0.49,0.78,0.77,0.94,0.87h-6.29c0-0.44-0.07-0.87-0.21-1.29s-0.35-0.85-0.63-1.29c-0.28-0.44-0.63-0.92-1.03-1.46
			c-0.41-0.53-0.88-1.13-1.41-1.78l-7.79-9.67h-4.04v11.36c0,1.35,0.18,2.29,0.54,2.84c0.36,0.55,1.03,0.98,2,1.29h-8.64
			c1-0.28,1.67-0.7,2.02-1.27C330.63,34.32,330.8,33.37,330.8,32.02z M334.37,19.91h4.74c2.75,0,4.91-0.7,6.46-2.09
			c1.55-1.39,2.33-3.39,2.33-5.99c0-1.44-0.25-2.64-0.75-3.62c-0.5-0.97-1.17-1.74-2.02-2.32c-0.85-0.58-1.82-0.99-2.93-1.24
			c-1.11-0.25-2.29-0.38-3.55-0.38h-4.27V19.91z"/>
		<path class="st0" d="M372.12,9.39c1.88,0,3.51,0.27,4.91,0.8c1.39,0.53,2.54,1.28,3.45,2.25c0.91,0.97,1.59,2.11,2.04,3.43
			c0.45,1.31,0.7,2.75,0.73,4.32h-19.77c-0.06,0.47-0.11,0.95-0.14,1.43c-0.03,0.49-0.05,0.98-0.05,1.48c0,1.78,0.24,3.45,0.73,5
			s1.16,2.89,2.02,4.01c0.86,1.13,1.89,2.01,3.08,2.65c1.19,0.64,2.49,0.96,3.9,0.96c1.25,0,2.39-0.23,3.4-0.68
			c1.02-0.45,1.95-1.1,2.79-1.95c0.84-0.85,1.6-1.85,2.28-3.03c0.67-1.17,1.26-2.47,1.76-3.87l-0.42,6.81
			c-1.38,1.16-2.94,2.01-4.7,2.56c-1.75,0.55-3.46,0.82-5.12,0.82c-1.97,0-3.79-0.32-5.45-0.96c-1.66-0.64-3.09-1.54-4.3-2.7
			c-1.21-1.16-2.14-2.57-2.79-4.23c-0.66-1.66-0.99-3.49-0.99-5.49c0-1.97,0.29-3.79,0.87-5.45c0.58-1.66,1.42-3.1,2.51-4.32
			c1.1-1.22,2.42-2.17,3.97-2.84C368.39,9.73,370.15,9.39,372.12,9.39z M363.58,19.63h16.01c-0.03-1.38-0.22-2.64-0.56-3.8
			c-0.34-1.16-0.83-2.18-1.46-3.05c-0.63-0.88-1.4-1.56-2.32-2.04c-0.92-0.48-1.98-0.73-3.17-0.73c-1.13,0-2.16,0.23-3.1,0.7
			s-1.78,1.14-2.51,2c-0.74,0.86-1.35,1.88-1.83,3.05S363.8,18.22,363.58,19.63z"/>
		<path class="st0" d="M400.48,9.39c1.47,0,2.85,0.23,4.13,0.68c1.28,0.45,2.44,1.14,3.47,2.04V4.51c0-0.97-0.08-1.67-0.24-2.11
			c-0.16-0.44-0.47-0.84-0.94-1.22l4.65-0.56v30.94c0,1.35,0.11,2.34,0.33,2.98c0.22,0.64,0.55,1.18,0.99,1.62l-4.6,0.14v-3.62
			c-0.97,1.31-2.14,2.26-3.52,2.84c-1.38,0.58-2.77,0.87-4.18,0.87c-1.97,0-3.76-0.33-5.38-0.99c-1.61-0.66-2.98-1.56-4.11-2.7
			c-1.13-1.14-2-2.5-2.63-4.06c-0.63-1.56-0.94-3.26-0.94-5.07c0-2.1,0.32-4.01,0.96-5.75c0.64-1.74,1.54-3.23,2.7-4.48
			c1.16-1.25,2.53-2.22,4.11-2.91C396.88,9.74,398.6,9.39,400.48,9.39z M391.14,21.65c0,1.91,0.23,3.71,0.68,5.4
			c0.45,1.69,1.13,3.17,2.02,4.44c0.89,1.27,1.98,2.27,3.26,3c1.28,0.74,2.74,1.1,4.37,1.1c1.35,0,2.58-0.34,3.71-1.01
			c1.13-0.67,2.1-1.6,2.91-2.79V15.87c-0.81-1.97-1.9-3.41-3.26-4.32c-1.36-0.91-2.92-1.36-4.67-1.36c-1.41,0-2.67,0.27-3.78,0.82
			c-1.11,0.55-2.05,1.32-2.82,2.32c-0.77,1-1.36,2.21-1.78,3.62C391.35,18.36,391.14,19.92,391.14,21.65z"/>
	</g>
</g>
</svg>
