<?xml version="1.0" encoding="utf-8"?>
<!-- Generator: Adobe Illustrator 25.4.1, SVG Export Plug-In . SVG Version: 6.00 Build 0)  -->
<svg version="1.1" id="レイヤー_1" xmlns="http://www.w3.org/2000/svg" xmlns:xlink="http://www.w3.org/1999/xlink" x="0px"
	 y="0px" viewBox="0 0 377 93" style="enable-background:new 0 0 377 93;" xml:space="preserve">
<style type="text/css">
	.st0{fill:#F7F2EF;}
	.st1{fill:none;stroke:#F7F2EF;stroke-miterlimit:10;}
	.st2{fill:#FFFFFF;}
</style>
<g>
	<path class="st0" d="M103.9,0.07h2.25l4.21,10.95l4.21-10.95h2.25l-5.38,13.69h-2.15L103.9,0.07z"/>
	<path class="st0" d="M120.11,9.76c0.2,1.27,1.37,2.45,2.93,2.45c1.86,0,2.84-1.47,2.84-1.47l1.27,1.27c0,0-1.47,1.96-4.11,1.96
		c-2.64,0-4.89-2.25-4.89-4.99c0-2.64,2.15-4.79,4.79-4.79c2.64,0,4.6,1.96,4.6,4.6c0,0.59-0.1,0.98-0.1,0.98H120.11z M120.19,8.09
		h5.44c-0.24-1.27-1.21-2.25-2.68-2.25C121.48,5.84,120.51,6.82,120.19,8.09z"/>
	<path class="st0" d="M131.93,13.77h-1.96V0.07h1.96V13.77z"/>
	<path class="st0" d="M137.58,13.77l-3.81-9.39h2.05l2.74,6.85l2.74-6.85h2.05l-3.81,9.39H137.58z"/>
	<path class="st0" d="M146.36,9.76c0.2,1.27,1.37,2.45,2.93,2.45c1.86,0,2.84-1.47,2.84-1.47l1.27,1.27c0,0-1.47,1.96-4.11,1.96
		c-2.64,0-4.89-2.25-4.89-4.99c0-2.64,2.15-4.79,4.79-4.79c2.64,0,4.6,1.96,4.6,4.6c0,0.59-0.1,0.98-0.1,0.98H146.36z M146.43,8.09
		h5.44c-0.24-1.27-1.21-2.25-2.68-2.25C147.73,5.84,146.75,6.82,146.43,8.09z"/>
	<path class="st0" d="M157.19,1.25h1.76v3.13h1.96v1.76h-1.96v4.87c0,0.7,0.49,1.19,1.17,1.19c0.49,0,0.98-0.2,0.98-0.2v1.76
		c0,0-0.59,0.2-1.37,0.2c-1.76,0-2.74-0.98-2.74-2.93V6.14h-1.76V4.38h0.98c0.59,0,0.98-0.39,0.98-1.17V1.25z"/>
	<path class="st0" d="M177.78,0.07v1.96h-7.43v3.81h5.87V7.8h-5.87v5.97h-2.15V0.07H177.78z"/>
	<path class="st0" d="M180.99,2.62c-0.68,0-1.17-0.49-1.17-1.17c0-0.69,0.49-1.17,1.17-1.17s1.17,0.49,1.17,1.17
		C182.16,2.13,181.67,2.62,180.99,2.62z M181.97,13.77h-1.96V4.38h1.96V13.77z"/>
	<path class="st0" d="M193.09,13.77h-2.25l-2.45-3.42l-2.44,3.42h-2.25l3.52-4.89L184,4.38h2.25l2.15,3.03l2.15-3.03h2.25l-3.23,4.5
		L193.09,13.77z"/>
	<path class="st0" d="M199.41,13.77V0.07h2.15v11.74h6.65v1.96H199.41z"/>
	<path class="st0" d="M211.22,2.62c-0.68,0-1.17-0.49-1.17-1.17c0-0.69,0.49-1.17,1.17-1.17s1.17,0.49,1.17,1.17
		C212.39,2.13,211.9,2.62,211.22,2.62z M212.2,13.77h-1.96V4.38h1.96V13.77z"/>
	<path class="st0" d="M217.07,12.69v5.18h-1.96V4.38h1.96v1.08c0,0,1.17-1.27,3.03-1.27c2.45,0,4.6,2.15,4.6,4.89
		s-2.15,4.89-4.6,4.89C218.24,13.96,217.07,12.69,217.07,12.69z M217.07,9.07c0,1.76,1.37,3.13,2.84,3.13s2.84-1.37,2.84-3.13
		s-1.37-3.13-2.84-3.13S217.07,7.31,217.07,9.07z"/>
	<path class="st0" d="M231.59,13.77V0.07h5.58c2.25,0,4.01,1.76,4.01,3.62s-1.37,2.74-1.37,2.74s2.05,1.08,2.05,3.33
		c0,2.15-1.86,4.01-4.4,4.01H231.59z M233.75,1.93v3.72h3.42c1.08,0,1.86-0.78,1.86-1.86c0-1.08-0.78-1.86-1.86-1.86H233.75z
		 M237.46,11.91c1.27,0,2.25-0.98,2.25-2.25s-0.98-2.25-2.25-2.25h-3.72v4.5H237.46z"/>
	<path class="st0" d="M249.96,13.77v-0.98c0,0-1.08,1.17-2.84,1.17c-1.96,0-3.33-1.37-3.33-2.74c0-1.56,1.08-2.64,2.74-2.93
		l3.42-0.59c0-0.98-0.78-1.76-1.96-1.76c-1.66,0-2.45,1.27-2.45,1.27l-1.27-1.27c0,0,1.27-1.76,3.72-1.76
		c2.35,0,3.91,1.56,3.91,3.52v6.06H249.96z M249.96,9.46v-0.2l-3.03,0.49c-0.68,0.12-1.17,0.59-1.17,1.27
		c0,0.59,0.59,1.17,1.66,1.17C248.98,12.2,249.96,11.22,249.96,9.46z"/>
	<path class="st0" d="M256.88,13.77h-1.96V0.07h1.96V13.77z"/>
	<path class="st0" d="M272.02,8.29c0-1.57-0.78-2.35-1.96-2.35c-1.17,0-2.15,0.98-2.15,2.74v5.09h-1.96V8.29
		c0-1.57-0.78-2.35-1.96-2.35s-2.15,0.98-2.15,2.74v5.09h-1.96V4.38h1.96v0.98c0,0,0.98-1.17,2.54-1.17c2.05,0,2.84,1.56,2.84,1.56
		s1.08-1.56,3.23-1.56c2.15,0,3.52,1.37,3.52,4.11v5.48h-1.96V8.29z"/>
</g>
<line class="st1" x1="101.52" y1="21.69" x2="277.31" y2="21.69"/>
<g>
	<path class="st2" d="M32.8,85.95c-1.13,1.35-2.35,2.46-3.62,3.28c-1.27,0.82-2.59,1.42-3.94,1.76c-3.51,0.89-7.04,0.61-10.05-0.73
		c-1.85-0.82-3.48-2.1-4.84-3.78c-1.37-1.69-2.47-3.86-3.26-6.45c-0.79-2.6-1.19-5.69-1.19-9.18c0-3.42,0.38-6.45,1.13-9.03
		c0.75-2.57,1.79-4.74,3.1-6.46c1.31-1.71,2.87-3,4.63-3.84c1.77-0.84,3.68-1.27,5.69-1.27c3.57,0,6.76,1.4,9.48,4.15
		c2.73,2.77,4.69,7.1,5.82,12.86l0.49-0.07l-1-14.38l-0.11-0.07c-1.2-0.75-2.48-1.38-3.81-1.87c-1.32-0.5-2.64-0.9-3.92-1.21
		c-1.28-0.31-2.5-0.53-3.64-0.65c-1.14-0.12-2.13-0.19-2.96-0.19c-2.78,0-5.45,0.57-7.94,1.69c-2.49,1.12-4.7,2.67-6.59,4.62
		c-1.88,1.95-3.4,4.29-4.49,6.96c-1.1,2.67-1.65,5.6-1.65,8.7c0,3.14,0.55,6.1,1.62,8.79c1.08,2.69,2.58,5.05,4.46,7.02
		c1.89,1.97,4.14,3.53,6.71,4.65c2.57,1.12,5.38,1.69,8.37,1.69c2.98,0,5.8-0.49,8.38-1.47c2.58-0.97,4.76-2.18,6.46-3.59l0.09-0.07
		v-8.17l-0.48,1.17C34.94,82.86,33.93,84.59,32.8,85.95z"/>
	<path class="st2" d="M78.96,91.41c-0.38-0.23-0.67-0.52-0.9-0.9c-0.23-0.38-0.39-0.86-0.49-1.43c-0.1-0.57-0.15-1.3-0.15-2.15
		V68.68c0-1.71-0.29-3.31-0.85-4.75c-0.57-1.44-1.39-2.71-2.46-3.76c-1.07-1.05-2.4-1.87-3.94-2.43c-1.54-0.56-3.34-0.85-5.33-0.85
		c-3.54,0-6.49,0.9-8.79,2.67c-1.96,1.52-3.48,3.52-4.53,5.97V45.32l-6.98,0.85l0.46,0.37c0.58,0.46,0.96,0.96,1.16,1.49
		c0.19,0.55,0.29,1.45,0.29,2.69v36.21c0,0.84-0.04,1.58-0.12,2.19c-0.08,0.58-0.23,1.05-0.46,1.41c-0.23,0.36-0.53,0.65-0.91,0.88
		c-0.39,0.24-0.92,0.46-1.55,0.65l-1.57,0.49h14.17l-1.47-0.49c-0.6-0.2-1.1-0.42-1.49-0.66c-0.38-0.23-0.67-0.52-0.9-0.9
		c-0.23-0.38-0.4-0.86-0.49-1.43c-0.1-0.57-0.15-1.3-0.15-2.15V71.78c0.12-2.14,0.54-4.06,1.24-5.71c0.7-1.65,1.63-3.06,2.75-4.18
		c1.12-1.12,2.42-1.99,3.86-2.57c1.45-0.58,2.97-0.88,4.53-0.88c2.75,0,4.86,0.85,6.29,2.53c1.43,1.69,2.16,4.08,2.16,7.09v18.88
		c0,0.84-0.04,1.58-0.12,2.19c-0.08,0.58-0.23,1.05-0.46,1.41c-0.22,0.35-0.53,0.65-0.91,0.88c-0.39,0.24-0.91,0.46-1.55,0.65
		l-1.57,0.49h14.17l-1.46-0.49C79.85,91.87,79.35,91.65,78.96,91.41z"/>
	<path class="st2" d="M114.06,84.19c-0.87,1.52-1.86,2.84-2.95,3.93c-1.08,1.08-2.29,1.93-3.59,2.51c-1.3,0.58-2.77,0.87-4.37,0.87
		c-1.8,0-3.48-0.42-5-1.23c-1.52-0.82-2.86-1.97-3.96-3.42c-1.11-1.45-1.99-3.2-2.61-5.2c-0.63-2-0.94-4.18-0.94-6.5
		c0-0.65,0.02-1.3,0.06-1.93c0.04-0.57,0.09-1.12,0.16-1.65h26.01l0-0.25c-0.04-2.07-0.37-4.01-0.97-5.75
		c-0.61-1.75-1.53-3.3-2.74-4.59c-1.21-1.3-2.77-2.31-4.63-3.02c-1.85-0.71-4.05-1.07-6.54-1.07c-2.61,0-4.98,0.45-7.04,1.35
		c-2.06,0.9-3.84,2.17-5.3,3.79c-1.45,1.62-2.58,3.56-3.35,5.76c-0.77,2.19-1.15,4.63-1.15,7.24c0,2.65,0.44,5.11,1.31,7.31
		c0.87,2.2,2.13,4.1,3.73,5.64c1.6,1.54,3.53,2.75,5.73,3.6c2.2,0.85,4.64,1.28,7.25,1.28c2.19,0,4.48-0.37,6.8-1.09
		c2.32-0.73,4.43-1.87,6.25-3.41l0.08-0.07l0.67-10.83l-0.59,1.67C115.7,80.97,114.93,82.67,114.06,84.19z M101.9,58.19
		c1.51,0,2.88,0.31,4.05,0.93c1.17,0.62,2.17,1.49,2.97,2.61c0.8,1.12,1.43,2.45,1.88,3.94c0.42,1.42,0.66,2.99,0.72,4.68H91.03
		c0.29-1.71,0.73-3.31,1.33-4.74c0.62-1.51,1.42-2.84,2.37-3.94c0.94-1.1,2.02-1.96,3.22-2.56C99.14,58.5,100.47,58.19,101.9,58.19z
		"/>
	<path class="st2" d="M148.86,88.03c-2.28,2.3-4.99,3.47-8.03,3.47c-1.8,0-3.46-0.4-4.94-1.17c-1.48-0.78-2.78-1.91-3.87-3.35
		c-1.09-1.45-1.95-3.23-2.55-5.29c-0.61-2.06-0.92-4.39-0.92-6.9c0-2.47,0.3-4.75,0.88-6.78c0.58-2.02,1.4-3.78,2.43-5.23
		c1.02-1.44,2.26-2.57,3.68-3.35c1.42-0.78,3-1.17,4.72-1.17c1.28,0,2.56,0.22,3.8,0.66c1.23,0.44,2.37,1.19,3.39,2.22
		c1.02,1.04,1.91,2.45,2.63,4.18c0.73,1.74,1.22,3.91,1.46,6.47l0.16,1.64l2.41-11.51l-0.12-0.1c-1.78-1.41-3.87-2.59-6.2-3.52
		c-2.34-0.93-4.9-1.41-7.59-1.41c-2.53,0-4.88,0.44-6.97,1.31c-2.1,0.87-3.92,2.12-5.42,3.7c-1.5,1.58-2.68,3.48-3.51,5.63
		c-0.83,2.16-1.25,4.58-1.25,7.18c0,2.74,0.45,5.25,1.34,7.47c0.89,2.22,2.13,4.15,3.69,5.73c1.56,1.58,3.45,2.81,5.61,3.67
		c2.16,0.85,4.53,1.28,7.06,1.28c0.95,0,2.01-0.07,3.15-0.22c1.14-0.15,2.31-0.39,3.46-0.72c1.16-0.33,2.32-0.78,3.47-1.34
		c1.15-0.56,2.21-1.29,3.17-2.17l0.08-0.07l0.54-12.78l-0.59,2.3C152.9,82.29,151.16,85.71,148.86,88.03z"/>
	<path class="st2" d="M193.65,90.91c-0.41-0.49-0.97-1.17-1.66-2.03c-0.7-0.86-1.62-2.01-2.77-3.45l-11.64-14.68l6.61-5.83
		c1.35-1.18,2.53-2.2,3.51-3.02c0.98-0.82,1.85-1.51,2.58-2.06c0.73-0.55,1.37-1,1.9-1.35c0.52-0.34,0.99-0.62,1.4-0.82l0.94-0.47
		h-6.94l0.02,0.27c0.08,0.88-0.24,1.8-0.94,2.73c-0.72,0.97-1.65,1.93-2.74,2.86l-15.38,13.52V45.32l-6.98,0.85l0.46,0.37
		c0.58,0.46,0.96,0.96,1.15,1.49c0.19,0.55,0.29,1.45,0.29,2.69v36.21c0,0.85-0.04,1.58-0.12,2.19c-0.08,0.58-0.23,1.05-0.46,1.41
		c-0.22,0.35-0.53,0.65-0.91,0.88c-0.39,0.24-0.92,0.46-1.55,0.65l-1.57,0.49h14.17l-1.47-0.49c-0.6-0.2-1.1-0.42-1.49-0.66
		c-0.37-0.22-0.68-0.53-0.9-0.9c-0.23-0.38-0.4-0.86-0.49-1.43c-0.1-0.57-0.15-1.3-0.15-2.15v-8.28l5.51-4.87L184,86.72
		c0.77,1.02,1.36,1.87,1.74,2.53c0.38,0.66,0.66,1.21,0.82,1.63c0.18,0.48,0.19,0.73,0.17,0.85c-0.03,0.19-0.08,0.34-0.15,0.43
		l-0.26,0.39h8.36l0.02-0.5c0,0-0.06-0.02-0.22-0.18C194.38,91.77,194.14,91.51,193.65,90.91z"/>
	<path class="st2" d="M247.59,51.78c-1.6-0.93-3.4-1.61-5.35-2c-1.94-0.39-3.87-0.59-5.73-0.59h-17.88l1.96,0.49
		c0.63,0.16,1.16,0.37,1.56,0.62c0.4,0.25,0.71,0.56,0.94,0.93c0.23,0.38,0.39,0.86,0.49,1.42c0.1,0.59,0.15,1.33,0.15,2.21v32.02
		c0,1.71-0.22,2.94-0.64,3.63c-0.42,0.68-1.26,1.21-2.51,1.56l-1.75,0.49h14.76l-1.52-0.49c-1.21-0.39-2.05-0.93-2.49-1.6
		c-0.44-0.67-0.67-1.88-0.67-3.59V74.36h7.4c1.91,0,3.87-0.26,5.83-0.78c1.97-0.52,3.79-1.32,5.41-2.38
		c1.63-1.06,2.97-2.43,3.99-4.06c1.03-1.64,1.55-3.61,1.55-5.87c0-2.3-0.52-4.25-1.55-5.78C250.53,53.97,249.2,52.72,247.59,51.78z
		 M228.93,50.67h6.23c3.95,0,7.04,0.93,9.18,2.78c2.13,1.83,3.21,4.55,3.21,8.08c0,2.01-0.34,3.75-1.02,5.17
		c-0.68,1.42-1.6,2.6-2.74,3.52c-1.14,0.92-2.47,1.6-3.95,2.02c-1.49,0.42-3.07,0.64-4.68,0.64h-6.23V50.67z"/>
	<path class="st2" d="M289.07,61.93c-1.58-1.6-3.49-2.85-5.67-3.73c-2.18-0.87-4.63-1.31-7.28-1.31s-5.1,0.44-7.28,1.31
		c-2.18,0.87-4.09,2.13-5.67,3.73c-1.58,1.6-2.82,3.52-3.69,5.7c-0.87,2.18-1.31,4.61-1.31,7.28c0,2.61,0.44,5.04,1.31,7.22
		c0.87,2.18,2.12,4.1,3.69,5.7c1.58,1.6,3.49,2.85,5.67,3.73c2.18,0.87,4.63,1.31,7.28,1.31s5.1-0.44,7.28-1.31
		c2.18-0.87,4.09-2.13,5.67-3.73c1.58-1.6,2.82-3.52,3.7-5.7s1.31-4.61,1.31-7.28c0-2.61-0.44-5.04-1.31-7.22
		C291.89,65.45,290.65,63.54,289.07,61.93z M276.12,91.44c-1.84,0-3.55-0.41-5.07-1.21c-1.52-0.8-2.84-1.95-3.93-3.41
		c-1.09-1.47-1.95-3.24-2.55-5.26c-0.61-2.02-0.92-4.28-0.92-6.71c0-2.43,0.31-4.69,0.92-6.71c0.61-2.02,1.46-3.78,2.55-5.23
		c1.08-1.44,2.4-2.58,3.93-3.38c1.52-0.8,3.22-1.21,5.07-1.21s3.55,0.41,5.07,1.21c1.52,0.8,2.84,1.94,3.93,3.38
		c1.09,1.45,1.95,3.21,2.55,5.23c0.61,2.02,0.92,4.28,0.92,6.71c0,2.43-0.31,4.69-0.92,6.71c-0.61,2.02-1.47,3.79-2.55,5.26
		c-1.08,1.46-2.4,2.61-3.92,3.41C279.67,91.03,277.96,91.44,276.12,91.44z"/>
	<path class="st2" d="M304.5,52.89c1.01,0,1.86-0.31,2.52-0.93c0.67-0.62,1-1.45,1-2.47c0-1.02-0.34-1.84-1.01-2.44
		c-0.66-0.6-1.51-0.9-2.51-0.9c-0.96,0-1.79,0.3-2.45,0.9c-0.67,0.6-1.01,1.42-1.01,2.44c0,1.01,0.34,1.84,1,2.46
		C302.7,52.58,303.53,52.89,304.5,52.89z"/>
	<path class="st2" d="M308.76,91.41c-0.37-0.22-0.68-0.53-0.9-0.9c-0.23-0.38-0.4-0.86-0.49-1.43c-0.1-0.57-0.15-1.3-0.15-2.15
		V56.81l-7.03,0.62l0.29,0.36c0.32,0.4,0.59,0.8,0.81,1.2c0.22,0.39,0.38,0.83,0.5,1.3c0.12,0.48,0.21,1.04,0.27,1.66
		c0.06,0.63,0.09,1.38,0.09,2.23v22.76c0,0.84-0.04,1.58-0.12,2.19c-0.08,0.58-0.23,1.05-0.46,1.41c-0.22,0.35-0.53,0.65-0.91,0.88
		c-0.39,0.24-0.91,0.46-1.55,0.65l-1.57,0.49h14.16l-1.46-0.49C309.65,91.87,309.15,91.65,308.76,91.41z"/>
	<path class="st2" d="M351.63,91.41c-0.38-0.22-0.68-0.53-0.9-0.9c-0.23-0.38-0.39-0.86-0.49-1.43c-0.1-0.58-0.15-1.3-0.15-2.15
		V68.68c0-1.71-0.29-3.31-0.85-4.75c-0.56-1.44-1.39-2.71-2.46-3.76c-1.07-1.05-2.4-1.87-3.94-2.43c-1.54-0.56-3.34-0.85-5.33-0.85
		c-3.54,0-6.49,0.9-8.79,2.67c-1.96,1.52-3.48,3.52-4.53,5.98v-8.73l-7.03,0.62l0.29,0.36c0.32,0.4,0.59,0.8,0.81,1.2
		c0.21,0.39,0.38,0.83,0.5,1.3c0.12,0.48,0.21,1.04,0.27,1.66c0.06,0.63,0.09,1.38,0.09,2.23v22.76c0,0.85-0.04,1.58-0.12,2.19
		c-0.08,0.58-0.23,1.06-0.46,1.41c-0.22,0.35-0.53,0.65-0.9,0.88c-0.39,0.24-0.92,0.46-1.55,0.65l-1.57,0.49h14.17l-1.47-0.49
		c-0.6-0.2-1.1-0.42-1.49-0.66c-0.37-0.22-0.68-0.53-0.9-0.9c-0.23-0.38-0.4-0.86-0.49-1.43c-0.1-0.58-0.15-1.3-0.15-2.15V71.78
		c0.12-2.14,0.54-4.06,1.25-5.71c0.7-1.65,1.63-3.05,2.75-4.18c1.12-1.12,2.42-1.99,3.87-2.57c1.45-0.58,2.97-0.88,4.53-0.88
		c2.75,0,4.86,0.85,6.29,2.53c1.43,1.69,2.16,4.08,2.16,7.09v18.88c0,0.85-0.04,1.58-0.12,2.19c-0.08,0.58-0.23,1.05-0.46,1.41
		c-0.22,0.35-0.53,0.65-0.9,0.88c-0.39,0.24-0.92,0.46-1.55,0.65l-1.57,0.49h14.17l-1.47-0.49
		C352.53,91.87,352.03,91.65,351.63,91.41z"/>
	<path class="st2" d="M375.61,87.38l-0.14,0.24c-0.68,1.2-1.43,2.15-2.22,2.8c-0.77,0.64-1.74,0.96-2.86,0.96
		c-0.62,0-1.19-0.1-1.67-0.29c-0.47-0.19-0.84-0.52-1.15-1.01c-0.31-0.51-0.56-1.21-0.74-2.08c-0.18-0.89-0.27-2.01-0.27-3.34V58.38
		h10.12V57.2h-10.12v-9.39l-4.66,9.39h-6.45v1.18h6.05v24.61c0,3.08,0.61,5.51,1.8,7.21c1.22,1.73,3.33,2.6,6.28,2.6
		c1.9,0,3.38-0.4,4.38-1.19c0.98-0.78,1.91-1.84,2.74-3.18l0.13-0.2L375.61,87.38z"/>
</g>
</svg>
