<?xml version="1.0" encoding="utf-8"?>
<!-- Generator: Adobe Illustrator 25.4.1, SVG Export Plug-In . SVG Version: 6.00 Build 0)  -->
<svg version="1.1" id="レイヤー_1" xmlns="http://www.w3.org/2000/svg" xmlns:xlink="http://www.w3.org/1999/xlink" x="0px"
	 y="0px" viewBox="0 0 11 250" style="enable-background:new 0 0 11 250;" xml:space="preserve">
<style type="text/css">
	.st0{opacity:0.7;}
	.st1{fill:#F7F3F0;}
</style>
<g class="st0">
	<path class="st1" d="M10.68,38.23c0,2.73-2.09,4.1-2.09,4.1l-0.65-0.72c0,0,1.73-1.08,1.73-3.38s-1.8-4.1-4.17-4.1
		c-2.38,0-4.17,1.8-4.17,4.1s1.73,3.45,1.73,3.45l-0.65,0.72c0,0-2.09-1.44-2.09-4.17c0-2.88,2.3-5.18,5.18-5.18
		C8.38,33.05,10.68,35.36,10.68,38.23z"/>
	<path class="st1" d="M10.54,49.31c0,1.8-1.29,3.09-3.02,3.09c-2.3,0-2.88-2.09-2.88-2.09l-4.17,2.37v-1.22l4.03-2.23v-2.88H0.46
		v-1.08h10.07V49.31z M9.53,46.36H5.5v2.95c0,1.22,0.79,2.01,2.01,2.01s2.02-0.79,2.02-2.01V46.36z"/>
	<path class="st1" d="M1.47,62.84H0.46v-7.05h10.07v6.91H9.53v-5.83H6.22v4.68H5.21v-4.68H1.47V62.84z"/>
	<path class="st1" d="M3.27,66.94l-2.81-1.15v-1.15l10.07,4.17v1.01L0.46,73.99v-1.15l2.81-1.15V66.94z M9.03,69.31l-4.75-1.94v3.89
		L9.03,69.31z"/>
	<path class="st1" d="M10.54,81.98H9.53v-3.17H0.46v-1.08h9.07v-3.17h1.01V81.98z"/>
	<path class="st1" d="M1.47,91.62H0.46v-7.05h10.07v6.91H9.53v-5.83H6.22v4.68H5.21v-4.68H1.47V91.62z"/>
	<path class="st1" d="M10.54,108.45H9.53v-5.76H6.07v4.6H5.07v-4.6H0.46v-1.08h10.07V108.45z"/>
	<path class="st1" d="M0.32,115.5c0-2.88,2.3-5.18,5.18-5.18c2.88,0,5.18,2.3,5.18,5.18c0,2.88-2.3,5.18-5.18,5.18
		C2.62,120.68,0.32,118.38,0.32,115.5z M1.33,115.5c0,2.3,1.8,4.1,4.17,4.1c2.37,0,4.17-1.8,4.17-4.1s-1.8-4.1-4.17-4.1
		C3.12,111.4,1.33,113.2,1.33,115.5z"/>
	<path class="st1" d="M10.54,127.88c0,1.8-1.29,3.09-3.02,3.09c-2.3,0-2.88-2.09-2.88-2.09l-4.17,2.37v-1.22l4.03-2.23v-2.88H0.46
		v-1.08h10.07V127.88z M9.53,124.93H5.5v2.95c0,1.22,0.79,2.01,2.01,2.01s2.02-0.79,2.02-2.01V124.93z"/>
	<path class="st1" d="M5.14,140.97l5.39,3.02v1.22l-6.55-3.74H0.46v-1.08h3.53l6.55-3.74v1.22l-5.39,3.02V140.97z"/>
	<path class="st1" d="M0.32,151.76c0-2.88,2.3-5.18,5.18-5.18c2.88,0,5.18,2.3,5.18,5.18c0,2.88-2.3,5.18-5.18,5.18
		C2.62,156.94,0.32,154.64,0.32,151.76z M1.33,151.76c0,2.3,1.8,4.1,4.17,4.1c2.37,0,4.17-1.8,4.17-4.1s-1.8-4.1-4.17-4.1
		C3.12,147.66,1.33,149.46,1.33,151.76z"/>
	<path class="st1" d="M4.42,167.09h6.12v1.08H4.42c-2.23,0-4.1-1.87-4.1-4.1c0-2.23,1.87-4.1,4.1-4.1h6.12v1.08H4.42
		c-1.73,0-3.09,1.37-3.09,3.02C1.33,165.72,2.69,167.09,4.42,167.09z"/>
	<path class="st1" d="M10.54,175.87c0,1.8-1.29,3.09-3.02,3.09c-2.3,0-2.88-2.09-2.88-2.09l-4.17,2.37v-1.22l4.03-2.23v-2.88H0.46
		v-1.08h10.07V175.87z M9.53,172.92H5.5v2.95c0,1.22,0.79,2.01,2.01,2.01s2.02-0.79,2.02-2.01V172.92z"/>
	<path class="st1" d="M7.95,181.69c1.47,0,2.73,1.24,2.73,3.24c0,1.93-1.29,2.95-1.29,2.95l-0.72-0.72c0,0,1.01-0.73,1.01-2.23
		c0-1.38-0.82-2.16-1.73-2.16c-2.59,0-1.15,5.47-4.75,5.47c-1.65,0-2.88-1.22-2.88-3.38c0-2.3,1.51-3.38,1.51-3.38l0.73,0.66
		c0,0-1.24,0.85-1.24,2.72c0,1.51,0.79,2.3,1.87,2.3C5.79,187.16,4.35,181.69,7.95,181.69z"/>
	<path class="st1" d="M1.47,198.31H0.46v-7.05h10.07v6.91H9.53v-5.83H6.22v4.68H5.21v-4.68H1.47V198.31z"/>
	<path class="st1" d="M0.46,201.26h10.07v1.08H1.47v5.18H0.46V201.26z"/>
	<path class="st1" d="M10.54,216.95H9.53v-5.76H6.07v4.6H5.07v-4.6H0.46v-1.08h10.07V216.95z"/>
</g>
</svg>
