<?xml version="1.0" encoding="utf-8"?>
<!-- Generator: Adobe Illustrator 25.4.1, SVG Export Plug-In . SVG Version: 6.00 Build 0)  -->
<svg version="1.1" id="レイヤー_1" xmlns="http://www.w3.org/2000/svg" xmlns:xlink="http://www.w3.org/1999/xlink" x="0px"
	 y="0px" viewBox="0 0 413 43" style="enable-background:new 0 0 413 43;" xml:space="preserve">
<style type="text/css">
	.st0{fill:#F08984;}
</style>
<g>
	<path class="st0" d="M24.95,3.13l0.47,0.24c0.16,0.08,0.3,0.19,0.42,0.33c0.11,0.13,0.18,0.34,0.21,0.62
		c0.03,0.3-0.01,0.7-0.11,1.18c-0.1,0.5-0.31,1.13-0.63,1.89l-8.9,22.1L7.21,7.29c-0.29-0.7-0.47-1.3-0.54-1.77
		c-0.07-0.47-0.07-0.86,0-1.15c0.07-0.28,0.18-0.5,0.34-0.65c0.17-0.15,0.35-0.27,0.54-0.35L8.1,3.13H0.16l0.78,0.24
		c0.36,0.11,0.74,0.38,1.13,0.79c0.4,0.42,0.82,1.16,1.25,2.21l11.7,27.81l0.03,0.08h0.43L25.51,9.61c0.55-1.35,1.04-2.44,1.45-3.23
		c0.4-0.79,0.76-1.4,1.07-1.83c0.3-0.42,0.56-0.71,0.76-0.86c0.21-0.15,0.41-0.26,0.6-0.31l0.84-0.25H24.95z"/>
	<path class="st0" d="M50.72,28.31c-0.62,1.1-1.33,2.05-2.11,2.84c-0.78,0.79-1.65,1.4-2.58,1.82c-0.93,0.42-1.99,0.63-3.14,0.63
		c-1.29,0-2.5-0.3-3.59-0.9c-1.09-0.59-2.05-1.43-2.84-2.48c-0.79-1.05-1.42-2.31-1.87-3.76c-0.45-1.45-0.68-3.02-0.68-4.69
		c0-0.47,0.01-0.94,0.04-1.39c0.03-0.42,0.07-0.83,0.12-1.24h18.53l0-0.13c-0.03-1.49-0.26-2.87-0.69-4.12
		c-0.43-1.25-1.08-2.36-1.94-3.29c-0.86-0.93-1.96-1.66-3.28-2.16c-1.31-0.51-2.87-0.76-4.64-0.76c-1.86,0-3.54,0.33-5,0.97
		c-1.46,0.64-2.73,1.56-3.76,2.72c-1.03,1.16-1.83,2.55-2.38,4.13c-0.54,1.58-0.82,3.32-0.82,5.19c0,1.9,0.31,3.67,0.93,5.24
		c0.62,1.58,1.51,2.94,2.65,4.04c1.14,1.1,2.5,1.97,4.07,2.58c1.56,0.61,3.29,0.92,5.15,0.92c1.56,0,3.18-0.26,4.83-0.78
		c1.65-0.52,3.14-1.34,4.44-2.44l0.04-0.03l0.45-7.39l-0.3,0.84C51.9,25.98,51.35,27.21,50.72,28.31z M39.17,10.16
		c0.86-0.43,1.82-0.65,2.85-0.65c1.09,0,2.07,0.23,2.91,0.67c0.84,0.45,1.56,1.08,2.13,1.89c0.58,0.81,1.03,1.77,1.35,2.85
		c0.31,1.04,0.48,2.2,0.52,3.44H34.2c0.2-1.26,0.53-2.44,0.96-3.49c0.45-1.09,1.02-2.05,1.69-2.85
		C37.53,11.22,38.31,10.59,39.17,10.16z"/>
	<path class="st0" d="M63.36,33.53c-0.27-0.17-0.5-0.39-0.66-0.67c-0.17-0.28-0.29-0.63-0.36-1.04c-0.07-0.42-0.11-0.94-0.11-1.56
		V0.36l-4.79,0.59l0.23,0.19c0.42,0.34,0.7,0.71,0.84,1.1c0.14,0.4,0.21,1.06,0.21,1.96v26.07c0,0.61-0.03,1.14-0.09,1.58
		c-0.06,0.43-0.17,0.78-0.33,1.04c-0.16,0.26-0.39,0.48-0.66,0.65c-0.28,0.17-0.66,0.33-1.12,0.48l-0.77,0.24h9.4l-0.72-0.24
		C64.01,33.86,63.65,33.7,63.36,33.53z"/>
	<path class="st0" d="M86.79,9.13c0.12,0.09,0.27,0.2,0.47,0.34c0.16,0.12,0.29,0.34,0.37,0.66c0.08,0.34,0.08,0.85,0,1.51
		c-0.09,0.67-0.38,1.58-0.87,2.72l-6.53,15.41l-7.71-18.03c-0.34-0.83-0.45-1.42-0.33-1.78c0.12-0.36,0.3-0.64,0.51-0.83l0.25-0.22
		H66.6l0.47,0.24c0.27,0.14,0.61,0.49,1.01,1.03c0.4,0.55,0.9,1.5,1.48,2.82l9.14,21.26h0.65l9.05-21.4
		c0.52-1.25,1.04-2.14,1.55-2.65c0.52-0.51,0.94-0.87,1.26-1.07l0.36-0.23H86.5L86.79,9.13z"/>
	<path class="st0" d="M114.53,28.31c-0.62,1.1-1.33,2.05-2.11,2.84c-0.78,0.79-1.65,1.4-2.58,1.82c-0.93,0.42-1.99,0.63-3.14,0.63
		c-1.29,0-2.5-0.3-3.59-0.9c-1.09-0.59-2.05-1.43-2.84-2.48c-0.79-1.05-1.42-2.31-1.87-3.76c-0.45-1.45-0.68-3.02-0.68-4.69
		c0-0.47,0.01-0.94,0.04-1.39c0.03-0.42,0.07-0.83,0.12-1.24h18.53l0-0.13c-0.03-1.49-0.26-2.87-0.69-4.12
		c-0.43-1.25-1.08-2.36-1.94-3.29c-0.86-0.93-1.96-1.66-3.28-2.16c-1.31-0.51-2.87-0.76-4.64-0.76c-1.85,0-3.54,0.33-5,0.97
		c-1.46,0.64-2.73,1.56-3.76,2.72c-1.03,1.16-1.83,2.55-2.38,4.13c-0.54,1.58-0.82,3.32-0.82,5.19c0,1.9,0.31,3.67,0.93,5.24
		c0.62,1.58,1.51,2.94,2.65,4.04c1.14,1.1,2.5,1.97,4.07,2.58c1.56,0.61,3.29,0.92,5.15,0.92c1.56,0,3.18-0.26,4.83-0.78
		c1.65-0.52,3.14-1.34,4.44-2.44l0.04-0.03l0.45-7.39l-0.3,0.84C115.71,25.99,115.15,27.21,114.53,28.31z M102.98,10.16
		c0.86-0.43,1.81-0.65,2.85-0.65c1.09,0,2.07,0.23,2.91,0.67c0.84,0.45,1.56,1.08,2.13,1.89c0.58,0.81,1.03,1.77,1.35,2.85
		c0.31,1.04,0.48,2.2,0.52,3.44H98.01c0.2-1.26,0.53-2.44,0.96-3.49c0.45-1.09,1.02-2.05,1.69-2.85
		C101.34,11.22,102.12,10.59,102.98,10.16z"/>
	<path class="st0" d="M134.21,30.78c-0.49,0.87-1.03,1.56-1.6,2.03c-0.56,0.47-1.26,0.7-2.08,0.7c-0.45,0-0.86-0.07-1.21-0.21
		c-0.34-0.14-0.62-0.39-0.84-0.75c-0.23-0.37-0.41-0.88-0.53-1.51c-0.13-0.64-0.2-1.45-0.2-2.42V9.64h7.21V8.9h-7.21V2.31
		l-3.24,6.59h-4.58v0.74h4.31v17.78c0,2.21,0.43,3.94,1.28,5.16c0.86,1.23,2.35,1.85,4.43,1.85c1.34,0,2.38-0.29,3.09-0.85
		c0.7-0.55,1.35-1.32,1.94-2.28l0.06-0.1l-0.78-0.55L134.21,30.78z"/>
	<path class="st0" d="M151.74,3.13l0.97,0.25c0.46,0.12,0.83,0.26,1.11,0.43c0.27,0.16,0.48,0.38,0.61,0.64
		c0.14,0.27,0.24,0.61,0.29,1.02c0.06,0.43,0.09,0.96,0.09,1.6v23.05c0,1.27-0.18,2.18-0.55,2.71c-0.36,0.52-1.01,0.92-1.91,1.17
		l-0.86,0.25h10.24L160.87,34c-0.91-0.26-1.55-0.65-1.91-1.17c-0.36-0.52-0.55-1.43-0.55-2.71V18.75h3.44c1.54,0,2.79,0.1,3.71,0.29
		c0.92,0.19,1.63,0.46,2.13,0.8c0.49,0.34,0.83,0.76,1.01,1.25c0.19,0.5,0.29,1.08,0.32,1.72l0.25,0l0.62-9.02l-0.25-0.04
		c-0.14,0.64-0.35,1.21-0.6,1.7c-0.25,0.48-0.66,0.9-1.21,1.24c-0.56,0.35-1.31,0.61-2.24,0.78c-0.94,0.18-2.17,0.26-3.65,0.26
		h-3.53V4.13h5.46c1.07,0,2.1,0.1,3.08,0.29c0.96,0.19,1.87,0.55,2.68,1.07c0.82,0.52,1.55,1.26,2.18,2.21
		c0.63,0.95,1.13,2.2,1.48,3.71l0.25-0.04l-0.94-8.24H151.74z"/>
	<path class="st0" d="M184.12,33.53c-0.27-0.17-0.5-0.39-0.66-0.67c-0.17-0.28-0.29-0.63-0.36-1.04c-0.07-0.42-0.11-0.94-0.11-1.56
		V8.62l-4.85,0.43l0.14,0.18c0.23,0.29,0.42,0.58,0.58,0.87c0.16,0.29,0.28,0.61,0.36,0.95c0.09,0.35,0.15,0.75,0.2,1.2
		c0.04,0.46,0.07,1,0.07,1.61v16.39c0,0.61-0.03,1.14-0.09,1.58c-0.06,0.43-0.17,0.77-0.33,1.04c-0.16,0.26-0.39,0.48-0.66,0.65
		c-0.28,0.17-0.66,0.33-1.12,0.48l-0.77,0.24h9.4l-0.72-0.24C184.77,33.86,184.41,33.7,184.12,33.53z"/>
	<path class="st0" d="M181.11,5.69c0.71,0,1.3-0.22,1.76-0.66c0.46-0.44,0.7-1.02,0.7-1.73c0-0.71-0.24-1.29-0.7-1.71
		c-0.46-0.42-1.05-0.63-1.75-0.63c-0.67,0-1.25,0.21-1.71,0.63c-0.47,0.42-0.7,1-0.7,1.71c0,0.71,0.24,1.3,0.7,1.73
		C179.86,5.47,180.43,5.69,181.11,5.69z"/>
	<path class="st0" d="M209.6,32.72c-0.49-0.66-1.07-1.47-1.74-2.4l-7.29-10.28l5.49-7.17c0.93-1.23,1.75-2.12,2.46-2.64
		c0.71-0.53,1.26-0.9,1.63-1.1l0.43-0.23h-5.08l0.13,0.19c0.07,0.1,0.19,0.22,0.38,0.36c0.15,0.11,0.23,0.31,0.26,0.58
		c0.03,0.29-0.07,0.7-0.28,1.21c-0.21,0.52-0.68,1.24-1.37,2.15l-4.56,5.91l-5.4-7.59c-0.53-0.77-0.76-1.34-0.66-1.72
		c0.1-0.39,0.24-0.69,0.43-0.88l0.21-0.21h-6.67l0.52,0.24c0.31,0.14,0.7,0.49,1.17,1.03c0.48,0.56,1.17,1.47,2.04,2.7l6.19,8.76
		l-6.67,8.68c-0.93,1.23-1.73,2.12-2.4,2.64c-0.69,0.54-1.12,0.89-1.32,1.07l-0.25,0.22h4.66l-0.13-0.19
		c-0.07-0.1-0.2-0.22-0.41-0.35c-0.16-0.1-0.25-0.28-0.29-0.56c-0.04-0.29,0.04-0.7,0.24-1.23c0.2-0.53,0.65-1.26,1.34-2.17
		l5.75-7.37l6.46,9.1c0.34,0.46,0.56,0.84,0.66,1.14c0.1,0.29,0.13,0.53,0.1,0.72c-0.03,0.18-0.08,0.31-0.18,0.39
		c-0.12,0.11-0.22,0.2-0.31,0.29l-0.21,0.21h6.76l-0.57-0.24C210.57,33.78,210.07,33.35,209.6,32.72z"/>
	<path class="st0" d="M247.11,29.61c-0.39,0.94-0.85,1.69-1.38,2.23c-0.52,0.53-1.16,0.9-1.88,1.1c-0.73,0.2-1.65,0.31-2.72,0.31
		h-7.31V7.16c0-0.61,0.04-1.14,0.13-1.57c0.08-0.43,0.21-0.78,0.38-1.05c0.17-0.26,0.39-0.49,0.67-0.67
		c0.28-0.18,0.66-0.35,1.11-0.5l0.77-0.24h-9.9l0.97,0.25c0.46,0.12,0.83,0.27,1.13,0.45c0.29,0.18,0.52,0.41,0.68,0.69
		c0.17,0.28,0.29,0.63,0.36,1.04c0.07,0.42,0.11,0.96,0.11,1.6v23.05c0,1.24-0.16,2.13-0.47,2.65c-0.3,0.5-0.92,0.89-1.82,1.14
		l-0.86,0.25h20.49l0.89-8.33l-0.25-0.04C247.88,27.4,247.5,28.66,247.11,29.61z"/>
	<path class="st0" d="M256.05,5.69c0.7,0,1.3-0.22,1.76-0.66c0.46-0.44,0.7-1.02,0.7-1.73c0-0.71-0.24-1.29-0.7-1.71
		c-0.46-0.42-1.05-0.63-1.76-0.63c-0.67,0-1.25,0.21-1.71,0.63c-0.46,0.42-0.7,1-0.7,1.71c0,0.71,0.24,1.3,0.7,1.73
		C254.79,5.47,255.37,5.69,256.05,5.69z"/>
	<path class="st0" d="M259.06,33.53c-0.27-0.17-0.5-0.39-0.66-0.67c-0.17-0.28-0.29-0.63-0.36-1.04c-0.07-0.42-0.11-0.94-0.11-1.56
		V8.62l-4.85,0.43l0.14,0.18c0.23,0.29,0.42,0.58,0.58,0.87c0.16,0.29,0.28,0.61,0.36,0.95c0.09,0.35,0.15,0.75,0.19,1.2
		c0.04,0.45,0.07,0.99,0.07,1.61v16.39c0,0.61-0.03,1.15-0.09,1.58c-0.06,0.43-0.17,0.78-0.33,1.04c-0.16,0.26-0.39,0.48-0.66,0.65
		c-0.28,0.17-0.66,0.33-1.12,0.48l-0.77,0.24h9.4l-0.72-0.24C259.7,33.86,259.34,33.7,259.06,33.53z"/>
	<path class="st0" d="M285.4,12.05c-1.11-1.07-2.44-1.91-3.98-2.49c-1.53-0.58-3.26-0.87-5.15-0.87c-0.56,0-1.17,0.05-1.82,0.13
		c-0.65,0.09-1.31,0.25-1.96,0.47c-0.65,0.22-1.3,0.54-1.92,0.95c-0.54,0.35-1.05,0.8-1.52,1.34V8.62l-4.76,0.43l0.14,0.18
		c0.23,0.29,0.42,0.58,0.58,0.87c0.16,0.29,0.28,0.61,0.36,0.95c0.09,0.35,0.15,0.75,0.19,1.2c0.04,0.45,0.07,0.99,0.07,1.61v24.79
		c0,0.61-0.03,1.14-0.09,1.58c-0.06,0.42-0.17,0.77-0.33,1.04c-0.17,0.26-0.39,0.49-0.67,0.67c-0.28,0.18-0.65,0.33-1.1,0.45
		l-0.97,0.25h9.59l-0.72-0.24c-0.43-0.15-0.79-0.31-1.07-0.48c-0.27-0.17-0.5-0.39-0.66-0.67c-0.17-0.28-0.29-0.63-0.36-1.05
		c-0.07-0.42-0.11-0.94-0.11-1.56v-6.61c0.92,0.78,1.96,1.38,3.09,1.78c1.21,0.43,2.53,0.65,3.91,0.65c1.83,0,3.55-0.35,5.11-1.06
		c1.56-0.7,2.92-1.67,4.04-2.87c1.12-1.2,2.01-2.65,2.64-4.28c0.63-1.64,0.95-3.41,0.95-5.29c0-1.84-0.31-3.54-0.91-5.04
		C287.37,14.43,286.5,13.12,285.4,12.05z M276.45,33.47c-1.64,0-3.09-0.39-4.31-1.16c-1.21-0.76-2.22-1.97-3-3.59V12.71
		c0.86-1.17,1.86-1.97,3-2.39c1.15-0.42,2.26-0.64,3.3-0.64c1.64,0,3.09,0.32,4.3,0.96c1.21,0.64,2.24,1.54,3.06,2.67
		c0.82,1.14,1.44,2.5,1.85,4.04c0.41,1.55,0.61,3.26,0.61,5.08c0,1.55-0.21,3.02-0.61,4.36c-0.41,1.34-1,2.52-1.76,3.49
		c-0.76,0.97-1.7,1.75-2.77,2.32C279.03,33.18,277.8,33.47,276.45,33.47z"/>
	<path class="st0" d="M326.51,20.59c-1.53-1.19-3.61-1.99-6.21-2.39c2.28-0.51,4.11-1.38,5.45-2.59c1.49-1.35,2.24-3.04,2.24-5.02
		c0-2.4-1.04-4.27-3.09-5.55c-2.03-1.27-4.82-1.91-8.29-1.91h-11.03l0.97,0.25c0.46,0.12,0.83,0.27,1.13,0.45
		c0.29,0.18,0.52,0.41,0.68,0.69c0.17,0.28,0.29,0.63,0.36,1.04c0.07,0.42,0.11,0.96,0.11,1.6v23.05c0,1.24-0.16,2.13-0.47,2.65
		c-0.3,0.5-0.92,0.89-1.82,1.14l-0.86,0.25h11.98c1.73,0,3.32-0.2,4.72-0.58c1.4-0.39,2.61-0.95,3.58-1.69
		c0.98-0.73,1.75-1.64,2.28-2.69c0.53-1.05,0.81-2.26,0.81-3.61C329.04,23.61,328.19,21.9,326.51,20.59z M322.3,15.87
		c-1.3,1.27-3.09,1.92-5.3,1.92h-4.58V4.09h3.66c2.6,0,4.63,0.59,6.06,1.75c1.41,1.15,2.13,2.84,2.13,5.01
		C324.26,12.91,323.6,14.59,322.3,15.87z M312.42,18.75h4.76c2.45,0,4.43,0.62,5.88,1.86c1.44,1.23,2.18,3,2.18,5.26
		c0,2.32-0.73,4.16-2.16,5.46c-1.44,1.31-3.48,1.97-6.07,1.97h-4.58V18.75z"/>
	<path class="st0" d="M352.49,32.49c-0.19-0.64-0.28-1.39-0.28-2.23V16.18c0-2.43-0.78-4.3-2.31-5.56
		c-1.53-1.26-3.62-1.89-6.21-1.89c-1.68,0-3.33,0.26-4.92,0.76c-1.59,0.51-2.95,1.2-4.04,2.06l-0.05,0.04l0.3,8.48l0.21-0.98
		c0.41-1.88,0.93-3.45,1.55-4.68c0.62-1.22,1.31-2.21,2.04-2.92c0.73-0.71,1.52-1.21,2.35-1.48c0.83-0.28,1.66-0.42,2.47-0.42
		c1.71,0,3,0.51,3.84,1.53c0.84,1.02,1.27,2.65,1.27,4.83v3.1l-4.79,1.18h0c-1.05,0.26-2.2,0.59-3.44,0.96
		c-1.24,0.37-2.41,0.88-3.5,1.5c-1.09,0.63-2.02,1.41-2.74,2.34c-0.73,0.94-1.1,2.1-1.1,3.45c0,0.99,0.2,1.87,0.59,2.61
		c0.39,0.74,0.92,1.37,1.6,1.86c0.67,0.5,1.48,0.87,2.42,1.11c0.93,0.24,1.94,0.36,3,0.36c1.18,0,2.25-0.17,3.16-0.5
		c0.92-0.33,1.72-0.79,2.39-1.35c0.66-0.57,1.23-1.22,1.7-1.94c0.34-0.53,0.64-1.08,0.89-1.63v5.38l4.74-0.15l-0.22-0.21
		C352.99,33.64,352.68,33.12,352.49,32.49z M348.71,19.98v5.34c-0.06,1.34-0.32,2.54-0.78,3.55c-0.46,1.02-1.04,1.88-1.73,2.56
		c-0.69,0.68-1.46,1.2-2.29,1.55c-0.83,0.35-1.66,0.52-2.46,0.52c-1.42,0-2.53-0.48-3.31-1.42c-0.78-0.95-1.18-2.18-1.18-3.65
		c0-1.33,0.25-2.45,0.75-3.31c0.5-0.87,1.12-1.58,1.86-2.12c0.73-0.54,1.52-0.96,2.34-1.25c0.83-0.29,1.55-0.52,2.16-0.66
		L348.71,19.98z"/>
	<path class="st0" d="M363.81,33.53c-0.27-0.17-0.5-0.39-0.66-0.67c-0.17-0.28-0.29-0.63-0.36-1.04c-0.07-0.42-0.11-0.94-0.11-1.56
		V0.36l-4.79,0.59l0.23,0.19c0.42,0.34,0.7,0.71,0.84,1.1c0.14,0.4,0.21,1.06,0.21,1.96v26.07c0,0.61-0.03,1.15-0.09,1.58
		c-0.06,0.43-0.17,0.78-0.33,1.04c-0.16,0.26-0.39,0.48-0.66,0.65c-0.28,0.17-0.66,0.33-1.12,0.48l-0.77,0.24h9.4l-0.72-0.24
		C364.45,33.86,364.09,33.7,363.81,33.53z"/>
	<path class="st0" d="M406.32,31.84c-0.06,0.43-0.17,0.77-0.33,1.04c-0.16,0.26-0.39,0.48-0.66,0.65c-0.28,0.17-0.66,0.33-1.12,0.48
		l-0.77,0.24h9.4l-0.72-0.24c-0.43-0.14-0.79-0.31-1.08-0.48c-0.27-0.17-0.5-0.39-0.66-0.67c-0.17-0.28-0.29-0.63-0.36-1.04
		c-0.07-0.42-0.11-0.94-0.11-1.56V17.11c0-1.22-0.2-2.37-0.6-3.4c-0.4-1.03-0.99-1.94-1.74-2.69c-0.76-0.75-1.7-1.33-2.79-1.74
		c-1.09-0.4-2.35-0.61-3.74-0.61c-2.39,0-4.41,0.65-5.99,1.94c-1.46,1.18-2.54,2.79-3.24,4.78c-0.32-1.91-1.18-3.49-2.56-4.71
		c-1.51-1.33-3.58-2.01-6.15-2.01c-2.33,0-4.32,0.64-5.9,1.89c-1.41,1.12-2.49,2.62-3.21,4.48V8.62l-4.85,0.43l0.14,0.18
		c0.23,0.29,0.42,0.58,0.58,0.87c0.16,0.29,0.28,0.61,0.36,0.95c0.09,0.35,0.15,0.75,0.19,1.2c0.04,0.45,0.07,0.99,0.07,1.61v16.39
		c0,0.61-0.03,1.14-0.09,1.58c-0.06,0.43-0.17,0.78-0.33,1.04c-0.16,0.26-0.39,0.48-0.66,0.65c-0.28,0.17-0.66,0.33-1.12,0.48
		l-0.77,0.24h9.4l-0.72-0.24c-0.43-0.14-0.79-0.31-1.07-0.48c-0.27-0.17-0.5-0.39-0.66-0.67c-0.17-0.28-0.29-0.63-0.36-1.04
		c-0.07-0.42-0.11-0.94-0.11-1.56V19.34c0.09-1.55,0.39-2.94,0.89-4.13c0.5-1.19,1.15-2.22,1.93-3.05c0.78-0.83,1.66-1.47,2.62-1.9
		c0.96-0.43,1.97-0.65,3-0.65c1.94,0,3.44,0.63,4.45,1.89c1.02,1.26,1.53,3,1.53,5.19v13.59c0,0.61-0.03,1.15-0.09,1.58
		c-0.06,0.43-0.17,0.78-0.33,1.04c-0.16,0.26-0.39,0.48-0.66,0.65c-0.28,0.17-0.66,0.33-1.12,0.48l-0.77,0.24h9.4l-0.72-0.24
		c-0.43-0.15-0.79-0.31-1.07-0.48c-0.27-0.17-0.5-0.39-0.66-0.67c-0.17-0.28-0.29-0.63-0.36-1.04c-0.07-0.42-0.11-0.94-0.11-1.56
		V19.34c0.09-1.55,0.39-2.94,0.89-4.13c0.5-1.19,1.15-2.22,1.93-3.05c0.78-0.83,1.66-1.47,2.62-1.9c0.96-0.43,1.97-0.65,3-0.65
		c1.97,0,3.49,0.63,4.5,1.89c1.02,1.26,1.53,3,1.53,5.19v13.59C406.41,30.87,406.38,31.4,406.32,31.84z"/>
</g>
</svg>
