<?xml version="1.0" encoding="utf-8"?>
<!-- Generator: Adobe Illustrator 25.4.1, SVG Export Plug-In . SVG Version: 6.00 Build 0)  -->
<svg version="1.1" id="レイヤー_1" xmlns="http://www.w3.org/2000/svg" xmlns:xlink="http://www.w3.org/1999/xlink" x="0px"
	 y="0px" viewBox="0 0 76 72" style="enable-background:new 0 0 76 72;" xml:space="preserve">
<style type="text/css">
	.st0{fill:#F08984;}
</style>
<path class="st0" d="M69.04,22.03c0.03,0.6,0.04,1.2,0.04,1.8c0,18.37-13.98,39.55-39.55,39.55c-7.85,0-15.15-2.3-21.3-6.25
	c1.09,0.13,2.2,0.19,3.32,0.19c6.51,0,12.5-2.22,17.25-5.95c-6.08-0.11-11.21-4.13-12.98-9.65c0.85,0.16,1.72,0.25,2.61,0.25
	c1.27,0,2.5-0.17,3.66-0.49c-6.36-1.28-11.15-6.89-11.15-13.62c0-0.06,0-0.12,0-0.18c1.87,1.04,4.02,1.67,6.3,1.74
	c-3.73-2.49-6.19-6.74-6.19-11.57c0-2.55,0.69-4.94,1.88-6.99c6.86,8.41,17.1,13.94,28.65,14.52c-0.24-1.02-0.35-2.08-0.35-3.17
	c0-7.56,6.02-13.7,13.53-13.89c0.12,0,0.24,0,0.36,0c4,0,7.61,1.69,10.15,4.39c3.17-0.62,6.14-1.78,8.83-3.38
	c-1.04,3.25-3.24,5.97-6.11,7.69c2.81-0.33,5.49-1.08,7.98-2.19C74.11,17.63,71.76,20.08,69.04,22.03z"/>
</svg>
