<?xml version="1.0" encoding="utf-8"?>
<!-- Generator: Adobe Illustrator 25.4.1, SVG Export Plug-In . SVG Version: 6.00 Build 0)  -->
<svg version="1.1" id="レイヤー_1" xmlns="http://www.w3.org/2000/svg" xmlns:xlink="http://www.w3.org/1999/xlink" x="0px"
	 y="0px" viewBox="0 0 76 72" style="enable-background:new 0 0 76 72;" xml:space="preserve">
<style type="text/css">
	.st0{fill:#82B1BC;}
</style>
<path class="st0" d="M69,22c0,0.6,0,1.2,0,1.8c0,18.4-14,39.5-39.5,39.5c-7.9,0-15.1-2.3-21.3-6.2c1.1,0.1,2.2,0.2,3.3,0.2
	c6.5,0,12.5-2.2,17.2-6c-6.1-0.1-11.2-4.1-13-9.7c0.9,0.2,1.7,0.2,2.6,0.2c1.3,0,2.5-0.2,3.7-0.5c-6.4-1.3-11.1-6.9-11.1-13.6
	c0-0.1,0-0.1,0-0.2c1.9,1,4,1.7,6.3,1.7c-3.7-2.5-6.2-6.7-6.2-11.6c0-2.6,0.7-4.9,1.9-7c6.9,8.4,17.1,13.9,28.7,14.5
	c-0.2-1-0.3-2.1-0.3-3.2c0-7.6,6-13.7,13.5-13.9c0.1,0,0.2,0,0.4,0c4,0,7.6,1.7,10.1,4.4c3.2-0.6,6.1-1.8,8.8-3.4
	c-1,3.2-3.2,6-6.1,7.7c2.8-0.3,5.5-1.1,8-2.2C74.1,17.6,71.8,20.1,69,22z"/>
</svg>
