<?xml version="1.0" encoding="utf-8"?>
<!-- Generator: Adobe Illustrator 25.4.1, SVG Export Plug-In . SVG Version: 6.00 Build 0)  -->
<svg version="1.1" id="レイヤー_1" xmlns="http://www.w3.org/2000/svg" xmlns:xlink="http://www.w3.org/1999/xlink" x="0px"
	 y="0px" viewBox="0 0 151 151" style="enable-background:new 0 0 151 151;" xml:space="preserve">
<style type="text/css">
	.st0{fill:#FFFFFF;}
</style>
<g>
	<path class="st0" d="M20.34,46.88c-1.25-0.84-2.29-1.73-3.12-2.69s-1.43-1.94-1.8-2.95c-0.37-1-0.51-2.01-0.42-3.01
		c0.09-1,0.44-1.95,1.03-2.84c0.61-0.91,1.35-1.59,2.24-2.06c0.89-0.47,1.87-0.72,2.94-0.77c1.07-0.04,2.21,0.13,3.41,0.53
		c1.2,0.4,2.43,1.01,3.68,1.85c1.24,0.83,2.27,1.72,3.11,2.69c0.84,0.97,1.44,1.95,1.81,2.95c0.37,1,0.51,2.01,0.42,3.01
		c-0.09,1-0.44,1.96-1.05,2.86c-0.6,0.89-1.34,1.57-2.23,2.04c-0.89,0.47-1.87,0.73-2.94,0.77c-1.07,0.04-2.21-0.14-3.42-0.54
		C22.81,48.32,21.58,47.7,20.34,46.88z M21.68,44.88c2.49,1.66,4.66,2.62,6.51,2.87c1.86,0.25,3.21-0.26,4.07-1.54
		c0.87-1.3,0.83-2.75-0.12-4.37c-0.95-1.61-2.66-3.25-5.15-4.91c-2.49-1.66-4.66-2.62-6.51-2.87c-1.85-0.25-3.21,0.27-4.08,1.57
		c-0.86,1.28-0.81,2.73,0.13,4.35C17.47,41.58,19.19,43.22,21.68,44.88z"/>
	<path class="st0" d="M38.05,38.54c0.26-2.3,0.43-4.35,0.52-6.15c0.09-1.8,0.06-3.4-0.08-4.8c-0.14-1.39-0.39-2.61-0.75-3.65
		c-0.36-1.04-0.85-1.94-1.47-2.72c-0.89-1.12-1.83-1.78-2.82-1.99c-0.99-0.21-1.88,0-2.67,0.64c-0.35,0.28-0.67,0.66-0.94,1.13
		c-0.27,0.47-0.45,1.06-0.52,1.77c-0.07,0.71-0.01,1.53,0.19,2.48c0.2,0.95,0.61,2.04,1.22,3.29l-3.21-4.47
		c0.32-0.95,0.72-1.81,1.21-2.55c0.48-0.75,1.14-1.45,1.96-2.11c1.4-1.12,2.71-1.68,3.96-1.69c1.25-0.01,2.25,0.47,3.03,1.44
		c0.5,0.63,0.89,1.45,1.14,2.47c0.25,1.01,0.41,2.22,0.46,3.62c0.05,1.4,0.02,3-0.1,4.8c-0.12,1.79-0.3,3.8-0.55,6.02l4.76-3.8
		c0.56-0.45,1.01-0.84,1.35-1.18c0.34-0.34,0.58-0.68,0.74-1.02s0.21-0.7,0.18-1.08c-0.03-0.38-0.14-0.84-0.32-1.37l2.53,3.39
		l-9.65,7.71L38.05,38.54z"/>
	<path class="st0" d="M57.39,6.06c-0.26,0.18-0.46,0.35-0.61,0.52c-0.15,0.17-0.24,0.39-0.27,0.66c-0.04,0.27-0.02,0.59,0.04,0.97
		c0.07,0.38,0.19,0.87,0.37,1.47l3.74,12.4c0.18,0.59,0.35,1.07,0.5,1.42c0.16,0.36,0.32,0.63,0.5,0.82s0.37,0.32,0.59,0.4
		c0.22,0.07,0.48,0.11,0.8,0.11l-4.94,1.49c0.26-0.18,0.47-0.35,0.62-0.53c0.15-0.17,0.25-0.39,0.29-0.65s0.02-0.58-0.04-0.97
		c-0.07-0.39-0.19-0.88-0.37-1.48l-3.74-12.4c-0.18-0.59-0.35-1.07-0.51-1.44c-0.16-0.36-0.33-0.64-0.5-0.84
		c-0.18-0.19-0.38-0.32-0.6-0.39c-0.23-0.07-0.5-0.1-0.81-0.08L57.39,6.06z"/>
	<path class="st0" d="M64.88,23.79c0.3-0.11,0.54-0.22,0.72-0.34c0.18-0.12,0.33-0.27,0.43-0.46c0.1-0.18,0.17-0.42,0.2-0.7
		c0.03-0.28,0.03-0.62,0.01-1.02l-0.45-10.4c-0.02-0.39-0.05-0.74-0.09-1.03c-0.04-0.29-0.09-0.55-0.16-0.77
		c-0.07-0.22-0.16-0.43-0.27-0.61c-0.11-0.18-0.25-0.37-0.41-0.55l2.86-0.38l0.19,4.48c0.41-1.39,1.12-2.51,2.12-3.35
		c1-0.84,2.3-1.3,3.89-1.37c0.9-0.04,1.71,0.05,2.41,0.28c0.71,0.22,1.31,0.56,1.81,1.01c0.5,0.45,0.89,0.99,1.17,1.63
		c0.28,0.64,0.44,1.34,0.47,2.11l0.36,8.34c0.02,0.39,0.05,0.73,0.11,1c0.06,0.27,0.15,0.5,0.27,0.68c0.12,0.18,0.28,0.33,0.47,0.43
		s0.43,0.2,0.72,0.28l-5.02,0.22c0.3-0.11,0.54-0.22,0.72-0.34c0.18-0.12,0.33-0.27,0.43-0.46c0.11-0.18,0.17-0.42,0.2-0.7
		c0.03-0.28,0.03-0.62,0.01-1.02l-0.37-8.62c-0.06-1.41-0.45-2.5-1.16-3.27c-0.71-0.77-1.71-1.13-3.01-1.07
		c-0.73,0.03-1.43,0.2-2.1,0.5c-0.67,0.3-1.25,0.73-1.75,1.27c-0.5,0.55-0.9,1.22-1.2,2c-0.3,0.78-0.45,1.68-0.46,2.67l0.3,6.93
		c0.02,0.39,0.05,0.73,0.11,1c0.06,0.27,0.15,0.5,0.27,0.68c0.12,0.18,0.28,0.33,0.47,0.43c0.19,0.1,0.43,0.2,0.72,0.28L64.88,23.79
		z"/>
	<path class="st0" d="M82.75,23.25c0.32,0,0.58-0.03,0.79-0.08c0.21-0.05,0.4-0.15,0.56-0.28c0.16-0.14,0.3-0.34,0.42-0.59
		c0.12-0.26,0.24-0.58,0.35-0.95l3.07-9.95c0.12-0.38,0.2-0.71,0.26-1c0.06-0.29,0.09-0.55,0.11-0.78c0.01-0.23,0-0.45-0.05-0.66
		c-0.04-0.21-0.11-0.43-0.2-0.65L90.9,8.9l-1.32,4.29c0.85-1.17,1.89-1.99,3.12-2.45c1.22-0.46,2.6-0.45,4.13,0.02
		c0.86,0.27,1.59,0.62,2.18,1.07c0.59,0.45,1.04,0.97,1.36,1.56c0.32,0.59,0.5,1.23,0.56,1.93c0.05,0.69-0.04,1.41-0.26,2.15
		l-2.46,7.98c-0.12,0.38-0.19,0.7-0.23,0.98c-0.04,0.27-0.03,0.52,0.02,0.73c0.05,0.21,0.15,0.4,0.3,0.56
		c0.15,0.16,0.34,0.33,0.58,0.5l-4.8-1.48c0.32,0,0.58-0.03,0.79-0.08c0.21-0.05,0.4-0.15,0.56-0.28c0.16-0.14,0.3-0.34,0.42-0.59
		c0.12-0.26,0.24-0.58,0.35-0.95l2.54-8.25c0.42-1.35,0.42-2.5,0.01-3.47c-0.41-0.96-1.24-1.64-2.48-2.02
		c-0.7-0.22-1.41-0.29-2.14-0.23c-0.73,0.06-1.42,0.27-2.08,0.61c-0.66,0.35-1.26,0.84-1.8,1.48c-0.54,0.64-0.99,1.43-1.33,2.36
		l-2.05,6.63c-0.12,0.38-0.19,0.7-0.23,0.98c-0.04,0.27-0.03,0.52,0.03,0.73c0.05,0.21,0.15,0.4,0.3,0.56
		c0.15,0.16,0.34,0.33,0.58,0.5L82.75,23.25z"/>
	<path class="st0" d="M115.98,20.77c0.96,0.72,1.72,1.53,2.28,2.44c0.55,0.91,0.9,1.86,1.04,2.87c0.14,1.01,0.07,2.03-0.2,3.05
		c-0.28,1.03-0.77,2.02-1.48,2.96l-0.02,0.02c-0.71,0.95-1.52,1.7-2.42,2.26c-0.91,0.55-1.87,0.91-2.87,1.06
		c-1.01,0.15-2.02,0.09-3.05-0.18c-1.03-0.27-2.02-0.77-2.99-1.49c-0.96-0.72-1.72-1.53-2.28-2.44c-0.56-0.91-0.9-1.86-1.04-2.87
		c-0.14-1.01-0.07-2.03,0.2-3.05c0.27-1.03,0.77-2.02,1.47-2.96l0.02-0.02c0.71-0.95,1.52-1.7,2.42-2.26
		c0.91-0.55,1.86-0.91,2.87-1.06c1-0.15,2.02-0.09,3.05,0.18C114.02,19.55,115.02,20.05,115.98,20.77z M106.48,23.78
		c-0.67,0.9-1.18,1.82-1.52,2.74c-0.34,0.92-0.51,1.81-0.51,2.66c0,0.85,0.17,1.65,0.51,2.37c0.35,0.73,0.87,1.35,1.56,1.87
		c0.69,0.52,1.44,0.84,2.24,0.97c0.8,0.13,1.61,0.07,2.42-0.18c0.82-0.25,1.62-0.66,2.41-1.25c0.79-0.58,1.52-1.33,2.2-2.23
		c0.67-0.9,1.18-1.82,1.52-2.74c0.34-0.92,0.5-1.81,0.5-2.65c0-0.85-0.17-1.63-0.52-2.36c-0.35-0.73-0.87-1.35-1.56-1.87
		c-0.69-0.52-1.44-0.84-2.24-0.97c-0.8-0.13-1.6-0.07-2.41,0.17c-0.81,0.24-1.61,0.65-2.4,1.23
		C107.89,22.13,107.16,22.87,106.48,23.78z"/>
	<path class="st0" d="M131.34,36.79c0.7,1,1.18,2.06,1.44,3.18c0.26,1.11,0.36,2.19,0.29,3.21l-4.19,1.78
		c0.91-0.77,1.6-1.52,2.07-2.26c0.47-0.74,0.77-1.45,0.9-2.12c0.13-0.67,0.11-1.31-0.05-1.9c-0.16-0.6-0.42-1.14-0.76-1.64
		c-0.46-0.66-1.03-1.17-1.72-1.5c-0.68-0.34-1.44-0.51-2.27-0.52c-0.83-0.01-1.71,0.15-2.64,0.46c-0.93,0.31-1.86,0.8-2.8,1.45
		c-0.96,0.67-1.75,1.39-2.38,2.17c-0.63,0.78-1.07,1.57-1.34,2.37c-0.26,0.8-0.35,1.6-0.25,2.38c0.1,0.78,0.39,1.52,0.87,2.21
		c0.82,1.17,1.97,1.89,3.47,2.15c1.5,0.26,3.24,0.02,5.22-0.71l-3.98,2.53c-0.57-0.13-1.11-0.33-1.61-0.61
		c-0.5-0.28-0.97-0.59-1.39-0.94c-0.42-0.35-0.81-0.71-1.16-1.1c-0.35-0.39-0.65-0.76-0.9-1.11c-0.65-0.94-1.1-1.92-1.34-2.95
		c-0.24-1.02-0.27-2.03-0.09-3.01c0.18-0.99,0.57-1.93,1.17-2.84s1.4-1.71,2.42-2.42c0.97-0.68,1.97-1.14,2.99-1.39
		c1.02-0.25,2.01-0.3,2.99-0.15c0.97,0.15,1.89,0.5,2.76,1.05C129.93,35.1,130.69,35.85,131.34,36.79z"/>
	<path class="st0" d="M140.24,55.28c0.33,1.08,0.47,2.06,0.42,2.96c-0.06,0.89-0.28,1.69-0.68,2.38c-0.4,0.69-0.93,1.29-1.6,1.78
		c-0.67,0.49-1.46,0.89-2.35,1.19l-3.53-11.34c-0.28,0.05-0.56,0.11-0.85,0.17c-0.28,0.07-0.57,0.15-0.86,0.24
		c-1.02,0.32-1.94,0.75-2.74,1.31c-0.8,0.55-1.45,1.18-1.94,1.87c-0.49,0.69-0.82,1.44-0.97,2.24c-0.16,0.8-0.11,1.6,0.14,2.41
		c0.22,0.72,0.56,1.33,1,1.83c0.44,0.5,0.98,0.92,1.62,1.26c0.64,0.33,1.35,0.59,2.14,0.77s1.64,0.28,2.54,0.32l-3.98,0.97
		c-0.91-0.58-1.68-1.33-2.31-2.24c-0.63-0.91-1.09-1.84-1.38-2.79c-0.35-1.13-0.49-2.23-0.42-3.3c0.07-1.07,0.33-2.05,0.78-2.95
		c0.45-0.9,1.09-1.68,1.93-2.36c0.83-0.67,1.83-1.19,2.98-1.55c1.13-0.35,2.22-0.51,3.28-0.47c1.05,0.04,2.03,0.26,2.93,0.67
		c0.9,0.41,1.67,1,2.34,1.77C139.38,53.2,139.89,54.15,140.24,55.28z M132.84,52.2l2.85,9.19c0.79-0.26,1.48-0.6,2.08-1
		c0.6-0.4,1.1-0.86,1.49-1.38c0.39-0.52,0.64-1.08,0.76-1.7c0.11-0.62,0.06-1.27-0.15-1.95c-0.2-0.65-0.52-1.2-0.96-1.65
		c-0.44-0.46-0.97-0.82-1.59-1.09c-0.62-0.27-1.32-0.44-2.08-0.51C134.49,52.05,133.69,52.08,132.84,52.2z"/>
	<path class="st0" d="M127.31,68.01c0.09,0.3,0.18,0.55,0.29,0.74c0.11,0.19,0.25,0.35,0.42,0.46c0.17,0.12,0.4,0.2,0.68,0.24
		c0.28,0.05,0.62,0.07,1.01,0.08l10.41,0.28c0.4,0.01,0.74,0.01,1.03-0.01s0.55-0.06,0.78-0.11s0.44-0.13,0.63-0.22
		c0.19-0.1,0.38-0.22,0.57-0.37l0.18,2.88l-4.48-0.12c1.36,0.51,2.42,1.29,3.2,2.34c0.77,1.05,1.14,2.38,1.09,3.98
		c-0.02,0.9-0.17,1.7-0.44,2.39c-0.27,0.69-0.65,1.27-1.13,1.73c-0.48,0.47-1.05,0.82-1.71,1.06c-0.66,0.24-1.37,0.34-2.14,0.32
		l-8.35-0.22c-0.39-0.01-0.73,0-1,0.04c-0.27,0.04-0.51,0.11-0.7,0.22c-0.19,0.11-0.35,0.25-0.46,0.44
		c-0.12,0.18-0.23,0.42-0.33,0.7l0.13-5.02c0.08,0.3,0.18,0.55,0.29,0.74c0.11,0.19,0.25,0.35,0.42,0.46
		c0.18,0.12,0.4,0.2,0.69,0.24c0.28,0.04,0.62,0.07,1.01,0.08l8.63,0.23c1.41,0.04,2.52-0.27,3.34-0.93
		c0.82-0.66,1.24-1.63,1.28-2.93c0.02-0.73-0.1-1.44-0.35-2.13c-0.25-0.68-0.64-1.3-1.15-1.84c-0.51-0.54-1.15-0.99-1.91-1.33
		c-0.76-0.35-1.64-0.57-2.64-0.65l-6.94-0.18c-0.39-0.01-0.73,0-1,0.04c-0.27,0.04-0.51,0.11-0.7,0.22
		c-0.19,0.11-0.35,0.25-0.46,0.44c-0.12,0.19-0.23,0.42-0.33,0.7L127.31,68.01z"/>
	<path class="st0" d="M140.53,93.35l3.17,3.02l-3.75-1.16l-1.37,4.42l-0.3-0.09l1.37-4.42l-11.59-3.59c-0.59-0.18-1.1-0.3-1.52-0.34
		c-0.42-0.04-0.77-0.03-1.05,0.04c-0.28,0.07-0.5,0.21-0.66,0.4c-0.16,0.2-0.28,0.44-0.37,0.73c-0.16,0.52-0.15,1.01,0.04,1.46
		c0.18,0.45,0.5,0.91,0.94,1.39l-0.35,0.28c-0.46-0.54-0.8-1.07-1-1.59c-0.2-0.53-0.18-1.19,0.07-2c0.39-1.26,1.03-2.03,1.91-2.32
		c0.89-0.29,1.99-0.22,3.32,0.19l10.86,3.37l0.82-2.64l0.3,0.09L140.53,93.35z"/>
	<path class="st0" d="M119.74,106.85l10.78,9.91c0.3,0.28,0.57,0.49,0.81,0.64c0.23,0.15,0.46,0.25,0.67,0.29
		c0.22,0.04,0.44,0.03,0.66-0.03c0.22-0.06,0.46-0.18,0.72-0.35l-4.64,5.05c-0.61,0.66-1.27,1.25-1.97,1.77
		c-0.7,0.52-1.42,0.89-2.16,1.12c-0.74,0.23-1.47,0.28-2.2,0.16s-1.43-0.49-2.09-1.1c-0.58-0.53-0.99-1.12-1.23-1.76
		c-0.24-0.64-0.34-1.31-0.31-1.99c0.03-0.69,0.18-1.37,0.44-2.05c0.26-0.68,0.6-1.32,1.02-1.94l-7.18-0.35
		c-0.43-0.01-0.92-0.02-1.48-0.04c-0.56-0.02-1.11-0.03-1.64-0.03c-0.53,0-1,0-1.41,0.01s-0.66,0.03-0.77,0.06l2.56-2.78
		c0.19,0.18,0.41,0.32,0.66,0.43c0.24,0.11,0.52,0.19,0.83,0.24s0.66,0.1,1.06,0.13c0.4,0.04,0.86,0.07,1.36,0.1l7.45,0.48
		l1.64-1.79l-5.03-4.62c-0.6-0.55-1.09-0.85-1.48-0.92c-0.39-0.06-0.85,0.06-1.38,0.36l3.51-3.82c-0.28,0.56-0.37,1.03-0.26,1.41
		C118.79,105.84,119.14,106.31,119.74,106.85z M123.65,113.36l-1.93,2.1c-1.12,1.22-1.69,2.45-1.7,3.71
		c-0.01,1.25,0.56,2.41,1.71,3.46c0.64,0.59,1.27,0.96,1.9,1.14c0.63,0.17,1.25,0.19,1.85,0.05c0.6-0.14,1.18-0.4,1.74-0.79
		c0.56-0.39,1.1-0.86,1.61-1.42l1.74-1.89L123.65,113.36z"/>
	<path class="st0" d="M107.76,134.56c-0.99,0.54-1.93,0.88-2.82,1c-0.89,0.12-1.71,0.06-2.47-0.19c-0.76-0.25-1.45-0.65-2.07-1.21
		c-0.62-0.56-1.16-1.25-1.63-2.06l10.41-5.71c-0.1-0.27-0.22-0.53-0.34-0.79c-0.12-0.26-0.26-0.53-0.4-0.79
		c-0.51-0.94-1.13-1.75-1.83-2.42c-0.7-0.68-1.44-1.19-2.22-1.53s-1.57-0.51-2.39-0.51c-0.81,0.01-1.59,0.21-2.33,0.62
		c-0.66,0.36-1.19,0.81-1.6,1.34c-0.4,0.53-0.71,1.14-0.91,1.83c-0.2,0.69-0.31,1.44-0.32,2.25s0.05,1.66,0.19,2.55l-1.75-3.71
		c0.39-1.01,0.97-1.91,1.73-2.71c0.76-0.8,1.58-1.43,2.46-1.91c1.04-0.57,2.09-0.93,3.15-1.07c1.06-0.14,2.07-0.08,3.04,0.18
		c0.97,0.26,1.87,0.73,2.69,1.42c0.83,0.68,1.53,1.55,2.11,2.61c0.57,1.04,0.94,2.08,1.12,3.12c0.17,1.04,0.15,2.04-0.08,3
		c-0.22,0.96-0.65,1.84-1.27,2.64C109.63,133.31,108.8,133.99,107.76,134.56z M109.3,126.7l-8.43,4.63c0.42,0.72,0.88,1.33,1.4,1.84
		c0.52,0.51,1.07,0.91,1.65,1.19c0.58,0.28,1.19,0.41,1.81,0.4c0.63-0.01,1.25-0.19,1.88-0.53c0.59-0.33,1.07-0.75,1.43-1.27
		c0.36-0.52,0.61-1.11,0.75-1.78c0.14-0.67,0.17-1.38,0.08-2.14C109.78,128.29,109.59,127.51,109.3,126.7z"/>
	<path class="st0" d="M88.01,141.6c-0.87,0.16-1.71,0.18-2.52,0.06c-0.81-0.12-1.57-0.4-2.28-0.82l0.85,4.49
		c0.11,0.57,0.23,0.98,0.38,1.22c0.14,0.24,0.37,0.45,0.69,0.62l-2.68,0.85l-3.47-18.26c-0.15-0.79-0.33-1.37-0.53-1.72
		c-0.2-0.35-0.46-0.64-0.76-0.85l2.7-0.6l0.41,2.13c0.42-0.88,1.01-1.58,1.76-2.07c0.75-0.5,1.54-0.82,2.37-0.98
		c1.16-0.22,2.26-0.23,3.28-0.02c1.03,0.21,1.93,0.58,2.73,1.13c0.79,0.55,1.46,1.25,2.01,2.1c0.54,0.85,0.92,1.82,1.12,2.89
		c0.24,1.24,0.26,2.41,0.08,3.5c-0.18,1.1-0.55,2.08-1.09,2.95c-0.54,0.87-1.24,1.59-2.1,2.18C90.1,140.99,89.12,141.39,88.01,141.6
		z M92.16,133.32c-0.21-1.13-0.55-2.16-1.01-3.11c-0.46-0.95-1.02-1.74-1.69-2.39c-0.67-0.65-1.42-1.12-2.26-1.41
		c-0.84-0.29-1.74-0.34-2.7-0.16c-0.79,0.15-1.49,0.49-2.08,1.01c-0.59,0.52-1.06,1.18-1.41,1.98l1.78,9.4
		c0.7,1.07,1.5,1.8,2.41,2.18c0.91,0.38,1.88,0.48,2.91,0.28c0.83-0.16,1.55-0.46,2.14-0.91c0.59-0.45,1.06-1.01,1.4-1.69
		c0.34-0.68,0.56-1.46,0.65-2.33C92.4,135.28,92.35,134.34,92.16,133.32z"/>
</g>
</svg>
