<?xml version="1.0" encoding="utf-8"?>
<!-- Generator: Adobe Illustrator 25.4.1, SVG Export Plug-In . SVG Version: 6.00 Build 0)  -->
<svg version="1.1" id="レイヤー_1" xmlns="http://www.w3.org/2000/svg" xmlns:xlink="http://www.w3.org/1999/xlink" x="0px"
	 y="0px" viewBox="0 0 53 523" style="enable-background:new 0 0 53 523;" xml:space="preserve">
<style type="text/css">
	.st0{fill:#C37C5F;stroke:#C37C5F;stroke-width:0.25;stroke-miterlimit:10;}
	.st1{fill:#C37C5F;}
	.st2{fill:#EFE1DA;}
</style>
<g>
	<g>
		<path class="st0" d="M17.21,63.51l32.02,14.88v0.35L12.99,95.69c-1.39,0.66-2.37,1.23-2.92,1.74c-0.56,0.5-0.92,1-1.07,1.51v-8.8
			c0.12,0.27,0.28,0.52,0.49,0.75c0.21,0.23,0.53,0.41,0.96,0.52s0.95,0.12,1.56,0.03c0.62-0.1,1.39-0.36,2.32-0.78l10.3-4.75V68.14
			l-10.19-4.75c-1-0.46-1.83-0.77-2.49-0.93c-0.66-0.15-1.19-0.2-1.59-0.14c-0.41,0.06-0.7,0.19-0.9,0.41
			c-0.19,0.21-0.35,0.43-0.46,0.67V58.3c0.08,0.27,0.22,0.54,0.43,0.81c0.21,0.27,0.61,0.6,1.19,0.98c0.58,0.39,1.39,0.85,2.43,1.39
			C14.09,62.02,15.48,62.7,17.21,63.51z M25.49,85.51l18.29-8.51l-18.29-8.51V85.51z"/>
		<path class="st0" d="M8.99,107.27c0.19,0.62,0.41,1.12,0.64,1.51c0.23,0.39,0.53,0.69,0.9,0.93c0.37,0.23,0.84,0.39,1.42,0.46
			c0.58,0.08,1.27,0.12,2.08,0.12h33.98c1.2,0,2.06-0.1,2.6-0.29c0.54-0.19,1.04-0.58,1.51-1.16l0.69,5.73H14.03
			c-0.81,0-1.5,0.05-2.06,0.14c-0.56,0.1-1.03,0.26-1.42,0.49c-0.39,0.23-0.7,0.54-0.93,0.93c-0.23,0.39-0.44,0.87-0.64,1.45V107.27
			z"/>
		<path class="st0" d="M14.03,128.52h21.36c0.81,0,1.51-0.03,2.11-0.09c0.6-0.06,1.13-0.14,1.59-0.26s0.89-0.28,1.27-0.49
			c0.39-0.21,0.77-0.47,1.16-0.78l0.52,5.91H32.9c2.82,0.93,5.04,2.42,6.66,4.49c1.62,2.06,2.43,4.62,2.43,7.67
			c0,3.36-0.86,6.02-2.58,7.99c-1.72,1.97-3.97,3.11-6.74,3.42c2.89,0.89,5.17,2.36,6.83,4.43c1.66,2.06,2.49,4.66,2.49,7.79
			c0,1.81-0.26,3.43-0.78,4.86c-0.52,1.43-1.26,2.63-2.23,3.62c-0.97,0.98-2.11,1.74-3.45,2.26c-1.33,0.52-2.79,0.78-4.37,0.78
			H14.03c-0.81,0-1.5,0.05-2.06,0.14c-0.56,0.1-1.03,0.26-1.42,0.49c-0.39,0.23-0.7,0.54-0.93,0.93c-0.23,0.39-0.44,0.87-0.64,1.45
			v-10.31c0.19,0.62,0.41,1.12,0.64,1.51c0.23,0.39,0.53,0.69,0.9,0.93c0.37,0.23,0.84,0.39,1.42,0.46
			c0.58,0.08,1.27,0.12,2.08,0.12h17.71c2.89,0,5.18-0.69,6.86-2.06c1.68-1.37,2.52-3.39,2.52-6.05c0-1.39-0.29-2.73-0.87-4.02
			c-0.58-1.29-1.42-2.46-2.52-3.5s-2.44-1.9-4.02-2.58c-1.58-0.68-3.4-1.07-5.44-1.19H14.03c-0.81,0-1.5,0.05-2.06,0.15
			c-0.56,0.1-1.03,0.26-1.42,0.49c-0.39,0.23-0.7,0.54-0.93,0.93c-0.23,0.39-0.44,0.87-0.64,1.45v-10.31
			c0.19,0.62,0.41,1.12,0.64,1.5c0.23,0.39,0.53,0.69,0.9,0.93c0.37,0.23,0.84,0.39,1.42,0.46c0.58,0.08,1.27,0.12,2.08,0.12h17.71
			c2.89,0,5.18-0.69,6.86-2.06c1.68-1.37,2.52-3.37,2.52-5.99c0-1.39-0.29-2.73-0.87-4.02c-0.58-1.29-1.42-2.46-2.52-3.5
			s-2.44-1.9-4.02-2.58c-1.58-0.68-3.4-1.07-5.44-1.19H14.03c-0.81,0-1.5,0.05-2.06,0.15c-0.56,0.1-1.03,0.26-1.42,0.49
			c-0.39,0.23-0.7,0.54-0.93,0.93c-0.23,0.39-0.44,0.87-0.64,1.45v-10.31c0.19,0.62,0.41,1.12,0.64,1.51
			c0.23,0.39,0.53,0.69,0.9,0.93c0.37,0.23,0.84,0.39,1.42,0.46C12.52,128.48,13.22,128.52,14.03,128.52z"/>
		<path class="st0" d="M41.99,206.79c0,2.47-0.41,4.72-1.22,6.74s-1.96,3.77-3.44,5.24c-1.49,1.47-3.24,2.61-5.27,3.42
			c-2.03,0.81-4.25,1.22-6.69,1.22h-0.06c-2.43,0-4.66-0.41-6.69-1.22c-2.03-0.81-3.78-1.95-5.27-3.42
			c-1.49-1.47-2.63-3.21-3.44-5.24c-0.81-2.03-1.22-4.27-1.22-6.74c0-2.47,0.41-4.72,1.22-6.74c0.81-2.03,1.96-3.77,3.44-5.24
			c1.49-1.47,3.24-2.61,5.27-3.42c2.03-0.81,4.25-1.22,6.69-1.22h0.06c2.43,0,4.66,0.41,6.69,1.22c2.03,0.81,3.78,1.95,5.27,3.42
			c1.49,1.47,2.63,3.21,3.44,5.24S41.99,204.32,41.99,206.79z M25.38,194.86c-2.32,0-4.44,0.29-6.37,0.87
			c-1.93,0.58-3.6,1.39-5.01,2.43c-1.41,1.04-2.5,2.3-3.27,3.76s-1.16,3.09-1.16,4.86c0,1.77,0.38,3.4,1.16,4.86
			c0.77,1.47,1.86,2.72,3.27,3.76c1.41,1.04,3.08,1.85,5.01,2.43c1.93,0.58,4.05,0.87,6.37,0.87s4.44-0.29,6.37-0.87
			s3.59-1.39,4.98-2.43c1.39-1.04,2.47-2.3,3.24-3.76c0.77-1.47,1.16-3.09,1.16-4.86c0-1.78-0.39-3.4-1.16-4.86
			s-1.85-2.72-3.24-3.76c-1.39-1.04-3.05-1.85-4.98-2.43S27.69,194.86,25.38,194.86z"/>
		<path class="st0" d="M8.99,230.76c0.19,0.62,0.41,1.12,0.64,1.51c0.23,0.39,0.53,0.69,0.9,0.93c0.37,0.23,0.84,0.39,1.42,0.46
			c0.58,0.08,1.27,0.12,2.08,0.12h21.36c0.81,0,1.51-0.03,2.11-0.09c0.6-0.06,1.13-0.14,1.59-0.26s0.89-0.28,1.27-0.49
			c0.39-0.21,0.77-0.47,1.16-0.78l0.52,5.91h-9.21c2.82,0.96,5.04,2.51,6.69,4.63c1.64,2.12,2.46,4.82,2.46,8.11
			c0,1.85-0.26,3.49-0.78,4.92c-0.52,1.43-1.26,2.63-2.23,3.62c-0.97,0.98-2.11,1.74-3.45,2.26c-1.33,0.52-2.79,0.78-4.37,0.78
			H14.03c-0.81,0-1.5,0.05-2.06,0.14c-0.56,0.1-1.03,0.26-1.42,0.49c-0.39,0.23-0.7,0.54-0.93,0.93c-0.23,0.39-0.44,0.87-0.64,1.45
			v-10.3c0.19,0.62,0.41,1.12,0.64,1.5c0.23,0.39,0.53,0.69,0.9,0.93c0.37,0.23,0.84,0.39,1.42,0.46c0.58,0.08,1.27,0.12,2.08,0.12
			h17.71c2.89,0,5.16-0.69,6.8-2.08c1.64-1.39,2.46-3.42,2.46-6.08c0-1.51-0.28-2.95-0.84-4.34c-0.56-1.39-1.38-2.62-2.46-3.71
			c-1.08-1.08-2.41-1.96-3.99-2.63c-1.58-0.68-3.4-1.07-5.44-1.19H14.03c-0.81,0-1.5,0.05-2.06,0.15c-0.56,0.1-1.03,0.26-1.42,0.49
			c-0.39,0.23-0.7,0.54-0.93,0.93c-0.23,0.39-0.44,0.87-0.64,1.45V230.76z"/>
		<path class="st0" d="M41.99,288.07c0,1.81-0.28,3.51-0.84,5.09c-0.56,1.58-1.4,3.01-2.52,4.28h9.38c1.2,0,2.06-0.1,2.6-0.29
			c0.54-0.19,1.04-0.58,1.51-1.16l0.69,5.73H14.67c-1.66,0-2.89,0.13-3.68,0.4s-1.46,0.68-2,1.22l-0.17-5.67h4.46
			c-1.62-1.2-2.79-2.64-3.5-4.34c-0.71-1.7-1.07-3.42-1.07-5.15c0-2.43,0.41-4.64,1.22-6.63c0.81-1.99,1.92-3.68,3.33-5.07
			c1.41-1.39,3.08-2.47,5.01-3.24c1.93-0.77,4.01-1.16,6.25-1.16c2.58,0,4.95,0.4,7.09,1.19c2.14,0.79,3.98,1.9,5.53,3.33
			c1.54,1.43,2.74,3.12,3.59,5.07C41.57,283.62,41.99,285.76,41.99,288.07z M26.88,276.55c-2.35,0-4.57,0.28-6.66,0.84
			c-2.08,0.56-3.91,1.39-5.47,2.49c-1.56,1.1-2.8,2.44-3.71,4.02c-0.91,1.58-1.36,3.38-1.36,5.38c0,1.66,0.42,3.18,1.25,4.57
			c0.83,1.39,1.98,2.58,3.44,3.59H34c2.43-1,4.21-2.34,5.33-4.02c1.12-1.68,1.68-3.6,1.68-5.76c0-1.74-0.34-3.29-1.01-4.66
			c-0.68-1.37-1.63-2.53-2.87-3.47c-1.24-0.95-2.72-1.68-4.46-2.2C30.93,276.81,29,276.55,26.88,276.55z"/>
		<path class="st0" d="M8.99,333.75c0.35,1.23,0.87,2.06,1.56,2.49c0.69,0.42,1.87,0.64,3.53,0.64h30.05c0.85,0,1.55-0.05,2.11-0.14
			c0.56-0.1,1.03-0.26,1.42-0.49s0.7-0.55,0.96-0.96s0.45-0.92,0.61-1.53v13.2c0,4.55-0.82,8.16-2.46,10.83s-4,3.99-7.09,3.99
			c-2.55,0-4.69-0.97-6.43-2.9c-1.74-1.93-2.92-4.61-3.53-8.05c-0.46,3.86-1.53,6.88-3.21,9.06c-1.68,2.18-3.85,3.27-6.51,3.27
			c-1.74,0-3.28-0.35-4.63-1.04c-1.35-0.69-2.5-1.68-3.44-2.95c-0.95-1.27-1.67-2.83-2.17-4.66c-0.5-1.83-0.75-3.89-0.75-6.17
			V333.75z M9.92,341.28v6.19c0,3.47,0.87,6.17,2.6,8.1c1.74,1.93,4.15,2.89,7.24,2.89c3.01,0,5.33-0.98,6.98-2.92
			c1.64-1.95,2.46-4.56,2.46-7.84v-6.43H9.92z M30.12,341.28v6.19c0,2.97,0.85,5.34,2.55,7.09c1.7,1.76,3.92,2.63,6.66,2.63
			c2.89,0,5.11-0.96,6.66-2.87c1.54-1.91,2.32-4.6,2.32-8.08v-4.98H30.12z"/>
		<path class="st0" d="M8.99,371.61c0.19,0.62,0.41,1.12,0.64,1.51c0.23,0.39,0.53,0.69,0.9,0.93c0.37,0.23,0.84,0.39,1.42,0.46
			c0.58,0.08,1.27,0.12,2.08,0.12h21.36c0.81,0,1.51-0.03,2.11-0.09c0.6-0.06,1.13-0.14,1.59-0.26s0.89-0.28,1.27-0.49
			c0.39-0.21,0.77-0.47,1.16-0.78l0.52,5.85h-7.76c1.08,0.46,2.08,0.98,3.01,1.56c0.93,0.58,1.74,1.25,2.43,2.03
			c0.7,0.77,1.24,1.67,1.62,2.69c0.39,1.02,0.58,2.19,0.58,3.5c0,1.23-0.14,2.33-0.41,3.3l-5.56-0.06c0.42-0.35,0.87-0.76,1.33-1.24
			c0.46-0.48,0.89-0.99,1.27-1.53c0.38-0.54,0.7-1.1,0.96-1.68c0.25-0.58,0.38-1.18,0.38-1.79c0-0.77-0.19-1.49-0.58-2.14
			c-0.39-0.66-0.9-1.26-1.53-1.82c-0.64-0.56-1.39-1.07-2.26-1.53c-0.87-0.46-1.79-0.87-2.75-1.22H14.03c-0.81,0-1.5,0.05-2.06,0.15
			c-0.56,0.1-1.03,0.26-1.42,0.49c-0.39,0.23-0.7,0.54-0.93,0.93c-0.23,0.39-0.44,0.87-0.64,1.45V371.61z"/>
		<path class="st0" d="M41.99,414.22c0,2.47-0.41,4.72-1.22,6.74s-1.96,3.77-3.44,5.24c-1.49,1.47-3.24,2.61-5.27,3.42
			c-2.03,0.81-4.25,1.22-6.69,1.22h-0.06c-2.43,0-4.66-0.41-6.69-1.22c-2.03-0.81-3.78-1.95-5.27-3.42
			c-1.49-1.47-2.63-3.21-3.44-5.24c-0.81-2.03-1.22-4.27-1.22-6.74c0-2.47,0.41-4.72,1.22-6.74c0.81-2.03,1.96-3.77,3.44-5.24
			c1.49-1.47,3.24-2.61,5.27-3.42c2.03-0.81,4.25-1.22,6.69-1.22h0.06c2.43,0,4.66,0.41,6.69,1.22c2.03,0.81,3.78,1.95,5.27,3.42
			c1.49,1.47,2.63,3.21,3.44,5.24S41.99,411.75,41.99,414.22z M25.38,402.3c-2.32,0-4.44,0.29-6.37,0.87
			c-1.93,0.58-3.6,1.39-5.01,2.43c-1.41,1.04-2.5,2.3-3.27,3.76s-1.16,3.09-1.16,4.86c0,1.77,0.38,3.4,1.16,4.86
			c0.77,1.47,1.86,2.72,3.27,3.76c1.41,1.04,3.08,1.85,5.01,2.43c1.93,0.58,4.05,0.87,6.37,0.87s4.44-0.29,6.37-0.87
			s3.59-1.39,4.98-2.43c1.39-1.04,2.47-2.3,3.24-3.76c0.77-1.47,1.16-3.09,1.16-4.86c0-1.78-0.39-3.4-1.16-4.86
			s-1.85-2.72-3.24-3.76c-1.39-1.04-3.05-1.85-4.98-2.43S27.69,402.3,25.38,402.3z"/>
		<path class="st0" d="M41.7,442.94c-0.27-0.35-0.66-0.63-1.16-0.84c-0.5-0.21-1.31-0.11-2.43,0.32l-22.58,8.11l26.23,8.22v0.46
			l-26.57,10.54l19.39,6.31c1.58,0.5,2.82,0.79,3.71,0.87c0.89,0.08,1.57,0.03,2.06-0.15c0.48-0.17,0.8-0.4,0.96-0.67
			c0.15-0.27,0.29-0.5,0.41-0.69v5.67c-0.31-0.58-0.78-1.16-1.42-1.74c-0.64-0.58-1.8-1.14-3.5-1.68l-27.79-9.03v-0.69l26.17-10.36
			l-26.17-8.22v-0.69l27.62-10.02c1.74-0.66,2.97-1.22,3.71-1.68c0.73-0.46,1.2-0.89,1.39-1.27V442.94z"/>
		<path class="st0" d="M8.99,488.04c0.19,0.62,0.41,1.12,0.64,1.51c0.23,0.39,0.53,0.69,0.9,0.93c0.37,0.23,0.84,0.39,1.42,0.46
			c0.58,0.08,1.27,0.12,2.08,0.12h21.36c0.81,0,1.51-0.03,2.11-0.09c0.6-0.06,1.13-0.14,1.59-0.26s0.89-0.28,1.27-0.49
			c0.39-0.21,0.77-0.47,1.16-0.78l0.52,5.91h-9.21c2.82,0.96,5.04,2.51,6.69,4.63c1.64,2.12,2.46,4.82,2.46,8.11
			c0,1.85-0.26,3.49-0.78,4.92c-0.52,1.43-1.26,2.63-2.23,3.62c-0.97,0.98-2.11,1.74-3.45,2.26c-1.33,0.52-2.79,0.78-4.37,0.78
			H14.03c-0.81,0-1.5,0.05-2.06,0.14c-0.56,0.1-1.03,0.26-1.42,0.49c-0.39,0.23-0.7,0.54-0.93,0.93c-0.23,0.39-0.44,0.87-0.64,1.45
			v-10.3c0.19,0.62,0.41,1.12,0.64,1.5c0.23,0.39,0.53,0.69,0.9,0.93c0.37,0.23,0.84,0.39,1.42,0.46c0.58,0.08,1.27,0.12,2.08,0.12
			h17.71c2.89,0,5.16-0.69,6.8-2.08c1.64-1.39,2.46-3.42,2.46-6.08c0-1.51-0.28-2.95-0.84-4.34c-0.56-1.39-1.38-2.62-2.46-3.71
			c-1.08-1.08-2.41-1.96-3.99-2.63c-1.58-0.68-3.4-1.07-5.44-1.19H14.03c-0.81,0-1.5,0.05-2.06,0.15c-0.56,0.1-1.03,0.26-1.42,0.49
			c-0.39,0.23-0.7,0.54-0.93,0.93c-0.23,0.39-0.44,0.87-0.64,1.45V488.04z"/>
	</g>
	<ellipse class="st1" cx="26.24" cy="17.43" rx="26.05" ry="17.09"/>
	<g>
		<path class="st2" d="M14.09,17.72c0-1.19,0.13-2.27,0.4-3.24c0.27-0.97,0.65-1.79,1.15-2.48c0.5-0.68,1.1-1.22,1.8-1.6
			c0.7-0.38,1.47-0.57,2.32-0.57c0.86,0,1.64,0.19,2.34,0.57c0.7,0.38,1.3,0.91,1.8,1.6s0.88,1.51,1.15,2.48s0.4,2.05,0.4,3.24
			c0,1.18-0.13,2.25-0.4,3.23c-0.27,0.98-0.65,1.81-1.15,2.49s-1.1,1.22-1.8,1.6c-0.7,0.38-1.48,0.57-2.34,0.57
			c-0.85,0-1.62-0.19-2.32-0.57c-0.7-0.38-1.3-0.91-1.8-1.6c-0.5-0.68-0.88-1.51-1.15-2.49C14.22,19.98,14.09,18.9,14.09,17.72z
			 M15.98,17.72c0,2.37,0.32,4.22,0.97,5.55s1.58,2,2.8,2c1.24,0,2.18-0.67,2.82-2s0.97-3.18,0.97-5.55s-0.32-4.22-0.97-5.55
			c-0.65-1.33-1.59-2-2.82-2c-1.22,0-2.16,0.67-2.8,2C16.31,13.51,15.98,15.36,15.98,17.72z"/>
		<path class="st2" d="M36.44,9.98V10l0.02-0.02h0.18v10.32h2.05l-0.22,1.18h-1.83v1.38c0,0.49,0.02,0.89,0.06,1.19
			c0.04,0.31,0.1,0.55,0.19,0.74c0.09,0.19,0.21,0.33,0.36,0.44c0.15,0.1,0.34,0.19,0.58,0.27h-4.09c0.24-0.07,0.44-0.16,0.59-0.26
			c0.16-0.1,0.28-0.24,0.37-0.42c0.09-0.19,0.15-0.44,0.19-0.75s0.06-0.71,0.06-1.21v-1.38h-7.23V21.3L36.44,9.98z M34.94,20.29
			v-7.86l-6.05,7.86H34.94z"/>
	</g>
</g>
</svg>
