<?xml version="1.0" encoding="utf-8"?>
<!-- Generator: Adobe Illustrator 25.4.1, SVG Export Plug-In . SVG Version: 6.00 Build 0)  -->
<svg version="1.1" id="レイヤー_1" xmlns="http://www.w3.org/2000/svg" xmlns:xlink="http://www.w3.org/1999/xlink" x="0px"
	 y="0px" viewBox="0 0 378 78" style="enable-background:new 0 0 378 78;" xml:space="preserve">
<style type="text/css">
	.st0{fill:#C37C5F;}
</style>
<g>
	<path class="st0" d="M7.9,0.2v1.1H4.4v9.9H3.3V1.3h-3.5V0.2H7.9z"/>
	<path class="st0" d="M13.4,3.5c2.1,0,3.9,1.7,3.9,3.9s-1.7,3.9-3.9,3.9S9.5,9.7,9.5,7.4C9.5,5.2,11.2,3.5,13.4,3.5z M13.4,4.5
		c-1.5,0-2.8,1.3-2.8,2.9s1.3,2.9,2.8,2.9s2.8-1.3,2.8-2.9C16.1,5.8,14.9,4.5,13.4,4.5z"/>
	<path class="st0" d="M29.9,6.7c0-1.4-0.8-2.2-1.9-2.2s-2,1-2,2.5v4.2h-1.1V6.7c0-1.4-0.8-2.2-1.9-2.2s-2.1,1-2.1,2.5v4.2h-1.1V3.7
		h1.1v0.9c0,0,0.6-1.1,2.1-1.1c1.8,0,2.4,1.3,2.4,1.3s0.7-1.3,2.6-1.3c1.7,0,2.9,1.1,2.9,3.2v4.5h-1.1V6.7H29.9z"/>
	<path class="st0" d="M37.5,3.5c2.1,0,3.9,1.7,3.9,3.9s-1.7,3.9-3.9,3.9s-3.9-1.7-3.9-3.9C33.7,5.2,35.4,3.5,37.5,3.5z M37.5,4.5
		c-1.5,0-2.8,1.3-2.8,2.9s1.3,2.9,2.8,2.9s2.8-1.3,2.8-2.9S39,4.5,37.5,4.5z"/>
	<path class="st0" d="M47.9,4.6h-0.5C46.1,4.6,45,5.5,45,7v4.2h-1V3.7h1.1v1c0,0,0.8-1.2,2.5-1.2h0.3C47.9,3.5,47.9,4.6,47.9,4.6z"
		/>
	<path class="st0" d="M54,4.6h-0.5c-1.3,0-2.4,0.9-2.4,2.4v4.2H50V3.7h1.1v1c0,0,0.8-1.2,2.5-1.2H54V4.6z"/>
	<path class="st0" d="M59.5,3.5c2.1,0,3.9,1.7,3.9,3.9s-1.7,3.9-3.9,3.9s-3.9-1.7-3.9-3.9S57.3,3.5,59.5,3.5z M59.5,4.5
		c-1.5,0-2.8,1.3-2.8,2.9s1.3,2.9,2.8,2.9s2.8-1.3,2.8-2.9C62.2,5.8,61,4.5,59.5,4.5z"/>
	<path class="st0" d="M70.9,3.7l1.9,5.8l2-5.8H76l-2.6,7.6h-1l-1.9-5.8l-1.9,5.8h-1L65,3.7h1.2l2,5.8L70,3.7H70.9z"/>
	<path class="st0" d="M79.4,10.4l-1.8,2.8l-0.7-0.4l1.4-3.1L79.4,10.4z"/>
	<path class="st0" d="M89.6,6.1l3.3-5.9h1.3l-4.1,7.2v3.9H89V7.4l-4.1-7.2h1.3L89.6,6.1L89.6,6.1z"/>
	<path class="st0" d="M99.7,3.5c2.1,0,3.9,1.7,3.9,3.9s-1.7,3.9-3.9,3.9s-3.9-1.7-3.9-3.9C95.9,5.2,97.6,3.5,99.7,3.5z M99.7,4.5
		c-1.5,0-2.8,1.3-2.8,2.9s1.3,2.9,2.8,2.9s2.8-1.3,2.8-2.9S101.2,4.5,99.7,4.5z"/>
	<path class="st0" d="M111.7,10.2c0,0-0.8,1.2-2.4,1.2c-1.7,0-3.1-1.3-3.1-3.3V3.7h1.1v4.4c0,1.3,0.9,2.3,2.1,2.3
		c1.3,0,2.3-1,2.3-2.5V3.7h1.1v7.6h-1.1V10.2z"/>
	<path class="st0" d="M124.7,3.7l1.9,5.8l2-5.8h1.2l-2.6,7.6h-1l-1.9-5.8l-1.9,5.8h-1l-2.6-7.6h1.2l2,5.8l1.9-5.8
		C123.9,3.7,124.7,3.7,124.7,3.7z"/>
	<path class="st0" d="M132.4,0.4c0.4,0,0.7,0.3,0.7,0.7s-0.3,0.7-0.7,0.7s-0.7-0.3-0.7-0.7S132,0.4,132.4,0.4z M131.9,3.7h1.1v7.6
		h-1.1V3.7z"/>
	<path class="st0" d="M137.3,11.2h-1.1v-11h1.1V11.2z"/>
	<path class="st0" d="M141.7,11.2h-1.1v-11h1.1V11.2z"/>
	<path class="st0" d="M149.8,4.8c0,0,0.9-1.3,2.7-1.3c1.9,0,3.6,1.7,3.6,3.9s-1.7,3.9-3.6,3.9c-1.7,0-2.7-1.3-2.7-1.3v1.2h-1.1v-11
		h1.1V4.8z M152.5,10.4c1.3,0,2.5-1.3,2.5-2.9c0-1.7-1.3-2.9-2.5-2.9c-1.3,0-2.7,1.3-2.7,2.9C149.8,9,151.1,10.4,152.5,10.4z"/>
	<path class="st0" d="M159.3,7.8c0.1,1.3,1.3,2.5,2.7,2.5c1.6,0,2.4-1.3,2.4-1.3l0.7,0.7c0,0-1.1,1.6-3.2,1.6s-3.8-1.7-3.8-3.9
		s1.7-3.9,3.7-3.9c2.1,0,3.6,1.6,3.6,3.8c0,0.3-0.1,0.6-0.1,0.6L159.3,7.8z M159.3,6.9h5.1c-0.2-1.3-1.2-2.4-2.5-2.4
		C160.5,4.5,159.4,5.6,159.3,6.9z"/>
	<path class="st0" d="M172.9,4.8c0,0,0.9-1.3,2.7-1.3c1.9,0,3.6,1.7,3.6,3.9s-1.7,3.9-3.6,3.9c-1.7,0-2.7-1.3-2.7-1.3v1.2h-1.1v-11
		h1.1V4.8z M175.6,10.4c1.3,0,2.5-1.3,2.5-2.9c0-1.7-1.3-2.9-2.5-2.9c-1.3,0-2.7,1.3-2.7,2.9C172.9,9,174.3,10.4,175.6,10.4z"/>
	<path class="st0" d="M182.4,7.8c0.1,1.3,1.3,2.5,2.7,2.5c1.6,0,2.4-1.3,2.4-1.3l0.7,0.7c0,0-1.1,1.6-3.2,1.6s-3.8-1.7-3.8-3.9
		s1.7-3.9,3.7-3.9c2.1,0,3.6,1.6,3.6,3.8c0,0.3-0.1,0.6-0.1,0.6L182.4,7.8z M182.4,6.9h5.1c-0.2-1.3-1.2-2.4-2.5-2.4
		S182.5,5.6,182.4,6.9z"/>
	<path class="st0" d="M191.9,1.1h1v2.5h1.7v1H193v4.5c0,0.8,0.4,1.2,1,1.2s1-0.2,1-0.2v1c0,0-0.5,0.2-1.1,0.2
		c-1.3,0-2.1-0.8-2.1-2.2V4.7h-1.4v-1h0.9c0.4,0,0.6-0.2,0.6-0.8V1.1z"/>
	<path class="st0" d="M198.3,1.1h1v2.5h1.7v1h-1.7v4.5c0,0.8,0.4,1.2,1,1.2s1-0.2,1-0.2v1c0,0-0.5,0.2-1.1,0.2
		c-1.3,0-2.1-0.8-2.1-2.2V4.7h-1.4v-1h0.9c0.4,0,0.6-0.2,0.6-0.8V1.1H198.3z"/>
	<path class="st0" d="M204.4,7.8c0.1,1.3,1.3,2.5,2.7,2.5c1.6,0,2.4-1.3,2.4-1.3l0.7,0.7c0,0-1.1,1.6-3.2,1.6s-3.8-1.7-3.8-3.9
		s1.7-3.9,3.7-3.9c2.1,0,3.6,1.6,3.6,3.8c0,0.3-0.1,0.6-0.1,0.6L204.4,7.8z M204.4,6.9h5.1c-0.2-1.3-1.2-2.4-2.5-2.4
		S204.6,5.6,204.4,6.9z"/>
	<path class="st0" d="M217.2,4.6h-0.5c-1.3,0-2.4,0.9-2.4,2.4v4.2h-1.1V3.7h1.1v1c0,0,0.8-1.2,2.5-1.2h0.3L217.2,4.6L217.2,4.6z"/>
	<path class="st0" d="M223.7,1.1h1v2.5h1.7v1h-1.7v4.5c0,0.8,0.4,1.2,1,1.2s1-0.2,1-0.2v1c0,0-0.5,0.2-1.1,0.2
		c-1.3,0-2.1-0.8-2.1-2.2V4.7h-1.4v-1h0.9c0.4,0,0.6-0.2,0.6-0.8V1.1H223.7z"/>
	<path class="st0" d="M230.5,4.8c0,0,0.8-1.3,2.4-1.3c1.8,0,3.1,1.3,3.1,3.2v4.5h-1.1V6.7c0-1.3-0.9-2.2-2.1-2.2
		c-1.3,0-2.4,1-2.4,2.5v4.2h-1.1v-11h1.1v4.6H230.5z"/>
	<path class="st0" d="M243.7,6.4c0-1.1-0.8-1.9-1.9-1.9c-1.3,0-2.1,1.1-2.1,1.1L239,4.9c0,0,1-1.4,2.8-1.4c1.7,0,3,1.3,3,2.9v4.8
		h-1.1v-1c0,0-0.8,1.2-2.4,1.2c-1.6,0-2.7-1.1-2.7-2.2c0-1.3,0.8-2.1,2.2-2.3L243.7,6.4z M243.7,7.8V7.4l-2.6,0.5
		c-0.9,0.2-1.4,0.6-1.4,1.3c0,0.6,0.6,1.2,1.6,1.2C242.7,10.4,243.7,9.3,243.7,7.8z"/>
	<path class="st0" d="M249.1,4.8c0,0,0.8-1.3,2.4-1.3c1.8,0,3.1,1.3,3.1,3.2v4.5h-1.1V6.7c0-1.3-0.9-2.2-2.1-2.2
		c-1.3,0-2.4,1-2.4,2.5v4.2h-1V3.7h1.1V4.8z"/>
	<path class="st0" d="M263.5,11.2l-3.1-7.6h1.2l2.4,6.2l2.4-6.2h1.2l-3.5,8.7c-0.6,1.6-1.3,2.2-2.4,2.2c-0.6,0-0.9-0.2-0.9-0.2v-1
		c0,0,0.4,0.2,0.8,0.2c0.7,0,1.1-0.4,1.4-1.2L263.5,11.2z"/>
	<path class="st0" d="M273.1,3.5c2.1,0,3.9,1.7,3.9,3.9s-1.7,3.9-3.9,3.9s-3.9-1.7-3.9-3.9S271,3.5,273.1,3.5z M273.1,4.5
		c-1.5,0-2.8,1.3-2.8,2.9s1.3,2.9,2.8,2.9s2.8-1.3,2.8-2.9S274.6,4.5,273.1,4.5z"/>
	<path class="st0" d="M285.1,10.2c0,0-0.8,1.2-2.4,1.2c-1.7,0-3.1-1.3-3.1-3.3V3.7h1.1v4.4c0,1.3,0.9,2.3,2.1,2.3
		c1.3,0,2.3-1,2.3-2.5V3.7h1.1v7.6h-1.1V10.2z"/>
	<path class="st0" d="M297.6,6.4c0-1.1-0.8-1.9-1.9-1.9c-1.3,0-2.1,1.1-2.1,1.1l-0.7-0.7c0,0,1-1.4,2.8-1.4c1.7,0,3,1.3,3,2.9v4.8
		h-1.1v-1c0,0-0.8,1.2-2.4,1.2s-2.7-1.1-2.7-2.2c0-1.3,0.8-2.1,2.2-2.3L297.6,6.4z M297.6,7.8V7.4L295,7.8c-0.9,0.2-1.4,0.6-1.4,1.3
		c0,0.6,0.6,1.2,1.6,1.2C296.6,10.4,297.6,9.3,297.6,7.8z"/>
	<path class="st0" d="M305.9,4.6h-0.5c-1.3,0-2.4,0.9-2.4,2.4v4.2h-1.1V3.7h1.1v1c0,0,0.8-1.2,2.5-1.2h0.3v1.1H305.9z"/>
	<path class="st0" d="M308.5,7.8c0.1,1.3,1.3,2.5,2.7,2.5c1.6,0,2.4-1.3,2.4-1.3l0.7,0.7c0,0-1.1,1.6-3.2,1.6s-3.8-1.7-3.8-3.9
		s1.7-3.9,3.7-3.9c2.1,0,3.6,1.6,3.6,3.8c0,0.3-0.1,0.6-0.1,0.6L308.5,7.8z M308.5,6.9h5.1c-0.2-1.3-1.2-2.4-2.5-2.4
		C309.8,4.5,308.7,5.6,308.5,6.9z"/>
	<path class="st0" d="M317.9,9.8c0.5,0,0.8,0.3,0.8,0.8s-0.3,0.8-0.8,0.8s-0.8-0.3-0.8-0.8S317.4,9.8,317.9,9.8z"/>
	<path class="st0" d="M1.1,32.3V21.2h1.2v9.9H8v1.1L1.1,32.3L1.1,32.3z"/>
	<path class="st0" d="M10.7,28.9c0.1,1.3,1.3,2.5,2.7,2.5c1.6,0,2.4-1.3,2.4-1.3l0.7,0.7c0,0-1.1,1.6-3.2,1.6s-3.8-1.7-3.8-3.9
		s1.7-3.9,3.7-3.9c2.1,0,3.6,1.6,3.6,3.8c0,0.3-0.1,0.6-0.1,0.6L10.7,28.9z M10.7,27.9h5.1c-0.2-1.3-1.2-2.4-2.5-2.4
		C11.9,25.6,10.8,26.7,10.7,27.9z"/>
	<path class="st0" d="M20.2,22.2h1v2.5h1.7v1h-1.7v4.5c0,0.8,0.4,1.2,1,1.2s1-0.2,1-0.2v1c0,0-0.5,0.2-1.1,0.2
		c-1.3,0-2.1-0.8-2.1-2.2v-4.5h-1.4v-1h0.9c0.4,0,0.6-0.2,0.6-0.8v-1.7H20.2z"/>
	<path class="st0" d="M31.5,32.3l-3.1-7.6h1.2l2.4,6.2l2.4-6.2h1.2l-3.5,8.7c-0.6,1.6-1.3,2.2-2.4,2.2c-0.6,0-0.9-0.2-0.9-0.2v-1
		c0,0,0.4,0.2,0.8,0.2c0.7,0,1.1-0.4,1.4-1.2L31.5,32.3z"/>
	<path class="st0" d="M41.2,24.5c2.1,0,3.9,1.7,3.9,3.9s-1.7,3.9-3.9,3.9s-3.9-1.7-3.9-3.9C37.3,26.3,39,24.5,41.2,24.5z M41.2,25.6
		c-1.5,0-2.8,1.3-2.8,2.9s1.3,2.9,2.8,2.9s2.8-1.3,2.8-2.9C43.9,26.8,42.7,25.6,41.2,25.6z"/>
	<path class="st0" d="M53.2,31.3c0,0-0.8,1.2-2.4,1.2c-1.7,0-3.1-1.3-3.1-3.3v-4.4h1.1v4.4c0,1.3,0.9,2.3,2.1,2.3
		c1.3,0,2.3-1,2.3-2.5v-4.2h1.1v7.6h-1.1C53.2,32.4,53.2,31.3,53.2,31.3z"/>
	<path class="st0" d="M61.4,25.7H61c-1.3,0-2.4,0.9-2.4,2.4v4.2h-1.1v-7.6h1.1v1c0,0,0.8-1.2,2.5-1.2h0.3
		C61.4,24.5,61.4,25.7,61.4,25.7z"/>
	<path class="st0" d="M71,26.4c0,0-0.6-0.8-1.7-0.8c-0.9,0-1.4,0.6-1.4,1.1c0,1.7,4.1,0.8,4.1,3.5c0,1.3-1,2.3-2.8,2.3
		c-1.9,0-2.8-1.3-2.8-1.3l0.8-0.8c0,0,0.7,1.1,2,1.1c1.1,0,1.7-0.6,1.7-1.3c0-1.7-4.1-0.9-4.1-3.5c0-1.1,1-2.1,2.5-2.1
		c1.6,0,2.4,1,2.4,1L71,26.4z"/>
	<path class="st0" d="M75.2,28.9c0.1,1.3,1.3,2.5,2.7,2.5c1.6,0,2.4-1.3,2.4-1.3l0.7,0.7c0,0-1.1,1.6-3.2,1.6S74,30.7,74,28.5
		s1.7-3.9,3.7-3.9c2.1,0,3.6,1.6,3.6,3.8c0,0.3-0.1,0.6-0.1,0.6L75.2,28.9z M75.2,27.9h5.1c-0.2-1.3-1.2-2.4-2.5-2.4
		C76.4,25.6,75.3,26.7,75.2,27.9z"/>
	<path class="st0" d="M85.1,25.8c0,0,0.8-1.3,2.4-1.3c1.8,0,3.1,1.3,3.1,3.2v4.5h-1.1v-4.5c0-1.3-0.9-2.2-2.1-2.2
		c-1.3,0-2.4,1-2.4,2.5v4.2h-1v-7.6h1.1V25.8z"/>
	<path class="st0" d="M97.6,26.4c0,0-0.6-0.8-1.7-0.8c-0.9,0-1.4,0.6-1.4,1.1c0,1.7,4.1,0.8,4.1,3.5c0,1.3-1,2.3-2.8,2.3
		c-1.9,0-2.8-1.3-2.8-1.3l0.8-0.8c0,0,0.7,1.1,2,1.1c1.1,0,1.7-0.6,1.7-1.3c0-1.7-4.1-0.9-4.1-3.5c0-1.1,1-2.1,2.5-2.1
		c1.6,0,2.4,1,2.4,1L97.6,26.4z"/>
	<path class="st0" d="M101.8,21.5c0.4,0,0.7,0.3,0.7,0.7s-0.3,0.7-0.7,0.7s-0.7-0.3-0.7-0.7S101.4,21.5,101.8,21.5z M101.2,24.7h1.1
		v7.6h-1.1V24.7z"/>
	<path class="st0" d="M106.2,22.2h1v2.5h1.7v1h-1.7v4.5c0,0.8,0.4,1.2,1,1.2s1-0.2,1-0.2v1c0,0-0.5,0.2-1.1,0.2
		c-1.3,0-2.1-0.8-2.1-2.2v-4.5h-1.4v-1h0.9c0.4,0,0.6-0.2,0.6-0.8L106.2,22.2L106.2,22.2z"/>
	<path class="st0" d="M112.4,21.5c0.4,0,0.7,0.3,0.7,0.7s-0.3,0.7-0.7,0.7s-0.7-0.3-0.7-0.7S112,21.5,112.4,21.5z M111.8,24.7h1.1
		v7.6h-1.1V24.7z"/>
	<path class="st0" d="M118.1,32.3l-3.1-7.6h1.2l2.4,6.1l2.4-6.1h1.2l-3.1,7.6H118.1z"/>
	<path class="st0" d="M125,21.5c0.4,0,0.7,0.3,0.7,0.7s-0.3,0.7-0.7,0.7s-0.7-0.3-0.7-0.7S124.6,21.5,125,21.5z M124.4,24.7h1.1v7.6
		h-1.1V24.7z"/>
	<path class="st0" d="M129.4,22.2h1v2.5h1.7v1h-1.7v4.5c0,0.8,0.4,1.2,1,1.2s1-0.2,1-0.2v1c0,0-0.5,0.2-1.1,0.2
		c-1.3,0-2.1-0.8-2.1-2.2v-4.5h-1.4v-1h0.9c0.4,0,0.6-0.2,0.6-0.8v-1.7H129.4z"/>
	<path class="st0" d="M137.1,32.3l-3.1-7.6h1.2l2.4,6.2l2.4-6.2h1.2l-3.5,8.7c-0.6,1.6-1.3,2.2-2.4,2.2c-0.6,0-0.9-0.2-0.9-0.2v-1
		c0,0,0.4,0.2,0.8,0.2c0.7,0,1.1-0.4,1.4-1.2L137.1,32.3z"/>
	<path class="st0" d="M152,24.7l1.9,5.8l2-5.8h1.2l-2.6,7.6h-1l-1.9-5.8l-1.9,5.8h-1l-2.6-7.6h1.2l2,5.8l1.9-5.8H152z"/>
	<path class="st0" d="M160.4,25.8c0,0,0.8-1.3,2.4-1.3c1.8,0,3.1,1.3,3.1,3.2v4.5h-1.1v-4.5c0-1.3-0.9-2.2-2.1-2.2
		c-1.3,0-2.4,1-2.4,2.5v4.2h-1.1v-11h1.1v4.6H160.4z"/>
	<path class="st0" d="M169.6,28.9c0.1,1.3,1.3,2.5,2.7,2.5c1.6,0,2.4-1.3,2.4-1.3l0.7,0.7c0,0-1.1,1.6-3.2,1.6s-3.8-1.7-3.8-3.9
		s1.7-3.9,3.7-3.9c2.1,0,3.6,1.6,3.6,3.8c0,0.3-0.1,0.6-0.1,0.6L169.6,28.9z M169.6,27.9h5.1c-0.2-1.3-1.2-2.4-2.5-2.4
		C170.9,25.6,169.8,26.7,169.6,27.9z"/>
	<path class="st0" d="M182.4,25.7h-0.5c-1.3,0-2.4,0.9-2.4,2.4v4.2h-1.1v-7.6h1.1v1c0,0,0.8-1.2,2.5-1.2h0.3L182.4,25.7L182.4,25.7z
		"/>
	<path class="st0" d="M185.1,28.9c0.1,1.3,1.3,2.5,2.7,2.5c1.6,0,2.4-1.3,2.4-1.3l0.7,0.7c0,0-1.1,1.6-3.2,1.6s-3.8-1.7-3.8-3.9
		s1.7-3.9,3.7-3.9c2.1,0,3.6,1.6,3.6,3.8c0,0.3-0.1,0.6-0.1,0.6L185.1,28.9z M185.1,27.9h5.1c-0.2-1.3-1.2-2.4-2.5-2.4
		C186.3,25.6,185.2,26.7,185.1,27.9z"/>
	<path class="st0" d="M196,32.3l-3.1-7.6h1.2l2.4,6.1l2.4-6.1h1.2l-3.1,7.6H196z"/>
	<path class="st0" d="M202.8,28.9c0.1,1.3,1.3,2.5,2.7,2.5c1.6,0,2.4-1.3,2.4-1.3l0.7,0.7c0,0-1.1,1.6-3.2,1.6s-3.8-1.7-3.8-3.9
		s1.7-3.9,3.7-3.9c2.1,0,3.6,1.6,3.6,3.8c0,0.3-0.1,0.6-0.1,0.6L202.8,28.9z M202.8,27.9h5.1c-0.2-1.3-1.2-2.4-2.5-2.4
		C204.1,25.6,203,26.7,202.8,27.9z"/>
	<path class="st0" d="M215.6,25.7h-0.5c-1.3,0-2.4,0.9-2.4,2.4v4.2h-1.1v-7.6h1.1v1c0,0,0.8-1.2,2.5-1.2h0.3L215.6,25.7L215.6,25.7z
		"/>
	<path class="st0" d="M223.4,32.3l-3.1-7.6h1.2l2.4,6.2l2.4-6.2h1.2l-3.5,8.7c-0.6,1.6-1.3,2.2-2.4,2.2c-0.6,0-0.9-0.2-0.9-0.2v-1
		c0,0,0.4,0.2,0.8,0.2c0.7,0,1.1-0.4,1.4-1.2L223.4,32.3z"/>
	<path class="st0" d="M233.1,24.5c2.1,0,3.9,1.7,3.9,3.9s-1.7,3.9-3.9,3.9s-3.9-1.7-3.9-3.9C229.2,26.3,230.9,24.5,233.1,24.5z
		 M233.1,25.6c-1.5,0-2.8,1.3-2.8,2.9s1.3,2.9,2.8,2.9s2.8-1.3,2.8-2.9C235.8,26.8,234.6,25.6,233.1,25.6z"/>
	<path class="st0" d="M245.1,31.3c0,0-0.8,1.2-2.4,1.2c-1.7,0-3.1-1.3-3.1-3.3v-4.4h1.1v4.4c0,1.3,0.9,2.3,2.1,2.3
		c1.3,0,2.3-1,2.3-2.5v-4.2h1.1v7.6h-1.1L245.1,31.3L245.1,31.3z"/>
	<path class="st0" d="M253.4,25.7h-0.5c-1.3,0-2.4,0.9-2.4,2.4v4.2h-1.1v-7.6h1.1v1c0,0,0.8-1.2,2.5-1.2h0.3L253.4,25.7L253.4,25.7z
		"/>
	<path class="st0" d="M260.3,25.8c0,0,0.8-1.3,2.4-1.3c1.8,0,3.1,1.3,3.1,3.2v4.5h-1.1v-4.5c0-1.3-0.9-2.2-2.1-2.2
		c-1.3,0-2.4,1-2.4,2.5v4.2h-1.1v-11h1.1v4.6H260.3z"/>
	<path class="st0" d="M282.6,27.5c0-1.1-0.8-1.9-1.9-1.9c-1.3,0-2.1,1.1-2.1,1.1l-0.7-0.7c0,0,1-1.4,2.8-1.4c1.7,0,3,1.3,3,2.9v4.8
		h-1.1v-1c0,0-0.8,1.2-2.4,1.2s-2.7-1.1-2.7-2.2c0-1.3,0.8-2.1,2.2-2.3L282.6,27.5z M282.6,28.9v-0.5l-2.6,0.5
		c-0.9,0.2-1.4,0.6-1.4,1.3c0,0.6,0.6,1.2,1.6,1.2C281.5,31.4,282.6,30.4,282.6,28.9z"/>
	<path class="st0" d="M290.8,25.7h-0.5c-1.3,0-2.4,0.9-2.4,2.4v4.2h-1.1v-7.6h1.1v1c0,0,0.8-1.2,2.5-1.2h0.3v1.2H290.8z"/>
	<path class="st0" d="M293.6,22.2h1v2.5h1.7v1h-1.7v4.5c0,0.8,0.4,1.2,1,1.2s1-0.2,1-0.2v1c0,0-0.5,0.2-1.1,0.2
		c-1.3,0-2.1-0.8-2.1-2.2v-4.5H292v-1h0.9c0.4,0,0.6-0.2,0.6-0.8v-1.7H293.6z"/>
	<path class="st0" d="M303.6,22.2h1v2.5h1.7v1h-1.7v4.5c0,0.8,0.4,1.2,1,1.2s1-0.2,1-0.2v1c0,0-0.5,0.2-1.1,0.2
		c-1.3,0-2.1-0.8-2.1-2.2v-4.5H302v-1h0.9c0.4,0,0.6-0.2,0.6-0.8v-1.7H303.6z"/>
	<path class="st0" d="M313.8,27.5c0-1.1-0.8-1.9-1.9-1.9c-1.3,0-2.1,1.1-2.1,1.1L309,26c0,0,1-1.4,2.8-1.4c1.7,0,3,1.3,3,2.9v4.8
		h-1.1v-1c0,0-0.8,1.2-2.4,1.2s-2.7-1.1-2.7-2.2c0-1.3,0.8-2.1,2.2-2.3L313.8,27.5z M313.8,28.9v-0.5l-2.6,0.5
		c-0.9,0.2-1.4,0.6-1.4,1.3c0,0.6,0.6,1.2,1.6,1.2C312.7,31.4,313.8,30.4,313.8,28.9z"/>
	<path class="st0" d="M319.2,32.3h-1.1V21.2h1.1v7.5l3.8-4h1.3l-2.9,3.1l3.2,4.5h-1.3l-2.7-3.7l-1.5,1.6v2.1H319.2z"/>
	<path class="st0" d="M327.2,28.9c0.1,1.3,1.3,2.5,2.7,2.5c1.6,0,2.4-1.3,2.4-1.3l0.7,0.7c0,0-1.1,1.6-3.2,1.6s-3.8-1.7-3.8-3.9
		s1.7-3.9,3.7-3.9c2.1,0,3.6,1.6,3.6,3.8c0,0.3-0.1,0.6-0.1,0.6L327.2,28.9z M327.2,27.9h5.1c-0.2-1.3-1.2-2.4-2.5-2.4
		C328.5,25.6,327.4,26.7,327.2,27.9z"/>
	<path class="st0" d="M269.2,28.9c0.1,1.3,1.3,2.5,2.7,2.5c1.6,0,2.4-1.3,2.4-1.3l0.7,0.7c0,0-1.1,1.6-3.2,1.6s-3.8-1.7-3.8-3.9
		s1.7-3.9,3.7-3.9c2.1,0,3.6,1.6,3.6,3.8c0,0.3-0.1,0.6-0.1,0.6L269.2,28.9z M269.2,27.9h5.1c-0.2-1.3-1.2-2.4-2.5-2.4
		C270.5,25.6,269.4,26.7,269.2,27.9z"/>
	<path class="st0" d="M339.9,26.4c0,0-0.6-0.8-1.7-0.8c-0.9,0-1.4,0.6-1.4,1.1c0,1.7,4.1,0.8,4.1,3.5c0,1.3-1,2.3-2.8,2.3
		c-1.9,0-2.8-1.3-2.8-1.3l0.8-0.8c0,0,0.7,1.1,2,1.1c1.1,0,1.7-0.6,1.7-1.3c0-1.7-4.1-0.9-4.1-3.5c0-1.1,1-2.1,2.5-2.1
		c1.6,0,2.4,1,2.4,1L339.9,26.4z"/>
	<path class="st0" d="M349.2,32.3l-3.1-7.6h1.2l2.4,6.2l2.4-6.2h1.2l-3.5,8.7c-0.6,1.6-1.3,2.2-2.4,2.2c-0.6,0-0.9-0.2-0.9-0.2v-1
		c0,0,0.4,0.2,0.8,0.2c0.7,0,1.1-0.4,1.4-1.2L349.2,32.3z"/>
	<path class="st0" d="M358.8,24.5c2.1,0,3.9,1.7,3.9,3.9s-1.7,3.9-3.9,3.9s-3.9-1.7-3.9-3.9C355,26.3,356.7,24.5,358.8,24.5z
		 M358.8,25.6c-1.5,0-2.8,1.3-2.8,2.9s1.3,2.9,2.8,2.9s2.8-1.3,2.8-2.9C361.6,26.8,360.3,25.6,358.8,25.6z"/>
	<path class="st0" d="M370.8,31.3c0,0-0.8,1.2-2.4,1.2c-1.7,0-3.1-1.3-3.1-3.3v-4.4h1.1v4.4c0,1.3,0.9,2.3,2.1,2.3
		c1.3,0,2.3-1,2.3-2.5v-4.2h1.1v7.6h-1.1V31.3z"/>
	<path class="st0" d="M375.6,30.9c0.5,0,0.8,0.3,0.8,0.8c0,0.5-0.3,0.8-0.8,0.8s-0.8-0.3-0.8-0.8C374.9,31.2,375.2,30.9,375.6,30.9z
		"/>
	<path class="st0" d="M8.6,42.3v1.1H2.3v3.8h5.1v1.1H2.3v5.1H1.1V42.3H8.6z"/>
	<path class="st0" d="M11.6,42.5c0.4,0,0.7,0.3,0.7,0.7s-0.3,0.7-0.7,0.7s-0.7-0.3-0.7-0.7S11.2,42.5,11.6,42.5z M11,45.8h1.1v7.6
		H11V45.8z"/>
	<path class="st0" d="M16.4,46.9c0,0,0.8-1.3,2.4-1.3c1.8,0,3.1,1.3,3.1,3.2v4.5h-1.1v-4.5c0-1.3-0.9-2.2-2.1-2.2
		c-1.3,0-2.4,1-2.4,2.5v4.2h-1.1v-7.6h1.1v1.2H16.4z"/>
	<path class="st0" d="M30.8,42.3h1.1v11.1h-1.1v-1.2c0,0-0.9,1.3-2.7,1.3c-1.9,0-3.6-1.7-3.6-3.9s1.7-3.9,3.6-3.9
		c1.7,0,2.7,1.3,2.7,1.3V42.3z M28.1,46.6c-1.3,0-2.5,1.3-2.5,2.9c0,1.7,1.3,2.9,2.5,2.9c1.3,0,2.7-1.3,2.7-2.9
		C30.8,48,29.5,46.6,28.1,46.6z"/>
	<path class="st0" d="M40,46.9c0,0,0.8-1.3,2.4-1.3c1.8,0,3.1,1.3,3.1,3.2v4.5h-1.1v-4.5c0-1.3-0.9-2.2-2.1-2.2
		c-1.3,0-2.4,1-2.4,2.5v4.2h-1.1v-11H40V46.9z"/>
	<path class="st0" d="M49.2,42.5c0.4,0,0.7,0.3,0.7,0.7s-0.3,0.7-0.7,0.7s-0.7-0.3-0.7-0.7S48.8,42.5,49.2,42.5z M48.7,45.8h1.1v7.6
		h-1.1V45.8z"/>
	<path class="st0" d="M58.7,42.3h1.1v11.1h-1.1v-1.2c0,0-0.9,1.3-2.7,1.3c-1.9,0-3.6-1.7-3.6-3.9s1.7-3.9,3.6-3.9
		c1.7,0,2.7,1.3,2.7,1.3V42.3z M56,46.6c-1.3,0-2.5,1.3-2.5,2.9c0,1.7,1.3,2.9,2.5,2.9c1.3,0,2.7-1.3,2.7-2.9
		C58.7,48,57.3,46.6,56,46.6z"/>
	<path class="st0" d="M68.8,42.3h1.1v11.1h-1.1v-1.2c0,0-0.9,1.3-2.7,1.3c-1.9,0-3.6-1.7-3.6-3.9s1.7-3.9,3.6-3.9
		c1.7,0,2.7,1.3,2.7,1.3V42.3z M66.1,46.6c-1.3,0-2.5,1.3-2.5,2.9c0,1.7,1.3,2.9,2.5,2.9c1.3,0,2.7-1.3,2.7-2.9
		C68.8,48,67.4,46.6,66.1,46.6z"/>
	<path class="st0" d="M73.7,49.9c0.1,1.3,1.3,2.5,2.7,2.5c1.6,0,2.4-1.3,2.4-1.3l0.7,0.7c0,0-1.1,1.6-3.2,1.6s-3.8-1.7-3.8-3.9
		s1.7-3.9,3.7-3.9c2.1,0,3.6,1.6,3.6,3.8c0,0.3-0.1,0.6-0.1,0.6L73.7,49.9z M73.7,49h5.1c-0.2-1.3-1.2-2.4-2.5-2.4
		C74.9,46.6,73.8,47.7,73.7,49z"/>
	<path class="st0" d="M83.6,46.9c0,0,0.8-1.3,2.4-1.3c1.8,0,3.1,1.3,3.1,3.2v4.5H88v-4.5c0-1.3-0.9-2.2-2.1-2.2
		c-1.3,0-2.4,1-2.4,2.5v4.2h-1.1v-7.6h1.1L83.6,46.9L83.6,46.9z"/>
	<path class="st0" d="M98,53.3l-3.1-7.6h1.2l2.4,6.2l2.4-6.2h1.2l-3.5,8.7c-0.6,1.6-1.3,2.2-2.4,2.2c-0.6,0-0.9-0.2-0.9-0.2v-1
		c0,0,0.4,0.2,0.8,0.2c0.7,0,1.1-0.4,1.4-1.2L98,53.3z"/>
	<path class="st0" d="M107.6,45.6c2.1,0,3.9,1.7,3.9,3.9s-1.7,3.9-3.9,3.9s-3.9-1.7-3.9-3.9C103.8,47.3,105.5,45.6,107.6,45.6z
		 M107.6,46.6c-1.5,0-2.8,1.3-2.8,2.9c0,1.6,1.3,2.9,2.8,2.9s2.8-1.3,2.8-2.9C110.4,47.9,109.1,46.6,107.6,46.6z"/>
	<path class="st0" d="M119.6,52.3c0,0-0.8,1.2-2.4,1.2c-1.7,0-3.1-1.3-3.1-3.3v-4.4h1.1v4.4c0,1.3,0.9,2.3,2.1,2.3
		c1.3,0,2.3-1,2.3-2.5v-4.2h1.1v7.6h-1.1V52.3z"/>
	<path class="st0" d="M127.9,46.7h-0.5c-1.3,0-2.4,0.9-2.4,2.4v4.2h-1v-7.6h1.1v1c0,0,0.8-1.2,2.5-1.2h0.3V46.7z"/>
	<path class="st0" d="M137,45.6c2.1,0,3.9,1.7,3.9,3.9s-1.7,3.9-3.9,3.9s-3.9-1.7-3.9-3.9S134.9,45.6,137,45.6z M137,46.6
		c-1.5,0-2.8,1.3-2.8,2.9c0,1.6,1.3,2.9,2.8,2.9s2.8-1.3,2.8-2.9C139.8,47.9,138.5,46.6,137,46.6z"/>
	<path class="st0" d="M148.4,45.8l1.9,5.8l2-5.8h1.2l-2.6,7.6h-1l-1.9-5.8l-1.9,5.8h-1l-2.6-7.6h1.2l2,5.8l1.9-5.8H148.4z"/>
	<path class="st0" d="M156.7,46.9c0,0,0.8-1.3,2.4-1.3c1.8,0,3.1,1.3,3.1,3.2v4.5h-1.1v-4.5c0-1.3-0.9-2.2-2.1-2.2
		c-1.3,0-2.4,1-2.4,2.5v4.2h-1.1v-7.6h1.1v1.2H156.7z"/>
	<path class="st0" d="M170.2,46.9c0,0,0.9-1.3,2.7-1.3c1.9,0,3.6,1.7,3.6,3.9s-1.7,3.9-3.6,3.9c-1.7,0-2.7-1.3-2.7-1.3v1.2h-1.1v-11
		h1.1V46.9z M172.9,52.5c1.3,0,2.5-1.3,2.5-2.9c0-1.7-1.3-2.9-2.5-2.9c-1.3,0-2.7,1.3-2.7,2.9C170.2,51.1,171.6,52.5,172.9,52.5z"/>
	<path class="st0" d="M179.7,49.9c0.1,1.3,1.3,2.5,2.7,2.5c1.6,0,2.4-1.3,2.4-1.3l0.7,0.7c0,0-1.1,1.6-3.2,1.6s-3.8-1.7-3.8-3.9
		s1.7-3.9,3.7-3.9c2.1,0,3.6,1.6,3.6,3.8c0,0.3-0.1,0.6-0.1,0.6L179.7,49.9z M179.7,49h5.1c-0.2-1.3-1.2-2.4-2.5-2.4
		S179.9,47.7,179.7,49z"/>
	<path class="st0" d="M193.1,48.5c0-1.1-0.8-1.9-1.9-1.9c-1.3,0-2.1,1.1-2.1,1.1l-0.7-0.7c0,0,1-1.4,2.8-1.4c1.7,0,3,1.3,3,2.9v4.8
		h-1.1v-1c0,0-0.8,1.2-2.4,1.2c-1.6,0-2.7-1.1-2.7-2.2c0-1.3,0.8-2.1,2.2-2.3L193.1,48.5z M193.1,49.9v-0.5l-2.6,0.5
		c-0.9,0.2-1.4,0.6-1.4,1.3c0,0.6,0.6,1.2,1.6,1.2C192.1,52.5,193.1,51.4,193.1,49.9z"/>
	<path class="st0" d="M202.9,52.3c0,0-0.8,1.2-2.4,1.2c-1.7,0-3.1-1.3-3.1-3.3v-4.4h1.1v4.4c0,1.3,0.9,2.3,2.1,2.3
		c1.3,0,2.3-1,2.3-2.5v-4.2h1.1v7.6h-1.1L202.9,52.3L202.9,52.3z"/>
	<path class="st0" d="M208,43.2h1v2.5h1.7v1H209v4.5c0,0.8,0.4,1.2,1,1.2s1-0.2,1-0.2v1c0,0-0.5,0.2-1.1,0.2c-1.3,0-2.1-0.8-2.1-2.2
		v-4.5h-1.4v-1h0.9c0.4,0,0.6-0.2,0.6-0.8v-1.7H208z"/>
	<path class="st0" d="M215.6,53.3l-3.1-7.6h1.2l2.4,6.2l2.4-6.2h1.2l-3.5,8.7c-0.6,1.6-1.3,2.2-2.4,2.2c-0.6,0-0.9-0.2-0.9-0.2v-1
		c0,0,0.4,0.2,0.8,0.2c0.7,0,1.1-0.4,1.4-1.2L215.6,53.3z"/>
	<path class="st0" d="M230.5,45.8l1.9,5.8l2-5.8h1.2l-2.6,7.6h-1l-1.9-5.8l-1.9,5.8h-1l-2.6-7.6h1.2l2,5.8l1.9-5.8H230.5z"/>
	<path class="st0" d="M238.3,42.5c0.4,0,0.7,0.3,0.7,0.7s-0.3,0.7-0.7,0.7s-0.7-0.3-0.7-0.7S237.9,42.5,238.3,42.5z M237.7,45.8h1.1
		v7.6h-1.1V45.8z"/>
	<path class="st0" d="M242.7,43.2h1v2.5h1.7v1h-1.7v4.5c0,0.8,0.4,1.2,1,1.2s1-0.2,1-0.2v1c0,0-0.5,0.2-1.1,0.2
		c-1.3,0-2.1-0.8-2.1-2.2v-4.5h-1.4v-1h0.9c0.4,0,0.6-0.2,0.6-0.8v-1.7H242.7z"/>
	<path class="st0" d="M249.5,46.9c0,0,0.8-1.3,2.4-1.3c1.8,0,3.1,1.3,3.1,3.2v4.5h-1.1v-4.5c0-1.3-0.9-2.2-2.1-2.2
		c-1.3,0-2.4,1-2.4,2.5v4.2h-1.1v-11h1.1v4.6H249.5z"/>
	<path class="st0" d="M258.7,42.5c0.4,0,0.7,0.3,0.7,0.7s-0.3,0.7-0.7,0.7s-0.7-0.3-0.7-0.7S258.3,42.5,258.7,42.5z M258.2,45.8h1.1
		v7.6h-1.1V45.8z"/>
	<path class="st0" d="M263.5,46.9c0,0,0.8-1.3,2.4-1.3c1.8,0,3.1,1.3,3.1,3.2v4.5h-1v-4.5c0-1.3-0.9-2.2-2.1-2.2
		c-1.3,0-2.4,1-2.4,2.5v4.2h-1.1v-7.6h1.1V46.9z"/>
	<path class="st0" d="M277.9,53.3l-3.1-7.6h1.2l2.4,6.2l2.4-6.2h1.2l-3.5,8.7c-0.6,1.6-1.3,2.2-2.4,2.2c-0.6,0-0.9-0.2-0.9-0.2v-1
		c0,0,0.4,0.2,0.8,0.2c0.7,0,1.1-0.4,1.4-1.2L277.9,53.3z"/>
	<path class="st0" d="M287.5,45.6c2.1,0,3.9,1.7,3.9,3.9s-1.7,3.9-3.9,3.9s-3.9-1.7-3.9-3.9C283.7,47.3,285.4,45.6,287.5,45.6z
		 M287.5,46.6c-1.5,0-2.8,1.3-2.8,2.9c0,1.6,1.3,2.9,2.8,2.9s2.8-1.3,2.8-2.9C290.3,47.9,289,46.6,287.5,46.6z"/>
	<path class="st0" d="M299.5,52.3c0,0-0.8,1.2-2.4,1.2c-1.7,0-3.1-1.3-3.1-3.3v-4.4h1.1v4.4c0,1.3,0.9,2.3,2.1,2.3
		c1.3,0,2.3-1,2.3-2.5v-4.2h1.1v7.6h-1.1V52.3z"/>
	<path class="st0" d="M307.8,46.7h-0.5c-1.3,0-2.4,0.9-2.4,2.4v4.2h-1.1v-7.6h1.1v1c0,0,0.8-1.2,2.5-1.2h0.3v1.2H307.8z"/>
	<path class="st0" d="M313.8,47.4c0,0-0.6-0.8-1.7-0.8c-0.9,0-1.4,0.6-1.4,1.1c0,1.7,4.1,0.8,4.1,3.5c0,1.3-1,2.3-2.8,2.3
		c-1.9,0-2.8-1.3-2.8-1.3l0.8-0.8c0,0,0.7,1.1,2,1.1c1.1,0,1.7-0.6,1.7-1.3c0-1.7-4.1-0.9-4.1-3.5c0-1.1,1-2.1,2.5-2.1
		c1.6,0,2.4,1,2.4,1L313.8,47.4z"/>
	<path class="st0" d="M317.9,49.9c0.1,1.3,1.3,2.5,2.7,2.5c1.6,0,2.4-1.3,2.4-1.3l0.7,0.7c0,0-1.1,1.6-3.2,1.6s-3.8-1.7-3.8-3.9
		s1.7-3.9,3.7-3.9c2.1,0,3.6,1.6,3.6,3.8c0,0.3-0.1,0.6-0.1,0.6L317.9,49.9z M317.9,49h5.1c-0.2-1.3-1.2-2.4-2.5-2.4
		S318.1,47.7,317.9,49z"/>
	<path class="st0" d="M328,53.3h-1.1v-11h1.1V53.3z"/>
	<path class="st0" d="M334.5,46.8h-1.8v6.6h-1.1v-6.6h-1.2v-1h1.2v-1.4c0-1.4,0.8-2.2,2.1-2.2c0.6,0,1.1,0.2,1.1,0.2v1
		c0,0-0.5-0.2-1-0.2c-0.6,0-1,0.4-1,1.2v1.4h1.8v1H334.5z"/>
	<path class="st0" d="M337.4,51.9c0.5,0,0.8,0.3,0.8,0.8s-0.3,0.8-0.8,0.8s-0.8-0.3-0.8-0.8S336.9,51.9,337.4,51.9z"/>
	<path class="st0" d="M6.7,71.2l-4.4-5.8v9H1.1V63.3h1l4.6,6l4.6-6h1v11.1h-1.2v-9L6.7,71.2z"/>
	<path class="st0" d="M16.4,71c0.1,1.3,1.3,2.5,2.7,2.5c1.6,0,2.4-1.3,2.4-1.3l0.7,0.7c0,0-1.1,1.6-3.2,1.6s-3.8-1.7-3.8-3.9
		c0-2.2,1.7-3.9,3.7-3.9c2.1,0,3.6,1.6,3.6,3.8c0,0.3-0.1,0.6-0.1,0.6L16.4,71z M16.4,70h5.1c-0.2-1.3-1.2-2.4-2.5-2.4
		C17.6,67.7,16.5,68.8,16.4,70z"/>
	<path class="st0" d="M25.8,71c0.1,1.3,1.3,2.5,2.7,2.5c1.6,0,2.4-1.3,2.4-1.3l0.7,0.7c0,0-1.1,1.6-3.2,1.6s-3.8-1.7-3.8-3.9
		c0-2.2,1.7-3.9,3.7-3.9c2.1,0,3.6,1.6,3.6,3.8c0,0.3-0.1,0.6-0.1,0.6L25.8,71z M25.8,70h5.1c-0.2-1.3-1.2-2.4-2.5-2.4
		C27,67.7,25.9,68.8,25.8,70z"/>
	<path class="st0" d="M35.3,64.3h1v2.5H38v1h-1.7v4.5c0,0.8,0.4,1.2,1,1.2s1-0.2,1-0.2v1c0,0-0.5,0.2-1.1,0.2
		c-1.3,0-2.1-0.8-2.1-2.2v-4.5h-1.4v-1h0.9c0.4,0,0.6-0.2,0.6-0.8L35.3,64.3L35.3,64.3z"/>
	<path class="st0" d="M49.1,69.6c0-1.1-0.8-1.9-1.9-1.9c-1.3,0-2.1,1.1-2.1,1.1l-0.7-0.7c0,0,1-1.4,2.8-1.4c1.7,0,3,1.3,3,2.9v4.8
		h-1.1v-1c0,0-0.8,1.2-2.4,1.2c-1.6,0-2.7-1.1-2.7-2.2c0-1.3,0.8-2.1,2.2-2.3L49.1,69.6z M49.1,71v-0.5L46.5,71
		c-0.9,0.2-1.4,0.6-1.4,1.3c0,0.6,0.6,1.2,1.6,1.2C48.1,73.5,49.1,72.5,49.1,71z"/>
	<path class="st0" d="M58.1,67.9c0,0,0.8-1.3,2.4-1.3c1.8,0,3.1,1.3,3.1,3.2v4.5h-1.1v-4.5c0-1.3-0.9-2.2-2.1-2.2
		c-1.3,0-2.4,1-2.4,2.5v4.2h-1v-7.6h1.1V67.9z"/>
	<path class="st0" d="M67.4,71c0.1,1.3,1.3,2.5,2.7,2.5c1.6,0,2.4-1.3,2.4-1.3l0.7,0.7c0,0-1.1,1.6-3.2,1.6s-3.8-1.7-3.8-3.9
		c0-2.2,1.7-3.9,3.7-3.9c2.1,0,3.6,1.6,3.6,3.8c0,0.3-0.1,0.6-0.1,0.6L67.4,71z M67.4,70h5.1c-0.2-1.3-1.2-2.4-2.5-2.4
		C68.6,67.7,67.5,68.8,67.4,70z"/>
	<path class="st0" d="M81.2,66.8l1.9,5.8l2-5.8h1.2l-2.6,7.6h-1l-1.9-5.8l-1.9,5.8h-1l-2.6-7.6h1.2l2,5.8l1.9-5.8H81.2z"/>
	<path class="st0" d="M94.1,74.4L91,66.8h1.2l2.4,6.2l2.4-6.2h1.2l-3.5,8.7c-0.6,1.6-1.3,2.2-2.4,2.2c-0.6,0-0.9-0.2-0.9-0.2v-1
		c0,0,0.4,0.2,0.8,0.2c0.7,0,1.1-0.4,1.4-1.2L94.1,74.4z"/>
	<path class="st0" d="M103.7,66.6c2.1,0,3.9,1.7,3.9,3.9c0,2.2-1.7,3.9-3.9,3.9s-3.9-1.7-3.9-3.9C99.8,68.4,101.6,66.6,103.7,66.6z
		 M103.7,67.7c-1.5,0-2.8,1.3-2.8,2.9s1.3,2.9,2.8,2.9s2.8-1.3,2.8-2.9C106.4,68.9,105.2,67.7,103.7,67.7z"/>
	<path class="st0" d="M115.7,73.4c0,0-0.8,1.2-2.4,1.2c-1.7,0-3.1-1.3-3.1-3.3v-4.4h1.1v4.4c0,1.3,0.9,2.3,2.1,2.3
		c1.3,0,2.3-1,2.3-2.5v-4.2h1.1v7.6h-1.1V73.4z"/>
	<path class="st0" d="M128.6,66.8l1.9,5.8l2-5.8h1.2l-2.6,7.6h-1l-1.9-5.8l-1.9,5.8h-1l-2.6-7.6h1.2l2,5.8l1.9-5.8H128.6z"/>
	<path class="st0" d="M136.4,63.6c0.4,0,0.7,0.3,0.7,0.7c0,0.4-0.3,0.7-0.7,0.7s-0.7-0.3-0.7-0.7S136,63.6,136.4,63.6z M135.8,66.8
		h1.1v7.6h-1.1V66.8z"/>
	<path class="st0" d="M140.8,64.3h1v2.5h1.7v1h-1.7v4.5c0,0.8,0.4,1.2,1,1.2s1-0.2,1-0.2v1c0,0-0.5,0.2-1.1,0.2
		c-1.3,0-2.1-0.8-2.1-2.2v-4.5h-1.4v-1h0.9c0.4,0,0.6-0.2,0.6-0.8v-1.7H140.8z"/>
	<path class="st0" d="M147.6,67.9c0,0,0.8-1.3,2.4-1.3c1.8,0,3.1,1.3,3.1,3.2v4.5H152v-4.5c0-1.3-0.9-2.2-2.1-2.2
		c-1.3,0-2.4,1-2.4,2.5v4.2h-1.1v-11h1.1v4.6H147.6z"/>
	<path class="st0" d="M161,77.7h-1.1V66.8h1.1V68c0,0,0.9-1.3,2.7-1.3c1.9,0,3.6,1.7,3.6,3.9c0,2.2-1.7,3.9-3.6,3.9
		c-1.7,0-2.7-1.3-2.7-1.3V77.7z M163.7,73.5c1.3,0,2.5-1.3,2.5-2.9c0-1.7-1.3-2.9-2.5-2.9c-1.3,0-2.7,1.3-2.7,2.9
		S162.3,73.5,163.7,73.5z"/>
	<path class="st0" d="M170.5,71c0.1,1.3,1.3,2.5,2.7,2.5c1.6,0,2.4-1.3,2.4-1.3l0.7,0.7c0,0-1.1,1.6-3.2,1.6s-3.8-1.7-3.8-3.9
		c0-2.2,1.7-3.9,3.7-3.9c2.1,0,3.6,1.6,3.6,3.8c0,0.3-0.1,0.6-0.1,0.6L170.5,71z M170.5,70h5.1c-0.2-1.3-1.2-2.4-2.5-2.4
		C171.7,67.7,170.6,68.8,170.5,70z"/>
	<path class="st0" d="M183.3,67.8h-0.5c-1.3,0-2.4,0.9-2.4,2.4v4.2h-1.1v-7.6h1.1v1c0,0,0.8-1.2,2.5-1.2h0.3L183.3,67.8L183.3,67.8z
		"/>
	<path class="st0" d="M189.2,68.5c0,0-0.6-0.8-1.7-0.8c-0.9,0-1.4,0.6-1.4,1.1c0,1.7,4.1,0.8,4.1,3.5c0,1.3-1,2.3-2.8,2.3
		c-1.9,0-2.8-1.3-2.8-1.3l0.8-0.8c0,0,0.7,1.1,2,1.1c1.1,0,1.7-0.6,1.7-1.3c0-1.7-4.1-0.9-4.1-3.5c0-1.1,1-2.1,2.5-2.1
		c1.6,0,2.4,1,2.4,1L189.2,68.5z"/>
	<path class="st0" d="M193.4,71c0.1,1.3,1.3,2.5,2.7,2.5c1.6,0,2.4-1.3,2.4-1.3l0.7,0.7c0,0-1.1,1.6-3.2,1.6s-3.8-1.7-3.8-3.9
		c0-2.2,1.7-3.9,3.7-3.9c2.1,0,3.6,1.6,3.6,3.8c0,0.3-0.1,0.6-0.1,0.6L193.4,71z M193.4,70h5.1c-0.2-1.3-1.2-2.4-2.5-2.4
		C194.6,67.7,193.5,68.8,193.4,70z"/>
	<path class="st0" d="M202.7,73c0.5,0,0.8,0.3,0.8,0.8s-0.3,0.8-0.8,0.8s-0.8-0.3-0.8-0.8S202.2,73,202.7,73z"/>
</g>
</svg>
