<?xml version="1.0" encoding="utf-8"?>
<!-- Generator: Adobe Illustrator 25.4.1, SVG Export Plug-In . SVG Version: 6.00 Build 0)  -->
<svg version="1.1" id="レイヤー_1" xmlns="http://www.w3.org/2000/svg" xmlns:xlink="http://www.w3.org/1999/xlink" x="0px"
	 y="0px" viewBox="0 0 44 415" style="enable-background:new 0 0 44 415;" xml:space="preserve">
<style type="text/css">
	.st0{fill:#E2747F;}
</style>
<g>
	<path class="st0" d="M40.85,7.21C40.76,7,40.63,6.8,40.46,6.61s-0.41-0.31-0.73-0.39c-0.32-0.08-0.73-0.08-1.24,0
		c-0.5,0.08-1.12,0.27-1.86,0.57l-23.21,9.72l23.12,9.4c0.79,0.34,1.45,0.56,1.97,0.67c0.52,0.11,0.94,0.15,1.26,0.11
		c0.32-0.03,0.56-0.11,0.71-0.25c0.15-0.14,0.28-0.3,0.37-0.48v4.04c-0.06-0.21-0.18-0.44-0.34-0.67c-0.17-0.23-0.47-0.5-0.92-0.83
		c-0.44-0.32-1.08-0.7-1.9-1.12c-0.83-0.43-1.94-0.93-3.35-1.51L8.97,15.47v-0.28l28.71-12.2c1.1-0.46,1.87-0.9,2.31-1.33
		s0.73-0.84,0.85-1.24V7.21z"/>
	<path class="st0" d="M35.12,45.05c0,1.83-0.26,3.43-0.78,4.79c-0.52,1.36-1.25,2.48-2.2,3.37c-0.95,0.89-2.06,1.55-3.35,2
		c-1.29,0.44-2.69,0.68-4.22,0.71V36.61c-0.46-0.06-0.92-0.11-1.4-0.14c-0.47-0.03-0.96-0.05-1.45-0.05c-1.74,0-3.37,0.24-4.88,0.71
		c-1.51,0.47-2.82,1.13-3.92,1.97c-1.1,0.84-1.96,1.84-2.59,3c-0.63,1.16-0.94,2.43-0.94,3.81c0,1.22,0.22,2.33,0.66,3.33
		c0.44,0.99,1.08,1.9,1.9,2.73c0.82,0.83,1.81,1.57,2.96,2.22c1.15,0.66,2.41,1.23,3.79,1.72l-6.65-0.41
		c-1.13-1.35-1.96-2.87-2.5-4.59c-0.54-1.71-0.8-3.38-0.8-5c0-1.93,0.31-3.7,0.94-5.32c0.63-1.62,1.51-3.02,2.64-4.2
		c1.13-1.18,2.51-2.09,4.13-2.73c1.62-0.64,3.41-0.96,5.37-0.96c1.93,0,3.7,0.28,5.32,0.85c1.62,0.57,3.03,1.38,4.22,2.45
		c1.19,1.07,2.12,2.36,2.78,3.88C34.79,41.4,35.12,43.12,35.12,45.05z M25.12,36.7v15.64c1.35-0.03,2.58-0.21,3.71-0.55
		c1.13-0.34,2.13-0.81,2.98-1.42c0.86-0.61,1.52-1.37,1.99-2.27c0.47-0.9,0.71-1.93,0.71-3.1c0-1.1-0.23-2.11-0.69-3.03
		s-1.11-1.74-1.95-2.45c-0.84-0.72-1.83-1.31-2.98-1.79C27.75,37.26,26.5,36.91,25.12,36.7z"/>
	<path class="st0" d="M8.97,59.22c0.15,0.49,0.32,0.89,0.51,1.19c0.18,0.31,0.42,0.55,0.71,0.73c0.29,0.18,0.66,0.31,1.12,0.37
		c0.46,0.06,1.01,0.09,1.65,0.09h26.92c0.95,0,1.63-0.08,2.06-0.23c0.43-0.15,0.83-0.46,1.19-0.92L43.69,65H12.96
		c-0.64,0-1.19,0.04-1.63,0.11c-0.45,0.08-0.82,0.21-1.13,0.39c-0.3,0.18-0.55,0.43-0.73,0.73c-0.18,0.31-0.35,0.69-0.51,1.15V59.22
		z"/>
	<path class="st0" d="M34.89,75c-0.21-0.25-0.52-0.44-0.92-0.57c-0.4-0.14-1.04-0.02-1.93,0.34l-18.9,8.16l16.19,6.93
		c1.19,0.52,2.14,0.83,2.84,0.92c0.7,0.09,1.24,0.09,1.6,0c0.37-0.09,0.62-0.24,0.76-0.44c0.14-0.2,0.25-0.36,0.34-0.48v4.45
		c-0.21-0.34-0.59-0.78-1.12-1.33c-0.54-0.55-1.46-1.1-2.78-1.65l-22.02-9.4v-0.5l21.88-9.49c1.38-0.61,2.35-1.13,2.93-1.56
		c0.58-0.43,0.95-0.8,1.1-1.1V75z"/>
	<path class="st0" d="M35.12,108.71c0,1.83-0.26,3.43-0.78,4.79c-0.52,1.36-1.25,2.48-2.2,3.37c-0.95,0.89-2.06,1.55-3.35,2
		c-1.29,0.44-2.69,0.68-4.22,0.71v-19.31c-0.46-0.06-0.92-0.11-1.4-0.14c-0.47-0.03-0.96-0.05-1.45-0.05
		c-1.74,0-3.37,0.24-4.88,0.71c-1.51,0.47-2.82,1.13-3.92,1.97c-1.1,0.84-1.96,1.84-2.59,3c-0.63,1.16-0.94,2.43-0.94,3.81
		c0,1.22,0.22,2.33,0.66,3.33c0.44,0.99,1.08,1.9,1.9,2.73c0.82,0.83,1.81,1.57,2.96,2.22c1.15,0.66,2.41,1.23,3.79,1.72l-6.65-0.41
		c-1.13-1.35-1.96-2.87-2.5-4.59c-0.54-1.71-0.8-3.38-0.8-5c0-1.93,0.31-3.7,0.94-5.32c0.63-1.62,1.51-3.02,2.64-4.2
		c1.13-1.18,2.51-2.09,4.13-2.73s3.41-0.96,5.37-0.96c1.93,0,3.7,0.28,5.32,0.85c1.62,0.57,3.03,1.38,4.22,2.45
		c1.19,1.07,2.12,2.36,2.78,3.88C34.79,105.06,35.12,106.78,35.12,108.71z M25.12,100.36V116c1.35-0.03,2.58-0.21,3.71-0.55
		c1.13-0.34,2.13-0.81,2.98-1.42c0.86-0.61,1.52-1.37,1.99-2.27c0.47-0.9,0.71-1.93,0.71-3.1c0-1.1-0.23-2.11-0.69-3.03
		s-1.11-1.74-1.95-2.45c-0.84-0.72-1.83-1.31-2.98-1.79C27.75,100.92,26.5,100.57,25.12,100.36z"/>
	<path class="st0" d="M34.89,127.28l6.38,3.16h-6.38v7.52h-0.5v-7.52H14.66c-1.01,0-1.85,0.07-2.52,0.21
		c-0.67,0.14-1.21,0.33-1.61,0.57c-0.4,0.24-0.67,0.56-0.83,0.94c-0.15,0.38-0.23,0.82-0.23,1.31c0,0.89,0.25,1.64,0.76,2.25
		c0.5,0.61,1.21,1.18,2.13,1.7l-0.41,0.6c-0.98-0.61-1.75-1.28-2.32-2c-0.57-0.72-0.85-1.77-0.85-3.14c0-2.14,0.62-3.65,1.86-4.52
		c1.24-0.87,2.99-1.31,5.25-1.31h18.48v-4.49h0.5V127.28z"/>
	<path class="st0" d="M13.1,157h23.8c0.67,0,1.23-0.03,1.67-0.09c0.44-0.06,0.81-0.17,1.1-0.32c0.29-0.15,0.53-0.38,0.71-0.69
		c0.18-0.31,0.34-0.7,0.46-1.19v20.59l-8.39,0.96c1.59-0.37,2.88-0.89,3.88-1.56c0.99-0.67,1.77-1.44,2.32-2.32
		c0.55-0.87,0.92-1.82,1.12-2.84s0.3-2.1,0.3-3.23v-5.82H25.76v3.81c0,1.56,0.09,2.84,0.28,3.83c0.18,0.99,0.46,1.79,0.83,2.38
		c0.37,0.6,0.81,1.03,1.33,1.31c0.52,0.28,1.12,0.49,1.79,0.64l-9.31-0.64c0.67-0.03,1.28-0.15,1.81-0.34
		c0.54-0.2,0.99-0.57,1.35-1.1c0.37-0.54,0.65-1.29,0.85-2.27c0.2-0.98,0.3-2.28,0.3-3.9v-3.71H13.1c-1.35,0-2.3,0.2-2.87,0.6
		c-0.57,0.4-0.99,1.08-1.26,2.06v-8.81c0.28,0.98,0.7,1.67,1.26,2.06C10.8,156.8,11.76,157,13.1,157z"/>
	<path class="st0" d="M8.97,179.38c0.15,0.49,0.32,0.89,0.51,1.19c0.18,0.31,0.42,0.55,0.71,0.73c0.29,0.18,0.66,0.31,1.12,0.37
		c0.46,0.06,1.01,0.09,1.65,0.09h16.92c0.64,0,1.2-0.02,1.68-0.07c0.47-0.05,0.89-0.11,1.26-0.21s0.7-0.22,1.01-0.39
		c0.3-0.17,0.61-0.38,0.92-0.62l0.41,4.68h-22.2c-0.64,0-1.19,0.04-1.63,0.11c-0.45,0.08-0.82,0.21-1.13,0.39
		c-0.3,0.18-0.55,0.43-0.73,0.73c-0.18,0.31-0.35,0.69-0.51,1.15V179.38z M43.1,183.33c0,0.7-0.21,1.28-0.62,1.74
		c-0.41,0.46-0.97,0.69-1.67,0.69s-1.27-0.23-1.7-0.69c-0.43-0.46-0.64-1.04-0.64-1.74c0-0.67,0.21-1.24,0.64-1.7
		c0.43-0.46,0.99-0.69,1.7-0.69s1.26,0.23,1.67,0.69C42.89,182.09,43.1,182.66,43.1,183.33z"/>
	<path class="st0" d="M8.97,189.11c0.18,0.21,0.55,0.67,1.1,1.38c0.55,0.7,1.47,1.54,2.75,2.52l9.04,7.02l9.13-6.51
		c1.29-0.92,2.22-1.63,2.8-2.13c0.58-0.5,0.95-0.92,1.1-1.26v6.05c-0.21-0.21-0.54-0.37-0.96-0.48c-0.43-0.11-1.05,0.13-1.88,0.71
		l-7.98,5.73l6.24,4.86c0.95,0.73,1.7,1.22,2.25,1.44c0.55,0.23,0.99,0.33,1.31,0.3c0.32-0.03,0.55-0.14,0.69-0.32
		s0.25-0.31,0.34-0.37v4.54c-0.21-0.4-0.6-0.97-1.15-1.72c-0.55-0.75-1.47-1.61-2.75-2.59l-7.48-5.78l-10.69,7.66
		c-0.98,0.7-1.8,1.31-2.48,1.81c-0.67,0.5-1.13,1.05-1.38,1.63v-6.1c0.09,0.09,0.19,0.2,0.3,0.32c0.11,0.12,0.27,0.2,0.48,0.23
		c0.21,0.03,0.48-0.01,0.8-0.11c0.32-0.11,0.73-0.34,1.22-0.71l9.54-6.83l-7.75-6.1c-0.95-0.73-1.71-1.21-2.27-1.42
		c-0.57-0.21-1.01-0.3-1.33-0.25c-0.32,0.05-0.54,0.17-0.66,0.37c-0.12,0.2-0.23,0.33-0.32,0.39V189.11z"/>
	<path class="st0" d="M40.85,237.77c-0.15-0.49-0.33-0.89-0.53-1.19c-0.2-0.31-0.44-0.55-0.73-0.73c-0.29-0.18-0.66-0.32-1.12-0.41
		s-1.01-0.14-1.65-0.14H9.75v7.75c0,1.13,0.11,2.09,0.32,2.87c0.21,0.78,0.6,1.45,1.17,2.02c0.56,0.57,1.34,1.06,2.34,1.47
		c0.99,0.41,2.29,0.8,3.88,1.17l-8.49-0.92v-20.32c0.28,0.98,0.69,1.64,1.24,1.97c0.55,0.34,1.48,0.5,2.8,0.5h23.8
		c0.67,0,1.23-0.04,1.67-0.11c0.44-0.08,0.82-0.21,1.12-0.39c0.3-0.18,0.56-0.44,0.76-0.76c0.2-0.32,0.36-0.73,0.48-1.22V237.77z"/>
	<path class="st0" d="M8.97,253.68c0.15,0.49,0.32,0.89,0.51,1.19c0.18,0.31,0.42,0.55,0.71,0.73c0.29,0.18,0.66,0.31,1.12,0.37
		c0.46,0.06,1.01,0.09,1.65,0.09h16.92c0.64,0,1.2-0.02,1.68-0.07c0.47-0.05,0.89-0.11,1.26-0.21s0.7-0.22,1.01-0.39
		c0.3-0.17,0.61-0.38,0.92-0.62l0.41,4.68h-22.2c-0.64,0-1.19,0.04-1.63,0.11c-0.45,0.08-0.82,0.21-1.13,0.39
		c-0.3,0.18-0.55,0.43-0.73,0.73c-0.18,0.31-0.35,0.69-0.51,1.15V253.68z M43.1,257.63c0,0.7-0.21,1.28-0.62,1.74
		c-0.41,0.46-0.97,0.69-1.67,0.69s-1.27-0.23-1.7-0.69c-0.43-0.46-0.64-1.04-0.64-1.74c0-0.67,0.21-1.24,0.64-1.7
		c0.43-0.46,0.99-0.69,1.7-0.69s1.26,0.23,1.67,0.69C42.89,256.39,43.1,256.96,43.1,257.63z"/>
	<path class="st0" d="M4.3,266.8h25.59c0.64,0,1.2-0.02,1.68-0.07c0.47-0.05,0.89-0.11,1.26-0.21s0.7-0.22,1.01-0.39
		c0.3-0.17,0.61-0.38,0.92-0.62l0.41,4.59h-3.26c0.67,0.55,1.21,1.15,1.63,1.79c0.41,0.64,0.73,1.3,0.96,1.97
		c0.23,0.67,0.39,1.35,0.48,2.02c0.09,0.67,0.14,1.3,0.14,1.88c0,1.96-0.3,3.73-0.89,5.32c-0.6,1.59-1.45,2.96-2.55,4.1
		c-1.1,1.15-2.42,2.03-3.97,2.66c-1.54,0.63-3.26,0.94-5.16,0.94c-1.93,0-3.73-0.33-5.41-0.99c-1.68-0.66-3.14-1.57-4.38-2.73
		c-1.24-1.16-2.22-2.55-2.94-4.17c-0.72-1.62-1.08-3.38-1.08-5.27c0-1.44,0.22-2.78,0.66-4.04c0.44-1.25,1.11-2.39,2-3.39H4.3
		c-0.64,0-1.19,0.04-1.63,0.11c-0.44,0.08-0.82,0.21-1.12,0.39c-0.3,0.18-0.55,0.43-0.73,0.73c-0.18,0.31-0.35,0.69-0.5,1.15v-8.16
		c0.12,0.49,0.28,0.89,0.48,1.19s0.44,0.55,0.73,0.73c0.29,0.18,0.67,0.31,1.13,0.37C3.1,266.77,3.65,266.8,4.3,266.8z M9.52,277.95
		c0,1.44,0.3,2.73,0.89,3.88c0.6,1.15,1.41,2.12,2.43,2.94c1.02,0.81,2.24,1.43,3.64,1.86c1.41,0.43,2.92,0.64,4.54,0.64
		c1.9,0,3.65-0.21,5.28-0.64c1.62-0.43,3.03-1.08,4.22-1.95c1.19-0.87,2.13-1.95,2.8-3.23c0.67-1.28,1.01-2.8,1.01-4.54
		c0-1.1-0.22-2.26-0.66-3.49c-0.44-1.22-1.29-2.29-2.55-3.21h-16.6c-1.71,0.83-2.97,1.89-3.79,3.19
		C9.93,274.68,9.52,276.2,9.52,277.95z"/>
	<path class="st0" d="M8.97,307.44c0.28,0.98,0.69,1.64,1.24,1.97c0.55,0.34,1.48,0.5,2.8,0.5h23.8c0.67,0,1.23-0.04,1.67-0.11
		c0.44-0.08,0.82-0.21,1.12-0.39c0.3-0.18,0.56-0.44,0.76-0.76c0.2-0.32,0.36-0.73,0.48-1.22v10.46c0,3.61-0.65,6.47-1.95,8.58
		c-1.3,2.11-3.17,3.16-5.62,3.16c-2.02,0-3.71-0.76-5.09-2.29c-1.38-1.53-2.31-3.65-2.8-6.38c-0.37,3.06-1.21,5.45-2.54,7.18
		c-1.33,1.73-3.05,2.59-5.16,2.59c-1.38,0-2.6-0.27-3.67-0.83c-1.07-0.55-1.98-1.33-2.73-2.34c-0.75-1.01-1.32-2.24-1.72-3.69
		c-0.4-1.45-0.6-3.08-0.6-4.88V307.44z M9.71,313.4v4.91c0,2.75,0.69,4.89,2.06,6.42c1.38,1.53,3.29,2.29,5.73,2.29
		c2.38,0,4.23-0.77,5.53-2.32c1.3-1.54,1.95-3.62,1.95-6.21v-5.09H9.71z M25.71,313.4v4.91c0,2.35,0.67,4.23,2.02,5.62
		c1.34,1.39,3.1,2.09,5.27,2.09c2.29,0,4.05-0.76,5.28-2.27c1.22-1.51,1.83-3.65,1.83-6.4v-3.94H25.71z"/>
	<path class="st0" d="M23.19,345.46l1.24,5.09h3.3c2.29,0,3.98-0.45,5.07-1.35c1.08-0.9,1.63-2.27,1.63-4.1
		c0-0.86-0.14-1.73-0.44-2.61c-0.29-0.89-0.81-1.72-1.56-2.5c-0.75-0.78-1.77-1.5-3.05-2.16c-1.28-0.66-2.9-1.2-4.86-1.63l7.66-0.28
		c0.88,1.13,1.59,2.52,2.11,4.17c0.52,1.65,0.78,3.35,0.78,5.09c0,2.69-0.64,4.82-1.93,6.4c-1.29,1.57-3.17,2.36-5.64,2.36H12.96
		c-0.89,0-1.67,0.1-2.34,0.3c-0.67,0.2-1.22,0.53-1.65,0.99l-0.14-4.5h6.05c-0.77-0.31-1.51-0.7-2.25-1.17
		c-0.73-0.47-1.39-1.05-1.97-1.74c-0.58-0.69-1.04-1.51-1.38-2.45c-0.34-0.95-0.51-2.03-0.51-3.26c0-1.1,0.12-2.13,0.37-3.1
		c0.24-0.96,0.62-1.79,1.13-2.48c0.5-0.69,1.13-1.23,1.88-1.63c0.75-0.4,1.63-0.6,2.64-0.6c1.38,0,2.54,0.37,3.48,1.12
		c0.95,0.75,1.74,1.69,2.38,2.82c0.64,1.13,1.15,2.34,1.54,3.62C22.59,343.17,22.92,344.36,23.19,345.46z M14.84,338.03
		c-1.56,0-2.84,0.42-3.85,1.26c-1.01,0.84-1.51,2.03-1.51,3.55c0,0.86,0.18,1.73,0.55,2.61c0.37,0.89,0.91,1.7,1.63,2.43
		c0.72,0.73,1.61,1.34,2.68,1.83c1.07,0.49,2.31,0.76,3.71,0.83h5.69l-1.19-5c-0.15-0.64-0.38-1.4-0.69-2.27
		c-0.31-0.87-0.74-1.7-1.31-2.48c-0.57-0.78-1.31-1.44-2.22-1.97C17.41,338.3,16.25,338.03,14.84,338.03z"/>
	<path class="st0" d="M8.97,358.12c0.15,0.49,0.32,0.89,0.51,1.19c0.18,0.31,0.42,0.55,0.71,0.73c0.29,0.18,0.66,0.31,1.12,0.37
		c0.46,0.06,1.01,0.09,1.65,0.09h26.92c0.95,0,1.63-0.08,2.06-0.23c0.43-0.15,0.83-0.46,1.19-0.92l0.55,4.54H12.96
		c-0.64,0-1.19,0.04-1.63,0.11c-0.45,0.08-0.82,0.21-1.13,0.39c-0.3,0.18-0.55,0.43-0.73,0.73c-0.18,0.31-0.35,0.69-0.51,1.15
		V358.12z"/>
	<path class="st0" d="M12.96,371.33h16.92c0.64,0,1.2-0.02,1.68-0.07c0.47-0.05,0.89-0.11,1.26-0.21s0.7-0.22,1.01-0.39
		c0.3-0.17,0.61-0.38,0.92-0.62l0.41,4.68h-7.25c2.23,0.73,3.99,1.92,5.27,3.55c1.29,1.64,1.93,3.66,1.93,6.08
		c0,2.66-0.68,4.77-2.04,6.33c-1.36,1.56-3.14,2.46-5.34,2.71c2.29,0.7,4.1,1.87,5.41,3.51c1.31,1.64,1.97,3.69,1.97,6.17
		c0,1.44-0.21,2.72-0.62,3.85c-0.41,1.13-1,2.09-1.77,2.87c-0.76,0.78-1.67,1.38-2.73,1.79c-1.05,0.41-2.21,0.62-3.46,0.62H12.96
		c-0.64,0-1.19,0.04-1.63,0.11c-0.45,0.08-0.82,0.21-1.13,0.39c-0.3,0.18-0.55,0.43-0.73,0.73c-0.18,0.31-0.35,0.69-0.51,1.15v-8.16
		c0.15,0.49,0.32,0.89,0.51,1.19c0.18,0.31,0.42,0.55,0.71,0.73c0.29,0.18,0.66,0.31,1.12,0.37c0.46,0.06,1.01,0.09,1.65,0.09H27
		c2.29,0,4.11-0.54,5.44-1.63c1.33-1.09,1.99-2.68,1.99-4.79c0-1.1-0.23-2.16-0.69-3.19c-0.46-1.02-1.12-1.95-2-2.77
		c-0.87-0.83-1.93-1.51-3.19-2.04c-1.25-0.54-2.69-0.85-4.31-0.94H12.96c-0.64,0-1.19,0.04-1.63,0.11
		c-0.45,0.08-0.82,0.21-1.13,0.39c-0.3,0.18-0.55,0.43-0.73,0.73c-0.18,0.31-0.35,0.69-0.51,1.15v-8.16
		c0.15,0.49,0.32,0.89,0.51,1.19c0.18,0.31,0.42,0.55,0.71,0.73c0.29,0.18,0.66,0.31,1.12,0.37c0.46,0.06,1.01,0.09,1.65,0.09H27
		c2.29,0,4.11-0.54,5.44-1.63c1.33-1.09,1.99-2.67,1.99-4.75c0-1.1-0.23-2.16-0.69-3.19c-0.46-1.02-1.12-1.95-2-2.77
		c-0.87-0.83-1.93-1.51-3.19-2.04c-1.25-0.54-2.69-0.85-4.31-0.94H12.96c-0.64,0-1.19,0.04-1.63,0.11
		c-0.45,0.08-0.82,0.21-1.13,0.39c-0.3,0.18-0.55,0.43-0.73,0.73c-0.18,0.31-0.35,0.69-0.51,1.15v-8.16
		c0.15,0.49,0.32,0.89,0.51,1.19c0.18,0.31,0.42,0.55,0.71,0.73c0.29,0.18,0.66,0.31,1.12,0.37
		C11.77,371.3,12.32,371.33,12.96,371.33z"/>
</g>
</svg>
