<?xml version="1.0" encoding="utf-8"?>
<!-- Generator: Adobe Illustrator 25.4.1, SVG Export Plug-In . SVG Version: 6.00 Build 0)  -->
<svg version="1.1" id="レイヤー_1" xmlns="http://www.w3.org/2000/svg" xmlns:xlink="http://www.w3.org/1999/xlink" x="0px"
	 y="0px" viewBox="0 0 137 40" style="enable-background:new 0 0 137 40;" xml:space="preserve">
<style type="text/css">
	.st0{fill:#82B1BC;}
</style>
<g>
	<path class="st0" d="M85.1,2.8c0.3-0.3,0.6-0.5,0.9-0.8c-1.7-1.1-3.8-1.9-6.6-1.9c-1.4,0-2.8,0.4-4.3,1.1c-1.5,0.8-2.9,1.9-4.3,3.4
		V3c0-1-1-1.8-2-1.6L61,3c1.8,0.3,2.3,2,2.3,2.7l0,9.1c0,0.9-0.3,1.9-0.7,2.7c-1.3,2.2-2.4,3.8-4.6,5.9c-2.4,2.3-5.7,3.4-9,3.4
		c-3.2,0-5.4-1.2-6.7-3.5c-1.3-2.3-1.9-5.3-1.9-8.9v-1.7l18.3,0c0-2.4-0.6-4.5-1.7-6.4c-1.1-1.9-2.6-3.3-4.5-4.4
		c-1.9-1.1-4-1.6-6.2-1.6c-2.6,0-4.9,0.6-6.9,1.9c-2.1,1.2-3.7,2.9-4.8,5.1c-1.2,2.1-1.8,4.4-1.8,6.9c0,2.5,0.7,4.9,2,7
		c1.3,2.1,3.2,3.8,5.5,5c2.3,1.2,4.9,1.8,7.8,1.8c7.3,0,11.9-4.3,16.5-12.8l1-1.9c0.9-1.7,1.7-3.1,2.3-4.2c0.7-1.1,1.4-2.1,2.2-3
		l0.5-0.5c1.8-2,3.6-2.9,5.4-3c3-0.1,5.1,2.5,7.4,6c0-0.3,0-0.5,0-0.8C83.3,5.9,83.8,4.1,85.1,2.8z M42,3.8c0.9-2.1,2.3-3.1,4.2-3.1
		c2.2,0,3.6,0.9,4.3,2.8c0.7,1.8,1.1,4.7,1.1,8.6l-11.3,0C40.3,9.1,41.1,5.9,42,3.8z"/>
	<path class="st0" d="M66.3,14.1l-0.9,1.8c-0.5,1-1.2,2.1-2.1,3.3v6.2c0,1.5-1.3,2.3-2.3,2.5l7.1,0c1.4,0,2.6-1.1,2.6-2.5v-0.3l0-18
		c-0.8,0.9-1.4,1.9-2.1,2.9C67.9,11.2,67.2,12.5,66.3,14.1z"/>
	<path class="st0" d="M126.9,26.8c-1.1,0-2.2-0.2-3.2-0.6c-2.1-0.8-3.6-2.4-4.4-4.7c-0.9-2.4-1.3-4.8-1.3-7.4l0-1.5l18.6,0
		c0-2.4-0.6-4.5-1.7-6.4c-1.1-1.9-2.6-3.3-4.5-4.4c-1.9-1.1-4.1-1.6-6.4-1.6c-2.6,0-5,0.6-7.1,1.9c-2.1,1.2-3.7,2.9-4.8,5.1
		c-1.2,2.1-1.8,4.4-1.8,6.9c0,2.5,0.7,4.9,2,7c1.3,2.1,3.1,3.8,5.5,5c2.3,1.2,4.9,1.8,7.7,1.8c1.9,0,3.7-0.4,5.2-1.1
		c1.5-0.8,2.8-1.8,3.9-3.1c-1.4,1-2.7,1.7-3.9,2.3C129.6,26.5,128.3,26.8,126.9,26.8z M119.7,3.8c0.9-2.1,2.5-3.2,4.4-3.2
		c2.1,0,3.7,0.9,4.4,2.8c0.7,1.9,1.1,4.7,1.1,8.7l-11.6,0C118,8.9,118.7,5.9,119.7,3.8z"/>
	<path class="st0" d="M104.4,13.5c-1.2-0.6-2.9-1.3-5.1-2.2c-1.9-0.7-3.4-1.3-4.5-1.8c-1.1-0.5-2-1.2-2.8-1.9
		c-0.8-0.7-1.1-1.6-1.1-2.6c0-1.5,0.5-2.6,1.6-3.3c1.1-0.7,2.4-1,4-1c2.5,0,4.6,0.7,6.1,2c1.6,1.3,2.7,2.9,3.4,4.7l-0.5-5.7l0,0
		c-0.6,0.3-1.4,0.4-2,0.1c-0.8-0.4-1.7-0.7-2.6-0.9c-1.4-0.4-2.9-0.5-4.4-0.5c-1.8,0-3.6,0.3-5.3,0.8c-1.7,0.5-3.1,1.4-4.3,2.5
		c-1.1,1.1-1.7,2.6-1.7,4.3c0,1.6,0.5,3,1.6,4.2c1,1.2,2.3,2.1,3.8,2.8c1.5,0.7,3.4,1.5,5.8,2.4c1.8,0.7,3.2,1.3,4.2,1.7
		c1,0.5,1.8,1,2.5,1.6c0.7,0.6,1,1.3,1,2.1c0,1.4-0.7,2.5-2,3.4c-1.3,0.9-3,1.3-5,1.3c-2.2,0-4.1-0.5-5.8-1.4
		c-1.7-0.9-3.1-2-4.2-3.3c-1.1-1.2-1.9-2.4-2.3-3.4l0.6,6.7c1-0.3,2.1-0.2,3,0.2c1,0.4,2.1,0.8,3.3,1.1c1.8,0.4,3.6,0.7,5.5,0.7
		c3.5,0,6.4-0.8,8.6-2.3c2.2-1.5,3.3-3.7,3.3-6.3c0-1.3-0.4-2.5-1.3-3.4C106.7,14.9,105.6,14.1,104.4,13.5z"/>
	<path class="st0" d="M24.2,2.1c-1.9-1.2-3.9-1.9-6-1.9c-1.7,0-3.2,0.4-4.6,1.3c-1.4,0.9-2.8,2.2-4.2,3.9l0-4.4L1,2.8
		C1.4,3.1,1.8,3.5,2.1,4c0.2,0.4,0.4,1.1,0.4,1.7l0,31.3l0,0c0,1.4-0.9,2.4-2.1,2.8h2.8h4.1l4.2,0c-1.2-0.3-2.1-1.4-2.1-2.8l0-10.2
		c1.8,0.7,3.8,1.1,5.9,1.1c2.7,0,5.2-0.6,7.5-1.9c2.3-1.2,4.1-2.9,5.5-5c1.4-2.1,2-4.4,2-6.8c0-2.4-0.6-5-1.7-7.2
		C27.6,5,26.1,3.3,24.2,2.1z M21.4,23.4c-1.2,2.5-3.2,4-6,4c-2.6,0-4.6-1.2-5.9-3.6l0-17.8c2-2.4,4.1-3.6,6.3-3.6
		c0.9,0,1.7,0.2,2.5,0.6c1.8,0.8,3,2.1,3.8,3.8c0.8,1.7,1.1,4.4,1.1,7.3C23.2,18.1,22.6,21,21.4,23.4z"/>
</g>
</svg>
