<?xml version="1.0" encoding="utf-8"?>
<!-- Generator: Adobe Illustrator 25.4.1, SVG Export Plug-In . SVG Version: 6.00 Build 0)  -->
<svg version="1.1" id="レイヤー_1" xmlns="http://www.w3.org/2000/svg" xmlns:xlink="http://www.w3.org/1999/xlink" x="0px"
	 y="0px" viewBox="0 0 150 80" style="enable-background:new 0 0 150 80;" xml:space="preserve">
<style type="text/css">
	.st0{fill:#82B1BC;}
</style>
<g>
	<path class="st0" d="M92.3,8.4c0-2.1,0.6-4.1,2-5.5c0.3-0.3,0.6-0.6,0.9-0.8c-1.9-1.3-4.2-2-7.3-2c-1.5,0-3.1,0.4-4.8,1.3
		c-1.7,0.8-3.2,2.1-4.8,3.8V3.1c0-1.1-1.1-2-2.2-1.7l-8.4,1.7c2,0.3,2.5,2.2,2.5,2.9v10c0,1-0.3,2-0.8,2.9c-1.5,2.5-2.7,4.2-5.1,6.5
		c-2.7,2.6-6.2,3.7-9.9,3.7c-3.5,0-5.9-1.3-7.3-3.9c-1.4-2.6-2.1-5.8-2.1-9.8v-1.8h20.2c0-2.6-0.6-4.9-1.8-7c-1.2-2.1-2.9-3.7-5-4.9
		C56.3,0.6,54,0,51.6,0c-2.8,0-5.4,0.7-7.6,2.1c-2.3,1.4-4,3.2-5.3,5.6c-1.3,2.3-1.9,4.9-1.9,7.6c0,2.8,0.7,5.3,2.2,7.7
		c1.5,2.3,3.5,4.2,6,5.5c2.6,1.4,5.4,2,8.6,2c8,0,13.1-4.7,18.2-14l1.1-2.1c1-1.9,1.9-3.4,2.6-4.6c0.7-1.2,1.5-2.3,2.4-3.3L78.2,6
		c2-2.2,3.9-3.2,5.9-3.3c3.3-0.1,5.6,2.8,8.1,6.6C92.3,9,92.3,8.7,92.3,8.4z M46.9,4c1-2.3,2.6-3.4,4.7-3.4c2.4,0,4,1,4.8,3
		c0.8,2,1.2,5.2,1.2,9.4H45C45,9.8,45.9,6.3,46.9,4z"/>
	<path class="st0" d="M78.4,27.8v-0.3V7.7c-0.8,1-1.6,2.1-2.3,3.2c-0.7,1.1-1.5,2.6-2.5,4.4l-1,1.9c-0.6,1.1-1.3,2.3-2.3,3.7v6.8
		c0,1.6-1.4,2.5-2.5,2.7h7.8C77.1,30.5,78.4,29.3,78.4,27.8z"/>
	<path class="st0" d="M140.3,29.2c-1.2,0-2.4-0.2-3.5-0.6c-2.3-0.9-3.9-2.6-4.9-5.2c-0.9-2.6-1.4-5.3-1.4-8.1l0-1.6h20.5
		c0-2.6-0.6-4.9-1.8-7c-1.2-2.1-2.9-3.7-5-4.9c-2.1-1.2-4.5-1.8-7-1.8c-2.8,0-5.5,0.7-7.8,2.1c-2.3,1.4-4,3.2-5.3,5.6
		c-1.3,2.3-1.9,4.9-1.9,7.6c0,2.8,0.7,5.3,2.2,7.7c1.5,2.3,3.5,4.2,6,5.5c2.5,1.4,5.4,2,8.5,2c2.1,0,4-0.4,5.7-1.3
		c1.7-0.8,3.1-2,4.2-3.4c-1.5,1.1-3,1.9-4.3,2.5C143.2,28.9,141.8,29.2,140.3,29.2z M132.3,4c1-2.3,2.7-3.5,4.9-3.5
		c2.4,0,4.1,1,4.8,3.1c0.8,2,1.2,5.2,1.2,9.5h-12.8C130.5,9.5,131.3,6.3,132.3,4z"/>
	<path class="st0" d="M115.5,14.6c-1.3-0.7-3.2-1.5-5.6-2.4c-2.1-0.8-3.7-1.4-5-2c-1.2-0.6-2.2-1.3-3.1-2.1
		c-0.8-0.8-1.2-1.8-1.2-2.9c0-1.6,0.6-2.8,1.8-3.6c1.2-0.7,2.7-1.1,4.4-1.1c2.8,0,5,0.7,6.8,2.2c1.7,1.5,3,3.2,3.8,5.2l-0.6-6.3l0,0
		c-0.7,0.4-1.5,0.4-2.2,0.1c-0.9-0.4-1.8-0.7-2.9-1c-1.5-0.4-3.1-0.6-4.8-0.6c-2,0-3.9,0.3-5.8,0.9c-1.9,0.6-3.5,1.5-4.7,2.8
		c-1.2,1.3-1.9,2.8-1.9,4.7c0,1.8,0.6,3.3,1.7,4.6c1.2,1.3,2.6,2.3,4.2,3.1c1.7,0.8,3.8,1.7,6.3,2.6c2,0.8,3.5,1.4,4.6,1.9
		c1.1,0.5,2,1.1,2.7,1.8c0.7,0.7,1.1,1.5,1.1,2.3c0,1.5-0.7,2.8-2.2,3.7c-1.5,0.9-3.3,1.4-5.5,1.4c-2.4,0-4.5-0.5-6.4-1.5
		c-1.9-1-3.4-2.2-4.6-3.6c-1.2-1.4-2.1-2.6-2.6-3.8l0.7,7.4c1.1-0.3,2.3-0.3,3.3,0.2c1.1,0.5,2.3,0.9,3.6,1.2c2,0.5,4,0.7,6.1,0.7
		c3.9,0,7-0.8,9.4-2.5s3.6-4,3.6-7c0-1.5-0.5-2.7-1.5-3.8C118,16.2,116.8,15.3,115.5,14.6z"/>
	<path class="st0" d="M11.1,40.5l0-11.2c2,0.8,4.2,1.2,6.5,1.2c3,0,5.7-0.7,8.3-2c2.5-1.4,4.5-3.2,6-5.5c1.5-2.3,2.2-4.8,2.2-7.5
		c0-2.7-0.6-5.6-1.9-7.9C31,5.2,29.4,3.4,27.3,2c-2.1-1.4-4.2-2-6.6-2c-1.9,0-3.6,0.5-5.1,1.4c-1.5,0.9-3.1,2.4-4.6,4.3V0.9l-9.3,2
		c0.5,0.3,1,0.8,1.2,1.3c0.2,0.4,0.4,1.2,0.4,1.9v34.4h0c0,1.5-1,2.7-2.3,3.1h3.1h4.6h4.6C12,43.2,11.1,42,11.1,40.5z M11.1,6.4
		c2.2-2.6,4.6-4,7-4c1,0,1.9,0.2,2.7,0.7c1.9,0.9,3.3,2.3,4.2,4.2c0.8,1.9,1.2,4.8,1.2,8c0,4.3-0.7,7.4-2,10.1
		c-1.3,2.7-3.5,4.4-6.6,4.4c-2.9,0-5-1.3-6.5-4V6.4z"/>
	<path class="st0" d="M34,53.2l-1.6,0.1l0.2,0.2c0.1,0.1,0.1,0.2,0.1,0.2c0,0.1,0.1,0.1,0.1,0.2c0,0.1,0,0.2,0.1,0.3
		c0,0.1,0,0.3,0,0.4v6.7c0,0.2,0,0.3,0,0.4c0,0.1,0,0.2-0.1,0.2c0,0.1-0.1,0.1-0.2,0.1c-0.1,0-0.2,0.1-0.3,0.1l-1.1,0.3h4.2
		l-0.8-0.3c-0.1,0-0.2-0.1-0.3-0.1c-0.1,0-0.1-0.1-0.1-0.1c0-0.1-0.1-0.1-0.1-0.2c0-0.1,0-0.2,0-0.4v-1.6c0.2,0.2,0.5,0.3,0.7,0.4
		c0.3,0.1,0.7,0.2,1.1,0.2c0.5,0,1-0.1,1.4-0.3c0.4-0.2,0.8-0.5,1.1-0.8c0.3-0.3,0.6-0.7,0.7-1.2c0.2-0.5,0.3-1,0.3-1.5
		c0-0.5-0.1-1-0.3-1.4c-0.2-0.4-0.4-0.8-0.7-1.1c-0.3-0.3-0.7-0.5-1.1-0.7c-0.4-0.2-0.9-0.2-1.4-0.2c-0.2,0-0.3,0-0.5,0
		c-0.2,0-0.4,0.1-0.6,0.1c-0.2,0.1-0.4,0.2-0.6,0.3c-0.1,0.1-0.2,0.1-0.2,0.2V53.2z M37.6,54.7c0.2,0.3,0.4,0.7,0.5,1.1
		c0.1,0.4,0.2,0.9,0.2,1.3c0,0.4-0.1,0.8-0.2,1.2c-0.1,0.4-0.3,0.7-0.5,0.9c-0.2,0.3-0.4,0.5-0.7,0.6c-0.3,0.1-0.6,0.2-1,0.2
		c-0.4,0-0.8-0.1-1.1-0.3c-0.3-0.2-0.6-0.5-0.8-0.9v-4.3c0.2-0.3,0.5-0.5,0.7-0.6c0.3-0.1,0.6-0.2,0.9-0.2c0.4,0,0.8,0.1,1.1,0.2
		C37.1,54.2,37.4,54.4,37.6,54.7z"/>
	<path class="st0" d="M41.8,59.6c0,0.1,0,0.2-0.1,0.2c0,0.1-0.1,0.1-0.1,0.1c-0.1,0-0.2,0.1-0.3,0.1l-0.9,0.3h4l-0.8-0.3
		c-0.1,0-0.2-0.1-0.3-0.1c-0.1,0-0.1-0.1-0.1-0.1c0-0.1-0.1-0.1-0.1-0.2c0-0.1,0-0.2,0-0.4v-3.9c0.1-0.2,0.1-0.4,0.2-0.5
		c0.1-0.2,0.2-0.3,0.3-0.4c0.1-0.1,0.2-0.2,0.3-0.3c0.2-0.1,0.5-0.1,0.7,0c0.1,0,0.2,0.1,0.3,0.2c0.1,0.1,0.2,0.2,0.3,0.3
		c0.1,0.1,0.2,0.2,0.2,0.3l0.3,0.3l0-1.7l-0.1,0c-0.4-0.1-1.1-0.1-1.5,0c-0.2,0.1-0.4,0.2-0.6,0.4c-0.2,0.2-0.3,0.3-0.4,0.5
		c0,0,0,0.1-0.1,0.1v-1.2l-1.6,0.1l0.2,0.2c0.1,0.1,0.1,0.1,0.1,0.2c0,0.1,0.1,0.1,0.1,0.2c0,0.1,0,0.2,0.1,0.3c0,0.1,0,0.3,0,0.4
		v4.4C41.8,59.4,41.8,59.5,41.8,59.6z"/>
	<path class="st0" d="M53.6,54.3c-0.3-0.3-0.7-0.6-1.1-0.7c-0.4-0.2-0.9-0.3-1.5-0.3s-1,0.1-1.5,0.3c-0.4,0.2-0.8,0.4-1.1,0.7
		c-0.3,0.3-0.6,0.7-0.7,1.1c-0.2,0.4-0.3,0.9-0.3,1.5c0,0.5,0.1,1,0.3,1.4c0.2,0.4,0.4,0.8,0.7,1.1c0.3,0.3,0.7,0.6,1.1,0.7
		c0.4,0.2,0.9,0.3,1.5,0.3s1-0.1,1.5-0.3c0.4-0.2,0.8-0.4,1.1-0.7c0.3-0.3,0.6-0.7,0.7-1.1c0.2-0.4,0.3-0.9,0.3-1.5
		c0-0.5-0.1-1-0.3-1.4C54.1,55,53.9,54.6,53.6,54.3z M49.3,59.2c-0.2-0.3-0.4-0.6-0.5-1c-0.1-0.4-0.2-0.8-0.2-1.3
		c0-0.5,0.1-0.9,0.2-1.3c0.1-0.4,0.3-0.7,0.5-1c0.2-0.3,0.5-0.5,0.7-0.6c0.3-0.1,0.6-0.2,0.9-0.2c0.3,0,0.7,0.1,0.9,0.2
		c0.3,0.2,0.5,0.4,0.7,0.6c0.2,0.3,0.4,0.6,0.5,1c0.1,0.4,0.2,0.8,0.2,1.3c0,0.5-0.1,0.9-0.2,1.3c-0.1,0.4-0.3,0.7-0.5,1
		c-0.2,0.3-0.4,0.5-0.7,0.6c-0.6,0.3-1.3,0.3-1.9,0C49.7,59.6,49.5,59.4,49.3,59.2z"/>
	<path class="st0" d="M63.3,60.4l-0.2-0.2c-0.1-0.1-0.2-0.2-0.2-0.4c-0.1-0.1-0.1-0.4-0.1-0.7V51l-1.7,0.2l0.3,0.2
		c0.1,0.1,0.2,0.2,0.2,0.2c0,0.1,0.1,0.2,0.1,0.5v1.7c-0.2-0.2-0.5-0.3-0.7-0.4c-0.3-0.1-0.7-0.2-1.1-0.2c-0.5,0-1,0.1-1.4,0.3
		c-0.4,0.2-0.8,0.4-1.1,0.8c-0.3,0.3-0.6,0.7-0.7,1.2c-0.2,0.5-0.3,1-0.3,1.5c0,0.5,0.1,0.9,0.3,1.4c0.2,0.4,0.4,0.8,0.7,1.1
		c0.3,0.3,0.7,0.6,1.1,0.7s0.9,0.3,1.4,0.3c0.4,0,0.8-0.1,1.1-0.2c0.3-0.1,0.5-0.3,0.7-0.5v0.7L63.3,60.4z M58.2,59
		c-0.2-0.3-0.4-0.7-0.5-1.1c-0.1-0.4-0.2-0.9-0.2-1.3c0-0.4,0.1-0.8,0.2-1.2c0.1-0.3,0.2-0.6,0.4-0.9c0.2-0.2,0.4-0.4,0.7-0.6
		c0.3-0.1,0.6-0.2,0.9-0.2c0.4,0,0.8,0.1,1.1,0.3c0.3,0.2,0.6,0.6,0.8,1v4c-0.2,0.3-0.4,0.5-0.7,0.6c-0.3,0.2-0.6,0.2-0.9,0.2
		c-0.4,0-0.7-0.1-1-0.3C58.7,59.6,58.5,59.3,58.2,59z"/>
	<path class="st0" d="M71.7,60.4l-0.2-0.2c-0.1-0.1-0.2-0.2-0.2-0.4c-0.1-0.1-0.1-0.4-0.1-0.7v-5.8l-1.7,0.1l0.2,0.2
		c0.1,0.1,0.1,0.1,0.1,0.2c0,0.1,0.1,0.1,0.1,0.2c0,0.1,0,0.2,0,0.3c0,0.1,0,0.3,0,0.4v2.7c0,0.3-0.1,0.6-0.2,0.9
		c-0.1,0.3-0.2,0.6-0.4,0.8c-0.2,0.2-0.4,0.4-0.6,0.6C68.6,59.9,68.3,60,68,60c-0.2,0-0.4,0-0.6-0.1c-0.2-0.1-0.3-0.1-0.4-0.3
		c-0.1-0.1-0.2-0.3-0.3-0.5c-0.1-0.2-0.1-0.5-0.1-0.8v-5l-1.6,0.1l0.2,0.2c0.1,0.1,0.1,0.2,0.1,0.2c0,0.1,0.1,0.1,0.1,0.2
		c0,0.1,0,0.2,0.1,0.3c0,0.1,0,0.3,0,0.4v3.4c0,0.8,0.2,1.3,0.7,1.7c0.4,0.4,1,0.6,1.7,0.6c0.3,0,0.6,0,0.9-0.1
		c0.3-0.1,0.5-0.2,0.7-0.4c0.2-0.2,0.4-0.4,0.5-0.6c0-0.1,0.1-0.1,0.1-0.2v1.3L71.7,60.4z"/>
	<path class="st0" d="M78.5,59.4C78,59.8,77.5,60,77,60c-0.3,0-0.6-0.1-0.9-0.2c-0.3-0.1-0.5-0.4-0.7-0.6c-0.2-0.3-0.4-0.6-0.5-1
		c-0.1-0.4-0.2-0.8-0.2-1.3c0-0.5,0.1-0.9,0.2-1.3c0.1-0.4,0.3-0.7,0.5-1c0.2-0.3,0.4-0.5,0.7-0.6c0.5-0.3,1-0.3,1.6-0.1
		c0.2,0.1,0.4,0.2,0.6,0.4c0.2,0.2,0.4,0.5,0.5,0.8c0.1,0.3,0.2,0.7,0.3,1.2l0.1,0.9l0.6-2.9l-0.1-0.1c-0.4-0.3-0.8-0.5-1.2-0.7
		c-0.5-0.2-1-0.3-1.5-0.3c-0.5,0-1,0.1-1.4,0.3c-0.4,0.2-0.8,0.4-1.1,0.7c-0.3,0.3-0.5,0.7-0.7,1.1c-0.2,0.4-0.3,0.9-0.3,1.4
		c0,0.5,0.1,1,0.3,1.5c0.2,0.4,0.4,0.8,0.7,1.1c0.3,0.3,0.7,0.6,1.1,0.7c0.4,0.2,0.9,0.3,1.4,0.3c0.2,0,0.4,0,0.6,0
		c0.2,0,0.5-0.1,0.7-0.1c0.2-0.1,0.5-0.2,0.7-0.3c0.2-0.1,0.4-0.3,0.6-0.4l0,0l0.1-3.4l-0.3,1.3C79.2,58.3,78.9,58.9,78.5,59.4z"/>
	<path class="st0" d="M83,56.3h5.1l0-0.1c0-0.4-0.1-0.8-0.2-1.2c-0.1-0.4-0.3-0.7-0.6-0.9c-0.2-0.3-0.6-0.5-0.9-0.6
		c-0.4-0.1-0.8-0.2-1.3-0.2c-0.5,0-1,0.1-1.4,0.3c-0.4,0.2-0.8,0.4-1.1,0.8c-0.3,0.3-0.5,0.7-0.7,1.2c-0.2,0.4-0.2,0.9-0.2,1.4
		c0,0.5,0.1,1,0.3,1.5c0.2,0.4,0.4,0.8,0.8,1.1c0.3,0.3,0.7,0.6,1.1,0.7c0.4,0.2,0.9,0.3,1.4,0.3c0.4,0,0.9-0.1,1.4-0.2
		c0.5-0.1,0.9-0.4,1.3-0.7l0,0l0.2-2.8l-0.3,1c-0.1,0.3-0.3,0.7-0.4,1c-0.2,0.3-0.4,0.5-0.6,0.7c-0.2,0.2-0.4,0.4-0.7,0.5
		c-0.5,0.2-1.2,0.2-1.7-0.1c-0.3-0.2-0.5-0.4-0.7-0.6c-0.2-0.3-0.4-0.6-0.5-1c-0.1-0.4-0.2-0.8-0.2-1.2c0-0.1,0-0.2,0-0.4
		C83,56.5,83,56.4,83,56.3z M86.3,54.4c0.2,0.2,0.3,0.5,0.4,0.7c0.1,0.2,0.1,0.5,0.1,0.8H83c0.1-0.3,0.1-0.6,0.2-0.8
		c0.1-0.3,0.3-0.5,0.4-0.7c0.2-0.2,0.4-0.4,0.6-0.5c0.5-0.2,1.1-0.2,1.5,0C86,54,86.2,54.2,86.3,54.4z"/>
	<path class="st0" d="M95.3,59.8v0.7l1.7-0.1l-0.2-0.2c-0.1-0.1-0.2-0.2-0.2-0.4c-0.1-0.1-0.1-0.4-0.1-0.7V51l-1.7,0.2l0.3,0.2
		c0.1,0.1,0.2,0.2,0.2,0.2c0,0.1,0.1,0.2,0.1,0.5v1.7c-0.2-0.2-0.5-0.3-0.7-0.4c-0.3-0.1-0.7-0.2-1.1-0.2c-0.5,0-1,0.1-1.4,0.3
		c-0.4,0.2-0.8,0.4-1.1,0.8c-0.3,0.3-0.6,0.7-0.7,1.2C90,56,90,56.5,90,57.1c0,0.5,0.1,0.9,0.3,1.4c0.2,0.4,0.4,0.8,0.7,1.1
		c0.3,0.3,0.7,0.6,1.1,0.7c0.4,0.2,0.9,0.3,1.4,0.3c0.4,0,0.8-0.1,1.1-0.2C94.8,60.1,95.1,60,95.3,59.8z M91.8,59
		c-0.2-0.3-0.4-0.7-0.5-1.1c-0.1-0.4-0.2-0.9-0.2-1.3c0-0.4,0.1-0.8,0.2-1.2c0.1-0.3,0.2-0.6,0.4-0.9c0.2-0.2,0.4-0.4,0.7-0.6
		s0.6-0.2,0.9-0.2c0.4,0,0.8,0.1,1.1,0.3c0.3,0.2,0.6,0.6,0.8,1v4c-0.2,0.3-0.4,0.5-0.7,0.6C94.3,59.9,94,60,93.7,60
		c-0.4,0-0.7-0.1-1-0.3C92.3,59.6,92.1,59.3,91.8,59z"/>
	<path class="st0" d="M103.4,51.2l0.3,0.2c0.1,0.1,0.2,0.2,0.2,0.2c0,0.1,0.1,0.2,0.1,0.5v8.2l0.2,0.1l0.6-0.8
		c0.6,0.5,1.3,0.8,2.1,0.8c0.5,0,1-0.1,1.4-0.3c0.4-0.2,0.8-0.5,1.1-0.8c0.3-0.3,0.6-0.7,0.7-1.2c0.2-0.5,0.3-1,0.3-1.5
		c0-0.5-0.1-1-0.3-1.4c-0.2-0.4-0.4-0.8-0.7-1.1c-0.3-0.3-0.7-0.5-1.1-0.7c-0.4-0.2-0.9-0.2-1.5-0.2c-0.2,0-0.3,0-0.5,0
		c-0.2,0-0.4,0.1-0.5,0.1c-0.2,0.1-0.4,0.2-0.5,0.3c-0.1,0.1-0.2,0.1-0.2,0.2V51L103.4,51.2z M108.6,54.7c0.2,0.3,0.4,0.7,0.5,1.1
		c0.1,0.4,0.2,0.9,0.2,1.3c0,0.4-0.1,0.8-0.2,1.1c-0.1,0.3-0.3,0.6-0.5,0.9c-0.2,0.2-0.4,0.4-0.7,0.6c-0.3,0.1-0.6,0.2-1,0.2
		c-0.4,0-0.8-0.1-1.1-0.3c-0.3-0.2-0.6-0.5-0.8-0.9v-4.2c0.2-0.3,0.5-0.5,0.7-0.6c0.8-0.3,1.5-0.2,2,0.1
		C108.1,54.2,108.4,54.4,108.6,54.7z"/>
	<path class="st0" d="M113.1,61.1l-0.3-0.2l0.6,1.6l0.1,0c0.3,0,0.5-0.1,0.8-0.3c0.2-0.1,0.4-0.3,0.5-0.5c0.2-0.2,0.3-0.4,0.4-0.5
		c0.1-0.2,0.2-0.3,0.2-0.5l2.5-6.4c0.1-0.3,0.2-0.4,0.3-0.5c0.2-0.1,0.2-0.2,0.3-0.2l0.4-0.3h-2l0.5,0.3c0,0,0.1,0.1,0.1,0.1
		c0,0,0,0.1,0,0.2c0,0.1,0,0.2-0.1,0.3l-1.8,4.6l-1.9-4.6c-0.1-0.3-0.1-0.5-0.1-0.5c0-0.1,0.1-0.1,0.1-0.2l0.3-0.3h-2.4l0.4,0.3
		c0.1,0,0.1,0.1,0.2,0.2c0.1,0.1,0.2,0.3,0.3,0.5l2.5,6.1c-0.1,0.3-0.3,0.6-0.5,0.7C114.1,61.4,113.6,61.4,113.1,61.1z"/>
	<path class="st0" d="M22.8,71.1c0,0,0.1,0.1,0.1,0.1c0,0,0,0.1,0,0.2c0,0.1,0,0.2-0.1,0.3l-1.8,4.6l-1.9-4.6
		c-0.1-0.3-0.1-0.5-0.1-0.5c0-0.1,0.1-0.1,0.1-0.2l0.3-0.3h-2.4l0.4,0.3c0.1,0,0.1,0.1,0.2,0.2c0.1,0.1,0.2,0.3,0.3,0.5l2.5,6.1
		c-0.1,0.3-0.3,0.6-0.5,0.7c-0.4,0.3-0.9,0.3-1.5,0l-0.3-0.2l0.6,1.6l0.1,0c0.3,0,0.5-0.1,0.8-0.3c0.2-0.1,0.4-0.3,0.5-0.5
		c0.2-0.2,0.3-0.4,0.4-0.5c0.1-0.2,0.2-0.3,0.2-0.5l2.5-6.4c0.1-0.3,0.2-0.4,0.3-0.5c0.2-0.1,0.2-0.2,0.3-0.2l0.4-0.3h-2L22.8,71.1z
		"/>
	<path class="st0" d="M31.8,71.7c-0.3-0.3-0.7-0.6-1.1-0.7c-0.4-0.2-0.9-0.3-1.5-0.3c-0.5,0-1,0.1-1.5,0.3c-0.4,0.2-0.8,0.4-1.1,0.7
		c-0.3,0.3-0.6,0.7-0.7,1.1c-0.2,0.4-0.3,0.9-0.3,1.5c0,0.5,0.1,1,0.3,1.4c0.2,0.4,0.4,0.8,0.7,1.1c0.3,0.3,0.7,0.6,1.1,0.7
		c0.4,0.2,0.9,0.3,1.5,0.3c0.5,0,1-0.1,1.5-0.3c0.4-0.2,0.8-0.4,1.1-0.7c0.3-0.3,0.6-0.7,0.7-1.1c0.2-0.4,0.3-0.9,0.3-1.5
		c0-0.5-0.1-1-0.3-1.4C32.4,72.5,32.1,72.1,31.8,71.7z M27.5,76.6c-0.2-0.3-0.4-0.6-0.5-1c-0.1-0.4-0.2-0.8-0.2-1.3
		c0-0.5,0.1-0.9,0.2-1.3c0.1-0.4,0.3-0.7,0.5-1c0.2-0.3,0.5-0.5,0.7-0.6c0.3-0.1,0.6-0.2,0.9-0.2c0.3,0,0.7,0.1,0.9,0.2
		c0.3,0.2,0.5,0.4,0.7,0.6c0.2,0.3,0.4,0.6,0.5,1c0.1,0.4,0.2,0.8,0.2,1.3c0,0.5-0.1,0.9-0.2,1.3c-0.1,0.4-0.3,0.7-0.5,1
		c-0.2,0.3-0.4,0.5-0.7,0.6c-0.6,0.3-1.3,0.3-1.9,0C28,77.1,27.7,76.9,27.5,76.6z"/>
	<path class="st0" d="M39.2,74.3c-0.2-0.2-0.4-0.3-0.6-0.4c-0.2-0.1-0.4-0.2-0.5-0.2l-1.2-0.4c-0.1,0-0.2-0.1-0.4-0.1
		c-0.1,0-0.2-0.1-0.3-0.2c-0.1-0.1-0.2-0.2-0.3-0.3c-0.1-0.1-0.1-0.2-0.1-0.4c0-0.4,0.1-0.7,0.4-0.8c0.3-0.2,0.6-0.3,1-0.3
		c0.5,0,0.9,0.2,1.2,0.5c0.3,0.3,0.6,0.9,0.8,1.6l0.2,0.9l0.1-2.6l-0.1,0c-0.3-0.2-0.6-0.4-1-0.6c-0.4-0.1-0.8-0.2-1.3-0.2
		c-0.7,0-1.2,0.2-1.7,0.5c-0.4,0.3-0.6,0.8-0.6,1.4c0,0.3,0.1,0.5,0.2,0.8c0.1,0.2,0.2,0.4,0.4,0.5c0.2,0.1,0.3,0.3,0.5,0.4
		c0.2,0.1,0.3,0.2,0.5,0.2l1.3,0.4c0.1,0,0.2,0.1,0.4,0.1c0.1,0.1,0.3,0.1,0.4,0.2c0.1,0.1,0.2,0.2,0.3,0.4c0.1,0.1,0.1,0.3,0.1,0.5
		c0,0.4-0.1,0.7-0.4,1c-0.3,0.3-0.7,0.4-1.2,0.4c-0.3,0-0.5,0-0.8-0.1c-0.2-0.1-0.4-0.2-0.6-0.4c-0.2-0.2-0.3-0.5-0.5-0.8
		c-0.1-0.3-0.2-0.8-0.3-1.3l-0.3,0l-0.2,2.4l0.1,0c0.3,0.2,0.7,0.4,1.1,0.5c0.4,0.1,0.9,0.2,1.4,0.2c0.4,0,0.8-0.1,1.1-0.2
		c0.3-0.1,0.6-0.3,0.8-0.5c0.2-0.2,0.4-0.4,0.5-0.7c0.1-0.3,0.2-0.6,0.2-0.9c0-0.3-0.1-0.6-0.2-0.9C39.6,74.6,39.4,74.4,39.2,74.3z"
		/>
	<path class="st0" d="M48.8,77.5c-0.1,0-0.1-0.1-0.1-0.1c0-0.1-0.1-0.1-0.1-0.2c0-0.1,0-0.2,0-0.4v-3.6c0-0.3-0.1-0.7-0.2-1
		c-0.1-0.3-0.3-0.6-0.5-0.8c-0.2-0.2-0.5-0.4-0.8-0.5c-0.3-0.1-0.7-0.2-1.1-0.2c-0.7,0-1.3,0.2-1.8,0.5c-0.3,0.2-0.5,0.5-0.7,0.8
		v-3.7l-1.7,0.2l0.3,0.2c0.1,0.1,0.2,0.2,0.2,0.2c0,0.1,0.1,0.2,0.1,0.5v7.1c0,0.2,0,0.3,0,0.4c0,0.1,0,0.2-0.1,0.2
		c0,0.1-0.1,0.1-0.1,0.1c-0.1,0-0.2,0.1-0.3,0.1l-0.9,0.3h4l-0.8-0.3c-0.1,0-0.2-0.1-0.3-0.1c-0.1,0-0.1-0.1-0.1-0.1
		c0-0.1-0.1-0.1-0.1-0.2c0-0.1,0-0.2,0-0.4v-3c0-0.4,0.1-0.8,0.2-1.1c0.1-0.3,0.3-0.6,0.5-0.8c0.2-0.2,0.5-0.4,0.7-0.5
		c0.3-0.1,0.6-0.2,0.8-0.2c0.5,0,0.9,0.2,1.2,0.5c0.3,0.3,0.4,0.8,0.4,1.3v3.7c0,0.2,0,0.3,0,0.4c0,0.1,0,0.2-0.1,0.2
		c0,0.1-0.1,0.1-0.1,0.1c-0.1,0-0.2,0.1-0.3,0.1L46,77.9h4l-0.8-0.3C49,77.6,48.9,77.5,48.8,77.5z"/>
	<path class="st0" d="M52.6,69.9c0.2-0.1,0.2-0.3,0.2-0.6c0-0.2-0.1-0.4-0.2-0.5c-0.3-0.3-0.8-0.3-1.1,0c-0.2,0.1-0.2,0.3-0.2,0.5
		c0,0.2,0.1,0.4,0.2,0.6c0.1,0.1,0.3,0.2,0.5,0.2C52.3,70.1,52.5,70.1,52.6,69.9z"/>
	<path class="st0" d="M53,77.5c-0.1,0-0.1-0.1-0.1-0.1c0-0.1-0.1-0.1-0.1-0.2c0-0.1,0-0.2,0-0.4v-6l-1.7,0.1l0.2,0.2
		c0.1,0.1,0.1,0.1,0.1,0.2c0,0.1,0.1,0.1,0.1,0.2c0,0.1,0,0.2,0.1,0.3c0,0.1,0,0.3,0,0.4v4.4c0,0.2,0,0.3,0,0.4c0,0.1,0,0.2-0.1,0.2
		c0,0.1-0.1,0.1-0.1,0.1c-0.1,0-0.2,0.1-0.3,0.1l-0.9,0.3h4l-0.8-0.3C53.1,77.6,53,77.5,53,77.5z"/>
	<path class="st0" d="M60.7,77.3c0-0.2-0.1-0.4-0.1-0.6v-3.8c0-0.7-0.2-1.2-0.7-1.6c-0.4-0.4-1-0.5-1.8-0.5c-0.5,0-0.9,0.1-1.4,0.2
		c-0.4,0.1-0.8,0.3-1.1,0.6l-0.1,0l0.1,3.2l0.2-1.1c0.1-0.5,0.3-0.9,0.4-1.2c0.2-0.3,0.3-0.6,0.5-0.8c0.2-0.2,0.4-0.3,0.6-0.4
		c0.2-0.1,0.4-0.1,0.6-0.1c0.4,0,0.8,0.1,1,0.4c0.2,0.3,0.3,0.7,0.3,1.2v0.8l-1.2,0.3h0c-0.3,0.1-0.6,0.2-0.9,0.3
		c-0.3,0.1-0.7,0.2-1,0.4c-0.3,0.2-0.6,0.4-0.8,0.7c-0.2,0.3-0.3,0.6-0.3,1c0,0.3,0.1,0.5,0.2,0.8c0.1,0.2,0.3,0.4,0.5,0.5
		c0.2,0.1,0.4,0.3,0.7,0.3c0.3,0.1,0.5,0.1,0.8,0.1c0.3,0,0.6,0,0.9-0.1c0.3-0.1,0.5-0.2,0.7-0.4c0.2-0.2,0.4-0.3,0.5-0.5
		c0,0,0,0,0-0.1v1.1l1.7-0.1l-0.3-0.2C60.8,77.5,60.7,77.4,60.7,77.3z M56.6,75.4c0.1-0.2,0.3-0.4,0.5-0.5c0.2-0.1,0.4-0.2,0.6-0.3
		c0.2-0.1,0.4-0.1,0.6-0.2l1.1-0.3v1.3c0,0.4-0.1,0.7-0.2,0.9c-0.1,0.3-0.3,0.5-0.5,0.7c-0.2,0.2-0.4,0.3-0.6,0.4
		c-0.2,0.1-0.4,0.1-0.6,0.1c-0.4,0-0.6-0.1-0.8-0.3c-0.2-0.2-0.3-0.5-0.3-0.9C56.4,75.9,56.5,75.6,56.6,75.4z"/>
	<path class="st0" d="M68.2,71.9c0.2-0.2,0.4-0.3,0.5-0.4c0.1-0.1,0.3-0.2,0.4-0.3c0.1-0.1,0.2-0.1,0.3-0.2l0.5-0.3h-1.9l0,0.2
		c0,0.2,0,0.3-0.2,0.5c-0.1,0.2-0.3,0.4-0.5,0.5l-2.8,2.5v-6l-1.7,0.2l0.3,0.2c0.1,0.1,0.2,0.2,0.2,0.2c0,0.1,0.1,0.2,0.1,0.5v7.1
		c0,0.2,0,0.3,0,0.4c0,0.1,0,0.2-0.1,0.2c0,0.1-0.1,0.1-0.1,0.1c-0.1,0-0.2,0.1-0.3,0.1l-0.9,0.3h4l-0.8-0.3c-0.1,0-0.2-0.1-0.3-0.1
		c-0.1,0-0.1-0.1-0.1-0.1c0-0.1-0.1-0.1-0.1-0.2c0-0.1,0-0.2,0-0.4v-1.6l1-0.9l1.9,2.4c0.1,0.2,0.3,0.4,0.3,0.5
		c0.1,0.1,0.1,0.2,0.2,0.3c0,0.1,0,0.1,0,0.1c0,0,0,0,0,0l-0.1,0.2h1.8l0-0.3c0,0-0.1-0.1-0.2-0.2c-0.1-0.1-0.2-0.2-0.3-0.4
		c-0.1-0.2-0.3-0.4-0.5-0.7l-2.2-2.8l1.2-1.1C67.8,72.2,68,72,68.2,71.9z"/>
	<path class="st0" d="M71.9,68.8c-0.2,0.1-0.2,0.3-0.2,0.5c0,0.2,0.1,0.4,0.2,0.6c0.1,0.1,0.3,0.2,0.5,0.2c0.2,0,0.4-0.1,0.6-0.2
		c0.2-0.1,0.2-0.3,0.2-0.6c0-0.2-0.1-0.4-0.2-0.5C72.7,68.6,72.2,68.6,71.9,68.8z"/>
	<path class="st0" d="M73.3,77.5c-0.1,0-0.1-0.1-0.1-0.1c0-0.1-0.1-0.1-0.1-0.2c0-0.1,0-0.2,0-0.4v-6l-1.7,0.1l0.2,0.2
		c0.1,0.1,0.1,0.1,0.1,0.2c0,0.1,0.1,0.1,0.1,0.2c0,0.1,0,0.2,0.1,0.3c0,0.1,0,0.3,0,0.4v4.4c0,0.2,0,0.3,0,0.4c0,0.1,0,0.2-0.1,0.2
		c0,0.1-0.1,0.1-0.1,0.1c-0.1,0-0.2,0.1-0.3,0.1l-0.9,0.3h4l-0.8-0.3C73.5,77.6,73.4,77.5,73.3,77.5z"/>
	<path class="st0" d="M87.8,77.4c-0.1-0.1-0.2-0.3-0.4-0.4L87,76.5c-0.1-0.1-0.2-0.3-0.3-0.4c0.3-0.5,0.5-1.2,0.7-1.9l0-0.1
		l-0.6-0.1l0,0.1c-0.1,0.4-0.2,0.7-0.3,1c-0.1,0.2-0.1,0.4-0.2,0.6L84.1,73c0.2-0.1,0.4-0.2,0.6-0.3c0.2-0.2,0.5-0.3,0.6-0.5
		c0.2-0.2,0.3-0.4,0.5-0.6c0.1-0.2,0.2-0.5,0.2-0.8c0-0.5-0.2-0.9-0.6-1.2c-0.4-0.3-0.9-0.4-1.5-0.4c-0.3,0-0.6,0-0.8,0.1
		c-0.3,0.1-0.5,0.2-0.7,0.3c-0.2,0.1-0.4,0.3-0.5,0.6c-0.1,0.2-0.2,0.5-0.2,0.8c0,0.2,0,0.4,0.1,0.6c0.1,0.2,0.1,0.4,0.2,0.5
		c0.1,0.2,0.2,0.4,0.4,0.6c0.1,0.2,0.3,0.3,0.4,0.5c-0.3,0.1-0.5,0.2-0.7,0.4c-0.3,0.2-0.5,0.4-0.7,0.6c-0.2,0.2-0.4,0.4-0.5,0.7
		c-0.1,0.3-0.2,0.6-0.2,0.9c0,0.7,0.3,1.3,0.8,1.7c0.5,0.4,1.2,0.6,2.1,0.6c1,0,1.8-0.3,2.4-0.9c0.1,0.1,0.2,0.2,0.2,0.3
		c0.1,0.1,0.2,0.3,0.3,0.5l0,0.1h1.9L88,77.6C88,77.6,87.9,77.6,87.8,77.4z M83.9,69.6c0.4,0,0.7,0.1,0.9,0.4
		c0.2,0.2,0.3,0.6,0.3,0.9c0,0.7-0.4,1.3-1.2,1.8l-0.4-0.5c-0.1-0.2-0.3-0.4-0.4-0.5c-0.1-0.2-0.2-0.3-0.3-0.5
		c-0.1-0.2-0.1-0.3-0.1-0.5c0-0.2,0-0.3,0.1-0.4c0.1-0.1,0.1-0.2,0.3-0.3c0.1-0.1,0.2-0.2,0.4-0.2C83.5,69.6,83.7,69.6,83.9,69.6z
		 M82,76.5c-0.1-0.2-0.1-0.5-0.1-0.9c0-0.2,0-0.3,0.1-0.5c0-0.2,0.1-0.4,0.2-0.6c0.1-0.2,0.2-0.4,0.4-0.6c0.1-0.2,0.3-0.3,0.6-0.4
		c0.2,0.2,0.3,0.4,0.5,0.6l1.7,2.1c0.1,0.1,0.2,0.2,0.2,0.3l0.1,0.1c-0.2,0.2-0.3,0.3-0.5,0.4c-0.2,0.1-0.4,0.2-0.6,0.3
		c-0.2,0.1-0.4,0.1-0.5,0.1c-0.5,0.1-0.9,0-1.2-0.1c-0.2-0.1-0.4-0.2-0.5-0.3C82.2,76.9,82.1,76.7,82,76.5z"/>
	<path class="st0" d="M106.9,77.5c-0.1,0-0.1-0.1-0.1-0.1c0-0.1-0.1-0.1-0.1-0.2c0-0.1,0-0.2,0-0.4v-3.6c0-0.3-0.1-0.7-0.2-1
		c-0.1-0.3-0.3-0.6-0.5-0.8c-0.2-0.2-0.5-0.4-0.8-0.5c-0.3-0.1-0.7-0.2-1.1-0.2c-0.7,0-1.3,0.2-1.7,0.5c-0.3,0.3-0.6,0.6-0.8,1
		c-0.1-0.4-0.3-0.7-0.7-1c-0.4-0.4-1-0.6-1.8-0.6c-0.7,0-1.2,0.2-1.7,0.5c-0.3,0.2-0.5,0.5-0.7,0.8v-1.4l-1.7,0.1l0.2,0.2
		c0.1,0.1,0.1,0.1,0.1,0.2c0,0.1,0.1,0.1,0.1,0.2c0,0.1,0,0.2,0.1,0.3c0,0.1,0,0.3,0,0.4v4.4c0,0.2,0,0.3,0,0.4c0,0.1,0,0.2-0.1,0.2
		c0,0.1-0.1,0.1-0.1,0.1c-0.1,0-0.2,0.1-0.3,0.1l-0.9,0.3h4l-0.8-0.3c-0.1,0-0.2-0.1-0.3-0.1c-0.1,0-0.1-0.1-0.1-0.1
		c0-0.1-0.1-0.1-0.1-0.2c0-0.1,0-0.2,0-0.4v-3c0-0.4,0.1-0.8,0.2-1.1c0.1-0.3,0.3-0.6,0.5-0.8c0.2-0.2,0.4-0.4,0.7-0.5
		c0.2-0.1,0.5-0.2,0.8-0.2c0.5,0,0.9,0.2,1.1,0.5c0.3,0.3,0.4,0.8,0.4,1.3v3.7c0,0.2,0,0.3,0,0.4c0,0.1,0,0.2-0.1,0.2
		c0,0.1-0.1,0.1-0.1,0.1c-0.1,0-0.2,0.1-0.3,0.1l-0.9,0.3h4l-0.8-0.3c-0.1,0-0.2-0.1-0.3-0.1c-0.1,0-0.1-0.1-0.1-0.1
		c0-0.1-0.1-0.1-0.1-0.2c0-0.1,0-0.2,0-0.4v-3c0-0.4,0.1-0.8,0.2-1.1c0.1-0.3,0.3-0.6,0.5-0.8c0.2-0.2,0.4-0.4,0.7-0.5
		c0.2-0.1,0.5-0.2,0.8-0.2c0.5,0,0.9,0.2,1.1,0.5c0.3,0.3,0.4,0.8,0.4,1.3v3.7c0,0.2,0,0.3,0,0.4c0,0.1,0,0.2-0.1,0.2
		c0,0.1-0.1,0.1-0.1,0.1c-0.1,0-0.2,0.1-0.3,0.1l-0.9,0.3h4l-0.8-0.3C107,77.6,106.9,77.5,106.9,77.5z"/>
	<path class="st0" d="M109.6,68.8c-0.2,0.1-0.2,0.3-0.2,0.5c0,0.2,0.1,0.4,0.2,0.6c0.1,0.1,0.3,0.2,0.5,0.2c0.2,0,0.4-0.1,0.6-0.2
		c0.2-0.1,0.2-0.3,0.2-0.6c0-0.2-0.1-0.4-0.2-0.5C110.4,68.6,109.9,68.6,109.6,68.8z"/>
	<path class="st0" d="M111,77.5c-0.1,0-0.1-0.1-0.1-0.1c0-0.1-0.1-0.1-0.1-0.2c0-0.1,0-0.2,0-0.4v-6l-1.7,0.1l0.2,0.2
		c0.1,0.1,0.1,0.1,0.1,0.2c0,0.1,0.1,0.1,0.1,0.2c0,0.1,0,0.2,0.1,0.3c0,0.1,0,0.3,0,0.4v4.4c0,0.2,0,0.3,0,0.4c0,0.1,0,0.2-0.1,0.2
		c0,0.1-0.1,0.1-0.1,0.1c-0.1,0-0.2,0.1-0.3,0.1l-0.9,0.3h4l-0.8-0.3C111.2,77.6,111.1,77.5,111,77.5z"/>
	<path class="st0" d="M118.2,76.8c-0.4,0.4-0.9,0.6-1.5,0.6c-0.3,0-0.6-0.1-0.9-0.2c-0.3-0.1-0.5-0.4-0.7-0.6
		c-0.2-0.3-0.4-0.6-0.5-1c-0.1-0.4-0.2-0.8-0.2-1.3c0-0.5,0.1-0.9,0.2-1.3c0.1-0.4,0.3-0.7,0.5-1c0.2-0.3,0.4-0.5,0.7-0.6
		c0.5-0.3,1-0.3,1.6-0.1c0.2,0.1,0.4,0.2,0.6,0.4c0.2,0.2,0.4,0.5,0.5,0.8c0.1,0.3,0.2,0.7,0.3,1.2l0.1,0.9l0.6-2.9l-0.1-0.1
		c-0.4-0.3-0.8-0.5-1.2-0.7c-0.5-0.2-1-0.3-1.5-0.3c-0.5,0-1,0.1-1.4,0.3c-0.4,0.2-0.8,0.4-1.1,0.7c-0.3,0.3-0.5,0.7-0.7,1.1
		c-0.2,0.4-0.3,0.9-0.3,1.4c0,0.5,0.1,1,0.3,1.5c0.2,0.4,0.4,0.8,0.7,1.1c0.3,0.3,0.7,0.6,1.1,0.7c0.4,0.2,0.9,0.3,1.4,0.3
		c0.2,0,0.4,0,0.6,0c0.2,0,0.5-0.1,0.7-0.1c0.2-0.1,0.5-0.2,0.7-0.3c0.2-0.1,0.4-0.3,0.6-0.4l0,0l0.1-3.4l-0.3,1.3
		C119,75.8,118.6,76.4,118.2,76.8z"/>
	<path class="st0" d="M128.5,77.5c-0.1,0-0.1-0.1-0.1-0.1c0-0.1-0.1-0.1-0.1-0.2c0-0.1,0-0.2,0-0.4v-3.6c0-0.3-0.1-0.7-0.2-1
		c-0.1-0.3-0.3-0.6-0.5-0.8c-0.2-0.2-0.5-0.4-0.8-0.5c-0.3-0.1-0.7-0.2-1.1-0.2c-0.7,0-1.3,0.2-1.8,0.5c-0.3,0.2-0.5,0.5-0.7,0.8
		v-3.7l-1.7,0.2l0.3,0.2c0.1,0.1,0.2,0.2,0.2,0.2c0,0.1,0.1,0.2,0.1,0.5v7.1c0,0.2,0,0.3,0,0.4c0,0.1,0,0.2-0.1,0.2
		c0,0.1-0.1,0.1-0.1,0.1c-0.1,0-0.2,0.1-0.3,0.1l-0.9,0.3h4l-0.8-0.3c-0.1,0-0.2-0.1-0.3-0.1c-0.1,0-0.1-0.1-0.1-0.1
		c0-0.1-0.1-0.1-0.1-0.2c0-0.1,0-0.2,0-0.4v-3c0-0.4,0.1-0.8,0.2-1.1c0.1-0.3,0.3-0.6,0.5-0.8c0.2-0.2,0.5-0.4,0.7-0.5
		c0.3-0.1,0.6-0.2,0.8-0.2c0.5,0,0.9,0.2,1.2,0.5c0.3,0.3,0.4,0.8,0.4,1.3v3.7c0,0.2,0,0.3,0,0.4c0,0.1,0,0.2-0.1,0.2
		c0,0.1-0.1,0.1-0.1,0.1c-0.1,0-0.2,0.1-0.3,0.1l-0.9,0.3h4l-0.8-0.3C128.7,77.6,128.6,77.5,128.5,77.5z"/>
	<path class="st0" d="M132.3,69.9c0.2-0.1,0.2-0.3,0.2-0.6c0-0.2-0.1-0.4-0.2-0.5c-0.3-0.3-0.8-0.3-1.1,0c-0.2,0.1-0.2,0.3-0.2,0.5
		c0,0.2,0.1,0.4,0.2,0.6c0.1,0.1,0.3,0.2,0.5,0.2C132,70.1,132.2,70.1,132.3,69.9z"/>
	<path class="st0" d="M132.6,77.5c-0.1,0-0.1-0.1-0.1-0.1c0-0.1-0.1-0.1-0.1-0.2c0-0.1,0-0.2,0-0.4v-6l-1.7,0.1l0.2,0.2
		c0.1,0.1,0.1,0.1,0.1,0.2c0,0.1,0.1,0.1,0.1,0.2c0,0.1,0,0.2,0.1,0.3c0,0.1,0,0.3,0,0.4v4.4c0,0.2,0,0.3,0,0.4c0,0.1,0,0.2-0.1,0.2
		c0,0.1-0.1,0.1-0.1,0.1c-0.1,0-0.2,0.1-0.3,0.1l-0.9,0.3h4l-0.8-0.3C132.8,77.6,132.7,77.5,132.6,77.5z"/>
</g>
</svg>
