<?xml version="1.0" encoding="utf-8"?>
<!-- Generator: Adobe Illustrator 25.4.1, SVG Export Plug-In . SVG Version: 6.00 Build 0)  -->
<svg version="1.1" id="レイヤー_1" xmlns="http://www.w3.org/2000/svg" xmlns:xlink="http://www.w3.org/1999/xlink" x="0px"
	 y="0px" viewBox="0 0 299 28" style="enable-background:new 0 0 299 28;" xml:space="preserve">
<style type="text/css">
	.st0{fill:#FFFFFF;}
</style>
<g>
	<path class="st0" d="M5.62,1.16v12.16h3.23c5.34,0,6.43-1.32,6.94-3.59l-0.54,7.91c-0.16-2.3-0.97-3.66-6.47-3.66H5.62v10.09
		c0,2.26,0.58,3.04,2.26,3.51H0.4c1.68-0.47,2.26-1.25,2.26-3.51V3.85c0-2.26-0.27-2.88-1.95-3.35h17.5l0.82,7.13
		c-1.29-5.38-4.64-6.47-8.46-6.47H5.62z"/>
	<path class="st0" d="M46.86,27.58h-5.22c-0.04-1.48-0.93-2.61-2.73-4.83l-6.47-8.03h-3.35v9.43c0,2.22,0.47,2.92,2.1,3.43h-7.17
		c1.68-0.47,2.1-1.17,2.1-3.43V3.93c0-2.26-0.43-2.96-2.1-3.43h9.47c4.99,0,9.86,1.79,9.86,6.74c0,4.4-3.74,6.74-7.79,7.33
		l6.35,7.64C43.43,24,46.31,27.27,46.86,27.58z M29.09,14.1h3.94c4.56,0,7.29-2.42,7.29-6.7c0-4.75-3.55-6.27-7.68-6.27h-3.55V14.1z
		"/>
	<path class="st0" d="M70.63,19.51l-0.7,8.07H51.38c1.68-0.47,2.26-1.25,2.26-3.51V3.85c0-2.26-0.27-2.88-1.95-3.35h17.42l0.82,7.13
		c-1.29-5.38-4.64-6.47-8.46-6.47H56.6v11.54h3.16c5.34,0,6.43-1.32,6.94-3.59l-0.54,7.91c-0.16-2.3-0.97-3.66-6.47-3.66H56.6v13.56
		h5.96C66.38,26.92,69.35,25.67,70.63,19.51z"/>
	<path class="st0" d="M95.27,19.51l-0.7,8.07H76.01c1.68-0.47,2.26-1.25,2.26-3.51V3.85c0-2.26-0.27-2.88-1.95-3.35h17.42l0.82,7.13
		c-1.29-5.38-4.64-6.47-8.46-6.47h-4.87v11.54h3.16c5.34,0,6.43-1.32,6.94-3.59l-0.54,7.91c-0.16-2.3-0.97-3.66-6.47-3.66h-3.08
		v13.56h5.96C91.02,26.92,93.98,25.67,95.27,19.51z"/>
	<path class="st0" d="M121.61,10.94l4.01,1.52c3.94,1.48,6.47,3.82,6.47,7.64c0,4.33-3.27,7.72-8.81,7.72
		c-3.62,0-7.25-1.05-9.31-3.08l0.62-7.25c0.62,6.16,3.62,9.74,8.81,9.74c4.17,0,6.66-2.61,6.66-5.77c0-3.9-3.78-5.38-5.34-5.96
		l-3.78-1.44c-1.95-0.74-6.24-2.42-6.24-7.05c0-3.78,2.73-6.82,7.99-6.82c2.38,0,5.57,0.7,7.79,2.14l0.27,7.44
		c-0.9-5.69-3.47-9-8.03-9c-3.66,0-6.31,2.14-6.31,4.99C116.43,8.95,119.86,10.28,121.61,10.94z"/>
	<path class="st0" d="M163.59,27.58h-7.13c1.68-0.47,2.1-1.17,2.1-4.6V12.97h-16.09v10.02c0,3.39,0.43,4.09,2.07,4.6h-7.13
		c1.68-0.47,2.1-1.17,2.1-4.6V5.1c0-3.43-0.43-4.13-2.1-4.6h7.13c-1.64,0.51-2.07,1.21-2.07,4.6v7.21h16.09V5.1
		c0-3.43-0.43-4.13-2.1-4.6h7.13c-1.64,0.51-2.07,1.21-2.07,4.6v17.89C161.52,26.37,161.95,27.07,163.59,27.58z"/>
	<path class="st0" d="M175.95,27.58h-7.13c1.68-0.47,2.1-1.17,2.1-4.6V5.1c0-3.43-0.43-4.13-2.1-4.6h7.13
		c-1.64,0.51-2.07,1.21-2.07,4.6v17.89C173.88,26.37,174.31,27.07,175.95,27.58z"/>
	<path class="st0" d="M201.51,7.98c0,5.57-5.69,8.11-10.44,8.11h-4.83v8.07c0,2.22,0.47,2.92,2.1,3.43h-7.17
		c1.68-0.47,2.1-1.17,2.1-3.43V3.93c0-2.26-0.43-2.96-2.1-3.43h10.02C195.82,0.5,201.51,2.29,201.51,7.98z M198.32,8.13
		c0-4.52-2.92-7.01-7.99-7.01h-4.09v14.34h4.09C194.46,15.46,198.32,13.32,198.32,8.13z"/>
	<path class="st0" d="M226.85,7.98c0,5.57-5.69,8.11-10.44,8.11h-4.83v8.07c0,2.22,0.47,2.92,2.1,3.43h-7.17
		c1.68-0.47,2.1-1.17,2.1-3.43V3.93c0-2.26-0.43-2.96-2.1-3.43h10.02C221.16,0.5,226.85,2.29,226.85,7.98z M223.65,8.13
		c0-4.52-2.92-7.01-7.99-7.01h-4.09v14.34h4.09C219.79,15.46,223.65,13.32,223.65,8.13z"/>
	<path class="st0" d="M238.97,27.58h-7.13c1.68-0.47,2.1-1.17,2.1-4.6V5.1c0-3.43-0.43-4.13-2.1-4.6h7.13
		C237.33,1,236.9,1.7,236.9,5.1v17.89C236.9,26.37,237.33,27.07,238.97,27.58z"/>
	<path class="st0" d="M269.95,0.5c-1.64,0.51-2.1,1.21-2.1,3.43v23.66h-0.27L246.96,3.61v20.54c0,2.22,0.47,2.92,2.1,3.43h-4.87
		c1.68-0.47,2.1-1.17,2.1-3.43V3.93c0-2.26-0.43-2.96-2.1-3.43h3.74l19.25,22.37V3.93c0-2.26-0.43-2.96-2.1-3.43H269.95z"/>
	<path class="st0" d="M298.6,27.7l-2.84-2.77c-2.1,1.91-4.87,2.88-7.56,2.88c-7.29,0-13.05-5.96-13.05-13.8
		c0-7.68,5.3-13.76,12.86-13.76c2.77,0,6.62,0.82,9.04,2.61l0.55,7.37c-1.44-5.88-5.14-9.39-9.78-9.39c-5.22,0-9.35,4.4-9.35,13.17
		c0,8.96,4.17,13.21,9.78,13.21c2.1,0,5.11-0.74,7.41-3.62V15.5h-0.97c-1.17,0-4.72,0-5.96,0.16l0.08-0.97
		c1.01,0.16,1.99,0.16,5.3,0.16h4.52V27.7z"/>
</g>
</svg>
