<?xml version="1.0" encoding="utf-8"?>
<!-- Generator: Adobe Illustrator 25.4.1, SVG Export Plug-In . SVG Version: 6.00 Build 0)  -->
<svg version="1.1" id="レイヤー_1" xmlns="http://www.w3.org/2000/svg" xmlns:xlink="http://www.w3.org/1999/xlink" x="0px"
	 y="0px" viewBox="0 0 18 18" style="enable-background:new 0 0 18 18;" xml:space="preserve">
<style type="text/css">
	.st0{display:none;fill:#F08984;}
	.st1{fill:#F08984;}
</style>
<path class="st0" d="M-0.04,0.04v18h18v-18H-0.04z M8.07,9.04l-6.84,6.84V2.2L8.07,9.04z M2.12,1.31H15.8L8.96,8.15L2.12,1.31z
	 M8.96,9.94l6.84,6.84H2.12L8.96,9.94z M9.86,9.04L16.7,2.2v13.68L9.86,9.04z"/>
<path class="st1" d="M0,0v18h18V0H0z M8.1,9l-6.84,6.84V2.16L8.1,9z M2.16,1.27h13.68L9,8.1L2.16,1.27z M9,9.9l6.84,6.84H2.16L9,9.9
	z M9.9,9l6.84-6.84v13.68L9.9,9z"/>
</svg>
