<?xml version="1.0" encoding="utf-8"?>
<!-- Generator: Adobe Illustrator 25.4.1, SVG Export Plug-In . SVG Version: 6.00 Build 0)  -->
<svg version="1.1" id="レイヤー_1" xmlns="http://www.w3.org/2000/svg" xmlns:xlink="http://www.w3.org/1999/xlink" x="0px"
	 y="0px" viewBox="0 0 236 139" style="enable-background:new 0 0 236 139;" xml:space="preserve">
<style type="text/css">
	.st0{fill:#F5F1EE;}
</style>
<path class="st0" d="M231.16,28.58c0-5.12,4.81-5.12,4.81-10.23c0-5.12-4.81-5.12-4.81-10.23c0-4.23,3.28-4.97,4.42-7.99h-55.85
	c-2.16,0-4.26,0.73-5.95,2.08v0c-3.48,2.77-8.42,2.77-11.9,0v0c-1.69-1.35-3.79-2.08-5.95-2.08H0.42c1.14,3.02,4.42,3.75,4.42,7.98
	c0,5.12-4.81,5.12-4.81,10.23c0,5.12,4.81,5.12,4.81,10.23c0,5.12-4.81,5.12-4.81,10.23s4.81,5.12,4.81,10.23
	c0,5.12-4.81,5.12-4.81,10.23c0,5.12,4.81,5.12,4.81,10.23c0,5.12-4.81,5.12-4.81,10.23c0,5.12,4.81,5.12,4.81,10.23
	c0,5.12-4.81,5.12-4.81,10.23c0,5.12,4.81,5.12,4.81,10.23c0,5.12-4.81,5.12-4.81,10.23c0,5.12,4.81,5.12,4.81,10.23
	c0,4.03-3.53,5.21-4.58,7.99h155.67c2.16,0,4.26-0.73,5.95-2.08l0,0c3.48-2.77,8.42-2.77,11.9,0v0c1.69,1.35,3.79,2.08,5.95,2.08
	h55.85c-1.14-3.02-4.42-3.75-4.42-7.98c0-5.12,4.81-5.12,4.81-10.23c0-5.12-4.81-5.12-4.81-10.23c0-5.12,4.81-5.12,4.81-10.23
	c0-5.12-4.81-5.12-4.81-10.23c0-5.12,4.81-5.12,4.81-10.23c0-5.12-4.81-5.12-4.81-10.23c0-5.12,4.81-5.12,4.81-10.23
	c0-5.12-4.81-5.12-4.81-10.23c0-5.12,4.81-5.12,4.81-10.23C235.96,33.69,231.16,33.69,231.16,28.58z M170.39,125.93
	c0,1.41-1.14,2.55-2.55,2.55c-1.41,0-2.55-1.14-2.55-2.55v-8.68c0-1.41,1.14-2.55,2.55-2.55c1.41,0,2.55,1.14,2.55,2.55V125.93z
	 M170.39,108.57c0,1.41-1.14,2.55-2.55,2.55c-1.41,0-2.55-1.14-2.55-2.55v-8.68c0-1.41,1.14-2.55,2.55-2.55
	c1.41,0,2.55,1.14,2.55,2.55V108.57z M170.39,91.21c0,1.41-1.14,2.55-2.55,2.55c-1.41,0-2.55-1.14-2.55-2.55v-8.68
	c0-1.41,1.14-2.55,2.55-2.55c1.41,0,2.55,1.14,2.55,2.55V91.21z M170.39,73.84c0,1.41-1.14,2.55-2.55,2.55
	c-1.41,0-2.55-1.14-2.55-2.55v-8.68c0-1.41,1.14-2.55,2.55-2.55c1.41,0,2.55,1.14,2.55,2.55V73.84z M170.39,56.48
	c0,1.41-1.14,2.55-2.55,2.55c-1.41,0-2.55-1.14-2.55-2.55v-8.68c0-1.41,1.14-2.55,2.55-2.55c1.41,0,2.55,1.14,2.55,2.55V56.48z
	 M170.39,39.11c0,1.41-1.14,2.55-2.55,2.55c-1.41,0-2.55-1.14-2.55-2.55v-8.68c0-1.41,1.14-2.55,2.55-2.55
	c1.41,0,2.55,1.14,2.55,2.55V39.11z M170.39,21.75c0,1.41-1.14,2.55-2.55,2.55c-1.41,0-2.55-1.14-2.55-2.55v-8.68
	c0-1.41,1.14-2.55,2.55-2.55c1.41,0,2.55,1.14,2.55,2.55V21.75z M193.17,116.68v-3.37c0-0.33,0.18-0.51,0.51-0.51h19.84
	c0.33,0,0.51,0.18,0.51,0.51v3.19c0,0.33-0.18,0.51-0.51,0.51h-16.24c-0.12,0-0.21,0.09-0.18,0.21l0.54,2.62
	c0.06,0.33-0.12,0.57-0.45,0.57h-2.26c-0.27,0-0.48-0.12-0.57-0.39l-1.07-2.71C193.2,117.1,193.17,116.92,193.17,116.68z
	 M207.53,109.8h-7.87c-4.14,0-6.73-2.71-6.73-7.09c0-4.38,2.59-7.12,6.73-7.12h7.87c4.2,0,6.82,2.74,6.82,7.12
	C214.35,107.09,211.73,109.8,207.53,109.8z M207.74,99.79h-8.19c-1.85,0-3.01,1.13-3.01,2.92c0,1.76,1.16,2.89,3.01,2.89h8.19
	c1.85,0,3.01-1.13,3.01-2.89C210.75,100.92,209.59,99.79,207.74,99.79z M197.61,92.37c-2.59,0-4.71-2.12-4.71-4.77
	c0-2.59,2.12-4.71,4.71-4.71c2.62,0,4.71,2.09,4.71,4.71C202.32,90.25,200.23,92.37,197.61,92.37z M213.43,88.91l-19.9-11.08
	c-0.24-0.12-0.36-0.36-0.36-0.63v-1.88c0-0.39,0.27-0.54,0.6-0.36l19.9,11.05c0.24,0.12,0.36,0.36,0.36,0.63v1.91
	C214.03,88.94,213.76,89.09,213.43,88.91z M197.61,85.13c-1.4,0-2.5,1.1-2.5,2.47c0,1.4,1.1,2.53,2.5,2.53
	c1.43,0,2.53-1.13,2.53-2.53C200.14,86.23,199.01,85.13,197.61,85.13z M209.56,80.72c-2.59,0-4.68-2.12-4.68-4.74
	c0-2.62,2.09-4.74,4.68-4.74c2.62,0,4.74,2.12,4.74,4.74C214.29,78.6,212.18,80.72,209.56,80.72z M209.56,73.48
	c-1.4,0-2.5,1.13-2.5,2.5c0,1.4,1.1,2.5,2.5,2.5c1.43,0,2.53-1.1,2.53-2.5C212.09,74.58,210.96,73.48,209.56,73.48z M206.79,68.2
	h-6.38c-4.47,0-7.48-3.13-7.48-7.84c0-4.74,3.01-7.87,7.48-7.87h6.38c4.53,0,7.57,3.13,7.57,7.87
	C214.35,65.07,211.32,68.2,206.79,68.2z M206.94,56.7h-6.56c-2.32,0-3.84,1.46-3.84,3.66c0,2.18,1.52,3.64,3.84,3.64h6.56
	c2.29,0,3.81-1.46,3.81-3.64C210.75,58.16,209.23,56.7,206.94,56.7z M196.77,35.34v9.56c0,0.09,0.06,0.18,0.18,0.18h4.56
	c0.12,0,0.18-0.06,0.18-0.18v-6.23c0-0.33,0.18-0.51,0.51-0.51h2.59c0.33,0,0.51,0.18,0.51,0.51v6.23c0,0.09,0.06,0.18,0.18,0.18
	h8.05c0.33,0,0.51,0.18,0.51,0.51v3.19c0,0.33-0.18,0.51-0.51,0.51h-19.84c-0.33,0-0.51-0.18-0.51-0.51V35.34
	c0-0.33,0.18-0.51,0.51-0.51h2.59C196.6,34.83,196.77,35.01,196.77,35.34z M196.77,18.65v9.56c0,0.09,0.06,0.18,0.18,0.18h4.56
	c0.12,0,0.18-0.06,0.18-0.18v-6.23c0-0.33,0.18-0.51,0.51-0.51h2.59c0.33,0,0.51,0.18,0.51,0.51v6.23c0,0.09,0.06,0.18,0.18,0.18
	h8.05c0.33,0,0.51,0.18,0.51,0.51v3.19c0,0.33-0.18,0.51-0.51,0.51h-19.84c-0.33,0-0.51-0.18-0.51-0.51V18.65
	c0-0.33,0.18-0.51,0.51-0.51h2.59C196.6,18.15,196.77,18.32,196.77,18.65z M27.66,67.89h-5.18l5.24-38.42h6.91l5.01,38.42H34.4
	l-0.98-8.64h-4.84L27.66,67.89z M31,36.44l-1.84,17.8h3.69L31,36.44z M43.5,29.47h5.36v33.41h7.6v5.01H43.5V29.47z M59.68,29.47
	h5.36v33.41h7.6v5.01H59.68V29.47z M91.19,67.89h-5.36V29.47h5.36V67.89z M98.91,34.48H93.9v-5.01h15.61v5.01h-5.24v33.41h-5.36
	V34.48z M125.17,29.47v5.01h-7.6v10.77h5.3v5.01h-5.3v12.61h8.06v5.01h-13.42V29.47H125.17z M143.09,29.47h6.45v38.42h-4.61V40.76
	l-4.49,27.13h-2.3l-4.49-27.13v27.13h-4.49V29.47h6.34l3.8,19.12L143.09,29.47z M34.48,98.3c0.04,1.64,0.09,2.36,0.09,3.18
	c0,5.41-2,8.05-6.14,8.05c-3.95,0-5.96-2.45-5.96-7.27V85.57c0-4.82,2-7.27,5.96-7.27c4.09,0,6.14,2.64,6.14,7.91
	c0,0.73,0,1.23-0.09,2.41h-4.23c0.09-0.95,0.09-1.36,0.09-2.09c0-3.36-0.41-4.27-1.91-4.27c-1.36,0-1.73,0.68-1.73,3.32v16.68
	c0,2.64,0.36,3.32,1.73,3.32c1.5,0,1.91-0.91,1.91-4.14c0-0.91-0.05-1.73-0.09-3.14H34.48z M42.61,109.07h-4.09l4.14-30.32h5.45
	l3.96,30.32h-4.14l-0.77-6.82h-3.82L42.61,109.07z M45.25,84.25L43.8,98.3h2.91L45.25,84.25z M67.25,78.75h5.09v30.32h-3.64V87.66
	l-3.55,21.41h-1.82L59.8,87.66v21.41h-3.55V78.75h5l3,15.09L67.25,78.75z M82.5,78.75c3.68,0,5.05,0.45,6.27,2
	c1.27,1.59,1.64,3.18,1.64,7.05c0,4.05-0.36,5.59-1.59,7c-1.09,1.27-2.96,1.95-5.5,1.95h-0.59v12.32H78.5V78.75H82.5z M83.32,92.84
	c2.5,0,3-0.82,3-5.09c0-4.23-0.5-5.05-3-5.05h-0.59v10.14H83.32z M96.12,109.07h-4.09l4.14-30.32h5.46l3.95,30.32h-4.14l-0.77-6.82
	h-3.82L96.12,109.07z M98.76,84.25L97.3,98.3h2.91L98.76,84.25z M114.58,109.07h-4.23V78.75h4.23V109.07z M131.31,109.07h-2.27
	l-0.64-2.09c-1.18,1.73-2.45,2.55-3.91,2.55c-1.77,0-3.46-1.05-4.32-2.68c-0.68-1.27-0.86-2.5-0.86-5.23V85.57c0-4.82,2-7.27,6-7.27
	c4.05,0,6.09,2.64,6.09,7.91c0,0.64,0,1.23-0.09,2.41h-4.23c0.09-1,0.09-1.41,0.09-2.09c0-3.36-0.41-4.27-1.91-4.27
	c-1.36,0-1.73,0.68-1.73,3.32v16.05c0,2.23,0.05,2.55,0.27,3.05c0.32,0.64,0.82,0.95,1.45,0.95c0.68,0,1.27-0.41,1.55-1.09
	c0.23-0.5,0.27-0.95,0.27-2.91v-4.36h-1.86v-3.59h6.09V109.07z M149.54,109.07h-4.23l-5-15.91v15.91h-4.23V78.75h3.64l5.59,17.87
	V78.75h4.23V109.07z"/>
</svg>
