<?xml version="1.0" encoding="utf-8"?>
<!-- Generator: Adobe Illustrator 25.4.1, SVG Export Plug-In . SVG Version: 6.00 Build 0)  -->
<svg version="1.1" id="レイヤー_1" xmlns="http://www.w3.org/2000/svg" xmlns:xlink="http://www.w3.org/1999/xlink" x="0px"
	 y="0px" viewBox="0 0 230 230" style="enable-background:new 0 0 230 230;" xml:space="preserve">
<style type="text/css">
	.st0{fill:#E02D47;}
	.st1{fill:#FFFFFF;}
	.st2{fill:none;stroke:#FFFFFF;stroke-width:2;stroke-miterlimit:10;}
</style>
<circle class="st0" cx="115" cy="114.89" r="114.86"/>
<g>
	<g>
		<path class="st1" d="M50.66,42.25l2.01-1.53l11.22,6.93l-3.7-12.66l2.01-1.53l4.52,15.91l-1.92,1.46L50.66,42.25z"/>
		<path class="st1" d="M72.55,40.14c0.86,1.17,2.64,1.72,4.2,0.91c1.85-0.97,2.06-2.94,2.06-2.94l1.93,0.61c0,0-0.44,2.71-3.08,4.09
			c-2.63,1.37-6.04,0.3-7.47-2.43c-1.37-2.63-0.35-5.9,2.28-7.27c2.63-1.37,5.6-0.44,6.97,2.19c0.31,0.58,0.41,1.03,0.41,1.03
			L72.55,40.14z M71.76,38.44l5.42-2.83c-0.9-1.15-2.38-1.61-3.84-0.85C71.88,35.53,71.41,37.01,71.76,38.44z"/>
		<path class="st1" d="M87.8,38.14l-2.06,0.76l-5.34-14.44l2.06-0.76L87.8,38.14z"/>
		<path class="st1" d="M95.04,35.94l-6.62-9.28l2.25-0.53l4.78,6.78l1.21-8.2l2.25-0.53l-1.73,11.26L95.04,35.94z"/>
		<path class="st1" d="M105.45,29.42c0.33,1.41,1.74,2.63,3.49,2.5c2.08-0.16,3.06-1.88,3.06-1.88l1.53,1.32
			c0,0-1.48,2.32-4.45,2.54c-2.96,0.22-5.67-2.12-5.9-5.19c-0.22-2.96,2.02-5.55,4.98-5.77c2.96-0.22,5.32,1.81,5.54,4.78
			c0.05,0.66-0.03,1.1-0.03,1.1L105.45,29.42z M105.4,27.55l6.1-0.45c-0.37-1.41-1.55-2.42-3.19-2.3
			C106.66,24.91,105.64,26.09,105.4,27.55z"/>
		<path class="st1" d="M120.02,19.5l1.98,0.13l-0.24,3.51l2.19,0.15l-0.13,1.97l-2.2-0.15l-0.37,5.46
			c-0.05,0.79,0.46,1.38,1.23,1.43c0.55,0.04,1.11-0.15,1.11-0.15l-0.13,1.98c0,0-0.67,0.17-1.55,0.12c-1.98-0.13-3-1.3-2.85-3.5
			l0.37-5.49l-1.97-0.13l0.13-1.98l1.1,0.07c0.66,0.04,1.13-0.36,1.19-1.24L120.02,19.5z"/>
		<path class="st1" d="M148.58,23.81l-0.63,2.11l-8.01-2.38l-1.22,4.11l6.33,1.88l-0.63,2.11l-6.33-1.88l-1.91,6.43l-2.32-0.69
			l4.39-14.76L148.58,23.81z"/>
		<path class="st1" d="M149.51,41.07l-2.01-0.9l4.34-9.63l2.01,0.91L149.51,41.07z M153.67,29.18c-0.7-0.32-0.98-1.04-0.66-1.75
			c0.32-0.7,1.04-0.98,1.75-0.66c0.7,0.32,0.98,1.05,0.66,1.75C155.1,29.23,154.37,29.5,153.67,29.18z"/>
		<path class="st1" d="M161.49,47.77l-2.17-1.3l-0.37-4.72l-4.34,1.88l-2.17-1.31l6.23-2.67l-0.5-6.21l2.17,1.31l0.31,4.17
			l3.83-1.67l2.17,1.31l-5.72,2.46L161.49,47.77z"/>
		<path class="st1" d="M169.01,53.74l10.78-11l1.73,1.69l-9.24,9.43l5.35,5.23l-1.54,1.57L169.01,53.74z"/>
		<path class="st1" d="M179.57,65.17l-1.36-1.73l8.29-6.55l1.36,1.73L179.57,65.17z M188.73,56.53c-0.48-0.6-0.39-1.38,0.22-1.85
			c0.6-0.48,1.38-0.39,1.85,0.22c0.48,0.6,0.39,1.38-0.22,1.86C189.98,57.23,189.21,57.14,188.73,56.53z"/>
		<path class="st1" d="M184.5,69.97l-5,2.99l-1.13-1.89l13.03-7.79l1.13,1.89l-1.04,0.62c0,0,1.91,0.4,2.98,2.19
			c1.41,2.36,0.58,5.68-2.07,7.26c-2.64,1.58-5.96,0.75-7.37-1.61C183.95,71.84,184.5,69.97,184.5,69.97z M187.99,67.88
			c-1.7,1.02-2.23,3.13-1.38,4.54c0.85,1.42,2.96,1.95,4.66,0.93c1.7-1.02,2.23-3.13,1.38-4.55S189.69,66.86,187.99,67.88z"/>
		<path class="st1" d="M191.88,87.26l14.8-4.26l1.73,6.02c0.7,2.43-0.66,4.88-2.66,5.46c-2.01,0.58-3.39-0.63-3.39-0.63
			s-0.52,2.55-2.96,3.25c-2.33,0.67-4.91-0.76-5.7-3.51L191.88,87.26z M195.71,93.03c0.39,1.37,1.76,2.13,3.13,1.73
			c1.37-0.39,2.13-1.76,1.73-3.13l-1.16-4.02l-4.86,1.4L195.71,93.03z M205.33,85.91l-4.02,1.16l1.07,3.7
			c0.33,1.16,1.42,1.77,2.59,1.43s1.77-1.42,1.43-2.59L205.33,85.91z"/>
		<path class="st1" d="M196.27,108.42l1.09-0.11c0,0-1.43-1.07-1.64-3.04c-0.22-2.19,1.15-3.88,2.68-4.03
			c1.75-0.18,3.08,0.9,3.6,2.73l1.05,3.76c1.09-0.11,1.88-1.08,1.75-2.39c-0.19-1.86-1.7-2.59-1.7-2.59l1.28-1.57
			c0,0,2.12,1.22,2.39,3.96c0.27,2.63-1.3,4.56-3.49,4.78l-6.79,0.69L196.27,108.42z M201.09,107.93l0.22-0.02l-0.89-3.34
			c-0.21-0.75-0.79-1.25-1.56-1.17c-0.66,0.07-1.25,0.79-1.12,1.99C197.91,107.15,199.12,108.13,201.09,107.93z"/>
		<path class="st1" d="M196.46,117.41l0.04-2.2l15.4,0.31l-0.04,2.2L196.46,117.41z"/>
		<path class="st1" d="M200.15,136.45c1.73,0.32,2.75-0.38,3-1.68c0.24-1.3-0.64-2.58-2.59-2.94l-5.62-1.04l0.4-2.16l6.06,1.12
			c1.73,0.32,2.75-0.38,3-1.68c0.24-1.3-0.64-2.58-2.59-2.94l-5.62-1.04l0.4-2.16l10.38,1.92l-0.4,2.16l-1.08-0.2
			c0,0,1.1,1.32,0.78,3.05c-0.42,2.27-2.31,2.82-2.31,2.82s1.51,1.51,1.07,3.89c-0.44,2.38-2.24,3.61-5.26,3.05l-6.06-1.12l0.4-2.16
			L200.15,136.45z"/>
		<path class="st1" d="M184.92,182.32l-1.89,1.68l-11.73-6.05l4.67,12.35l-1.89,1.68l-5.73-15.53l1.81-1.61L184.92,182.32z"/>
		<path class="st1" d="M163.26,186.08c-0.94-1.1-2.76-1.52-4.25-0.58c-1.77,1.11-1.83,3.09-1.83,3.09l-1.97-0.46
			c0,0,0.23-2.74,2.75-4.31c2.52-1.57,6-0.77,7.64,1.84c1.57,2.52,0.8,5.85-1.72,7.43c-2.52,1.57-5.55,0.87-7.12-1.65
			c-0.35-0.56-0.49-0.99-0.49-0.99L163.26,186.08z M164.18,187.71l-5.19,3.24c0.98,1.07,2.5,1.42,3.9,0.55
			C164.29,190.63,164.64,189.11,164.18,187.71z"/>
		<path class="st1" d="M148.22,189.25l2-0.92l6.45,13.99l-2,0.92L148.22,189.25z"/>
		<path class="st1" d="M141.17,192.02l7.32,8.74l-2.2,0.71l-5.29-6.38l-0.57,8.27l-2.2,0.71l0.85-11.37L141.17,192.02z"/>
		<path class="st1" d="M131.29,199.33c-0.43-1.38-1.94-2.49-3.68-2.22c-2.07,0.32-2.91,2.11-2.91,2.11l-1.63-1.2
			c0,0,1.3-2.42,4.23-2.87c2.94-0.45,5.82,1.67,6.29,4.71c0.45,2.94-1.58,5.69-4.51,6.14c-2.94,0.45-5.44-1.39-5.89-4.33
			c-0.1-0.65-0.06-1.1-0.06-1.1L131.29,199.33z M131.49,201.19l-6.05,0.92c0.48,1.37,1.73,2.29,3.36,2.05
			C130.44,203.91,131.36,202.66,131.49,201.19z"/>
		<path class="st1" d="M117.51,210.35l-1.98,0.02l-0.03-3.52l-2.2,0.02l-0.02-1.98l2.2-0.02l-0.05-5.48
			c-0.01-0.79-0.56-1.34-1.33-1.33c-0.55,0-1.1,0.23-1.1,0.23l-0.02-1.98c0,0,0.66-0.23,1.54-0.23c1.98-0.02,3.09,1.07,3.11,3.27
			l0.05,5.5l1.98-0.02l0.02,1.98l-1.1,0.01c-0.66,0.01-1.1,0.45-1.09,1.33L117.51,210.35z"/>
		<path class="st1" d="M88.74,208.23l0.46-2.15l8.17,1.76l0.9-4.19l-6.45-1.39l0.46-2.15l6.45,1.39l1.41-6.56l2.37,0.51l-3.24,15.06
			L88.74,208.23z"/>
		<path class="st1" d="M83.23,203.28c0.72,0.26,1.05,0.97,0.79,1.69c-0.26,0.72-0.97,1.05-1.69,0.79c-0.72-0.26-1.06-0.97-0.79-1.69
			C81.8,203.35,82.5,203.02,83.23,203.28z M86.45,191.11l2.07,0.75l-3.59,9.93l-2.07-0.75L86.45,191.11z"/>
		<path class="st1" d="M73.97,185.36l2.26,1.13l0.73,4.67l4.18-2.21l2.26,1.13l-6.01,3.14l0.98,6.15l-2.26-1.13l-0.63-4.13
			l-3.69,1.96l-2.26-1.13l5.51-2.9L73.97,185.36z"/>
		<path class="st1" d="M66.03,180l-9.89,11.8l-1.85-1.55l8.48-10.11l-5.73-4.8l1.41-1.69L66.03,180z"/>
		<path class="st1" d="M46.15,178.71c0.52,0.57,0.49,1.34-0.07,1.87s-1.34,0.49-1.86-0.07c-0.52-0.57-0.49-1.34,0.07-1.87
			C44.85,178.11,45.63,178.15,46.15,178.71z M54.62,169.4l1.49,1.62l-7.76,7.17l-1.49-1.62L54.62,169.4z"/>
		<path class="st1" d="M49.36,165.02l4.76-3.37l1.27,1.79l-12.39,8.78l-1.27-1.8l0.99-0.7c0,0-1.93-0.25-3.14-1.96
			c-1.59-2.25-1.01-5.62,1.5-7.4c2.51-1.78,5.89-1.2,7.48,1.04C49.76,163.12,49.36,165.02,49.36,165.02z M46.03,167.37
			c1.62-1.14,1.98-3.29,1.03-4.64c-0.95-1.35-3.1-1.71-4.72-0.57c-1.62,1.15-1.98,3.29-1.03,4.64
			C42.27,168.15,44.42,168.52,46.03,167.37z"/>
		<path class="st1" d="M40.66,148.34l-14.43,5.4l-2.2-5.87c-0.89-2.37,0.27-4.92,2.23-5.65c1.96-0.73,3.42,0.36,3.42,0.36
			s0.32-2.59,2.69-3.47c2.27-0.85,4.96,0.38,5.96,3.06L40.66,148.34z M27.34,150.74l3.92-1.46l-1.35-3.61
			c-0.42-1.13-1.56-1.65-2.69-1.23c-1.13,0.42-1.65,1.56-1.23,2.69L27.34,150.74z M36.39,142.89c-0.5-1.34-1.92-1.98-3.26-1.48
			c-1.34,0.5-1.98,1.92-1.48,3.26l1.47,3.92l4.74-1.77L36.39,142.89z"/>
		<path class="st1" d="M34.62,127.55l-1.08,0.2c0,0,1.51,0.96,1.87,2.9c0.39,2.17-0.85,3.96-2.36,4.23
			c-1.73,0.31-3.14-0.66-3.8-2.44l-1.34-3.67c-1.08,0.2-1.79,1.22-1.56,2.52c0.33,1.84,1.9,2.45,1.9,2.45l-1.15,1.66
			c0,0-2.2-1.05-2.7-3.76c-0.47-2.6,0.95-4.64,3.11-5.04l6.71-1.22L34.62,127.55z M29.86,128.42l-0.22,0.04l1.15,3.26
			c0.27,0.73,0.88,1.18,1.64,1.04c0.65-0.12,1.18-0.89,0.97-2.08C33.08,128.95,31.81,128.06,29.86,128.42z"/>
		<path class="st1" d="M33.74,118.63l0.12,2.2l-15.37,0.87l-0.12-2.2L33.74,118.63z"/>
		<path class="st1" d="M28.63,99.91c-1.75-0.2-2.72,0.58-2.87,1.89c-0.15,1.31,0.82,2.53,2.79,2.75l5.69,0.64L34,107.38l-6.12-0.69
			c-1.75-0.2-2.72,0.58-2.87,1.89c-0.15,1.31,0.82,2.53,2.79,2.75l5.69,0.64l-0.25,2.19l-10.5-1.18l0.25-2.19l1.09,0.12
			c0,0-1.19-1.24-0.99-2.99c0.26-2.3,2.1-2.97,2.1-2.97s-1.61-1.4-1.34-3.8c0.27-2.4,1.97-3.76,5.03-3.42L35,98.41l-0.25,2.19
			L28.63,99.91z"/>
	</g>
</g>
<g>
	<path class="st2" d="M123.14,164.04l-28.89-3.86c-0.61-0.08-1.05-0.65-0.96-1.26l5.48-41.02c0.08-0.61,0.65-1.05,1.26-0.96
		l28.89,3.86c0.61,0.08,1.05,0.65,0.96,1.26l-5.48,41.02C124.32,163.69,123.75,164.12,123.14,164.04z"/>
	<path class="st2" d="M101.13,117.08l0.92-6.9c0.08-0.61,0.65-1.05,1.26-0.96l24.46,3.27c0.61,0.08,1.05,0.65,0.96,1.26l-0.92,6.9"
		/>
	<path class="st2" d="M104.4,109.36l3.47-25.99c0.08-0.61,0.65-1.05,1.26-0.96l20.05,2.68c0.61,0.08,1.05,0.65,0.96,1.26
		l-3.47,25.99"/>
	<path class="st2" d="M111.11,82.67c0,0,0.43-5.94,1.01-7.54c0.57-1.6,4.09-14.57,10.35-13.37c6.26,1.2,5.92,14.58,5.74,15.88
		c-0.17,1.3-0.63,6.51-0.96,7.19"/>
</g>
</svg>
