<?xml version="1.0" encoding="utf-8"?>
<!-- Generator: Adobe Illustrator 25.4.1, SVG Export Plug-In . SVG Version: 6.00 Build 0)  -->
<svg version="1.1" id="レイヤー_1" xmlns="http://www.w3.org/2000/svg" xmlns:xlink="http://www.w3.org/1999/xlink" x="0px"
	 y="0px" viewBox="0 0 60 574" style="enable-background:new 0 0 60 574;" xml:space="preserve">
<style type="text/css">
	.st0{fill:#E02D47;}
	.st1{fill:#EBE0DE;}
</style>
<g>
	<path class="st0" d="M53.11,84.15c-0.23-0.74-0.5-1.35-0.8-1.81c-0.3-0.47-0.76-0.84-1.36-1.12c-0.61-0.28-1.38-0.48-2.34-0.59
		c-0.95-0.12-2.2-0.17-3.73-0.17H12.85c-1.54,0-2.78,0.06-3.73,0.17c-0.96,0.12-1.72,0.31-2.3,0.59c-0.58,0.28-1.04,0.65-1.36,1.12
		c-0.33,0.46-0.61,1.07-0.84,1.81V71.38c0.23,0.74,0.5,1.36,0.8,1.85c0.3,0.49,0.74,0.87,1.33,1.15c0.58,0.28,1.36,0.48,2.34,0.59
		c0.98,0.12,2.23,0.17,3.77,0.17h32.03c1.54,0,2.79-0.06,3.77-0.17c0.98-0.12,1.76-0.31,2.34-0.59c0.58-0.28,1.03-0.66,1.36-1.15
		c0.33-0.49,0.58-1.11,0.77-1.85V84.15z"/>
	<path class="st0" d="M4.61,94.69c0.23,0.74,0.49,1.35,0.77,1.81c0.28,0.46,0.64,0.84,1.08,1.12c0.44,0.28,1.01,0.46,1.71,0.56
		c0.7,0.09,1.54,0.14,2.51,0.14h25.75c0.98,0,1.82-0.04,2.55-0.1c0.72-0.07,1.36-0.17,1.92-0.31c0.56-0.14,1.07-0.34,1.54-0.59
		c0.46-0.26,0.93-0.57,1.4-0.94l0.63,7.12H33.36c3.39,1.16,6.08,3.02,8.06,5.58c1.98,2.56,2.97,5.81,2.97,9.77
		c0,2.23-0.31,4.21-0.94,5.93c-0.63,1.72-1.52,3.17-2.69,4.36c-1.16,1.19-2.55,2.09-4.15,2.72c-1.6,0.63-3.36,0.94-5.27,0.94H10.68
		c-0.98,0-1.8,0.06-2.48,0.17c-0.67,0.12-1.24,0.31-1.71,0.59c-0.47,0.28-0.84,0.65-1.12,1.12c-0.28,0.46-0.54,1.05-0.77,1.74V124
		c0.23,0.74,0.49,1.35,0.77,1.81c0.28,0.46,0.64,0.84,1.08,1.12c0.44,0.28,1.01,0.46,1.71,0.56c0.7,0.09,1.54,0.14,2.51,0.14h21.35
		c3.49,0,6.22-0.84,8.2-2.51c1.98-1.67,2.97-4.12,2.97-7.33c0-1.81-0.34-3.56-1.01-5.23c-0.67-1.67-1.66-3.16-2.97-4.47
		c-1.3-1.3-2.91-2.36-4.81-3.17c-1.91-0.81-4.09-1.29-6.56-1.43H10.68c-0.98,0-1.8,0.06-2.48,0.17c-0.67,0.12-1.24,0.31-1.71,0.59
		c-0.47,0.28-0.84,0.65-1.12,1.12c-0.28,0.46-0.54,1.05-0.77,1.74V94.69z"/>
	<path class="st0" d="M4.61,145.91c0.23,0.74,0.49,1.35,0.77,1.81c0.28,0.46,0.64,0.84,1.08,1.12c0.44,0.28,1.01,0.46,1.71,0.56
		c0.7,0.09,1.54,0.14,2.51,0.14h25.75c0.98,0,1.82-0.04,2.55-0.1c0.72-0.07,1.36-0.17,1.92-0.31c0.56-0.14,1.07-0.34,1.54-0.59
		c0.46-0.26,0.93-0.57,1.4-0.94l0.63,7.12H33.36c3.39,1.16,6.08,3.02,8.06,5.58c1.98,2.56,2.97,5.81,2.97,9.77
		c0,2.23-0.31,4.21-0.94,5.93c-0.63,1.72-1.52,3.17-2.69,4.36c-1.16,1.19-2.55,2.09-4.15,2.72c-1.6,0.63-3.36,0.94-5.27,0.94H10.68
		c-0.98,0-1.8,0.06-2.48,0.17c-0.67,0.12-1.24,0.31-1.71,0.59c-0.47,0.28-0.84,0.65-1.12,1.12c-0.28,0.46-0.54,1.05-0.77,1.74
		v-12.42c0.23,0.74,0.49,1.35,0.77,1.81c0.28,0.46,0.64,0.84,1.08,1.12c0.44,0.28,1.01,0.46,1.71,0.56c0.7,0.09,1.54,0.14,2.51,0.14
		h21.35c3.49,0,6.22-0.84,8.2-2.51c1.98-1.67,2.97-4.12,2.97-7.33c0-1.81-0.34-3.56-1.01-5.23c-0.67-1.67-1.66-3.16-2.97-4.47
		c-1.3-1.3-2.91-2.36-4.81-3.17c-1.91-0.81-4.09-1.29-6.56-1.43H10.68c-0.98,0-1.8,0.06-2.48,0.17c-0.67,0.12-1.24,0.31-1.71,0.59
		c-0.47,0.28-0.84,0.65-1.12,1.12c-0.28,0.46-0.54,1.05-0.77,1.74V145.91z"/>
	<path class="st0" d="M44.39,216.1c0,2.98-0.49,5.69-1.47,8.13c-0.98,2.44-2.36,4.55-4.15,6.31c-1.79,1.77-3.91,3.14-6.35,4.12
		c-2.44,0.98-5.13,1.46-8.06,1.46h-0.07c-2.93,0-5.62-0.49-8.06-1.46c-2.44-0.98-4.56-2.35-6.35-4.12
		c-1.79-1.77-3.17-3.87-4.15-6.31s-1.46-5.15-1.46-8.13c0-2.98,0.49-5.69,1.46-8.13s2.36-4.55,4.15-6.31
		c1.79-1.77,3.91-3.14,6.35-4.12c2.44-0.98,5.13-1.46,8.06-1.46h0.07c2.93,0,5.62,0.49,8.06,1.46c2.44,0.98,4.56,2.35,6.35,4.12
		c1.79,1.77,3.17,3.87,4.15,6.31C43.9,210.42,44.39,213.13,44.39,216.1z M24.36,201.73c-2.79,0-5.35,0.35-7.67,1.05
		c-2.33,0.7-4.34,1.67-6.04,2.93c-1.7,1.26-3.01,2.77-3.94,4.54c-0.93,1.77-1.39,3.72-1.39,5.86s0.46,4.09,1.39,5.86
		c0.93,1.77,2.24,3.28,3.94,4.54c1.7,1.26,3.71,2.23,6.04,2.93c2.32,0.7,4.88,1.05,7.67,1.05s5.35-0.35,7.68-1.05
		c2.33-0.7,4.33-1.67,6-2.93c1.67-1.26,2.97-2.77,3.91-4.54c0.93-1.77,1.4-3.72,1.4-5.86s-0.47-4.09-1.4-5.86
		c-0.93-1.77-2.23-3.28-3.91-4.54c-1.68-1.26-3.68-2.23-6-2.93C29.71,202.08,27.15,201.73,24.36,201.73z"/>
	<path class="st0" d="M44.39,265.37c0,3.02-0.52,5.85-1.57,8.48c-1.05,2.63-2.36,4.94-3.94,6.94l-11.02-2.3
		c2.93-0.28,5.39-0.84,7.4-1.67c2-0.84,3.6-1.85,4.81-3.04c1.21-1.19,2.07-2.5,2.58-3.94c0.51-1.44,0.77-2.91,0.77-4.4
		c0-2-0.45-3.83-1.36-5.48c-0.91-1.65-2.2-3.07-3.87-4.26c-1.67-1.19-3.68-2.12-6-2.79c-2.33-0.67-4.91-1.01-7.75-1.01
		c-2.88,0-5.51,0.35-7.89,1.05c-2.37,0.7-4.39,1.67-6.07,2.93c-1.67,1.26-2.97,2.74-3.87,4.47c-0.91,1.72-1.36,3.63-1.36,5.72
		c0,3.53,1.34,6.63,4.01,9.28c2.67,2.65,6.55,4.63,11.62,5.93l-11.65-0.49c-0.98-1.07-1.78-2.25-2.41-3.52
		c-0.63-1.28-1.13-2.57-1.5-3.87c-0.37-1.3-0.64-2.59-0.8-3.87c-0.16-1.28-0.24-2.45-0.24-3.52c0-2.84,0.48-5.47,1.43-7.88
		c0.95-2.42,2.31-4.5,4.08-6.25c1.77-1.75,3.89-3.12,6.39-4.12c2.49-1,5.27-1.5,8.34-1.5c2.93,0,5.61,0.46,8.02,1.4
		c2.42,0.93,4.51,2.23,6.28,3.91c1.77,1.67,3.14,3.69,4.12,6.04C43.9,259.93,44.39,262.53,44.39,265.37z"/>
	<path class="st0" d="M44.39,310.37c0,2.79-0.4,5.22-1.19,7.29c-0.79,2.07-1.91,3.78-3.35,5.13c-1.44,1.35-3.14,2.36-5.09,3.04
		c-1.96,0.67-4.1,1.04-6.42,1.08v-29.38c-0.7-0.09-1.41-0.16-2.13-0.21c-0.72-0.05-1.45-0.07-2.2-0.07c-2.65,0-5.13,0.36-7.43,1.08
		c-2.3,0.72-4.29,1.72-5.97,3c-1.68,1.28-2.99,2.8-3.94,4.57c-0.95,1.77-1.43,3.7-1.43,5.79c0,1.86,0.34,3.55,1.01,5.06
		c0.67,1.51,1.64,2.9,2.89,4.15s2.76,2.38,4.5,3.38s3.66,1.87,5.76,2.62l-10.12-0.63c-1.72-2.05-2.99-4.37-3.8-6.98
		c-0.81-2.61-1.22-5.14-1.22-7.61c0-2.93,0.48-5.63,1.43-8.1c0.95-2.47,2.29-4.59,4.01-6.38c1.72-1.79,3.81-3.17,6.28-4.15
		c2.47-0.98,5.19-1.46,8.16-1.46c2.93,0,5.63,0.43,8.09,1.29c2.47,0.86,4.61,2.1,6.42,3.73c1.81,1.63,3.22,3.59,4.22,5.9
		S44.39,307.44,44.39,310.37z M29.18,297.67v23.8c2.05-0.05,3.93-0.33,5.65-0.84c1.72-0.51,3.23-1.23,4.54-2.16
		c1.3-0.93,2.31-2.08,3.04-3.45c0.72-1.37,1.08-2.94,1.08-4.71c0-1.67-0.35-3.21-1.05-4.61c-0.7-1.4-1.69-2.64-2.97-3.73
		s-2.79-2-4.54-2.72C33.19,298.52,31.27,298,29.18,297.67z"/>
	<path class="st0" d="M4.61,336.82c0.23,0.74,0.49,1.35,0.77,1.81c0.28,0.46,0.64,0.84,1.08,1.12c0.44,0.28,1.01,0.46,1.71,0.56
		c0.7,0.09,1.54,0.14,2.51,0.14h25.75c0.98,0,1.82-0.04,2.55-0.1c0.72-0.07,1.36-0.17,1.92-0.31c0.56-0.14,1.07-0.34,1.54-0.59
		c0.46-0.26,0.93-0.57,1.4-0.94l0.63,7.12H33.36c3.39,1.16,6.08,3.02,8.06,5.58c1.98,2.56,2.97,5.81,2.97,9.77
		c0,2.23-0.31,4.21-0.94,5.93c-0.63,1.72-1.52,3.17-2.69,4.36c-1.16,1.19-2.55,2.09-4.15,2.72c-1.6,0.63-3.36,0.94-5.27,0.94H10.68
		c-0.98,0-1.8,0.06-2.48,0.17c-0.67,0.12-1.24,0.31-1.71,0.59c-0.47,0.28-0.84,0.65-1.12,1.12c-0.28,0.46-0.54,1.05-0.77,1.74
		v-12.42c0.23,0.74,0.49,1.35,0.77,1.81c0.28,0.46,0.64,0.84,1.08,1.12c0.44,0.28,1.01,0.46,1.71,0.56c0.7,0.09,1.54,0.14,2.51,0.14
		h21.35c3.49,0,6.22-0.84,8.2-2.51c1.98-1.67,2.97-4.12,2.97-7.33c0-1.81-0.34-3.56-1.01-5.23s-1.66-3.16-2.97-4.47
		c-1.3-1.3-2.91-2.36-4.81-3.17c-1.91-0.81-4.09-1.29-6.56-1.43H10.68c-0.98,0-1.8,0.06-2.48,0.17c-0.67,0.12-1.24,0.31-1.71,0.59
		c-0.47,0.28-0.84,0.65-1.12,1.12c-0.28,0.46-0.54,1.05-0.77,1.74V336.82z"/>
	<path class="st0" d="M44.04,391.53l9.7,4.81h-9.7v11.44h-0.77v-11.44H13.27c-1.54,0-2.81,0.11-3.84,0.31
		c-1.02,0.21-1.84,0.5-2.44,0.87c-0.61,0.37-1.02,0.85-1.26,1.43c-0.23,0.58-0.35,1.24-0.35,1.99c0,1.35,0.38,2.49,1.15,3.42
		c0.77,0.93,1.85,1.79,3.24,2.58l-0.63,0.91c-1.49-0.93-2.66-1.94-3.52-3.04c-0.86-1.09-1.29-2.69-1.29-4.78
		c0-3.26,0.94-5.55,2.83-6.87c1.88-1.33,4.55-1.99,7.99-1.99h28.12v-6.84h0.77V391.53z"/>
	<path class="st0" d="M10.75,447.07h36.21c1.02,0,1.87-0.06,2.55-0.17c0.67-0.12,1.24-0.31,1.71-0.59c0.46-0.28,0.85-0.66,1.15-1.15
		c0.3-0.49,0.55-1.11,0.73-1.85v16.96c0,2.23-0.21,4.41-0.63,6.52c-0.42,2.12-1.11,4-2.06,5.65c-0.96,1.65-2.2,2.98-3.73,3.98
		c-1.54,1-3.42,1.5-5.65,1.5c-1.96,0-3.69-0.38-5.2-1.15c-1.51-0.77-2.81-1.8-3.91-3.1c-1.09-1.3-1.97-2.79-2.62-4.47
		c-0.65-1.67-1.12-3.42-1.4-5.23l-13.68,11.37c-0.79,0.7-1.71,1.5-2.76,2.41c-1.05,0.91-2.06,1.8-3.04,2.69s-1.83,1.67-2.55,2.37
		c-0.72,0.7-1.15,1.16-1.29,1.4v-9.35c0.65,0,1.29-0.1,1.92-0.31c0.63-0.21,1.27-0.52,1.92-0.94c0.65-0.42,1.37-0.93,2.16-1.54
		c0.79-0.6,1.67-1.3,2.65-2.09l14.38-11.58v-6H10.75c-2,0-3.41,0.27-4.22,0.8c-0.81,0.53-1.46,1.52-1.92,2.97V443.3
		c0.42,1.49,1.05,2.49,1.88,3S8.75,447.07,10.75,447.07z M28.76,452.37v7.05c0,4.09,1.04,7.29,3.11,9.59
		c2.07,2.3,5.04,3.45,8.9,3.45c2.14,0,3.93-0.37,5.37-1.12c1.44-0.75,2.59-1.74,3.45-3c0.86-1.26,1.48-2.71,1.85-4.36
		c0.37-1.65,0.56-3.41,0.56-5.27v-6.35H28.76z"/>
	<path class="st0" d="M44.39,509.73c0,2.79-0.4,5.22-1.19,7.29c-0.79,2.07-1.91,3.78-3.35,5.13c-1.44,1.35-3.14,2.36-5.09,3.04
		c-1.96,0.67-4.1,1.04-6.42,1.08v-29.38c-0.7-0.09-1.41-0.16-2.13-0.21c-0.72-0.05-1.45-0.07-2.2-0.07c-2.65,0-5.13,0.36-7.43,1.08
		c-2.3,0.72-4.29,1.72-5.97,3c-1.68,1.28-2.99,2.8-3.94,4.57c-0.95,1.77-1.43,3.7-1.43,5.79c0,1.86,0.34,3.55,1.01,5.06
		c0.67,1.51,1.64,2.9,2.89,4.15c1.26,1.26,2.76,2.38,4.5,3.38s3.66,1.87,5.76,2.62l-10.12-0.63c-1.72-2.05-2.99-4.37-3.8-6.98
		c-0.81-2.61-1.22-5.14-1.22-7.61c0-2.93,0.48-5.63,1.43-8.1c0.95-2.47,2.29-4.59,4.01-6.38c1.72-1.79,3.81-3.17,6.28-4.15
		c2.47-0.98,5.19-1.46,8.16-1.46c2.93,0,5.63,0.43,8.09,1.29c2.47,0.86,4.61,2.1,6.42,3.73c1.81,1.63,3.22,3.59,4.22,5.9
		C43.89,504.19,44.39,506.8,44.39,509.73z M29.18,497.03v23.8c2.05-0.05,3.93-0.33,5.65-0.84c1.72-0.51,3.23-1.23,4.54-2.16
		c1.3-0.93,2.31-2.08,3.04-3.45c0.72-1.37,1.08-2.94,1.08-4.71c0-1.67-0.35-3.21-1.05-4.61c-0.7-1.4-1.69-2.64-2.97-3.73
		s-2.79-2-4.54-2.72C33.19,497.88,31.27,497.36,29.18,497.03z"/>
	<path class="st0" d="M44.39,555.58c0,2.19-0.34,4.23-1.01,6.14c-0.68,1.91-1.69,3.63-3.04,5.16h11.3c1.44,0,2.49-0.12,3.14-0.35
		c0.65-0.23,1.26-0.7,1.81-1.4l0.84,6.91H11.45c-2,0-3.48,0.16-4.43,0.49c-0.96,0.33-1.76,0.81-2.41,1.47l-0.21-6.84h5.37
		c-1.95-1.44-3.36-3.19-4.22-5.23c-0.86-2.05-1.29-4.12-1.29-6.21c0-2.93,0.49-5.59,1.46-7.99c0.98-2.4,2.31-4.43,4.01-6.11
		c1.7-1.67,3.71-2.98,6.04-3.91c2.33-0.93,4.84-1.4,7.54-1.4c3.12,0,5.97,0.48,8.55,1.43s4.8,2.29,6.66,4.01
		c1.86,1.72,3.3,3.76,4.33,6.11C43.88,550.22,44.39,552.79,44.39,555.58z M26.17,541.69c-2.84,0-5.51,0.34-8.02,1.01
		c-2.51,0.67-4.71,1.67-6.59,3c-1.88,1.33-3.37,2.94-4.47,4.85c-1.09,1.91-1.64,4.07-1.64,6.49c0,2,0.5,3.84,1.5,5.51
		c1,1.67,2.38,3.12,4.15,4.33h23.66c2.93-1.21,5.07-2.83,6.42-4.85s2.02-4.34,2.02-6.94c0-2.09-0.41-3.97-1.22-5.62
		c-0.81-1.65-1.96-3.05-3.45-4.19c-1.49-1.14-3.28-2.02-5.37-2.65C31.06,542.01,28.73,541.69,26.17,541.69z"/>
</g>
<g>
	<ellipse class="st0" cx="30" cy="19.61" rx="29.9" ry="19.61"/>
	<g>
		<path class="st1" d="M27.52,13.24c-0.59-0.81-1.31-1.45-2.15-1.9c-0.84-0.45-1.78-0.68-2.81-0.68c-1.01,0-1.95,0.23-2.78,0.68
			c-0.83,0.45-1.55,1.09-2.15,1.9c-0.59,0.81-1.04,1.79-1.36,2.93c-0.31,1.13-0.47,2.4-0.47,3.78c0,1.36,0.16,2.63,0.47,3.77
			c0.31,1.14,0.77,2.13,1.36,2.94c0.59,0.81,1.31,1.45,2.15,1.9c0.84,0.45,1.77,0.68,2.78,0.68c1.03,0,1.97-0.23,2.81-0.68
			c0.83-0.45,1.55-1.09,2.15-1.9c0.59-0.81,1.04-1.8,1.36-2.94c0.31-1.14,0.47-2.41,0.47-3.77c0-1.38-0.16-2.65-0.47-3.78
			C28.57,15.03,28.11,14.05,27.52,13.24z M18.48,19.95c0-2.67,0.37-4.77,1.09-6.26c0.71-1.45,1.68-2.15,2.99-2.15
			c1.33,0,2.31,0.7,3.02,2.15c0.72,1.49,1.09,3.59,1.09,6.26c0,2.67-0.37,4.77-1.09,6.26c-0.7,1.45-1.69,2.15-3.02,2.15
			c-1.31,0-2.29-0.7-2.99-2.15C18.85,24.72,18.48,22.61,18.48,19.95z"/>
		<path class="st1" d="M43.14,24.94c-0.16,0.46-0.34,0.82-0.52,1.1c-0.17,0.26-0.39,0.45-0.65,0.58c-0.27,0.14-0.61,0.23-1.02,0.28
			c-0.42,0.05-0.96,0.07-1.6,0.07h-4.93c1.25-1.26,2.39-2.45,3.39-3.54c1.1-1.2,2.04-2.33,2.81-3.37c0.77-1.04,1.36-2,1.76-2.88
			c0.41-0.89,0.61-1.73,0.61-2.5c0-1.2-0.48-2.19-1.43-2.94c-0.93-0.73-2.25-1.1-3.92-1.1c-0.98,0-1.88,0.13-2.67,0.4
			c-0.78,0.26-1.58,0.65-2.36,1.16l-0.11,0.07l-0.26,5.13l0.49,0.07c0.27-1.2,0.59-2.2,0.98-2.97c0.38-0.76,0.79-1.37,1.22-1.81
			c0.43-0.43,0.86-0.74,1.28-0.9c0.43-0.17,0.84-0.25,1.22-0.25c0.85,0,1.53,0.32,2.06,0.97c0.54,0.66,0.81,1.62,0.81,2.85
			c0,0.87-0.16,1.78-0.48,2.68c-0.33,0.92-0.84,1.92-1.51,2.96c-0.69,1.06-1.58,2.21-2.64,3.42c-1.07,1.22-2.37,2.59-3.85,4.06
			l-0.09,0.09l0.07,0.55h11.69l0.19-5.69L43.14,24.94z"/>
	</g>
</g>
</svg>
