<?xml version="1.0" encoding="utf-8"?>
<!-- Generator: Adobe Illustrator 25.4.1, SVG Export Plug-In . SVG Version: 6.00 Build 0)  -->
<svg version="1.1" id="レイヤー_1" xmlns="http://www.w3.org/2000/svg" xmlns:xlink="http://www.w3.org/1999/xlink" x="0px"
	 y="0px" viewBox="0 0 221 28" style="enable-background:new 0 0 221 28;" xml:space="preserve">
<style type="text/css">
	.st0{fill:#F08984;stroke:#F08984;stroke-width:0.5;stroke-miterlimit:10;}
</style>
<g>
	<g>
		<path class="st0" d="M-0.04,15c0-1.81,0.3-3.51,0.9-5.08s1.43-2.93,2.5-4.08c1.07-1.15,2.33-2.05,3.81-2.7s3.08-0.98,4.83-0.98
			s3.36,0.33,4.83,0.98s2.74,1.55,3.81,2.7c1.07,1.15,1.9,2.51,2.5,4.08s0.9,3.26,0.9,5.08s-0.3,3.51-0.9,5.08
			c-0.6,1.57-1.43,2.93-2.5,4.08c-1.07,1.15-2.33,2.05-3.81,2.7s-3.08,0.98-4.83,0.98s-3.36-0.33-4.83-0.98s-2.74-1.55-3.81-2.7
			c-1.07-1.15-1.9-2.51-2.5-4.08C0.26,18.51-0.04,16.81-0.04,15z M11.99,27.3c1.34,0,2.56-0.25,3.66-0.76
			c1.1-0.51,2.05-1.28,2.84-2.3c0.79-1.03,1.4-2.31,1.83-3.85c0.43-1.54,0.65-3.33,0.65-5.39s-0.21-3.85-0.65-5.39
			c-0.43-1.54-1.04-2.82-1.83-3.85c-0.79-1.03-1.74-1.8-2.84-2.3c-1.1-0.51-2.32-0.76-3.66-0.76c-1.34,0-2.56,0.25-3.66,0.76
			c-1.1,0.51-2.05,1.28-2.84,2.3C4.7,6.79,4.09,8.07,3.66,9.61C3.23,11.15,3.01,12.94,3.01,15s0.21,3.85,0.65,5.39
			c0.43,1.54,1.04,2.82,1.83,3.85c0.79,1.03,1.74,1.8,2.84,2.3C9.43,27.04,10.65,27.3,11.99,27.3z"/>
		<path class="st0" d="M31.64,7.12l2.48-5.04v5.04h5.89v0.4h-5.89v15.6c0,0.8,0.05,1.46,0.16,2c0.11,0.53,0.26,0.96,0.45,1.27
			s0.44,0.53,0.74,0.65s0.64,0.18,1.02,0.18c0.69,0,1.28-0.2,1.76-0.6c0.48-0.4,0.92-0.96,1.33-1.69l0.47,0.33
			c-0.48,0.77-1,1.38-1.56,1.83c-0.56,0.45-1.38,0.67-2.46,0.67c-1.68,0-2.86-0.49-3.54-1.47c-0.68-0.98-1.02-2.36-1.02-4.15V7.52
			h-3.52v-0.4H31.64z"/>
		<path class="st0" d="M43.28,27.62c0.38-0.12,0.69-0.25,0.93-0.4c0.24-0.14,0.43-0.33,0.58-0.56c0.14-0.23,0.24-0.53,0.29-0.89
			c0.05-0.36,0.07-0.8,0.07-1.31V3.17c0-0.75-0.06-1.29-0.18-1.63c-0.12-0.34-0.36-0.65-0.72-0.94l3.56-0.43v12.52
			c0.6-1.77,1.56-3.16,2.87-4.19c1.32-1.03,2.99-1.54,5.03-1.54c1.15,0,2.17,0.16,3.05,0.49c0.89,0.33,1.63,0.79,2.25,1.4
			c0.61,0.6,1.08,1.32,1.4,2.16c0.32,0.83,0.49,1.75,0.49,2.74v10.74c0,0.51,0.03,0.94,0.09,1.29s0.16,0.65,0.31,0.89
			c0.14,0.24,0.33,0.44,0.58,0.58c0.24,0.15,0.54,0.28,0.9,0.4h-6.39c0.38-0.12,0.69-0.25,0.93-0.4c0.24-0.14,0.43-0.33,0.58-0.56
			c0.14-0.23,0.24-0.53,0.29-0.89c0.05-0.36,0.07-0.8,0.07-1.31v-11.1c0-1.81-0.43-3.23-1.29-4.26c-0.86-1.03-2.12-1.54-3.77-1.54
			c-0.93,0-1.83,0.18-2.69,0.53c-0.86,0.35-1.63,0.87-2.3,1.54c-0.67,0.68-1.22,1.51-1.63,2.5c-0.42,0.99-0.67,2.13-0.74,3.41v8.93
			c0,0.51,0.03,0.94,0.09,1.29s0.16,0.65,0.31,0.89c0.14,0.24,0.33,0.44,0.58,0.58c0.24,0.15,0.54,0.28,0.9,0.4H43.28z"/>
		<path class="st0" d="M77.94,6.94c1.44,0,2.69,0.21,3.75,0.62s1.95,0.99,2.64,1.74c0.69,0.75,1.22,1.63,1.56,2.65
			s0.53,2.13,0.56,3.34H71.33c-0.05,0.36-0.08,0.73-0.11,1.11c-0.02,0.38-0.04,0.76-0.04,1.14c0,1.38,0.19,2.67,0.56,3.86
			c0.37,1.2,0.88,2.23,1.54,3.1c0.66,0.87,1.44,1.55,2.35,2.05c0.91,0.5,1.9,0.74,2.98,0.74c0.96,0,1.83-0.18,2.6-0.53
			c0.78-0.35,1.49-0.85,2.14-1.51s1.23-1.43,1.74-2.34s0.96-1.91,1.35-2.99l-0.32,5.26c-1.05,0.89-2.25,1.55-3.59,1.98
			s-2.65,0.63-3.92,0.63c-1.51,0-2.9-0.25-4.17-0.74c-1.27-0.5-2.37-1.19-3.29-2.09s-1.63-1.98-2.14-3.27
			c-0.5-1.28-0.75-2.7-0.75-4.25c0-1.52,0.22-2.93,0.67-4.21c0.44-1.28,1.08-2.39,1.92-3.34s1.85-1.67,3.04-2.2
			C75.08,7.2,76.43,6.94,77.94,6.94z M71.4,14.85h12.25c-0.02-1.06-0.17-2.04-0.43-2.94c-0.26-0.89-0.63-1.68-1.11-2.36
			c-0.48-0.68-1.07-1.2-1.78-1.58s-1.51-0.56-2.42-0.56c-0.86,0-1.65,0.18-2.37,0.54c-0.72,0.36-1.36,0.88-1.92,1.54
			c-0.56,0.67-1.03,1.45-1.4,2.36C71.84,12.77,71.57,13.76,71.4,14.85z"/>
		<path class="st0" d="M90.55,27.62c0.38-0.12,0.69-0.25,0.93-0.4c0.24-0.14,0.43-0.33,0.58-0.56c0.14-0.23,0.24-0.53,0.29-0.89
			c0.05-0.36,0.07-0.8,0.07-1.31V11.08c0-0.51-0.02-0.95-0.05-1.32c-0.04-0.37-0.09-0.71-0.16-1c-0.07-0.29-0.17-0.56-0.31-0.8
			c-0.13-0.24-0.29-0.48-0.48-0.73l3.63-0.33v4.86c0.29-0.68,0.61-1.31,0.97-1.89c0.36-0.58,0.78-1.09,1.26-1.52
			c0.48-0.44,1.04-0.77,1.67-1.02s1.36-0.36,2.17-0.36c0.77,0,1.45,0.08,2.05,0.25l-0.04,3.48c-0.21-0.27-0.47-0.54-0.77-0.83
			c-0.3-0.29-0.62-0.56-0.95-0.8c-0.34-0.24-0.68-0.44-1.04-0.6s-0.73-0.24-1.11-0.24c-0.48,0-0.92,0.12-1.33,0.36
			c-0.41,0.24-0.78,0.56-1.13,0.96c-0.35,0.4-0.66,0.87-0.95,1.42c-0.29,0.54-0.54,1.12-0.75,1.72v11.76c0,0.51,0.03,0.94,0.09,1.29
			s0.16,0.65,0.31,0.89c0.14,0.24,0.33,0.44,0.57,0.58c0.24,0.15,0.54,0.28,0.9,0.4H90.55z"/>
		<path class="st0" d="M125.39,2.41c-0.38,0.12-0.7,0.26-0.93,0.42c-0.24,0.16-0.43,0.39-0.57,0.71s-0.25,0.72-0.31,1.21
			c-0.06,0.5-0.09,1.14-0.09,1.94v16.65c0,0.8,0.03,1.45,0.09,1.94s0.16,0.89,0.31,1.2s0.33,0.54,0.57,0.71
			c0.24,0.17,0.55,0.31,0.93,0.44h-6.57c0.38-0.12,0.7-0.26,0.95-0.42c0.25-0.16,0.45-0.39,0.59-0.69c0.14-0.3,0.25-0.71,0.31-1.22
			s0.09-1.16,0.09-1.96V6.69c0-0.8-0.03-1.45-0.09-1.96s-0.16-0.91-0.31-1.22c-0.14-0.3-0.34-0.54-0.59-0.71
			c-0.25-0.17-0.57-0.3-0.95-0.4H125.39z"/>
		<path class="st0" d="M132.93,7.12l2.48-5.04v5.04h5.89v0.4h-5.89v15.6c0,0.8,0.05,1.46,0.16,2c0.11,0.53,0.26,0.96,0.45,1.27
			s0.44,0.53,0.74,0.65s0.64,0.18,1.02,0.18c0.69,0,1.28-0.2,1.76-0.6c0.48-0.4,0.92-0.96,1.33-1.69l0.47,0.33
			c-0.48,0.77-1,1.38-1.56,1.83c-0.56,0.45-1.38,0.67-2.46,0.67c-1.68,0-2.86-0.49-3.54-1.47c-0.68-0.98-1.02-2.36-1.02-4.15V7.52
			h-3.52v-0.4H132.93z"/>
		<path class="st0" d="M154.37,6.94c1.44,0,2.69,0.21,3.75,0.62s1.95,0.99,2.64,1.74c0.69,0.75,1.22,1.63,1.56,2.65
			s0.53,2.13,0.56,3.34h-15.12c-0.05,0.36-0.08,0.73-0.11,1.11c-0.02,0.38-0.04,0.76-0.04,1.14c0,1.38,0.19,2.67,0.56,3.86
			c0.37,1.2,0.88,2.23,1.54,3.1c0.66,0.87,1.44,1.55,2.35,2.05c0.91,0.5,1.9,0.74,2.98,0.74c0.96,0,1.83-0.18,2.6-0.53
			c0.78-0.35,1.49-0.85,2.14-1.51s1.23-1.43,1.74-2.34s0.96-1.91,1.35-2.99l-0.32,5.26c-1.05,0.89-2.25,1.55-3.59,1.98
			s-2.65,0.63-3.92,0.63c-1.51,0-2.9-0.25-4.17-0.74c-1.27-0.5-2.37-1.19-3.29-2.09s-1.63-1.98-2.14-3.27
			c-0.5-1.28-0.75-2.7-0.75-4.25c0-1.52,0.22-2.93,0.67-4.21c0.44-1.28,1.08-2.39,1.92-3.34s1.85-1.67,3.04-2.2
			C151.52,7.2,152.87,6.94,154.37,6.94z M147.84,14.85h12.25c-0.02-1.06-0.17-2.04-0.43-2.94c-0.26-0.89-0.63-1.68-1.11-2.36
			c-0.48-0.68-1.07-1.2-1.78-1.58s-1.51-0.56-2.42-0.56c-0.86,0-1.65,0.18-2.37,0.54c-0.72,0.36-1.36,0.88-1.92,1.54
			c-0.56,0.67-1.03,1.45-1.4,2.36C148.27,12.77,148,13.76,147.84,14.85z"/>
		<path class="st0" d="M168.85,24.47V11.08c0-0.51-0.02-0.95-0.05-1.32c-0.04-0.37-0.09-0.71-0.16-1c-0.07-0.29-0.17-0.56-0.31-0.8
			c-0.13-0.24-0.29-0.48-0.48-0.73l3.66-0.33v5.73c0.58-1.77,1.5-3.16,2.78-4.17c1.28-1.02,2.87-1.52,4.76-1.52
			c2.08,0,3.74,0.54,4.96,1.61c1.22,1.08,1.93,2.49,2.12,4.23c0.55-1.81,1.47-3.24,2.75-4.28c1.28-1.04,2.89-1.56,4.83-1.56
			c1.12,0,2.13,0.16,3.02,0.49c0.88,0.33,1.63,0.79,2.24,1.4c0.61,0.6,1.08,1.32,1.4,2.16c0.32,0.83,0.48,1.75,0.48,2.74v10.74
			c0,0.51,0.03,0.94,0.09,1.29s0.16,0.65,0.31,0.89c0.14,0.24,0.33,0.44,0.57,0.58c0.24,0.15,0.54,0.28,0.9,0.4h-6.39
			c0.38-0.12,0.69-0.25,0.93-0.4c0.24-0.14,0.43-0.33,0.58-0.56c0.14-0.23,0.24-0.53,0.29-0.89c0.05-0.36,0.07-0.8,0.07-1.31v-11.1
			c0-1.81-0.43-3.25-1.28-4.3c-0.85-1.05-2.1-1.58-3.75-1.58c-0.86,0-1.69,0.18-2.5,0.54c-0.8,0.36-1.53,0.89-2.17,1.58
			s-1.18,1.53-1.6,2.52c-0.42,0.99-0.67,2.13-0.74,3.41v8.93c0,0.51,0.03,0.94,0.09,1.29c0.06,0.35,0.16,0.65,0.31,0.89
			c0.14,0.24,0.33,0.44,0.57,0.58c0.24,0.15,0.54,0.28,0.9,0.4h-6.39c0.38-0.12,0.69-0.25,0.93-0.4c0.24-0.14,0.43-0.33,0.57-0.56
			c0.14-0.23,0.24-0.53,0.29-0.89c0.05-0.36,0.07-0.8,0.07-1.31v-11.1c0-1.81-0.43-3.25-1.28-4.3c-0.85-1.05-2.09-1.58-3.72-1.58
			c-0.86,0-1.69,0.18-2.5,0.54c-0.8,0.36-1.53,0.89-2.17,1.58s-1.18,1.53-1.6,2.52c-0.42,0.99-0.66,2.13-0.74,3.41v8.93
			c0,0.51,0.03,0.94,0.09,1.29s0.16,0.65,0.31,0.89c0.14,0.24,0.33,0.44,0.57,0.58c0.24,0.15,0.54,0.28,0.9,0.4h-6.39
			c0.38-0.12,0.69-0.25,0.93-0.4c0.24-0.14,0.43-0.33,0.58-0.56c0.14-0.23,0.24-0.53,0.29-0.89
			C168.83,25.41,168.85,24.98,168.85,24.47z"/>
		<path class="st0" d="M206.35,25.7l0.57-6.86c0.14,1.65,0.41,3.01,0.81,4.1c0.39,1.09,0.89,1.95,1.47,2.59
			c0.59,0.64,1.26,1.09,2.01,1.36c0.75,0.27,1.56,0.4,2.42,0.4c1.8,0,3.12-0.44,3.97-1.31s1.28-1.93,1.28-3.19
			c0-0.73-0.13-1.34-0.39-1.83c-0.26-0.5-0.58-0.91-0.95-1.23c-0.37-0.33-0.77-0.58-1.2-0.76c-0.43-0.18-0.83-0.33-1.19-0.45
			l-3.84-1.31c-0.38-0.12-0.81-0.31-1.29-0.56c-0.48-0.25-0.93-0.59-1.36-1c-0.43-0.41-0.8-0.91-1.1-1.51
			c-0.3-0.59-0.45-1.29-0.45-2.09c0-1.6,0.59-2.85,1.76-3.77s2.73-1.38,4.67-1.38c1.32,0,2.52,0.21,3.61,0.62s2.03,0.97,2.82,1.67
			l-0.25,4.9c-0.6-2.37-1.38-4.08-2.35-5.12s-2.27-1.56-3.9-1.56c-1.29,0-2.37,0.31-3.23,0.92c-0.86,0.62-1.29,1.57-1.29,2.85
			c0,0.58,0.12,1.06,0.36,1.45c0.24,0.39,0.53,0.71,0.88,0.96c0.35,0.25,0.72,0.46,1.13,0.62c0.41,0.16,0.79,0.3,1.15,0.42
			l3.48,1.16c0.46,0.15,0.98,0.35,1.56,0.62c0.59,0.27,1.14,0.62,1.67,1.07s0.97,1,1.33,1.67s0.54,1.48,0.54,2.45
			c0,0.89-0.17,1.72-0.5,2.47c-0.34,0.75-0.83,1.4-1.47,1.96c-0.65,0.56-1.44,0.99-2.39,1.31c-0.95,0.31-2.04,0.47-3.29,0.47
			c-1.37,0-2.68-0.18-3.93-0.54C208.2,26.9,207.16,26.38,206.35,25.7z"/>
	</g>
</g>
</svg>
