<?xml version="1.0" encoding="utf-8"?>
<!-- Generator: Adobe Illustrator 25.4.1, SVG Export Plug-In . SVG Version: 6.00 Build 0)  -->
<svg version="1.1" id="レイヤー_1" xmlns="http://www.w3.org/2000/svg" xmlns:xlink="http://www.w3.org/1999/xlink" x="0px"
	 y="0px" viewBox="0 0 392 69" style="enable-background:new 0 0 392 69;" xml:space="preserve">
<style type="text/css">
	.st0{fill:#F08984;}
</style>
<g>
	<g>
		<path class="st0" d="M3.06,63.73V36.32c0-0.77-0.04-1.42-0.11-1.93c-0.07-0.51-0.19-0.93-0.37-1.27
			c-0.18-0.33-0.44-0.61-0.79-0.82c-0.35-0.21-0.81-0.39-1.37-0.53h23.71l1.11,9.67c-0.42-1.83-1.02-3.32-1.8-4.46
			c-0.77-1.14-1.66-2.03-2.67-2.67c-1-0.63-2.1-1.06-3.27-1.29c-1.18-0.23-2.42-0.34-3.72-0.34H7.08v16.48h4.38
			c1.8,0,3.27-0.11,4.41-0.32c1.14-0.21,2.06-0.53,2.75-0.95c0.69-0.42,1.19-0.93,1.51-1.53c0.32-0.6,0.56-1.29,0.74-2.06
			l-0.74,10.72c-0.04-0.77-0.17-1.47-0.4-2.09c-0.23-0.62-0.65-1.14-1.27-1.56c-0.62-0.42-1.49-0.75-2.61-0.98
			c-1.13-0.23-2.62-0.34-4.49-0.34H7.08v13.68c0,1.55,0.23,2.65,0.69,3.3c0.46,0.65,1.25,1.14,2.38,1.45H0
			c1.13-0.32,1.92-0.8,2.38-1.45C2.83,66.38,3.06,65.28,3.06,63.73z"/>
		<path class="st0" d="M28.63,68.49c0.56-0.18,1.02-0.37,1.37-0.58c0.35-0.21,0.63-0.48,0.84-0.82c0.21-0.33,0.35-0.77,0.42-1.29
			c0.07-0.53,0.11-1.16,0.11-1.9V44.4c0-0.74-0.03-1.38-0.08-1.93c-0.05-0.55-0.13-1.03-0.24-1.45c-0.11-0.42-0.26-0.81-0.45-1.16
			c-0.19-0.35-0.43-0.7-0.71-1.06l5.39-0.48v25.56c0,0.74,0.04,1.37,0.13,1.88c0.09,0.51,0.24,0.94,0.45,1.29
			c0.21,0.35,0.49,0.63,0.84,0.85c0.35,0.21,0.79,0.4,1.32,0.58H28.63z M33.17,29.19c0.81,0,1.48,0.24,2.01,0.71
			c0.53,0.48,0.79,1.12,0.79,1.93c0,0.81-0.26,1.46-0.79,1.95c-0.53,0.49-1.2,0.74-2.01,0.74c-0.77,0-1.43-0.25-1.95-0.74
			c-0.53-0.49-0.79-1.14-0.79-1.95c0-0.81,0.26-1.45,0.79-1.93C31.74,29.43,32.39,29.19,33.17,29.19z"/>
		<path class="st0" d="M40.88,68.49c0.56-0.18,1.02-0.37,1.37-0.58c0.35-0.21,0.63-0.48,0.84-0.82c0.21-0.33,0.35-0.77,0.42-1.29
			c0.07-0.53,0.11-1.16,0.11-1.9V44.4c0-0.74-0.03-1.38-0.08-1.93c-0.05-0.55-0.13-1.03-0.24-1.45s-0.26-0.81-0.45-1.16
			c-0.19-0.35-0.43-0.7-0.71-1.06l5.39-0.48v8.4c0.88-2.57,2.29-4.6,4.22-6.1c1.94-1.5,4.4-2.24,7.39-2.24
			c1.69,0,3.19,0.24,4.49,0.71c1.3,0.48,2.4,1.15,3.3,2.03c0.9,0.88,1.58,1.93,2.06,3.14c0.48,1.21,0.71,2.54,0.71,3.99v15.63
			c0,0.74,0.04,1.37,0.13,1.88c0.09,0.51,0.24,0.94,0.45,1.29c0.21,0.35,0.49,0.63,0.84,0.85c0.35,0.21,0.79,0.4,1.32,0.58h-9.4
			c0.56-0.18,1.02-0.37,1.37-0.58c0.35-0.21,0.63-0.48,0.84-0.82c0.21-0.33,0.35-0.77,0.42-1.29c0.07-0.53,0.11-1.16,0.11-1.9V47.73
			c0-2.64-0.63-4.71-1.9-6.21c-1.27-1.5-3.12-2.24-5.55-2.24c-1.37,0-2.69,0.26-3.96,0.77s-2.39,1.26-3.38,2.24
			c-0.99,0.99-1.79,2.2-2.4,3.64c-0.62,1.44-0.98,3.1-1.08,4.96v12.99c0,0.74,0.04,1.37,0.13,1.88c0.09,0.51,0.24,0.94,0.45,1.29
			c0.21,0.35,0.49,0.63,0.84,0.85c0.35,0.21,0.79,0.4,1.32,0.58H40.88z"/>
		<path class="st0" d="M89.58,38.38c1.65,0,3.2,0.26,4.65,0.77c1.44,0.51,2.75,1.28,3.91,2.3v-8.56c0-1.09-0.09-1.88-0.26-2.38
			c-0.18-0.49-0.53-0.95-1.06-1.37l5.23-0.63v34.81c0,1.51,0.12,2.63,0.37,3.35c0.25,0.72,0.62,1.33,1.11,1.82l-5.18,0.16v-4.07
			c-1.09,1.48-2.41,2.54-3.96,3.2c-1.55,0.65-3.12,0.98-4.7,0.98c-2.22,0-4.23-0.37-6.05-1.11c-1.81-0.74-3.35-1.75-4.62-3.04
			c-1.27-1.29-2.25-2.81-2.96-4.57c-0.7-1.76-1.06-3.66-1.06-5.7c0-2.36,0.36-4.52,1.08-6.47c0.72-1.95,1.73-3.64,3.04-5.04
			c1.3-1.41,2.84-2.5,4.62-3.27C85.52,38.77,87.46,38.38,89.58,38.38z M79.07,52.17c0,2.15,0.25,4.17,0.77,6.07
			c0.51,1.9,1.27,3.57,2.27,4.99c1,1.43,2.23,2.55,3.67,3.38c1.44,0.83,3.08,1.24,4.91,1.24c1.51,0,2.91-0.38,4.17-1.14
			c1.27-0.76,2.36-1.8,3.27-3.14V45.67c-0.92-2.22-2.14-3.84-3.67-4.86c-1.53-1.02-3.28-1.53-5.26-1.53c-1.58,0-3,0.31-4.25,0.92
			c-1.25,0.62-2.31,1.49-3.17,2.61c-0.86,1.13-1.53,2.48-2.01,4.07C79.3,48.47,79.07,50.23,79.07,52.17z"/>
		<path class="st0" d="M129.45,31.78c-0.14,0.11-0.27,0.26-0.4,0.48c-0.12,0.21-0.2,0.47-0.24,0.77c-0.04,0.3,0.02,0.65,0.16,1.06
			c0.14,0.41,0.39,0.89,0.74,1.45l10.41,15.9l9.08-13.57c0.81-1.23,1.35-2.21,1.61-2.93c0.26-0.72,0.4-1.29,0.4-1.72
			s-0.09-0.73-0.26-0.92c-0.18-0.19-0.32-0.36-0.42-0.5h4.91c-0.46,0.14-1.03,0.56-1.72,1.27c-0.69,0.7-1.49,1.73-2.4,3.06
			L140.6,52.06v11.78c0,1.51,0.2,2.58,0.61,3.2c0.4,0.62,1.15,1.1,2.24,1.45h-9.72c1.13-0.32,1.88-0.79,2.27-1.43
			c0.39-0.63,0.58-1.71,0.58-3.22v-11.3l-10.14-15.42c-1.16-1.8-2.1-3.07-2.8-3.83c-0.7-0.76-1.3-1.26-1.8-1.5H129.45z"/>
		<path class="st0" d="M173.5,38.38c2.25,0,4.3,0.37,6.15,1.11c1.85,0.74,3.44,1.79,4.78,3.14c1.34,1.36,2.38,2.96,3.12,4.81
			c0.74,1.85,1.11,3.88,1.11,6.1v0.05c0,2.22-0.37,4.25-1.11,6.1c-0.74,1.85-1.78,3.45-3.12,4.81c-1.34,1.36-2.93,2.4-4.78,3.14
			c-1.85,0.74-3.9,1.11-6.15,1.11c-2.25,0-4.3-0.37-6.15-1.11c-1.85-0.74-3.44-1.79-4.78-3.14c-1.34-1.35-2.38-2.96-3.12-4.81
			c-0.74-1.85-1.11-3.88-1.11-6.1v-0.05c0-2.22,0.37-4.25,1.11-6.1c0.74-1.85,1.78-3.45,3.12-4.81c1.34-1.35,2.93-2.4,4.78-3.14
			S171.25,38.38,173.5,38.38z M162.62,53.54c0,2.11,0.26,4.05,0.79,5.81c0.53,1.76,1.27,3.28,2.22,4.57
			c0.95,1.29,2.09,2.28,3.43,2.98c1.34,0.7,2.82,1.06,4.44,1.06c1.62,0,3.1-0.35,4.44-1.06c1.34-0.7,2.48-1.7,3.43-2.98
			c0.95-1.28,1.69-2.81,2.22-4.57c0.53-1.76,0.79-3.7,0.79-5.81s-0.26-4.05-0.79-5.81c-0.53-1.76-1.27-3.27-2.22-4.54
			c-0.95-1.27-2.1-2.25-3.43-2.96c-1.34-0.7-2.82-1.06-4.44-1.06c-1.62,0-3.1,0.35-4.44,1.06c-1.34,0.7-2.48,1.69-3.43,2.96
			c-0.95,1.27-1.69,2.78-2.22,4.54C162.89,49.49,162.62,51.43,162.62,53.54z"/>
		<path class="st0" d="M192.04,38.8l5.39-0.48v21.44c0,1.51,0.16,2.79,0.48,3.83c0.32,1.04,0.77,1.88,1.35,2.53
			c0.58,0.65,1.28,1.12,2.11,1.4c0.83,0.28,1.73,0.42,2.72,0.42c1.58,0,2.96-0.36,4.12-1.08c1.16-0.72,2.13-1.65,2.9-2.77
			c0.77-1.13,1.37-2.38,1.8-3.75c0.42-1.37,0.65-2.71,0.69-4.01V44.4c0-0.74-0.03-1.38-0.08-1.93c-0.05-0.55-0.13-1.03-0.24-1.45
			c-0.11-0.42-0.26-0.81-0.45-1.16c-0.19-0.35-0.43-0.7-0.71-1.06l5.39-0.48v24.93c0,1.55,0.12,2.69,0.37,3.41
			c0.25,0.72,0.62,1.33,1.11,1.82l-5.18,0.16v-7.98c-0.53,1.27-1.1,2.39-1.72,3.38c-0.62,0.99-1.33,1.83-2.14,2.53
			c-0.81,0.7-1.75,1.24-2.83,1.61c-1.07,0.37-2.32,0.55-3.72,0.55c-3.03,0-5.43-0.76-7.21-2.27c-1.78-1.51-2.67-3.84-2.67-6.97V44.4
			c0-0.74-0.03-1.38-0.08-1.93c-0.05-0.55-0.13-1.03-0.24-1.45c-0.11-0.42-0.26-0.81-0.45-1.16
			C192.56,39.51,192.32,39.16,192.04,38.8z"/>
		<path class="st0" d="M222.36,68.49c0.56-0.18,1.02-0.37,1.37-0.58c0.35-0.21,0.63-0.48,0.84-0.82c0.21-0.33,0.35-0.77,0.42-1.29
			c0.07-0.53,0.11-1.16,0.11-1.9V44.4c0-0.74-0.03-1.38-0.08-1.93c-0.05-0.55-0.13-1.03-0.24-1.45s-0.26-0.81-0.45-1.16
			c-0.19-0.35-0.43-0.7-0.71-1.06l5.33-0.48v7.08c0.42-0.99,0.9-1.9,1.43-2.75c0.53-0.84,1.14-1.58,1.85-2.22
			c0.7-0.63,1.52-1.13,2.46-1.48c0.93-0.35,2-0.53,3.2-0.53c1.13,0,2.13,0.12,3.01,0.37l-0.05,5.07c-0.32-0.39-0.7-0.79-1.14-1.21
			c-0.44-0.42-0.91-0.81-1.4-1.16c-0.49-0.35-1-0.64-1.53-0.87c-0.53-0.23-1.07-0.34-1.64-0.34c-0.7,0-1.36,0.18-1.95,0.53
			c-0.6,0.35-1.15,0.82-1.66,1.4c-0.51,0.58-0.98,1.27-1.4,2.06c-0.42,0.79-0.79,1.63-1.11,2.51v17.11c0,0.74,0.04,1.37,0.13,1.88
			c0.09,0.51,0.24,0.94,0.45,1.29c0.21,0.35,0.49,0.63,0.84,0.85c0.35,0.21,0.79,0.4,1.32,0.58H222.36z"/>
		<path class="st0" d="M276.76,31.46c0.7,0,1.54,0.05,2.51,0.16c0.97,0.11,2,0.29,3.09,0.55c1.09,0.26,2.2,0.61,3.33,1.03
			c1.13,0.42,2.2,0.95,3.22,1.58l0.85,12.2c-0.99-5-2.67-8.71-5.04-11.12c-2.38-2.41-5.13-3.62-8.27-3.62
			c-1.76,0-3.42,0.37-4.96,1.11c-1.55,0.74-2.9,1.86-4.04,3.35c-1.14,1.5-2.04,3.36-2.69,5.6c-0.65,2.24-0.98,4.83-0.98,7.79
			c0,3.03,0.34,5.67,1.03,7.92c0.69,2.25,1.63,4.12,2.83,5.6c1.2,1.48,2.61,2.58,4.23,3.3c1.62,0.72,3.36,1.08,5.23,1.08
			c1.16,0,2.33-0.15,3.51-0.45c1.18-0.3,2.32-0.81,3.43-1.53c1.11-0.72,2.16-1.67,3.14-2.85c0.99-1.18,1.85-2.67,2.59-4.46v5.81
			c-1.44,1.2-3.27,2.21-5.47,3.04c-2.2,0.83-4.57,1.24-7.1,1.24c-2.54,0-4.89-0.48-7.08-1.43c-2.18-0.95-4.08-2.26-5.68-3.93
			c-1.6-1.67-2.86-3.65-3.78-5.94c-0.92-2.29-1.37-4.77-1.37-7.45c0-2.64,0.47-5.1,1.4-7.37c0.93-2.27,2.2-4.23,3.8-5.89
			c1.6-1.65,3.46-2.96,5.57-3.91C272.16,31.94,274.4,31.46,276.76,31.46z"/>
		<path class="st0" d="M309.4,38.38c2.25,0,4.3,0.37,6.15,1.11c1.85,0.74,3.44,1.79,4.78,3.14c1.34,1.36,2.38,2.96,3.12,4.81
			c0.74,1.85,1.11,3.88,1.11,6.1v0.05c0,2.22-0.37,4.25-1.11,6.1c-0.74,1.85-1.78,3.45-3.12,4.81c-1.34,1.36-2.93,2.4-4.78,3.14
			c-1.85,0.74-3.9,1.11-6.15,1.11c-2.25,0-4.3-0.37-6.15-1.11c-1.85-0.74-3.44-1.79-4.78-3.14c-1.34-1.35-2.38-2.96-3.12-4.81
			c-0.74-1.85-1.11-3.88-1.11-6.1v-0.05c0-2.22,0.37-4.25,1.11-6.1c0.74-1.85,1.78-3.45,3.12-4.81c1.34-1.35,2.93-2.4,4.78-3.14
			S307.14,38.38,309.4,38.38z M298.52,53.54c0,2.11,0.26,4.05,0.79,5.81c0.53,1.76,1.27,3.28,2.22,4.57
			c0.95,1.29,2.09,2.28,3.43,2.98c1.34,0.7,2.82,1.06,4.44,1.06c1.62,0,3.1-0.35,4.44-1.06c1.34-0.7,2.48-1.7,3.43-2.98
			c0.95-1.28,1.69-2.81,2.22-4.57c0.53-1.76,0.79-3.7,0.79-5.81s-0.26-4.05-0.79-5.81c-0.53-1.76-1.27-3.27-2.22-4.54
			c-0.95-1.27-2.1-2.25-3.43-2.96c-1.34-0.7-2.82-1.06-4.44-1.06c-1.62,0-3.1,0.35-4.44,1.06c-1.34,0.7-2.48,1.69-3.43,2.96
			c-0.95,1.27-1.69,2.78-2.22,4.54C298.78,49.49,298.52,51.43,298.52,53.54z"/>
		<path class="st0" d="M327.62,68.49c0.56-0.18,1.02-0.37,1.37-0.58c0.35-0.21,0.63-0.48,0.85-0.82c0.21-0.33,0.35-0.77,0.42-1.29
			c0.07-0.53,0.11-1.16,0.11-1.9v-31c0-1.09-0.09-1.88-0.26-2.38c-0.18-0.49-0.53-0.95-1.06-1.37l5.23-0.63v35.39
			c0,0.74,0.04,1.37,0.13,1.88c0.09,0.51,0.24,0.94,0.45,1.29c0.21,0.35,0.49,0.63,0.84,0.85c0.35,0.21,0.79,0.4,1.32,0.58H327.62z"
			/>
		<path class="st0" d="M355.19,38.38c2.25,0,4.3,0.37,6.15,1.11c1.85,0.74,3.44,1.79,4.78,3.14c1.34,1.36,2.38,2.96,3.12,4.81
			c0.74,1.85,1.11,3.88,1.11,6.1v0.05c0,2.22-0.37,4.25-1.11,6.1c-0.74,1.85-1.78,3.45-3.12,4.81c-1.34,1.36-2.93,2.4-4.78,3.14
			c-1.85,0.74-3.9,1.11-6.15,1.11c-2.25,0-4.3-0.37-6.15-1.11c-1.85-0.74-3.44-1.79-4.78-3.14c-1.34-1.35-2.38-2.96-3.12-4.81
			c-0.74-1.85-1.11-3.88-1.11-6.1v-0.05c0-2.22,0.37-4.25,1.11-6.1c0.74-1.85,1.78-3.45,3.12-4.81c1.34-1.35,2.93-2.4,4.78-3.14
			C350.88,38.75,352.93,38.38,355.19,38.38z M344.31,53.54c0,2.11,0.26,4.05,0.79,5.81c0.53,1.76,1.27,3.28,2.22,4.57
			c0.95,1.29,2.09,2.28,3.43,2.98c1.34,0.7,2.82,1.06,4.44,1.06c1.62,0,3.1-0.35,4.44-1.06c1.34-0.7,2.48-1.7,3.43-2.98
			c0.95-1.28,1.69-2.81,2.22-4.57c0.53-1.76,0.79-3.7,0.79-5.81s-0.26-4.05-0.79-5.81c-0.53-1.76-1.27-3.27-2.22-4.54
			c-0.95-1.27-2.1-2.25-3.43-2.96c-1.34-0.7-2.82-1.06-4.44-1.06c-1.62,0-3.1,0.35-4.44,1.06c-1.34,0.7-2.48,1.69-3.43,2.96
			c-0.95,1.27-1.69,2.78-2.22,4.54C344.57,49.49,344.31,51.43,344.31,53.54z"/>
		<path class="st0" d="M373.46,68.49c0.56-0.18,1.02-0.37,1.37-0.58c0.35-0.21,0.63-0.48,0.85-0.82c0.21-0.33,0.35-0.77,0.42-1.29
			c0.07-0.53,0.11-1.16,0.11-1.9V44.4c0-0.74-0.03-1.38-0.08-1.93c-0.05-0.55-0.13-1.03-0.24-1.45s-0.26-0.81-0.45-1.16
			c-0.19-0.35-0.43-0.7-0.71-1.06l5.33-0.48v7.08c0.42-0.99,0.9-1.9,1.43-2.75c0.53-0.84,1.14-1.58,1.85-2.22
			c0.7-0.63,1.52-1.13,2.46-1.48c0.93-0.35,2-0.53,3.2-0.53c1.13,0,2.13,0.12,3.01,0.37l-0.05,5.07c-0.32-0.39-0.7-0.79-1.14-1.21
			c-0.44-0.42-0.91-0.81-1.4-1.16c-0.49-0.35-1-0.64-1.53-0.87c-0.53-0.23-1.07-0.34-1.64-0.34c-0.7,0-1.36,0.18-1.95,0.53
			c-0.6,0.35-1.15,0.82-1.66,1.4c-0.51,0.58-0.98,1.27-1.4,2.06c-0.42,0.79-0.79,1.63-1.11,2.51v17.11c0,0.74,0.04,1.37,0.13,1.88
			c0.09,0.51,0.24,0.94,0.45,1.29c0.21,0.35,0.49,0.63,0.85,0.85c0.35,0.21,0.79,0.4,1.32,0.58H373.46z"/>
	</g>
	<g>
		<path class="st0" d="M117.95,0.2h1.75l3.27,8.51l3.27-8.51h1.75l-4.18,10.63h-1.67L117.95,0.2z"/>
		<path class="st0" d="M131.69,7.71c0.15,0.99,1.06,1.9,2.28,1.9c1.44,0,2.2-1.14,2.2-1.14l0.99,0.99c0,0-1.14,1.52-3.19,1.52
			c-2.05,0-3.8-1.75-3.8-3.87c0-2.05,1.67-3.72,3.72-3.72c2.05,0,3.57,1.52,3.57,3.57c0,0.46-0.08,0.76-0.08,0.76H131.69z
			 M131.75,6.42h4.22c-0.18-0.99-0.94-1.75-2.08-1.75C132.75,4.68,131.99,5.44,131.75,6.42z"/>
		<path class="st0" d="M142.02,10.83h-1.52V0.2h1.52V10.83z"/>
		<path class="st0" d="M147.56,10.83l-2.96-7.29h1.59l2.13,5.32l2.13-5.32h1.59l-2.96,7.29H147.56z"/>
		<path class="st0" d="M155.53,7.71c0.15,0.99,1.06,1.9,2.28,1.9c1.44,0,2.2-1.14,2.2-1.14L161,9.46c0,0-1.14,1.52-3.19,1.52
			c-2.05,0-3.8-1.75-3.8-3.87c0-2.05,1.67-3.72,3.72-3.72c2.05,0,3.57,1.52,3.57,3.57c0,0.46-0.08,0.76-0.08,0.76H155.53z
			 M155.59,6.42h4.22c-0.18-0.99-0.94-1.75-2.08-1.75C156.59,4.68,155.83,5.44,155.59,6.42z"/>
		<path class="st0" d="M165.1,1.11h1.37v2.43h1.52V4.9h-1.52v3.78c0,0.55,0.38,0.93,0.91,0.93c0.38,0,0.76-0.15,0.76-0.15v1.37
			c0,0-0.46,0.15-1.06,0.15c-1.37,0-2.13-0.76-2.13-2.28V4.9h-1.37V3.54h0.76c0.46,0,0.76-0.3,0.76-0.91V1.11z"/>
		<path class="st0" d="M183.4,0.2v1.52h-5.77v2.96h4.56v1.52h-4.56v4.63h-1.67V0.2H183.4z"/>
		<path class="st0" d="M187.04,2.17c-0.53,0-0.91-0.38-0.91-0.91s0.38-0.91,0.91-0.91c0.53,0,0.91,0.38,0.91,0.91
			S187.57,2.17,187.04,2.17z M187.8,10.83h-1.52V3.54h1.52V10.83z"/>
		<path class="st0" d="M197.59,10.83h-1.75l-1.9-2.66l-1.9,2.66h-1.75l2.73-3.8l-2.51-3.49h1.75l1.67,2.35l1.67-2.35h1.75
			l-2.51,3.49L197.59,10.83z"/>
		<path class="st0" d="M204.8,10.83V0.2h1.67v9.11h5.16v1.52H204.8z"/>
		<path class="st0" d="M215.13,2.17c-0.53,0-0.91-0.38-0.91-0.91s0.38-0.91,0.91-0.91c0.53,0,0.91,0.38,0.91,0.91
			S215.66,2.17,215.13,2.17z M215.89,10.83h-1.52V3.54h1.52V10.83z"/>
		<path class="st0" d="M220.82,9.99v4.02h-1.52V3.54h1.52v0.84c0,0,0.91-0.99,2.35-0.99c1.9,0,3.57,1.67,3.57,3.8
			c0,2.13-1.67,3.8-3.57,3.8C221.74,10.98,220.82,9.99,220.82,9.99z M220.82,7.18c0,1.37,1.06,2.43,2.2,2.43
			c1.14,0,2.2-1.06,2.2-2.43c0-1.37-1.06-2.43-2.2-2.43C221.89,4.75,220.82,5.81,220.82,7.18z"/>
		<path class="st0" d="M234.41,10.83V0.2h4.33c1.75,0,3.11,1.37,3.11,2.81s-1.06,2.13-1.06,2.13s1.59,0.84,1.59,2.58
			c0,1.67-1.44,3.11-3.42,3.11H234.41z M236.09,1.64v2.89h2.66c0.84,0,1.44-0.61,1.44-1.44s-0.61-1.44-1.44-1.44H236.09z
			 M238.97,9.38c0.99,0,1.75-0.76,1.75-1.75s-0.76-1.75-1.75-1.75h-2.89v3.49H238.97z"/>
		<path class="st0" d="M249.83,10.83v-0.76c0,0-0.84,0.91-2.2,0.91c-1.52,0-2.58-1.06-2.58-2.13c0-1.22,0.84-2.05,2.13-2.28
			l2.66-0.46c0-0.76-0.61-1.37-1.52-1.37c-1.29,0-1.9,0.99-1.9,0.99l-0.99-0.99c0,0,0.99-1.37,2.89-1.37c1.82,0,3.04,1.22,3.04,2.73
			v4.71H249.83z M249.83,7.49V7.33l-2.35,0.38c-0.53,0.09-0.91,0.46-0.91,0.99c0,0.46,0.46,0.91,1.29,0.91
			C249.07,9.61,249.83,8.85,249.83,7.49z"/>
		<path class="st0" d="M256.36,10.83h-1.52V0.2h1.52V10.83z"/>
		<path class="st0" d="M269.27,6.57c0-1.22-0.61-1.82-1.52-1.82c-0.91,0-1.67,0.76-1.67,2.13v3.95h-1.52V6.57
			c0-1.22-0.61-1.82-1.52-1.82c-0.91,0-1.67,0.76-1.67,2.13v3.95h-1.52V3.54h1.52V4.3c0,0,0.76-0.91,1.97-0.91
			c1.59,0,2.2,1.22,2.2,1.22s0.84-1.22,2.51-1.22c1.67,0,2.73,1.06,2.73,3.19v4.25h-1.52V6.57z"/>
	</g>
</g>
</svg>
