<?xml version="1.0" encoding="utf-8"?>
<!-- Generator: Adobe Illustrator 25.4.1, SVG Export Plug-In . SVG Version: 6.00 Build 0)  -->
<svg version="1.1" id="レイヤー_1" xmlns="http://www.w3.org/2000/svg" xmlns:xlink="http://www.w3.org/1999/xlink" x="0px"
	 y="0px" viewBox="0 0 155 161" style="enable-background:new 0 0 155 161;" xml:space="preserve">
<style type="text/css">
	.st0{fill:#F4A39D;}
</style>
<g>
	<g>
		<path class="st0" d="M18.1,157.22l-0.04-0.06l18.29-13.3c0.69-0.5,1.24-0.94,1.63-1.31c0.39-0.37,0.68-0.71,0.85-1.02
			c0.17-0.32,0.25-0.63,0.25-0.95c0-0.32-0.08-0.68-0.22-1.1l4.2,5.77c-0.35-0.26-0.67-0.45-0.97-0.57
			c-0.3-0.12-0.62-0.15-0.98-0.08c-0.35,0.06-0.77,0.23-1.25,0.5s-1.07,0.66-1.76,1.16l-13.47,9.79c-0.33,0.24-0.61,0.49-0.83,0.75
			c-0.22,0.25-0.34,0.56-0.37,0.92s0.07,0.8,0.29,1.33s0.61,1.17,1.16,1.93c-1.27-1.04-2.44-1.82-3.5-2.35
			C20.32,158.09,19.23,157.63,18.1,157.22z"/>
		<path class="st0" d="M24.67,143.1c-1.91,0.82-3.74,1.34-5.48,1.58c-1.74,0.23-3.33,0.19-4.77-0.14c-1.44-0.33-2.71-0.93-3.8-1.79
			c-1.09-0.86-1.93-1.97-2.51-3.34c-0.59-1.39-0.82-2.77-0.7-4.16s0.57-2.71,1.33-3.98c0.76-1.27,1.82-2.45,3.19-3.55
			c1.37-1.1,3.01-2.05,4.92-2.87c1.89-0.81,3.71-1.33,5.46-1.57c1.75-0.24,3.35-0.19,4.79,0.14c1.44,0.33,2.71,0.93,3.8,1.79
			c1.09,0.86,1.93,1.99,2.53,3.38c0.58,1.36,0.81,2.74,0.68,4.12c-0.13,1.38-0.57,2.71-1.33,3.98c-0.76,1.27-1.83,2.46-3.21,3.56
			C28.19,141.34,26.56,142.29,24.67,143.1z M23.36,140.05c3.8-1.63,6.55-3.42,8.25-5.37c1.7-1.95,2.12-3.91,1.29-5.87
			c-0.85-1.98-2.56-3.04-5.15-3.16c-2.58-0.12-5.78,0.62-9.58,2.25c-3.8,1.63-6.55,3.42-8.25,5.37s-2.12,3.92-1.27,5.91
			c0.84,1.96,2.55,3,5.13,3.13C16.37,142.43,19.56,141.68,23.36,140.05z"/>
		<path class="st0" d="M15.23,118.53c-2.07,0.21-3.97,0.17-5.7-0.12c-1.73-0.29-3.23-0.81-4.51-1.56c-1.28-0.74-2.31-1.69-3.09-2.84
			s-1.25-2.46-1.4-3.93c-0.15-1.5,0.04-2.89,0.57-4.18c0.54-1.28,1.35-2.42,2.45-3.41c1.1-0.99,2.47-1.8,4.1-2.44
			c1.63-0.64,3.48-1.06,5.55-1.27c2.04-0.21,3.94-0.17,5.68,0.12c1.74,0.29,3.25,0.81,4.53,1.56c1.28,0.75,2.31,1.69,3.09,2.84
			c0.78,1.15,1.25,2.47,1.41,3.97c0.15,1.47-0.04,2.85-0.58,4.14c-0.54,1.28-1.35,2.42-2.45,3.41c-1.1,0.99-2.47,1.8-4.12,2.44
			C19.12,117.9,17.27,118.32,15.23,118.53z M14.89,115.23c4.11-0.42,7.27-1.31,9.47-2.68c2.2-1.36,3.19-3.1,2.97-5.22
			c-0.22-2.15-1.54-3.67-3.98-4.55c-2.43-0.89-5.7-1.12-9.81-0.7c-4.11,0.42-7.27,1.31-9.47,2.68c-2.2,1.36-3.19,3.12-2.97,5.26
			c0.22,2.12,1.54,3.62,3.97,4.51C7.51,115.42,10.78,115.65,14.89,115.23z"/>
		<path class="st0" d="M6.55,89.55c-1.03-0.29-1.92-0.7-2.67-1.25c-0.75-0.54-1.37-1.18-1.84-1.9s-0.77-1.52-0.9-2.37
			c-0.13-0.86-0.06-1.75,0.19-2.68c0.26-0.93,0.66-1.73,1.21-2.4c0.55-0.67,1.22-1.2,2-1.59c0.78-0.39,1.64-0.63,2.56-0.71
			c0.93-0.08,1.9,0.02,2.93,0.3c1.05,0.29,1.97,0.72,2.76,1.27c0.79,0.56,1.43,1.21,1.91,1.95c0.48,0.74,0.79,1.54,0.93,2.4
			c0.14,0.86,0.08,1.76-0.18,2.68s-0.67,1.72-1.23,2.39c-0.56,0.67-1.24,1.19-2.03,1.56c-0.79,0.38-1.67,0.6-2.63,0.67
			C8.61,89.95,7.6,89.84,6.55,89.55z M7.31,86.81c0.98,0.27,1.9,0.43,2.76,0.48c0.86,0.05,1.63,0,2.31-0.15
			c0.68-0.15,1.24-0.39,1.68-0.73c0.44-0.33,0.74-0.77,0.88-1.29c0.14-0.53,0.12-1.05-0.09-1.58c-0.2-0.53-0.56-1.03-1.06-1.51
			c-0.5-0.48-1.14-0.92-1.9-1.32c-0.76-0.4-1.64-0.74-2.61-1.01c-0.95-0.26-1.84-0.41-2.67-0.45c-0.83-0.04-1.57,0.02-2.23,0.17
			c-0.66,0.15-1.21,0.41-1.65,0.76S2,80.97,1.85,81.5c-0.14,0.53-0.12,1.05,0.08,1.56c0.2,0.51,0.54,1.01,1.03,1.48
			s1.1,0.9,1.83,1.29C5.51,86.22,6.35,86.54,7.31,86.81z M6.53,63.57l0.15-0.69l20.6,27.35l-0.19,0.68L6.53,63.57z M23.55,76.78
			c-1.03-0.29-1.92-0.7-2.67-1.25c-0.75-0.54-1.36-1.18-1.82-1.9c-0.46-0.72-0.76-1.51-0.88-2.37c-0.13-0.86-0.06-1.75,0.19-2.68
			c0.26-0.93,0.66-1.73,1.21-2.4c0.55-0.67,1.21-1.2,1.98-1.6c0.77-0.39,1.62-0.63,2.54-0.71c0.93-0.08,1.9,0.02,2.93,0.31
			c1.05,0.29,1.97,0.71,2.76,1.27c0.79,0.56,1.43,1.21,1.91,1.95c0.48,0.74,0.8,1.54,0.95,2.41s0.1,1.76-0.16,2.69
			c-0.26,0.93-0.67,1.72-1.25,2.39c-0.58,0.66-1.26,1.18-2.05,1.56c-0.79,0.37-1.67,0.6-2.63,0.67
			C25.61,77.18,24.61,77.07,23.55,76.78z M31.98,72.35c0.14-0.53,0.12-1.05-0.09-1.58c-0.2-0.53-0.56-1.03-1.08-1.51
			c-0.51-0.48-1.15-0.92-1.92-1.32c-0.77-0.4-1.64-0.74-2.61-1.01c-0.95-0.26-1.84-0.41-2.67-0.45c-0.83-0.04-1.56,0.02-2.21,0.18
			c-0.65,0.16-1.19,0.41-1.63,0.76c-0.43,0.35-0.73,0.79-0.87,1.32c-0.14,0.53-0.12,1.05,0.08,1.56c0.19,0.51,0.53,1,1.01,1.47
			c0.48,0.47,1.08,0.9,1.81,1.29c0.73,0.39,1.57,0.72,2.52,0.98c0.98,0.27,1.9,0.43,2.76,0.48c0.86,0.05,1.64,0,2.33-0.15
			c0.69-0.15,1.25-0.39,1.7-0.72S31.84,72.88,31.98,72.35z"/>
		<path class="st0" d="M16.93,44.15c-0.05,0.19-0.06,0.39-0.05,0.6c0.02,0.21,0.12,0.43,0.29,0.64c0.18,0.22,0.46,0.43,0.83,0.64
			c0.38,0.21,0.9,0.4,1.55,0.58l20.68,5.48l-10.7-18.32c-0.36-0.64-0.69-1.13-0.98-1.47c-0.29-0.34-0.56-0.58-0.79-0.73
			c-0.23-0.15-0.44-0.21-0.61-0.2c-0.17,0.01-0.34,0.06-0.5,0.13l2.09-2.72c-0.07,0.18-0.11,0.39-0.11,0.63
			c0,0.24,0.06,0.59,0.19,1.03c0.13,0.45,0.37,1.03,0.7,1.74s0.83,1.63,1.47,2.76l11.69,20.17l-0.14,0.19l-25.67-6.67
			c-0.98-0.26-1.73-0.36-2.25-0.3c-0.52,0.06-0.92,0.19-1.21,0.39L16.93,44.15z"/>
		<path class="st0" d="M51.04,45.17c0.56-0.66,0.84-1.29,0.84-1.88c0.01-0.59-0.31-1.35-0.96-2.3l-11.44-16.7
			c-0.32-0.47-0.61-0.85-0.87-1.13c-0.26-0.28-0.51-0.49-0.75-0.62s-0.52-0.19-0.83-0.17c-0.3,0.02-0.65,0.1-1.06,0.25l14.38-9.85
			l4.71,5.43c-1.02-0.94-2.01-1.59-2.96-1.97c-0.95-0.38-1.86-0.54-2.74-0.51c-0.88,0.03-1.72,0.23-2.53,0.58
			c-0.82,0.35-1.62,0.8-2.41,1.35l-4.02,2.75l6.52,9.52l2.61-1.78c1.09-0.75,1.95-1.43,2.56-2.03c0.61-0.61,1.03-1.18,1.28-1.73
			s0.33-1.06,0.28-1.56c-0.05-0.5-0.19-1.02-0.41-1.56l4.02,6.84c-0.34-0.46-0.71-0.83-1.11-1.11c-0.4-0.28-0.87-0.42-1.42-0.42
			s-1.22,0.17-2,0.5c-0.78,0.33-1.74,0.89-2.88,1.66l-2.54,1.74l7.67,11.2l4.92-3.37c0.79-0.54,1.48-1.13,2.05-1.76
			c0.58-0.63,1-1.37,1.25-2.21s0.34-1.81,0.23-2.9c-0.1-1.09-0.46-2.36-1.07-3.81l3.98,7.06L51.04,45.17z"/>
		<path class="st0" d="M72.9,3.38c0.67-0.2,1.41-0.36,2.2-0.48s1.6-0.2,2.43-0.22c0.83-0.03,1.66,0.02,2.49,0.12
			c0.83,0.11,1.59,0.29,2.29,0.55l2.59,6.92c-1.53-2.64-3.35-4.51-5.48-5.61c-2.12-1.1-4.31-1.32-6.55-0.67
			c-1.25,0.36-2.35,0.97-3.29,1.81c-0.95,0.85-1.67,1.92-2.17,3.21c-0.5,1.3-0.75,2.81-0.75,4.53c0,1.72,0.31,3.63,0.92,5.72
			c0.63,2.15,1.41,3.95,2.35,5.41c0.94,1.46,1.98,2.59,3.12,3.39c1.14,0.8,2.36,1.29,3.66,1.47c1.3,0.18,2.62,0.07,3.97-0.33
			c0.5-0.15,1.03-0.36,1.6-0.63c0.57-0.27,1.13-0.63,1.68-1.08s1.07-0.98,1.56-1.61c0.49-0.63,0.91-1.38,1.26-2.24l-2.27-7.79
			l-0.94,0.27c-0.27,0.08-0.67,0.2-1.2,0.35c-0.52,0.15-1.07,0.32-1.64,0.5c-0.57,0.18-1.12,0.35-1.64,0.52s-0.92,0.32-1.21,0.45
			l-0.2-0.96c0.26-0.05,0.52-0.1,0.79-0.15c0.27-0.05,0.59-0.12,0.97-0.22c0.38-0.1,0.83-0.22,1.37-0.38c0.54-0.16,1.2-0.35,2-0.58
			l4.34-1.27l3.61,12.36l-3.51-1.86c-0.75,1.22-1.69,2.25-2.82,3.08c-1.12,0.83-2.34,1.43-3.64,1.81c-1.75,0.51-3.48,0.65-5.2,0.42
			c-1.72-0.23-3.32-0.77-4.8-1.62c-1.48-0.85-2.78-2-3.91-3.43c-1.12-1.43-1.96-3.09-2.5-4.96c-0.54-1.85-0.74-3.66-0.6-5.45
			c0.14-1.79,0.58-3.43,1.32-4.94c0.74-1.5,1.76-2.82,3.07-3.95C69.51,4.74,71.08,3.91,72.9,3.38z"/>
		<path class="st0" d="M96.11,20.78l11.61-20.76l0.23,0.02l9.57,25.2c0.37,0.97,0.71,1.65,1.02,2.05c0.31,0.4,0.63,0.67,0.96,0.79
			l-5.91-0.44c0.19-0.07,0.36-0.16,0.53-0.29c0.17-0.13,0.3-0.33,0.4-0.62c0.1-0.28,0.13-0.63,0.1-1.05
			c-0.03-0.42-0.17-0.95-0.41-1.59l-2.67-7.16l-11.94-0.9l-3.7,6.61c-0.36,0.65-0.61,1.19-0.75,1.63c-0.14,0.43-0.2,0.79-0.18,1.06
			c0.02,0.28,0.09,0.48,0.23,0.62c0.13,0.14,0.28,0.25,0.42,0.34l-3.42-0.26c0.19-0.04,0.38-0.12,0.57-0.25
			c0.19-0.13,0.43-0.38,0.72-0.75s0.64-0.89,1.06-1.56C94.95,22.81,95.47,21.91,96.11,20.78z M111.3,16.33l-4.79-12.72l-6.64,11.86
			L111.3,16.33z"/>
		<path class="st0" d="M131.09,3.85l3.4,1.56l8.2,28.37l7.89-17.23c0.24-0.52,0.41-0.97,0.5-1.34c0.1-0.37,0.13-0.71,0.1-1.01
			c-0.03-0.3-0.14-0.59-0.32-0.85c-0.18-0.27-0.44-0.53-0.77-0.8l4.43,2.03c-0.84-0.1-1.49,0-1.95,0.29
			c-0.46,0.29-0.92,0.94-1.39,1.96l-9.86,21.53l-0.25-0.11l-8.78-30.4l-8.56,18.69c-0.46,1.02-0.66,1.79-0.57,2.33
			c0.08,0.54,0.44,1.09,1.06,1.67l-4.43-2.03c0.85,0.13,1.51,0.05,1.96-0.26s0.91-0.97,1.38-1.99l8.42-18.4
			c0.24-0.52,0.41-0.96,0.5-1.33c0.1-0.37,0.13-0.71,0.1-1.01s-0.14-0.59-0.32-0.85S131.42,4.11,131.09,3.85z"/>
	</g>
</g>
</svg>
