<?xml version="1.0" encoding="utf-8"?>
<!-- Generator: Adobe Illustrator 25.4.1, SVG Export Plug-In . SVG Version: 6.00 Build 0)  -->
<svg version="1.1" id="レイヤー_1" xmlns="http://www.w3.org/2000/svg" xmlns:xlink="http://www.w3.org/1999/xlink" x="0px"
	 y="0px" viewBox="0 0 442 37" style="enable-background:new 0 0 442 37;" xml:space="preserve">
<style type="text/css">
	.st0{fill:#F08984;}
</style>
<g>
	<g>
		<path class="st0" d="M63.31,19.86c0-2.58,0.29-4.93,0.87-7.03c0.58-2.1,1.41-3.89,2.5-5.38c1.08-1.49,2.38-2.64,3.9-3.47
			s3.2-1.24,5.04-1.24c1.87,0,3.57,0.41,5.09,1.24c1.52,0.82,2.82,1.98,3.9,3.47c1.08,1.49,1.92,3.28,2.5,5.38
			c0.58,2.1,0.87,4.44,0.87,7.03c0,2.55-0.29,4.89-0.87,7c-0.58,2.12-1.41,3.92-2.5,5.4c-1.08,1.49-2.38,2.64-3.9,3.47
			c-1.52,0.82-3.22,1.24-5.09,1.24c-1.84,0-3.52-0.41-5.04-1.24c-1.52-0.82-2.82-1.98-3.9-3.47c-1.08-1.49-1.91-3.29-2.5-5.4
			C63.6,24.74,63.31,22.41,63.31,19.86z M67.43,19.86c0,5.14,0.7,9.15,2.11,12.04c1.4,2.89,3.43,4.34,6.08,4.34
			c2.68,0,4.73-1.45,6.13-4.34c1.41-2.89,2.11-6.91,2.11-12.04c0-5.14-0.7-9.15-2.11-12.04c-1.4-2.89-3.45-4.34-6.13-4.34
			c-2.65,0-4.68,1.45-6.08,4.34C68.13,10.7,67.43,14.72,67.43,19.86z"/>
		<path class="st0" d="M101.74,2.89h0.1v28.11c0,1.07,0.04,1.93,0.12,2.59c0.08,0.66,0.22,1.2,0.41,1.6
			c0.19,0.4,0.45,0.72,0.78,0.95c0.32,0.23,0.74,0.42,1.26,0.58h-8.87c0.52-0.16,0.95-0.35,1.29-0.56c0.34-0.21,0.61-0.52,0.8-0.92
			c0.19-0.4,0.33-0.95,0.41-1.62s0.12-1.55,0.12-2.62v-20.7c0-0.52-0.05-0.98-0.14-1.38c-0.1-0.4-0.32-0.75-0.65-1.04
			c-0.34-0.29-0.86-0.52-1.55-0.68c-0.7-0.16-1.62-0.24-2.79-0.24c1.97-0.52,3.61-1.11,4.92-1.79
			C99.25,4.49,100.51,3.73,101.74,2.89z"/>
		<path class="st0" d="M124.76,3.04h4.65l23.95,27.82V7.3c0-0.71-0.04-1.3-0.12-1.77c-0.08-0.47-0.22-0.86-0.41-1.19
			c-0.2-0.32-0.46-0.59-0.8-0.8c-0.34-0.21-0.77-0.38-1.28-0.51h6.06c-1,0.32-1.69,0.77-2.06,1.33c-0.37,0.57-0.56,1.54-0.56,2.93
			v29.42h-0.34L128.21,6.92v25.54c0,1.39,0.19,2.37,0.56,2.93c0.37,0.57,1.06,1.01,2.06,1.33h-6.06c1.03-0.29,1.73-0.73,2.08-1.31
			c0.36-0.58,0.53-1.57,0.53-2.96V7.3c0-0.71-0.04-1.3-0.12-1.77c-0.08-0.47-0.22-0.86-0.41-1.19c-0.19-0.32-0.46-0.59-0.8-0.8
			C125.71,3.34,125.28,3.17,124.76,3.04z"/>
		<path class="st0" d="M161.46,9.48l4.94-0.44v19.68c0,1.39,0.14,2.56,0.44,3.51c0.29,0.95,0.7,1.73,1.24,2.33
			c0.53,0.6,1.18,1.03,1.94,1.28c0.76,0.26,1.59,0.39,2.5,0.39c1.45,0,2.71-0.33,3.78-0.99c1.07-0.66,1.96-1.51,2.67-2.54
			c0.71-1.03,1.26-2.18,1.65-3.44c0.39-1.26,0.6-2.49,0.63-3.68V14.62c0-0.68-0.03-1.27-0.07-1.77c-0.05-0.5-0.12-0.95-0.22-1.33
			c-0.1-0.39-0.23-0.74-0.41-1.07c-0.18-0.32-0.4-0.65-0.65-0.97l4.94-0.44v22.88c0,1.42,0.11,2.46,0.34,3.13
			c0.22,0.66,0.56,1.22,1.02,1.67l-4.75,0.15v-7.32c-0.48,1.16-1.01,2.2-1.58,3.1c-0.56,0.91-1.22,1.68-1.96,2.33
			c-0.74,0.65-1.61,1.14-2.59,1.48c-0.99,0.34-2.12,0.51-3.42,0.51c-2.78,0-4.98-0.69-6.62-2.08c-1.63-1.39-2.45-3.52-2.45-6.4
			V14.62c0-0.68-0.03-1.27-0.07-1.77c-0.05-0.5-0.12-0.95-0.22-1.33c-0.1-0.39-0.24-0.74-0.41-1.07
			C161.93,10.13,161.71,9.81,161.46,9.48z"/>
		<path class="st0" d="M203.72,9.1c1.52,0,2.94,0.23,4.27,0.7c1.32,0.47,2.52,1.17,3.59,2.11V4.06c0-1-0.08-1.73-0.24-2.18
			c-0.16-0.45-0.48-0.87-0.97-1.26l4.8-0.58v31.94c0,1.39,0.11,2.42,0.34,3.08c0.22,0.66,0.56,1.22,1.02,1.67l-4.75,0.15v-3.73
			c-1,1.36-2.21,2.33-3.63,2.93c-1.42,0.6-2.86,0.9-4.31,0.9c-2.04,0-3.89-0.34-5.55-1.02c-1.66-0.68-3.08-1.61-4.24-2.79
			c-1.16-1.18-2.07-2.58-2.71-4.19c-0.65-1.62-0.97-3.36-0.97-5.23c0-2.16,0.33-4.14,0.99-5.94c0.66-1.79,1.59-3.34,2.79-4.63
			c1.2-1.29,2.61-2.29,4.24-3.01C200,9.45,201.78,9.1,203.72,9.1z M194.08,21.75c0,1.97,0.23,3.83,0.7,5.57
			c0.47,1.74,1.16,3.27,2.08,4.58c0.92,1.31,2.04,2.34,3.37,3.1c1.33,0.76,2.83,1.14,4.51,1.14c1.39,0,2.67-0.35,3.83-1.04
			c1.16-0.69,2.16-1.66,3.01-2.88V15.79c-0.84-2.04-1.96-3.52-3.37-4.46c-1.41-0.94-3.01-1.41-4.82-1.41c-1.46,0-2.76,0.28-3.9,0.85
			c-1.15,0.57-2.12,1.37-2.91,2.4c-0.79,1.03-1.41,2.28-1.84,3.73S194.08,19.97,194.08,21.75z"/>
		<path class="st0" d="M233.92,9.1c1.94,0,3.63,0.27,5.06,0.82c1.44,0.55,2.62,1.33,3.56,2.33c0.94,1,1.64,2.18,2.11,3.54
			s0.72,2.84,0.75,4.46H225c-0.06,0.48-0.11,0.98-0.14,1.48c-0.03,0.5-0.05,1.01-0.05,1.53c0,1.84,0.25,3.56,0.75,5.16
			c0.5,1.6,1.2,2.98,2.08,4.14c0.89,1.16,1.95,2.08,3.17,2.74c1.23,0.66,2.57,0.99,4.02,0.99c1.29,0,2.46-0.23,3.51-0.7
			c1.05-0.47,2.01-1.14,2.88-2.01c0.87-0.87,1.66-1.91,2.35-3.13c0.7-1.21,1.3-2.54,1.82-4l-0.44,7.03
			c-1.42,1.2-3.04,2.08-4.85,2.64c-1.81,0.57-3.57,0.85-5.28,0.85c-2.04,0-3.91-0.33-5.62-0.99c-1.71-0.66-3.19-1.59-4.43-2.79
			c-1.24-1.2-2.21-2.65-2.88-4.36c-0.68-1.71-1.02-3.6-1.02-5.67c0-2.04,0.3-3.91,0.9-5.62c0.6-1.71,1.46-3.2,2.59-4.46
			s2.5-2.24,4.1-2.93C230.06,9.44,231.88,9.1,233.92,9.1z M225.09,19.66h16.53c-0.03-1.42-0.23-2.73-0.58-3.93
			c-0.36-1.2-0.86-2.25-1.5-3.15c-0.65-0.9-1.45-1.61-2.4-2.11c-0.95-0.5-2.04-0.75-3.27-0.75c-1.16,0-2.23,0.24-3.2,0.73
			c-0.97,0.48-1.83,1.17-2.59,2.06c-0.76,0.89-1.39,1.94-1.89,3.15C225.68,16.88,225.32,18.21,225.09,19.66z"/>
		<path class="st0" d="M268.33,32.46V7.3c0-0.71-0.04-1.3-0.12-1.77c-0.08-0.47-0.22-0.86-0.41-1.19c-0.2-0.32-0.46-0.59-0.8-0.8
			c-0.34-0.21-0.77-0.38-1.28-0.51h11.78c1.55,0,3.06,0.15,4.53,0.44s2.78,0.77,3.93,1.43c1.15,0.66,2.07,1.53,2.76,2.59
			c0.69,1.07,1.04,2.38,1.04,3.93c0,1.36-0.27,2.56-0.8,3.61c-0.53,1.05-1.25,1.96-2.16,2.71c-0.91,0.76-1.94,1.37-3.1,1.82
			c-1.16,0.45-2.38,0.78-3.63,0.97l7.9,9.5c0.48,0.55,1.04,1.19,1.67,1.91c0.63,0.73,1.25,1.43,1.87,2.11
			c0.61,0.68,1.16,1.27,1.65,1.77c0.48,0.5,0.81,0.8,0.97,0.9h-6.49c0-0.45-0.07-0.9-0.22-1.33c-0.15-0.44-0.36-0.88-0.65-1.33
			c-0.29-0.45-0.65-0.95-1.07-1.5c-0.42-0.55-0.91-1.16-1.46-1.84l-8.04-9.98h-4.17v11.73c0,1.39,0.19,2.37,0.56,2.93
			c0.37,0.57,1.06,1.01,2.06,1.33h-8.92c1.03-0.29,1.73-0.73,2.08-1.31C268.15,34.83,268.33,33.85,268.33,32.46z M272.01,19.95h4.89
			c2.84,0,5.06-0.72,6.66-2.16c1.6-1.44,2.4-3.5,2.4-6.18c0-1.49-0.26-2.73-0.78-3.73c-0.52-1-1.21-1.8-2.08-2.4
			c-0.87-0.6-1.88-1.03-3.03-1.28c-1.15-0.26-2.37-0.39-3.66-0.39h-4.41V19.95z"/>
		<path class="st0" d="M311.85,9.1c2.07,0,3.95,0.34,5.65,1.02c1.7,0.68,3.16,1.64,4.39,2.88c1.23,1.24,2.18,2.71,2.86,4.41
			c0.68,1.7,1.02,3.56,1.02,5.6v0.05c0,2.04-0.34,3.9-1.02,5.6c-0.68,1.7-1.63,3.17-2.86,4.41c-1.23,1.24-2.69,2.21-4.39,2.88
			c-1.7,0.68-3.58,1.02-5.65,1.02c-2.07,0-3.95-0.34-5.65-1.02c-1.7-0.68-3.16-1.64-4.39-2.88c-1.23-1.24-2.18-2.71-2.86-4.41
			c-0.68-1.7-1.02-3.56-1.02-5.6v-0.05c0-2.04,0.34-3.9,1.02-5.6c0.68-1.7,1.63-3.17,2.86-4.41c1.23-1.24,2.69-2.21,4.39-2.88
			C307.9,9.44,309.79,9.1,311.85,9.1z M301.87,23.01c0,1.94,0.24,3.72,0.73,5.33c0.48,1.62,1.16,3.01,2.04,4.19
			c0.87,1.18,1.92,2.09,3.15,2.74c1.23,0.65,2.59,0.97,4.07,0.97s2.84-0.32,4.07-0.97c1.23-0.65,2.28-1.56,3.15-2.74
			c0.87-1.18,1.55-2.58,2.04-4.19c0.48-1.62,0.73-3.39,0.73-5.33s-0.24-3.72-0.73-5.33c-0.48-1.62-1.16-3.01-2.04-4.17
			c-0.87-1.16-1.92-2.07-3.15-2.71c-1.23-0.65-2.58-0.97-4.07-0.97s-2.84,0.32-4.07,0.97c-1.23,0.65-2.28,1.55-3.15,2.71
			c-0.87,1.16-1.55,2.55-2.04,4.17C302.11,19.29,301.87,21.07,301.87,23.01z"/>
		<path class="st0" d="M330.08,34.16l0.78-9.16c0.19,2.2,0.56,4.02,1.09,5.48c0.53,1.45,1.2,2.61,1.99,3.47
			c0.79,0.86,1.7,1.46,2.71,1.82c1.02,0.36,2.11,0.53,3.27,0.53c2.42,0,4.21-0.58,5.36-1.74s1.72-2.58,1.72-4.27
			c0-0.97-0.18-1.78-0.53-2.45c-0.36-0.66-0.78-1.21-1.28-1.65c-0.5-0.44-1.04-0.78-1.62-1.02c-0.58-0.24-1.11-0.44-1.6-0.61
			l-5.19-1.74c-0.52-0.16-1.1-0.41-1.74-0.75c-0.65-0.34-1.26-0.78-1.84-1.33c-0.58-0.55-1.07-1.22-1.48-2.01
			c-0.4-0.79-0.61-1.72-0.61-2.79c0-2.13,0.79-3.81,2.38-5.04c1.58-1.23,3.68-1.84,6.3-1.84c1.78,0,3.4,0.27,4.87,0.82
			c1.47,0.55,2.74,1.29,3.8,2.23l-0.34,6.54c-0.81-3.17-1.87-5.44-3.17-6.83c-1.31-1.39-3.06-2.08-5.26-2.08
			c-1.74,0-3.2,0.41-4.36,1.24c-1.16,0.82-1.75,2.09-1.75,3.8c0,0.78,0.16,1.42,0.48,1.94c0.32,0.52,0.72,0.95,1.19,1.28
			s0.98,0.61,1.53,0.82c0.55,0.21,1.07,0.4,1.55,0.56l4.7,1.55c0.62,0.19,1.32,0.47,2.11,0.82c0.79,0.36,1.54,0.83,2.25,1.43
			c0.71,0.6,1.31,1.34,1.79,2.23c0.48,0.89,0.73,1.98,0.73,3.27c0,1.2-0.23,2.29-0.68,3.3c-0.45,1-1.12,1.87-1.99,2.62
			c-0.87,0.74-1.95,1.33-3.22,1.74c-1.28,0.42-2.75,0.63-4.44,0.63c-1.84,0-3.61-0.24-5.31-0.73
			C332.58,35.76,331.18,35.06,330.08,34.16z"/>
		<path class="st0" d="M367.21,9.1c1.94,0,3.63,0.27,5.06,0.82c1.44,0.55,2.62,1.33,3.56,2.33c0.94,1,1.64,2.18,2.11,3.54
			s0.72,2.84,0.75,4.46h-20.41c-0.06,0.48-0.11,0.98-0.14,1.48c-0.03,0.5-0.05,1.01-0.05,1.53c0,1.84,0.25,3.56,0.75,5.16
			c0.5,1.6,1.2,2.98,2.08,4.14c0.89,1.16,1.95,2.08,3.17,2.74c1.23,0.66,2.57,0.99,4.02,0.99c1.29,0,2.46-0.23,3.51-0.7
			c1.05-0.47,2.01-1.14,2.88-2.01c0.87-0.87,1.66-1.91,2.35-3.13c0.7-1.21,1.3-2.54,1.82-4l-0.44,7.03
			c-1.42,1.2-3.04,2.08-4.85,2.64c-1.81,0.57-3.57,0.85-5.28,0.85c-2.04,0-3.91-0.33-5.62-0.99c-1.71-0.66-3.19-1.59-4.43-2.79
			c-1.24-1.2-2.21-2.65-2.88-4.36c-0.68-1.71-1.02-3.6-1.02-5.67c0-2.04,0.3-3.91,0.9-5.62c0.6-1.71,1.46-3.2,2.59-4.46
			s2.5-2.24,4.1-2.93C363.35,9.44,365.17,9.1,367.21,9.1z M358.38,19.66h16.53c-0.03-1.42-0.23-2.73-0.58-3.93
			c-0.36-1.2-0.86-2.25-1.5-3.15c-0.65-0.9-1.45-1.61-2.4-2.11c-0.95-0.5-2.04-0.75-3.27-0.75c-1.16,0-2.23,0.24-3.2,0.73
			c-0.97,0.48-1.83,1.17-2.59,2.06c-0.76,0.89-1.39,1.94-1.89,3.15C358.97,16.88,358.61,18.21,358.38,19.66z"/>
	</g>
</g>
</svg>
