<?xml version="1.0" encoding="utf-8"?>
<!-- Generator: Adobe Illustrator 25.4.1, SVG Export Plug-In . SVG Version: 6.00 Build 0)  -->
<svg version="1.1" id="レイヤー_1" xmlns="http://www.w3.org/2000/svg" xmlns:xlink="http://www.w3.org/1999/xlink" x="0px"
	 y="0px" viewBox="0 0 442 47" style="enable-background:new 0 0 442 47;" xml:space="preserve">
<style type="text/css">
	.st0{fill:#FFFFFF;}
</style>
<g>
	<g>
		<path class="st0" d="M3.13,19.82c0-2.58,0.29-4.93,0.87-7.03c0.58-2.1,1.41-3.89,2.5-5.38c1.08-1.49,2.38-2.64,3.9-3.47
			c1.52-0.82,3.2-1.24,5.04-1.24c1.87,0,3.57,0.41,5.09,1.24c1.52,0.82,2.82,1.98,3.9,3.47c1.08,1.49,1.91,3.28,2.5,5.38
			c0.58,2.1,0.87,4.44,0.87,7.03c0,2.55-0.29,4.89-0.87,7c-0.58,2.12-1.41,3.92-2.5,5.4c-1.08,1.49-2.38,2.64-3.9,3.47
			c-1.52,0.82-3.22,1.24-5.09,1.24c-1.84,0-3.52-0.41-5.04-1.24c-1.52-0.82-2.82-1.98-3.9-3.47c-1.08-1.49-1.91-3.29-2.5-5.4
			C3.42,24.71,3.13,22.38,3.13,19.82z M7.25,19.82c0,5.14,0.7,9.15,2.11,12.04c1.41,2.89,3.43,4.34,6.08,4.34
			c2.68,0,4.73-1.45,6.13-4.34c1.41-2.89,2.11-6.91,2.11-12.04c0-5.14-0.7-9.15-2.11-12.04c-1.41-2.89-3.45-4.34-6.13-4.34
			c-2.65,0-4.68,1.45-6.08,4.34C7.96,10.67,7.25,14.69,7.25,19.82z"/>
		<path class="st0" d="M51.84,3.01v0.05l0.05-0.05h0.39V25.4h4.46l-0.48,2.57h-3.97v3.01c0,1.07,0.04,1.93,0.12,2.59
			c0.08,0.66,0.22,1.2,0.41,1.6c0.19,0.4,0.45,0.72,0.78,0.95c0.32,0.23,0.74,0.42,1.26,0.58h-8.87c0.52-0.16,0.95-0.35,1.28-0.56
			c0.34-0.21,0.61-0.52,0.8-0.92c0.19-0.4,0.33-0.95,0.41-1.62c0.08-0.68,0.12-1.55,0.12-2.62v-3.01h-15.7v-0.39L51.84,3.01z
			 M48.6,25.4V8.34L35.46,25.4H48.6z"/>
		<path class="st0" d="M79.96,29.81l12.46-26.8h0.29l14.2,30.34c0.55,1.16,1.03,1.98,1.45,2.45c0.42,0.47,0.84,0.77,1.26,0.9h-7.37
			c0.23-0.1,0.44-0.23,0.63-0.41c0.19-0.18,0.34-0.44,0.44-0.8c0.1-0.36,0.1-0.79,0.02-1.31c-0.08-0.52-0.3-1.16-0.65-1.94
			l-3.97-8.63H83.83l-3.97,8.53c-0.39,0.84-0.65,1.54-0.78,2.08c-0.13,0.55-0.17,0.99-0.12,1.33c0.05,0.34,0.16,0.59,0.34,0.75
			c0.18,0.16,0.36,0.29,0.56,0.39h-4.27c0.23-0.06,0.45-0.19,0.68-0.36c0.23-0.18,0.5-0.51,0.82-0.99c0.32-0.48,0.71-1.16,1.16-2.04
			C78.71,32.43,79.28,31.26,79.96,29.81z M98.37,22.88L91.25,7.56l-7.13,15.32H98.37z"/>
		<path class="st0" d="M113.3,36.69c0.52-0.16,0.94-0.34,1.26-0.53c0.32-0.19,0.58-0.44,0.78-0.75c0.19-0.31,0.32-0.7,0.39-1.19
			c0.06-0.48,0.1-1.07,0.1-1.74V4.02c0-1-0.08-1.73-0.24-2.18c-0.16-0.45-0.48-0.87-0.97-1.26l4.8-0.58v32.47
			c0,0.68,0.04,1.25,0.12,1.72c0.08,0.47,0.22,0.86,0.41,1.19c0.19,0.32,0.45,0.58,0.78,0.78c0.32,0.19,0.73,0.37,1.21,0.53H113.3z"
			/>
		<path class="st0" d="M128.23,32.47V14.59c0-0.68-0.02-1.27-0.07-1.77c-0.05-0.5-0.12-0.95-0.22-1.33
			c-0.1-0.39-0.24-0.74-0.41-1.07c-0.18-0.32-0.4-0.65-0.65-0.97l4.94-0.44v7.66c0.78-2.36,2.03-4.22,3.76-5.57
			c1.73-1.36,3.87-2.04,6.42-2.04c2.81,0,5.04,0.72,6.69,2.16c1.65,1.44,2.6,3.32,2.86,5.65c0.74-2.42,1.98-4.33,3.71-5.72
			c1.73-1.39,3.9-2.08,6.52-2.08c1.52,0,2.88,0.22,4.07,0.65c1.19,0.44,2.2,1.06,3.03,1.87c0.82,0.81,1.45,1.77,1.89,2.88
			c0.44,1.11,0.65,2.33,0.65,3.66v14.35c0,0.68,0.04,1.25,0.12,1.72c0.08,0.47,0.22,0.86,0.41,1.19c0.19,0.32,0.45,0.58,0.78,0.78
			c0.32,0.19,0.73,0.37,1.21,0.53h-8.63c0.52-0.16,0.94-0.34,1.26-0.53c0.32-0.19,0.58-0.44,0.78-0.75c0.19-0.31,0.32-0.7,0.39-1.19
			c0.06-0.48,0.1-1.07,0.1-1.74V17.64c0-2.42-0.57-4.34-1.72-5.74c-1.15-1.41-2.84-2.11-5.07-2.11c-1.16,0-2.29,0.24-3.37,0.73
			c-1.08,0.48-2.06,1.19-2.93,2.11c-0.87,0.92-1.59,2.04-2.16,3.37c-0.57,1.33-0.9,2.84-0.99,4.56v11.92c0,0.68,0.04,1.25,0.12,1.72
			c0.08,0.47,0.22,0.86,0.41,1.19c0.19,0.32,0.45,0.58,0.78,0.78c0.32,0.19,0.73,0.37,1.21,0.53h-8.63
			c0.52-0.16,0.94-0.34,1.26-0.53c0.32-0.19,0.58-0.44,0.78-0.75c0.19-0.31,0.32-0.7,0.39-1.19c0.06-0.48,0.1-1.07,0.1-1.74V17.64
			c0-2.42-0.57-4.34-1.72-5.74c-1.15-1.41-2.82-2.11-5.02-2.11c-1.16,0-2.29,0.24-3.37,0.73c-1.08,0.48-2.06,1.19-2.93,2.11
			c-0.87,0.92-1.59,2.04-2.16,3.37c-0.56,1.33-0.9,2.84-0.99,4.56v11.92c0,0.68,0.04,1.25,0.12,1.72c0.08,0.47,0.22,0.86,0.41,1.19
			c0.19,0.32,0.45,0.58,0.78,0.78c0.32,0.19,0.73,0.37,1.21,0.53h-8.63c0.52-0.16,0.94-0.34,1.26-0.53
			c0.32-0.19,0.58-0.44,0.78-0.75c0.19-0.31,0.32-0.7,0.39-1.19C128.2,33.73,128.23,33.15,128.23,32.47z"/>
		<path class="st0" d="M191.58,9.06c2.07,0,3.95,0.34,5.65,1.02c1.7,0.68,3.16,1.64,4.39,2.88c1.23,1.24,2.18,2.71,2.86,4.41
			s1.02,3.56,1.02,5.6v0.05c0,2.04-0.34,3.9-1.02,5.6c-0.68,1.7-1.63,3.17-2.86,4.41c-1.23,1.24-2.69,2.21-4.39,2.88
			c-1.7,0.68-3.58,1.02-5.65,1.02c-2.07,0-3.95-0.34-5.65-1.02c-1.7-0.68-3.16-1.64-4.39-2.88c-1.23-1.24-2.18-2.71-2.86-4.41
			c-0.68-1.7-1.02-3.56-1.02-5.6v-0.05c0-2.04,0.34-3.9,1.02-5.6c0.68-1.7,1.63-3.17,2.86-4.41c1.23-1.24,2.69-2.21,4.39-2.88
			C187.63,9.4,189.51,9.06,191.58,9.06z M181.59,22.97c0,1.94,0.24,3.72,0.73,5.33c0.48,1.62,1.16,3.01,2.04,4.19
			c0.87,1.18,1.92,2.09,3.15,2.74c1.23,0.65,2.59,0.97,4.07,0.97c1.49,0,2.84-0.32,4.07-0.97c1.23-0.65,2.28-1.56,3.15-2.74
			c0.87-1.18,1.55-2.58,2.04-4.19c0.48-1.62,0.73-3.39,0.73-5.33s-0.24-3.72-0.73-5.33c-0.48-1.62-1.16-3-2.04-4.17
			c-0.87-1.16-1.92-2.07-3.15-2.71c-1.23-0.65-2.58-0.97-4.07-0.97c-1.49,0-2.84,0.32-4.07,0.97c-1.23,0.65-2.28,1.55-3.15,2.71
			c-0.87,1.16-1.55,2.55-2.04,4.17C181.84,19.26,181.59,21.04,181.59,22.97z"/>
		<path class="st0" d="M209.51,36.69c0.52-0.16,0.94-0.34,1.26-0.53c0.32-0.19,0.58-0.44,0.78-0.75c0.19-0.31,0.32-0.7,0.39-1.19
			c0.06-0.48,0.1-1.07,0.1-1.74V14.59c0-0.68-0.02-1.27-0.07-1.77c-0.05-0.5-0.12-0.95-0.22-1.33c-0.1-0.39-0.24-0.74-0.41-1.07
			c-0.18-0.32-0.4-0.65-0.65-0.97l4.94-0.44v7.71c0.81-2.36,2.1-4.22,3.88-5.6c1.78-1.37,4.04-2.06,6.79-2.06
			c1.55,0,2.92,0.22,4.12,0.65c1.2,0.44,2.21,1.06,3.03,1.87c0.82,0.81,1.45,1.77,1.89,2.88c0.44,1.11,0.66,2.33,0.66,3.66v14.35
			c0,0.68,0.04,1.25,0.12,1.72c0.08,0.47,0.22,0.86,0.41,1.19c0.19,0.32,0.45,0.58,0.78,0.78c0.32,0.19,0.73,0.37,1.21,0.53h-8.63
			c0.52-0.16,0.94-0.34,1.26-0.53c0.32-0.19,0.58-0.44,0.77-0.75c0.19-0.31,0.32-0.7,0.39-1.19s0.1-1.07,0.1-1.74V17.64
			c0-2.42-0.58-4.32-1.75-5.69c-1.16-1.37-2.86-2.06-5.09-2.06c-1.26,0-2.47,0.23-3.64,0.7c-1.16,0.47-2.2,1.16-3.1,2.06
			c-0.9,0.91-1.64,2.02-2.21,3.34c-0.57,1.33-0.9,2.84-0.99,4.56v11.92c0,0.68,0.04,1.25,0.12,1.72c0.08,0.47,0.22,0.86,0.41,1.19
			c0.19,0.32,0.45,0.58,0.78,0.78c0.32,0.19,0.73,0.37,1.21,0.53H209.51z"/>
		<path class="st0" d="M255.36,9.06c1.52,0,2.94,0.23,4.27,0.7c1.32,0.47,2.52,1.17,3.59,2.11V4.02c0-1-0.08-1.73-0.24-2.18
			c-0.16-0.45-0.48-0.87-0.97-1.26L266.8,0v31.94c0,1.39,0.11,2.42,0.34,3.08c0.23,0.66,0.56,1.22,1.02,1.67l-4.75,0.15V33.1
			c-1,1.36-2.21,2.33-3.64,2.93c-1.42,0.6-2.86,0.9-4.31,0.9c-2.04,0-3.89-0.34-5.55-1.02c-1.66-0.68-3.08-1.61-4.24-2.79
			c-1.16-1.18-2.07-2.58-2.71-4.19c-0.65-1.62-0.97-3.36-0.97-5.23c0-2.16,0.33-4.14,0.99-5.94c0.66-1.79,1.59-3.34,2.79-4.63
			c1.2-1.29,2.61-2.29,4.24-3.01C251.64,9.42,253.43,9.06,255.36,9.06z M245.72,21.71c0,1.97,0.23,3.83,0.7,5.57
			c0.47,1.74,1.16,3.27,2.08,4.58c0.92,1.31,2.04,2.34,3.37,3.1c1.32,0.76,2.83,1.14,4.51,1.14c1.39,0,2.67-0.35,3.83-1.04
			c1.16-0.69,2.16-1.66,3-2.88V15.75c-0.84-2.04-1.96-3.52-3.37-4.46c-1.41-0.94-3.01-1.41-4.82-1.41c-1.45,0-2.76,0.28-3.9,0.85
			c-1.15,0.57-2.12,1.37-2.91,2.4c-0.79,1.03-1.41,2.28-1.84,3.73C245.94,18.32,245.72,19.94,245.72,21.71z"/>
		<path class="st0" d="M288.18,36.69c1.03-0.29,1.73-0.73,2.08-1.31c0.36-0.58,0.53-1.57,0.53-2.96V7.27c0-0.71-0.04-1.3-0.12-1.77
			c-0.08-0.47-0.22-0.86-0.41-1.19c-0.19-0.32-0.46-0.59-0.8-0.8c-0.34-0.21-0.77-0.38-1.28-0.51h11.05c3.81,0,6.83,0.69,9.06,2.06
			c2.23,1.37,3.34,3.35,3.34,5.94c0,2.13-0.81,3.93-2.42,5.38c-1.62,1.45-3.86,2.44-6.74,2.96c3.23,0.39,5.76,1.28,7.59,2.69
			c1.83,1.41,2.74,3.22,2.74,5.45c0,1.45-0.29,2.75-0.87,3.88c-0.58,1.13-1.4,2.09-2.47,2.88c-1.07,0.79-2.37,1.4-3.9,1.82
			c-1.54,0.42-3.26,0.63-5.16,0.63H288.18z M294.48,19h5.19c2.49,0,4.47-0.71,5.94-2.13c1.47-1.42,2.2-3.28,2.2-5.57
			c0-2.42-0.8-4.28-2.4-5.57c-1.6-1.29-3.85-1.94-6.76-1.94h-4.17V19z M294.48,35.92h5.19c2.91,0,5.17-0.73,6.79-2.18
			c1.62-1.45,2.42-3.47,2.42-6.06c0-2.52-0.82-4.47-2.45-5.84c-1.63-1.37-3.82-2.06-6.57-2.06h-5.38V35.92z"/>
		<path class="st0" d="M317.36,36.69c0.52-0.16,0.94-0.34,1.26-0.53c0.32-0.19,0.58-0.44,0.78-0.75c0.19-0.31,0.32-0.7,0.39-1.19
			s0.1-1.07,0.1-1.74V14.59c0-0.68-0.02-1.27-0.07-1.77c-0.05-0.5-0.12-0.95-0.22-1.33c-0.1-0.39-0.23-0.74-0.41-1.07
			c-0.18-0.32-0.4-0.65-0.65-0.97l4.9-0.44v6.49c0.39-0.9,0.82-1.74,1.31-2.52c0.48-0.78,1.05-1.45,1.7-2.04
			c0.65-0.58,1.4-1.03,2.25-1.36c0.86-0.32,1.83-0.48,2.93-0.48c1.03,0,1.96,0.11,2.76,0.34l-0.05,4.65
			c-0.29-0.35-0.64-0.73-1.04-1.11c-0.4-0.39-0.83-0.74-1.28-1.07c-0.45-0.32-0.92-0.59-1.41-0.8c-0.48-0.21-0.99-0.31-1.5-0.31
			c-0.65,0-1.24,0.16-1.79,0.48c-0.55,0.32-1.06,0.75-1.53,1.28c-0.47,0.53-0.9,1.16-1.28,1.89c-0.39,0.73-0.73,1.49-1.02,2.3v15.7
			c0,0.68,0.04,1.25,0.12,1.72c0.08,0.47,0.22,0.86,0.41,1.19c0.19,0.32,0.45,0.58,0.77,0.78c0.32,0.19,0.73,0.37,1.21,0.53H317.36z
			"/>
		<path class="st0" d="M351.72,9.06c2.07,0,3.95,0.34,5.65,1.02c1.7,0.68,3.16,1.64,4.39,2.88c1.23,1.24,2.18,2.71,2.86,4.41
			c0.68,1.7,1.02,3.56,1.02,5.6v0.05c0,2.04-0.34,3.9-1.02,5.6c-0.68,1.7-1.63,3.17-2.86,4.41c-1.23,1.24-2.69,2.21-4.39,2.88
			c-1.7,0.68-3.58,1.02-5.65,1.02c-2.07,0-3.95-0.34-5.65-1.02c-1.7-0.68-3.16-1.64-4.39-2.88c-1.23-1.24-2.18-2.71-2.86-4.41
			c-0.68-1.7-1.02-3.56-1.02-5.6v-0.05c0-2.04,0.34-3.9,1.02-5.6c0.68-1.7,1.63-3.17,2.86-4.41c1.23-1.24,2.69-2.21,4.39-2.88
			C347.77,9.4,349.65,9.06,351.72,9.06z M341.73,22.97c0,1.94,0.24,3.72,0.73,5.33c0.48,1.62,1.16,3.01,2.04,4.19
			c0.87,1.18,1.92,2.09,3.15,2.74c1.23,0.65,2.58,0.97,4.07,0.97s2.84-0.32,4.07-0.97c1.23-0.65,2.28-1.56,3.15-2.74
			c0.87-1.18,1.55-2.58,2.04-4.19c0.48-1.62,0.73-3.39,0.73-5.33s-0.24-3.72-0.73-5.33c-0.49-1.62-1.16-3-2.04-4.17
			c-0.87-1.16-1.92-2.07-3.15-2.71c-1.23-0.65-2.58-0.97-4.07-0.97s-2.84,0.32-4.07,0.97c-1.23,0.65-2.28,1.55-3.15,2.71
			c-0.87,1.16-1.55,2.55-2.04,4.17C341.98,19.26,341.73,21.04,341.73,22.97z"/>
		<path class="st0" d="M374.94,9.31c-0.29,0.23-0.53,0.55-0.7,0.97c-0.18,0.42-0.09,1.1,0.27,2.04l6.79,18.9l6.88-21.96h0.39
			l8.82,22.25l5.28-16.24c0.42-1.32,0.66-2.36,0.73-3.1c0.06-0.74,0.02-1.32-0.12-1.72c-0.15-0.4-0.33-0.67-0.56-0.8
			c-0.23-0.13-0.42-0.24-0.58-0.34h4.75c-0.48,0.26-0.97,0.65-1.45,1.19c-0.48,0.53-0.95,1.51-1.41,2.93l-7.56,23.26h-0.58
			l-8.68-21.91l-6.88,21.91h-0.58l-8.38-23.12c-0.55-1.45-1.02-2.49-1.41-3.1c-0.39-0.61-0.74-1-1.07-1.16H374.94z"/>
		<path class="st0" d="M409.88,36.69c0.52-0.16,0.94-0.34,1.26-0.53c0.32-0.19,0.58-0.44,0.78-0.75c0.19-0.31,0.32-0.7,0.39-1.19
			s0.1-1.07,0.1-1.74V14.59c0-0.68-0.02-1.27-0.07-1.77c-0.05-0.5-0.12-0.95-0.22-1.33c-0.1-0.39-0.23-0.74-0.41-1.07
			c-0.18-0.32-0.4-0.65-0.65-0.97l4.94-0.44v7.71c0.81-2.36,2.1-4.22,3.88-5.6c1.78-1.37,4.04-2.06,6.79-2.06
			c1.55,0,2.92,0.22,4.12,0.65c1.19,0.44,2.21,1.06,3.03,1.87c0.82,0.81,1.45,1.77,1.89,2.88c0.44,1.11,0.65,2.33,0.65,3.66v14.35
			c0,0.68,0.04,1.25,0.12,1.72c0.08,0.47,0.22,0.86,0.41,1.19c0.19,0.32,0.45,0.58,0.77,0.78c0.32,0.19,0.73,0.37,1.21,0.53h-8.63
			c0.52-0.16,0.94-0.34,1.26-0.53c0.32-0.19,0.58-0.44,0.77-0.75c0.19-0.31,0.32-0.7,0.39-1.19c0.06-0.48,0.1-1.07,0.1-1.74V17.64
			c0-2.42-0.58-4.32-1.74-5.69c-1.16-1.37-2.86-2.06-5.09-2.06c-1.26,0-2.47,0.23-3.63,0.7c-1.16,0.47-2.2,1.16-3.1,2.06
			c-0.91,0.91-1.64,2.02-2.21,3.34c-0.57,1.33-0.9,2.84-0.99,4.56v11.92c0,0.68,0.04,1.25,0.12,1.72c0.08,0.47,0.22,0.86,0.41,1.19
			c0.19,0.32,0.45,0.58,0.78,0.78c0.32,0.19,0.73,0.37,1.21,0.53H409.88z"/>
	</g>
</g>
</svg>
