<?xml version="1.0" encoding="utf-8"?>
<!-- Generator: Adobe Illustrator 25.4.1, SVG Export Plug-In . SVG Version: 6.00 Build 0)  -->
<svg version="1.1" id="レイヤー_1" xmlns="http://www.w3.org/2000/svg" xmlns:xlink="http://www.w3.org/1999/xlink" x="0px"
	 y="0px" viewBox="0 0 442 47" style="enable-background:new 0 0 442 47;" xml:space="preserve">
<style type="text/css">
	.st0{fill:#FFFFFF;}
</style>
<g>
	<g>
		<path class="st0" d="M34.48,289.89c0-2.67,0.3-5.09,0.9-7.25c0.6-2.17,1.46-4.02,2.58-5.55c1.12-1.53,2.46-2.73,4.03-3.58
			c1.57-0.85,3.3-1.28,5.2-1.28c1.93,0,3.69,0.43,5.25,1.28c1.57,0.85,2.91,2.04,4.03,3.58c1.12,1.53,1.98,3.39,2.58,5.55
			c0.6,2.17,0.9,4.59,0.9,7.25c0,2.64-0.3,5.05-0.9,7.23c-0.6,2.18-1.46,4.04-2.58,5.58c-1.12,1.53-2.46,2.73-4.03,3.58
			c-1.57,0.85-3.32,1.28-5.25,1.28c-1.9,0-3.64-0.43-5.2-1.28c-1.57-0.85-2.91-2.04-4.03-3.58c-1.12-1.53-1.98-3.39-2.58-5.58
			C34.78,294.93,34.48,292.52,34.48,289.89z M38.73,289.89c0,5.3,0.73,9.45,2.18,12.43c1.45,2.99,3.54,4.48,6.28,4.48
			c2.77,0,4.88-1.49,6.33-4.48c1.45-2.98,2.18-7.13,2.18-12.43c0-5.3-0.73-9.45-2.18-12.43c-1.45-2.99-3.56-4.48-6.33-4.48
			c-2.73,0-4.83,1.49-6.28,4.48C39.46,280.44,38.73,284.58,38.73,289.89z"/>
		<path class="st0" d="M76.66,306.8c1.13,0,2.19-0.22,3.18-0.65c0.98-0.43,1.83-1.08,2.55-1.93c0.72-0.85,1.28-1.9,1.68-3.15
			c0.4-1.25,0.6-2.71,0.6-4.38c0-2.97-0.65-5.22-1.95-6.75c-1.3-1.53-3.15-2.3-5.55-2.3c-0.77,0-1.6,0.07-2.5,0.23
			c-0.9,0.15-1.83,0.41-2.8,0.78l-0.15-0.45l11.71-12.51h-9.41c-1.23,0-2.25,0.13-3.05,0.4c-0.8,0.27-1.45,0.62-1.95,1.05
			c-0.5,0.43-0.88,0.89-1.15,1.38c-0.27,0.48-0.45,0.96-0.55,1.43l0.1-7.4h19.51v0.5l-13.66,14.51c1.6-0.43,3.17-0.65,4.7-0.65
			c1.7,0,3.23,0.25,4.58,0.75c1.35,0.5,2.5,1.19,3.45,2.08c0.95,0.88,1.68,1.92,2.18,3.1c0.5,1.18,0.75,2.46,0.75,3.83
			c0,1.33-0.27,2.65-0.8,3.95c-0.53,1.3-1.33,2.47-2.38,3.5c-1.05,1.03-2.33,1.87-3.83,2.5c-1.5,0.63-3.24,0.95-5.2,0.95
			c-0.97,0-1.87-0.05-2.7-0.15c-0.83-0.1-1.63-0.26-2.4-0.48c-0.77-0.22-1.54-0.52-2.33-0.9c-0.78-0.38-1.61-0.86-2.48-1.43v-8.76
			c0.4,2.23,0.98,4.06,1.73,5.48c0.75,1.42,1.58,2.54,2.48,3.35c0.9,0.82,1.84,1.38,2.83,1.68C74.82,306.65,75.76,306.8,76.66,306.8
			z"/>
		<path class="st0" d="M126.54,272.22c0.67,0,1.46,0.05,2.38,0.15c0.92,0.1,1.89,0.28,2.93,0.53c1.03,0.25,2.08,0.58,3.15,0.98
			c1.07,0.4,2.08,0.9,3.05,1.5l0.8,11.56c-0.93-4.74-2.53-8.25-4.78-10.53c-2.25-2.28-4.86-3.43-7.83-3.43
			c-1.67,0-3.24,0.35-4.7,1.05c-1.47,0.7-2.74,1.76-3.83,3.18c-1.08,1.42-1.94,3.19-2.55,5.3c-0.62,2.12-0.93,4.58-0.93,7.38
			c0,2.87,0.33,5.37,0.97,7.5c0.65,2.13,1.54,3.9,2.68,5.3c1.13,1.4,2.47,2.44,4,3.13c1.53,0.68,3.19,1.03,4.95,1.03
			c1.1,0,2.21-0.14,3.33-0.43c1.12-0.28,2.2-0.77,3.25-1.45c1.05-0.68,2.04-1.58,2.98-2.7c0.93-1.12,1.75-2.53,2.45-4.23v5.5
			c-1.37,1.13-3.09,2.09-5.18,2.88c-2.09,0.78-4.33,1.18-6.73,1.18c-2.4,0-4.64-0.45-6.7-1.35c-2.07-0.9-3.86-2.14-5.38-3.73
			c-1.52-1.58-2.71-3.46-3.58-5.63c-0.87-2.17-1.3-4.52-1.3-7.05c0-2.5,0.44-4.83,1.33-6.98c0.88-2.15,2.08-4.01,3.6-5.58
			c1.52-1.57,3.28-2.8,5.28-3.7C122.19,272.67,124.3,272.22,126.54,272.22z"/>
		<path class="st0" d="M144.1,307.3c0.53-0.17,0.97-0.35,1.3-0.55c0.33-0.2,0.6-0.46,0.8-0.78c0.2-0.32,0.33-0.73,0.4-1.23
			c0.07-0.5,0.1-1.1,0.1-1.8v-29.37c0-1.03-0.08-1.78-0.25-2.25c-0.17-0.47-0.5-0.9-1-1.3l4.95-0.6v17.26
			c0.83-2.43,2.17-4.36,4-5.78c1.83-1.42,4.17-2.13,7-2.13c1.6,0,3.02,0.23,4.25,0.68c1.23,0.45,2.28,1.09,3.13,1.93
			c0.85,0.83,1.5,1.83,1.95,2.98c0.45,1.15,0.68,2.41,0.68,3.78v14.81c0,0.7,0.04,1.29,0.13,1.78c0.08,0.48,0.22,0.89,0.42,1.23
			c0.2,0.33,0.47,0.6,0.8,0.8c0.33,0.2,0.75,0.38,1.25,0.55h-8.91c0.53-0.17,0.97-0.35,1.3-0.55c0.33-0.2,0.6-0.46,0.8-0.78
			c0.2-0.32,0.33-0.73,0.4-1.23c0.07-0.5,0.1-1.1,0.1-1.8v-15.31c0-2.5-0.6-4.46-1.8-5.88c-1.2-1.42-2.95-2.13-5.25-2.13
			c-1.3,0-2.55,0.24-3.75,0.73c-1.2,0.48-2.27,1.19-3.2,2.13c-0.93,0.93-1.69,2.08-2.28,3.45c-0.58,1.37-0.93,2.94-1.03,4.7v12.31
			c0,0.7,0.04,1.29,0.13,1.78c0.08,0.48,0.23,0.89,0.43,1.23c0.2,0.33,0.47,0.6,0.8,0.8c0.33,0.2,0.75,0.38,1.25,0.55H144.1z"/>
		<path class="st0" d="M177.72,307.3c0.53-0.17,0.97-0.35,1.3-0.55c0.33-0.2,0.6-0.46,0.8-0.78c0.2-0.32,0.33-0.73,0.4-1.23
			c0.07-0.5,0.1-1.1,0.1-1.8v-18.46c0-0.7-0.03-1.31-0.07-1.83c-0.05-0.52-0.13-0.98-0.23-1.38c-0.1-0.4-0.24-0.77-0.43-1.1
			c-0.18-0.33-0.41-0.67-0.68-1l5.1-0.45v24.22c0,0.7,0.04,1.29,0.13,1.78c0.08,0.48,0.22,0.89,0.43,1.23c0.2,0.33,0.47,0.6,0.8,0.8
			c0.33,0.2,0.75,0.38,1.25,0.55H177.72z M182.02,270.07c0.77,0,1.4,0.23,1.9,0.68c0.5,0.45,0.75,1.06,0.75,1.83
			c0,0.77-0.25,1.38-0.75,1.85c-0.5,0.47-1.13,0.7-1.9,0.7c-0.73,0-1.35-0.23-1.85-0.7c-0.5-0.47-0.75-1.08-0.75-1.85
			c0-0.77,0.25-1.38,0.75-1.83C180.67,270.3,181.29,270.07,182.02,270.07z"/>
		<path class="st0" d="M190.48,307.3c0.53-0.17,0.97-0.35,1.3-0.55c0.33-0.2,0.6-0.46,0.8-0.78c0.2-0.32,0.33-0.73,0.4-1.23
			c0.07-0.5,0.1-1.1,0.1-1.8v-29.37c0-1.03-0.08-1.78-0.25-2.25c-0.17-0.47-0.5-0.9-1-1.3l4.95-0.6v33.52c0,0.7,0.04,1.29,0.13,1.78
			c0.08,0.48,0.23,0.89,0.43,1.23c0.2,0.33,0.47,0.6,0.8,0.8c0.33,0.2,0.75,0.38,1.25,0.55H190.48z"/>
		<path class="st0" d="M203.29,307.3c0.53-0.17,0.97-0.35,1.3-0.55c0.33-0.2,0.6-0.46,0.8-0.78c0.2-0.32,0.33-0.73,0.4-1.23
			c0.07-0.5,0.1-1.1,0.1-1.8v-18.46c0-0.7-0.03-1.31-0.07-1.83c-0.05-0.52-0.13-0.98-0.23-1.38c-0.1-0.4-0.24-0.77-0.43-1.1
			c-0.18-0.33-0.41-0.67-0.68-1l5.1-0.45v24.22c0,0.7,0.04,1.29,0.13,1.78c0.08,0.48,0.22,0.89,0.42,1.23c0.2,0.33,0.47,0.6,0.8,0.8
			c0.33,0.2,0.75,0.38,1.25,0.55H203.29z M207.59,270.07c0.77,0,1.4,0.23,1.9,0.68c0.5,0.45,0.75,1.06,0.75,1.83
			c0,0.77-0.25,1.38-0.75,1.85c-0.5,0.47-1.13,0.7-1.9,0.7c-0.73,0-1.35-0.23-1.85-0.7c-0.5-0.47-0.75-1.08-0.75-1.85
			c0-0.77,0.25-1.38,0.75-1.83C206.24,270.3,206.86,270.07,207.59,270.07z"/>
		<path class="st0" d="M232.51,289.89c0-2.5,0.42-4.84,1.25-7c0.83-2.17,1.99-4.04,3.48-5.63c1.48-1.58,3.25-2.83,5.3-3.73
			c2.05-0.9,4.29-1.35,6.73-1.35c2.43,0,4.68,0.45,6.73,1.35c2.05,0.9,3.82,2.14,5.3,3.73c1.48,1.58,2.64,3.46,3.48,5.63
			c0.83,2.17,1.25,4.5,1.25,7c0,2.5-0.42,4.84-1.25,7c-0.83,2.17-1.99,4.04-3.48,5.63c-1.48,1.58-3.25,2.83-5.3,3.73
			c-2.05,0.9-4.3,1.35-6.73,1.35c-2.44,0-4.68-0.45-6.73-1.35c-2.05-0.9-3.82-2.14-5.3-3.73c-1.48-1.58-2.64-3.46-3.48-5.63
			C232.92,294.72,232.51,292.39,232.51,289.89z M249.27,306.85c1.87,0,3.57-0.35,5.1-1.05c1.53-0.7,2.85-1.76,3.95-3.18
			c1.1-1.42,1.95-3.19,2.55-5.3c0.6-2.12,0.9-4.59,0.9-7.43c0-2.83-0.3-5.31-0.9-7.43c-0.6-2.12-1.45-3.89-2.55-5.3
			c-1.1-1.42-2.42-2.48-3.95-3.18c-1.53-0.7-3.24-1.05-5.1-1.05c-1.87,0-3.57,0.35-5.1,1.05c-1.53,0.7-2.85,1.76-3.95,3.18
			c-1.1,1.42-1.95,3.19-2.55,5.3c-0.6,2.12-0.9,4.6-0.9,7.43c0,2.84,0.3,5.31,0.9,7.43c0.6,2.12,1.45,3.89,2.55,5.3
			c1.1,1.42,2.42,2.48,3.95,3.18C245.7,306.5,247.4,306.85,249.27,306.85z"/>
		<path class="st0" d="M270.83,307.3c0.53-0.17,0.97-0.35,1.3-0.55c0.33-0.2,0.6-0.46,0.8-0.78c0.2-0.32,0.33-0.73,0.4-1.23
			c0.07-0.5,0.1-1.1,0.1-1.8v-18.46c0-0.7-0.03-1.31-0.08-1.83c-0.05-0.52-0.13-0.98-0.22-1.38c-0.1-0.4-0.24-0.77-0.43-1.1
			c-0.18-0.33-0.41-0.67-0.67-1l5.05-0.45v6.7c0.4-0.93,0.85-1.8,1.35-2.6c0.5-0.8,1.08-1.5,1.75-2.1c0.67-0.6,1.44-1.07,2.33-1.4
			c0.88-0.33,1.89-0.5,3.03-0.5c1.07,0,2.02,0.12,2.85,0.35l-0.05,4.8c-0.3-0.37-0.66-0.75-1.08-1.15c-0.42-0.4-0.86-0.77-1.33-1.1
			c-0.47-0.33-0.95-0.61-1.45-0.83c-0.5-0.22-1.02-0.33-1.55-0.33c-0.67,0-1.28,0.17-1.85,0.5c-0.57,0.33-1.09,0.78-1.58,1.33
			c-0.48,0.55-0.93,1.2-1.33,1.95c-0.4,0.75-0.75,1.54-1.05,2.38v16.21c0,0.7,0.04,1.29,0.13,1.78c0.08,0.48,0.23,0.89,0.43,1.23
			c0.2,0.33,0.47,0.6,0.8,0.8c0.33,0.2,0.75,0.38,1.25,0.55H270.83z"/>
		<path class="st0" d="M304.15,291.79l5.55-1.35v-3.6c0-2.5-0.49-4.34-1.48-5.53c-0.98-1.18-2.48-1.78-4.48-1.78
			c-0.93,0-1.88,0.16-2.85,0.48c-0.97,0.32-1.88,0.88-2.73,1.7c-0.85,0.82-1.63,1.93-2.35,3.33c-0.72,1.4-1.31,3.17-1.78,5.3
			l-0.3-8.36c1.23-0.97,2.75-1.73,4.55-2.3c1.8-0.57,3.65-0.85,5.55-0.85c2.93,0,5.26,0.7,6.98,2.1c1.72,1.4,2.58,3.45,2.58,6.15
			v15.86c0,0.97,0.11,1.82,0.33,2.55c0.22,0.73,0.58,1.33,1.08,1.8l-4.9,0.15v-6.6c-0.33,0.83-0.76,1.65-1.28,2.45
			c-0.52,0.8-1.15,1.52-1.9,2.15c-0.75,0.63-1.64,1.13-2.68,1.5c-1.03,0.37-2.22,0.55-3.55,0.55c-1.2,0-2.33-0.13-3.38-0.4
			c-1.05-0.27-1.95-0.68-2.7-1.23c-0.75-0.55-1.34-1.23-1.78-2.05c-0.43-0.82-0.65-1.78-0.65-2.88c0-1.5,0.41-2.77,1.23-3.8
			c0.82-1.03,1.84-1.9,3.08-2.6c1.23-0.7,2.55-1.26,3.95-1.68C301.65,292.45,302.95,292.09,304.15,291.79z M296.05,300.89
			c0,1.7,0.46,3.1,1.38,4.2c0.92,1.1,2.21,1.65,3.88,1.65c0.93,0,1.88-0.2,2.85-0.6c0.97-0.4,1.85-0.99,2.65-1.78
			c0.8-0.78,1.47-1.76,2-2.93c0.53-1.17,0.83-2.52,0.9-4.05v-6.2l-5.45,1.3c-0.7,0.17-1.53,0.42-2.48,0.75
			c-0.95,0.33-1.85,0.81-2.7,1.43c-0.85,0.62-1.57,1.43-2.15,2.43C296.34,298.09,296.05,299.36,296.05,300.89z"/>
		<path class="st0" d="M319.01,307.3c0.53-0.17,0.97-0.35,1.3-0.55c0.33-0.2,0.6-0.46,0.8-0.78c0.2-0.32,0.33-0.73,0.4-1.23
			c0.07-0.5,0.1-1.1,0.1-1.8v-18.46c0-0.7-0.03-1.31-0.07-1.83c-0.05-0.52-0.13-0.98-0.23-1.38c-0.1-0.4-0.24-0.77-0.43-1.1
			c-0.18-0.33-0.41-0.67-0.68-1l5.1-0.45v7.96c0.83-2.43,2.17-4.36,4-5.78c1.83-1.42,4.17-2.13,7-2.13c1.6,0,3.02,0.23,4.25,0.68
			c1.23,0.45,2.28,1.09,3.13,1.93c0.85,0.83,1.5,1.83,1.95,2.98c0.45,1.15,0.68,2.41,0.68,3.78v14.81c0,0.7,0.04,1.29,0.13,1.78
			c0.08,0.48,0.23,0.89,0.43,1.23c0.2,0.33,0.47,0.6,0.8,0.8c0.33,0.2,0.75,0.38,1.25,0.55h-8.91c0.53-0.17,0.97-0.35,1.3-0.55
			c0.33-0.2,0.6-0.46,0.8-0.78c0.2-0.32,0.33-0.73,0.4-1.23c0.07-0.5,0.1-1.1,0.1-1.8v-15.31c0-2.5-0.6-4.46-1.8-5.88
			c-1.2-1.42-2.95-2.13-5.25-2.13c-1.3,0-2.55,0.24-3.75,0.73c-1.2,0.48-2.27,1.19-3.2,2.13c-0.93,0.93-1.69,2.08-2.28,3.45
			c-0.58,1.37-0.93,2.94-1.03,4.7v12.31c0,0.7,0.04,1.29,0.13,1.78c0.08,0.48,0.22,0.89,0.43,1.23c0.2,0.33,0.47,0.6,0.8,0.8
			c0.33,0.2,0.75,0.38,1.25,0.55H319.01z"/>
		<path class="st0" d="M351.33,309.15c0-1.63,0.8-2.89,2.4-3.78c1.6-0.88,4.17-1.41,7.7-1.58c-2.4-0.2-4.1-0.69-5.1-1.48
			c-1-0.78-1.5-1.76-1.5-2.93c0-0.63,0.14-1.18,0.43-1.63c0.28-0.45,0.67-0.83,1.15-1.13c0.48-0.3,1.04-0.52,1.68-0.65
			c0.63-0.13,1.28-0.2,1.95-0.2h0.7c-1.87-0.67-3.34-1.7-4.4-3.1c-1.07-1.4-1.6-3.07-1.6-5c0-1.3,0.25-2.48,0.75-3.55
			c0.5-1.07,1.22-1.98,2.15-2.75c0.93-0.77,2.04-1.37,3.33-1.8c1.28-0.43,2.69-0.65,4.23-0.65c1.3,0,2.51,0.15,3.63,0.45
			c1.12,0.3,2.11,0.73,2.98,1.3c0.23-1.8,0.84-3.19,1.83-4.18c0.98-0.98,2.06-1.48,3.23-1.48c0.77,0,1.39,0.19,1.88,0.58
			c0.48,0.38,0.73,0.91,0.73,1.58c0,0.6-0.21,1.1-0.63,1.5c-0.42,0.4-0.94,0.6-1.58,0.6c-0.37,0-0.7-0.06-1-0.18
			c-0.3-0.12-0.58-0.25-0.85-0.4c-0.27-0.15-0.53-0.28-0.78-0.4c-0.25-0.12-0.51-0.18-0.77-0.18c-0.43,0-0.78,0.21-1.05,0.63
			c-0.27,0.42-0.47,1.16-0.6,2.23c1.07,0.77,1.9,1.73,2.5,2.88c0.6,1.15,0.9,2.43,0.9,3.83c0,1.3-0.25,2.49-0.75,3.58
			c-0.5,1.08-1.21,2.02-2.13,2.8c-0.92,0.78-2.02,1.39-3.3,1.83c-1.28,0.43-2.69,0.65-4.23,0.65c-0.73,0-1.45-0.05-2.15-0.15
			c-0.4-0.03-0.75-0.06-1.05-0.07c-0.3-0.02-0.58-0.03-0.85-0.03c-1.27,0-2.27,0.18-3,0.53c-0.73,0.35-1.1,0.84-1.1,1.48
			c0,0.5,0.2,0.9,0.6,1.2c0.4,0.3,0.86,0.53,1.38,0.7c0.52,0.17,1.03,0.28,1.53,0.35l5.9,0.75c1.93,0.23,3.67,0.49,5.2,0.78
			c1.53,0.28,2.84,0.65,3.93,1.1c1.08,0.45,1.91,1.04,2.48,1.78c0.57,0.73,0.85,1.68,0.85,2.85c0,1.23-0.33,2.35-0.98,3.35
			c-0.65,1-1.57,1.85-2.75,2.55c-1.18,0.7-2.61,1.24-4.28,1.63c-1.67,0.38-3.54,0.58-5.6,0.58c-1.74,0-3.44-0.14-5.1-0.43
			c-1.67-0.28-3.16-0.71-4.48-1.28c-1.32-0.57-2.38-1.27-3.18-2.1C351.73,311.27,351.33,310.28,351.33,309.15z M354.48,309.3
			c0,1.87,0.96,3.33,2.88,4.38c1.92,1.05,4.58,1.58,7.98,1.58c1.8,0,3.4-0.15,4.8-0.45c1.4-0.3,2.59-0.72,3.58-1.25
			c0.98-0.53,1.73-1.13,2.23-1.8c0.5-0.67,0.75-1.38,0.75-2.15c0-1.13-0.47-2.04-1.4-2.73c-0.93-0.68-2.08-1.21-3.43-1.58
			c-1.35-0.37-2.75-0.61-4.2-0.73c-1.45-0.12-2.71-0.18-3.78-0.18c-1.84,0-3.36,0.11-4.58,0.33c-1.22,0.22-2.18,0.53-2.9,0.95
			c-0.72,0.42-1.22,0.93-1.5,1.55C354.63,307.84,354.48,308.53,354.48,309.3z M365.49,295.84c0.93,0,1.8-0.18,2.6-0.55
			c0.8-0.37,1.49-0.88,2.08-1.53c0.58-0.65,1.04-1.44,1.38-2.38c0.33-0.93,0.5-1.95,0.5-3.05c0-1.1-0.17-2.18-0.5-3.23
			c-0.33-1.05-0.81-1.98-1.43-2.78c-0.62-0.8-1.37-1.45-2.25-1.95c-0.88-0.5-1.88-0.75-2.98-0.75c-0.97,0-1.85,0.18-2.65,0.55
			c-0.8,0.37-1.49,0.88-2.08,1.55c-0.58,0.67-1.03,1.46-1.35,2.38c-0.32,0.92-0.48,1.91-0.48,2.98c0,1.07,0.17,2.13,0.5,3.18
			c0.33,1.05,0.81,1.98,1.43,2.8c0.62,0.82,1.37,1.48,2.25,2C363.4,295.58,364.39,295.84,365.49,295.84z"/>
		<path class="st0" d="M395.66,278.78c2,0,3.74,0.28,5.23,0.85c1.48,0.57,2.71,1.37,3.68,2.4c0.97,1.03,1.69,2.25,2.18,3.65
			c0.48,1.4,0.74,2.94,0.78,4.6h-21.06c-0.07,0.5-0.12,1.01-0.15,1.53c-0.03,0.52-0.05,1.04-0.05,1.58c0,1.9,0.26,3.68,0.78,5.33
			c0.52,1.65,1.23,3.08,2.15,4.28c0.92,1.2,2.01,2.14,3.28,2.83c1.27,0.68,2.65,1.03,4.15,1.03c1.33,0,2.54-0.24,3.63-0.73
			c1.08-0.48,2.08-1.18,2.98-2.08c0.9-0.9,1.71-1.98,2.43-3.23c0.72-1.25,1.34-2.63,1.88-4.13l-0.45,7.25
			c-1.47,1.23-3.14,2.14-5,2.73c-1.87,0.58-3.69,0.88-5.45,0.88c-2.1,0-4.04-0.34-5.8-1.03c-1.77-0.68-3.29-1.64-4.58-2.88
			c-1.28-1.23-2.28-2.73-2.98-4.5c-0.7-1.77-1.05-3.72-1.05-5.85c0-2.1,0.31-4.04,0.93-5.8c0.62-1.77,1.51-3.3,2.68-4.6
			c1.17-1.3,2.58-2.31,4.23-3.03C391.68,279.14,393.56,278.78,395.66,278.78z M386.55,289.69h17.06c-0.03-1.47-0.23-2.82-0.6-4.05
			c-0.37-1.23-0.88-2.32-1.55-3.25c-0.67-0.93-1.49-1.66-2.48-2.18c-0.98-0.52-2.11-0.78-3.38-0.78c-1.2,0-2.3,0.25-3.3,0.75
			c-1,0.5-1.89,1.21-2.68,2.13c-0.78,0.92-1.43,2-1.95,3.25C387.16,286.81,386.79,288.18,386.55,289.69z"/>
	</g>
</g>
<g>
	<g>
		<path class="st0" d="M22.93,19.82c0-2.58,0.29-4.93,0.87-7.03c0.58-2.1,1.41-3.89,2.5-5.38c1.08-1.49,2.38-2.64,3.9-3.47
			c1.52-0.82,3.2-1.24,5.04-1.24c1.87,0,3.57,0.41,5.09,1.24c1.52,0.82,2.82,1.98,3.9,3.47c1.08,1.49,1.91,3.28,2.5,5.38
			c0.58,2.1,0.87,4.44,0.87,7.03c0,2.55-0.29,4.89-0.87,7c-0.58,2.12-1.41,3.92-2.5,5.4c-1.08,1.49-2.38,2.64-3.9,3.47
			c-1.52,0.82-3.22,1.24-5.09,1.24c-1.84,0-3.52-0.41-5.04-1.24c-1.52-0.82-2.82-1.98-3.9-3.47c-1.08-1.49-1.91-3.29-2.5-5.4
			C23.22,24.71,22.93,22.38,22.93,19.82z M27.05,19.82c0,5.14,0.7,9.15,2.11,12.04c1.41,2.89,3.43,4.34,6.08,4.34
			c2.68,0,4.73-1.45,6.13-4.34c1.41-2.89,2.11-6.91,2.11-12.04c0-5.14-0.7-9.15-2.11-12.04c-1.41-2.89-3.45-4.34-6.13-4.34
			c-2.65,0-4.68,1.45-6.08,4.34C27.76,10.67,27.05,14.69,27.05,19.82z"/>
		<path class="st0" d="M53.27,36.3c2.81-2.81,5.24-5.38,7.29-7.71c2.05-2.33,3.73-4.5,5.04-6.52c1.31-2.02,2.28-3.92,2.91-5.7
			c0.63-1.78,0.95-3.52,0.95-5.23c0-2.46-0.55-4.35-1.65-5.7c-1.1-1.34-2.52-2.01-4.27-2.01c-0.77,0-1.6,0.17-2.47,0.51
			s-1.74,0.95-2.59,1.82c-0.86,0.87-1.66,2.05-2.4,3.54c-0.74,1.49-1.37,3.39-1.89,5.72l0.48-9.45c1.45-0.94,2.91-1.65,4.36-2.13
			c1.45-0.48,3.09-0.73,4.9-0.73c3.07,0,5.44,0.66,7.13,1.99c1.68,1.33,2.52,3.05,2.52,5.19c0,1.39-0.37,2.9-1.11,4.53
			c-0.74,1.63-1.83,3.42-3.27,5.36c-1.44,1.94-3.2,4.05-5.28,6.33c-2.08,2.28-4.48,4.77-7.2,7.49h10.47c1.23,0,2.25-0.05,3.08-0.15
			c0.82-0.1,1.52-0.29,2.08-0.58c0.56-0.29,1.03-0.71,1.41-1.26c0.37-0.55,0.72-1.28,1.04-2.18l-0.24,7.27H53.32L53.27,36.3z"/>
		<path class="st0" d="M104.26,3.01c-0.52,0.16-0.94,0.35-1.26,0.56c-0.32,0.21-0.58,0.53-0.78,0.95c-0.19,0.42-0.33,0.96-0.41,1.62
			c-0.08,0.66-0.12,1.53-0.12,2.59v22.25c0,1.07,0.04,1.93,0.12,2.59c0.08,0.66,0.22,1.2,0.41,1.6c0.19,0.4,0.45,0.72,0.78,0.95
			c0.32,0.23,0.74,0.42,1.26,0.58h-8.87c0.52-0.16,0.95-0.35,1.28-0.56c0.34-0.21,0.61-0.52,0.8-0.92c0.19-0.4,0.33-0.95,0.41-1.62
			c0.08-0.68,0.12-1.55,0.12-2.62V8.72c0-1.07-0.04-1.94-0.12-2.62c-0.08-0.68-0.22-1.22-0.41-1.62c-0.19-0.4-0.46-0.72-0.8-0.95
			c-0.34-0.23-0.77-0.4-1.28-0.53H104.26z"/>
		<path class="st0" d="M108.82,36.69c0.52-0.16,0.94-0.34,1.26-0.53c0.32-0.19,0.58-0.44,0.78-0.75c0.19-0.31,0.32-0.7,0.39-1.19
			c0.06-0.48,0.1-1.07,0.1-1.74V14.59c0-0.68-0.02-1.27-0.07-1.77c-0.05-0.5-0.12-0.95-0.22-1.33c-0.1-0.39-0.23-0.74-0.41-1.07
			c-0.18-0.32-0.4-0.65-0.65-0.97l4.94-0.44v7.71c0.81-2.36,2.1-4.22,3.88-5.6c1.78-1.37,4.04-2.06,6.79-2.06
			c1.55,0,2.92,0.22,4.12,0.65c1.19,0.44,2.21,1.06,3.03,1.87c0.82,0.81,1.45,1.77,1.89,2.88c0.44,1.11,0.65,2.33,0.65,3.66v14.35
			c0,0.68,0.04,1.25,0.12,1.72c0.08,0.47,0.22,0.86,0.41,1.19c0.19,0.32,0.45,0.58,0.77,0.78c0.32,0.19,0.73,0.37,1.21,0.53h-8.63
			c0.52-0.16,0.94-0.34,1.26-0.53c0.32-0.19,0.58-0.44,0.77-0.75c0.19-0.31,0.32-0.7,0.39-1.19s0.1-1.07,0.1-1.74V17.64
			c0-2.42-0.58-4.32-1.74-5.69c-1.16-1.37-2.86-2.06-5.09-2.06c-1.26,0-2.47,0.23-3.63,0.7c-1.16,0.47-2.2,1.16-3.1,2.06
			c-0.91,0.91-1.64,2.02-2.21,3.34c-0.57,1.33-0.9,2.84-0.99,4.56v11.92c0,0.68,0.04,1.25,0.12,1.72c0.08,0.47,0.22,0.86,0.41,1.19
			c0.19,0.32,0.45,0.58,0.78,0.78c0.32,0.19,0.73,0.37,1.21,0.53H108.82z"/>
		<path class="st0" d="M141.39,36.69c0.52-0.16,0.94-0.34,1.26-0.53c0.32-0.19,0.58-0.44,0.78-0.75c0.19-0.31,0.32-0.7,0.39-1.19
			c0.06-0.48,0.1-1.07,0.1-1.74V14.59c0-0.68-0.02-1.27-0.07-1.77c-0.05-0.5-0.12-0.95-0.22-1.33c-0.1-0.39-0.24-0.74-0.41-1.07
			c-0.18-0.32-0.4-0.65-0.65-0.97l4.94-0.44v7.71c0.81-2.36,2.1-4.22,3.88-5.6c1.78-1.37,4.04-2.06,6.79-2.06
			c1.55,0,2.92,0.22,4.12,0.65c1.19,0.44,2.21,1.06,3.03,1.87c0.82,0.81,1.45,1.77,1.89,2.88c0.44,1.11,0.65,2.33,0.65,3.66v14.35
			c0,0.68,0.04,1.25,0.12,1.72c0.08,0.47,0.22,0.86,0.41,1.19c0.19,0.32,0.45,0.58,0.78,0.78c0.32,0.19,0.73,0.37,1.21,0.53h-8.63
			c0.52-0.16,0.94-0.34,1.26-0.53c0.32-0.19,0.58-0.44,0.78-0.75c0.19-0.31,0.32-0.7,0.39-1.19c0.06-0.48,0.1-1.07,0.1-1.74V17.64
			c0-2.42-0.58-4.32-1.75-5.69c-1.16-1.37-2.86-2.06-5.09-2.06c-1.26,0-2.47,0.23-3.64,0.7c-1.16,0.47-2.2,1.16-3.1,2.06
			c-0.9,0.91-1.64,2.02-2.2,3.34c-0.57,1.33-0.9,2.84-0.99,4.56v11.92c0,0.68,0.04,1.25,0.12,1.72c0.08,0.47,0.22,0.86,0.41,1.19
			c0.19,0.32,0.45,0.58,0.77,0.78c0.32,0.19,0.73,0.37,1.21,0.53H141.39z"/>
		<path class="st0" d="M188.02,9.06c2.07,0,3.95,0.34,5.65,1.02c1.7,0.68,3.16,1.64,4.39,2.88c1.23,1.24,2.18,2.71,2.86,4.41
			s1.02,3.56,1.02,5.6v0.05c0,2.04-0.34,3.9-1.02,5.6c-0.68,1.7-1.63,3.17-2.86,4.41c-1.23,1.24-2.69,2.21-4.39,2.88
			c-1.7,0.68-3.58,1.02-5.65,1.02c-2.07,0-3.95-0.34-5.65-1.02c-1.7-0.68-3.16-1.64-4.39-2.88c-1.23-1.24-2.18-2.71-2.86-4.41
			c-0.68-1.7-1.02-3.56-1.02-5.6v-0.05c0-2.04,0.34-3.9,1.02-5.6s1.63-3.17,2.86-4.41c1.23-1.24,2.69-2.21,4.39-2.88
			C184.07,9.4,185.95,9.06,188.02,9.06z M178.03,22.97c0,1.94,0.24,3.72,0.73,5.33c0.48,1.62,1.16,3.01,2.04,4.19
			c0.87,1.18,1.92,2.09,3.15,2.74c1.23,0.65,2.58,0.97,4.07,0.97c1.49,0,2.84-0.32,4.07-0.97c1.23-0.65,2.28-1.56,3.15-2.74
			c0.87-1.18,1.55-2.58,2.04-4.19c0.48-1.62,0.73-3.39,0.73-5.33s-0.24-3.72-0.73-5.33c-0.48-1.62-1.16-3-2.04-4.17
			c-0.87-1.16-1.92-2.07-3.15-2.71c-1.23-0.65-2.59-0.97-4.07-0.97c-1.49,0-2.84,0.32-4.07,0.97c-1.23,0.65-2.28,1.55-3.15,2.71
			c-0.87,1.16-1.55,2.55-2.04,4.17C178.28,19.26,178.03,21.04,178.03,22.97z"/>
		<path class="st0" d="M219.38,9.06c2.1,0,4.06,0.36,5.89,1.09c1.82,0.73,3.43,1.64,4.82,2.74l-1.6,7.66
			c-0.19-2.04-0.58-3.75-1.16-5.14c-0.58-1.39-1.28-2.5-2.11-3.34c-0.82-0.84-1.74-1.44-2.74-1.79c-1-0.35-2.02-0.53-3.05-0.53
			c-1.39,0-2.66,0.32-3.8,0.95c-1.15,0.63-2.13,1.53-2.96,2.69c-0.82,1.16-1.47,2.55-1.94,4.17c-0.47,1.62-0.7,3.41-0.7,5.38
			c0,2,0.24,3.83,0.73,5.48c0.48,1.65,1.16,3.05,2.04,4.22c0.87,1.16,1.91,2.06,3.1,2.69c1.19,0.63,2.52,0.95,3.97,0.95
			c2.46,0,4.6-0.93,6.45-2.79c1.84-1.86,3.21-4.55,4.12-8.07l-0.34,8.09c-0.74,0.68-1.56,1.24-2.45,1.67
			c-0.89,0.44-1.79,0.78-2.69,1.04c-0.91,0.26-1.8,0.44-2.69,0.56c-0.89,0.11-1.7,0.17-2.45,0.17c-1.97,0-3.8-0.33-5.48-0.99
			c-1.68-0.66-3.13-1.61-4.34-2.84c-1.21-1.23-2.17-2.71-2.86-4.44c-0.69-1.73-1.04-3.66-1.04-5.79c0-2.04,0.32-3.89,0.97-5.57
			c0.65-1.68,1.55-3.13,2.71-4.36c1.16-1.23,2.56-2.18,4.19-2.86C215.6,9.4,217.41,9.06,219.38,9.06z"/>
		<path class="st0" d="M248.02,9.06c1.94,0,3.63,0.27,5.06,0.82c1.44,0.55,2.62,1.33,3.56,2.33c0.94,1,1.64,2.18,2.11,3.54
			c0.47,1.36,0.72,2.84,0.75,4.46H239.1c-0.07,0.48-0.11,0.98-0.15,1.48c-0.03,0.5-0.05,1.01-0.05,1.53c0,1.84,0.25,3.56,0.75,5.16
			c0.5,1.6,1.19,2.98,2.08,4.14c0.89,1.16,1.95,2.08,3.17,2.74c1.23,0.66,2.57,0.99,4.02,0.99c1.29,0,2.46-0.23,3.51-0.7
			c1.05-0.47,2.01-1.14,2.88-2.01c0.87-0.87,1.66-1.91,2.35-3.13c0.69-1.21,1.3-2.54,1.82-4l-0.44,7.03
			c-1.42,1.2-3.04,2.08-4.85,2.64c-1.81,0.57-3.57,0.85-5.28,0.85c-2.04,0-3.91-0.33-5.62-0.99c-1.71-0.66-3.19-1.59-4.43-2.79
			c-1.24-1.2-2.2-2.65-2.88-4.36c-0.68-1.71-1.02-3.6-1.02-5.67c0-2.04,0.3-3.91,0.9-5.62c0.6-1.71,1.46-3.2,2.59-4.46
			c1.13-1.26,2.5-2.24,4.1-2.93C244.17,9.41,245.99,9.06,248.02,9.06z M239.2,19.63h16.53c-0.03-1.42-0.23-2.73-0.58-3.93
			c-0.36-1.19-0.86-2.25-1.5-3.15c-0.65-0.9-1.45-1.61-2.4-2.11c-0.95-0.5-2.04-0.75-3.27-0.75c-1.16,0-2.23,0.24-3.2,0.73
			c-0.97,0.48-1.83,1.17-2.59,2.06c-0.76,0.89-1.39,1.94-1.89,3.15C239.79,16.84,239.43,18.18,239.2,19.63z"/>
		<path class="st0" d="M264.02,36.69c0.52-0.16,0.94-0.34,1.26-0.53c0.32-0.19,0.58-0.44,0.78-0.75c0.19-0.31,0.32-0.7,0.39-1.19
			c0.06-0.48,0.1-1.07,0.1-1.74V14.59c0-0.68-0.02-1.27-0.07-1.77c-0.05-0.5-0.12-0.95-0.22-1.33c-0.1-0.39-0.23-0.74-0.41-1.07
			c-0.18-0.32-0.4-0.65-0.65-0.97l4.94-0.44v7.71c0.81-2.36,2.1-4.22,3.88-5.6c1.78-1.37,4.04-2.06,6.79-2.06
			c1.55,0,2.92,0.22,4.12,0.65c1.19,0.44,2.21,1.06,3.03,1.87c0.82,0.81,1.45,1.77,1.89,2.88c0.44,1.11,0.65,2.33,0.65,3.66v14.35
			c0,0.68,0.04,1.25,0.12,1.72c0.08,0.47,0.22,0.86,0.41,1.19c0.19,0.32,0.45,0.58,0.77,0.78c0.32,0.19,0.73,0.37,1.21,0.53h-8.63
			c0.52-0.16,0.94-0.34,1.26-0.53c0.32-0.19,0.58-0.44,0.77-0.75c0.19-0.31,0.32-0.7,0.39-1.19s0.1-1.07,0.1-1.74V17.64
			c0-2.42-0.58-4.32-1.74-5.69c-1.16-1.37-2.86-2.06-5.09-2.06c-1.26,0-2.47,0.23-3.63,0.7c-1.16,0.47-2.2,1.16-3.1,2.06
			c-0.91,0.91-1.64,2.02-2.21,3.34c-0.57,1.33-0.9,2.84-0.99,4.56v11.92c0,0.68,0.04,1.25,0.12,1.72c0.08,0.47,0.22,0.86,0.41,1.19
			c0.19,0.32,0.45,0.58,0.78,0.78c0.32,0.19,0.73,0.37,1.21,0.53H264.02z"/>
		<path class="st0" d="M301.19,9.31l3.34-6.74v6.74h7.95v0.53h-7.95v20.84c0,1.07,0.07,1.96,0.22,2.67c0.15,0.71,0.35,1.28,0.61,1.7
			c0.26,0.42,0.59,0.71,0.99,0.87c0.4,0.16,0.86,0.24,1.38,0.24c0.94,0,1.73-0.27,2.37-0.8c0.65-0.53,1.24-1.28,1.79-2.25l0.63,0.44
			c-0.65,1.03-1.35,1.85-2.11,2.45c-0.76,0.6-1.87,0.9-3.32,0.9c-2.26,0-3.85-0.65-4.77-1.96c-0.92-1.31-1.38-3.16-1.38-5.55V9.84
			h-4.75V9.31H301.19z"/>
		<path class="st0" d="M334.34,32.43V7.27c0-0.71-0.04-1.3-0.12-1.77c-0.08-0.47-0.22-0.86-0.41-1.19c-0.19-0.32-0.46-0.59-0.8-0.8
			c-0.34-0.21-0.77-0.38-1.28-0.51h11.78c1.55,0,3.06,0.15,4.53,0.44c1.47,0.29,2.78,0.77,3.93,1.43c1.15,0.66,2.07,1.53,2.76,2.59
			c0.69,1.07,1.04,2.38,1.04,3.93c0,1.36-0.27,2.56-0.8,3.61c-0.53,1.05-1.25,1.96-2.16,2.71c-0.9,0.76-1.94,1.37-3.1,1.82
			c-1.16,0.45-2.38,0.78-3.64,0.97l7.9,9.5c0.48,0.55,1.04,1.19,1.67,1.91c0.63,0.73,1.25,1.43,1.87,2.11
			c0.61,0.68,1.16,1.27,1.65,1.77c0.48,0.5,0.81,0.8,0.97,0.9h-6.5c0-0.45-0.07-0.9-0.22-1.33c-0.15-0.44-0.36-0.88-0.65-1.33
			c-0.29-0.45-0.65-0.95-1.07-1.5c-0.42-0.55-0.9-1.16-1.45-1.84l-8.05-9.98h-4.17v11.73c0,1.39,0.18,2.37,0.56,2.93
			c0.37,0.57,1.06,1.01,2.06,1.33h-8.92c1.03-0.29,1.73-0.73,2.08-1.31C334.17,34.8,334.34,33.82,334.34,32.43z M338.03,19.92h4.9
			c2.84,0,5.06-0.72,6.66-2.16c1.6-1.44,2.4-3.5,2.4-6.18c0-1.49-0.26-2.73-0.78-3.73c-0.52-1-1.21-1.8-2.08-2.4
			c-0.87-0.6-1.88-1.03-3.03-1.28c-1.15-0.26-2.37-0.39-3.66-0.39h-4.41V19.92z"/>
		<path class="st0" d="M377,9.06c1.94,0,3.63,0.27,5.06,0.82c1.44,0.55,2.62,1.33,3.56,2.33c0.94,1,1.64,2.18,2.11,3.54
			c0.47,1.36,0.72,2.84,0.75,4.46h-20.41c-0.07,0.48-0.11,0.98-0.15,1.48c-0.03,0.5-0.05,1.01-0.05,1.53c0,1.84,0.25,3.56,0.75,5.16
			c0.5,1.6,1.19,2.98,2.08,4.14c0.89,1.16,1.95,2.08,3.17,2.74c1.23,0.66,2.57,0.99,4.02,0.99c1.29,0,2.46-0.23,3.51-0.7
			c1.05-0.47,2.01-1.14,2.88-2.01c0.87-0.87,1.66-1.91,2.35-3.13c0.69-1.21,1.3-2.54,1.82-4l-0.44,7.03
			c-1.42,1.2-3.04,2.08-4.85,2.64c-1.81,0.57-3.57,0.85-5.28,0.85c-2.04,0-3.91-0.33-5.62-0.99c-1.71-0.66-3.19-1.59-4.43-2.79
			c-1.24-1.2-2.21-2.65-2.88-4.36c-0.68-1.71-1.02-3.6-1.02-5.67c0-2.04,0.3-3.91,0.9-5.62c0.6-1.71,1.46-3.2,2.59-4.46
			c1.13-1.26,2.5-2.24,4.1-2.93C373.14,9.41,374.96,9.06,377,9.06z M368.17,19.63h16.53c-0.03-1.42-0.23-2.73-0.58-3.93
			c-0.36-1.19-0.86-2.25-1.5-3.15c-0.65-0.9-1.45-1.61-2.4-2.11c-0.95-0.5-2.04-0.75-3.27-0.75c-1.16,0-2.23,0.24-3.2,0.73
			c-0.97,0.48-1.83,1.17-2.59,2.06c-0.76,0.89-1.39,1.94-1.89,3.15C368.76,16.84,368.4,18.18,368.17,19.63z"/>
		<path class="st0" d="M406.27,9.06c1.52,0,2.94,0.23,4.26,0.7c1.32,0.47,2.52,1.17,3.59,2.11V4.02c0-1-0.08-1.73-0.24-2.18
			c-0.16-0.45-0.48-0.87-0.97-1.26l4.8-0.58v31.94c0,1.39,0.11,2.42,0.34,3.08c0.23,0.66,0.56,1.22,1.02,1.67l-4.75,0.15V33.1
			c-1,1.36-2.21,2.33-3.63,2.93c-1.42,0.6-2.86,0.9-4.31,0.9c-2.04,0-3.89-0.34-5.55-1.02c-1.67-0.68-3.08-1.61-4.24-2.79
			c-1.16-1.18-2.07-2.58-2.71-4.19c-0.65-1.62-0.97-3.36-0.97-5.23c0-2.16,0.33-4.14,0.99-5.94c0.66-1.79,1.59-3.34,2.79-4.63
			c1.19-1.29,2.61-2.29,4.24-3.01C402.55,9.42,404.33,9.06,406.27,9.06z M396.63,21.71c0,1.97,0.23,3.83,0.7,5.57
			c0.47,1.74,1.16,3.27,2.08,4.58c0.92,1.31,2.04,2.34,3.37,3.1c1.32,0.76,2.83,1.14,4.51,1.14c1.39,0,2.67-0.35,3.83-1.04
			c1.16-0.69,2.16-1.66,3-2.88V15.75c-0.84-2.04-1.96-3.52-3.37-4.46c-1.41-0.94-3.01-1.41-4.82-1.41c-1.45,0-2.76,0.28-3.9,0.85
			c-1.15,0.57-2.12,1.37-2.91,2.4c-0.79,1.03-1.41,2.28-1.84,3.73C396.84,18.32,396.63,19.94,396.63,21.71z"/>
	</g>
</g>
<g>
	<g>
		<path class="st0" d="M3.13,337.51c0-2.58,0.29-4.93,0.87-7.03c0.58-2.1,1.41-3.89,2.5-5.38c1.08-1.49,2.38-2.64,3.9-3.47
			c1.52-0.82,3.2-1.24,5.04-1.24c1.87,0,3.57,0.41,5.09,1.24c1.52,0.82,2.82,1.98,3.9,3.47c1.08,1.49,1.91,3.28,2.5,5.38
			c0.58,2.1,0.87,4.44,0.87,7.03c0,2.55-0.29,4.89-0.87,7c-0.58,2.12-1.41,3.92-2.5,5.4c-1.08,1.49-2.38,2.64-3.9,3.47
			c-1.52,0.82-3.22,1.24-5.09,1.24c-1.84,0-3.52-0.41-5.04-1.24c-1.52-0.82-2.82-1.98-3.9-3.47c-1.08-1.49-1.91-3.29-2.5-5.4
			C3.42,342.4,3.13,340.06,3.13,337.51z M7.25,337.51c0,5.14,0.7,9.15,2.11,12.04c1.41,2.89,3.43,4.34,6.08,4.34
			c2.68,0,4.73-1.45,6.13-4.34c1.41-2.89,2.11-6.91,2.11-12.04c0-5.14-0.7-9.15-2.11-12.04c-1.41-2.89-3.45-4.34-6.13-4.34
			c-2.65,0-4.68,1.45-6.08,4.34C7.96,328.36,7.25,332.37,7.25,337.51z"/>
		<path class="st0" d="M51.84,320.69v0.05l0.05-0.05h0.39v22.39h4.46l-0.48,2.57h-3.97v3.01c0,1.07,0.04,1.93,0.12,2.59
			c0.08,0.66,0.22,1.2,0.41,1.6c0.19,0.4,0.45,0.72,0.78,0.95c0.32,0.23,0.74,0.42,1.26,0.58h-8.87c0.52-0.16,0.95-0.35,1.28-0.56
			c0.34-0.21,0.61-0.52,0.8-0.92c0.19-0.4,0.33-0.95,0.41-1.62c0.08-0.68,0.12-1.55,0.12-2.62v-3.01h-15.7v-0.39L51.84,320.69z
			 M48.6,343.08v-17.06l-13.14,17.06H48.6z"/>
		<path class="st0" d="M79.96,347.49l12.46-26.8h0.29l14.2,30.34c0.55,1.16,1.03,1.98,1.45,2.45c0.42,0.47,0.84,0.77,1.26,0.9h-7.37
			c0.23-0.1,0.44-0.23,0.63-0.41c0.19-0.18,0.34-0.44,0.44-0.8c0.1-0.36,0.1-0.79,0.02-1.31c-0.08-0.52-0.3-1.16-0.65-1.94
			l-3.97-8.63H83.83l-3.97,8.53c-0.39,0.84-0.65,1.54-0.78,2.08c-0.13,0.55-0.17,0.99-0.12,1.33c0.05,0.34,0.16,0.59,0.34,0.75
			c0.18,0.16,0.36,0.29,0.56,0.39h-4.27c0.23-0.06,0.45-0.19,0.68-0.36c0.23-0.18,0.5-0.51,0.82-0.99c0.32-0.48,0.71-1.16,1.16-2.04
			C78.71,350.11,79.28,348.95,79.96,347.49z M98.37,340.56l-7.13-15.32l-7.13,15.32H98.37z"/>
		<path class="st0" d="M113.3,354.38c0.52-0.16,0.94-0.34,1.26-0.53c0.32-0.19,0.58-0.44,0.78-0.75c0.19-0.31,0.32-0.7,0.39-1.19
			c0.06-0.48,0.1-1.07,0.1-1.74v-28.45c0-1-0.08-1.73-0.24-2.18c-0.16-0.45-0.48-0.87-0.97-1.26l4.8-0.58v32.47
			c0,0.68,0.04,1.25,0.12,1.72c0.08,0.47,0.22,0.86,0.41,1.19c0.19,0.32,0.45,0.58,0.78,0.78c0.32,0.19,0.73,0.37,1.21,0.53H113.3z"
			/>
		<path class="st0" d="M128.23,350.16v-17.89c0-0.68-0.02-1.27-0.07-1.77c-0.05-0.5-0.12-0.95-0.22-1.33
			c-0.1-0.39-0.24-0.74-0.41-1.07c-0.18-0.32-0.4-0.65-0.65-0.97l4.94-0.44v7.66c0.78-2.36,2.03-4.22,3.76-5.57
			c1.73-1.36,3.87-2.04,6.42-2.04c2.81,0,5.04,0.72,6.69,2.16c1.65,1.44,2.6,3.32,2.86,5.65c0.74-2.42,1.98-4.33,3.71-5.72
			c1.73-1.39,3.9-2.08,6.52-2.08c1.52,0,2.88,0.22,4.07,0.65c1.19,0.44,2.2,1.06,3.03,1.87c0.82,0.81,1.45,1.77,1.89,2.88
			c0.44,1.11,0.65,2.33,0.65,3.66v14.35c0,0.68,0.04,1.25,0.12,1.72c0.08,0.47,0.22,0.86,0.41,1.19c0.19,0.32,0.45,0.58,0.78,0.78
			c0.32,0.19,0.73,0.37,1.21,0.53h-8.63c0.52-0.16,0.94-0.34,1.26-0.53c0.32-0.19,0.58-0.44,0.78-0.75c0.19-0.31,0.32-0.7,0.39-1.19
			c0.06-0.48,0.1-1.07,0.1-1.74v-14.83c0-2.42-0.57-4.34-1.72-5.74c-1.15-1.41-2.84-2.11-5.07-2.11c-1.16,0-2.29,0.24-3.37,0.73
			c-1.08,0.48-2.06,1.19-2.93,2.11c-0.87,0.92-1.59,2.04-2.16,3.37c-0.57,1.33-0.9,2.84-0.99,4.56v11.92c0,0.68,0.04,1.25,0.12,1.72
			c0.08,0.47,0.22,0.86,0.41,1.19c0.19,0.32,0.45,0.58,0.78,0.78c0.32,0.19,0.73,0.37,1.21,0.53h-8.63
			c0.52-0.16,0.94-0.34,1.26-0.53c0.32-0.19,0.58-0.44,0.78-0.75c0.19-0.31,0.32-0.7,0.39-1.19c0.06-0.48,0.1-1.07,0.1-1.74v-14.83
			c0-2.42-0.57-4.34-1.72-5.74c-1.15-1.41-2.82-2.11-5.02-2.11c-1.16,0-2.29,0.24-3.37,0.73c-1.08,0.48-2.06,1.19-2.93,2.11
			c-0.87,0.92-1.59,2.04-2.16,3.37c-0.56,1.33-0.9,2.84-0.99,4.56v11.92c0,0.68,0.04,1.25,0.12,1.72c0.08,0.47,0.22,0.86,0.41,1.19
			c0.19,0.32,0.45,0.58,0.78,0.78s0.73,0.37,1.21,0.53h-8.63c0.52-0.16,0.94-0.34,1.26-0.53c0.32-0.19,0.58-0.44,0.78-0.75
			c0.19-0.31,0.32-0.7,0.39-1.19C128.2,351.42,128.23,350.84,128.23,350.16z"/>
		<path class="st0" d="M191.58,326.75c2.07,0,3.95,0.34,5.65,1.02c1.7,0.68,3.16,1.64,4.39,2.88c1.23,1.24,2.18,2.71,2.86,4.41
			s1.02,3.56,1.02,5.6v0.05c0,2.04-0.34,3.9-1.02,5.6c-0.68,1.7-1.63,3.17-2.86,4.41c-1.23,1.24-2.69,2.21-4.39,2.88
			c-1.7,0.68-3.58,1.02-5.65,1.02c-2.07,0-3.95-0.34-5.65-1.02c-1.7-0.68-3.16-1.64-4.39-2.88c-1.23-1.24-2.18-2.71-2.86-4.41
			c-0.68-1.7-1.02-3.56-1.02-5.6v-0.05c0-2.04,0.34-3.9,1.02-5.6c0.68-1.7,1.63-3.17,2.86-4.41c1.23-1.24,2.69-2.21,4.39-2.88
			C187.63,327.09,189.51,326.75,191.58,326.75z M181.59,340.66c0,1.94,0.24,3.72,0.73,5.33c0.48,1.62,1.16,3.01,2.04,4.19
			c0.87,1.18,1.92,2.09,3.15,2.74c1.23,0.65,2.59,0.97,4.07,0.97c1.49,0,2.84-0.32,4.07-0.97c1.23-0.65,2.28-1.56,3.15-2.74
			c0.87-1.18,1.55-2.58,2.04-4.19c0.48-1.62,0.73-3.39,0.73-5.33s-0.24-3.72-0.73-5.33c-0.48-1.62-1.16-3-2.04-4.17
			c-0.87-1.16-1.92-2.07-3.15-2.71c-1.23-0.65-2.58-0.97-4.07-0.97c-1.49,0-2.84,0.32-4.07,0.97c-1.23,0.65-2.28,1.55-3.15,2.71
			c-0.87,1.16-1.55,2.55-2.04,4.17C181.84,336.94,181.59,338.72,181.59,340.66z"/>
		<path class="st0" d="M209.51,354.38c0.52-0.16,0.94-0.34,1.26-0.53c0.32-0.19,0.58-0.44,0.78-0.75c0.19-0.31,0.32-0.7,0.39-1.19
			c0.06-0.48,0.1-1.07,0.1-1.74v-17.89c0-0.68-0.02-1.27-0.07-1.77c-0.05-0.5-0.12-0.95-0.22-1.33c-0.1-0.39-0.24-0.74-0.41-1.07
			c-0.18-0.32-0.4-0.65-0.65-0.97l4.94-0.44v7.71c0.81-2.36,2.1-4.22,3.88-5.6c1.78-1.37,4.04-2.06,6.79-2.06
			c1.55,0,2.92,0.22,4.12,0.65s2.21,1.06,3.03,1.87c0.82,0.81,1.45,1.77,1.89,2.88c0.44,1.11,0.66,2.33,0.66,3.66v14.35
			c0,0.68,0.04,1.25,0.12,1.72c0.08,0.47,0.22,0.86,0.41,1.19c0.19,0.32,0.45,0.58,0.78,0.78c0.32,0.19,0.73,0.37,1.21,0.53h-8.63
			c0.52-0.16,0.94-0.34,1.26-0.53c0.32-0.19,0.58-0.44,0.77-0.75c0.19-0.31,0.32-0.7,0.39-1.19s0.1-1.07,0.1-1.74v-14.83
			c0-2.42-0.58-4.32-1.75-5.69c-1.16-1.37-2.86-2.06-5.09-2.06c-1.26,0-2.47,0.23-3.64,0.7c-1.16,0.47-2.2,1.16-3.1,2.06
			c-0.9,0.91-1.64,2.02-2.21,3.34c-0.57,1.33-0.9,2.84-0.99,4.56v11.92c0,0.68,0.04,1.25,0.12,1.72c0.08,0.47,0.22,0.86,0.41,1.19
			c0.19,0.32,0.45,0.58,0.78,0.78c0.32,0.19,0.73,0.37,1.21,0.53H209.51z"/>
		<path class="st0" d="M255.36,326.75c1.52,0,2.94,0.23,4.27,0.7c1.32,0.47,2.52,1.17,3.59,2.11v-7.85c0-1-0.08-1.73-0.24-2.18
			c-0.16-0.45-0.48-0.87-0.97-1.26l4.8-0.58v31.94c0,1.39,0.11,2.42,0.34,3.08c0.23,0.66,0.56,1.22,1.02,1.67l-4.75,0.15v-3.73
			c-1,1.36-2.21,2.33-3.64,2.93c-1.42,0.6-2.86,0.9-4.31,0.9c-2.04,0-3.89-0.34-5.55-1.02c-1.66-0.68-3.08-1.61-4.24-2.79
			c-1.16-1.18-2.07-2.58-2.71-4.19c-0.65-1.62-0.97-3.36-0.97-5.23c0-2.16,0.33-4.14,0.99-5.94c0.66-1.79,1.59-3.34,2.79-4.63
			c1.2-1.29,2.61-2.29,4.24-3.01C251.64,327.11,253.43,326.75,255.36,326.75z M245.72,339.4c0,1.97,0.23,3.83,0.7,5.57
			c0.47,1.74,1.16,3.27,2.08,4.58s2.04,2.34,3.37,3.1c1.32,0.76,2.83,1.14,4.51,1.14c1.39,0,2.67-0.35,3.83-1.04
			c1.16-0.69,2.16-1.66,3-2.88v-16.43c-0.84-2.04-1.96-3.52-3.37-4.46c-1.41-0.94-3.01-1.41-4.82-1.41c-1.45,0-2.76,0.28-3.9,0.85
			c-1.15,0.57-2.12,1.37-2.91,2.4c-0.79,1.03-1.41,2.28-1.84,3.73C245.94,336.01,245.72,337.62,245.72,339.4z"/>
		<path class="st0" d="M288.18,354.38c1.03-0.29,1.73-0.73,2.08-1.31c0.36-0.58,0.53-1.57,0.53-2.96v-25.16
			c0-0.71-0.04-1.3-0.12-1.77c-0.08-0.47-0.22-0.86-0.41-1.19c-0.19-0.32-0.46-0.59-0.8-0.8c-0.34-0.21-0.77-0.38-1.28-0.51h11.05
			c3.81,0,6.83,0.69,9.06,2.06c2.23,1.37,3.34,3.35,3.34,5.94c0,2.13-0.81,3.93-2.42,5.38c-1.62,1.45-3.86,2.44-6.74,2.96
			c3.23,0.39,5.76,1.28,7.59,2.69c1.83,1.41,2.74,3.22,2.74,5.45c0,1.45-0.29,2.75-0.87,3.88c-0.58,1.13-1.4,2.09-2.47,2.88
			c-1.07,0.79-2.37,1.4-3.9,1.82c-1.54,0.42-3.26,0.63-5.16,0.63H288.18z M294.48,336.69h5.19c2.49,0,4.47-0.71,5.94-2.13
			c1.47-1.42,2.2-3.28,2.2-5.57c0-2.42-0.8-4.28-2.4-5.57c-1.6-1.29-3.85-1.94-6.76-1.94h-4.17V336.69z M294.48,353.6h5.19
			c2.91,0,5.17-0.73,6.79-2.18c1.62-1.45,2.42-3.47,2.42-6.06c0-2.52-0.82-4.47-2.45-5.84c-1.63-1.37-3.82-2.06-6.57-2.06h-5.38
			V353.6z"/>
		<path class="st0" d="M317.36,354.38c0.52-0.16,0.94-0.34,1.26-0.53c0.32-0.19,0.58-0.44,0.78-0.75c0.19-0.31,0.32-0.7,0.39-1.19
			s0.1-1.07,0.1-1.74v-17.89c0-0.68-0.02-1.27-0.07-1.77c-0.05-0.5-0.12-0.95-0.22-1.33c-0.1-0.39-0.23-0.74-0.41-1.07
			c-0.18-0.32-0.4-0.65-0.65-0.97l4.9-0.44v6.49c0.39-0.9,0.82-1.74,1.31-2.52c0.48-0.78,1.05-1.45,1.7-2.04
			c0.65-0.58,1.4-1.03,2.25-1.36c0.86-0.32,1.83-0.48,2.93-0.48c1.03,0,1.96,0.11,2.76,0.34l-0.05,4.65
			c-0.29-0.35-0.64-0.73-1.04-1.11c-0.4-0.39-0.83-0.74-1.28-1.07c-0.45-0.32-0.92-0.59-1.41-0.8c-0.48-0.21-0.99-0.31-1.5-0.31
			c-0.65,0-1.24,0.16-1.79,0.48c-0.55,0.32-1.06,0.75-1.53,1.28c-0.47,0.53-0.9,1.16-1.28,1.89c-0.39,0.73-0.73,1.49-1.02,2.3v15.7
			c0,0.68,0.04,1.25,0.12,1.72c0.08,0.47,0.22,0.86,0.41,1.19c0.19,0.32,0.45,0.58,0.77,0.78s0.73,0.37,1.21,0.53H317.36z"/>
		<path class="st0" d="M351.72,326.75c2.07,0,3.95,0.34,5.65,1.02c1.7,0.68,3.16,1.64,4.39,2.88c1.23,1.24,2.18,2.71,2.86,4.41
			c0.68,1.7,1.02,3.56,1.02,5.6v0.05c0,2.04-0.34,3.9-1.02,5.6c-0.68,1.7-1.63,3.17-2.86,4.41c-1.23,1.24-2.69,2.21-4.39,2.88
			c-1.7,0.68-3.58,1.02-5.65,1.02c-2.07,0-3.95-0.34-5.65-1.02c-1.7-0.68-3.16-1.64-4.39-2.88c-1.23-1.24-2.18-2.71-2.86-4.41
			c-0.68-1.7-1.02-3.56-1.02-5.6v-0.05c0-2.04,0.34-3.9,1.02-5.6c0.68-1.7,1.63-3.17,2.86-4.41c1.23-1.24,2.69-2.21,4.39-2.88
			C347.77,327.09,349.65,326.75,351.72,326.75z M341.73,340.66c0,1.94,0.24,3.72,0.73,5.33c0.48,1.62,1.16,3.01,2.04,4.19
			c0.87,1.18,1.92,2.09,3.15,2.74c1.23,0.65,2.58,0.97,4.07,0.97s2.84-0.32,4.07-0.97c1.23-0.65,2.28-1.56,3.15-2.74
			c0.87-1.18,1.55-2.58,2.04-4.19c0.48-1.62,0.73-3.39,0.73-5.33s-0.24-3.72-0.73-5.33c-0.49-1.62-1.16-3-2.04-4.17
			c-0.87-1.16-1.92-2.07-3.15-2.71c-1.23-0.65-2.58-0.97-4.07-0.97s-2.84,0.32-4.07,0.97c-1.23,0.65-2.28,1.55-3.15,2.71
			c-0.87,1.16-1.55,2.55-2.04,4.17C341.98,336.94,341.73,338.72,341.73,340.66z"/>
		<path class="st0" d="M374.94,326.99c-0.29,0.23-0.53,0.55-0.7,0.97c-0.18,0.42-0.09,1.1,0.27,2.04l6.79,18.9l6.88-21.96h0.39
			l8.82,22.25l5.28-16.24c0.42-1.32,0.66-2.36,0.73-3.1c0.06-0.74,0.02-1.32-0.12-1.72c-0.15-0.4-0.33-0.67-0.56-0.8
			c-0.23-0.13-0.42-0.24-0.58-0.34h4.75c-0.48,0.26-0.97,0.65-1.45,1.19c-0.48,0.53-0.95,1.51-1.41,2.93l-7.56,23.27h-0.58
			l-8.68-21.91l-6.88,21.91h-0.58l-8.38-23.12c-0.55-1.45-1.02-2.49-1.41-3.1c-0.39-0.61-0.74-1-1.07-1.16H374.94z"/>
		<path class="st0" d="M409.88,354.38c0.52-0.16,0.94-0.34,1.26-0.53s0.58-0.44,0.78-0.75c0.19-0.31,0.32-0.7,0.39-1.19
			s0.1-1.07,0.1-1.74v-17.89c0-0.68-0.02-1.27-0.07-1.77c-0.05-0.5-0.12-0.95-0.22-1.33c-0.1-0.39-0.23-0.74-0.41-1.07
			c-0.18-0.32-0.4-0.65-0.65-0.97l4.94-0.44v7.71c0.81-2.36,2.1-4.22,3.88-5.6c1.78-1.37,4.04-2.06,6.79-2.06
			c1.55,0,2.92,0.22,4.12,0.65c1.19,0.44,2.21,1.06,3.03,1.87c0.82,0.81,1.45,1.77,1.89,2.88c0.44,1.11,0.65,2.33,0.65,3.66v14.35
			c0,0.68,0.04,1.25,0.12,1.72c0.08,0.47,0.22,0.86,0.41,1.19c0.19,0.32,0.45,0.58,0.77,0.78s0.73,0.37,1.21,0.53h-8.63
			c0.52-0.16,0.94-0.34,1.26-0.53c0.32-0.19,0.58-0.44,0.77-0.75c0.19-0.31,0.32-0.7,0.39-1.19c0.06-0.48,0.1-1.07,0.1-1.74v-14.83
			c0-2.42-0.58-4.32-1.74-5.69c-1.16-1.37-2.86-2.06-5.09-2.06c-1.26,0-2.47,0.23-3.63,0.7c-1.16,0.47-2.2,1.16-3.1,2.06
			c-0.91,0.91-1.64,2.02-2.21,3.34c-0.57,1.33-0.9,2.84-0.99,4.56v11.92c0,0.68,0.04,1.25,0.12,1.72c0.08,0.47,0.22,0.86,0.41,1.19
			c0.19,0.32,0.45,0.58,0.78,0.78c0.32,0.19,0.73,0.37,1.21,0.53H409.88z"/>
	</g>
</g>
</svg>
