<?xml version="1.0" encoding="utf-8"?>
<!-- Generator: Adobe Illustrator 25.4.1, SVG Export Plug-In . SVG Version: 6.00 Build 0)  -->
<svg version="1.1" id="レイヤー_1" xmlns="http://www.w3.org/2000/svg" xmlns:xlink="http://www.w3.org/1999/xlink" x="0px"
	 y="0px" viewBox="0 0 11 250" style="enable-background:new 0 0 11 250;" xml:space="preserve">
<style type="text/css">
	.st0{opacity:0.7;}
	.st1{fill:#F7F3F0;}
</style>
<g class="st0">
	<path class="st1" d="M10.52,3.8c0,1.87-1.36,3.23-3.16,3.23S4.21,5.67,4.21,3.8V1.08H0.48V0h10.05V3.8z M9.52,1.08H5.21V3.8
		c0,1.29,0.86,2.15,2.15,2.15S9.52,5.09,9.52,3.8V1.08z"/>
	<path class="st1" d="M10.52,14.14c0,1.79-1.29,3.09-3.01,3.09c-2.3,0-2.87-2.08-2.87-2.08l-4.16,2.37v-1.22l4.02-2.22v-2.87H0.48
		v-1.08h10.05V14.14z M9.52,11.19H5.5v2.94c0,1.22,0.79,2.01,2.01,2.01c1.22,0,2.01-0.79,2.01-2.01V11.19z"/>
	<path class="st1" d="M0.33,25.11c0-2.87,2.3-5.17,5.17-5.17c2.87,0,5.17,2.3,5.17,5.17c0,2.87-2.29,5.17-5.17,5.17
		C2.63,30.28,0.33,27.98,0.33,25.11z M1.34,25.11c0,2.3,1.79,4.09,4.16,4.09c2.37,0,4.16-1.79,4.16-4.09s-1.79-4.09-4.16-4.09
		C3.13,21.02,1.34,22.82,1.34,25.11z"/>
	<path class="st1" d="M10.52,36.6c0,2.94-2.3,5.24-5.02,5.24c-2.73,0-5.02-2.3-5.02-5.24v-3.16h10.05V36.6z M9.52,34.51H1.48v2.08
		c0,2.37,1.79,4.16,4.02,4.16s4.02-1.79,4.02-4.16V34.51z"/>
	<path class="st1" d="M4.42,51.95h6.1v1.08h-6.1c-2.22,0-4.09-1.87-4.09-4.09c0-2.22,1.87-4.09,4.09-4.09h6.1v1.08h-6.1
		c-1.72,0-3.09,1.36-3.09,3.01C1.34,50.59,2.7,51.95,4.42,51.95z"/>
	<path class="st1" d="M10.67,61.21c0,2.73-2.08,4.09-2.08,4.09l-0.64-0.72c0,0,1.72-1.08,1.72-3.37s-1.79-4.09-4.16-4.09
		c-2.37,0-4.16,1.79-4.16,4.09s1.72,3.44,1.72,3.44l-0.65,0.72c0,0-2.08-1.43-2.08-4.16c0-2.87,2.3-5.17,5.17-5.17
		C8.37,56.04,10.67,58.34,10.67,61.21z"/>
	<path class="st1" d="M1.48,75.27h-1v-7.03h10.05v6.89H9.52v-5.81h-3.3v4.66H5.21v-4.66H1.48V75.27z"/>
	<path class="st1" d="M10.52,81.37c0,2.94-2.3,5.24-5.02,5.24c-2.73,0-5.02-2.3-5.02-5.24v-3.16h10.05V81.37z M9.52,79.29H1.48v2.08
		c0,2.37,1.79,4.16,4.02,4.16s4.02-1.79,4.02-4.16V79.29z"/>
	<path class="st1" d="M3.35,100.46c-1.65,0-2.87-1.22-2.87-3.09v-4.09h10.05v3.87c0,1.65-1.15,2.8-2.58,2.8
		c-1.58,0-2.08-1.15-2.08-1.15S5.21,100.46,3.35,100.46z M1.48,97.37c0,1.22,0.79,2.01,1.87,2.01c1.08,0,2.01-0.79,2.01-2.01v-3.01
		H1.48V97.37z M9.52,94.36H6.3v2.8c0,1.08,0.63,1.72,1.64,1.72c0.93,0,1.58-0.65,1.58-1.72V94.36z"/>
	<path class="st1" d="M5.14,106.2l5.38,3.01v1.22l-6.53-3.73H0.48v-1.08h3.52l6.53-3.73v1.22l-5.38,3.01V106.2z"/>
	<path class="st1" d="M5.14,119.62l5.38,3.01v1.22l-6.53-3.73H0.48v-1.08h3.52l6.53-3.73v1.22l-5.38,3.01V119.62z"/>
	<path class="st1" d="M0.33,130.38c0-2.87,2.3-5.17,5.17-5.17c2.87,0,5.17,2.3,5.17,5.17c0,2.87-2.29,5.17-5.17,5.17
		C2.63,135.55,0.33,133.25,0.33,130.38z M1.34,130.38c0,2.3,1.79,4.09,4.16,4.09c2.37,0,4.16-1.79,4.16-4.09
		c0-2.3-1.79-4.09-4.16-4.09C3.13,126.29,1.34,128.09,1.34,130.38z"/>
	<path class="st1" d="M7.94,138.06c1.46,0,2.73,1.23,2.73,3.23c0,1.92-1.29,2.94-1.29,2.94l-0.72-0.72c0,0,1.01-0.73,1.01-2.22
		c0-1.38-0.82-2.15-1.72-2.15c-2.58,0-1.15,5.45-4.74,5.45c-1.65,0-2.87-1.22-2.87-3.37c0-2.3,1.51-3.37,1.51-3.37l0.73,0.66
		c0,0-1.23,0.85-1.23,2.71c0,1.51,0.79,2.3,1.87,2.3C5.79,143.51,4.35,138.06,7.94,138.06z"/>
	<path class="st1" d="M10.52,147.6v1.08H6.07v5.6h4.45v1.08H0.48v-1.08h4.59v-5.6H0.48v-1.08H10.52z"/>
	<path class="st1" d="M10.52,159.16v1.08H0.48v-1.08H10.52z"/>
	<path class="st1" d="M3.28,165.18l-2.8-1.15v-1.15l10.05,4.16v1l-10.05,4.16v-1.15l2.8-1.15V165.18z M9.02,167.55l-4.74-1.94v3.87
		L9.02,167.55z"/>
	<path class="st1" d="M10.52,181.11v1.36l-4.16-3.8l-5.88,4.16v-1.29l5.09-3.59l-2.15-2.01H0.48v-1.08h10.05v1.08H4.86L10.52,181.11
		z"/>
	<path class="st1" d="M10.52,185.28v1.08H0.48v-1.08H10.52z"/>
	<path class="st1" d="M5.72,196.33l-2.8,2.3c0,0,0.93,0.65,2.44,0.65v0.93c-1.94,0-3.23-0.93-3.23-0.93s-0.86,0.53-0.86,1.15
		c0,0.19,0.07,0.43,0.07,0.43H0.41c0,0-0.07-0.26-0.07-0.5c0-1,1.15-1.65,1.15-1.65s-1.15-0.93-1.15-2.66
		c0-1.72,1.15-2.87,2.44-2.87c1.79,0,2.94,1.94,2.94,1.94s1.51-1.51,2.73-1.51c1.22,0,2.22,1,2.22,2.3c0,1.29-1,2.3-2.15,2.3
		C7.01,198.19,5.72,196.33,5.72,196.33z M5.14,195.68c0,0-1.15-1.58-2.37-1.58c-0.92,0-1.51,0.72-1.51,1.94
		c0,1.29,0.86,2.01,0.86,2.01L5.14,195.68z M6.36,195.82c0,0,1.08,1.44,2.08,1.44c0.72,0,1.29-0.57,1.29-1.36
		c0-0.79-0.57-1.36-1.29-1.36C7.58,194.53,6.36,195.82,6.36,195.82z"/>
	<path class="st1" d="M3.35,212.04l5.31-4.02H0.48v-1.08h10.05v0.93l-5.45,4.16l5.45,4.16v0.93H0.48v-1.08h8.18L3.35,212.04z"/>
	<path class="st1" d="M10.52,220.94v1.08H0.48v-1.08H10.52z"/>
	<path class="st1" d="M10.67,230.34c0,2.73-2.08,4.09-2.08,4.09l-0.64-0.72c0,0,1.72-1.08,1.72-3.37c0-2.3-1.79-4.09-4.16-4.09
		c-2.37,0-4.16,1.79-4.16,4.09c0,2.3,1.72,3.44,1.72,3.44l-0.65,0.72c0,0-2.08-1.44-2.08-4.16c0-2.87,2.3-5.17,5.17-5.17
		C8.37,225.17,10.67,227.47,10.67,230.34z"/>
	<path class="st1" d="M10.52,237.37v1.08H6.07v5.6h4.45v1.08H0.48v-1.08h4.59v-5.6H0.48v-1.08H10.52z"/>
	<path class="st1" d="M10.52,248.92V250H0.48v-1.08H10.52z"/>
</g>
</svg>
