<?xml version="1.0" encoding="utf-8"?>
<!-- Generator: Adobe Illustrator 25.4.1, SVG Export Plug-In . SVG Version: 6.00 Build 0)  -->
<svg version="1.1" id="レイヤー_1" xmlns="http://www.w3.org/2000/svg" xmlns:xlink="http://www.w3.org/1999/xlink" x="0px"
	 y="0px" viewBox="0 0 442 37" style="enable-background:new 0 0 442 37;" xml:space="preserve">
<style type="text/css">
	.st0{fill:#FFFFFF;}
</style>
<g>
	<g>
		<path class="st0" d="M74.64,16.32c0-2.09,0.24-3.99,0.71-5.69c0.47-1.7,1.14-3.15,2.02-4.36c0.88-1.2,1.93-2.14,3.16-2.81
			c1.23-0.67,2.59-1,4.08-1c1.52,0,2.89,0.33,4.12,1c1.23,0.67,2.28,1.6,3.16,2.81c0.88,1.2,1.55,2.66,2.02,4.36
			c0.47,1.7,0.71,3.6,0.71,5.69c0,2.07-0.24,3.96-0.71,5.67c-0.47,1.71-1.15,3.17-2.02,4.38c-0.88,1.2-1.93,2.14-3.16,2.81
			c-1.23,0.67-2.6,1-4.12,1c-1.49,0-2.85-0.33-4.08-1c-1.23-0.67-2.28-1.6-3.16-2.81c-0.88-1.2-1.55-2.66-2.02-4.38
			C74.88,20.28,74.64,18.39,74.64,16.32z M77.98,16.32c0,4.16,0.57,7.41,1.71,9.76c1.14,2.34,2.78,3.51,4.93,3.51
			c2.17,0,3.83-1.17,4.97-3.51c1.14-2.34,1.71-5.59,1.71-9.76s-0.57-7.41-1.71-9.76c-1.14-2.34-2.79-3.51-4.97-3.51
			c-2.15,0-3.79,1.17-4.93,3.51C78.55,8.91,77.98,12.16,77.98,16.32z"/>
		<path class="st0" d="M107.74,29.59c0.89,0,1.72-0.17,2.49-0.51c0.77-0.34,1.44-0.84,2-1.51c0.56-0.67,1-1.49,1.31-2.47
			s0.47-2.13,0.47-3.44c0-2.33-0.51-4.1-1.53-5.3c-1.02-1.2-2.47-1.81-4.36-1.81c-0.6,0-1.26,0.06-1.96,0.18
			c-0.71,0.12-1.44,0.32-2.2,0.61l-0.12-0.35l9.19-9.82h-7.38c-0.97,0-1.77,0.1-2.4,0.31c-0.63,0.21-1.14,0.48-1.53,0.82
			c-0.39,0.34-0.69,0.7-0.9,1.08c-0.21,0.38-0.35,0.75-0.43,1.12l0.08-5.81h15.31v0.39l-10.72,11.39c1.26-0.34,2.49-0.51,3.69-0.51
			c1.33,0,2.53,0.2,3.59,0.59s1.96,0.94,2.71,1.63c0.75,0.69,1.31,1.51,1.71,2.43c0.39,0.93,0.59,1.93,0.59,3
			c0,1.05-0.21,2.08-0.63,3.1c-0.42,1.02-1.04,1.94-1.86,2.75c-0.82,0.81-1.83,1.47-3,1.96c-1.18,0.5-2.54,0.75-4.08,0.75
			c-0.76,0-1.47-0.04-2.12-0.12c-0.65-0.08-1.28-0.2-1.88-0.37c-0.6-0.17-1.21-0.41-1.83-0.71c-0.62-0.3-1.26-0.67-1.94-1.12v-6.87
			c0.31,1.75,0.77,3.19,1.35,4.3c0.59,1.11,1.24,1.99,1.94,2.63c0.71,0.64,1.45,1.08,2.22,1.32
			C106.29,29.47,107.03,29.59,107.74,29.59z"/>
		<path class="st0" d="M146.88,2.46c0.52,0,1.14,0.04,1.86,0.12c0.72,0.08,1.49,0.22,2.3,0.41c0.81,0.2,1.64,0.45,2.47,0.77
			c0.84,0.31,1.64,0.71,2.4,1.18l0.63,9.07c-0.73-3.72-1.98-6.47-3.75-8.26c-1.77-1.79-3.81-2.69-6.14-2.69
			c-1.31,0-2.54,0.27-3.69,0.82c-1.15,0.55-2.15,1.38-3,2.49c-0.85,1.11-1.52,2.5-2,4.16c-0.48,1.66-0.73,3.59-0.73,5.79
			c0,2.25,0.26,4.21,0.77,5.89c0.51,1.68,1.21,3.06,2.1,4.16c0.89,1.1,1.94,1.92,3.14,2.45c1.2,0.54,2.5,0.8,3.89,0.8
			c0.86,0,1.73-0.11,2.61-0.33c0.88-0.22,1.73-0.6,2.55-1.14c0.82-0.54,1.6-1.24,2.34-2.12c0.73-0.88,1.37-1.98,1.92-3.32v4.32
			c-1.07,0.89-2.43,1.64-4.06,2.26c-1.64,0.62-3.4,0.92-5.28,0.92s-3.64-0.35-5.26-1.06c-1.62-0.71-3.03-1.68-4.22-2.92
			c-1.19-1.24-2.13-2.72-2.81-4.42c-0.68-1.7-1.02-3.55-1.02-5.54c0-1.96,0.35-3.79,1.04-5.48c0.69-1.69,1.64-3.15,2.83-4.38
			c1.19-1.23,2.57-2.2,4.14-2.91C143.46,2.82,145.12,2.46,146.88,2.46z"/>
		<path class="st0" d="M160.66,29.98c0.42-0.13,0.76-0.27,1.02-0.43s0.47-0.36,0.63-0.61c0.16-0.25,0.26-0.57,0.31-0.96
			c0.05-0.39,0.08-0.86,0.08-1.41V3.52c0-0.81-0.07-1.4-0.2-1.77c-0.13-0.37-0.39-0.71-0.79-1.02l3.89-0.47v13.54
			c0.65-1.91,1.7-3.42,3.14-4.53c1.44-1.11,3.27-1.67,5.5-1.67c1.26,0,2.37,0.18,3.34,0.53c0.97,0.35,1.79,0.86,2.45,1.51
			c0.67,0.65,1.18,1.43,1.53,2.34c0.35,0.9,0.53,1.89,0.53,2.96v11.62c0,0.55,0.03,1.01,0.1,1.39c0.06,0.38,0.18,0.7,0.33,0.96
			c0.16,0.26,0.37,0.47,0.63,0.63c0.26,0.16,0.59,0.3,0.98,0.43h-6.99c0.42-0.13,0.76-0.27,1.02-0.43s0.47-0.36,0.63-0.61
			c0.16-0.25,0.26-0.57,0.31-0.96c0.05-0.39,0.08-0.86,0.08-1.41V14.55c0-1.96-0.47-3.5-1.41-4.61c-0.94-1.11-2.32-1.67-4.12-1.67
			c-1.02,0-2,0.19-2.94,0.57c-0.94,0.38-1.78,0.94-2.51,1.67c-0.73,0.73-1.33,1.64-1.79,2.71c-0.46,1.07-0.73,2.3-0.8,3.69v9.66
			c0,0.55,0.03,1.01,0.1,1.39c0.06,0.38,0.18,0.7,0.33,0.96c0.16,0.26,0.37,0.47,0.63,0.63c0.26,0.16,0.59,0.3,0.98,0.43H160.66z"/>
		<path class="st0" d="M187.04,29.98c0.42-0.13,0.76-0.27,1.02-0.43c0.26-0.16,0.47-0.36,0.63-0.61c0.16-0.25,0.26-0.57,0.31-0.96
			c0.05-0.39,0.08-0.86,0.08-1.41V12.08c0-0.55-0.02-1.03-0.06-1.43c-0.04-0.41-0.1-0.77-0.18-1.08s-0.19-0.6-0.33-0.86
			c-0.14-0.26-0.32-0.52-0.53-0.79l4-0.35v19c0,0.55,0.03,1.01,0.1,1.39c0.07,0.38,0.18,0.7,0.33,0.96
			c0.16,0.26,0.37,0.47,0.63,0.63c0.26,0.16,0.59,0.3,0.98,0.43H187.04z M190.42,0.77c0.6,0,1.1,0.18,1.49,0.53
			c0.39,0.35,0.59,0.83,0.59,1.43c0,0.6-0.2,1.09-0.59,1.45c-0.39,0.37-0.89,0.55-1.49,0.55c-0.58,0-1.06-0.18-1.45-0.55
			c-0.39-0.37-0.59-0.85-0.59-1.45c0-0.6,0.2-1.08,0.59-1.43C189.36,0.95,189.84,0.77,190.42,0.77z"/>
		<path class="st0" d="M197.05,29.98c0.42-0.13,0.76-0.27,1.02-0.43s0.47-0.36,0.63-0.61c0.16-0.25,0.26-0.57,0.31-0.96
			c0.05-0.39,0.08-0.86,0.08-1.41V3.52c0-0.81-0.07-1.4-0.2-1.77c-0.13-0.37-0.39-0.71-0.79-1.02L202,0.26v26.3
			c0,0.55,0.03,1.01,0.1,1.39c0.06,0.38,0.18,0.7,0.33,0.96c0.16,0.26,0.37,0.47,0.63,0.63c0.26,0.16,0.59,0.3,0.98,0.43H197.05z"/>
		<path class="st0" d="M207.1,29.98c0.42-0.13,0.76-0.27,1.02-0.43c0.26-0.16,0.47-0.36,0.63-0.61c0.16-0.25,0.26-0.57,0.31-0.96
			c0.05-0.39,0.08-0.86,0.08-1.41V12.08c0-0.55-0.02-1.03-0.06-1.43c-0.04-0.41-0.1-0.77-0.18-1.08s-0.19-0.6-0.33-0.86
			c-0.14-0.26-0.32-0.52-0.53-0.79l4-0.35v19c0,0.55,0.03,1.01,0.1,1.39c0.07,0.38,0.18,0.7,0.33,0.96
			c0.16,0.26,0.37,0.47,0.63,0.63c0.26,0.16,0.59,0.3,0.98,0.43H207.1z M210.48,0.77c0.6,0,1.1,0.18,1.49,0.53
			c0.39,0.35,0.59,0.83,0.59,1.43c0,0.6-0.2,1.09-0.59,1.45c-0.39,0.37-0.89,0.55-1.49,0.55c-0.58,0-1.06-0.18-1.45-0.55
			c-0.39-0.37-0.59-0.85-0.59-1.45c0-0.6,0.2-1.08,0.59-1.43C209.42,0.95,209.9,0.77,210.48,0.77z"/>
		<path class="st0" d="M230.03,16.32c0-1.96,0.33-3.79,0.98-5.5c0.65-1.7,1.56-3.17,2.73-4.42c1.16-1.24,2.55-2.22,4.16-2.92
			c1.61-0.71,3.37-1.06,5.28-1.06s3.67,0.35,5.28,1.06c1.61,0.71,3,1.68,4.16,2.92c1.16,1.24,2.07,2.72,2.73,4.42
			c0.65,1.7,0.98,3.53,0.98,5.5c0,1.96-0.33,3.8-0.98,5.5c-0.65,1.7-1.56,3.17-2.73,4.42c-1.17,1.24-2.55,2.22-4.16,2.92
			c-1.61,0.71-3.37,1.06-5.28,1.06s-3.67-0.35-5.28-1.06s-3-1.68-4.16-2.92c-1.17-1.24-2.07-2.72-2.73-4.42
			C230.36,20.12,230.03,18.28,230.03,16.32z M243.18,29.63c1.47,0,2.8-0.27,4-0.82c1.2-0.55,2.24-1.38,3.1-2.49
			c0.86-1.11,1.53-2.5,2-4.16c0.47-1.66,0.71-3.6,0.71-5.83c0-2.22-0.24-4.17-0.71-5.83c-0.47-1.66-1.14-3.05-2-4.16
			c-0.86-1.11-1.9-1.94-3.1-2.49c-1.2-0.55-2.54-0.82-4-0.82s-2.8,0.27-4,0.82c-1.2,0.55-2.24,1.38-3.1,2.49
			c-0.86,1.11-1.53,2.5-2,4.16c-0.47,1.66-0.71,3.61-0.71,5.83c0,2.23,0.24,4.17,0.71,5.83c0.47,1.66,1.14,3.05,2,4.16
			c0.86,1.11,1.9,1.94,3.1,2.49C240.38,29.36,241.71,29.63,243.18,29.63z"/>
		<path class="st0" d="M260.1,29.98c0.42-0.13,0.76-0.27,1.02-0.43c0.26-0.16,0.47-0.36,0.63-0.61c0.16-0.25,0.26-0.57,0.31-0.96
			c0.05-0.39,0.08-0.86,0.08-1.41V12.08c0-0.55-0.02-1.03-0.06-1.43c-0.04-0.41-0.1-0.77-0.18-1.08s-0.19-0.6-0.33-0.86
			c-0.14-0.26-0.32-0.52-0.53-0.79l3.97-0.35v5.26c0.31-0.73,0.67-1.41,1.06-2.04s0.85-1.18,1.37-1.65c0.52-0.47,1.13-0.84,1.83-1.1
			c0.69-0.26,1.48-0.39,2.38-0.39c0.84,0,1.58,0.09,2.24,0.27l-0.04,3.77c-0.24-0.29-0.52-0.59-0.84-0.9
			c-0.33-0.31-0.67-0.6-1.04-0.86c-0.37-0.26-0.75-0.48-1.14-0.65c-0.39-0.17-0.8-0.26-1.22-0.26c-0.52,0-1.01,0.13-1.45,0.39
			c-0.45,0.26-0.86,0.61-1.24,1.04c-0.38,0.43-0.73,0.94-1.04,1.53s-0.59,1.21-0.82,1.86v12.72c0,0.55,0.03,1.01,0.1,1.39
			c0.07,0.38,0.18,0.7,0.33,0.96c0.16,0.26,0.37,0.47,0.63,0.63c0.26,0.16,0.59,0.3,0.98,0.43H260.1z"/>
		<path class="st0" d="M286.25,17.81l4.36-1.06v-2.83c0-1.96-0.39-3.41-1.16-4.34c-0.77-0.93-1.94-1.39-3.51-1.39
			c-0.73,0-1.48,0.12-2.24,0.37c-0.76,0.25-1.47,0.69-2.14,1.33c-0.67,0.64-1.28,1.51-1.85,2.61c-0.56,1.1-1.03,2.49-1.39,4.16
			l-0.24-6.56c0.97-0.76,2.16-1.36,3.57-1.81c1.41-0.44,2.87-0.67,4.36-0.67c2.3,0,4.13,0.55,5.48,1.65
			c1.35,1.1,2.02,2.71,2.02,4.83v12.45c0,0.76,0.08,1.43,0.26,2c0.17,0.58,0.45,1.05,0.84,1.41l-3.85,0.12v-5.18
			c-0.26,0.65-0.6,1.3-1,1.92c-0.41,0.63-0.9,1.19-1.49,1.69c-0.59,0.5-1.29,0.89-2.1,1.18c-0.81,0.29-1.74,0.43-2.79,0.43
			c-0.94,0-1.83-0.1-2.65-0.31c-0.82-0.21-1.53-0.53-2.12-0.96s-1.05-0.97-1.39-1.61c-0.34-0.64-0.51-1.39-0.51-2.26
			c0-1.18,0.32-2.17,0.96-2.98c0.64-0.81,1.45-1.49,2.41-2.04c0.97-0.55,2-0.99,3.1-1.32C284.29,18.33,285.31,18.05,286.25,17.81z
			 M279.89,24.96c0,1.33,0.36,2.43,1.08,3.3c0.72,0.86,1.73,1.3,3.04,1.3c0.73,0,1.48-0.16,2.24-0.47c0.76-0.31,1.45-0.78,2.08-1.39
			c0.63-0.61,1.15-1.38,1.57-2.3c0.42-0.92,0.65-1.98,0.71-3.18v-4.87l-4.28,1.02c-0.55,0.13-1.2,0.33-1.94,0.59
			c-0.75,0.26-1.45,0.64-2.12,1.12c-0.67,0.48-1.23,1.12-1.69,1.9C280.12,22.76,279.89,23.75,279.89,24.96z"/>
		<path class="st0" d="M297.91,29.98c0.42-0.13,0.76-0.27,1.02-0.43c0.26-0.16,0.47-0.36,0.63-0.61c0.16-0.25,0.26-0.57,0.31-0.96
			c0.05-0.39,0.08-0.86,0.08-1.41V12.08c0-0.55-0.02-1.03-0.06-1.43c-0.04-0.41-0.1-0.77-0.18-1.08s-0.19-0.6-0.33-0.86
			c-0.14-0.26-0.32-0.52-0.53-0.79l4-0.35v6.24c0.65-1.91,1.7-3.42,3.14-4.53c1.44-1.11,3.27-1.67,5.5-1.67
			c1.26,0,2.37,0.18,3.34,0.53c0.97,0.35,1.79,0.86,2.45,1.51c0.67,0.65,1.18,1.43,1.53,2.34c0.35,0.9,0.53,1.89,0.53,2.96v11.62
			c0,0.55,0.03,1.01,0.1,1.39c0.07,0.38,0.18,0.7,0.33,0.96c0.16,0.26,0.37,0.47,0.63,0.63c0.26,0.16,0.59,0.3,0.98,0.43h-6.99
			c0.42-0.13,0.76-0.27,1.02-0.43c0.26-0.16,0.47-0.36,0.63-0.61c0.16-0.25,0.26-0.57,0.31-0.96c0.05-0.39,0.08-0.86,0.08-1.41
			V14.55c0-1.96-0.47-3.5-1.41-4.61c-0.94-1.11-2.32-1.67-4.12-1.67c-1.02,0-2,0.19-2.94,0.57c-0.94,0.38-1.78,0.94-2.51,1.67
			c-0.73,0.73-1.33,1.64-1.79,2.71c-0.46,1.07-0.73,2.3-0.81,3.69v9.66c0,0.55,0.03,1.01,0.1,1.39c0.07,0.38,0.18,0.7,0.33,0.96
			c0.16,0.26,0.37,0.47,0.63,0.63c0.26,0.16,0.59,0.3,0.98,0.43H297.91z"/>
		<path class="st0" d="M323.27,31.44c0-1.28,0.63-2.27,1.88-2.96c1.26-0.69,3.27-1.11,6.05-1.24c-1.88-0.16-3.22-0.54-4-1.16
			c-0.79-0.61-1.18-1.38-1.18-2.3c0-0.5,0.11-0.92,0.33-1.28c0.22-0.35,0.52-0.65,0.9-0.88c0.38-0.24,0.82-0.41,1.31-0.51
			c0.5-0.1,1.01-0.16,1.53-0.16h0.55c-1.47-0.52-2.62-1.33-3.46-2.43c-0.84-1.1-1.26-2.41-1.26-3.93c0-1.02,0.2-1.95,0.59-2.79
			c0.39-0.84,0.96-1.56,1.69-2.16c0.73-0.6,1.6-1.07,2.61-1.41c1.01-0.34,2.11-0.51,3.32-0.51c1.02,0,1.97,0.12,2.85,0.35
			s1.66,0.58,2.34,1.02c0.18-1.41,0.66-2.51,1.43-3.28c0.77-0.77,1.62-1.16,2.53-1.16c0.6,0,1.09,0.15,1.47,0.45
			c0.38,0.3,0.57,0.71,0.57,1.24c0,0.47-0.16,0.86-0.49,1.18C344.52,7.84,344.1,8,343.61,8c-0.29,0-0.55-0.05-0.79-0.14
			c-0.24-0.09-0.46-0.2-0.67-0.31c-0.21-0.12-0.41-0.22-0.61-0.31c-0.2-0.09-0.4-0.14-0.61-0.14c-0.34,0-0.62,0.16-0.82,0.49
			c-0.21,0.33-0.37,0.91-0.47,1.75c0.84,0.6,1.49,1.35,1.96,2.26c0.47,0.9,0.71,1.9,0.71,3c0,1.02-0.2,1.96-0.59,2.81
			c-0.39,0.85-0.95,1.58-1.67,2.2c-0.72,0.62-1.58,1.09-2.59,1.43c-1.01,0.34-2.11,0.51-3.32,0.51c-0.58,0-1.14-0.04-1.69-0.12
			c-0.31-0.03-0.59-0.05-0.82-0.06c-0.24-0.01-0.46-0.02-0.67-0.02c-1,0-1.78,0.14-2.36,0.41c-0.58,0.27-0.86,0.66-0.86,1.16
			c0,0.39,0.16,0.71,0.47,0.94c0.31,0.24,0.67,0.42,1.08,0.55c0.41,0.13,0.8,0.22,1.2,0.27l4.63,0.59c1.52,0.18,2.88,0.39,4.08,0.61
			c1.2,0.22,2.23,0.51,3.08,0.86c0.85,0.35,1.5,0.82,1.94,1.39c0.44,0.58,0.67,1.32,0.67,2.24c0,0.97-0.26,1.85-0.77,2.63
			c-0.51,0.79-1.23,1.45-2.16,2c-0.93,0.55-2.05,0.97-3.36,1.28c-1.31,0.3-2.77,0.45-4.4,0.45c-1.36,0-2.7-0.11-4-0.33
			c-1.31-0.22-2.48-0.56-3.51-1c-1.03-0.45-1.86-1-2.49-1.65C323.58,33.1,323.27,32.33,323.27,31.44z M325.74,31.55
			c0,1.47,0.75,2.61,2.26,3.44c1.5,0.82,3.59,1.24,6.26,1.24c1.41,0,2.67-0.12,3.77-0.35c1.1-0.24,2.03-0.56,2.81-0.98
			c0.77-0.42,1.35-0.89,1.75-1.41c0.39-0.52,0.59-1.09,0.59-1.69c0-0.89-0.37-1.6-1.1-2.14c-0.73-0.54-1.63-0.95-2.69-1.24
			c-1.06-0.29-2.16-0.48-3.3-0.57c-1.14-0.09-2.13-0.14-2.96-0.14c-1.44,0-2.64,0.09-3.59,0.26c-0.96,0.17-1.71,0.42-2.28,0.75
			c-0.56,0.33-0.96,0.73-1.18,1.22C325.86,30.41,325.74,30.95,325.74,31.55z M334.38,20.99c0.73,0,1.41-0.14,2.04-0.43
			c0.63-0.29,1.17-0.69,1.63-1.2c0.46-0.51,0.82-1.13,1.08-1.86c0.26-0.73,0.39-1.53,0.39-2.4c0-0.86-0.13-1.71-0.39-2.53
			s-0.63-1.55-1.12-2.18c-0.48-0.63-1.07-1.14-1.77-1.53c-0.69-0.39-1.47-0.59-2.34-0.59c-0.76,0-1.45,0.14-2.08,0.43
			c-0.63,0.29-1.17,0.69-1.63,1.22c-0.46,0.52-0.81,1.15-1.06,1.86c-0.25,0.72-0.37,1.5-0.37,2.34c0,0.84,0.13,1.67,0.39,2.49
			c0.26,0.82,0.63,1.56,1.12,2.2c0.48,0.64,1.07,1.16,1.77,1.57C332.74,20.79,333.52,20.99,334.38,20.99z"/>
		<path class="st0" d="M358.05,7.61c1.57,0,2.94,0.22,4.1,0.67c1.16,0.45,2.13,1.07,2.89,1.88c0.76,0.81,1.33,1.77,1.71,2.87
			c0.38,1.1,0.58,2.3,0.61,3.61h-16.53c-0.05,0.39-0.09,0.79-0.12,1.2c-0.03,0.41-0.04,0.82-0.04,1.24c0,1.49,0.2,2.89,0.61,4.18
			c0.41,1.3,0.97,2.41,1.69,3.36c0.72,0.94,1.58,1.68,2.57,2.22c0.99,0.54,2.08,0.8,3.26,0.8c1.05,0,2-0.19,2.85-0.57
			c0.85-0.38,1.63-0.92,2.34-1.63c0.71-0.71,1.34-1.55,1.9-2.53c0.56-0.98,1.05-2.06,1.47-3.24l-0.35,5.69
			c-1.15,0.97-2.46,1.68-3.93,2.14c-1.47,0.46-2.89,0.69-4.28,0.69c-1.65,0-3.17-0.27-4.55-0.8c-1.39-0.54-2.58-1.29-3.59-2.26
			c-1.01-0.97-1.79-2.15-2.34-3.53c-0.55-1.39-0.82-2.92-0.82-4.59c0-1.65,0.24-3.17,0.73-4.55c0.48-1.39,1.18-2.59,2.1-3.61
			c0.92-1.02,2.02-1.81,3.32-2.38C354.93,7.89,356.41,7.61,358.05,7.61z M350.91,16.16h13.39c-0.03-1.15-0.18-2.21-0.47-3.18
			c-0.29-0.97-0.69-1.82-1.22-2.55c-0.52-0.73-1.17-1.3-1.94-1.71c-0.77-0.41-1.66-0.61-2.65-0.61c-0.94,0-1.81,0.2-2.59,0.59
			s-1.49,0.95-2.1,1.67c-0.62,0.72-1.13,1.57-1.53,2.55C351.39,13.91,351.09,14.99,350.91,16.16z"/>
	</g>
</g>
</svg>
