<?xml version="1.0" encoding="utf-8"?>
<!-- Generator: Adobe Illustrator 25.4.1, SVG Export Plug-In . SVG Version: 6.00 Build 0)  -->
<svg version="1.1" id="レイヤー_1" xmlns="http://www.w3.org/2000/svg" xmlns:xlink="http://www.w3.org/1999/xlink" x="0px"
	 y="0px" viewBox="0 0 421 31" style="enable-background:new 0 0 421 31;" xml:space="preserve">
<style type="text/css">
	.st0{fill:#769DAC;stroke:#769DAC;stroke-width:0.5;stroke-miterlimit:10;}
</style>
<g>
	<path class="st0" d="M13.35,2.51c0.53,0,1.15,0.04,1.88,0.12c0.72,0.08,1.49,0.22,2.31,0.42c0.82,0.2,1.65,0.46,2.49,0.78
		c0.84,0.32,1.65,0.72,2.41,1.2l0.63,9.22c-0.74-3.78-1.99-6.58-3.77-8.4c-1.78-1.82-3.84-2.73-6.18-2.73
		c-1.32,0-2.55,0.28-3.71,0.84c-1.16,0.56-2.17,1.4-3.02,2.53c-0.86,1.13-1.53,2.54-2.01,4.23c-0.49,1.69-0.73,3.65-0.73,5.88
		c0,2.29,0.26,4.28,0.77,5.98c0.51,1.7,1.22,3.11,2.11,4.23c0.89,1.12,1.95,1.95,3.16,2.49c1.21,0.55,2.51,0.82,3.91,0.82
		c0.87,0,1.74-0.11,2.63-0.34c0.88-0.23,1.74-0.61,2.57-1.16c0.83-0.54,1.61-1.26,2.35-2.15s1.38-2.01,1.94-3.37v4.39
		c-1.08,0.9-2.44,1.67-4.09,2.29c-1.65,0.63-3.42,0.94-5.31,0.94c-1.9,0-3.66-0.36-5.29-1.08c-1.63-0.72-3.05-1.71-4.25-2.97
		c-1.2-1.26-2.14-2.76-2.82-4.49c-0.69-1.73-1.03-3.6-1.03-5.63c0-1.99,0.35-3.85,1.05-5.57c0.7-1.72,1.65-3.2,2.84-4.45
		c1.2-1.25,2.59-2.23,4.17-2.95S11.59,2.51,13.35,2.51z"/>
	<path class="st0" d="M38.75,7.74c1.68,0,3.22,0.28,4.6,0.84c1.38,0.56,2.57,1.35,3.57,2.37c1,1.02,1.78,2.23,2.33,3.63
		c0.55,1.4,0.83,2.93,0.83,4.61v0.04c0,1.68-0.28,3.21-0.83,4.61c-0.55,1.4-1.33,2.61-2.33,3.63s-2.19,1.81-3.57,2.37
		c-1.38,0.56-2.92,0.84-4.6,0.84c-1.69,0-3.22-0.28-4.6-0.84c-1.38-0.56-2.57-1.35-3.57-2.37c-1-1.02-1.78-2.23-2.33-3.63
		c-0.55-1.4-0.83-2.93-0.83-4.61v-0.04c0-1.68,0.28-3.21,0.83-4.61c0.55-1.4,1.33-2.61,2.33-3.63c1-1.02,2.19-1.81,3.57-2.37
		C35.53,8.02,37.06,7.74,38.75,7.74z M30.61,19.19c0,1.6,0.2,3.06,0.59,4.39c0.39,1.33,0.95,2.48,1.66,3.45
		c0.71,0.97,1.57,1.72,2.57,2.25c1,0.53,2.11,0.8,3.32,0.8c1.21,0,2.32-0.27,3.32-0.8c1-0.53,1.86-1.28,2.57-2.25
		c0.71-0.97,1.26-2.12,1.66-3.45c0.39-1.33,0.59-2.79,0.59-4.39c0-1.6-0.2-3.06-0.59-4.39c-0.39-1.33-0.95-2.47-1.66-3.43
		c-0.71-0.96-1.57-1.7-2.57-2.23c-1-0.53-2.11-0.8-3.32-0.8c-1.21,0-2.32,0.27-3.32,0.8c-1,0.53-1.86,1.28-2.57,2.23
		c-0.71,0.96-1.26,2.1-1.66,3.43C30.81,16.13,30.61,17.59,30.61,19.19z"/>
	<path class="st0" d="M53.36,30.48c0.42-0.13,0.76-0.28,1.03-0.44c0.26-0.16,0.47-0.36,0.63-0.62c0.16-0.25,0.26-0.58,0.32-0.98
		c0.05-0.4,0.08-0.88,0.08-1.44V3.59c0-0.82-0.07-1.42-0.2-1.8c-0.13-0.37-0.39-0.72-0.79-1.04l3.91-0.48v26.73
		c0,0.56,0.03,1.03,0.1,1.42c0.07,0.39,0.18,0.71,0.34,0.98c0.16,0.27,0.37,0.48,0.63,0.64c0.26,0.16,0.59,0.31,0.99,0.44H53.36z"/>
	<path class="st0" d="M74.97,7.74c1.68,0,3.22,0.28,4.6,0.84c1.38,0.56,2.57,1.35,3.57,2.37c1,1.02,1.78,2.23,2.33,3.63
		c0.55,1.4,0.83,2.93,0.83,4.61v0.04c0,1.68-0.28,3.21-0.83,4.61c-0.55,1.4-1.33,2.61-2.33,3.63c-1,1.02-2.19,1.81-3.57,2.37
		c-1.38,0.56-2.92,0.84-4.6,0.84c-1.69,0-3.22-0.28-4.6-0.84s-2.57-1.35-3.57-2.37c-1-1.02-1.78-2.23-2.33-3.63
		c-0.55-1.4-0.83-2.93-0.83-4.61v-0.04c0-1.68,0.28-3.21,0.83-4.61c0.55-1.4,1.33-2.61,2.33-3.63c1-1.02,2.19-1.81,3.57-2.37
		C71.75,8.02,73.28,7.74,74.97,7.74z M66.83,19.19c0,1.6,0.2,3.06,0.59,4.39c0.39,1.33,0.95,2.48,1.66,3.45
		c0.71,0.97,1.57,1.72,2.57,2.25c1,0.53,2.11,0.8,3.32,0.8c1.21,0,2.32-0.27,3.32-0.8c1-0.53,1.86-1.28,2.57-2.25
		c0.71-0.97,1.26-2.12,1.66-3.45c0.39-1.33,0.59-2.79,0.59-4.39c0-1.6-0.2-3.06-0.59-4.39c-0.39-1.33-0.95-2.47-1.66-3.43
		c-0.71-0.96-1.57-1.7-2.57-2.23c-1-0.53-2.11-0.8-3.32-0.8c-1.21,0-2.32,0.27-3.32,0.8c-1,0.53-1.86,1.28-2.57,2.23
		c-0.71,0.96-1.26,2.1-1.66,3.43C67.03,16.13,66.83,17.59,66.83,19.19z"/>
	<path class="st0" d="M89.62,30.48c0.42-0.13,0.76-0.28,1.03-0.44c0.26-0.16,0.47-0.36,0.63-0.62c0.16-0.25,0.26-0.58,0.32-0.98
		c0.05-0.4,0.08-0.88,0.08-1.44V12.29c0-0.56-0.02-1.04-0.06-1.46c-0.04-0.41-0.1-0.78-0.18-1.1c-0.08-0.32-0.19-0.61-0.34-0.88
		c-0.14-0.27-0.32-0.53-0.53-0.8l3.99-0.36v5.35c0.32-0.74,0.67-1.44,1.07-2.07c0.39-0.64,0.86-1.2,1.38-1.68
		c0.53-0.48,1.14-0.85,1.84-1.12c0.7-0.27,1.49-0.4,2.39-0.4c0.84,0,1.59,0.09,2.25,0.28l-0.04,3.83c-0.24-0.29-0.52-0.6-0.85-0.92
		c-0.33-0.32-0.68-0.61-1.05-0.88c-0.37-0.27-0.75-0.48-1.14-0.66c-0.4-0.17-0.8-0.26-1.22-0.26c-0.53,0-1.01,0.13-1.46,0.4
		c-0.45,0.27-0.86,0.62-1.24,1.06c-0.38,0.44-0.73,0.96-1.05,1.56c-0.32,0.6-0.59,1.23-0.83,1.89v12.93c0,0.56,0.03,1.03,0.1,1.42
		c0.07,0.39,0.18,0.71,0.34,0.98c0.16,0.27,0.37,0.48,0.63,0.64c0.26,0.16,0.59,0.31,0.99,0.44H89.62z"/>
	<path class="st0" d="M132.28,2.51c0.53,0,1.15,0.04,1.88,0.12c0.72,0.08,1.49,0.22,2.31,0.42c0.82,0.2,1.65,0.46,2.49,0.78
		c0.84,0.32,1.65,0.72,2.41,1.2l0.63,9.22c-0.74-3.78-1.99-6.58-3.77-8.4c-1.78-1.82-3.84-2.73-6.18-2.73
		c-1.32,0-2.55,0.28-3.71,0.84c-1.16,0.56-2.17,1.4-3.02,2.53c-0.86,1.13-1.53,2.54-2.01,4.23c-0.49,1.69-0.73,3.65-0.73,5.88
		c0,2.29,0.26,4.28,0.77,5.98c0.51,1.7,1.22,3.11,2.11,4.23c0.89,1.12,1.95,1.95,3.16,2.49c1.21,0.55,2.51,0.82,3.91,0.82
		c0.87,0,1.74-0.11,2.63-0.34c0.88-0.23,1.74-0.61,2.57-1.16c0.83-0.54,1.61-1.26,2.35-2.15c0.74-0.89,1.38-2.01,1.94-3.37v4.39
		c-1.08,0.9-2.44,1.67-4.09,2.29c-1.65,0.63-3.42,0.94-5.31,0.94c-1.9,0-3.66-0.36-5.29-1.08c-1.63-0.72-3.05-1.71-4.25-2.97
		c-1.2-1.26-2.14-2.76-2.82-4.49c-0.69-1.73-1.03-3.6-1.03-5.63c0-1.99,0.35-3.85,1.05-5.57c0.7-1.72,1.65-3.2,2.84-4.45
		c1.2-1.25,2.59-2.23,4.17-2.95C128.84,2.87,130.51,2.51,132.28,2.51z"/>
	<path class="st0" d="M157.67,7.74c1.68,0,3.22,0.28,4.6,0.84c1.38,0.56,2.57,1.35,3.57,2.37c1,1.02,1.78,2.23,2.33,3.63
		c0.55,1.4,0.83,2.93,0.83,4.61v0.04c0,1.68-0.28,3.21-0.83,4.61c-0.55,1.4-1.33,2.61-2.33,3.63c-1,1.02-2.19,1.81-3.57,2.37
		c-1.38,0.56-2.92,0.84-4.6,0.84c-1.69,0-3.22-0.28-4.6-0.84s-2.57-1.35-3.57-2.37c-1-1.02-1.78-2.23-2.33-3.63
		c-0.55-1.4-0.83-2.93-0.83-4.61v-0.04c0-1.68,0.28-3.21,0.83-4.61c0.55-1.4,1.33-2.61,2.33-3.63c1-1.02,2.19-1.81,3.57-2.37
		C154.45,8.02,155.99,7.74,157.67,7.74z M149.53,19.19c0,1.6,0.2,3.06,0.59,4.39c0.39,1.33,0.95,2.48,1.66,3.45
		c0.71,0.97,1.57,1.72,2.57,2.25c1,0.53,2.11,0.8,3.32,0.8c1.21,0,2.32-0.27,3.32-0.8c1-0.53,1.86-1.28,2.57-2.25
		c0.71-0.97,1.26-2.12,1.66-3.45c0.39-1.33,0.59-2.79,0.59-4.39c0-1.6-0.2-3.06-0.59-4.39c-0.39-1.33-0.95-2.47-1.66-3.43
		c-0.71-0.96-1.57-1.7-2.57-2.23c-1-0.53-2.11-0.8-3.32-0.8c-1.21,0-2.32,0.27-3.32,0.8c-1,0.53-1.86,1.28-2.57,2.23
		c-0.71,0.96-1.26,2.1-1.66,3.43C149.73,16.13,149.53,17.59,149.53,19.19z"/>
	<path class="st0" d="M172.32,30.48c0.42-0.13,0.76-0.28,1.03-0.44c0.26-0.16,0.47-0.36,0.63-0.62c0.16-0.25,0.26-0.58,0.32-0.98
		c0.05-0.4,0.08-0.88,0.08-1.44V12.29c0-0.56-0.02-1.04-0.06-1.46c-0.04-0.41-0.1-0.78-0.18-1.1c-0.08-0.32-0.19-0.61-0.34-0.88
		c-0.14-0.27-0.32-0.53-0.53-0.8l4.03-0.36v6.34c0.66-1.94,1.71-3.48,3.16-4.61s3.29-1.7,5.53-1.7c1.26,0,2.38,0.18,3.36,0.54
		c0.97,0.36,1.8,0.87,2.47,1.54c0.67,0.67,1.18,1.46,1.54,2.37c0.36,0.92,0.53,1.92,0.53,3.01v11.81c0,0.56,0.03,1.03,0.1,1.42
		c0.07,0.39,0.18,0.71,0.34,0.98c0.16,0.27,0.37,0.48,0.63,0.64c0.26,0.16,0.59,0.31,0.99,0.44h-7.03c0.42-0.13,0.76-0.28,1.03-0.44
		c0.26-0.16,0.47-0.36,0.63-0.62c0.16-0.25,0.26-0.58,0.32-0.98c0.05-0.4,0.08-0.88,0.08-1.44V14.8c0-1.99-0.47-3.56-1.42-4.69
		c-0.95-1.13-2.33-1.7-4.15-1.7c-1.03,0-2.01,0.19-2.96,0.58c-0.95,0.39-1.79,0.95-2.53,1.7c-0.74,0.74-1.34,1.66-1.8,2.75
		c-0.46,1.09-0.73,2.34-0.81,3.75v9.81c0,0.56,0.03,1.03,0.1,1.42c0.07,0.39,0.18,0.71,0.34,0.98c0.16,0.27,0.37,0.48,0.63,0.64
		c0.26,0.16,0.59,0.31,0.99,0.44H172.32z"/>
	<path class="st0" d="M202.66,7.94l2.73-5.55v5.55h6.48v0.44h-6.48v17.16c0,0.88,0.06,1.61,0.18,2.19c0.12,0.59,0.28,1.05,0.49,1.4
		c0.21,0.35,0.48,0.59,0.81,0.72c0.33,0.13,0.7,0.2,1.13,0.2c0.76,0,1.41-0.22,1.94-0.66c0.53-0.44,1.01-1.06,1.46-1.86l0.51,0.36
		c-0.53,0.85-1.1,1.52-1.72,2.01c-0.62,0.49-1.52,0.74-2.71,0.74c-1.84,0-3.14-0.54-3.89-1.62c-0.75-1.08-1.13-2.6-1.13-4.57V8.38
		h-3.87V7.94H202.66z"/>
	<path class="st0" d="M224.46,18.11l4.38-1.08v-2.87c0-1.99-0.39-3.46-1.17-4.41c-0.78-0.94-1.96-1.42-3.54-1.42
		c-0.74,0-1.49,0.13-2.25,0.38c-0.76,0.25-1.48,0.7-2.15,1.36c-0.67,0.65-1.29,1.54-1.86,2.65c-0.57,1.12-1.03,2.53-1.4,4.23
		l-0.24-6.66c0.97-0.77,2.17-1.38,3.59-1.84c1.42-0.45,2.88-0.68,4.38-0.68c2.32,0,4.15,0.56,5.51,1.68
		c1.36,1.12,2.03,2.75,2.03,4.91v12.65c0,0.77,0.09,1.45,0.26,2.03c0.17,0.59,0.45,1.06,0.85,1.44L229,30.6v-5.27
		c-0.26,0.67-0.6,1.32-1.01,1.96c-0.41,0.64-0.91,1.21-1.5,1.72c-0.59,0.51-1.3,0.9-2.11,1.2c-0.82,0.29-1.75,0.44-2.8,0.44
		c-0.95,0-1.84-0.11-2.67-0.32c-0.83-0.21-1.54-0.54-2.13-0.98c-0.59-0.44-1.06-0.98-1.4-1.64c-0.34-0.65-0.51-1.42-0.51-2.29
		c0-1.2,0.32-2.21,0.97-3.03c0.64-0.82,1.45-1.52,2.43-2.07c0.97-0.56,2.01-1,3.12-1.34C222.49,18.64,223.51,18.35,224.46,18.11z
		 M218.06,25.37c0,1.36,0.36,2.47,1.09,3.35c0.72,0.88,1.74,1.32,3.06,1.32c0.74,0,1.49-0.16,2.25-0.48
		c0.76-0.32,1.46-0.79,2.09-1.42c0.63-0.62,1.16-1.4,1.58-2.33c0.42-0.93,0.66-2.01,0.71-3.23v-4.95l-4.31,1.04
		c-0.55,0.13-1.2,0.33-1.96,0.6c-0.75,0.27-1.46,0.64-2.13,1.14c-0.67,0.49-1.24,1.14-1.7,1.93
		C218.29,23.14,218.06,24.15,218.06,25.37z"/>
	<path class="st0" d="M247.17,7.74c1.71,0,3.31,0.3,4.8,0.9c1.49,0.6,2.8,1.35,3.93,2.25l-1.3,6.3c-0.16-1.68-0.47-3.09-0.95-4.23
		c-0.47-1.14-1.05-2.06-1.72-2.75c-0.67-0.69-1.42-1.18-2.23-1.48c-0.82-0.29-1.65-0.44-2.49-0.44c-1.13,0-2.17,0.26-3.1,0.78
		c-0.94,0.52-1.74,1.26-2.41,2.21c-0.67,0.96-1.2,2.1-1.58,3.43c-0.38,1.33-0.57,2.81-0.57,4.43c0,1.65,0.2,3.15,0.59,4.51
		c0.39,1.36,0.95,2.51,1.66,3.47c0.71,0.96,1.55,1.7,2.53,2.21c0.97,0.52,2.05,0.78,3.24,0.78c2,0,3.75-0.76,5.25-2.29
		c1.5-1.53,2.62-3.74,3.36-6.64l-0.28,6.66c-0.61,0.56-1.27,1.02-1.99,1.38c-0.72,0.36-1.46,0.64-2.19,0.86
		c-0.74,0.21-1.47,0.37-2.19,0.46c-0.72,0.09-1.39,0.14-1.99,0.14c-1.61,0-3.09-0.27-4.46-0.82c-1.37-0.54-2.55-1.32-3.54-2.33
		c-0.99-1.01-1.76-2.23-2.33-3.65c-0.57-1.42-0.85-3.01-0.85-4.77c0-1.68,0.26-3.21,0.79-4.59c0.53-1.38,1.26-2.58,2.21-3.59
		c0.95-1.01,2.09-1.8,3.42-2.35C244.1,8.02,245.57,7.74,247.17,7.74z"/>
	<path class="st0" d="M263.56,7.94l2.73-5.55v5.55h6.48v0.44h-6.48v17.16c0,0.88,0.06,1.61,0.18,2.19c0.12,0.59,0.28,1.05,0.49,1.4
		c0.21,0.35,0.48,0.59,0.81,0.72c0.33,0.13,0.7,0.2,1.13,0.2c0.76,0,1.41-0.22,1.94-0.66c0.53-0.44,1.01-1.06,1.46-1.86l0.51,0.36
		c-0.53,0.85-1.1,1.52-1.72,2.01c-0.62,0.49-1.52,0.74-2.71,0.74c-1.84,0-3.14-0.54-3.89-1.62c-0.75-1.08-1.13-2.6-1.13-4.57V8.38
		h-3.87V7.94H263.56z"/>
	<path class="st0" d="M295.79,2.75c-0.42,0.13-0.76,0.29-1.03,0.46c-0.26,0.17-0.47,0.39-0.63,0.64c-0.16,0.25-0.28,0.58-0.36,0.98
		c-0.08,0.4-0.12,0.88-0.12,1.44V29.8h6.68c0.97,0,1.8-0.09,2.47-0.28c0.67-0.19,1.25-0.53,1.74-1.02c0.49-0.49,0.91-1.17,1.26-2.03
		c0.36-0.86,0.69-1.99,1.01-3.37l-0.79,7.38h-17.5c0.84-0.24,1.41-0.6,1.7-1.08c0.29-0.48,0.43-1.29,0.43-2.43V6.26
		c0-0.58-0.03-1.07-0.1-1.46c-0.07-0.39-0.18-0.71-0.34-0.98c-0.16-0.27-0.38-0.49-0.65-0.66c-0.28-0.17-0.63-0.31-1.05-0.42H295.79
		z"/>
	<path class="st0" d="M321.07,7.74c1.58,0,2.96,0.23,4.13,0.68c1.17,0.45,2.14,1.09,2.9,1.91c0.76,0.82,1.34,1.8,1.72,2.91
		c0.38,1.12,0.59,2.34,0.61,3.67H313.8c-0.05,0.4-0.09,0.8-0.12,1.22c-0.03,0.41-0.04,0.83-0.04,1.26c0,1.52,0.2,2.93,0.61,4.25
		c0.41,1.32,0.97,2.45,1.7,3.41c0.72,0.96,1.59,1.71,2.59,2.25c1,0.55,2.09,0.82,3.28,0.82c1.05,0,2.01-0.19,2.86-0.58
		c0.86-0.39,1.64-0.94,2.35-1.66c0.71-0.72,1.35-1.58,1.92-2.57c0.57-1,1.06-2.09,1.48-3.29l-0.36,5.79
		c-1.16,0.98-2.48,1.71-3.95,2.17c-1.47,0.47-2.91,0.7-4.31,0.7c-1.66,0-3.19-0.27-4.58-0.82c-1.4-0.54-2.6-1.31-3.61-2.29
		c-1.01-0.98-1.8-2.18-2.35-3.59c-0.55-1.41-0.83-2.97-0.83-4.67c0-1.68,0.24-3.22,0.73-4.63c0.49-1.41,1.19-2.63,2.11-3.67
		c0.92-1.04,2.03-1.84,3.34-2.41C317.93,8.03,319.41,7.74,321.07,7.74z M313.88,16.44h13.47c-0.03-1.17-0.18-2.25-0.47-3.23
		c-0.29-0.98-0.7-1.85-1.22-2.59c-0.53-0.74-1.18-1.32-1.95-1.74c-0.78-0.41-1.67-0.62-2.67-0.62c-0.95,0-1.82,0.2-2.61,0.6
		c-0.79,0.4-1.49,0.96-2.11,1.7c-0.62,0.73-1.13,1.6-1.54,2.59C314.36,14.14,314.07,15.24,313.88,16.44z"/>
	<path class="st0" d="M334.14,30.48c0.42-0.13,0.76-0.28,1.03-0.44c0.26-0.16,0.47-0.36,0.63-0.62c0.16-0.25,0.26-0.58,0.32-0.98
		c0.05-0.4,0.08-0.88,0.08-1.44V12.29c0-0.56-0.02-1.04-0.06-1.46c-0.04-0.41-0.1-0.78-0.18-1.1c-0.08-0.32-0.19-0.61-0.34-0.88
		c-0.14-0.27-0.32-0.53-0.53-0.8l4.03-0.36v6.34c0.66-1.94,1.71-3.48,3.16-4.61s3.29-1.7,5.53-1.7c1.26,0,2.38,0.18,3.36,0.54
		c0.97,0.36,1.8,0.87,2.47,1.54c0.67,0.67,1.18,1.46,1.54,2.37c0.36,0.92,0.53,1.92,0.53,3.01v11.81c0,0.56,0.03,1.03,0.1,1.42
		c0.07,0.39,0.18,0.71,0.34,0.98c0.16,0.27,0.37,0.48,0.63,0.64c0.26,0.16,0.59,0.31,0.99,0.44h-7.03c0.42-0.13,0.76-0.28,1.03-0.44
		c0.26-0.16,0.47-0.36,0.63-0.62c0.16-0.25,0.26-0.58,0.32-0.98c0.05-0.4,0.08-0.88,0.08-1.44V14.8c0-1.99-0.47-3.56-1.42-4.69
		c-0.95-1.13-2.33-1.7-4.15-1.7c-1.03,0-2.01,0.19-2.96,0.58c-0.95,0.39-1.79,0.95-2.53,1.7c-0.74,0.74-1.34,1.66-1.8,2.75
		c-0.46,1.09-0.73,2.34-0.81,3.75v9.81c0,0.56,0.03,1.03,0.1,1.42c0.07,0.39,0.18,0.71,0.34,0.98c0.16,0.27,0.37,0.48,0.63,0.64
		c0.26,0.16,0.59,0.31,0.99,0.44H334.14z"/>
	<path class="st0" d="M360.96,28.37l0.63-7.54c0.16,1.81,0.45,3.31,0.89,4.51c0.43,1.2,0.97,2.15,1.62,2.85
		c0.64,0.71,1.38,1.2,2.21,1.5c0.83,0.29,1.72,0.44,2.67,0.44c1.97,0,3.43-0.48,4.36-1.44c0.93-0.96,1.4-2.13,1.4-3.51
		c0-0.8-0.14-1.47-0.43-2.01c-0.29-0.54-0.64-1-1.05-1.36c-0.41-0.36-0.85-0.64-1.32-0.84c-0.47-0.2-0.91-0.37-1.3-0.5l-4.23-1.44
		c-0.42-0.13-0.9-0.34-1.42-0.62c-0.53-0.28-1.03-0.64-1.5-1.1c-0.47-0.45-0.88-1-1.2-1.66c-0.33-0.65-0.49-1.42-0.49-2.29
		c0-1.76,0.65-3.14,1.94-4.15c1.29-1.01,3-1.52,5.13-1.52c1.45,0,2.77,0.23,3.97,0.68c1.2,0.45,2.23,1.06,3.1,1.84l-0.28,5.39
		c-0.66-2.61-1.52-4.48-2.59-5.63c-1.07-1.14-2.49-1.72-4.29-1.72c-1.42,0-2.61,0.34-3.56,1.02c-0.95,0.68-1.42,1.72-1.42,3.13
		c0,0.64,0.13,1.17,0.39,1.6c0.26,0.43,0.59,0.78,0.97,1.06c0.38,0.28,0.8,0.51,1.24,0.68c0.45,0.17,0.87,0.33,1.26,0.46l3.83,1.28
		c0.5,0.16,1.07,0.39,1.72,0.68c0.65,0.29,1.26,0.69,1.84,1.18c0.58,0.49,1.07,1.1,1.46,1.84c0.4,0.73,0.59,1.63,0.59,2.69
		c0,0.98-0.18,1.89-0.55,2.71c-0.37,0.82-0.91,1.54-1.62,2.15c-0.71,0.61-1.59,1.09-2.63,1.44c-1.04,0.35-2.24,0.52-3.61,0.52
		c-1.5,0-2.94-0.2-4.33-0.6C363,29.68,361.86,29.11,360.96,28.37z"/>
	<path class="st0" d="M391.26,7.74c1.58,0,2.96,0.23,4.13,0.68c1.17,0.45,2.14,1.09,2.9,1.91c0.76,0.82,1.34,1.8,1.72,2.91
		c0.38,1.12,0.59,2.34,0.61,3.67h-16.63c-0.05,0.4-0.09,0.8-0.12,1.22c-0.03,0.41-0.04,0.83-0.04,1.26c0,1.52,0.2,2.93,0.61,4.25
		c0.41,1.32,0.97,2.45,1.7,3.41c0.72,0.96,1.59,1.71,2.59,2.25c1,0.55,2.09,0.82,3.28,0.82c1.05,0,2.01-0.19,2.86-0.58
		c0.86-0.39,1.64-0.94,2.35-1.66c0.71-0.72,1.35-1.58,1.92-2.57c0.57-1,1.06-2.09,1.48-3.29l-0.36,5.79
		c-1.16,0.98-2.48,1.71-3.95,2.17c-1.47,0.47-2.91,0.7-4.31,0.7c-1.66,0-3.19-0.27-4.58-0.82c-1.4-0.54-2.6-1.31-3.61-2.29
		c-1.01-0.98-1.8-2.18-2.35-3.59c-0.55-1.41-0.83-2.97-0.83-4.67c0-1.68,0.24-3.22,0.73-4.63c0.49-1.41,1.19-2.63,2.11-3.67
		c0.92-1.04,2.03-1.84,3.34-2.41C388.12,8.03,389.6,7.74,391.26,7.74z M384.07,16.44h13.47c-0.03-1.17-0.18-2.25-0.47-3.23
		c-0.29-0.98-0.7-1.85-1.22-2.59c-0.53-0.74-1.18-1.32-1.95-1.74c-0.78-0.41-1.67-0.62-2.67-0.62c-0.95,0-1.82,0.2-2.61,0.6
		c-0.79,0.4-1.49,0.96-2.11,1.7c-0.62,0.73-1.13,1.6-1.54,2.59C384.55,14.14,384.25,15.24,384.07,16.44z"/>
	<path class="st0" d="M404.57,28.37l0.63-7.54c0.16,1.81,0.45,3.31,0.89,4.51c0.43,1.2,0.97,2.15,1.62,2.85
		c0.64,0.71,1.38,1.2,2.21,1.5c0.83,0.29,1.72,0.44,2.67,0.44c1.97,0,3.43-0.48,4.36-1.44c0.93-0.96,1.4-2.13,1.4-3.51
		c0-0.8-0.14-1.47-0.43-2.01c-0.29-0.54-0.64-1-1.05-1.36c-0.41-0.36-0.85-0.64-1.32-0.84c-0.47-0.2-0.91-0.37-1.3-0.5l-4.23-1.44
		c-0.42-0.13-0.9-0.34-1.42-0.62c-0.53-0.28-1.03-0.64-1.5-1.1c-0.47-0.45-0.88-1-1.2-1.66c-0.33-0.65-0.49-1.42-0.49-2.29
		c0-1.76,0.65-3.14,1.94-4.15c1.29-1.01,3-1.52,5.13-1.52c1.45,0,2.77,0.23,3.97,0.68c1.2,0.45,2.23,1.06,3.1,1.84l-0.28,5.39
		c-0.66-2.61-1.52-4.48-2.59-5.63c-1.07-1.14-2.49-1.72-4.29-1.72c-1.42,0-2.61,0.34-3.56,1.02c-0.95,0.68-1.42,1.72-1.42,3.13
		c0,0.64,0.13,1.17,0.39,1.6c0.26,0.43,0.59,0.78,0.97,1.06c0.38,0.28,0.8,0.51,1.24,0.68c0.45,0.17,0.87,0.33,1.26,0.46l3.83,1.28
		c0.5,0.16,1.07,0.39,1.72,0.68c0.65,0.29,1.26,0.69,1.84,1.18c0.58,0.49,1.07,1.1,1.46,1.84c0.4,0.73,0.59,1.63,0.59,2.69
		c0,0.98-0.18,1.89-0.55,2.71c-0.37,0.82-0.91,1.54-1.62,2.15c-0.71,0.61-1.59,1.09-2.63,1.44c-1.04,0.35-2.24,0.52-3.61,0.52
		c-1.5,0-2.94-0.2-4.33-0.6C406.6,29.68,405.46,29.11,404.57,28.37z"/>
</g>
</svg>
