<?xml version="1.0" encoding="utf-8"?>
<!-- Generator: Adobe Illustrator 25.4.1, SVG Export Plug-In . SVG Version: 6.00 Build 0)  -->
<svg version="1.1" id="レイヤー_1" xmlns="http://www.w3.org/2000/svg" xmlns:xlink="http://www.w3.org/1999/xlink" x="0px"
	 y="0px" viewBox="0 0 724 328" style="enable-background:new 0 0 724 328;" xml:space="preserve">
<style type="text/css">
	.st0{fill:#FFFFFF;}
</style>
<g>
	<path class="st0" d="M22.7,41.88c-0.71,0.3-1.36,0.73-1.96,1.28c-0.6,0.55-1.03,1.36-1.28,2.42c-0.25,1.06-0.25,2.42,0,4.08
		c0.25,1.66,0.88,3.7,1.89,6.11l32,76.38l30.94-76.07c1.11-2.62,1.83-4.78,2.19-6.49c0.35-1.71,0.48-3.09,0.38-4.15
		c-0.1-1.06-0.38-1.83-0.83-2.34c-0.45-0.5-0.98-0.91-1.58-1.21h13.28c-0.71,0.2-1.43,0.58-2.19,1.13
		c-0.75,0.55-1.66,1.56-2.72,3.02c-1.06,1.46-2.29,3.55-3.7,6.26c-1.41,2.72-3.07,6.39-4.98,11.02l-34.26,83.47h-0.91L8.81,52.3
		c-1.51-3.62-2.97-6.16-4.38-7.62c-1.41-1.46-2.77-2.39-4.08-2.79H22.7z"/>
	<path class="st0" d="M149.63,60.75c6.04,0,11.29,0.86,15.77,2.57c4.48,1.71,8.17,4.13,11.09,7.25c2.92,3.12,5.11,6.79,6.57,11.02
		c1.46,4.23,2.24,8.86,2.34,13.89h-63.55c-0.2,1.51-0.35,3.04-0.45,4.6c-0.1,1.56-0.15,3.15-0.15,4.75c0,5.74,0.78,11.09,2.34,16.07
		c1.56,4.98,3.72,9.28,6.49,12.91c2.77,3.62,6.06,6.47,9.89,8.53c3.82,2.06,8,3.09,12.53,3.09c4.02,0,7.67-0.73,10.94-2.19
		c3.27-1.46,6.26-3.55,8.98-6.26c2.72-2.72,5.16-5.96,7.32-9.74c2.16-3.77,4.05-7.92,5.66-12.45l-1.36,21.89
		c-4.43,3.72-9.46,6.47-15.09,8.23c-5.64,1.76-11.12,2.64-16.45,2.64c-6.34,0-12.18-1.03-17.51-3.09
		c-5.33-2.06-9.94-4.96-13.81-8.68c-3.87-3.72-6.87-8.25-8.98-13.58c-2.11-5.33-3.17-11.22-3.17-17.66c0-6.34,0.93-12.17,2.79-17.51
		c1.86-5.33,4.55-9.96,8.08-13.89c3.52-3.92,7.77-6.97,12.75-9.13C137.63,61.83,143.29,60.75,149.63,60.75z M122.16,93.65h51.47
		c-0.1-4.43-0.71-8.5-1.81-12.23c-1.11-3.72-2.67-6.99-4.68-9.81c-2.01-2.82-4.5-5-7.47-6.57c-2.97-1.56-6.37-2.34-10.19-2.34
		c-3.62,0-6.94,0.75-9.96,2.26c-3.02,1.51-5.71,3.65-8.08,6.41c-2.37,2.77-4.33,6.04-5.89,9.81C124,84.98,122.86,89.13,122.16,93.65
		z"/>
	<path class="st0" d="M198.69,146.79c1.61-0.5,2.92-1.06,3.92-1.66c1-0.6,1.81-1.38,2.42-2.34c0.6-0.96,1-2.19,1.21-3.7
		c0.2-1.51,0.3-3.32,0.3-5.43v-88.6c0-3.12-0.25-5.38-0.75-6.79c-0.5-1.41-1.51-2.72-3.02-3.92l14.94-1.81v101.13
		c0,2.11,0.12,3.9,0.38,5.36c0.25,1.46,0.68,2.69,1.28,3.7c0.6,1.01,1.41,1.81,2.42,2.41c1,0.6,2.26,1.16,3.77,1.66H198.69z"/>
	<path class="st0" d="M253.02,61.5c-0.81,0.71-1.43,1.71-1.89,3.02c-0.45,1.31-0.08,3.42,1.13,6.34l26.87,62.19l22.79-53.28
		c1.71-3.92,2.72-7.04,3.02-9.36c0.3-2.31,0.3-4.08,0-5.28c-0.3-1.21-0.78-2.04-1.43-2.49c-0.66-0.45-1.18-0.83-1.58-1.13h14.64
		c-1.11,0.71-2.57,1.94-4.38,3.7c-1.81,1.76-3.62,4.81-5.43,9.13l-30.94,72.45h-1.66l-31.24-72c-2.01-4.53-3.72-7.75-5.13-9.66
		c-1.41-1.91-2.62-3.12-3.62-3.62H253.02z"/>
	<path class="st0" d="M366.38,60.75c6.04,0,11.29,0.86,15.77,2.57c4.48,1.71,8.17,4.13,11.09,7.25c2.92,3.12,5.11,6.79,6.57,11.02
		c1.46,4.23,2.24,8.86,2.34,13.89H338.6c-0.2,1.51-0.35,3.04-0.45,4.6c-0.1,1.56-0.15,3.15-0.15,4.75c0,5.74,0.78,11.09,2.34,16.07
		c1.56,4.98,3.72,9.28,6.49,12.91c2.77,3.62,6.06,6.47,9.89,8.53c3.82,2.06,8,3.09,12.53,3.09c4.02,0,7.67-0.73,10.94-2.19
		c3.27-1.46,6.26-3.55,8.98-6.26c2.72-2.72,5.16-5.96,7.32-9.74c2.16-3.77,4.05-7.92,5.66-12.45l-1.36,21.89
		c-4.43,3.72-9.46,6.47-15.09,8.23c-5.64,1.76-11.12,2.64-16.45,2.64c-6.34,0-12.18-1.03-17.51-3.09
		c-5.33-2.06-9.94-4.96-13.81-8.68c-3.87-3.72-6.87-8.25-8.98-13.58c-2.11-5.33-3.17-11.22-3.17-17.66c0-6.34,0.93-12.17,2.79-17.51
		c1.86-5.33,4.55-9.96,8.08-13.89c3.52-3.92,7.77-6.97,12.75-9.13C354.38,61.83,360.04,60.75,366.38,60.75z M338.9,93.65h51.47
		c-0.1-4.43-0.71-8.5-1.81-12.23c-1.11-3.72-2.67-6.99-4.68-9.81c-2.01-2.82-4.5-5-7.47-6.57c-2.97-1.56-6.37-2.34-10.19-2.34
		c-3.62,0-6.94,0.75-9.96,2.26c-3.02,1.51-5.71,3.65-8.08,6.41c-2.37,2.77-4.33,6.04-5.89,9.81
		C340.74,84.98,339.61,89.13,338.9,93.65z"/>
	<path class="st0" d="M429.92,61.5l10.41-20.98V61.5h24.75v1.66h-24.75v64.9c0,3.32,0.23,6.09,0.68,8.3
		c0.45,2.21,1.08,3.98,1.89,5.28c0.8,1.31,1.83,2.21,3.09,2.72c1.26,0.5,2.69,0.75,4.3,0.75c2.92,0,5.38-0.83,7.4-2.49
		c2.01-1.66,3.87-4,5.58-7.02l1.96,1.36c-2.01,3.22-4.2,5.76-6.57,7.62c-2.37,1.86-5.81,2.79-10.34,2.79c-7.04,0-12-2.04-14.87-6.11
		c-2.87-4.08-4.3-9.83-4.3-17.28V63.17h-14.79V61.5H429.92z"/>
	<path class="st0" d="M532.56,133.2V54.86c0-2.21-0.1-4.05-0.3-5.51c-0.2-1.46-0.55-2.67-1.06-3.62c-0.5-0.95-1.26-1.74-2.26-2.34
		c-1.01-0.6-2.32-1.11-3.92-1.51h67.77l3.17,27.62c-1.21-5.23-2.92-9.48-5.13-12.75c-2.21-3.27-4.75-5.81-7.62-7.62
		c-2.87-1.81-5.99-3.04-9.36-3.7c-3.37-0.65-6.92-0.98-10.64-0.98h-19.17v47.09h12.53c5.13,0,9.33-0.3,12.6-0.91
		c3.27-0.6,5.89-1.51,7.85-2.72c1.96-1.21,3.4-2.67,4.3-4.38c0.91-1.71,1.61-3.67,2.11-5.89l-2.11,30.64
		c-0.1-2.21-0.48-4.2-1.13-5.96c-0.66-1.76-1.86-3.25-3.62-4.45c-1.76-1.21-4.25-2.14-7.47-2.79c-3.22-0.65-7.5-0.98-12.83-0.98
		h-12.23v39.09c0,4.43,0.65,7.57,1.96,9.43c1.31,1.86,3.57,3.25,6.79,4.15H523.8c3.22-0.91,5.48-2.29,6.79-4.15
		C531.9,140.77,532.56,137.63,532.56,133.2z"/>
	<path class="st0" d="M608.63,146.79c1.61-0.5,2.92-1.06,3.92-1.66c1-0.6,1.81-1.38,2.42-2.34c0.6-0.96,1-2.19,1.21-3.7
		c0.2-1.51,0.3-3.32,0.3-5.43v-55.7c0-2.11-0.08-3.95-0.23-5.51c-0.15-1.56-0.38-2.94-0.68-4.15c-0.3-1.21-0.73-2.31-1.28-3.32
		c-0.55-1-1.23-2.01-2.04-3.02l15.4-1.36v73.05c0,2.11,0.12,3.9,0.38,5.36c0.25,1.46,0.68,2.69,1.28,3.7
		c0.6,1.01,1.41,1.81,2.41,2.41c1,0.6,2.26,1.16,3.77,1.66H608.63z M621.61,34.49c2.31,0,4.23,0.68,5.74,2.04
		c1.51,1.36,2.26,3.2,2.26,5.51c0,2.32-0.75,4.18-2.26,5.58c-1.51,1.41-3.42,2.11-5.74,2.11c-2.21,0-4.08-0.7-5.58-2.11
		c-1.51-1.41-2.26-3.27-2.26-5.58c0-2.31,0.75-4.15,2.26-5.51C617.53,35.17,619.4,34.49,621.61,34.49z"/>
	<path class="st0" d="M643.04,146.79c0.7-0.6,2.21-1.81,4.53-3.62c2.31-1.81,5.08-4.83,8.3-9.06l23.09-29.74l-21.43-30.04
		c-3.02-4.23-5.36-7.29-7.02-9.21c-1.66-1.91-3.04-3.12-4.15-3.62h19.92c-0.71,0.71-1.23,1.76-1.58,3.17
		c-0.35,1.41,0.43,3.47,2.34,6.19l18.87,26.26l16-20.53c2.42-3.12,4-5.58,4.75-7.4c0.75-1.81,1.08-3.25,0.98-4.3
		c-0.1-1.06-0.45-1.81-1.06-2.26s-1.01-0.83-1.21-1.13h14.94c-1.31,0.71-3.2,1.96-5.66,3.77c-2.47,1.81-5.31,4.83-8.53,9.06
		l-19.02,24.6l25.21,35.17c2.31,3.22,4.3,5.94,5.96,8.15c1.66,2.21,3.45,3.72,5.36,4.53h-20.07c0.3-0.3,0.65-0.63,1.06-0.98
		c0.4-0.35,0.65-0.88,0.75-1.58c0.1-0.7-0.03-1.58-0.38-2.64c-0.35-1.06-1.13-2.39-2.34-4l-22.49-31.4l-20.07,25.51
		c-2.42,3.12-3.98,5.61-4.68,7.47c-0.7,1.86-0.98,3.32-0.83,4.38c0.15,1.06,0.55,1.79,1.21,2.19c0.65,0.4,1.08,0.75,1.28,1.06
		H643.04z"/>
	<path class="st0" d="M76.5,194.48c-1.61,0.5-2.92,1.08-3.92,1.74c-1.01,0.66-1.81,1.46-2.41,2.41c-0.6,0.96-1.06,2.19-1.36,3.7
		c-0.3,1.51-0.45,3.32-0.45,5.43v89.05h25.51c3.72,0,6.87-0.35,9.43-1.06c2.57-0.7,4.78-1.99,6.64-3.85
		c1.86-1.86,3.47-4.43,4.83-7.7c1.36-3.27,2.64-7.52,3.85-12.75l-3.02,27.92H48.73c3.22-0.91,5.38-2.26,6.49-4.08
		c1.11-1.81,1.66-4.88,1.66-9.21v-78.34c0-2.21-0.13-4.05-0.38-5.51c-0.25-1.46-0.68-2.69-1.28-3.7c-0.6-1-1.43-1.83-2.49-2.49
		c-1.06-0.65-2.39-1.18-4-1.58H76.5z"/>
	<path class="st0" d="M131.29,299.38c1.61-0.5,2.92-1.06,3.92-1.66c1-0.6,1.81-1.38,2.42-2.34c0.6-0.96,1-2.19,1.21-3.7
		c0.2-1.51,0.3-3.32,0.3-5.43v-55.7c0-2.11-0.08-3.95-0.23-5.51c-0.15-1.56-0.38-2.94-0.68-4.15c-0.3-1.21-0.73-2.31-1.28-3.32
		c-0.55-1-1.23-2.01-2.04-3.02l15.4-1.36v73.05c0,2.11,0.12,3.9,0.38,5.36c0.25,1.46,0.68,2.69,1.28,3.7
		c0.6,1.01,1.41,1.81,2.41,2.41c1,0.6,2.26,1.16,3.77,1.66H131.29z M144.27,187.08c2.31,0,4.23,0.68,5.74,2.04
		c1.51,1.36,2.26,3.2,2.26,5.51c0,2.32-0.75,4.18-2.26,5.58c-1.51,1.41-3.42,2.11-5.74,2.11c-2.21,0-4.08-0.7-5.58-2.11
		c-1.51-1.41-2.26-3.27-2.26-5.58c0-2.31,0.75-4.15,2.26-5.51S142.06,187.08,144.27,187.08z"/>
	<path class="st0" d="M176.88,314.78v-84.22c0-2.11-0.08-3.95-0.23-5.51c-0.15-1.56-0.38-2.94-0.68-4.15
		c-0.3-1.21-0.73-2.31-1.28-3.32c-0.55-1-1.23-2.01-2.04-3.02l15.09-1.36v10.72c1.81-2.21,3.77-4,5.89-5.36
		c2.11-1.36,4.28-2.42,6.49-3.17c2.21-0.75,4.43-1.28,6.64-1.58c2.21-0.3,4.28-0.45,6.19-0.45c6.44,0,12.28,0.98,17.51,2.94
		c5.23,1.96,9.74,4.75,13.51,8.38c3.77,3.62,6.69,7.98,8.75,13.06c2.06,5.08,3.09,10.74,3.09,16.98c0,6.34-1.08,12.28-3.25,17.81
		c-2.17,5.54-5.16,10.34-8.98,14.41c-3.83,4.08-8.4,7.3-13.74,9.66c-5.33,2.37-11.12,3.55-17.36,3.55c-4.73,0-9.16-0.73-13.28-2.19
		c-4.13-1.46-7.85-3.65-11.17-6.57v23.4c0,2.11,0.12,3.9,0.38,5.36c0.25,1.46,0.68,2.69,1.28,3.7c0.6,1,1.41,1.81,2.42,2.41
		c1,0.6,2.26,1.16,3.77,1.66h-26.87c1.61-0.4,2.92-0.93,3.92-1.59c1-0.66,1.81-1.46,2.42-2.41c0.6-0.96,1-2.19,1.21-3.7
		C176.77,318.7,176.88,316.89,176.88,314.78z M213.55,297.57c4.73,0,8.98-0.98,12.75-2.94c3.77-1.96,6.99-4.63,9.66-8
		c2.67-3.37,4.7-7.37,6.11-12c1.41-4.63,2.11-9.61,2.11-14.94c0-6.24-0.71-12.02-2.11-17.36c-1.41-5.33-3.55-9.96-6.41-13.89
		c-2.87-3.92-6.41-6.99-10.64-9.21c-4.23-2.21-9.21-3.32-14.94-3.32c-3.62,0-7.45,0.73-11.47,2.19c-4.03,1.46-7.55,4.25-10.57,8.38
		v54.64c2.72,5.64,6.21,9.79,10.49,12.45C202.81,296.24,207.82,297.57,213.55,297.57z"/>
	<path class="st0" d="M315.43,299.38c3.22-0.91,5.38-2.26,6.49-4.08c1.11-1.81,1.66-4.88,1.66-9.21v-78.34
		c0-2.21-0.13-4.05-0.38-5.51c-0.25-1.46-0.68-2.69-1.28-3.7c-0.6-1-1.43-1.83-2.49-2.49c-1.06-0.65-2.39-1.18-4-1.58h34.41
		c11.87,0,21.28,2.14,28.23,6.41c6.94,4.28,10.41,10.44,10.41,18.49c0,6.64-2.52,12.23-7.55,16.75c-5.03,4.53-12.03,7.6-20.98,9.21
		c10.06,1.21,17.94,4,23.62,8.38c5.68,4.38,8.53,10.04,8.53,16.98c0,4.53-0.91,8.55-2.72,12.08c-1.81,3.52-4.38,6.52-7.7,8.98
		c-3.32,2.47-7.37,4.35-12.15,5.66c-4.78,1.31-10.14,1.96-16.08,1.96H315.43z M335.06,244.29h16.15c7.75,0,13.91-2.21,18.49-6.64
		c4.58-4.43,6.87-10.21,6.87-17.36c0-7.55-2.49-13.33-7.47-17.36c-4.98-4.02-12-6.04-21.06-6.04h-12.98V244.29z M335.06,296.97
		h16.15c9.06,0,16.1-2.26,21.13-6.79c5.03-4.53,7.55-10.82,7.55-18.87c0-7.85-2.54-13.91-7.62-18.19
		c-5.08-4.28-11.9-6.41-20.45-6.41h-16.75V296.97z"/>
	<path class="st0" d="M442.98,252.59l16.75-4.08v-10.87c0-7.55-1.49-13.11-4.45-16.68c-2.97-3.57-7.47-5.36-13.51-5.36
		c-2.82,0-5.69,0.48-8.6,1.43c-2.92,0.96-5.66,2.67-8.23,5.13c-2.57,2.47-4.93,5.81-7.09,10.04c-2.17,4.23-3.95,9.56-5.36,16
		l-0.91-25.21c3.72-2.92,8.3-5.23,13.74-6.94c5.43-1.71,11.02-2.57,16.75-2.57c8.85,0,15.87,2.11,21.06,6.34
		c5.18,4.23,7.77,10.41,7.77,18.57v47.85c0,2.92,0.33,5.49,0.98,7.7c0.65,2.21,1.74,4.03,3.25,5.43l-14.79,0.45v-19.92
		c-1.01,2.52-2.29,4.98-3.85,7.4c-1.56,2.41-3.47,4.58-5.74,6.49c-2.26,1.91-4.96,3.42-8.08,4.53c-3.12,1.11-6.69,1.66-10.72,1.66
		c-3.62,0-7.02-0.4-10.19-1.21s-5.89-2.04-8.15-3.7c-2.26-1.66-4.05-3.72-5.36-6.19c-1.31-2.46-1.96-5.36-1.96-8.68
		c0-4.53,1.23-8.35,3.7-11.47c2.46-3.12,5.56-5.74,9.28-7.85c3.72-2.11,7.7-3.8,11.92-5.06
		C435.43,254.58,439.36,253.5,442.98,252.59z M418.53,280.06c0,5.13,1.38,9.36,4.15,12.68c2.77,3.32,6.66,4.98,11.7,4.98
		c2.82,0,5.68-0.6,8.6-1.81c2.92-1.21,5.58-2.99,8-5.36c2.42-2.36,4.43-5.31,6.04-8.83c1.61-3.52,2.51-7.6,2.72-12.23v-18.72
		l-16.45,3.92c-2.11,0.5-4.6,1.26-7.47,2.26c-2.87,1.01-5.58,2.44-8.15,4.3c-2.57,1.86-4.73,4.3-6.49,7.32
		C419.41,271.61,418.53,275.44,418.53,280.06z"/>
	<path class="st0" d="M487.05,299.38c1.61-0.5,2.92-1.06,3.92-1.66c1-0.6,1.81-1.38,2.42-2.34c0.6-0.96,1-2.19,1.21-3.7
		c0.2-1.51,0.3-3.32,0.3-5.43v-88.6c0-3.12-0.25-5.38-0.75-6.79c-0.5-1.41-1.51-2.72-3.02-3.92l14.94-1.81v101.13
		c0,2.11,0.12,3.9,0.38,5.36c0.25,1.46,0.68,2.69,1.28,3.7c0.6,1.01,1.41,1.81,2.42,2.41c1,0.6,2.26,1.16,3.77,1.66H487.05z"/>
	<path class="st0" d="M532.93,286.25v-55.7c0-2.11-0.08-3.95-0.23-5.51c-0.15-1.56-0.38-2.94-0.68-4.15
		c-0.3-1.21-0.73-2.31-1.28-3.32c-0.55-1-1.23-2.01-2.04-3.02l15.4-1.36v23.85c2.42-7.34,6.31-13.13,11.7-17.36
		c5.38-4.23,12.05-6.34,20-6.34c8.75,0,15.7,2.24,20.83,6.72c5.13,4.48,8.1,10.34,8.91,17.58c2.31-7.55,6.16-13.48,11.55-17.81
		c5.38-4.33,12.15-6.49,20.3-6.49c4.73,0,8.95,0.68,12.68,2.04c3.72,1.36,6.87,3.3,9.43,5.81c2.57,2.52,4.53,5.51,5.89,8.98
		c1.36,3.47,2.04,7.27,2.04,11.4v44.68c0,2.11,0.13,3.9,0.38,5.36c0.25,1.46,0.68,2.69,1.28,3.7c0.6,1.01,1.41,1.81,2.42,2.41
		c1,0.6,2.26,1.16,3.77,1.66H648.4c1.61-0.5,2.92-1.06,3.92-1.66c1-0.6,1.81-1.38,2.42-2.34c0.6-0.96,1-2.19,1.21-3.7
		c0.2-1.51,0.3-3.32,0.3-5.43v-46.19c0-7.55-1.79-13.51-5.36-17.89c-3.57-4.38-8.83-6.57-15.77-6.57c-3.62,0-7.12,0.76-10.49,2.26
		c-3.37,1.51-6.42,3.7-9.13,6.57c-2.72,2.87-4.96,6.37-6.72,10.49c-1.76,4.13-2.79,8.86-3.09,14.19v37.13c0,2.11,0.13,3.9,0.38,5.36
		c0.25,1.46,0.68,2.69,1.28,3.7c0.6,1.01,1.41,1.81,2.41,2.41c1,0.6,2.26,1.16,3.77,1.66h-26.87c1.61-0.5,2.92-1.06,3.92-1.66
		c1-0.6,1.81-1.38,2.42-2.34c0.6-0.96,1-2.19,1.21-3.7c0.2-1.51,0.3-3.32,0.3-5.43v-46.19c0-7.55-1.79-13.51-5.36-17.89
		c-3.57-4.38-8.78-6.57-15.62-6.57c-3.62,0-7.12,0.76-10.49,2.26c-3.37,1.51-6.41,3.7-9.13,6.57c-2.72,2.87-4.96,6.37-6.72,10.49
		c-1.76,4.13-2.79,8.86-3.09,14.19v37.13c0,2.11,0.12,3.9,0.38,5.36c0.25,1.46,0.68,2.69,1.28,3.7c0.6,1.01,1.41,1.81,2.41,2.41
		c1,0.6,2.26,1.16,3.77,1.66h-26.87c1.61-0.5,2.92-1.06,3.92-1.66c1-0.6,1.81-1.38,2.42-2.34c0.6-0.96,1-2.19,1.21-3.7
		C532.83,290.18,532.93,288.36,532.93,286.25z"/>
</g>
<g>
	<path class="st0" d="M307.03,29.84c-1.28-1.07-2.37-2.39-3.27-3.95c-0.91-1.57-1.6-3.28-2.09-5.14c-0.49-1.86-0.73-3.78-0.73-5.78
		c0-2,0.24-3.92,0.73-5.78c0.49-1.86,1.18-3.57,2.09-5.14c0.91-1.57,2-2.89,3.27-3.95l1.81,1.64c-1.65,1.44-2.92,3.3-3.81,5.57
		c-0.89,2.28-1.34,4.83-1.34,7.66c0,2.81,0.45,5.35,1.34,7.63c0.89,2.28,2.17,4.14,3.81,5.61L307.03,29.84z"/>
	<path class="st0" d="M330.89,27.45V3.28h3.27v24.17H330.89z"/>
	<path class="st0" d="M339.28,6.28v-3h19.68v3H339.28z M347.51,27.45V3.98h3.27v23.48H347.51z"/>
	<path class="st0" d="M364.08,27.45V3.28h3.27v24.17H364.08z M366.31,6.28v-3H380v3H366.31z M366.31,16.52v-2.86h12.71v2.86H366.31z
		 M366.31,27.45v-3h13.86v3H366.31z"/>
	<path class="st0" d="M385.85,27.45V3.28h2.3l10.24,16.82h-1.57l10.24-16.82h2.3v24.17h-3.27V9.03l0.77,0.21l-8.08,13.27h-2.3
		L388.4,9.24l0.73-0.21v18.43H385.85z"/>
	<path class="st0" d="M433.23,29.84l-1.81-1.64c1.65-1.46,2.91-3.33,3.8-5.61c0.88-2.28,1.32-4.82,1.32-7.63
		c0-2.83-0.44-5.39-1.32-7.66c-0.88-2.28-2.15-4.13-3.8-5.57l1.81-1.64c1.28,1.07,2.37,2.39,3.27,3.95c0.91,1.57,1.6,3.28,2.09,5.14
		c0.49,1.86,0.73,3.79,0.73,5.78c0,2-0.24,3.92-0.73,5.78c-0.49,1.86-1.18,3.57-2.09,5.14C435.59,27.45,434.5,28.77,433.23,29.84z"
		/>
</g>
</svg>
