<?xml version="1.0" encoding="utf-8"?>
<!-- Generator: Adobe Illustrator 25.4.1, SVG Export Plug-In . SVG Version: 6.00 Build 0)  -->
<svg version="1.1" id="レイヤー_1" xmlns="http://www.w3.org/2000/svg" xmlns:xlink="http://www.w3.org/1999/xlink" x="0px"
	 y="0px" viewBox="0 0 335 36" style="enable-background:new 0 0 335 36;" xml:space="preserve">
<style type="text/css">
	.st0{fill:#FFFFFF;}
</style>
<g>
	<path class="st0" d="M5.49,2.75C5.32,2.83,5.16,2.93,5.01,3.07C4.86,3.2,4.75,3.4,4.69,3.66c-0.06,0.26-0.06,0.59,0,1
		c0.06,0.41,0.21,0.91,0.46,1.5l7.86,18.77l7.61-18.7c0.27-0.64,0.45-1.17,0.54-1.6c0.09-0.42,0.12-0.76,0.09-1.02
		s-0.09-0.45-0.2-0.58c-0.11-0.12-0.24-0.22-0.39-0.3h3.26c-0.17,0.05-0.35,0.14-0.54,0.28c-0.19,0.14-0.41,0.38-0.67,0.74
		c-0.26,0.36-0.56,0.87-0.91,1.54c-0.35,0.67-0.75,1.57-1.22,2.71l-8.42,20.52h-0.22L2.08,5.31C1.71,4.42,1.35,3.8,1,3.44
		C0.66,3.08,0.32,2.85,0,2.75H5.49z"/>
	<path class="st0" d="M36.1,7.39c1.48,0,2.77,0.21,3.88,0.63c1.1,0.42,2.01,1.01,2.73,1.78c0.72,0.77,1.25,1.67,1.61,2.71
		s0.55,2.18,0.58,3.41H29.27c-0.05,0.37-0.09,0.75-0.11,1.13c-0.03,0.38-0.04,0.77-0.04,1.17c0,1.41,0.19,2.73,0.57,3.95
		c0.38,1.22,0.92,2.28,1.6,3.17c0.68,0.89,1.49,1.59,2.43,2.1c0.94,0.51,1.97,0.76,3.08,0.76c0.99,0,1.88-0.18,2.69-0.54
		c0.8-0.36,1.54-0.87,2.21-1.54s1.27-1.47,1.8-2.39s1-1.95,1.39-3.06l-0.33,5.38c-1.09,0.92-2.33,1.59-3.71,2.02
		c-1.39,0.43-2.73,0.65-4.04,0.65c-1.56,0-2.99-0.25-4.3-0.76c-1.31-0.51-2.44-1.22-3.4-2.13c-0.95-0.91-1.69-2.03-2.21-3.34
		c-0.52-1.31-0.78-2.76-0.78-4.34c0-1.56,0.23-2.99,0.69-4.3c0.46-1.31,1.12-2.45,1.99-3.41c0.86-0.96,1.91-1.71,3.13-2.24
		C33.15,7.66,34.54,7.39,36.1,7.39z M29.35,15.48H42c-0.03-1.09-0.17-2.09-0.45-3.01c-0.27-0.91-0.66-1.72-1.15-2.41
		c-0.5-0.69-1.11-1.23-1.84-1.61c-0.73-0.38-1.56-0.58-2.5-0.58c-0.89,0-1.71,0.19-2.45,0.56c-0.74,0.37-1.4,0.9-1.99,1.58
		c-0.58,0.68-1.06,1.48-1.45,2.41C29.8,13.34,29.52,14.36,29.35,15.48z"/>
	<path class="st0" d="M47.56,28.54c0.39-0.12,0.72-0.26,0.96-0.41c0.25-0.15,0.45-0.34,0.59-0.58c0.15-0.23,0.25-0.54,0.3-0.91
		c0.05-0.37,0.07-0.82,0.07-1.34V3.53c0-0.77-0.06-1.32-0.19-1.67c-0.12-0.35-0.37-0.67-0.74-0.96l3.67-0.45v24.86
		c0,0.52,0.03,0.96,0.09,1.32c0.06,0.36,0.17,0.66,0.32,0.91c0.15,0.25,0.35,0.45,0.59,0.59c0.25,0.15,0.56,0.28,0.93,0.41H47.56z"
		/>
	<path class="st0" d="M60.32,7.58c-0.2,0.17-0.35,0.42-0.46,0.74c-0.11,0.32-0.02,0.84,0.28,1.56l6.6,15.28l5.6-13.1
		c0.42-0.96,0.67-1.73,0.74-2.3c0.07-0.57,0.07-1,0-1.3s-0.19-0.5-0.35-0.61s-0.29-0.2-0.39-0.28h3.6
		c-0.27,0.17-0.63,0.48-1.08,0.91c-0.45,0.43-0.89,1.18-1.34,2.24l-7.61,17.81h-0.41l-7.68-17.7c-0.5-1.11-0.92-1.9-1.26-2.37
		C56.23,8,55.93,7.7,55.69,7.58H60.32z"/>
	<path class="st0" d="M87.59,7.39c1.48,0,2.78,0.21,3.88,0.63c1.1,0.42,2.01,1.01,2.73,1.78c0.72,0.77,1.26,1.67,1.61,2.71
		c0.36,1.04,0.55,2.18,0.57,3.41H80.76c-0.05,0.37-0.09,0.75-0.11,1.13c-0.03,0.38-0.04,0.77-0.04,1.17c0,1.41,0.19,2.73,0.58,3.95
		c0.38,1.22,0.91,2.28,1.6,3.17c0.68,0.89,1.49,1.59,2.43,2.1c0.94,0.51,1.97,0.76,3.08,0.76c0.99,0,1.89-0.18,2.69-0.54
		c0.8-0.36,1.54-0.87,2.21-1.54c0.67-0.67,1.27-1.47,1.8-2.39c0.53-0.93,0.99-1.95,1.39-3.06l-0.33,5.38
		c-1.09,0.92-2.33,1.59-3.71,2.02c-1.38,0.43-2.73,0.65-4.04,0.65c-1.56,0-2.99-0.25-4.3-0.76c-1.31-0.51-2.44-1.22-3.39-2.13
		c-0.95-0.91-1.69-2.03-2.21-3.34c-0.52-1.31-0.78-2.76-0.78-4.34c0-1.56,0.23-2.99,0.69-4.3c0.46-1.31,1.12-2.45,1.98-3.41
		c0.86-0.96,1.91-1.71,3.14-2.24C84.64,7.66,86.03,7.39,87.59,7.39z M80.84,15.48h12.65c-0.03-1.09-0.17-2.09-0.45-3.01
		c-0.27-0.91-0.66-1.72-1.15-2.41c-0.49-0.69-1.11-1.23-1.84-1.61c-0.73-0.38-1.57-0.58-2.51-0.58c-0.89,0-1.71,0.19-2.45,0.56
		c-0.74,0.37-1.4,0.9-1.98,1.58c-0.58,0.68-1.06,1.48-1.45,2.41C81.29,13.34,81.01,14.36,80.84,15.48z"/>
	<path class="st0" d="M102.61,7.58l2.56-5.16v5.16h6.08v0.41h-6.08v15.95c0,0.82,0.05,1.5,0.17,2.04c0.11,0.54,0.27,0.98,0.46,1.3
		c0.2,0.32,0.45,0.54,0.76,0.67c0.31,0.12,0.66,0.19,1.06,0.19c0.72,0,1.32-0.2,1.82-0.61c0.49-0.41,0.95-0.98,1.37-1.73l0.48,0.33
		c-0.5,0.79-1.03,1.42-1.61,1.87c-0.58,0.46-1.43,0.69-2.54,0.69c-1.73,0-2.95-0.5-3.66-1.5s-1.06-2.42-1.06-4.25V7.98h-3.64V7.58
		H102.61z"/>
	<path class="st0" d="M126.65,25.2V5.94c0-0.54-0.03-1-0.07-1.35c-0.05-0.36-0.14-0.65-0.26-0.89c-0.12-0.23-0.31-0.43-0.56-0.58
		c-0.25-0.15-0.57-0.27-0.96-0.37h16.66l0.78,6.79c-0.3-1.29-0.72-2.33-1.26-3.13c-0.54-0.8-1.17-1.43-1.87-1.87
		c-0.7-0.45-1.47-0.75-2.3-0.91c-0.83-0.16-1.7-0.24-2.61-0.24h-4.71v11.57h3.08c1.26,0,2.29-0.07,3.1-0.22s1.45-0.37,1.93-0.67
		s0.84-0.65,1.06-1.08c0.22-0.42,0.39-0.9,0.52-1.45l-0.52,7.53c-0.03-0.54-0.12-1.03-0.28-1.47c-0.16-0.43-0.46-0.8-0.89-1.09
		c-0.43-0.3-1.04-0.53-1.84-0.69c-0.79-0.16-1.84-0.24-3.15-0.24h-3.01v9.61c0,1.09,0.16,1.86,0.48,2.32
		c0.32,0.46,0.88,0.8,1.67,1.02h-7.12c0.79-0.22,1.35-0.56,1.67-1.02C126.49,27.06,126.65,26.29,126.65,25.2z"/>
	<path class="st0" d="M144.76,28.54c0.39-0.12,0.72-0.26,0.96-0.41c0.25-0.15,0.45-0.34,0.59-0.58c0.15-0.23,0.25-0.54,0.3-0.91
		c0.05-0.37,0.07-0.82,0.07-1.34V11.62c0-0.52-0.02-0.97-0.06-1.35c-0.04-0.38-0.09-0.72-0.17-1.02c-0.07-0.3-0.18-0.57-0.32-0.82
		c-0.14-0.25-0.3-0.49-0.5-0.74l3.78-0.33v17.96c0,0.52,0.03,0.96,0.09,1.32c0.06,0.36,0.17,0.66,0.32,0.91
		c0.15,0.25,0.35,0.45,0.59,0.59c0.25,0.15,0.56,0.28,0.93,0.41H144.76z M147.95,0.93c0.57,0,1.04,0.17,1.41,0.5
		s0.56,0.79,0.56,1.35c0,0.57-0.19,1.03-0.56,1.37c-0.37,0.35-0.84,0.52-1.41,0.52c-0.54,0-1-0.17-1.37-0.52
		c-0.37-0.35-0.56-0.8-0.56-1.37c0-0.57,0.19-1.02,0.56-1.35S147.4,0.93,147.95,0.93z"/>
	<path class="st0" d="M152.62,28.54c0.17-0.15,0.54-0.45,1.11-0.89c0.57-0.45,1.25-1.19,2.04-2.23l5.68-7.31l-5.27-7.38
		c-0.74-1.04-1.32-1.79-1.73-2.26c-0.41-0.47-0.75-0.77-1.02-0.89h4.9c-0.17,0.17-0.3,0.43-0.39,0.78
		c-0.09,0.35,0.11,0.85,0.58,1.52l4.64,6.46l3.93-5.05c0.59-0.77,0.98-1.37,1.17-1.82s0.27-0.8,0.24-1.06
		c-0.03-0.26-0.11-0.45-0.26-0.56c-0.15-0.11-0.25-0.2-0.3-0.28h3.67c-0.32,0.17-0.79,0.48-1.39,0.93s-1.3,1.19-2.1,2.23l-4.67,6.05
		l6.2,8.64c0.57,0.79,1.06,1.46,1.46,2c0.41,0.54,0.85,0.92,1.32,1.11h-4.93c0.07-0.07,0.16-0.15,0.26-0.24
		c0.1-0.09,0.16-0.22,0.19-0.39c0.02-0.17-0.01-0.39-0.09-0.65c-0.09-0.26-0.28-0.59-0.57-0.98l-5.53-7.72l-4.93,6.27
		c-0.59,0.77-0.98,1.38-1.15,1.84c-0.17,0.46-0.24,0.82-0.21,1.08c0.04,0.26,0.14,0.44,0.3,0.54c0.16,0.1,0.27,0.19,0.32,0.26
		H152.62z"/>
	<path class="st0" d="M191.99,2.75c-0.4,0.12-0.72,0.27-0.96,0.43c-0.25,0.16-0.45,0.36-0.59,0.59c-0.15,0.24-0.26,0.54-0.33,0.91
		c-0.07,0.37-0.11,0.82-0.11,1.34v21.89h6.27c0.91,0,1.69-0.09,2.32-0.26c0.63-0.17,1.18-0.49,1.63-0.95
		c0.46-0.46,0.85-1.09,1.19-1.89c0.33-0.8,0.65-1.85,0.95-3.13l-0.74,6.86h-16.43c0.79-0.22,1.32-0.56,1.6-1
		c0.27-0.45,0.41-1.2,0.41-2.26V6.02c0-0.54-0.03-1-0.09-1.35c-0.06-0.36-0.17-0.66-0.31-0.91c-0.15-0.25-0.35-0.45-0.61-0.61
		c-0.26-0.16-0.59-0.29-0.98-0.39H191.99z"/>
	<path class="st0" d="M204.86,28.54c0.4-0.12,0.72-0.26,0.96-0.41c0.25-0.15,0.45-0.34,0.59-0.58c0.15-0.23,0.25-0.54,0.3-0.91
		c0.05-0.37,0.07-0.82,0.07-1.34V11.62c0-0.52-0.02-0.97-0.05-1.35c-0.04-0.38-0.09-0.72-0.17-1.02c-0.07-0.3-0.18-0.57-0.31-0.82
		c-0.14-0.25-0.3-0.49-0.5-0.74l3.78-0.33v17.96c0,0.52,0.03,0.96,0.09,1.32c0.06,0.36,0.17,0.66,0.31,0.91
		c0.15,0.25,0.35,0.45,0.59,0.59c0.25,0.15,0.56,0.28,0.93,0.41H204.86z M208.05,0.93c0.57,0,1.04,0.17,1.41,0.5
		c0.37,0.33,0.56,0.79,0.56,1.35c0,0.57-0.19,1.03-0.56,1.37c-0.37,0.35-0.84,0.52-1.41,0.52c-0.54,0-1-0.17-1.37-0.52
		c-0.37-0.35-0.56-0.8-0.56-1.37c0-0.57,0.19-1.02,0.56-1.35C207.05,1.1,207.5,0.93,208.05,0.93z"/>
	<path class="st0" d="M215.47,32.32v-20.7c0-0.52-0.02-0.97-0.05-1.35c-0.04-0.38-0.09-0.72-0.17-1.02
		c-0.07-0.3-0.18-0.57-0.31-0.82c-0.14-0.25-0.3-0.49-0.5-0.74l3.71-0.33v2.63c0.45-0.54,0.93-0.98,1.45-1.32
		c0.52-0.33,1.05-0.59,1.6-0.78s1.09-0.32,1.63-0.39c0.54-0.07,1.05-0.11,1.52-0.11c1.58,0,3.02,0.24,4.3,0.72
		c1.29,0.48,2.39,1.17,3.32,2.06s1.64,1.96,2.15,3.21c0.51,1.25,0.76,2.64,0.76,4.17c0,1.56-0.27,3.02-0.8,4.38
		c-0.53,1.36-1.27,2.54-2.21,3.54c-0.94,1-2.07,1.79-3.38,2.37c-1.31,0.58-2.73,0.87-4.27,0.87c-1.16,0-2.25-0.18-3.26-0.54
		c-1.01-0.36-1.93-0.9-2.75-1.61v5.75c0,0.52,0.03,0.96,0.09,1.32c0.06,0.36,0.17,0.66,0.31,0.91c0.15,0.25,0.35,0.45,0.59,0.59
		c0.25,0.15,0.56,0.28,0.93,0.41h-6.6c0.4-0.1,0.72-0.23,0.96-0.39c0.25-0.16,0.45-0.36,0.59-0.59c0.15-0.24,0.25-0.54,0.3-0.91
		C215.44,33.28,215.47,32.84,215.47,32.32z M224.48,28.09c1.16,0,2.21-0.24,3.14-0.72c0.93-0.48,1.72-1.14,2.37-1.97
		c0.65-0.83,1.16-1.81,1.5-2.95c0.35-1.14,0.52-2.36,0.52-3.67c0-1.53-0.17-2.96-0.52-4.27c-0.35-1.31-0.87-2.45-1.58-3.41
		s-1.58-1.72-2.62-2.26c-1.04-0.54-2.26-0.82-3.67-0.82c-0.89,0-1.83,0.18-2.82,0.54c-0.99,0.36-1.85,1.05-2.6,2.06v13.43
		c0.67,1.39,1.53,2.41,2.58,3.06C221.84,27.76,223.07,28.09,224.48,28.09z"/>
	<path class="st0" d="M248.34,28.54c0.79-0.22,1.32-0.56,1.6-1s0.41-1.2,0.41-2.26V6.02c0-0.54-0.03-1-0.09-1.35
		c-0.06-0.36-0.17-0.66-0.32-0.91c-0.15-0.25-0.35-0.45-0.61-0.61c-0.26-0.16-0.59-0.29-0.98-0.39h8.46c2.92,0,5.23,0.53,6.94,1.58
		c1.71,1.05,2.56,2.57,2.56,4.54c0,1.63-0.62,3.01-1.85,4.12s-2.96,1.87-5.16,2.26c2.47,0.3,4.41,0.98,5.81,2.06
		c1.4,1.08,2.1,2.47,2.1,4.17c0,1.11-0.22,2.1-0.67,2.97c-0.45,0.87-1.08,1.6-1.89,2.21c-0.82,0.61-1.81,1.07-2.99,1.39
		c-1.18,0.32-2.49,0.48-3.95,0.48H248.34z M253.16,14.99h3.97c1.9,0,3.42-0.54,4.55-1.63c1.12-1.09,1.69-2.51,1.69-4.27
		c0-1.85-0.61-3.28-1.84-4.27c-1.22-0.99-2.95-1.48-5.18-1.48h-3.19V14.99z M253.16,27.94h3.97c2.23,0,3.96-0.56,5.19-1.67
		c1.24-1.11,1.85-2.66,1.85-4.64c0-1.93-0.62-3.42-1.87-4.47c-1.25-1.05-2.92-1.58-5.03-1.58h-4.12V27.94z"/>
	<path class="st0" d="M279.09,17.04l4.12-1v-2.67c0-1.85-0.37-3.22-1.09-4.1c-0.73-0.88-1.84-1.32-3.32-1.32
		c-0.69,0-1.4,0.12-2.11,0.35c-0.72,0.24-1.39,0.66-2.02,1.26c-0.63,0.61-1.21,1.43-1.74,2.47c-0.53,1.04-0.97,2.35-1.32,3.93
		l-0.22-6.2c0.92-0.72,2.04-1.29,3.38-1.71c1.34-0.42,2.71-0.63,4.12-0.63c2.18,0,3.9,0.52,5.18,1.56c1.27,1.04,1.91,2.56,1.91,4.56
		v11.76c0,0.72,0.08,1.35,0.24,1.89c0.16,0.54,0.43,0.99,0.8,1.34l-3.64,0.11v-4.9c-0.25,0.62-0.56,1.22-0.95,1.82
		c-0.38,0.59-0.85,1.13-1.41,1.6c-0.56,0.47-1.22,0.84-1.99,1.11s-1.64,0.41-2.63,0.41c-0.89,0-1.72-0.1-2.5-0.3
		c-0.78-0.2-1.45-0.5-2-0.91s-1-0.91-1.32-1.52c-0.32-0.61-0.48-1.32-0.48-2.13c0-1.11,0.3-2.05,0.91-2.82
		c0.61-0.77,1.36-1.41,2.28-1.93s1.89-0.93,2.93-1.24C277.24,17.52,278.2,17.26,279.09,17.04z M273.08,23.79
		c0,1.26,0.34,2.3,1.02,3.12c0.68,0.82,1.64,1.22,2.87,1.22c0.69,0,1.4-0.15,2.11-0.45c0.72-0.3,1.37-0.74,1.97-1.32
		c0.59-0.58,1.09-1.3,1.48-2.17c0.4-0.87,0.62-1.87,0.67-3.01v-4.6l-4.04,0.96c-0.52,0.12-1.13,0.31-1.84,0.56
		c-0.7,0.25-1.37,0.6-2,1.06c-0.63,0.46-1.16,1.06-1.6,1.8C273.3,21.71,273.08,22.65,273.08,23.79z"/>
	<path class="st0" d="M289.33,28.54c0.4-0.12,0.72-0.26,0.96-0.41s0.45-0.34,0.59-0.58c0.15-0.23,0.25-0.54,0.3-0.91
		c0.05-0.37,0.07-0.82,0.07-1.34V3.53c0-0.77-0.06-1.32-0.19-1.67c-0.12-0.35-0.37-0.67-0.74-0.96l3.67-0.45v24.86
		c0,0.52,0.03,0.96,0.09,1.32c0.06,0.36,0.17,0.66,0.31,0.91c0.15,0.25,0.35,0.45,0.59,0.59c0.25,0.15,0.56,0.28,0.93,0.41H289.33z"
		/>
	<path class="st0" d="M300.02,25.31V11.62c0-0.52-0.02-0.97-0.05-1.35c-0.04-0.38-0.09-0.72-0.17-1.02s-0.18-0.57-0.31-0.82
		c-0.14-0.25-0.3-0.49-0.5-0.74l3.78-0.33v5.86c0.59-1.81,1.55-3.23,2.88-4.27c1.32-1.04,2.96-1.56,4.91-1.56
		c2.15,0,3.86,0.55,5.12,1.65c1.26,1.1,1.99,2.54,2.19,4.32c0.57-1.85,1.52-3.31,2.84-4.38c1.32-1.06,2.99-1.6,4.99-1.6
		c1.16,0,2.2,0.17,3.12,0.5c0.92,0.33,1.69,0.81,2.32,1.43c0.63,0.62,1.11,1.35,1.45,2.21c0.33,0.85,0.5,1.79,0.5,2.8v10.98
		c0,0.52,0.03,0.96,0.09,1.32c0.06,0.36,0.17,0.66,0.31,0.91c0.15,0.25,0.35,0.45,0.59,0.59c0.25,0.15,0.56,0.28,0.93,0.41h-6.6
		c0.4-0.12,0.72-0.26,0.96-0.41c0.25-0.15,0.45-0.34,0.59-0.58c0.15-0.23,0.25-0.54,0.3-0.91c0.05-0.37,0.07-0.82,0.07-1.34V13.96
		c0-1.85-0.44-3.32-1.32-4.4c-0.88-1.08-2.17-1.61-3.88-1.61c-0.89,0-1.75,0.19-2.58,0.56c-0.83,0.37-1.58,0.91-2.25,1.61
		c-0.67,0.7-1.22,1.56-1.65,2.58c-0.43,1.01-0.69,2.18-0.76,3.49v9.13c0,0.52,0.03,0.96,0.09,1.32c0.06,0.36,0.17,0.66,0.31,0.91
		c0.15,0.25,0.35,0.45,0.59,0.59c0.25,0.15,0.56,0.28,0.93,0.41h-6.6c0.4-0.12,0.72-0.26,0.96-0.41s0.45-0.34,0.59-0.58
		c0.15-0.23,0.25-0.54,0.3-0.91c0.05-0.37,0.07-0.82,0.07-1.34V13.96c0-1.85-0.44-3.32-1.32-4.4c-0.88-1.08-2.16-1.61-3.84-1.61
		c-0.89,0-1.75,0.19-2.58,0.56c-0.83,0.37-1.58,0.91-2.25,1.61c-0.67,0.7-1.22,1.56-1.65,2.58c-0.43,1.01-0.69,2.18-0.76,3.49v9.13
		c0,0.52,0.03,0.96,0.09,1.32c0.06,0.36,0.17,0.66,0.31,0.91c0.15,0.25,0.35,0.45,0.59,0.59c0.25,0.15,0.56,0.28,0.93,0.41h-6.6
		c0.4-0.12,0.72-0.26,0.96-0.41c0.25-0.15,0.45-0.34,0.59-0.58c0.15-0.23,0.25-0.54,0.3-0.91
		C299.99,26.27,300.02,25.83,300.02,25.31z"/>
</g>
</svg>
