<?xml version="1.0" encoding="utf-8"?>
<!-- Generator: Adobe Illustrator 25.4.1, SVG Export Plug-In . SVG Version: 6.00 Build 0)  -->
<svg version="1.1" id="レイヤー_1" xmlns="http://www.w3.org/2000/svg" xmlns:xlink="http://www.w3.org/1999/xlink" x="0px"
	 y="0px" viewBox="0 0 2637 31" style="enable-background:new 0 0 2637 31;" xml:space="preserve">
<style type="text/css">
	.st0{fill:#F7F3F0;}
</style>
<g>
	<path class="st0" d="M0.9,3.4l-0.4,7.3l0.3,0C1,9.3,1.2,8.1,1.5,7.3c0.3-0.8,0.6-1.5,1-1.9c0.4-0.4,0.8-0.7,1.3-0.9
		C4.4,4.3,5,4.2,5.8,4.2h2.1V22c0,0.4,0,0.8-0.1,1.1c0,0.3-0.1,0.5-0.2,0.7c-0.1,0.2-0.3,0.3-0.4,0.4c-0.2,0.1-0.5,0.2-0.8,0.3
		l-1,0.3h7.5L12,24.5c-0.3-0.1-0.5-0.2-0.7-0.3c-0.2-0.1-0.3-0.3-0.4-0.4c-0.1-0.2-0.2-0.4-0.2-0.7c0-0.3-0.1-0.7-0.1-1.1V4.2h2.2
		c0.7,0,1.4,0.1,1.9,0.2c0.5,0.1,1,0.4,1.3,0.9c0.4,0.5,0.7,1.1,1,2c0.3,0.8,0.5,2,0.7,3.4l0.3,0l-0.4-7.3H0.9z"/>
	<path class="st0" d="M36.3,9.7c-0.8-0.8-1.7-1.4-2.8-1.8c-1.1-0.4-2.3-0.6-3.6-0.6c-1.3,0-2.5,0.2-3.6,0.6c-1.1,0.4-2,1-2.8,1.8
		c-0.8,0.8-1.4,1.7-1.8,2.8c-0.4,1.1-0.6,2.3-0.6,3.6c0,1.3,0.2,2.5,0.6,3.6c0.4,1.1,1,2,1.8,2.8c0.8,0.8,1.7,1.4,2.8,1.8
		c1.1,0.4,2.3,0.6,3.6,0.6c1.3,0,2.5-0.2,3.6-0.6c1.1-0.4,2-1,2.8-1.8c0.8-0.8,1.4-1.7,1.8-2.8c0.4-1.1,0.6-2.3,0.6-3.6
		c0-1.3-0.2-2.5-0.6-3.6C37.7,11.4,37,10.5,36.3,9.7z M29.9,24.2c-0.9,0-1.7-0.2-2.5-0.6c-0.7-0.4-1.4-1-1.9-1.7
		c-0.5-0.7-1-1.6-1.2-2.6c-0.3-1-0.4-2.1-0.4-3.3c0-1.2,0.2-2.3,0.4-3.3c0.3-1,0.7-1.9,1.2-2.6c0.5-0.7,1.2-1.3,1.9-1.7
		C28.1,8.2,29,8,29.9,8c0.9,0,1.7,0.2,2.5,0.6c0.7,0.4,1.4,0.9,1.9,1.7c0.5,0.7,1,1.6,1.2,2.6c0.3,1,0.4,2.1,0.4,3.3
		c0,1.2-0.2,2.3-0.4,3.3c-0.3,1-0.7,1.9-1.2,2.6c-0.5,0.7-1.2,1.3-1.9,1.7C31.6,24,30.8,24.2,29.9,24.2z"/>
	<path class="st0" d="M71.1,24.2c-0.2-0.1-0.3-0.3-0.4-0.4c-0.1-0.2-0.2-0.4-0.2-0.7c0-0.3-0.1-0.6-0.1-1v-9c0-0.8-0.1-1.6-0.4-2.3
		c-0.3-0.7-0.7-1.3-1.2-1.9c-0.5-0.5-1.2-0.9-2-1.2c-0.8-0.3-1.6-0.4-2.6-0.4c-1.7,0-3.1,0.5-4.2,1.3c-1,0.8-1.7,1.8-2.2,3
		c-0.3-1.2-0.8-2.2-1.7-3c-1.1-0.9-2.5-1.4-4.3-1.4c-1.6,0-3,0.4-4.1,1.3c-0.9,0.7-1.6,1.6-2.1,2.8V7.1L42,7.5l0.2,0.2
		c0.2,0.2,0.3,0.4,0.4,0.6c0.1,0.2,0.2,0.4,0.2,0.6c0.1,0.2,0.1,0.5,0.1,0.8c0,0.3,0,0.7,0,1.1V22c0,0.4,0,0.8-0.1,1.1
		c0,0.3-0.1,0.5-0.2,0.7c-0.1,0.2-0.3,0.3-0.4,0.4c-0.2,0.1-0.4,0.2-0.8,0.3l-1,0.3H48L47,24.5c-0.3-0.1-0.5-0.2-0.7-0.3
		c-0.2-0.1-0.3-0.3-0.4-0.4c-0.1-0.2-0.2-0.4-0.2-0.7c0-0.3-0.1-0.6-0.1-1l0-7.5c0.1-1,0.3-2,0.6-2.8c0.3-0.8,0.8-1.5,1.3-2.1
		c0.5-0.6,1.1-1,1.8-1.3c0.7-0.3,1.3-0.4,2-0.4c1.3,0,2.3,0.4,3,1.3c0.7,0.8,1,2,1,3.5V22c0,0.4,0,0.8-0.1,1.1
		c0,0.3-0.1,0.5-0.2,0.7c-0.1,0.2-0.3,0.3-0.4,0.4c-0.2,0.1-0.4,0.2-0.8,0.3l-1,0.3h7.4l-0.9-0.3c-0.3-0.1-0.5-0.2-0.7-0.3
		c-0.2-0.1-0.3-0.3-0.4-0.4c-0.1-0.2-0.2-0.4-0.2-0.7c0-0.3-0.1-0.6-0.1-1l0-7.5c0.1-1,0.3-2,0.6-2.8c0.3-0.8,0.8-1.5,1.3-2.1
		c0.5-0.6,1.1-1,1.8-1.3C62.3,8.1,63,8,63.7,8c1.3,0,2.4,0.4,3,1.3c0.7,0.8,1,2,1,3.5V22c0,0.4,0,0.8-0.1,1.1c0,0.3-0.1,0.5-0.2,0.7
		c-0.1,0.2-0.3,0.3-0.4,0.4c-0.2,0.1-0.4,0.2-0.8,0.3l-1,0.3h7.4l-0.9-0.3C71.5,24.4,71.3,24.3,71.1,24.2z"/>
	<path class="st0" d="M89.7,9.7c-0.8-0.8-1.7-1.4-2.8-1.8c-1.1-0.4-2.3-0.6-3.6-0.6c-1.3,0-2.5,0.2-3.6,0.6c-1.1,0.4-2,1-2.8,1.8
		c-0.8,0.8-1.4,1.7-1.8,2.8c-0.4,1.1-0.6,2.3-0.6,3.6c0,1.3,0.2,2.5,0.6,3.6c0.4,1.1,1,2,1.8,2.8c0.8,0.8,1.7,1.4,2.8,1.8
		c1.1,0.4,2.3,0.6,3.6,0.6c1.3,0,2.5-0.2,3.6-0.6c1.1-0.4,2-1,2.8-1.8c0.8-0.8,1.4-1.7,1.8-2.8c0.4-1.1,0.6-2.3,0.6-3.6
		c0-1.3-0.2-2.5-0.6-3.6C91.1,11.4,90.5,10.5,89.7,9.7z M89.4,16.1c0,1.2-0.2,2.3-0.4,3.3c-0.3,1-0.7,1.9-1.2,2.6
		c-0.5,0.7-1.2,1.3-1.9,1.7c-0.7,0.4-1.6,0.6-2.5,0.6s-1.7-0.2-2.5-0.6c-0.7-0.4-1.4-1-1.9-1.7c-0.5-0.7-1-1.6-1.2-2.6
		c-0.3-1-0.4-2.1-0.4-3.3c0-1.2,0.2-2.3,0.4-3.3c0.3-1,0.7-1.8,1.2-2.6c0.5-0.7,1.2-1.3,1.9-1.7C81.6,8.2,82.4,8,83.3,8
		s1.7,0.2,2.5,0.6c0.7,0.4,1.4,0.9,1.9,1.7c0.5,0.7,1,1.6,1.2,2.6C89.2,13.8,89.4,14.9,89.4,16.1z"/>
	<path class="st0" d="M103.9,7.2c-0.7,0-1.3,0.1-1.9,0.3c-0.6,0.2-1,0.5-1.5,0.9c-0.4,0.4-0.8,0.8-1.1,1.3c-0.2,0.3-0.4,0.6-0.5,0.9
		V7.1l-3.5,0.3l0.2,0.2c0.2,0.2,0.3,0.4,0.4,0.6c0.1,0.2,0.2,0.4,0.2,0.6c0.1,0.2,0.1,0.5,0.1,0.8c0,0.3,0,0.7,0,1.1V22
		c0,0.4,0,0.8-0.1,1.1c0,0.3-0.1,0.5-0.2,0.7c-0.1,0.2-0.3,0.3-0.4,0.4c-0.2,0.1-0.4,0.2-0.8,0.3l-1,0.3h7.4l-0.9-0.3
		c-0.3-0.1-0.5-0.2-0.7-0.3c-0.2-0.1-0.3-0.3-0.4-0.4c-0.1-0.2-0.2-0.4-0.2-0.7c0-0.3-0.1-0.6-0.1-1v-9.8c0.2-0.5,0.4-1,0.6-1.4
		c0.2-0.4,0.5-0.8,0.8-1.2c0.3-0.3,0.6-0.6,0.9-0.8c0.6-0.3,1.3-0.4,1.9-0.1c0.3,0.1,0.6,0.3,0.9,0.5c0.3,0.2,0.5,0.4,0.8,0.7
		c0.2,0.2,0.5,0.5,0.6,0.7l0.3,0.3l0-3.5l-0.1,0C105.2,7.3,104.6,7.2,103.9,7.2z"/>
	<path class="st0" d="M117.1,7.2c-0.7,0-1.3,0.1-1.9,0.3c-0.6,0.2-1,0.5-1.5,0.9c-0.4,0.4-0.8,0.8-1.1,1.3c-0.2,0.3-0.4,0.6-0.5,0.9
		V7.1l-3.5,0.3l0.2,0.2c0.2,0.2,0.3,0.4,0.4,0.6c0.1,0.2,0.2,0.4,0.2,0.6c0.1,0.2,0.1,0.5,0.1,0.8c0,0.3,0,0.7,0,1.1V22
		c0,0.4,0,0.8-0.1,1.1c0,0.3-0.1,0.5-0.2,0.7c-0.1,0.2-0.3,0.3-0.4,0.4c-0.2,0.1-0.4,0.2-0.8,0.3l-1,0.3h7.4l-0.9-0.3
		c-0.3-0.1-0.5-0.2-0.7-0.3c-0.2-0.1-0.3-0.3-0.4-0.4c-0.1-0.2-0.2-0.4-0.2-0.7c0-0.3-0.1-0.6-0.1-1v-9.8c0.2-0.5,0.4-1,0.6-1.4
		c0.2-0.4,0.5-0.8,0.8-1.2c0.3-0.3,0.6-0.6,0.9-0.8c0.6-0.3,1.3-0.4,1.9-0.1c0.3,0.1,0.6,0.3,0.9,0.5c0.3,0.2,0.5,0.4,0.8,0.7
		c0.2,0.2,0.5,0.5,0.6,0.7l0.3,0.3l0-3.5l-0.1,0C118.4,7.3,117.8,7.2,117.1,7.2z"/>
	<path class="st0" d="M136.6,9.7c-0.8-0.8-1.7-1.4-2.8-1.8c-1.1-0.4-2.3-0.6-3.6-0.6c-1.3,0-2.5,0.2-3.6,0.6c-1.1,0.4-2,1-2.8,1.8
		c-0.8,0.8-1.4,1.7-1.8,2.8c-0.4,1.1-0.6,2.3-0.6,3.6c0,1.3,0.2,2.5,0.6,3.6c0.4,1.1,1,2,1.8,2.8c0.8,0.8,1.7,1.4,2.8,1.8
		c1.1,0.4,2.3,0.6,3.6,0.6c1.3,0,2.5-0.2,3.6-0.6c1.1-0.4,2-1,2.8-1.8c0.8-0.8,1.4-1.7,1.8-2.8c0.4-1.1,0.6-2.3,0.6-3.6
		c0-1.3-0.2-2.5-0.6-3.6C138,11.4,137.4,10.5,136.6,9.7z M136.3,16.1c0,1.2-0.2,2.3-0.4,3.3c-0.3,1-0.7,1.9-1.2,2.6
		c-0.5,0.7-1.2,1.3-1.9,1.7c-0.7,0.4-1.6,0.6-2.5,0.6c-0.9,0-1.7-0.2-2.5-0.6c-0.7-0.4-1.4-1-1.9-1.7c-0.5-0.7-1-1.6-1.2-2.6
		c-0.3-1-0.4-2.1-0.4-3.3c0-1.2,0.2-2.3,0.4-3.3c0.3-1,0.7-1.9,1.2-2.6c0.5-0.7,1.2-1.3,1.9-1.7c0.7-0.4,1.6-0.6,2.5-0.6
		c0.9,0,1.7,0.2,2.5,0.6c0.7,0.4,1.4,0.9,1.9,1.7c0.5,0.7,1,1.6,1.2,2.6C136.1,13.8,136.3,14.9,136.3,16.1z"/>
	<path class="st0" d="M162.1,7.6c0.1,0.1,0.2,0.1,0.4,0.2c0.1,0.1,0.2,0.2,0.3,0.4c0.1,0.2,0.1,0.6,0.1,1c0,0.5-0.2,1.1-0.4,1.9
		l-3.2,9.7l-5.4-13.6h-0.5l-4.2,13.4l-4.1-11.4c-0.3-0.7-0.2-1-0.2-1.2c0.1-0.2,0.2-0.4,0.4-0.5l0.4-0.3h-4.9l0.6,0.3
		c0.1,0.1,0.3,0.2,0.6,0.7c0.2,0.4,0.5,1,0.9,1.9l5.2,14.5l0,0.1h0.6l4.2-13.4l5.3,13.3l0,0.1h0.6l4.8-14.7c0.3-0.9,0.6-1.5,0.8-1.8
		c0.3-0.3,0.6-0.6,0.9-0.7l0.6-0.3h-4.2L162.1,7.6z"/>
	<path class="st0" d="M170.1,22.3c-0.4,0-0.7,0.1-1,0.4c-0.3,0.2-0.4,0.6-0.4,0.9c0,0.4,0.1,0.7,0.4,1c0.3,0.2,0.6,0.4,1,0.4
		c0.1,0,0.1,0,0.1,0c0,0.4-0.1,0.7-0.3,1c-0.2,0.4-0.5,0.7-0.9,1l-0.1,0.1l0.2,0.2l0.1,0c0.6-0.3,1.2-0.7,1.6-1.3
		c0.4-0.6,0.6-1.4,0.6-2.3c0-0.4-0.1-0.7-0.4-1C170.8,22.5,170.5,22.3,170.1,22.3z"/>
	<path class="st0" d="M202.5,3.6c0.1,0.1,0.1,0.2,0.3,0.3c0.1,0.1,0.1,0.2,0.1,0.4c0,0.2-0.1,0.5-0.2,0.9c-0.1,0.4-0.5,1-0.9,1.6
		l-5.1,7.6l-5.8-8.9c-0.2-0.3-0.3-0.6-0.4-0.8c-0.1-0.2-0.1-0.4-0.1-0.5c0-0.1,0.1-0.3,0.1-0.4c0.1-0.1,0.1-0.2,0.2-0.2l0.4-0.3
		h-5.5l0.6,0.3c0.3,0.1,0.6,0.4,1,0.8c0.4,0.4,0.9,1.2,1.6,2.2l5.8,8.8V22c0,0.8-0.1,1.4-0.3,1.8c-0.2,0.3-0.6,0.6-1.2,0.7l-1.1,0.3
		h7.7l-1-0.3c-0.6-0.2-1-0.4-1.2-0.8c-0.2-0.3-0.3-0.9-0.3-1.7v-6.7l6.1-9.1c0.5-0.8,1-1.3,1.4-1.7c0.4-0.4,0.7-0.6,0.9-0.7l1-0.3
		h-4.2L202.5,3.6z"/>
	<path class="st0" d="M223.4,9.7c-0.8-0.8-1.7-1.4-2.8-1.8c-1.1-0.4-2.3-0.6-3.6-0.6s-2.5,0.2-3.6,0.6c-1.1,0.4-2,1-2.8,1.8
		c-0.8,0.8-1.4,1.7-1.8,2.8c-0.4,1.1-0.6,2.3-0.6,3.6c0,1.3,0.2,2.5,0.6,3.6c0.4,1.1,1,2,1.8,2.8c0.8,0.8,1.7,1.4,2.8,1.8
		c1.1,0.4,2.3,0.6,3.6,0.6c1.3,0,2.5-0.2,3.6-0.6c1.1-0.4,2-1,2.8-1.8c0.8-0.8,1.4-1.7,1.8-2.8c0.4-1.1,0.6-2.3,0.6-3.6
		c0-1.3-0.2-2.5-0.6-3.6C224.8,11.4,224.2,10.5,223.4,9.7z M223.1,16.1c0,1.2-0.2,2.3-0.4,3.3c-0.3,1-0.7,1.9-1.2,2.6
		c-0.5,0.7-1.2,1.3-1.9,1.7c-0.7,0.4-1.6,0.6-2.5,0.6c-0.9,0-1.7-0.2-2.5-0.6c-0.7-0.4-1.4-1-1.9-1.7c-0.5-0.7-1-1.6-1.2-2.6
		c-0.3-1-0.4-2.1-0.4-3.3c0-1.2,0.2-2.3,0.4-3.3c0.3-1,0.7-1.8,1.2-2.6c0.5-0.7,1.2-1.3,1.9-1.7c0.7-0.4,1.6-0.6,2.5-0.6
		c0.9,0,1.7,0.2,2.5,0.6c0.7,0.4,1.4,0.9,1.9,1.7c0.5,0.7,1,1.6,1.2,2.6C223,13.8,223.1,14.9,223.1,16.1z"/>
	<path class="st0" d="M243.9,23.5c-0.1-0.4-0.2-1-0.2-1.9V7.1l-3.6,0.3l0.2,0.2c0.2,0.2,0.3,0.4,0.4,0.6c0.1,0.2,0.2,0.4,0.2,0.6
		c0.1,0.2,0.1,0.5,0.1,0.8c0,0.3,0,0.7,0,1.1v6.9c0,0.7-0.2,1.5-0.4,2.3c-0.2,0.8-0.6,1.5-1,2.1c-0.4,0.6-1,1.1-1.6,1.5
		c-0.6,0.4-1.4,0.6-2.3,0.6c-0.5,0-1.1-0.1-1.5-0.2c-0.4-0.2-0.8-0.4-1.1-0.8c-0.3-0.4-0.6-0.8-0.7-1.4c-0.2-0.6-0.3-1.3-0.3-2.2
		V7.1l-3.6,0.3l0.2,0.2c0.2,0.2,0.3,0.4,0.4,0.6c0.1,0.2,0.2,0.4,0.2,0.6c0.1,0.2,0.1,0.5,0.1,0.8c0,0.3,0,0.7,0,1.1v8.7
		c0,1.8,0.5,3.2,1.6,4.1c1,0.9,2.5,1.3,4.2,1.3c0.8,0,1.6-0.1,2.2-0.3c0.6-0.2,1.2-0.5,1.7-1c0.5-0.4,0.9-0.9,1.3-1.5
		c0.2-0.4,0.5-0.8,0.7-1.3v4l3.5-0.1l-0.3-0.3C244.2,24.3,244,23.9,243.9,23.5z"/>
	<path class="st0" d="M277.7,7.6c0.1,0.1,0.2,0.1,0.4,0.2c0.1,0.1,0.2,0.2,0.3,0.4c0.1,0.2,0.1,0.6,0.1,1c0,0.5-0.2,1.1-0.4,1.9
		l-3.2,9.7l-5.4-13.6H269l-4.2,13.4l-4.1-11.4c-0.3-0.7-0.2-1-0.2-1.2c0.1-0.2,0.2-0.4,0.4-0.5l0.4-0.3h-4.9l0.6,0.3
		c0.1,0.1,0.3,0.2,0.6,0.7c0.2,0.4,0.5,1,0.9,1.9l5.2,14.5l0,0.1h0.6l4.2-13.4l5.3,13.3l0,0.1h0.6l4.8-14.7c0.3-0.9,0.6-1.5,0.8-1.8
		c0.3-0.3,0.6-0.6,0.9-0.7l0.6-0.3h-4.2L277.7,7.6z"/>
	<path class="st0" d="M287.9,24.2c-0.2-0.1-0.3-0.3-0.4-0.4c-0.1-0.2-0.2-0.4-0.2-0.7c0-0.3-0.1-0.6-0.1-1V7.1l-3.6,0.3l0.2,0.2
		c0.2,0.2,0.3,0.4,0.4,0.6c0.1,0.2,0.2,0.4,0.2,0.6c0.1,0.2,0.1,0.5,0.1,0.8c0,0.3,0,0.7,0,1.1V22c0,0.4,0,0.8-0.1,1.1
		c0,0.3-0.1,0.5-0.2,0.7c-0.1,0.2-0.3,0.3-0.4,0.4c-0.2,0.1-0.4,0.2-0.8,0.3l-1,0.3h7.4l-0.9-0.3C288.3,24.4,288.1,24.3,287.9,24.2z
		"/>
	<path class="st0" d="M285.8,5.3c0.5,0,0.9-0.2,1.3-0.5c0.3-0.3,0.5-0.7,0.5-1.2c0-0.5-0.2-0.9-0.5-1.2c-0.3-0.3-0.8-0.5-1.3-0.5
		c-0.5,0-0.9,0.2-1.2,0.5c-0.3,0.3-0.5,0.7-0.5,1.2c0,0.5,0.2,0.9,0.5,1.2C284.9,5.1,285.3,5.3,285.8,5.3z"/>
	<path class="st0" d="M296.1,24.2c-0.2-0.1-0.3-0.2-0.4-0.4c-0.1-0.2-0.2-0.4-0.2-0.7c0-0.3-0.1-0.6-0.1-1V1.5l-3.6,0.4l0.3,0.2
		c0.3,0.2,0.5,0.5,0.6,0.7c0.1,0.3,0.1,0.7,0.1,1.3V22c0,0.4,0,0.8-0.1,1.1c0,0.3-0.1,0.5-0.2,0.7s-0.3,0.3-0.4,0.4
		c-0.2,0.1-0.4,0.2-0.8,0.3l-1,0.3h7.4l-0.9-0.3C296.5,24.4,296.3,24.3,296.1,24.2z"/>
	<path class="st0" d="M304.3,24.2c-0.2-0.1-0.3-0.3-0.4-0.4c-0.1-0.2-0.2-0.4-0.2-0.7c0-0.3-0.1-0.6-0.1-1V1.5L300,1.9l0.3,0.2
		c0.3,0.2,0.5,0.5,0.6,0.7c0.1,0.3,0.1,0.7,0.1,1.3V22c0,0.4,0,0.8-0.1,1.1c0,0.3-0.1,0.5-0.2,0.7s-0.3,0.3-0.4,0.4
		c-0.2,0.1-0.4,0.2-0.8,0.3l-1,0.3h7.4l-0.9-0.3C304.8,24.4,304.5,24.3,304.3,24.2z"/>
	<path class="st0" d="M332.5,9.5c-0.8-0.7-1.7-1.3-2.8-1.7c-1.1-0.4-2.3-0.6-3.6-0.6c-0.4,0-0.8,0-1.2,0.1c-0.4,0.1-0.9,0.2-1.3,0.3
		c-0.4,0.2-0.9,0.4-1.3,0.7c-0.3,0.2-0.6,0.5-0.9,0.8V1.5l-3.6,0.4l0.3,0.2c0.3,0.2,0.5,0.5,0.6,0.7c0.1,0.3,0.1,0.7,0.1,1.3v20.5
		l0.3,0.2l1.6-2c1.4,1.3,3.2,2,5.4,2c1.3,0,2.5-0.2,3.5-0.7s2-1.2,2.8-2c0.8-0.8,1.4-1.8,1.8-3c0.4-1.1,0.7-2.3,0.7-3.6
		c0-1.3-0.2-2.4-0.6-3.5C333.8,11.1,333.2,10.2,332.5,9.5z M326.2,24.1c-1.1,0-2.1-0.3-2.9-0.8c-0.8-0.6-1.5-1.4-2.1-2.5V10
		c0.6-0.8,1.3-1.3,2-1.6c0.8-0.3,1.6-0.4,2.3-0.4c1.1,0,2,0.2,2.9,0.7c0.8,0.5,1.5,1.1,2.1,1.9c0.6,0.8,1,1.7,1.3,2.8
		c0.3,1.1,0.4,2.2,0.4,3.4c0,1.1-0.1,2-0.4,2.9c-0.3,0.9-0.7,1.7-1.2,2.3c-0.5,0.6-1.1,1.2-1.9,1.5C328,23.9,327.1,24.1,326.2,24.1z
		"/>
	<path class="st0" d="M351.7,20.6c-0.4,0.7-0.9,1.4-1.4,1.9c-0.5,0.5-1.1,0.9-1.8,1.2c-0.6,0.3-1.4,0.4-2.1,0.4
		c-0.9,0-1.7-0.2-2.4-0.6c-0.7-0.4-1.4-1-1.9-1.7c-0.5-0.7-1-1.6-1.3-2.5c-0.3-1-0.5-2.1-0.5-3.2c0-0.3,0-0.6,0-0.9
		c0-0.3,0-0.5,0.1-0.8h12.8l0-0.2c0-1-0.2-2-0.5-2.8c-0.3-0.9-0.8-1.6-1.4-2.3c-0.6-0.6-1.4-1.1-2.3-1.5c-0.9-0.3-2-0.5-3.2-0.5
		c-1.3,0-2.5,0.2-3.5,0.7c-1,0.4-1.9,1.1-2.6,1.9c-0.7,0.8-1.3,1.8-1.7,2.8c-0.4,1.1-0.6,2.3-0.6,3.6c0,1.3,0.2,2.5,0.6,3.6
		c0.4,1.1,1.1,2,1.8,2.8c0.8,0.8,1.7,1.4,2.8,1.8c1.1,0.4,2.3,0.6,3.6,0.6c1.1,0,2.2-0.2,3.4-0.5c1.1-0.4,2.2-0.9,3.1-1.7l0.1,0
		l0.3-5.6l-0.4,1.1C352.5,19.1,352.1,19.9,351.7,20.6z M340.4,13.8c0.1-0.8,0.4-1.6,0.6-2.3c0.3-0.7,0.7-1.4,1.2-1.9
		c0.5-0.5,1-1,1.6-1.3c0.6-0.3,1.2-0.4,1.9-0.4c0.7,0,1.4,0.2,2,0.5c0.6,0.3,1.1,0.7,1.4,1.3c0.4,0.5,0.7,1.2,0.9,1.9
		c0.2,0.7,0.3,1.4,0.4,2.3H340.4z"/>
	<path class="st0" d="M380.9,9.5c-0.8-0.7-1.7-1.3-2.8-1.7c-1.1-0.4-2.3-0.6-3.6-0.6c-0.4,0-0.8,0-1.2,0.1c-0.4,0.1-0.9,0.2-1.3,0.3
		c-0.4,0.2-0.9,0.4-1.3,0.7c-0.3,0.2-0.6,0.5-0.9,0.8V1.5l-3.6,0.4l0.3,0.2c0.3,0.2,0.5,0.5,0.6,0.7c0.1,0.3,0.1,0.7,0.1,1.3v20.5
		l0.3,0.2l1.6-2c1.4,1.3,3.2,2,5.4,2c1.3,0,2.5-0.2,3.5-0.7s2-1.2,2.8-2c0.8-0.8,1.4-1.8,1.8-3c0.4-1.1,0.7-2.3,0.7-3.6
		c0-1.3-0.2-2.4-0.6-3.5C382.2,11.1,381.6,10.2,380.9,9.5z M374.6,24.1c-1.1,0-2.1-0.3-2.9-0.8c-0.8-0.6-1.5-1.4-2.1-2.5V10
		c0.6-0.8,1.3-1.3,2-1.6c0.8-0.3,1.6-0.4,2.3-0.4c1.1,0,2,0.2,2.9,0.7c0.8,0.5,1.5,1.1,2.1,1.9c0.6,0.8,1,1.7,1.3,2.8
		c0.3,1.1,0.4,2.2,0.4,3.4c0,1.1-0.1,2-0.4,2.9c-0.3,0.9-0.7,1.7-1.2,2.3c-0.5,0.6-1.1,1.2-1.9,1.5
		C376.4,23.9,375.5,24.1,374.6,24.1z"/>
	<path class="st0" d="M400.1,20.6c-0.4,0.7-0.9,1.4-1.4,1.9c-0.5,0.5-1.1,0.9-1.8,1.2c-0.6,0.3-1.4,0.4-2.1,0.4
		c-0.9,0-1.7-0.2-2.4-0.6c-0.7-0.4-1.4-1-1.9-1.7c-0.5-0.7-1-1.6-1.3-2.5c-0.3-1-0.5-2.1-0.5-3.2c0-0.3,0-0.6,0-0.9
		c0-0.3,0-0.5,0.1-0.8h12.8l0-0.2c0-1-0.2-2-0.5-2.8c-0.3-0.9-0.8-1.6-1.4-2.3c-0.6-0.6-1.4-1.1-2.3-1.5c-0.9-0.3-2-0.5-3.2-0.5
		c-1.3,0-2.5,0.2-3.5,0.7c-1,0.4-1.9,1.1-2.6,1.9c-0.7,0.8-1.3,1.8-1.7,2.8c-0.4,1.1-0.6,2.3-0.6,3.6c0,1.3,0.2,2.5,0.6,3.6
		c0.4,1.1,1.1,2,1.8,2.8c0.8,0.8,1.7,1.4,2.8,1.8c1.1,0.4,2.3,0.6,3.6,0.6c1.1,0,2.2-0.2,3.4-0.5c1.1-0.4,2.2-0.9,3.1-1.7l0.1,0
		l0.3-5.6l-0.4,1.1C400.9,19.1,400.5,19.9,400.1,20.6z M388.9,13.8c0.1-0.8,0.4-1.6,0.6-2.3c0.3-0.7,0.7-1.4,1.2-1.9
		c0.5-0.5,1-1,1.6-1.3c0.6-0.3,1.2-0.4,1.9-0.4c0.7,0,1.4,0.2,2,0.5c0.6,0.3,1.1,0.7,1.4,1.3c0.4,0.5,0.7,1.2,0.9,1.9
		c0.2,0.7,0.3,1.4,0.4,2.3H388.9z"/>
	<path class="st0" d="M414.1,22.3c-0.3,0.6-0.7,1-1.1,1.4c-0.4,0.3-0.8,0.5-1.4,0.5c-0.3,0-0.6,0-0.8-0.1c-0.2-0.1-0.4-0.2-0.5-0.5
		c-0.2-0.2-0.3-0.6-0.4-1c-0.1-0.4-0.1-1-0.1-1.6V8h5V7.3h-5V2.6l-2.4,4.7h-3.2V8h3v12.1c0,1.5,0.3,2.7,0.9,3.6
		c0.6,0.9,1.7,1.3,3.1,1.3c0.9,0,1.7-0.2,2.2-0.6c0.5-0.4,0.9-0.9,1.4-1.6l0.1-0.1l-0.7-0.5L414.1,22.3z"/>
	<path class="st0" d="M426.7,22.3c-0.3,0.6-0.7,1-1.1,1.4c-0.4,0.3-0.8,0.5-1.4,0.5c-0.3,0-0.6,0-0.8-0.1c-0.2-0.1-0.4-0.2-0.5-0.5
		c-0.2-0.2-0.3-0.6-0.4-1c-0.1-0.4-0.1-1-0.1-1.6V8h5V7.3h-5V2.6l-2.4,4.7h-3.2V8h3v12.1c0,1.5,0.3,2.7,0.9,3.6
		c0.6,0.9,1.7,1.3,3.1,1.3c0.9,0,1.7-0.2,2.2-0.6c0.5-0.4,0.9-0.9,1.4-1.6l0.1-0.1l-0.7-0.5L426.7,22.3z"/>
	<path class="st0" d="M444,20.6c-0.4,0.7-0.9,1.4-1.4,1.9c-0.5,0.5-1.1,0.9-1.8,1.2c-0.6,0.3-1.4,0.4-2.1,0.4
		c-0.9,0-1.7-0.2-2.4-0.6c-0.7-0.4-1.4-1-1.9-1.7c-0.5-0.7-1-1.6-1.3-2.5c-0.3-1-0.5-2.1-0.5-3.2c0-0.3,0-0.6,0-0.9
		c0-0.3,0-0.5,0.1-0.8h12.8l0-0.2c0-1-0.2-2-0.5-2.8c-0.3-0.9-0.8-1.6-1.4-2.3c-0.6-0.6-1.4-1.1-2.3-1.5c-0.9-0.3-2-0.5-3.2-0.5
		c-1.3,0-2.5,0.2-3.5,0.7c-1,0.4-1.9,1.1-2.6,1.9c-0.7,0.8-1.3,1.8-1.7,2.8c-0.4,1.1-0.6,2.3-0.6,3.6c0,1.3,0.2,2.5,0.6,3.6
		c0.4,1.1,1.1,2,1.8,2.8c0.8,0.8,1.7,1.4,2.8,1.8c1.1,0.4,2.3,0.6,3.6,0.6c1.1,0,2.2-0.2,3.4-0.5c1.1-0.4,2.2-0.9,3.1-1.7l0.1,0
		l0.3-5.6l-0.4,1.1C444.8,19.1,444.5,19.9,444,20.6z M432.8,13.8c0.1-0.8,0.4-1.6,0.6-2.3c0.3-0.7,0.7-1.4,1.2-1.9
		c0.5-0.5,1-1,1.6-1.3c0.6-0.3,1.2-0.4,1.9-0.4c0.7,0,1.4,0.2,2,0.5c0.6,0.3,1.1,0.7,1.4,1.3c0.4,0.5,0.7,1.2,0.9,1.9
		c0.2,0.7,0.3,1.4,0.4,2.3H432.8z"/>
	<path class="st0" d="M457.5,7.2c-0.7,0-1.3,0.1-1.9,0.3c-0.6,0.2-1,0.5-1.5,0.9c-0.4,0.4-0.8,0.8-1.1,1.3c-0.2,0.3-0.4,0.6-0.5,0.9
		V7.1L449,7.5l0.2,0.2c0.2,0.2,0.3,0.4,0.4,0.6c0.1,0.2,0.2,0.4,0.2,0.6c0.1,0.2,0.1,0.5,0.1,0.8c0,0.3,0,0.7,0,1.1V22
		c0,0.4,0,0.8-0.1,1.1c0,0.3-0.1,0.5-0.2,0.7c-0.1,0.2-0.3,0.3-0.4,0.4c-0.2,0.1-0.4,0.2-0.8,0.3l-1,0.3h7.4l-0.9-0.3
		c-0.3-0.1-0.5-0.2-0.7-0.3c-0.2-0.1-0.3-0.3-0.4-0.4c-0.1-0.2-0.2-0.4-0.2-0.7c0-0.3-0.1-0.6-0.1-1v-9.8c0.2-0.5,0.4-1,0.6-1.4
		c0.2-0.4,0.5-0.8,0.8-1.2c0.3-0.3,0.6-0.6,0.9-0.8c0.6-0.3,1.3-0.4,1.9-0.1c0.3,0.1,0.6,0.3,0.9,0.5c0.3,0.2,0.5,0.4,0.8,0.7
		c0.2,0.2,0.5,0.5,0.6,0.7l0.3,0.3l0-3.5l-0.1,0C458.8,7.3,458.2,7.2,457.5,7.2z"/>
	<path class="st0" d="M481.2,22.3c-0.3,0.6-0.7,1-1.1,1.4c-0.4,0.3-0.8,0.5-1.4,0.5c-0.3,0-0.6,0-0.8-0.1c-0.2-0.1-0.4-0.2-0.5-0.5
		c-0.2-0.2-0.3-0.6-0.4-1c-0.1-0.4-0.1-1-0.1-1.6V8h5V7.3h-5V2.6l-2.4,4.7h-3.2V8h3v12.1c0,1.5,0.3,2.7,0.9,3.6
		c0.6,0.9,1.7,1.3,3.1,1.3c0.9,0,1.7-0.2,2.2-0.6c0.5-0.4,0.9-0.9,1.4-1.6l0.1-0.1l-0.7-0.5L481.2,22.3z"/>
	<path class="st0" d="M501.8,24.2c-0.2-0.1-0.3-0.3-0.4-0.4c-0.1-0.2-0.2-0.4-0.2-0.7c0-0.3-0.1-0.6-0.1-1v-9c0-0.8-0.1-1.6-0.4-2.3
		c-0.3-0.7-0.7-1.3-1.2-1.9c-0.5-0.5-1.2-0.9-2-1.2c-0.8-0.3-1.6-0.4-2.6-0.4c-1.7,0-3.2,0.4-4.3,1.3c-0.9,0.7-1.7,1.7-2.2,2.8V1.5
		l-3.6,0.4l0.3,0.2c0.3,0.2,0.5,0.5,0.6,0.7c0.1,0.3,0.1,0.7,0.1,1.3V22c0,0.4,0,0.8-0.1,1.1c0,0.3-0.1,0.5-0.2,0.7
		c-0.1,0.2-0.3,0.3-0.4,0.4c-0.2,0.1-0.4,0.2-0.8,0.3l-1,0.3h7.4l-0.9-0.3c-0.3-0.1-0.5-0.2-0.7-0.3c-0.2-0.1-0.3-0.2-0.4-0.4
		c-0.1-0.2-0.2-0.4-0.2-0.7c0-0.3-0.1-0.6-0.1-1l0-7.5c0.1-1,0.3-2,0.6-2.8c0.3-0.8,0.8-1.5,1.3-2c0.5-0.5,1.2-1,1.9-1.3
		c0.7-0.3,1.4-0.4,2.2-0.4c1.3,0,2.4,0.4,3.1,1.2c0.7,0.8,1.1,2,1.1,3.5V22c0,0.4,0,0.8-0.1,1.1c0,0.3-0.1,0.5-0.2,0.7
		s-0.3,0.3-0.4,0.4c-0.2,0.1-0.4,0.2-0.8,0.3l-1,0.3h7.4l-0.9-0.3C502.2,24.4,502,24.3,501.8,24.2z"/>
	<path class="st0" d="M518.6,23.5c-0.1-0.4-0.2-0.9-0.2-1.5v-9.6c0-1.7-0.5-3-1.6-3.9c-1.1-0.9-2.5-1.3-4.3-1.3
		c-1.2,0-2.3,0.2-3.4,0.5c-1.1,0.3-2.1,0.8-2.8,1.4l-0.1,0.1l0.2,6.4l0.3-1.2c0.3-1.3,0.6-2.3,1.1-3.2c0.4-0.8,0.9-1.5,1.4-2
		c0.5-0.5,1-0.8,1.6-1c0.6-0.2,1.1-0.3,1.7-0.3c1.2,0,2,0.3,2.6,1c0.6,0.7,0.9,1.8,0.9,3.2v2.1l-3.2,0.8h0c-0.7,0.2-1.5,0.4-2.4,0.7
		c-0.9,0.3-1.7,0.6-2.4,1c-0.8,0.4-1.4,1-1.9,1.6c-0.5,0.7-0.8,1.5-0.8,2.4c0,0.7,0.1,1.3,0.4,1.8c0.3,0.5,0.6,1,1.1,1.3
		c0.5,0.3,1,0.6,1.7,0.8c0.6,0.2,1.4,0.2,2.1,0.2c0.8,0,1.6-0.1,2.2-0.3c0.6-0.2,1.2-0.5,1.7-0.9c0.5-0.4,0.9-0.8,1.2-1.3
		c0.2-0.3,0.3-0.6,0.5-0.8v3.4l3.5-0.1l-0.3-0.3C519,24.3,518.8,23.9,518.6,23.5z M515.9,18.6c0,0.9-0.2,1.7-0.5,2.4
		c-0.3,0.7-0.7,1.3-1.2,1.7c-0.5,0.5-1,0.8-1.6,1c-0.6,0.2-1.1,0.4-1.7,0.4c-1,0-1.7-0.3-2.2-0.9c-0.5-0.6-0.8-1.5-0.8-2.4
		c0-0.9,0.2-1.6,0.5-2.2c0.3-0.6,0.8-1.1,1.3-1.4c0.5-0.4,1-0.6,1.6-0.8c0.6-0.2,1.1-0.4,1.5-0.5l3.1-0.7L515.9,18.6z"/>
	<path class="st0" d="M539.6,24.2c-0.2-0.1-0.3-0.3-0.4-0.4c-0.1-0.2-0.2-0.4-0.2-0.7c0-0.3-0.1-0.6-0.1-1v-9c0-0.8-0.1-1.6-0.4-2.3
		c-0.3-0.7-0.7-1.3-1.2-1.9c-0.5-0.5-1.2-0.9-2-1.2c-0.8-0.3-1.6-0.4-2.6-0.4c-1.7,0-3.2,0.4-4.3,1.3c-0.9,0.7-1.7,1.7-2.2,2.8V7.1
		l-3.6,0.3l0.2,0.2c0.2,0.2,0.3,0.4,0.4,0.6c0.1,0.2,0.2,0.4,0.2,0.6c0.1,0.2,0.1,0.5,0.1,0.8c0,0.3,0,0.7,0,1.1V22
		c0,0.4,0,0.8-0.1,1.1c0,0.3-0.1,0.5-0.2,0.7c-0.1,0.2-0.3,0.3-0.4,0.4c-0.2,0.1-0.4,0.2-0.8,0.3l-1,0.3h7.4l-0.9-0.3
		c-0.3-0.1-0.5-0.2-0.7-0.3c-0.2-0.1-0.3-0.3-0.4-0.4c-0.1-0.2-0.2-0.4-0.2-0.7c0-0.3-0.1-0.6-0.1-1l0-7.5c0.1-1,0.3-2,0.6-2.8
		c0.3-0.8,0.8-1.5,1.3-2c0.5-0.5,1.2-1,1.9-1.3c0.7-0.3,1.4-0.4,2.2-0.4c1.3,0,2.4,0.4,3.1,1.2c0.7,0.8,1.1,2,1.1,3.5V22
		c0,0.4,0,0.8-0.1,1.1c0,0.3-0.1,0.5-0.2,0.7c-0.1,0.2-0.3,0.3-0.4,0.4c-0.2,0.1-0.4,0.2-0.8,0.3l-1,0.3h7.4l-0.9-0.3
		C540.1,24.4,539.8,24.3,539.6,24.2z"/>
	<path class="st0" d="M565.7,7.9c0.1,0.1,0.2,0.2,0.3,0.3c0.1,0.1,0.1,0.3,0.1,0.6c0,0.2,0,0.5-0.2,0.9l-4.7,12l-4.9-12
		c-0.3-0.8-0.3-1.2-0.3-1.4c0.1-0.3,0.2-0.4,0.3-0.6l0.3-0.3h-4.8l0.5,0.3c0.1,0.1,0.3,0.3,0.5,0.5c0.2,0.2,0.4,0.7,0.7,1.3
		l6.4,15.4c-0.3,0.9-0.8,1.5-1.3,1.9c-1.1,0.8-2.5,0.8-4,0l-0.4-0.2l1.2,3.5l0.1,0c0.7-0.1,1.3-0.3,1.9-0.7c0.5-0.3,1-0.7,1.3-1.2
		c0.4-0.4,0.7-0.9,0.9-1.3c0.2-0.4,0.4-0.8,0.6-1.2l6.4-16c0.3-0.7,0.6-1.1,0.9-1.4c0.3-0.3,0.6-0.5,0.7-0.6l0.4-0.3h-3.8L565.7,7.9
		z"/>
	<path class="st0" d="M585.9,9.7c-0.8-0.8-1.7-1.4-2.8-1.8c-1.1-0.4-2.3-0.6-3.6-0.6c-1.3,0-2.5,0.2-3.6,0.6c-1.1,0.4-2,1-2.8,1.8
		c-0.8,0.8-1.4,1.7-1.8,2.8c-0.4,1.1-0.6,2.3-0.6,3.6c0,1.3,0.2,2.5,0.6,3.6c0.4,1.1,1,2,1.8,2.8c0.8,0.8,1.7,1.4,2.8,1.8
		c1.1,0.4,2.3,0.6,3.6,0.6c1.3,0,2.5-0.2,3.6-0.6c1.1-0.4,2-1,2.8-1.8c0.8-0.8,1.4-1.7,1.8-2.8c0.4-1.1,0.6-2.3,0.6-3.6
		c0-1.3-0.2-2.5-0.6-3.6C587.3,11.4,586.7,10.5,585.9,9.7z M585.6,16.1c0,1.2-0.2,2.3-0.4,3.3c-0.3,1-0.7,1.9-1.2,2.6
		c-0.5,0.7-1.2,1.3-1.9,1.7c-0.7,0.4-1.6,0.6-2.5,0.6c-0.9,0-1.7-0.2-2.5-0.6c-0.7-0.4-1.4-1-1.9-1.7c-0.5-0.7-1-1.6-1.2-2.6
		c-0.3-1-0.4-2.1-0.4-3.3c0-1.2,0.2-2.3,0.4-3.3c0.3-1,0.7-1.9,1.2-2.6c0.5-0.7,1.2-1.3,1.9-1.7c0.7-0.4,1.6-0.6,2.5-0.6
		c0.9,0,1.7,0.2,2.5,0.6c0.7,0.4,1.4,0.9,1.9,1.7c0.5,0.7,1,1.6,1.2,2.6C585.4,13.8,585.6,14.9,585.6,16.1z"/>
	<path class="st0" d="M606.3,23.5c-0.1-0.4-0.2-1-0.2-1.9V7.1l-3.6,0.3l0.2,0.2c0.2,0.2,0.3,0.4,0.4,0.6c0.1,0.2,0.2,0.4,0.2,0.6
		c0.1,0.2,0.1,0.5,0.1,0.8c0,0.3,0,0.7,0,1.1v6.9c0,0.7-0.2,1.5-0.4,2.3c-0.2,0.8-0.6,1.5-1,2.1c-0.4,0.6-1,1.1-1.6,1.5
		c-0.6,0.4-1.4,0.6-2.3,0.6c-0.5,0-1.1-0.1-1.5-0.2c-0.4-0.2-0.8-0.4-1.1-0.8c-0.3-0.4-0.6-0.8-0.7-1.4c-0.2-0.6-0.3-1.3-0.3-2.2
		V7.1L591,7.5l0.2,0.2c0.2,0.2,0.3,0.4,0.4,0.6c0.1,0.2,0.2,0.4,0.2,0.6c0.1,0.2,0.1,0.5,0.1,0.8c0,0.3,0,0.7,0,1.1v8.7
		c0,1.8,0.5,3.2,1.6,4.1c1,0.9,2.5,1.3,4.2,1.3c0.8,0,1.6-0.1,2.2-0.3c0.6-0.2,1.2-0.5,1.7-1c0.5-0.4,0.9-0.9,1.3-1.5
		c0.2-0.4,0.5-0.8,0.7-1.3v4l3.5-0.1l-0.3-0.3C606.7,24.3,606.5,23.9,606.3,23.5z"/>
	<path class="st0" d="M633.4,23.5c-0.1-0.4-0.2-0.9-0.2-1.5v-9.6c0-1.7-0.5-3-1.6-3.9c-1.1-0.9-2.5-1.3-4.3-1.3
		c-1.2,0-2.3,0.2-3.4,0.5c-1.1,0.3-2.1,0.8-2.8,1.4l-0.1,0.1l0.2,6.4l0.3-1.2c0.3-1.3,0.6-2.3,1.1-3.2c0.4-0.8,0.9-1.5,1.4-2
		c0.5-0.5,1-0.8,1.6-1c0.6-0.2,1.1-0.3,1.7-0.3c1.2,0,2,0.3,2.6,1c0.6,0.7,0.9,1.8,0.9,3.2v2.1l-3.2,0.8h0c-0.7,0.2-1.5,0.4-2.4,0.7
		c-0.9,0.3-1.7,0.6-2.4,1c-0.8,0.4-1.4,1-1.9,1.6c-0.5,0.7-0.8,1.5-0.8,2.4c0,0.7,0.1,1.3,0.4,1.8c0.3,0.5,0.6,1,1.1,1.3
		c0.5,0.3,1,0.6,1.7,0.8c0.6,0.2,1.4,0.2,2.1,0.2c0.8,0,1.6-0.1,2.2-0.3c0.6-0.2,1.2-0.5,1.7-0.9c0.5-0.4,0.9-0.8,1.2-1.3
		c0.2-0.3,0.3-0.6,0.5-0.8v3.4l3.5-0.1l-0.3-0.3C633.7,24.3,633.5,23.9,633.4,23.5z M630.6,18.6c0,0.9-0.2,1.7-0.5,2.4
		c-0.3,0.7-0.7,1.3-1.2,1.7c-0.5,0.5-1,0.8-1.6,1c-0.6,0.2-1.1,0.4-1.7,0.4c-1,0-1.7-0.3-2.2-0.9c-0.5-0.6-0.8-1.5-0.8-2.4
		c0-0.9,0.2-1.6,0.5-2.2c0.3-0.6,0.8-1.1,1.3-1.4c0.5-0.4,1-0.6,1.6-0.8c0.6-0.2,1.1-0.4,1.5-0.5l3.1-0.7L630.6,18.6z"/>
	<path class="st0" d="M645.8,7.2c-0.7,0-1.3,0.1-1.9,0.3c-0.6,0.2-1,0.5-1.5,0.9c-0.4,0.4-0.8,0.8-1.1,1.3c-0.2,0.3-0.4,0.6-0.5,0.9
		V7.1l-3.5,0.3l0.2,0.2c0.2,0.2,0.3,0.4,0.4,0.6c0.1,0.2,0.2,0.4,0.2,0.6c0.1,0.2,0.1,0.5,0.1,0.8c0,0.3,0,0.7,0,1.1V22
		c0,0.4,0,0.8-0.1,1.1c0,0.3-0.1,0.5-0.2,0.7c-0.1,0.2-0.3,0.3-0.4,0.4c-0.2,0.1-0.4,0.2-0.8,0.3l-1,0.3h7.4l-0.9-0.3
		c-0.3-0.1-0.5-0.2-0.7-0.3c-0.2-0.1-0.3-0.3-0.4-0.4c-0.1-0.2-0.2-0.4-0.2-0.7c0-0.3-0.1-0.6-0.1-1v-9.8c0.2-0.5,0.4-1,0.6-1.4
		c0.2-0.4,0.5-0.8,0.8-1.2c0.3-0.3,0.6-0.6,0.9-0.8c0.6-0.3,1.3-0.4,1.9-0.1c0.3,0.1,0.6,0.3,0.9,0.5c0.3,0.2,0.5,0.4,0.8,0.7
		c0.2,0.2,0.5,0.5,0.6,0.7l0.3,0.3l0-3.5l-0.1,0C647.1,7.3,646.5,7.2,645.8,7.2z"/>
	<path class="st0" d="M664.3,20.6c-0.4,0.7-0.9,1.4-1.4,1.9c-0.5,0.5-1.1,0.9-1.8,1.2c-0.6,0.3-1.4,0.4-2.1,0.4
		c-0.9,0-1.7-0.2-2.4-0.6c-0.7-0.4-1.4-1-1.9-1.7c-0.5-0.7-1-1.6-1.3-2.5c-0.3-1-0.5-2.1-0.5-3.2c0-0.3,0-0.6,0-0.9
		c0-0.3,0-0.5,0.1-0.8h12.8l0-0.2c0-1-0.2-2-0.5-2.8c-0.3-0.9-0.8-1.6-1.4-2.3c-0.6-0.6-1.4-1.1-2.3-1.5c-0.9-0.3-2-0.5-3.2-0.5
		c-1.3,0-2.5,0.2-3.5,0.7c-1,0.4-1.9,1.1-2.6,1.9c-0.7,0.8-1.3,1.8-1.7,2.8c-0.4,1.1-0.6,2.3-0.6,3.6c0,1.3,0.2,2.5,0.6,3.6
		c0.4,1.1,1.1,2,1.8,2.8c0.8,0.8,1.7,1.4,2.8,1.8c1.1,0.4,2.3,0.6,3.6,0.6c1.1,0,2.2-0.2,3.4-0.5c1.1-0.4,2.2-0.9,3.1-1.7l0.1,0
		l0.3-5.6l-0.4,1.1C665.1,19.1,664.7,19.9,664.3,20.6z M653,13.8c0.1-0.8,0.4-1.6,0.6-2.3c0.3-0.7,0.7-1.4,1.2-1.9
		c0.5-0.5,1-1,1.6-1.3c0.6-0.3,1.2-0.4,1.9-0.4c0.7,0,1.4,0.2,2,0.5c0.6,0.3,1.1,0.7,1.4,1.3c0.4,0.5,0.7,1.2,0.9,1.9
		c0.2,0.7,0.3,1.4,0.4,2.3H653z"/>
	<path class="st0" d="M672.1,22.3c-0.4,0-0.7,0.1-1,0.4c-0.3,0.2-0.4,0.6-0.4,0.9c0,0.4,0.1,0.7,0.4,1c0.3,0.2,0.6,0.4,1,0.4
		c0.4,0,0.7-0.1,1-0.4c0.3-0.2,0.4-0.6,0.4-1c0-0.4-0.1-0.7-0.4-0.9C672.8,22.4,672.5,22.3,672.1,22.3z"/>
	<path class="st0" d="M701.8,21.5c-0.3,0.6-0.6,1.1-0.9,1.5c-0.4,0.4-0.8,0.6-1.3,0.7c-0.5,0.1-1.1,0.2-1.9,0.2h-5V6.2
		c0-0.4,0-0.8,0.1-1.1c0.1-0.3,0.1-0.5,0.3-0.7c0.1-0.2,0.3-0.3,0.4-0.4c0.2-0.1,0.4-0.2,0.7-0.3l1-0.3h-7.9l1.3,0.3
		c0.3,0.1,0.6,0.2,0.8,0.3c0.2,0.1,0.3,0.3,0.4,0.4c0.1,0.2,0.2,0.4,0.2,0.7c0,0.3,0.1,0.6,0.1,1.1V22c0,0.8-0.1,1.4-0.3,1.8
		c-0.2,0.3-0.6,0.6-1.2,0.7l-1.1,0.3h14.7l0.6-5.8l-0.3-0.1C702.4,20,702.1,20.9,701.8,21.5z"/>
	<path class="st0" d="M720.1,20.6c-0.4,0.7-0.9,1.4-1.4,1.9c-0.5,0.5-1.1,0.9-1.8,1.2c-0.6,0.3-1.4,0.4-2.1,0.4
		c-0.9,0-1.7-0.2-2.4-0.6c-0.7-0.4-1.4-1-1.9-1.7c-0.5-0.7-1-1.6-1.3-2.5c-0.3-1-0.5-2.1-0.5-3.2c0-0.3,0-0.6,0-0.9
		c0-0.3,0-0.5,0.1-0.8h12.8l0-0.2c0-1-0.2-2-0.5-2.8c-0.3-0.9-0.8-1.6-1.4-2.3c-0.6-0.6-1.4-1.1-2.3-1.5c-0.9-0.3-2-0.5-3.2-0.5
		c-1.3,0-2.5,0.2-3.5,0.7c-1,0.4-1.9,1.1-2.6,1.9c-0.7,0.8-1.3,1.8-1.7,2.8c-0.4,1.1-0.6,2.3-0.6,3.6c0,1.3,0.2,2.5,0.6,3.6
		c0.4,1.1,1.1,2,1.8,2.8c0.8,0.8,1.7,1.4,2.8,1.8c1.1,0.4,2.3,0.6,3.6,0.6c1.1,0,2.2-0.2,3.4-0.5c1.1-0.4,2.2-0.9,3.1-1.7l0.1,0
		l0.3-5.6l-0.4,1.1C720.9,19.1,720.5,19.9,720.1,20.6z M708.8,13.8c0.1-0.8,0.4-1.6,0.6-2.3c0.3-0.7,0.7-1.4,1.2-1.9
		c0.5-0.5,1-1,1.6-1.3c0.6-0.3,1.2-0.4,1.9-0.4c0.7,0,1.4,0.2,2,0.5c0.6,0.3,1.1,0.7,1.4,1.3c0.4,0.5,0.7,1.2,0.9,1.9
		c0.2,0.7,0.3,1.4,0.4,2.3H708.8z"/>
	<path class="st0" d="M734.1,22.3c-0.3,0.6-0.7,1-1.1,1.4c-0.4,0.3-0.8,0.5-1.4,0.5c-0.3,0-0.6,0-0.8-0.1c-0.2-0.1-0.4-0.2-0.5-0.5
		c-0.2-0.2-0.3-0.6-0.4-1c-0.1-0.4-0.1-1-0.1-1.6V8h5V7.3h-5V2.6l-2.4,4.7h-3.2V8h3v12.1c0,1.5,0.3,2.7,0.9,3.6
		c0.6,0.9,1.7,1.3,3.1,1.3c0.9,0,1.7-0.2,2.2-0.6c0.5-0.4,0.9-0.9,1.4-1.6l0.1-0.1l-0.7-0.5L734.1,22.3z"/>
	<path class="st0" d="M759.9,7.9c0.1,0.1,0.2,0.2,0.3,0.3c0.1,0.1,0.1,0.3,0.1,0.6c0,0.2,0,0.5-0.2,0.9l-4.7,12l-4.9-12
		c-0.3-0.8-0.3-1.2-0.3-1.4c0.1-0.3,0.2-0.4,0.3-0.6l0.3-0.3h-4.8l0.5,0.3c0.1,0.1,0.3,0.3,0.5,0.5c0.2,0.2,0.4,0.7,0.7,1.3
		l6.4,15.4c-0.3,0.9-0.8,1.5-1.3,1.9c-1.1,0.8-2.5,0.8-4,0l-0.4-0.2l1.2,3.5l0.1,0c0.7-0.1,1.3-0.3,1.9-0.7c0.5-0.3,1-0.7,1.3-1.2
		c0.4-0.4,0.7-0.9,0.9-1.3c0.2-0.4,0.4-0.8,0.6-1.2l6.4-16c0.3-0.7,0.6-1.1,0.9-1.4c0.3-0.3,0.6-0.5,0.7-0.6l0.4-0.3h-3.8L759.9,7.9
		z"/>
	<path class="st0" d="M780.1,9.7c-0.8-0.8-1.7-1.4-2.8-1.8c-1.1-0.4-2.3-0.6-3.6-0.6c-1.3,0-2.5,0.2-3.6,0.6c-1.1,0.4-2,1-2.8,1.8
		c-0.8,0.8-1.4,1.7-1.8,2.8c-0.4,1.1-0.6,2.3-0.6,3.6c0,1.3,0.2,2.5,0.6,3.6c0.4,1.1,1,2,1.8,2.8c0.8,0.8,1.7,1.4,2.8,1.8
		c1.1,0.4,2.3,0.6,3.6,0.6c1.3,0,2.5-0.2,3.6-0.6c1.1-0.4,2-1,2.8-1.8c0.8-0.8,1.4-1.7,1.8-2.8c0.4-1.1,0.6-2.3,0.6-3.6
		c0-1.3-0.2-2.5-0.6-3.6C781.5,11.4,780.9,10.5,780.1,9.7z M779.8,16.1c0,1.2-0.2,2.3-0.4,3.3c-0.3,1-0.7,1.9-1.2,2.6
		c-0.5,0.7-1.2,1.3-1.9,1.7c-0.7,0.4-1.6,0.6-2.5,0.6c-0.9,0-1.7-0.2-2.5-0.6c-0.7-0.4-1.4-1-1.9-1.7c-0.5-0.7-1-1.6-1.2-2.6
		c-0.3-1-0.4-2.1-0.4-3.3c0-1.2,0.2-2.3,0.4-3.3c0.3-1,0.7-1.9,1.2-2.6c0.5-0.7,1.2-1.3,1.9-1.7c0.7-0.4,1.6-0.6,2.5-0.6
		c0.9,0,1.7,0.2,2.5,0.6c0.7,0.4,1.4,0.9,1.9,1.7c0.5,0.7,1,1.6,1.2,2.6C779.6,13.8,779.8,14.9,779.8,16.1z"/>
	<path class="st0" d="M800.5,23.5c-0.1-0.4-0.2-1-0.2-1.9V7.1l-3.6,0.3l0.2,0.2c0.2,0.2,0.3,0.4,0.4,0.6c0.1,0.2,0.2,0.4,0.2,0.6
		c0.1,0.2,0.1,0.5,0.1,0.8c0,0.3,0,0.7,0,1.1v6.9c0,0.7-0.2,1.5-0.4,2.3c-0.2,0.8-0.6,1.5-1,2.1c-0.4,0.6-1,1.1-1.6,1.5
		c-0.6,0.4-1.4,0.6-2.3,0.6c-0.5,0-1.1-0.1-1.5-0.2c-0.4-0.2-0.8-0.4-1.1-0.8c-0.3-0.4-0.6-0.8-0.7-1.4c-0.2-0.6-0.3-1.3-0.3-2.2
		V7.1l-3.6,0.3l0.2,0.2c0.2,0.2,0.3,0.4,0.4,0.6c0.1,0.2,0.2,0.4,0.2,0.6c0.1,0.2,0.1,0.5,0.1,0.8c0,0.3,0,0.7,0,1.1v8.7
		c0,1.8,0.5,3.2,1.6,4.1c1,0.9,2.5,1.3,4.2,1.3c0.8,0,1.6-0.1,2.2-0.3c0.6-0.2,1.2-0.5,1.7-1c0.5-0.4,0.9-0.9,1.3-1.5
		c0.2-0.4,0.5-0.8,0.7-1.3v4l3.5-0.1l-0.3-0.3C800.9,24.3,800.7,23.9,800.5,23.5z"/>
	<path class="st0" d="M813.1,7.2c-0.7,0-1.3,0.1-1.9,0.3c-0.6,0.2-1,0.5-1.5,0.9c-0.4,0.4-0.8,0.8-1.1,1.3c-0.2,0.3-0.4,0.6-0.5,0.9
		V7.1l-3.5,0.3l0.2,0.2c0.2,0.2,0.3,0.4,0.4,0.6c0.1,0.2,0.2,0.4,0.2,0.6c0.1,0.2,0.1,0.5,0.1,0.8c0,0.3,0,0.7,0,1.1V22
		c0,0.4,0,0.8-0.1,1.1c0,0.3-0.1,0.5-0.2,0.7c-0.1,0.2-0.3,0.3-0.4,0.4c-0.2,0.1-0.4,0.2-0.8,0.3l-1,0.3h7.4l-0.9-0.3
		c-0.3-0.1-0.5-0.2-0.7-0.3c-0.2-0.1-0.3-0.3-0.4-0.4c-0.1-0.2-0.2-0.4-0.2-0.7c0-0.3-0.1-0.6-0.1-1v-9.8c0.2-0.5,0.4-1,0.6-1.4
		c0.2-0.4,0.5-0.8,0.8-1.2c0.3-0.3,0.6-0.6,0.9-0.8c0.6-0.3,1.3-0.4,1.9-0.1c0.3,0.1,0.6,0.3,0.9,0.5c0.3,0.2,0.5,0.4,0.8,0.7
		c0.2,0.2,0.5,0.5,0.6,0.7l0.3,0.3l0-3.5l-0.1,0C814.4,7.3,813.8,7.2,813.1,7.2z"/>
	<path class="st0" d="M838.4,16c-0.5-0.4-0.9-0.7-1.4-0.9c-0.5-0.2-0.9-0.4-1.3-0.5l-2.9-1c-0.3-0.1-0.6-0.2-1-0.3
		c-0.3-0.1-0.6-0.3-0.9-0.5c-0.3-0.2-0.5-0.5-0.7-0.8c-0.2-0.3-0.3-0.7-0.3-1.1c0-1,0.3-1.8,1-2.3c0.7-0.5,1.6-0.7,2.6-0.7
		c1.3,0,2.4,0.4,3.2,1.3c0.8,0.8,1.5,2.3,1.9,4.2l0.3,1l0.3-5.2l-0.1-0.1c-0.7-0.6-1.5-1.1-2.4-1.4c-0.9-0.3-2-0.5-3.1-0.5
		c-1.7,0-3,0.4-4,1.2c-1,0.8-1.5,1.9-1.5,3.3c0,0.7,0.1,1.3,0.4,1.8c0.3,0.5,0.6,0.9,1,1.3c0.4,0.4,0.8,0.6,1.2,0.9
		c0.4,0.2,0.8,0.4,1.1,0.5l3.2,1.1c0.3,0.1,0.6,0.2,1,0.4c0.3,0.1,0.7,0.3,1,0.6c0.3,0.3,0.6,0.6,0.8,1c0.2,0.4,0.3,0.9,0.3,1.5
		c0,1-0.3,1.9-1,2.6c-0.7,0.7-1.8,1-3.2,1c-0.7,0-1.4-0.1-2-0.3c-0.6-0.2-1.2-0.6-1.6-1.1c-0.5-0.5-0.9-1.2-1.2-2.1
		c-0.3-0.9-0.6-2-0.7-3.4h-0.3l-0.5,5.8l0.1,0.1c0.7,0.6,1.6,1,2.7,1.3c1.1,0.3,2.2,0.5,3.4,0.5c1.1,0,2-0.1,2.8-0.4
		c0.8-0.3,1.5-0.6,2.1-1.1c0.6-0.5,1-1,1.3-1.7c0.3-0.6,0.4-1.4,0.4-2.1c0-0.8-0.2-1.5-0.5-2.1C839.3,16.9,838.9,16.4,838.4,16z"/>
	<path class="st0" d="M857.2,20.6c-0.4,0.7-0.9,1.4-1.4,1.9c-0.5,0.5-1.1,0.9-1.8,1.2c-0.6,0.3-1.4,0.4-2.1,0.4
		c-0.9,0-1.7-0.2-2.4-0.6c-0.7-0.4-1.4-1-1.9-1.7c-0.5-0.7-1-1.6-1.3-2.5c-0.3-1-0.5-2.1-0.5-3.2c0-0.3,0-0.6,0-0.9
		c0-0.3,0-0.5,0.1-0.8h12.8l0-0.2c0-1-0.2-2-0.5-2.8c-0.3-0.9-0.8-1.6-1.4-2.3c-0.6-0.6-1.4-1.1-2.3-1.5c-0.9-0.3-2-0.5-3.2-0.5
		c-1.3,0-2.5,0.2-3.5,0.7c-1,0.4-1.9,1.1-2.6,1.9c-0.7,0.8-1.3,1.8-1.7,2.8c-0.4,1.1-0.6,2.3-0.6,3.6c0,1.3,0.2,2.5,0.6,3.6
		c0.4,1.1,1.1,2,1.8,2.8c0.8,0.8,1.7,1.4,2.8,1.8c1.1,0.4,2.3,0.6,3.6,0.6c1.1,0,2.2-0.2,3.4-0.5c1.1-0.4,2.2-0.9,3.1-1.7l0.1,0
		l0.3-5.6l-0.4,1.1C858,19.1,857.6,19.9,857.2,20.6z M845.9,13.8c0.1-0.8,0.4-1.6,0.6-2.3c0.3-0.7,0.7-1.4,1.2-1.9
		c0.5-0.5,1-1,1.6-1.3c0.6-0.3,1.2-0.4,1.9-0.4c0.7,0,1.4,0.2,2,0.5c0.6,0.3,1.1,0.7,1.4,1.3c0.4,0.5,0.7,1.2,0.9,1.9
		c0.2,0.7,0.3,1.4,0.4,2.3H845.9z"/>
	<path class="st0" d="M879.2,24.2c-0.2-0.1-0.3-0.2-0.4-0.4c-0.1-0.2-0.2-0.4-0.2-0.7c0-0.3-0.1-0.6-0.1-1v-9c0-0.8-0.1-1.6-0.4-2.3
		c-0.3-0.7-0.7-1.3-1.2-1.9c-0.5-0.5-1.2-0.9-2-1.2c-0.8-0.3-1.6-0.4-2.6-0.4c-1.7,0-3.2,0.4-4.3,1.3c-0.9,0.7-1.7,1.7-2.2,2.8V7.1
		l-3.6,0.3l0.2,0.2c0.2,0.2,0.3,0.4,0.4,0.6c0.1,0.2,0.2,0.4,0.2,0.6c0.1,0.2,0.1,0.5,0.1,0.8c0,0.3,0,0.7,0,1.1V22
		c0,0.4,0,0.8-0.1,1.1c0,0.3-0.1,0.5-0.2,0.7c-0.1,0.2-0.3,0.3-0.4,0.4c-0.2,0.1-0.4,0.2-0.8,0.3l-1,0.3h7.4l-0.9-0.3
		c-0.3-0.1-0.5-0.2-0.7-0.3c-0.2-0.1-0.3-0.3-0.4-0.4c-0.1-0.2-0.2-0.4-0.2-0.7c0-0.3-0.1-0.6-0.1-1l0-7.5c0.1-1,0.3-2,0.6-2.8
		c0.3-0.8,0.8-1.5,1.3-2c0.5-0.5,1.2-1,1.9-1.3c0.7-0.3,1.4-0.4,2.2-0.4c1.3,0,2.4,0.4,3.1,1.2c0.7,0.8,1.1,2,1.1,3.5V22
		c0,0.4,0,0.8-0.1,1.1c0,0.3-0.1,0.5-0.2,0.7c-0.1,0.2-0.3,0.3-0.4,0.4c-0.2,0.1-0.4,0.2-0.8,0.3l-1,0.3h7.4l-0.9-0.3
		C879.6,24.4,879.4,24.3,879.2,24.2z"/>
	<path class="st0" d="M893.7,16c-0.5-0.4-0.9-0.7-1.4-0.9c-0.5-0.2-0.9-0.4-1.3-0.5l-2.9-1c-0.3-0.1-0.6-0.2-1-0.3
		c-0.3-0.1-0.6-0.3-0.9-0.5c-0.3-0.2-0.5-0.5-0.7-0.8c-0.2-0.3-0.3-0.7-0.3-1.1c0-1,0.3-1.8,1-2.3c0.7-0.5,1.6-0.7,2.6-0.7
		c1.3,0,2.4,0.4,3.2,1.3c0.8,0.8,1.5,2.3,1.9,4.2l0.3,1l0.3-5.2l-0.1-0.1c-0.7-0.6-1.5-1.1-2.4-1.4c-0.9-0.3-2-0.5-3.1-0.5
		c-1.7,0-3,0.4-4,1.2c-1,0.8-1.5,1.9-1.5,3.3c0,0.7,0.1,1.3,0.4,1.8c0.3,0.5,0.6,0.9,1,1.3c0.4,0.4,0.8,0.6,1.2,0.9
		c0.4,0.2,0.8,0.4,1.1,0.5l3.2,1.1c0.3,0.1,0.6,0.2,1,0.4c0.3,0.1,0.7,0.3,1,0.6c0.3,0.3,0.6,0.6,0.8,1c0.2,0.4,0.3,0.9,0.3,1.5
		c0,1-0.3,1.9-1,2.6c-0.7,0.7-1.8,1-3.2,1c-0.7,0-1.4-0.1-2-0.3c-0.6-0.2-1.2-0.6-1.6-1.1c-0.5-0.5-0.9-1.2-1.2-2.1
		c-0.3-0.9-0.6-2-0.7-3.4h-0.3l-0.5,5.8l0.1,0.1c0.7,0.6,1.6,1,2.7,1.3c1.1,0.3,2.2,0.5,3.4,0.5c1.1,0,2-0.1,2.8-0.4
		c0.8-0.3,1.5-0.6,2.1-1.1c0.6-0.5,1-1,1.3-1.7c0.3-0.6,0.4-1.4,0.4-2.1c0-0.8-0.2-1.5-0.5-2.1C894.6,16.9,894.2,16.4,893.7,16z"/>
	<path class="st0" d="M903,24.2c-0.2-0.1-0.3-0.3-0.4-0.4c-0.1-0.2-0.2-0.4-0.2-0.7c0-0.3-0.1-0.6-0.1-1V7.1l-3.6,0.3l0.2,0.2
		c0.2,0.2,0.3,0.4,0.4,0.6c0.1,0.2,0.2,0.4,0.2,0.6c0.1,0.2,0.1,0.5,0.1,0.8c0,0.3,0,0.7,0,1.1V22c0,0.4,0,0.8-0.1,1.1
		c0,0.3-0.1,0.5-0.2,0.7c-0.1,0.2-0.3,0.3-0.4,0.4c-0.2,0.1-0.4,0.2-0.8,0.3l-1,0.3h7.4l-0.9-0.3C903.4,24.4,903.2,24.3,903,24.2z"
		/>
	<path class="st0" d="M900.9,5.3c0.5,0,0.9-0.2,1.3-0.5c0.3-0.3,0.5-0.7,0.5-1.2c0-0.5-0.2-0.9-0.5-1.2c-0.3-0.3-0.8-0.5-1.3-0.5
		c-0.5,0-0.9,0.2-1.2,0.5c-0.3,0.3-0.5,0.7-0.5,1.2c0,0.5,0.2,0.9,0.5,1.2C900,5.1,900.4,5.3,900.9,5.3z"/>
	<path class="st0" d="M916,22.3c-0.3,0.6-0.7,1-1.1,1.4c-0.4,0.3-0.8,0.5-1.4,0.5c-0.3,0-0.6,0-0.8-0.1c-0.2-0.1-0.4-0.2-0.5-0.5
		c-0.2-0.2-0.3-0.6-0.4-1c-0.1-0.4-0.1-1-0.1-1.6V8h5V7.3h-5V2.6l-2.4,4.7h-3.2V8h3v12.1c0,1.5,0.3,2.7,0.9,3.6
		c0.6,0.9,1.7,1.3,3.1,1.3c0.9,0,1.7-0.2,2.2-0.6c0.5-0.4,0.9-0.9,1.4-1.6l0.1-0.1l-0.7-0.5L916,22.3z"/>
	<path class="st0" d="M923.8,24.2c-0.2-0.1-0.3-0.3-0.4-0.4c-0.1-0.2-0.2-0.4-0.2-0.7c0-0.3-0.1-0.6-0.1-1V7.1l-3.6,0.3l0.2,0.2
		c0.2,0.2,0.3,0.4,0.4,0.6c0.1,0.2,0.2,0.4,0.2,0.6c0.1,0.2,0.1,0.5,0.1,0.8c0,0.3,0,0.7,0,1.1V22c0,0.4,0,0.8-0.1,1.1
		c0,0.3-0.1,0.5-0.2,0.7c-0.1,0.2-0.3,0.3-0.4,0.4c-0.2,0.1-0.4,0.2-0.8,0.3l-1,0.3h7.4l-0.9-0.3C924.3,24.4,924,24.3,923.8,24.2z"
		/>
	<path class="st0" d="M921.7,5.3c0.5,0,0.9-0.2,1.3-0.5c0.3-0.3,0.5-0.7,0.5-1.2c0-0.5-0.2-0.9-0.5-1.2c-0.3-0.3-0.8-0.5-1.3-0.5
		c-0.5,0-0.9,0.2-1.2,0.5c-0.3,0.3-0.5,0.7-0.5,1.2c0,0.5,0.2,0.9,0.5,1.2C920.8,5.1,921.2,5.3,921.7,5.3z"/>
	<path class="st0" d="M940.4,7.6c0.1,0.1,0.2,0.1,0.3,0.2c0.1,0.1,0.2,0.2,0.2,0.4c0.1,0.2,0.1,0.6,0,1c-0.1,0.4-0.3,1.1-0.6,1.8
		l-4.4,10.4l-5.3-12.2c-0.3-0.7-0.3-1-0.2-1.2c0.1-0.2,0.2-0.4,0.3-0.5l0.3-0.3h-4.9l0.6,0.3c0.1,0.1,0.3,0.2,0.7,0.7
		c0.3,0.4,0.6,1,1,1.9l6.3,14.5l0,0.1h0.5l6.3-14.7c0.4-0.8,0.7-1.4,1.1-1.8c0.4-0.3,0.6-0.6,0.9-0.7l0.5-0.3h-4L940.4,7.6z"/>
	<path class="st0" d="M950.5,24.2c-0.2-0.1-0.3-0.3-0.4-0.4c-0.1-0.2-0.2-0.4-0.2-0.7c0-0.3-0.1-0.6-0.1-1V7.1l-3.6,0.3l0.2,0.2
		c0.2,0.2,0.3,0.4,0.4,0.6c0.1,0.2,0.2,0.4,0.2,0.6c0.1,0.2,0.1,0.5,0.1,0.8c0,0.3,0,0.7,0,1.1V22c0,0.4,0,0.8-0.1,1.1
		c0,0.3-0.1,0.5-0.2,0.7c-0.1,0.2-0.3,0.3-0.4,0.4c-0.2,0.1-0.4,0.2-0.8,0.3l-1,0.3h7.4l-0.9-0.3C950.9,24.4,950.7,24.3,950.5,24.2z
		"/>
	<path class="st0" d="M948.4,5.3c0.5,0,0.9-0.2,1.3-0.5c0.3-0.3,0.5-0.7,0.5-1.2c0-0.5-0.2-0.9-0.5-1.2c-0.3-0.3-0.8-0.5-1.3-0.5
		c-0.5,0-0.9,0.2-1.2,0.5c-0.3,0.3-0.5,0.7-0.5,1.2c0,0.5,0.2,0.9,0.5,1.2C947.5,5.1,947.9,5.3,948.4,5.3z"/>
	<path class="st0" d="M963.5,22.3c-0.3,0.6-0.7,1-1.1,1.4c-0.4,0.3-0.8,0.5-1.4,0.5c-0.3,0-0.6,0-0.8-0.1c-0.2-0.1-0.4-0.2-0.5-0.5
		c-0.2-0.2-0.3-0.6-0.4-1c-0.1-0.4-0.1-1-0.1-1.6V8h5V7.3h-5V2.6l-2.4,4.7h-3.2V8h3v12.1c0,1.5,0.3,2.7,0.9,3.6
		c0.6,0.9,1.7,1.3,3.1,1.3c0.9,0,1.7-0.2,2.2-0.6c0.5-0.4,0.9-0.9,1.4-1.6l0.1-0.1l-0.7-0.5L963.5,22.3z"/>
	<path class="st0" d="M979.3,7.9c0.1,0.1,0.2,0.2,0.3,0.3c0.1,0.1,0.1,0.3,0.1,0.6c0,0.2,0,0.5-0.2,0.9l-4.7,12l-4.9-12
		c-0.3-0.8-0.3-1.2-0.3-1.4c0.1-0.3,0.2-0.4,0.3-0.6l0.3-0.3h-4.8l0.5,0.3c0.1,0.1,0.3,0.3,0.5,0.5c0.2,0.2,0.4,0.7,0.7,1.3
		l6.4,15.4c-0.3,0.9-0.8,1.5-1.3,1.9c-1.1,0.8-2.5,0.8-4,0l-0.4-0.2l1.2,3.5l0.1,0c0.7-0.1,1.3-0.3,1.9-0.7c0.5-0.3,1-0.7,1.3-1.2
		c0.4-0.4,0.7-0.9,0.9-1.3c0.2-0.4,0.4-0.8,0.6-1.2l6.4-16c0.3-0.7,0.6-1.1,0.9-1.4c0.3-0.3,0.6-0.5,0.7-0.6l0.4-0.3h-3.8L979.3,7.9
		z"/>
	<path class="st0" d="M1014.5,7.6c0.1,0.1,0.2,0.1,0.4,0.2c0.1,0.1,0.2,0.2,0.3,0.4c0.1,0.2,0.1,0.6,0.1,1c0,0.5-0.2,1.1-0.4,1.9
		l-3.2,9.7l-5.4-13.6h-0.5l-4.2,13.4l-4.1-11.4c-0.3-0.7-0.2-1-0.2-1.2c0.1-0.2,0.2-0.4,0.4-0.5l0.4-0.3h-4.9l0.6,0.3
		c0.1,0.1,0.3,0.2,0.6,0.7c0.2,0.4,0.5,1,0.9,1.9l5.2,14.5l0,0.1h0.6l4.2-13.4l5.3,13.3l0,0.1h0.6l4.8-14.7c0.3-0.9,0.6-1.5,0.8-1.8
		c0.3-0.3,0.6-0.6,0.9-0.7l0.6-0.3h-4.2L1014.5,7.6z"/>
	<path class="st0" d="M1037.3,24.2c-0.2-0.1-0.3-0.2-0.4-0.4c-0.1-0.2-0.2-0.4-0.2-0.7c0-0.3-0.1-0.6-0.1-1v-9
		c0-0.8-0.1-1.6-0.4-2.3c-0.3-0.7-0.7-1.3-1.2-1.9c-0.5-0.5-1.2-0.9-2-1.2c-0.8-0.3-1.6-0.4-2.6-0.4c-1.7,0-3.2,0.4-4.3,1.3
		c-0.9,0.7-1.7,1.7-2.2,2.8V1.5l-3.6,0.4l0.3,0.2c0.3,0.2,0.5,0.5,0.6,0.7c0.1,0.3,0.1,0.7,0.1,1.3V22c0,0.4,0,0.8-0.1,1.1
		c0,0.3-0.1,0.5-0.2,0.7c-0.1,0.2-0.3,0.3-0.4,0.4c-0.2,0.1-0.4,0.2-0.8,0.3l-1,0.3h7.4l-0.9-0.3c-0.3-0.1-0.5-0.2-0.7-0.3
		c-0.2-0.1-0.3-0.3-0.4-0.4c-0.1-0.2-0.2-0.4-0.2-0.7c0-0.3-0.1-0.6-0.1-1l0-7.5c0.1-1,0.3-2,0.6-2.8c0.3-0.8,0.8-1.5,1.3-2
		c0.5-0.5,1.2-1,1.9-1.3c0.7-0.3,1.4-0.4,2.2-0.4c1.3,0,2.4,0.4,3.1,1.2c0.7,0.8,1.1,2,1.1,3.5V22c0,0.4,0,0.8-0.1,1.1
		c0,0.3-0.1,0.5-0.2,0.7c-0.1,0.2-0.3,0.3-0.4,0.4c-0.2,0.1-0.4,0.2-0.8,0.3l-1,0.3h7.4l-0.9-0.3
		C1037.8,24.4,1037.5,24.3,1037.3,24.2z"/>
	<path class="st0" d="M1054.9,20.6c-0.4,0.7-0.9,1.4-1.4,1.9c-0.5,0.5-1.1,0.9-1.8,1.2c-0.6,0.3-1.4,0.4-2.1,0.4
		c-0.9,0-1.7-0.2-2.4-0.6c-0.7-0.4-1.4-1-1.9-1.7c-0.5-0.7-1-1.6-1.3-2.5c-0.3-1-0.5-2.1-0.5-3.2c0-0.3,0-0.6,0-0.9
		c0-0.3,0-0.5,0.1-0.8h12.8l0-0.2c0-1-0.2-2-0.5-2.8c-0.3-0.9-0.8-1.6-1.4-2.3c-0.6-0.6-1.4-1.1-2.3-1.5c-0.9-0.3-2-0.5-3.2-0.5
		c-1.3,0-2.5,0.2-3.5,0.7c-1,0.4-1.9,1.1-2.6,1.9c-0.7,0.8-1.3,1.8-1.7,2.8c-0.4,1.1-0.6,2.3-0.6,3.6c0,1.3,0.2,2.5,0.6,3.6
		c0.4,1.1,1.1,2,1.8,2.8c0.8,0.8,1.7,1.4,2.8,1.8c1.1,0.4,2.3,0.6,3.6,0.6c1.1,0,2.2-0.2,3.4-0.5c1.1-0.4,2.2-0.9,3.1-1.7l0.1,0
		l0.3-5.6l-0.4,1.1C1055.7,19.1,1055.3,19.9,1054.9,20.6z M1043.7,13.8c0.1-0.8,0.4-1.6,0.6-2.3c0.3-0.7,0.7-1.4,1.2-1.9
		c0.5-0.5,1-1,1.6-1.3c0.6-0.3,1.2-0.4,1.9-0.4c0.7,0,1.4,0.2,2,0.5c0.6,0.3,1.1,0.7,1.4,1.3c0.4,0.5,0.7,1.2,0.9,1.9
		c0.2,0.7,0.3,1.4,0.4,2.3H1043.7z"/>
	<path class="st0" d="M1068.4,7.2c-0.7,0-1.3,0.1-1.9,0.3c-0.6,0.2-1,0.5-1.5,0.9c-0.4,0.4-0.8,0.8-1.1,1.3
		c-0.2,0.3-0.4,0.6-0.5,0.9V7.1l-3.5,0.3l0.2,0.2c0.2,0.2,0.3,0.4,0.4,0.6c0.1,0.2,0.2,0.4,0.2,0.6c0.1,0.2,0.1,0.5,0.1,0.8
		c0,0.3,0,0.7,0,1.1V22c0,0.4,0,0.8-0.1,1.1c0,0.3-0.1,0.5-0.2,0.7c-0.1,0.2-0.3,0.3-0.4,0.4c-0.2,0.1-0.4,0.2-0.8,0.3l-1,0.3h7.4
		l-0.9-0.3c-0.3-0.1-0.5-0.2-0.7-0.3c-0.2-0.1-0.3-0.3-0.4-0.4c-0.1-0.2-0.2-0.4-0.2-0.7c0-0.3-0.1-0.6-0.1-1v-9.8
		c0.2-0.5,0.4-1,0.6-1.4c0.2-0.4,0.5-0.8,0.8-1.2c0.3-0.3,0.6-0.6,0.9-0.8c0.6-0.3,1.3-0.4,1.9-0.1c0.3,0.1,0.6,0.3,0.9,0.5
		c0.3,0.2,0.5,0.4,0.8,0.7c0.2,0.2,0.5,0.5,0.6,0.7l0.3,0.3l0-3.5l-0.1,0C1069.7,7.3,1069.1,7.2,1068.4,7.2z"/>
	<path class="st0" d="M1086.9,20.6c-0.4,0.7-0.9,1.4-1.4,1.9c-0.5,0.5-1.1,0.9-1.8,1.2c-0.6,0.3-1.4,0.4-2.1,0.4
		c-0.9,0-1.7-0.2-2.4-0.6c-0.7-0.4-1.4-1-1.9-1.7c-0.5-0.7-1-1.6-1.3-2.5c-0.3-1-0.5-2.1-0.5-3.2c0-0.3,0-0.6,0-0.9
		c0-0.3,0-0.5,0.1-0.8h12.8l0-0.2c0-1-0.2-2-0.5-2.8c-0.3-0.9-0.8-1.6-1.4-2.3c-0.6-0.6-1.4-1.1-2.3-1.5c-0.9-0.3-2-0.5-3.2-0.5
		c-1.3,0-2.5,0.2-3.5,0.7c-1,0.4-1.9,1.1-2.6,1.9c-0.7,0.8-1.3,1.8-1.7,2.8c-0.4,1.1-0.6,2.3-0.6,3.6c0,1.3,0.2,2.5,0.6,3.6
		c0.4,1.1,1.1,2,1.8,2.8c0.8,0.8,1.7,1.4,2.8,1.8c1.1,0.4,2.3,0.6,3.6,0.6c1.1,0,2.2-0.2,3.4-0.5c1.1-0.4,2.2-0.9,3.1-1.7l0.1,0
		l0.3-5.6l-0.4,1.1C1087.7,19.1,1087.3,19.9,1086.9,20.6z M1075.6,13.8c0.1-0.8,0.4-1.6,0.6-2.3c0.3-0.7,0.7-1.4,1.2-1.9
		c0.5-0.5,1-1,1.6-1.3c0.6-0.3,1.2-0.4,1.9-0.4c0.7,0,1.4,0.2,2,0.5c0.6,0.3,1.1,0.7,1.4,1.3c0.4,0.5,0.7,1.2,0.9,1.9
		c0.2,0.7,0.3,1.4,0.4,2.3H1075.6z"/>
	<path class="st0" d="M1104.5,7.6c0.1,0.1,0.2,0.1,0.3,0.2c0.1,0.1,0.2,0.2,0.2,0.4c0.1,0.2,0.1,0.6,0,1c-0.1,0.4-0.3,1.1-0.6,1.8
		l-4.4,10.4l-5.3-12.2c-0.3-0.7-0.3-1-0.2-1.2c0.1-0.2,0.2-0.4,0.3-0.5l0.3-0.3h-4.9l0.6,0.3c0.2,0.1,0.4,0.3,0.7,0.7
		c0.3,0.4,0.6,1,1,1.9l6.3,14.5l0,0.1h0.5l6.3-14.7c0.4-0.8,0.7-1.4,1.1-1.8c0.4-0.3,0.6-0.6,0.9-0.7l0.5-0.3h-4L1104.5,7.6z"/>
	<path class="st0" d="M1124,20.6c-0.4,0.7-0.9,1.4-1.4,1.9c-0.5,0.5-1.1,0.9-1.8,1.2c-0.6,0.3-1.4,0.4-2.1,0.4
		c-0.9,0-1.7-0.2-2.4-0.6c-0.7-0.4-1.4-1-1.9-1.7c-0.5-0.7-1-1.6-1.3-2.5c-0.3-1-0.5-2.1-0.5-3.2c0-0.3,0-0.6,0-0.9
		c0-0.3,0-0.5,0.1-0.8h12.8l0-0.2c0-1-0.2-2-0.5-2.8c-0.3-0.9-0.8-1.6-1.4-2.3c-0.6-0.6-1.4-1.1-2.3-1.5c-0.9-0.3-2-0.5-3.2-0.5
		c-1.3,0-2.5,0.2-3.5,0.7c-1,0.4-1.9,1.1-2.6,1.9c-0.7,0.8-1.3,1.8-1.7,2.8c-0.4,1.1-0.6,2.3-0.6,3.6c0,1.3,0.2,2.5,0.6,3.6
		c0.4,1.1,1.1,2,1.8,2.8c0.8,0.8,1.7,1.4,2.8,1.8c1.1,0.4,2.3,0.6,3.6,0.6c1.1,0,2.2-0.2,3.4-0.5c1.1-0.4,2.2-0.9,3.1-1.7l0.1,0
		l0.3-5.6l-0.4,1.1C1124.8,19.1,1124.5,19.9,1124,20.6z M1112.8,13.8c0.1-0.8,0.4-1.6,0.6-2.3c0.3-0.7,0.7-1.4,1.2-1.9
		c0.5-0.5,1-1,1.6-1.3c0.6-0.3,1.2-0.4,1.9-0.4c0.7,0,1.4,0.2,2,0.5c0.6,0.3,1.1,0.7,1.4,1.3c0.4,0.5,0.7,1.2,0.9,1.9
		c0.2,0.7,0.3,1.4,0.4,2.3H1112.8z"/>
	<path class="st0" d="M1137.5,7.2c-0.7,0-1.3,0.1-1.9,0.3c-0.6,0.2-1,0.5-1.5,0.9c-0.4,0.4-0.8,0.8-1.1,1.3
		c-0.2,0.3-0.4,0.6-0.5,0.9V7.1l-3.5,0.3l0.2,0.2c0.2,0.2,0.3,0.4,0.4,0.6c0.1,0.2,0.2,0.4,0.2,0.6c0.1,0.2,0.1,0.5,0.1,0.8
		c0,0.3,0,0.7,0,1.1V22c0,0.4,0,0.8-0.1,1.1c0,0.3-0.1,0.5-0.2,0.7c-0.1,0.2-0.3,0.3-0.4,0.4c-0.2,0.1-0.4,0.2-0.8,0.3l-1,0.3h7.4
		l-0.9-0.3c-0.3-0.1-0.5-0.2-0.7-0.3c-0.2-0.1-0.3-0.3-0.4-0.4c-0.1-0.2-0.2-0.4-0.2-0.7c0-0.3-0.1-0.6-0.1-1v-9.8
		c0.2-0.5,0.4-1,0.6-1.4c0.2-0.4,0.5-0.8,0.8-1.2c0.3-0.3,0.6-0.6,0.9-0.8c0.6-0.3,1.3-0.4,1.9-0.1c0.3,0.1,0.6,0.3,0.9,0.5
		c0.3,0.2,0.5,0.4,0.8,0.7c0.2,0.2,0.5,0.5,0.6,0.7l0.3,0.3l0-3.5l-0.1,0C1138.8,7.3,1138.2,7.2,1137.5,7.2z"/>
	<path class="st0" d="M1164.5,7.9c0.1,0.1,0.2,0.2,0.3,0.3c0.1,0.1,0.1,0.3,0.1,0.6c0,0.2,0,0.5-0.2,0.9l-4.7,12l-4.9-12
		c-0.3-0.8-0.3-1.2-0.3-1.4c0.1-0.3,0.2-0.4,0.3-0.6l0.3-0.3h-4.8l0.5,0.3c0.1,0.1,0.3,0.3,0.5,0.5c0.2,0.2,0.4,0.7,0.7,1.3
		l6.4,15.4c-0.3,0.9-0.8,1.5-1.3,1.9c-1.1,0.8-2.5,0.8-4,0l-0.4-0.2l1.2,3.5l0.1,0c0.7-0.1,1.3-0.3,1.9-0.7c0.5-0.3,1-0.7,1.3-1.2
		c0.4-0.4,0.7-0.9,0.9-1.3c0.2-0.4,0.4-0.8,0.6-1.2l6.4-16c0.3-0.7,0.6-1.1,0.9-1.4c0.3-0.3,0.6-0.5,0.7-0.6l0.4-0.3h-3.8
		L1164.5,7.9z"/>
	<path class="st0" d="M1184.6,9.7c-0.8-0.8-1.7-1.4-2.8-1.8c-1.1-0.4-2.3-0.6-3.6-0.6c-1.3,0-2.5,0.2-3.6,0.6c-1.1,0.4-2,1-2.8,1.8
		c-0.8,0.8-1.4,1.7-1.8,2.8c-0.4,1.1-0.6,2.3-0.6,3.6c0,1.3,0.2,2.5,0.6,3.6c0.4,1.1,1,2,1.8,2.8c0.8,0.8,1.7,1.4,2.8,1.8
		c1.1,0.4,2.3,0.6,3.6,0.6c1.3,0,2.5-0.2,3.6-0.6c1.1-0.4,2-1,2.8-1.8c0.8-0.8,1.4-1.7,1.8-2.8c0.4-1.1,0.6-2.3,0.6-3.6
		c0-1.3-0.2-2.5-0.6-3.6C1186,11.4,1185.4,10.5,1184.6,9.7z M1178.2,24.2c-0.9,0-1.7-0.2-2.5-0.6c-0.7-0.4-1.4-1-1.9-1.7
		c-0.5-0.7-1-1.6-1.2-2.6c-0.3-1-0.4-2.1-0.4-3.3c0-1.2,0.2-2.3,0.4-3.3c0.3-1,0.7-1.9,1.2-2.6c0.5-0.7,1.2-1.3,1.9-1.7
		c0.7-0.4,1.6-0.6,2.5-0.6c0.9,0,1.7,0.2,2.5,0.6c0.7,0.4,1.4,0.9,1.9,1.7c0.5,0.7,1,1.6,1.2,2.6c0.3,1,0.4,2.1,0.4,3.3
		c0,1.2-0.2,2.3-0.4,3.3c-0.3,1-0.7,1.9-1.2,2.6c-0.5,0.7-1.2,1.3-1.9,1.7C1180,24,1179.1,24.2,1178.2,24.2z"/>
	<path class="st0" d="M1205.1,23.5c-0.1-0.4-0.2-1-0.2-1.9V7.1l-3.6,0.3l0.2,0.2c0.2,0.2,0.3,0.4,0.4,0.6c0.1,0.2,0.2,0.4,0.2,0.6
		c0.1,0.2,0.1,0.5,0.1,0.8c0,0.3,0,0.7,0,1.1v6.9c0,0.7-0.2,1.5-0.4,2.3c-0.2,0.8-0.6,1.5-1,2.1c-0.4,0.6-1,1.1-1.6,1.5
		c-0.6,0.4-1.4,0.6-2.3,0.6c-0.5,0-1.1-0.1-1.5-0.2c-0.4-0.2-0.8-0.4-1.1-0.8c-0.3-0.4-0.6-0.8-0.7-1.4c-0.2-0.6-0.3-1.3-0.3-2.2
		V7.1l-3.6,0.3l0.2,0.2c0.2,0.2,0.3,0.4,0.4,0.6c0.1,0.2,0.2,0.4,0.2,0.6c0.1,0.2,0.1,0.5,0.1,0.8c0,0.3,0,0.7,0,1.1v8.7
		c0,1.8,0.5,3.2,1.6,4.1c1,0.9,2.5,1.3,4.2,1.3c0.8,0,1.6-0.1,2.2-0.3c0.6-0.2,1.2-0.5,1.7-1c0.5-0.4,0.9-0.9,1.3-1.5
		c0.2-0.4,0.5-0.8,0.7-1.3v4l3.5-0.1l-0.3-0.3C1205.4,24.3,1205.2,23.9,1205.1,23.5z"/>
	<path class="st0" d="M1217.6,7.2c-0.7,0-1.3,0.1-1.9,0.3c-0.6,0.2-1,0.5-1.5,0.9c-0.4,0.4-0.8,0.8-1.1,1.3
		c-0.2,0.3-0.4,0.6-0.5,0.9V7.1l-3.5,0.3l0.2,0.2c0.2,0.2,0.3,0.4,0.4,0.6c0.1,0.2,0.2,0.4,0.2,0.6c0.1,0.2,0.1,0.5,0.1,0.8
		c0,0.3,0,0.7,0,1.1V22c0,0.4,0,0.8-0.1,1.1c0,0.3-0.1,0.5-0.2,0.7c-0.1,0.2-0.3,0.3-0.4,0.4c-0.2,0.1-0.4,0.2-0.8,0.3l-1,0.3h7.4
		l-0.9-0.3c-0.3-0.1-0.5-0.2-0.7-0.3c-0.2-0.1-0.3-0.3-0.4-0.4c-0.1-0.2-0.2-0.4-0.2-0.7c0-0.3-0.1-0.6-0.1-1v-9.8
		c0.2-0.5,0.4-1,0.6-1.4c0.2-0.4,0.5-0.8,0.8-1.2c0.3-0.3,0.6-0.6,0.9-0.8c0.6-0.3,1.3-0.4,1.9-0.1c0.3,0.1,0.6,0.3,0.9,0.5
		c0.3,0.2,0.5,0.4,0.8,0.7c0.2,0.2,0.5,0.5,0.6,0.7l0.3,0.3l0-3.5l-0.1,0C1218.9,7.3,1218.3,7.2,1217.6,7.2z"/>
	<path class="st0" d="M1249.3,24.2c-0.2-0.1-0.3-0.3-0.4-0.4c-0.1-0.2-0.2-0.4-0.2-0.7c0-0.3-0.1-0.6-0.1-1v-9
		c0-0.8-0.1-1.6-0.4-2.3c-0.3-0.7-0.7-1.3-1.2-1.9c-0.5-0.5-1.2-0.9-2-1.2c-0.8-0.3-1.6-0.4-2.6-0.4c-1.7,0-3.2,0.4-4.3,1.3
		c-0.9,0.7-1.7,1.7-2.2,2.8V1.5l-3.6,0.4l0.3,0.2c0.3,0.2,0.5,0.5,0.6,0.7c0.1,0.3,0.1,0.7,0.1,1.3V22c0,0.4,0,0.8-0.1,1.1
		c0,0.3-0.1,0.5-0.2,0.7c-0.1,0.2-0.3,0.3-0.4,0.4c-0.2,0.1-0.4,0.2-0.8,0.3l-1,0.3h7.4l-0.9-0.3c-0.3-0.1-0.5-0.2-0.7-0.3
		c-0.2-0.1-0.3-0.2-0.4-0.4c-0.1-0.2-0.2-0.4-0.2-0.7c0-0.3-0.1-0.6-0.1-1l0-7.5c0.1-1,0.3-2,0.6-2.8c0.3-0.8,0.8-1.5,1.3-2
		c0.5-0.5,1.2-1,1.9-1.3c0.7-0.3,1.4-0.4,2.2-0.4c1.3,0,2.4,0.4,3.1,1.2c0.7,0.8,1.1,2,1.1,3.5V22c0,0.4,0,0.8-0.1,1.1
		c0,0.3-0.1,0.5-0.2,0.7c-0.1,0.2-0.3,0.3-0.4,0.4c-0.2,0.1-0.4,0.2-0.8,0.3l-1,0.3h7.4l-0.9-0.3
		C1249.7,24.4,1249.5,24.3,1249.3,24.2z"/>
	<path class="st0" d="M1285.3,23.5c-0.1-0.4-0.2-0.9-0.2-1.5v-9.6c0-1.7-0.5-3-1.6-3.9c-1.1-0.9-2.5-1.3-4.3-1.3
		c-1.2,0-2.3,0.2-3.4,0.5c-1.1,0.3-2.1,0.8-2.8,1.4l-0.1,0.1l0.2,6.4l0.3-1.2c0.3-1.3,0.6-2.3,1.1-3.2c0.4-0.8,0.9-1.5,1.4-2
		c0.5-0.5,1-0.8,1.6-1c0.6-0.2,1.1-0.3,1.7-0.3c1.2,0,2,0.3,2.6,1c0.6,0.7,0.9,1.8,0.9,3.2v2.1l-3.2,0.8h0c-0.7,0.2-1.5,0.4-2.4,0.7
		c-0.9,0.3-1.7,0.6-2.4,1c-0.8,0.4-1.4,1-1.9,1.6c-0.5,0.7-0.8,1.5-0.8,2.4c0,0.7,0.1,1.3,0.4,1.8c0.3,0.5,0.6,1,1.1,1.3
		c0.5,0.3,1,0.6,1.7,0.8c0.6,0.2,1.4,0.2,2.1,0.2c0.8,0,1.6-0.1,2.2-0.3c0.6-0.2,1.2-0.5,1.7-0.9c0.5-0.4,0.9-0.8,1.2-1.3
		c0.2-0.3,0.3-0.6,0.5-0.8v3.4l3.5-0.1l-0.3-0.3C1285.6,24.3,1285.4,23.9,1285.3,23.5z M1282.6,18.6c0,0.9-0.2,1.7-0.5,2.4
		c-0.3,0.7-0.7,1.3-1.2,1.7c-0.5,0.5-1,0.8-1.6,1c-0.6,0.2-1.1,0.4-1.7,0.4c-1,0-1.7-0.3-2.2-0.9c-0.5-0.6-0.8-1.5-0.8-2.4
		c0-0.9,0.2-1.6,0.5-2.2c0.3-0.6,0.8-1.1,1.3-1.4c0.5-0.4,1-0.6,1.6-0.8c0.6-0.2,1.1-0.4,1.5-0.5l3.1-0.7L1282.6,18.6z"/>
	<path class="st0" d="M1297.8,7.2c-0.7,0-1.3,0.1-1.9,0.3c-0.6,0.2-1,0.5-1.5,0.9c-0.4,0.4-0.8,0.8-1.1,1.3
		c-0.2,0.3-0.4,0.6-0.5,0.9V7.1l-3.5,0.3l0.2,0.2c0.2,0.2,0.3,0.4,0.4,0.6c0.1,0.2,0.2,0.4,0.2,0.6c0.1,0.2,0.1,0.5,0.1,0.8
		c0,0.3,0,0.7,0,1.1V22c0,0.4,0,0.8-0.1,1.1c0,0.3-0.1,0.5-0.2,0.7c-0.1,0.2-0.3,0.3-0.4,0.4c-0.2,0.1-0.4,0.2-0.8,0.3l-1,0.3h7.4
		l-0.9-0.3c-0.3-0.1-0.5-0.2-0.7-0.3c-0.2-0.1-0.3-0.3-0.4-0.4c-0.1-0.2-0.2-0.4-0.2-0.7c0-0.3-0.1-0.6-0.1-1v-9.8
		c0.2-0.5,0.4-1,0.6-1.4c0.2-0.4,0.5-0.8,0.8-1.2c0.3-0.3,0.6-0.6,0.9-0.8c0.6-0.3,1.3-0.4,1.9-0.1c0.3,0.1,0.6,0.3,0.9,0.5
		c0.3,0.2,0.5,0.4,0.8,0.7c0.2,0.2,0.5,0.5,0.6,0.7l0.3,0.3l0-3.5l-0.1,0C1299,7.3,1298.4,7.2,1297.8,7.2z"/>
	<path class="st0" d="M1311.5,22.3c-0.3,0.6-0.7,1-1.1,1.4c-0.4,0.3-0.8,0.5-1.4,0.5c-0.3,0-0.6,0-0.8-0.1c-0.2-0.1-0.4-0.2-0.5-0.5
		c-0.2-0.2-0.3-0.6-0.4-1c-0.1-0.4-0.1-1-0.1-1.6V8h5V7.3h-5V2.6l-2.4,4.7h-3.2V8h3v12.1c0,1.5,0.3,2.7,0.9,3.6
		c0.6,0.9,1.7,1.3,3.1,1.3c0.9,0,1.7-0.2,2.2-0.6c0.5-0.4,0.9-0.9,1.4-1.6l0.1-0.1l-0.7-0.5L1311.5,22.3z"/>
	<path class="st0" d="M1334,22.3c-0.3,0.6-0.7,1-1.1,1.4c-0.4,0.3-0.8,0.5-1.4,0.5c-0.3,0-0.6,0-0.8-0.1c-0.2-0.1-0.4-0.2-0.5-0.5
		c-0.2-0.2-0.3-0.6-0.4-1c-0.1-0.4-0.1-1-0.1-1.6V8h5V7.3h-5V2.6l-2.4,4.7h-3.2V8h3v12.1c0,1.5,0.3,2.7,0.9,3.6
		c0.6,0.9,1.7,1.3,3.1,1.3c0.9,0,1.7-0.2,2.2-0.6c0.5-0.4,0.9-0.9,1.4-1.6l0.1-0.1l-0.7-0.5L1334,22.3z"/>
	<path class="st0" d="M1350.6,23.5c-0.1-0.4-0.2-0.9-0.2-1.5v-9.6c0-1.7-0.5-3-1.6-3.9c-1.1-0.9-2.5-1.3-4.3-1.3
		c-1.2,0-2.3,0.2-3.4,0.5c-1.1,0.3-2.1,0.8-2.8,1.4l-0.1,0l0.2,6.4l0.3-1.2c0.3-1.3,0.6-2.3,1.1-3.2c0.4-0.8,0.9-1.5,1.4-2
		c0.5-0.5,1-0.8,1.6-1c0.6-0.2,1.1-0.3,1.7-0.3c1.2,0,2,0.3,2.6,1c0.6,0.7,0.9,1.8,0.9,3.2v2.1l-3.2,0.8h0c-0.7,0.2-1.5,0.4-2.4,0.7
		c-0.9,0.3-1.7,0.6-2.4,1c-0.8,0.4-1.4,1-1.9,1.6c-0.5,0.7-0.8,1.5-0.8,2.4c0,0.7,0.1,1.3,0.4,1.8c0.3,0.5,0.6,1,1.1,1.3
		c0.5,0.3,1,0.6,1.7,0.8c0.6,0.2,1.4,0.2,2.1,0.2c0.8,0,1.6-0.1,2.2-0.3c0.6-0.2,1.2-0.5,1.7-0.9c0.5-0.4,0.9-0.8,1.2-1.3
		c0.2-0.3,0.3-0.6,0.5-0.8v3.4l3.5-0.1l-0.3-0.3C1351,24.3,1350.8,23.9,1350.6,23.5z M1347.9,15.1v3.6c0,0.9-0.2,1.7-0.5,2.4
		c-0.3,0.7-0.7,1.3-1.2,1.7c-0.5,0.5-1,0.8-1.6,1c-0.6,0.2-1.1,0.4-1.7,0.4c-1,0-1.7-0.3-2.2-0.9c-0.5-0.6-0.8-1.5-0.8-2.4
		c0-0.9,0.2-1.6,0.5-2.2c0.3-0.6,0.8-1.1,1.3-1.4c0.5-0.4,1-0.6,1.6-0.8c0.6-0.2,1.1-0.4,1.5-0.5L1347.9,15.1z"/>
	<path class="st0" d="M1367.5,9.7c0.5-0.4,0.9-0.7,1.3-1c0.4-0.3,0.7-0.5,0.9-0.7c0.2-0.2,0.5-0.3,0.7-0.4l0.6-0.3h-3.6l0,0.2
		c0,0.4-0.1,0.9-0.5,1.3c-0.4,0.5-0.8,0.9-1.3,1.4l-7.5,6.6V1.5l-3.6,0.4l0.3,0.2c0.3,0.2,0.5,0.5,0.6,0.7c0.1,0.3,0.1,0.7,0.1,1.3
		V22c0,0.4,0,0.8-0.1,1.1c0,0.3-0.1,0.5-0.2,0.7c-0.1,0.2-0.3,0.3-0.4,0.4c-0.2,0.1-0.4,0.2-0.8,0.3l-1,0.3h7.4l-0.9-0.3
		c-0.3-0.1-0.5-0.2-0.7-0.3c-0.2-0.1-0.3-0.2-0.4-0.4c-0.1-0.2-0.2-0.4-0.2-0.7c0-0.3-0.1-0.6-0.1-1v-4.1l2.7-2.4l4.9,6.3
		c0.4,0.5,0.7,0.9,0.9,1.2c0.2,0.3,0.3,0.6,0.4,0.8c0.1,0.2,0.1,0.4,0.1,0.4c0,0.1,0,0.2-0.1,0.2l-0.2,0.2h4.2l0-0.3
		c0,0,0,0-0.1-0.1c-0.1-0.1-0.2-0.2-0.4-0.5c-0.2-0.2-0.5-0.6-0.8-1c-0.3-0.4-0.8-1-1.4-1.7l-5.7-7.2l3.2-2.8
		C1366.5,10.6,1367,10.1,1367.5,9.7z"/>
	<path class="st0" d="M1387.5,20.6c-0.4,0.7-0.9,1.4-1.4,1.9c-0.5,0.5-1.1,0.9-1.8,1.2c-0.6,0.3-1.4,0.4-2.1,0.4
		c-0.9,0-1.7-0.2-2.4-0.6c-0.7-0.4-1.4-1-1.9-1.7c-0.5-0.7-1-1.6-1.3-2.5c-0.3-1-0.5-2-0.5-3.2c0-0.3,0-0.6,0-0.9
		c0-0.3,0-0.5,0.1-0.8h12.8l0-0.2c0-1-0.2-2-0.5-2.8c-0.3-0.9-0.8-1.6-1.4-2.3c-0.6-0.6-1.4-1.1-2.3-1.5c-0.9-0.3-2-0.5-3.2-0.5
		c-1.3,0-2.5,0.2-3.5,0.7c-1,0.4-1.9,1.1-2.6,1.9c-0.7,0.8-1.3,1.8-1.7,2.8c-0.4,1.1-0.6,2.3-0.6,3.6c0,1.3,0.2,2.5,0.6,3.6
		c0.4,1.1,1.1,2,1.8,2.8c0.8,0.8,1.7,1.4,2.8,1.8c1.1,0.4,2.3,0.6,3.6,0.6c1.1,0,2.2-0.2,3.4-0.5c1.1-0.4,2.2-0.9,3.1-1.7l0.1,0
		l0.3-5.6l-0.4,1.1C1388.3,19.1,1387.9,19.9,1387.5,20.6z M1376.3,13.8c0.1-0.8,0.4-1.6,0.6-2.3c0.3-0.7,0.7-1.4,1.2-1.9
		c0.5-0.5,1-1,1.6-1.3c0.6-0.3,1.2-0.4,1.9-0.4c0.7,0,1.4,0.2,2,0.5c0.6,0.3,1.1,0.7,1.4,1.3c0.4,0.5,0.7,1.2,0.9,1.9
		c0.2,0.7,0.3,1.4,0.4,2.3H1376.3z"/>
	<path class="st0" d="M1266.3,20.6c-0.4,0.7-0.9,1.4-1.4,1.9c-0.5,0.5-1.1,0.9-1.8,1.2c-0.6,0.3-1.4,0.4-2.1,0.4
		c-0.9,0-1.7-0.2-2.4-0.6c-0.7-0.4-1.4-1-1.9-1.7c-0.5-0.7-1-1.6-1.3-2.5c-0.3-1-0.5-2.1-0.5-3.2c0-0.3,0-0.6,0-0.9
		c0-0.3,0-0.5,0.1-0.8h12.8l0-0.2c0-1-0.2-2-0.5-2.8c-0.3-0.9-0.8-1.6-1.4-2.3c-0.6-0.6-1.4-1.1-2.3-1.5c-0.9-0.3-2-0.5-3.2-0.5
		c-1.3,0-2.5,0.2-3.5,0.7c-1,0.4-1.9,1.1-2.6,1.9c-0.7,0.8-1.3,1.8-1.7,2.8c-0.4,1.1-0.6,2.3-0.6,3.6c0,1.3,0.2,2.5,0.6,3.6
		c0.4,1.1,1.1,2,1.8,2.8c0.8,0.8,1.7,1.4,2.8,1.8c1.1,0.4,2.3,0.6,3.6,0.6c1.1,0,2.2-0.2,3.4-0.5c1.1-0.4,2.2-0.9,3.1-1.7l0.1,0
		l0.3-5.6l-0.4,1.1C1267.1,19.1,1266.7,19.9,1266.3,20.6z M1255,13.8c0.1-0.8,0.4-1.6,0.6-2.3c0.3-0.7,0.7-1.4,1.2-1.9
		c0.5-0.5,1-1,1.6-1.3c0.6-0.3,1.2-0.4,1.9-0.4c0.7,0,1.4,0.2,2,0.5c0.6,0.3,1.1,0.7,1.4,1.3c0.4,0.5,0.7,1.2,0.9,1.9
		c0.2,0.7,0.3,1.4,0.4,2.3H1255z"/>
	<path class="st0" d="M1403.2,16c-0.5-0.4-0.9-0.7-1.4-0.9c-0.5-0.2-0.9-0.4-1.3-0.5l-2.9-1c-0.3-0.1-0.6-0.2-1-0.3
		c-0.3-0.1-0.6-0.3-0.9-0.5c-0.3-0.2-0.5-0.5-0.7-0.8c-0.2-0.3-0.3-0.7-0.3-1.1c0-1,0.3-1.8,1-2.3c0.7-0.5,1.6-0.7,2.6-0.7
		c1.3,0,2.4,0.4,3.2,1.3c0.8,0.8,1.5,2.3,1.9,4.2l0.3,1l0.3-5.2l-0.1-0.1c-0.7-0.6-1.5-1.1-2.4-1.4c-0.9-0.3-2-0.5-3.1-0.5
		c-1.7,0-3,0.4-4,1.2c-1,0.8-1.5,1.9-1.5,3.3c0,0.7,0.1,1.3,0.4,1.8c0.3,0.5,0.6,0.9,1,1.3c0.4,0.4,0.8,0.6,1.2,0.9
		c0.4,0.2,0.8,0.4,1.1,0.5l3.2,1.1c0.3,0.1,0.6,0.2,1,0.4c0.3,0.1,0.7,0.3,1,0.6c0.3,0.3,0.6,0.6,0.8,1c0.2,0.4,0.3,0.9,0.3,1.5
		c0,1-0.3,1.9-1,2.6c-0.7,0.7-1.8,1-3.2,1c-0.7,0-1.4-0.1-2-0.3c-0.6-0.2-1.2-0.6-1.6-1.1c-0.5-0.5-0.9-1.2-1.2-2.1
		c-0.3-0.9-0.6-2-0.7-3.4h-0.3l-0.5,5.8l0.1,0.1c0.7,0.6,1.6,1,2.7,1.3c1.1,0.3,2.2,0.5,3.4,0.5c1.1,0,2-0.1,2.8-0.4
		c0.8-0.3,1.5-0.6,2.1-1.1s1-1,1.3-1.7c0.3-0.6,0.4-1.4,0.4-2.1c0-0.8-0.2-1.5-0.5-2.1C1404,16.9,1403.7,16.4,1403.2,16z"/>
	<path class="st0" d="M1430.4,7.9c0.1,0.1,0.2,0.2,0.3,0.3c0.1,0.1,0.1,0.3,0.1,0.6c0,0.2,0,0.5-0.2,0.9l-4.7,12l-4.9-12
		c-0.3-0.8-0.3-1.2-0.3-1.4c0.1-0.3,0.2-0.4,0.3-0.6l0.3-0.3h-4.8l0.5,0.3c0.1,0.1,0.3,0.3,0.5,0.5c0.2,0.2,0.4,0.7,0.7,1.3
		l6.4,15.4c-0.3,0.9-0.8,1.5-1.3,1.9c-1.1,0.9-2.5,0.8-4,0l-0.4-0.2l1.2,3.5l0.1,0c0.7-0.1,1.3-0.3,1.9-0.7c0.5-0.3,1-0.7,1.3-1.2
		c0.4-0.4,0.7-0.9,0.9-1.3c0.2-0.4,0.4-0.8,0.6-1.2l6.4-16c0.3-0.7,0.6-1.1,0.9-1.4c0.3-0.3,0.6-0.5,0.7-0.6l0.4-0.3h-3.8
		L1430.4,7.9z"/>
	<path class="st0" d="M1450.6,9.7c-0.8-0.8-1.7-1.4-2.8-1.8c-1.1-0.4-2.3-0.6-3.6-0.6c-1.3,0-2.5,0.2-3.6,0.6c-1.1,0.4-2,1-2.8,1.8
		c-0.8,0.8-1.4,1.7-1.8,2.8c-0.4,1.1-0.6,2.3-0.6,3.6c0,1.3,0.2,2.5,0.6,3.6c0.4,1.1,1,2,1.8,2.8s1.7,1.4,2.8,1.8
		c1.1,0.4,2.3,0.6,3.6,0.6c1.3,0,2.5-0.2,3.6-0.6c1.1-0.4,2-1,2.8-1.8c0.8-0.8,1.4-1.7,1.8-2.8c0.4-1.1,0.6-2.3,0.6-3.6
		c0-1.3-0.2-2.5-0.6-3.6C1452,11.4,1451.3,10.5,1450.6,9.7z M1450.3,16.1c0,1.2-0.2,2.3-0.4,3.3c-0.3,1-0.7,1.9-1.2,2.6
		c-0.5,0.7-1.2,1.3-1.9,1.7c-0.7,0.4-1.6,0.6-2.5,0.6c-0.9,0-1.7-0.2-2.5-0.6c-0.7-0.4-1.4-1-1.9-1.7c-0.5-0.7-1-1.6-1.2-2.6
		c-0.3-1-0.4-2.1-0.4-3.3c0-1.2,0.2-2.3,0.4-3.3c0.3-1,0.7-1.9,1.2-2.6c0.5-0.7,1.2-1.3,1.9-1.7c0.7-0.4,1.6-0.6,2.5-0.6
		s1.7,0.2,2.5,0.6c0.7,0.4,1.4,0.9,1.9,1.7c0.5,0.7,1,1.6,1.2,2.6C1450.1,13.8,1450.3,14.9,1450.3,16.1z"/>
	<path class="st0" d="M1471,23.5c-0.1-0.4-0.2-1-0.2-1.9V7.1l-3.6,0.3l0.2,0.2c0.2,0.2,0.3,0.4,0.4,0.6c0.1,0.2,0.2,0.4,0.2,0.6
		c0.1,0.2,0.1,0.5,0.1,0.8c0,0.3,0,0.7,0,1.1v6.9c0,0.7-0.2,1.5-0.4,2.3c-0.2,0.8-0.6,1.5-1,2.1c-0.4,0.6-1,1.1-1.6,1.5
		c-0.6,0.4-1.4,0.6-2.3,0.6c-0.5,0-1.1-0.1-1.5-0.2c-0.4-0.2-0.8-0.4-1.1-0.8c-0.3-0.4-0.6-0.8-0.7-1.4c-0.2-0.6-0.3-1.3-0.3-2.2
		V7.1l-3.6,0.3l0.2,0.2c0.2,0.2,0.3,0.4,0.4,0.6c0.1,0.2,0.2,0.4,0.2,0.6c0.1,0.2,0.1,0.5,0.1,0.8c0,0.3,0,0.7,0,1.1v8.7
		c0,1.8,0.5,3.2,1.6,4.1c1,0.9,2.5,1.3,4.2,1.3c0.8,0,1.6-0.1,2.2-0.3c0.6-0.2,1.2-0.5,1.7-1c0.5-0.4,0.9-0.9,1.3-1.5
		c0.2-0.4,0.5-0.8,0.7-1.3v4l3.5-0.1l-0.3-0.3C1471.4,24.3,1471.2,23.9,1471,23.5z"/>
	<path class="st0" d="M1477.9,22.3c-0.4,0-0.7,0.1-1,0.4c-0.3,0.2-0.4,0.6-0.4,0.9c0,0.4,0.1,0.7,0.4,1c0.3,0.2,0.6,0.4,1,0.4
		c0.4,0,0.7-0.1,1-0.4c0.3-0.2,0.4-0.6,0.4-1c0-0.4-0.1-0.7-0.4-0.9C1478.6,22.4,1478.3,22.3,1477.9,22.3z"/>
	<path class="st0" d="M1508.5,3.4h-15.1l1.3,0.3c0.3,0.1,0.6,0.2,0.7,0.3c0.2,0.1,0.3,0.2,0.4,0.4c0.1,0.2,0.2,0.4,0.2,0.7
		c0,0.3,0.1,0.6,0.1,1.1v15.7c0,0.9-0.1,1.5-0.4,1.8c-0.2,0.3-0.7,0.6-1.3,0.8l-1.1,0.3h8.1l-1.1-0.3c-0.6-0.2-1-0.4-1.3-0.8
		c-0.2-0.3-0.4-1-0.4-1.8v-7.7h2.3c1.1,0,1.9,0.1,2.5,0.2c0.6,0.1,1.1,0.3,1.4,0.5c0.3,0.2,0.5,0.5,0.7,0.8c0.1,0.3,0.2,0.7,0.2,1.2
		l0.3,0l0.4-6.2l-0.3,0c-0.1,0.4-0.2,0.8-0.4,1.1c-0.2,0.3-0.4,0.6-0.8,0.8c-0.4,0.2-0.9,0.4-1.5,0.5c-0.6,0.1-1.5,0.2-2.5,0.2h-2.4
		V4.2h3.7c0.7,0,1.4,0.1,2.1,0.2c0.7,0.1,1.3,0.4,1.8,0.7c0.6,0.4,1.1,0.9,1.5,1.5c0.4,0.6,0.8,1.5,1,2.5l0.3-0.1l-0.6-5.6
		L1508.5,3.4z"/>
	<path class="st0" d="M1514.8,5.3c0.5,0,0.9-0.2,1.3-0.5c0.3-0.3,0.5-0.7,0.5-1.2c0-0.5-0.2-0.9-0.5-1.2c-0.3-0.3-0.8-0.5-1.3-0.5
		c-0.5,0-0.9,0.2-1.2,0.5c-0.3,0.3-0.5,0.7-0.5,1.2c0,0.5,0.2,0.9,0.5,1.2C1513.9,5.1,1514.3,5.3,1514.8,5.3z"/>
	<path class="st0" d="M1516.9,24.2c-0.2-0.1-0.3-0.3-0.4-0.4c-0.1-0.2-0.2-0.4-0.2-0.7c0-0.3-0.1-0.6-0.1-1V7.1l-3.6,0.3l0.2,0.2
		c0.2,0.2,0.3,0.4,0.4,0.6c0.1,0.2,0.2,0.4,0.2,0.6c0.1,0.2,0.1,0.5,0.1,0.8c0,0.3,0,0.7,0,1.1V22c0,0.4,0,0.8-0.1,1.1
		c0,0.3-0.1,0.5-0.2,0.7c-0.1,0.2-0.3,0.3-0.4,0.4c-0.2,0.1-0.4,0.2-0.8,0.3l-1,0.3h7.4l-0.9-0.3
		C1517.3,24.4,1517.1,24.3,1516.9,24.2z"/>
	<path class="st0" d="M1537.9,24.2c-0.2-0.1-0.3-0.2-0.4-0.4c-0.1-0.2-0.2-0.4-0.2-0.7c0-0.3-0.1-0.6-0.1-1v-9
		c0-0.8-0.1-1.6-0.4-2.3c-0.3-0.7-0.7-1.3-1.2-1.9c-0.5-0.5-1.2-0.9-2-1.2c-0.8-0.3-1.6-0.4-2.6-0.4c-1.7,0-3.2,0.4-4.3,1.3
		c-0.9,0.7-1.7,1.7-2.2,2.8V7.1l-3.6,0.3l0.2,0.2c0.2,0.2,0.3,0.4,0.4,0.6c0.1,0.2,0.2,0.4,0.2,0.6c0.1,0.2,0.1,0.5,0.1,0.8
		c0,0.3,0,0.7,0,1.1V22c0,0.4,0,0.8-0.1,1.1c0,0.3-0.1,0.5-0.2,0.7c-0.1,0.2-0.3,0.3-0.4,0.4c-0.2,0.1-0.4,0.2-0.8,0.3l-1,0.3h7.4
		l-0.9-0.3c-0.3-0.1-0.5-0.2-0.7-0.3c-0.2-0.1-0.3-0.3-0.4-0.4c-0.1-0.2-0.2-0.4-0.2-0.7c0-0.3-0.1-0.6-0.1-1v-7.5
		c0.1-1,0.3-2,0.6-2.8c0.3-0.8,0.8-1.5,1.3-2c0.5-0.5,1.2-1,1.9-1.3c0.7-0.3,1.4-0.4,2.2-0.4c1.3,0,2.4,0.4,3.1,1.2
		c0.7,0.8,1.1,2,1.1,3.5V22c0,0.4,0,0.8-0.1,1.1c0,0.3-0.1,0.5-0.2,0.7c-0.1,0.2-0.3,0.3-0.4,0.4c-0.2,0.1-0.4,0.2-0.8,0.3l-1,0.3
		h7.4l-0.9-0.3C1538.3,24.4,1538.1,24.3,1537.9,24.2z"/>
	<path class="st0" d="M1557.1,23.5c-0.1-0.4-0.2-1-0.2-1.9V1.5l-3.6,0.4l0.3,0.2c0.3,0.2,0.5,0.5,0.6,0.7c0.1,0.3,0.1,0.7,0.1,1.3
		v4.6c-0.6-0.5-1.3-0.9-2-1.1c-0.8-0.3-1.8-0.4-2.7-0.4c-1.2,0-2.4,0.2-3.4,0.7c-1,0.5-1.9,1.1-2.7,1.9c-0.8,0.8-1.4,1.8-1.8,3
		c-0.4,1.1-0.6,2.4-0.6,3.8c0,1.2,0.2,2.3,0.6,3.3s1,1.9,1.7,2.7c0.7,0.8,1.7,1.4,2.7,1.8c1.1,0.4,2.2,0.6,3.5,0.6
		c0.9,0,1.9-0.2,2.8-0.6c0.8-0.3,1.5-0.8,2.1-1.5v2l3.5-0.1l-0.3-0.3C1557.5,24.3,1557.3,23.9,1557.1,23.5z M1554.4,11.6v10.2
		c-0.5,0.7-1.1,1.3-1.8,1.7c-0.7,0.4-1.5,0.6-2.3,0.6c-1,0-1.9-0.2-2.7-0.7s-1.5-1.1-2.1-1.9c-0.6-0.8-1-1.7-1.3-2.8
		c-0.3-1.1-0.4-2.2-0.4-3.4c0-1.1,0.1-2.1,0.4-3c0.3-0.9,0.6-1.7,1.1-2.3c0.5-0.6,1.1-1.1,1.8-1.5c0.7-0.3,1.5-0.5,2.4-0.5
		c1.1,0,2.1,0.3,2.9,0.9C1553.2,9.4,1553.9,10.3,1554.4,11.6z"/>
	<path class="st0" d="M1588.1,24.2c-0.2-0.1-0.3-0.3-0.4-0.4c-0.1-0.2-0.2-0.4-0.2-0.7c0-0.3-0.1-0.6-0.1-1v-9
		c0-0.8-0.1-1.6-0.4-2.3c-0.3-0.7-0.7-1.3-1.2-1.9c-0.5-0.5-1.2-0.9-2-1.2c-0.8-0.3-1.6-0.4-2.6-0.4c-1.7,0-3.2,0.4-4.3,1.3
		c-0.9,0.7-1.7,1.7-2.2,2.8V1.5l-3.6,0.4l0.3,0.2c0.3,0.2,0.5,0.5,0.6,0.7c0.1,0.3,0.1,0.7,0.1,1.3V22c0,0.4,0,0.8-0.1,1.1
		c0,0.3-0.1,0.5-0.2,0.7c-0.1,0.2-0.3,0.3-0.4,0.4c-0.2,0.1-0.4,0.2-0.8,0.3l-1,0.3h7.4l-0.9-0.3c-0.3-0.1-0.5-0.2-0.7-0.3
		c-0.2-0.1-0.3-0.2-0.4-0.4c-0.1-0.2-0.2-0.4-0.2-0.7c0-0.3-0.1-0.6-0.1-1v-7.5c0.1-1,0.3-2,0.6-2.8c0.3-0.8,0.8-1.5,1.3-2
		c0.5-0.5,1.2-1,1.9-1.3c0.7-0.3,1.5-0.4,2.2-0.4c1.3,0,2.4,0.4,3.1,1.2c0.7,0.8,1.1,2,1.1,3.5V22c0,0.4,0,0.8-0.1,1.1
		c0,0.3-0.1,0.5-0.2,0.7c-0.1,0.2-0.3,0.3-0.4,0.4c-0.2,0.1-0.4,0.2-0.8,0.3l-1,0.3h7.4l-0.9-0.3
		C1588.6,24.4,1588.3,24.3,1588.1,24.2z"/>
	<path class="st0" d="M1596.3,24.2c-0.2-0.1-0.3-0.2-0.4-0.4c-0.1-0.2-0.2-0.4-0.2-0.7c0-0.3-0.1-0.6-0.1-1V7.1l-3.6,0.3l0.2,0.2
		c0.2,0.2,0.3,0.4,0.4,0.6c0.1,0.2,0.2,0.4,0.2,0.6c0.1,0.2,0.1,0.5,0.1,0.8c0,0.3,0,0.7,0,1.1V22c0,0.4,0,0.8-0.1,1.1
		c0,0.3-0.1,0.5-0.2,0.7c-0.1,0.2-0.3,0.3-0.4,0.4c-0.2,0.1-0.4,0.2-0.8,0.3l-1,0.3h7.4l-0.9-0.3
		C1596.7,24.4,1596.5,24.3,1596.3,24.2z"/>
	<path class="st0" d="M1594.2,5.3c0.5,0,0.9-0.2,1.3-0.5c0.3-0.3,0.5-0.7,0.5-1.2c0-0.5-0.2-0.9-0.5-1.2c-0.3-0.3-0.8-0.5-1.3-0.5
		c-0.5,0-0.9,0.2-1.2,0.5c-0.3,0.3-0.5,0.7-0.5,1.2c0,0.5,0.2,0.9,0.5,1.2C1593.3,5.1,1593.7,5.3,1594.2,5.3z"/>
	<path class="st0" d="M1615.6,23.5c-0.1-0.4-0.2-1-0.2-1.9V1.5l-3.6,0.4l0.3,0.2c0.3,0.2,0.5,0.5,0.6,0.7c0.1,0.3,0.1,0.7,0.1,1.3
		v4.6c-0.6-0.5-1.3-0.9-2-1.1c-0.8-0.3-1.8-0.4-2.7-0.4c-1.2,0-2.4,0.2-3.4,0.7c-1,0.5-1.9,1.1-2.7,1.9c-0.8,0.8-1.4,1.8-1.8,3
		c-0.4,1.1-0.6,2.4-0.6,3.8c0,1.2,0.2,2.3,0.6,3.3s1,1.9,1.7,2.7c0.7,0.8,1.7,1.4,2.7,1.8c1.1,0.4,2.2,0.6,3.5,0.6
		c0.9,0,1.9-0.2,2.8-0.6c0.8-0.3,1.5-0.8,2.1-1.5v2l3.5-0.1l-0.3-0.3C1616,24.3,1615.8,23.9,1615.6,23.5z M1612.9,11.6v10.2
		c-0.5,0.7-1.1,1.3-1.8,1.7c-0.7,0.4-1.5,0.6-2.3,0.6c-1,0-1.9-0.2-2.7-0.7s-1.5-1.1-2.1-1.9c-0.6-0.8-1-1.7-1.3-2.8
		c-0.3-1.1-0.4-2.2-0.4-3.4c0-1.1,0.1-2.1,0.4-3c0.3-0.9,0.6-1.7,1.1-2.3c0.5-0.6,1.1-1.1,1.8-1.5c0.7-0.3,1.5-0.5,2.4-0.5
		c1.1,0,2.1,0.3,2.9,0.9C1611.7,9.4,1612.4,10.3,1612.9,11.6z"/>
	<path class="st0" d="M1635.1,23.5c-0.1-0.4-0.2-1-0.2-1.9V1.5l-3.6,0.4l0.3,0.2c0.3,0.2,0.5,0.5,0.6,0.7c0.1,0.3,0.1,0.7,0.1,1.3
		v4.6c-0.6-0.5-1.3-0.9-2-1.1c-0.8-0.3-1.8-0.4-2.7-0.4c-1.2,0-2.4,0.2-3.4,0.7c-1,0.5-1.9,1.1-2.7,1.9c-0.8,0.8-1.4,1.8-1.8,3
		c-0.4,1.1-0.6,2.4-0.6,3.8c0,1.2,0.2,2.3,0.6,3.3c0.4,1,1,1.9,1.7,2.7c0.7,0.8,1.7,1.3,2.7,1.8c1.1,0.4,2.2,0.6,3.5,0.6
		c0.9,0,1.9-0.2,2.8-0.6c0.8-0.3,1.5-0.8,2.1-1.5v2l3.5-0.1l-0.3-0.3C1635.4,24.3,1635.2,23.9,1635.1,23.5z M1632.3,11.6v10.2
		c-0.5,0.7-1.1,1.3-1.8,1.7c-0.7,0.4-1.5,0.6-2.3,0.6c-1,0-1.9-0.2-2.7-0.7c-0.8-0.5-1.5-1.1-2.1-1.9c-0.6-0.8-1-1.7-1.3-2.8
		c-0.3-1.1-0.4-2.2-0.4-3.4c0-1.1,0.1-2.1,0.4-3c0.3-0.9,0.6-1.7,1.1-2.3c0.5-0.6,1.1-1.1,1.8-1.5c0.7-0.3,1.5-0.5,2.4-0.5
		c1.1,0,2.1,0.3,2.9,0.9C1631.1,9.4,1631.8,10.3,1632.3,11.6z"/>
	<path class="st0" d="M1652.9,20.6c-0.4,0.7-0.9,1.4-1.4,1.9c-0.5,0.5-1.1,0.9-1.8,1.2c-0.6,0.3-1.4,0.4-2.1,0.4
		c-0.9,0-1.7-0.2-2.4-0.6c-0.7-0.4-1.4-1-1.9-1.7c-0.5-0.7-1-1.6-1.3-2.5c-0.3-1-0.5-2-0.5-3.2c0-0.3,0-0.6,0-0.9
		c0-0.3,0-0.5,0.1-0.8h12.8l0-0.2c0-1-0.2-2-0.5-2.8c-0.3-0.9-0.8-1.6-1.4-2.3c-0.6-0.6-1.4-1.1-2.3-1.5c-0.9-0.3-2-0.5-3.2-0.5
		c-1.3,0-2.5,0.2-3.5,0.7c-1,0.4-1.9,1.1-2.6,1.9c-0.7,0.8-1.3,1.8-1.7,2.8c-0.4,1.1-0.6,2.3-0.6,3.6c0,1.3,0.2,2.5,0.6,3.6
		c0.4,1.1,1.1,2,1.8,2.8c0.8,0.8,1.7,1.4,2.8,1.8c1.1,0.4,2.3,0.6,3.6,0.6c1.1,0,2.2-0.2,3.4-0.5c1.1-0.4,2.2-0.9,3.1-1.7l0.1,0
		l0.3-5.6l-0.4,1.1C1653.7,19.1,1653.3,19.9,1652.9,20.6z M1641.6,13.8c0.1-0.8,0.4-1.6,0.6-2.3c0.3-0.7,0.7-1.4,1.2-1.9
		c0.5-0.5,1-1,1.6-1.3c0.6-0.3,1.2-0.4,1.9-0.4c0.7,0,1.4,0.2,2,0.5c0.6,0.3,1.1,0.7,1.4,1.3c0.4,0.5,0.7,1.2,0.9,1.9
		c0.2,0.7,0.3,1.4,0.4,2.3H1641.6z"/>
	<path class="st0" d="M1674.9,24.2c-0.2-0.1-0.3-0.3-0.4-0.4c-0.1-0.2-0.2-0.4-0.2-0.7c0-0.3-0.1-0.6-0.1-1v-9
		c0-0.8-0.1-1.6-0.4-2.3c-0.3-0.7-0.7-1.3-1.2-1.9c-0.5-0.5-1.2-0.9-2-1.2c-0.8-0.3-1.6-0.4-2.6-0.4c-1.7,0-3.2,0.4-4.3,1.3
		c-0.9,0.7-1.7,1.7-2.2,2.8V7.1l-3.6,0.3l0.2,0.2c0.2,0.2,0.3,0.4,0.4,0.6c0.1,0.2,0.2,0.4,0.2,0.6c0.1,0.2,0.1,0.5,0.1,0.8
		c0,0.3,0,0.7,0,1.1V22c0,0.4,0,0.8-0.1,1.1c0,0.3-0.1,0.5-0.2,0.7c-0.1,0.2-0.3,0.3-0.4,0.4c-0.2,0.1-0.4,0.2-0.8,0.3l-1,0.3h7.4
		l-0.9-0.3c-0.3-0.1-0.5-0.2-0.7-0.3c-0.2-0.1-0.3-0.3-0.4-0.4c-0.1-0.2-0.2-0.4-0.2-0.7c0-0.3-0.1-0.6-0.1-1v-7.5
		c0.1-1,0.3-2,0.6-2.8c0.3-0.8,0.8-1.5,1.3-2c0.5-0.5,1.2-1,1.9-1.3c0.7-0.3,1.5-0.4,2.2-0.4c1.3,0,2.4,0.4,3.1,1.2
		c0.7,0.8,1.1,2,1.1,3.5V22c0,0.4,0,0.8-0.1,1.1c0,0.3-0.1,0.5-0.2,0.7c-0.1,0.2-0.3,0.3-0.4,0.4c-0.2,0.1-0.4,0.2-0.8,0.3l-1,0.3
		h7.4l-0.9-0.3C1675.3,24.4,1675.1,24.3,1674.9,24.2z"/>
	<path class="st0" d="M1701,7.9c0.1,0.1,0.2,0.2,0.3,0.3c0.1,0.1,0.1,0.3,0.1,0.6c0,0.2,0,0.5-0.2,0.9l-4.7,12l-4.9-12
		c-0.3-0.8-0.3-1.2-0.3-1.4c0.1-0.3,0.2-0.4,0.3-0.6l0.3-0.3h-4.8l0.5,0.3c0.1,0.1,0.3,0.3,0.5,0.5c0.2,0.2,0.4,0.7,0.7,1.3
		l6.4,15.4c-0.3,0.9-0.8,1.5-1.3,1.9c-1.1,0.9-2.5,0.8-4,0l-0.4-0.2l1.2,3.5l0.1,0c0.7-0.1,1.3-0.3,1.9-0.7c0.5-0.3,1-0.7,1.3-1.2
		c0.4-0.4,0.7-0.9,0.9-1.3c0.2-0.4,0.4-0.8,0.6-1.2l6.4-16c0.3-0.7,0.6-1.1,0.9-1.4c0.3-0.3,0.6-0.5,0.7-0.6l0.4-0.3h-3.8L1701,7.9z
		"/>
	<path class="st0" d="M1721.1,9.7c-0.8-0.8-1.7-1.4-2.8-1.8c-1.1-0.4-2.3-0.6-3.6-0.6s-2.5,0.2-3.6,0.6c-1.1,0.4-2,1-2.8,1.8
		c-0.8,0.8-1.4,1.7-1.8,2.8c-0.4,1.1-0.6,2.3-0.6,3.6c0,1.3,0.2,2.5,0.6,3.6c0.4,1.1,1,2,1.8,2.8c0.8,0.8,1.7,1.4,2.8,1.8
		c1.1,0.4,2.3,0.6,3.6,0.6s2.5-0.2,3.6-0.6c1.1-0.4,2-1,2.8-1.8c0.8-0.8,1.4-1.7,1.8-2.8c0.4-1.1,0.6-2.3,0.6-3.6
		c0-1.3-0.2-2.5-0.6-3.6C1722.5,11.4,1721.9,10.5,1721.1,9.7z M1720.8,16.1c0,1.2-0.2,2.3-0.4,3.3c-0.3,1-0.7,1.9-1.2,2.6
		c-0.5,0.7-1.2,1.3-1.9,1.7c-0.7,0.4-1.6,0.6-2.5,0.6s-1.7-0.2-2.5-0.6c-0.7-0.4-1.4-1-1.9-1.7c-0.5-0.7-1-1.6-1.2-2.6
		c-0.3-1-0.4-2.1-0.4-3.3c0-1.2,0.2-2.3,0.4-3.3c0.3-1,0.7-1.9,1.2-2.6c0.5-0.7,1.2-1.3,1.9-1.7c0.7-0.4,1.6-0.6,2.5-0.6
		c0.9,0,1.7,0.2,2.5,0.6c0.7,0.4,1.4,0.9,1.9,1.7c0.5,0.7,1,1.6,1.2,2.6C1720.7,13.8,1720.8,14.9,1720.8,16.1z"/>
	<path class="st0" d="M1741.6,23.5c-0.1-0.4-0.2-1-0.2-1.9V7.1l-3.6,0.3l0.2,0.2c0.2,0.2,0.3,0.4,0.4,0.6c0.1,0.2,0.2,0.4,0.2,0.6
		c0.1,0.2,0.1,0.5,0.1,0.8c0,0.3,0,0.7,0,1.1v6.9c0,0.7-0.2,1.5-0.4,2.3c-0.2,0.8-0.6,1.5-1,2.1c-0.4,0.6-1,1.1-1.6,1.5
		c-0.6,0.4-1.4,0.6-2.3,0.6c-0.5,0-1.1-0.1-1.5-0.2c-0.4-0.2-0.8-0.4-1.1-0.8c-0.3-0.4-0.6-0.8-0.7-1.4c-0.2-0.6-0.3-1.3-0.3-2.2
		V7.1l-3.6,0.3l0.2,0.2c0.2,0.2,0.3,0.4,0.4,0.6c0.1,0.2,0.2,0.4,0.2,0.6c0.1,0.2,0.1,0.5,0.1,0.8c0,0.3,0,0.7,0,1.1v8.7
		c0,1.8,0.5,3.2,1.6,4.1c1,0.9,2.5,1.3,4.2,1.3c0.8,0,1.6-0.1,2.2-0.3c0.6-0.2,1.2-0.5,1.7-1c0.5-0.4,0.9-0.9,1.3-1.5
		c0.2-0.4,0.5-0.8,0.7-1.3v4l3.5-0.1l-0.3-0.3C1741.9,24.3,1741.7,23.9,1741.6,23.5z"/>
	<path class="st0" d="M1754.2,7.2c-0.7,0-1.3,0.1-1.9,0.3c-0.6,0.2-1,0.5-1.5,0.9c-0.4,0.4-0.8,0.8-1.1,1.3
		c-0.2,0.3-0.4,0.6-0.5,0.9V7.1l-3.5,0.3l0.2,0.2c0.2,0.2,0.3,0.4,0.4,0.6c0.1,0.2,0.2,0.4,0.2,0.6c0.1,0.2,0.1,0.5,0.1,0.8
		c0,0.3,0,0.7,0,1.1V22c0,0.4,0,0.8-0.1,1.1c0,0.3-0.1,0.5-0.2,0.7c-0.1,0.2-0.3,0.3-0.4,0.4c-0.2,0.1-0.4,0.2-0.8,0.3l-1,0.3h7.4
		l-0.9-0.3c-0.3-0.1-0.5-0.2-0.7-0.3c-0.2-0.1-0.3-0.3-0.4-0.4c-0.1-0.2-0.2-0.4-0.2-0.7c0-0.3-0.1-0.6-0.1-1v-9.8
		c0.2-0.5,0.4-1,0.6-1.4c0.2-0.4,0.5-0.8,0.8-1.2c0.3-0.3,0.6-0.6,0.9-0.8c0.6-0.3,1.3-0.4,1.9-0.1c0.3,0.1,0.6,0.3,0.9,0.5
		c0.3,0.2,0.5,0.4,0.8,0.7c0.2,0.2,0.5,0.5,0.6,0.7l0.3,0.3l0-3.5l-0.1,0C1755.4,7.3,1754.8,7.2,1754.2,7.2z"/>
	<path class="st0" d="M1783.6,9.7c-0.8-0.8-1.7-1.4-2.8-1.8c-1.1-0.4-2.3-0.6-3.6-0.6s-2.5,0.2-3.6,0.6c-1.1,0.4-2,1-2.8,1.8
		c-0.8,0.8-1.4,1.7-1.8,2.8c-0.4,1.1-0.6,2.3-0.6,3.6c0,1.3,0.2,2.5,0.6,3.6c0.4,1.1,1,2,1.8,2.8s1.7,1.4,2.8,1.8
		c1.1,0.4,2.3,0.6,3.6,0.6s2.5-0.2,3.6-0.6c1.1-0.4,2-1,2.8-1.8s1.4-1.7,1.8-2.8c0.4-1.1,0.6-2.3,0.6-3.6c0-1.3-0.2-2.5-0.6-3.6
		C1785,11.4,1784.4,10.5,1783.6,9.7z M1777.2,24.2c-0.9,0-1.7-0.2-2.5-0.6c-0.7-0.4-1.4-1-1.9-1.7c-0.5-0.7-1-1.6-1.2-2.6
		c-0.3-1-0.4-2.1-0.4-3.3c0-1.2,0.2-2.3,0.4-3.3c0.3-1,0.7-1.9,1.2-2.6c0.5-0.7,1.2-1.3,1.9-1.7c0.7-0.4,1.6-0.6,2.5-0.6
		c0.9,0,1.7,0.2,2.5,0.6c0.7,0.4,1.4,0.9,1.9,1.7c0.5,0.7,1,1.6,1.2,2.6c0.3,1,0.4,2.1,0.4,3.3c0,1.2-0.2,2.3-0.4,3.3
		c-0.3,1-0.7,1.9-1.2,2.6c-0.5,0.7-1.2,1.3-1.9,1.7C1778.9,24,1778.1,24.2,1777.2,24.2z"/>
	<path class="st0" d="M1809.1,7.6c0.1,0.1,0.2,0.1,0.4,0.2c0.1,0.1,0.2,0.2,0.3,0.4c0.1,0.2,0.1,0.6,0.1,1c0,0.5-0.2,1.1-0.4,1.9
		l-3.2,9.7l-5.4-13.6h-0.5l-4.2,13.4l-4.1-11.4c-0.3-0.7-0.2-1-0.2-1.2c0.1-0.2,0.2-0.4,0.4-0.5l0.4-0.3h-4.9l0.6,0.3
		c0.1,0.1,0.3,0.2,0.6,0.7c0.2,0.4,0.5,1,0.9,1.9l5.2,14.5l0,0.1h0.6l4.2-13.4l5.3,13.3l0,0.1h0.6l4.8-14.7c0.3-0.9,0.6-1.5,0.8-1.8
		c0.3-0.3,0.6-0.6,0.9-0.7l0.6-0.3h-4.2L1809.1,7.6z"/>
	<path class="st0" d="M1832,24.2c-0.2-0.1-0.3-0.2-0.4-0.4c-0.1-0.2-0.2-0.4-0.2-0.7c0-0.3-0.1-0.6-0.1-1v-9c0-0.8-0.1-1.6-0.4-2.3
		c-0.3-0.7-0.7-1.3-1.2-1.9c-0.5-0.5-1.2-0.9-2-1.2c-0.8-0.3-1.6-0.4-2.6-0.4c-1.7,0-3.2,0.4-4.3,1.3c-0.9,0.7-1.7,1.7-2.2,2.8V7.1
		l-3.6,0.3l0.2,0.2c0.2,0.2,0.3,0.4,0.4,0.6c0.1,0.2,0.2,0.4,0.2,0.6c0.1,0.2,0.1,0.5,0.1,0.8c0,0.3,0,0.7,0,1.1V22
		c0,0.4,0,0.8-0.1,1.1c0,0.3-0.1,0.5-0.2,0.7c-0.1,0.2-0.3,0.3-0.4,0.4c-0.2,0.1-0.4,0.2-0.8,0.3l-1,0.3h7.4l-0.9-0.3
		c-0.3-0.1-0.5-0.2-0.7-0.3c-0.2-0.1-0.3-0.3-0.4-0.4c-0.1-0.2-0.2-0.4-0.2-0.7c0-0.3-0.1-0.6-0.1-1v-7.5c0.1-1,0.3-2,0.6-2.8
		c0.3-0.8,0.8-1.5,1.3-2c0.5-0.5,1.2-1,1.9-1.3c0.7-0.3,1.4-0.4,2.2-0.4c1.3,0,2.4,0.4,3.1,1.2c0.7,0.8,1.1,2,1.1,3.5V22
		c0,0.4,0,0.8-0.1,1.1c0,0.3-0.1,0.5-0.2,0.7c-0.1,0.2-0.3,0.3-0.4,0.4c-0.2,0.1-0.4,0.2-0.8,0.3l-1,0.3h7.4l-0.9-0.3
		C1832.5,24.4,1832.2,24.3,1832,24.2z"/>
	<path class="st0" d="M1860,9.5c-0.8-0.7-1.7-1.3-2.8-1.7c-1.1-0.4-2.3-0.6-3.6-0.6c-0.4,0-0.8,0-1.2,0.1c-0.4,0.1-0.9,0.2-1.3,0.3
		c-0.4,0.2-0.9,0.4-1.3,0.7c-0.3,0.2-0.6,0.5-0.9,0.8V1.5l-3.6,0.4l0.3,0.2c0.3,0.2,0.5,0.5,0.6,0.7c0.1,0.3,0.1,0.7,0.1,1.3v20.5
		l0.3,0.2l1.6-2c1.4,1.3,3.2,2,5.4,2c1.3,0,2.5-0.2,3.5-0.7c1.1-0.5,2-1.2,2.8-2c0.8-0.8,1.4-1.8,1.8-3c0.4-1.1,0.7-2.3,0.7-3.6
		c0-1.3-0.2-2.4-0.6-3.5C1861.4,11.1,1860.8,10.2,1860,9.5z M1859.7,16.8c0,1-0.1,2-0.4,2.9c-0.3,0.9-0.7,1.7-1.2,2.3
		c-0.5,0.6-1.1,1.2-1.9,1.5c-0.7,0.4-1.6,0.5-2.5,0.5c-1.1,0-2.1-0.3-2.9-0.8c-0.8-0.5-1.5-1.4-2.1-2.5V10c0.6-0.8,1.3-1.3,2-1.6
		c0.8-0.3,1.6-0.4,2.3-0.4c1.1,0,2,0.2,2.9,0.7c0.8,0.5,1.5,1.1,2.1,1.9c0.6,0.8,1,1.7,1.3,2.8C1859.6,14.4,1859.7,15.6,1859.7,16.8
		z"/>
	<path class="st0" d="M1879.3,20.6c-0.4,0.7-0.9,1.4-1.4,1.9c-0.5,0.5-1.1,0.9-1.8,1.2c-0.6,0.3-1.4,0.4-2.1,0.4
		c-0.9,0-1.7-0.2-2.4-0.6c-0.7-0.4-1.4-1-1.9-1.7c-0.5-0.7-1-1.6-1.3-2.5c-0.3-1-0.5-2.1-0.5-3.2c0-0.3,0-0.6,0-0.9
		c0-0.3,0-0.5,0.1-0.8h12.8l0-0.2c0-1-0.2-2-0.5-2.8c-0.3-0.9-0.8-1.6-1.4-2.3c-0.6-0.6-1.4-1.1-2.3-1.5c-0.9-0.3-2-0.5-3.2-0.5
		c-1.3,0-2.5,0.2-3.5,0.7c-1,0.4-1.9,1.1-2.6,1.9c-0.7,0.8-1.3,1.8-1.7,2.8c-0.4,1.1-0.6,2.3-0.6,3.6c0,1.3,0.2,2.5,0.6,3.6
		c0.4,1.1,1,2,1.8,2.8c0.8,0.8,1.7,1.4,2.8,1.8c1.1,0.4,2.3,0.6,3.6,0.6c1.1,0,2.2-0.2,3.4-0.5c1.1-0.4,2.2-0.9,3.1-1.7l0.1,0
		l0.3-5.6l-0.4,1.1C1880.1,19.1,1879.7,19.9,1879.3,20.6z M1868,13.8c0.1-0.8,0.4-1.6,0.6-2.3c0.3-0.7,0.7-1.4,1.2-1.9
		c0.5-0.5,1-1,1.6-1.3c0.6-0.3,1.2-0.4,1.9-0.4c0.7,0,1.4,0.2,2,0.5c0.6,0.3,1.1,0.7,1.4,1.3c0.4,0.5,0.7,1.2,0.9,1.9
		c0.2,0.7,0.3,1.4,0.4,2.3H1868z"/>
	<path class="st0" d="M1897.3,23.5c-0.1-0.4-0.2-0.9-0.2-1.5v-9.6c0-1.7-0.5-3-1.6-3.9c-1.1-0.9-2.5-1.3-4.3-1.3
		c-1.2,0-2.3,0.2-3.4,0.5c-1.1,0.3-2.1,0.8-2.8,1.4l-0.1,0.1l0.2,6.4l0.3-1.2c0.3-1.3,0.6-2.3,1.1-3.2c0.4-0.8,0.9-1.5,1.4-2
		c0.5-0.5,1-0.8,1.6-1c0.6-0.2,1.1-0.3,1.7-0.3c1.2,0,2,0.3,2.6,1c0.6,0.7,0.9,1.8,0.9,3.2v2.1l-3.2,0.8h0c-0.7,0.2-1.5,0.4-2.4,0.7
		c-0.9,0.3-1.7,0.6-2.4,1c-0.8,0.4-1.4,1-1.9,1.6c-0.5,0.7-0.8,1.5-0.8,2.4c0,0.7,0.1,1.3,0.4,1.8c0.3,0.5,0.6,1,1.1,1.3
		c0.5,0.3,1,0.6,1.7,0.8c0.6,0.2,1.4,0.2,2.1,0.2c0.8,0,1.6-0.1,2.2-0.3c0.6-0.2,1.2-0.5,1.7-0.9c0.5-0.4,0.9-0.8,1.2-1.3
		c0.2-0.3,0.3-0.6,0.5-0.8v3.4l3.5-0.1l-0.3-0.3C1897.6,24.3,1897.4,23.9,1897.3,23.5z M1894.5,15.1v3.6c0,0.9-0.2,1.7-0.5,2.4
		c-0.3,0.7-0.7,1.3-1.2,1.7c-0.5,0.5-1,0.8-1.6,1c-0.6,0.2-1.1,0.4-1.7,0.4c-1,0-1.7-0.3-2.2-0.9c-0.5-0.6-0.8-1.5-0.8-2.4
		c0-0.9,0.2-1.6,0.5-2.2c0.3-0.6,0.8-1.1,1.3-1.4c0.5-0.4,1-0.6,1.6-0.8c0.6-0.2,1.1-0.4,1.5-0.5L1894.5,15.1z"/>
	<path class="st0" d="M1916,23.5c-0.1-0.4-0.2-1-0.2-1.9V7.1l-3.6,0.3l0.2,0.2c0.2,0.2,0.3,0.4,0.4,0.6c0.1,0.2,0.2,0.4,0.2,0.6
		c0.1,0.2,0.1,0.5,0.1,0.8c0,0.3,0,0.7,0,1.1v6.9c0,0.7-0.2,1.5-0.4,2.3c-0.2,0.8-0.6,1.5-1,2.1c-0.4,0.6-1,1.1-1.6,1.5
		c-0.6,0.4-1.4,0.6-2.3,0.6c-0.5,0-1.1-0.1-1.5-0.2c-0.4-0.2-0.8-0.4-1.1-0.8c-0.3-0.4-0.6-0.8-0.7-1.4c-0.2-0.6-0.3-1.3-0.3-2.2
		V7.1l-3.6,0.3l0.2,0.2c0.2,0.2,0.3,0.4,0.4,0.6c0.1,0.2,0.2,0.4,0.2,0.6c0.1,0.2,0.1,0.5,0.1,0.8c0,0.3,0,0.7,0,1.1v8.7
		c0,1.8,0.5,3.2,1.6,4.1c1,0.9,2.5,1.3,4.2,1.3c0.8,0,1.6-0.1,2.2-0.3c0.6-0.2,1.2-0.5,1.7-1c0.5-0.4,0.9-0.9,1.3-1.5
		c0.2-0.4,0.5-0.8,0.7-1.3v4l3.5-0.1l-0.3-0.3C1916.3,24.3,1916.1,23.9,1916,23.5z"/>
	<path class="st0" d="M1929.1,22.3c-0.3,0.6-0.7,1-1.1,1.4c-0.4,0.3-0.8,0.5-1.4,0.5c-0.3,0-0.6,0-0.8-0.1c-0.2-0.1-0.4-0.2-0.5-0.5
		c-0.2-0.2-0.3-0.6-0.4-1c-0.1-0.4-0.1-1-0.1-1.6V8h5V7.3h-5V2.6l-2.4,4.7h-3.2V8h3v12.1c0,1.5,0.3,2.7,0.9,3.6
		c0.6,0.9,1.7,1.3,3.1,1.3c0.9,0,1.7-0.2,2.2-0.6c0.5-0.4,0.9-0.9,1.4-1.6l0.1-0.1l-0.7-0.5L1929.1,22.3z"/>
	<path class="st0" d="M1944.9,7.9c0.1,0.1,0.2,0.2,0.3,0.3s0.1,0.3,0.1,0.6c0,0.2,0,0.5-0.2,0.9l-4.7,12l-4.9-12
		c-0.3-0.8-0.3-1.2-0.3-1.4c0.1-0.3,0.2-0.4,0.3-0.6l0.3-0.3h-4.8l0.5,0.3c0.1,0.1,0.3,0.3,0.5,0.5c0.2,0.2,0.4,0.7,0.7,1.3
		l6.4,15.4c-0.3,0.9-0.8,1.5-1.3,1.9c-1.1,0.9-2.5,0.8-4,0l-0.4-0.2l1.2,3.5l0.1,0c0.7-0.1,1.3-0.3,1.9-0.7c0.5-0.3,1-0.7,1.3-1.2
		c0.4-0.4,0.7-0.9,0.9-1.3c0.2-0.4,0.4-0.8,0.6-1.2l6.4-16c0.3-0.7,0.6-1.1,0.9-1.4c0.3-0.3,0.6-0.5,0.7-0.6l0.4-0.3h-3.8
		L1944.9,7.9z"/>
	<path class="st0" d="M1980.1,7.6c0.1,0.1,0.2,0.1,0.4,0.2c0.1,0.1,0.2,0.2,0.3,0.4c0.1,0.2,0.1,0.6,0.1,1c0,0.5-0.2,1.1-0.4,1.9
		l-3.2,9.7l-5.4-13.6h-0.5l-4.2,13.4L1963,9.3c-0.3-0.7-0.2-1-0.2-1.2c0.1-0.2,0.2-0.4,0.4-0.5l0.4-0.3h-4.9l0.6,0.3
		c0.2,0.1,0.4,0.3,0.6,0.7c0.2,0.4,0.5,1,0.9,1.9l5.2,14.5l0,0.1h0.6l4.2-13.4l5.3,13.3l0,0.1h0.6l4.8-14.7c0.3-0.9,0.6-1.5,0.8-1.8
		c0.3-0.3,0.6-0.6,0.9-0.7l0.6-0.3h-4.2L1980.1,7.6z"/>
	<path class="st0" d="M1990.2,24.2c-0.2-0.1-0.3-0.3-0.4-0.4c-0.1-0.2-0.2-0.4-0.2-0.7c0-0.3-0.1-0.6-0.1-1V7.1l-3.6,0.3l0.2,0.2
		c0.2,0.2,0.3,0.4,0.4,0.6c0.1,0.2,0.2,0.4,0.2,0.6c0.1,0.2,0.1,0.5,0.1,0.8c0,0.3,0,0.7,0,1.1V22c0,0.4,0,0.8-0.1,1.1
		c0,0.3-0.1,0.5-0.2,0.7c-0.1,0.2-0.3,0.3-0.4,0.4c-0.2,0.1-0.4,0.2-0.8,0.3l-1,0.3h7.4l-0.9-0.3
		C1990.7,24.4,1990.4,24.3,1990.2,24.2z"/>
	<path class="st0" d="M1988.1,5.3c0.5,0,0.9-0.2,1.3-0.5c0.3-0.3,0.5-0.7,0.5-1.2c0-0.5-0.2-0.9-0.5-1.2c-0.3-0.3-0.8-0.5-1.3-0.5
		c-0.5,0-0.9,0.2-1.2,0.5c-0.3,0.3-0.5,0.7-0.5,1.2c0,0.5,0.2,0.9,0.5,1.2C1987.2,5.1,1987.6,5.3,1988.1,5.3z"/>
	<path class="st0" d="M2003.2,22.3c-0.3,0.6-0.7,1-1.1,1.4c-0.4,0.3-0.8,0.5-1.4,0.5c-0.3,0-0.6,0-0.8-0.1c-0.2-0.1-0.4-0.2-0.5-0.5
		c-0.2-0.2-0.3-0.6-0.4-1c-0.1-0.4-0.1-1-0.1-1.6V8h5V7.3h-5V2.6l-2.4,4.7h-3.2V8h3v12.1c0,1.5,0.3,2.7,0.9,3.6
		c0.6,0.9,1.7,1.3,3.1,1.3c0.9,0,1.7-0.2,2.2-0.6c0.5-0.4,0.9-0.9,1.4-1.6l0.1-0.1l-0.7-0.5L2003.2,22.3z"/>
	<path class="st0" d="M2023.8,24.2c-0.2-0.1-0.3-0.3-0.4-0.4c-0.1-0.2-0.2-0.4-0.2-0.7c0-0.3-0.1-0.6-0.1-1v-9
		c0-0.8-0.1-1.6-0.4-2.3c-0.3-0.7-0.7-1.3-1.2-1.9c-0.5-0.5-1.2-0.9-2-1.2c-0.8-0.3-1.6-0.4-2.6-0.4c-1.7,0-3.2,0.4-4.3,1.3
		c-0.9,0.7-1.7,1.7-2.2,2.8V1.5l-3.6,0.4l0.3,0.2c0.3,0.2,0.5,0.5,0.6,0.7c0.1,0.3,0.1,0.7,0.1,1.3V22c0,0.4,0,0.8-0.1,1.1
		c0,0.3-0.1,0.5-0.2,0.7c-0.1,0.2-0.3,0.3-0.4,0.4c-0.2,0.1-0.4,0.2-0.8,0.3l-1,0.3h7.4l-0.9-0.3c-0.3-0.1-0.5-0.2-0.7-0.3
		c-0.2-0.1-0.3-0.2-0.4-0.4c-0.1-0.2-0.2-0.4-0.2-0.7c0-0.3-0.1-0.6-0.1-1v-7.5c0.1-1,0.3-2,0.6-2.8c0.3-0.8,0.8-1.5,1.3-2
		c0.5-0.5,1.2-1,1.9-1.3c0.7-0.3,1.5-0.4,2.2-0.4c1.3,0,2.4,0.4,3.1,1.2c0.7,0.8,1.1,2,1.1,3.5V22c0,0.4,0,0.8-0.1,1.1
		c0,0.3-0.1,0.5-0.2,0.7c-0.1,0.2-0.3,0.3-0.4,0.4c-0.2,0.1-0.4,0.2-0.8,0.3l-1,0.3h7.4l-0.9-0.3C2024.2,24.4,2024,24.3,2023.8,24.2
		z"/>
	<path class="st0" d="M2031.9,24.2c-0.2-0.1-0.3-0.3-0.4-0.4c-0.1-0.2-0.2-0.4-0.2-0.7c0-0.3-0.1-0.6-0.1-1V7.1l-3.6,0.3l0.2,0.2
		c0.2,0.2,0.3,0.4,0.4,0.6c0.1,0.2,0.2,0.4,0.2,0.6c0.1,0.2,0.1,0.5,0.1,0.8c0,0.3,0,0.7,0,1.1V22c0,0.4,0,0.8-0.1,1.1
		c0,0.3-0.1,0.5-0.2,0.7c-0.1,0.2-0.3,0.3-0.4,0.4c-0.2,0.1-0.4,0.2-0.8,0.3l-1,0.3h7.4l-0.9-0.3
		C2032.3,24.4,2032.1,24.3,2031.9,24.2z"/>
	<path class="st0" d="M2029.8,5.3c0.5,0,0.9-0.2,1.3-0.5c0.3-0.3,0.5-0.7,0.5-1.2c0-0.5-0.2-0.9-0.5-1.2c-0.3-0.3-0.8-0.5-1.3-0.5
		c-0.5,0-0.9,0.2-1.2,0.5c-0.3,0.3-0.5,0.7-0.5,1.2c0,0.5,0.2,0.9,0.5,1.2C2028.9,5.1,2029.3,5.3,2029.8,5.3z"/>
	<path class="st0" d="M2052.9,24.2c-0.2-0.1-0.3-0.3-0.4-0.4c-0.1-0.2-0.2-0.4-0.2-0.7c0-0.3-0.1-0.6-0.1-1v-9
		c0-0.8-0.1-1.6-0.4-2.3c-0.3-0.7-0.7-1.3-1.2-1.9c-0.5-0.5-1.2-0.9-2-1.2c-0.8-0.3-1.6-0.4-2.6-0.4c-1.7,0-3.2,0.4-4.3,1.3
		c-0.9,0.7-1.7,1.7-2.2,2.8V7.1l-3.6,0.3l0.2,0.2c0.2,0.2,0.3,0.4,0.4,0.6c0.1,0.2,0.2,0.4,0.2,0.6c0.1,0.2,0.1,0.5,0.1,0.8
		c0,0.3,0,0.7,0,1.1V22c0,0.4,0,0.8-0.1,1.1c0,0.3-0.1,0.5-0.2,0.7c-0.1,0.2-0.3,0.3-0.4,0.4c-0.2,0.1-0.4,0.2-0.8,0.3l-1,0.3h7.4
		l-0.9-0.3c-0.3-0.1-0.5-0.2-0.7-0.3c-0.2-0.1-0.3-0.3-0.4-0.4c-0.1-0.2-0.2-0.4-0.2-0.7c0-0.3-0.1-0.6-0.1-1v-7.5
		c0.1-1,0.3-2,0.6-2.8c0.3-0.8,0.8-1.5,1.3-2c0.5-0.5,1.2-1,1.9-1.3c0.7-0.3,1.5-0.4,2.2-0.4c1.3,0,2.4,0.4,3.1,1.2
		c0.7,0.8,1.1,2,1.1,3.5V22c0,0.4,0,0.8-0.1,1.1c0,0.3-0.1,0.5-0.2,0.7c-0.1,0.2-0.3,0.3-0.4,0.4c-0.2,0.1-0.4,0.2-0.8,0.3l-1,0.3
		h7.4l-0.9-0.3C2053.3,24.4,2053.1,24.3,2052.9,24.2z"/>
	<path class="st0" d="M2079,7.9c0.1,0.1,0.2,0.2,0.3,0.3s0.1,0.3,0.1,0.6c0,0.2,0,0.5-0.2,0.9l-4.7,12l-4.9-12
		c-0.3-0.8-0.3-1.2-0.3-1.4c0.1-0.3,0.2-0.4,0.3-0.6l0.3-0.3h-4.8l0.5,0.3c0.1,0.1,0.3,0.3,0.5,0.5c0.2,0.2,0.4,0.7,0.7,1.3
		l6.4,15.4c-0.3,0.9-0.8,1.5-1.3,1.9c-1.1,0.9-2.5,0.8-4,0l-0.4-0.2l1.2,3.5l0.1,0c0.7-0.1,1.3-0.3,1.9-0.7c0.5-0.3,1-0.7,1.3-1.2
		c0.4-0.4,0.7-0.9,0.9-1.3c0.2-0.4,0.4-0.8,0.6-1.2l6.4-16c0.3-0.7,0.6-1.1,0.9-1.4c0.3-0.3,0.6-0.5,0.7-0.6l0.4-0.3h-3.8L2079,7.9z
		"/>
	<path class="st0" d="M2099.1,9.7c-0.8-0.8-1.7-1.4-2.8-1.8c-1.1-0.4-2.3-0.6-3.6-0.6s-2.5,0.2-3.6,0.6c-1.1,0.4-2,1-2.8,1.8
		c-0.8,0.8-1.4,1.7-1.8,2.8c-0.4,1.1-0.6,2.3-0.6,3.6c0,1.3,0.2,2.5,0.6,3.6c0.4,1.1,1,2,1.8,2.8c0.8,0.8,1.7,1.4,2.8,1.8
		c1.1,0.4,2.3,0.6,3.6,0.6s2.5-0.2,3.6-0.6c1.1-0.4,2-1,2.8-1.8c0.8-0.8,1.4-1.7,1.8-2.8c0.4-1.1,0.6-2.3,0.6-3.6
		c0-1.3-0.2-2.5-0.6-3.6C2100.5,11.4,2099.9,10.5,2099.1,9.7z M2098.8,16.1c0,1.2-0.2,2.3-0.4,3.3c-0.3,1-0.7,1.9-1.2,2.6
		c-0.5,0.7-1.2,1.3-1.9,1.7c-0.7,0.4-1.6,0.6-2.5,0.6s-1.7-0.2-2.5-0.6c-0.7-0.4-1.4-1-1.9-1.7c-0.5-0.7-1-1.6-1.2-2.6
		c-0.3-1-0.4-2.1-0.4-3.3c0-1.2,0.2-2.3,0.4-3.3c0.3-1,0.7-1.9,1.2-2.6c0.5-0.7,1.2-1.3,1.9-1.7c0.7-0.4,1.6-0.6,2.5-0.6
		c0.9,0,1.7,0.2,2.5,0.6c0.7,0.4,1.4,0.9,1.9,1.7c0.5,0.7,1,1.6,1.2,2.6C2098.7,13.8,2098.8,14.9,2098.8,16.1z"/>
	<path class="st0" d="M2119.6,23.5c-0.1-0.4-0.2-1-0.2-1.9V7.1l-3.6,0.3l0.2,0.2c0.2,0.2,0.3,0.4,0.4,0.6c0.1,0.2,0.2,0.4,0.2,0.6
		c0.1,0.2,0.1,0.5,0.1,0.8c0,0.3,0,0.7,0,1.1v6.9c0,0.7-0.2,1.5-0.4,2.3c-0.2,0.8-0.6,1.5-1,2.1c-0.4,0.6-1,1.1-1.6,1.5
		c-0.6,0.4-1.4,0.6-2.3,0.6c-0.5,0-1.1-0.1-1.5-0.2c-0.4-0.2-0.8-0.4-1.1-0.8c-0.3-0.4-0.6-0.8-0.7-1.4c-0.2-0.6-0.3-1.3-0.3-2.2
		V7.1l-3.6,0.3l0.2,0.2c0.2,0.2,0.3,0.4,0.4,0.6c0.1,0.2,0.2,0.4,0.2,0.6c0.1,0.2,0.1,0.5,0.1,0.8c0,0.3,0,0.7,0,1.1v8.7
		c0,1.8,0.5,3.2,1.6,4.1c1,0.9,2.5,1.3,4.2,1.3c0.8,0,1.6-0.1,2.2-0.3c0.6-0.2,1.2-0.5,1.7-1c0.5-0.4,0.9-0.9,1.3-1.5
		c0.2-0.4,0.5-0.8,0.7-1.3v4l3.5-0.1l-0.3-0.3C2119.9,24.3,2119.7,23.9,2119.6,23.5z"/>
	<path class="st0" d="M2132.2,7.2c-0.7,0-1.3,0.1-1.9,0.3c-0.6,0.2-1,0.5-1.5,0.9c-0.4,0.4-0.8,0.8-1.1,1.3
		c-0.2,0.3-0.4,0.6-0.5,0.9V7.1l-3.5,0.3l0.2,0.2c0.2,0.2,0.3,0.4,0.4,0.6c0.1,0.2,0.2,0.4,0.2,0.6c0.1,0.2,0.1,0.5,0.1,0.8
		c0,0.3,0,0.7,0,1.1V22c0,0.4,0,0.8-0.1,1.1c0,0.3-0.1,0.5-0.2,0.7c-0.1,0.2-0.3,0.3-0.4,0.4c-0.2,0.1-0.4,0.2-0.8,0.3l-1,0.3h7.4
		l-0.9-0.3c-0.3-0.1-0.5-0.2-0.7-0.3c-0.2-0.1-0.3-0.3-0.4-0.4c-0.1-0.2-0.2-0.4-0.2-0.7c0-0.3-0.1-0.6-0.1-1v-9.8
		c0.2-0.5,0.4-1,0.6-1.4c0.2-0.4,0.5-0.8,0.8-1.2c0.3-0.3,0.6-0.6,0.9-0.8c0.6-0.3,1.3-0.4,1.9-0.1c0.3,0.1,0.6,0.3,0.9,0.5
		c0.3,0.2,0.5,0.4,0.8,0.7c0.2,0.2,0.5,0.5,0.6,0.7l0.3,0.3l0-3.5l-0.1,0C2133.4,7.3,2132.8,7.2,2132.2,7.2z"/>
	<path class="st0" d="M2147.5,16c-0.5-0.4-0.9-0.7-1.4-0.9c-0.5-0.2-0.9-0.4-1.3-0.5l-2.9-1c-0.3-0.1-0.6-0.2-1-0.3
		c-0.3-0.1-0.6-0.3-0.9-0.5c-0.3-0.2-0.5-0.5-0.7-0.8c-0.2-0.3-0.3-0.7-0.3-1.1c0-1,0.3-1.8,1-2.3c0.7-0.5,1.6-0.7,2.6-0.7
		c1.3,0,2.4,0.4,3.2,1.3c0.8,0.8,1.5,2.3,1.9,4.2l0.3,1l0.3-5.2l-0.1-0.1c-0.7-0.6-1.5-1.1-2.4-1.4c-0.9-0.3-2-0.5-3.1-0.5
		c-1.7,0-3,0.4-4,1.2c-1,0.8-1.5,1.9-1.5,3.3c0,0.7,0.1,1.3,0.4,1.8c0.3,0.5,0.6,1,1,1.3c0.4,0.4,0.8,0.6,1.2,0.9
		c0.4,0.2,0.8,0.4,1.1,0.5l3.2,1.1c0.3,0.1,0.6,0.2,1,0.4c0.3,0.1,0.7,0.3,1,0.6c0.3,0.3,0.6,0.6,0.8,1c0.2,0.4,0.3,0.9,0.3,1.5
		c0,1-0.3,1.9-1,2.6c-0.7,0.7-1.8,1-3.2,1c-0.7,0-1.4-0.1-2-0.3c-0.6-0.2-1.2-0.6-1.6-1.1c-0.5-0.5-0.9-1.2-1.2-2.1
		c-0.3-0.9-0.6-2-0.7-3.4h-0.3l-0.5,5.8l0.1,0.1c0.7,0.6,1.6,1,2.7,1.3c1.1,0.3,2.2,0.5,3.4,0.5c1.1,0,2-0.1,2.8-0.4
		c0.8-0.3,1.5-0.6,2.1-1.1c0.6-0.5,1-1,1.3-1.7c0.3-0.6,0.4-1.4,0.4-2.1c0-0.8-0.2-1.5-0.5-2.1C2148.4,16.9,2148,16.4,2147.5,16z"/>
	<path class="st0" d="M2166.2,20.6c-0.4,0.7-0.9,1.4-1.4,1.9c-0.5,0.5-1.1,0.9-1.8,1.2c-0.6,0.3-1.4,0.4-2.1,0.4
		c-0.9,0-1.7-0.2-2.4-0.6c-0.7-0.4-1.4-1-1.9-1.7c-0.5-0.7-1-1.6-1.3-2.5c-0.3-1-0.5-2.1-0.5-3.2c0-0.3,0-0.6,0-0.9
		c0-0.3,0-0.5,0.1-0.8h12.8l0-0.2c0-1-0.2-2-0.5-2.8c-0.3-0.9-0.8-1.6-1.4-2.3c-0.6-0.6-1.4-1.1-2.3-1.5c-0.9-0.3-2-0.5-3.2-0.5
		c-1.3,0-2.5,0.2-3.5,0.7c-1,0.4-1.9,1.1-2.6,1.9c-0.7,0.8-1.3,1.8-1.7,2.8c-0.4,1.1-0.6,2.3-0.6,3.6c0,1.3,0.2,2.5,0.6,3.6
		c0.4,1.1,1,2,1.8,2.8c0.8,0.8,1.7,1.4,2.8,1.8c1.1,0.4,2.3,0.6,3.6,0.6c1.1,0,2.2-0.2,3.4-0.5c1.1-0.4,2.2-0.9,3.1-1.7l0.1,0
		l0.3-5.6l-0.4,1.1C2167.1,19.1,2166.7,19.9,2166.2,20.6z M2155,13.8c0.1-0.8,0.4-1.6,0.6-2.3c0.3-0.7,0.7-1.4,1.2-1.9
		c0.5-0.5,1-1,1.6-1.3c0.6-0.3,1.2-0.4,1.9-0.4c0.7,0,1.4,0.2,2,0.5c0.6,0.3,1.1,0.7,1.4,1.3c0.4,0.5,0.7,1.2,0.9,1.9
		c0.2,0.7,0.3,1.4,0.4,2.3H2155z"/>
	<path class="st0" d="M2175.5,24.2c-0.2-0.1-0.3-0.2-0.4-0.4c-0.1-0.2-0.2-0.4-0.2-0.7c0-0.3-0.1-0.6-0.1-1V1.5l-3.6,0.4l0.3,0.2
		c0.3,0.2,0.5,0.5,0.6,0.7c0.1,0.3,0.1,0.7,0.1,1.3V22c0,0.4,0,0.8-0.1,1.1c0,0.3-0.1,0.5-0.2,0.7c-0.1,0.2-0.3,0.3-0.4,0.4
		c-0.2,0.1-0.4,0.2-0.8,0.3l-1,0.3h7.4l-0.9-0.3C2176,24.4,2175.7,24.3,2175.5,24.2z"/>
	<path class="st0" d="M2189.4,0.8c-0.6-0.2-1.4-0.3-2.2-0.3c-0.8,0-1.6,0.1-2.2,0.3c-0.7,0.2-1.3,0.5-1.8,1c-0.5,0.5-0.9,1-1.2,1.7
		c-0.3,0.7-0.4,1.5-0.4,2.5v1.3h-3.1V8h3.1v14c0,0.4,0,0.8-0.1,1.1c0,0.3-0.1,0.5-0.2,0.7c-0.1,0.2-0.3,0.3-0.4,0.4
		c-0.2,0.1-0.4,0.2-0.8,0.3l-1,0.3h7.4l-0.9-0.3c-0.3-0.1-0.5-0.2-0.7-0.3c-0.2-0.1-0.3-0.3-0.4-0.4c-0.1-0.2-0.2-0.4-0.2-0.7
		c0-0.3-0.1-0.6-0.1-1V8h6.2V7.3h-6.2v-2c0-1.5,0.3-2.6,0.9-3.2c0.6-0.6,1.3-0.9,2.3-0.9c1,0,1.8,0.3,2.3,1c0.5,0.7,0.9,1.7,1.2,3.1
		l0.3,1.3l0.2-5.2l-0.1,0C2190.6,1.2,2190,0.9,2189.4,0.8z"/>
	<path class="st0" d="M2195.7,22.3c-0.4,0-0.7,0.1-1,0.4c-0.3,0.2-0.4,0.6-0.4,0.9c0,0.4,0.1,0.7,0.4,1c0.3,0.2,0.6,0.4,1,0.4
		c0.4,0,0.7-0.1,1-0.4c0.3-0.2,0.4-0.6,0.4-1c0-0.4-0.1-0.7-0.4-0.9C2196.4,22.4,2196.1,22.3,2195.7,22.3z"/>
	<path class="st0" d="M2234.8,4.5c0.2-0.3,0.6-0.6,1.2-0.8l1-0.3h-4.8l-7.9,18.2l-9-18.1l0-0.1h-4.3l1.3,0.3
		c0.3,0.1,0.6,0.2,0.8,0.3c0.2,0.1,0.3,0.3,0.4,0.4c0.1,0.2,0.2,0.4,0.2,0.7c0,0.3,0.1,0.6,0.1,1.1V22c0,0.8-0.1,1.4-0.3,1.8
		c-0.2,0.3-0.6,0.6-1.2,0.7l-1.1,0.3h6l-1-0.3c-0.6-0.2-1-0.4-1.2-0.8c-0.2-0.3-0.3-0.9-0.3-1.7V7.5l8.6,17.2l0,0.1h0.6l8.1-18.4V22
		c0,0.8-0.1,1.4-0.3,1.8c-0.2,0.3-0.6,0.6-1.2,0.7l-1.1,0.3h7.7l-1-0.3c-0.6-0.2-1-0.4-1.2-0.8c-0.2-0.3-0.3-0.9-0.3-1.7V6.2
		C2234.5,5.4,2234.6,4.8,2234.8,4.5z"/>
	<path class="st0" d="M2253.5,20.6c-0.4,0.7-0.9,1.4-1.4,1.9c-0.5,0.5-1.1,0.9-1.8,1.2c-0.6,0.3-1.4,0.4-2.1,0.4
		c-0.9,0-1.7-0.2-2.4-0.6c-0.7-0.4-1.4-1-1.9-1.7c-0.5-0.7-1-1.6-1.3-2.5c-0.3-1-0.5-2.1-0.5-3.2c0-0.3,0-0.6,0-0.9
		c0-0.3,0-0.5,0.1-0.8h12.8l0-0.2c0-1-0.2-2-0.5-2.8c-0.3-0.9-0.8-1.6-1.4-2.3c-0.6-0.6-1.4-1.1-2.3-1.5c-0.9-0.3-2-0.5-3.2-0.5
		c-1.3,0-2.5,0.2-3.5,0.7c-1,0.4-1.9,1.1-2.6,1.9c-0.7,0.8-1.3,1.8-1.7,2.8c-0.4,1.1-0.6,2.3-0.6,3.6c0,1.3,0.2,2.5,0.6,3.6
		c0.4,1.1,1,2,1.8,2.8c0.8,0.8,1.7,1.4,2.8,1.8c1.1,0.4,2.3,0.6,3.6,0.6c1.1,0,2.2-0.2,3.4-0.5c1.1-0.4,2.2-0.9,3.1-1.7l0.1,0
		l0.3-5.6l-0.4,1.1C2254.3,19.1,2253.9,19.9,2253.5,20.6z M2242.2,13.8c0.1-0.8,0.4-1.6,0.6-2.3c0.3-0.7,0.7-1.4,1.2-1.9
		c0.5-0.5,1-1,1.6-1.3c0.6-0.3,1.2-0.4,1.9-0.4c0.7,0,1.4,0.2,2,0.5c0.6,0.3,1.1,0.7,1.4,1.3c0.4,0.5,0.7,1.2,0.9,1.9
		c0.2,0.7,0.3,1.4,0.4,2.3H2242.2z"/>
	<path class="st0" d="M2272.2,20.6c-0.4,0.7-0.9,1.4-1.4,1.9c-0.5,0.5-1.1,0.9-1.8,1.2c-0.6,0.3-1.4,0.4-2.1,0.4
		c-0.9,0-1.7-0.2-2.4-0.6c-0.7-0.4-1.4-1-1.9-1.7c-0.5-0.7-1-1.6-1.3-2.5c-0.3-1-0.5-2-0.5-3.2c0-0.3,0-0.6,0-0.9
		c0-0.3,0-0.5,0.1-0.8h12.8l0-0.2c0-1-0.2-2-0.5-2.8c-0.3-0.9-0.8-1.6-1.4-2.3c-0.6-0.6-1.4-1.1-2.3-1.5c-0.9-0.3-2-0.5-3.2-0.5
		c-1.3,0-2.5,0.2-3.5,0.7c-1,0.4-1.9,1.1-2.6,1.9c-0.7,0.8-1.3,1.8-1.7,2.8c-0.4,1.1-0.6,2.3-0.6,3.6c0,1.3,0.2,2.5,0.6,3.6
		c0.4,1.1,1.1,2,1.8,2.8c0.8,0.8,1.7,1.4,2.8,1.8c1.1,0.4,2.3,0.6,3.6,0.6c1.1,0,2.2-0.2,3.4-0.5c1.1-0.4,2.2-0.9,3.1-1.7l0.1,0
		l0.3-5.6l-0.4,1.1C2273,19.1,2272.6,19.9,2272.2,20.6z M2261,13.8c0.1-0.8,0.4-1.6,0.6-2.3c0.3-0.7,0.7-1.4,1.2-1.9
		c0.5-0.5,1-1,1.6-1.3c0.6-0.3,1.2-0.4,1.9-0.4c0.7,0,1.4,0.2,2,0.5c0.6,0.3,1.1,0.7,1.4,1.3c0.4,0.5,0.7,1.2,0.9,1.9
		c0.2,0.7,0.3,1.4,0.4,2.3H2261z"/>
	<path class="st0" d="M2286.2,22.3c-0.3,0.6-0.7,1-1.1,1.4c-0.4,0.3-0.8,0.5-1.4,0.5c-0.3,0-0.6,0-0.8-0.1c-0.2-0.1-0.4-0.2-0.5-0.5
		c-0.2-0.2-0.3-0.6-0.4-1c-0.1-0.4-0.1-1-0.1-1.6V8h5V7.3h-5V2.6l-2.4,4.7h-3.2V8h3v12.1c0,1.5,0.3,2.7,0.9,3.6
		c0.6,0.9,1.7,1.3,3.1,1.3c0.9,0,1.7-0.2,2.2-0.6c0.5-0.4,0.9-0.9,1.4-1.6l0.1-0.1l-0.7-0.5L2286.2,22.3z"/>
	<path class="st0" d="M2312.8,23.5c-0.1-0.4-0.2-0.9-0.2-1.5v-9.6c0-1.7-0.5-3-1.6-3.9c-1.1-0.9-2.5-1.3-4.3-1.3
		c-1.2,0-2.3,0.2-3.4,0.5c-1.1,0.3-2.1,0.8-2.8,1.4l-0.1,0.1l0.2,6.4l0.3-1.2c0.3-1.3,0.6-2.3,1.1-3.2c0.4-0.8,0.9-1.5,1.4-2
		c0.5-0.5,1-0.8,1.6-1c0.6-0.2,1.1-0.3,1.7-0.3c1.2,0,2,0.3,2.6,1c0.6,0.7,0.9,1.8,0.9,3.2v2.1l-3.2,0.8h0c-0.7,0.2-1.5,0.4-2.4,0.7
		c-0.9,0.3-1.7,0.6-2.4,1c-0.8,0.4-1.4,1-1.9,1.6c-0.5,0.7-0.8,1.5-0.8,2.4c0,0.7,0.1,1.3,0.4,1.8c0.3,0.5,0.6,0.9,1.1,1.3
		c0.5,0.3,1,0.6,1.7,0.8c0.6,0.2,1.4,0.2,2.1,0.2c0.8,0,1.6-0.1,2.2-0.3c0.6-0.2,1.2-0.5,1.7-0.9c0.5-0.4,0.9-0.8,1.2-1.3
		c0.2-0.3,0.3-0.6,0.5-0.8v3.4l3.5-0.1l-0.3-0.3C2313.1,24.3,2312.9,23.9,2312.8,23.5z M2310,15.1v3.6c0,0.9-0.2,1.7-0.5,2.4
		c-0.3,0.7-0.7,1.3-1.2,1.7s-1,0.8-1.6,1c-0.6,0.2-1.1,0.4-1.7,0.4c-1,0-1.7-0.3-2.2-0.9c-0.5-0.6-0.8-1.5-0.8-2.4
		c0-0.9,0.2-1.6,0.5-2.2c0.3-0.6,0.8-1.1,1.3-1.4c0.5-0.4,1-0.6,1.6-0.8c0.6-0.2,1.1-0.4,1.5-0.5L2310,15.1z"/>
	<path class="st0" d="M2343.7,24.2c-0.2-0.1-0.3-0.3-0.4-0.4c-0.1-0.2-0.2-0.4-0.2-0.7c0-0.3-0.1-0.6-0.1-1v-9
		c0-0.8-0.1-1.6-0.4-2.3c-0.3-0.7-0.7-1.3-1.2-1.9c-0.5-0.5-1.2-0.9-2-1.2c-0.8-0.3-1.6-0.4-2.6-0.4c-1.7,0-3.2,0.4-4.3,1.3
		c-0.9,0.7-1.7,1.7-2.2,2.8V7.1l-3.6,0.3l0.2,0.2c0.2,0.2,0.3,0.4,0.4,0.6c0.1,0.2,0.2,0.4,0.2,0.6c0.1,0.2,0.1,0.5,0.1,0.8
		c0,0.3,0,0.7,0,1.1V22c0,0.4,0,0.8-0.1,1.1c0,0.3-0.1,0.5-0.2,0.7c-0.1,0.2-0.3,0.3-0.4,0.4c-0.2,0.1-0.4,0.2-0.8,0.3l-1,0.3h7.4
		l-0.9-0.3c-0.3-0.1-0.5-0.2-0.7-0.3c-0.2-0.1-0.3-0.3-0.4-0.4c-0.1-0.2-0.2-0.4-0.2-0.7c0-0.3-0.1-0.6-0.1-1v-7.5
		c0.1-1,0.3-2,0.6-2.8c0.3-0.8,0.8-1.5,1.3-2c0.5-0.5,1.2-1,1.9-1.3c0.7-0.3,1.5-0.4,2.2-0.4c1.3,0,2.4,0.4,3.1,1.2
		c0.7,0.8,1.1,2,1.1,3.5V22c0,0.4,0,0.8-0.1,1.1c0,0.3-0.1,0.5-0.2,0.7c-0.1,0.2-0.3,0.3-0.4,0.4c-0.2,0.1-0.4,0.2-0.8,0.3l-1,0.3
		h7.4l-0.9-0.3C2344.2,24.4,2343.9,24.3,2343.7,24.2z"/>
	<path class="st0" d="M2361.3,20.6c-0.4,0.7-0.9,1.4-1.4,1.9c-0.5,0.5-1.1,0.9-1.8,1.2c-0.6,0.3-1.4,0.4-2.1,0.4
		c-0.9,0-1.7-0.2-2.4-0.6c-0.7-0.4-1.4-1-1.9-1.7c-0.5-0.7-1-1.6-1.3-2.5c-0.3-1-0.5-2-0.5-3.2c0-0.3,0-0.6,0-0.9
		c0-0.3,0-0.5,0.1-0.8h12.8l0-0.2c0-1-0.2-2-0.5-2.8c-0.3-0.9-0.8-1.6-1.4-2.3c-0.6-0.6-1.4-1.1-2.3-1.5c-0.9-0.3-2-0.5-3.2-0.5
		c-1.3,0-2.5,0.2-3.5,0.7c-1,0.4-1.9,1.1-2.6,1.9c-0.7,0.8-1.3,1.8-1.7,2.8c-0.4,1.1-0.6,2.3-0.6,3.6c0,1.3,0.2,2.5,0.6,3.6
		c0.4,1.1,1.1,2,1.8,2.8c0.8,0.8,1.7,1.4,2.8,1.8c1.1,0.4,2.3,0.6,3.6,0.6c1.1,0,2.2-0.2,3.4-0.5c1.1-0.4,2.2-0.9,3.1-1.7l0.1,0
		l0.3-5.6l-0.4,1.1C2362.1,19.1,2361.7,19.9,2361.3,20.6z M2350.1,13.8c0.1-0.8,0.4-1.6,0.6-2.3c0.3-0.7,0.7-1.4,1.2-1.9
		c0.5-0.5,1-1,1.6-1.3c0.6-0.3,1.2-0.4,1.9-0.4c0.7,0,1.4,0.2,2,0.5c0.6,0.3,1.1,0.7,1.4,1.3c0.4,0.5,0.7,1.2,0.9,1.9
		c0.2,0.7,0.3,1.4,0.4,2.3H2350.1z"/>
	<path class="st0" d="M2386.1,7.6c0.1,0.1,0.2,0.1,0.4,0.2c0.1,0.1,0.2,0.2,0.3,0.4c0.1,0.2,0.1,0.6,0.1,1c0,0.5-0.2,1.1-0.4,1.9
		l-3.2,9.7l-5.4-13.6h-0.5l-4.2,13.4l-4.1-11.4c-0.3-0.7-0.2-1-0.2-1.2c0.1-0.2,0.2-0.4,0.4-0.5l0.4-0.3h-4.9l0.6,0.3
		c0.1,0.1,0.3,0.2,0.6,0.7c0.2,0.4,0.5,1,0.9,1.9l5.2,14.5l0,0.1h0.6l4.2-13.4l5.3,13.3l0,0.1h0.6l4.8-14.7c0.3-0.9,0.6-1.5,0.8-1.8
		c0.3-0.3,0.6-0.6,0.9-0.7l0.6-0.3h-4.2L2386.1,7.6z"/>
	<path class="st0" d="M2414.2,7.9c0.1,0.1,0.2,0.2,0.3,0.3c0.1,0.1,0.1,0.3,0.1,0.6c0,0.2,0,0.5-0.2,0.9l-4.7,12l-4.9-12
		c-0.3-0.8-0.3-1.2-0.3-1.4c0.1-0.3,0.2-0.4,0.3-0.6l0.3-0.3h-4.8l0.5,0.3c0.1,0.1,0.3,0.3,0.5,0.5c0.2,0.2,0.4,0.7,0.7,1.3
		l6.4,15.4c-0.3,0.9-0.8,1.5-1.3,1.9c-1.1,0.9-2.5,0.8-4,0l-0.4-0.2l1.2,3.5l0.1,0c0.7-0.1,1.3-0.3,1.9-0.7c0.5-0.3,1-0.7,1.3-1.2
		c0.4-0.4,0.7-0.9,0.9-1.3c0.2-0.4,0.4-0.8,0.6-1.2l6.4-16c0.3-0.7,0.6-1.1,0.9-1.4c0.3-0.3,0.6-0.5,0.7-0.6l0.4-0.3h-3.8
		L2414.2,7.9z"/>
	<path class="st0" d="M2434.4,9.7c-0.8-0.8-1.7-1.4-2.8-1.8c-1.1-0.4-2.3-0.6-3.6-0.6s-2.5,0.2-3.6,0.6c-1.1,0.4-2,1-2.8,1.8
		c-0.8,0.8-1.4,1.7-1.8,2.8c-0.4,1.1-0.6,2.3-0.6,3.6c0,1.3,0.2,2.5,0.6,3.6c0.4,1.1,1,2,1.8,2.8c0.8,0.8,1.7,1.4,2.8,1.8
		c1.1,0.4,2.3,0.6,3.6,0.6s2.5-0.2,3.6-0.6c1.1-0.4,2-1,2.8-1.8c0.8-0.8,1.4-1.7,1.8-2.8c0.4-1.1,0.6-2.3,0.6-3.6
		c0-1.3-0.2-2.5-0.6-3.6C2435.8,11.4,2435.2,10.5,2434.4,9.7z M2434.1,16.1c0,1.2-0.2,2.3-0.4,3.3c-0.3,1-0.7,1.9-1.2,2.6
		c-0.5,0.7-1.2,1.3-1.9,1.7c-0.7,0.4-1.6,0.6-2.5,0.6s-1.7-0.2-2.5-0.6c-0.7-0.4-1.4-1-1.9-1.7c-0.5-0.7-1-1.6-1.2-2.6
		c-0.3-1-0.4-2.1-0.4-3.3c0-1.2,0.2-2.3,0.4-3.3c0.3-1,0.7-1.9,1.2-2.6c0.5-0.7,1.2-1.3,1.9-1.7c0.7-0.4,1.6-0.6,2.5-0.6
		c0.9,0,1.7,0.2,2.5,0.6c0.7,0.4,1.4,0.9,1.9,1.7c0.5,0.7,1,1.6,1.2,2.6C2433.9,13.8,2434.1,14.9,2434.1,16.1z"/>
	<path class="st0" d="M2454.8,23.5c-0.1-0.4-0.2-1-0.2-1.9V7.1l-3.6,0.3l0.2,0.2c0.2,0.2,0.3,0.4,0.4,0.6c0.1,0.2,0.2,0.4,0.2,0.6
		c0.1,0.2,0.1,0.5,0.1,0.8c0,0.3,0,0.7,0,1.1v6.9c0,0.7-0.2,1.5-0.4,2.3c-0.2,0.8-0.6,1.5-1,2.1c-0.4,0.6-1,1.1-1.6,1.5
		c-0.6,0.4-1.4,0.6-2.3,0.6c-0.5,0-1.1-0.1-1.5-0.2c-0.4-0.2-0.8-0.4-1.1-0.8c-0.3-0.4-0.6-0.8-0.7-1.4c-0.2-0.6-0.3-1.3-0.3-2.2
		V7.1l-3.6,0.3l0.2,0.2c0.2,0.2,0.3,0.4,0.4,0.6c0.1,0.2,0.2,0.4,0.2,0.6c0.1,0.2,0.1,0.5,0.1,0.8c0,0.3,0,0.7,0,1.1v8.7
		c0,1.8,0.5,3.2,1.6,4.1c1,0.9,2.5,1.3,4.2,1.3c0.8,0,1.6-0.1,2.2-0.3c0.6-0.2,1.2-0.5,1.7-1c0.5-0.4,0.9-0.9,1.3-1.5
		c0.2-0.4,0.5-0.8,0.7-1.3v4l3.5-0.1l-0.3-0.3C2455.2,24.3,2455,23.9,2454.8,23.5z"/>
	<path class="st0" d="M2488.7,7.6c0.1,0.1,0.2,0.1,0.4,0.2c0.1,0.1,0.2,0.2,0.3,0.4c0.1,0.2,0.1,0.6,0.1,1c0,0.5-0.2,1.1-0.4,1.9
		l-3.2,9.7l-5.4-13.6h-0.5l-4.2,13.4l-4.1-11.4c-0.3-0.7-0.2-1-0.2-1.2c0.1-0.2,0.2-0.4,0.4-0.5l0.4-0.3h-4.9l0.6,0.3
		c0.1,0.1,0.3,0.2,0.6,0.7c0.2,0.4,0.5,1,0.9,1.9l5.2,14.5l0,0.1h0.6l4.2-13.4l5.3,13.3l0,0.1h0.6l4.8-14.7c0.3-0.9,0.6-1.5,0.8-1.8
		c0.3-0.3,0.6-0.6,0.9-0.7l0.6-0.3h-4.2L2488.7,7.6z"/>
	<path class="st0" d="M2496.7,5.3c0.5,0,0.9-0.2,1.3-0.5c0.3-0.3,0.5-0.7,0.5-1.2c0-0.5-0.2-0.9-0.5-1.2c-0.3-0.3-0.8-0.5-1.3-0.5
		c-0.5,0-0.9,0.2-1.2,0.5c-0.3,0.3-0.5,0.7-0.5,1.2c0,0.5,0.2,0.9,0.5,1.2C2495.8,5.1,2496.2,5.3,2496.7,5.3z"/>
	<path class="st0" d="M2498.8,24.2c-0.2-0.1-0.3-0.3-0.4-0.4c-0.1-0.2-0.2-0.4-0.2-0.7c0-0.3-0.1-0.6-0.1-1V7.1l-3.6,0.3l0.2,0.2
		c0.2,0.2,0.3,0.4,0.4,0.6c0.1,0.2,0.2,0.4,0.2,0.6c0.1,0.2,0.1,0.5,0.1,0.8c0,0.3,0,0.7,0,1.1V22c0,0.4,0,0.8-0.1,1.1
		c0,0.3-0.1,0.5-0.2,0.7c-0.1,0.2-0.3,0.3-0.4,0.4c-0.2,0.1-0.4,0.2-0.8,0.3l-1,0.3h7.4l-0.9-0.3C2499.3,24.4,2499,24.3,2498.8,24.2
		z"/>
	<path class="st0" d="M2511.8,22.3c-0.3,0.6-0.7,1-1.1,1.4c-0.4,0.3-0.8,0.5-1.4,0.5c-0.3,0-0.6,0-0.8-0.1c-0.2-0.1-0.4-0.2-0.5-0.5
		c-0.2-0.2-0.3-0.6-0.4-1c-0.1-0.4-0.1-1-0.1-1.6V8h5V7.3h-5V2.6l-2.4,4.7h-3.2V8h3v12.1c0,1.5,0.3,2.7,0.9,3.6
		c0.6,0.9,1.7,1.3,3.1,1.3c0.9,0,1.7-0.2,2.2-0.6c0.5-0.4,0.9-0.9,1.4-1.6l0.1-0.1l-0.7-0.5L2511.8,22.3z"/>
	<path class="st0" d="M2532.4,24.2c-0.2-0.1-0.3-0.3-0.4-0.4c-0.1-0.2-0.2-0.4-0.2-0.7c0-0.3-0.1-0.6-0.1-1v-9
		c0-0.8-0.1-1.6-0.4-2.3c-0.3-0.7-0.7-1.3-1.2-1.9c-0.5-0.5-1.2-0.9-2-1.2c-0.8-0.3-1.6-0.4-2.6-0.4c-1.7,0-3.2,0.4-4.3,1.3
		c-0.9,0.7-1.7,1.7-2.2,2.8V1.5l-3.6,0.4l0.3,0.2c0.3,0.2,0.5,0.5,0.6,0.7c0.1,0.3,0.1,0.7,0.1,1.3V22c0,0.4,0,0.8-0.1,1.1
		c0,0.3-0.1,0.5-0.2,0.7c-0.1,0.2-0.3,0.3-0.4,0.4c-0.2,0.1-0.4,0.2-0.8,0.3l-1,0.3h7.4l-0.9-0.3c-0.3-0.1-0.5-0.2-0.7-0.3
		c-0.2-0.1-0.3-0.2-0.4-0.4c-0.1-0.2-0.2-0.4-0.2-0.7c0-0.3-0.1-0.6-0.1-1v-7.5c0.1-1,0.3-2,0.6-2.8c0.3-0.8,0.8-1.5,1.3-2
		c0.5-0.5,1.2-1,1.9-1.3c0.7-0.3,1.5-0.4,2.2-0.4c1.3,0,2.4,0.4,3.1,1.2c0.7,0.8,1.1,2,1.1,3.5V22c0,0.4,0,0.8-0.1,1.1
		c0,0.3-0.1,0.5-0.2,0.7c-0.1,0.2-0.3,0.3-0.4,0.4c-0.2,0.1-0.4,0.2-0.8,0.3l-1,0.3h7.4l-0.9-0.3
		C2532.8,24.4,2532.6,24.3,2532.4,24.2z"/>
	<path class="st0" d="M2560.8,9.5c-0.8-0.7-1.7-1.3-2.8-1.7c-1.1-0.4-2.3-0.6-3.6-0.6c-0.4,0-0.8,0-1.3,0.1
		c-0.4,0.1-0.9,0.2-1.4,0.3c-0.5,0.2-0.9,0.4-1.3,0.7c-0.3,0.2-0.6,0.5-0.9,0.8V7.1l-3.5,0.3l0.2,0.2c0.2,0.2,0.3,0.4,0.4,0.6
		c0.1,0.2,0.2,0.4,0.2,0.6c0.1,0.2,0.1,0.5,0.1,0.8c0,0.3,0,0.7,0,1.1v16.9c0,0.4,0,0.8-0.1,1.1c0,0.3-0.1,0.5-0.2,0.7
		s-0.3,0.3-0.4,0.4c-0.2,0.1-0.4,0.2-0.7,0.3l-1.3,0.3h7.7l-0.9-0.3c-0.3-0.1-0.5-0.2-0.7-0.3c-0.2-0.1-0.3-0.3-0.4-0.4
		c-0.1-0.2-0.2-0.4-0.2-0.7c0-0.3-0.1-0.6-0.1-1v-4.4c0.6,0.5,1.3,0.9,2,1.1c0.8,0.3,1.8,0.4,2.7,0.4c1.3,0,2.5-0.2,3.6-0.7
		c1.1-0.5,2-1.1,2.8-2c0.8-0.8,1.4-1.8,1.8-2.9c0.4-1.1,0.7-2.4,0.7-3.6c0-1.3-0.2-2.4-0.6-3.5C2562.2,11.1,2561.6,10.2,2560.8,9.5z
		 M2560.6,16.7c0,1-0.1,2-0.4,3c-0.3,0.9-0.7,1.7-1.2,2.4c-0.5,0.7-1.2,1.2-1.9,1.6c-0.7,0.4-1.6,0.6-2.5,0.6
		c-1.1,0-2.1-0.3-2.9-0.8c-0.8-0.5-1.5-1.3-2-2.4V10c0.6-0.8,1.3-1.3,2-1.6c0.8-0.3,1.5-0.4,2.3-0.4c1.1,0,2.1,0.2,2.9,0.6
		c0.8,0.4,1.5,1,2.1,1.8c0.6,0.8,1,1.7,1.3,2.7C2560.5,14.3,2560.6,15.4,2560.6,16.7z"/>
	<path class="st0" d="M2580.1,20.6c-0.4,0.7-0.9,1.4-1.4,1.9c-0.5,0.5-1.1,0.9-1.8,1.2c-0.6,0.3-1.4,0.4-2.1,0.4
		c-0.9,0-1.7-0.2-2.4-0.6c-0.7-0.4-1.4-1-1.9-1.7c-0.5-0.7-1-1.6-1.3-2.5c-0.3-1-0.5-2.1-0.5-3.2c0-0.3,0-0.6,0-0.9
		c0-0.3,0-0.5,0.1-0.8h12.8l0-0.2c0-1-0.2-2-0.5-2.8c-0.3-0.9-0.8-1.6-1.4-2.3c-0.6-0.6-1.4-1.1-2.3-1.5c-0.9-0.3-2-0.5-3.2-0.5
		c-1.3,0-2.5,0.2-3.5,0.7c-1,0.4-1.9,1.1-2.6,1.9c-0.7,0.8-1.3,1.8-1.7,2.8c-0.4,1.1-0.6,2.3-0.6,3.6c0,1.3,0.2,2.5,0.6,3.6
		c0.4,1.1,1,2,1.8,2.8c0.8,0.8,1.7,1.4,2.8,1.8c1.1,0.4,2.3,0.6,3.6,0.6c1.1,0,2.2-0.2,3.4-0.5c1.1-0.4,2.2-0.9,3.1-1.7l0.1,0
		l0.3-5.6l-0.4,1.1C2580.9,19.1,2580.5,19.9,2580.1,20.6z M2568.9,13.8c0.1-0.8,0.4-1.6,0.6-2.3c0.3-0.7,0.7-1.4,1.2-1.9
		c0.5-0.5,1-1,1.6-1.3c0.6-0.3,1.2-0.4,1.9-0.4c0.7,0,1.4,0.2,2,0.5c0.6,0.3,1.1,0.7,1.4,1.3c0.4,0.5,0.7,1.2,0.9,1.9
		c0.2,0.7,0.3,1.4,0.4,2.3H2568.9z"/>
	<path class="st0" d="M2593.6,7.2c-0.7,0-1.3,0.1-1.9,0.3c-0.6,0.2-1,0.5-1.5,0.9c-0.4,0.4-0.8,0.8-1.1,1.3
		c-0.2,0.3-0.4,0.6-0.5,0.9V7.1l-3.5,0.3l0.2,0.2c0.2,0.2,0.3,0.4,0.4,0.6c0.1,0.2,0.2,0.4,0.2,0.6c0.1,0.2,0.1,0.5,0.1,0.8
		c0,0.3,0,0.7,0,1.1V22c0,0.4,0,0.8-0.1,1.1c0,0.3-0.1,0.5-0.2,0.7c-0.1,0.2-0.3,0.3-0.4,0.4c-0.2,0.1-0.4,0.2-0.8,0.3l-1,0.3h7.4
		l-0.9-0.3c-0.3-0.1-0.5-0.2-0.7-0.3c-0.2-0.1-0.3-0.2-0.4-0.4c-0.1-0.2-0.2-0.4-0.2-0.7c0-0.3-0.1-0.6-0.1-1v-9.8
		c0.2-0.5,0.4-1,0.6-1.4c0.2-0.4,0.5-0.8,0.8-1.2c0.3-0.3,0.6-0.6,0.9-0.8c0.6-0.3,1.3-0.4,1.9-0.1c0.3,0.1,0.6,0.3,0.9,0.5
		c0.3,0.2,0.5,0.4,0.8,0.7c0.2,0.2,0.5,0.5,0.6,0.7l0.3,0.3l0-3.5l-0.1,0C2594.9,7.3,2594.3,7.2,2593.6,7.2z"/>
	<path class="st0" d="M2609,16c-0.5-0.4-0.9-0.7-1.4-0.9c-0.5-0.2-1-0.4-1.3-0.5l-2.9-1c-0.3-0.1-0.6-0.2-1-0.3
		c-0.3-0.1-0.6-0.3-0.9-0.5c-0.3-0.2-0.5-0.5-0.7-0.8c-0.2-0.3-0.3-0.7-0.3-1.1c0-1,0.3-1.8,1-2.3c0.7-0.5,1.6-0.7,2.6-0.7
		c1.3,0,2.4,0.4,3.2,1.3c0.8,0.8,1.5,2.3,1.9,4.2l0.3,1l0.3-5.2l-0.1-0.1c-0.7-0.6-1.5-1.1-2.4-1.4c-0.9-0.3-2-0.5-3.1-0.5
		c-1.7,0-3,0.4-4,1.2c-1,0.8-1.5,1.9-1.5,3.3c0,0.7,0.1,1.3,0.4,1.8c0.3,0.5,0.6,0.9,1,1.3c0.4,0.4,0.8,0.6,1.2,0.9
		c0.4,0.2,0.8,0.4,1.1,0.5l3.2,1.1c0.3,0.1,0.6,0.2,1,0.4c0.3,0.1,0.7,0.3,1,0.6c0.3,0.3,0.6,0.6,0.8,1c0.2,0.4,0.3,0.9,0.3,1.5
		c0,1-0.3,1.9-1,2.6c-0.7,0.7-1.8,1-3.2,1c-0.7,0-1.4-0.1-2-0.3c-0.6-0.2-1.2-0.6-1.6-1.1c-0.5-0.5-0.9-1.2-1.2-2.1
		c-0.3-0.9-0.6-2-0.7-3.4h-0.3l-0.5,5.8l0.1,0.1c0.7,0.6,1.6,1,2.7,1.3c1.1,0.3,2.2,0.5,3.4,0.5c1.1,0,2-0.1,2.8-0.4
		c0.8-0.3,1.5-0.6,2.1-1.1c0.6-0.5,1-1,1.3-1.7c0.3-0.6,0.4-1.4,0.4-2.1c0-0.8-0.2-1.5-0.5-2.1C2609.8,16.9,2609.5,16.4,2609,16z"/>
	<path class="st0" d="M2627.7,20.6c-0.4,0.7-0.9,1.4-1.4,1.9c-0.5,0.5-1.1,0.9-1.8,1.2c-0.6,0.3-1.4,0.4-2.1,0.4
		c-0.9,0-1.7-0.2-2.4-0.6c-0.7-0.4-1.4-1-1.9-1.7c-0.5-0.7-1-1.6-1.3-2.5c-0.3-1-0.5-2-0.5-3.2c0-0.3,0-0.6,0-0.9
		c0-0.3,0-0.5,0.1-0.8h12.8l0-0.2c0-1-0.2-2-0.5-2.8c-0.3-0.9-0.8-1.6-1.4-2.3c-0.6-0.6-1.4-1.1-2.3-1.5c-0.9-0.3-2-0.5-3.2-0.5
		c-1.3,0-2.5,0.2-3.5,0.7c-1,0.4-1.9,1.1-2.6,1.9c-0.7,0.8-1.3,1.8-1.7,2.8c-0.4,1.1-0.6,2.3-0.6,3.6c0,1.3,0.2,2.5,0.6,3.6
		c0.4,1.1,1.1,2,1.8,2.8c0.8,0.8,1.7,1.4,2.8,1.8c1.1,0.4,2.3,0.6,3.6,0.6c1.1,0,2.2-0.2,3.4-0.5c1.1-0.4,2.2-0.9,3.1-1.7l0.1,0
		l0.3-5.6l-0.4,1.1C2628.5,19.1,2628.1,19.9,2627.7,20.6z M2616.5,13.8c0.1-0.8,0.4-1.6,0.6-2.3c0.3-0.7,0.7-1.4,1.2-1.9
		c0.5-0.5,1-1,1.6-1.3c0.6-0.3,1.2-0.4,1.9-0.4c0.7,0,1.4,0.2,2,0.5c0.6,0.3,1.1,0.7,1.4,1.3c0.4,0.5,0.7,1.2,0.9,1.9
		c0.2,0.7,0.3,1.4,0.4,2.3H2616.5z"/>
	<path class="st0" d="M2636.5,22.7c-0.3-0.2-0.6-0.4-1-0.4c-0.4,0-0.7,0.1-1,0.4c-0.3,0.2-0.4,0.6-0.4,0.9c0,0.4,0.1,0.7,0.4,1
		c0.3,0.2,0.6,0.4,1,0.4c0.4,0,0.7-0.1,1-0.4c0.3-0.2,0.4-0.6,0.4-1C2636.9,23.2,2636.8,22.9,2636.5,22.7z"/>
</g>
</svg>
