<?xml version="1.0" encoding="utf-8"?>
<!-- Generator: Adobe Illustrator 25.4.1, SVG Export Plug-In . SVG Version: 6.00 Build 0)  -->
<svg version="1.1" id="レイヤー_1" xmlns="http://www.w3.org/2000/svg" xmlns:xlink="http://www.w3.org/1999/xlink" x="0px"
	 y="0px" viewBox="0 0 76 72" style="enable-background:new 0 0 76 72;" xml:space="preserve">
<style type="text/css">
	.st0{fill:#82B1BC;}
</style>
<path class="st0" d="M73.6,15.9c-0.8-3.2-3.4-5.7-6.6-6.6c-5.8-1.6-29-1.6-29-1.6s-23.2,0-29,1.5c-3.2,0.9-5.7,3.4-6.6,6.6
	C1,21.7,1,33.8,1,33.8s0,12.1,1.5,17.9c0.9,3.2,3.4,5.7,6.6,6.6c5.8,1.5,29,1.5,29,1.5s23.2,0,29-1.5c3.2-0.8,5.7-3.4,6.6-6.6
	c1.6-5.8,1.6-17.8,1.6-17.8S75.2,21.7,73.6,15.9z M30.7,44.9V22.6L50,33.8L30.7,44.9z"/>
</svg>
