<?xml version="1.0" encoding="utf-8"?>
<!-- Generator: Adobe Illustrator 25.4.1, SVG Export Plug-In . SVG Version: 6.00 Build 0)  -->
<svg version="1.1" id="レイヤー_1" xmlns="http://www.w3.org/2000/svg" xmlns:xlink="http://www.w3.org/1999/xlink" x="0px"
	 y="0px" viewBox="0 0 76 72" style="enable-background:new 0 0 76 72;" xml:space="preserve">
<style type="text/css">
	.st0{fill:#F08984;}
</style>
<g>
	<path class="st0" d="M37.17,6.49c8.46,0,9.47,0.03,12.81,0.18c3.09,0.14,4.77,0.66,5.89,1.09c1.48,0.58,2.54,1.26,3.65,2.37
		c1.11,1.11,1.8,2.17,2.37,3.65c0.43,1.12,0.95,2.8,1.09,5.89c0.15,3.34,0.18,4.35,0.18,12.81s-0.03,9.47-0.18,12.81
		c-0.14,3.09-0.66,4.77-1.09,5.89c-0.58,1.48-1.26,2.54-2.37,3.65c-1.11,1.11-2.17,1.8-3.65,2.37c-1.12,0.43-2.8,0.95-5.89,1.09
		c-3.34,0.15-4.34,0.18-12.81,0.18s-9.47-0.03-12.81-0.18c-3.09-0.14-4.77-0.66-5.89-1.09c-1.48-0.58-2.54-1.26-3.65-2.37
		c-1.11-1.11-1.8-2.17-2.37-3.65c-0.43-1.12-0.95-2.8-1.09-5.89c-0.15-3.34-0.18-4.35-0.18-12.81s0.03-9.47,0.18-12.81
		c0.14-3.09,0.66-4.77,1.09-5.89c0.58-1.48,1.26-2.54,2.37-3.65c1.11-1.11,2.17-1.8,3.65-2.37c1.12-0.43,2.8-0.95,5.89-1.09
		C27.71,6.52,28.71,6.49,37.17,6.49 M37.17,0.78c-8.61,0-9.69,0.04-13.07,0.19c-3.37,0.15-5.68,0.69-7.7,1.47
		c-2.08,0.81-3.85,1.89-5.62,3.66c-1.76,1.76-2.85,3.53-3.66,5.62c-0.78,2.02-1.32,4.32-1.47,7.7c-0.15,3.38-0.19,4.46-0.19,13.07
		c0,8.61,0.04,9.69,0.19,13.07c0.15,3.37,0.69,5.68,1.47,7.7c0.81,2.08,1.89,3.85,3.66,5.62c1.76,1.76,3.53,2.85,5.62,3.66
		c2.02,0.78,4.32,1.32,7.7,1.47c3.38,0.15,4.46,0.19,13.07,0.19s9.69-0.04,13.07-0.19c3.37-0.15,5.68-0.69,7.7-1.47
		c2.08-0.81,3.85-1.89,5.62-3.66c1.76-1.76,2.85-3.53,3.66-5.62c0.78-2.02,1.32-4.32,1.47-7.7c0.15-3.38,0.19-4.46,0.19-13.07
		s-0.04-9.69-0.19-13.07c-0.15-3.37-0.69-5.68-1.47-7.7c-0.81-2.08-1.89-3.85-3.66-5.62c-1.76-1.76-3.53-2.85-5.62-3.66
		c-2.02-0.78-4.32-1.32-7.7-1.47C46.86,0.81,45.78,0.78,37.17,0.78L37.17,0.78z"/>
	<path class="st0" d="M37.17,16.2c-8.99,0-16.28,7.29-16.28,16.28s7.29,16.28,16.28,16.28s16.28-7.29,16.28-16.28
		S46.16,16.2,37.17,16.2z M37.17,43.05c-5.84,0-10.57-4.73-10.57-10.57c0-5.84,4.73-10.57,10.57-10.57
		c5.84,0,10.57,4.73,10.57,10.57C47.74,38.32,43.01,43.05,37.17,43.05z"/>
	<circle class="st0" cx="54.1" cy="15.56" r="3.8"/>
</g>
</svg>
