<?xml version="1.0" encoding="utf-8"?>
<!-- Generator: Adobe Illustrator 25.4.1, SVG Export Plug-In . SVG Version: 6.00 Build 0)  -->
<svg version="1.1" id="レイヤー_1" xmlns="http://www.w3.org/2000/svg" xmlns:xlink="http://www.w3.org/1999/xlink" x="0px"
	 y="0px" viewBox="0 0 76 72" style="enable-background:new 0 0 76 72;" xml:space="preserve">
<style type="text/css">
	.st0{fill:#F08984;}
</style>
<path class="st0" d="M73.64,15.92c-0.85-3.19-3.37-5.7-6.56-6.56C61.3,7.81,38.11,7.81,38.11,7.81s-23.19,0-28.97,1.55
	c-3.19,0.85-5.7,3.37-6.56,6.56C1.04,21.7,1.04,33.77,1.04,33.77s0,12.06,1.55,17.85c0.85,3.19,3.37,5.7,6.56,6.56
	c5.78,1.55,28.97,1.55,28.97,1.55s23.19,0,28.97-1.55c3.19-0.85,5.7-3.37,6.56-6.56c1.55-5.78,1.55-17.85,1.55-17.85
	S75.19,21.7,73.64,15.92z M30.7,44.89V22.64l19.26,11.12L30.7,44.89z"/>
</svg>
