<?xml version="1.0" encoding="utf-8"?>
<!-- Generator: Adobe Illustrator 25.4.1, SVG Export Plug-In . SVG Version: 6.00 Build 0)  -->
<svg version="1.1" id="レイヤー_1" xmlns="http://www.w3.org/2000/svg" xmlns:xlink="http://www.w3.org/1999/xlink" x="0px"
	 y="0px" viewBox="0 0 76 72" style="enable-background:new 0 0 76 72;" xml:space="preserve">
<style type="text/css">
	.st0{fill:#82B1BC;}
</style>
<path class="st0" d="M75.1,30.6c0-16.8-16.8-30.4-37.4-30.4C17,0.2,0.2,13.8,0.2,30.6c0,15,13.3,27.6,31.3,30
	c1.2,0.3,2.9,0.8,3.3,1.8c0.4,1,0.2,2.4,0.1,3.4c0,0-0.4,2.6-0.5,3.2c-0.2,0.9-0.8,3.7,3.2,2c4-1.7,21.6-12.7,29.4-21.7l0,0
	C72.5,43.3,75.1,37.3,75.1,30.6z M26,40.2H14.8l0,0c-0.2,0-0.4-0.1-0.5-0.2l0,0l0,0c-0.1-0.1-0.2-0.3-0.2-0.5l0,0V22.5h4.1v13.7H26
	V40.2z M32.4,22.5v17.8h-4.1V22.5H32.4z M50.5,40.2h-3.4c-0.1,0-0.1,0-0.2,0h0c0,0,0,0,0,0c0,0,0,0,0,0c0,0,0,0,0,0c0,0,0,0,0,0
	c0,0,0,0,0,0c0,0,0,0,0,0c0,0,0,0,0,0c-0.1,0-0.1-0.1-0.2-0.2L39,29.8v10.4h-4.1V22.5h3.3c0,0,0,0,0,0s0,0,0,0c0,0,0,0,0,0
	c0,0,0,0,0,0s0,0,0,0c0,0,0,0,0,0c0,0,0,0,0,0c0,0,0,0,0,0c0,0,0,0,0,0c0,0,0,0,0,0c0,0,0,0,0,0c0,0,0,0,0,0c0,0,0,0,0,0
	c0,0,0,0,0,0c0,0,0,0,0,0l0,0c0,0,0,0,0,0l0,0c0,0,0,0,0.1,0.1l7.5,10.1V22.5h4.1L50.5,40.2L50.5,40.2z M64.9,22.5v4.1h-7.9v2.8h7.9
	v4.1h-7.9v2.8h7.9v4.1H53.7l0,0c-0.2,0-0.4-0.1-0.5-0.2l0,0l0,0c-0.1-0.1-0.2-0.3-0.2-0.5l0,0V23.2l0,0c0-0.2,0.1-0.4,0.2-0.5l0,0
	c0,0,0,0,0,0c0.1-0.1,0.3-0.2,0.5-0.2l0,0C53.8,22.5,64.9,22.5,64.9,22.5z"/>
</svg>
