<?xml version="1.0" encoding="utf-8"?>
<!-- Generator: Adobe Illustrator 25.4.1, SVG Export Plug-In . SVG Version: 6.00 Build 0)  -->
<svg version="1.1" id="レイヤー_1" xmlns="http://www.w3.org/2000/svg" xmlns:xlink="http://www.w3.org/1999/xlink" x="0px"
	 y="0px" viewBox="0 0 151 151" style="enable-background:new 0 0 151 151;" xml:space="preserve">
<style type="text/css">
	.st0{fill:#FFFFFF;}
</style>
<g>
	<path class="st0" d="M15.89,58.45c-1.39-0.57-2.59-1.24-3.59-2.01c-1-0.78-1.79-1.62-2.35-2.53c-0.56-0.91-0.9-1.86-1.01-2.86
		c-0.11-1,0.04-2,0.44-2.99c0.41-1.01,1.01-1.83,1.78-2.47s1.69-1.08,2.72-1.34c1.04-0.26,2.19-0.31,3.45-0.16
		c1.26,0.15,2.59,0.51,3.98,1.07c1.38,0.56,2.57,1.23,3.58,2.01c1.01,0.78,1.8,1.62,2.36,2.53c0.56,0.91,0.9,1.86,1.01,2.86
		c0.11,1-0.04,2-0.45,3.01c-0.4,0.99-1,1.81-1.77,2.45c-0.78,0.64-1.69,1.09-2.72,1.34c-1.04,0.26-2.19,0.31-3.46,0.16
		C18.59,59.36,17.26,59.01,15.89,58.45z M16.79,56.23c2.77,1.13,5.09,1.63,6.95,1.51c1.87-0.12,3.09-0.9,3.67-2.33
		c0.59-1.45,0.26-2.86-0.99-4.26s-3.26-2.65-6.03-3.78c-2.77-1.13-5.09-1.63-6.95-1.51c-1.87,0.12-3.1,0.91-3.68,2.35
		c-0.58,1.43-0.25,2.84,1,4.23C12.01,53.84,14.02,55.1,16.79,56.23z"/>
	<path class="st0" d="M23.6,26.05l0.02,0.02l0-0.04l0.15-0.17l9.96,8.4l1.67-1.98l0.96,1.18l-1.49,1.77l1.34,1.13
		c0.48,0.4,0.87,0.71,1.2,0.92c0.32,0.21,0.61,0.35,0.87,0.42c0.25,0.07,0.49,0.07,0.71,0.01c0.22-0.06,0.47-0.17,0.73-0.34
		l-3.33,3.95c0.12-0.29,0.2-0.55,0.23-0.78c0.04-0.23,0-0.46-0.11-0.7c-0.11-0.24-0.3-0.5-0.57-0.79s-0.64-0.64-1.12-1.04
		l-1.34-1.13l-5.89,6.99l-0.17-0.15L23.6,26.05z M32.35,35.9l-7.59-6.4l2.66,12.25L32.35,35.9z"/>
	<path class="st0" d="M48.84,25.65l1.23-17.16l0.16-0.06l14.01,13.56c0.54,0.52,0.97,0.86,1.3,1.03c0.33,0.17,0.62,0.24,0.87,0.23
		l-4.01,1.53c0.1-0.1,0.19-0.22,0.26-0.35c0.07-0.14,0.09-0.31,0.07-0.53c-0.02-0.21-0.11-0.45-0.26-0.72
		c-0.15-0.26-0.4-0.57-0.76-0.92l-3.95-3.87l-8.09,3.08l-0.4,5.46c-0.04,0.54-0.03,0.97,0.01,1.29c0.04,0.33,0.11,0.58,0.21,0.75
		s0.21,0.29,0.34,0.34c0.13,0.05,0.26,0.08,0.38,0.1l-2.32,0.88c0.11-0.08,0.21-0.19,0.29-0.34c0.09-0.14,0.17-0.38,0.24-0.71
		c0.07-0.33,0.15-0.78,0.21-1.35C48.71,27.33,48.77,26.58,48.84,25.65z M57.42,18.07l-7.05-6.86l-0.7,9.81L57.42,18.07z"/>
	<path class="st0" d="M67.96,23.89c0.29-0.12,0.52-0.25,0.7-0.38s0.31-0.29,0.41-0.48c0.09-0.19,0.15-0.43,0.16-0.71
		c0.01-0.28,0-0.62-0.04-1.02L67.57,4.82c-0.06-0.58-0.15-1-0.27-1.25c-0.12-0.25-0.33-0.48-0.63-0.67l2.75-0.61l1.85,18.81
		c0.04,0.39,0.09,0.72,0.17,0.99c0.07,0.27,0.18,0.49,0.31,0.66c0.13,0.18,0.29,0.31,0.49,0.41c0.2,0.09,0.44,0.17,0.73,0.24
		L67.96,23.89z"/>
	<path class="st0" d="M76.15,19.7l2.33-10.14c0.09-0.39,0.15-0.72,0.19-1.01c0.04-0.29,0.05-0.55,0.05-0.78
		c0-0.23-0.04-0.45-0.09-0.66c-0.06-0.21-0.14-0.42-0.25-0.64l2.86,0.4l-1,4.34c0.75-1.24,1.7-2.13,2.86-2.67
		c1.16-0.54,2.46-0.65,3.91-0.32c1.59,0.37,2.76,1.07,3.51,2.1c0.75,1.03,1.04,2.22,0.88,3.58c0.74-1.28,1.69-2.2,2.85-2.76
		c1.16-0.56,2.48-0.67,3.97-0.33c0.86,0.2,1.6,0.5,2.22,0.9s1.11,0.89,1.47,1.45c0.36,0.57,0.59,1.19,0.7,1.88
		c0.1,0.69,0.07,1.41-0.11,2.16l-1.87,8.14c-0.09,0.39-0.14,0.72-0.16,0.99c-0.02,0.28,0.01,0.52,0.08,0.73
		c0.07,0.21,0.18,0.39,0.34,0.54c0.16,0.15,0.36,0.31,0.62,0.46l-4.89-1.13c0.31-0.02,0.58-0.07,0.78-0.14
		c0.21-0.07,0.39-0.18,0.54-0.32c0.15-0.15,0.28-0.36,0.38-0.62c0.1-0.27,0.19-0.59,0.28-0.98l1.94-8.41
		c0.32-1.37,0.24-2.54-0.23-3.48c-0.47-0.95-1.33-1.57-2.6-1.86c-0.66-0.15-1.33-0.16-2-0.03c-0.68,0.13-1.32,0.4-1.94,0.81
		c-0.62,0.41-1.17,0.95-1.66,1.63c-0.49,0.68-0.88,1.5-1.16,2.45l-1.56,6.76c-0.09,0.39-0.14,0.72-0.16,0.99
		c-0.02,0.28,0.01,0.52,0.08,0.73c0.07,0.21,0.18,0.39,0.34,0.54c0.16,0.15,0.36,0.31,0.62,0.46l-4.89-1.13
		c0.31-0.02,0.58-0.07,0.78-0.14c0.21-0.07,0.39-0.18,0.54-0.32c0.15-0.15,0.28-0.36,0.38-0.62c0.1-0.27,0.19-0.59,0.28-0.98
		l1.94-8.41c0.32-1.37,0.24-2.54-0.23-3.48c-0.47-0.95-1.33-1.56-2.57-1.85c-0.66-0.15-1.33-0.16-2.01-0.03
		c-0.68,0.13-1.32,0.4-1.94,0.81c-0.62,0.41-1.17,0.95-1.66,1.63c-0.49,0.68-0.88,1.5-1.16,2.45l-1.56,6.76
		c-0.09,0.39-0.14,0.72-0.16,0.99c-0.02,0.28,0.01,0.52,0.08,0.73c0.07,0.21,0.18,0.39,0.34,0.54c0.16,0.15,0.36,0.31,0.62,0.46
		l-4.89-1.13c0.31-0.02,0.58-0.07,0.78-0.14c0.21-0.07,0.39-0.18,0.54-0.32c0.15-0.15,0.28-0.36,0.38-0.62
		C75.97,20.41,76.06,20.08,76.15,19.7z"/>
	<path class="st0" d="M118.13,22.43c0.93,0.76,1.66,1.6,2.18,2.53c0.52,0.93,0.83,1.9,0.93,2.91c0.1,1.01-0.01,2.03-0.33,3.04
		s-0.85,1.98-1.59,2.9l-0.02,0.02c-0.75,0.92-1.58,1.64-2.51,2.16c-0.93,0.52-1.9,0.83-2.91,0.95c-1.01,0.11-2.02,0.01-3.04-0.3
		c-1.02-0.32-1.99-0.85-2.93-1.61c-0.93-0.76-1.66-1.6-2.18-2.53c-0.52-0.93-0.83-1.9-0.93-2.91c-0.1-1.01,0.01-2.03,0.32-3.04
		c0.32-1.02,0.85-1.98,1.59-2.9l0.02-0.02c0.75-0.92,1.58-1.64,2.51-2.16s1.9-0.83,2.91-0.94c1.01-0.11,2.02-0.01,3.04,0.3
		C116.23,21.13,117.2,21.67,118.13,22.43z M108.52,25.05c-0.71,0.88-1.25,1.77-1.63,2.68c-0.37,0.91-0.58,1.79-0.62,2.64
		c-0.04,0.85,0.1,1.65,0.42,2.39c0.32,0.74,0.81,1.39,1.49,1.93c0.67,0.54,1.4,0.9,2.2,1.05c0.79,0.16,1.6,0.13,2.43-0.08
		c0.83-0.21,1.65-0.6,2.46-1.15c0.81-0.55,1.57-1.27,2.28-2.14c0.71-0.88,1.25-1.77,1.62-2.68c0.37-0.91,0.58-1.78,0.61-2.63
		s-0.11-1.64-0.43-2.38c-0.32-0.74-0.81-1.39-1.49-1.93c-0.67-0.55-1.4-0.9-2.2-1.05c-0.79-0.16-1.6-0.13-2.42,0.07
		c-0.82,0.21-1.64,0.59-2.45,1.14C109.99,23.46,109.23,24.18,108.52,25.05z"/>
	<path class="st0" d="M115.19,40.98c0.24,0.21,0.45,0.36,0.65,0.46c0.19,0.1,0.4,0.15,0.61,0.16c0.21,0,0.45-0.05,0.71-0.17
		c0.26-0.12,0.56-0.28,0.9-0.48l8.88-5.43c0.34-0.21,0.62-0.4,0.86-0.57c0.23-0.18,0.43-0.35,0.6-0.51c0.16-0.17,0.3-0.34,0.4-0.53
		s0.2-0.39,0.28-0.62l1.72,2.32l-3.83,2.34c1.42-0.32,2.74-0.24,3.96,0.23c1.22,0.47,2.25,1.38,3.08,2.74
		c0.47,0.77,0.78,1.52,0.93,2.24c0.15,0.73,0.14,1.42-0.01,2.07c-0.15,0.65-0.44,1.26-0.86,1.81c-0.42,0.55-0.96,1.03-1.62,1.44
		l-7.12,4.36c-0.34,0.21-0.61,0.4-0.82,0.58c-0.21,0.18-0.36,0.37-0.46,0.56c-0.1,0.19-0.15,0.4-0.15,0.62
		c0,0.22,0.04,0.47,0.1,0.76l-2.62-4.28c0.24,0.21,0.45,0.36,0.65,0.46c0.19,0.1,0.4,0.15,0.61,0.16s0.45-0.05,0.71-0.17
		c0.26-0.12,0.56-0.28,0.89-0.48l7.36-4.5c1.2-0.74,1.97-1.6,2.3-2.6c0.33-0.99,0.16-2.05-0.52-3.15c-0.38-0.63-0.87-1.16-1.45-1.59
		c-0.59-0.44-1.24-0.74-1.97-0.91c-0.72-0.17-1.5-0.2-2.33-0.08c-0.83,0.12-1.68,0.42-2.56,0.89l-5.92,3.62
		c-0.34,0.21-0.61,0.4-0.82,0.58c-0.21,0.18-0.36,0.37-0.46,0.57c-0.1,0.19-0.15,0.4-0.15,0.62c0,0.22,0.04,0.47,0.1,0.76
		L115.19,40.98z"/>
	<path class="st0" d="M141.65,60.53c0.19,0.86,0.24,1.7,0.14,2.51c-0.1,0.81-0.35,1.58-0.75,2.3l4.46-0.99
		c0.57-0.13,0.97-0.26,1.21-0.41c0.24-0.15,0.43-0.39,0.59-0.71l0.93,2.65l-18.15,4.01c-0.79,0.17-1.36,0.37-1.71,0.58
		c-0.35,0.21-0.62,0.47-0.82,0.79l-0.68-2.68l2.12-0.47c-0.9-0.4-1.61-0.97-2.12-1.7c-0.52-0.73-0.87-1.51-1.05-2.34
		c-0.26-1.16-0.29-2.25-0.12-3.28c0.18-1.03,0.53-1.95,1.05-2.76c0.52-0.81,1.2-1.5,2.04-2.07c0.84-0.57,1.79-0.97,2.85-1.21
		c1.23-0.27,2.4-0.33,3.5-0.18c1.1,0.15,2.09,0.49,2.98,1c0.88,0.52,1.63,1.19,2.24,2.03C140.98,58.46,141.41,59.43,141.65,60.53z
		 M133.25,56.63c-1.12,0.25-2.15,0.61-3.08,1.1c-0.93,0.49-1.71,1.07-2.34,1.76c-0.63,0.69-1.07,1.46-1.34,2.3
		c-0.27,0.85-0.29,1.75-0.08,2.7c0.17,0.79,0.53,1.47,1.07,2.05c0.54,0.57,1.21,1.02,2.02,1.35l9.34-2.06
		c1.05-0.73,1.75-1.56,2.11-2.47s0.42-1.89,0.19-2.92c-0.18-0.83-0.51-1.53-0.97-2.11c-0.47-0.58-1.04-1.03-1.73-1.35
		c-0.69-0.32-1.47-0.51-2.35-0.58C135.21,56.33,134.26,56.41,133.25,56.63z"/>
	<path class="st0" d="M127.21,81.66c0.01,0.63,0.15,1.08,0.42,1.37c0.27,0.29,0.8,0.54,1.58,0.75l14.13,3.83
		c0.4,0.11,0.74,0.17,1.01,0.2c0.28,0.03,0.52,0.01,0.73-0.05c0.21-0.06,0.4-0.17,0.57-0.33c0.17-0.16,0.33-0.37,0.48-0.64
		L144.45,93c-0.58,2.14-1.43,3.73-2.54,4.78c-1.11,1.04-2.39,1.37-3.84,0.97c-1.2-0.32-2.08-1.05-2.65-2.18
		c-0.57-1.13-0.78-2.54-0.64-4.23c-0.71,1.76-1.6,3.04-2.67,3.85c-1.07,0.81-2.23,1.05-3.48,0.71c-0.82-0.22-1.5-0.58-2.04-1.08
		c-0.55-0.5-0.96-1.11-1.24-1.83s-0.42-1.54-0.43-2.47c0-0.93,0.14-1.93,0.43-3L127.21,81.66z M126.68,85.32l-0.79,2.91
		c-0.44,1.63-0.38,3.01,0.19,4.14c0.57,1.13,1.58,1.89,3.04,2.28c1.42,0.38,2.63,0.22,3.65-0.49s1.74-1.83,2.16-3.38l0.82-3.02
		L126.68,85.32z M136.19,87.89l-0.79,2.91c-0.38,1.4-0.28,2.62,0.29,3.66c0.58,1.04,1.51,1.74,2.8,2.09c1.36,0.37,2.53,0.2,3.5-0.5
		c0.97-0.7,1.68-1.87,2.12-3.5l0.63-2.34L136.19,87.89z"/>
	<path class="st0" d="M122.43,97.13c-0.07,0.31-0.11,0.57-0.1,0.79c0,0.22,0.05,0.42,0.15,0.61s0.26,0.37,0.48,0.55
		c0.22,0.18,0.51,0.36,0.85,0.56l8.97,5.28c0.34,0.2,0.64,0.36,0.91,0.49c0.26,0.12,0.51,0.22,0.73,0.28
		c0.22,0.07,0.44,0.1,0.66,0.11c0.21,0.01,0.44-0.01,0.68-0.04l-1.23,2.58l-3.26-1.92c0.34,0.46,0.63,0.93,0.88,1.4
		c0.25,0.47,0.42,0.96,0.52,1.45c0.1,0.5,0.11,1.01,0.02,1.53c-0.09,0.52-0.3,1.06-0.62,1.61c-0.3,0.52-0.63,0.95-0.99,1.29
		l-2.32-1.4c0.26-0.04,0.55-0.11,0.87-0.19c0.31-0.09,0.62-0.2,0.91-0.33c0.3-0.13,0.57-0.29,0.82-0.47c0.25-0.18,0.45-0.4,0.6-0.66
		c0.19-0.32,0.29-0.67,0.29-1.04c0-0.37-0.06-0.75-0.19-1.14c-0.13-0.39-0.32-0.79-0.57-1.2c-0.25-0.41-0.54-0.81-0.86-1.19
		l-7.88-4.63c-0.34-0.2-0.64-0.35-0.9-0.45c-0.26-0.1-0.5-0.15-0.72-0.14c-0.22,0-0.42,0.06-0.62,0.16c-0.19,0.1-0.4,0.25-0.62,0.45
		L122.43,97.13z"/>
	<path class="st0" d="M122.21,124.08c-0.87,0.83-1.8,1.44-2.79,1.84s-1.99,0.58-3.01,0.54c-1.02-0.03-2.01-0.27-2.97-0.71
		c-0.97-0.44-1.86-1.09-2.67-1.95l-0.02-0.02c-0.82-0.86-1.42-1.78-1.82-2.77c-0.39-0.99-0.58-1.99-0.56-3.01
		c0.02-1.02,0.25-2.01,0.69-2.98c0.44-0.97,1.1-1.87,1.97-2.69c0.87-0.83,1.8-1.44,2.79-1.84c0.99-0.39,1.99-0.58,3.01-0.54
		c1.02,0.03,2.01,0.27,2.97,0.71c0.97,0.44,1.86,1.09,2.68,1.95l0.02,0.02c0.82,0.86,1.42,1.78,1.82,2.77
		c0.4,0.99,0.58,1.99,0.56,3.01c-0.02,1.02-0.25,2.01-0.69,2.98C123.75,122.36,123.09,123.25,122.21,124.08z M120.84,114.21
		c-0.78-0.82-1.59-1.47-2.45-1.96s-1.7-0.8-2.54-0.95c-0.84-0.15-1.65-0.11-2.43,0.11c-0.78,0.22-1.48,0.63-2.11,1.22
		s-1.07,1.28-1.33,2.04c-0.26,0.76-0.33,1.57-0.23,2.42c0.1,0.85,0.38,1.71,0.82,2.58c0.44,0.88,1.05,1.72,1.83,2.54
		c0.78,0.82,1.59,1.47,2.45,1.96c0.85,0.49,1.7,0.8,2.53,0.94c0.83,0.14,1.64,0.1,2.42-0.12c0.78-0.22,1.48-0.63,2.11-1.22
		c0.63-0.6,1.07-1.28,1.33-2.04c0.26-0.77,0.34-1.57,0.24-2.41c-0.1-0.84-0.37-1.7-0.81-2.57
		C122.23,115.88,121.62,115.03,120.84,114.21z"/>
	<path class="st0" d="M107.6,134.99c0.11-0.19,0.17-0.41,0.17-0.68c0-0.27-0.19-0.61-0.58-1.04l-7.76-8.74l1.04,13.35l-0.21,0.08
		l-9.59-10.1l0.67,9.92c0.06,0.81,0.15,1.42,0.28,1.83c0.13,0.42,0.27,0.72,0.44,0.9c0.17,0.19,0.33,0.29,0.47,0.31
		c0.15,0.02,0.28,0.04,0.39,0.06l-2.57,1.03c0.21-0.25,0.38-0.56,0.53-0.96c0.15-0.39,0.19-1.02,0.12-1.89l-0.96-14.21l0.31-0.13
		l9.44,9.95l-1.03-13.32l0.31-0.13l9.54,10.67c0.61,0.67,1.09,1.12,1.43,1.37c0.34,0.25,0.62,0.38,0.83,0.4L107.6,134.99z"/>
	<path class="st0" d="M83.73,126.73c-0.3,0.09-0.54,0.2-0.73,0.31c-0.19,0.11-0.34,0.26-0.45,0.44c-0.11,0.18-0.19,0.41-0.23,0.69
		c-0.04,0.28-0.06,0.62-0.06,1.02l-0.03,10.41c0,0.39,0.01,0.74,0.04,1.03c0.03,0.29,0.07,0.55,0.12,0.78
		c0.06,0.23,0.13,0.43,0.24,0.62c0.1,0.19,0.23,0.38,0.38,0.57l-2.88,0.24l0.01-4.48c-0.47,1.37-1.23,2.45-2.27,3.25
		c-1.04,0.8-2.35,1.19-3.95,1.19c-0.9,0-1.7-0.13-2.4-0.39c-0.7-0.26-1.28-0.62-1.76-1.09c-0.48-0.47-0.84-1.03-1.09-1.68
		c-0.25-0.65-0.38-1.36-0.37-2.13l0.03-8.35c0-0.4-0.02-0.73-0.07-1c-0.04-0.27-0.12-0.5-0.24-0.69c-0.11-0.19-0.26-0.34-0.45-0.45
		c-0.19-0.11-0.42-0.22-0.7-0.31l5.02,0.02c-0.3,0.09-0.55,0.2-0.73,0.31c-0.19,0.11-0.34,0.26-0.45,0.44
		c-0.11,0.18-0.19,0.41-0.23,0.69c-0.04,0.28-0.06,0.62-0.06,1.01l-0.03,8.63c0,1.41,0.33,2.52,1.01,3.32
		c0.67,0.8,1.66,1.2,2.96,1.21c0.73,0,1.44-0.13,2.12-0.4s1.28-0.67,1.81-1.19c0.53-0.53,0.96-1.17,1.29-1.94
		c0.33-0.77,0.53-1.65,0.59-2.65l0.02-6.94c0-0.4-0.02-0.73-0.07-1c-0.05-0.27-0.12-0.5-0.24-0.69c-0.11-0.19-0.26-0.34-0.45-0.45
		c-0.19-0.11-0.42-0.22-0.71-0.31L83.73,126.73z"/>
</g>
</svg>
