<?xml version="1.0" encoding="utf-8"?>
<!-- Generator: Adobe Illustrator 25.4.1, SVG Export Plug-In . SVG Version: 6.00 Build 0)  -->
<svg version="1.1" id="レイヤー_1" xmlns="http://www.w3.org/2000/svg" xmlns:xlink="http://www.w3.org/1999/xlink" x="0px"
	 y="0px" viewBox="0 0 1136 1554" style="enable-background:new 0 0 1136 1554;" xml:space="preserve">
<style type="text/css">
	.st0{fill:#FFFFFF;}
</style>
<g>
	<g>
		<path class="st0" d="M168.5,862.67c-0.23-0.5-0.55-0.95-0.95-1.37c-0.41-0.42-0.99-0.71-1.75-0.87c-0.76-0.16-1.73-0.13-2.9,0.08
			c-1.18,0.21-2.62,0.7-4.32,1.46l-53.82,24.24l54.79,20.62c1.88,0.74,3.44,1.22,4.67,1.44c1.23,0.22,2.21,0.28,2.97,0.19
			c0.75-0.09,1.3-0.3,1.65-0.64c0.35-0.33,0.63-0.72,0.83-1.15l0.25,9.47c-0.16-0.5-0.44-1.01-0.85-1.54
			c-0.41-0.53-1.14-1.15-2.2-1.88c-1.06-0.72-2.57-1.56-4.53-2.52c-1.96-0.95-4.61-2.07-7.94-3.34L94.26,884l-0.02-0.65l66.58-30.39
			c2.55-1.14,4.34-2.23,5.35-3.26c1.01-1.03,1.65-2.02,1.91-2.96L168.5,862.67z"/>
		<path class="st0" d="M159.55,950.56c0.41,4.28,0.16,8.07-0.75,11.37c-0.91,3.29-2.37,6.08-4.39,8.37
			c-2.01,2.28-4.47,4.09-7.37,5.41c-2.9,1.32-6.13,2.19-9.7,2.61l-4.33-45.09c-1.08-0.04-2.18-0.04-3.3-0.01
			c-1.12,0.03-2.24,0.11-3.39,0.22c-4.07,0.39-7.82,1.31-11.25,2.76c-3.43,1.45-6.33,3.27-8.71,5.48c-2.38,2.21-4.18,4.74-5.38,7.6
			c-1.2,2.85-1.65,5.89-1.34,9.1c0.27,2.86,1.04,5.39,2.3,7.62c1.26,2.22,2.94,4.2,5.06,5.95c2.11,1.74,4.58,3.25,7.41,4.53
			c2.82,1.28,5.9,2.33,9.22,3.17l-15.62,0.53c-2.94-2.89-5.23-6.27-6.87-10.15c-1.63-3.88-2.63-7.71-3-11.49
			c-0.43-4.5-0.1-8.71,1-12.63c1.1-3.93,2.84-7.39,5.22-10.39c2.38-3,5.39-5.44,9.03-7.3c3.64-1.86,7.74-3.01,12.32-3.45
			c4.5-0.43,8.7-0.17,12.61,0.79c3.91,0.96,7.38,2.55,10.4,4.78c3.03,2.23,5.47,5.04,7.35,8.43
			C157.96,942.11,159.12,946.06,159.55,950.56z M134.33,933.3l3.51,36.52c3.13-0.37,5.99-1.08,8.55-2.12
			c2.56-1.04,4.78-2.37,6.64-3.99c1.86-1.62,3.24-3.54,4.15-5.75c0.9-2.21,1.23-4.68,0.97-7.39c-0.25-2.57-1.01-4.88-2.29-6.91
			c-1.28-2.04-2.98-3.8-5.1-5.29c-2.12-1.49-4.58-2.66-7.36-3.51C140.61,934.01,137.59,933.49,134.33,933.3z"/>
		<path class="st0" d="M102.8,992.4c0.54,1.07,1.08,1.93,1.62,2.57c0.54,0.64,1.18,1.12,1.92,1.43c0.74,0.32,1.65,0.46,2.74,0.43
			c1.08-0.03,2.37-0.17,3.86-0.41l62.34-10.12c2.2-0.36,3.76-0.79,4.69-1.31c0.93-0.52,1.74-1.37,2.42-2.57l2.98,10.31l-71.16,11.56
			c-1.49,0.24-2.73,0.53-3.73,0.88c-1,0.34-1.82,0.79-2.45,1.33c-0.64,0.54-1.11,1.2-1.42,1.97c-0.31,0.78-0.55,1.73-0.74,2.85
			L102.8,992.4z"/>
		<path class="st0" d="M168.9,1017.97c-0.63-0.44-1.43-0.7-2.41-0.79c-0.98-0.09-2.38,0.53-4.19,1.87l-38.42,29.26l40.78,6.63
			c3.01,0.51,5.34,0.67,6.99,0.48c1.65-0.19,2.87-0.49,3.65-0.91c0.78-0.42,1.28-0.89,1.48-1.42c0.2-0.53,0.37-0.96,0.51-1.29
			l2.51,10.13c-0.68-0.65-1.78-1.44-3.31-2.39c-1.53-0.95-3.95-1.68-7.25-2.19l-55.44-8.98l-0.29-1.15l44.46-33.97
			c2.79-2.17,4.72-3.91,5.8-5.21c1.08-1.3,1.71-2.35,1.88-3.13L168.9,1017.97z"/>
		<path class="st0" d="M192.05,1091.2c1.63,3.98,2.48,7.68,2.56,11.1c0.08,3.42-0.52,6.51-1.79,9.28c-1.27,2.77-3.1,5.2-5.5,7.31
			c-2.4,2.1-5.24,3.87-8.53,5.29l-17.14-41.93c-1.05,0.27-2.1,0.59-3.16,0.94c-1.06,0.35-2.12,0.75-3.18,1.18
			c-3.78,1.55-7.11,3.51-9.98,5.88c-2.87,2.37-5.12,4.96-6.76,7.76c-1.64,2.8-2.63,5.74-2.96,8.82c-0.33,3.08,0.12,6.11,1.34,9.1
			c1.09,2.66,2.55,4.87,4.4,6.63c1.84,1.76,4.03,3.18,6.56,4.24c2.53,1.06,5.32,1.79,8.4,2.2c3.07,0.41,6.32,0.53,9.74,0.38
			l-14.81,5.01c-3.65-1.92-6.82-4.5-9.5-7.74c-2.68-3.24-4.74-6.62-6.18-10.14c-1.71-4.18-2.6-8.31-2.68-12.39
			c-0.08-4.08,0.59-7.89,2-11.45c1.41-3.56,3.59-6.76,6.54-9.59c2.95-2.83,6.55-5.12,10.8-6.86c4.18-1.71,8.28-2.67,12.31-2.88
			c4.02-0.21,7.8,0.32,11.34,1.58c3.54,1.26,6.7,3.25,9.47,5.95S190.34,1087.02,192.05,1091.2z M162.93,1081.95l13.89,33.96
			c2.89-1.26,5.42-2.76,7.58-4.49c2.16-1.74,3.89-3.65,5.21-5.73c1.31-2.09,2.09-4.32,2.32-6.7c0.23-2.38-0.18-4.83-1.21-7.35
			c-0.98-2.39-2.37-4.38-4.18-5.96c-1.81-1.59-3.95-2.79-6.41-3.6c-2.46-0.81-5.15-1.23-8.06-1.24
			C169.15,1080.82,166.1,1081.19,162.93,1081.95z"/>
		<path class="st0" d="M209.52,1128.65l16.65-1.31l-12.83,7.68l9.06,15.14l-1.02,0.61l-9.06-15.14l-39.71,23.75
			c-2.03,1.21-3.64,2.37-4.83,3.45c-1.19,1.09-2.04,2.12-2.54,3.09c-0.51,0.97-0.68,1.93-0.53,2.89c0.15,0.95,0.52,1.92,1.11,2.91
			c1.07,1.79,2.48,2.99,4.23,3.61c1.75,0.62,3.87,0.91,6.34,0.85l-0.11,1.7c-2.71-0.05-5.06-0.46-7.07-1.23
			c-2-0.77-3.83-2.53-5.49-5.3c-2.58-4.31-3.15-8.09-1.7-11.33c1.44-3.25,4.44-6.23,9-8.96l37.21-22.26l-5.41-9.05l1.01-0.61
			L209.52,1128.65z"/>
		<path class="st0" d="M212.59,1218.8l38.76-40.21c1.09-1.14,1.95-2.13,2.57-2.98c0.62-0.85,1.03-1.64,1.25-2.38
			c0.21-0.74,0.21-1.51,0-2.32c-0.22-0.81-0.64-1.71-1.27-2.72l34.78,33.53l-12.04,15.74c1.97-3.28,3.19-6.31,3.68-9.08
			c0.48-2.77,0.43-5.34-0.14-7.68c-0.58-2.35-1.57-4.52-2.97-6.53c-1.41-2-3.07-3.93-4.98-5.77l-9.84-9.48l-23.3,24.17l6.43,6.2
			c2.63,2.54,4.94,4.46,6.92,5.77c1.98,1.31,3.77,2.14,5.37,2.49c1.61,0.35,3.06,0.31,4.37-0.12c1.31-0.43,2.64-1.09,4-1.98
			l-16.24,14.68c1.04-1.19,1.83-2.39,2.37-3.62s0.65-2.59,0.34-4.08c-0.31-1.49-1.13-3.2-2.45-5.13c-1.33-1.93-3.36-4.21-6.1-6.85
			l-6.27-6.05l-19.34,20.07c-2.19,2.27-3.41,4.21-3.66,5.81c-0.25,1.6,0.23,3.43,1.43,5.49l-14.87-14.34
			c2.1,1.13,3.95,1.54,5.54,1.23C208.51,1222.37,210.4,1221.08,212.59,1218.8z"/>
		<path class="st0" d="M247.64,1264.05c1.12,0.44,2.09,0.72,2.92,0.83c0.83,0.11,1.62,0.04,2.39-0.22c0.76-0.26,1.54-0.77,2.32-1.51
			c0.79-0.75,1.65-1.71,2.6-2.88l24.88-30.94c0.94-1.17,1.72-2.23,2.34-3.16c0.61-0.93,1.11-1.8,1.48-2.61
			c0.37-0.81,0.63-1.61,0.77-2.42c0.14-0.81,0.21-1.67,0.22-2.59l9.16,6.12l-32.64,40.58c-0.94,1.17-1.67,2.22-2.19,3.15
			c-0.51,0.92-0.83,1.8-0.94,2.63c-0.12,0.83-0.03,1.63,0.26,2.42c0.29,0.78,0.74,1.65,1.36,2.61L247.64,1264.05z M305.02,1207.47
			c1.28,1.03,2.04,2.27,2.28,3.69c0.23,1.43-0.17,2.79-1.2,4.07c-1.03,1.29-2.29,1.98-3.75,2.09c-1.47,0.11-2.85-0.36-4.13-1.39
			c-1.23-0.99-1.95-2.21-2.16-3.67c-0.21-1.46,0.2-2.83,1.24-4.11c1.03-1.29,2.27-1.97,3.72-2.05
			C302.46,1206.03,303.79,1206.48,305.02,1207.47z"/>
		<path class="st0" d="M267.16,1280.02c0.66-0.06,2.04-0.12,4.13-0.21c2.09-0.08,4.95-0.68,8.58-1.78l25.75-7.57l0.13-26.3
			c0.02-3.7-0.06-6.45-0.22-8.25c-0.16-1.8-0.46-3.07-0.89-3.82l11.52,8.31c-0.7,0.11-1.45,0.5-2.24,1.17
			c-0.79,0.67-1.2,2.19-1.23,4.55l-0.04,23.05l17.81-5.2c2.69-0.8,4.64-1.56,5.83-2.29c1.19-0.73,1.98-1.43,2.36-2.08
			c0.38-0.65,0.49-1.24,0.33-1.75c-0.16-0.51-0.24-0.9-0.23-1.16l8.64,6.23c-1.05-0.14-2.67-0.2-4.85-0.18
			c-2.18,0.02-5.08,0.58-8.71,1.68l-21.26,6.3l-0.08,30.85c-0.01,2.83,0.01,5.23,0.05,7.2c0.04,1.97,0.44,3.59,1.21,4.85
			l-11.61-8.37c0.3-0.05,0.64-0.09,1.02-0.13c0.38-0.04,0.75-0.24,1.1-0.6c0.35-0.36,0.65-0.93,0.88-1.68
			c0.24-0.76,0.34-1.85,0.31-3.29l0.08-27.53l-22.24,6.38c-2.7,0.8-4.64,1.59-5.82,2.37c-1.19,0.78-1.95,1.51-2.31,2.19
			c-0.35,0.67-0.43,1.26-0.21,1.77c0.21,0.51,0.31,0.89,0.3,1.15L267.16,1280.02z"/>
		<path class="st0" d="M402.91,1282.24c-1.17-0.27-2.19-0.39-3.04-0.35c-0.86,0.04-1.64,0.24-2.36,0.61
			c-0.72,0.37-1.44,0.96-2.17,1.78c-0.73,0.82-1.48,1.88-2.24,3.18l-32.15,54.74l15.68,9.21c2.29,1.34,4.35,2.26,6.18,2.76
			c1.83,0.49,3.65,0.5,5.47,0.03c1.82-0.47,3.73-1.47,5.75-2.99c2.01-1.52,4.34-3.67,6.97-6.45l-11.94,16.08l-41.1-24.14
			c2.31,0.6,4.13,0.55,5.46-0.16c1.33-0.71,2.78-2.4,4.35-5.06l28.28-48.15c0.8-1.36,1.38-2.54,1.76-3.52
			c0.37-0.99,0.55-1.9,0.55-2.74c-0.01-0.83-0.22-1.65-0.63-2.43c-0.41-0.78-1.04-1.59-1.89-2.42L402.91,1282.24z"/>
		<path class="st0" d="M401.77,1366.92c1.19,0.15,2.2,0.18,3.04,0.09c0.83-0.09,1.59-0.36,2.26-0.8c0.67-0.44,1.3-1.12,1.88-2.04
			c0.58-0.92,1.19-2.06,1.82-3.43l16.59-36.07c0.63-1.37,1.13-2.58,1.49-3.64c0.37-1.05,0.63-2.02,0.8-2.89
			c0.16-0.87,0.22-1.72,0.16-2.53c-0.06-0.82-0.2-1.67-0.42-2.56l10.38,3.71L418,1364.08c-0.63,1.37-1.08,2.56-1.35,3.58
			c-0.27,1.02-0.36,1.95-0.27,2.78c0.09,0.83,0.37,1.59,0.85,2.28c0.47,0.69,1.12,1.42,1.95,2.2L401.77,1366.92z M443.64,1298.06
			c1.5,0.69,2.53,1.7,3.11,3.03c0.57,1.33,0.52,2.74-0.18,4.24c-0.69,1.5-1.73,2.48-3.13,2.94c-1.4,0.46-2.85,0.35-4.34-0.34
			c-1.43-0.66-2.43-1.67-2.99-3.03c-0.56-1.36-0.49-2.79,0.2-4.29c0.69-1.5,1.73-2.46,3.11-2.89S442.2,1297.4,443.64,1298.06z"/>
		<path class="st0" d="M433.49,1393.32l16.22-57.81c0.41-1.45,0.71-2.72,0.91-3.82c0.2-1.1,0.31-2.09,0.33-2.98
			c0.03-0.89-0.06-1.73-0.24-2.53c-0.19-0.8-0.46-1.62-0.82-2.46l10.62,1.97l-2.06,7.35c1.67-1.17,3.36-2.02,5.07-2.54
			c1.71-0.53,3.4-0.83,5.06-0.93s3.29-0.03,4.86,0.19c1.58,0.22,3.02,0.51,4.34,0.88c4.42,1.24,8.24,3.04,11.45,5.39
			c3.21,2.35,5.77,5.14,7.66,8.35c1.89,3.21,3.06,6.76,3.49,10.65s0.06,7.97-1.14,12.25c-1.22,4.35-3.11,8.22-5.66,11.6
			c-2.55,3.38-5.53,6.1-8.94,8.16c-3.41,2.06-7.17,3.39-11.29,3.99c-4.12,0.6-8.31,0.29-12.6-0.91c-3.25-0.91-6.14-2.27-8.7-4.06
			s-4.68-4.01-6.4-6.66l-4.51,16.06c-0.41,1.45-0.66,2.7-0.77,3.75c-0.11,1.05-0.05,1.98,0.17,2.79c0.22,0.81,0.62,1.51,1.19,2.12
			c0.57,0.61,1.33,1.23,2.27,1.87l-18.44-5.17c1.18,0.03,2.18-0.08,3-0.33c0.82-0.26,1.52-0.65,2.12-1.19
			c0.6-0.54,1.11-1.31,1.54-2.31C432.67,1395.99,433.09,1394.77,433.49,1393.32z M461.98,1388.57c3.25,0.91,6.35,1.06,9.32,0.44
			c2.97-0.62,5.69-1.83,8.17-3.63c2.48-1.8,4.65-4.15,6.5-7.06c1.86-2.9,3.3-6.19,4.33-9.85c1.2-4.28,1.83-8.39,1.89-12.32
			c0.06-3.93-0.52-7.52-1.73-10.77c-1.21-3.25-3.06-6.03-5.53-8.37c-2.47-2.33-5.68-4.05-9.62-5.16c-2.49-0.7-5.25-0.93-8.29-0.71
			c-3.04,0.23-6,1.47-8.87,3.71l-10.52,37.5c0.78,4.39,2.38,7.91,4.8,10.57C454.87,1385.59,458.05,1387.47,461.98,1388.57z"/>
		<path class="st0" d="M538.92,1403.97c2.33-0.48,3.94-1.34,4.82-2.57c0.88-1.23,1.42-3.39,1.64-6.46l3.92-55.71
			c0.11-1.57,0.11-2.89,0.01-3.94c-0.11-1.05-0.35-1.95-0.73-2.69c-0.38-0.74-0.93-1.38-1.65-1.9c-0.72-0.52-1.64-0.96-2.76-1.33
			l24.47,1.72c8.44,0.59,15.03,2.59,19.75,5.97c4.72,3.39,6.88,7.95,6.48,13.67c-0.33,4.72-2.4,8.57-6.2,11.54
			c-3.81,2.97-8.93,4.8-15.38,5.5c7.09,1.36,12.55,3.74,16.38,7.14c3.82,3.4,5.56,7.56,5.21,12.5c-0.23,3.22-1.07,6.04-2.54,8.45
			c-1.46,2.41-3.44,4.41-5.92,6c-2.48,1.59-5.46,2.73-8.92,3.42c-3.46,0.69-7.31,0.89-11.53,0.59L538.92,1403.97z M552.99,1403.23
			l11.49,0.81c6.44,0.45,11.56-0.81,15.37-3.77c3.8-2.97,5.91-7.31,6.31-13.04c0.39-5.58-1.11-10.02-4.51-13.31
			c-3.4-3.29-8.14-5.16-14.22-5.58l-11.91-0.84L552.99,1403.23z M555.62,1365.77l11.49,0.81c5.51,0.39,10-0.88,13.48-3.8
			c3.48-2.92,5.4-6.92,5.75-12c0.38-5.37-1.1-9.61-4.45-12.72c-3.34-3.11-8.23-4.89-14.67-5.35l-9.23-0.65L555.62,1365.77z"/>
		<path class="st0" d="M631.58,1373.91l11.85-3.25l-0.22-7.74c-0.16-5.38-1.33-9.31-3.52-11.79c-2.19-2.48-5.43-3.66-9.74-3.54
			c-2.01,0.06-4.04,0.46-6.1,1.2c-2.06,0.74-3.98,2.02-5.76,3.83c-1.78,1.81-3.39,4.24-4.85,7.3c-1.46,3.06-2.62,6.89-3.49,11.51
			l-1.17-17.94c2.59-2.16,5.81-3.9,9.64-5.23c3.84-1.33,7.8-2.06,11.88-2.17c6.31-0.18,11.35,1.18,15.14,4.08
			c3.78,2.9,5.75,7.26,5.92,13.07l0.99,34.09c0.06,2.08,0.35,3.9,0.86,5.47c0.51,1.56,1.32,2.83,2.42,3.8l-10.53,0.63l-0.41-14.2
			c-0.66,1.81-1.53,3.6-2.59,5.35c-1.06,1.75-2.38,3.33-3.95,4.74c-1.57,1.41-3.46,2.54-5.66,3.39s-4.73,1.32-7.6,1.4
			c-2.58,0.07-5.01-0.14-7.29-0.65c-2.28-0.51-4.24-1.33-5.89-2.47c-1.65-1.14-2.96-2.57-3.95-4.3c-0.98-1.73-1.51-3.78-1.58-6.14
			c-0.09-3.23,0.7-5.98,2.4-8.25c1.69-2.27,3.84-4.2,6.45-5.78c2.61-1.58,5.41-2.86,8.39-3.85
			C626.24,1375.48,629.02,1374.63,631.58,1373.91z M614.73,1393.99c0.11,3.66,1.18,6.64,3.22,8.95c2.04,2.31,4.85,3.41,8.44,3.31
			c2.01-0.06,4.04-0.55,6.09-1.47c2.05-0.92,3.92-2.25,5.59-3.98c1.67-1.73,3.04-3.87,4.12-6.42c1.07-2.54,1.63-5.47,1.68-8.77
			l-0.39-13.34l-11.64,3.14c-1.49,0.4-3.25,0.99-5.28,1.77c-2.02,0.78-3.93,1.85-5.72,3.23c-1.79,1.38-3.28,3.16-4.47,5.35
			C615.18,1387.95,614.63,1390.69,614.73,1393.99z"/>
		<path class="st0" d="M665.76,1405.34c1.1-0.48,1.99-0.97,2.66-1.47c0.67-0.5,1.18-1.12,1.54-1.84c0.36-0.72,0.55-1.63,0.58-2.71
			c0.03-1.08-0.04-2.38-0.2-3.87l-6.69-62.8c-0.24-2.21-0.59-3.8-1.05-4.76c-0.46-0.96-1.27-1.81-2.44-2.55l10.46-2.41l7.64,71.68
			c0.16,1.5,0.38,2.76,0.67,3.77c0.29,1.02,0.68,1.86,1.19,2.52c0.5,0.67,1.13,1.18,1.89,1.53c0.76,0.35,1.69,0.65,2.8,0.89
			L665.76,1405.34z"/>
		<path class="st0" d="M701.58,1393.84l-10.15-38.38c-0.39-1.46-0.77-2.71-1.16-3.76c-0.39-1.05-0.8-1.96-1.23-2.74
			c-0.43-0.78-0.92-1.46-1.49-2.05c-0.56-0.59-1.22-1.16-1.96-1.71l10.36-3.74l4.35,16.44c0.32-5.5,1.96-10.2,4.9-14.1
			c2.94-3.89,7.15-6.57,12.63-8.02c6.03-1.6,11.23-1.32,15.58,0.83c4.35,2.15,7.47,5.65,9.34,10.49c0.22-5.62,1.79-10.42,4.71-14.38
			c2.92-3.96,7.19-6.69,12.81-8.17c3.26-0.86,6.29-1.16,9.11-0.91c2.81,0.26,5.33,1.02,7.56,2.28c2.23,1.27,4.12,2.97,5.69,5.12
			c1.57,2.15,2.73,4.64,3.48,7.48l8.15,30.79c0.39,1.46,0.8,2.67,1.24,3.62c0.44,0.96,0.96,1.73,1.56,2.32
			c0.6,0.58,1.3,0.99,2.1,1.22c0.8,0.23,1.77,0.39,2.9,0.46l-18.52,4.9c1.02-0.64,1.82-1.26,2.4-1.86c0.58-0.6,1-1.28,1.24-2.05
			c0.24-0.77,0.3-1.69,0.16-2.77c-0.14-1.08-0.4-2.34-0.78-3.8l-8.42-31.83c-1.38-5.2-3.7-8.98-6.96-11.35
			c-3.26-2.37-7.28-2.92-12.07-1.65c-2.5,0.66-4.77,1.82-6.82,3.47c-2.05,1.66-3.75,3.72-5.1,6.19c-1.35,2.47-2.26,5.29-2.72,8.45
			c-0.46,3.16-0.31,6.61,0.45,10.34l6.77,25.59c0.39,1.46,0.8,2.67,1.24,3.62c0.44,0.96,0.96,1.73,1.56,2.31
			c0.6,0.58,1.3,0.99,2.1,1.22c0.8,0.23,1.77,0.38,2.9,0.46l-18.52,4.9c1.02-0.64,1.82-1.26,2.4-1.86c0.58-0.6,1-1.28,1.24-2.05
			c0.24-0.77,0.29-1.69,0.16-2.77c-0.14-1.08-0.4-2.34-0.78-3.8l-8.42-31.83c-1.37-5.2-3.69-8.98-6.95-11.35
			c-3.26-2.37-7.25-2.92-11.96-1.68c-2.5,0.66-4.77,1.82-6.82,3.47c-2.05,1.66-3.75,3.72-5.1,6.19c-1.35,2.47-2.26,5.29-2.72,8.45
			c-0.46,3.17-0.31,6.61,0.45,10.34l6.77,25.59c0.39,1.46,0.8,2.67,1.24,3.62c0.44,0.96,0.96,1.73,1.56,2.31
			c0.6,0.58,1.3,0.99,2.1,1.22c0.8,0.23,1.77,0.39,2.9,0.46l-18.52,4.9c1.02-0.64,1.82-1.26,2.4-1.86c0.58-0.6,1-1.28,1.24-2.05
			c0.24-0.77,0.29-1.69,0.16-2.77C702.22,1396.56,701.96,1395.3,701.58,1393.84z"/>
	</g>
</g>
</svg>
