<?xml version="1.0" encoding="utf-8"?>
<!-- Generator: Adobe Illustrator 25.4.1, SVG Export Plug-In . SVG Version: 6.00 Build 0)  -->
<svg version="1.1" id="レイヤー_1" xmlns="http://www.w3.org/2000/svg" xmlns:xlink="http://www.w3.org/1999/xlink" x="0px"
	 y="0px" viewBox="0 0 174 174" style="enable-background:new 0 0 174 174;" xml:space="preserve">
<style type="text/css">
	.st0{fill:#E87575;}
	.st1{fill:#FFFFFF;}
</style>
<ellipse class="st0" cx="87" cy="86.93" rx="87" ry="86.98"/>
<g>
	<g>
		<path class="st1" d="M38.28,31.92l1.53-1.16l8.51,5.25l-2.81-9.6l1.53-1.16l3.42,12.06L49,38.43L38.28,31.92z"/>
		<path class="st1" d="M54.87,30.33c0.65,0.88,2,1.31,3.18,0.69c1.4-0.73,1.56-2.23,1.56-2.23l1.46,0.46c0,0-0.34,2.05-2.33,3.1
			c-1.99,1.04-4.58,0.23-5.66-1.84c-1.04-1.99-0.27-4.47,1.73-5.51c1.99-1.04,4.24-0.34,5.28,1.66c0.23,0.44,0.31,0.78,0.31,0.78
			L54.87,30.33z M54.27,29.05l4.1-2.14c-0.68-0.87-1.8-1.22-2.91-0.64C54.36,26.84,54.01,27.96,54.27,29.05z"/>
		<path class="st1" d="M66.44,28.81l-1.56,0.58l-4.04-10.94l1.56-0.58L66.44,28.81z"/>
		<path class="st1" d="M71.92,27.14l-5.01-7.03l1.7-0.4l3.62,5.13l0.92-6.21l1.7-0.4l-1.31,8.53L71.92,27.14z"/>
		<path class="st1" d="M79.84,22.21c0.24,1.07,1.32,1.99,2.64,1.89c1.58-0.12,2.32-1.42,2.32-1.42l1.16,1c0,0-1.12,1.75-3.37,1.92
			c-2.24,0.16-4.29-1.61-4.46-3.93c-0.16-2.24,1.53-4.2,3.77-4.37c2.24-0.16,4.03,1.38,4.19,3.62c0.04,0.5-0.02,0.84-0.02,0.84
			L79.84,22.21z M79.8,20.79l4.62-0.34c-0.28-1.07-1.17-1.83-2.42-1.74C80.76,18.8,79.99,19.69,79.8,20.79z"/>
		<path class="st1" d="M90.91,14.71l1.5,0.1l-0.18,2.66l1.66,0.11l-0.1,1.5l-1.66-0.11l-0.28,4.14c-0.04,0.6,0.35,1.04,0.93,1.08
			c0.41,0.03,0.84-0.11,0.84-0.11l-0.1,1.5c0,0-0.51,0.13-1.18,0.09c-1.5-0.1-2.27-0.99-2.16-2.65l0.29-4.15l-1.5-0.1l0.1-1.5
			l0.83,0.06c0.5,0.03,0.85-0.28,0.9-0.94L90.91,14.71z"/>
		<path class="st1" d="M112.54,18l-0.48,1.6L106,17.79l-0.93,3.11l4.79,1.43l-0.48,1.6l-4.79-1.43l-1.45,4.87l-1.76-0.52l3.34-11.17
			L112.54,18z"/>
		<path class="st1" d="M113.25,31.08l-1.52-0.69l3.31-7.28l1.52,0.69L113.25,31.08z M116.42,22.08c-0.53-0.24-0.74-0.79-0.5-1.32
			c0.24-0.53,0.79-0.74,1.32-0.5s0.74,0.79,0.5,1.32C117.5,22.12,116.95,22.32,116.42,22.08z"/>
		<path class="st1" d="M122.32,36.16l-1.64-0.99l-0.27-3.57l-3.29,1.42l-1.64-0.99l4.72-2.01l-0.37-4.7l1.64,0.99l0.23,3.16
			l2.91-1.26l1.64,0.99l-4.34,1.86L122.32,36.16z"/>
		<path class="st1" d="M128.02,40.71l8.18-8.31l1.31,1.29l-7.01,7.13l4.04,3.97l-1.17,1.19L128.02,40.71z"/>
		<path class="st1" d="M136,49.38l-1.03-1.31l6.29-4.95l1.03,1.31L136,49.38z M142.96,42.85c-0.36-0.46-0.29-1.04,0.17-1.4
			c0.46-0.36,1.04-0.29,1.4,0.17c0.36,0.46,0.29,1.04-0.17,1.4C143.9,43.38,143.32,43.31,142.96,42.85z"/>
		<path class="st1" d="M139.73,53.02l-3.8,2.26l-0.85-1.43l9.88-5.88l0.85,1.43l-0.79,0.47c0,0,1.44,0.31,2.25,1.67
			c1.07,1.79,0.43,4.3-1.58,5.5c-2.01,1.19-4.52,0.56-5.58-1.23C139.31,54.44,139.73,53.02,139.73,53.02z M142.38,51.45
			c-1.29,0.77-1.7,2.37-1.06,3.44c0.64,1.07,2.24,1.48,3.53,0.71c1.29-0.77,1.7-2.37,1.06-3.44
			C145.27,51.08,143.67,50.68,142.38,51.45z"/>
		<path class="st1" d="M145.3,66.15l11.22-3.2l1.3,4.57c0.53,1.84-0.51,3.7-2.03,4.13c-1.52,0.43-2.57-0.48-2.57-0.48
			s-0.4,1.93-2.25,2.46c-1.76,0.5-3.72-0.59-4.32-2.67L145.3,66.15z M148.19,70.53c0.3,1.04,1.33,1.62,2.37,1.32
			c1.04-0.3,1.62-1.33,1.32-2.37l-0.87-3.05l-3.69,1.05L148.19,70.53z M155.5,65.15l-3.05,0.87l0.8,2.81
			c0.25,0.88,1.08,1.34,1.96,1.09c0.88-0.25,1.34-1.07,1.09-1.96L155.5,65.15z"/>
		<path class="st1" d="M148.6,82.21l0.83-0.08c0,0-1.09-0.81-1.23-2.31c-0.16-1.66,0.88-2.93,2.04-3.05
			c1.33-0.13,2.33,0.69,2.72,2.07l0.79,2.85c0.83-0.08,1.43-0.81,1.33-1.81c-0.14-1.41-1.28-1.96-1.28-1.96l0.97-1.19
			c0,0,1.6,0.93,1.81,3c0.2,1.99-1,3.45-2.65,3.61l-5.14,0.51L148.6,82.21z M152.24,81.84l0.17-0.02l-0.67-2.53
			c-0.16-0.57-0.6-0.95-1.18-0.89c-0.5,0.05-0.94,0.6-0.85,1.51C149.84,81.25,150.75,81.99,152.24,81.84z"/>
		<path class="st1" d="M148.72,89.02l0.04-1.67l11.66,0.27l-0.04,1.67L148.72,89.02z"/>
		<path class="st1" d="M151.47,103.45c1.31,0.25,2.09-0.28,2.27-1.27c0.19-0.98-0.48-1.96-1.95-2.23l-4.26-0.8l0.31-1.64l4.58,0.87
			c1.31,0.25,2.09-0.28,2.27-1.27s-0.48-1.95-1.95-2.23l-4.26-0.8l0.31-1.64l7.86,1.48l-0.31,1.64l-0.82-0.15c0,0,0.83,1,0.58,2.31
			c-0.32,1.72-1.76,2.13-1.76,2.13s1.14,1.15,0.8,2.95c-0.34,1.8-1.7,2.73-3.99,2.3l-4.58-0.86l0.31-1.64L151.47,103.45z"/>
		<path class="st1" d="M139.8,138.18l-1.43,1.27l-8.86-4.61l3.5,9.36l-1.44,1.27l-4.29-11.77l1.37-1.22L139.8,138.18z"/>
		<path class="st1" d="M123.38,140.99c-0.71-0.83-2.09-1.16-3.22-0.45c-1.35,0.83-1.4,2.33-1.4,2.33l-1.49-0.35
			c0,0,0.19-2.07,2.1-3.26c1.91-1.18,4.55-0.56,5.78,1.42c1.18,1.91,0.59,4.43-1.32,5.62c-1.91,1.18-4.21,0.64-5.39-1.27
			c-0.26-0.42-0.37-0.75-0.37-0.75L123.38,140.99z M124.07,142.23l-3.94,2.44c0.74,0.82,1.89,1.08,2.95,0.43
			C124.14,144.44,124.41,143.29,124.07,142.23z"/>
		<path class="st1" d="M111.95,143.36l1.52-0.69l4.84,10.61l-1.52,0.69L111.95,143.36z"/>
		<path class="st1" d="M106.6,145.43l5.52,6.64l-1.67,0.53l-3.99-4.85l-0.46,6.26l-1.67,0.53l0.67-8.6L106.6,145.43z"/>
		<path class="st1" d="M99.09,150.94c-0.32-1.05-1.46-1.89-2.78-1.69c-1.57,0.23-2.21,1.59-2.21,1.59l-1.23-0.91
			c0,0,0.99-1.83,3.22-2.16c2.23-0.33,4.4,1.28,4.75,3.59c0.33,2.23-1.21,4.31-3.44,4.64c-2.23,0.33-4.12-1.07-4.45-3.3
			c-0.07-0.49-0.04-0.84-0.04-0.84L99.09,150.94z M99.24,152.35l-4.58,0.68c0.36,1.04,1.3,1.74,2.54,1.56
			C98.43,154.41,99.13,153.46,99.24,152.35z"/>
		<path class="st1" d="M88.58,159.24l-1.5,0.01l-0.01-2.66l-1.67,0.01l-0.01-1.5l1.67-0.01l-0.02-4.15c0-0.6-0.42-1.01-1-1.01
			c-0.42,0-0.83,0.17-0.83,0.17l-0.01-1.5c0,0,0.5-0.17,1.17-0.17c1.5-0.01,2.34,0.82,2.34,2.49l0.02,4.16l1.5-0.01l0.01,1.5
			l-0.83,0c-0.5,0-0.83,0.34-0.83,1L88.58,159.24z"/>
		<path class="st1" d="M66.8,157.54l0.36-1.63l6.19,1.36l0.7-3.17l-4.88-1.07l0.36-1.63l4.89,1.07l1.09-4.96l1.79,0.39l-2.5,11.39
			L66.8,157.54z"/>
		<path class="st1" d="M62.62,153.75c0.55,0.2,0.8,0.74,0.59,1.28c-0.2,0.55-0.74,0.79-1.28,0.59c-0.55-0.2-0.8-0.74-0.59-1.28
			C61.54,153.8,62.08,153.55,62.62,153.75z M65.11,144.55l1.56,0.57l-2.75,7.51l-1.56-0.57L65.11,144.55z"/>
		<path class="st1" d="M55.69,140.15l1.71,0.87l0.54,3.54l3.18-1.66l1.71,0.87l-4.56,2.35l0.71,4.66l-1.71-0.87l-0.47-3.13
			l-2.8,1.47l-1.71-0.87l4.19-2.17L55.69,140.15z"/>
		<path class="st1" d="M49.67,136.05l-7.54,8.9l-1.4-1.18l6.46-7.63l-4.33-3.66l1.08-1.27L49.67,136.05z"/>
		<path class="st1" d="M34.62,135c0.39,0.43,0.37,1.02-0.06,1.41c-0.43,0.39-1.02,0.37-1.41-0.06c-0.39-0.43-0.37-1.02,0.06-1.41
			S34.23,134.57,34.62,135z M41.07,127.98l1.12,1.23l-5.9,5.39l-1.12-1.23L41.07,127.98z"/>
		<path class="st1" d="M37.09,124.63l3.62-2.53l0.96,1.37l-9.42,6.59l-0.96-1.36l0.75-0.53c0,0-1.46-0.2-2.37-1.49
			c-1.19-1.71-0.74-4.26,1.17-5.6c1.91-1.34,4.46-0.89,5.66,0.82C37.4,123.19,37.09,124.63,37.09,124.63z M34.56,126.39
			c1.23-0.86,1.52-2.48,0.8-3.51c-0.72-1.02-2.34-1.31-3.57-0.45c-1.23,0.86-1.52,2.48-0.8,3.51
			C31.71,126.97,33.33,127.25,34.56,126.39z"/>
		<path class="st1" d="M30.56,111.93l-10.95,4.02l-1.64-4.46c-0.66-1.8,0.23-3.72,1.72-4.27c1.48-0.55,2.59,0.29,2.59,0.29
			s0.26-1.96,2.06-2.62c1.72-0.63,3.75,0.31,4.5,2.34L30.56,111.93z M20.47,113.69l2.97-1.09l-1.01-2.74
			c-0.32-0.86-1.17-1.26-2.03-0.94c-0.86,0.32-1.26,1.17-0.94,2.03L20.47,113.69z M27.35,107.79c-0.37-1.02-1.44-1.51-2.46-1.14
			c-1.02,0.37-1.51,1.44-1.14,2.46l1.09,2.97l3.6-1.32L27.35,107.79z"/>
		<path class="st1" d="M26.08,96.18l-0.82,0.14c0,0,1.14,0.73,1.4,2.21c0.29,1.64-0.66,2.99-1.81,3.19
			c-1.31,0.23-2.37-0.51-2.86-1.87l-1-2.78c-0.82,0.14-1.36,0.92-1.19,1.9c0.25,1.39,1.43,1.86,1.43,1.86l-0.88,1.25
			c0,0-1.66-0.81-2.02-2.86c-0.34-1.97,0.74-3.51,2.38-3.8l5.09-0.89L26.08,96.18z M22.47,96.82l-0.16,0.03l0.86,2.47
			c0.2,0.56,0.66,0.9,1.24,0.8c0.49-0.09,0.9-0.66,0.74-1.57C24.92,97.23,23.95,96.56,22.47,96.82z"/>
		<path class="st1" d="M25.46,89.39l0.08,1.66l-11.65,0.59l-0.08-1.66L25.46,89.39z"/>
		<path class="st1" d="M21.66,75.2c-1.32-0.15-2.06,0.44-2.17,1.43c-0.11,0.99,0.62,1.92,2.11,2.09l4.31,0.49l-0.19,1.66l-4.64-0.53
			c-1.33-0.15-2.06,0.44-2.17,1.43c-0.11,0.99,0.62,1.92,2.11,2.09l4.31,0.49l-0.19,1.66l-7.95-0.9l0.19-1.66l0.83,0.09
			c0,0-0.9-0.94-0.75-2.27c0.2-1.74,1.6-2.25,1.6-2.25s-1.22-1.06-1.01-2.88c0.21-1.82,1.5-2.85,3.82-2.59l4.64,0.53l-0.19,1.66
			L21.66,75.2z"/>
	</g>
</g>
<g>
	<path class="st1" d="M93.41,126.3c-0.07,0-0.14,0-0.21-0.01l-21.18-2.83c-0.41-0.06-0.78-0.27-1.03-0.6
		c-0.25-0.33-0.36-0.74-0.31-1.15l4.02-30.07c0.11-0.85,0.9-1.45,1.75-1.34l21.18,2.83c0.41,0.06,0.78,0.27,1.03,0.6
		c0.25,0.33,0.36,0.74,0.31,1.15l-4.02,30.07c-0.06,0.41-0.27,0.78-0.6,1.03C94.08,126.19,93.75,126.3,93.41,126.3z M76.24,91.76
		c-0.04,0-0.08,0.03-0.09,0.08l-4.02,30.07c-0.01,0.04,0.04,0.09,0.08,0.1l21.18,2.83c0.05,0.01,0.09-0.03,0.1-0.08l4.02-30.07
		c0.01-0.05-0.03-0.09-0.08-0.1l-21.18-2.83C76.25,91.76,76.25,91.76,76.24,91.76z"/>
	<path class="st1" d="M97.45,93.85L96,93.66l0.68-5.06c0.01-0.04-0.04-0.1-0.08-0.1L78.66,86.1c-0.03,0-0.1,0.04-0.1,0.08
		l-0.68,5.06l-1.45-0.19l0.68-5.06c0.06-0.41,0.27-0.78,0.6-1.03c0.33-0.25,0.74-0.36,1.15-0.31l17.93,2.39
		c0.41,0.06,0.78,0.27,1.03,0.6c0.25,0.33,0.36,0.74,0.31,1.15L97.45,93.85z"/>
	<path class="st1" d="M96.62,87.76l-1.45-0.19l2.54-19.05c0.01-0.05-0.03-0.1-0.08-0.1l-14.7-1.96c-0.05-0.01-0.09,0.03-0.1,0.08
		l-2.54,19.05l-1.45-0.19l2.54-19.05c0.11-0.85,0.89-1.45,1.75-1.34l14.7,1.96c0.85,0.11,1.45,0.9,1.34,1.75L96.62,87.76z"/>
	<path class="st1" d="M96.97,67.82l-1.32-0.64c0.13-0.36,0.37-2.65,0.49-3.75c0.06-0.56,0.11-1.04,0.14-1.3
		c0.13-1.01,0.24-10.08-3.62-10.82c-1.62-0.31-4.08,0.97-6.6,8.82c-0.07,0.23-0.13,0.4-0.17,0.51c-0.28,0.79-0.57,3.62-0.7,5.33
		l-1.46-0.11c0.03-0.46,0.34-4.49,0.78-5.72c0.03-0.1,0.08-0.25,0.15-0.46c0.85-2.65,3.42-10.74,8.27-9.81
		c5.53,1.06,4.82,12.34,4.8,12.46c-0.03,0.25-0.08,0.71-0.14,1.26C97.33,66.18,97.17,67.41,96.97,67.82z"/>
</g>
</svg>
