<?xml version="1.0" encoding="utf-8"?>
<!-- Generator: Adobe Illustrator 25.4.1, SVG Export Plug-In . SVG Version: 6.00 Build 0)  -->
<svg version="1.1" id="レイヤー_1" xmlns="http://www.w3.org/2000/svg" xmlns:xlink="http://www.w3.org/1999/xlink" x="0px"
	 y="0px" viewBox="0 0 400 84" style="enable-background:new 0 0 400 84;" xml:space="preserve">
<style type="text/css">
	.st0{fill:#DE2D47;}
</style>
<g>
	<path class="st0" d="M9.8,0.3v1.2H6.1V12H4.8V1.5H1.2V0.3H9.8z"/>
	<path class="st0" d="M15.5,3.8c2.2,0,4.1,1.8,4.1,4.2s-1.8,4.2-4.1,4.2c-2.2,0-4.1-1.8-4.1-4.2S13.3,3.8,15.5,3.8z M15.5,4.9
		c-1.6,0-2.9,1.3-2.9,3.1c0,1.7,1.3,3.1,2.9,3.1s2.9-1.3,2.9-3.1C18.4,6.2,17.1,4.9,15.5,4.9z"/>
	<path class="st0" d="M33,7.2c0-1.5-0.8-2.3-2-2.3c-1.2,0-2.2,1-2.2,2.7V12h-1.2V7.2c0-1.5-0.8-2.3-2-2.3c-1.2,0-2.2,1-2.2,2.7V12
		h-1.2V4h1.2v1c0,0,0.7-1.2,2.2-1.2c1.9,0,2.6,1.4,2.6,1.4s0.8-1.4,2.8-1.4c1.7,0,3.1,1.2,3.1,3.4V12H33V7.2z"/>
	<path class="st0" d="M41,3.8c2.2,0,4.1,1.8,4.1,4.2s-1.8,4.2-4.1,4.2c-2.2,0-4.1-1.8-4.1-4.2S38.7,3.8,41,3.8z M41,4.9
		c-1.6,0-2.9,1.3-2.9,3.1c0,1.7,1.3,3.1,2.9,3.1s2.9-1.3,2.9-3.1C43.9,6.2,42.6,4.9,41,4.9z"/>
	<path class="st0" d="M52,5h-0.5C50.2,5,49,6,49,7.6V12h-1.2V4H49v1.1c0,0,0.8-1.2,2.7-1.2H52V5z"/>
	<path class="st0" d="M58.4,5h-0.5c-1.3,0-2.5,1-2.5,2.6V12h-1.2V4h1.2v1.1c0,0,0.8-1.2,2.7-1.2h0.3V5z"/>
	<path class="st0" d="M64.1,3.8c2.2,0,4.1,1.8,4.1,4.2s-1.8,4.2-4.1,4.2c-2.2,0-4.1-1.8-4.1-4.2S61.9,3.8,64.1,3.8z M64.1,4.9
		c-1.6,0-2.9,1.3-2.9,3.1c0,1.7,1.3,3.1,2.9,3.1s2.9-1.3,2.9-3.1C67.1,6.2,65.7,4.9,64.1,4.9z"/>
	<path class="st0" d="M76.2,4l2,6.2L80.3,4h1.2l-2.7,8h-1.1l-2-6.1l-2,6.1h-1.1l-2.7-8h1.2l2.1,6.2l2-6.2H76.2z"/>
	<path class="st0" d="M85.2,11.1l-1.9,3l-0.8-0.4l1.5-3.2L85.2,11.1z"/>
	<path class="st0" d="M96,6.6l3.5-6.2h1.4l-4.3,7.6V12h-1.2V7.9L91,0.3h1.4L96,6.6L96,6.6z"/>
	<path class="st0" d="M106.6,3.8c2.2,0,4.1,1.8,4.1,4.2s-1.8,4.2-4.1,4.2c-2.2,0-4.1-1.8-4.1-4.2S104.4,3.8,106.6,3.8z M106.6,4.9
		c-1.6,0-2.9,1.3-2.9,3.1c0,1.7,1.3,3.1,2.9,3.1s2.9-1.3,2.9-3.1C109.5,6.2,108.2,4.9,106.6,4.9z"/>
	<path class="st0" d="M119.3,10.9c0,0-0.8,1.2-2.6,1.2c-1.8,0-3.2-1.4-3.2-3.5V4h1.2v4.7c0,1.4,1,2.4,2.2,2.4c1.3,0,2.4-1.1,2.4-2.7
		V4h1.2v8h-1.2V10.9z"/>
	<path class="st0" d="M132.9,4l2,6.2L137,4h1.2l-2.7,8h-1.1l-2-6.1l-2,6.1h-1.1l-2.7-8h1.2l2.1,6.2l2-6.2H132.9z"/>
	<path class="st0" d="M141.1,0.6c0.4,0,0.8,0.3,0.8,0.7c0,0.4-0.3,0.8-0.8,0.8c-0.4,0-0.8-0.3-0.8-0.8
		C140.4,0.9,140.7,0.6,141.1,0.6z M140.5,4h1.2v8h-1.2V4z"/>
	<path class="st0" d="M146.3,12h-1.2V0.3h1.2V12z"/>
	<path class="st0" d="M150.9,12h-1.2V0.3h1.2V12z"/>
	<path class="st0" d="M159.4,5.2c0,0,1-1.4,2.8-1.4c2,0,3.8,1.8,3.8,4.2s-1.8,4.2-3.8,4.2c-1.8,0-2.8-1.4-2.8-1.4V12h-1.2V0.3h1.2
		V5.2z M162.3,11.1c1.3,0,2.7-1.3,2.7-3.1c0-1.8-1.3-3.1-2.7-3.1c-1.4,0-2.8,1.4-2.8,3.1S160.8,11.1,162.3,11.1z"/>
	<path class="st0" d="M169.4,8.4c0.1,1.4,1.3,2.7,2.8,2.7c1.7,0,2.6-1.3,2.6-1.3l0.8,0.8c0,0-1.2,1.7-3.3,1.7c-2.2,0-4-1.8-4-4.2
		s1.8-4.2,3.9-4.2c2.2,0,3.8,1.7,3.8,4c0,0.3-0.1,0.6-0.1,0.6L169.4,8.4z M169.4,7.4h5.4c-0.2-1.4-1.2-2.5-2.7-2.5
		S169.6,6.1,169.4,7.4z"/>
	<path class="st0" d="M183.8,5.2c0,0,1-1.4,2.8-1.4c2,0,3.8,1.8,3.8,4.2s-1.8,4.2-3.8,4.2c-1.8,0-2.8-1.4-2.8-1.4V12h-1.2V0.3h1.2
		V5.2z M186.7,11.1c1.3,0,2.7-1.3,2.7-3.1c0-1.8-1.3-3.1-2.7-3.1c-1.4,0-2.8,1.4-2.8,3.1S185.2,11.1,186.7,11.1z"/>
	<path class="st0" d="M193.8,8.4c0.1,1.4,1.3,2.7,2.8,2.7c1.7,0,2.6-1.3,2.6-1.3l0.8,0.8c0,0-1.2,1.7-3.3,1.7c-2.2,0-4-1.8-4-4.2
		s1.8-4.2,3.9-4.2c2.2,0,3.8,1.7,3.8,4c0,0.3-0.1,0.6-0.1,0.6L193.8,8.4z M193.8,7.4h5.4c-0.2-1.4-1.2-2.5-2.7-2.5
		C195.2,4.9,194,6.1,193.8,7.4z"/>
	<path class="st0" d="M203.9,1.3h1.1V4h1.7v1.1H205v4.7c0,0.8,0.4,1.2,1.1,1.2c0.6,0,1.1-0.2,1.1-0.2v1.1c0,0-0.5,0.2-1.1,0.2
		c-1.4,0-2.2-0.8-2.2-2.3V5.1h-1.5V4h0.9c0.4,0,0.7-0.2,0.7-0.8V1.3z"/>
	<path class="st0" d="M210.6,1.3h1.1V4h1.7v1.1h-1.7v4.7c0,0.8,0.4,1.2,1.1,1.2c0.6,0,1.1-0.2,1.1-0.2v1.1c0,0-0.5,0.2-1.1,0.2
		c-1.4,0-2.2-0.8-2.2-2.3V5.1H209V4h0.9c0.4,0,0.7-0.2,0.7-0.8V1.3z"/>
	<path class="st0" d="M217.1,8.4c0.1,1.4,1.3,2.7,2.8,2.7c1.7,0,2.6-1.3,2.6-1.3l0.8,0.8c0,0-1.2,1.7-3.3,1.7c-2.2,0-4-1.8-4-4.2
		s1.8-4.2,3.9-4.2c2.2,0,3.8,1.7,3.8,4c0,0.3-0.1,0.6-0.1,0.6L217.1,8.4z M217.1,7.4h5.4c-0.2-1.4-1.2-2.5-2.7-2.5
		C218.4,4.9,217.2,6.1,217.1,7.4z"/>
	<path class="st0" d="M230.6,5h-0.5c-1.3,0-2.5,1-2.5,2.6V12h-1.2V4h1.2v1.1c0,0,0.8-1.2,2.7-1.2h0.3V5z"/>
	<path class="st0" d="M237.4,1.3h1.1V4h1.7v1.1h-1.7v4.7c0,0.8,0.4,1.2,1.1,1.2c0.6,0,1.1-0.2,1.1-0.2v1.1c0,0-0.5,0.2-1.1,0.2
		c-1.4,0-2.2-0.8-2.2-2.3V5.1h-1.5V4h0.9c0.4,0,0.7-0.2,0.7-0.8V1.3z"/>
	<path class="st0" d="M244.6,5.1c0,0,0.8-1.3,2.6-1.3c1.9,0,3.2,1.3,3.2,3.4V12h-1.2V7.2c0-1.4-0.9-2.3-2.2-2.3
		c-1.4,0-2.5,1.1-2.5,2.7V12h-1.2V0.3h1.2V5.1z"/>
	<path class="st0" d="M258.5,6.9c0-1.2-0.8-2-2-2c-1.4,0-2.2,1.2-2.2,1.2l-0.8-0.8c0,0,1.1-1.5,3-1.5c1.8,0,3.2,1.3,3.2,3.1V12h-1.2
		v-1.1c0,0-0.8,1.2-2.6,1.2c-1.7,0-2.8-1.2-2.8-2.3c0-1.3,0.8-2.2,2.3-2.4L258.5,6.9z M258.5,8.4V7.9l-2.8,0.5
		c-1,0.2-1.5,0.7-1.5,1.4c0,0.7,0.6,1.2,1.7,1.2C257.5,11.1,258.5,10,258.5,8.4z"/>
	<path class="st0" d="M264.2,5.1c0,0,0.8-1.3,2.6-1.3c1.9,0,3.2,1.3,3.2,3.4V12h-1.2V7.2c0-1.4-0.9-2.3-2.2-2.3
		c-1.4,0-2.5,1.1-2.5,2.7V12H263V4h1.2V5.1z"/>
	<path class="st0" d="M279.4,12l-3.2-8h1.2l2.6,6.5l2.6-6.5h1.2l-3.7,9.2c-0.7,1.7-1.3,2.3-2.5,2.3c-0.6,0-1-0.2-1-0.2v-1.1
		c0,0,0.4,0.2,0.8,0.2c0.7,0,1.2-0.4,1.5-1.2L279.4,12z"/>
	<path class="st0" d="M289.5,3.8c2.2,0,4.1,1.8,4.1,4.2s-1.8,4.2-4.1,4.2c-2.2,0-4.1-1.8-4.1-4.2S287.3,3.8,289.5,3.8z M289.5,4.9
		c-1.6,0-2.9,1.3-2.9,3.1c0,1.7,1.3,3.1,2.9,3.1s2.9-1.3,2.9-3.1C292.4,6.2,291.1,4.9,289.5,4.9z"/>
	<path class="st0" d="M302.2,10.9c0,0-0.8,1.2-2.6,1.2c-1.8,0-3.2-1.4-3.2-3.5V4h1.2v4.7c0,1.4,1,2.4,2.2,2.4c1.3,0,2.4-1.1,2.4-2.7
		V4h1.2v8h-1.2V10.9z"/>
	<path class="st0" d="M315.4,6.9c0-1.2-0.8-2-2-2c-1.4,0-2.2,1.2-2.2,1.2l-0.8-0.8c0,0,1.1-1.5,3-1.5c1.8,0,3.2,1.3,3.2,3.1V12h-1.2
		v-1.1c0,0-0.8,1.2-2.6,1.2c-1.7,0-2.8-1.2-2.8-2.3c0-1.3,0.8-2.2,2.3-2.4L315.4,6.9z M315.4,8.4V7.9l-2.7,0.5
		c-1,0.2-1.5,0.7-1.5,1.4c0,0.7,0.6,1.2,1.7,1.2C314.3,11.1,315.4,10,315.4,8.4z"/>
	<path class="st0" d="M324.1,5h-0.5c-1.3,0-2.5,1-2.5,2.6V12h-1.2V4h1.2v1.1c0,0,0.8-1.2,2.7-1.2h0.3V5z"/>
	<path class="st0" d="M326.9,8.4c0.1,1.4,1.3,2.7,2.8,2.7c1.7,0,2.6-1.3,2.6-1.3l0.8,0.8c0,0-1.2,1.7-3.3,1.7c-2.2,0-4-1.8-4-4.2
		s1.8-4.2,3.9-4.2c2.2,0,3.8,1.7,3.8,4c0,0.3-0.1,0.6-0.1,0.6L326.9,8.4z M326.9,7.4h5.4c-0.2-1.4-1.2-2.5-2.7-2.5
		C328.3,4.9,327.1,6.1,326.9,7.4z"/>
	<path class="st0" d="M336.8,10.5c0.5,0,0.8,0.3,0.8,0.8s-0.3,0.8-0.8,0.8c-0.5,0-0.8-0.3-0.8-0.8S336.3,10.5,336.8,10.5z"/>
	<path class="st0" d="M2.6,34.7V23.1h1.2v10.5h6v1.2H2.6z"/>
	<path class="st0" d="M12.7,31.2c0.1,1.4,1.3,2.7,2.8,2.7c1.7,0,2.6-1.3,2.6-1.3l0.8,0.8c0,0-1.2,1.7-3.3,1.7c-2.2,0-4-1.8-4-4.2
		c0-2.3,1.8-4.2,3.9-4.2c2.2,0,3.8,1.7,3.8,4c0,0.3-0.1,0.6-0.1,0.6L12.7,31.2z M12.7,30.2h5.4c-0.2-1.4-1.2-2.5-2.7-2.5
		S12.8,28.8,12.7,30.2z"/>
	<path class="st0" d="M22.8,24.1h1.1v2.7h1.7v1.1h-1.7v4.7c0,0.8,0.4,1.2,1.1,1.2c0.6,0,1.1-0.2,1.1-0.2v1.1c0,0-0.5,0.2-1.1,0.2
		c-1.4,0-2.2-0.8-2.2-2.3v-4.7h-1.5v-1.1h0.9c0.4,0,0.7-0.2,0.7-0.8V24.1z"/>
	<path class="st0" d="M34.7,34.7l-3.2-8h1.2l2.6,6.5l2.6-6.5h1.2l-3.7,9.2c-0.7,1.7-1.3,2.3-2.5,2.3c-0.6,0-1-0.2-1-0.2V37
		c0,0,0.4,0.2,0.8,0.2c0.7,0,1.2-0.4,1.5-1.2L34.7,34.7z"/>
	<path class="st0" d="M44.8,26.6c2.2,0,4.1,1.8,4.1,4.2c0,2.3-1.8,4.2-4.1,4.2c-2.2,0-4.1-1.8-4.1-4.2
		C40.7,28.4,42.6,26.6,44.8,26.6z M44.8,27.7c-1.6,0-2.9,1.3-2.9,3.1c0,1.7,1.3,3.1,2.9,3.1s2.9-1.3,2.9-3.1
		C47.7,29,46.4,27.7,44.8,27.7z"/>
	<path class="st0" d="M57.5,33.7c0,0-0.8,1.2-2.6,1.2c-1.8,0-3.2-1.4-3.2-3.5v-4.7h1.2v4.7c0,1.4,1,2.4,2.2,2.4
		c1.3,0,2.4-1.1,2.4-2.7v-4.4h1.2v8h-1.2V33.7z"/>
	<path class="st0" d="M66.2,27.7h-0.5c-1.3,0-2.5,1-2.5,2.6v4.4h-1.2v-8h1.2v1.1c0,0,0.8-1.2,2.7-1.2h0.3V27.7z"/>
	<path class="st0" d="M76.3,28.5c0,0-0.6-0.8-1.8-0.8c-0.9,0-1.5,0.6-1.5,1.2c0,1.8,4.3,0.8,4.3,3.7c0,1.3-1.1,2.4-2.9,2.4
		c-2,0-2.9-1.4-2.9-1.4l0.8-0.8c0,0,0.8,1.2,2.1,1.2c1.2,0,1.7-0.6,1.7-1.3c0-1.8-4.3-0.9-4.3-3.7c0-1.2,1.1-2.2,2.7-2.2
		c1.7,0,2.6,1.1,2.6,1.1L76.3,28.5z"/>
	<path class="st0" d="M80.7,31.2c0.1,1.4,1.3,2.7,2.8,2.7c1.7,0,2.6-1.3,2.6-1.3l0.8,0.8c0,0-1.2,1.7-3.3,1.7c-2.2,0-4-1.8-4-4.2
		c0-2.3,1.8-4.2,3.9-4.2c2.2,0,3.8,1.7,3.8,4c0,0.3-0.1,0.6-0.1,0.6L80.7,31.2z M80.7,30.2h5.4c-0.2-1.4-1.2-2.5-2.7-2.5
		C82.1,27.7,80.9,28.8,80.7,30.2z"/>
	<path class="st0" d="M91.2,27.9c0,0,0.8-1.3,2.6-1.3c1.9,0,3.2,1.3,3.2,3.4v4.7h-1.2V30c0-1.4-0.9-2.3-2.2-2.3
		c-1.4,0-2.5,1.1-2.5,2.7v4.4H90v-8h1.2V27.9z"/>
	<path class="st0" d="M104.4,28.5c0,0-0.6-0.8-1.8-0.8c-0.9,0-1.5,0.6-1.5,1.2c0,1.8,4.3,0.8,4.3,3.7c0,1.3-1.1,2.4-2.9,2.4
		c-2,0-2.9-1.4-2.9-1.4l0.8-0.8c0,0,0.8,1.2,2.1,1.2c1.2,0,1.7-0.6,1.7-1.3c0-1.8-4.3-0.9-4.3-3.7c0-1.2,1.1-2.2,2.7-2.2
		c1.7,0,2.6,1.1,2.6,1.1L104.4,28.5z"/>
	<path class="st0" d="M108.8,23.3c0.4,0,0.8,0.3,0.8,0.8c0,0.4-0.3,0.8-0.8,0.8c-0.4,0-0.8-0.3-0.8-0.8
		C108,23.7,108.4,23.3,108.8,23.3z M108.2,26.7h1.2v8h-1.2V26.7z"/>
	<path class="st0" d="M113.5,24.1h1.1v2.7h1.7v1.1h-1.7v4.7c0,0.8,0.4,1.2,1.1,1.2c0.6,0,1.1-0.2,1.1-0.2v1.1c0,0-0.5,0.2-1.1,0.2
		c-1.4,0-2.2-0.8-2.2-2.3v-4.7h-1.5v-1.1h0.9c0.4,0,0.7-0.2,0.7-0.8V24.1z"/>
	<path class="st0" d="M120,23.3c0.4,0,0.8,0.3,0.8,0.8c0,0.4-0.3,0.8-0.8,0.8c-0.4,0-0.8-0.3-0.8-0.8
		C119.2,23.7,119.5,23.3,120,23.3z M119.4,26.7h1.2v8h-1.2V26.7z"/>
	<path class="st0" d="M126,34.7l-3.2-8h1.2l2.6,6.4l2.6-6.4h1.2l-3.2,8H126z"/>
	<path class="st0" d="M133.3,23.3c0.4,0,0.8,0.3,0.8,0.8c0,0.4-0.3,0.8-0.8,0.8c-0.4,0-0.8-0.3-0.8-0.8
		C132.5,23.7,132.9,23.3,133.3,23.3z M132.7,26.7h1.2v8h-1.2V26.7z"/>
	<path class="st0" d="M137.9,24.1h1.1v2.7h1.7v1.1H139v4.7c0,0.8,0.4,1.2,1.1,1.2c0.6,0,1.1-0.2,1.1-0.2v1.1c0,0-0.5,0.2-1.1,0.2
		c-1.4,0-2.2-0.8-2.2-2.3v-4.7h-1.5v-1.1h0.9c0.4,0,0.7-0.2,0.7-0.8V24.1z"/>
	<path class="st0" d="M146,34.7l-3.2-8h1.2l2.6,6.5l2.6-6.5h1.2l-3.7,9.2c-0.7,1.7-1.3,2.3-2.5,2.3c-0.6,0-1-0.2-1-0.2V37
		c0,0,0.4,0.2,0.8,0.2c0.7,0,1.2-0.4,1.5-1.2L146,34.7z"/>
	<path class="st0" d="M161.8,26.7l2,6.2l2.1-6.2h1.2l-2.7,8h-1.1l-2-6.1l-2,6.1h-1.1l-2.7-8h1.2l2.1,6.2l2-6.2H161.8z"/>
	<path class="st0" d="M170.6,27.9c0,0,0.8-1.3,2.6-1.3c1.9,0,3.2,1.3,3.2,3.4v4.7h-1.2V30c0-1.4-0.9-2.3-2.2-2.3
		c-1.4,0-2.5,1.1-2.5,2.7v4.4h-1.2V23.1h1.2V27.9z"/>
	<path class="st0" d="M180.3,31.2c0.1,1.4,1.3,2.7,2.8,2.7c1.7,0,2.6-1.3,2.6-1.3l0.8,0.8c0,0-1.2,1.7-3.3,1.7c-2.2,0-4-1.8-4-4.2
		c0-2.3,1.8-4.2,3.9-4.2c2.2,0,3.8,1.7,3.8,4c0,0.3-0.1,0.6-0.1,0.6L180.3,31.2z M180.3,30.2h5.4c-0.2-1.4-1.2-2.5-2.7-2.5
		C181.7,27.7,180.5,28.8,180.3,30.2z"/>
	<path class="st0" d="M193.8,27.7h-0.5c-1.3,0-2.5,1-2.5,2.6v4.4h-1.2v-8h1.2v1.1c0,0,0.8-1.2,2.7-1.2h0.3V27.7z"/>
	<path class="st0" d="M196.7,31.2c0.1,1.4,1.3,2.7,2.8,2.7c1.7,0,2.6-1.3,2.6-1.3l0.8,0.8c0,0-1.2,1.7-3.3,1.7c-2.2,0-4-1.8-4-4.2
		c0-2.3,1.8-4.2,3.9-4.2c2.2,0,3.8,1.7,3.8,4c0,0.3-0.1,0.6-0.1,0.6L196.7,31.2z M196.7,30.2h5.4c-0.2-1.4-1.2-2.5-2.7-2.5
		S196.8,28.8,196.7,30.2z"/>
	<path class="st0" d="M208.2,34.7l-3.2-8h1.2l2.6,6.4l2.6-6.4h1.2l-3.2,8H208.2z"/>
	<path class="st0" d="M215.4,31.2c0.1,1.4,1.3,2.7,2.8,2.7c1.7,0,2.6-1.3,2.6-1.3l0.8,0.8c0,0-1.2,1.7-3.3,1.7c-2.2,0-4-1.8-4-4.2
		c0-2.3,1.8-4.2,3.9-4.2c2.2,0,3.8,1.7,3.8,4c0,0.3-0.1,0.6-0.1,0.6L215.4,31.2z M215.4,30.2h5.4c-0.2-1.4-1.2-2.5-2.7-2.5
		S215.6,28.8,215.4,30.2z"/>
	<path class="st0" d="M228.9,27.7h-0.5c-1.3,0-2.5,1-2.5,2.6v4.4h-1.2v-8h1.2v1.1c0,0,0.8-1.2,2.7-1.2h0.3V27.7z"/>
	<path class="st0" d="M237.1,34.7l-3.2-8h1.2l2.6,6.5l2.6-6.5h1.2l-3.7,9.2c-0.7,1.7-1.3,2.3-2.5,2.3c-0.6,0-1-0.2-1-0.2V37
		c0,0,0.4,0.2,0.8,0.2c0.7,0,1.2-0.4,1.5-1.2L237.1,34.7z"/>
	<path class="st0" d="M247.3,26.6c2.2,0,4.1,1.8,4.1,4.2c0,2.3-1.8,4.2-4.1,4.2c-2.2,0-4.1-1.8-4.1-4.2
		C243.2,28.4,245,26.6,247.3,26.6z M247.3,27.7c-1.6,0-2.9,1.3-2.9,3.1c0,1.7,1.3,3.1,2.9,3.1s2.9-1.3,2.9-3.1
		C250.2,29,248.9,27.7,247.3,27.7z"/>
	<path class="st0" d="M260,33.7c0,0-0.8,1.2-2.6,1.2c-1.8,0-3.2-1.4-3.2-3.5v-4.7h1.2v4.7c0,1.4,1,2.4,2.2,2.4
		c1.3,0,2.4-1.1,2.4-2.7v-4.4h1.2v8H260V33.7z"/>
	<path class="st0" d="M268.7,27.7h-0.5c-1.3,0-2.5,1-2.5,2.6v4.4h-1.2v-8h1.2v1.1c0,0,0.8-1.2,2.7-1.2h0.3V27.7z"/>
	<path class="st0" d="M276,27.9c0,0,0.8-1.3,2.6-1.3c1.9,0,3.2,1.3,3.2,3.4v4.7h-1.2V30c0-1.4-0.9-2.3-2.2-2.3
		c-1.4,0-2.5,1.1-2.5,2.7v4.4h-1.2V23.1h1.2V27.9z"/>
	<path class="st0" d="M299,29.7c0-1.2-0.8-2-2-2c-1.4,0-2.2,1.2-2.2,1.2l-0.8-0.8c0,0,1.1-1.5,3-1.5c1.8,0,3.2,1.3,3.2,3.1v5.1H299
		v-1.1c0,0-0.8,1.2-2.6,1.2c-1.7,0-2.8-1.2-2.8-2.3c0-1.3,0.8-2.2,2.3-2.4L299,29.7z M299,31.2v-0.5l-2.7,0.5
		c-1,0.2-1.5,0.7-1.5,1.4c0,0.7,0.6,1.2,1.7,1.2C297.9,33.8,299,32.7,299,31.2z"/>
	<path class="st0" d="M307.7,27.7h-0.5c-1.3,0-2.5,1-2.5,2.6v4.4h-1.2v-8h1.2v1.1c0,0,0.8-1.2,2.7-1.2h0.3V27.7z"/>
	<path class="st0" d="M310.7,24.1h1.1v2.7h1.7v1.1h-1.7v4.7c0,0.8,0.4,1.2,1.1,1.2c0.6,0,1.1-0.2,1.1-0.2v1.1c0,0-0.5,0.2-1.1,0.2
		c-1.4,0-2.2-0.8-2.2-2.3v-4.7h-1.5v-1.1h0.9c0.4,0,0.7-0.2,0.7-0.8V24.1z"/>
	<path class="st0" d="M321.2,24.1h1.1v2.7h1.7v1.1h-1.7v4.7c0,0.8,0.4,1.2,1.1,1.2c0.6,0,1.1-0.2,1.1-0.2v1.1c0,0-0.5,0.2-1.1,0.2
		c-1.4,0-2.2-0.8-2.2-2.3v-4.7h-1.5v-1.1h0.9c0.4,0,0.7-0.2,0.7-0.8V24.1z"/>
	<path class="st0" d="M331.9,29.7c0-1.2-0.8-2-2-2c-1.4,0-2.2,1.2-2.2,1.2l-0.8-0.8c0,0,1.1-1.5,3-1.5c1.8,0,3.2,1.3,3.2,3.1v5.1
		h-1.2v-1.1c0,0-0.8,1.2-2.6,1.2c-1.7,0-2.8-1.2-2.8-2.3c0-1.3,0.8-2.2,2.3-2.4L331.9,29.7z M331.9,31.2v-0.5l-2.8,0.5
		c-1,0.2-1.5,0.7-1.5,1.4c0,0.7,0.6,1.2,1.7,1.2C330.8,33.8,331.9,32.7,331.9,31.2z"/>
	<path class="st0" d="M337.7,34.7h-1.2V23.1h1.2V31l4-4.2h1.4L340,30l3.4,4.7h-1.3l-2.8-3.9l-1.6,1.7V34.7z"/>
	<path class="st0" d="M346.2,31.2c0.1,1.4,1.3,2.7,2.8,2.7c1.7,0,2.6-1.3,2.6-1.3l0.8,0.8c0,0-1.2,1.7-3.3,1.7c-2.2,0-4-1.8-4-4.2
		c0-2.3,1.8-4.2,3.9-4.2c2.2,0,3.8,1.7,3.8,4c0,0.3-0.1,0.6-0.1,0.6L346.2,31.2z M346.2,30.2h5.4c-0.2-1.4-1.2-2.5-2.7-2.5
		C347.5,27.7,346.3,28.8,346.2,30.2z"/>
	<path class="st0" d="M285.2,31.2c0.1,1.4,1.3,2.7,2.8,2.7c1.7,0,2.6-1.3,2.6-1.3l0.8,0.8c0,0-1.2,1.7-3.3,1.7c-2.2,0-4-1.8-4-4.2
		c0-2.3,1.8-4.2,3.9-4.2c2.2,0,3.8,1.7,3.8,4c0,0.3-0.1,0.6-0.1,0.6L285.2,31.2z M285.2,30.2h5.4c-0.2-1.4-1.2-2.5-2.7-2.5
		C286.5,27.7,285.3,28.8,285.2,30.2z"/>
	<path class="st0" d="M359.5,28.5c0,0-0.6-0.8-1.8-0.8c-0.9,0-1.5,0.6-1.5,1.2c0,1.8,4.3,0.8,4.3,3.7c0,1.3-1.1,2.4-2.9,2.4
		c-2,0-2.9-1.4-2.9-1.4l0.8-0.8c0,0,0.8,1.2,2.1,1.2c1.2,0,1.7-0.6,1.7-1.3c0-1.8-4.3-0.9-4.3-3.7c0-1.2,1.1-2.2,2.7-2.2
		c1.7,0,2.6,1.1,2.6,1.1L359.5,28.5z"/>
	<path class="st0" d="M369.3,34.7l-3.2-8h1.2l2.6,6.5l2.6-6.5h1.2l-3.7,9.2c-0.7,1.7-1.3,2.3-2.5,2.3c-0.6,0-1-0.2-1-0.2V37
		c0,0,0.4,0.2,0.8,0.2c0.7,0,1.2-0.4,1.5-1.2L369.3,34.7z"/>
	<path class="st0" d="M379.5,26.6c2.2,0,4.1,1.8,4.1,4.2c0,2.3-1.8,4.2-4.1,4.2c-2.2,0-4.1-1.8-4.1-4.2
		C375.4,28.4,377.2,26.6,379.5,26.6z M379.5,27.7c-1.6,0-2.9,1.3-2.9,3.1c0,1.7,1.3,3.1,2.9,3.1s2.9-1.3,2.9-3.1
		C382.4,29,381.1,27.7,379.5,27.7z"/>
	<path class="st0" d="M392.1,33.7c0,0-0.8,1.2-2.6,1.2c-1.8,0-3.2-1.4-3.2-3.5v-4.7h1.2v4.7c0,1.4,1,2.4,2.2,2.4
		c1.3,0,2.4-1.1,2.4-2.7v-4.4h1.2v8h-1.2V33.7z"/>
	<path class="st0" d="M397.2,33.2c0.5,0,0.8,0.3,0.8,0.8s-0.3,0.8-0.8,0.8c-0.5,0-0.8-0.3-0.8-0.8S396.7,33.2,397.2,33.2z"/>
	<path class="st0" d="M10.5,45.8V47H3.8v4h5.3v1.2H3.8v5.3H2.6V45.8H10.5z"/>
	<path class="st0" d="M13.6,46.1c0.4,0,0.8,0.3,0.8,0.8c0,0.4-0.3,0.8-0.8,0.8c-0.4,0-0.8-0.3-0.8-0.8
		C12.8,46.4,13.2,46.1,13.6,46.1z M13,49.5h1.2v8H13V49.5z"/>
	<path class="st0" d="M18.7,50.7c0,0,0.8-1.3,2.6-1.3c1.9,0,3.2,1.3,3.2,3.4v4.7h-1.2v-4.7c0-1.4-0.9-2.3-2.2-2.3
		c-1.4,0-2.5,1.1-2.5,2.7v4.4h-1.2v-8h1.2V50.7z"/>
	<path class="st0" d="M33.9,45.8h1.2v11.7h-1.2v-1.2c0,0-1,1.4-2.8,1.4c-2,0-3.8-1.8-3.8-4.2s1.8-4.2,3.8-4.2c1.8,0,2.8,1.4,2.8,1.4
		V45.8z M31.1,50.4c-1.3,0-2.7,1.3-2.7,3.1c0,1.7,1.3,3.1,2.7,3.1c1.4,0,2.8-1.4,2.8-3.1S32.5,50.4,31.1,50.4z"/>
	<path class="st0" d="M43.6,50.7c0,0,0.8-1.3,2.6-1.3c1.9,0,3.2,1.3,3.2,3.4v4.7h-1.2v-4.7c0-1.4-0.9-2.3-2.2-2.3
		c-1.4,0-2.5,1.1-2.5,2.7v4.4h-1.2V45.8h1.2V50.7z"/>
	<path class="st0" d="M53.3,46.1c0.4,0,0.8,0.3,0.8,0.8c0,0.4-0.3,0.8-0.8,0.8c-0.4,0-0.8-0.3-0.8-0.8
		C52.6,46.4,52.9,46.1,53.3,46.1z M52.7,49.5h1.2v8h-1.2V49.5z"/>
	<path class="st0" d="M63.3,45.8h1.2v11.7h-1.2v-1.2c0,0-1,1.4-2.8,1.4c-2,0-3.8-1.8-3.8-4.2s1.8-4.2,3.8-4.2c1.8,0,2.8,1.4,2.8,1.4
		V45.8z M60.5,50.4c-1.3,0-2.7,1.3-2.7,3.1c0,1.7,1.3,3.1,2.7,3.1c1.4,0,2.8-1.4,2.8-3.1S61.9,50.4,60.5,50.4z"/>
	<path class="st0" d="M74,45.8h1.2v11.7H74v-1.2c0,0-1,1.4-2.8,1.4c-2,0-3.8-1.8-3.8-4.2s1.8-4.2,3.8-4.2c1.8,0,2.8,1.4,2.8,1.4
		V45.8z M71.1,50.4c-1.3,0-2.7,1.3-2.7,3.1c0,1.7,1.3,3.1,2.7,3.1c1.4,0,2.8-1.4,2.8-3.1S72.6,50.4,71.1,50.4z"/>
	<path class="st0" d="M79.1,53.9c0.1,1.4,1.3,2.7,2.8,2.7c1.7,0,2.6-1.3,2.6-1.3l0.8,0.8c0,0-1.2,1.7-3.3,1.7c-2.2,0-4-1.8-4-4.2
		s1.8-4.2,3.9-4.2c2.2,0,3.8,1.7,3.8,4c0,0.3-0.1,0.6-0.1,0.6L79.1,53.9z M79.1,52.9h5.4c-0.2-1.4-1.2-2.5-2.7-2.5
		C80.5,50.4,79.3,51.6,79.1,52.9z"/>
	<path class="st0" d="M89.6,50.7c0,0,0.8-1.3,2.6-1.3c1.9,0,3.2,1.3,3.2,3.4v4.7h-1.2v-4.7c0-1.4-0.9-2.3-2.2-2.3
		c-1.4,0-2.5,1.1-2.5,2.7v4.4h-1.2v-8h1.2V50.7z"/>
	<path class="st0" d="M104.8,57.5l-3.2-8h1.2l2.6,6.5l2.6-6.5h1.2l-3.7,9.2c-0.7,1.7-1.3,2.3-2.5,2.3c-0.6,0-1-0.2-1-0.2v-1.1
		c0,0,0.4,0.2,0.8,0.2c0.7,0,1.2-0.4,1.5-1.2L104.8,57.5z"/>
	<path class="st0" d="M115,49.3c2.2,0,4.1,1.8,4.1,4.2s-1.8,4.2-4.1,4.2c-2.2,0-4.1-1.8-4.1-4.2S112.7,49.3,115,49.3z M115,50.4
		c-1.6,0-2.9,1.3-2.9,3.1c0,1.7,1.3,3.1,2.9,3.1s2.9-1.3,2.9-3.1C117.9,51.8,116.5,50.4,115,50.4z"/>
	<path class="st0" d="M127.6,56.4c0,0-0.8,1.2-2.6,1.2c-1.8,0-3.2-1.4-3.2-3.5v-4.7h1.2v4.7c0,1.4,1,2.4,2.2,2.4
		c1.3,0,2.4-1.1,2.4-2.7v-4.4h1.2v8h-1.2V56.4z"/>
	<path class="st0" d="M136.4,50.5h-0.5c-1.3,0-2.5,1-2.5,2.6v4.4h-1.2v-8h1.2v1.1c0,0,0.8-1.2,2.7-1.2h0.3V50.5z"/>
	<path class="st0" d="M145.9,49.3c2.2,0,4.1,1.8,4.1,4.2s-1.8,4.2-4.1,4.2c-2.2,0-4.1-1.8-4.1-4.2S143.7,49.3,145.9,49.3z
		 M145.9,50.4c-1.6,0-2.9,1.3-2.9,3.1c0,1.7,1.3,3.1,2.9,3.1s2.9-1.3,2.9-3.1C148.9,51.8,147.5,50.4,145.9,50.4z"/>
	<path class="st0" d="M158,49.5l2,6.2l2.1-6.2h1.2l-2.7,8h-1.1l-2-6.1l-2,6.1h-1.1l-2.7-8h1.2l2.1,6.2l2-6.2H158z"/>
	<path class="st0" d="M166.8,50.7c0,0,0.8-1.3,2.6-1.3c1.9,0,3.2,1.3,3.2,3.4v4.7h-1.2v-4.7c0-1.4-0.9-2.3-2.2-2.3
		c-1.4,0-2.5,1.1-2.5,2.7v4.4h-1.2v-8h1.2V50.7z"/>
	<path class="st0" d="M181,50.8c0,0,1-1.4,2.8-1.4c2,0,3.8,1.8,3.8,4.2s-1.8,4.2-3.8,4.2c-1.8,0-2.8-1.4-2.8-1.4v1.2h-1.2V45.8h1.2
		V50.8z M183.8,56.6c1.3,0,2.7-1.3,2.7-3.1c0-1.8-1.3-3.1-2.7-3.1c-1.4,0-2.8,1.4-2.8,3.1S182.4,56.6,183.8,56.6z"/>
	<path class="st0" d="M191,53.9c0.1,1.4,1.3,2.7,2.8,2.7c1.7,0,2.6-1.3,2.6-1.3l0.8,0.8c0,0-1.2,1.7-3.3,1.7c-2.2,0-4-1.8-4-4.2
		s1.8-4.2,3.9-4.2c2.2,0,3.8,1.7,3.8,4c0,0.3-0.1,0.6-0.1,0.6L191,53.9z M191,52.9h5.4c-0.2-1.4-1.2-2.5-2.7-2.5
		S191.2,51.6,191,52.9z"/>
	<path class="st0" d="M205.2,52.4c0-1.2-0.8-2-2-2c-1.4,0-2.2,1.2-2.2,1.2l-0.8-0.8c0,0,1.1-1.5,3-1.5c1.8,0,3.2,1.3,3.2,3.1v5.1
		h-1.2v-1.1c0,0-0.8,1.2-2.6,1.2c-1.7,0-2.8-1.2-2.8-2.3c0-1.3,0.8-2.2,2.3-2.4L205.2,52.4z M205.2,53.9v-0.5l-2.7,0.5
		c-1,0.2-1.5,0.7-1.5,1.4c0,0.7,0.6,1.2,1.7,1.2C204.1,56.6,205.2,55.5,205.2,53.9z"/>
	<path class="st0" d="M215.5,56.4c0,0-0.8,1.2-2.6,1.2c-1.8,0-3.2-1.4-3.2-3.5v-4.7h1.2v4.7c0,1.4,1,2.4,2.2,2.4
		c1.3,0,2.4-1.1,2.4-2.7v-4.4h1.2v8h-1.2V56.4z"/>
	<path class="st0" d="M220.8,46.8h1.1v2.7h1.7v1.1h-1.7v4.7c0,0.8,0.4,1.2,1.1,1.2c0.6,0,1.1-0.2,1.1-0.2v1.1c0,0-0.5,0.2-1.1,0.2
		c-1.4,0-2.2-0.8-2.2-2.3v-4.7h-1.5v-1.1h0.9c0.4,0,0.7-0.2,0.7-0.8V46.8z"/>
	<path class="st0" d="M228.9,57.5l-3.2-8h1.2l2.6,6.5l2.6-6.5h1.2l-3.7,9.2c-0.7,1.7-1.3,2.3-2.5,2.3c-0.6,0-1-0.2-1-0.2v-1.1
		c0,0,0.4,0.2,0.8,0.2c0.7,0,1.2-0.4,1.5-1.2L228.9,57.5z"/>
	<path class="st0" d="M244.6,49.5l2,6.2l2.1-6.2h1.2l-2.7,8h-1.1l-2-6.1l-2,6.1h-1.1l-2.7-8h1.2l2.1,6.2l2-6.2H244.6z"/>
	<path class="st0" d="M252.8,46.1c0.4,0,0.8,0.3,0.8,0.8c0,0.4-0.3,0.8-0.8,0.8c-0.4,0-0.8-0.3-0.8-0.8
		C252,46.4,252.4,46.1,252.8,46.1z M252.2,49.5h1.2v8h-1.2V49.5z"/>
	<path class="st0" d="M257.5,46.8h1.1v2.7h1.7v1.1h-1.7v4.7c0,0.8,0.4,1.2,1.1,1.2c0.6,0,1.1-0.2,1.1-0.2v1.1c0,0-0.5,0.2-1.1,0.2
		c-1.4,0-2.2-0.8-2.2-2.3v-4.7h-1.5v-1.1h0.9c0.4,0,0.7-0.2,0.7-0.8V46.8z"/>
	<path class="st0" d="M264.6,50.7c0,0,0.8-1.3,2.6-1.3c1.9,0,3.2,1.3,3.2,3.4v4.7h-1.2v-4.7c0-1.4-0.9-2.3-2.2-2.3
		c-1.4,0-2.5,1.1-2.5,2.7v4.4h-1.2V45.8h1.2V50.7z"/>
	<path class="st0" d="M274.4,46.1c0.4,0,0.8,0.3,0.8,0.8c0,0.4-0.3,0.8-0.8,0.8c-0.4,0-0.8-0.3-0.8-0.8
		C273.6,46.4,274,46.1,274.4,46.1z M273.8,49.5h1.2v8h-1.2V49.5z"/>
	<path class="st0" d="M279.4,50.7c0,0,0.8-1.3,2.6-1.3c1.9,0,3.2,1.3,3.2,3.4v4.7h-1.2v-4.7c0-1.4-0.9-2.3-2.2-2.3
		c-1.4,0-2.5,1.1-2.5,2.7v4.4h-1.2v-8h1.2V50.7z"/>
	<path class="st0" d="M294.6,57.5l-3.2-8h1.2l2.6,6.5l2.6-6.5h1.2l-3.7,9.2c-0.7,1.7-1.3,2.3-2.5,2.3c-0.6,0-1-0.2-1-0.2v-1.1
		c0,0,0.4,0.2,0.8,0.2c0.7,0,1.2-0.4,1.5-1.2L294.6,57.5z"/>
	<path class="st0" d="M304.8,49.3c2.2,0,4.1,1.8,4.1,4.2s-1.8,4.2-4.1,4.2c-2.2,0-4.1-1.8-4.1-4.2S302.5,49.3,304.8,49.3z
		 M304.8,50.4c-1.6,0-2.9,1.3-2.9,3.1c0,1.7,1.3,3.1,2.9,3.1s2.9-1.3,2.9-3.1C307.7,51.8,306.4,50.4,304.8,50.4z"/>
	<path class="st0" d="M317.4,56.4c0,0-0.8,1.2-2.6,1.2c-1.8,0-3.2-1.4-3.2-3.5v-4.7h1.2v4.7c0,1.4,1,2.4,2.2,2.4
		c1.3,0,2.4-1.1,2.4-2.7v-4.4h1.2v8h-1.2V56.4z"/>
	<path class="st0" d="M326.2,50.5h-0.5c-1.3,0-2.5,1-2.5,2.6v4.4H322v-8h1.2v1.1c0,0,0.8-1.2,2.7-1.2h0.3V50.5z"/>
	<path class="st0" d="M332.4,51.3c0,0-0.6-0.8-1.8-0.8c-0.9,0-1.5,0.6-1.5,1.2c0,1.7,4.3,0.8,4.3,3.7c0,1.3-1.1,2.4-2.9,2.4
		c-2,0-2.9-1.4-2.9-1.4l0.8-0.8c0,0,0.8,1.2,2.1,1.2c1.2,0,1.7-0.6,1.7-1.3c0-1.8-4.3-0.9-4.3-3.7c0-1.2,1.1-2.2,2.7-2.2
		c1.7,0,2.6,1.1,2.6,1.1L332.4,51.3z"/>
	<path class="st0" d="M336.8,53.9c0.1,1.4,1.3,2.7,2.8,2.7c1.7,0,2.6-1.3,2.6-1.3L343,56c0,0-1.2,1.7-3.3,1.7c-2.2,0-4-1.8-4-4.2
		s1.8-4.2,3.9-4.2c2.2,0,3.8,1.7,3.8,4c0,0.3-0.1,0.6-0.1,0.6L336.8,53.9z M336.8,52.9h5.4c-0.2-1.4-1.2-2.5-2.7-2.5
		S337,51.6,336.8,52.9z"/>
	<path class="st0" d="M347.4,57.5h-1.2V45.8h1.2V57.5z"/>
	<path class="st0" d="M354.3,50.6h-1.9v6.9h-1.2v-6.9H350v-1.1h1.2V48c0-1.5,0.8-2.3,2.2-2.3c0.7,0,1.2,0.2,1.2,0.2V47
		c0,0-0.5-0.2-1.1-0.2c-0.7,0-1.1,0.4-1.1,1.2v1.5h1.9V50.6z"/>
	<path class="st0" d="M357.3,56c0.5,0,0.8,0.3,0.8,0.8s-0.3,0.8-0.8,0.8c-0.5,0-0.8-0.3-0.8-0.8S356.8,56,357.3,56z"/>
	<path class="st0" d="M8.5,76.9l-4.7-6.2v9.5H2.6V68.6h1.1l4.8,6.3l4.8-6.3h1.1v11.7h-1.2v-9.5L8.5,76.9z"/>
	<path class="st0" d="M18.7,76.7c0.1,1.4,1.3,2.7,2.8,2.7c1.7,0,2.6-1.3,2.6-1.3l0.8,0.8c0,0-1.2,1.7-3.3,1.7c-2.2,0-4-1.8-4-4.2
		c0-2.3,1.8-4.2,3.9-4.2c2.2,0,3.8,1.7,3.8,4c0,0.3-0.1,0.6-0.1,0.6L18.7,76.7z M18.7,75.7h5.4c-0.2-1.4-1.2-2.5-2.7-2.5
		S18.8,74.4,18.7,75.7z"/>
	<path class="st0" d="M28.6,76.7c0.1,1.4,1.3,2.7,2.8,2.7c1.7,0,2.6-1.3,2.6-1.3l0.8,0.8c0,0-1.2,1.7-3.3,1.7c-2.2,0-4-1.8-4-4.2
		c0-2.3,1.8-4.2,3.9-4.2c2.2,0,3.8,1.7,3.8,4c0,0.3-0.1,0.6-0.1,0.6L28.6,76.7z M28.6,75.7H34c-0.2-1.4-1.2-2.5-2.7-2.5
		S28.7,74.4,28.6,75.7z"/>
	<path class="st0" d="M38.7,69.6h1.1v2.7h1.7v1.1h-1.7v4.7c0,0.8,0.4,1.2,1.1,1.2c0.6,0,1.1-0.2,1.1-0.2v1.1c0,0-0.5,0.2-1.1,0.2
		c-1.4,0-2.2-0.8-2.2-2.3v-4.7h-1.5v-1.1H38c0.4,0,0.7-0.2,0.7-0.8V69.6z"/>
	<path class="st0" d="M53.2,75.2c0-1.2-0.8-2-2-2c-1.4,0-2.2,1.2-2.2,1.2l-0.8-0.8c0,0,1.1-1.5,3-1.5c1.8,0,3.2,1.3,3.2,3.1v5.1
		h-1.2v-1.1c0,0-0.8,1.2-2.6,1.2c-1.7,0-2.8-1.2-2.8-2.3c0-1.3,0.8-2.2,2.3-2.4L53.2,75.2z M53.2,76.7v-0.5l-2.8,0.5
		c-1,0.2-1.5,0.7-1.5,1.4c0,0.7,0.6,1.2,1.7,1.2C52.2,79.4,53.2,78.3,53.2,76.7z"/>
	<path class="st0" d="M62.7,73.4c0,0,0.8-1.3,2.6-1.3c1.9,0,3.2,1.3,3.2,3.4v4.7h-1.2v-4.7c0-1.4-0.9-2.3-2.2-2.3
		c-1.4,0-2.5,1.1-2.5,2.7v4.4h-1.2v-8h1.2V73.4z"/>
	<path class="st0" d="M72.5,76.7c0.1,1.4,1.3,2.7,2.8,2.7c1.7,0,2.6-1.3,2.6-1.3l0.8,0.8c0,0-1.2,1.7-3.3,1.7c-2.2,0-4-1.8-4-4.2
		c0-2.3,1.8-4.2,3.9-4.2c2.2,0,3.8,1.7,3.8,4c0,0.3-0.1,0.6-0.1,0.6L72.5,76.7z M72.5,75.7h5.4c-0.2-1.4-1.2-2.5-2.7-2.5
		C73.8,73.2,72.6,74.4,72.5,75.7z"/>
	<path class="st0" d="M87.1,72.3l2,6.2l2.1-6.2h1.2l-2.7,8h-1.1l-2-6.1l-2,6.1h-1.1l-2.7-8H82l2.1,6.2l2-6.2H87.1z"/>
	<path class="st0" d="M100.6,80.3l-3.2-8h1.2l2.6,6.5l2.6-6.5h1.2l-3.7,9.2c-0.7,1.7-1.3,2.3-2.5,2.3c-0.6,0-1-0.2-1-0.2v-1.1
		c0,0,0.4,0.2,0.8,0.2c0.7,0,1.2-0.4,1.5-1.2L100.6,80.3z"/>
	<path class="st0" d="M110.8,72.1c2.2,0,4.1,1.8,4.1,4.2c0,2.3-1.8,4.2-4.1,4.2c-2.2,0-4.1-1.8-4.1-4.2
		C106.7,73.9,108.5,72.1,110.8,72.1z M110.8,73.2c-1.6,0-2.9,1.3-2.9,3.1c0,1.7,1.3,3.1,2.9,3.1s2.9-1.3,2.9-3.1
		C113.7,74.5,112.4,73.2,110.8,73.2z"/>
	<path class="st0" d="M123.4,79.2c0,0-0.8,1.2-2.6,1.2c-1.8,0-3.2-1.4-3.2-3.5v-4.7h1.2v4.7c0,1.4,1,2.4,2.2,2.4
		c1.3,0,2.4-1.1,2.4-2.7v-4.4h1.2v8h-1.2V79.2z"/>
	<path class="st0" d="M137.1,72.3l2,6.2l2.1-6.2h1.2l-2.7,8h-1.1l-2-6.1l-2,6.1h-1.1l-2.7-8h1.2l2.1,6.2l2-6.2H137.1z"/>
	<path class="st0" d="M145.3,68.9c0.4,0,0.8,0.3,0.8,0.8c0,0.4-0.3,0.8-0.8,0.8c-0.4,0-0.8-0.3-0.8-0.8
		C144.5,69.2,144.9,68.9,145.3,68.9z M144.7,72.3h1.2v8h-1.2V72.3z"/>
	<path class="st0" d="M149.9,69.6h1.1v2.7h1.7v1.1H151v4.7c0,0.8,0.4,1.2,1.1,1.2c0.6,0,1.1-0.2,1.1-0.2v1.1c0,0-0.5,0.2-1.1,0.2
		c-1.4,0-2.2-0.8-2.2-2.3v-4.7h-1.5v-1.1h0.9c0.4,0,0.7-0.2,0.7-0.8V69.6z"/>
	<path class="st0" d="M157.1,73.4c0,0,0.8-1.3,2.6-1.3c1.9,0,3.2,1.3,3.2,3.4v4.7h-1.2v-4.7c0-1.4-0.9-2.3-2.2-2.3
		c-1.4,0-2.5,1.1-2.5,2.7v4.4h-1.2V68.6h1.2V73.4z"/>
	<path class="st0" d="M171.3,83.8h-1.2V72.3h1.2v1.2c0,0,1-1.4,2.8-1.4c2,0,3.8,1.8,3.8,4.2c0,2.3-1.8,4.2-3.8,4.2
		c-1.8,0-2.8-1.4-2.8-1.4V83.8z M174.1,79.4c1.3,0,2.7-1.3,2.7-3.1c0-1.7-1.3-3.1-2.7-3.1c-1.4,0-2.8,1.4-2.8,3.1
		C171.3,77.9,172.7,79.4,174.1,79.4z"/>
	<path class="st0" d="M181.3,76.7c0.1,1.4,1.3,2.7,2.8,2.7c1.7,0,2.6-1.3,2.6-1.3l0.8,0.8c0,0-1.2,1.7-3.3,1.7c-2.2,0-4-1.8-4-4.2
		c0-2.3,1.8-4.2,3.9-4.2c2.2,0,3.8,1.7,3.8,4c0,0.3-0.1,0.6-0.1,0.6L181.3,76.7z M181.3,75.7h5.4c-0.2-1.4-1.2-2.5-2.7-2.5
		C182.6,73.2,181.4,74.4,181.3,75.7z"/>
	<path class="st0" d="M194.7,73.3h-0.5c-1.3,0-2.5,1-2.5,2.6v4.4h-1.2v-8h1.2v1.1c0,0,0.8-1.2,2.7-1.2h0.3V73.3z"/>
	<path class="st0" d="M201,74c0,0-0.6-0.8-1.8-0.8c-0.9,0-1.5,0.6-1.5,1.2c0,1.8,4.3,0.8,4.3,3.7c0,1.3-1.1,2.4-2.9,2.4
		c-2,0-2.9-1.4-2.9-1.4l0.8-0.8c0,0,0.8,1.2,2.1,1.2c1.2,0,1.7-0.6,1.7-1.3c0-1.8-4.3-0.9-4.3-3.7c0-1.2,1.1-2.2,2.7-2.2
		c1.7,0,2.6,1.1,2.6,1.1L201,74z"/>
	<path class="st0" d="M205.4,76.7c0.1,1.4,1.3,2.7,2.8,2.7c1.7,0,2.6-1.3,2.6-1.3l0.8,0.8c0,0-1.2,1.7-3.3,1.7c-2.2,0-4-1.8-4-4.2
		c0-2.3,1.8-4.2,3.9-4.2c2.2,0,3.8,1.7,3.8,4c0,0.3-0.1,0.6-0.1,0.6L205.4,76.7z M205.4,75.7h5.4c-0.2-1.4-1.2-2.5-2.7-2.5
		C206.7,73.2,205.6,74.4,205.4,75.7z"/>
	<path class="st0" d="M215.2,78.8c0.5,0,0.8,0.3,0.8,0.8s-0.3,0.8-0.8,0.8c-0.5,0-0.8-0.3-0.8-0.8S214.7,78.8,215.2,78.8z"/>
</g>
</svg>
