<?xml version="1.0" encoding="utf-8"?>
<!-- Generator: Adobe Illustrator 25.4.1, SVG Export Plug-In . SVG Version: 6.00 Build 0)  -->
<svg version="1.1" id="レイヤー_1" xmlns="http://www.w3.org/2000/svg" xmlns:xlink="http://www.w3.org/1999/xlink" x="0px"
	 y="0px" viewBox="0 0 442 37" style="enable-background:new 0 0 442 37;" xml:space="preserve">
<style type="text/css">
	.st0{fill:#F08984;}
</style>
<g>
	<path class="st0" d="M10.07,19.81c0-2.5,0.28-4.77,0.84-6.8c0.56-2.03,1.37-3.77,2.42-5.21c1.05-1.44,2.31-2.56,3.78-3.35
		c1.47-0.8,3.1-1.2,4.88-1.2c1.81,0,3.46,0.4,4.93,1.2c1.47,0.8,2.73,1.92,3.78,3.35c1.05,1.44,1.85,3.18,2.42,5.21
		c0.56,2.03,0.84,4.3,0.84,6.8c0,2.47-0.28,4.73-0.84,6.78c-0.56,2.05-1.37,3.79-2.42,5.23c-1.05,1.44-2.31,2.56-3.78,3.35
		c-1.47,0.8-3.11,1.2-4.93,1.2c-1.78,0-3.41-0.4-4.88-1.2c-1.47-0.8-2.73-1.92-3.78-3.35s-1.85-3.18-2.42-5.23
		C10.35,24.55,10.07,22.29,10.07,19.81z M14.06,19.81c0,4.97,0.68,8.86,2.04,11.66c1.36,2.8,3.32,4.2,5.89,4.2
		c2.6,0,4.58-1.4,5.94-4.2c1.36-2.8,2.04-6.69,2.04-11.66s-0.68-8.86-2.04-11.66c-1.36-2.8-3.34-4.2-5.94-4.2
		c-2.57,0-4.53,1.4-5.89,4.2C14.74,10.95,14.06,14.84,14.06,19.81z"/>
	<path class="st0" d="M57.23,3.53v0.05l0.05-0.05h0.38v21.68h4.32L61.5,27.7h-3.85v2.91c0,1.03,0.04,1.87,0.12,2.51
		s0.21,1.16,0.4,1.55c0.19,0.39,0.44,0.7,0.75,0.92c0.31,0.22,0.72,0.41,1.22,0.56h-8.59c0.5-0.16,0.92-0.34,1.24-0.54
		c0.33-0.2,0.59-0.5,0.77-0.89c0.19-0.39,0.32-0.92,0.4-1.57c0.08-0.66,0.12-1.5,0.12-2.53V27.7h-15.2v-0.38L57.23,3.53z
		 M54.09,25.21V8.69L41.37,25.21H54.09z"/>
	<path class="st0" d="M84.45,29.48L96.51,3.53h0.28l13.75,29.38c0.53,1.13,1,1.92,1.41,2.37c0.41,0.45,0.81,0.74,1.22,0.87h-7.13
		c0.22-0.09,0.42-0.23,0.61-0.4c0.19-0.17,0.33-0.43,0.42-0.77s0.1-0.77,0.02-1.27c-0.08-0.5-0.29-1.13-0.63-1.88l-3.85-8.35H88.2
		l-3.85,8.26c-0.38,0.81-0.63,1.49-0.75,2.02c-0.12,0.53-0.16,0.96-0.12,1.29s0.16,0.57,0.33,0.73c0.17,0.16,0.35,0.28,0.54,0.38
		h-4.13c0.22-0.06,0.44-0.18,0.66-0.35c0.22-0.17,0.48-0.49,0.8-0.96c0.31-0.47,0.69-1.13,1.13-1.97
		C83.24,32.01,83.79,30.89,84.45,29.48z M102.28,22.77l-6.9-14.83l-6.9,14.83H102.28z"/>
	<path class="st0" d="M116.73,36.14c0.5-0.16,0.91-0.33,1.22-0.52c0.31-0.19,0.56-0.43,0.75-0.73c0.19-0.3,0.31-0.68,0.38-1.15
		c0.06-0.47,0.09-1.03,0.09-1.69V4.52c0-0.97-0.08-1.67-0.23-2.11c-0.16-0.44-0.47-0.84-0.94-1.22l4.65-0.56v31.44
		c0,0.66,0.04,1.21,0.12,1.67c0.08,0.45,0.21,0.84,0.4,1.15c0.19,0.31,0.44,0.56,0.75,0.75c0.31,0.19,0.7,0.36,1.17,0.52H116.73z"/>
	<path class="st0" d="M131.18,32.06V14.75c0-0.66-0.02-1.23-0.07-1.71c-0.05-0.48-0.12-0.92-0.21-1.29s-0.23-0.72-0.4-1.03
		c-0.17-0.31-0.38-0.63-0.63-0.94l4.79-0.42v7.41c0.75-2.28,1.96-4.08,3.64-5.4c1.67-1.31,3.75-1.97,6.22-1.97
		c2.72,0,4.88,0.7,6.48,2.09c1.6,1.39,2.52,3.21,2.77,5.47c0.72-2.35,1.92-4.19,3.59-5.54c1.67-1.34,3.78-2.02,6.31-2.02
		c1.47,0,2.78,0.21,3.94,0.63c1.16,0.42,2.13,1.03,2.93,1.81c0.8,0.78,1.41,1.71,1.83,2.79c0.42,1.08,0.63,2.26,0.63,3.54v13.89
		c0,0.66,0.04,1.21,0.12,1.67c0.08,0.45,0.21,0.84,0.4,1.15c0.19,0.31,0.44,0.56,0.75,0.75c0.31,0.19,0.7,0.36,1.17,0.52h-8.35
		c0.5-0.16,0.91-0.33,1.22-0.52c0.31-0.19,0.56-0.43,0.75-0.73c0.19-0.3,0.31-0.68,0.38-1.15c0.06-0.47,0.09-1.03,0.09-1.69V17.7
		c0-2.35-0.56-4.2-1.67-5.56c-1.11-1.36-2.75-2.04-4.9-2.04c-1.13,0-2.21,0.23-3.26,0.7c-1.05,0.47-1.99,1.15-2.84,2.04
		c-0.84,0.89-1.54,1.98-2.09,3.26c-0.55,1.28-0.87,2.75-0.96,4.41v11.54c0,0.66,0.04,1.21,0.12,1.67c0.08,0.45,0.21,0.84,0.4,1.15
		c0.19,0.31,0.44,0.56,0.75,0.75c0.31,0.19,0.7,0.36,1.17,0.52h-8.35c0.5-0.16,0.91-0.33,1.22-0.52c0.31-0.19,0.56-0.43,0.75-0.73
		c0.19-0.3,0.31-0.68,0.38-1.15s0.09-1.03,0.09-1.69V17.7c0-2.35-0.56-4.2-1.67-5.56c-1.11-1.36-2.73-2.04-4.86-2.04
		c-1.13,0-2.21,0.23-3.26,0.7c-1.05,0.47-2,1.15-2.84,2.04c-0.84,0.89-1.54,1.98-2.09,3.26c-0.55,1.28-0.87,2.75-0.96,4.41v11.54
		c0,0.66,0.04,1.21,0.12,1.67c0.08,0.45,0.21,0.84,0.4,1.15c0.19,0.31,0.44,0.56,0.75,0.75c0.31,0.19,0.7,0.36,1.17,0.52h-8.35
		c0.5-0.16,0.91-0.33,1.22-0.52c0.31-0.19,0.56-0.43,0.75-0.73c0.19-0.3,0.31-0.68,0.38-1.15
		C131.15,33.28,131.18,32.72,131.18,32.06z"/>
	<path class="st0" d="M192.52,9.4c2,0,3.82,0.33,5.47,0.99c1.64,0.66,3.06,1.59,4.25,2.79c1.19,1.2,2.11,2.63,2.77,4.27
		c0.66,1.64,0.99,3.45,0.99,5.42v0.05c0,1.97-0.33,3.78-0.99,5.42c-0.66,1.64-1.58,3.07-2.77,4.27c-1.19,1.21-2.6,2.14-4.25,2.79
		c-1.64,0.66-3.47,0.99-5.47,0.99c-2,0-3.83-0.33-5.47-0.99c-1.64-0.66-3.06-1.59-4.25-2.79c-1.19-1.2-2.11-2.63-2.77-4.27
		c-0.66-1.64-0.99-3.45-0.99-5.42v-0.05c0-1.97,0.33-3.78,0.99-5.42c0.66-1.64,1.58-3.07,2.77-4.27c1.19-1.2,2.6-2.14,4.25-2.79
		C188.69,9.73,190.51,9.4,192.52,9.4z M182.85,22.86c0,1.88,0.23,3.6,0.7,5.16c0.47,1.56,1.13,2.92,1.97,4.06
		c0.84,1.14,1.86,2.03,3.05,2.65c1.19,0.63,2.5,0.94,3.94,0.94c1.44,0,2.75-0.31,3.94-0.94c1.19-0.63,2.21-1.51,3.05-2.65
		c0.84-1.14,1.5-2.49,1.97-4.06c0.47-1.56,0.7-3.28,0.7-5.16s-0.23-3.6-0.7-5.16c-0.47-1.56-1.13-2.91-1.97-4.04
		c-0.84-1.13-1.86-2-3.05-2.63c-1.19-0.62-2.5-0.94-3.94-0.94c-1.44,0-2.75,0.31-3.94,0.94c-1.19,0.63-2.21,1.5-3.05,2.63
		c-0.84,1.13-1.5,2.47-1.97,4.04C183.08,19.27,182.85,20.99,182.85,22.86z"/>
	<path class="st0" d="M209.88,36.14c0.5-0.16,0.91-0.33,1.22-0.52c0.31-0.19,0.56-0.43,0.75-0.73c0.19-0.3,0.31-0.68,0.38-1.15
		c0.06-0.47,0.09-1.03,0.09-1.69V14.75c0-0.66-0.02-1.23-0.07-1.71c-0.05-0.48-0.12-0.92-0.21-1.29s-0.23-0.72-0.4-1.03
		c-0.17-0.31-0.38-0.63-0.63-0.94l4.79-0.42v7.46c0.78-2.28,2.03-4.09,3.75-5.42c1.72-1.33,3.91-1.99,6.57-1.99
		c1.5,0,2.83,0.21,3.99,0.63c1.16,0.42,2.13,1.03,2.93,1.81c0.8,0.78,1.41,1.71,1.83,2.79c0.42,1.08,0.63,2.26,0.63,3.54v13.89
		c0,0.66,0.04,1.21,0.12,1.67c0.08,0.45,0.21,0.84,0.4,1.15c0.19,0.31,0.44,0.56,0.75,0.75c0.31,0.19,0.7,0.36,1.17,0.52h-8.35
		c0.5-0.16,0.91-0.33,1.22-0.52c0.31-0.19,0.56-0.43,0.75-0.73c0.19-0.3,0.31-0.68,0.38-1.15c0.06-0.47,0.09-1.03,0.09-1.69V17.7
		c0-2.35-0.56-4.18-1.69-5.51c-1.13-1.33-2.77-1.99-4.93-1.99c-1.22,0-2.39,0.23-3.52,0.68c-1.13,0.45-2.13,1.12-3,1.99
		c-0.88,0.88-1.59,1.96-2.13,3.24c-0.55,1.28-0.87,2.75-0.96,4.41v11.54c0,0.66,0.04,1.21,0.12,1.67c0.08,0.45,0.21,0.84,0.4,1.15
		c0.19,0.31,0.44,0.56,0.75,0.75c0.31,0.19,0.7,0.36,1.17,0.52H209.88z"/>
	<path class="st0" d="M254.27,9.4c1.47,0,2.85,0.23,4.13,0.68c1.28,0.45,2.44,1.13,3.47,2.04v-7.6c0-0.97-0.08-1.67-0.23-2.11
		c-0.16-0.44-0.47-0.84-0.94-1.22l4.65-0.56v30.92c0,1.35,0.11,2.34,0.33,2.98c0.22,0.64,0.55,1.18,0.99,1.62l-4.6,0.14v-3.61
		c-0.97,1.31-2.14,2.26-3.52,2.84c-1.38,0.58-2.77,0.87-4.18,0.87c-1.97,0-3.76-0.33-5.37-0.99c-1.61-0.66-2.98-1.56-4.11-2.7
		c-1.13-1.14-2-2.49-2.63-4.06c-0.63-1.56-0.94-3.25-0.94-5.07c0-2.1,0.32-4.01,0.96-5.75c0.64-1.74,1.54-3.23,2.7-4.48
		c1.16-1.25,2.53-2.22,4.11-2.91C250.66,9.74,252.39,9.4,254.27,9.4z M244.93,21.64c0,1.91,0.23,3.71,0.68,5.4
		c0.45,1.69,1.13,3.17,2.02,4.43s1.98,2.27,3.26,3c1.28,0.74,2.74,1.1,4.36,1.1c1.34,0,2.58-0.34,3.71-1.01
		c1.13-0.67,2.1-1.6,2.91-2.79V15.87c-0.81-1.97-1.9-3.41-3.26-4.32c-1.36-0.91-2.92-1.36-4.67-1.36c-1.41,0-2.67,0.27-3.78,0.82
		c-1.11,0.55-2.05,1.32-2.82,2.32c-0.77,1-1.36,2.21-1.78,3.61C245.14,18.36,244.93,19.92,244.93,21.64z"/>
	<path class="st0" d="M286.04,36.14c1-0.28,1.67-0.7,2.02-1.27c0.34-0.56,0.52-1.52,0.52-2.86V7.66c0-0.69-0.04-1.26-0.12-1.71
		c-0.08-0.45-0.21-0.84-0.4-1.15c-0.19-0.31-0.45-0.57-0.77-0.77c-0.33-0.2-0.74-0.37-1.24-0.49h10.7c3.69,0,6.62,0.67,8.78,1.99
		c2.16,1.33,3.24,3.25,3.24,5.75c0,2.06-0.78,3.8-2.35,5.21c-1.56,1.41-3.74,2.36-6.52,2.86c3.13,0.38,5.58,1.24,7.34,2.6
		c1.77,1.36,2.65,3.12,2.65,5.28c0,1.41-0.28,2.66-0.84,3.75c-0.56,1.1-1.36,2.03-2.39,2.79c-1.03,0.77-2.29,1.35-3.78,1.76
		c-1.49,0.41-3.15,0.61-5,0.61H286.04z M292.14,19.02h5.02c2.41,0,4.32-0.69,5.75-2.06c1.42-1.38,2.13-3.17,2.13-5.4
		c0-2.35-0.77-4.15-2.32-5.4c-1.55-1.25-3.73-1.88-6.55-1.88h-4.04V19.02z M292.14,35.39h5.02c2.82,0,5-0.7,6.57-2.11
		c1.56-1.41,2.35-3.36,2.35-5.87c0-2.44-0.79-4.32-2.37-5.65c-1.58-1.33-3.7-1.99-6.36-1.99h-5.21V35.39z"/>
	<path class="st0" d="M314.29,36.14c0.5-0.16,0.91-0.33,1.22-0.52c0.31-0.19,0.56-0.43,0.75-0.73c0.19-0.3,0.31-0.68,0.38-1.15
		c0.06-0.47,0.09-1.03,0.09-1.69V14.75c0-0.66-0.02-1.23-0.07-1.71c-0.05-0.48-0.12-0.92-0.21-1.29s-0.23-0.72-0.4-1.03
		c-0.17-0.31-0.38-0.63-0.63-0.94l4.74-0.42v6.29c0.38-0.88,0.8-1.69,1.27-2.44c0.47-0.75,1.02-1.41,1.64-1.97s1.35-1,2.18-1.31
		c0.83-0.31,1.77-0.47,2.84-0.47c1,0,1.89,0.11,2.67,0.33l-0.05,4.5c-0.28-0.34-0.62-0.7-1.01-1.08c-0.39-0.38-0.81-0.72-1.24-1.03
		c-0.44-0.31-0.89-0.57-1.36-0.77c-0.47-0.2-0.96-0.3-1.46-0.3c-0.63,0-1.21,0.16-1.74,0.47c-0.53,0.31-1.02,0.73-1.48,1.24
		c-0.45,0.52-0.87,1.13-1.24,1.83c-0.38,0.7-0.7,1.45-0.99,2.23v15.2c0,0.66,0.04,1.21,0.12,1.67c0.08,0.45,0.21,0.84,0.4,1.15
		c0.19,0.31,0.44,0.56,0.75,0.75c0.31,0.19,0.7,0.36,1.17,0.52H314.29z"/>
	<path class="st0" d="M347.56,9.4c2,0,3.82,0.33,5.47,0.99c1.64,0.66,3.06,1.59,4.25,2.79c1.19,1.2,2.11,2.63,2.77,4.27
		c0.66,1.64,0.99,3.45,0.99,5.42v0.05c0,1.97-0.33,3.78-0.99,5.42c-0.66,1.64-1.58,3.07-2.77,4.27c-1.19,1.21-2.6,2.14-4.25,2.79
		c-1.64,0.66-3.47,0.99-5.47,0.99c-2,0-3.83-0.33-5.47-0.99c-1.64-0.66-3.06-1.59-4.25-2.79c-1.19-1.2-2.11-2.63-2.77-4.27
		c-0.66-1.64-0.99-3.45-0.99-5.42v-0.05c0-1.97,0.33-3.78,0.99-5.42c0.66-1.64,1.58-3.07,2.77-4.27c1.19-1.2,2.6-2.14,4.25-2.79
		C343.73,9.73,345.55,9.4,347.56,9.4z M337.89,22.86c0,1.88,0.23,3.6,0.7,5.16c0.47,1.56,1.13,2.92,1.97,4.06
		c0.84,1.14,1.86,2.03,3.05,2.65c1.19,0.63,2.5,0.94,3.94,0.94c1.44,0,2.75-0.31,3.94-0.94c1.19-0.63,2.21-1.51,3.05-2.65
		c0.84-1.14,1.5-2.49,1.97-4.06c0.47-1.56,0.7-3.28,0.7-5.16s-0.23-3.6-0.7-5.16c-0.47-1.56-1.13-2.91-1.97-4.04
		c-0.84-1.13-1.86-2-3.05-2.63c-1.19-0.62-2.5-0.94-3.94-0.94c-1.44,0-2.75,0.31-3.94,0.94c-1.19,0.63-2.21,1.5-3.05,2.63
		c-0.84,1.13-1.5,2.47-1.97,4.04C338.12,19.27,337.89,20.99,337.89,22.86z"/>
	<path class="st0" d="M370.03,9.63c-0.28,0.22-0.51,0.53-0.68,0.94c-0.17,0.41-0.09,1.06,0.26,1.97l6.57,18.3l6.66-21.26h0.38
		l8.54,21.54l5.12-15.72c0.41-1.28,0.64-2.28,0.7-3c0.06-0.72,0.02-1.27-0.12-1.67c-0.14-0.39-0.32-0.65-0.54-0.77
		c-0.22-0.12-0.41-0.23-0.56-0.33h4.6c-0.47,0.25-0.94,0.63-1.41,1.15c-0.47,0.52-0.92,1.46-1.36,2.84l-7.32,22.52h-0.56l-8.4-21.21
		l-6.66,21.21h-0.56l-8.12-22.38c-0.53-1.41-0.99-2.41-1.36-3c-0.38-0.59-0.72-0.97-1.03-1.13H370.03z"/>
	<path class="st0" d="M403.87,36.14c0.5-0.16,0.91-0.33,1.22-0.52c0.31-0.19,0.56-0.43,0.75-0.73c0.19-0.3,0.31-0.68,0.38-1.15
		c0.06-0.47,0.09-1.03,0.09-1.69V14.75c0-0.66-0.02-1.23-0.07-1.71c-0.05-0.48-0.12-0.92-0.21-1.29s-0.23-0.72-0.4-1.03
		c-0.17-0.31-0.38-0.63-0.63-0.94l4.79-0.42v7.46c0.78-2.28,2.03-4.09,3.75-5.42c1.72-1.33,3.91-1.99,6.57-1.99
		c1.5,0,2.83,0.21,3.99,0.63c1.16,0.42,2.13,1.03,2.93,1.81c0.8,0.78,1.41,1.71,1.83,2.79c0.42,1.08,0.63,2.26,0.63,3.54v13.89
		c0,0.66,0.04,1.21,0.12,1.67c0.08,0.45,0.21,0.84,0.4,1.15c0.19,0.31,0.44,0.56,0.75,0.75c0.31,0.19,0.7,0.36,1.17,0.52h-8.35
		c0.5-0.16,0.91-0.33,1.22-0.52c0.31-0.19,0.56-0.43,0.75-0.73c0.19-0.3,0.31-0.68,0.38-1.15c0.06-0.47,0.09-1.03,0.09-1.69V17.7
		c0-2.35-0.56-4.18-1.69-5.51c-1.13-1.33-2.77-1.99-4.93-1.99c-1.22,0-2.39,0.23-3.52,0.68c-1.13,0.45-2.13,1.12-3,1.99
		c-0.88,0.88-1.59,1.96-2.13,3.24c-0.55,1.28-0.87,2.75-0.96,4.41v11.54c0,0.66,0.04,1.21,0.12,1.67c0.08,0.45,0.21,0.84,0.4,1.15
		c0.19,0.31,0.44,0.56,0.75,0.75c0.31,0.19,0.7,0.36,1.17,0.52H403.87z"/>
</g>
</svg>
