<?xml version="1.0" encoding="utf-8"?>
<!-- Generator: Adobe Illustrator 25.4.1, SVG Export Plug-In . SVG Version: 6.00 Build 0)  -->
<svg version="1.1" id="レイヤー_1" xmlns="http://www.w3.org/2000/svg" xmlns:xlink="http://www.w3.org/1999/xlink" x="0px"
	 y="0px" viewBox="0 0 858 275" style="enable-background:new 0 0 858 275;" xml:space="preserve">
<style type="text/css">
	.st0{fill:#FFFFFF;stroke:#FFFFFF;stroke-width:1.0024;stroke-miterlimit:10;}
	.st1{fill:#FFFFFF;}
</style>
<g>
	<g>
		<path class="st0" d="M231.8,80.4h50.6l1.1,22c-0.6-4.4-1.4-8-2.2-10.6c-0.9-2.6-1.9-4.7-3.1-6.2s-2.7-2.4-4.3-2.9
			c-1.7-0.5-3.7-0.7-6-0.7h-7.2v55.2c0,1.3,0.1,2.4,0.2,3.4c0.2,0.9,0.4,1.7,0.8,2.3s0.9,1.1,1.5,1.5s1.4,0.8,2.3,1.1h-17
			c1-0.3,1.8-0.7,2.5-1c0.7-0.4,1.2-0.9,1.5-1.5c0.4-0.6,0.6-1.4,0.8-2.3c0.2-0.9,0.2-2,0.2-3.4V82h-7.1c-2.3,0-4.3,0.2-6,0.7
			s-3.1,1.4-4.4,2.9c-1.2,1.5-2.3,3.5-3.2,6.2c-0.9,2.6-1.7,6.2-2.3,10.6L231.8,80.4z"/>
		<path class="st0" d="M291.6,145.4c1-0.3,1.8-0.7,2.4-1c0.6-0.4,1.1-0.9,1.5-1.4c0.4-0.6,0.6-1.4,0.7-2.3c0.1-0.9,0.2-2.1,0.2-3.4
			V82.4c0-1.9-0.2-3.3-0.5-4.2c-0.3-0.9-0.9-1.7-1.9-2.4l9.3-1.1V107c1.6-4.5,4.1-8.1,7.5-10.8c3.4-2.6,7.8-4,13.1-4
			c3,0,5.6,0.4,7.9,1.3c2.3,0.8,4.3,2,5.8,3.6c1.6,1.6,2.8,3.4,3.6,5.6c0.8,2.1,1.3,4.5,1.3,7.1v27.7c0,1.3,0.1,2.4,0.2,3.3
			c0.2,0.9,0.4,1.7,0.8,2.3s0.9,1.1,1.5,1.5s1.4,0.7,2.3,1h-16.6c1-0.3,1.8-0.7,2.4-1c0.6-0.4,1.1-0.9,1.5-1.4
			c0.4-0.6,0.6-1.4,0.7-2.3c0.1-0.9,0.2-2.1,0.2-3.4v-28.6c0-4.7-1.1-8.3-3.4-11c-2.2-2.6-5.5-4-9.8-4c-2.4,0-4.8,0.5-7,1.4
			s-4.2,2.2-6,4c-1.7,1.7-3.2,3.9-4.3,6.4c-1.1,2.6-1.7,5.5-1.9,8.8v23c0,1.3,0.1,2.4,0.2,3.3c0.2,0.9,0.4,1.7,0.8,2.3
			s0.9,1.1,1.5,1.5s1.4,0.7,2.3,1h-16.3V145.4z"/>
		<path class="st0" d="M379.5,92.1c3.7,0,7,0.5,9.8,1.6s5.1,2.6,6.9,4.5s3.2,4.2,4.1,6.8c0.9,2.6,1.4,5.5,1.4,8.6h-39.4
			c-0.1,0.9-0.2,1.9-0.3,2.9c-0.1,1-0.1,1.9-0.1,2.9c0,3.6,0.5,6.9,1.4,10c1,3.1,2.3,5.7,4,8c1.7,2.2,3.8,4,6.1,5.3
			c2.4,1.3,5,1.9,7.8,1.9c2.5,0,4.8-0.5,6.8-1.4s3.9-2.2,5.6-3.9s3.2-3.7,4.5-6s2.5-4.9,3.5-7.7l-0.8,13.6c-2.7,2.3-5.9,4-9.3,5.1
			c-3.5,1.1-6.9,1.6-10.2,1.6c-3.9,0-7.5-0.6-10.8-1.9c-3.3-1.3-6.2-3.1-8.6-5.4c-2.4-2.3-4.3-5.1-5.6-8.4c-1.3-3.3-2-6.9-2-10.9
			c0-3.9,0.6-7.5,1.7-10.8c1.2-3.3,2.8-6.2,5-8.6s4.8-4.3,7.9-5.7C372,92.8,375.5,92.1,379.5,92.1z M362.4,112.5h31.9
			c-0.1-2.7-0.4-5.3-1.1-7.6c-0.7-2.3-1.7-4.3-2.9-6.1c-1.2-1.7-2.8-3.1-4.6-4.1c-1.8-1-3.9-1.4-6.3-1.4c-2.2,0-4.3,0.5-6.2,1.4
			c-1.9,0.9-3.5,2.3-5,4s-2.7,3.7-3.6,6.1C363.6,107.1,362.9,109.7,362.4,112.5z"/>
		<path class="st0" d="M440.4,138.6l1.5-17.4c0.7,7.4,2.9,13.2,6.4,17.2c3.6,4.1,8.4,6.1,14.7,6.1c2.5,0,4.7-0.4,6.7-1.1
			c2-0.7,3.7-1.7,5-3c1.4-1.3,2.4-2.8,3.1-4.4c0.7-1.7,1.1-3.5,1.1-5.3c0-2.4-0.5-4.4-1.5-6s-2.2-3-3.5-4.1s-2.7-2-4.2-2.7
			s-2.7-1.2-3.6-1.5l-9.1-3.5c-1.2-0.4-2.6-1-4.3-1.8s-3.3-1.8-4.9-3.1c-1.6-1.3-2.9-2.9-4.1-4.9c-1.1-1.9-1.7-4.3-1.7-7.1
			c0-2.2,0.4-4.4,1.2-6.4c0.8-2,2-3.7,3.6-5.2s3.6-2.7,6-3.5s5.1-1.3,8.3-1.3c2.9,0,6,0.4,9.5,1.3c3.5,0.8,6.5,2.1,9.2,3.9l0.7,17.9
			c-1.1-6.9-3.2-12.2-6.3-15.9c-3.1-3.8-7.5-5.7-12.9-5.7c-2.2,0-4.2,0.3-6.1,0.9s-3.5,1.4-4.8,2.5s-2.4,2.4-3.1,3.8
			c-0.7,1.5-1.1,3-1.1,4.7c0,1.9,0.5,3.6,1.4,5s2,2.6,3.3,3.6s2.6,1.8,4.1,2.4c1.4,0.6,2.7,1.1,3.7,1.5l9.6,3.6
			c4.7,1.8,8.5,4.2,11.3,7.1s4.2,6.7,4.2,11.3c0,2.6-0.5,5-1.4,7.3c-1,2.2-2.4,4.2-4.2,5.8c-1.8,1.7-4,3-6.6,3.9
			c-2.6,1-5.6,1.4-8.9,1.4c-4.4,0-8.6-0.6-12.6-1.9C446.2,142.8,442.9,141,440.4,138.6z"/>
		<path class="st0" d="M492.4,145.4c1-0.3,1.8-0.7,2.4-1c0.6-0.4,1.1-0.9,1.5-1.4c0.4-0.6,0.6-1.4,0.7-2.3c0.1-0.9,0.2-2.1,0.2-3.4
			V82.4c0-1.9-0.2-3.3-0.5-4.2c-0.3-0.9-0.9-1.7-1.9-2.4l9.3-1.1v47.8l23.9-21c1.7-1.4,3.1-2.9,4.2-4.4c1.1-1.5,1.6-3,1.5-4.4h8.5
			c-0.6,0.3-1.3,0.7-2.2,1.3c-0.8,0.5-1.8,1.2-2.9,2.1c-1.1,0.8-2.4,1.9-3.9,3.1s-3.3,2.8-5.3,4.6l-10.3,9.1l17.9,22.5
			c1.7,2.2,3.1,3.9,4.2,5.2c1.1,1.3,1.9,2.3,2.5,3.1c0.6,0.7,1.1,1.2,1.3,1.5c0.2,0.2,0.4,0.4,0.6,0.4h-12c0.1-0.2,0.2-0.5,0.3-0.8
			s0-0.8-0.3-1.5s-0.7-1.5-1.3-2.5s-1.5-2.3-2.7-3.9L512.8,117l-8.8,7.8v12.7c0,1.3,0.1,2.4,0.2,3.3c0.2,0.9,0.4,1.7,0.8,2.3
			s0.9,1.1,1.5,1.5s1.4,0.7,2.3,1h-16.4V145.4z"/>
		<path class="st0" d="M549.7,145.4c1-0.3,1.8-0.7,2.4-1c0.6-0.4,1.1-0.9,1.5-1.4c0.4-0.6,0.6-1.4,0.7-2.3c0.1-0.9,0.2-2.1,0.2-3.4
			v-34.5c0-1.3,0-2.4-0.1-3.4s-0.2-1.8-0.4-2.6s-0.5-1.4-0.8-2.1c-0.3-0.6-0.8-1.2-1.3-1.9l9.5-0.8v45.2c0,1.3,0.1,2.4,0.2,3.3
			c0.2,0.9,0.4,1.7,0.8,2.3c0.4,0.6,0.9,1.1,1.5,1.5s1.4,0.7,2.3,1L549.7,145.4L549.7,145.4z M557.7,75.8c1.4,0,2.6,0.4,3.6,1.3
			s1.4,2,1.4,3.4s-0.5,2.6-1.4,3.5s-2.1,1.3-3.6,1.3c-1.4,0-2.5-0.4-3.5-1.3c-0.9-0.9-1.4-2-1.4-3.5c0-1.4,0.5-2.6,1.4-3.4
			C555.2,76.2,556.3,75.8,557.7,75.8z"/>
		<path class="st0" d="M573.2,145.4c1-0.3,1.8-0.7,2.4-1c0.6-0.4,1.1-0.9,1.5-1.4c0.4-0.6,0.6-1.4,0.7-2.3c0.1-0.9,0.2-2.1,0.2-3.4
			v-34.5c0-1.3,0-2.4-0.1-3.4s-0.2-1.8-0.4-2.6s-0.5-1.4-0.8-2.1c-0.3-0.6-0.8-1.2-1.3-1.9L585,92v14.9c1.6-4.5,4.1-8.1,7.5-10.8
			c3.4-2.6,7.8-4,13.1-4c3,0,5.6,0.4,7.9,1.3c2.3,0.8,4.3,2,5.8,3.6c1.6,1.6,2.8,3.4,3.6,5.6c0.8,2.1,1.3,4.5,1.3,7.1v27.7
			c0,1.3,0.1,2.4,0.2,3.3c0.2,0.9,0.4,1.7,0.8,2.3c0.4,0.6,0.9,1.1,1.5,1.5s1.4,0.7,2.3,1h-16.6c1-0.3,1.8-0.7,2.4-1
			c0.6-0.4,1.1-0.9,1.5-1.4c0.4-0.6,0.6-1.4,0.7-2.3c0.1-0.9,0.2-2.1,0.2-3.4v-28.6c0-4.7-1.1-8.3-3.4-11c-2.2-2.6-5.5-4-9.8-4
			c-2.4,0-4.8,0.5-7,1.4s-4.2,2.2-6,4c-1.7,1.7-3.2,3.9-4.3,6.4c-1.1,2.6-1.7,5.5-1.9,8.8v23c0,1.3,0.1,2.4,0.2,3.3
			c0.2,0.9,0.4,1.7,0.8,2.3c0.4,0.6,0.9,1.1,1.5,1.5s1.4,0.7,2.3,1h-16.4V145.4z"/>
		<path class="st0" d="M0.4,258.5c2-0.6,3.4-1.4,4.2-2.6c0.8-1.2,1.2-3.1,1.2-5.8v-48.5c0-1.4-0.1-2.5-0.2-3.4s-0.3-1.7-0.7-2.2
			c-0.3-0.6-0.8-1.1-1.4-1.4c-0.6-0.4-1.4-0.7-2.4-0.9h41.8l2,17.1c-0.7-3.2-1.8-5.9-3.2-7.9s-2.9-3.6-4.7-4.7
			c-1.8-1.1-3.7-1.9-5.8-2.3c-2.1-0.4-4.3-0.6-6.6-0.6H12.9V223h7.6c3.2,0,5.8-0.2,7.8-0.6c2-0.4,3.6-0.9,4.9-1.7
			c1.2-0.7,2.1-1.7,2.7-2.7c0.6-1.1,1-2.3,1.3-3.6l-1.3,19c-0.1-1.4-0.3-2.6-0.7-3.7c-0.4-1.1-1.2-2-2.2-2.8
			c-1.1-0.7-2.6-1.3-4.6-1.7s-4.6-0.6-7.9-0.6h-7.4v32.5h14.3c2.3,0,4.5-0.2,6.4-0.7c2-0.5,3.8-1.4,5.5-2.7s3.1-3.1,4.4-5.4
			c1.3-2.3,2.3-5.3,3-9L45,258.7H0.4V258.5z"/>
		<path class="st0" d="M65.4,205.7c-0.5,0.4-0.9,1.1-1.1,2s0.1,2.4,0.9,4.6l15.5,38.2l15-38c0.5-1.2,0.7-2.2,0.7-2.9
			c-0.1-0.8-0.2-1.4-0.5-1.9s-0.6-0.9-1-1.2s-0.7-0.5-0.9-0.7h8.6c-0.6,0.4-1.3,1-2.3,2c-1,0.9-1.9,2.5-2.8,4.6l-19.7,49.5
			c-0.4,1.1-1,2.3-1.7,3.6c-0.7,1.4-1.6,2.7-2.8,4c-1.1,1.3-2.5,2.5-4,3.5c-1.6,1-3.4,1.7-5.5,2l-3.3-9.3c2.4,1.2,4.6,1.9,6.8,1.9
			s4.2-0.7,6-2.1s3.2-3.5,4.3-6.4l-19.7-47.6c-0.8-1.9-1.6-3.3-2.2-4.1c-0.7-0.8-1.3-1.3-1.8-1.6h11.5V205.7z"/>
		<path class="st0" d="M133.4,205.2c3.7,0,7,0.5,9.8,1.6s5.1,2.6,6.9,4.5c1.8,1.9,3.2,4.2,4.1,6.8c0.9,2.6,1.4,5.5,1.4,8.6h-39.4
			c-0.1,0.9-0.2,1.9-0.3,2.9c-0.1,1-0.1,1.9-0.1,2.9c0,3.6,0.5,6.9,1.4,10c1,3.1,2.3,5.7,4,8c1.7,2.2,3.8,4,6.1,5.3
			c2.4,1.3,5,1.9,7.8,1.9c2.5,0,4.8-0.5,6.8-1.4s3.9-2.2,5.6-3.9c1.7-1.7,3.2-3.7,4.5-6s2.5-4.9,3.5-7.7l-0.8,13.6
			c-2.7,2.3-5.9,4-9.3,5.1c-3.5,1.1-6.9,1.6-10.2,1.6c-3.9,0-7.5-0.6-10.8-1.9c-3.3-1.3-6.2-3.1-8.6-5.4c-2.4-2.3-4.3-5.1-5.6-8.4
			c-1.3-3.3-2-6.9-2-10.9c0-3.9,0.6-7.5,1.7-10.8c1.2-3.3,2.8-6.2,5-8.6c2.2-2.4,4.8-4.3,7.9-5.7
			C125.9,205.9,129.4,205.2,133.4,205.2z M116.4,225.6h31.9c-0.1-2.7-0.4-5.3-1.1-7.6c-0.7-2.3-1.7-4.3-2.9-6.1
			c-1.2-1.7-2.8-3.1-4.6-4.1s-3.9-1.4-6.3-1.4c-2.2,0-4.3,0.5-6.2,1.4c-1.9,0.9-3.5,2.3-5,4s-2.7,3.7-3.6,6.1
			C117.5,220.2,116.8,222.8,116.4,225.6z"/>
		<path class="st0" d="M164.4,253.5l1.5-17.7c0.4,4.2,1.1,7.8,2.1,10.6s2.3,5,3.8,6.7s3.3,2.8,5.2,3.5c2,0.7,4.1,1,6.3,1
			c4.7,0,8.1-1.1,10.3-3.4c2.2-2.2,3.3-5,3.3-8.2c0-1.9-0.3-3.4-1-4.7s-1.5-2.3-2.5-3.2c-1-0.8-2-1.5-3.1-2s-2.1-0.9-3.1-1.2
			l-10-3.4c-1-0.3-2.1-0.8-3.4-1.4c-1.2-0.7-2.4-1.5-3.6-2.6c-1.1-1.1-2.1-2.4-2.9-3.9c-0.8-1.5-1.2-3.3-1.2-5.4
			c0-4.1,1.5-7.4,4.6-9.7c3.1-2.4,7.1-3.6,12.2-3.6c3.4,0,6.6,0.5,9.4,1.6c2.8,1.1,5.3,2.5,7.3,4.3l-0.7,12.6
			c-1.6-6.1-3.6-10.5-6.1-13.2s-5.9-4-10.1-4c-3.4,0-6.2,0.8-8.4,2.4c-2.2,1.6-3.4,4-3.4,7.3c0,1.5,0.3,2.7,0.9,3.7
			c0.6,1,1.4,1.8,2.3,2.5c0.9,0.7,1.9,1.2,2.9,1.6c1.1,0.4,2.1,0.8,3,1.1l9.1,3c1.2,0.4,2.5,0.9,4.1,1.6c1.5,0.7,3,1.6,4.3,2.8
			c1.4,1.2,2.5,2.6,3.5,4.3c0.9,1.7,1.4,3.8,1.4,6.3c0,2.3-0.4,4.4-1.3,6.4c-0.9,1.9-2.2,3.6-3.8,5c-1.7,1.4-3.8,2.6-6.2,3.4
			c-2.5,0.8-5.3,1.2-8.6,1.2c-3.6,0-7-0.5-10.2-1.4C169.2,256.6,166.5,255.3,164.4,253.5z"/>
		<path class="st0" d="M210.1,258.5c1-0.3,1.8-0.7,2.4-1c0.6-0.4,1.1-0.9,1.5-1.4c0.4-0.6,0.6-1.4,0.7-2.3c0.1-0.9,0.2-2.1,0.2-3.4
			v-54.9c0-1.9-0.2-3.3-0.5-4.2s-0.9-1.7-1.9-2.4l9.3-1.1V220c1.6-4.5,4.1-8.1,7.5-10.8c3.4-2.6,7.8-4,13.1-4c3,0,5.6,0.4,7.9,1.3
			c2.3,0.8,4.3,2,5.8,3.6c1.6,1.6,2.8,3.4,3.6,5.6c0.8,2.1,1.3,4.5,1.3,7.1v27.7c0,1.3,0.1,2.4,0.2,3.3c0.2,0.9,0.4,1.7,0.8,2.3
			c0.4,0.6,0.9,1.1,1.5,1.5s1.4,0.7,2.3,1h-16.6c1-0.3,1.8-0.7,2.4-1c0.6-0.4,1.1-0.9,1.5-1.4c0.4-0.6,0.6-1.4,0.7-2.3
			c0.1-0.9,0.2-2.1,0.2-3.4v-28.6c0-4.7-1.1-8.3-3.4-11c-2.2-2.6-5.5-4-9.8-4c-2.4,0-4.8,0.5-7,1.4s-4.2,2.2-6,4
			c-1.7,1.7-3.2,3.9-4.3,6.4c-1.1,2.6-1.7,5.5-1.9,8.8v23c0,1.3,0.1,2.4,0.2,3.3c0.2,0.9,0.4,1.7,0.8,2.3c0.4,0.6,0.9,1.1,1.5,1.5
			s1.4,0.7,2.3,1h-16.3V258.5z"/>
		<path class="st0" d="M295.7,229.5L306,227v-6.7c0-4.7-0.9-8.1-2.8-10.3c-1.8-2.2-4.6-3.3-8.4-3.3c-1.7,0-3.5,0.3-5.3,0.9
			c-1.8,0.6-3.5,1.7-5.1,3.2s-3.1,3.6-4.4,6.2c-1.3,2.6-2.4,5.9-3.3,9.9l-0.6-15.6c2.3-1.8,5.1-3.2,8.5-4.3s6.8-1.6,10.4-1.6
			c5.5,0,9.8,1.3,13,3.9c3.2,2.6,4.8,6.5,4.8,11.5v29.6c0,1.8,0.2,3.4,0.6,4.8s1.1,2.5,2,3.4l-9.2,0.3v-12.3
			c-0.6,1.6-1.4,3.1-2.4,4.6s-2.2,2.8-3.6,4s-3.1,2.1-5,2.8s-4.1,1-6.6,1c-2.2,0-4.3-0.2-6.3-0.7s-3.6-1.3-5-2.3
			c-1.4-1-2.5-2.3-3.3-3.8s-1.2-3.3-1.2-5.4c0-2.8,0.8-5.2,2.3-7.1c1.5-1.9,3.4-3.6,5.7-4.9c2.3-1.3,4.8-2.4,7.4-3.1
			C291,230.7,293.4,230.1,295.7,229.5z M280.5,246.5c0,3.2,0.9,5.8,2.6,7.9c1.7,2.1,4.1,3.1,7.2,3.1c1.7,0,3.5-0.4,5.3-1.1
			c1.8-0.7,3.5-1.9,5-3.3c1.5-1.5,2.7-3.3,3.7-5.5s1.6-4.7,1.7-7.6v-11.6l-10.2,2.4c-1.3,0.3-2.9,0.8-4.6,1.4
			c-1.8,0.6-3.5,1.5-5,2.7c-1.6,1.2-2.9,2.7-4,4.5C281.1,241.3,280.5,243.6,280.5,246.5z"/>
		<path class="st0" d="M348.7,205.2c2.9,0,5.7,0.5,8.2,1.4c2.6,0.9,4.9,2.3,6.9,4.1v-15.1c0-1.9-0.2-3.3-0.5-4.2s-0.9-1.7-1.9-2.4
			l9.3-1.1v61.6c0,2.7,0.2,4.7,0.7,5.9c0.4,1.3,1.1,2.4,2,3.2l-9.2,0.3v-7.2c-1.9,2.6-4.3,4.5-7,5.7c-2.7,1.2-5.5,1.7-8.3,1.7
			c-3.9,0-7.5-0.7-10.7-2c-3.2-1.3-5.9-3.1-8.2-5.4c-2.2-2.3-4-5-5.2-8.1s-1.9-6.5-1.9-10.1c0-4.2,0.6-8,1.9-11.5s3.1-6.4,5.4-8.9
			s5-4.4,8.2-5.8C341.5,205.9,344.9,205.2,348.7,205.2z M330.1,229.6c0,3.8,0.5,7.4,1.4,10.8c0.9,3.4,2.2,6.3,4,8.8s3.9,4.5,6.5,6
			s5.5,2.2,8.7,2.2c2.7,0,5.1-0.7,7.4-2c2.2-1.3,4.2-3.2,5.8-5.6v-31.7c-1.6-3.9-3.8-6.8-6.5-8.6s-5.8-2.7-9.3-2.7
			c-2.8,0-5.3,0.5-7.5,1.6s-4.1,2.6-5.6,4.6s-2.7,4.4-3.6,7.2C330.5,223,330.1,226.2,330.1,229.6z"/>
		<path class="st0" d="M408.2,205.2c4,0,7.6,0.7,10.9,2s6.1,3.2,8.5,5.6c2.4,2.4,4.2,5.2,5.5,8.5s2,6.9,2,10.8v0.1
			c0,3.9-0.7,7.5-2,10.8s-3.1,6.1-5.5,8.5s-5.2,4.3-8.5,5.6s-6.9,2-10.9,2s-7.6-0.7-10.9-2c-3.3-1.3-6.1-3.2-8.5-5.6
			c-2.4-2.4-4.2-5.2-5.5-8.5s-2-6.9-2-10.8V232c0-3.9,0.7-7.5,2-10.8s3.1-6.1,5.5-8.5s5.2-4.3,8.5-5.6S404.2,205.2,408.2,205.2z
			 M388.9,232c0,3.7,0.5,7.2,1.4,10.3s2.2,5.8,3.9,8.1c1.7,2.3,3.7,4,6.1,5.3c2.4,1.2,5,1.9,7.9,1.9s5.5-0.6,7.9-1.9
			c2.4-1.2,4.4-3,6.1-5.3s3-5,3.9-8.1s1.4-6.5,1.4-10.3c0-3.7-0.5-7.2-1.4-10.3s-2.2-5.8-3.9-8c-1.7-2.2-3.7-4-6.1-5.2
			s-5-1.9-7.9-1.9s-5.5,0.6-7.9,1.9c-2.4,1.2-4.4,3-6.1,5.2s-3,4.9-3.9,8S388.9,228.3,388.9,232z"/>
		<path class="st0" d="M452.6,205.7c-0.6,0.4-1,1.1-1.4,1.9c-0.3,0.8-0.2,2.1,0.5,3.9l13.1,36.5l13.3-42.3h0.7l17,42.9l10.2-31.3
			c0.8-2.6,1.3-4.5,1.4-6c0.1-1.4,0-2.5-0.2-3.3c-0.3-0.8-0.6-1.3-1.1-1.5c-0.4-0.2-0.8-0.5-1.1-0.7h9.2c-0.9,0.5-1.9,1.3-2.8,2.3
			c-0.9,1-1.8,2.9-2.7,5.7l-14.6,44.9H493l-16.7-42.3L463,258.5h-1.1l-16.2-44.6c-1.1-2.8-2-4.8-2.7-6s-1.4-1.9-2.1-2.2H452.6z"/>
		<path class="st0" d="M549.7,258.5c2-0.6,3.3-1.4,4-2.5s1-3,1-5.7v-48.5c0-1.4-0.1-2.5-0.2-3.4c-0.2-0.9-0.4-1.7-0.8-2.3
			c-0.4-0.6-0.9-1.1-1.5-1.5c-0.7-0.4-1.5-0.7-2.5-1h24c2.8,0,5.7,0.3,8.6,0.9c2.9,0.6,5.6,1.6,8,3s4.4,3.2,5.9,5.5s2.3,5.1,2.3,8.6
			c0,3.4-0.8,6.3-2.3,8.7s-3.5,4.4-5.9,6s-5.1,2.8-8.1,3.6s-5.9,1.2-8.7,1.2h-11.6v19.3c0,2.7,0.4,4.6,1.1,5.7c0.7,1.1,2,1.9,4,2.6
			h-17.3V258.5z M561.9,195v34.4h9.8c2.5,0,4.9-0.3,7.2-1s4.3-1.7,6.1-3.1c1.8-1.4,3.2-3.3,4.3-5.5s1.6-4.9,1.6-8
			c0-5.5-1.7-9.7-5-12.5c-3.3-2.9-8.1-4.3-14.2-4.3L561.9,195L561.9,195z"/>
		<path class="st0" d="M629.5,229.5l10.4-2.5v-6.7c0-4.7-0.9-8.1-2.8-10.3c-1.8-2.2-4.6-3.3-8.4-3.3c-1.7,0-3.5,0.3-5.3,0.9
			c-1.8,0.6-3.5,1.7-5.1,3.2s-3.1,3.6-4.4,6.2c-1.3,2.6-2.4,5.9-3.3,9.9l-0.6-15.6c2.3-1.8,5.1-3.2,8.5-4.3s6.8-1.6,10.4-1.6
			c5.5,0,9.8,1.3,13,3.9c3.2,2.6,4.8,6.5,4.8,11.5v29.6c0,1.8,0.2,3.4,0.6,4.8c0.4,1.4,1.1,2.5,2,3.4l-9.2,0.3v-12.3
			c-0.6,1.6-1.4,3.1-2.4,4.6s-2.2,2.8-3.6,4c-1.4,1.2-3.1,2.1-5,2.8s-4.1,1-6.6,1c-2.2,0-4.3-0.2-6.3-0.7s-3.6-1.3-5-2.3
			c-1.4-1-2.5-2.3-3.3-3.8s-1.2-3.3-1.2-5.4c0-2.8,0.8-5.2,2.3-7.1c1.5-1.9,3.4-3.6,5.7-4.9c2.3-1.3,4.8-2.4,7.4-3.1
			C624.8,230.7,627.2,230.1,629.5,229.5z M614.3,246.5c0,3.2,0.9,5.8,2.6,7.9c1.7,2.1,4.1,3.1,7.2,3.1c1.7,0,3.5-0.4,5.3-1.1
			c1.8-0.7,3.5-1.9,5-3.3c1.5-1.5,2.7-3.3,3.7-5.5s1.6-4.7,1.7-7.6v-11.6l-10.2,2.4c-1.3,0.3-2.9,0.8-4.6,1.4
			c-1.8,0.6-3.5,1.5-5,2.7c-1.6,1.2-2.9,2.7-4,4.5C614.9,241.3,614.3,243.6,614.3,246.5z"/>
		<path class="st0" d="M656.8,258.5c1-0.3,1.8-0.7,2.4-1c0.6-0.4,1.1-0.9,1.5-1.4c0.4-0.6,0.6-1.4,0.7-2.3c0.1-0.9,0.2-2.1,0.2-3.4
			v-54.9c0-1.9-0.2-3.3-0.5-4.2s-0.9-1.7-1.9-2.4l9.3-1.1v62.6c0,1.3,0.1,2.4,0.2,3.3c0.2,0.9,0.4,1.7,0.8,2.3
			c0.4,0.6,0.9,1.1,1.5,1.5s1.4,0.7,2.3,1H656.8z"/>
		<path class="st0" d="M705.7,205.2c3.7,0,7,0.5,9.8,1.6s5.1,2.6,6.9,4.5c1.8,1.9,3.2,4.2,4.1,6.8c0.9,2.6,1.4,5.5,1.4,8.6h-39.4
			c-0.1,0.9-0.2,1.9-0.3,2.9s-0.1,1.9-0.1,2.9c0,3.6,0.5,6.9,1.4,10c1,3.1,2.3,5.7,4,8c1.7,2.2,3.8,4,6.1,5.3c2.4,1.3,5,1.9,7.8,1.9
			c2.5,0,4.8-0.5,6.8-1.4s3.9-2.2,5.6-3.9c1.7-1.7,3.2-3.7,4.5-6s2.5-4.9,3.5-7.7l-0.8,13.6c-2.7,2.3-5.9,4-9.3,5.1
			c-3.5,1.1-6.9,1.6-10.2,1.6c-3.9,0-7.5-0.6-10.8-1.9c-3.3-1.3-6.2-3.1-8.6-5.4c-2.4-2.3-4.3-5.1-5.6-8.4c-1.3-3.3-2-6.9-2-10.9
			c0-3.9,0.6-7.5,1.7-10.8c1.2-3.3,2.8-6.2,5-8.6c2.2-2.4,4.8-4.3,7.9-5.7C698.3,205.9,701.8,205.2,705.7,205.2z M688.7,225.6h31.9
			c-0.1-2.7-0.4-5.3-1.1-7.6c-0.7-2.3-1.7-4.3-2.9-6.1c-1.2-1.7-2.8-3.1-4.6-4.1s-3.9-1.4-6.3-1.4c-2.2,0-4.3,0.5-6.2,1.4
			s-3.5,2.3-5,4s-2.7,3.7-3.6,6.1C689.9,220.2,689.2,222.8,688.7,225.6z"/>
		<path class="st0" d="M745.1,205.7l6.5-13v13h15.3v1h-15.3v40.2c0,2.1,0.1,3.8,0.4,5.1c0.3,1.4,0.7,2.5,1.2,3.3s1.1,1.4,1.9,1.7
			c0.8,0.3,1.7,0.5,2.7,0.5c1.8,0,3.3-0.5,4.6-1.5c1.2-1,2.4-2.5,3.5-4.3l1.2,0.8c-1.2,2-2.6,3.6-4.1,4.7c-1.5,1.2-3.6,1.7-6.4,1.7
			c-4.4,0-7.4-1.3-9.2-3.8c-1.8-2.5-2.7-6.1-2.7-10.7v-37.7h-9.2v-1L745.1,205.7L745.1,205.7z"/>
		<path class="st0" d="M782,205.7l6.5-13v13h15.3v1h-15.3v40.2c0,2.1,0.1,3.8,0.4,5.1c0.3,1.4,0.7,2.5,1.2,3.3s1.1,1.4,1.9,1.7
			c0.8,0.3,1.7,0.5,2.7,0.5c1.8,0,3.3-0.5,4.6-1.5c1.2-1,2.4-2.5,3.5-4.3l1.2,0.8c-1.2,2-2.6,3.6-4.1,4.7c-1.5,1.2-3.6,1.7-6.4,1.7
			c-4.4,0-7.4-1.3-9.2-3.8c-1.8-2.5-2.7-6.1-2.7-10.7v-37.7h-9.2v-1L782,205.7L782,205.7z"/>
		<path class="st0" d="M835.5,205.2c3.7,0,7,0.5,9.8,1.6s5.1,2.6,6.9,4.5c1.8,1.9,3.2,4.2,4.1,6.8c0.9,2.6,1.4,5.5,1.4,8.6h-39.4
			c-0.1,0.9-0.2,1.9-0.3,2.9s-0.1,1.9-0.1,2.9c0,3.6,0.5,6.9,1.4,10c1,3.1,2.3,5.7,4,8c1.7,2.2,3.8,4,6.1,5.3c2.4,1.3,5,1.9,7.8,1.9
			c2.5,0,4.8-0.5,6.8-1.4s3.9-2.2,5.6-3.9c1.7-1.7,3.2-3.7,4.5-6s2.5-4.9,3.5-7.7l-0.8,13.6c-2.7,2.3-5.9,4-9.3,5.1
			c-3.5,1.1-6.9,1.6-10.2,1.6c-3.9,0-7.5-0.6-10.8-1.9c-3.3-1.3-6.2-3.1-8.6-5.4c-2.4-2.3-4.3-5.1-5.6-8.4c-1.3-3.3-2-6.9-2-10.9
			c0-3.9,0.6-7.5,1.7-10.8c1.2-3.3,2.8-6.2,5-8.6c2.2-2.4,4.8-4.3,7.9-5.7C828.1,205.9,831.6,205.2,835.5,205.2z M818.5,225.6h31.9
			c-0.1-2.7-0.4-5.3-1.1-7.6c-0.7-2.3-1.7-4.3-2.9-6.1c-1.2-1.7-2.8-3.1-4.6-4.1s-3.9-1.4-6.3-1.4c-2.2,0-4.3,0.5-6.2,1.4
			s-3.5,2.3-5,4s-2.7,3.7-3.6,6.1C819.6,220.2,818.9,222.8,818.5,225.6z"/>
	</g>
</g>
<g>
	<path class="st1" d="M368.5,29.4c-1.2-1.1-2.2-2.4-3.1-3.9s-1.5-3.2-2-5s-0.7-3.7-0.7-5.7s0.2-3.8,0.7-5.7c0.5-1.8,1.1-3.5,2-5
		s1.9-2.8,3.1-3.9l2.1,1.9c-1.5,1.4-2.6,3.1-3.5,5.3c-0.8,2.2-1.2,4.6-1.2,7.4c0,2.7,0.4,5.2,1.2,7.4c0.8,2.2,2,4,3.5,5.3
		L368.5,29.4z"/>
	<path class="st1" d="M391,27V3.4h3.9V27H391z"/>
	<path class="st1" d="M399.4,6.9V3.4h19.3v3.5H399.4z M407.1,27V4.1h3.9V27H407.1z"/>
	<path class="st1" d="M423.2,27V3.4h3.9V27H423.2z M425.9,6.9V3.4H439v3.5H425.9z M425.9,16.6v-3.4H438v3.4H425.9z M425.9,27v-3.5
		h13.2V27H425.9z"/>
	<path class="st1" d="M444.3,27V3.4h2.7l9.8,16.2H455l9.8-16.2h2.7V27h-3.9V10.2l0.9,0.2l-7.3,12h-2.7l-7.3-12l0.9-0.2V27H444.3z"/>
	<path class="st1" d="M490.1,29.4l-2.1-1.9c1.5-1.4,2.6-3.1,3.5-5.3c0.8-2.2,1.2-4.6,1.2-7.4c0-2.7-0.4-5.2-1.2-7.4
		c-0.8-2.2-2-3.9-3.5-5.3l2.1-1.9c1.2,1.1,2.2,2.3,3.1,3.9c0.9,1.5,1.5,3.2,2,5s0.7,3.7,0.7,5.7s-0.2,3.8-0.7,5.7
		c-0.5,1.8-1.1,3.5-2,5C492.3,27.1,491.3,28.3,490.1,29.4z"/>
</g>
</svg>
