<?xml version="1.0" encoding="utf-8"?>
<!-- Generator: Adobe Illustrator 25.4.1, SVG Export Plug-In . SVG Version: 6.00 Build 0)  -->
<svg version="1.1" id="レイヤー_1" xmlns="http://www.w3.org/2000/svg" xmlns:xlink="http://www.w3.org/1999/xlink" x="0px"
	 y="0px" viewBox="0 0 444 40" style="enable-background:new 0 0 444 40;" xml:space="preserve">
<style type="text/css">
	.st0{fill:#F08984;stroke:#F08984;stroke-width:0.25;stroke-miterlimit:10;}
</style>
<g>
	<g>
		<g>
			<path class="st0" d="M16.78,4.37c0.66,0,1.45,0.05,2.35,0.15c0.91,0.1,1.88,0.27,2.9,0.52c1.02,0.25,2.06,0.57,3.12,0.97
				c1.06,0.4,2.06,0.89,3.02,1.49l0.79,11.45c-0.93-4.69-2.5-8.17-4.73-10.44c-2.23-2.26-4.82-3.4-7.76-3.4
				c-1.65,0-3.21,0.35-4.66,1.04C10.37,6.85,9.11,7.9,8.03,9.3c-1.07,1.41-1.92,3.16-2.53,5.25c-0.61,2.1-0.92,4.54-0.92,7.31
				c0,2.84,0.32,5.32,0.97,7.44c0.64,2.12,1.53,3.87,2.65,5.25c1.12,1.39,2.45,2.42,3.97,3.1c1.52,0.68,3.16,1.02,4.91,1.02
				c1.09,0,2.19-0.14,3.3-0.42c1.11-0.28,2.18-0.76,3.22-1.44c1.04-0.68,2.02-1.57,2.95-2.68c0.92-1.11,1.73-2.5,2.43-4.19v5.45
				c-1.36,1.12-3.07,2.07-5.13,2.85c-2.07,0.78-4.29,1.16-6.67,1.16c-2.38,0-4.59-0.45-6.64-1.34c-2.05-0.89-3.83-2.12-5.33-3.69
				c-1.5-1.57-2.69-3.43-3.54-5.58c-0.86-2.15-1.29-4.48-1.29-6.99c0-2.48,0.44-4.78,1.31-6.92c0.88-2.13,2.07-3.97,3.57-5.53
				c1.5-1.55,3.25-2.78,5.23-3.67C12.47,4.82,14.57,4.37,16.78,4.37z"/>
			<path class="st0" d="M33.04,39.12c0.53-0.17,0.96-0.35,1.29-0.55c0.33-0.2,0.59-0.45,0.79-0.77c0.2-0.31,0.33-0.72,0.4-1.21
				c0.07-0.5,0.1-1.09,0.1-1.78V16.52c0-0.69-0.02-1.3-0.07-1.81c-0.05-0.51-0.12-0.97-0.22-1.36c-0.1-0.4-0.24-0.76-0.42-1.09
				c-0.18-0.33-0.41-0.66-0.67-0.99l5.01-0.45v6.64c0.4-0.93,0.84-1.78,1.34-2.58s1.07-1.49,1.74-2.08
				c0.66-0.59,1.43-1.06,2.31-1.39c0.88-0.33,1.88-0.5,3-0.5c1.06,0,2,0.12,2.83,0.35l-0.05,4.76c-0.3-0.36-0.65-0.74-1.07-1.14
				c-0.41-0.4-0.85-0.76-1.31-1.09c-0.46-0.33-0.94-0.6-1.44-0.82c-0.5-0.21-1.01-0.32-1.54-0.32c-0.66,0-1.27,0.17-1.83,0.5
				c-0.56,0.33-1.08,0.77-1.56,1.31c-0.48,0.55-0.92,1.19-1.31,1.93s-0.74,1.53-1.04,2.35v16.06c0,0.69,0.04,1.28,0.12,1.76
				c0.08,0.48,0.22,0.88,0.42,1.21c0.2,0.33,0.46,0.59,0.79,0.79c0.33,0.2,0.74,0.38,1.24,0.55H33.04z"/>
			<path class="st0" d="M66.11,10.87c1.98,0,3.71,0.28,5.18,0.84c1.47,0.56,2.68,1.36,3.64,2.38c0.96,1.02,1.68,2.23,2.16,3.62
				c0.48,1.39,0.74,2.91,0.77,4.56H56.99c-0.07,0.5-0.12,1-0.15,1.51c-0.03,0.51-0.05,1.03-0.05,1.56c0,1.88,0.26,3.64,0.77,5.28
				c0.51,1.64,1.22,3.05,2.13,4.24c0.91,1.19,1.99,2.12,3.25,2.8c1.26,0.68,2.63,1.02,4.11,1.02c1.32,0,2.52-0.24,3.59-0.72
				c1.07-0.48,2.06-1.16,2.95-2.06s1.69-1.96,2.4-3.2c0.71-1.24,1.33-2.6,1.86-4.09l-0.45,7.19c-1.45,1.22-3.11,2.12-4.96,2.7
				c-1.85,0.58-3.65,0.87-5.4,0.87c-2.08,0-4-0.34-5.75-1.02c-1.75-0.68-3.26-1.63-4.54-2.85c-1.27-1.22-2.26-2.71-2.95-4.46
				c-0.69-1.75-1.04-3.68-1.04-5.8c0-2.08,0.31-4,0.92-5.75c0.61-1.75,1.49-3.27,2.65-4.56c1.16-1.29,2.55-2.29,4.19-3
				C62.17,11.22,64.03,10.87,66.11,10.87z M57.09,21.67h16.9c-0.03-1.45-0.23-2.79-0.59-4.02c-0.36-1.22-0.88-2.3-1.54-3.22
				c-0.66-0.92-1.48-1.64-2.45-2.16c-0.98-0.51-2.09-0.77-3.35-0.77c-1.19,0-2.28,0.25-3.27,0.74c-0.99,0.5-1.88,1.2-2.65,2.11
				c-0.78,0.91-1.42,1.98-1.93,3.22C57.69,18.82,57.32,20.19,57.09,21.67z"/>
			<path class="st0" d="M93.52,23.75l5.5-1.34v-3.57c0-2.48-0.49-4.3-1.46-5.48c-0.98-1.17-2.45-1.76-4.44-1.76
				c-0.93,0-1.87,0.16-2.83,0.47c-0.96,0.31-1.86,0.88-2.7,1.69c-0.84,0.81-1.62,1.91-2.33,3.3c-0.71,1.39-1.3,3.14-1.76,5.25
				l-0.3-8.28c1.22-0.96,2.73-1.72,4.51-2.28c1.78-0.56,3.62-0.84,5.5-0.84c2.91,0,5.21,0.69,6.92,2.08c1.7,1.39,2.55,3.42,2.55,6.1
				v15.71c0,0.96,0.11,1.8,0.32,2.53c0.21,0.73,0.57,1.32,1.07,1.78l-4.86,0.15v-6.54c-0.33,0.83-0.75,1.64-1.26,2.43
				c-0.51,0.79-1.14,1.5-1.88,2.13c-0.74,0.63-1.63,1.12-2.65,1.49c-1.02,0.36-2.2,0.55-3.52,0.55c-1.19,0-2.31-0.13-3.35-0.4
				s-1.93-0.67-2.68-1.21c-0.74-0.55-1.33-1.22-1.76-2.03c-0.43-0.81-0.64-1.76-0.64-2.85c0-1.49,0.4-2.74,1.21-3.77
				c0.81-1.02,1.83-1.88,3.05-2.58c1.22-0.69,2.53-1.25,3.92-1.66C91.04,24.41,92.33,24.05,93.52,23.75z M85.49,32.78
				c0,1.69,0.45,3.07,1.36,4.16c0.91,1.09,2.19,1.64,3.84,1.64c0.92,0,1.87-0.2,2.83-0.59c0.96-0.4,1.83-0.98,2.63-1.76
				c0.79-0.78,1.45-1.74,1.98-2.9c0.53-1.16,0.83-2.49,0.89-4.02v-6.15l-5.4,1.29c-0.69,0.17-1.51,0.41-2.45,0.74
				c-0.94,0.33-1.83,0.8-2.68,1.41c-0.84,0.61-1.55,1.41-2.13,2.4C85.78,30,85.49,31.26,85.49,32.78z"/>
			<path class="st0" d="M111.76,11.11l3.42-6.89v6.89h8.13v0.55h-8.13v21.32c0,1.09,0.07,2,0.22,2.73c0.15,0.73,0.35,1.31,0.62,1.74
				c0.26,0.43,0.6,0.73,1.02,0.89c0.41,0.17,0.88,0.25,1.41,0.25c0.96,0,1.77-0.27,2.43-0.82c0.66-0.55,1.27-1.31,1.83-2.31
				l0.64,0.45c-0.66,1.06-1.38,1.89-2.16,2.5c-0.78,0.61-1.91,0.92-3.4,0.92c-2.31,0-3.94-0.67-4.88-2.01
				c-0.94-1.34-1.41-3.23-1.41-5.68V11.66h-4.86v-0.55H111.76z"/>
			<path class="st0" d="M139.13,10.87c1.98,0,3.71,0.28,5.18,0.84c1.47,0.56,2.68,1.36,3.64,2.38c0.96,1.02,1.68,2.23,2.16,3.62
				c0.48,1.39,0.74,2.91,0.77,4.56h-20.87c-0.07,0.5-0.12,1-0.15,1.51c-0.03,0.51-0.05,1.03-0.05,1.56c0,1.88,0.26,3.64,0.77,5.28
				c0.51,1.64,1.22,3.05,2.13,4.24c0.91,1.19,1.99,2.12,3.25,2.8c1.26,0.68,2.63,1.02,4.11,1.02c1.32,0,2.52-0.24,3.59-0.72
				c1.07-0.48,2.06-1.16,2.95-2.06c0.89-0.89,1.69-1.96,2.4-3.2c0.71-1.24,1.33-2.6,1.86-4.09l-0.45,7.19
				c-1.45,1.22-3.11,2.12-4.96,2.7c-1.85,0.58-3.65,0.87-5.4,0.87c-2.08,0-4-0.34-5.75-1.02c-1.75-0.68-3.26-1.63-4.54-2.85
				c-1.27-1.22-2.26-2.71-2.95-4.46c-0.69-1.75-1.04-3.68-1.04-5.8c0-2.08,0.31-4,0.92-5.75c0.61-1.75,1.5-3.27,2.65-4.56
				c1.16-1.29,2.55-2.29,4.19-3C135.19,11.22,137.05,10.87,139.13,10.87z M130.11,21.67h16.9c-0.03-1.45-0.23-2.79-0.59-4.02
				c-0.36-1.22-0.88-2.3-1.54-3.22c-0.66-0.92-1.48-1.64-2.45-2.16c-0.98-0.51-2.09-0.77-3.35-0.77c-1.19,0-2.28,0.25-3.27,0.74
				c-0.99,0.5-1.88,1.2-2.65,2.11c-0.78,0.91-1.42,1.98-1.93,3.22C130.71,18.82,130.34,20.19,130.11,21.67z"/>
			<path class="st0" d="M167.68,11.66v-0.55h5.06V8.73c0-1.55,0.23-2.88,0.69-3.99c0.46-1.11,1.1-2.02,1.91-2.75
				c0.81-0.73,1.77-1.26,2.88-1.59c1.11-0.33,2.31-0.5,3.59-0.5c1.39,0,2.59,0.15,3.59,0.45c1.01,0.3,1.88,0.68,2.6,1.14l-0.2,6.05
				c-0.46-2.28-1.14-4.01-2.03-5.18c-0.89-1.17-2.21-1.76-3.97-1.76c-1.59,0-2.88,0.52-3.89,1.56c-1.01,1.04-1.51,2.87-1.51,5.48
				v3.47h10.21v0.55h-10.21v23.15c0,0.69,0.04,1.28,0.12,1.76c0.08,0.48,0.22,0.88,0.42,1.21c0.2,0.33,0.46,0.59,0.79,0.79
				c0.33,0.2,0.74,0.38,1.24,0.55h-8.82c0.53-0.17,0.96-0.35,1.29-0.55c0.33-0.2,0.59-0.45,0.79-0.77c0.2-0.31,0.33-0.72,0.4-1.21
				c0.07-0.5,0.1-1.09,0.1-1.78V11.66H167.68z"/>
			<path class="st0" d="M202.88,10.87c2.11,0,4.04,0.35,5.78,1.04s3.23,1.68,4.49,2.95c1.26,1.27,2.23,2.78,2.92,4.51
				s1.04,3.64,1.04,5.73v0.05c0,2.08-0.35,3.99-1.04,5.73c-0.69,1.74-1.67,3.24-2.92,4.51c-1.26,1.27-2.75,2.26-4.49,2.95
				s-3.66,1.04-5.78,1.04c-2.12,0-4.04-0.35-5.78-1.04c-1.74-0.69-3.23-1.68-4.49-2.95c-1.26-1.27-2.23-2.78-2.92-4.51
				c-0.69-1.74-1.04-3.64-1.04-5.73v-0.05c0-2.08,0.35-3.99,1.04-5.73c0.69-1.74,1.67-3.24,2.92-4.51c1.26-1.27,2.75-2.26,4.49-2.95
				C198.84,11.21,200.76,10.87,202.88,10.87z M192.67,25.09c0,1.98,0.25,3.8,0.74,5.45c0.5,1.65,1.19,3.08,2.08,4.29
				c0.89,1.21,1.97,2.14,3.22,2.8c1.26,0.66,2.64,0.99,4.16,0.99c1.52,0,2.91-0.33,4.16-0.99c1.26-0.66,2.33-1.59,3.22-2.8
				c0.89-1.21,1.59-2.64,2.08-4.29c0.5-1.65,0.74-3.47,0.74-5.45c0-1.98-0.25-3.8-0.74-5.45c-0.5-1.65-1.19-3.07-2.08-4.26
				c-0.89-1.19-1.97-2.11-3.22-2.78c-1.26-0.66-2.64-0.99-4.16-0.99c-1.52,0-2.91,0.33-4.16,0.99c-1.26,0.66-2.33,1.59-3.22,2.78
				c-0.89,1.19-1.59,2.61-2.08,4.26C192.91,21.29,192.67,23.11,192.67,25.09z"/>
			<path class="st0" d="M220.03,39.12c0.53-0.17,0.96-0.35,1.29-0.55c0.33-0.2,0.59-0.45,0.79-0.77c0.2-0.31,0.33-0.72,0.4-1.21
				c0.07-0.5,0.1-1.09,0.1-1.78V16.52c0-0.69-0.02-1.3-0.07-1.81c-0.05-0.51-0.12-0.97-0.22-1.36c-0.1-0.4-0.24-0.76-0.42-1.09
				c-0.18-0.33-0.41-0.66-0.67-0.99l5.01-0.45v6.64c0.4-0.93,0.84-1.78,1.34-2.58s1.07-1.49,1.74-2.08
				c0.66-0.59,1.43-1.06,2.31-1.39c0.88-0.33,1.88-0.5,3-0.5c1.06,0,2,0.12,2.83,0.35l-0.05,4.76c-0.3-0.36-0.65-0.74-1.07-1.14
				c-0.41-0.4-0.85-0.76-1.31-1.09c-0.46-0.33-0.94-0.6-1.44-0.82c-0.5-0.21-1.01-0.32-1.54-0.32c-0.66,0-1.27,0.17-1.83,0.5
				c-0.56,0.33-1.08,0.77-1.56,1.31c-0.48,0.55-0.92,1.19-1.31,1.93s-0.74,1.53-1.04,2.35v16.06c0,0.69,0.04,1.28,0.12,1.76
				c0.08,0.48,0.22,0.88,0.42,1.21c0.2,0.33,0.46,0.59,0.79,0.79c0.33,0.2,0.74,0.38,1.24,0.55H220.03z"/>
		</g>
	</g>
	<g>
		<g>
			<path class="st0" d="M258.94,4.97c-0.13,0.1-0.26,0.25-0.37,0.45c-0.12,0.2-0.19,0.44-0.22,0.72c-0.03,0.28,0.02,0.61,0.15,0.99
				c0.13,0.38,0.36,0.83,0.69,1.36l9.77,14.92l8.53-12.74c0.76-1.16,1.26-2.07,1.51-2.75c0.25-0.68,0.37-1.21,0.37-1.61
				c0-0.4-0.08-0.69-0.25-0.87c-0.17-0.18-0.3-0.34-0.4-0.47h4.61c-0.43,0.13-0.97,0.53-1.61,1.19c-0.64,0.66-1.4,1.62-2.26,2.88
				L269.4,24v11.05c0,1.42,0.19,2.42,0.57,3c0.38,0.58,1.08,1.03,2.11,1.36h-9.12c1.06-0.3,1.77-0.74,2.13-1.34
				c0.36-0.59,0.55-1.6,0.55-3.02V24.45l-9.52-14.48c-1.09-1.69-1.97-2.88-2.63-3.59c-0.66-0.71-1.22-1.18-1.69-1.41H258.94z"/>
			<path class="st0" d="M295.32,11.16c2.11,0,4.04,0.35,5.78,1.04c1.73,0.69,3.23,1.68,4.49,2.95c1.26,1.27,2.23,2.78,2.92,4.51
				c0.69,1.74,1.04,3.64,1.04,5.73v0.05c0,2.08-0.35,3.99-1.04,5.73c-0.69,1.74-1.67,3.24-2.92,4.51c-1.26,1.27-2.75,2.26-4.49,2.95
				c-1.74,0.69-3.66,1.04-5.78,1.04c-2.12,0-4.04-0.35-5.78-1.04s-3.23-1.68-4.49-2.95c-1.26-1.27-2.23-2.78-2.92-4.51
				c-0.69-1.74-1.04-3.64-1.04-5.73v-0.05c0-2.08,0.35-3.99,1.04-5.73c0.69-1.74,1.67-3.24,2.92-4.51c1.26-1.27,2.75-2.26,4.49-2.95
				S293.21,11.16,295.32,11.16z M285.11,25.39c0,1.98,0.25,3.8,0.74,5.45c0.5,1.65,1.19,3.08,2.08,4.29
				c0.89,1.21,1.97,2.14,3.22,2.8c1.26,0.66,2.64,0.99,4.16,0.99c1.52,0,2.91-0.33,4.16-0.99c1.26-0.66,2.33-1.59,3.22-2.8
				c0.89-1.21,1.59-2.64,2.08-4.29c0.5-1.65,0.74-3.47,0.74-5.45c0-1.98-0.25-3.8-0.74-5.45c-0.5-1.65-1.19-3.07-2.08-4.26
				c-0.89-1.19-1.97-2.11-3.22-2.78c-1.26-0.66-2.64-0.99-4.16-0.99c-1.52,0-2.91,0.33-4.16,0.99c-1.26,0.66-2.33,1.59-3.22,2.78
				c-0.89,1.19-1.59,2.61-2.08,4.26C285.36,21.59,285.11,23.41,285.11,25.39z"/>
			<path class="st0" d="M312.72,11.56l5.06-0.45v20.13c0,1.42,0.15,2.62,0.45,3.59c0.3,0.98,0.72,1.77,1.26,2.38
				c0.55,0.61,1.21,1.05,1.98,1.31c0.78,0.26,1.63,0.4,2.55,0.4c1.49,0,2.78-0.34,3.87-1.02c1.09-0.68,2-1.54,2.73-2.6
				c0.73-1.06,1.29-2.23,1.69-3.52c0.4-1.29,0.61-2.54,0.64-3.77v-11.2c0-0.69-0.02-1.3-0.07-1.81c-0.05-0.51-0.12-0.97-0.22-1.36
				c-0.1-0.4-0.24-0.76-0.42-1.09c-0.18-0.33-0.41-0.66-0.67-0.99l5.06-0.45v23.4c0,1.45,0.12,2.52,0.35,3.2
				c0.23,0.68,0.58,1.25,1.04,1.71l-4.86,0.15v-7.49c-0.5,1.19-1.03,2.25-1.61,3.17c-0.58,0.93-1.25,1.72-2.01,2.38
				c-0.76,0.66-1.64,1.17-2.65,1.51c-1.01,0.35-2.17,0.52-3.5,0.52c-2.84,0-5.1-0.71-6.77-2.13c-1.67-1.42-2.5-3.6-2.5-6.54V16.81
				c0-0.69-0.02-1.3-0.07-1.81c-0.05-0.51-0.12-0.97-0.22-1.36c-0.1-0.4-0.24-0.76-0.42-1.09
				C313.21,12.22,312.99,11.89,312.72,11.56z"/>
			<path class="st0" d="M341.18,39.42c0.53-0.17,0.96-0.35,1.29-0.55c0.33-0.2,0.59-0.45,0.79-0.77c0.2-0.31,0.33-0.72,0.4-1.21
				c0.07-0.5,0.1-1.09,0.1-1.78V16.81c0-0.69-0.02-1.3-0.07-1.81c-0.05-0.51-0.12-0.97-0.22-1.36c-0.1-0.4-0.24-0.76-0.42-1.09
				c-0.18-0.33-0.41-0.66-0.67-0.99l5.01-0.45v6.64c0.4-0.93,0.84-1.78,1.34-2.58c0.5-0.79,1.07-1.49,1.74-2.08
				c0.66-0.59,1.43-1.06,2.31-1.39c0.88-0.33,1.88-0.5,3-0.5c1.06,0,2,0.12,2.83,0.35l-0.05,4.76c-0.3-0.36-0.65-0.74-1.07-1.14
				c-0.41-0.4-0.85-0.76-1.31-1.09c-0.46-0.33-0.94-0.6-1.44-0.82c-0.5-0.21-1.01-0.32-1.54-0.32c-0.66,0-1.27,0.17-1.83,0.5
				c-0.56,0.33-1.08,0.77-1.56,1.31c-0.48,0.55-0.92,1.19-1.31,1.93c-0.4,0.74-0.74,1.53-1.04,2.35v16.06
				c0,0.69,0.04,1.28,0.12,1.76c0.08,0.48,0.22,0.88,0.42,1.21c0.2,0.33,0.46,0.59,0.79,0.79c0.33,0.2,0.74,0.38,1.24,0.55H341.18z"
				/>
			<path class="st0" d="M361.05,36.79l0.79-9.37c0.2,2.25,0.57,4.11,1.12,5.6c0.55,1.49,1.22,2.67,2.03,3.54
				c0.81,0.88,1.74,1.5,2.78,1.86c1.04,0.36,2.16,0.55,3.35,0.55c2.48,0,4.3-0.59,5.48-1.78c1.17-1.19,1.76-2.64,1.76-4.36
				c0-0.99-0.18-1.83-0.55-2.5c-0.36-0.68-0.8-1.24-1.31-1.69c-0.51-0.45-1.07-0.79-1.66-1.04c-0.59-0.25-1.14-0.45-1.64-0.62
				l-5.3-1.78c-0.53-0.16-1.12-0.42-1.78-0.77c-0.66-0.35-1.29-0.8-1.88-1.36c-0.59-0.56-1.1-1.25-1.51-2.06
				c-0.41-0.81-0.62-1.76-0.62-2.85c0-2.18,0.81-3.9,2.43-5.16c1.62-1.26,3.77-1.88,6.44-1.88c1.82,0,3.48,0.28,4.98,0.84
				c1.5,0.56,2.8,1.32,3.89,2.28l-0.35,6.69c-0.83-3.24-1.91-5.57-3.25-6.99c-1.34-1.42-3.13-2.13-5.38-2.13
				c-1.78,0-3.27,0.42-4.46,1.26c-1.19,0.84-1.78,2.14-1.78,3.89c0,0.79,0.17,1.45,0.5,1.98c0.33,0.53,0.74,0.97,1.21,1.31
				c0.48,0.35,1,0.63,1.56,0.84c0.56,0.22,1.09,0.41,1.59,0.57l4.81,1.59c0.63,0.2,1.35,0.48,2.16,0.84
				c0.81,0.36,1.58,0.85,2.31,1.46c0.73,0.61,1.34,1.37,1.83,2.28c0.5,0.91,0.74,2.02,0.74,3.35c0,1.22-0.23,2.35-0.69,3.37
				c-0.46,1.02-1.14,1.92-2.03,2.68c-0.89,0.76-1.99,1.36-3.3,1.78c-1.31,0.43-2.82,0.64-4.54,0.64c-1.88,0-3.69-0.25-5.43-0.74
				C363.61,38.43,362.18,37.72,361.05,36.79z"/>
			<path class="st0" d="M397.84,11.16c1.98,0,3.71,0.28,5.18,0.84c1.47,0.56,2.68,1.36,3.64,2.38c0.96,1.02,1.68,2.23,2.16,3.62
				c0.48,1.39,0.73,2.91,0.77,4.56h-20.87c-0.07,0.5-0.12,1-0.15,1.51c-0.03,0.51-0.05,1.03-0.05,1.56c0,1.88,0.26,3.64,0.77,5.28
				c0.51,1.64,1.22,3.05,2.13,4.24c0.91,1.19,1.99,2.12,3.25,2.8c1.26,0.68,2.63,1.02,4.11,1.02c1.32,0,2.52-0.24,3.59-0.72
				c1.07-0.48,2.06-1.16,2.95-2.06c0.89-0.89,1.69-1.96,2.4-3.2c0.71-1.24,1.33-2.6,1.86-4.09l-0.45,7.19
				c-1.45,1.22-3.11,2.12-4.96,2.7c-1.85,0.58-3.65,0.87-5.4,0.87c-2.08,0-4-0.34-5.75-1.02c-1.75-0.68-3.26-1.63-4.54-2.85
				c-1.27-1.22-2.26-2.71-2.95-4.46c-0.69-1.75-1.04-3.68-1.04-5.8c0-2.08,0.31-4,0.92-5.75c0.61-1.75,1.49-3.27,2.65-4.56
				c1.16-1.29,2.55-2.29,4.19-3C393.9,11.52,395.76,11.16,397.84,11.16z M388.82,21.97h16.9c-0.03-1.45-0.23-2.79-0.59-4.02
				c-0.36-1.22-0.88-2.3-1.54-3.22c-0.66-0.92-1.48-1.64-2.45-2.16c-0.98-0.51-2.09-0.77-3.35-0.77c-1.19,0-2.28,0.25-3.27,0.74
				c-0.99,0.5-1.88,1.2-2.65,2.11c-0.78,0.91-1.42,1.98-1.93,3.22C389.42,19.12,389.05,20.48,388.82,21.97z"/>
			<path class="st0" d="M412.96,39.42c0.53-0.17,0.96-0.35,1.29-0.55c0.33-0.2,0.59-0.45,0.79-0.77c0.2-0.31,0.33-0.72,0.4-1.21
				c0.07-0.5,0.1-1.09,0.1-1.78V6.01c0-1.02-0.08-1.77-0.25-2.23c-0.17-0.46-0.5-0.89-0.99-1.29l4.91-0.59v33.21
				c0,0.69,0.04,1.28,0.12,1.76c0.08,0.48,0.22,0.88,0.42,1.21c0.2,0.33,0.46,0.59,0.79,0.79c0.33,0.2,0.74,0.38,1.24,0.55H412.96z"
				/>
			<path class="st0" d="M423.57,11.96v-0.55h5.06V9.03c0-1.55,0.23-2.88,0.69-3.99c0.46-1.11,1.1-2.02,1.91-2.75
				c0.81-0.73,1.77-1.26,2.88-1.59c1.11-0.33,2.31-0.5,3.59-0.5c1.39,0,2.59,0.15,3.59,0.45c1.01,0.3,1.88,0.68,2.6,1.14l-0.2,6.05
				c-0.46-2.28-1.14-4.01-2.03-5.18c-0.89-1.17-2.21-1.76-3.97-1.76c-1.59,0-2.88,0.52-3.89,1.56c-1.01,1.04-1.51,2.87-1.51,5.48
				v3.47h10.21v0.55h-10.21v23.15c0,0.69,0.04,1.28,0.12,1.76c0.08,0.48,0.22,0.88,0.42,1.21c0.2,0.33,0.46,0.59,0.79,0.79
				c0.33,0.2,0.74,0.38,1.24,0.55h-8.82c0.53-0.17,0.96-0.35,1.29-0.55c0.33-0.2,0.59-0.45,0.79-0.77c0.2-0.31,0.33-0.72,0.4-1.21
				c0.07-0.5,0.1-1.09,0.1-1.78V11.96H423.57z"/>
		</g>
	</g>
</g>
</svg>
