<?xml version="1.0" encoding="utf-8"?>
<!-- Generator: Adobe Illustrator 25.4.1, SVG Export Plug-In . SVG Version: 6.00 Build 0)  -->
<svg version="1.1" id="レイヤー_1" xmlns="http://www.w3.org/2000/svg" xmlns:xlink="http://www.w3.org/1999/xlink" x="0px"
	 y="0px" viewBox="0 0 376 154" style="enable-background:new 0 0 376 154;" xml:space="preserve">
<style type="text/css">
	.st0{fill:#F08984;stroke:#F08984;stroke-width:0.25;stroke-miterlimit:10;}
</style>
<g>
	<g>
		<path class="st0" d="M26.37,7.06c1.05,0,2.29,0.08,3.73,0.24c1.44,0.16,2.97,0.43,4.59,0.82c1.62,0.39,3.27,0.9,4.94,1.53
			c1.67,0.63,3.27,1.41,4.79,2.35l1.26,18.13C44.2,22.7,41.7,17.2,38.17,13.61c-3.53-3.58-7.62-5.37-12.28-5.37
			c-2.62,0-5.07,0.55-7.38,1.65c-2.3,1.1-4.3,2.76-6,4.98c-1.7,2.22-3.03,5-4,8.32c-0.97,3.32-1.45,7.18-1.45,11.57
			c0,4.5,0.51,8.42,1.53,11.77c1.02,3.35,2.42,6.12,4.2,8.32c1.78,2.2,3.87,3.83,6.28,4.9c2.41,1.07,4.99,1.61,7.77,1.61
			c1.73,0,3.46-0.22,5.22-0.67c1.75-0.44,3.45-1.2,5.1-2.28c1.65-1.07,3.2-2.48,4.67-4.24c1.46-1.75,2.75-3.96,3.84-6.63v8.63
			c-2.15,1.78-4.85,3.28-8.12,4.51c-3.27,1.23-6.79,1.84-10.55,1.84c-3.77,0-7.27-0.71-10.51-2.12c-3.24-1.41-6.06-3.36-8.44-5.85
			c-2.38-2.48-4.25-5.43-5.61-8.83c-1.36-3.4-2.04-7.09-2.04-11.06c0-3.92,0.69-7.57,2.08-10.95c1.39-3.37,3.27-6.29,5.65-8.75
			c2.38-2.46,5.14-4.39,8.28-5.81C19.54,7.77,22.86,7.06,26.37,7.06z"/>
		<path class="st0" d="M52.1,62.07c0.84-0.26,1.52-0.55,2.04-0.86c0.52-0.31,0.94-0.72,1.26-1.22c0.31-0.5,0.52-1.14,0.63-1.92
			c0.1-0.78,0.16-1.73,0.16-2.82V26.29c0-1.1-0.04-2.05-0.12-2.86c-0.08-0.81-0.2-1.53-0.35-2.16c-0.16-0.63-0.38-1.2-0.67-1.73
			c-0.29-0.52-0.64-1.05-1.06-1.57l7.92-0.71v10.51c0.63-1.46,1.33-2.82,2.12-4.08c0.78-1.26,1.7-2.35,2.75-3.3
			c1.05-0.94,2.26-1.67,3.65-2.2c1.39-0.52,2.97-0.78,4.75-0.78c1.67,0,3.16,0.18,4.47,0.55l-0.08,7.53
			c-0.47-0.58-1.03-1.18-1.69-1.8c-0.66-0.63-1.35-1.2-2.08-1.73c-0.73-0.52-1.49-0.95-2.27-1.29c-0.78-0.34-1.6-0.51-2.43-0.51
			c-1.05,0-2.01,0.26-2.9,0.78c-0.89,0.52-1.71,1.22-2.47,2.08c-0.76,0.86-1.45,1.88-2.08,3.06c-0.63,1.18-1.18,2.42-1.65,3.73
			v25.42c0,1.1,0.07,2.03,0.2,2.79c0.13,0.76,0.35,1.4,0.67,1.92c0.31,0.52,0.73,0.94,1.26,1.26c0.52,0.31,1.18,0.6,1.96,0.86H52.1z
			"/>
		<path class="st0" d="M104.44,17.34c3.14,0,5.87,0.45,8.2,1.33c2.33,0.89,4.25,2.15,5.77,3.77c1.52,1.62,2.65,3.53,3.41,5.73
			c0.76,2.2,1.16,4.6,1.22,7.22H90c-0.11,0.78-0.18,1.58-0.24,2.39c-0.05,0.81-0.08,1.64-0.08,2.47c0,2.98,0.41,5.77,1.22,8.36
			c0.81,2.59,1.93,4.83,3.37,6.71c1.44,1.88,3.15,3.36,5.14,4.43c1.99,1.07,4.16,1.61,6.51,1.61c2.09,0,3.99-0.38,5.69-1.14
			c1.7-0.76,3.26-1.84,4.67-3.26c1.41-1.41,2.68-3.1,3.81-5.06c1.12-1.96,2.11-4.12,2.94-6.47l-0.71,11.38
			c-2.3,1.94-4.92,3.36-7.85,4.28c-2.93,0.92-5.78,1.37-8.55,1.37c-3.3,0-6.33-0.54-9.1-1.61c-2.77-1.07-5.17-2.58-7.18-4.51
			c-2.01-1.93-3.57-4.29-4.67-7.06c-1.1-2.77-1.65-5.83-1.65-9.18c0-3.3,0.48-6.33,1.45-9.1c0.97-2.77,2.37-5.18,4.2-7.22
			c1.83-2.04,4.04-3.62,6.63-4.75C98.2,17.9,101.14,17.34,104.44,17.34z M90.16,34.45h26.76c-0.05-2.3-0.37-4.42-0.94-6.36
			c-0.58-1.93-1.39-3.64-2.43-5.1c-1.05-1.46-2.34-2.6-3.88-3.41c-1.54-0.81-3.31-1.22-5.3-1.22c-1.88,0-3.61,0.39-5.18,1.18
			c-1.57,0.78-2.97,1.9-4.2,3.33c-1.23,1.44-2.25,3.14-3.06,5.1C91.11,29.93,90.52,32.09,90.16,34.45z"/>
		<path class="st0" d="M147.83,37.74l8.71-2.12v-5.65c0-3.92-0.77-6.81-2.31-8.67c-1.54-1.86-3.88-2.79-7.02-2.79
			c-1.47,0-2.96,0.25-4.47,0.75c-1.52,0.5-2.94,1.39-4.28,2.67c-1.33,1.28-2.56,3.02-3.69,5.22c-1.13,2.2-2.05,4.97-2.79,8.32
			l-0.47-13.1c1.93-1.52,4.32-2.72,7.14-3.61c2.82-0.89,5.73-1.33,8.71-1.33c4.6,0,8.25,1.1,10.95,3.3c2.69,2.2,4.04,5.41,4.04,9.65
			v24.87c0,1.52,0.17,2.85,0.51,4c0.34,1.15,0.9,2.09,1.69,2.82l-7.69,0.24V51.94c-0.52,1.31-1.19,2.59-2,3.84
			c-0.81,1.26-1.81,2.38-2.98,3.37c-1.18,0.99-2.58,1.78-4.2,2.35c-1.62,0.58-3.48,0.86-5.57,0.86c-1.88,0-3.65-0.21-5.3-0.63
			s-3.06-1.06-4.24-1.92c-1.18-0.86-2.11-1.93-2.79-3.22c-0.68-1.28-1.02-2.79-1.02-4.51c0-2.35,0.64-4.34,1.92-5.96
			c1.28-1.62,2.89-2.98,4.83-4.08c1.93-1.1,4-1.97,6.2-2.63C143.9,38.78,145.94,38.21,147.83,37.74z M135.11,52.02
			c0,2.67,0.72,4.86,2.16,6.59c1.44,1.73,3.46,2.59,6.08,2.59c1.46,0,2.95-0.31,4.47-0.94c1.52-0.63,2.9-1.56,4.16-2.79
			c1.26-1.23,2.3-2.76,3.14-4.59c0.84-1.83,1.31-3.95,1.41-6.36V36.8l-8.55,2.04c-1.1,0.26-2.39,0.65-3.88,1.18
			c-1.49,0.52-2.9,1.27-4.24,2.24c-1.33,0.97-2.46,2.24-3.37,3.81C135.57,47.63,135.11,49.62,135.11,52.02z"/>
		<path class="st0" d="M176.7,17.73l5.41-10.91v10.91h12.87v0.86h-12.87v33.74c0,1.73,0.12,3.17,0.35,4.32
			c0.24,1.15,0.56,2.07,0.98,2.75c0.42,0.68,0.95,1.15,1.61,1.41c0.65,0.26,1.4,0.39,2.24,0.39c1.52,0,2.8-0.43,3.84-1.29
			c1.05-0.86,2.01-2.08,2.9-3.65l1.02,0.71c-1.05,1.67-2.19,3-3.41,3.96c-1.23,0.97-3.02,1.45-5.38,1.45
			c-3.66,0-6.24-1.06-7.73-3.18c-1.49-2.12-2.24-5.11-2.24-8.98V18.6h-7.69v-0.86H176.7z"/>
		<path class="st0" d="M220.01,17.34c3.14,0,5.87,0.45,8.2,1.33c2.33,0.89,4.25,2.15,5.77,3.77c1.52,1.62,2.65,3.53,3.41,5.73
			c0.76,2.2,1.16,4.6,1.22,7.22h-33.03c-0.11,0.78-0.18,1.58-0.24,2.39c-0.05,0.81-0.08,1.64-0.08,2.47c0,2.98,0.4,5.77,1.22,8.36
			c0.81,2.59,1.93,4.83,3.37,6.71c1.44,1.88,3.15,3.36,5.14,4.43c1.99,1.07,4.16,1.61,6.51,1.61c2.09,0,3.99-0.38,5.69-1.14
			c1.7-0.76,3.26-1.84,4.67-3.26c1.41-1.41,2.68-3.1,3.81-5.06c1.12-1.96,2.11-4.12,2.94-6.47l-0.71,11.38
			c-2.3,1.94-4.92,3.36-7.85,4.28c-2.93,0.92-5.78,1.37-8.55,1.37c-3.3,0-6.33-0.54-9.1-1.61c-2.77-1.07-5.17-2.58-7.18-4.51
			c-2.01-1.93-3.57-4.29-4.67-7.06c-1.1-2.77-1.65-5.83-1.65-9.18c0-3.3,0.48-6.33,1.45-9.1c0.97-2.77,2.37-5.18,4.2-7.22
			c1.83-2.04,4.04-3.62,6.63-4.75C213.78,17.9,216.72,17.34,220.01,17.34z M205.73,34.45h26.76c-0.05-2.3-0.37-4.42-0.94-6.36
			c-0.58-1.93-1.39-3.64-2.43-5.1c-1.05-1.46-2.34-2.6-3.88-3.41c-1.54-0.81-3.31-1.22-5.3-1.22c-1.88,0-3.61,0.39-5.18,1.18
			c-1.57,0.78-2.97,1.9-4.2,3.33c-1.23,1.44-2.25,3.14-3.06,5.1C206.69,29.93,206.1,32.09,205.73,34.45z"/>
		<path class="st0" d="M265.21,18.6v-0.86h8v-3.77c0-2.46,0.37-4.56,1.1-6.32c0.73-1.75,1.74-3.2,3.02-4.35
			c1.28-1.15,2.8-1.99,4.55-2.51c1.75-0.52,3.65-0.78,5.69-0.78c2.2,0,4.09,0.24,5.69,0.71c1.6,0.47,2.97,1.07,4.12,1.8l-0.31,9.57
			c-0.73-3.61-1.8-6.34-3.22-8.2c-1.41-1.86-3.51-2.79-6.28-2.79c-2.51,0-4.57,0.82-6.16,2.47c-1.6,1.65-2.39,4.54-2.39,8.67v5.49
			h16.16v0.86h-16.16v36.64c0,1.1,0.07,2.03,0.2,2.79c0.13,0.76,0.35,1.4,0.67,1.92c0.31,0.52,0.73,0.94,1.26,1.26
			c0.52,0.31,1.18,0.6,1.96,0.86h-13.97c0.84-0.26,1.52-0.55,2.04-0.86c0.52-0.31,0.94-0.72,1.26-1.22c0.31-0.5,0.52-1.14,0.63-1.92
			c0.1-0.78,0.16-1.73,0.16-2.82V18.6H265.21z"/>
		<path class="st0" d="M320.92,17.34c3.35,0,6.39,0.55,9.14,1.65c2.75,1.1,5.11,2.66,7.1,4.67c1.99,2.01,3.53,4.39,4.63,7.14
			c1.1,2.75,1.65,5.77,1.65,9.06v0.08c0,3.3-0.55,6.32-1.65,9.06c-1.1,2.75-2.64,5.13-4.63,7.14c-1.99,2.01-4.35,3.57-7.1,4.67
			c-2.75,1.1-5.79,1.65-9.14,1.65c-3.35,0-6.39-0.55-9.14-1.65c-2.75-1.1-5.11-2.65-7.1-4.67c-1.99-2.01-3.53-4.39-4.63-7.14
			c-1.1-2.75-1.65-5.77-1.65-9.06v-0.08c0-3.3,0.55-6.32,1.65-9.06c1.1-2.75,2.64-5.13,4.63-7.14c1.99-2.01,4.35-3.57,7.1-4.67
			C314.52,17.89,317.57,17.34,320.92,17.34z M304.75,39.86c0,3.14,0.39,6.02,1.18,8.63c0.78,2.62,1.88,4.88,3.3,6.79
			c1.41,1.91,3.11,3.39,5.1,4.43c1.99,1.05,4.18,1.57,6.59,1.57c2.41,0,4.6-0.52,6.59-1.57c1.99-1.05,3.69-2.52,5.1-4.43
			c1.41-1.91,2.51-4.17,3.3-6.79c0.78-2.61,1.18-5.49,1.18-8.63s-0.39-6.01-1.18-8.63c-0.78-2.62-1.88-4.86-3.3-6.75
			c-1.41-1.88-3.11-3.35-5.1-4.39c-1.99-1.05-4.19-1.57-6.59-1.57c-2.41,0-4.6,0.52-6.59,1.57c-1.99,1.05-3.69,2.51-5.1,4.39
			c-1.41,1.88-2.51,4.13-3.3,6.75C305.15,33.85,304.75,36.72,304.75,39.86z"/>
		<path class="st0" d="M348.07,62.07c0.84-0.26,1.52-0.55,2.04-0.86c0.52-0.31,0.94-0.72,1.26-1.22c0.31-0.5,0.52-1.14,0.63-1.92
			c0.1-0.78,0.16-1.73,0.16-2.82V26.29c0-1.1-0.04-2.05-0.12-2.86c-0.08-0.81-0.2-1.53-0.35-2.16c-0.16-0.63-0.38-1.2-0.67-1.73
			c-0.29-0.52-0.64-1.05-1.06-1.57l7.92-0.71v10.51c0.63-1.46,1.33-2.82,2.12-4.08c0.78-1.26,1.7-2.35,2.75-3.3
			c1.04-0.94,2.26-1.67,3.65-2.2c1.39-0.52,2.97-0.78,4.75-0.78c1.67,0,3.16,0.18,4.47,0.55l-0.08,7.53
			c-0.47-0.58-1.03-1.18-1.69-1.8c-0.65-0.63-1.35-1.2-2.08-1.73c-0.73-0.52-1.49-0.95-2.28-1.29c-0.78-0.34-1.6-0.51-2.43-0.51
			c-1.05,0-2.01,0.26-2.9,0.78c-0.89,0.52-1.71,1.22-2.47,2.08c-0.76,0.86-1.45,1.88-2.08,3.06c-0.63,1.18-1.18,2.42-1.65,3.73
			v25.42c0,1.1,0.07,2.03,0.2,2.79c0.13,0.76,0.35,1.4,0.67,1.92c0.31,0.52,0.73,0.94,1.26,1.26c0.52,0.31,1.18,0.6,1.96,0.86
			H348.07z"/>
	</g>
</g>
<g>
	<g>
		<path class="st0" d="M47.12,99.07c-0.21,0.16-0.41,0.39-0.59,0.71c-0.18,0.31-0.3,0.69-0.35,1.14c-0.05,0.45,0.03,0.97,0.24,1.57
			c0.21,0.6,0.57,1.32,1.1,2.16l15.46,23.62l13.5-20.17c1.2-1.83,2-3.28,2.39-4.35c0.39-1.07,0.59-1.92,0.59-2.55
			c0-0.63-0.13-1.09-0.39-1.37c-0.26-0.29-0.47-0.54-0.63-0.75h7.3c-0.68,0.21-1.53,0.84-2.55,1.88c-1.02,1.05-2.21,2.56-3.57,4.55
			l-15.93,23.7v17.5c0,2.25,0.3,3.83,0.9,4.75c0.6,0.92,1.71,1.64,3.34,2.16H53.47c1.67-0.47,2.8-1.18,3.37-2.12
			c0.58-0.94,0.86-2.54,0.86-4.79v-16.79L42.65,107c-1.73-2.67-3.11-4.56-4.16-5.69c-1.05-1.12-1.94-1.87-2.67-2.24H47.12z"/>
		<path class="st0" d="M104.71,108.88c3.35,0,6.39,0.55,9.14,1.65c2.75,1.1,5.11,2.66,7.1,4.67c1.99,2.01,3.53,4.39,4.63,7.14
			c1.1,2.75,1.65,5.77,1.65,9.06v0.08c0,3.3-0.55,6.32-1.65,9.06c-1.1,2.75-2.64,5.13-4.63,7.14c-1.99,2.01-4.35,3.57-7.1,4.67
			c-2.75,1.1-5.79,1.65-9.14,1.65c-3.35,0-6.39-0.55-9.14-1.65c-2.75-1.1-5.11-2.65-7.1-4.67c-1.99-2.01-3.53-4.39-4.63-7.14
			c-1.1-2.75-1.65-5.77-1.65-9.06v-0.08c0-3.3,0.55-6.32,1.65-9.06c1.1-2.75,2.64-5.13,4.63-7.14c1.99-2.01,4.35-3.57,7.1-4.67
			C98.32,109.43,101.36,108.88,104.71,108.88z M88.55,131.4c0,3.14,0.39,6.02,1.18,8.63c0.78,2.62,1.88,4.88,3.3,6.79
			c1.41,1.91,3.11,3.39,5.1,4.43c1.99,1.05,4.18,1.57,6.59,1.57c2.41,0,4.6-0.52,6.59-1.57c1.99-1.05,3.69-2.52,5.1-4.43
			c1.41-1.91,2.51-4.17,3.3-6.79c0.78-2.61,1.18-5.49,1.18-8.63s-0.39-6.01-1.18-8.63c-0.78-2.62-1.88-4.86-3.3-6.75
			c-1.41-1.88-3.11-3.35-5.1-4.39c-1.99-1.05-4.19-1.57-6.59-1.57c-2.41,0-4.6,0.52-6.59,1.57c-1.99,1.05-3.69,2.51-5.1,4.39
			c-1.41,1.88-2.51,4.13-3.3,6.75C88.94,125.39,88.55,128.26,88.55,131.4z"/>
		<path class="st0" d="M132.25,109.51l8-0.71v31.86c0,2.25,0.24,4.15,0.71,5.69c0.47,1.54,1.14,2.8,2,3.77
			c0.86,0.97,1.91,1.66,3.14,2.08c1.23,0.42,2.58,0.63,4.04,0.63c2.35,0,4.39-0.54,6.12-1.61c1.73-1.07,3.16-2.44,4.32-4.12
			c1.15-1.67,2.04-3.53,2.67-5.57c0.63-2.04,0.97-4.03,1.02-5.96v-17.73c0-1.1-0.04-2.05-0.12-2.86c-0.08-0.81-0.2-1.53-0.35-2.16
			c-0.16-0.63-0.38-1.2-0.67-1.73c-0.29-0.52-0.64-1.05-1.06-1.57l8-0.71v37.04c0,2.3,0.18,3.99,0.55,5.06
			c0.37,1.07,0.92,1.98,1.65,2.71l-7.69,0.24v-11.85c-0.78,1.88-1.64,3.56-2.55,5.02c-0.92,1.47-1.97,2.72-3.18,3.77
			c-1.2,1.05-2.6,1.84-4.2,2.39c-1.6,0.55-3.44,0.82-5.53,0.82c-4.5,0-8.07-1.12-10.71-3.37c-2.64-2.25-3.96-5.7-3.96-10.36v-22.44
			c0-1.1-0.04-2.05-0.12-2.86c-0.08-0.81-0.2-1.53-0.35-2.16c-0.16-0.63-0.38-1.2-0.67-1.73
			C133.02,110.56,132.67,110.03,132.25,109.51z"/>
		<path class="st0" d="M177.29,153.61c0.84-0.26,1.52-0.55,2.04-0.86c0.52-0.31,0.94-0.72,1.26-1.22c0.31-0.5,0.52-1.14,0.63-1.92
			c0.1-0.78,0.16-1.73,0.16-2.82v-28.95c0-1.1-0.04-2.05-0.12-2.86c-0.08-0.81-0.2-1.53-0.35-2.16c-0.16-0.63-0.38-1.2-0.67-1.73
			c-0.29-0.52-0.64-1.05-1.06-1.57l7.92-0.71v10.51c0.63-1.46,1.33-2.82,2.12-4.08c0.78-1.26,1.7-2.35,2.75-3.3
			c1.04-0.94,2.26-1.67,3.65-2.2c1.39-0.52,2.97-0.78,4.75-0.78c1.67,0,3.16,0.18,4.47,0.55l-0.08,7.53
			c-0.47-0.58-1.03-1.18-1.69-1.8c-0.65-0.63-1.35-1.2-2.08-1.73c-0.73-0.52-1.49-0.95-2.28-1.29c-0.78-0.34-1.6-0.51-2.43-0.51
			c-1.05,0-2.01,0.26-2.9,0.78c-0.89,0.52-1.71,1.22-2.47,2.08c-0.76,0.86-1.45,1.88-2.08,3.06c-0.63,1.18-1.18,2.42-1.65,3.73
			v25.42c0,1.1,0.07,2.03,0.2,2.79c0.13,0.76,0.35,1.4,0.67,1.92c0.31,0.52,0.73,0.94,1.26,1.26c0.52,0.31,1.18,0.6,1.96,0.86
			H177.29z"/>
		<path class="st0" d="M208.75,149.45l1.26-14.83c0.31,3.56,0.9,6.51,1.77,8.87c0.86,2.35,1.93,4.22,3.22,5.61
			c1.28,1.39,2.75,2.37,4.39,2.94c1.65,0.58,3.41,0.86,5.3,0.86c3.92,0,6.81-0.94,8.67-2.82c1.86-1.88,2.79-4.18,2.79-6.9
			c0-1.57-0.29-2.89-0.86-3.96c-0.58-1.07-1.27-1.96-2.08-2.67c-0.81-0.71-1.69-1.26-2.63-1.65c-0.94-0.39-1.8-0.72-2.59-0.98
			l-8.4-2.82c-0.84-0.26-1.78-0.67-2.82-1.22c-1.05-0.55-2.04-1.27-2.98-2.16c-0.94-0.89-1.74-1.97-2.39-3.26
			c-0.65-1.28-0.98-2.79-0.98-4.51c0-3.45,1.28-6.17,3.84-8.16c2.56-1.99,5.96-2.98,10.2-2.98c2.88,0,5.5,0.45,7.89,1.33
			c2.38,0.89,4.43,2.09,6.16,3.61l-0.55,10.59c-1.31-5.13-3.02-8.81-5.14-11.06c-2.12-2.25-4.96-3.37-8.51-3.37
			c-2.83,0-5.18,0.67-7.06,2c-1.88,1.33-2.83,3.39-2.83,6.16c0,1.26,0.26,2.3,0.78,3.14c0.52,0.84,1.16,1.53,1.92,2.08
			c0.76,0.55,1.58,0.99,2.47,1.33c0.89,0.34,1.73,0.64,2.51,0.9l7.61,2.51c0.99,0.31,2.13,0.76,3.41,1.33
			c1.28,0.58,2.5,1.35,3.65,2.31c1.15,0.97,2.12,2.17,2.9,3.61c0.78,1.44,1.18,3.2,1.18,5.3c0,1.94-0.37,3.71-1.1,5.34
			c-0.73,1.62-1.8,3.03-3.22,4.24c-1.41,1.2-3.15,2.15-5.22,2.82c-2.07,0.68-4.46,1.02-7.18,1.02c-2.98,0-5.85-0.39-8.59-1.18
			C212.79,152.04,210.53,150.91,208.75,149.45z"/>
		<path class="st0" d="M266.98,108.88c3.14,0,5.87,0.45,8.2,1.33c2.33,0.89,4.25,2.15,5.77,3.77c1.52,1.62,2.65,3.53,3.41,5.73
			c0.76,2.2,1.16,4.6,1.22,7.22h-33.03c-0.11,0.78-0.18,1.58-0.24,2.39c-0.05,0.81-0.08,1.64-0.08,2.47c0,2.98,0.4,5.77,1.22,8.36
			c0.81,2.59,1.93,4.83,3.37,6.71c1.44,1.88,3.15,3.36,5.14,4.43c1.99,1.07,4.16,1.61,6.51,1.61c2.09,0,3.99-0.38,5.69-1.14
			c1.7-0.76,3.26-1.84,4.67-3.26c1.41-1.41,2.68-3.1,3.81-5.06c1.12-1.96,2.11-4.12,2.94-6.47l-0.71,11.38
			c-2.3,1.94-4.92,3.36-7.85,4.28c-2.93,0.92-5.78,1.37-8.55,1.37c-3.3,0-6.33-0.54-9.1-1.61c-2.77-1.07-5.17-2.58-7.18-4.51
			c-2.01-1.93-3.57-4.29-4.67-7.06c-1.1-2.77-1.65-5.83-1.65-9.18c0-3.3,0.48-6.33,1.45-9.1c0.97-2.77,2.37-5.18,4.2-7.22
			c1.83-2.04,4.04-3.62,6.63-4.75C260.74,109.44,263.68,108.88,266.98,108.88z M252.69,125.99h26.76c-0.05-2.3-0.37-4.42-0.94-6.36
			c-0.58-1.93-1.39-3.64-2.43-5.1c-1.05-1.46-2.34-2.6-3.88-3.41c-1.54-0.81-3.31-1.22-5.3-1.22c-1.88,0-3.61,0.39-5.18,1.18
			c-1.57,0.78-2.97,1.9-4.2,3.33c-1.23,1.44-2.25,3.14-3.06,5.1C253.65,121.48,253.06,123.63,252.69,125.99z"/>
		<path class="st0" d="M290.91,153.61c0.84-0.26,1.52-0.55,2.04-0.86c0.52-0.31,0.94-0.72,1.26-1.22c0.31-0.5,0.52-1.14,0.63-1.92
			c0.1-0.78,0.16-1.73,0.16-2.82v-46.06c0-1.62-0.13-2.8-0.39-3.53c-0.26-0.73-0.78-1.41-1.57-2.04l7.77-0.94v52.57
			c0,1.1,0.07,2.03,0.2,2.79c0.13,0.76,0.35,1.4,0.67,1.92c0.31,0.52,0.73,0.94,1.26,1.26c0.52,0.31,1.18,0.6,1.96,0.86H290.91z"/>
		<path class="st0" d="M307.7,110.14v-0.86h8v-3.77c0-2.46,0.37-4.56,1.1-6.32c0.73-1.75,1.74-3.2,3.02-4.35
			c1.28-1.15,2.8-1.99,4.55-2.51c1.75-0.52,3.65-0.78,5.69-0.78c2.2,0,4.09,0.24,5.69,0.71c1.6,0.47,2.97,1.07,4.12,1.8l-0.31,9.57
			c-0.73-3.61-1.8-6.34-3.22-8.2c-1.41-1.86-3.5-2.79-6.28-2.79c-2.51,0-4.56,0.82-6.16,2.47c-1.6,1.65-2.39,4.54-2.39,8.67v5.49
			h16.16v0.86h-16.16v36.64c0,1.1,0.07,2.03,0.2,2.79c0.13,0.76,0.35,1.4,0.67,1.92c0.31,0.52,0.73,0.94,1.26,1.26
			c0.52,0.31,1.18,0.6,1.96,0.86h-13.97c0.84-0.26,1.52-0.55,2.04-0.86c0.52-0.31,0.94-0.72,1.26-1.22c0.31-0.5,0.52-1.14,0.63-1.92
			c0.1-0.78,0.16-1.73,0.16-2.82v-36.64H307.7z"/>
	</g>
</g>
</svg>
