<?xml version="1.0" encoding="utf-8"?>
<!-- Generator: Adobe Illustrator 25.4.1, SVG Export Plug-In . SVG Version: 6.00 Build 0)  -->
<svg version="1.1" id="レイヤー_1" xmlns="http://www.w3.org/2000/svg" xmlns:xlink="http://www.w3.org/1999/xlink" x="0px"
	 y="0px" viewBox="0 0 345 33" style="enable-background:new 0 0 345 33;" xml:space="preserve">
<style type="text/css">
	.st0{fill:#F08984;}
</style>
<g>
	<path class="st0" d="M28.53,2.76h-5.05l0.15,0.2c0.09,0.12,0.21,0.26,0.35,0.41c0.12,0.13,0.18,0.36,0.18,0.66
		c0,0.33-0.11,0.78-0.31,1.35c-0.21,0.57-0.64,1.36-1.29,2.34l-7.24,10.82L7,5.85C6.72,5.4,6.52,5.02,6.41,4.7
		C6.31,4.39,6.26,4.12,6.29,3.9c0.03-0.22,0.08-0.41,0.18-0.57c0.09-0.16,0.19-0.27,0.29-0.35l0.3-0.22H0l0.47,0.24
		c0.38,0.19,0.86,0.59,1.42,1.19c0.56,0.61,1.32,1.64,2.25,3.08l8.18,12.44v9.1c0,1.19-0.15,2.05-0.45,2.54
		c-0.3,0.48-0.89,0.85-1.76,1.1l-0.87,0.24h9.56l-0.76-0.24c-0.85-0.27-1.44-0.65-1.75-1.12c-0.31-0.47-0.47-1.32-0.47-2.52v-9.49
		l8.65-12.87c0.73-1.07,1.38-1.9,1.93-2.46c0.54-0.55,0.99-0.89,1.34-0.99L28.53,2.76z"/>
	<path class="st0" d="M48.89,11.57C47.8,10.47,46.48,9.6,44.98,9c-1.5-0.6-3.19-0.91-5.02-0.91c-1.83,0-3.52,0.31-5.02,0.91
		c-1.5,0.6-2.82,1.47-3.91,2.57c-1.09,1.1-1.95,2.43-2.55,3.93c-0.6,1.5-0.91,3.18-0.91,4.98v0.04c0,1.8,0.31,3.48,0.91,4.98
		c0.6,1.51,1.46,2.83,2.55,3.93c1.09,1.1,2.4,1.97,3.91,2.57c1.5,0.6,3.19,0.91,5.02,0.91c1.83,0,3.52-0.3,5.02-0.91
		c1.5-0.6,2.82-1.47,3.91-2.57c1.09-1.1,1.95-2.42,2.55-3.93c0.6-1.5,0.91-3.18,0.91-4.98v-0.04c0-1.8-0.3-3.48-0.91-4.98
		C50.83,14,49.98,12.68,48.89,11.57z M39.96,32.02c-1.28,0-2.47-0.28-3.53-0.84c-1.06-0.56-1.98-1.36-2.73-2.38
		c-0.76-1.02-1.35-2.25-1.78-3.66c-0.42-1.41-0.64-2.98-0.64-4.66c0-1.69,0.21-3.26,0.64-4.66c0.42-1.4,1.02-2.63,1.77-3.63
		c0.75-1,1.67-1.8,2.73-2.36c1.06-0.56,2.25-0.84,3.53-0.84c1.28,0,2.47,0.28,3.53,0.84c1.06,0.56,1.98,1.35,2.73,2.36
		c0.76,1.01,1.35,2.23,1.77,3.63c0.42,1.41,0.64,2.97,0.64,4.66c0,1.69-0.21,3.26-0.64,4.66c-0.42,1.4-1.02,2.63-1.77,3.66
		c-0.75,1.02-1.67,1.82-2.73,2.38C42.43,31.74,41.24,32.02,39.96,32.02z"/>
	<path class="st0" d="M72.24,20.53c-0.63-0.53-1.31-0.96-2.02-1.28c-0.7-0.32-1.33-0.56-1.87-0.73l-4.14-1.37
		c-0.43-0.14-0.89-0.31-1.36-0.49c-0.47-0.18-0.91-0.42-1.32-0.71c-0.4-0.29-0.74-0.66-1.01-1.1c-0.27-0.43-0.41-0.99-0.41-1.64
		c0-1.46,0.5-2.55,1.49-3.25c1-0.71,2.27-1.07,3.77-1.07c1.89,0,3.42,0.6,4.54,1.8c1.13,1.2,2.06,3.21,2.77,5.97l0.2,0.8l0.34-6.65
		l-0.05-0.04c-0.95-0.83-2.09-1.5-3.39-1.99c-1.3-0.49-2.76-0.73-4.34-0.73c-2.32,0-4.22,0.55-5.63,1.65
		c-1.42,1.1-2.14,2.63-2.14,4.54c0,0.96,0.18,1.8,0.55,2.51c0.36,0.71,0.81,1.31,1.33,1.81c0.52,0.49,1.07,0.89,1.65,1.19
		c0.57,0.3,1.1,0.53,1.56,0.67l4.57,1.54c0.43,0.14,0.9,0.32,1.4,0.53c0.5,0.21,0.97,0.5,1.4,0.88c0.43,0.37,0.8,0.85,1.1,1.42
		c0.3,0.56,0.46,1.27,0.46,2.1c0,1.44-0.5,2.68-1.48,3.67c-0.98,1-2.54,1.5-4.63,1.5c-1.01,0-1.96-0.16-2.84-0.46
		c-0.87-0.31-1.66-0.83-2.34-1.57c-0.68-0.74-1.26-1.75-1.73-3.01c-0.46-1.26-0.78-2.88-0.95-4.79h-0.25l-0.69,8.14l0.05,0.04
		c0.98,0.8,2.23,1.43,3.74,1.86c1.5,0.43,3.09,0.65,4.71,0.65c1.48,0,2.81-0.19,3.95-0.56c1.14-0.37,2.11-0.9,2.88-1.56
		c0.78-0.66,1.38-1.45,1.78-2.35c0.4-0.9,0.61-1.89,0.61-2.96c0-1.16-0.22-2.15-0.66-2.94C73.42,21.74,72.88,21.07,72.24,20.53z"/>
	<path class="st0" d="M103.41,31.99c-0.27-0.16-0.48-0.38-0.64-0.64c-0.16-0.27-0.28-0.61-0.35-1c-0.07-0.4-0.1-0.91-0.1-1.49V16.21
		c0-1.18-0.2-2.28-0.59-3.27c-0.39-0.99-0.96-1.86-1.69-2.59c-0.74-0.72-1.65-1.28-2.71-1.67c-1.06-0.39-2.3-0.58-3.67-0.58
		c-2.44,0-4.48,0.62-6.06,1.84c-1.41,1.09-2.49,2.55-3.22,4.34V0.09l-4.66,0.57l0.23,0.19c0.41,0.33,0.68,0.68,0.81,1.05
		c0.14,0.38,0.21,1.02,0.21,1.88v25.08c0,0.59-0.03,1.1-0.08,1.52c-0.06,0.41-0.16,0.74-0.32,1c-0.16,0.25-0.37,0.46-0.64,0.62
		c-0.28,0.17-0.64,0.32-1.08,0.46l-0.78,0.24h9.2l-0.73-0.24c-0.42-0.14-0.77-0.29-1.04-0.46c-0.27-0.16-0.48-0.38-0.64-0.64
		c-0.16-0.27-0.28-0.61-0.35-1c-0.07-0.4-0.11-0.91-0.11-1.49v-10.5c0.08-1.49,0.38-2.82,0.87-3.97c0.49-1.15,1.13-2.12,1.92-2.91
		c0.78-0.78,1.69-1.38,2.69-1.79c1.01-0.41,2.07-0.61,3.16-0.61c1.92,0,3.39,0.6,4.39,1.77c1,1.18,1.51,2.84,1.51,4.94v13.07
		c0,0.59-0.03,1.1-0.08,1.52c-0.06,0.41-0.16,0.74-0.32,1c-0.16,0.25-0.38,0.46-0.64,0.62c-0.28,0.17-0.64,0.32-1.08,0.46
		l-0.78,0.24h9.2l-0.73-0.24C104.04,32.31,103.69,32.16,103.41,31.99z"/>
	<path class="st0" d="M115.07,31.99c-0.27-0.16-0.48-0.37-0.64-0.64c-0.16-0.27-0.28-0.61-0.35-1c-0.07-0.4-0.1-0.9-0.1-1.49V8.04
		l-4.72,0.42l0.14,0.18c0.22,0.28,0.41,0.56,0.56,0.84c0.15,0.28,0.27,0.58,0.35,0.91c0.08,0.34,0.15,0.73,0.19,1.16
		c0.04,0.43,0.06,0.95,0.06,1.55v15.76c0,0.59-0.03,1.1-0.08,1.52c-0.05,0.41-0.16,0.74-0.32,1c-0.16,0.25-0.37,0.46-0.64,0.62
		c-0.28,0.17-0.64,0.32-1.08,0.46l-0.78,0.24h9.19l-0.73-0.24C115.7,32.31,115.35,32.16,115.07,31.99z"/>
	<path class="st0" d="M112.15,5.23c0.68,0,1.26-0.21,1.71-0.63c0.45-0.42,0.68-0.98,0.68-1.67c0-0.69-0.23-1.24-0.68-1.65
		c-0.45-0.4-1.02-0.61-1.71-0.61c-0.66,0-1.22,0.2-1.66,0.61c-0.45,0.41-0.68,0.96-0.68,1.65c0,0.69,0.23,1.25,0.68,1.67
		C110.93,5.01,111.49,5.23,112.15,5.23z"/>
	<path class="st0" d="M139.16,31c-0.18-0.61-0.27-1.33-0.27-2.14V15.31c0-2.34-0.76-4.14-2.25-5.35c-1.48-1.21-3.51-1.82-6.04-1.82
		c-1.63,0-3.24,0.25-4.78,0.73c-1.55,0.49-2.87,1.16-3.93,1.99l-0.05,0.04l0.29,8.19l0.21-0.97c0.39-1.8,0.9-3.32,1.51-4.5
		c0.6-1.18,1.27-2.12,1.98-2.81c0.71-0.68,1.48-1.16,2.28-1.42c0.81-0.27,1.62-0.4,2.4-0.4c1.66,0,2.92,0.49,3.73,1.47
		c0.82,0.98,1.23,2.55,1.23,4.64v2.98l-4.65,1.13h0c-1.03,0.26-2.15,0.57-3.34,0.92c-1.2,0.36-2.35,0.84-3.4,1.44
		c-1.06,0.6-1.96,1.36-2.66,2.25c-0.71,0.9-1.07,2.02-1.07,3.32c0,0.96,0.19,1.8,0.57,2.51c0.38,0.71,0.9,1.31,1.55,1.79
		c0.65,0.48,1.44,0.84,2.35,1.07c0.9,0.23,1.88,0.35,2.91,0.35c1.15,0,2.18-0.16,3.07-0.48c0.89-0.32,1.68-0.76,2.32-1.3
		c0.65-0.54,1.2-1.17,1.65-1.86c0.33-0.51,0.62-1.03,0.86-1.56v5.16l4.62-0.14l-0.22-0.21C139.63,32.1,139.33,31.6,139.16,31z
		 M135.47,18.97v5.13c-0.06,1.29-0.31,2.44-0.76,3.41c-0.45,0.98-1.01,1.81-1.68,2.46c-0.67,0.65-1.42,1.16-2.22,1.49
		c-0.81,0.33-1.61,0.5-2.39,0.5c-1.38,0-2.46-0.46-3.21-1.36c-0.76-0.91-1.15-2.09-1.15-3.51c0-1.28,0.25-2.35,0.73-3.18
		c0.49-0.83,1.09-1.52,1.8-2.03c0.71-0.52,1.48-0.92,2.27-1.2c0.8-0.28,1.51-0.49,2.1-0.64L135.47,18.97z"/>
	<path class="st0" d="M167.3,31.64c-0.28-0.34-0.67-0.81-1.15-1.41c-0.48-0.6-1.12-1.39-1.92-2.39l-8.09-10.2l4.61-4.07
		c0.93-0.82,1.75-1.52,2.43-2.09c0.68-0.57,1.28-1.05,1.79-1.43c0.51-0.38,0.96-0.7,1.32-0.93c0.36-0.24,0.69-0.43,0.97-0.57
		l0.47-0.24h-4.55l0.01,0.14c0.05,0.62-0.17,1.27-0.66,1.92c-0.5,0.67-1.14,1.34-1.9,1.99l-10.73,9.43V0.09l-4.66,0.57l0.23,0.19
		c0.41,0.33,0.68,0.68,0.81,1.05c0.14,0.38,0.21,1.02,0.21,1.88v25.08c0,0.59-0.03,1.1-0.08,1.52c-0.06,0.41-0.16,0.74-0.32,1
		c-0.16,0.25-0.37,0.46-0.64,0.62c-0.28,0.17-0.64,0.32-1.08,0.46l-0.78,0.24h9.2l-0.73-0.24c-0.42-0.14-0.77-0.29-1.04-0.46
		c-0.27-0.16-0.48-0.38-0.64-0.64c-0.16-0.27-0.28-0.61-0.35-1c-0.07-0.4-0.1-0.91-0.1-1.49V23.1l3.87-3.42l6.92,8.99
		c0.54,0.71,0.94,1.3,1.21,1.76c0.27,0.46,0.46,0.84,0.57,1.14c0.13,0.34,0.14,0.53,0.12,0.62c-0.03,0.14-0.06,0.25-0.11,0.32
		l-0.13,0.19h5.7l0-0.25c0,0-0.05-0.01-0.17-0.13C167.78,32.2,167.58,31.97,167.3,31.64z"/>
	<path class="st0" d="M178.25,31.99c-0.27-0.16-0.48-0.37-0.64-0.64c-0.16-0.27-0.28-0.61-0.35-1c-0.07-0.4-0.1-0.9-0.1-1.49V8.04
		l-4.73,0.42l0.15,0.18c0.22,0.28,0.41,0.56,0.56,0.84c0.15,0.28,0.27,0.58,0.35,0.91c0.08,0.34,0.15,0.73,0.19,1.16
		c0.04,0.43,0.06,0.95,0.06,1.55v15.76c0,0.59-0.03,1.1-0.08,1.52c-0.05,0.41-0.16,0.74-0.32,1c-0.16,0.25-0.37,0.46-0.64,0.62
		c-0.28,0.17-0.64,0.32-1.08,0.46l-0.78,0.24h9.2l-0.73-0.24C178.88,32.31,178.53,32.16,178.25,31.99z"/>
	<path class="st0" d="M175.32,5.23c0.68,0,1.26-0.21,1.71-0.63c0.45-0.42,0.68-0.98,0.68-1.67c0-0.69-0.23-1.24-0.68-1.65
		c-0.45-0.4-1.02-0.61-1.71-0.61c-0.66,0-1.22,0.2-1.66,0.61c-0.45,0.41-0.68,0.96-0.68,1.65c0,0.69,0.23,1.25,0.68,1.67
		C174.11,5.01,174.67,5.23,175.32,5.23z"/>
	<path class="st0" d="M262.25,31.33c-0.31-0.47-0.47-1.32-0.47-2.52V6.64c0-1.19,0.16-2.04,0.47-2.52c0.31-0.47,0.9-0.85,1.75-1.12
		l0.76-0.24h-6l-11.12,25.72L234.9,2.83l-0.04-0.07h-5.19L230.66,3c0.44,0.11,0.81,0.26,1.1,0.43c0.28,0.17,0.5,0.4,0.66,0.66
		c0.16,0.27,0.28,0.61,0.35,1c0.07,0.41,0.11,0.92,0.11,1.54v22.17c0,1.2-0.15,2.05-0.45,2.54c-0.3,0.48-0.89,0.85-1.76,1.1
		l-0.87,0.24h7.04l-0.76-0.24c-0.85-0.27-1.44-0.65-1.75-1.12c-0.31-0.47-0.47-1.32-0.47-2.52V7.98l12.24,24.64l0.03,0.07h0.67
		l11.54-26.31v22.43c0,1.2-0.15,2.05-0.45,2.54c-0.3,0.48-0.89,0.85-1.76,1.1l-0.87,0.24h9.52L264,32.45
		C263.15,32.18,262.56,31.8,262.25,31.33z"/>
	<path class="st0" d="M272.55,5.23c0.68,0,1.26-0.21,1.71-0.63c0.45-0.42,0.68-0.98,0.68-1.67c0-0.69-0.23-1.24-0.68-1.65
		c-0.45-0.4-1.02-0.61-1.71-0.61c-0.66,0-1.22,0.2-1.66,0.61c-0.45,0.41-0.68,0.96-0.68,1.65c0,0.69,0.23,1.25,0.68,1.67
		C271.33,5.01,271.89,5.23,272.55,5.23z"/>
	<path class="st0" d="M275.48,31.99c-0.27-0.16-0.48-0.37-0.64-0.64c-0.16-0.27-0.28-0.61-0.35-1c-0.07-0.4-0.1-0.9-0.1-1.49V8.04
		l-4.73,0.42l0.15,0.18c0.22,0.28,0.41,0.56,0.56,0.84c0.15,0.28,0.27,0.58,0.35,0.91c0.08,0.34,0.15,0.73,0.19,1.16
		c0.04,0.43,0.06,0.95,0.06,1.55v15.76c0,0.59-0.03,1.1-0.08,1.52c-0.05,0.41-0.16,0.74-0.32,1c-0.16,0.25-0.37,0.46-0.64,0.62
		c-0.28,0.17-0.64,0.32-1.08,0.46l-0.78,0.24h9.2l-0.73-0.24C276.1,32.31,275.75,32.16,275.48,31.99z"/>
	<path class="st0" d="M298.56,29.64c-1.59,1.61-3.47,2.42-5.59,2.42c-1.26,0-2.41-0.28-3.44-0.82c-1.03-0.54-1.94-1.33-2.69-2.33
		c-0.76-1.01-1.35-2.24-1.77-3.68c-0.42-1.43-0.64-3.05-0.64-4.79c0-1.72,0.21-3.3,0.61-4.71c0.41-1.4,0.98-2.63,1.69-3.64
		c0.71-1.01,1.57-1.79,2.56-2.33c0.99-0.54,2.1-0.82,3.29-0.82c0.89,0,1.78,0.16,2.65,0.46c0.86,0.31,1.66,0.83,2.37,1.55
		c0.71,0.73,1.33,1.7,1.83,2.91c0.51,1.21,0.85,2.72,1.02,4.49l0.08,0.82l1.59-7.63l-0.06-0.05c-1.23-0.97-2.67-1.79-4.28-2.43
		c-1.62-0.64-3.38-0.97-5.24-0.97c-1.75,0-3.36,0.31-4.81,0.91c-1.45,0.6-2.7,1.46-3.74,2.55c-1.03,1.09-1.85,2.4-2.42,3.89
		c-0.57,1.49-0.86,3.16-0.86,4.96c0,1.89,0.31,3.62,0.93,5.15c0.62,1.53,1.47,2.86,2.55,3.95c1.08,1.09,2.38,1.94,3.87,2.53
		c1.49,0.59,3.13,0.88,4.87,0.88c0.65,0,1.39-0.05,2.17-0.15c0.78-0.1,1.59-0.27,2.39-0.49c0.8-0.23,1.61-0.54,2.39-0.93
		c0.79-0.39,1.52-0.89,2.19-1.49l0.04-0.04l0.35-8.37l-0.3,1.15C301.37,25.65,300.16,28.03,298.56,29.64z"/>
	<path class="st0" d="M331.56,31.99c-0.27-0.16-0.48-0.38-0.64-0.64c-0.16-0.27-0.28-0.61-0.35-1c-0.07-0.4-0.1-0.91-0.1-1.49V16.21
		c0-1.18-0.2-2.28-0.59-3.27c-0.39-0.99-0.96-1.86-1.69-2.59c-0.74-0.72-1.65-1.28-2.71-1.67c-1.06-0.39-2.3-0.58-3.67-0.58
		c-2.44,0-4.48,0.62-6.06,1.84c-1.41,1.09-2.49,2.55-3.22,4.34V0.09l-4.66,0.57l0.23,0.19c0.41,0.33,0.68,0.68,0.81,1.05
		c0.14,0.38,0.21,1.02,0.21,1.88v25.08c0,0.59-0.03,1.1-0.08,1.52c-0.06,0.41-0.16,0.74-0.32,1c-0.16,0.25-0.37,0.46-0.64,0.62
		c-0.28,0.17-0.64,0.32-1.08,0.46l-0.78,0.24h9.2l-0.73-0.24c-0.42-0.14-0.77-0.29-1.04-0.46c-0.27-0.16-0.48-0.38-0.64-0.64
		c-0.16-0.27-0.28-0.61-0.35-1c-0.07-0.4-0.11-0.91-0.11-1.49v-10.5c0.08-1.49,0.38-2.82,0.87-3.97c0.49-1.15,1.13-2.12,1.92-2.91
		c0.78-0.78,1.69-1.38,2.69-1.79c1.01-0.41,2.07-0.61,3.16-0.61c1.92,0,3.39,0.6,4.39,1.77c1,1.18,1.51,2.84,1.51,4.94v13.07
		c0,0.59-0.03,1.1-0.08,1.52c-0.06,0.41-0.16,0.74-0.32,1c-0.16,0.25-0.38,0.46-0.64,0.62c-0.28,0.17-0.64,0.32-1.08,0.46
		l-0.78,0.24h9.2l-0.73-0.24C332.19,32.31,331.84,32.16,331.56,31.99z"/>
	<path class="st0" d="M340.3,5.23c0.68,0,1.26-0.21,1.71-0.63c0.45-0.42,0.68-0.98,0.68-1.67c0-0.69-0.23-1.24-0.68-1.65
		c-0.45-0.4-1.02-0.61-1.71-0.61c-0.66,0-1.22,0.2-1.66,0.61c-0.45,0.41-0.68,0.96-0.68,1.65c0,0.69,0.23,1.25,0.68,1.67
		C339.08,5.01,339.64,5.23,340.3,5.23z"/>
	<path class="st0" d="M344.27,32.45c-0.42-0.14-0.77-0.29-1.04-0.46c-0.27-0.16-0.48-0.37-0.64-0.64c-0.16-0.27-0.28-0.61-0.35-1
		c-0.07-0.4-0.1-0.9-0.1-1.49V8.04l-4.73,0.42l0.15,0.18c0.22,0.28,0.41,0.56,0.56,0.84c0.15,0.28,0.27,0.58,0.35,0.91
		c0.08,0.34,0.15,0.73,0.19,1.16c0.04,0.43,0.06,0.95,0.06,1.55v15.76c0,0.59-0.03,1.1-0.08,1.52c-0.05,0.41-0.16,0.74-0.32,1
		c-0.16,0.25-0.37,0.46-0.64,0.62c-0.28,0.17-0.64,0.32-1.08,0.46l-0.78,0.24h9.2L344.27,32.45z"/>
	<path class="st0" d="M196.13,25.87c1.41,1.15,3.41,1.73,5.93,1.73c3.02,0,5.45-0.99,7.23-2.94c0.31,0.45,0.6,0.87,0.85,1.25
		c0.27,0.43,0.56,0.91,0.87,1.45l0.04,0.06h4.43l-0.39-0.23c-0.07-0.04-0.25-0.19-0.65-0.62c-0.33-0.35-0.7-0.77-1.11-1.26
		c-0.41-0.48-0.85-0.99-1.29-1.53c-0.43-0.51-0.81-0.96-1.15-1.37c0.86-1.53,1.58-3.47,2.14-5.78l0.03-0.13l-1.28-0.27l-0.02,0.12
		c-0.21,1.1-0.47,2.1-0.76,2.96c-0.27,0.79-0.55,1.51-0.85,2.15l-6.8-8.21c0.66-0.31,1.32-0.67,1.96-1.07
		c0.69-0.43,1.31-0.91,1.85-1.44c0.54-0.52,0.98-1.11,1.32-1.75c0.34-0.64,0.51-1.37,0.51-2.17c0-1.43-0.55-2.56-1.65-3.37
		c-1.08-0.79-2.5-1.2-4.23-1.2c-0.81,0-1.6,0.1-2.34,0.31c-0.75,0.2-1.4,0.52-1.96,0.92c-0.56,0.41-1.01,0.94-1.33,1.57
		c-0.33,0.63-0.49,1.39-0.49,2.26c0,0.55,0.07,1.08,0.22,1.58c0.14,0.49,0.37,1,0.67,1.5c0.3,0.5,0.68,1.04,1.13,1.61
		c0.42,0.53,0.91,1.13,1.46,1.79c-0.89,0.39-1.73,0.81-2.49,1.25c-0.81,0.48-1.52,1.01-2.1,1.6c-0.59,0.59-1.05,1.26-1.37,1.99
		c-0.33,0.73-0.49,1.58-0.49,2.52C194,23.14,194.72,24.71,196.13,25.87z M203.1,3.08c1.18,0,2.11,0.38,2.74,1.14
		c0.64,0.77,0.96,1.76,0.96,2.95c0,2.33-1.31,4.22-3.89,5.62l-1.35-1.68c-0.45-0.55-0.84-1.09-1.18-1.61
		c-0.34-0.51-0.6-1.02-0.79-1.54c-0.18-0.5-0.28-1.03-0.28-1.55c0-0.52,0.1-1,0.31-1.42c0.2-0.42,0.48-0.78,0.82-1.06
		c0.34-0.28,0.74-0.5,1.2-0.65C202.1,3.15,202.59,3.08,203.1,3.08z M200.83,14.32c0.52,0.57,1.07,1.22,1.64,1.95l5.07,6.14
		c0.24,0.28,0.45,0.54,0.64,0.78l0.5,0.63c-0.52,0.62-1.06,1.12-1.61,1.51c-0.58,0.41-1.16,0.72-1.73,0.94
		c-0.57,0.22-1.12,0.37-1.66,0.44c-1.45,0.19-2.65,0.12-3.65-0.21c-0.63-0.21-1.18-0.54-1.64-1c-0.46-0.46-0.82-1.06-1.07-1.78
		c-0.25-0.73-0.38-1.61-0.38-2.64c0-0.49,0.05-1.05,0.16-1.66c0.1-0.61,0.3-1.24,0.59-1.87c0.29-0.62,0.7-1.23,1.22-1.81
		C199.42,15.18,200.06,14.71,200.83,14.32z"/>
	<rect x="194" y="31.57" class="st0" width="21.57" height="1"/>
</g>
</svg>
