<?xml version="1.0" encoding="utf-8"?>
<!-- Generator: Adobe Illustrator 25.4.1, SVG Export Plug-In . SVG Version: 6.00 Build 0)  -->
<svg version="1.1" id="レイヤー_1" xmlns="http://www.w3.org/2000/svg" xmlns:xlink="http://www.w3.org/1999/xlink" x="0px"
	 y="0px" viewBox="0 0 643 643" style="enable-background:new 0 0 643 643;" xml:space="preserve">
<style type="text/css">
	.st0{fill:#FFFFFF;}
</style>
<path class="st0" d="M321.5,643c-85.88,0-166.61-33.44-227.33-94.16C33.44,488.11,0,407.38,0,321.5S33.44,154.89,94.16,94.17
	C154.89,33.44,235.62,0,321.5,0s166.61,33.44,227.33,94.17C609.56,154.89,643,235.62,643,321.5s-33.44,166.61-94.17,227.33
	C488.11,609.56,407.38,643,321.5,643z M321.5,2C236.16,2,155.92,35.23,95.58,95.58S2,236.16,2,321.5
	c0,85.34,33.23,165.58,93.58,225.92C155.92,607.77,236.16,641,321.5,641c85.34,0,165.58-33.23,225.92-93.58
	C607.77,487.08,641,406.84,641,321.5s-33.23-165.58-93.58-225.92S406.84,2,321.5,2z"/>
<g>
	<g>
		<g>
			<path class="st0" d="M75.55,333.57c0.03,0.69,0.01,1.52-0.05,2.47c-0.06,0.96-0.2,1.98-0.41,3.06c-0.21,1.08-0.5,2.19-0.87,3.31
				c-0.37,1.12-0.84,2.2-1.42,3.23l-11.96,1.34c4.87-1.18,8.44-2.99,10.71-5.42c2.27-2.44,3.34-5.2,3.21-8.28
				c-0.07-1.73-0.51-3.34-1.3-4.83c-0.79-1.49-1.95-2.77-3.47-3.83c-1.52-1.06-3.39-1.87-5.62-2.41c-2.23-0.55-4.79-0.76-7.7-0.63
				c-2.98,0.13-5.56,0.58-7.74,1.34c-2.19,0.77-3.98,1.77-5.38,3.01c-1.4,1.24-2.43,2.67-3.07,4.29c-0.64,1.62-0.92,3.35-0.84,5.18
				c0.05,1.14,0.24,2.29,0.59,3.43c0.34,1.15,0.89,2.25,1.65,3.31c0.76,1.06,1.73,2.05,2.93,2.97c1.2,0.92,2.7,1.71,4.5,2.36
				l-5.71,0.24c-1.24-1.37-2.31-3.12-3.22-5.25c-0.91-2.13-1.41-4.44-1.52-6.93c-0.11-2.49,0.26-4.83,1.1-7.02
				c0.84-2.19,2.05-4.1,3.63-5.75c1.58-1.65,3.47-2.97,5.68-3.96c2.21-1,4.63-1.55,7.26-1.66c2.6-0.11,5.03,0.24,7.3,1.07
				c2.27,0.82,4.25,1.98,5.95,3.49c1.69,1.5,3.05,3.28,4.07,5.31C74.89,329.07,75.45,331.25,75.55,333.57z"/>
			<path class="st0" d="M43.55,347.85l-0.04-0.04c-1.24-1.37-2.33-3.15-3.24-5.28c-0.91-2.13-1.42-4.48-1.53-6.97
				c-0.11-2.5,0.27-4.88,1.11-7.07c0.84-2.19,2.07-4.14,3.65-5.79c1.58-1.65,3.51-2.99,5.72-3.99c2.21-1,4.67-1.56,7.31-1.67
				c2.6-0.11,5.07,0.25,7.35,1.07c2.28,0.82,4.29,2.01,5.99,3.51c1.7,1.51,3.08,3.31,4.1,5.35c1.03,2.04,1.6,4.26,1.7,6.58l0,0
				c0.03,0.7,0.01,1.53-0.05,2.49c-0.06,0.95-0.2,1.99-0.42,3.08c-0.21,1.08-0.51,2.2-0.88,3.33c-0.37,1.13-0.85,2.22-1.43,3.26
				l-0.03,0.06l-0.06,0.01l-11.96,1.34l-0.04-0.25c4.82-1.17,8.41-2.98,10.65-5.39c2.24-2.4,3.3-5.16,3.17-8.19
				c-0.07-1.7-0.5-3.31-1.28-4.78c-0.78-1.47-1.93-2.74-3.43-3.79c-1.5-1.05-3.37-1.85-5.57-2.39c-2.2-0.54-4.78-0.75-7.66-0.63
				c-2.95,0.13-5.54,0.58-7.71,1.34c-2.16,0.76-3.96,1.77-5.34,2.99c-1.38,1.22-2.4,2.65-3.03,4.24c-0.63,1.6-0.91,3.33-0.84,5.13
				c0.05,1.13,0.25,2.28,0.58,3.4c0.34,1.13,0.89,2.23,1.63,3.27c0.74,1.05,1.72,2.03,2.91,2.94c1.19,0.91,2.69,1.69,4.46,2.34
				l0.59,0.22L43.55,347.85z M57.45,317.27c-0.3,0-0.6,0.01-0.9,0.02c-2.6,0.11-5.03,0.67-7.22,1.65c-2.19,0.98-4.08,2.31-5.64,3.93
				c-1.56,1.63-2.77,3.55-3.6,5.7c-0.83,2.16-1.2,4.5-1.1,6.97c0.11,2.47,0.61,4.78,1.51,6.89c0.89,2.08,1.95,3.82,3.15,5.17
				l5.04-0.22c-1.55-0.61-2.88-1.33-3.96-2.16c-1.21-0.92-2.2-1.93-2.96-2.99c-0.76-1.07-1.32-2.19-1.67-3.35
				c-0.34-1.15-0.54-2.31-0.59-3.46c-0.08-1.84,0.21-3.6,0.85-5.24c0.64-1.63,1.69-3.09,3.1-4.34c1.41-1.24,3.23-2.27,5.42-3.04
				c2.19-0.77,4.8-1.22,7.78-1.35c2.9-0.13,5.51,0.09,7.73,0.64c2.23,0.55,4.13,1.37,5.66,2.43c1.53,1.07,2.71,2.37,3.5,3.87
				c0.8,1.5,1.24,3.15,1.31,4.89c0.13,3.1-0.96,5.91-3.24,8.37c-2.02,2.16-5.09,3.85-9.14,5.03l10.21-1.15
				c0.56-1,1.02-2.06,1.38-3.16c0.36-1.11,0.66-2.22,0.87-3.3c0.21-1.08,0.35-2.1,0.41-3.04c0.06-0.94,0.08-1.77,0.05-2.46l0,0
				c-0.1-2.29-0.66-4.47-1.67-6.48c-1.01-2.01-2.37-3.79-4.05-5.27c-1.67-1.49-3.66-2.65-5.91-3.47
				C61.82,317.63,59.69,317.27,57.45,317.27z"/>
		</g>
		<g>
			<path class="st0" d="M41.1,357.9c0.26,0.52,0.52,0.93,0.78,1.24c0.26,0.31,0.57,0.54,0.93,0.69c0.36,0.15,0.8,0.22,1.32,0.2
				c0.52-0.02,1.14-0.08,1.86-0.2l18.92-3.13c0.72-0.12,1.34-0.25,1.86-0.39c0.52-0.14,0.98-0.29,1.37-0.46
				c0.39-0.17,0.74-0.38,1.05-0.62c0.31-0.24,0.61-0.53,0.91-0.86l1.32,5.1l-6.87,1.14c1.02,0.25,1.99,0.57,2.89,0.94
				c0.9,0.38,1.72,0.86,2.45,1.44c0.73,0.58,1.34,1.3,1.83,2.15c0.49,0.85,0.83,1.85,1.02,3.02c0.18,1.09,0.22,2.09,0.12,2.98
				l-4.93,0.76c0.32-0.37,0.66-0.8,1-1.3c0.34-0.5,0.64-1.01,0.9-1.55c0.26-0.54,0.46-1.08,0.6-1.63c0.14-0.55,0.16-1.1,0.07-1.64
				c-0.11-0.68-0.39-1.29-0.83-1.81c-0.44-0.52-0.98-0.99-1.62-1.39c-0.65-0.4-1.39-0.74-2.22-1.03c-0.84-0.28-1.71-0.51-2.61-0.67
				l-16.61,2.75c-0.72,0.12-1.32,0.26-1.8,0.43c-0.48,0.17-0.88,0.38-1.18,0.64c-0.31,0.26-0.53,0.58-0.68,0.96
				c-0.15,0.38-0.27,0.83-0.35,1.38L41.1,357.9z"/>
			<path class="st0" d="M67.64,372.06l0.23-0.26c0.32-0.37,0.65-0.8,0.99-1.29c0.34-0.49,0.64-1.01,0.89-1.53
				c0.26-0.53,0.46-1.07,0.59-1.6c0.13-0.53,0.16-1.07,0.07-1.59c-0.11-0.66-0.38-1.25-0.8-1.75c-0.43-0.51-0.96-0.97-1.59-1.36
				c-0.64-0.4-1.37-0.74-2.2-1.01c-0.82-0.28-1.68-0.5-2.57-0.67l-16.59,2.74c-0.71,0.12-1.31,0.26-1.78,0.42
				c-0.46,0.16-0.85,0.37-1.15,0.62c-0.29,0.25-0.51,0.55-0.65,0.91c-0.15,0.37-0.26,0.82-0.34,1.35l-0.12,0.77l-1.77-10.69
				l0.37,0.73c0.26,0.51,0.52,0.92,0.77,1.21c0.25,0.29,0.55,0.51,0.88,0.65c0.34,0.14,0.77,0.21,1.27,0.19
				c0.52-0.02,1.14-0.08,1.85-0.2l18.92-3.13c0.71-0.12,1.33-0.25,1.85-0.38c0.51-0.14,0.97-0.29,1.35-0.46
				c0.38-0.17,0.73-0.37,1.03-0.61c0.31-0.24,0.61-0.53,0.9-0.85l0.16-0.17l1.41,5.46l-6.42,1.06c0.82,0.23,1.61,0.49,2.34,0.8
				c0.91,0.38,1.75,0.87,2.48,1.46c0.74,0.59,1.36,1.32,1.86,2.18c0.5,0.86,0.85,1.89,1.04,3.06c0.18,1.1,0.22,2.11,0.13,3.02
				l-0.01,0.1L67.64,372.06z M63.24,360.74l0.02,0c0.91,0.17,1.79,0.4,2.63,0.68c0.84,0.28,1.6,0.63,2.25,1.04
				c0.65,0.41,1.21,0.88,1.65,1.42c0.45,0.54,0.74,1.17,0.85,1.87c0.09,0.56,0.07,1.13-0.07,1.7c-0.14,0.55-0.34,1.11-0.61,1.65
				c-0.26,0.53-0.57,1.06-0.91,1.56c-0.26,0.39-0.53,0.74-0.79,1.05l4.5-0.7c0.08-0.86,0.04-1.82-0.13-2.85
				c-0.19-1.14-0.53-2.14-1.01-2.98c-0.48-0.83-1.09-1.54-1.8-2.11c-0.71-0.57-1.53-1.05-2.42-1.42c-0.89-0.37-1.86-0.69-2.88-0.94
				l-0.59-0.15l7.33-1.21l-1.23-4.75c-0.25,0.26-0.51,0.5-0.77,0.71c-0.32,0.25-0.68,0.46-1.08,0.64c-0.4,0.17-0.87,0.33-1.39,0.47
				c-0.52,0.14-1.15,0.27-1.87,0.39l-18.92,3.13c-0.72,0.12-1.35,0.19-1.88,0.2c-0.54,0.01-1.01-0.05-1.38-0.21
				c-0.37-0.16-0.7-0.4-0.98-0.72c-0.15-0.18-0.3-0.39-0.45-0.63l1.28,7.73c0.06-0.27,0.14-0.51,0.22-0.72
				c0.16-0.39,0.4-0.73,0.72-1.01c0.32-0.27,0.73-0.5,1.22-0.67c0.48-0.17,1.09-0.31,1.82-0.43L63.24,360.74z"/>
		</g>
		<g>
			<path class="st0" d="M77.92,389.22c0.56,2,0.77,3.82,0.63,5.47c-0.15,1.64-0.6,3.09-1.36,4.35c-0.76,1.26-1.77,2.33-3.03,3.21
				c-1.26,0.88-2.73,1.57-4.38,2.07l-5.94-21.05c-0.52,0.07-1.04,0.17-1.57,0.28c-0.53,0.11-1.06,0.24-1.59,0.39
				c-1.9,0.54-3.6,1.3-5.11,2.28c-1.5,0.98-2.73,2.1-3.67,3.36c-0.94,1.26-1.58,2.61-1.9,4.07c-0.33,1.46-0.28,2.94,0.15,4.44
				c0.38,1.33,0.96,2.47,1.75,3.42c0.79,0.95,1.76,1.74,2.91,2.39c1.15,0.65,2.46,1.15,3.91,1.51c1.45,0.36,3,0.6,4.66,0.71
				l-7.38,1.6c-1.65-1.12-3.03-2.53-4.14-4.23c-1.11-1.7-1.92-3.44-2.41-5.2c-0.59-2.1-0.8-4.13-0.61-6.09
				c0.18-1.96,0.71-3.76,1.58-5.39c0.87-1.63,2.09-3.05,3.66-4.25c1.57-1.2,3.42-2.1,5.55-2.7c2.1-0.59,4.12-0.83,6.06-0.71
				c1.94,0.12,3.73,0.58,5.36,1.38c1.63,0.8,3.04,1.92,4.22,3.37C76.44,385.35,77.33,387.12,77.92,389.22z M64.45,383.2l4.81,17.05
				c1.46-0.45,2.75-1.03,3.88-1.74c1.13-0.72,2.07-1.54,2.81-2.47c0.74-0.93,1.24-1.96,1.48-3.09c0.24-1.13,0.18-2.33-0.18-3.59
				c-0.34-1.2-0.9-2.23-1.68-3.09c-0.78-0.86-1.74-1.55-2.88-2.08c-1.14-0.52-2.41-0.87-3.8-1.03
				C67.5,382.99,66.02,383.01,64.45,383.2z"/>
			<path class="st0" d="M55.96,407.85l-0.04-0.03c-1.66-1.13-3.06-2.56-4.17-4.27c-1.11-1.7-1.93-3.46-2.43-5.24
				c-0.59-2.1-0.8-4.17-0.62-6.14c0.18-1.97,0.72-3.79,1.6-5.43c0.87-1.64,2.12-3.08,3.69-4.29c1.57-1.2,3.46-2.12,5.6-2.72
				c2.1-0.59,4.16-0.84,6.1-0.72c1.95,0.12,3.76,0.58,5.4,1.39c1.64,0.8,3.07,1.95,4.26,3.4c1.19,1.46,2.09,3.26,2.69,5.37l0,0
				c0.57,2,0.78,3.86,0.63,5.51c-0.15,1.66-0.62,3.14-1.38,4.41c-0.77,1.27-1.8,2.36-3.07,3.24c-1.27,0.88-2.75,1.58-4.42,2.09
				l-0.12,0.04l-5.95-21.07c-0.47,0.07-0.96,0.16-1.45,0.26c-0.52,0.11-1.05,0.24-1.58,0.39c-1.88,0.53-3.59,1.29-5.07,2.26
				c-1.48,0.97-2.71,2.09-3.64,3.33c-0.93,1.24-1.56,2.59-1.88,4.02c-0.32,1.43-0.27,2.91,0.14,4.38c0.37,1.31,0.95,2.44,1.72,3.37
				c0.77,0.93,1.74,1.72,2.88,2.36c1.14,0.64,2.44,1.14,3.88,1.5c1.44,0.36,3,0.6,4.63,0.71l0.89,0.06L55.96,407.85z M64.72,379.25
				c-1.63,0-3.33,0.25-5.06,0.74c-2.11,0.6-3.96,1.5-5.51,2.68c-1.55,1.18-2.77,2.6-3.63,4.2c-0.86,1.61-1.39,3.41-1.57,5.34
				c-0.18,1.94,0.02,3.97,0.61,6.04c0.49,1.75,1.3,3.49,2.4,5.17c1.08,1.66,2.45,3.06,4.06,4.17l6.5-1.41
				c-1.34-0.13-2.63-0.34-3.83-0.65c-1.46-0.37-2.78-0.88-3.94-1.53c-1.16-0.65-2.16-1.47-2.95-2.42c-0.8-0.96-1.39-2.12-1.77-3.47
				c-0.43-1.51-0.48-3.03-0.15-4.5c0.33-1.47,0.97-2.86,1.92-4.12c0.95-1.26,2.19-2.4,3.7-3.39c1.51-0.98,3.24-1.76,5.14-2.29
				c0.53-0.15,1.07-0.28,1.6-0.4c0.54-0.12,1.07-0.21,1.58-0.28l0.11-0.02l0.03,0.1l5.91,20.93c1.59-0.5,3.01-1.17,4.23-2.02
				c1.24-0.86,2.25-1.93,3-3.17c0.75-1.24,1.2-2.68,1.35-4.3c0.14-1.62-0.06-3.45-0.62-5.42l0,0c-0.59-2.07-1.47-3.85-2.64-5.28
				c-1.17-1.43-2.57-2.55-4.18-3.34c-1.61-0.79-3.39-1.25-5.31-1.36C65.36,379.26,65.04,379.25,64.72,379.25z M69.18,400.41
				l-4.89-17.31l0.14-0.02c1.57-0.19,3.07-0.2,4.47-0.04c1.4,0.16,2.69,0.51,3.84,1.04c1.15,0.53,2.13,1.24,2.92,2.11
				c0.79,0.87,1.37,1.92,1.71,3.14c0.36,1.28,0.42,2.51,0.18,3.65c-0.24,1.14-0.75,2.2-1.5,3.14c-0.75,0.93-1.7,1.77-2.84,2.5
				c-1.14,0.72-2.45,1.31-3.91,1.76L69.18,400.41z M64.61,383.3l4.74,16.79c1.39-0.44,2.64-1.01,3.73-1.69
				c1.12-0.71,2.05-1.53,2.78-2.44c0.73-0.91,1.22-1.93,1.45-3.04c0.23-1.1,0.17-2.29-0.18-3.53c-0.33-1.18-0.89-2.2-1.65-3.04
				c-0.77-0.84-1.72-1.53-2.84-2.05c-1.12-0.52-2.39-0.86-3.76-1.02C67.54,383.12,66.1,383.13,64.61,383.3z"/>
		</g>
		<g>
			<path class="st0" d="M75.78,423.61l3.54,4.77l3.45-1.45c2.39-1.01,3.96-2.23,4.69-3.64c0.73-1.42,0.7-3.09-0.11-5
				c-0.38-0.89-0.91-1.74-1.61-2.54c-0.69-0.8-1.6-1.44-2.73-1.92c-1.13-0.48-2.5-0.79-4.13-0.91c-1.63-0.12-3.56,0.03-5.79,0.44
				l7.87-3.66c1.42,0.79,2.77,1.93,4.04,3.43s2.29,3.15,3.06,4.97c1.18,2.81,1.45,5.32,0.81,7.53c-0.65,2.21-2.26,3.86-4.85,4.95
				l-15.17,6.4c-0.93,0.39-1.7,0.84-2.31,1.34c-0.61,0.5-1.04,1.09-1.29,1.76l-2.12-4.63l6.32-2.67c-0.93,0.02-1.89-0.06-2.86-0.23
				c-0.98-0.17-1.92-0.49-2.83-0.95c-0.91-0.46-1.75-1.11-2.52-1.95c-0.77-0.84-1.42-1.9-1.96-3.18c-0.48-1.15-0.81-2.28-0.98-3.39
				c-0.17-1.11-0.14-2.14,0.08-3.08c0.22-0.94,0.64-1.78,1.25-2.53c0.61-0.74,1.44-1.34,2.49-1.78c1.44-0.61,2.81-0.73,4.13-0.36
				c1.32,0.36,2.56,1,3.73,1.89c1.17,0.9,2.23,1.93,3.2,3.1C74.14,421.48,75.01,422.58,75.78,423.61z M63.79,419.53
				c-1.63,0.69-2.78,1.69-3.47,3.01c-0.68,1.32-0.69,2.78-0.01,4.38c0.38,0.89,0.95,1.72,1.73,2.49c0.77,0.76,1.7,1.37,2.77,1.82
				c1.07,0.45,2.28,0.69,3.61,0.73c1.33,0.04,2.75-0.22,4.24-0.77l5.94-2.5l-3.45-4.69c-0.44-0.6-1.02-1.29-1.72-2.07
				c-0.7-0.77-1.52-1.44-2.46-2.01c-0.93-0.56-2-0.92-3.19-1.08C66.59,418.68,65.26,418.91,63.79,419.53z"/>
			<path class="st0" d="M65.25,440.39l-2.3-5.02l5.87-2.48c-0.74-0.02-1.5-0.1-2.27-0.23c-0.99-0.17-1.95-0.5-2.86-0.96
				c-0.92-0.47-1.78-1.13-2.55-1.98c-0.78-0.85-1.44-1.93-1.98-3.21c-0.49-1.15-0.82-2.3-0.99-3.42c-0.17-1.12-0.14-2.17,0.08-3.13
				c0.23-0.96,0.66-1.82,1.27-2.58c0.62-0.76,1.47-1.37,2.54-1.82c1.46-0.61,2.87-0.74,4.21-0.37c1.33,0.37,2.6,1.01,3.77,1.92
				c1.17,0.9,2.25,1.95,3.22,3.12c0.97,1.18,1.85,2.29,2.61,3.3l0,0l3.48,4.69l3.36-1.42c2.35-0.99,3.91-2.2,4.63-3.59
				c0.71-1.38,0.68-3.03-0.11-4.9c-0.37-0.88-0.9-1.72-1.59-2.5c-0.68-0.78-1.58-1.42-2.68-1.89c-1.11-0.48-2.49-0.78-4.09-0.9
				c-1.61-0.12-3.55,0.03-5.76,0.44l-0.97,0.18l8.83-4.1l0.06,0.03c1.43,0.79,2.8,1.96,4.07,3.46c1.27,1.5,2.31,3.18,3.08,5
				c1.19,2.82,1.46,5.38,0.81,7.61c-0.66,2.24-2.31,3.93-4.92,5.03l-15.17,6.4c-0.91,0.38-1.68,0.83-2.28,1.32
				c-0.59,0.49-1.01,1.06-1.25,1.7L65.25,440.39z M63.28,435.5l1.95,4.25c0.26-0.58,0.67-1.09,1.22-1.54
				c0.62-0.51,1.41-0.97,2.34-1.36l15.17-6.4c2.54-1.07,4.14-2.71,4.78-4.87c0.64-2.17,0.37-4.67-0.8-7.44
				c-0.76-1.8-1.78-3.46-3.04-4.94c-1.24-1.46-2.57-2.59-3.95-3.37l-6.96,3.24c1.85-0.29,3.49-0.39,4.9-0.28
				c1.63,0.12,3.04,0.43,4.17,0.92c1.14,0.49,2.07,1.15,2.77,1.96c0.7,0.8,1.25,1.67,1.63,2.57c0.82,1.94,0.85,3.66,0.1,5.11
				c-0.75,1.44-2.35,2.68-4.76,3.7l-3.54,1.49l-3.59-4.85c-0.76-1.01-1.63-2.12-2.6-3.29c-0.96-1.16-2.03-2.2-3.18-3.09
				c-1.15-0.88-2.39-1.51-3.69-1.87c-1.29-0.36-2.65-0.24-4.05,0.36c-1.03,0.43-1.85,1.02-2.44,1.75c-0.59,0.72-1,1.56-1.22,2.48
				c-0.22,0.92-0.25,1.94-0.08,3.03c0.17,1.1,0.49,2.23,0.97,3.36c0.53,1.26,1.18,2.31,1.94,3.14c0.76,0.83,1.59,1.48,2.48,1.93
				c0.89,0.45,1.83,0.77,2.79,0.94c0.96,0.17,1.91,0.25,2.84,0.23l0.65-0.01L63.28,435.5z M68.67,432.09c-0.09,0-0.17,0-0.26,0
				c-1.34-0.04-2.57-0.29-3.65-0.74c-1.08-0.45-2.03-1.07-2.81-1.85c-0.78-0.77-1.37-1.62-1.75-2.53c-0.68-1.62-0.68-3.13,0.02-4.48
				c0.69-1.34,1.88-2.38,3.53-3.07l0,0c1.48-0.63,2.85-0.86,4.06-0.71c1.21,0.16,2.3,0.52,3.24,1.1c0.94,0.57,1.77,1.25,2.48,2.03
				c0.7,0.78,1.28,1.47,1.73,2.08l3.54,4.82l-6.08,2.57C71.3,431.82,69.94,432.09,68.67,432.09z M63.84,419.64
				c-1.59,0.67-2.74,1.67-3.4,2.96c-0.66,1.28-0.66,2.72-0.01,4.27c0.37,0.87,0.94,1.7,1.7,2.45c0.76,0.75,1.68,1.35,2.73,1.79
				c1.05,0.44,2.25,0.69,3.56,0.72c1.32,0.04,2.72-0.22,4.19-0.77l5.78-2.44l-3.35-4.56c-0.44-0.6-1.01-1.29-1.71-2.06
				c-0.69-0.76-1.51-1.43-2.43-1.99c-0.91-0.55-1.97-0.91-3.14-1.06C66.6,418.8,65.28,419.04,63.84,419.64L63.84,419.64z"/>
		</g>
		<g>
			<path class="st0" d="M97.25,437.88l8.06-0.34l-6.33,3.48l4.11,7.46l-0.5,0.28l-4.11-7.46L78.9,452.07c-1,0.55-1.8,1.08-2.39,1.58
				c-0.59,0.5-1.02,0.99-1.28,1.45c-0.26,0.46-0.36,0.92-0.31,1.38c0.06,0.46,0.22,0.94,0.49,1.42c0.48,0.88,1.14,1.48,1.98,1.82
				c0.84,0.33,1.85,0.5,3.04,0.52l-0.08,0.82c-1.31-0.07-2.44-0.31-3.39-0.71c-0.95-0.4-1.81-1.29-2.56-2.65
				c-1.17-2.12-1.38-3.96-0.63-5.5c0.75-1.54,2.25-2.93,4.5-4.17l18.34-10.1l-2.46-4.46l0.5-0.28L97.25,437.88z"/>
			<path class="st0" d="M80.47,461.19l-0.12-0.01c-1.31-0.07-2.47-0.32-3.43-0.72c-0.98-0.41-1.86-1.33-2.62-2.71
				c-1.19-2.15-1.4-4.04-0.63-5.61c0.76-1.56,2.29-2.98,4.55-4.22l18.23-10.04l-2.46-4.46l0.72-0.4l0.06,0.11l2.54,4.62l8.51-0.36
				l-6.68,3.68l4.11,7.46l-0.72,0.4l-0.06-0.11l-4.05-7.35l-19.46,10.72c-0.99,0.54-1.79,1.07-2.37,1.57
				c-0.58,0.49-1,0.97-1.25,1.41c-0.25,0.43-0.34,0.87-0.29,1.31c0.05,0.44,0.21,0.91,0.47,1.38c0.47,0.85,1.11,1.44,1.92,1.76
				c0.82,0.32,1.83,0.5,3,0.51l0.14,0L80.47,461.19z M94.33,433.51l2.46,4.46l-0.11,0.06l-18.34,10.1c-2.21,1.22-3.71,2.6-4.44,4.11
				c-0.73,1.5-0.52,3.31,0.62,5.38c0.73,1.33,1.57,2.21,2.5,2.6c0.91,0.38,1.99,0.62,3.23,0.7l0.06-0.56
				c-1.15-0.03-2.14-0.2-2.95-0.53c-0.86-0.34-1.55-0.97-2.04-1.87c-0.27-0.5-0.44-0.99-0.5-1.47c-0.06-0.49,0.05-0.98,0.32-1.46
				c0.26-0.47,0.7-0.97,1.31-1.48c0.6-0.51,1.41-1.05,2.41-1.6l19.68-10.84l0.06,0.11l4.05,7.35l0.28-0.16l-4.11-7.46l0.11-0.06
				l5.86-3.23l-7.6,0.32l-0.04-0.07l-2.52-4.58L94.33,433.51z"/>
		</g>
		<g>
			<path class="st0" d="M113.75,464.08c1.2,1.7,2,3.35,2.41,4.95c0.4,1.6,0.46,3.12,0.16,4.56c-0.3,1.44-0.9,2.78-1.8,4.03
				c-0.9,1.25-2.05,2.39-3.44,3.41l-12.6-17.88c-0.46,0.24-0.93,0.5-1.38,0.79c-0.46,0.28-0.92,0.58-1.37,0.9
				c-1.61,1.14-2.97,2.42-4.06,3.84c-1.09,1.43-1.87,2.89-2.34,4.38c-0.47,1.5-0.62,2.99-0.44,4.47c0.18,1.49,0.72,2.86,1.61,4.14
				c0.8,1.13,1.73,2.01,2.79,2.65c1.06,0.63,2.24,1.06,3.54,1.28c1.3,0.23,2.7,0.27,4.19,0.13c1.49-0.14,3.03-0.43,4.63-0.88
				l-6.43,3.96c-1.93-0.51-3.7-1.38-5.31-2.62c-1.61-1.24-2.95-2.61-4.01-4.11c-1.26-1.78-2.12-3.63-2.6-5.54
				c-0.48-1.91-0.58-3.78-0.3-5.61c0.28-1.83,0.96-3.57,2.04-5.22c1.08-1.65,2.53-3.12,4.34-4.39c1.78-1.26,3.61-2.15,5.48-2.69
				c1.87-0.53,3.7-0.69,5.51-0.48c1.8,0.21,3.5,0.81,5.1,1.78C111.06,460.92,112.49,462.3,113.75,464.08z M99.04,462.87l10.2,14.48
				c1.23-0.91,2.25-1.88,3.08-2.93c0.83-1.05,1.44-2.14,1.83-3.26c0.39-1.13,0.52-2.26,0.37-3.4c-0.15-1.14-0.6-2.25-1.36-3.33
				c-0.72-1.02-1.59-1.8-2.61-2.35c-1.02-0.55-2.16-0.88-3.41-1c-1.25-0.12-2.56-0.02-3.93,0.29
				C101.85,461.67,100.45,462.17,99.04,462.87z"/>
			<path class="st0" d="M99.22,488.95l-0.05-0.01c-1.93-0.51-3.73-1.4-5.35-2.64c-1.62-1.24-2.97-2.63-4.03-4.13
				c-1.26-1.79-2.14-3.67-2.62-5.58c-0.48-1.91-0.58-3.82-0.3-5.66c0.28-1.84,0.98-3.61,2.06-5.27c1.08-1.66,2.56-3.15,4.37-4.43
				c1.79-1.26,3.64-2.17,5.52-2.7c1.88-0.54,3.75-0.7,5.56-0.48c1.81,0.21,3.54,0.82,5.15,1.8c1.61,0.98,3.06,2.38,4.32,4.17l0,0
				c1.2,1.7,2.02,3.38,2.42,4.99c0.41,1.61,0.46,3.16,0.16,4.61c-0.3,1.45-0.92,2.82-1.82,4.08c-0.9,1.25-2.07,2.41-3.47,3.44
				l-0.1,0.08l-0.07-0.1l-12.53-17.79c-0.43,0.23-0.86,0.47-1.28,0.73c-0.44,0.27-0.9,0.57-1.36,0.9c-1.6,1.13-2.95,2.41-4.03,3.82
				c-1.08,1.41-1.86,2.87-2.32,4.35c-0.46,1.47-0.61,2.96-0.44,4.42c0.17,1.46,0.71,2.83,1.59,4.08c0.78,1.11,1.71,1.99,2.75,2.61
				c1.04,0.62,2.22,1.05,3.5,1.27c1.28,0.22,2.68,0.27,4.16,0.13c1.48-0.14,3.03-0.43,4.6-0.87l0.85-0.24L99.22,488.95z
				 M102.83,458.2c-1.29,0-2.61,0.19-3.93,0.57c-1.85,0.53-3.68,1.42-5.44,2.67c-1.79,1.26-3.24,2.73-4.31,4.36
				c-1.07,1.63-1.75,3.37-2.02,5.17c-0.28,1.81-0.18,3.68,0.29,5.56c0.47,1.88,1.34,3.73,2.58,5.5c1.04,1.48,2.38,2.86,3.98,4.08
				c1.58,1.21,3.33,2.08,5.21,2.58l5.66-3.49c-1.31,0.33-2.59,0.55-3.83,0.66c-1.5,0.14-2.92,0.09-4.22-0.13
				c-1.31-0.23-2.52-0.66-3.59-1.3c-1.07-0.64-2.02-1.54-2.82-2.68c-0.91-1.29-1.46-2.7-1.63-4.2c-0.18-1.49-0.03-3.02,0.44-4.52
				c0.47-1.5,1.27-2.99,2.36-4.42c1.09-1.43,2.47-2.73,4.09-3.87c0.46-0.33,0.93-0.63,1.37-0.91c0.45-0.28,0.92-0.54,1.39-0.79
				l0.1-0.05l0.06,0.09l12.52,17.78c1.33-1,2.45-2.11,3.31-3.31c0.88-1.23,1.48-2.57,1.78-3.98c0.29-1.41,0.24-2.93-0.16-4.5
				c-0.4-1.58-1.2-3.23-2.39-4.91c-1.24-1.76-2.67-3.14-4.24-4.1c-1.57-0.96-3.27-1.55-5.05-1.76
				C103.85,458.23,103.34,458.2,102.83,458.2z M109.22,477.53l-0.07-0.1l-10.29-14.6l0.13-0.06c1.42-0.7,2.83-1.21,4.21-1.52
				c1.38-0.31,2.71-0.41,3.97-0.29c1.26,0.12,2.42,0.46,3.45,1.02c1.04,0.56,1.93,1.36,2.65,2.39c0.77,1.09,1.23,2.23,1.38,3.39
				c0.15,1.16,0.02,2.32-0.37,3.46c-0.4,1.13-1.02,2.24-1.85,3.3c-0.83,1.05-1.88,2.05-3.11,2.96L109.22,477.53z M99.23,462.92
				l10.05,14.26c1.17-0.88,2.16-1.83,2.96-2.83c0.82-1.04,1.43-2.12,1.81-3.23c0.38-1.1,0.51-2.23,0.36-3.35
				c-0.15-1.12-0.6-2.22-1.34-3.28c-0.7-1-1.57-1.78-2.57-2.32c-1-0.54-2.13-0.87-3.36-0.99c-1.23-0.11-2.54-0.02-3.89,0.29
				C101.93,461.78,100.58,462.26,99.23,462.92z"/>
		</g>
		<g>
			<path class="st0" d="M135.09,491.7l0.4-0.41l3.8,3.7l1.74-1.79c1.13-1.17,2.28-2,3.44-2.49c1.16-0.49,2.3-0.72,3.45-0.67
				c1.14,0.05,2.24,0.35,3.32,0.91c1.07,0.56,2.09,1.31,3.06,2.25c1.04,1.01,1.83,2,2.37,2.96c0.54,0.96,0.91,1.88,1.12,2.76
				l-4.57,4.4c1.32-2.05,2.07-3.84,2.26-5.38c0.19-1.53-0.38-2.94-1.69-4.22c-1.19-1.16-2.55-1.72-4.06-1.67
				c-1.52,0.04-3.23,1.05-5.14,3.01l-2.54,2.61l7.67,7.46l-0.4,0.41l-7.67-7.46l-16.92,17.39c-0.51,0.52-0.91,0.99-1.19,1.41
				c-0.29,0.42-0.48,0.83-0.57,1.22c-0.09,0.39-0.09,0.78,0.02,1.18c0.1,0.39,0.28,0.83,0.53,1.32l-6.63-6.45
				c0.52,0.26,0.97,0.44,1.37,0.53c0.39,0.09,0.78,0.09,1.16,0c0.38-0.09,0.77-0.3,1.19-0.62c0.41-0.32,0.87-0.75,1.38-1.27
				l16.92-17.39L135.09,491.7z"/>
			<path class="st0" d="M123.98,521.22l-7.77-7.56l0.73,0.37c0.51,0.26,0.96,0.43,1.34,0.52c0.38,0.09,0.75,0.09,1.1,0
				c0.36-0.09,0.74-0.29,1.14-0.6c0.41-0.32,0.87-0.74,1.37-1.26l16.83-17.3l-3.8-3.7l0.57-0.59l3.8,3.7l1.65-1.7
				c1.14-1.17,2.31-2.02,3.48-2.52c1.17-0.5,2.35-0.73,3.5-0.68c1.15,0.05,2.29,0.36,3.37,0.92c1.08,0.57,2.12,1.33,3.09,2.28
				c1.05,1.02,1.85,2.03,2.39,2.99c0.54,0.96,0.92,1.9,1.13,2.79l0.02,0.07l-5.39,5.19l0.58-0.9c1.3-2.03,2.06-3.82,2.24-5.32
				c0.18-1.49-0.38-2.87-1.66-4.12c-1.16-1.13-2.48-1.68-3.97-1.64c-1.48,0.04-3.18,1.04-5.05,2.97l-2.45,2.52l7.67,7.46l-0.57,0.59
				l-7.67-7.46l-16.83,17.3c-0.5,0.51-0.9,0.98-1.18,1.4c-0.28,0.41-0.46,0.8-0.55,1.18c-0.09,0.37-0.08,0.75,0.02,1.12
				c0.1,0.38,0.28,0.81,0.52,1.29L123.98,521.22z M117.49,514.56l5.62,5.47c-0.11-0.25-0.19-0.49-0.25-0.72
				c-0.11-0.41-0.11-0.82-0.02-1.24c0.09-0.41,0.29-0.83,0.59-1.26c0.29-0.42,0.7-0.91,1.21-1.43l17.01-17.48l7.67,7.46l0.22-0.23
				l-7.67-7.46l2.62-2.7c1.92-1.98,3.68-3,5.23-3.05c0.06,0,0.12,0,0.17,0c1.48,0,2.81,0.57,3.98,1.71c1.34,1.3,1.92,2.76,1.73,4.33
				c-0.16,1.33-0.75,2.87-1.76,4.59l3.81-3.67c-0.21-0.84-0.58-1.74-1.09-2.66c-0.53-0.94-1.32-1.93-2.35-2.93
				c-0.95-0.93-1.97-1.68-3.03-2.23c-1.05-0.55-2.15-0.85-3.27-0.9c-1.11-0.05-2.26,0.18-3.39,0.66c-1.14,0.48-2.28,1.31-3.4,2.46
				l-1.83,1.88l-3.8-3.7l-0.22,0.23l3.8,3.7l-17.01,17.48c-0.51,0.52-0.98,0.95-1.39,1.28c-0.43,0.33-0.84,0.55-1.23,0.65
				c-0.39,0.1-0.8,0.1-1.21,0C118,514.75,117.75,514.67,117.49,514.56z"/>
		</g>
		<g>
			<path class="st0" d="M164.88,517.11c1.76,1.35,3.14,2.86,4.14,4.55c1,1.68,1.62,3.45,1.85,5.31c0.23,1.86,0.09,3.73-0.44,5.62
				c-0.53,1.89-1.45,3.7-2.78,5.43l-0.03,0.04c-1.33,1.73-2.83,3.1-4.51,4.1c-1.68,1-3.45,1.63-5.31,1.89
				c-1.86,0.26-3.73,0.12-5.61-0.4c-1.89-0.53-3.71-1.47-5.47-2.81c-1.76-1.35-3.14-2.86-4.14-4.54c-1-1.68-1.62-3.45-1.85-5.31
				c-0.24-1.86-0.09-3.73,0.44-5.62c0.53-1.89,1.45-3.7,2.78-5.43l0.03-0.04c1.33-1.73,2.83-3.1,4.51-4.1
				c1.68-1,3.45-1.63,5.31-1.89c1.86-0.26,3.73-0.12,5.61,0.4C161.3,514.82,163.12,515.76,164.88,517.11z M147.32,522.45
				c-1.26,1.65-2.21,3.32-2.85,5.01c-0.64,1.69-0.97,3.32-1,4.9c-0.03,1.57,0.27,3.03,0.9,4.38c0.62,1.35,1.57,2.51,2.83,3.48
				c1.26,0.97,2.63,1.58,4.1,1.83c1.47,0.25,2.95,0.16,4.47-0.28c1.51-0.44,3-1.18,4.46-2.24c1.46-1.06,2.83-2.41,4.09-4.06
				c1.26-1.65,2.21-3.32,2.85-5.01c0.64-1.69,0.97-3.32,0.98-4.87c0.02-1.56-0.29-3.01-0.91-4.36c-0.62-1.35-1.57-2.51-2.83-3.48
				c-1.27-0.97-2.63-1.58-4.1-1.83c-1.47-0.25-2.95-0.16-4.45,0.26c-1.5,0.42-2.98,1.16-4.45,2.22
				C149.95,519.44,148.58,520.8,147.32,522.45z"/>
			<path class="st0" d="M155.98,544.3c-1.27,0-2.54-0.18-3.82-0.53c-1.89-0.53-3.75-1.48-5.51-2.83c-1.76-1.35-3.17-2.89-4.18-4.58
				c-1.01-1.69-1.64-3.5-1.87-5.36c-0.24-1.86-0.09-3.77,0.44-5.67c0.53-1.89,1.47-3.73,2.8-5.47l0.03-0.04
				c1.33-1.74,2.86-3.13,4.55-4.13c1.69-1.01,3.49-1.65,5.35-1.91c1.86-0.26,3.77-0.12,5.66,0.41c1.89,0.53,3.75,1.48,5.51,2.83l0,0
				c1.77,1.35,3.17,2.89,4.18,4.58c1.01,1.69,1.63,3.49,1.87,5.36c0.24,1.87,0.09,3.78-0.44,5.67c-0.53,1.89-1.47,3.73-2.8,5.47
				l-0.03,0.04c-1.33,1.74-2.86,3.13-4.55,4.13c-1.69,1.01-3.49,1.65-5.35,1.91C157.21,544.26,156.6,544.3,155.98,544.3z
				 M155.63,513.89c-0.61,0-1.21,0.04-1.81,0.13c-1.83,0.26-3.6,0.89-5.26,1.87c-1.66,0.99-3.17,2.36-4.48,4.07l-0.03,0.04
				c-1.31,1.71-2.24,3.53-2.76,5.39c-0.52,1.86-0.67,3.74-0.43,5.57c0.23,1.83,0.85,3.6,1.84,5.26c0.99,1.66,2.37,3.18,4.11,4.51
				c1.74,1.33,3.57,2.27,5.43,2.79c1.86,0.52,3.73,0.66,5.56,0.4c1.83-0.25,3.6-0.89,5.26-1.88c1.66-0.99,3.17-2.36,4.48-4.07
				l0.03-0.04c1.31-1.71,2.24-3.52,2.76-5.39c0.52-1.86,0.67-3.73,0.44-5.57c-0.23-1.83-0.85-3.61-1.84-5.26
				c-0.99-1.66-2.37-3.18-4.11-4.51l0,0c-1.74-1.33-3.56-2.27-5.43-2.79C158.13,514.07,156.87,513.89,155.63,513.89z M152.9,542.3
				c-0.55,0-1.09-0.05-1.63-0.14c-1.48-0.25-2.88-0.88-4.15-1.85c-1.28-0.98-2.24-2.16-2.87-3.52c-0.63-1.36-0.94-2.85-0.91-4.44
				c0.03-1.58,0.36-3.24,1.01-4.94c0.64-1.7,1.61-3.39,2.87-5.04c1.26-1.65,2.65-3.03,4.12-4.09c1.47-1.06,2.98-1.82,4.49-2.24
				c1.51-0.43,3.03-0.52,4.5-0.26c1.48,0.25,2.88,0.87,4.15,1.85c1.28,0.98,2.24,2.16,2.87,3.52c0.63,1.36,0.94,2.85,0.92,4.42
				c-0.01,1.56-0.35,3.22-0.99,4.92c-0.64,1.7-1.61,3.39-2.87,5.04c-1.26,1.65-2.65,3.03-4.12,4.09c-1.47,1.06-2.98,1.82-4.5,2.26
				C154.83,542.16,153.86,542.3,152.9,542.3z M158.67,515.89c-0.92,0-1.85,0.13-2.78,0.39c-1.48,0.41-2.96,1.16-4.41,2.2
				c-1.45,1.05-2.82,2.41-4.07,4.04l0,0c-1.25,1.63-2.2,3.31-2.84,4.98c-0.63,1.67-0.96,3.3-0.99,4.85c-0.03,1.55,0.27,3,0.89,4.33
				c0.61,1.33,1.55,2.48,2.8,3.43c1.24,0.95,2.6,1.56,4.04,1.8c1.44,0.24,2.93,0.15,4.41-0.28c1.49-0.43,2.98-1.18,4.43-2.22
				c1.45-1.05,2.82-2.41,4.07-4.04c1.25-1.63,2.2-3.31,2.84-4.98c0.63-1.67,0.96-3.3,0.97-4.83c0.02-1.53-0.29-2.98-0.9-4.31
				c-0.61-1.32-1.55-2.48-2.8-3.43c-1.24-0.95-2.6-1.56-4.04-1.8C159.76,515.93,159.21,515.89,158.67,515.89z"/>
		</g>
		<g>
			<path class="st0" d="M166.21,554.33c0.56,0.13,1.05,0.2,1.45,0.2c0.4,0,0.78-0.09,1.13-0.27c0.35-0.18,0.68-0.47,1.01-0.88
				c0.32-0.41,0.67-0.93,1.05-1.55l9.81-16.47c0.37-0.63,0.67-1.18,0.9-1.67c0.23-0.49,0.41-0.94,0.53-1.35
				c0.12-0.41,0.19-0.81,0.2-1.21s-0.01-0.81-0.07-1.25l4.75,2.28l-3.56,5.98c0.85-0.62,1.72-1.15,2.59-1.6
				c0.87-0.45,1.76-0.76,2.68-0.94c0.91-0.18,1.85-0.19,2.82-0.01c0.96,0.17,1.95,0.56,2.97,1.16c0.95,0.57,1.74,1.18,2.36,1.83
				l-2.6,4.26c-0.07-0.49-0.19-1.02-0.35-1.6c-0.16-0.58-0.36-1.14-0.6-1.69c-0.24-0.55-0.52-1.05-0.86-1.51
				c-0.33-0.46-0.74-0.83-1.21-1.11c-0.6-0.35-1.24-0.53-1.92-0.54c-0.68,0-1.39,0.11-2.11,0.34c-0.72,0.23-1.46,0.58-2.22,1.04
				c-0.76,0.46-1.49,0.98-2.2,1.56l-8.62,14.46c-0.37,0.62-0.65,1.18-0.83,1.65c-0.18,0.48-0.27,0.92-0.27,1.32
				c0,0.4,0.1,0.78,0.29,1.14c0.19,0.36,0.47,0.74,0.82,1.16L166.21,554.33z"/>
			<path class="st0" d="M174.75,559.56l-9.31-5.55l0.8,0.19c0.55,0.13,1.02,0.2,1.42,0.2c0,0,0.01,0,0.01,0
				c0.38,0,0.74-0.09,1.07-0.25c0.33-0.17,0.65-0.45,0.97-0.85c0.32-0.4,0.67-0.92,1.04-1.54l9.81-16.47
				c0.38-0.64,0.67-1.18,0.9-1.66c0.23-0.48,0.4-0.93,0.53-1.33c0.12-0.4,0.19-0.79,0.2-1.18c0.01-0.39-0.01-0.8-0.07-1.23
				l-0.03-0.23l5.08,2.44l-3.33,5.59c0.7-0.48,1.41-0.91,2.12-1.27c0.88-0.45,1.79-0.77,2.71-0.96c0.93-0.18,1.89-0.19,2.87-0.01
				c0.98,0.17,1.99,0.57,3.01,1.18c0.96,0.57,1.76,1.19,2.38,1.85l0.07,0.07l-2.83,4.63l-0.05-0.34c-0.07-0.48-0.19-1.01-0.35-1.58
				c-0.15-0.56-0.35-1.13-0.59-1.67c-0.24-0.53-0.52-1.03-0.84-1.48c-0.32-0.44-0.71-0.81-1.17-1.08c-0.57-0.34-1.2-0.52-1.85-0.52
				c-0.67-0.02-1.37,0.11-2.07,0.34c-0.71,0.23-1.45,0.57-2.19,1.02c-0.74,0.45-1.47,0.96-2.17,1.54l-8.6,14.44
				c-0.37,0.62-0.65,1.17-0.82,1.63c-0.18,0.46-0.27,0.89-0.26,1.27c0,0.38,0.09,0.75,0.27,1.08c0.18,0.35,0.46,0.73,0.81,1.13
				L174.75,559.56z M166.89,554.59l6.73,4.01c-0.16-0.22-0.3-0.43-0.41-0.64c-0.2-0.37-0.3-0.77-0.3-1.2c0-0.42,0.09-0.88,0.28-1.36
				c0.18-0.48,0.47-1.04,0.84-1.67l8.64-14.49c0.72-0.59,1.46-1.12,2.22-1.57c0.76-0.46,1.51-0.81,2.25-1.05
				c0.73-0.24,1.46-0.34,2.15-0.35c0.7,0,1.37,0.19,1.98,0.55c0.49,0.29,0.91,0.68,1.25,1.15c0.33,0.46,0.63,0.98,0.87,1.53
				c0.24,0.56,0.45,1.13,0.6,1.7c0.12,0.45,0.22,0.88,0.3,1.28l2.37-3.89c-0.6-0.62-1.36-1.2-2.27-1.74
				c-0.99-0.59-1.98-0.98-2.92-1.15c-0.95-0.17-1.88-0.17-2.77,0.01c-0.9,0.18-1.79,0.49-2.65,0.93s-1.73,0.98-2.57,1.59l-0.49,0.36
				l3.8-6.39l-4.42-2.13c0.04,0.36,0.05,0.71,0.04,1.04c-0.01,0.4-0.08,0.82-0.21,1.24c-0.12,0.41-0.31,0.87-0.54,1.36
				c-0.23,0.49-0.53,1.04-0.91,1.68l-9.81,16.47c-0.37,0.63-0.73,1.16-1.06,1.57c-0.34,0.42-0.69,0.73-1.05,0.92
				c-0.36,0.18-0.76,0.28-1.18,0.28C167.43,554.64,167.17,554.63,166.89,554.59z"/>
		</g>
		<g>
			<path class="st0" d="M225.78,544.59c-0.16,0.05-0.34,0.15-0.52,0.31c-0.18,0.15-0.34,0.36-0.47,0.63
				c-0.13,0.27-0.2,0.61-0.2,1.03c0,0.42,0.06,0.95,0.2,1.59l4.37,18.17l12.91-9.57c1.16-0.87,1.98-1.6,2.46-2.18
				c0.48-0.58,0.8-1.07,0.94-1.46c0.14-0.39,0.16-0.71,0.06-0.94c-0.1-0.24-0.17-0.44-0.23-0.6l4.55,1.63
				c-0.47-0.02-1.14,0.18-2.01,0.61c-0.87,0.43-1.95,1.11-3.24,2.04l-15.21,11.23l-3.9,10.91c-0.5,1.4-0.67,2.46-0.5,3.16
				c0.17,0.7,0.7,1.4,1.6,2.09l-9-3.22c1.15,0.08,2.01-0.11,2.58-0.57c0.57-0.46,1.1-1.39,1.6-2.79l3.74-10.47l-4.29-17.64
				c-0.48-2.05-0.92-3.54-1.32-4.47c-0.4-0.93-0.79-1.6-1.17-1.99L225.78,544.59z"/>
			<path class="st0" d="M227.29,583.62l-10.6-3.79l0.9,0.06c1.11,0.07,1.95-0.11,2.49-0.54c0.55-0.44,1.07-1.36,1.57-2.74
				l3.73-10.43l-4.28-17.61c-0.48-2.02-0.92-3.52-1.32-4.45c-0.4-0.92-0.78-1.57-1.14-1.95l-0.36-0.38l7.9,2.82l-0.36,0.11
				c-0.15,0.05-0.31,0.14-0.48,0.29c-0.17,0.14-0.32,0.34-0.44,0.59c-0.12,0.25-0.19,0.58-0.19,0.98c0,0.41,0.06,0.94,0.2,1.56
				l4.33,17.99l12.76-9.45c1.14-0.86,1.97-1.59,2.44-2.16c0.47-0.57,0.78-1.04,0.91-1.42c0.13-0.36,0.15-0.65,0.06-0.85
				c-0.1-0.23-0.18-0.44-0.23-0.62l-0.07-0.24l5.56,1.99l-0.83-0.04c-0.45-0.03-1.1,0.18-1.95,0.59c-0.86,0.42-1.94,1.1-3.22,2.03
				l-15.18,11.2l-3.89,10.87c-0.49,1.37-0.66,2.41-0.49,3.09c0.16,0.67,0.69,1.35,1.55,2.02L227.29,583.62z M218.34,580.15
				l7.64,2.73c-0.6-0.56-0.97-1.13-1.11-1.71c-0.18-0.73-0.01-1.81,0.5-3.23l3.91-10.95l0.03-0.02l15.21-11.23
				c1.29-0.93,2.39-1.63,3.26-2.05c0.59-0.29,1.09-0.48,1.5-0.56l-3.78-1.35c0.04,0.11,0.09,0.23,0.14,0.35
				c0.11,0.27,0.09,0.62-0.06,1.03c-0.15,0.41-0.47,0.91-0.96,1.5c-0.49,0.59-1.32,1.33-2.48,2.2l-13.06,9.68l-0.04-0.18
				l-4.37-18.17c-0.14-0.64-0.21-1.19-0.21-1.62c0-0.44,0.08-0.8,0.22-1.09c0.14-0.28,0.31-0.5,0.5-0.67
				c0.09-0.08,0.18-0.14,0.27-0.2l-6.33-2.26c0.29,0.4,0.59,0.96,0.9,1.67c0.4,0.95,0.85,2.46,1.33,4.49l4.3,17.68l-0.01,0.04
				l-3.74,10.47c-0.51,1.44-1.05,2.37-1.64,2.85C219.78,579.91,219.15,580.11,218.34,580.15z"/>
		</g>
		<g>
			<path class="st0" d="M267.09,563.4c2.17,0.43,4.08,1.18,5.73,2.24c1.64,1.07,2.98,2.38,4.02,3.94c1.03,1.56,1.73,3.31,2.09,5.23
				s0.33,3.96-0.09,6.1l-0.01,0.05c-0.42,2.14-1.17,4.03-2.23,5.68c-1.07,1.64-2.37,2.99-3.92,4.05c-1.55,1.05-3.29,1.76-5.21,2.12
				c-1.93,0.36-3.98,0.33-6.15-0.1c-2.18-0.43-4.08-1.18-5.73-2.24c-1.64-1.07-2.98-2.38-4.02-3.94c-1.03-1.56-1.73-3.31-2.09-5.23
				c-0.36-1.92-0.33-3.96,0.09-6.1l0.01-0.05c0.42-2.14,1.17-4.03,2.23-5.68c1.07-1.64,2.37-2.99,3.92-4.05
				c1.55-1.05,3.29-1.76,5.21-2.12C262.87,562.93,264.92,562.97,267.09,563.4z M253.71,575.96c-0.4,2.04-0.52,3.96-0.34,5.76
				c0.17,1.8,0.6,3.41,1.27,4.83c0.67,1.42,1.59,2.6,2.75,3.53c1.16,0.93,2.52,1.56,4.08,1.86c1.56,0.31,3.06,0.25,4.48-0.18
				c1.43-0.43,2.72-1.17,3.88-2.23c1.16-1.06,2.17-2.39,3.01-3.99c0.84-1.6,1.47-3.42,1.87-5.46c0.4-2.04,0.52-3.96,0.34-5.76
				c-0.17-1.8-0.6-3.4-1.28-4.81c-0.68-1.4-1.59-2.57-2.75-3.51c-1.16-0.93-2.52-1.56-4.08-1.86c-1.56-0.31-3.06-0.25-4.48,0.18
				c-1.43,0.43-2.72,1.16-3.88,2.2c-1.16,1.04-2.16,2.36-3,3.96C254.73,572.1,254.11,573.92,253.71,575.96z"/>
			<path class="st0" d="M264.74,593.18c-1.12,0-2.27-0.12-3.45-0.35c-2.18-0.43-4.12-1.19-5.77-2.26c-1.65-1.07-3.01-2.41-4.05-3.98
				c-1.04-1.57-1.75-3.34-2.11-5.28c-0.36-1.93-0.33-4,0.09-6.15l0.01-0.05c0.42-2.15,1.18-4.07,2.25-5.72
				c1.07-1.65,2.4-3.02,3.96-4.08c1.56-1.06,3.33-1.78,5.26-2.14c1.93-0.36,4.02-0.33,6.2,0.1h0c2.18,0.43,4.12,1.19,5.77,2.26
				c1.65,1.07,3.01,2.41,4.05,3.98c1.04,1.57,1.75,3.35,2.11,5.28c0.36,1.93,0.33,4-0.09,6.15l-0.01,0.05
				c-0.42,2.15-1.18,4.07-2.25,5.72c-1.07,1.65-2.4,3.02-3.96,4.08c-1.56,1.06-3.33,1.78-5.26,2.14
				C266.6,593.1,265.69,593.18,264.74,593.18z M263.66,563.17c-0.93,0-1.83,0.08-2.7,0.25c-1.9,0.36-3.63,1.06-5.16,2.1
				c-1.53,1.04-2.84,2.39-3.89,4.01c-1.05,1.62-1.8,3.52-2.21,5.63l-0.01,0.05c-0.42,2.11-0.45,4.15-0.09,6.05
				c0.36,1.9,1.06,3.65,2.07,5.19c1.02,1.54,2.36,2.85,3.98,3.91c1.62,1.05,3.53,1.8,5.68,2.22c2.15,0.42,4.2,0.46,6.1,0.1
				c1.9-0.36,3.64-1.06,5.16-2.1c1.53-1.04,2.84-2.39,3.89-4.01c1.05-1.62,1.8-3.52,2.21-5.63l0.01-0.05
				c0.42-2.11,0.45-4.15,0.09-6.05c-0.36-1.9-1.05-3.64-2.07-5.19c-1.02-1.54-2.36-2.86-3.98-3.91c-1.62-1.05-3.53-1.8-5.68-2.22
				l0,0C265.9,563.29,264.76,563.17,263.66,563.17z M263.4,592.26c-0.64,0-1.29-0.07-1.96-0.2c-1.58-0.31-2.97-0.95-4.14-1.89
				c-1.17-0.94-2.1-2.15-2.78-3.58c-0.68-1.43-1.11-3.07-1.28-4.87c-0.18-1.8-0.06-3.75,0.34-5.79l0.12,0.02l-0.12-0.02
				c0.4-2.04,1.04-3.89,1.88-5.49c0.85-1.6,1.87-2.95,3.03-4c1.17-1.05,2.49-1.8,3.92-2.23c1.44-0.43,2.96-0.49,4.54-0.18
				c1.57,0.31,2.97,0.95,4.14,1.89c1.17,0.94,2.1,2.14,2.78,3.55c0.68,1.41,1.11,3.04,1.29,4.85c0.18,1.8,0.06,3.75-0.34,5.79
				c-0.4,2.04-1.04,3.89-1.88,5.49c-0.85,1.6-1.87,2.96-3.04,4.02c-1.17,1.07-2.49,1.83-3.93,2.25
				C265.15,592.14,264.28,592.26,263.4,592.26z M265.01,564.09c-0.86,0-1.7,0.12-2.52,0.36c-1.4,0.42-2.69,1.15-3.83,2.17
				c-1.14,1.03-2.14,2.35-2.98,3.93c-0.84,1.58-1.46,3.41-1.86,5.42c-0.4,2.02-0.51,3.94-0.34,5.72c0.17,1.78,0.6,3.39,1.26,4.79
				c0.66,1.4,1.57,2.57,2.71,3.49c1.13,0.92,2.49,1.54,4.03,1.84c1.54,0.3,3.02,0.24,4.42-0.17c1.4-0.42,2.69-1.16,3.83-2.2
				c1.15-1.05,2.15-2.38,2.98-3.95c0.83-1.58,1.46-3.41,1.86-5.42c0.4-2.02,0.51-3.94,0.34-5.72c-0.17-1.78-0.6-3.38-1.26-4.76
				c-0.67-1.38-1.58-2.55-2.72-3.46c-1.14-0.92-2.49-1.54-4.03-1.84C266.27,564.16,265.64,564.09,265.01,564.09z"/>
		</g>
		<g>
			<path class="st0" d="M287.14,567.27l5.32-0.16l-1.21,21.06c-0.08,1.49,0,2.75,0.25,3.79c0.25,1.04,0.64,1.89,1.18,2.57
				c0.53,0.67,1.2,1.17,2,1.49c0.8,0.32,1.68,0.51,2.65,0.57c1.56,0.09,2.93-0.19,4.11-0.83c1.18-0.64,2.18-1.5,3.01-2.56
				c0.82-1.06,1.48-2.26,1.98-3.58c0.49-1.32,0.79-2.63,0.9-3.9l0.67-11.72c0.04-0.73,0.05-1.36,0.03-1.9
				c-0.02-0.54-0.07-1.02-0.15-1.44c-0.08-0.42-0.2-0.81-0.37-1.17c-0.17-0.36-0.38-0.72-0.64-1.08l5.32-0.16l-1.41,24.48
				c-0.09,1.52-0.03,2.64,0.17,3.37c0.2,0.72,0.53,1.34,0.99,1.85l-5.09-0.14l0.45-7.83c-0.59,1.21-1.22,2.29-1.88,3.22
				c-0.66,0.93-1.41,1.72-2.24,2.37c-0.84,0.65-1.79,1.12-2.87,1.42c-1.08,0.3-2.31,0.41-3.69,0.33c-2.97-0.17-5.29-1.05-6.95-2.64
				c-1.66-1.59-2.4-3.92-2.23-7l0.85-14.84c0.04-0.73,0.05-1.36,0.03-1.9c-0.02-0.54-0.07-1.02-0.15-1.44
				c-0.08-0.42-0.2-0.81-0.37-1.17C287.61,567.99,287.39,567.63,287.14,567.27z"/>
			<path class="st0" d="M312.2,598.07l-5.51-0.15l0.42-7.35c-0.51,1-1.05,1.9-1.61,2.7c-0.67,0.94-1.43,1.75-2.27,2.4
				c-0.84,0.65-1.82,1.14-2.91,1.44c-1.09,0.31-2.34,0.42-3.73,0.34c-2.99-0.17-5.36-1.07-7.03-2.67c-1.68-1.61-2.44-3.99-2.26-7.09
				l0.85-14.84c0.04-0.71,0.05-1.35,0.03-1.88c-0.02-0.53-0.07-1.01-0.15-1.42c-0.08-0.41-0.2-0.79-0.36-1.14
				c-0.17-0.35-0.38-0.7-0.63-1.06l-0.13-0.19l5.69-0.17l-1.22,21.2c-0.08,1.47,0,2.73,0.25,3.75c0.25,1.02,0.64,1.86,1.16,2.52
				c0.52,0.65,1.17,1.14,1.95,1.46c0.78,0.32,1.66,0.5,2.61,0.56c1.53,0.09,2.89-0.19,4.04-0.82c1.16-0.63,2.16-1.48,2.97-2.53
				c0.81-1.05,1.47-2.24,1.96-3.55c0.49-1.31,0.79-2.61,0.89-3.87l0.67-11.72c0.04-0.72,0.05-1.35,0.03-1.89
				c-0.02-0.53-0.07-1.01-0.15-1.42c-0.08-0.41-0.2-0.79-0.36-1.14c-0.17-0.35-0.38-0.7-0.63-1.06l-0.13-0.19l5.69-0.17l-1.41,24.62
				c-0.09,1.5-0.03,2.62,0.17,3.33c0.19,0.7,0.52,1.31,0.96,1.8L312.2,598.07z M306.96,597.68l4.69,0.13
				c-0.38-0.48-0.66-1.05-0.83-1.69c-0.2-0.73-0.26-1.88-0.18-3.41l1.4-24.35l-4.95,0.15c0.2,0.3,0.38,0.61,0.52,0.91
				c0.17,0.37,0.3,0.77,0.38,1.2c0.08,0.42,0.13,0.92,0.15,1.46c0.02,0.54,0.01,1.19-0.03,1.91l-0.67,11.72
				c-0.11,1.29-0.41,2.61-0.91,3.94c-0.49,1.33-1.17,2.55-1.99,3.62c-0.83,1.07-1.86,1.94-3.05,2.59c-1.2,0.65-2.6,0.93-4.17,0.85
				c-0.98-0.06-1.88-0.25-2.69-0.58c-0.81-0.33-1.5-0.84-2.05-1.53c-0.54-0.68-0.95-1.56-1.2-2.61c-0.25-1.04-0.34-2.33-0.26-3.82
				l1.2-20.92l-4.95,0.15c0.2,0.3,0.38,0.61,0.52,0.91c0.17,0.36,0.3,0.77,0.38,1.2c0.08,0.42,0.13,0.92,0.15,1.46
				c0.02,0.55,0.01,1.19-0.03,1.91l-0.85,14.84c-0.17,3.03,0.56,5.35,2.19,6.9c1.63,1.56,3.94,2.43,6.87,2.6
				c1.36,0.08,2.59-0.03,3.65-0.33c1.06-0.3,2.01-0.77,2.82-1.4c0.82-0.63,1.57-1.42,2.22-2.34c0.65-0.93,1.28-2.01,1.87-3.21
				l0.27-0.56L306.96,597.68z"/>
		</g>
		<g>
			<path class="st0" d="M320.89,597.71c0.54-0.2,0.98-0.42,1.32-0.64c0.33-0.23,0.6-0.51,0.79-0.85c0.19-0.34,0.3-0.77,0.35-1.29
				c0.04-0.52,0.04-1.15,0-1.87l-1.05-19.14c-0.04-0.73-0.1-1.36-0.18-1.89c-0.08-0.53-0.18-1.01-0.31-1.41
				c-0.13-0.41-0.29-0.78-0.5-1.12c-0.21-0.34-0.46-0.67-0.76-1l5.21-0.75l0.38,6.95c0.36-0.99,0.78-1.92,1.25-2.77
				c0.47-0.86,1.04-1.62,1.7-2.28s1.44-1.19,2.33-1.58c0.9-0.4,1.93-0.63,3.11-0.69c1.11-0.06,2.1,0.01,2.98,0.2l0.22,4.98
				c-0.33-0.36-0.73-0.74-1.18-1.13c-0.45-0.39-0.93-0.75-1.44-1.07c-0.5-0.32-1.02-0.58-1.55-0.77c-0.53-0.2-1.07-0.28-1.63-0.25
				c-0.69,0.04-1.32,0.25-1.89,0.62c-0.57,0.38-1.09,0.87-1.56,1.46c-0.47,0.6-0.89,1.3-1.26,2.1c-0.37,0.8-0.69,1.64-0.96,2.52
				l0.92,16.81c0.04,0.73,0.12,1.34,0.23,1.83c0.11,0.5,0.28,0.91,0.51,1.25c0.23,0.33,0.52,0.6,0.88,0.78
				c0.36,0.19,0.8,0.36,1.33,0.5L320.89,597.71z"/>
			<path class="st0" d="M320.08,597.88l0.76-0.29c0.53-0.2,0.97-0.41,1.29-0.63c0.32-0.22,0.57-0.49,0.75-0.81
				c0.18-0.32,0.29-0.74,0.33-1.24c0.04-0.52,0.04-1.14,0-1.86l-1.05-19.14c-0.04-0.72-0.1-1.35-0.18-1.88
				c-0.08-0.53-0.18-1-0.31-1.4c-0.12-0.39-0.29-0.76-0.49-1.09c-0.2-0.32-0.45-0.66-0.74-0.98l-0.15-0.17l5.58-0.81l0.01,0.14
				l0.35,6.36c0.31-0.79,0.67-1.54,1.05-2.24c0.48-0.87,1.06-1.64,1.72-2.31c0.66-0.67,1.46-1.21,2.37-1.61
				c0.91-0.4,1.97-0.64,3.15-0.7c1.11-0.06,2.12,0.01,3.01,0.2l0.09,0.02l0.24,5.42l-0.23-0.25c-0.33-0.36-0.72-0.74-1.17-1.12
				c-0.45-0.38-0.92-0.74-1.42-1.06c-0.49-0.31-1.01-0.57-1.53-0.76c-0.51-0.19-1.04-0.27-1.58-0.24c-0.66,0.04-1.28,0.24-1.83,0.6
				c-0.56,0.37-1.07,0.85-1.53,1.44c-0.46,0.59-0.88,1.28-1.25,2.07c-0.36,0.78-0.68,1.62-0.94,2.49l0.92,16.79
				c0.04,0.71,0.11,1.32,0.23,1.81c0.11,0.48,0.27,0.88,0.49,1.21c0.22,0.32,0.49,0.57,0.83,0.74c0.35,0.18,0.79,0.35,1.3,0.49
				l0.75,0.2L320.08,597.88z M320.79,568.58c0.24,0.28,0.44,0.56,0.62,0.84c0.22,0.35,0.39,0.73,0.52,1.15
				c0.13,0.41,0.23,0.89,0.32,1.43c0.08,0.53,0.14,1.17,0.18,1.9l1.05,19.14c0.04,0.73,0.04,1.36,0,1.89
				c-0.04,0.54-0.16,0.99-0.36,1.35c-0.2,0.35-0.47,0.65-0.83,0.89c-0.19,0.13-0.41,0.26-0.67,0.38l7.83-0.43
				c-0.26-0.09-0.49-0.19-0.69-0.3c-0.37-0.2-0.68-0.47-0.92-0.82c-0.24-0.35-0.41-0.78-0.53-1.29c-0.11-0.5-0.19-1.13-0.23-1.85
				l-0.92-16.83l0.01-0.02c0.27-0.89,0.59-1.74,0.96-2.54c0.38-0.81,0.81-1.52,1.28-2.12c0.48-0.61,1.01-1.11,1.59-1.49
				c0.59-0.39,1.24-0.61,1.95-0.64c0.57-0.03,1.13,0.06,1.68,0.26c0.54,0.2,1.07,0.46,1.57,0.79c0.51,0.32,1,0.69,1.45,1.08
				c0.36,0.31,0.68,0.61,0.96,0.9l-0.2-4.55c-0.84-0.18-1.8-0.23-2.85-0.18c-1.15,0.06-2.19,0.29-3.07,0.68
				c-0.88,0.39-1.65,0.91-2.29,1.56c-0.64,0.65-1.21,1.4-1.68,2.25c-0.47,0.85-0.89,1.78-1.25,2.76l-0.21,0.57l-0.4-7.42
				L320.79,568.58z"/>
		</g>
		<g>
			<path class="st0" d="M346.61,593.22l-0.7-9.83c0.57,2.3,1.26,4.17,2.06,5.62c0.81,1.45,1.7,2.56,2.68,3.34
				c0.98,0.78,2.04,1.27,3.18,1.47c1.14,0.21,2.32,0.21,3.55,0.02c2.57-0.4,4.36-1.31,5.38-2.74c1.02-1.42,1.39-3.02,1.12-4.8
				c-0.16-1.03-0.48-1.86-0.97-2.5c-0.49-0.64-1.03-1.15-1.63-1.53c-0.6-0.38-1.23-0.65-1.89-0.81c-0.66-0.16-1.25-0.29-1.79-0.38
				l-5.78-0.99c-0.57-0.08-1.23-0.25-1.97-0.51c-0.74-0.25-1.46-0.62-2.17-1.11c-0.71-0.48-1.34-1.11-1.9-1.89
				c-0.56-0.77-0.93-1.72-1.1-2.85c-0.35-2.26,0.21-4.17,1.68-5.73s3.6-2.56,6.37-3c1.88-0.3,3.65-0.27,5.3,0.06
				c1.65,0.34,3.11,0.91,4.4,1.73l0.73,6.99c-1.38-3.22-2.88-5.46-4.5-6.71c-1.62-1.25-3.59-1.7-5.92-1.33
				c-1.85,0.29-3.32,0.97-4.41,2.03c-1.1,1.07-1.5,2.51-1.22,4.32c0.13,0.82,0.41,1.48,0.84,1.97c0.43,0.49,0.92,0.88,1.47,1.16
				c0.55,0.28,1.14,0.49,1.75,0.62c0.62,0.13,1.2,0.24,1.73,0.33l5.24,0.86c0.68,0.1,1.47,0.28,2.37,0.52
				c0.9,0.25,1.77,0.63,2.62,1.14c0.85,0.52,1.61,1.2,2.27,2.06c0.66,0.86,1.1,1.98,1.31,3.34c0.2,1.27,0.14,2.47-0.17,3.6
				c-0.31,1.14-0.87,2.17-1.67,3.1c-0.8,0.93-1.84,1.73-3.12,2.38c-1.28,0.66-2.81,1.12-4.59,1.4c-1.95,0.31-3.86,0.34-5.74,0.11
				C349.52,594.5,347.92,593.99,346.61,593.22z"/>
			<path class="st0" d="M353.84,595c-0.83,0-1.65-0.05-2.46-0.15c-1.89-0.23-3.51-0.75-4.83-1.53l-0.06-0.03l0-0.07l-0.7-9.83
				l0.25-0.04c0.56,2.28,1.25,4.16,2.05,5.59c0.8,1.43,1.69,2.54,2.65,3.3c0.96,0.76,2.01,1.25,3.12,1.45
				c1.11,0.2,2.3,0.21,3.51,0.02c2.52-0.39,4.3-1.3,5.3-2.69c1-1.39,1.37-2.97,1.09-4.71c-0.16-1-0.48-1.82-0.95-2.45
				c-0.48-0.63-1.02-1.13-1.6-1.5c-0.59-0.37-1.21-0.64-1.85-0.79c-0.65-0.16-1.25-0.28-1.79-0.37l-5.78-0.99
				c-0.57-0.08-1.24-0.26-1.99-0.51c-0.75-0.26-1.49-0.63-2.2-1.12c-0.72-0.49-1.37-1.14-1.93-1.91c-0.57-0.78-0.95-1.76-1.13-2.9
				c-0.36-2.29,0.22-4.25,1.71-5.84c1.49-1.58,3.65-2.6,6.44-3.03c1.89-0.3,3.68-0.27,5.34,0.07c1.66,0.34,3.15,0.93,4.44,1.75
				l0.05,0.03l0.82,7.86l-0.32-0.76c-1.37-3.19-2.87-5.43-4.46-6.66c-1.58-1.23-3.54-1.67-5.82-1.31c-1.81,0.28-3.28,0.96-4.35,2
				c-1.06,1.03-1.46,2.45-1.18,4.21c0.12,0.8,0.4,1.44,0.81,1.91c0.41,0.48,0.9,0.86,1.43,1.13c0.54,0.28,1.12,0.48,1.72,0.61
				c0.59,0.13,1.17,0.24,1.73,0.33l5.24,0.86c0.68,0.1,1.48,0.28,2.38,0.53c0.9,0.25,1.8,0.64,2.66,1.15
				c0.86,0.52,1.64,1.23,2.3,2.09c0.67,0.87,1.12,2.02,1.34,3.4c0.2,1.28,0.14,2.51-0.17,3.66c-0.32,1.15-0.89,2.21-1.7,3.15
				c-0.81,0.94-1.87,1.75-3.16,2.41c-1.29,0.66-2.85,1.14-4.63,1.42C356.04,594.92,354.93,595,353.84,595z M346.73,593.14
				c1.28,0.74,2.85,1.24,4.68,1.46c1.86,0.23,3.78,0.19,5.71-0.11c1.76-0.28,3.29-0.74,4.55-1.39c1.26-0.64,2.3-1.44,3.09-2.35
				c0.78-0.91,1.34-1.94,1.64-3.05c0.31-1.12,0.36-2.31,0.17-3.55c-0.21-1.34-0.64-2.45-1.29-3.29c-0.65-0.84-1.4-1.53-2.23-2.03
				c-0.84-0.51-1.71-0.88-2.59-1.13c-0.89-0.24-1.69-0.42-2.36-0.52l-5.24-0.86c-0.56-0.09-1.15-0.21-1.74-0.34
				c-0.62-0.13-1.22-0.34-1.78-0.63c-0.57-0.29-1.07-0.69-1.51-1.19c-0.44-0.51-0.73-1.19-0.86-2.03c-0.29-1.85,0.13-3.34,1.25-4.43
				c1.11-1.08,2.62-1.77,4.48-2.07c2.35-0.37,4.37,0.09,6.01,1.36c1.5,1.16,2.92,3.19,4.21,6.03l-0.64-6.14
				c-1.25-0.79-2.7-1.35-4.31-1.68c-1.63-0.33-3.39-0.35-5.25-0.06c-2.73,0.43-4.85,1.42-6.3,2.96c-1.44,1.53-1.99,3.42-1.65,5.63
				c0.17,1.11,0.54,2.05,1.08,2.8c0.55,0.76,1.17,1.38,1.87,1.86c0.69,0.48,1.41,0.84,2.14,1.09c0.73,0.25,1.39,0.42,1.95,0.5
				l5.79,0.99c0.54,0.09,1.15,0.22,1.8,0.38c0.66,0.16,1.31,0.44,1.92,0.82c0.61,0.38,1.17,0.91,1.67,1.56
				c0.5,0.66,0.83,1.52,0.99,2.56c0.28,1.8-0.1,3.45-1.14,4.89c-1.04,1.44-2.88,2.38-5.46,2.79c-1.24,0.19-2.45,0.19-3.6-0.02
				c-1.15-0.21-2.24-0.71-3.23-1.5c-0.99-0.78-1.9-1.92-2.71-3.38c-0.65-1.18-1.24-2.65-1.74-4.38L346.73,593.14z"/>
		</g>
		<g>
			<path class="st0" d="M382.4,558.56c2-0.56,3.82-0.77,5.47-0.62c1.64,0.15,3.09,0.6,4.35,1.36c1.26,0.76,2.33,1.77,3.2,3.04
				c0.88,1.26,1.57,2.73,2.07,4.38l-21.05,5.94c0.07,0.52,0.17,1.04,0.28,1.57c0.11,0.53,0.24,1.06,0.39,1.59
				c0.54,1.9,1.29,3.6,2.28,5.11c0.98,1.51,2.1,2.73,3.36,3.67c1.26,0.94,2.61,1.58,4.07,1.9c1.46,0.33,2.94,0.28,4.44-0.15
				c1.33-0.38,2.47-0.96,3.42-1.75c0.95-0.79,1.74-1.76,2.39-2.91c0.64-1.15,1.15-2.46,1.52-3.91c0.36-1.45,0.6-3,0.71-4.65
				l1.59,7.38c-1.12,1.65-2.53,3.03-4.23,4.14c-1.7,1.11-3.44,1.91-5.2,2.41c-2.1,0.59-4.13,0.8-6.09,0.61
				c-1.96-0.18-3.76-0.71-5.39-1.58c-1.63-0.87-3.05-2.09-4.24-3.66c-1.2-1.57-2.1-3.42-2.7-5.55c-0.59-2.1-0.83-4.12-0.71-6.06
				c0.12-1.94,0.58-3.73,1.38-5.35c0.8-1.63,1.92-3.03,3.37-4.22C378.52,560.04,380.3,559.15,382.4,558.56z M376.37,572.03
				l17.05-4.81c-0.45-1.46-1.03-2.75-1.74-3.88c-0.72-1.13-1.54-2.07-2.47-2.81c-0.93-0.74-1.96-1.24-3.09-1.48
				c-1.13-0.24-2.33-0.18-3.59,0.18c-1.2,0.34-2.23,0.9-3.09,1.68c-0.86,0.78-1.55,1.74-2.08,2.88c-0.52,1.14-0.87,2.4-1.03,3.8
				C376.17,568.98,376.18,570.46,376.37,572.03z"/>
			<path class="st0" d="M386.77,587.85c-0.48,0-0.95-0.02-1.41-0.07c-1.97-0.18-3.8-0.72-5.43-1.6c-1.64-0.88-3.08-2.12-4.28-3.7
				c-1.2-1.57-2.12-3.46-2.72-5.6c-0.59-2.1-0.83-4.16-0.72-6.1c0.12-1.95,0.59-3.77,1.39-5.4c0.8-1.64,1.95-3.07,3.41-4.26
				c1.45-1.19,3.26-2.09,5.37-2.69h0c2.01-0.57,3.86-0.77,5.51-0.63c1.65,0.15,3.14,0.61,4.41,1.38c1.27,0.77,2.36,1.8,3.24,3.07
				c0.88,1.27,1.58,2.76,2.09,4.42l0.04,0.12l-0.12,0.03l-20.95,5.91c0.07,0.48,0.16,0.97,0.26,1.45c0.11,0.51,0.24,1.02,0.39,1.58
				c0.53,1.88,1.29,3.59,2.26,5.07c0.97,1.49,2.09,2.71,3.33,3.64c1.24,0.93,2.59,1.56,4.02,1.88c1.43,0.32,2.91,0.27,4.38-0.14
				c1.31-0.37,2.45-0.95,3.37-1.72c0.93-0.77,1.73-1.74,2.36-2.88c0.64-1.14,1.14-2.45,1.5-3.88c0.36-1.44,0.6-3,0.71-4.63
				l0.06-0.89l1.79,8.3l-0.03,0.04c-1.12,1.65-2.56,3.06-4.27,4.17c-1.71,1.11-3.47,1.93-5.24,2.43
				C389.89,587.62,388.3,587.85,386.77,587.85z M382.43,558.68c-2.07,0.59-3.85,1.47-5.28,2.64c-1.43,1.17-2.55,2.57-3.34,4.18
				c-0.79,1.61-1.25,3.39-1.37,5.31c-0.12,1.92,0.12,3.94,0.71,6.02c0.6,2.11,1.5,3.96,2.68,5.51c1.18,1.55,2.6,2.77,4.2,3.63
				c1.61,0.86,3.41,1.39,5.34,1.57c1.94,0.18,3.97-0.02,6.04-0.61c1.75-0.49,3.49-1.3,5.17-2.4c1.66-1.08,3.07-2.45,4.17-4.06
				l-1.41-6.5c-0.13,1.34-0.34,2.63-0.65,3.83c-0.37,1.45-0.88,2.78-1.53,3.94c-0.65,1.16-1.47,2.15-2.42,2.95
				c-0.96,0.8-2.12,1.39-3.47,1.77c-1.51,0.43-3.03,0.48-4.5,0.15c-1.47-0.33-2.85-0.97-4.12-1.92c-1.26-0.95-2.4-2.19-3.38-3.7
				c-0.98-1.51-1.76-3.24-2.29-5.14c-0.16-0.56-0.29-1.09-0.4-1.6c-0.11-0.52-0.21-1.05-0.28-1.58l-0.02-0.11l0.11-0.03l20.93-5.9
				c-0.49-1.59-1.17-3.01-2.02-4.23c-0.86-1.24-1.93-2.25-3.17-3c-1.24-0.75-2.68-1.2-4.3-1.35
				C386.23,557.92,384.41,558.13,382.43,558.68L382.43,558.68z M376.27,572.19l-0.02-0.14c-0.19-1.57-0.2-3.07-0.04-4.47
				c0.16-1.4,0.52-2.69,1.04-3.84c0.53-1.15,1.24-2.13,2.11-2.92c0.87-0.79,1.92-1.37,3.14-1.71c1.28-0.36,2.51-0.42,3.65-0.18
				c1.14,0.24,2.2,0.75,3.14,1.5c0.94,0.75,1.78,1.71,2.49,2.84c0.72,1.13,1.31,2.45,1.76,3.91l0.04,0.12l-0.12,0.03L376.27,572.19z
				 M384.74,559.03c-0.7,0-1.43,0.1-2.17,0.31c-1.18,0.33-2.2,0.89-3.04,1.65c-0.84,0.77-1.53,1.72-2.05,2.84
				c-0.52,1.12-0.86,2.39-1.02,3.76c-0.16,1.34-0.15,2.77,0.02,4.27l16.79-4.73c-0.44-1.39-1.01-2.65-1.69-3.73
				c-0.7-1.11-1.53-2.05-2.44-2.78c-0.91-0.73-1.93-1.22-3.04-1.45C385.66,559.08,385.2,559.03,384.74,559.03z"/>
		</g>
		<g>
			<path class="st0" d="M410.48,580.57c0.45-0.36,0.8-0.7,1.05-1.02c0.25-0.32,0.41-0.67,0.48-1.05c0.08-0.38,0.05-0.83-0.07-1.34
				c-0.12-0.51-0.32-1.1-0.58-1.78l-11.02-28.44c-0.39-1-0.75-1.7-1.09-2.09c-0.34-0.39-0.82-0.68-1.46-0.88l4.57-2.44L414.95,574
				c0.26,0.68,0.53,1.24,0.79,1.67c0.26,0.44,0.55,0.78,0.87,1.03c0.32,0.25,0.68,0.41,1.08,0.47c0.4,0.07,0.87,0.09,1.42,0.06
				L410.48,580.57z"/>
			<path class="st0" d="M409.77,580.99l0.64-0.51c0.44-0.36,0.79-0.69,1.03-1c0.24-0.3,0.39-0.64,0.46-1
				c0.07-0.36,0.05-0.79-0.07-1.28c-0.12-0.51-0.32-1.1-0.57-1.77l-11.02-28.44c-0.38-0.98-0.74-1.67-1.07-2.05
				c-0.32-0.37-0.79-0.66-1.4-0.85l-0.28-0.09l4.96-2.65l0.05,0.13l12.57,32.46c0.26,0.67,0.52,1.23,0.78,1.65
				c0.25,0.42,0.53,0.75,0.84,0.99c0.3,0.23,0.65,0.39,1.02,0.45c0.39,0.07,0.85,0.09,1.39,0.06l0.77-0.04L409.77,580.99z
				 M398.12,543.95c0.52,0.2,0.94,0.48,1.24,0.83c0.35,0.4,0.71,1.1,1.11,2.12l11.02,28.44c0.26,0.67,0.46,1.28,0.58,1.8
				c0.13,0.53,0.15,0.99,0.07,1.39c-0.08,0.4-0.25,0.77-0.51,1.1c-0.14,0.18-0.32,0.37-0.52,0.57l7.31-2.83
				c-0.28-0.01-0.53-0.03-0.75-0.07c-0.41-0.07-0.79-0.24-1.13-0.5c-0.33-0.26-0.63-0.62-0.9-1.06c-0.26-0.44-0.53-1.01-0.8-1.69
				l-12.52-32.33L398.12,543.95z"/>
		</g>
		<g>
			<path class="st0" d="M412.91,548.8l-0.25-0.52l4.78-2.29l-1.08-2.25c-0.7-1.47-1.09-2.83-1.15-4.09
				c-0.06-1.26,0.12-2.41,0.56-3.46c0.44-1.05,1.1-1.99,2-2.8c0.9-0.81,1.95-1.51,3.17-2.1c1.31-0.63,2.51-1.03,3.6-1.2
				c1.09-0.18,2.08-0.21,2.98-0.1l2.55,5.81c-1.47-1.95-2.89-3.27-4.27-3.98c-1.37-0.7-2.89-0.66-4.54,0.13
				c-1.5,0.72-2.49,1.8-2.97,3.24c-0.48,1.44-0.13,3.4,1.05,5.86l1.57,3.28l9.65-4.62l0.25,0.52l-9.65,4.62l10.48,21.88
				c0.31,0.66,0.62,1.19,0.91,1.61c0.29,0.42,0.61,0.74,0.95,0.96c0.34,0.22,0.71,0.35,1.11,0.39c0.4,0.04,0.88,0.02,1.42-0.05
				l-8.34,3.99c0.43-0.39,0.75-0.76,0.97-1.1c0.22-0.34,0.36-0.7,0.4-1.08c0.05-0.39-0.01-0.83-0.17-1.33
				c-0.16-0.5-0.4-1.08-0.71-1.73l-10.48-21.88L412.91,548.8z"/>
			<path class="st0" d="M426.99,574.11l0.6-0.56c0.42-0.38,0.74-0.75,0.95-1.08c0.21-0.32,0.34-0.67,0.38-1.03
				c0.04-0.36-0.01-0.79-0.17-1.28c-0.16-0.5-0.4-1.07-0.71-1.72l-10.42-21.77l-4.78,2.29l-0.36-0.74l4.78-2.29l-1.02-2.14
				c-0.71-1.48-1.1-2.87-1.16-4.13c-0.06-1.27,0.13-2.45,0.57-3.52c0.44-1.07,1.12-2.02,2.03-2.85c0.9-0.82,1.98-1.53,3.2-2.12
				c1.32-0.63,2.54-1.04,3.63-1.22c1.09-0.18,2.11-0.21,3.01-0.1l0.07,0.01l0.03,0.07l2.98,6.78l-0.64-0.85
				c-1.45-1.92-2.87-3.25-4.22-3.94c-1.33-0.68-2.82-0.64-4.43,0.13c-1.46,0.7-2.44,1.76-2.91,3.16c-0.47,1.4-0.12,3.34,1.04,5.77
				l1.52,3.17l9.65-4.62l0.35,0.74l-0.11,0.05l-9.54,4.57l10.42,21.77c0.31,0.65,0.62,1.19,0.9,1.59c0.28,0.4,0.59,0.71,0.91,0.93
				c0.32,0.21,0.67,0.33,1.05,0.37c0.4,0.04,0.86,0.02,1.39-0.05l0.77-0.1L426.99,574.11z M417.75,546.34l0.05,0.11l10.48,21.88
				c0.31,0.65,0.55,1.24,0.72,1.75c0.17,0.52,0.23,0.98,0.18,1.38c-0.05,0.4-0.19,0.78-0.42,1.14c-0.13,0.19-0.29,0.39-0.48,0.6
				l7.07-3.38c-0.27,0.01-0.53,0.01-0.76-0.01c-0.42-0.04-0.81-0.18-1.17-0.41c-0.35-0.23-0.68-0.56-0.98-0.99
				c-0.3-0.42-0.61-0.96-0.93-1.63l-10.53-22l0.11-0.05l9.54-4.57l-0.14-0.29l-9.65,4.62l-1.62-3.39c-1.19-2.49-1.55-4.49-1.06-5.96
				c0.49-1.47,1.51-2.58,3.04-3.31c1.68-0.81,3.25-0.85,4.66-0.13c1.19,0.61,2.44,1.7,3.7,3.24l-2.13-4.84
				c-0.86-0.1-1.83-0.06-2.87,0.11c-1.07,0.17-2.27,0.57-3.57,1.19c-1.2,0.57-2.26,1.27-3.14,2.08c-0.88,0.8-1.54,1.72-1.97,2.76
				c-0.43,1.03-0.61,2.18-0.55,3.41c0.06,1.23,0.44,2.59,1.14,4.04l1.13,2.36l-0.11,0.05l-4.67,2.23l0.14,0.29L417.75,546.34z"/>
		</g>
	</g>
</g>
</svg>
