<?xml version="1.0" encoding="utf-8"?>
<!-- Generator: Adobe Illustrator 25.4.1, SVG Export Plug-In . SVG Version: 6.00 Build 0)  -->
<svg version="1.1" id="レイヤー_1" xmlns="http://www.w3.org/2000/svg" xmlns:xlink="http://www.w3.org/1999/xlink" x="0px"
	 y="0px" viewBox="0 0 614 141" style="enable-background:new 0 0 614 141;" xml:space="preserve">
<style type="text/css">
	.st0{fill:#F08984;}
</style>
<g>
	<path class="st0" d="M160.5,4.5h35.9l0.8,15.7c-0.4-3.2-1-5.7-1.6-7.6c-0.6-1.9-1.4-3.4-2.2-4.4c-0.9-1-1.9-1.7-3.1-2.1
		c-1.2-0.3-2.6-0.5-4.2-0.5H181v39.5c0,0.9,0.1,1.7,0.2,2.4c0.1,0.7,0.3,1.2,0.6,1.6c0.3,0.4,0.6,0.8,1.1,1.1c0.4,0.3,1,0.5,1.7,0.8
		h-12.1c0.7-0.2,1.3-0.5,1.8-0.7c0.5-0.3,0.8-0.6,1.1-1.1c0.3-0.4,0.5-1,0.6-1.6c0.1-0.6,0.2-1.5,0.2-2.4V5.6h-5
		c-1.6,0-3.1,0.2-4.2,0.5c-1.2,0.3-2.2,1-3.1,2.1c-0.9,1.1-1.6,2.5-2.3,4.4c-0.6,1.9-1.2,4.4-1.7,7.6L160.5,4.5z"/>
	<path class="st0" d="M203.3,51c0.7-0.2,1.3-0.5,1.7-0.7c0.4-0.3,0.8-0.6,1.1-1c0.3-0.4,0.4-1,0.5-1.6c0.1-0.7,0.1-1.5,0.1-2.4V5.9
		c0-1.4-0.1-2.4-0.3-3c-0.2-0.6-0.7-1.2-1.3-1.7l6.6-0.8v23.1c1.1-3.3,2.9-5.8,5.3-7.7c2.4-1.9,5.5-2.8,9.3-2.8c2.1,0,4,0.3,5.6,0.9
		c1.6,0.6,3,1.5,4.1,2.6c1.1,1.1,2,2.4,2.6,4c0.6,1.5,0.9,3.2,0.9,5.1v19.8c0,0.9,0.1,1.7,0.2,2.4c0.1,0.6,0.3,1.2,0.6,1.6
		c0.3,0.4,0.6,0.8,1.1,1.1c0.4,0.3,1,0.5,1.7,0.7h-11.8c0.7-0.2,1.3-0.5,1.7-0.7c0.4-0.3,0.8-0.6,1.1-1c0.3-0.4,0.4-1,0.5-1.6
		c0.1-0.7,0.1-1.5,0.1-2.4V24.7c0-3.4-0.8-6-2.4-7.9c-1.6-1.9-3.9-2.8-7-2.8c-1.7,0-3.4,0.3-5,1c-1.6,0.6-3,1.6-4.2,2.8
		c-1.2,1.3-2.2,2.8-3,4.6c-0.8,1.8-1.2,3.9-1.4,6.3v16.5c0,0.9,0.1,1.7,0.2,2.4c0.1,0.6,0.3,1.2,0.6,1.6c0.3,0.4,0.6,0.8,1.1,1.1
		c0.4,0.3,1,0.5,1.7,0.7H203.3z"/>
	<path class="st0" d="M266,12.9c2.7,0,5,0.4,6.9,1.1c2,0.8,3.6,1.8,4.9,3.2c1.3,1.4,2.2,3,2.9,4.9c0.6,1.9,1,3.9,1,6.2h-27.9
		c-0.1,0.7-0.2,1.4-0.2,2c0,0.7-0.1,1.4-0.1,2.1c0,2.5,0.3,4.9,1,7.1c0.7,2.2,1.6,4.1,2.9,5.7c1.2,1.6,2.7,2.9,4.3,3.8
		c1.7,0.9,3.5,1.4,5.5,1.4c1.8,0,3.4-0.3,4.8-1c1.4-0.6,2.8-1.6,3.9-2.8c1.2-1.2,2.3-2.6,3.2-4.3c1-1.7,1.8-3.5,2.5-5.5l-0.6,9.7
		c-1.9,1.7-4.2,2.9-6.6,3.7c-2.5,0.8-4.9,1.2-7.2,1.2c-2.8,0-5.4-0.5-7.7-1.4c-2.3-0.9-4.4-2.2-6.1-3.9c-1.7-1.7-3-3.7-3.9-6
		c-0.9-2.4-1.4-5-1.4-7.8c0-2.8,0.4-5.4,1.2-7.8c0.8-2.4,2-4.4,3.5-6.2c1.5-1.7,3.4-3.1,5.6-4.1C260.7,13.3,263.2,12.9,266,12.9z
		 M253.9,27.5h22.6c0-2-0.3-3.8-0.8-5.4c-0.5-1.7-1.2-3.1-2.1-4.4c-0.9-1.2-2-2.2-3.3-2.9c-1.3-0.7-2.8-1-4.5-1
		c-1.6,0-3.1,0.3-4.4,1c-1.3,0.7-2.5,1.6-3.5,2.8c-1,1.2-1.9,2.7-2.6,4.4C254.7,23.6,254.2,25.5,253.9,27.5z"/>
	<path class="st0" d="M309.9,46.2l1.1-12.5c0.5,5.3,2.1,9.4,4.6,12.4c2.5,2.9,6,4.4,10.4,4.4c1.8,0,3.4-0.3,4.8-0.8
		c1.4-0.5,2.6-1.2,3.6-2.1c1-0.9,1.7-2,2.2-3.2c0.5-1.2,0.8-2.5,0.8-3.8c0-1.7-0.4-3.1-1.1-4.3c-0.7-1.2-1.5-2.1-2.5-2.9
		c-1-0.8-1.9-1.4-3-1.9c-1-0.5-1.9-0.8-2.6-1.1l-6.4-2.5c-0.8-0.3-1.9-0.7-3.1-1.3c-1.2-0.6-2.4-1.3-3.5-2.2s-2.1-2.1-2.9-3.5
		c-0.8-1.4-1.2-3.1-1.2-5.1c0-1.6,0.3-3.1,0.9-4.6c0.6-1.4,1.4-2.7,2.6-3.8c1.1-1.1,2.6-1.9,4.2-2.5c1.7-0.6,3.6-0.9,5.9-0.9
		c2,0,4.3,0.3,6.7,0.9s4.6,1.5,6.5,2.8l0.5,12.8c-0.8-4.9-2.2-8.7-4.5-11.4c-2.2-2.7-5.3-4.1-9.2-4.1c-1.5,0-3,0.2-4.3,0.6
		c-1.3,0.4-2.5,1-3.4,1.8c-1,0.8-1.7,1.7-2.2,2.7c-0.5,1-0.8,2.2-0.8,3.4c0,1.4,0.3,2.6,1,3.6c0.6,1,1.4,1.8,2.3,2.5
		c0.9,0.7,1.9,1.3,2.9,1.7c1,0.4,1.9,0.8,2.7,1.1l6.8,2.6c3.4,1.3,6,3,8,5.1c2,2.1,3,4.8,3,8.1c0,1.9-0.3,3.6-1,5.2
		c-0.7,1.6-1.7,3-3,4.2c-1.3,1.2-2.9,2.1-4.7,2.8c-1.9,0.7-4,1-6.3,1c-3.1,0-6.1-0.4-8.9-1.3C314,49.2,311.7,47.9,309.9,46.2z"/>
	<path class="st0" d="M347.1,51c0.7-0.2,1.3-0.5,1.7-0.7c0.4-0.3,0.8-0.6,1.1-1c0.3-0.4,0.4-1,0.5-1.6c0.1-0.7,0.1-1.5,0.1-2.4V5.9
		c0-1.4-0.1-2.4-0.3-3c-0.2-0.6-0.7-1.2-1.3-1.7l6.6-0.8v34.2l17-15.1c1.2-1,2.2-2.1,3-3.1c0.8-1.1,1.1-2.1,1.1-3.1h6
		c-0.4,0.2-1,0.5-1.5,0.9c-0.6,0.4-1.3,0.9-2.1,1.5s-1.7,1.4-2.8,2.2c-1.1,0.9-2.3,2-3.8,3.3l-7.3,6.5l12.7,16.1
		c1.2,1.6,2.2,2.8,3,3.8s1.3,1.7,1.8,2.2c0.4,0.5,0.8,0.9,0.9,1.1c0.2,0.2,0.3,0.3,0.4,0.3h-8.5c0.1-0.1,0.2-0.3,0.2-0.6
		c0-0.2,0-0.6-0.2-1.1c-0.2-0.5-0.5-1.1-0.9-1.8c-0.4-0.7-1.1-1.7-1.9-2.8l-10.9-14.3l-6.2,5.6v9.1c0,0.9,0.1,1.7,0.2,2.4
		c0.1,0.6,0.3,1.2,0.6,1.6c0.3,0.4,0.6,0.8,1.1,1.1c0.4,0.3,1,0.5,1.7,0.7H347.1z"/>
	<path class="st0" d="M388.1,51c0.7-0.2,1.3-0.5,1.7-0.7c0.4-0.3,0.8-0.6,1.1-1c0.3-0.4,0.4-1,0.5-1.6c0.1-0.7,0.1-1.5,0.1-2.4V20.5
		c0-0.9,0-1.8-0.1-2.4c-0.1-0.7-0.2-1.3-0.3-1.8c-0.1-0.5-0.3-1-0.6-1.5c-0.2-0.4-0.5-0.9-0.9-1.3l6.8-0.6v32.4
		c0,0.9,0.1,1.7,0.2,2.4c0.1,0.6,0.3,1.2,0.6,1.6c0.3,0.4,0.6,0.8,1.1,1.1c0.4,0.3,1,0.5,1.7,0.7H388.1z M393.8,1.2
		c1,0,1.9,0.3,2.5,0.9s1,1.4,1,2.4c0,1-0.3,1.9-1,2.5c-0.7,0.6-1.5,0.9-2.5,0.9c-1,0-1.8-0.3-2.5-0.9c-0.7-0.6-1-1.5-1-2.5
		c0-1,0.3-1.8,1-2.4S392.8,1.2,393.8,1.2z"/>
	<path class="st0" d="M405.1,51c0.7-0.2,1.3-0.5,1.7-0.7c0.4-0.3,0.8-0.6,1.1-1c0.3-0.4,0.4-1,0.5-1.6c0.1-0.7,0.1-1.5,0.1-2.4V20.5
		c0-0.9,0-1.8-0.1-2.4c-0.1-0.7-0.2-1.3-0.3-1.8c-0.1-0.5-0.3-1-0.6-1.5c-0.2-0.4-0.5-0.9-0.9-1.3l6.8-0.6v10.7
		c1.1-3.3,2.9-5.8,5.3-7.7c2.4-1.9,5.5-2.8,9.3-2.8c2.1,0,4,0.3,5.6,0.9c1.6,0.6,3,1.5,4.1,2.6c1.1,1.1,2,2.4,2.6,4
		c0.6,1.5,0.9,3.2,0.9,5.1v19.8c0,0.9,0.1,1.7,0.2,2.4c0.1,0.6,0.3,1.2,0.6,1.6c0.3,0.4,0.6,0.8,1.1,1.1c0.4,0.3,1,0.5,1.7,0.7H433
		c0.7-0.2,1.3-0.5,1.7-0.7c0.4-0.3,0.8-0.6,1.1-1c0.3-0.4,0.4-1,0.5-1.6c0.1-0.7,0.1-1.5,0.1-2.4V24.7c0-3.4-0.8-6-2.4-7.9
		c-1.6-1.9-3.9-2.8-7-2.8c-1.7,0-3.4,0.3-5,1c-1.6,0.6-3,1.6-4.2,2.8c-1.2,1.3-2.2,2.8-3,4.6c-0.8,1.8-1.2,3.9-1.4,6.3v16.5
		c0,0.9,0.1,1.7,0.2,2.4c0.1,0.6,0.3,1.2,0.6,1.6c0.3,0.4,0.6,0.8,1.1,1.1c0.4,0.3,1,0.5,1.7,0.7H405.1z"/>
	<path class="st0" d="M0.2,129c1.4-0.4,2.4-1,3-1.8C3.8,126.3,4,125,4,123V88.2c0-1,0-1.8-0.1-2.4c-0.1-0.6-0.2-1.2-0.5-1.6
		c-0.2-0.4-0.6-0.8-1-1c-0.4-0.3-1-0.5-1.7-0.7h29.6l1.4,12.3c-0.5-2.3-1.3-4.2-2.3-5.7c-1-1.5-2.1-2.6-3.3-3.4
		c-1.3-0.8-2.6-1.4-4.1-1.6c-1.5-0.3-3-0.4-4.7-0.4H9.1v19.8h5.4c2.3,0,4.1-0.1,5.5-0.4c1.4-0.3,2.6-0.7,3.4-1.2
		c0.9-0.5,1.5-1.2,1.9-1.9c0.4-0.8,0.7-1.6,0.9-2.6l-0.9,13.6c0-1-0.2-1.9-0.5-2.6c-0.3-0.8-0.8-1.4-1.6-2c-0.8-0.5-1.9-0.9-3.3-1.2
		c-1.4-0.3-3.3-0.4-5.6-0.4H9.1v23.3h10.1c1.6,0,3.2-0.2,4.6-0.5c1.4-0.3,2.7-1,3.9-1.9s2.2-2.2,3.1-3.9c0.9-1.7,1.6-3.8,2.2-6.4
		L31.8,129H0.2z"/>
	<path class="st0" d="M46.7,91.2c-0.4,0.3-0.6,0.8-0.8,1.4c-0.2,0.6,0,1.7,0.7,3.3l11,27.4L68.2,96c0.4-0.8,0.5-1.6,0.5-2.1
		c0-0.6-0.2-1-0.4-1.4c-0.2-0.4-0.4-0.6-0.7-0.8c-0.3-0.2-0.5-0.4-0.7-0.5H73c-0.4,0.3-1,0.7-1.7,1.4c-0.7,0.7-1.4,1.8-2,3.3
		l-14,35.4c-0.3,0.8-0.7,1.6-1.2,2.6c-0.5,1-1.2,1.9-2,2.9s-1.7,1.8-2.9,2.5c-1.1,0.7-2.4,1.2-3.9,1.4l-2.3-6.6
		c1.7,0.9,3.3,1.3,4.8,1.3c1.5,0,3-0.5,4.2-1.5c1.3-1,2.3-2.5,3.1-4.6l-14-34.1c-0.6-1.4-1.1-2.4-1.6-2.9c-0.5-0.6-0.9-0.9-1.3-1.2
		H46.7z"/>
	<path class="st0" d="M95.2,90.8c2.7,0,5,0.4,6.9,1.1c2,0.8,3.6,1.8,4.9,3.2c1.3,1.4,2.2,3,2.9,4.9c0.6,1.9,1,3.9,1,6.2H83
		c-0.1,0.7-0.2,1.4-0.2,2c0,0.7-0.1,1.4-0.1,2.1c0,2.5,0.3,4.9,1,7.1c0.7,2.2,1.6,4.1,2.9,5.7c1.2,1.6,2.7,2.9,4.3,3.8
		c1.7,0.9,3.5,1.4,5.5,1.4c1.8,0,3.4-0.3,4.8-1c1.4-0.6,2.8-1.6,3.9-2.8c1.2-1.2,2.3-2.6,3.2-4.3c1-1.7,1.8-3.5,2.5-5.5l-0.6,9.7
		c-1.9,1.7-4.2,2.9-6.6,3.7c-2.5,0.8-4.9,1.2-7.2,1.2c-2.8,0-5.4-0.5-7.7-1.4c-2.3-0.9-4.4-2.2-6.1-3.9c-1.7-1.7-3-3.7-3.9-6
		c-0.9-2.4-1.4-5-1.4-7.8c0-2.8,0.4-5.4,1.2-7.8c0.8-2.4,2-4.4,3.5-6.2c1.5-1.7,3.4-3.1,5.6-4.1C90,91.3,92.5,90.8,95.2,90.8z
		 M83.2,105.4h22.6c0-2-0.3-3.8-0.8-5.4c-0.5-1.7-1.2-3.1-2.1-4.4c-0.9-1.2-2-2.2-3.3-2.9c-1.3-0.7-2.8-1-4.5-1
		c-1.6,0-3.1,0.3-4.4,1c-1.3,0.7-2.5,1.6-3.5,2.8c-1,1.2-1.9,2.7-2.6,4.4C84,101.6,83.5,103.4,83.2,105.4z"/>
	<path class="st0" d="M117.6,125.5l1.1-12.7c0.3,3,0.8,5.6,1.5,7.6c0.7,2,1.6,3.6,2.7,4.8c1.1,1.2,2.3,2,3.7,2.5
		c1.4,0.5,2.9,0.7,4.5,0.7c3.3,0,5.8-0.8,7.3-2.4c1.6-1.6,2.4-3.6,2.4-5.9c0-1.3-0.2-2.5-0.7-3.4c-0.5-0.9-1.1-1.7-1.8-2.3
		c-0.7-0.6-1.4-1.1-2.2-1.4s-1.5-0.6-2.2-0.8l-7.1-2.4c-0.7-0.2-1.5-0.6-2.4-1c-0.9-0.5-1.7-1.1-2.5-1.8c-0.8-0.8-1.5-1.7-2-2.8
		c-0.6-1.1-0.8-2.4-0.8-3.9c0-2.9,1.1-5.3,3.2-7c2.2-1.7,5-2.5,8.6-2.5c2.4,0,4.7,0.4,6.7,1.1c2,0.8,3.7,1.8,5.2,3.1l-0.5,9
		c-1.1-4.4-2.6-7.5-4.3-9.4c-1.8-1.9-4.2-2.9-7.2-2.9c-2.4,0-4.4,0.6-6,1.7c-1.6,1.1-2.4,2.9-2.4,5.3c0,1.1,0.2,2,0.7,2.7
		c0.4,0.7,1,1.3,1.6,1.8c0.6,0.5,1.3,0.8,2.1,1.1c0.8,0.3,1.5,0.5,2.1,0.8l6.4,2.1c0.8,0.3,1.8,0.6,2.9,1.1c1.1,0.5,2.1,1.2,3.1,2
		c1,0.8,1.8,1.9,2.5,3.1c0.7,1.2,1,2.7,1,4.5c0,1.7-0.3,3.2-0.9,4.6c-0.6,1.4-1.5,2.6-2.7,3.6c-1.2,1-2.7,1.8-4.4,2.4
		c-1.7,0.6-3.8,0.9-6.1,0.9c-2.5,0-4.9-0.3-7.3-1C121,127.7,119.1,126.7,117.6,125.5z"/>
	<path class="st0" d="M150.4,129c0.7-0.2,1.3-0.5,1.7-0.7c0.4-0.3,0.8-0.6,1.1-1c0.3-0.4,0.4-1,0.5-1.6c0.1-0.7,0.1-1.5,0.1-2.4
		V83.9c0-1.4-0.1-2.4-0.3-3c-0.2-0.6-0.7-1.2-1.3-1.7l6.6-0.8v23.1c1.1-3.3,2.9-5.8,5.3-7.7c2.4-1.9,5.5-2.8,9.3-2.8
		c2.1,0,4,0.3,5.6,0.9c1.6,0.6,3,1.5,4.1,2.6c1.1,1.1,2,2.4,2.6,4c0.6,1.5,0.9,3.2,0.9,5.1v19.8c0,0.9,0.1,1.7,0.2,2.4
		c0.1,0.6,0.3,1.2,0.6,1.6c0.3,0.4,0.6,0.8,1.1,1.1c0.4,0.3,1,0.5,1.7,0.7h-11.8c0.7-0.2,1.3-0.5,1.7-0.7c0.4-0.3,0.8-0.6,1.1-1
		c0.3-0.4,0.4-1,0.5-1.6c0.1-0.7,0.1-1.5,0.1-2.4v-20.5c0-3.4-0.8-6-2.4-7.9c-1.6-1.9-3.9-2.8-7-2.8c-1.7,0-3.4,0.3-5,1
		c-1.6,0.6-3,1.6-4.2,2.8c-1.2,1.3-2.2,2.8-3,4.6c-0.8,1.8-1.2,3.9-1.4,6.3v16.5c0,0.9,0.1,1.7,0.2,2.4c0.1,0.6,0.3,1.2,0.6,1.6
		c0.3,0.4,0.6,0.8,1.1,1.1c0.4,0.3,1,0.5,1.7,0.7H150.4z"/>
	<path class="st0" d="M211.4,108.2l7.4-1.8v-4.8c0-3.4-0.7-5.8-2-7.4c-1.3-1.6-3.3-2.4-5.9-2.4c-1.2,0-2.5,0.2-3.8,0.6
		c-1.3,0.4-2.5,1.2-3.6,2.3c-1.1,1.1-2.2,2.6-3.1,4.5c-1,1.9-1.7,4.2-2.4,7.1l-0.4-11.2c1.6-1.3,3.6-2.3,6-3.1
		c2.4-0.8,4.8-1.1,7.4-1.1c3.9,0,7,0.9,9.3,2.8c2.3,1.9,3.4,4.6,3.4,8.2v21.2c0,1.3,0.1,2.4,0.4,3.4c0.3,1,0.8,1.8,1.4,2.4l-6.5,0.2
		v-8.8c-0.4,1.1-1,2.2-1.7,3.3c-0.7,1.1-1.5,2-2.5,2.9c-1,0.8-2.2,1.5-3.5,2c-1.4,0.5-2.9,0.7-4.7,0.7c-1.6,0-3.1-0.2-4.5-0.5
		c-1.4-0.4-2.6-0.9-3.6-1.6c-1-0.7-1.8-1.7-2.4-2.7c-0.6-1.1-0.9-2.4-0.9-3.9c0-2,0.5-3.7,1.6-5.1c1.1-1.4,2.4-2.5,4.1-3.5
		c1.6-0.9,3.4-1.7,5.2-2.2C208.1,109.1,209.8,108.6,211.4,108.2z M200.6,120.4c0,2.3,0.6,4.2,1.8,5.6c1.2,1.5,2.9,2.2,5.1,2.2
		c1.2,0,2.5-0.3,3.8-0.8c1.3-0.5,2.5-1.3,3.5-2.4c1.1-1,1.9-2.4,2.7-3.9c0.7-1.6,1.1-3.4,1.2-5.4v-8.3l-7.2,1.7
		c-0.9,0.2-2,0.6-3.3,1c-1.3,0.4-2.5,1.1-3.6,1.9c-1.1,0.8-2.1,1.9-2.9,3.2C201,116.7,200.6,118.4,200.6,120.4z"/>
	<path class="st0" d="M249.3,90.8c2.1,0,4,0.3,5.8,1c1.8,0.6,3.4,1.6,4.9,2.9V83.9c0-1.4-0.1-2.4-0.3-3c-0.2-0.6-0.7-1.2-1.3-1.7
		l6.6-0.8v44.2c0,1.9,0.2,3.3,0.5,4.3c0.3,0.9,0.8,1.7,1.4,2.3l-6.5,0.2v-5.2c-1.4,1.9-3,3.2-5,4.1c-1.9,0.8-3.9,1.2-5.9,1.2
		c-2.8,0-5.3-0.5-7.6-1.4s-4.2-2.2-5.8-3.9c-1.6-1.6-2.8-3.6-3.7-5.8c-0.9-2.2-1.3-4.6-1.3-7.2c0-3,0.5-5.7,1.4-8.2s2.2-4.6,3.8-6.4
		c1.6-1.8,3.6-3.2,5.8-4.2C244.2,91.3,246.7,90.8,249.3,90.8z M236.1,108.3c0,2.7,0.3,5.3,1,7.7c0.6,2.4,1.6,4.5,2.9,6.3
		c1.3,1.8,2.8,3.2,4.6,4.3c1.8,1,3.9,1.6,6.2,1.6c1.9,0,3.6-0.5,5.2-1.4c1.6-1,3-2.3,4.1-4v-22.7c-1.2-2.8-2.7-4.9-4.6-6.2
		c-1.9-1.3-4.1-1.9-6.6-1.9c-2,0-3.8,0.4-5.3,1.2c-1.6,0.8-2.9,1.9-4,3.3c-1.1,1.4-1.9,3.1-2.5,5.2
		C236.4,103.6,236.1,105.9,236.1,108.3z"/>
	<path class="st0" d="M291.9,90.8c2.8,0,5.4,0.5,7.7,1.4s4.3,2.3,6,4c1.7,1.7,3,3.8,3.9,6.1c0.9,2.3,1.4,4.9,1.4,7.7v0.1
		c0,2.8-0.5,5.4-1.4,7.7c-0.9,2.3-2.2,4.4-3.9,6.1c-1.7,1.7-3.7,3-6,4s-4.9,1.4-7.7,1.4c-2.8,0-5.4-0.5-7.7-1.4
		c-2.3-0.9-4.3-2.3-6-4c-1.7-1.7-3-3.8-3.9-6.1c-0.9-2.3-1.4-4.9-1.4-7.7v-0.1c0-2.8,0.5-5.4,1.4-7.7c0.9-2.3,2.2-4.4,3.9-6.1
		c1.7-1.7,3.7-3,6-4C286.5,91.3,289.1,90.8,291.9,90.8z M278.2,110.1c0,2.7,0.3,5.1,1,7.4c0.7,2.2,1.6,4.2,2.8,5.8
		c1.2,1.6,2.6,2.9,4.3,3.8c1.7,0.9,3.5,1.3,5.6,1.3c2,0,3.9-0.4,5.6-1.3c1.7-0.9,3.1-2.2,4.3-3.8c1.2-1.6,2.1-3.6,2.8-5.8
		c0.7-2.2,1-4.7,1-7.4s-0.3-5.1-1-7.4c-0.7-2.2-1.6-4.2-2.8-5.8c-1.2-1.6-2.6-2.9-4.3-3.8c-1.7-0.9-3.5-1.3-5.6-1.3
		c-2,0-3.9,0.4-5.6,1.3c-1.7,0.9-3.1,2.1-4.3,3.8c-1.2,1.6-2.1,3.5-2.8,5.8C278.6,104.9,278.2,107.4,278.2,110.1z"/>
	<path class="st0" d="M323.7,91.2c-0.4,0.3-0.7,0.8-1,1.3c-0.2,0.6-0.1,1.5,0.4,2.8l9.3,26.1l9.4-30.4h0.5l12.1,30.8l7.2-22.4
		c0.6-1.8,0.9-3.3,1-4.3c0.1-1,0-1.8-0.2-2.4c-0.2-0.6-0.5-0.9-0.8-1.1c-0.3-0.2-0.6-0.3-0.8-0.5h6.5c-0.7,0.4-1.3,0.9-2,1.6
		c-0.7,0.7-1.3,2.1-1.9,4.1L353.2,129h-0.8l-11.9-30.3l-9.4,30.3h-0.8l-11.5-32c-0.8-2-1.4-3.4-1.9-4.3c-0.5-0.8-1-1.4-1.5-1.6
		H323.7z"/>
	<path class="st0" d="M393.3,129c1.4-0.4,2.4-1,2.9-1.8c0.5-0.8,0.7-2.2,0.7-4.1V88.3c0-1-0.1-1.8-0.2-2.4c-0.1-0.6-0.3-1.2-0.6-1.6
		c-0.3-0.4-0.6-0.8-1.1-1.1c-0.5-0.3-1.1-0.5-1.8-0.7h17c2,0,4,0.2,6.1,0.6c2.1,0.4,4,1.1,5.7,2.1c1.7,1,3.1,2.3,4.2,4
		c1.1,1.6,1.6,3.7,1.6,6.1c0,2.4-0.5,4.5-1.6,6.2c-1.1,1.7-2.5,3.2-4.2,4.3s-3.6,2-5.7,2.5c-2.1,0.6-4.2,0.8-6.2,0.8H402v13.9
		c0,1.9,0.3,3.3,0.8,4.1c0.5,0.8,1.4,1.4,2.8,1.8H393.3z M402,83.5v24.7h7c1.8,0,3.5-0.2,5.1-0.7c1.6-0.5,3.1-1.2,4.3-2.2
		c1.3-1,2.3-2.3,3-3.9c0.8-1.6,1.1-3.5,1.1-5.7c0-3.9-1.2-6.9-3.5-9c-2.4-2.1-5.7-3.1-10-3.1H402z"/>
	<path class="st0" d="M450.2,108.2l7.4-1.8v-4.8c0-3.4-0.7-5.8-2-7.4c-1.3-1.6-3.3-2.4-5.9-2.4c-1.2,0-2.5,0.2-3.8,0.6
		c-1.3,0.4-2.5,1.2-3.6,2.3c-1.1,1.1-2.2,2.6-3.1,4.5c-1,1.9-1.7,4.2-2.4,7.1l-0.4-11.2c1.6-1.3,3.6-2.3,6-3.1
		c2.4-0.8,4.8-1.1,7.4-1.1c3.9,0,7,0.9,9.3,2.8c2.3,1.9,3.4,4.6,3.4,8.2v21.2c0,1.3,0.1,2.4,0.4,3.4c0.3,1,0.8,1.8,1.4,2.4l-6.5,0.2
		v-8.8c-0.4,1.1-1,2.2-1.7,3.3c-0.7,1.1-1.5,2-2.5,2.9c-1,0.8-2.2,1.5-3.5,2c-1.4,0.5-2.9,0.7-4.7,0.7c-1.6,0-3.1-0.2-4.5-0.5
		c-1.4-0.4-2.6-0.9-3.6-1.6c-1-0.7-1.8-1.7-2.4-2.7c-0.6-1.1-0.9-2.4-0.9-3.9c0-2,0.5-3.7,1.6-5.1c1.1-1.4,2.4-2.5,4.1-3.5
		c1.6-0.9,3.4-1.7,5.2-2.2C446.9,109.1,448.6,108.6,450.2,108.2z M439.5,120.4c0,2.3,0.6,4.2,1.8,5.6c1.2,1.5,2.9,2.2,5.1,2.2
		c1.2,0,2.5-0.3,3.8-0.8c1.3-0.5,2.5-1.3,3.5-2.4c1.1-1,1.9-2.4,2.7-3.9c0.7-1.6,1.1-3.4,1.2-5.4v-8.3l-7.2,1.7
		c-0.9,0.2-2,0.6-3.3,1c-1.3,0.4-2.5,1.1-3.6,1.9c-1.1,0.8-2.1,1.9-2.9,3.2C439.9,116.7,439.5,118.4,439.5,120.4z"/>
	<path class="st0" d="M469.9,129c0.7-0.2,1.3-0.5,1.7-0.7c0.4-0.3,0.8-0.6,1.1-1c0.3-0.4,0.4-1,0.5-1.6c0.1-0.7,0.1-1.5,0.1-2.4
		V83.9c0-1.4-0.1-2.4-0.3-3c-0.2-0.6-0.7-1.2-1.3-1.7l6.6-0.8v44.9c0,0.9,0.1,1.7,0.2,2.4c0.1,0.6,0.3,1.2,0.6,1.6
		c0.3,0.4,0.6,0.8,1.1,1.1c0.4,0.3,1,0.5,1.7,0.7H469.9z"/>
	<path class="st0" d="M505,90.8c2.7,0,5,0.4,6.9,1.1c2,0.8,3.6,1.8,4.9,3.2c1.3,1.4,2.2,3,2.9,4.9c0.6,1.9,1,3.9,1,6.2h-27.9
		c-0.1,0.7-0.2,1.4-0.2,2c0,0.7-0.1,1.4-0.1,2.1c0,2.5,0.3,4.9,1,7.1c0.7,2.2,1.6,4.1,2.9,5.7c1.2,1.6,2.7,2.9,4.3,3.8
		c1.7,0.9,3.5,1.4,5.5,1.4c1.8,0,3.4-0.3,4.8-1c1.4-0.6,2.8-1.6,3.9-2.8c1.2-1.2,2.3-2.6,3.2-4.3c1-1.7,1.8-3.5,2.5-5.5l-0.6,9.7
		c-1.9,1.7-4.2,2.9-6.6,3.7c-2.5,0.8-4.9,1.2-7.2,1.2c-2.8,0-5.4-0.5-7.7-1.4c-2.3-0.9-4.4-2.2-6.1-3.9c-1.7-1.7-3-3.7-3.9-6
		c-0.9-2.4-1.4-5-1.4-7.8c0-2.8,0.4-5.4,1.2-7.8c0.8-2.4,2-4.4,3.5-6.2c1.5-1.7,3.4-3.1,5.6-4.1C499.8,91.3,502.2,90.8,505,90.8z
		 M493,105.4h22.6c0-2-0.3-3.8-0.8-5.4c-0.5-1.7-1.2-3.1-2.1-4.4c-0.9-1.2-2-2.2-3.3-2.9c-1.3-0.7-2.8-1-4.5-1c-1.6,0-3.1,0.3-4.4,1
		c-1.3,0.7-2.5,1.6-3.5,2.8c-1,1.2-1.9,2.7-2.6,4.4C493.8,101.6,493.3,103.4,493,105.4z"/>
	<path class="st0" d="M533.3,91.2l4.6-9.3v9.3h10.9v0.7h-10.9v28.8c0,1.5,0.1,2.7,0.3,3.7c0.2,1,0.5,1.8,0.8,2.3
		c0.4,0.6,0.8,1,1.4,1.2c0.6,0.2,1.2,0.3,1.9,0.3c1.3,0,2.4-0.4,3.2-1.1c0.9-0.7,1.7-1.8,2.5-3.1l0.9,0.6c-0.9,1.4-1.8,2.6-2.9,3.4
		c-1,0.8-2.6,1.2-4.5,1.2c-3.1,0-5.3-0.9-6.5-2.7c-1.3-1.8-1.9-4.4-1.9-7.7v-27h-6.5v-0.7H533.3z"/>
	<path class="st0" d="M559.8,91.2l4.6-9.3v9.3h10.9v0.7h-10.9v28.8c0,1.5,0.1,2.7,0.3,3.7c0.2,1,0.5,1.8,0.8,2.3
		c0.4,0.6,0.8,1,1.4,1.2c0.6,0.2,1.2,0.3,1.9,0.3c1.3,0,2.4-0.4,3.2-1.1c0.9-0.7,1.7-1.8,2.5-3.1l0.9,0.6c-0.9,1.4-1.8,2.6-2.9,3.4
		c-1,0.8-2.6,1.2-4.5,1.2c-3.1,0-5.3-0.9-6.5-2.7c-1.3-1.8-1.9-4.4-1.9-7.7v-27H553v-0.7H559.8z"/>
	<path class="st0" d="M598.1,90.8c2.7,0,5,0.4,6.9,1.1c2,0.8,3.6,1.8,4.9,3.2c1.3,1.4,2.2,3,2.9,4.9c0.6,1.9,1,3.9,1,6.2h-27.9
		c-0.1,0.7-0.2,1.4-0.2,2c0,0.7-0.1,1.4-0.1,2.1c0,2.5,0.3,4.9,1,7.1c0.7,2.2,1.6,4.1,2.9,5.7c1.2,1.6,2.7,2.9,4.3,3.8
		c1.7,0.9,3.5,1.4,5.5,1.4c1.8,0,3.4-0.3,4.8-1c1.4-0.6,2.8-1.6,3.9-2.8c1.2-1.2,2.3-2.6,3.2-4.3c1-1.7,1.8-3.5,2.5-5.5l-0.6,9.7
		c-1.9,1.7-4.2,2.9-6.6,3.7c-2.5,0.8-4.9,1.2-7.2,1.2c-2.8,0-5.4-0.5-7.7-1.4c-2.3-0.9-4.4-2.2-6.1-3.9c-1.7-1.7-3-3.7-3.9-6
		c-0.9-2.4-1.4-5-1.4-7.8c0-2.8,0.4-5.4,1.2-7.8c0.8-2.4,2-4.4,3.5-6.2c1.5-1.7,3.4-3.1,5.6-4.1C592.8,91.3,595.3,90.8,598.1,90.8z
		 M586,105.4h22.6c0-2-0.3-3.8-0.8-5.4c-0.5-1.7-1.2-3.1-2.1-4.4c-0.9-1.2-2-2.2-3.3-2.9c-1.3-0.7-2.8-1-4.5-1c-1.6,0-3.1,0.3-4.4,1
		c-1.3,0.7-2.5,1.6-3.5,2.8c-1,1.2-1.9,2.7-2.6,4.4C586.8,101.6,586.3,103.4,586,105.4z"/>
</g>
</svg>
