<?xml version="1.0" encoding="utf-8"?>
<!-- Generator: Adobe Illustrator 25.4.1, SVG Export Plug-In . SVG Version: 6.00 Build 0)  -->
<svg version="1.1" id="レイヤー_1" xmlns="http://www.w3.org/2000/svg" xmlns:xlink="http://www.w3.org/1999/xlink" x="0px"
	 y="0px" viewBox="0 0 261 16" style="enable-background:new 0 0 261 16;" xml:space="preserve">
<style type="text/css">
	.st0{fill:#C04459;}
</style>
<g>
	<g>
		<g>
			<path class="st0" d="M1.2,12.6c0.3-0.1,0.6-0.2,0.7-0.4s0.2-0.5,0.2-1V3c0-0.2,0-0.4,0-0.6S2,2.1,1.9,2C1.9,1.9,1.8,1.8,1.7,1.8
				C1.5,1.7,1.4,1.6,1.2,1.6h4.1c0.5,0,1,0,1.5,0.2c0.5,0.1,1,0.3,1.4,0.5s0.7,0.6,1,0.9s0.4,0.9,0.4,1.5c0,0.6-0.1,1.1-0.4,1.5
				c-0.3,0.4-0.6,0.8-1,1C7.7,7.4,7.3,7.6,6.8,7.7c-0.5,0.1-1,0.2-1.5,0.2h-2v3.3c0,0.5,0.1,0.8,0.2,1s0.3,0.3,0.7,0.4H1.2z
				 M3.3,1.8v5.9H5c0.4,0,0.8-0.1,1.2-0.2c0.4-0.1,0.7-0.3,1-0.5C7.5,6.7,7.8,6.4,8,6.1c0.2-0.4,0.3-0.8,0.3-1.4
				c0-0.9-0.3-1.6-0.9-2.1S6,1.8,5,1.8H3.3z"/>
			<path class="st0" d="M5,12.8H0.3l0.9-0.2c0.3-0.1,0.5-0.2,0.6-0.4C1.9,12,2,11.7,2,11.2V3c0-0.2,0-0.4,0-0.6
				c0-0.1-0.1-0.3-0.1-0.3C1.8,2,1.7,1.9,1.6,1.9C1.5,1.8,1.4,1.7,1.2,1.7l-1-0.2h5.1c0.5,0,1,0.1,1.5,0.2c0.5,0.1,1,0.3,1.4,0.5
				c0.4,0.2,0.8,0.6,1,1C9.5,3.5,9.7,4,9.7,4.6c0,0.6-0.1,1.1-0.4,1.5C9,6.6,8.6,7,8.2,7.2C7.8,7.5,7.3,7.7,6.8,7.9
				C6.3,8,5.8,8.1,5.3,8.1H3.4v3.2c0,0.4,0.1,0.7,0.2,0.9c0.1,0.2,0.3,0.3,0.6,0.4L5,12.8z M1.8,12.5h1.8c-0.1-0.1-0.2-0.2-0.2-0.2
				c-0.1-0.2-0.2-0.5-0.2-1V7.8h2.1c0.5,0,1-0.1,1.5-0.2C7.2,7.5,7.7,7.3,8.1,7c0.4-0.3,0.7-0.6,1-1c0.2-0.4,0.4-0.9,0.4-1.4
				c0-0.6-0.1-1-0.4-1.4c-0.2-0.4-0.6-0.7-1-0.9C7.7,2.1,7.2,2,6.8,1.9c-0.5-0.1-1-0.1-1.4-0.1H1.8C1.9,1.8,2,1.9,2,1.9
				c0.1,0.1,0.1,0.3,0.2,0.4c0,0.2,0,0.4,0,0.6v8.3c0,0.5-0.1,0.8-0.2,1C2,12.4,1.9,12.4,1.8,12.5z M5,7.8H3.2V1.7H5
				C6,1.7,6.9,2,7.5,2.5C8.1,3,8.4,3.7,8.4,4.7c0,0.5-0.1,1-0.3,1.4c-0.2,0.4-0.4,0.7-0.8,1C7,7.3,6.6,7.5,6.2,7.6
				C5.8,7.8,5.4,7.8,5,7.8z M3.4,7.6H5c0.4,0,0.8-0.1,1.2-0.2c0.4-0.1,0.7-0.3,1-0.5C7.4,6.7,7.7,6.4,7.8,6C8,5.6,8.1,5.2,8.1,4.7
				c0-0.9-0.3-1.6-0.8-2C6.8,2.2,6,2,5,2H3.4V7.6z"/>
		</g>
		<g>
			<path class="st0" d="M11.9,12.6c0.2-0.1,0.3-0.1,0.4-0.2s0.2-0.1,0.3-0.2c0.1-0.1,0.1-0.2,0.1-0.4c0-0.2,0-0.4,0-0.6V5.4
				c0-0.2,0-0.4,0-0.6c0-0.2,0-0.3-0.1-0.4c0-0.1-0.1-0.2-0.1-0.4c-0.1-0.1-0.1-0.2-0.2-0.3l1.6-0.1v2.1c0.1-0.3,0.3-0.6,0.4-0.8
				c0.2-0.3,0.3-0.5,0.6-0.7c0.2-0.2,0.5-0.3,0.7-0.4c0.3-0.1,0.6-0.2,1-0.2c0.3,0,0.6,0,0.9,0.1l0,1.5c-0.1-0.1-0.2-0.2-0.3-0.4
				c-0.1-0.1-0.3-0.2-0.4-0.4c-0.1-0.1-0.3-0.2-0.5-0.3c-0.2-0.1-0.3-0.1-0.5-0.1c-0.2,0-0.4,0.1-0.6,0.2c-0.2,0.1-0.3,0.2-0.5,0.4
				c-0.2,0.2-0.3,0.4-0.4,0.6c-0.1,0.2-0.2,0.5-0.3,0.8v5.2c0,0.2,0,0.4,0,0.6c0,0.2,0.1,0.3,0.1,0.4s0.1,0.2,0.3,0.3
				c0.1,0.1,0.2,0.1,0.4,0.2H11.9z"/>
			<path class="st0" d="M15.5,12.8h-4.4l0.8-0.2c0.2,0,0.3-0.1,0.4-0.2c0.1-0.1,0.2-0.1,0.2-0.2c0.1-0.1,0.1-0.2,0.1-0.3
				c0-0.2,0-0.3,0-0.6V5.4c0-0.2,0-0.4,0-0.6c0-0.2,0-0.3-0.1-0.4c0-0.1-0.1-0.2-0.1-0.3c-0.1-0.1-0.1-0.2-0.2-0.3L12,3.6l2-0.2v1.7
				c0.1-0.1,0.1-0.2,0.2-0.3c0.2-0.3,0.4-0.5,0.6-0.7c0.2-0.2,0.5-0.4,0.8-0.5c0.3-0.1,0.6-0.2,1-0.2c0.3,0,0.7,0,0.9,0.1l0.1,0l0,2
				l-0.2-0.3c-0.1-0.1-0.2-0.2-0.3-0.4c-0.1-0.1-0.3-0.2-0.4-0.3c-0.1-0.1-0.3-0.2-0.4-0.2c-0.3-0.1-0.7-0.1-1,0
				c-0.2,0.1-0.3,0.2-0.5,0.4c-0.1,0.2-0.3,0.4-0.4,0.6c-0.1,0.2-0.2,0.5-0.3,0.7v5.1c0,0.2,0,0.4,0,0.5c0,0.1,0.1,0.3,0.1,0.3
				c0.1,0.1,0.1,0.2,0.2,0.2c0.1,0.1,0.2,0.1,0.4,0.2L15.5,12.8z M12.5,12.5h1.7c-0.1-0.1-0.2-0.1-0.2-0.2c-0.1-0.1-0.1-0.3-0.2-0.4
				c0-0.2,0-0.4,0-0.6v-5l0,0V3.7l-1.2,0.1c0,0.1,0.1,0.1,0.1,0.2c0.1,0.1,0.1,0.2,0.1,0.4c0,0.1,0.1,0.3,0.1,0.5c0,0.2,0,0.4,0,0.6
				v5.9c0,0.2,0,0.4,0,0.6c0,0.2-0.1,0.3-0.1,0.4C12.6,12.4,12.5,12.4,12.5,12.5z M15.7,4c0.2,0,0.4,0,0.5,0.1
				c0.2,0.1,0.3,0.2,0.5,0.3c0.2,0.1,0.3,0.2,0.4,0.4c0,0,0.1,0.1,0.1,0.1l0-1.1c-0.2-0.1-0.5-0.1-0.8-0.1c-0.3,0-0.7,0.1-0.9,0.2
				c-0.3,0.1-0.5,0.2-0.7,0.4c0,0,0,0,0,0c0,0,0.1-0.1,0.1-0.1C15.3,4.1,15.5,4,15.7,4z"/>
		</g>
		<g>
			<path class="st0" d="M24.1,3.6c0.7,0,1.3,0.1,1.9,0.3s1,0.5,1.4,0.9c0.4,0.4,0.7,0.9,0.9,1.4s0.3,1.2,0.3,1.8v0
				c0,0.7-0.1,1.3-0.3,1.8s-0.5,1-0.9,1.4c-0.4,0.4-0.9,0.7-1.4,0.9s-1.2,0.3-1.9,0.3c-0.7,0-1.3-0.1-1.9-0.3s-1-0.5-1.4-0.9
				c-0.4-0.4-0.7-0.9-0.9-1.4s-0.3-1.2-0.3-1.8v0c0-0.7,0.1-1.3,0.3-1.8s0.5-1,0.9-1.4c0.4-0.4,0.9-0.7,1.4-0.9S23.4,3.6,24.1,3.6z
				 M20.8,8.1c0,0.6,0.1,1.2,0.2,1.7s0.4,1,0.7,1.4s0.6,0.7,1,0.9c0.4,0.2,0.8,0.3,1.3,0.3s0.9-0.1,1.3-0.3c0.4-0.2,0.7-0.5,1-0.9
				c0.3-0.4,0.5-0.8,0.7-1.4c0.2-0.5,0.2-1.1,0.2-1.7s-0.1-1.2-0.2-1.7c-0.2-0.5-0.4-1-0.7-1.4c-0.3-0.4-0.6-0.7-1-0.9
				s-0.8-0.3-1.3-0.3s-0.9,0.1-1.3,0.3S22,4.6,21.7,5c-0.3,0.4-0.5,0.8-0.7,1.4S20.8,7.5,20.8,8.1z"/>
			<path class="st0" d="M24.1,12.8c-0.7,0-1.3-0.1-1.9-0.3c-0.6-0.2-1.1-0.6-1.5-1c-0.4-0.4-0.7-0.9-1-1.5c-0.2-0.6-0.3-1.2-0.3-1.9
				c0-0.7,0.1-1.3,0.3-1.9c0.2-0.6,0.6-1.1,1-1.5c0.4-0.4,0.9-0.7,1.5-1c0.6-0.2,1.2-0.3,1.9-0.3c0.7,0,1.3,0.1,1.9,0.3
				c0.6,0.2,1.1,0.6,1.5,1c0.4,0.4,0.7,0.9,1,1.5c0.2,0.6,0.3,1.2,0.3,1.9c0,0.7-0.1,1.3-0.3,1.9c-0.2,0.6-0.6,1.1-1,1.5
				c-0.4,0.4-0.9,0.7-1.5,1C25.4,12.7,24.8,12.8,24.1,12.8z M24.5,3.7c0.3,0,0.7,0.1,1,0.3c0.4,0.2,0.8,0.5,1.1,0.9
				c0.3,0.4,0.5,0.9,0.7,1.4c0.2,0.5,0.2,1.1,0.2,1.8s-0.1,1.2-0.2,1.8c-0.2,0.5-0.4,1-0.7,1.4c-0.3,0.4-0.7,0.7-1.1,0.9
				c-0.3,0.2-0.6,0.3-1,0.3c0.5,0,1-0.1,1.4-0.3c0.5-0.2,1-0.5,1.4-0.9c0.4-0.4,0.7-0.9,0.9-1.4c0.2-0.5,0.3-1.1,0.3-1.8
				c0-0.7-0.1-1.3-0.3-1.8c-0.2-0.5-0.5-1-0.9-1.4c-0.4-0.4-0.9-0.7-1.4-0.9C25.5,3.9,25,3.7,24.5,3.7z M23.7,3.7
				c-0.5,0-1,0.1-1.4,0.3c-0.5,0.2-1,0.5-1.4,0.9c-0.4,0.4-0.7,0.9-0.9,1.4c-0.2,0.5-0.3,1.1-0.3,1.8c0,0.7,0.1,1.3,0.3,1.8
				c0.2,0.5,0.5,1,0.9,1.4c0.4,0.4,0.9,0.7,1.4,0.9c0.4,0.2,0.9,0.3,1.4,0.3c-0.3,0-0.7-0.1-1-0.3c-0.4-0.2-0.8-0.5-1.1-0.9
				c-0.3-0.4-0.5-0.9-0.7-1.4c-0.2-0.5-0.2-1.1-0.2-1.8s0.1-1.2,0.2-1.8c0.2-0.5,0.4-1,0.7-1.4c0.3-0.4,0.7-0.7,1.1-0.9
				C23,3.9,23.4,3.8,23.7,3.7z M24.1,3.9c-0.5,0-0.9,0.1-1.3,0.3c-0.4,0.2-0.7,0.5-1,0.9c-0.3,0.4-0.5,0.8-0.6,1.3
				C21,6.9,21,7.5,21,8.1s0.1,1.2,0.2,1.7c0.2,0.5,0.4,1,0.6,1.3c0.3,0.4,0.6,0.7,1,0.9c0.4,0.2,0.8,0.3,1.3,0.3s0.9-0.1,1.3-0.3
				c0.4-0.2,0.7-0.5,1-0.9c0.3-0.4,0.5-0.8,0.6-1.3c0.2-0.5,0.2-1.1,0.2-1.7S27.2,6.9,27,6.4c-0.2-0.5-0.4-1-0.6-1.3
				c-0.3-0.4-0.6-0.7-1-0.9C25,4,24.6,3.9,24.1,3.9z"/>
		</g>
		<g>
			<path class="st0" d="M35.3,3.6c0.5,0,1,0.1,1.4,0.2c0.4,0.2,0.8,0.4,1.2,0.7V1.9c0-0.3,0-0.6-0.1-0.7c-0.1-0.1-0.2-0.3-0.3-0.4
				l1.6-0.2v10.5c0,0.5,0,0.8,0.1,1c0.1,0.2,0.2,0.4,0.3,0.5l-1.6,0v-1.2c-0.3,0.4-0.7,0.8-1.2,1c-0.5,0.2-0.9,0.3-1.4,0.3
				c-0.7,0-1.3-0.1-1.8-0.3c-0.5-0.2-1-0.5-1.4-0.9c-0.4-0.4-0.7-0.8-0.9-1.4C31,9.6,30.9,9,30.9,8.4c0-0.7,0.1-1.4,0.3-1.9
				c0.2-0.6,0.5-1.1,0.9-1.5c0.4-0.4,0.9-0.8,1.4-1C34.1,3.7,34.7,3.6,35.3,3.6z M32.1,7.7c0,0.6,0.1,1.3,0.2,1.8
				c0.2,0.6,0.4,1.1,0.7,1.5c0.3,0.4,0.7,0.8,1.1,1c0.4,0.2,0.9,0.4,1.5,0.4c0.5,0,0.9-0.1,1.3-0.3c0.4-0.2,0.7-0.5,1-0.9V5.8
				c-0.3-0.7-0.6-1.2-1.1-1.5c-0.5-0.3-1-0.5-1.6-0.5c-0.5,0-0.9,0.1-1.3,0.3c-0.4,0.2-0.7,0.4-1,0.8c-0.3,0.3-0.5,0.7-0.6,1.2
				S32.1,7.1,32.1,7.7z"/>
			<path class="st0" d="M35.3,12.8c-0.7,0-1.3-0.1-1.9-0.3c-0.6-0.2-1-0.5-1.4-0.9c-0.4-0.4-0.7-0.9-0.9-1.4
				c-0.2-0.5-0.3-1.1-0.3-1.8c0-0.7,0.1-1.4,0.3-2c0.2-0.6,0.5-1.1,0.9-1.6c0.4-0.4,0.9-0.8,1.4-1c0.5-0.2,1.2-0.4,1.8-0.4
				c0.5,0,1,0.1,1.4,0.2c0.4,0.1,0.7,0.3,1,0.5V1.9c0-0.3,0-0.5-0.1-0.7c0-0.1-0.1-0.2-0.3-0.4l-0.2-0.2l2-0.2v10.6
				c0,0.4,0,0.8,0.1,1c0.1,0.2,0.2,0.4,0.3,0.5l0.2,0.2l-2,0.1v-1c-0.3,0.3-0.6,0.6-1,0.7C36.3,12.7,35.8,12.8,35.3,12.8z M35.3,3.7
				c-0.6,0-1.2,0.1-1.7,0.3c-0.5,0.2-1,0.5-1.3,1c-0.4,0.4-0.7,0.9-0.9,1.5C31.2,7,31,7.7,31,8.4c0,0.6,0.1,1.2,0.3,1.7
				c0.2,0.5,0.5,1,0.9,1.3c0.4,0.4,0.8,0.7,1.3,0.9c0.5,0.2,1.1,0.3,1.8,0.3c0.1,0,0.3,0,0.4,0c-0.6,0-1.1-0.1-1.6-0.4
				c-0.4-0.3-0.8-0.6-1.1-1.1c-0.3-0.4-0.5-1-0.7-1.5C32.1,9,32,8.4,32,7.7c0-0.6,0.1-1.1,0.2-1.6c0.1-0.5,0.4-0.9,0.6-1.3
				c0.3-0.4,0.6-0.6,1-0.8c0.4-0.2,0.8-0.3,1.3-0.3c0.6,0,1.2,0.2,1.7,0.5C37.3,4.5,37.7,5,38,5.7l0,0v5.4l0.1-0.1v1.5l1.2,0
				c-0.1-0.1-0.1-0.2-0.2-0.4c-0.1-0.2-0.1-0.6-0.1-1.1V0.7l-1.2,0.1c0.1,0.1,0.1,0.2,0.2,0.3C38,1.3,38,1.6,38,1.9v2.9l-0.2-0.2
				c-0.3-0.3-0.7-0.5-1.1-0.7C36.3,3.8,35.8,3.7,35.3,3.7z M35.2,4c-0.5,0-0.9,0.1-1.2,0.3c-0.4,0.2-0.7,0.4-0.9,0.8
				c-0.2,0.3-0.4,0.7-0.6,1.2c-0.1,0.5-0.2,1-0.2,1.6c0,0.6,0.1,1.2,0.2,1.8c0.1,0.6,0.4,1,0.7,1.5c0.3,0.4,0.6,0.7,1.1,1
				c0.4,0.2,0.9,0.4,1.4,0.4c0.4,0,0.8-0.1,1.2-0.3c0.4-0.2,0.7-0.5,0.9-0.9V5.8c-0.3-0.6-0.6-1.1-1-1.4C36.3,4.1,35.8,4,35.2,4z"/>
		</g>
		<g>
			<path class="st0" d="M41.9,3.7l1.6-0.1V10c0,0.5,0,0.8,0.1,1.2s0.2,0.6,0.4,0.8c0.2,0.2,0.4,0.3,0.6,0.4c0.2,0.1,0.5,0.1,0.8,0.1
				c0.5,0,0.9-0.1,1.2-0.3s0.6-0.5,0.9-0.8c0.2-0.3,0.4-0.7,0.5-1.1c0.1-0.4,0.2-0.8,0.2-1.2V5.4c0-0.2,0-0.4,0-0.6
				c0-0.2,0-0.3-0.1-0.4c0-0.1-0.1-0.2-0.1-0.4c-0.1-0.1-0.1-0.2-0.2-0.3l1.6-0.1v7.5c0,0.5,0,0.8,0.1,1s0.2,0.4,0.3,0.5l-1.6,0
				v-2.4c-0.2,0.4-0.3,0.7-0.5,1c-0.2,0.3-0.4,0.6-0.6,0.8s-0.5,0.4-0.9,0.5c-0.3,0.1-0.7,0.2-1.1,0.2c-0.9,0-1.6-0.2-2.2-0.7
				s-0.8-1.2-0.8-2.1V5.4c0-0.2,0-0.4,0-0.6c0-0.2,0-0.3-0.1-0.4c0-0.1-0.1-0.2-0.1-0.4C42.1,3.9,42,3.8,41.9,3.7z"/>
			<path class="st0" d="M45.3,12.8c-0.9,0-1.7-0.2-2.3-0.7c-0.6-0.5-0.8-1.2-0.8-2.2V5.4c0-0.2,0-0.4,0-0.6c0-0.2,0-0.3-0.1-0.4
				c0-0.1-0.1-0.2-0.1-0.3C42,4,41.9,3.9,41.8,3.8l-0.1-0.2l2-0.2V10c0,0.4,0,0.8,0.1,1.1c0.1,0.3,0.2,0.5,0.4,0.7
				c0.2,0.2,0.4,0.3,0.6,0.4c0.2,0.1,0.5,0.1,0.8,0.1c0.5,0,0.8-0.1,1.2-0.3c0.3-0.2,0.6-0.5,0.8-0.8c0.2-0.3,0.4-0.7,0.5-1.1
				c0.1-0.4,0.2-0.8,0.2-1.2V5.4c0-0.2,0-0.4,0-0.6c0-0.2,0-0.3-0.1-0.4c0-0.1-0.1-0.2-0.1-0.3C48,4,48,3.9,47.9,3.8l-0.1-0.2l2-0.2
				v7.6c0,0.5,0,0.8,0.1,1c0.1,0.2,0.2,0.4,0.3,0.5l0.2,0.2l-2,0.1v-2c-0.1,0.2-0.2,0.4-0.3,0.5c-0.2,0.3-0.4,0.6-0.7,0.8
				c-0.3,0.2-0.6,0.4-0.9,0.5C46.2,12.8,45.8,12.8,45.3,12.8z M42.2,3.8c0,0.1,0.1,0.1,0.1,0.2c0.1,0.1,0.1,0.2,0.1,0.4
				c0,0.1,0.1,0.3,0.1,0.5c0,0.2,0,0.4,0,0.6v4.5c0,0.9,0.3,1.6,0.8,2c0.5,0.4,1.2,0.6,2,0.7c-0.2,0-0.4-0.1-0.6-0.1
				c-0.3-0.1-0.5-0.2-0.7-0.5c-0.2-0.2-0.3-0.5-0.4-0.8c-0.1-0.3-0.1-0.7-0.1-1.2V3.7L42.2,3.8z M48.6,9.7v2.9l1.2,0
				c-0.1-0.1-0.1-0.2-0.2-0.4c-0.1-0.2-0.1-0.6-0.1-1.1V3.7l-1.3,0.1c0,0.1,0.1,0.1,0.1,0.2c0.1,0.1,0.1,0.2,0.1,0.4
				c0,0.1,0.1,0.3,0.1,0.5c0,0.2,0,0.4,0,0.6V9c0,0.4-0.1,0.8-0.2,1.2c-0.1,0.2-0.1,0.3-0.2,0.5c0.1-0.2,0.1-0.3,0.2-0.5L48.6,9.7z"
				/>
		</g>
		<g>
			<path class="st0" d="M56.8,3.6c0.7,0,1.3,0.1,1.9,0.4c0.6,0.2,1.1,0.5,1.6,0.9l-0.5,2.5c-0.1-0.7-0.2-1.2-0.4-1.7
				S59,4.8,58.7,4.6c-0.3-0.3-0.6-0.5-0.9-0.6s-0.7-0.2-1-0.2c-0.5,0-0.9,0.1-1.2,0.3c-0.4,0.2-0.7,0.5-1,0.9
				c-0.3,0.4-0.5,0.8-0.6,1.4c-0.2,0.5-0.2,1.1-0.2,1.8c0,0.7,0.1,1.3,0.2,1.8s0.4,1,0.7,1.4c0.3,0.4,0.6,0.7,1,0.9
				c0.4,0.2,0.8,0.3,1.3,0.3c0.8,0,1.5-0.3,2.1-0.9c0.6-0.6,1.1-1.5,1.4-2.6l-0.1,2.7c-0.2,0.2-0.5,0.4-0.8,0.5
				c-0.3,0.1-0.6,0.3-0.9,0.3c-0.3,0.1-0.6,0.1-0.9,0.2c-0.3,0-0.6,0.1-0.8,0.1c-0.6,0-1.2-0.1-1.8-0.3s-1-0.5-1.4-0.9
				c-0.4-0.4-0.7-0.9-0.9-1.5c-0.2-0.6-0.3-1.2-0.3-1.9c0-0.7,0.1-1.3,0.3-1.8c0.2-0.6,0.5-1,0.9-1.4C54,4.4,54.5,4.1,55,3.9
				C55.6,3.7,56.2,3.6,56.8,3.6z"/>
			<path class="st0" d="M56.9,12.8c-0.7,0-1.3-0.1-1.8-0.3c-0.6-0.2-1.1-0.5-1.5-1c-0.4-0.4-0.7-0.9-1-1.5c-0.2-0.6-0.4-1.2-0.4-1.9
				c0-0.7,0.1-1.3,0.3-1.9c0.2-0.6,0.5-1.1,0.9-1.5C54,4.3,54.4,4,55,3.8c0.5-0.2,1.2-0.3,1.8-0.3c0.7,0,1.4,0.1,2,0.4
				c0.6,0.2,1.1,0.5,1.6,0.9l0.1,0l-0.7,3.4l-0.1-0.8c-0.1-0.7-0.2-1.2-0.4-1.6c-0.2-0.4-0.4-0.8-0.7-1.1c-0.3-0.3-0.5-0.4-0.9-0.6
				c-0.7-0.3-1.5-0.2-2.1,0.1c-0.4,0.2-0.7,0.5-0.9,0.8c-0.3,0.4-0.5,0.8-0.6,1.3c-0.1,0.5-0.2,1.1-0.2,1.7c0,0.6,0.1,1.2,0.2,1.8
				c0.2,0.5,0.4,1,0.6,1.3c0.3,0.4,0.6,0.7,1,0.8c0.4,0.2,0.8,0.3,1.2,0.3c0.8,0,1.4-0.3,2-0.9c0.6-0.6,1-1.5,1.3-2.6l0.3-1.2
				l-0.2,3.9l0,0c-0.3,0.2-0.5,0.4-0.8,0.6c-0.3,0.1-0.6,0.3-0.9,0.4c-0.3,0.1-0.6,0.1-0.9,0.2C57.5,12.8,57.2,12.8,56.9,12.8z
				 M56.2,3.7c-0.4,0-0.8,0.1-1.2,0.3c-0.5,0.2-1,0.5-1.3,0.9c-0.4,0.4-0.7,0.9-0.9,1.4c-0.2,0.5-0.3,1.1-0.3,1.8
				c0,0.7,0.1,1.3,0.3,1.9c0.2,0.5,0.5,1,0.9,1.4c0.4,0.4,0.8,0.7,1.4,0.9c0.4,0.1,0.7,0.2,1.1,0.3c-0.3-0.1-0.5-0.1-0.7-0.3
				c-0.4-0.2-0.8-0.5-1.1-0.9C54.2,11,54,10.5,53.8,10c-0.2-0.5-0.2-1.2-0.2-1.8c0-0.7,0.1-1.3,0.2-1.8c0.2-0.5,0.4-1,0.7-1.4
				c0.3-0.4,0.6-0.7,1-0.9C55.7,3.9,56,3.8,56.2,3.7z M60.3,9.9c-0.3,0.7-0.7,1.3-1.1,1.8c-0.5,0.5-1,0.8-1.6,0.9c0,0,0.1,0,0.1,0
				c0.3,0,0.6-0.1,0.9-0.2c0.3-0.1,0.6-0.2,0.9-0.3c0.3-0.1,0.5-0.3,0.7-0.5L60.3,9.9z M57.4,3.7c0.1,0,0.3,0.1,0.4,0.1
				c0.3,0.1,0.7,0.3,0.9,0.6c0.3,0.3,0.5,0.7,0.7,1.1c0.1,0.3,0.2,0.6,0.3,1l0.4-1.7c-0.4-0.3-0.9-0.6-1.5-0.8
				C58.3,3.9,57.9,3.8,57.4,3.7z"/>
		</g>
		<g>
			<path class="st0" d="M67.2,3.6c0.6,0,1.2,0.1,1.7,0.3C69.3,4,69.7,4.3,70,4.6c0.3,0.3,0.5,0.7,0.7,1.2c0.2,0.4,0.2,0.9,0.2,1.5
				h-6.7c0,0.2,0,0.3,0,0.5s0,0.3,0,0.5c0,0.6,0.1,1.2,0.2,1.7c0.2,0.5,0.4,1,0.7,1.4c0.3,0.4,0.6,0.7,1,0.9
				c0.4,0.2,0.8,0.3,1.3,0.3c0.4,0,0.8-0.1,1.2-0.2c0.3-0.2,0.7-0.4,0.9-0.7c0.3-0.3,0.5-0.6,0.8-1c0.2-0.4,0.4-0.8,0.6-1.3
				l-0.1,2.3c-0.5,0.4-1,0.7-1.6,0.9c-0.6,0.2-1.2,0.3-1.7,0.3c-0.7,0-1.3-0.1-1.8-0.3s-1-0.5-1.5-0.9c-0.4-0.4-0.7-0.9-0.9-1.4
				c-0.2-0.6-0.3-1.2-0.3-1.9c0-0.7,0.1-1.3,0.3-1.8c0.2-0.6,0.5-1,0.9-1.5c0.4-0.4,0.8-0.7,1.3-1S66.5,3.6,67.2,3.6z M64.3,7h5.4
				c0-0.5-0.1-0.9-0.2-1.3c-0.1-0.4-0.3-0.7-0.5-1c-0.2-0.3-0.5-0.5-0.8-0.7s-0.7-0.2-1.1-0.2c-0.4,0-0.7,0.1-1,0.2
				c-0.3,0.2-0.6,0.4-0.9,0.7c-0.2,0.3-0.5,0.6-0.6,1S64.3,6.6,64.3,7z"/>
			<path class="st0" d="M67.5,12.8c-0.7,0-1.3-0.1-1.9-0.3c-0.6-0.2-1.1-0.5-1.5-0.9c-0.4-0.4-0.7-0.9-1-1.5
				c-0.2-0.6-0.3-1.2-0.3-1.9c0-0.7,0.1-1.3,0.3-1.9c0.2-0.6,0.5-1.1,0.9-1.5c0.4-0.4,0.8-0.8,1.4-1c0.5-0.2,1.2-0.4,1.8-0.4
				c0.6,0,1.2,0.1,1.7,0.3c0.5,0.2,0.9,0.5,1.2,0.8c0.3,0.3,0.6,0.7,0.7,1.2C71,6.2,71,6.7,71,7.2l0,0.1h-6.7c0,0.1,0,0.2,0,0.4
				c0,0.2,0,0.3,0,0.5c0,0.6,0.1,1.1,0.2,1.7c0.2,0.5,0.4,1,0.7,1.3c0.3,0.4,0.6,0.7,1,0.9c0.4,0.2,0.8,0.3,1.3,0.3
				c0.4,0,0.8-0.1,1.1-0.2c0.3-0.1,0.6-0.4,0.9-0.6c0.3-0.3,0.5-0.6,0.8-1c0.2-0.4,0.4-0.8,0.6-1.3l0.3-0.8l-0.2,3.2l0,0
				c-0.5,0.4-1,0.7-1.6,0.9C68.6,12.7,68,12.8,67.5,12.8z M66.5,3.7c-0.4,0.1-0.7,0.1-1,0.3c-0.5,0.2-0.9,0.5-1.3,0.9
				c-0.4,0.4-0.6,0.9-0.8,1.4C63.1,6.9,63,7.5,63,8.2c0,0.7,0.1,1.3,0.3,1.8c0.2,0.5,0.5,1,0.9,1.4c0.4,0.4,0.9,0.7,1.4,0.9
				c0.4,0.1,0.8,0.2,1.2,0.3c-0.3-0.1-0.5-0.1-0.8-0.3c-0.4-0.2-0.8-0.5-1.1-0.9c-0.3-0.4-0.5-0.9-0.7-1.4C64.1,9.4,64,8.8,64,8.2
				c0-0.2,0-0.3,0-0.5c0-0.2,0-0.3,0-0.5l0-0.2c0.1-0.5,0.2-0.9,0.4-1.3c0.2-0.4,0.4-0.8,0.6-1.1c0.3-0.3,0.6-0.5,0.9-0.7
				C66.2,3.8,66.3,3.8,66.5,3.7z M70.8,10c-0.1,0.2-0.2,0.4-0.3,0.6c-0.2,0.4-0.5,0.8-0.8,1.1c-0.3,0.3-0.6,0.5-1,0.7
				c-0.2,0.1-0.3,0.1-0.5,0.2c0.3,0,0.7-0.1,1-0.2c0.6-0.2,1.1-0.4,1.5-0.8L70.8,10z M69.8,7.1h1c0-0.5-0.1-0.9-0.2-1.3
				c-0.1-0.4-0.4-0.8-0.7-1.1c-0.3-0.3-0.7-0.6-1.1-0.7c-0.3-0.1-0.6-0.2-1-0.2c0.2,0,0.3,0.1,0.5,0.2c0.3,0.2,0.6,0.4,0.8,0.7
				c0.2,0.3,0.4,0.7,0.5,1.1C69.7,6.1,69.8,6.6,69.8,7.1L69.8,7.1z M64.4,6.9h5.1c0-0.4-0.1-0.8-0.2-1.1c-0.1-0.4-0.3-0.7-0.5-1
				c-0.2-0.3-0.4-0.5-0.7-0.7c-0.3-0.2-0.6-0.2-1-0.2c-0.4,0-0.7,0.1-1,0.2c-0.3,0.2-0.6,0.4-0.8,0.6c-0.2,0.3-0.4,0.6-0.6,1
				C64.6,6.1,64.5,6.5,64.4,6.9z"/>
		</g>
		<g>
			<path class="st0" d="M77.7,3.6c0.5,0,1,0.1,1.4,0.2s0.8,0.4,1.2,0.7V1.9c0-0.3,0-0.6-0.1-0.7c-0.1-0.1-0.2-0.3-0.3-0.4l1.6-0.2
				v10.5c0,0.5,0,0.8,0.1,1s0.2,0.4,0.3,0.5l-1.6,0v-1.2c-0.3,0.4-0.7,0.8-1.2,1s-0.9,0.3-1.4,0.3c-0.7,0-1.3-0.1-1.8-0.3
				c-0.5-0.2-1-0.5-1.4-0.9c-0.4-0.4-0.7-0.8-0.9-1.4c-0.2-0.5-0.3-1.1-0.3-1.7c0-0.7,0.1-1.4,0.3-1.9c0.2-0.6,0.5-1.1,0.9-1.5
				c0.4-0.4,0.9-0.8,1.4-1S77.1,3.6,77.7,3.6z M74.5,7.7c0,0.6,0.1,1.3,0.2,1.8c0.2,0.6,0.4,1.1,0.7,1.5c0.3,0.4,0.7,0.8,1.1,1
				c0.4,0.2,0.9,0.4,1.5,0.4c0.5,0,0.9-0.1,1.3-0.3c0.4-0.2,0.7-0.5,1-0.9V5.8c-0.3-0.7-0.6-1.2-1.1-1.5c-0.5-0.3-1-0.5-1.6-0.5
				c-0.5,0-0.9,0.1-1.3,0.3c-0.4,0.2-0.7,0.4-1,0.8s-0.5,0.7-0.6,1.2C74.6,6.6,74.5,7.1,74.5,7.7z"/>
			<path class="st0" d="M77.7,12.8c-0.7,0-1.3-0.1-1.9-0.3c-0.6-0.2-1-0.5-1.4-0.9c-0.4-0.4-0.7-0.9-0.9-1.4
				c-0.2-0.5-0.3-1.1-0.3-1.8c0-0.7,0.1-1.4,0.3-2c0.2-0.6,0.5-1.1,0.9-1.6c0.4-0.4,0.9-0.8,1.4-1c0.5-0.2,1.2-0.4,1.8-0.4
				c0.5,0,1,0.1,1.4,0.2c0.4,0.1,0.7,0.3,1,0.5V1.9c0-0.3,0-0.5-0.1-0.7C80,1.1,80,1,79.8,0.9l-0.2-0.2l2-0.2v10.6
				c0,0.4,0,0.8,0.1,1c0.1,0.2,0.2,0.4,0.3,0.5l0.2,0.2l-2,0.1v-1c-0.3,0.3-0.6,0.6-1,0.7C78.7,12.7,78.2,12.8,77.7,12.8z M77.7,3.7
				c-0.6,0-1.2,0.1-1.7,0.3c-0.5,0.2-1,0.5-1.3,1c-0.4,0.4-0.7,0.9-0.9,1.5c-0.2,0.6-0.3,1.2-0.3,1.9c0,0.6,0.1,1.2,0.3,1.7
				c0.2,0.5,0.5,1,0.9,1.3c0.4,0.4,0.8,0.7,1.3,0.9c0.5,0.2,1.1,0.3,1.8,0.3c0.1,0,0.3,0,0.4,0c-0.6,0-1.1-0.1-1.6-0.4
				c-0.4-0.3-0.8-0.6-1.1-1.1c-0.3-0.4-0.5-1-0.7-1.5c-0.2-0.6-0.2-1.2-0.2-1.9c0-0.6,0.1-1.1,0.2-1.6c0.1-0.5,0.4-0.9,0.6-1.3
				c0.3-0.4,0.6-0.6,1-0.8c0.4-0.2,0.8-0.3,1.3-0.3c0.6,0,1.2,0.2,1.7,0.5c0.5,0.3,0.9,0.8,1.2,1.5l0,0v5.4l0.1-0.1v1.5l1.2,0
				c-0.1-0.1-0.1-0.2-0.2-0.4c-0.1-0.2-0.1-0.6-0.1-1.1V0.7l-1.2,0.1c0.1,0.1,0.1,0.2,0.2,0.3c0.1,0.2,0.1,0.4,0.1,0.8v2.9l-0.2-0.2
				c-0.3-0.3-0.7-0.5-1.1-0.7C78.7,3.8,78.2,3.7,77.7,3.7z M77.6,4c-0.5,0-0.9,0.1-1.2,0.3C76,4.4,75.7,4.7,75.5,5
				c-0.2,0.3-0.4,0.7-0.6,1.2c-0.1,0.5-0.2,1-0.2,1.6c0,0.6,0.1,1.2,0.2,1.8c0.1,0.6,0.4,1,0.7,1.5c0.3,0.4,0.6,0.7,1.1,1
				c0.4,0.2,0.9,0.4,1.4,0.4c0.4,0,0.8-0.1,1.2-0.3c0.4-0.2,0.7-0.5,0.9-0.9V5.8c-0.3-0.6-0.6-1.1-1-1.4C78.7,4.1,78.2,4,77.6,4z"/>
		</g>
		<g>
			<path class="st0" d="M90.3,0.8l1.6-0.2v4.1c0.2-0.2,0.4-0.4,0.6-0.5s0.4-0.3,0.7-0.3c0.2-0.1,0.5-0.1,0.7-0.2s0.4,0,0.6,0
				c0.7,0,1.3,0.1,1.9,0.3s1,0.5,1.4,0.9c0.4,0.4,0.7,0.8,0.9,1.4C98.9,6.6,99,7.2,99,7.9c0,0.7-0.1,1.3-0.3,1.9
				c-0.2,0.6-0.5,1.1-0.9,1.5c-0.4,0.4-0.9,0.8-1.4,1s-1.2,0.4-1.8,0.4c-1.1,0-2.1-0.4-2.8-1.1l-0.9,1l-0.1,0V1.9
				c0-0.3,0-0.6-0.1-0.7C90.6,1.1,90.5,0.9,90.3,0.8z M94.6,12.4c0.5,0,0.9-0.1,1.3-0.3c0.4-0.2,0.7-0.5,1-0.8
				c0.3-0.4,0.5-0.8,0.6-1.2s0.2-1,0.2-1.6c0-0.6-0.1-1.2-0.2-1.8c-0.2-0.6-0.4-1.1-0.7-1.5c-0.3-0.4-0.7-0.8-1.1-1s-1-0.4-1.5-0.4
				c-0.4,0-0.8,0.1-1.2,0.2S92.2,4.5,91.9,5v5.7c0.3,0.6,0.7,1,1.1,1.3C93.4,12.3,94,12.4,94.6,12.4z"/>
			<path class="st0" d="M94.5,12.8c-1.1,0-2.1-0.3-2.8-1l-0.8,1l-0.2-0.1V1.9c0-0.3,0-0.5-0.1-0.7c0-0.1-0.1-0.2-0.3-0.4L90,0.7
				l2-0.2v3.9c0.1-0.1,0.3-0.2,0.4-0.3c0.2-0.1,0.5-0.3,0.7-0.3c0.2-0.1,0.5-0.1,0.7-0.2c0.2,0,0.5,0,0.7,0c0.7,0,1.3,0.1,1.9,0.3
				C97,4,97.5,4.3,97.9,4.7c0.4,0.4,0.7,0.9,0.9,1.4c0.2,0.5,0.3,1.2,0.3,1.8c0,0.7-0.1,1.3-0.4,1.9c-0.2,0.6-0.6,1.1-1,1.6
				c-0.4,0.5-0.9,0.8-1.5,1.1C95.8,12.7,95.1,12.8,94.5,12.8z M91.6,11.4L91.6,11.4c0.8,0.8,1.7,1.2,2.8,1.2c0.6,0,1.2-0.1,1.8-0.4
				c0.5-0.2,1-0.6,1.4-1c0.4-0.4,0.7-0.9,0.9-1.5c0.2-0.6,0.3-1.2,0.3-1.8c0-0.6-0.1-1.2-0.3-1.7c-0.2-0.5-0.5-1-0.9-1.3
				c-0.4-0.4-0.8-0.6-1.4-0.8c-0.5-0.2-1.2-0.3-1.8-0.3c-0.2,0-0.4,0-0.6,0c0.7-0.1,1.4,0.1,1.9,0.4c0.5,0.3,0.8,0.6,1.2,1
				c0.3,0.4,0.5,0.9,0.7,1.5c0.2,0.6,0.2,1.2,0.2,1.8c0,0.6-0.1,1.1-0.2,1.6c-0.2,0.5-0.4,0.9-0.7,1.3c-0.3,0.4-0.6,0.7-1.1,0.9
				c-0.4,0.2-0.9,0.3-1.4,0.3c-0.6,0-1.2-0.2-1.6-0.5c-0.5-0.3-0.8-0.8-1.2-1.4l0-0.1V0.7l-1.2,0.1c0.1,0.1,0.1,0.2,0.2,0.3
				c0.1,0.2,0.1,0.4,0.1,0.8v10.5L91.6,11.4z M92,10.6c0.3,0.6,0.7,1,1.1,1.3c0.4,0.3,0.9,0.4,1.5,0.4c0.5,0,0.9-0.1,1.3-0.3
				c0.4-0.2,0.7-0.5,1-0.8c0.3-0.3,0.5-0.7,0.6-1.2c0.1-0.5,0.2-1,0.2-1.5c0-0.6-0.1-1.2-0.2-1.8c-0.1-0.5-0.4-1-0.7-1.4
				c-0.3-0.4-0.6-0.7-1.1-1C95,3.9,94.1,3.8,93,4.2c-0.4,0.1-0.7,0.4-1,0.8V10.6z"/>
		</g>
		<g>
			<path class="st0" d="M102.9,3.7c-0.1,0.1-0.1,0.2-0.2,0.3s0,0.4,0.2,0.8l2.6,6.5l2.5-6.5c0.1-0.2,0.1-0.4,0.1-0.5
				c0-0.1,0-0.2-0.1-0.3c0-0.1-0.1-0.2-0.2-0.2c-0.1,0-0.1-0.1-0.2-0.1h1.5c-0.1,0.1-0.2,0.2-0.4,0.3c-0.2,0.2-0.3,0.4-0.5,0.8
				l-3.4,8.4c-0.1,0.2-0.2,0.4-0.3,0.6c-0.1,0.2-0.3,0.5-0.5,0.7c-0.2,0.2-0.4,0.4-0.7,0.6c-0.3,0.2-0.6,0.3-0.9,0.3l-0.6-1.6
				c0.4,0.2,0.8,0.3,1.2,0.3s0.7-0.1,1-0.4c0.3-0.2,0.6-0.6,0.7-1.1l-3.4-8.1c-0.1-0.3-0.3-0.6-0.4-0.7c-0.1-0.1-0.2-0.2-0.3-0.3
				H102.9z"/>
			<path class="st0" d="M102.5,15.5l-0.7-2l0.3,0.1c0.8,0.4,1.5,0.4,2,0c0.3-0.2,0.5-0.5,0.7-1l-3.3-8c-0.1-0.3-0.3-0.5-0.4-0.7
				c-0.1-0.1-0.2-0.2-0.3-0.3l-0.4-0.2h2.8L103,3.7c-0.1,0.1-0.1,0.1-0.2,0.3c0,0.1,0,0.2,0.2,0.7l2.5,6.2l2.4-6.2
				c0.1-0.2,0.1-0.3,0.1-0.4c0-0.1,0-0.2-0.1-0.3c0-0.1-0.1-0.1-0.1-0.2l-0.5-0.3h2.3l-0.3,0.2c-0.1,0.1-0.2,0.2-0.4,0.3
				c-0.2,0.1-0.3,0.4-0.4,0.7l-3.4,8.4c-0.1,0.2-0.2,0.4-0.3,0.6c-0.1,0.2-0.3,0.5-0.5,0.7c-0.2,0.2-0.4,0.4-0.7,0.6
				c-0.3,0.2-0.6,0.3-1,0.4L102.5,15.5z M102.3,14.1l0.4,1.2c0.3-0.1,0.6-0.2,0.8-0.3c0.3-0.2,0.5-0.4,0.7-0.6
				c0.2-0.2,0.3-0.4,0.5-0.7c0.1-0.1,0.1-0.2,0.2-0.3c-0.1,0.2-0.3,0.4-0.4,0.5C103.7,14.3,103,14.4,102.3,14.1z M101.3,3.8
				C101.3,3.8,101.3,3.8,101.3,3.8c0.2,0.2,0.3,0.5,0.5,0.8l3.3,8.1l0.4-1.1l-2.7-6.8c-0.2-0.4-0.2-0.7-0.2-0.9c0-0.1,0-0.1,0.1-0.2
				H101.3z M108.1,3.8c0,0,0.1,0.1,0.1,0.1c0.1,0.1,0.1,0.2,0.1,0.4c0,0.2,0,0.3-0.1,0.6l-0.3,0.8l0.4-0.9c0.2-0.4,0.3-0.7,0.5-0.8
				c0,0,0.1-0.1,0.1-0.1H108.1z"/>
		</g>
		<g>
			<path class="st0" d="M119.3,1.6c0,0-0.1,0.1-0.1,0.1c0,0.1-0.1,0.1-0.1,0.2c0,0.1,0,0.2,0,0.3c0,0.1,0.1,0.3,0.2,0.4l3.1,4.8
				l2.7-4.1c0.2-0.4,0.4-0.7,0.5-0.9c0.1-0.2,0.1-0.4,0.1-0.5s0-0.2-0.1-0.3s-0.1-0.1-0.1-0.2h1.5c-0.1,0-0.3,0.2-0.5,0.4
				c-0.2,0.2-0.4,0.5-0.7,0.9l-3.2,4.8v3.5c0,0.5,0.1,0.8,0.2,1c0.1,0.2,0.3,0.3,0.7,0.4h-2.9c0.3-0.1,0.6-0.2,0.7-0.4
				c0.1-0.2,0.2-0.5,0.2-1V7.8l-3.1-4.6c-0.3-0.5-0.6-0.9-0.8-1.2c-0.2-0.2-0.4-0.4-0.5-0.5H119.3z"/>
			<path class="st0" d="M124.3,12.8h-4.6l0.9-0.2c0.3-0.1,0.5-0.2,0.6-0.4c0.1-0.2,0.2-0.5,0.2-0.9V7.9l-3-4.6
				c-0.3-0.5-0.6-0.9-0.8-1.1c-0.2-0.2-0.4-0.4-0.5-0.4l-0.5-0.2h3.2l-0.3,0.2c0,0-0.1,0.1-0.1,0.1c0,0,0,0.1-0.1,0.2
				c0,0.1,0,0.2,0,0.3c0,0.1,0.1,0.3,0.2,0.4l3,4.6l2.6-3.9c0.2-0.4,0.4-0.6,0.5-0.9c0.1-0.2,0.1-0.4,0.1-0.5c0-0.1,0-0.2,0-0.2
				c-0.1-0.1-0.1-0.1-0.1-0.2l-0.2-0.2h2.6l-0.8,0.2c-0.1,0-0.2,0.1-0.5,0.3c-0.2,0.2-0.4,0.5-0.7,0.9l-3.2,4.8v3.5
				c0,0.4,0.1,0.7,0.2,0.9c0.1,0.2,0.3,0.3,0.6,0.4L124.3,12.8z M121.2,12.5h1.8c-0.1-0.1-0.2-0.2-0.2-0.2c-0.1-0.2-0.2-0.5-0.2-1
				V7.7l0,0l-3.2-4.9c-0.1-0.2-0.2-0.3-0.2-0.5c0-0.1-0.1-0.3-0.1-0.4c0-0.1,0-0.2,0.1-0.2h-1.7c0.1,0.1,0.2,0.1,0.2,0.2
				c0.2,0.2,0.5,0.6,0.9,1.2l3.1,4.7v3.4c0,0.5-0.1,0.8-0.2,1C121.3,12.4,121.3,12.4,121.2,12.5z M125.9,1.7c0,0.1,0.1,0.2,0.1,0.3
				c0,0.1,0,0.3-0.1,0.6c-0.1,0.1-0.1,0.3-0.3,0.5l0.2-0.3c0.3-0.4,0.5-0.7,0.7-0.9c0.1-0.1,0.1-0.1,0.2-0.2H125.9z"/>
		</g>
		<g>
			<path class="st0" d="M133,3.6c0.7,0,1.3,0.1,1.9,0.3s1,0.5,1.4,0.9s0.7,0.9,0.9,1.4s0.3,1.2,0.3,1.8v0c0,0.7-0.1,1.3-0.3,1.8
				s-0.5,1-0.9,1.4s-0.9,0.7-1.4,0.9s-1.2,0.3-1.9,0.3c-0.7,0-1.3-0.1-1.9-0.3s-1-0.5-1.4-0.9c-0.4-0.4-0.7-0.9-0.9-1.4
				s-0.3-1.2-0.3-1.8v0c0-0.7,0.1-1.3,0.3-1.8s0.5-1,0.9-1.4c0.4-0.4,0.9-0.7,1.4-0.9S132.3,3.6,133,3.6z M129.7,8.1
				c0,0.6,0.1,1.2,0.2,1.7c0.2,0.5,0.4,1,0.7,1.4c0.3,0.4,0.6,0.7,1,0.9c0.4,0.2,0.8,0.3,1.3,0.3c0.5,0,0.9-0.1,1.3-0.3
				c0.4-0.2,0.7-0.5,1-0.9s0.5-0.8,0.7-1.4s0.2-1.1,0.2-1.7s-0.1-1.2-0.2-1.7s-0.4-1-0.7-1.4c-0.3-0.4-0.6-0.7-1-0.9
				c-0.4-0.2-0.8-0.3-1.3-0.3c-0.5,0-0.9,0.1-1.3,0.3c-0.4,0.2-0.7,0.5-1,0.9c-0.3,0.4-0.5,0.8-0.7,1.4
				C129.8,6.9,129.7,7.5,129.7,8.1z"/>
			<path class="st0" d="M133,12.8c-0.7,0-1.3-0.1-1.9-0.3c-0.6-0.2-1.1-0.6-1.5-1c-0.4-0.4-0.7-0.9-1-1.5c-0.2-0.6-0.3-1.2-0.3-1.9
				c0-0.7,0.1-1.3,0.3-1.9c0.2-0.6,0.6-1.1,1-1.5c0.4-0.4,0.9-0.7,1.5-1c0.6-0.2,1.2-0.3,1.9-0.3s1.3,0.1,1.9,0.3
				c0.6,0.2,1.1,0.6,1.5,1s0.7,0.9,1,1.5c0.2,0.6,0.3,1.2,0.3,1.9c0,0.7-0.1,1.3-0.3,1.9c-0.2,0.6-0.6,1.1-1,1.5s-0.9,0.7-1.5,1
				C134.3,12.7,133.7,12.8,133,12.8z M133.4,3.7c0.3,0,0.7,0.1,1,0.3c0.4,0.2,0.8,0.5,1.1,0.9c0.3,0.4,0.5,0.9,0.7,1.4
				c0.2,0.5,0.2,1.1,0.2,1.8s-0.1,1.2-0.2,1.8c-0.2,0.5-0.4,1-0.7,1.4c-0.3,0.4-0.7,0.7-1.1,0.9c-0.3,0.2-0.6,0.3-1,0.3
				c0.5,0,1-0.1,1.4-0.3c0.5-0.2,1-0.5,1.4-0.9c0.4-0.4,0.7-0.9,0.9-1.4c0.2-0.5,0.3-1.1,0.3-1.8c0-0.7-0.1-1.3-0.3-1.8
				c-0.2-0.5-0.5-1-0.9-1.4c-0.4-0.4-0.9-0.7-1.4-0.9C134.3,3.9,133.9,3.7,133.4,3.7z M132.5,3.7c-0.5,0-1,0.1-1.4,0.3
				c-0.5,0.2-1,0.5-1.4,0.9c-0.4,0.4-0.7,0.9-0.9,1.4c-0.2,0.5-0.3,1.1-0.3,1.8c0,0.7,0.1,1.3,0.3,1.8c0.2,0.5,0.5,1,0.9,1.4
				c0.4,0.4,0.9,0.7,1.4,0.9c0.4,0.2,0.9,0.3,1.4,0.3c-0.3,0-0.7-0.1-1-0.3c-0.4-0.2-0.8-0.5-1.1-0.9c-0.3-0.4-0.5-0.9-0.7-1.4
				c-0.2-0.5-0.2-1.1-0.2-1.8s0.1-1.2,0.2-1.8c0.2-0.5,0.4-1,0.7-1.4c0.3-0.4,0.7-0.7,1.1-0.9C131.9,3.9,132.2,3.8,132.5,3.7z
				 M133,3.9c-0.5,0-0.9,0.1-1.3,0.3c-0.4,0.2-0.7,0.5-1,0.9c-0.3,0.4-0.5,0.8-0.6,1.3c-0.2,0.5-0.2,1.1-0.2,1.7s0.1,1.2,0.2,1.7
				c0.2,0.5,0.4,1,0.6,1.3c0.3,0.4,0.6,0.7,1,0.9c0.4,0.2,0.8,0.3,1.3,0.3c0.5,0,0.9-0.1,1.3-0.3c0.4-0.2,0.7-0.5,1-0.9
				c0.3-0.4,0.5-0.8,0.6-1.3c0.2-0.5,0.2-1.1,0.2-1.7s-0.1-1.2-0.2-1.7c-0.2-0.5-0.4-1-0.6-1.3c-0.3-0.4-0.6-0.7-1-0.9
				C133.9,4,133.4,3.9,133,3.9z"/>
		</g>
		<g>
			<path class="st0" d="M139.9,11.8l0.3-3c0.1,0.7,0.2,1.3,0.4,1.8c0.2,0.5,0.4,0.9,0.7,1.1c0.3,0.3,0.6,0.5,0.9,0.6
				s0.7,0.2,1.1,0.2c0.8,0,1.4-0.2,1.8-0.6c0.4-0.4,0.6-0.8,0.6-1.4c0-0.3-0.1-0.6-0.2-0.8c-0.1-0.2-0.3-0.4-0.4-0.5
				c-0.2-0.1-0.3-0.3-0.5-0.3c-0.2-0.1-0.4-0.1-0.5-0.2l-1.7-0.6c-0.2-0.1-0.4-0.1-0.6-0.2c-0.2-0.1-0.4-0.3-0.6-0.4
				c-0.2-0.2-0.4-0.4-0.5-0.7c-0.1-0.3-0.2-0.6-0.2-0.9c0-0.7,0.3-1.3,0.8-1.7c0.5-0.4,1.2-0.6,2.1-0.6c0.6,0,1.1,0.1,1.6,0.3
				c0.5,0.2,0.9,0.4,1.2,0.7l-0.1,2.1c-0.3-1-0.6-1.8-1-2.2c-0.4-0.5-1-0.7-1.7-0.7c-0.6,0-1,0.1-1.4,0.4c-0.4,0.3-0.6,0.7-0.6,1.2
				c0,0.3,0.1,0.5,0.2,0.6c0.1,0.2,0.2,0.3,0.4,0.4c0.2,0.1,0.3,0.2,0.5,0.3c0.2,0.1,0.3,0.1,0.5,0.2l1.5,0.5
				c0.2,0.1,0.4,0.2,0.7,0.3c0.3,0.1,0.5,0.3,0.7,0.5c0.2,0.2,0.4,0.4,0.6,0.7c0.2,0.3,0.2,0.6,0.2,1.1c0,0.4-0.1,0.8-0.2,1.1
				c-0.1,0.3-0.4,0.6-0.7,0.9c-0.3,0.2-0.6,0.4-1.1,0.6c-0.4,0.1-0.9,0.2-1.5,0.2c-0.6,0-1.2-0.1-1.7-0.2
				C140.7,12.3,140.3,12.1,139.9,11.8z"/>
			<path class="st0" d="M143,12.8c-0.6,0-1.2-0.1-1.8-0.2c-0.6-0.2-1-0.4-1.4-0.7l-0.1,0l0.3-3.1h0.2c0.1,0.7,0.2,1.3,0.4,1.8
				c0.2,0.5,0.4,0.8,0.6,1.1c0.2,0.3,0.5,0.5,0.8,0.6c0.3,0.1,0.7,0.2,1,0.2c0.8,0,1.3-0.2,1.7-0.5c0.4-0.4,0.5-0.8,0.5-1.3
				c0-0.3-0.1-0.5-0.2-0.7c-0.1-0.2-0.2-0.4-0.4-0.5c-0.2-0.1-0.3-0.2-0.5-0.3c-0.2-0.1-0.4-0.1-0.5-0.2l-1.7-0.6
				c-0.2-0.1-0.4-0.1-0.6-0.3c-0.2-0.1-0.4-0.3-0.6-0.5c-0.2-0.2-0.4-0.4-0.5-0.7c-0.1-0.3-0.2-0.6-0.2-1c0-0.7,0.3-1.3,0.8-1.8
				c0.5-0.4,1.3-0.6,2.1-0.6c0.6,0,1.1,0.1,1.6,0.3c0.5,0.2,0.9,0.4,1.3,0.8l0,0l-0.2,3l-0.2-0.8c-0.3-1-0.6-1.8-1-2.2
				c-0.4-0.4-1-0.6-1.6-0.6c-0.5,0-1,0.1-1.4,0.4c-0.3,0.2-0.5,0.6-0.5,1.1c0,0.2,0,0.4,0.1,0.6c0.1,0.2,0.2,0.3,0.4,0.4
				c0.1,0.1,0.3,0.2,0.5,0.3c0.2,0.1,0.3,0.1,0.5,0.2l1.5,0.5c0.2,0.1,0.4,0.2,0.7,0.3c0.3,0.1,0.5,0.3,0.8,0.5
				c0.2,0.2,0.5,0.5,0.6,0.8c0.2,0.3,0.3,0.7,0.3,1.1c0,0.4-0.1,0.8-0.2,1.1c-0.2,0.3-0.4,0.6-0.7,0.9c-0.3,0.3-0.7,0.5-1.1,0.6
				C144.1,12.8,143.6,12.8,143,12.8z M140,11.7c0.3,0.3,0.8,0.5,1.3,0.6c0.4,0.1,0.8,0.2,1.3,0.2c-0.2,0-0.4-0.1-0.6-0.1
				c-0.4-0.1-0.7-0.3-0.9-0.6c-0.3-0.3-0.5-0.7-0.7-1.2c-0.1-0.2-0.2-0.5-0.2-0.7L140,11.7z M142.2,3.8c-0.4,0.1-0.8,0.3-1.1,0.5
				c-0.5,0.4-0.7,0.9-0.7,1.6c0,0.3,0.1,0.6,0.2,0.9c0.1,0.2,0.3,0.5,0.5,0.6c0.2,0.2,0.4,0.3,0.6,0.4c0.2,0.1,0.4,0.2,0.6,0.2
				l1.7,0.6c0.2,0.1,0.3,0.1,0.5,0.2c0.2,0.1,0.4,0.2,0.6,0.4c0.2,0.2,0.3,0.3,0.4,0.6c0.1,0.2,0.2,0.5,0.2,0.9
				c0,0.6-0.2,1.1-0.6,1.5c-0.2,0.2-0.4,0.3-0.6,0.4c0,0,0.1,0,0.1,0c0.4-0.1,0.7-0.3,1-0.5c0.3-0.2,0.5-0.5,0.6-0.8
				c0.1-0.3,0.2-0.7,0.2-1c0-0.4-0.1-0.7-0.2-1c-0.2-0.3-0.3-0.5-0.6-0.7c-0.2-0.2-0.5-0.3-0.7-0.5c-0.3-0.1-0.5-0.2-0.7-0.3
				l-1.5-0.5c-0.2-0.1-0.3-0.1-0.5-0.2c-0.2-0.1-0.4-0.2-0.5-0.3c-0.2-0.1-0.3-0.3-0.4-0.5c-0.1-0.2-0.2-0.4-0.2-0.7
				c0-0.6,0.2-1.1,0.6-1.4C141.7,3.9,142,3.8,142.2,3.8z M143.7,3.7c0.5,0.1,0.9,0.3,1.2,0.7c0.3,0.4,0.6,0.9,0.9,1.6l0.1-1.4
				c-0.3-0.3-0.7-0.5-1.2-0.7C144.3,3.8,144,3.8,143.7,3.7z"/>
		</g>
		<g>
			<path class="st0" d="M148.7,12.6c0.2-0.1,0.3-0.1,0.4-0.2c0.1-0.1,0.2-0.1,0.3-0.2c0.1-0.1,0.1-0.2,0.1-0.4c0-0.2,0-0.4,0-0.6
				V1.9c0-0.3,0-0.6-0.1-0.7c-0.1-0.1-0.2-0.3-0.3-0.4l1.6-0.2v5.5c0.3-0.8,0.7-1.4,1.3-1.8c0.6-0.5,1.3-0.7,2.2-0.7
				c0.5,0,1,0.1,1.4,0.2c0.4,0.1,0.7,0.3,1,0.6c0.3,0.3,0.5,0.6,0.6,0.9c0.1,0.4,0.2,0.8,0.2,1.2v4.7c0,0.2,0,0.4,0,0.6
				s0.1,0.3,0.1,0.4s0.1,0.2,0.3,0.3s0.2,0.1,0.4,0.2h-2.8c0.2-0.1,0.3-0.1,0.4-0.2c0.1-0.1,0.2-0.1,0.3-0.2
				c0.1-0.1,0.1-0.2,0.1-0.4c0-0.2,0-0.4,0-0.6V6.4c0-0.8-0.2-1.4-0.6-1.9c-0.4-0.5-0.9-0.7-1.7-0.7c-0.4,0-0.8,0.1-1.2,0.2
				s-0.7,0.4-1,0.7c-0.3,0.3-0.5,0.7-0.7,1.1c-0.2,0.4-0.3,0.9-0.3,1.5v3.9c0,0.2,0,0.4,0,0.6s0.1,0.3,0.1,0.4s0.1,0.2,0.3,0.3
				s0.2,0.1,0.4,0.2H148.7z"/>
			<path class="st0" d="M159,12.8h-4.4l0.8-0.2c0.2,0,0.3-0.1,0.4-0.2c0.1-0.1,0.2-0.1,0.2-0.2c0.1-0.1,0.1-0.2,0.1-0.3
				c0-0.2,0-0.3,0-0.6V6.4c0-0.8-0.2-1.4-0.5-1.8C155.2,4.2,154.6,4,154,4c-0.4,0-0.8,0.1-1.1,0.2c-0.4,0.1-0.7,0.4-1,0.6
				c-0.3,0.3-0.5,0.6-0.7,1.1c-0.2,0.4-0.3,0.9-0.3,1.5l0,3.9c0,0.2,0,0.4,0,0.5c0,0.1,0.1,0.3,0.1,0.3c0.1,0.1,0.1,0.2,0.2,0.2
				c0.1,0.1,0.2,0.1,0.4,0.2l0.7,0.2h-4.4l0.8-0.2c0.2,0,0.3-0.1,0.4-0.2c0.1-0.1,0.2-0.1,0.2-0.2c0.1-0.1,0.1-0.2,0.1-0.3
				c0-0.2,0-0.3,0-0.6V1.9c0-0.3,0-0.5-0.1-0.7c0-0.1-0.1-0.2-0.3-0.4l-0.2-0.2l2-0.2v5c0.3-0.5,0.6-1,1.1-1.3
				c0.6-0.5,1.4-0.7,2.3-0.7c0.5,0,1,0.1,1.4,0.2c0.4,0.1,0.8,0.4,1,0.6c0.3,0.3,0.5,0.6,0.6,1c0.1,0.4,0.2,0.8,0.2,1.2v4.7
				c0,0.2,0,0.4,0,0.5c0,0.1,0.1,0.3,0.1,0.3c0.1,0.1,0.1,0.2,0.2,0.2c0.1,0.1,0.2,0.1,0.4,0.2L159,12.8z M155.9,12.5h1.7
				c-0.1-0.1-0.2-0.1-0.2-0.2c-0.1-0.1-0.1-0.3-0.2-0.4c0-0.2,0-0.4,0-0.6V6.5c0-0.4-0.1-0.8-0.2-1.2c-0.1-0.3-0.3-0.6-0.6-0.9
				c-0.3-0.3-0.6-0.4-0.9-0.6c-0.4-0.1-0.8-0.2-1.3-0.2c-0.2,0-0.5,0-0.7,0.1c0.2,0,0.3,0,0.5,0c0.8,0,1.4,0.2,1.8,0.7
				c0.4,0.5,0.6,1.1,0.6,1.9v4.9c0,0.2,0,0.4,0,0.6c0,0.2-0.1,0.3-0.1,0.4C156.1,12.4,156,12.4,155.9,12.5z M149.3,12.5h1.7
				c-0.1-0.1-0.2-0.1-0.2-0.2c-0.1-0.1-0.1-0.3-0.2-0.4c0-0.2,0-0.4,0-0.6V7.3c0-0.3,0.1-0.6,0.1-0.8l-0.1,0.3V0.7l-1.2,0.1
				c0.1,0.1,0.1,0.2,0.2,0.3c0.1,0.2,0.1,0.4,0.1,0.8v9.3c0,0.2,0,0.4,0,0.6c0,0.2-0.1,0.3-0.1,0.4
				C149.4,12.4,149.3,12.4,149.3,12.5z"/>
		</g>
		<g>
			<path class="st0" d="M160.3,12.6c0.2-0.1,0.3-0.1,0.4-0.2s0.2-0.1,0.3-0.2c0.1-0.1,0.1-0.2,0.1-0.4c0-0.2,0-0.4,0-0.6V5.4
				c0-0.2,0-0.4,0-0.6c0-0.2,0-0.3-0.1-0.4c0-0.1-0.1-0.2-0.1-0.4c-0.1-0.1-0.1-0.2-0.2-0.3l1.6-0.1v7.7c0,0.2,0,0.4,0,0.6
				c0,0.2,0.1,0.3,0.1,0.4c0.1,0.1,0.1,0.2,0.3,0.3c0.1,0.1,0.2,0.1,0.4,0.2H160.3z M161.7,0.8c0.2,0,0.4,0.1,0.6,0.2
				c0.2,0.1,0.2,0.3,0.2,0.6s-0.1,0.4-0.2,0.6c-0.2,0.1-0.4,0.2-0.6,0.2c-0.2,0-0.4-0.1-0.6-0.2c-0.2-0.1-0.2-0.3-0.2-0.6
				s0.1-0.4,0.2-0.6S161.5,0.8,161.7,0.8z"/>
			<path class="st0" d="M163.9,12.8h-4.4l0.8-0.2c0.2,0,0.3-0.1,0.4-0.2c0.1-0.1,0.2-0.1,0.2-0.2c0.1-0.1,0.1-0.2,0.1-0.3
				c0-0.2,0-0.3,0-0.6V5.4c0-0.2,0-0.4,0-0.6c0-0.2,0-0.3-0.1-0.4c0-0.1-0.1-0.2-0.1-0.3c-0.1-0.1-0.1-0.2-0.2-0.3l-0.1-0.2l2-0.2
				v7.8c0,0.2,0,0.4,0,0.5c0,0.1,0.1,0.3,0.1,0.3c0.1,0.1,0.1,0.2,0.2,0.2c0.1,0.1,0.2,0.1,0.4,0.2L163.9,12.8z M160.9,12.5h1.7
				c-0.1-0.1-0.2-0.1-0.2-0.2c-0.1-0.1-0.1-0.3-0.2-0.4c0-0.2,0-0.4,0-0.6V3.7l-1.3,0.1c0,0.1,0.1,0.1,0.1,0.2
				c0.1,0.1,0.1,0.2,0.1,0.4c0,0.1,0.1,0.3,0.1,0.5c0,0.2,0,0.4,0,0.6v5.9c0,0.2,0,0.4,0,0.6c0,0.2-0.1,0.3-0.1,0.4
				C161.1,12.4,161,12.4,160.9,12.5z M161.7,2.5c-0.3,0-0.5-0.1-0.7-0.3c-0.2-0.2-0.3-0.4-0.3-0.7c0-0.3,0.1-0.5,0.3-0.7
				c0.2-0.2,0.4-0.2,0.7-0.2c0.3,0,0.5,0.1,0.7,0.2c0.2,0.2,0.3,0.4,0.3,0.7c0,0.3-0.1,0.5-0.3,0.7C162.2,2.4,162,2.5,161.7,2.5z
				 M161.7,0.9c-0.2,0-0.4,0.1-0.5,0.2c-0.1,0.1-0.2,0.3-0.2,0.5c0,0.2,0.1,0.4,0.2,0.5c0.1,0.1,0.3,0.2,0.5,0.2
				c0.2,0,0.4-0.1,0.5-0.2c0.1-0.1,0.2-0.3,0.2-0.5c0-0.2-0.1-0.4-0.2-0.5C162.1,1,161.9,0.9,161.7,0.9z"/>
		</g>
		<g>
			<path class="st0" d="M169.3,7.7l1.8-0.4V6.1c0-0.8-0.2-1.4-0.5-1.8c-0.3-0.4-0.8-0.6-1.4-0.6c-0.3,0-0.6,0-0.9,0.2
				c-0.3,0.1-0.6,0.3-0.9,0.5s-0.5,0.6-0.7,1.1c-0.2,0.4-0.4,1-0.6,1.7L166,4.6c0.4-0.3,0.9-0.6,1.4-0.7s1.2-0.3,1.8-0.3
				c0.9,0,1.7,0.2,2.2,0.7c0.5,0.4,0.8,1.1,0.8,2v5c0,0.3,0,0.6,0.1,0.8s0.2,0.4,0.3,0.6l-1.6,0v-2.1c-0.1,0.3-0.2,0.5-0.4,0.8
				c-0.2,0.3-0.4,0.5-0.6,0.7c-0.2,0.2-0.5,0.4-0.9,0.5c-0.3,0.1-0.7,0.2-1.1,0.2c-0.4,0-0.7,0-1.1-0.1s-0.6-0.2-0.9-0.4
				c-0.2-0.2-0.4-0.4-0.6-0.7c-0.1-0.3-0.2-0.6-0.2-0.9c0-0.5,0.1-0.9,0.4-1.2c0.3-0.3,0.6-0.6,1-0.8c0.4-0.2,0.8-0.4,1.3-0.5
				S168.9,7.8,169.3,7.7z M166.7,10.6c0,0.5,0.1,1,0.4,1.3c0.3,0.3,0.7,0.5,1.2,0.5c0.3,0,0.6-0.1,0.9-0.2c0.3-0.1,0.6-0.3,0.8-0.6
				c0.3-0.2,0.5-0.6,0.6-0.9c0.2-0.4,0.3-0.8,0.3-1.3v-2l-1.7,0.4c-0.2,0.1-0.5,0.1-0.8,0.2c-0.3,0.1-0.6,0.3-0.9,0.5
				c-0.3,0.2-0.5,0.5-0.7,0.8S166.7,10.1,166.7,10.6z"/>
			<path class="st0" d="M168.1,12.8c-0.4,0-0.8,0-1.1-0.1c-0.3-0.1-0.7-0.2-0.9-0.4c-0.3-0.2-0.5-0.4-0.6-0.7
				c-0.1-0.3-0.2-0.6-0.2-1c0-0.5,0.1-0.9,0.4-1.3c0.3-0.3,0.6-0.6,1-0.9c0.4-0.2,0.8-0.4,1.3-0.5c0.4-0.1,0.9-0.2,1.2-0.3l0,0
				l1.7-0.4v-1c0-0.8-0.1-1.3-0.4-1.7c-0.3-0.3-0.7-0.5-1.3-0.5c-0.3,0-0.6,0-0.9,0.1c-0.3,0.1-0.6,0.3-0.8,0.5
				c-0.3,0.2-0.5,0.6-0.7,1c-0.2,0.4-0.4,1-0.6,1.7l-0.2,1l-0.1-3.7l0.1,0c0.4-0.3,0.9-0.6,1.5-0.8c0.6-0.2,1.2-0.3,1.8-0.3
				c1,0,1.7,0.2,2.3,0.7c0.6,0.5,0.9,1.2,0.9,2.1v5c0,0.3,0,0.6,0.1,0.8c0.1,0.2,0.2,0.4,0.3,0.5l0.2,0.2l-2,0.1v-1.7
				c-0.1,0.1-0.1,0.2-0.2,0.3c-0.2,0.3-0.4,0.5-0.6,0.7c-0.2,0.2-0.5,0.4-0.9,0.5C169,12.8,168.6,12.8,168.1,12.8z M168.5,8
				c-0.1,0-0.3,0.1-0.4,0.1c-0.4,0.1-0.8,0.3-1.2,0.5c-0.4,0.2-0.7,0.5-0.9,0.8c-0.2,0.3-0.4,0.7-0.4,1.1c0,0.3,0.1,0.6,0.2,0.9
				c0.1,0.2,0.3,0.4,0.5,0.6c0.2,0.2,0.5,0.3,0.8,0.4c0.3,0.1,0.7,0.1,1.1,0.1c-0.5,0-0.8-0.2-1.1-0.6c-0.3-0.4-0.5-0.8-0.5-1.4
				c0-0.5,0.1-0.9,0.3-1.3c0.2-0.3,0.4-0.6,0.7-0.8C167.9,8.3,168.2,8.2,168.5,8C168.5,8,168.5,8,168.5,8z M171.2,9.9v2.6l1.2,0
				c-0.1-0.1-0.2-0.3-0.2-0.4c-0.1-0.2-0.1-0.5-0.1-0.8v-5c0-0.8-0.3-1.4-0.8-1.9c-0.4-0.3-1-0.5-1.6-0.6c0.4,0.1,0.7,0.3,1,0.6
				c0.3,0.4,0.5,1,0.5,1.8v3.4c0,0.4-0.1,0.8-0.2,1.2c0,0,0-0.1,0-0.1L171.2,9.9z M170.9,7.7l-1.6,0.4c-0.2,0.1-0.5,0.1-0.8,0.2
				c-0.3,0.1-0.6,0.2-0.8,0.4c-0.3,0.2-0.5,0.4-0.6,0.7c-0.2,0.3-0.3,0.7-0.3,1.1c0,0.5,0.1,0.9,0.4,1.3c0.3,0.3,0.6,0.5,1.1,0.5
				c0.3,0,0.6-0.1,0.9-0.2c0.3-0.1,0.6-0.3,0.8-0.5c0.2-0.2,0.4-0.5,0.6-0.9c0.2-0.4,0.3-0.8,0.3-1.2V7.7z M166.1,4.7l0.1,1.7
				c0.1-0.3,0.2-0.6,0.4-0.9c0.2-0.5,0.5-0.8,0.8-1.1c0.3-0.3,0.6-0.5,0.9-0.6c0.1,0,0.2-0.1,0.4-0.1c-0.4,0-0.8,0.1-1.1,0.2
				C166.9,4.1,166.5,4.4,166.1,4.7z"/>
		</g>
		<g>
			<path class="st0" d="M174.9,12.6c0.2-0.1,0.3-0.1,0.4-0.2c0.1-0.1,0.2-0.1,0.3-0.2c0.1-0.1,0.1-0.2,0.1-0.4c0-0.2,0-0.4,0-0.6
				V1.9c0-0.3,0-0.6-0.1-0.7c-0.1-0.1-0.2-0.3-0.3-0.4l1.6-0.2v8.1l4.1-3.6c0.3-0.2,0.5-0.5,0.7-0.7c0.2-0.3,0.3-0.5,0.3-0.7h1.4
				c-0.1,0.1-0.2,0.1-0.4,0.2c-0.1,0.1-0.3,0.2-0.5,0.3s-0.4,0.3-0.7,0.5c-0.3,0.2-0.6,0.5-0.9,0.8l-1.7,1.5l3,3.8
				c0.3,0.4,0.5,0.7,0.7,0.9c0.2,0.2,0.3,0.4,0.4,0.5s0.2,0.2,0.2,0.3c0,0,0.1,0.1,0.1,0.1h-2c0,0,0-0.1,0-0.1c0-0.1,0-0.1,0-0.3
				s-0.1-0.3-0.2-0.4c-0.1-0.2-0.3-0.4-0.5-0.7l-2.6-3.4L177,9.1v2.2c0,0.2,0,0.4,0,0.6s0.1,0.3,0.1,0.4c0.1,0.1,0.1,0.2,0.3,0.3
				s0.2,0.1,0.4,0.2H174.9z"/>
			<path class="st0" d="M183.8,12.8h-2.3l0.1-0.2c0,0,0,0,0-0.1c0,0,0-0.1,0-0.2c0-0.1-0.1-0.2-0.2-0.4c-0.1-0.2-0.2-0.4-0.4-0.6
				L178.4,8l-1.4,1.2v2.1c0,0.2,0,0.4,0,0.5c0,0.1,0.1,0.3,0.1,0.3c0.1,0.1,0.1,0.2,0.2,0.2c0.1,0.1,0.2,0.1,0.4,0.2l0.7,0.2h-4.4
				l0.8-0.2c0.2,0,0.3-0.1,0.4-0.2c0.1-0.1,0.2-0.1,0.2-0.2c0.1-0.1,0.1-0.2,0.1-0.3c0-0.2,0-0.3,0-0.6V1.9c0-0.3,0-0.5-0.1-0.7
				c0-0.1-0.1-0.2-0.3-0.4l-0.2-0.2l2-0.2v8l3.9-3.4c0.3-0.2,0.5-0.5,0.7-0.7c0.2-0.2,0.2-0.4,0.2-0.7l0-0.1h2.1l-0.5,0.2
				c-0.1,0.1-0.2,0.1-0.4,0.2c-0.1,0.1-0.3,0.2-0.5,0.3c-0.2,0.1-0.4,0.3-0.7,0.5c-0.3,0.2-0.6,0.5-0.9,0.8l-1.7,1.5l3,3.7
				c0.3,0.4,0.5,0.7,0.7,0.9c0.2,0.2,0.3,0.4,0.4,0.5c0.1,0.1,0.2,0.2,0.2,0.2c0,0,0,0,0,0l0,0.1V12.8z M181.9,12.5h1.5
				c0,0-0.1-0.1-0.1-0.1c-0.1-0.1-0.2-0.3-0.4-0.5c-0.2-0.2-0.4-0.5-0.7-0.9l-3.1-3.9l1.8-1.6c0.4-0.3,0.7-0.6,0.9-0.8
				c0.3-0.2,0.5-0.4,0.7-0.5c0.2-0.1,0.3-0.3,0.5-0.3h-0.9c0,0.2-0.1,0.5-0.3,0.7c-0.2,0.3-0.4,0.5-0.7,0.8L176.8,9V0.7l-1.2,0.1
				c0.1,0.1,0.1,0.2,0.2,0.3c0.1,0.2,0.1,0.4,0.1,0.8v9.3c0,0.2,0,0.4,0,0.6c0,0.2-0.1,0.3-0.1,0.4c-0.1,0.1-0.1,0.2-0.2,0.2h1.7
				c-0.1-0.1-0.2-0.1-0.2-0.2c-0.1-0.1-0.1-0.3-0.2-0.4c0-0.2,0-0.4,0-0.6V9l1.6-1.4l2.7,3.5c0.2,0.3,0.4,0.5,0.5,0.7
				c0.1,0.2,0.2,0.3,0.2,0.4C181.9,12.3,181.9,12.4,181.9,12.5z"/>
		</g>
		<g>
			<path class="st0" d="M185.7,12.6c0.2-0.1,0.3-0.1,0.4-0.2s0.2-0.1,0.3-0.2c0.1-0.1,0.1-0.2,0.1-0.4c0-0.2,0-0.4,0-0.6V5.4
				c0-0.2,0-0.4,0-0.6c0-0.2,0-0.3-0.1-0.4c0-0.1-0.1-0.2-0.1-0.4c-0.1-0.1-0.1-0.2-0.2-0.3l1.6-0.1v7.7c0,0.2,0,0.4,0,0.6
				c0,0.2,0.1,0.3,0.1,0.4c0.1,0.1,0.1,0.2,0.3,0.3c0.1,0.1,0.2,0.1,0.4,0.2H185.7z M187.1,0.8c0.2,0,0.4,0.1,0.6,0.2
				c0.2,0.1,0.2,0.3,0.2,0.6s-0.1,0.4-0.2,0.6c-0.2,0.1-0.4,0.2-0.6,0.2c-0.2,0-0.4-0.1-0.6-0.2c-0.2-0.1-0.2-0.3-0.2-0.6
				s0.1-0.4,0.2-0.6S186.9,0.8,187.1,0.8z"/>
			<path class="st0" d="M189.3,12.8h-4.4l0.8-0.2c0.2,0,0.3-0.1,0.4-0.2c0.1-0.1,0.2-0.1,0.2-0.2c0.1-0.1,0.1-0.2,0.1-0.3
				c0-0.2,0-0.3,0-0.6V5.4c0-0.2,0-0.4,0-0.6c0-0.2,0-0.3-0.1-0.4c0-0.1-0.1-0.2-0.1-0.3c-0.1-0.1-0.1-0.2-0.2-0.3l-0.1-0.2l2-0.2
				v7.8c0,0.2,0,0.4,0,0.5c0,0.1,0.1,0.3,0.1,0.3c0.1,0.1,0.1,0.2,0.2,0.2c0.1,0.1,0.2,0.1,0.4,0.2L189.3,12.8z M186.3,12.5h1.7
				c-0.1-0.1-0.2-0.1-0.2-0.2c-0.1-0.1-0.1-0.3-0.2-0.4c0-0.2,0-0.4,0-0.6V3.7l-1.3,0.1c0,0.1,0.1,0.1,0.1,0.2
				c0.1,0.1,0.1,0.2,0.1,0.4c0,0.1,0.1,0.3,0.1,0.5c0,0.2,0,0.4,0,0.6v5.9c0,0.2,0,0.4,0,0.6c0,0.2-0.1,0.3-0.1,0.4
				C186.4,12.4,186.4,12.4,186.3,12.5z M187.1,2.5c-0.3,0-0.5-0.1-0.7-0.3c-0.2-0.2-0.3-0.4-0.3-0.7c0-0.3,0.1-0.5,0.3-0.7
				c0.2-0.2,0.4-0.2,0.7-0.2c0.3,0,0.5,0.1,0.7,0.2c0.2,0.2,0.3,0.4,0.3,0.7c0,0.3-0.1,0.5-0.3,0.7C187.6,2.4,187.4,2.5,187.1,2.5z
				 M187.1,0.9c-0.2,0-0.4,0.1-0.5,0.2c-0.1,0.1-0.2,0.3-0.2,0.5c0,0.2,0.1,0.4,0.2,0.5c0.1,0.1,0.3,0.2,0.5,0.2
				c0.2,0,0.4-0.1,0.5-0.2c0.1-0.1,0.2-0.3,0.2-0.5c0-0.2-0.1-0.4-0.2-0.5C187.5,1,187.3,0.9,187.1,0.9z"/>
		</g>
		<g>
			<path class="st0" d="M200.1,6.6c-0.3-0.3-0.5-0.6-0.7-0.9c-0.2-0.3-0.4-0.5-0.5-0.7s-0.2-0.4-0.3-0.7c-0.1-0.2-0.1-0.4-0.1-0.7
				c0-0.4,0.1-0.7,0.2-1c0.1-0.3,0.3-0.5,0.6-0.7c0.2-0.2,0.5-0.3,0.9-0.4s0.7-0.1,1-0.1c0.8,0,1.4,0.2,1.9,0.5s0.7,0.8,0.7,1.5
				c0,0.3-0.1,0.7-0.2,0.9c-0.1,0.3-0.3,0.5-0.6,0.8c-0.2,0.2-0.5,0.4-0.8,0.6c-0.3,0.2-0.6,0.4-0.9,0.5l3.1,3.8
				c0.1-0.3,0.3-0.7,0.4-1c0.1-0.4,0.2-0.8,0.3-1.3l0.5,0.1c-0.3,1-0.6,1.9-1,2.6c0.2,0.2,0.3,0.4,0.5,0.6c0.2,0.2,0.4,0.5,0.6,0.7
				s0.4,0.4,0.5,0.6s0.2,0.3,0.3,0.3h-1.7c-0.1-0.2-0.3-0.5-0.4-0.7c-0.1-0.2-0.3-0.4-0.4-0.6c-0.8,0.9-1.9,1.4-3.2,1.4
				c-1.1,0-2-0.3-2.6-0.8s-0.9-1.2-0.9-2.1c0-0.4,0.1-0.8,0.2-1.1c0.1-0.3,0.3-0.6,0.6-0.9c0.3-0.3,0.6-0.5,0.9-0.7
				C199.3,7,199.7,6.8,200.1,6.6z M200.8,12.5c0.2,0,0.4,0,0.7,0c0.2,0,0.5-0.1,0.8-0.2c0.3-0.1,0.5-0.2,0.8-0.4
				c0.3-0.2,0.5-0.4,0.8-0.7c-0.1-0.1-0.2-0.2-0.3-0.3c-0.1-0.1-0.2-0.2-0.3-0.4L201,7.7c-0.3-0.3-0.5-0.6-0.8-0.9
				c-0.4,0.2-0.7,0.4-0.9,0.7c-0.2,0.3-0.4,0.5-0.6,0.8c-0.1,0.3-0.2,0.6-0.3,0.9c0,0.3-0.1,0.5-0.1,0.8c0,0.5,0.1,0.9,0.2,1.2
				s0.3,0.6,0.5,0.8c0.2,0.2,0.5,0.4,0.8,0.5C200.1,12.4,200.4,12.5,200.8,12.5z M201.1,6.2c1.2-0.6,1.8-1.5,1.8-2.6
				c0-0.6-0.1-1-0.4-1.4c-0.3-0.4-0.7-0.5-1.3-0.5c-0.2,0-0.5,0-0.7,0.1c-0.2,0.1-0.4,0.2-0.6,0.3c-0.2,0.1-0.3,0.3-0.4,0.5
				c-0.1,0.2-0.1,0.4-0.1,0.7c0,0.2,0,0.5,0.1,0.7c0.1,0.2,0.2,0.5,0.4,0.7c0.2,0.2,0.3,0.5,0.5,0.7C200.7,5.7,200.9,5.9,201.1,6.2z
				"/>
			<path class="st0" d="M200.7,12.8c-1.1,0-2.1-0.3-2.7-0.8c-0.7-0.5-1-1.3-1-2.1c0-0.4,0.1-0.8,0.2-1.2c0.1-0.3,0.4-0.6,0.6-0.9
				c0.3-0.3,0.6-0.5,1-0.7c0.3-0.2,0.7-0.4,1-0.5c-0.2-0.3-0.4-0.5-0.6-0.7c-0.2-0.3-0.4-0.5-0.5-0.7c-0.1-0.2-0.2-0.5-0.3-0.7
				c-0.1-0.2-0.1-0.5-0.1-0.7c0-0.4,0.1-0.8,0.2-1c0.2-0.3,0.4-0.5,0.6-0.7c0.3-0.2,0.6-0.3,0.9-0.4c0.3-0.1,0.7-0.1,1.1-0.1
				c0.8,0,1.4,0.2,1.9,0.5c0.5,0.4,0.8,0.9,0.8,1.6c0,0.4-0.1,0.7-0.2,1c-0.2,0.3-0.4,0.6-0.6,0.8c-0.2,0.2-0.5,0.5-0.8,0.7
				c-0.3,0.2-0.5,0.3-0.8,0.4l2.9,3.5c0.1-0.3,0.2-0.5,0.3-0.9c0.1-0.4,0.2-0.8,0.3-1.3l0-0.1l0.7,0.1l0,0.1c-0.2,1-0.6,1.9-0.9,2.6
				c0.1,0.2,0.3,0.4,0.5,0.6c0.2,0.2,0.4,0.5,0.6,0.7c0.2,0.2,0.4,0.4,0.5,0.6c0.2,0.2,0.3,0.3,0.3,0.3l0.4,0.2h-2.3l0-0.1
				c-0.1-0.2-0.3-0.5-0.4-0.6c-0.1-0.2-0.2-0.3-0.3-0.5C203.2,12.4,202.1,12.8,200.7,12.8z M199.5,7c-0.2,0.1-0.4,0.2-0.5,0.3
				c-0.3,0.2-0.7,0.4-0.9,0.7c-0.2,0.2-0.4,0.5-0.6,0.8c-0.1,0.3-0.2,0.7-0.2,1.1c0,0.8,0.3,1.5,0.9,2c0.5,0.4,1.3,0.7,2.2,0.7
				c-0.2,0-0.4-0.1-0.6-0.1c-0.3-0.1-0.6-0.3-0.8-0.5c-0.2-0.2-0.4-0.5-0.5-0.9c-0.1-0.3-0.2-0.8-0.2-1.2c0-0.2,0-0.5,0.1-0.8
				c0-0.3,0.1-0.6,0.3-0.9c0.1-0.3,0.3-0.6,0.6-0.9C199.3,7.2,199.4,7.1,199.5,7z M204.9,12.5h1.4c0,0,0,0-0.1-0.1
				c-0.1-0.2-0.3-0.4-0.5-0.6c-0.2-0.2-0.4-0.4-0.6-0.7c-0.2-0.2-0.4-0.5-0.5-0.6l-0.1-0.1l0-0.1c0.4-0.6,0.7-1.5,0.9-2.5l-0.2,0
				c-0.1,0.5-0.2,0.9-0.3,1.2c-0.1,0.4-0.3,0.8-0.4,1.1l-0.1,0.2l-3.3-4l0,0l-0.7-0.9c-0.2-0.3-0.4-0.5-0.5-0.7
				c-0.2-0.2-0.3-0.5-0.4-0.7c-0.1-0.2-0.1-0.5-0.1-0.8c0-0.3,0.1-0.5,0.2-0.7c0.1-0.2,0.2-0.4,0.4-0.5c0.2-0.1,0.4-0.3,0.6-0.3
				c0.1,0,0.2-0.1,0.3-0.1c-0.2,0-0.4,0.1-0.6,0.1c-0.3,0.1-0.6,0.2-0.8,0.4c-0.2,0.2-0.4,0.4-0.5,0.6c-0.1,0.3-0.2,0.6-0.2,0.9
				c0,0.2,0,0.5,0.1,0.7c0.1,0.2,0.2,0.4,0.3,0.6c0.1,0.2,0.3,0.5,0.5,0.7c0.2,0.3,0.4,0.5,0.7,0.9l0.1,0.1l0,0
				c0.2,0.3,0.5,0.6,0.8,0.9l2.3,2.7c0.1,0.1,0.2,0.2,0.3,0.4l0.3,0.4l-0.1,0.1c-0.3,0.3-0.5,0.6-0.8,0.7c-0.3,0.2-0.5,0.3-0.8,0.4
				c-0.1,0-0.1,0-0.2,0.1c0.7-0.2,1.3-0.6,1.8-1.1l0.1-0.1l0.1,0.1c0.2,0.2,0.3,0.4,0.4,0.6C204.6,12.1,204.7,12.3,204.9,12.5z
				 M200.2,6.9c-0.3,0.2-0.6,0.4-0.8,0.6c-0.2,0.3-0.4,0.5-0.5,0.8c-0.1,0.3-0.2,0.6-0.3,0.8c0,0.3-0.1,0.5-0.1,0.7
				c0,0.5,0.1,0.8,0.2,1.2c0.1,0.3,0.3,0.6,0.5,0.8c0.2,0.2,0.4,0.3,0.7,0.4c0.4,0.1,1,0.2,1.6,0.1c0.2,0,0.5-0.1,0.7-0.2
				c0.2-0.1,0.5-0.2,0.8-0.4c0.2-0.2,0.5-0.4,0.7-0.6l-0.2-0.2c-0.1-0.1-0.2-0.2-0.3-0.3l-2.3-2.8C200.6,7.4,200.4,7.2,200.2,6.9z
				 M201.2,1.9c-0.2,0-0.4,0-0.6,0.1c-0.2,0.1-0.4,0.2-0.5,0.3c-0.1,0.1-0.3,0.3-0.3,0.5c-0.1,0.2-0.1,0.4-0.1,0.6
				c0,0.2,0,0.5,0.1,0.7c0.1,0.2,0.2,0.4,0.3,0.7c0.1,0.2,0.3,0.5,0.5,0.7l0.6,0.7c1.1-0.6,1.7-1.4,1.7-2.4c0-0.5-0.1-0.9-0.4-1.3
				C202.1,2,201.7,1.9,201.2,1.9z M201.5,1.6c0.4,0.1,0.8,0.2,1,0.6c0.3,0.4,0.5,0.9,0.5,1.4c0,0.9-0.4,1.6-1.1,2.2
				c0.1,0,0.1-0.1,0.2-0.1c0.3-0.2,0.6-0.4,0.8-0.6c0.2-0.2,0.4-0.5,0.6-0.7c0.1-0.3,0.2-0.6,0.2-0.9c0-0.6-0.2-1-0.7-1.4
				C202.6,1.8,202.1,1.7,201.5,1.6z"/>
		</g>
		<g>
			<path class="st0" d="M216.1,11.2V3c0-0.2,0-0.4,0-0.6S216,2.1,215.9,2c-0.1-0.1-0.2-0.2-0.3-0.3c-0.1-0.1-0.3-0.1-0.4-0.2h1.5
				l4.8,9.6l4.2-9.6h1.9c-0.3,0.1-0.6,0.3-0.7,0.4c-0.1,0.2-0.2,0.5-0.2,1v8.3c0,0.5,0.1,0.8,0.2,1s0.3,0.3,0.7,0.4h-2.9
				c0.3-0.1,0.6-0.2,0.7-0.4c0.1-0.2,0.2-0.5,0.2-1V2.7l-4.4,10H221l-4.6-9.4v8c0,0.5,0.1,0.8,0.2,1c0.1,0.2,0.3,0.3,0.7,0.4h-2
				c0.3-0.1,0.6-0.2,0.7-0.4S216.1,11.7,216.1,11.2z"/>
			<path class="st0" d="M228.5,12.8h-4.6l0.9-0.2c0.3-0.1,0.5-0.2,0.6-0.4c0.1-0.2,0.2-0.5,0.2-0.9v-8l-4.2,9.5H221l0-0.1l-4.4-8.9
				v7.4c0,0.4,0.1,0.7,0.2,0.9c0.1,0.2,0.3,0.3,0.6,0.4l0.8,0.2h-3.7l0.9-0.2c0.3-0.1,0.5-0.2,0.6-0.4c0.1-0.2,0.2-0.5,0.2-0.9V3
				c0-0.2,0-0.4,0-0.6c0-0.1-0.1-0.3-0.1-0.3c-0.1-0.1-0.1-0.2-0.2-0.2c-0.1-0.1-0.2-0.1-0.4-0.2l-1-0.2h2.6l0,0.1l4.7,9.4l4.1-9.5
				h2.8l-0.8,0.2c-0.3,0.1-0.5,0.2-0.6,0.4c-0.1,0.2-0.2,0.5-0.2,0.9v8.3c0,0.4,0.1,0.7,0.2,0.9c0.1,0.2,0.3,0.3,0.6,0.4L228.5,12.8
				z M225.3,12.5h1.8c-0.1-0.1-0.2-0.2-0.2-0.2c-0.1-0.2-0.2-0.5-0.2-1V3c0-0.5,0.1-0.8,0.2-1c0.1-0.1,0.1-0.2,0.2-0.2h-1.3l-4,9.2
				l3.9-8.8v9.2c0,0.5-0.1,0.8-0.2,1C225.5,12.4,225.4,12.4,225.3,12.5z M221.1,12.5L221.1,12.5l0.5-1l-4.9-9.8h-0.9
				c0.1,0.1,0.2,0.1,0.2,0.2c0.1,0.1,0.1,0.3,0.2,0.4c0,0.2,0,0.4,0,0.6v8.3c0,0.5-0.1,0.8-0.2,1c-0.1,0.1-0.1,0.2-0.2,0.2h0.9
				c-0.1-0.1-0.2-0.2-0.2-0.2c-0.1-0.2-0.2-0.5-0.2-1V2.8L221.1,12.5z"/>
		</g>
		<g>
			<path class="st0" d="M230.1,12.6c0.2-0.1,0.3-0.1,0.4-0.2s0.2-0.1,0.3-0.2c0.1-0.1,0.1-0.2,0.1-0.4c0-0.2,0-0.4,0-0.6V5.4
				c0-0.2,0-0.4,0-0.6c0-0.2,0-0.3-0.1-0.4c0-0.1-0.1-0.2-0.1-0.4c-0.1-0.1-0.1-0.2-0.2-0.3l1.6-0.1v7.7c0,0.2,0,0.4,0,0.6
				c0,0.2,0.1,0.3,0.1,0.4c0.1,0.1,0.1,0.2,0.3,0.3c0.1,0.1,0.2,0.1,0.4,0.2H230.1z M231.5,0.8c0.2,0,0.4,0.1,0.6,0.2
				c0.2,0.1,0.2,0.3,0.2,0.6s-0.1,0.4-0.2,0.6c-0.2,0.1-0.4,0.2-0.6,0.2c-0.2,0-0.4-0.1-0.6-0.2c-0.2-0.1-0.2-0.3-0.2-0.6
				s0.1-0.4,0.2-0.6S231.2,0.8,231.5,0.8z"/>
			<path class="st0" d="M233.7,12.8h-4.4l0.8-0.2c0.2,0,0.3-0.1,0.4-0.2c0.1-0.1,0.2-0.1,0.2-0.2c0.1-0.1,0.1-0.2,0.1-0.3
				c0-0.2,0-0.3,0-0.6V5.4c0-0.2,0-0.4,0-0.6c0-0.2,0-0.3-0.1-0.4c0-0.1-0.1-0.2-0.1-0.3c-0.1-0.1-0.1-0.2-0.2-0.3l-0.1-0.2l2-0.2
				v7.8c0,0.2,0,0.4,0,0.5c0,0.1,0.1,0.3,0.1,0.3c0.1,0.1,0.1,0.2,0.2,0.2c0.1,0.1,0.2,0.1,0.4,0.2L233.7,12.8z M230.7,12.5h1.7
				c-0.1-0.1-0.2-0.1-0.2-0.2c-0.1-0.1-0.1-0.3-0.2-0.4c0-0.2,0-0.4,0-0.6V3.7l-1.3,0.1c0,0.1,0.1,0.1,0.1,0.2
				c0.1,0.1,0.1,0.2,0.1,0.4c0,0.1,0.1,0.3,0.1,0.5c0,0.2,0,0.4,0,0.6v5.9c0,0.2,0,0.4,0,0.6c0,0.2-0.1,0.3-0.1,0.4
				C230.8,12.4,230.8,12.4,230.7,12.5z M231.5,2.5c-0.3,0-0.5-0.1-0.7-0.3c-0.2-0.2-0.3-0.4-0.3-0.7c0-0.3,0.1-0.5,0.3-0.7
				c0.2-0.2,0.4-0.2,0.7-0.2c0.3,0,0.5,0.1,0.7,0.2c0.2,0.2,0.3,0.4,0.3,0.7c0,0.3-0.1,0.5-0.3,0.7C232,2.4,231.7,2.5,231.5,2.5z
				 M231.5,0.9c-0.2,0-0.4,0.1-0.5,0.2c-0.1,0.1-0.2,0.3-0.2,0.5c0,0.2,0.1,0.4,0.2,0.5c0.1,0.1,0.3,0.2,0.5,0.2
				c0.2,0,0.4-0.1,0.5-0.2c0.1-0.1,0.2-0.3,0.2-0.5c0-0.2-0.1-0.4-0.2-0.5C231.9,1,231.7,0.9,231.5,0.9z"/>
		</g>
		<g>
			<path class="st0" d="M239.5,3.6c0.7,0,1.3,0.1,1.9,0.4c0.6,0.2,1.1,0.5,1.6,0.9l-0.5,2.5c-0.1-0.7-0.2-1.2-0.4-1.7
				c-0.2-0.5-0.4-0.8-0.7-1.1c-0.3-0.3-0.6-0.5-0.9-0.6c-0.3-0.1-0.7-0.2-1-0.2c-0.5,0-0.9,0.1-1.2,0.3c-0.4,0.2-0.7,0.5-1,0.9
				c-0.3,0.4-0.5,0.8-0.6,1.4c-0.2,0.5-0.2,1.1-0.2,1.8c0,0.7,0.1,1.3,0.2,1.8c0.2,0.5,0.4,1,0.7,1.4c0.3,0.4,0.6,0.7,1,0.9
				c0.4,0.2,0.8,0.3,1.3,0.3c0.8,0,1.5-0.3,2.1-0.9c0.6-0.6,1.1-1.5,1.4-2.6l-0.1,2.7c-0.2,0.2-0.5,0.4-0.8,0.5
				c-0.3,0.1-0.6,0.3-0.9,0.3c-0.3,0.1-0.6,0.1-0.9,0.2c-0.3,0-0.6,0.1-0.8,0.1c-0.6,0-1.2-0.1-1.8-0.3c-0.6-0.2-1-0.5-1.4-0.9
				c-0.4-0.4-0.7-0.9-0.9-1.5c-0.2-0.6-0.3-1.2-0.3-1.9c0-0.7,0.1-1.3,0.3-1.8c0.2-0.6,0.5-1,0.9-1.4c0.4-0.4,0.8-0.7,1.4-0.9
				S238.9,3.6,239.5,3.6z"/>
			<path class="st0" d="M239.7,12.8c-0.7,0-1.3-0.1-1.8-0.3c-0.6-0.2-1.1-0.5-1.5-1c-0.4-0.4-0.7-0.9-1-1.5
				c-0.2-0.6-0.4-1.2-0.4-1.9c0-0.7,0.1-1.3,0.3-1.9c0.2-0.6,0.5-1.1,0.9-1.5c0.4-0.4,0.9-0.7,1.4-1c0.5-0.2,1.2-0.3,1.8-0.3
				c0.7,0,1.4,0.1,2,0.4c0.6,0.2,1.1,0.5,1.6,0.9l0.1,0l-0.7,3.4l-0.1-0.8c-0.1-0.7-0.2-1.2-0.4-1.6c-0.2-0.4-0.4-0.8-0.7-1.1
				c-0.3-0.3-0.5-0.4-0.9-0.6c-0.7-0.3-1.5-0.2-2.1,0.1c-0.4,0.2-0.7,0.5-0.9,0.8c-0.3,0.4-0.5,0.8-0.6,1.3
				c-0.1,0.5-0.2,1.1-0.2,1.7c0,0.6,0.1,1.2,0.2,1.8c0.2,0.5,0.4,1,0.6,1.3c0.3,0.4,0.6,0.7,1,0.8c0.4,0.2,0.8,0.3,1.2,0.3
				c0.8,0,1.4-0.3,2-0.9c0.6-0.6,1-1.5,1.3-2.6l0.3-1.2l-0.2,3.9l0,0c-0.3,0.2-0.5,0.4-0.8,0.6c-0.3,0.1-0.6,0.3-0.9,0.4
				c-0.3,0.1-0.6,0.1-0.9,0.2C240.2,12.8,239.9,12.8,239.7,12.8z M239,3.7c-0.4,0-0.8,0.1-1.2,0.3c-0.5,0.2-1,0.5-1.3,0.9
				c-0.4,0.4-0.7,0.9-0.9,1.4c-0.2,0.5-0.3,1.1-0.3,1.8c0,0.7,0.1,1.3,0.3,1.9c0.2,0.5,0.5,1,0.9,1.4c0.4,0.4,0.8,0.7,1.4,0.9
				c0.4,0.1,0.7,0.2,1.1,0.3c-0.3-0.1-0.5-0.1-0.7-0.3c-0.4-0.2-0.8-0.5-1.1-0.9c-0.3-0.4-0.5-0.9-0.7-1.4c-0.2-0.5-0.2-1.2-0.2-1.8
				c0-0.7,0.1-1.3,0.2-1.8c0.2-0.5,0.4-1,0.7-1.4c0.3-0.4,0.6-0.7,1-0.9C238.5,3.9,238.7,3.8,239,3.7z M243,9.9
				c-0.3,0.7-0.7,1.3-1.1,1.8c-0.5,0.5-1,0.8-1.6,0.9c0,0,0.1,0,0.1,0c0.3,0,0.6-0.1,0.9-0.2c0.3-0.1,0.6-0.2,0.9-0.3
				c0.3-0.1,0.5-0.3,0.7-0.5L243,9.9z M240.2,3.7c0.1,0,0.3,0.1,0.4,0.1c0.3,0.1,0.7,0.3,0.9,0.6c0.3,0.3,0.5,0.7,0.7,1.1
				c0.1,0.3,0.2,0.6,0.3,1l0.4-1.7c-0.4-0.3-0.9-0.6-1.5-0.8C241,3.9,240.6,3.8,240.2,3.7z"/>
		</g>
		<g>
			<path class="st0" d="M245.5,12.6c0.2-0.1,0.3-0.1,0.4-0.2c0.1-0.1,0.2-0.1,0.3-0.2c0.1-0.1,0.1-0.2,0.1-0.4c0-0.2,0-0.4,0-0.6
				V1.9c0-0.3,0-0.6-0.1-0.7c-0.1-0.1-0.2-0.3-0.3-0.4l1.6-0.2v5.5c0.3-0.8,0.7-1.4,1.3-1.8c0.6-0.5,1.3-0.7,2.2-0.7
				c0.5,0,1,0.1,1.4,0.2c0.4,0.1,0.7,0.3,1,0.6c0.3,0.3,0.5,0.6,0.6,0.9c0.1,0.4,0.2,0.8,0.2,1.2v4.7c0,0.2,0,0.4,0,0.6
				s0.1,0.3,0.1,0.4s0.1,0.2,0.3,0.3s0.2,0.1,0.4,0.2h-2.8c0.2-0.1,0.3-0.1,0.4-0.2c0.1-0.1,0.2-0.1,0.3-0.2
				c0.1-0.1,0.1-0.2,0.1-0.4c0-0.2,0-0.4,0-0.6V6.4c0-0.8-0.2-1.4-0.6-1.9c-0.4-0.5-0.9-0.7-1.7-0.7c-0.4,0-0.8,0.1-1.2,0.2
				s-0.7,0.4-1,0.7c-0.3,0.3-0.5,0.7-0.7,1.1c-0.2,0.4-0.3,0.9-0.3,1.5v3.9c0,0.2,0,0.4,0,0.6s0.1,0.3,0.1,0.4s0.1,0.2,0.3,0.3
				s0.2,0.1,0.4,0.2H245.5z"/>
			<path class="st0" d="M255.8,12.8h-4.4l0.8-0.2c0.2,0,0.3-0.1,0.4-0.2c0.1-0.1,0.2-0.1,0.2-0.2c0.1-0.1,0.1-0.2,0.1-0.3
				c0-0.2,0-0.3,0-0.6V6.4c0-0.8-0.2-1.4-0.5-1.8C252,4.2,251.5,4,250.8,4c-0.4,0-0.8,0.1-1.1,0.2c-0.4,0.1-0.7,0.4-1,0.6
				c-0.3,0.3-0.5,0.6-0.7,1.1c-0.2,0.4-0.3,0.9-0.3,1.5l0,3.9c0,0.2,0,0.4,0,0.5c0,0.1,0.1,0.3,0.1,0.3c0.1,0.1,0.1,0.2,0.2,0.2
				c0.1,0.1,0.2,0.1,0.4,0.2l0.7,0.2h-4.4l0.8-0.2c0.2,0,0.3-0.1,0.4-0.2c0.1-0.1,0.2-0.1,0.2-0.2c0.1-0.1,0.1-0.2,0.1-0.3
				c0-0.2,0-0.3,0-0.6V1.9c0-0.3,0-0.5-0.1-0.7c0-0.1-0.1-0.2-0.3-0.4l-0.2-0.2l2-0.2v5c0.3-0.5,0.6-1,1.1-1.3
				c0.6-0.5,1.4-0.7,2.3-0.7c0.5,0,1,0.1,1.4,0.2c0.4,0.1,0.8,0.4,1,0.6c0.3,0.3,0.5,0.6,0.6,1c0.1,0.4,0.2,0.8,0.2,1.2v4.7
				c0,0.2,0,0.4,0,0.5c0,0.1,0.1,0.3,0.1,0.3c0.1,0.1,0.1,0.2,0.2,0.2c0.1,0.1,0.2,0.1,0.4,0.2L255.8,12.8z M252.8,12.5h1.7
				c-0.1-0.1-0.2-0.1-0.2-0.2c-0.1-0.1-0.1-0.3-0.2-0.4c0-0.2,0-0.4,0-0.6V6.5c0-0.4-0.1-0.8-0.2-1.2c-0.1-0.3-0.3-0.6-0.6-0.9
				c-0.3-0.3-0.6-0.4-0.9-0.6c-0.4-0.1-0.8-0.2-1.3-0.2c-0.2,0-0.5,0-0.7,0.1c0.2,0,0.3,0,0.5,0c0.8,0,1.4,0.2,1.8,0.7
				c0.4,0.5,0.6,1.1,0.6,1.9v4.9c0,0.2,0,0.4,0,0.6c0,0.2-0.1,0.3-0.1,0.4C252.9,12.4,252.9,12.4,252.8,12.5z M246.1,12.5h1.7
				c-0.1-0.1-0.2-0.1-0.2-0.2c-0.1-0.1-0.1-0.3-0.2-0.4c0-0.2,0-0.4,0-0.6V7.3c0-0.3,0.1-0.6,0.1-0.8l-0.1,0.3V0.7l-1.2,0.1
				c0.1,0.1,0.1,0.2,0.2,0.3c0.1,0.2,0.1,0.4,0.1,0.8v9.3c0,0.2,0,0.4,0,0.6c0,0.2-0.1,0.3-0.1,0.4
				C246.3,12.4,246.2,12.4,246.1,12.5z"/>
		</g>
		<g>
			<path class="st0" d="M257.2,12.6c0.2-0.1,0.3-0.1,0.4-0.2s0.2-0.1,0.3-0.2c0.1-0.1,0.1-0.2,0.1-0.4c0-0.2,0-0.4,0-0.6V5.4
				c0-0.2,0-0.4,0-0.6c0-0.2,0-0.3-0.1-0.4c0-0.1-0.1-0.2-0.1-0.4c-0.1-0.1-0.1-0.2-0.2-0.3l1.6-0.1v7.7c0,0.2,0,0.4,0,0.6
				c0,0.2,0.1,0.3,0.1,0.4c0.1,0.1,0.1,0.2,0.3,0.3c0.1,0.1,0.2,0.1,0.4,0.2H257.2z M258.6,0.8c0.2,0,0.4,0.1,0.6,0.2
				c0.2,0.1,0.2,0.3,0.2,0.6s-0.1,0.4-0.2,0.6c-0.2,0.1-0.4,0.2-0.6,0.2c-0.2,0-0.4-0.1-0.6-0.2c-0.2-0.1-0.2-0.3-0.2-0.6
				s0.1-0.4,0.2-0.6S258.3,0.8,258.6,0.8z"/>
			<path class="st0" d="M260.8,12.8h-4.4l0.8-0.2c0.2,0,0.3-0.1,0.4-0.2c0.1-0.1,0.2-0.1,0.2-0.2c0.1-0.1,0.1-0.2,0.1-0.3
				c0-0.2,0-0.3,0-0.6V5.4c0-0.2,0-0.4,0-0.6c0-0.2,0-0.3-0.1-0.4c0-0.1-0.1-0.2-0.1-0.3c-0.1-0.1-0.1-0.2-0.2-0.3l-0.1-0.2l2-0.2
				v7.8c0,0.2,0,0.4,0,0.5c0,0.1,0.1,0.3,0.1,0.3c0.1,0.1,0.1,0.2,0.2,0.2c0.1,0.1,0.2,0.1,0.4,0.2L260.8,12.8z M257.8,12.5h1.7
				c-0.1-0.1-0.2-0.1-0.2-0.2c-0.1-0.1-0.1-0.3-0.2-0.4c0-0.2,0-0.4,0-0.6V3.7l-1.3,0.1c0,0.1,0.1,0.1,0.1,0.2
				c0.1,0.1,0.1,0.2,0.1,0.4c0,0.1,0.1,0.3,0.1,0.5c0,0.2,0,0.4,0,0.6v5.9c0,0.2,0,0.4,0,0.6c0,0.2-0.1,0.3-0.1,0.4
				C257.9,12.4,257.8,12.4,257.8,12.5z M258.6,2.5c-0.3,0-0.5-0.1-0.7-0.3c-0.2-0.2-0.3-0.4-0.3-0.7c0-0.3,0.1-0.5,0.3-0.7
				c0.2-0.2,0.4-0.2,0.7-0.2c0.3,0,0.5,0.1,0.7,0.2c0.2,0.2,0.3,0.4,0.3,0.7c0,0.3-0.1,0.5-0.3,0.7C259.1,2.4,258.8,2.5,258.6,2.5z
				 M258.6,0.9c-0.2,0-0.4,0.1-0.5,0.2c-0.1,0.1-0.2,0.3-0.2,0.5c0,0.2,0.1,0.4,0.2,0.5c0.1,0.1,0.3,0.2,0.5,0.2
				c0.2,0,0.4-0.1,0.5-0.2c0.1-0.1,0.2-0.3,0.2-0.5c0-0.2-0.1-0.4-0.2-0.5C258.9,1,258.8,0.9,258.6,0.9z"/>
		</g>
	</g>
</g>
</svg>
