<?xml version="1.0" encoding="utf-8"?>
<!-- Generator: Adobe Illustrator 25.4.1, SVG Export Plug-In . SVG Version: 6.00 Build 0)  -->
<svg version="1.1" id="レイヤー_1" xmlns="http://www.w3.org/2000/svg" xmlns:xlink="http://www.w3.org/1999/xlink" x="0px"
	 y="0px" viewBox="0 0 568 332" style="enable-background:new 0 0 568 332;" xml:space="preserve">
<style type="text/css">
	.st0{fill:#C55A32;stroke:#C55A32;stroke-width:0.25;stroke-miterlimit:10;}
</style>
<path class="st0" d="M525,329.7v-5.9l35.3-30.4h-29.9c-0.9,0-1.6,0.1-2.2,0.2c-0.6,0.1-1.1,0.3-1.5,0.5s-0.7,0.6-1,1
	c-0.3,0.4-0.5,1-0.6,1.6v-7.7c0.4,1.3,1,2.1,1.7,2.6c0.7,0.5,2,0.7,3.7,0.7h37.3v0.4l-37.8,32.5h32.4c1.8,0,3-0.2,3.7-0.7
	c0.7-0.5,1.3-1.3,1.7-2.6v7.7c-0.4-1.3-0.9-2.2-1.7-2.6c-0.7-0.5-2-0.7-3.8-0.7h-31.9c-0.9,0-1.6,0.1-2.2,0.2
	c-0.6,0.1-1.1,0.3-1.5,0.5s-0.7,0.6-1,1C525.3,328.5,525.1,329.1,525,329.7z"/>
<path class="st0" d="M532.6,263.3c0-2.5,0.3-4.6,1-6.4c0.7-1.8,1.7-3.3,3-4.5c1.3-1.2,2.8-2.1,4.5-2.7c1.7-0.6,3.6-0.9,5.7-1v25.9
	c0.6,0.1,1.2,0.1,1.9,0.2c0.6,0,1.3,0.1,1.9,0.1c2.3,0,4.5-0.3,6.5-1c2-0.6,3.8-1.5,5.3-2.6c1.5-1.1,2.6-2.5,3.5-4
	c0.8-1.6,1.3-3.3,1.3-5.1c0-1.6-0.3-3.1-0.9-4.5c-0.6-1.3-1.4-2.6-2.6-3.7c-1.1-1.1-2.4-2.1-4-3c-1.5-0.9-3.2-1.6-5.1-2.3l8.9,0.6
	c1.5,1.8,2.6,3.9,3.4,6.1c0.7,2.3,1.1,4.5,1.1,6.7c0,2.6-0.4,5-1.3,7.1c-0.8,2.2-2,4-3.5,5.6c-1.5,1.6-3.4,2.8-5.5,3.7
	c-2.2,0.9-4.6,1.3-7.2,1.3c-2.6,0-5-0.4-7.1-1.1c-2.2-0.8-4.1-1.9-5.7-3.3c-1.6-1.4-2.8-3.2-3.7-5.2
	C533.1,268.2,532.6,265.9,532.6,263.3z M546,274.5v-21c-1.8,0-3.5,0.3-5,0.7c-1.5,0.5-2.8,1.1-4,1.9c-1.1,0.8-2,1.8-2.7,3
	c-0.6,1.2-1,2.6-1,4.2c0,1.5,0.3,2.8,0.9,4.1c0.6,1.2,1.5,2.3,2.6,3.3c1.1,1,2.5,1.8,4,2.4C542.5,273.8,544.2,274.2,546,274.5z"/>
<path class="st0" d="M532.9,232.9c0.3,0.4,0.7,0.7,1.2,0.9c0.5,0.2,1.4,0.1,2.6-0.3l24-8.6l-27.9-8.7v-0.5l28.2-11.2l-20.6-6.7
	c-1.7-0.5-3-0.8-3.9-0.9c-0.9-0.1-1.7,0-2.2,0.2s-0.9,0.4-1,0.7c-0.2,0.3-0.3,0.5-0.4,0.7v-6c0.3,0.6,0.8,1.2,1.5,1.8
	c0.7,0.6,1.9,1.2,3.7,1.8l29.5,9.6v0.7l-27.8,11l27.8,8.7v0.7l-29.3,10.6c-1.8,0.7-3.2,1.3-3.9,1.8c-0.8,0.5-1.3,0.9-1.5,1.4V232.9z
	"/>
<path class="st0" d="M567.7,161.6c-0.4-1.3-0.9-2.2-1.7-2.6c-0.7-0.5-2-0.7-3.8-0.7h-31.9c-0.9,0-1.6,0.1-2.2,0.2
	c-0.6,0.1-1.1,0.3-1.5,0.5s-0.7,0.6-1,1c-0.3,0.4-0.5,1-0.6,1.6v-14c0-4.8,0.9-8.7,2.6-11.5c1.7-2.8,4.3-4.2,7.5-4.2
	c2.7,0,5,1,6.8,3.1c1.8,2.1,3.1,4.9,3.8,8.5c0.5-4.1,1.6-7.3,3.4-9.6c1.8-2.3,4.1-3.5,6.9-3.5c1.8,0,3.5,0.4,4.9,1.1
	c1.4,0.7,2.7,1.8,3.7,3.1s1.8,3,2.3,5c0.5,1.9,0.8,4.1,0.8,6.5V161.6z M545.2,153.6V147c0-3.2-0.9-5.7-2.7-7.5
	c-1.8-1.9-4.2-2.8-7.1-2.8c-3.1,0-5.4,1-7.1,3c-1.6,2-2.5,4.9-2.5,8.6v5.3H545.2z M566.7,153.6V147c0-3.7-0.9-6.6-2.8-8.6
	c-1.8-2-4.4-3.1-7.7-3.1c-3.2,0-5.7,1-7.4,3.1c-1.7,2.1-2.6,4.8-2.6,8.3v6.8H566.7z"/>
<path class="st0" d="M548.6,105.9l-1.7-6.8h-4.4c-3.1,0-5.3,0.6-6.8,1.8c-1.5,1.2-2.2,3-2.2,5.5c0,1.1,0.2,2.3,0.6,3.5
	c0.4,1.2,1.1,2.3,2.1,3.4c1,1,2.4,2,4.1,2.9c1.7,0.9,3.9,1.6,6.5,2.2l-10.3,0.4c-1.2-1.5-2.1-3.4-2.8-5.6s-1-4.5-1-6.8
	c0-3.6,0.9-6.5,2.6-8.6c1.7-2.1,4.2-3.2,7.6-3.2h19.5c1.2,0,2.2-0.1,3.1-0.4c0.9-0.3,1.6-0.7,2.2-1.3l0.2,6h-8.1c1,0.4,2,0.9,3,1.6
	c1,0.6,1.9,1.4,2.6,2.3c0.8,0.9,1.4,2,1.8,3.3c0.5,1.3,0.7,2.7,0.7,4.4c0,1.5-0.2,2.9-0.5,4.2c-0.3,1.3-0.8,2.4-1.5,3.3
	s-1.5,1.7-2.5,2.2c-1,0.5-2.2,0.8-3.5,0.8c-1.8,0-3.4-0.5-4.7-1.5c-1.3-1-2.3-2.3-3.2-3.8c-0.9-1.5-1.5-3.1-2.1-4.9
	C549.4,109,549,107.4,548.6,105.9z M559.8,115.9c2.1,0,3.8-0.6,5.2-1.7c1.4-1.1,2-2.7,2-4.8c0-1.1-0.2-2.3-0.7-3.5
	c-0.5-1.2-1.2-2.3-2.2-3.3c-1-1-2.2-1.8-3.6-2.5c-1.4-0.7-3.1-1-5-1.1h-7.6l1.6,6.7c0.2,0.9,0.5,1.9,0.9,3c0.4,1.2,1,2.3,1.8,3.3
	c0.8,1,1.8,1.9,3,2.6C556.4,115.5,557.9,115.9,559.8,115.9z"/>
<path class="st0" d="M564.4,83.9l-11.6-1c2.8-0.2,5.1-0.7,6.9-1.4c1.8-0.7,3.3-1.5,4.4-2.5c1.1-1,1.9-2.2,2.3-3.4
	c0.5-1.3,0.7-2.7,0.7-4.2c0-3.1-0.7-5.3-2.2-6.8c-1.5-1.5-3.3-2.2-5.4-2.2c-1.2,0-2.3,0.2-3.1,0.7c-0.8,0.5-1.5,1-2.1,1.6
	c-0.6,0.6-1,1.3-1.3,2.1c-0.3,0.7-0.6,1.4-0.8,2l-2.2,6.6c-0.2,0.7-0.5,1.4-1,2.2c-0.4,0.8-1,1.6-1.7,2.3c-0.7,0.7-1.5,1.4-2.6,1.9
	c-1,0.5-2.2,0.8-3.5,0.8c-2.7,0-4.8-1-6.4-3c-1.6-2-2.3-4.7-2.3-8c0-2.3,0.3-4.3,1-6.2c0.7-1.9,1.6-3.5,2.8-4.8l8.3,0.4
	c-4,1-6.9,2.4-8.7,4c-1.8,1.7-2.6,3.9-2.6,6.7c0,2.2,0.5,4.1,1.6,5.5c1,1.5,2.7,2.2,4.8,2.2c1,0,1.8-0.2,2.5-0.6
	c0.7-0.4,1.2-0.9,1.6-1.5c0.4-0.6,0.8-1.2,1-1.9c0.3-0.7,0.5-1.4,0.7-2l2-6c0.2-0.8,0.6-1.7,1-2.7c0.5-1,1.1-2,1.8-2.9
	c0.8-0.9,1.7-1.7,2.8-2.3c1.1-0.6,2.5-0.9,4.2-0.9c1.5,0,2.9,0.3,4.2,0.9c1.3,0.6,2.4,1.4,3.3,2.5c0.9,1.1,1.7,2.5,2.2,4.1
	c0.5,1.6,0.8,3.5,0.8,5.6c0,2.3-0.3,4.6-0.9,6.7S565.6,82.5,564.4,83.9z"/>
<path class="st0" d="M521.9,44.7c0-0.9,0.3-1.7,0.8-2.3c0.6-0.6,1.3-0.9,2.2-0.9c0.9,0,1.7,0.3,2.3,0.9c0.6,0.6,0.9,1.4,0.9,2.3
	c0,0.9-0.3,1.7-0.9,2.3c-0.6,0.6-1.3,0.9-2.3,0.9c-0.9,0-1.7-0.3-2.2-0.9C522.2,46.4,521.9,45.6,521.9,44.7z M567.7,50
	c-0.2-0.7-0.4-1.2-0.7-1.6c-0.2-0.4-0.6-0.7-1-1c-0.4-0.2-0.9-0.4-1.5-0.5c-0.6-0.1-1.4-0.1-2.2-0.1h-22.7c-0.9,0-1.6,0-2.2,0.1
	s-1.2,0.2-1.7,0.3s-0.9,0.3-1.4,0.5c-0.4,0.2-0.8,0.5-1.2,0.8l-0.6-6.3h29.8c0.9,0,1.6-0.1,2.2-0.2c0.6-0.1,1.1-0.3,1.5-0.5
	s0.7-0.6,1-1c0.2-0.4,0.5-0.9,0.7-1.5V50z"/>
<path class="st0" d="M532.6,13.8c0-2.7,0.5-5.2,1.4-7.5c0.9-2.3,2.1-4.4,3.5-6.1l9.7,2c-2.6,0.2-4.8,0.7-6.5,1.5
	c-1.8,0.7-3.2,1.6-4.2,2.7s-1.8,2.2-2.3,3.5c-0.5,1.3-0.7,2.6-0.7,3.9c0,1.8,0.4,3.4,1.2,4.8c0.8,1.5,1.9,2.7,3.4,3.8
	s3.2,1.9,5.3,2.5c2.1,0.6,4.3,0.9,6.8,0.9c2.5,0,4.9-0.3,6.9-0.9c2.1-0.6,3.9-1.5,5.4-2.6s2.6-2.4,3.4-3.9c0.8-1.5,1.2-3.2,1.2-5
	c0-3.1-1.2-5.8-3.5-8.2c-2.4-2.3-5.8-4.1-10.2-5.2l10.3,0.4c0.9,0.9,1.6,2,2.1,3.1c0.6,1.1,1,2.3,1.3,3.4c0.3,1.1,0.6,2.3,0.7,3.4
	c0.1,1.1,0.2,2.2,0.2,3.1c0,2.5-0.4,4.8-1.3,6.9c-0.8,2.1-2,4-3.6,5.5c-1.6,1.5-3.4,2.7-5.6,3.6c-2.2,0.9-4.6,1.3-7.3,1.3
	c-2.6,0-4.9-0.4-7.1-1.2c-2.1-0.8-4-2-5.5-3.4c-1.6-1.5-2.8-3.2-3.6-5.3C533.1,18.6,532.6,16.3,532.6,13.8z"/>
<path class="st0" d="M43-1.9V4L7.7,34.4h29.9c0.9,0,1.6-0.1,2.2-0.2c0.6-0.1,1.1-0.3,1.5-0.5s0.7-0.6,1-1c0.3-0.4,0.5-1,0.6-1.6v7.7
	c-0.4-1.3-1-2.1-1.7-2.6c-0.7-0.5-2-0.7-3.7-0.7H0.3V35L38.1,2.5H5.7C4,2.5,2.7,2.7,2,3.2C1.3,3.6,0.7,4.5,0.3,5.8v-7.7
	C0.7-0.6,1.2,0.3,2,0.7c0.7,0.5,2,0.7,3.8,0.7h31.9c0.9,0,1.6-0.1,2.2-0.2C40.5,1.2,41,1,41.4,0.7s0.7-0.6,1-1
	C42.7-0.7,42.9-1.3,43-1.9z"/>
<path class="st0" d="M35.4,64.5c0,2.5-0.3,4.6-1,6.4c-0.7,1.8-1.7,3.3-3,4.5c-1.3,1.2-2.8,2.1-4.5,2.7c-1.7,0.6-3.6,0.9-5.7,1V53.2
	C20.6,53.1,20,53,19.3,53c-0.6,0-1.3-0.1-1.9-0.1c-2.3,0-4.5,0.3-6.5,1c-2,0.6-3.8,1.5-5.3,2.6c-1.5,1.1-2.6,2.5-3.5,4
	c-0.8,1.6-1.3,3.3-1.3,5.1c0,1.6,0.3,3.1,0.9,4.5c0.6,1.3,1.4,2.6,2.6,3.7c1.1,1.1,2.4,2.1,4,3c1.5,0.9,3.2,1.6,5.1,2.3l-8.9-0.6
	c-1.5-1.8-2.6-3.9-3.4-6.1C0.4,70.1,0,67.8,0,65.7c0-2.6,0.4-5,1.3-7.1c0.8-2.2,2-4,3.5-5.6c1.5-1.6,3.4-2.8,5.5-3.7
	c2.2-0.9,4.6-1.3,7.2-1.3c2.6,0,5,0.4,7.1,1.1c2.2,0.8,4.1,1.9,5.7,3.3c1.6,1.4,2.8,3.2,3.7,5.2C34.9,59.6,35.4,61.9,35.4,64.5z
	 M22,53.3v21c1.8,0,3.5-0.3,5-0.7c1.5-0.5,2.8-1.1,4-1.9c1.1-0.8,2-1.8,2.7-3c0.6-1.2,1-2.6,1-4.2c0-1.5-0.3-2.8-0.9-4.1
	c-0.6-1.2-1.5-2.3-2.6-3.3c-1.1-1-2.5-1.8-4-2.4C25.5,54.1,23.8,53.6,22,53.3z"/>
<path class="st0" d="M35.1,94.9c-0.3-0.4-0.7-0.7-1.2-0.9c-0.5-0.2-1.4-0.1-2.6,0.3l-24,8.6l27.9,8.7v0.5L6.9,123.4l20.6,6.7
	c1.7,0.5,3,0.8,3.9,0.9c0.9,0.1,1.7,0,2.2-0.2s0.9-0.4,1-0.7c0.2-0.3,0.3-0.5,0.4-0.7v6c-0.3-0.6-0.8-1.2-1.5-1.8
	c-0.7-0.6-1.9-1.2-3.7-1.8l-29.5-9.6v-0.7l27.8-11l-27.8-8.7V101l29.3-10.6c1.8-0.7,3.2-1.3,3.9-1.8c0.8-0.5,1.3-0.9,1.5-1.4V94.9z"
	/>
<path class="st0" d="M0.3,166.2c0.4,1.3,0.9,2.2,1.7,2.6c0.7,0.5,2,0.7,3.8,0.7h31.9c0.9,0,1.6-0.1,2.2-0.2c0.6-0.1,1.1-0.3,1.5-0.5
	s0.7-0.6,1-1c0.3-0.4,0.5-1,0.6-1.6v14c0,4.8-0.9,8.7-2.6,11.5c-1.7,2.8-4.3,4.2-7.5,4.2c-2.7,0-5-1-6.8-3.1
	c-1.8-2.1-3.1-4.9-3.8-8.5c-0.5,4.1-1.6,7.3-3.4,9.6c-1.8,2.3-4.1,3.5-6.9,3.5c-1.8,0-3.5-0.4-4.9-1.1c-1.4-0.7-2.7-1.8-3.7-3.1
	s-1.8-3-2.3-5c-0.5-1.9-0.8-4.1-0.8-6.5V166.2z M1.3,174.2v6.6c0,3.7,0.9,6.6,2.8,8.6c1.8,2,4.4,3.1,7.7,3.1c3.2,0,5.7-1,7.4-3.1
	c1.7-2.1,2.6-4.8,2.6-8.3v-6.8H1.3z M22.8,174.2v6.6c0,3.2,0.9,5.7,2.7,7.5c1.8,1.9,4.2,2.8,7.1,2.8c3.1,0,5.4-1,7.1-3
	c1.6-2,2.5-4.9,2.5-8.6v-5.3H22.8z"/>
<path class="st0" d="M19.4,221.9l1.7,6.8h4.4c3.1,0,5.3-0.6,6.8-1.8c1.5-1.2,2.2-3,2.2-5.5c0-1.1-0.2-2.3-0.6-3.5
	c-0.4-1.2-1.1-2.3-2.1-3.4c-1-1-2.4-2-4.1-2.9c-1.7-0.9-3.9-1.6-6.5-2.2l10.3-0.4c1.2,1.5,2.1,3.4,2.8,5.6s1,4.5,1,6.8
	c0,3.6-0.9,6.5-2.6,8.6c-1.7,2.1-4.2,3.2-7.6,3.2H5.7c-1.2,0-2.2,0.1-3.1,0.4c-0.9,0.3-1.6,0.7-2.2,1.3l-0.2-6h8.1
	c-1-0.4-2-0.9-3-1.6c-1-0.6-1.9-1.4-2.6-2.3c-0.8-0.9-1.4-2-1.8-3.3c-0.5-1.3-0.7-2.7-0.7-4.4c0-1.5,0.2-2.9,0.5-4.2
	c0.3-1.3,0.8-2.4,1.5-3.3s1.5-1.7,2.5-2.2c1-0.5,2.2-0.8,3.5-0.8c1.8,0,3.4,0.5,4.7,1.5c1.3,1,2.3,2.3,3.2,3.8
	c0.9,1.5,1.5,3.1,2.1,4.9C18.6,218.8,19,220.4,19.4,221.9z M8.2,211.9c-2.1,0-3.8,0.6-5.2,1.7c-1.4,1.1-2,2.7-2,4.8
	c0,1.1,0.2,2.3,0.7,3.5c0.5,1.2,1.2,2.3,2.2,3.3c1,1,2.2,1.8,3.6,2.5c1.4,0.7,3.1,1,5,1.1h7.6l-1.6-6.7c-0.2-0.9-0.5-1.9-0.9-3
	c-0.4-1.2-1-2.3-1.8-3.3c-0.8-1-1.8-1.9-3-2.6C11.6,212.3,10.1,211.9,8.2,211.9z"/>
<path class="st0" d="M3.6,244l11.6,1c-2.8,0.2-5.1,0.7-6.9,1.4c-1.8,0.7-3.3,1.5-4.4,2.5c-1.1,1-1.9,2.2-2.3,3.4
	c-0.5,1.3-0.7,2.7-0.7,4.2c0,3.1,0.7,5.3,2.2,6.8c1.5,1.5,3.3,2.2,5.4,2.2c1.2,0,2.3-0.2,3.1-0.7c0.8-0.5,1.5-1,2.1-1.6
	c0.6-0.6,1-1.3,1.3-2.1c0.3-0.7,0.6-1.4,0.8-2l2.2-6.6c0.2-0.7,0.5-1.4,1-2.2c0.4-0.8,1-1.6,1.7-2.3c0.7-0.7,1.5-1.4,2.6-1.9
	c1-0.5,2.2-0.8,3.5-0.8c2.7,0,4.8,1,6.4,3c1.6,2,2.3,4.7,2.3,8c0,2.3-0.3,4.3-1,6.2c-0.7,1.9-1.6,3.5-2.8,4.8l-8.3-0.4
	c4-1,6.9-2.4,8.7-4s2.6-3.9,2.6-6.7c0-2.2-0.5-4.1-1.6-5.5c-1-1.5-2.7-2.2-4.8-2.2c-1,0-1.8,0.2-2.5,0.6c-0.7,0.4-1.2,0.9-1.6,1.5
	c-0.4,0.6-0.8,1.2-1,1.9c-0.3,0.7-0.5,1.4-0.7,2l-2,6c-0.2,0.8-0.6,1.7-1,2.7c-0.5,1-1.1,2-1.8,2.9c-0.8,0.9-1.7,1.7-2.8,2.3
	c-1.1,0.6-2.5,0.9-4.2,0.9c-1.5,0-2.9-0.3-4.2-0.9c-1.3-0.6-2.4-1.4-3.3-2.5c-0.9-1.1-1.7-2.5-2.2-4.1C0.3,260,0,258.1,0,256
	c0-2.3,0.3-4.6,0.9-6.7S2.4,245.4,3.6,244z"/>
<path class="st0" d="M0.3,277.8c0.2,0.7,0.4,1.2,0.7,1.6c0.2,0.4,0.6,0.7,1,1c0.4,0.2,0.9,0.4,1.5,0.5c0.6,0.1,1.4,0.1,2.2,0.1h22.7
	c0.9,0,1.6,0,2.2-0.1s1.2-0.2,1.7-0.3s0.9-0.3,1.4-0.5c0.4-0.2,0.8-0.5,1.2-0.8l0.6,6.3H5.7c-0.9,0-1.6,0.1-2.2,0.2
	c-0.6,0.1-1.1,0.3-1.5,0.5s-0.7,0.6-1,1c-0.2,0.4-0.5,0.9-0.7,1.5V277.8z M46.1,283.1c0,0.9-0.3,1.7-0.8,2.3
	c-0.6,0.6-1.3,0.9-2.2,0.9c-0.9,0-1.7-0.3-2.3-0.9c-0.6-0.6-0.9-1.4-0.9-2.3c0-0.9,0.3-1.7,0.9-2.3c0.6-0.6,1.3-0.9,2.3-0.9
	c0.9,0,1.7,0.3,2.2,0.9C45.8,281.4,46.1,282.2,46.1,283.1z"/>
<path class="st0" d="M35.4,314c0,2.7-0.5,5.2-1.4,7.5c-0.9,2.3-2.1,4.4-3.5,6.1l-9.7-2c2.6-0.2,4.8-0.7,6.5-1.5
	c1.8-0.7,3.2-1.6,4.2-2.7s1.8-2.2,2.3-3.5c0.5-1.3,0.7-2.6,0.7-3.9c0-1.8-0.4-3.4-1.2-4.8c-0.8-1.5-1.9-2.7-3.4-3.8
	s-3.2-1.9-5.3-2.5c-2.1-0.6-4.3-0.9-6.8-0.9c-2.5,0-4.9,0.3-6.9,0.9c-2.1,0.6-3.9,1.5-5.4,2.6s-2.6,2.4-3.4,3.9
	c-0.8,1.5-1.2,3.2-1.2,5c0,3.1,1.2,5.8,3.5,8.2c2.4,2.3,5.8,4.1,10.2,5.2l-10.3-0.4c-0.9-0.9-1.6-2-2.1-3.1c-0.6-1.1-1-2.3-1.3-3.4
	c-0.3-1.1-0.6-2.3-0.7-3.4c-0.1-1.1-0.2-2.2-0.2-3.1c0-2.5,0.4-4.8,1.3-6.9c0.8-2.1,2-4,3.6-5.5c1.6-1.5,3.4-2.7,5.6-3.6
	c2.2-0.9,4.6-1.3,7.3-1.3c2.6,0,4.9,0.4,7.1,1.2c2.1,0.8,4,2,5.5,3.4c1.6,1.5,2.8,3.2,3.6,5.3C34.9,309.2,35.4,311.5,35.4,314z"/>
</svg>
