<?xml version="1.0" encoding="utf-8"?>
<!-- Generator: Adobe Illustrator 25.4.1, SVG Export Plug-In . SVG Version: 6.00 Build 0)  -->
<svg version="1.1" id="レイヤー_1" xmlns="http://www.w3.org/2000/svg" xmlns:xlink="http://www.w3.org/1999/xlink" x="0px"
	 y="0px" viewBox="0 0 259 15" style="enable-background:new 0 0 259 15;" xml:space="preserve">
<style type="text/css">
	.st0{fill:#C55A32;stroke:#C55A32;stroke-width:0.25;stroke-miterlimit:10;}
</style>
<g>
	<g>
		<path class="st0" d="M0.1,12.1c0.3-0.1,0.6-0.2,0.7-0.4c0.1-0.2,0.2-0.5,0.2-1V2.5c0-0.2,0-0.4,0-0.6c0-0.2-0.1-0.3-0.1-0.4
			S0.6,1.3,0.5,1.2S0.3,1.1,0.1,1.1h4.1c0.5,0,1,0.1,1.5,0.2c0.5,0.1,1,0.3,1.4,0.5C7.4,2,7.8,2.3,8,2.7c0.3,0.4,0.4,0.9,0.4,1.5
			c0,0.6-0.1,1.1-0.4,1.5C7.8,6,7.4,6.4,7,6.6C6.6,6.9,6.1,7.1,5.6,7.2c-0.5,0.1-1,0.2-1.5,0.2h-2v3.3c0,0.5,0.1,0.8,0.2,1
			S2.7,12,3,12.1H0.1z M2.2,1.3v5.9h1.7c0.4,0,0.8-0.1,1.2-0.2s0.7-0.3,1-0.5c0.3-0.2,0.5-0.6,0.7-0.9C7,5.2,7.1,4.7,7.1,4.2
			c0-0.9-0.3-1.6-0.9-2.1C5.7,1.6,4.9,1.3,3.8,1.3H2.2z"/>
		<path class="st0" d="M10.8,12.1c0.2-0.1,0.3-0.1,0.4-0.2c0.1-0.1,0.2-0.1,0.3-0.2c0.1-0.1,0.1-0.2,0.1-0.4c0-0.2,0-0.4,0-0.6V4.9
			c0-0.2,0-0.4,0-0.6c0-0.2,0-0.3-0.1-0.4c0-0.1-0.1-0.2-0.1-0.4c-0.1-0.1-0.1-0.2-0.2-0.3l1.6-0.1v2.1c0.1-0.3,0.3-0.6,0.4-0.8
			c0.2-0.3,0.3-0.5,0.6-0.7s0.5-0.3,0.7-0.4c0.3-0.1,0.6-0.2,1-0.2c0.3,0,0.6,0,0.9,0.1l0,1.5c-0.1-0.1-0.2-0.2-0.3-0.4
			c-0.1-0.1-0.3-0.2-0.4-0.3s-0.3-0.2-0.5-0.3c-0.2-0.1-0.3-0.1-0.5-0.1c-0.2,0-0.4,0.1-0.6,0.2c-0.2,0.1-0.3,0.2-0.5,0.4
			c-0.2,0.2-0.3,0.4-0.4,0.6c-0.1,0.2-0.2,0.5-0.3,0.8v5.2c0,0.2,0,0.4,0,0.6c0,0.2,0.1,0.3,0.1,0.4c0.1,0.1,0.1,0.2,0.3,0.3
			c0.1,0.1,0.2,0.1,0.4,0.2H10.8z"/>
		<path class="st0" d="M23,3.1c0.7,0,1.3,0.1,1.9,0.3s1,0.5,1.4,0.9c0.4,0.4,0.7,0.9,0.9,1.4s0.3,1.2,0.3,1.8v0
			c0,0.7-0.1,1.3-0.3,1.8s-0.5,1-0.9,1.4c-0.4,0.4-0.9,0.7-1.4,0.9s-1.2,0.3-1.9,0.3s-1.3-0.1-1.9-0.3s-1-0.5-1.4-0.9
			c-0.4-0.4-0.7-0.9-0.9-1.4s-0.3-1.2-0.3-1.8v0c0-0.7,0.1-1.3,0.3-1.8s0.5-1,0.9-1.4c0.4-0.4,0.9-0.7,1.4-0.9S22.3,3.1,23,3.1z
			 M19.7,7.6c0,0.6,0.1,1.2,0.2,1.7s0.4,1,0.7,1.4c0.3,0.4,0.6,0.7,1,0.9c0.4,0.2,0.8,0.3,1.3,0.3c0.5,0,0.9-0.1,1.3-0.3
			c0.4-0.2,0.7-0.5,1-0.9c0.3-0.4,0.5-0.8,0.7-1.4c0.2-0.5,0.2-1.1,0.2-1.7S26.2,6.4,26,5.9c-0.2-0.5-0.4-1-0.7-1.4
			c-0.3-0.4-0.6-0.7-1-0.9c-0.4-0.2-0.8-0.3-1.3-0.3c-0.5,0-0.9,0.1-1.3,0.3c-0.4,0.2-0.7,0.5-1,0.9S20.1,5.4,20,5.9
			C19.8,6.4,19.7,7,19.7,7.6z"/>
		<path class="st0" d="M34.2,3.1c0.5,0,1,0.1,1.4,0.2C36,3.5,36.4,3.7,36.8,4V1.4c0-0.3,0-0.6-0.1-0.7s-0.2-0.3-0.3-0.4l1.6-0.2
			v10.5c0,0.5,0,0.8,0.1,1s0.2,0.4,0.3,0.5l-1.6,0V11c-0.3,0.4-0.7,0.8-1.2,1s-0.9,0.3-1.4,0.3c-0.7,0-1.3-0.1-1.8-0.3
			s-1-0.5-1.4-0.9s-0.7-0.8-0.9-1.4c-0.2-0.5-0.3-1.1-0.3-1.7c0-0.7,0.1-1.4,0.3-1.9c0.2-0.6,0.5-1.1,0.9-1.5c0.4-0.4,0.9-0.8,1.4-1
			C33,3.2,33.6,3.1,34.2,3.1z M31,7.2c0,0.6,0.1,1.3,0.2,1.8c0.2,0.6,0.4,1.1,0.7,1.5c0.3,0.4,0.7,0.8,1.1,1
			c0.4,0.2,0.9,0.4,1.5,0.4c0.5,0,0.9-0.1,1.3-0.3s0.7-0.5,1-0.9V5.3c-0.3-0.7-0.6-1.2-1.1-1.5c-0.5-0.3-1-0.5-1.6-0.5
			c-0.5,0-0.9,0.1-1.3,0.3c-0.4,0.2-0.7,0.4-1,0.8s-0.5,0.7-0.6,1.2C31.1,6.1,31,6.6,31,7.2z"/>
		<path class="st0" d="M40.8,3.2l1.6-0.1v6.5c0,0.5,0,0.8,0.1,1.2c0.1,0.3,0.2,0.6,0.4,0.8c0.2,0.2,0.4,0.3,0.6,0.4
			c0.2,0.1,0.5,0.1,0.8,0.1c0.5,0,0.9-0.1,1.2-0.3c0.3-0.2,0.6-0.5,0.9-0.8c0.2-0.3,0.4-0.7,0.5-1.1c0.1-0.4,0.2-0.8,0.2-1.2V4.9
			c0-0.2,0-0.4,0-0.6c0-0.2,0-0.3-0.1-0.4c0-0.1-0.1-0.2-0.1-0.4c-0.1-0.1-0.1-0.2-0.2-0.3l1.6-0.1v7.5c0,0.5,0,0.8,0.1,1
			s0.2,0.4,0.3,0.5l-1.6,0V9.8c-0.2,0.4-0.3,0.7-0.5,1s-0.4,0.6-0.6,0.8c-0.2,0.2-0.5,0.4-0.9,0.5s-0.7,0.2-1.1,0.2
			c-0.9,0-1.6-0.2-2.2-0.7c-0.5-0.5-0.8-1.2-0.8-2.1V4.9c0-0.2,0-0.4,0-0.6c0-0.2,0-0.3-0.1-0.4c0-0.1-0.1-0.2-0.1-0.4
			S40.9,3.3,40.8,3.2z"/>
		<path class="st0" d="M55.7,3.1c0.7,0,1.3,0.1,1.9,0.4c0.6,0.2,1.1,0.5,1.6,0.9l-0.5,2.5c-0.1-0.7-0.2-1.2-0.4-1.7
			c-0.2-0.5-0.4-0.8-0.7-1.1c-0.3-0.3-0.6-0.5-0.9-0.6c-0.3-0.1-0.7-0.2-1-0.2c-0.5,0-0.9,0.1-1.2,0.3c-0.4,0.2-0.7,0.5-1,0.9
			c-0.3,0.4-0.5,0.8-0.6,1.4c-0.2,0.5-0.2,1.1-0.2,1.8c0,0.7,0.1,1.3,0.2,1.8s0.4,1,0.7,1.4c0.3,0.4,0.6,0.7,1,0.9
			c0.4,0.2,0.8,0.3,1.3,0.3c0.8,0,1.5-0.3,2.1-0.9s1.1-1.5,1.4-2.6l-0.1,2.7c-0.2,0.2-0.5,0.4-0.8,0.5c-0.3,0.1-0.6,0.3-0.9,0.3
			s-0.6,0.1-0.9,0.2c-0.3,0-0.6,0.1-0.8,0.1c-0.6,0-1.2-0.1-1.8-0.3c-0.6-0.2-1-0.5-1.4-0.9c-0.4-0.4-0.7-0.9-0.9-1.5
			c-0.2-0.6-0.3-1.2-0.3-1.9c0-0.7,0.1-1.3,0.3-1.8c0.2-0.6,0.5-1,0.9-1.4c0.4-0.4,0.8-0.7,1.4-0.9S55,3.1,55.7,3.1z"/>
		<path class="st0" d="M66,3.1c0.6,0,1.2,0.1,1.7,0.3c0.5,0.2,0.9,0.4,1.2,0.8c0.3,0.3,0.5,0.7,0.7,1.2c0.2,0.4,0.2,0.9,0.2,1.5
			h-6.7c0,0.2,0,0.3,0,0.5c0,0.2,0,0.3,0,0.5c0,0.6,0.1,1.2,0.2,1.7c0.2,0.5,0.4,1,0.7,1.4c0.3,0.4,0.6,0.7,1,0.9
			c0.4,0.2,0.8,0.3,1.3,0.3c0.4,0,0.8-0.1,1.2-0.2c0.3-0.2,0.7-0.4,0.9-0.7c0.3-0.3,0.5-0.6,0.8-1c0.2-0.4,0.4-0.8,0.6-1.3l-0.1,2.3
			c-0.5,0.4-1,0.7-1.6,0.9s-1.2,0.3-1.7,0.3c-0.7,0-1.3-0.1-1.8-0.3c-0.6-0.2-1-0.5-1.5-0.9c-0.4-0.4-0.7-0.9-0.9-1.4
			s-0.3-1.2-0.3-1.9c0-0.7,0.1-1.3,0.3-1.8c0.2-0.6,0.5-1,0.9-1.5s0.8-0.7,1.3-1C64.8,3.2,65.4,3.1,66,3.1z M63.1,6.5h5.4
			c0-0.5-0.1-0.9-0.2-1.3c-0.1-0.4-0.3-0.7-0.5-1c-0.2-0.3-0.5-0.5-0.8-0.7c-0.3-0.2-0.7-0.2-1.1-0.2c-0.4,0-0.7,0.1-1,0.2
			c-0.3,0.2-0.6,0.4-0.9,0.7c-0.2,0.3-0.5,0.6-0.6,1C63.3,5.6,63.2,6.1,63.1,6.5z"/>
		<path class="st0" d="M76.6,3.1c0.5,0,1,0.1,1.4,0.2c0.4,0.2,0.8,0.4,1.2,0.7V1.4c0-0.3,0-0.6-0.1-0.7s-0.2-0.3-0.3-0.4l1.6-0.2
			v10.5c0,0.5,0,0.8,0.1,1s0.2,0.4,0.3,0.5l-1.6,0V11c-0.3,0.4-0.7,0.8-1.2,1s-0.9,0.3-1.4,0.3c-0.7,0-1.3-0.1-1.8-0.3
			s-1-0.5-1.4-0.9s-0.7-0.8-0.9-1.4c-0.2-0.5-0.3-1.1-0.3-1.7c0-0.7,0.1-1.4,0.3-1.9c0.2-0.6,0.5-1.1,0.9-1.5c0.4-0.4,0.9-0.8,1.4-1
			C75.4,3.2,76,3.1,76.6,3.1z M73.4,7.2c0,0.6,0.1,1.3,0.2,1.8c0.2,0.6,0.4,1.1,0.7,1.5c0.3,0.4,0.7,0.8,1.1,1
			c0.4,0.2,0.9,0.4,1.5,0.4c0.5,0,0.9-0.1,1.3-0.3s0.7-0.5,1-0.9V5.3c-0.3-0.7-0.6-1.2-1.1-1.5c-0.5-0.3-1-0.5-1.6-0.5
			c-0.5,0-0.9,0.1-1.3,0.3c-0.4,0.2-0.7,0.4-1,0.8s-0.5,0.7-0.6,1.2C73.5,6.1,73.4,6.6,73.4,7.2z"/>
		<path class="st0" d="M89.2,0.3l1.6-0.2v4.1c0.2-0.2,0.4-0.4,0.6-0.5s0.4-0.3,0.7-0.3s0.5-0.1,0.7-0.2c0.2,0,0.4,0,0.6,0
			c0.7,0,1.3,0.1,1.9,0.3c0.6,0.2,1,0.5,1.4,0.9s0.7,0.8,0.9,1.4c0.2,0.5,0.3,1.1,0.3,1.8c0,0.7-0.1,1.3-0.3,1.9
			c-0.2,0.6-0.5,1.1-0.9,1.5c-0.4,0.4-0.9,0.8-1.4,1c-0.6,0.2-1.2,0.4-1.8,0.4c-1.1,0-2.1-0.4-2.8-1.1l-0.9,1l-0.1,0V1.4
			c0-0.3,0-0.6-0.1-0.7S89.3,0.4,89.2,0.3z M93.4,11.9c0.5,0,0.9-0.1,1.3-0.3c0.4-0.2,0.7-0.5,1-0.8c0.3-0.4,0.5-0.8,0.6-1.2
			s0.2-1,0.2-1.6c0-0.6-0.1-1.2-0.2-1.8c-0.2-0.6-0.4-1.1-0.7-1.5c-0.3-0.4-0.7-0.8-1.1-1c-0.4-0.2-1-0.4-1.5-0.4
			c-0.4,0-0.8,0.1-1.2,0.2c-0.4,0.2-0.8,0.4-1.1,0.9v5.7c0.3,0.6,0.7,1,1.1,1.3C92.3,11.8,92.8,11.9,93.4,11.9z"/>
		<path class="st0" d="M101.8,3.2c-0.1,0.1-0.1,0.2-0.2,0.3c0,0.1,0,0.4,0.2,0.8l2.6,6.5l2.5-6.5c0.1-0.2,0.1-0.4,0.1-0.5
			c0-0.1,0-0.2-0.1-0.3c0-0.1-0.1-0.2-0.2-0.2s-0.1-0.1-0.2-0.1h1.5c-0.1,0.1-0.2,0.2-0.4,0.3s-0.3,0.4-0.5,0.8l-3.4,8.4
			c-0.1,0.2-0.2,0.4-0.3,0.6c-0.1,0.2-0.3,0.5-0.5,0.7c-0.2,0.2-0.4,0.4-0.7,0.6c-0.3,0.2-0.6,0.3-0.9,0.3l-0.6-1.6
			c0.4,0.2,0.8,0.3,1.2,0.3s0.7-0.1,1-0.4c0.3-0.2,0.6-0.6,0.7-1.1l-3.4-8.1c-0.1-0.3-0.3-0.6-0.4-0.7c-0.1-0.1-0.2-0.2-0.3-0.3
			H101.8z"/>
		<path class="st0" d="M118.2,1.1c0,0-0.1,0.1-0.1,0.1c0,0.1-0.1,0.1-0.1,0.2c0,0.1,0,0.2,0,0.3c0,0.1,0.1,0.3,0.2,0.4l3.1,4.8
			l2.7-4.1c0.2-0.4,0.4-0.7,0.5-0.9c0.1-0.2,0.1-0.4,0.1-0.5s0-0.2-0.1-0.3c-0.1-0.1-0.1-0.1-0.1-0.2h1.5c-0.1,0-0.3,0.2-0.5,0.4
			c-0.2,0.2-0.4,0.5-0.7,0.9l-3.2,4.8v3.5c0,0.5,0.1,0.8,0.2,1c0.1,0.2,0.3,0.3,0.7,0.4h-2.9c0.3-0.1,0.6-0.2,0.7-0.4
			c0.1-0.2,0.2-0.5,0.2-1V7.3l-3.1-4.6c-0.4-0.5-0.6-0.9-0.8-1.2c-0.2-0.2-0.4-0.4-0.5-0.5H118.2z"/>
		<path class="st0" d="M131.8,3.1c0.7,0,1.3,0.1,1.9,0.3s1,0.5,1.4,0.9c0.4,0.4,0.7,0.9,0.9,1.4s0.3,1.2,0.3,1.8v0
			c0,0.7-0.1,1.3-0.3,1.8s-0.5,1-0.9,1.4c-0.4,0.4-0.9,0.7-1.4,0.9s-1.2,0.3-1.9,0.3s-1.3-0.1-1.9-0.3s-1-0.5-1.4-0.9
			c-0.4-0.4-0.7-0.9-0.9-1.4s-0.3-1.2-0.3-1.8v0c0-0.7,0.1-1.3,0.3-1.8s0.5-1,0.9-1.4c0.4-0.4,0.9-0.7,1.4-0.9S131.2,3.1,131.8,3.1z
			 M128.6,7.6c0,0.6,0.1,1.2,0.2,1.7s0.4,1,0.7,1.4c0.3,0.4,0.6,0.7,1,0.9c0.4,0.2,0.8,0.3,1.3,0.3c0.5,0,0.9-0.1,1.3-0.3
			c0.4-0.2,0.7-0.5,1-0.9c0.3-0.4,0.5-0.8,0.7-1.4c0.2-0.5,0.2-1.1,0.2-1.7s-0.1-1.2-0.2-1.7c-0.2-0.5-0.4-1-0.7-1.4
			c-0.3-0.4-0.6-0.7-1-0.9c-0.4-0.2-0.8-0.3-1.3-0.3c-0.5,0-0.9,0.1-1.3,0.3c-0.4,0.2-0.7,0.5-1,0.9s-0.5,0.8-0.7,1.4
			C128.6,6.4,128.6,7,128.6,7.6z"/>
		<path class="st0" d="M138.8,11.3l0.3-3c0.1,0.7,0.2,1.3,0.4,1.8s0.4,0.9,0.7,1.1s0.6,0.5,0.9,0.6c0.3,0.1,0.7,0.2,1.1,0.2
			c0.8,0,1.4-0.2,1.8-0.6c0.4-0.4,0.6-0.8,0.6-1.4c0-0.3-0.1-0.6-0.2-0.8c-0.1-0.2-0.3-0.4-0.4-0.5c-0.2-0.1-0.3-0.3-0.5-0.3
			c-0.2-0.1-0.4-0.1-0.5-0.2L141,7.6c-0.2-0.1-0.4-0.1-0.6-0.2s-0.4-0.3-0.6-0.4c-0.2-0.2-0.4-0.4-0.5-0.7c-0.1-0.3-0.2-0.6-0.2-0.9
			c0-0.7,0.3-1.3,0.8-1.7c0.5-0.4,1.2-0.6,2.1-0.6c0.6,0,1.1,0.1,1.6,0.3c0.5,0.2,0.9,0.4,1.2,0.7l-0.1,2.1c-0.3-1-0.6-1.8-1-2.2
			c-0.4-0.5-1-0.7-1.7-0.7c-0.6,0-1,0.1-1.4,0.4c-0.4,0.3-0.6,0.7-0.6,1.2c0,0.3,0.1,0.5,0.2,0.6s0.2,0.3,0.4,0.4s0.3,0.2,0.5,0.3
			s0.3,0.1,0.5,0.2L143,7c0.2,0.1,0.4,0.2,0.7,0.3c0.3,0.1,0.5,0.3,0.7,0.5c0.2,0.2,0.4,0.4,0.6,0.7c0.2,0.3,0.2,0.6,0.2,1.1
			c0,0.4-0.1,0.8-0.2,1.1c-0.1,0.3-0.4,0.6-0.7,0.9c-0.3,0.2-0.6,0.4-1.1,0.6s-0.9,0.2-1.5,0.2c-0.6,0-1.2-0.1-1.7-0.2
			S139.1,11.6,138.8,11.3z"/>
		<path class="st0" d="M147.6,12.1c0.2-0.1,0.3-0.1,0.4-0.2c0.1-0.1,0.2-0.1,0.3-0.2c0.1-0.1,0.1-0.2,0.1-0.4c0-0.2,0-0.4,0-0.6V1.4
			c0-0.3,0-0.6-0.1-0.7s-0.2-0.3-0.3-0.4l1.6-0.2v5.5c0.3-0.8,0.7-1.4,1.3-1.8c0.6-0.5,1.3-0.7,2.2-0.7c0.5,0,1,0.1,1.4,0.2
			c0.4,0.1,0.7,0.3,1,0.6s0.5,0.6,0.6,0.9c0.1,0.4,0.2,0.8,0.2,1.2v4.7c0,0.2,0,0.4,0,0.6c0,0.2,0.1,0.3,0.1,0.4
			c0.1,0.1,0.1,0.2,0.3,0.3c0.1,0.1,0.2,0.1,0.4,0.2h-2.8c0.2-0.1,0.3-0.1,0.4-0.2c0.1-0.1,0.2-0.1,0.3-0.2c0.1-0.1,0.1-0.2,0.1-0.4
			c0-0.2,0-0.4,0-0.6V5.9c0-0.8-0.2-1.4-0.6-1.9s-0.9-0.7-1.7-0.7c-0.4,0-0.8,0.1-1.2,0.2c-0.4,0.2-0.7,0.4-1,0.7
			c-0.3,0.3-0.5,0.7-0.7,1.1c-0.2,0.4-0.3,0.9-0.3,1.5v3.9c0,0.2,0,0.4,0,0.6c0,0.2,0.1,0.3,0.1,0.4c0.1,0.1,0.1,0.2,0.3,0.3
			c0.1,0.1,0.2,0.1,0.4,0.2H147.6z"/>
		<path class="st0" d="M159.2,12.1c0.2-0.1,0.3-0.1,0.4-0.2c0.1-0.1,0.2-0.1,0.3-0.2c0.1-0.1,0.1-0.2,0.1-0.4c0-0.2,0-0.4,0-0.6V4.9
			c0-0.2,0-0.4,0-0.6c0-0.2,0-0.3-0.1-0.4c0-0.1-0.1-0.2-0.1-0.4c-0.1-0.1-0.1-0.2-0.2-0.3l1.6-0.1v7.7c0,0.2,0,0.4,0,0.6
			c0,0.2,0.1,0.3,0.1,0.4c0.1,0.1,0.1,0.2,0.3,0.3c0.1,0.1,0.2,0.1,0.4,0.2H159.2z M160.6,0.3c0.2,0,0.4,0.1,0.6,0.2
			c0.2,0.1,0.2,0.3,0.2,0.6c0,0.2-0.1,0.4-0.2,0.6c-0.2,0.1-0.4,0.2-0.6,0.2c-0.2,0-0.4-0.1-0.6-0.2c-0.2-0.1-0.2-0.3-0.2-0.6
			c0-0.2,0.1-0.4,0.2-0.6S160.3,0.3,160.6,0.3z"/>
		<path class="st0" d="M168.2,7.2l1.8-0.4V5.6c0-0.8-0.2-1.4-0.5-1.8c-0.3-0.4-0.8-0.6-1.4-0.6c-0.3,0-0.6,0.1-0.9,0.2
			c-0.3,0.1-0.6,0.3-0.9,0.5c-0.3,0.3-0.5,0.6-0.7,1.1c-0.2,0.4-0.4,1-0.6,1.7l-0.1-2.7c0.4-0.3,0.9-0.6,1.4-0.7
			c0.6-0.2,1.2-0.3,1.8-0.3c0.9,0,1.7,0.2,2.2,0.7c0.5,0.4,0.8,1.1,0.8,2v5c0,0.3,0,0.6,0.1,0.8c0.1,0.2,0.2,0.4,0.3,0.6l-1.6,0
			v-2.1c-0.1,0.3-0.2,0.5-0.4,0.8s-0.4,0.5-0.6,0.7c-0.2,0.2-0.5,0.4-0.9,0.5c-0.3,0.1-0.7,0.2-1.1,0.2c-0.4,0-0.7,0-1.1-0.1
			c-0.3-0.1-0.6-0.2-0.9-0.4c-0.2-0.2-0.4-0.4-0.6-0.7s-0.2-0.6-0.2-0.9c0-0.5,0.1-0.9,0.4-1.2s0.6-0.6,1-0.8
			c0.4-0.2,0.8-0.4,1.3-0.5C167.4,7.4,167.8,7.3,168.2,7.2z M165.6,10.1c0,0.5,0.1,1,0.4,1.3c0.3,0.3,0.7,0.5,1.2,0.5
			c0.3,0,0.6-0.1,0.9-0.2c0.3-0.1,0.6-0.3,0.8-0.6c0.3-0.2,0.5-0.6,0.6-0.9s0.3-0.8,0.3-1.3V7l-1.7,0.4c-0.2,0.1-0.5,0.1-0.8,0.2
			c-0.3,0.1-0.6,0.3-0.9,0.5c-0.3,0.2-0.5,0.5-0.7,0.8C165.7,9.2,165.6,9.6,165.6,10.1z"/>
		<path class="st0" d="M173.8,12.1c0.2-0.1,0.3-0.1,0.4-0.2c0.1-0.1,0.2-0.1,0.3-0.2c0.1-0.1,0.1-0.2,0.1-0.4c0-0.2,0-0.4,0-0.6V1.4
			c0-0.3,0-0.6-0.1-0.7s-0.2-0.3-0.3-0.4l1.6-0.2v8.1l4.1-3.6c0.3-0.2,0.5-0.5,0.7-0.7c0.2-0.3,0.3-0.5,0.3-0.7h1.4
			c-0.1,0.1-0.2,0.1-0.4,0.2c-0.1,0.1-0.3,0.2-0.5,0.3c-0.2,0.1-0.4,0.3-0.7,0.5c-0.3,0.2-0.6,0.5-0.9,0.8l-1.8,1.5l3,3.8
			c0.3,0.4,0.5,0.7,0.7,0.9c0.2,0.2,0.3,0.4,0.4,0.5c0.1,0.1,0.2,0.2,0.2,0.3c0,0,0.1,0.1,0.1,0.1h-2c0,0,0-0.1,0-0.1s0-0.1,0-0.3
			c0-0.1-0.1-0.3-0.2-0.4c-0.1-0.2-0.3-0.4-0.5-0.7l-2.6-3.4l-1.5,1.3v2.2c0,0.2,0,0.4,0,0.6c0,0.2,0.1,0.3,0.1,0.4
			c0.1,0.1,0.1,0.2,0.3,0.3c0.1,0.1,0.2,0.1,0.4,0.2H173.8z"/>
		<path class="st0" d="M184.6,12.1c0.2-0.1,0.3-0.1,0.4-0.2c0.1-0.1,0.2-0.1,0.3-0.2c0.1-0.1,0.1-0.2,0.1-0.4c0-0.2,0-0.4,0-0.6V4.9
			c0-0.2,0-0.4,0-0.6c0-0.2,0-0.3-0.1-0.4c0-0.1-0.1-0.2-0.1-0.4c-0.1-0.1-0.1-0.2-0.2-0.3l1.6-0.1v7.7c0,0.2,0,0.4,0,0.6
			c0,0.2,0.1,0.3,0.1,0.4c0.1,0.1,0.1,0.2,0.3,0.3c0.1,0.1,0.2,0.1,0.4,0.2H184.6z M186,0.3c0.2,0,0.4,0.1,0.6,0.2
			c0.2,0.1,0.2,0.3,0.2,0.6c0,0.2-0.1,0.4-0.2,0.6c-0.2,0.1-0.4,0.2-0.6,0.2c-0.2,0-0.4-0.1-0.6-0.2c-0.2-0.1-0.2-0.3-0.2-0.6
			c0-0.2,0.1-0.4,0.2-0.6S185.7,0.3,186,0.3z"/>
		<path class="st0" d="M199,6.1c-0.3-0.3-0.5-0.6-0.7-0.9s-0.4-0.5-0.5-0.7s-0.2-0.4-0.3-0.7c-0.1-0.2-0.1-0.4-0.1-0.7
			c0-0.4,0.1-0.7,0.2-1c0.1-0.3,0.3-0.5,0.6-0.7c0.2-0.2,0.5-0.3,0.9-0.4c0.3-0.1,0.7-0.1,1-0.1c0.8,0,1.4,0.2,1.9,0.5
			c0.5,0.4,0.7,0.8,0.7,1.5c0,0.3-0.1,0.7-0.2,0.9s-0.3,0.5-0.6,0.8c-0.2,0.2-0.5,0.4-0.8,0.6c-0.3,0.2-0.6,0.4-0.9,0.5l3.1,3.8
			c0.1-0.3,0.3-0.7,0.4-1c0.1-0.4,0.2-0.8,0.3-1.3l0.5,0.1c-0.3,1-0.6,1.9-1,2.6c0.2,0.2,0.3,0.4,0.5,0.6c0.2,0.2,0.4,0.5,0.6,0.7
			s0.4,0.4,0.5,0.6c0.1,0.2,0.2,0.3,0.3,0.3h-1.7c-0.1-0.2-0.3-0.5-0.4-0.7s-0.3-0.4-0.4-0.6c-0.8,0.9-1.9,1.4-3.2,1.4
			c-1.1,0-2-0.3-2.6-0.8c-0.6-0.5-0.9-1.2-0.9-2.1c0-0.4,0.1-0.8,0.2-1.1s0.3-0.6,0.6-0.9c0.3-0.3,0.6-0.5,0.9-0.7
			C198.2,6.5,198.5,6.3,199,6.1z M199.7,12c0.2,0,0.4,0,0.7,0s0.5-0.1,0.8-0.2c0.3-0.1,0.5-0.2,0.8-0.4c0.3-0.2,0.5-0.4,0.8-0.7
			c-0.1-0.1-0.2-0.2-0.3-0.3c-0.1-0.1-0.2-0.2-0.3-0.3l-2.3-2.8c-0.3-0.3-0.5-0.6-0.8-0.9c-0.4,0.2-0.7,0.4-0.9,0.7
			c-0.2,0.3-0.4,0.5-0.6,0.8s-0.2,0.6-0.3,0.9s-0.1,0.5-0.1,0.8c0,0.5,0.1,0.9,0.2,1.2c0.1,0.3,0.3,0.6,0.5,0.8
			c0.2,0.2,0.5,0.4,0.8,0.5C199,11.9,199.3,12,199.7,12z M200,5.7c1.2-0.6,1.8-1.5,1.8-2.6c0-0.6-0.1-1-0.4-1.4
			c-0.3-0.4-0.7-0.5-1.3-0.5c-0.2,0-0.5,0-0.7,0.1c-0.2,0.1-0.4,0.2-0.6,0.3c-0.2,0.1-0.3,0.3-0.4,0.5c-0.1,0.2-0.1,0.4-0.1,0.7
			c0,0.2,0,0.5,0.1,0.7c0.1,0.2,0.2,0.5,0.4,0.7c0.2,0.2,0.3,0.5,0.5,0.7S199.7,5.4,200,5.7z"/>
		<path class="st0" d="M215,10.7V2.5c0-0.2,0-0.4,0-0.6c0-0.2-0.1-0.3-0.1-0.4s-0.2-0.2-0.3-0.3s-0.3-0.1-0.4-0.2h1.5l4.8,9.6
			l4.2-9.6h1.9c-0.3,0.1-0.6,0.3-0.7,0.4c-0.1,0.2-0.2,0.5-0.2,1v8.3c0,0.5,0.1,0.8,0.2,1s0.3,0.3,0.7,0.4h-2.9
			c0.3-0.1,0.6-0.2,0.7-0.4c0.1-0.2,0.2-0.5,0.2-1V2.2l-4.4,10h-0.2l-4.6-9.4v8c0,0.5,0.1,0.8,0.2,1c0.1,0.2,0.3,0.3,0.7,0.4h-2
			c0.3-0.1,0.6-0.2,0.7-0.4C214.9,11.5,215,11.2,215,10.7z"/>
		<path class="st0" d="M229,12.1c0.2-0.1,0.3-0.1,0.4-0.2c0.1-0.1,0.2-0.1,0.3-0.2c0.1-0.1,0.1-0.2,0.1-0.4c0-0.2,0-0.4,0-0.6V4.9
			c0-0.2,0-0.4,0-0.6c0-0.2,0-0.3-0.1-0.4c0-0.1-0.1-0.2-0.1-0.4c-0.1-0.1-0.1-0.2-0.2-0.3l1.6-0.1v7.7c0,0.2,0,0.4,0,0.6
			c0,0.2,0.1,0.3,0.1,0.4c0.1,0.1,0.1,0.2,0.3,0.3c0.1,0.1,0.2,0.1,0.4,0.2H229z M230.3,0.3c0.2,0,0.4,0.1,0.6,0.2
			c0.2,0.1,0.2,0.3,0.2,0.6c0,0.2-0.1,0.4-0.2,0.6c-0.2,0.1-0.4,0.2-0.6,0.2c-0.2,0-0.4-0.1-0.6-0.2c-0.2-0.1-0.2-0.3-0.2-0.6
			c0-0.2,0.1-0.4,0.2-0.6S230.1,0.3,230.3,0.3z"/>
		<path class="st0" d="M238.4,3.1c0.7,0,1.3,0.1,1.9,0.4c0.6,0.2,1.1,0.5,1.6,0.9l-0.5,2.5c-0.1-0.7-0.2-1.2-0.4-1.7
			c-0.2-0.5-0.4-0.8-0.7-1.1c-0.3-0.3-0.6-0.5-0.9-0.6c-0.3-0.1-0.7-0.2-1-0.2c-0.5,0-0.9,0.1-1.2,0.3c-0.4,0.2-0.7,0.5-1,0.9
			c-0.3,0.4-0.5,0.8-0.6,1.4c-0.2,0.5-0.2,1.1-0.2,1.8c0,0.7,0.1,1.3,0.2,1.8s0.4,1,0.7,1.4c0.3,0.4,0.6,0.7,1,0.9
			c0.4,0.2,0.8,0.3,1.3,0.3c0.8,0,1.5-0.3,2.1-0.9s1.1-1.5,1.4-2.6l-0.1,2.7c-0.2,0.2-0.5,0.4-0.8,0.5c-0.3,0.1-0.6,0.3-0.9,0.3
			s-0.6,0.1-0.9,0.2c-0.3,0-0.6,0.1-0.8,0.1c-0.6,0-1.2-0.1-1.8-0.3c-0.6-0.2-1-0.5-1.4-0.9c-0.4-0.4-0.7-0.9-0.9-1.5
			c-0.2-0.6-0.3-1.2-0.3-1.9c0-0.7,0.1-1.3,0.3-1.8c0.2-0.6,0.5-1,0.9-1.4c0.4-0.4,0.8-0.7,1.4-0.9S237.8,3.1,238.4,3.1z"/>
		<path class="st0" d="M244.4,12.1c0.2-0.1,0.3-0.1,0.4-0.2c0.1-0.1,0.2-0.1,0.3-0.2c0.1-0.1,0.1-0.2,0.1-0.4c0-0.2,0-0.4,0-0.6V1.4
			c0-0.3,0-0.6-0.1-0.7s-0.2-0.3-0.3-0.4l1.6-0.2v5.5c0.3-0.8,0.7-1.4,1.3-1.8c0.6-0.5,1.3-0.7,2.2-0.7c0.5,0,1,0.1,1.4,0.2
			c0.4,0.1,0.7,0.3,1,0.6s0.5,0.6,0.6,0.9c0.1,0.4,0.2,0.8,0.2,1.2v4.7c0,0.2,0,0.4,0,0.6c0,0.2,0.1,0.3,0.1,0.4
			c0.1,0.1,0.1,0.2,0.3,0.3c0.1,0.1,0.2,0.1,0.4,0.2h-2.8c0.2-0.1,0.3-0.1,0.4-0.2c0.1-0.1,0.2-0.1,0.3-0.2c0.1-0.1,0.1-0.2,0.1-0.4
			c0-0.2,0-0.4,0-0.6V5.9c0-0.8-0.2-1.4-0.6-1.9s-0.9-0.7-1.7-0.7c-0.4,0-0.8,0.1-1.2,0.2c-0.4,0.2-0.7,0.4-1,0.7
			c-0.3,0.3-0.5,0.7-0.7,1.1c-0.2,0.4-0.3,0.9-0.3,1.5v3.9c0,0.2,0,0.4,0,0.6c0,0.2,0.1,0.3,0.1,0.4c0.1,0.1,0.1,0.2,0.3,0.3
			c0.1,0.1,0.2,0.1,0.4,0.2H244.4z"/>
		<path class="st0" d="M256.1,12.1c0.2-0.1,0.3-0.1,0.4-0.2c0.1-0.1,0.2-0.1,0.3-0.2c0.1-0.1,0.1-0.2,0.1-0.4c0-0.2,0-0.4,0-0.6V4.9
			c0-0.2,0-0.4,0-0.6c0-0.2,0-0.3-0.1-0.4c0-0.1-0.1-0.2-0.1-0.4c-0.1-0.1-0.1-0.2-0.2-0.3l1.6-0.1v7.7c0,0.2,0,0.4,0,0.6
			c0,0.2,0.1,0.3,0.1,0.4c0.1,0.1,0.1,0.2,0.3,0.3c0.1,0.1,0.2,0.1,0.4,0.2H256.1z M257.4,0.3c0.2,0,0.4,0.1,0.6,0.2
			c0.2,0.1,0.2,0.3,0.2,0.6c0,0.2-0.1,0.4-0.2,0.6c-0.2,0.1-0.4,0.2-0.6,0.2c-0.2,0-0.4-0.1-0.6-0.2c-0.2-0.1-0.2-0.3-0.2-0.6
			c0-0.2,0.1-0.4,0.2-0.6S257.2,0.3,257.4,0.3z"/>
	</g>
</g>
</svg>
