<?xml version="1.0" encoding="utf-8"?>
<!-- Generator: Adobe Illustrator 25.4.1, SVG Export Plug-In . SVG Version: 6.00 Build 0)  -->
<svg version="1.1" id="レイヤー_1" xmlns="http://www.w3.org/2000/svg" xmlns:xlink="http://www.w3.org/1999/xlink" x="0px"
	 y="0px" viewBox="0 0 568 359" style="enable-background:new 0 0 568 359;" xml:space="preserve">
<style type="text/css">
	.st0{clip-path:url(#SVGID_00000173883554509802604890000015707246017265080465_);}
	.st1{fill:#C04459;stroke:#C04459;stroke-width:0.25;stroke-miterlimit:10;}
	.st2{clip-path:url(#SVGID_00000039828129639319504100000009547475948939300769_);}
</style>
<g>
	<defs>
		<rect id="SVGID_1_" x="516.5" y="-0.4" width="51.5" height="359"/>
	</defs>
	<clipPath id="SVGID_00000010281569410182068370000018388428180640155793_">
		<use xlink:href="#SVGID_1_"  style="overflow:visible;"/>
	</clipPath>
	<g style="clip-path:url(#SVGID_00000010281569410182068370000018388428180640155793_);">
		<path class="st1" d="M526.1,346.5v-5.9l35.3-30.4h-29.9c-0.9,0-1.6,0.1-2.2,0.2c-0.6,0.1-1.1,0.3-1.5,0.5c-0.4,0.2-0.7,0.6-1,1
			c-0.3,0.4-0.5,1-0.6,1.6v-7.7c0.4,1.3,1,2.1,1.7,2.6c0.7,0.5,2,0.7,3.7,0.7h37.3v0.4l-37.8,32.5h32.4c1.8,0,3-0.2,3.7-0.7
			c0.7-0.5,1.3-1.3,1.7-2.6v7.7c-0.4-1.3-0.9-2.2-1.7-2.6c-0.7-0.5-2-0.7-3.8-0.7h-31.9c-0.9,0-1.6,0.1-2.2,0.2
			c-0.6,0.1-1.1,0.3-1.5,0.5c-0.4,0.2-0.7,0.6-1,1C526.5,345.3,526.3,345.8,526.1,346.5z"/>
		<path class="st1" d="M533.8,280.1c0-2.5,0.3-4.6,1-6.4c0.7-1.8,1.7-3.3,3-4.5c1.3-1.2,2.8-2.1,4.5-2.7c1.7-0.6,3.6-0.9,5.7-1v25.9
			c0.6,0.1,1.2,0.1,1.9,0.2c0.6,0,1.3,0.1,1.9,0.1c2.3,0,4.5-0.3,6.5-1c2-0.6,3.8-1.5,5.3-2.6c1.5-1.1,2.6-2.5,3.5-4
			c0.8-1.6,1.3-3.3,1.3-5.1c0-1.6-0.3-3.1-0.9-4.5c-0.6-1.3-1.4-2.6-2.6-3.7c-1.1-1.1-2.4-2.1-4-3c-1.5-0.9-3.2-1.6-5.1-2.3l8.9,0.6
			c1.5,1.8,2.6,3.9,3.4,6.1c0.7,2.3,1.1,4.5,1.1,6.7c0,2.6-0.4,5-1.3,7.1c-0.8,2.2-2,4-3.5,5.6c-1.5,1.6-3.4,2.8-5.5,3.7
			c-2.2,0.9-4.6,1.3-7.2,1.3c-2.6,0-5-0.4-7.1-1.1c-2.2-0.8-4.1-1.9-5.7-3.3c-1.6-1.4-2.8-3.2-3.7-5.2
			C534.3,285,533.8,282.7,533.8,280.1z M547.2,291.3v-21c-1.8,0-3.5,0.3-5,0.7c-1.5,0.5-2.8,1.1-4,1.9c-1.1,0.8-2,1.8-2.7,3
			c-0.6,1.2-1,2.6-1,4.2c0,1.5,0.3,2.8,0.9,4.1c0.6,1.2,1.5,2.3,2.6,3.3c1.1,1,2.5,1.8,4,2.4C543.7,290.5,545.4,291,547.2,291.3z"/>
		<path class="st1" d="M534.1,249.6c0.3,0.4,0.7,0.7,1.2,0.9c0.5,0.2,1.4,0.1,2.6-0.3l24-8.6l-27.9-8.7v-0.5l28.2-11.2l-20.6-6.7
			c-1.7-0.5-3-0.8-3.9-0.9c-0.9-0.1-1.7,0-2.2,0.2c-0.5,0.2-0.9,0.4-1,0.7c-0.2,0.3-0.3,0.5-0.4,0.7v-6c0.3,0.6,0.8,1.2,1.5,1.8
			c0.7,0.6,1.9,1.2,3.7,1.8l29.5,9.6v0.7l-27.8,11l27.8,8.7v0.7l-29.3,10.6c-1.8,0.7-3.2,1.3-3.9,1.8c-0.8,0.5-1.3,0.9-1.5,1.4
			V249.6z"/>
		<path class="st1" d="M568.9,178.4c-0.4-1.3-0.9-2.2-1.7-2.6c-0.7-0.5-2-0.7-3.8-0.7h-31.9c-0.9,0-1.6,0.1-2.2,0.2
			c-0.6,0.1-1.1,0.3-1.5,0.5c-0.4,0.2-0.7,0.6-1,1c-0.3,0.4-0.5,1-0.6,1.6v-14c0-4.8,0.9-8.7,2.6-11.5c1.7-2.8,4.3-4.2,7.5-4.2
			c2.7,0,5,1,6.8,3.1c1.8,2.1,3.1,4.9,3.8,8.5c0.5-4.1,1.6-7.3,3.4-9.6c1.8-2.3,4.1-3.5,6.9-3.5c1.8,0,3.5,0.4,4.9,1.1
			c1.4,0.7,2.7,1.8,3.7,3.1c1,1.4,1.8,3,2.3,5c0.5,1.9,0.8,4.1,0.8,6.5V178.4z M546.4,170.4v-6.6c0-3.2-0.9-5.7-2.7-7.5
			c-1.8-1.9-4.2-2.8-7.1-2.8c-3.1,0-5.4,1-7.1,3c-1.6,2-2.5,4.9-2.5,8.6v5.3H546.4z M567.9,170.4v-6.6c0-3.7-0.9-6.6-2.8-8.6
			c-1.8-2-4.4-3.1-7.7-3.1c-3.2,0-5.7,1-7.4,3.1c-1.7,2.1-2.6,4.8-2.6,8.3v6.8H567.9z"/>
		<path class="st1" d="M549.8,122.7l-1.7-6.8h-4.4c-3.1,0-5.3,0.6-6.8,1.8c-1.5,1.2-2.2,3-2.2,5.5c0,1.1,0.2,2.3,0.6,3.5
			c0.4,1.2,1.1,2.3,2.1,3.4c1,1,2.4,2,4.1,2.9c1.7,0.9,3.9,1.6,6.5,2.2l-10.3,0.4c-1.2-1.5-2.1-3.4-2.8-5.6c-0.7-2.2-1-4.5-1-6.8
			c0-3.6,0.9-6.5,2.6-8.6c1.7-2.1,4.2-3.2,7.6-3.2h19.5c1.2,0,2.2-0.1,3.1-0.4c0.9-0.3,1.6-0.7,2.2-1.3l0.2,6h-8.1
			c1,0.4,2,0.9,3,1.6c1,0.6,1.9,1.4,2.6,2.3c0.8,0.9,1.4,2,1.8,3.3c0.5,1.3,0.7,2.7,0.7,4.4c0,1.5-0.2,2.9-0.5,4.2
			c-0.3,1.3-0.8,2.4-1.5,3.3c-0.7,0.9-1.5,1.7-2.5,2.2c-1,0.5-2.2,0.8-3.5,0.8c-1.8,0-3.4-0.5-4.7-1.5c-1.3-1-2.3-2.3-3.2-3.8
			c-0.9-1.5-1.5-3.1-2.1-4.9C550.6,125.8,550.2,124.2,549.8,122.7z M561,132.7c2.1,0,3.8-0.6,5.2-1.7c1.4-1.1,2-2.7,2-4.8
			c0-1.1-0.2-2.3-0.7-3.5c-0.5-1.2-1.2-2.3-2.2-3.3c-1-1-2.2-1.8-3.6-2.5c-1.4-0.7-3.1-1-5-1.1h-7.6l1.6,6.7c0.2,0.9,0.5,1.9,0.9,3
			c0.4,1.2,1,2.3,1.8,3.3c0.8,1,1.8,1.9,3,2.6C557.6,132.3,559.1,132.7,561,132.7z"/>
		<path class="st1" d="M565.6,100.6l-11.6-1c2.8-0.2,5.1-0.7,6.9-1.4c1.8-0.7,3.3-1.5,4.4-2.5c1.1-1,1.9-2.2,2.3-3.4
			c0.5-1.3,0.7-2.7,0.7-4.2c0-3.1-0.7-5.3-2.2-6.8c-1.5-1.5-3.3-2.2-5.4-2.2c-1.2,0-2.3,0.2-3.1,0.7c-0.8,0.5-1.5,1-2.1,1.6
			c-0.6,0.6-1,1.3-1.3,2.1c-0.3,0.7-0.6,1.4-0.8,2l-2.2,6.6c-0.2,0.7-0.5,1.4-1,2.2c-0.4,0.8-1,1.6-1.7,2.3
			c-0.7,0.7-1.5,1.4-2.6,1.9c-1,0.5-2.2,0.8-3.5,0.8c-2.7,0-4.8-1-6.4-3c-1.6-2-2.3-4.7-2.3-8c0-2.3,0.3-4.3,1-6.2
			c0.7-1.9,1.6-3.5,2.8-4.8l8.3,0.4c-4,1-6.9,2.4-8.7,4c-1.8,1.7-2.6,3.9-2.6,6.7c0,2.2,0.5,4.1,1.6,5.5s2.7,2.2,4.8,2.2
			c1,0,1.8-0.2,2.5-0.6c0.7-0.4,1.2-0.9,1.6-1.5c0.4-0.6,0.8-1.2,1-1.9c0.3-0.7,0.5-1.4,0.7-2l2-6c0.2-0.8,0.6-1.7,1-2.7
			c0.5-1,1.1-2,1.8-2.9c0.8-0.9,1.7-1.7,2.8-2.3c1.1-0.6,2.5-0.9,4.2-0.9c1.5,0,2.9,0.3,4.2,0.9c1.3,0.6,2.4,1.4,3.3,2.5
			c0.9,1.1,1.7,2.5,2.2,4.1c0.5,1.6,0.8,3.5,0.8,5.6c0,2.3-0.3,4.6-0.9,6.7S566.8,99.2,565.6,100.6z"/>
		<path class="st1" d="M523.1,61.5c0-0.9,0.3-1.7,0.8-2.3c0.6-0.6,1.3-0.9,2.2-0.9c0.9,0,1.7,0.3,2.3,0.9c0.6,0.6,0.9,1.4,0.9,2.3
			c0,0.9-0.3,1.7-0.9,2.3c-0.6,0.6-1.3,0.9-2.3,0.9c-0.9,0-1.7-0.3-2.2-0.9C523.4,63.2,523.1,62.4,523.1,61.5z M568.9,66.8
			c-0.2-0.7-0.4-1.2-0.7-1.6c-0.2-0.4-0.6-0.7-1-1c-0.4-0.2-0.9-0.4-1.5-0.5c-0.6-0.1-1.4-0.1-2.2-0.1h-22.7c-0.9,0-1.6,0-2.2,0.1
			c-0.6,0.1-1.2,0.2-1.7,0.3c-0.5,0.1-0.9,0.3-1.4,0.5c-0.4,0.2-0.8,0.5-1.2,0.8l-0.6-6.3h29.8c0.9,0,1.6-0.1,2.2-0.2
			c0.6-0.1,1.1-0.3,1.5-0.5c0.4-0.2,0.7-0.6,1-1c0.2-0.4,0.5-0.9,0.7-1.5V66.8z"/>
		<path class="st1" d="M533.8,30.6c0-2.7,0.5-5.2,1.4-7.5c0.9-2.3,2.1-4.4,3.5-6.1l9.7,2c-2.6,0.2-4.8,0.7-6.5,1.5
			c-1.8,0.7-3.2,1.6-4.2,2.7c-1.1,1-1.8,2.2-2.3,3.5c-0.5,1.3-0.7,2.6-0.7,3.9c0,1.8,0.4,3.4,1.2,4.8c0.8,1.5,1.9,2.7,3.4,3.8
			c1.5,1,3.2,1.9,5.3,2.5c2.1,0.6,4.3,0.9,6.8,0.9c2.5,0,4.9-0.3,6.9-0.9c2.1-0.6,3.9-1.5,5.4-2.6c1.5-1.1,2.6-2.4,3.4-3.9
			c0.8-1.5,1.2-3.2,1.2-5c0-3.1-1.2-5.8-3.5-8.2c-2.4-2.3-5.8-4.1-10.2-5.2l10.3,0.4c0.9,0.9,1.6,2,2.1,3.1c0.6,1.1,1,2.3,1.3,3.4
			c0.3,1.1,0.6,2.3,0.7,3.4c0.1,1.1,0.2,2.2,0.2,3.1c0,2.5-0.4,4.8-1.3,6.9c-0.8,2.1-2,4-3.6,5.5c-1.6,1.5-3.4,2.7-5.6,3.6
			c-2.2,0.9-4.6,1.3-7.3,1.3c-2.6,0-4.9-0.4-7.1-1.2c-2.1-0.8-4-2-5.5-3.4c-1.6-1.5-2.8-3.2-3.6-5.3
			C534.3,35.4,533.8,33.1,533.8,30.6z"/>
	</g>
</g>
<g>
	<defs>
		<rect id="SVGID_00000039841905700267913920000005594529336926078377_" y="-0.4" width="54.5" height="355.9"/>
	</defs>
	<clipPath id="SVGID_00000063626421921233444220000007915235161749675705_">
		<use xlink:href="#SVGID_00000039841905700267913920000005594529336926078377_"  style="overflow:visible;"/>
	</clipPath>
	<g style="clip-path:url(#SVGID_00000063626421921233444220000007915235161749675705_);">
		<path class="st1" d="M43.1,14.9v5.9L7.8,51.1h29.9c0.9,0,1.6-0.1,2.2-0.2c0.6-0.1,1.1-0.3,1.5-0.5c0.4-0.2,0.7-0.6,1-1
			c0.3-0.4,0.5-1,0.6-1.6v7.7c-0.4-1.3-1-2.1-1.7-2.6c-0.7-0.5-2-0.7-3.7-0.7H0.4v-0.4l37.8-32.5H5.8c-1.8,0-3,0.2-3.7,0.7
			c-0.7,0.5-1.3,1.3-1.7,2.6v-7.7C0.7,16.2,1.3,17,2,17.5c0.7,0.5,2,0.7,3.8,0.7h31.9c0.9,0,1.6-0.1,2.2-0.2
			c0.6-0.1,1.1-0.3,1.5-0.5c0.4-0.2,0.7-0.6,1-1C42.7,16.1,42.9,15.5,43.1,14.9z"/>
		<path class="st1" d="M35.4,81.3c0,2.5-0.3,4.6-1,6.4c-0.7,1.8-1.7,3.3-3,4.5c-1.3,1.2-2.8,2.1-4.5,2.7c-1.7,0.6-3.6,0.9-5.7,1V70
			c-0.6-0.1-1.2-0.1-1.9-0.2c-0.6,0-1.3-0.1-1.9-0.1c-2.3,0-4.5,0.3-6.5,1c-2,0.6-3.8,1.5-5.3,2.6c-1.5,1.1-2.6,2.5-3.5,4
			c-0.8,1.6-1.3,3.3-1.3,5.1c0,1.6,0.3,3.1,0.9,4.5c0.6,1.3,1.4,2.6,2.6,3.7s2.4,2.1,4,3c1.5,0.9,3.2,1.6,5.1,2.3l-8.9-0.6
			c-1.5-1.8-2.6-3.9-3.4-6.1c-0.7-2.3-1.1-4.5-1.1-6.7c0-2.6,0.4-5,1.3-7.1c0.8-2.2,2-4,3.5-5.6c1.5-1.6,3.4-2.8,5.5-3.7
			c2.2-0.9,4.6-1.3,7.2-1.3c2.6,0,5,0.4,7.1,1.1c2.2,0.8,4.1,1.9,5.7,3.3c1.6,1.4,2.8,3.2,3.7,5.2C35,76.4,35.4,78.7,35.4,81.3z
			 M22,70.1v21c1.8,0,3.5-0.3,5-0.7c1.5-0.5,2.8-1.1,4-1.9c1.1-0.8,2-1.8,2.7-3c0.6-1.2,1-2.6,1-4.2c0-1.5-0.3-2.8-0.9-4.1
			c-0.6-1.2-1.5-2.3-2.6-3.3c-1.1-1-2.5-1.8-4-2.4C25.5,70.8,23.9,70.4,22,70.1z"/>
		<path class="st1" d="M35.1,111.7c-0.3-0.4-0.7-0.7-1.2-0.9c-0.5-0.2-1.4-0.1-2.6,0.3l-24,8.6l27.9,8.7v0.5L6.9,140.2l20.6,6.7
			c1.7,0.5,3,0.8,3.9,0.9c0.9,0.1,1.7,0,2.2-0.2c0.5-0.2,0.9-0.4,1-0.7c0.2-0.3,0.3-0.5,0.4-0.7v6c-0.3-0.6-0.8-1.2-1.5-1.8
			c-0.7-0.6-1.9-1.2-3.7-1.8L0.4,139v-0.7l27.8-11l-27.8-8.7v-0.7l29.3-10.6c1.8-0.7,3.2-1.3,3.9-1.8c0.8-0.5,1.3-0.9,1.5-1.4V111.7
			z"/>
		<path class="st1" d="M0.4,183c0.4,1.3,0.9,2.2,1.7,2.6c0.7,0.5,2,0.7,3.8,0.7h31.9c0.9,0,1.6-0.1,2.2-0.2c0.6-0.1,1.1-0.3,1.5-0.5
			c0.4-0.2,0.7-0.6,1-1c0.3-0.4,0.5-1,0.6-1.6v14c0,4.8-0.9,8.7-2.6,11.5c-1.7,2.8-4.3,4.2-7.5,4.2c-2.7,0-5-1-6.8-3.1
			c-1.8-2.1-3.1-4.9-3.8-8.5c-0.5,4.1-1.6,7.3-3.4,9.6c-1.8,2.3-4.1,3.5-6.9,3.5c-1.8,0-3.5-0.4-4.9-1.1c-1.4-0.7-2.7-1.8-3.7-3.1
			c-1-1.4-1.8-3-2.3-5c-0.5-1.9-0.8-4.1-0.8-6.5V183z M1.3,191v6.6c0,3.7,0.9,6.6,2.8,8.6c1.8,2,4.4,3.1,7.7,3.1
			c3.2,0,5.7-1,7.4-3.1c1.7-2.1,2.6-4.8,2.6-8.3V191H1.3z M22.8,191v6.6c0,3.2,0.9,5.7,2.7,7.5c1.8,1.9,4.2,2.8,7.1,2.8
			c3.1,0,5.4-1,7.1-3c1.6-2,2.5-4.9,2.5-8.6V191H22.8z"/>
		<path class="st1" d="M19.4,238.6l1.7,6.8h4.4c3.1,0,5.3-0.6,6.8-1.8c1.5-1.2,2.2-3,2.2-5.5c0-1.1-0.2-2.3-0.6-3.5
			c-0.4-1.2-1.1-2.3-2.1-3.4c-1-1-2.4-2-4.1-2.9c-1.7-0.9-3.9-1.6-6.5-2.2l10.3-0.4c1.2,1.5,2.1,3.4,2.8,5.6c0.7,2.2,1,4.5,1,6.8
			c0,3.6-0.9,6.5-2.6,8.6c-1.7,2.1-4.2,3.2-7.6,3.2H5.7c-1.2,0-2.2,0.1-3.1,0.4c-0.9,0.3-1.6,0.7-2.2,1.3l-0.2-6h8.1
			c-1-0.4-2-0.9-3-1.6c-1-0.6-1.9-1.4-2.6-2.3c-0.8-0.9-1.4-2-1.8-3.3c-0.5-1.3-0.7-2.7-0.7-4.4c0-1.5,0.2-2.9,0.5-4.2
			s0.8-2.4,1.5-3.3s1.5-1.7,2.5-2.2c1-0.5,2.2-0.8,3.5-0.8c1.8,0,3.4,0.5,4.7,1.5c1.3,1,2.3,2.3,3.2,3.8c0.9,1.5,1.5,3.1,2.1,4.9
			C18.6,235.6,19.1,237.2,19.4,238.6z M8.2,228.7c-2.1,0-3.8,0.6-5.2,1.7c-1.4,1.1-2,2.7-2,4.8c0,1.1,0.2,2.3,0.7,3.5
			c0.5,1.2,1.2,2.3,2.2,3.3c1,1,2.2,1.8,3.6,2.5c1.4,0.7,3.1,1,5,1.1h7.6l-1.6-6.7c-0.2-0.9-0.5-1.9-0.9-3c-0.4-1.2-1-2.3-1.8-3.3
			c-0.8-1-1.8-1.9-3-2.6C11.7,229,10.1,228.7,8.2,228.7z"/>
		<path class="st1" d="M3.6,260.7l11.6,1c-2.8,0.2-5.1,0.7-6.9,1.4c-1.8,0.7-3.3,1.5-4.4,2.5c-1.1,1-1.9,2.2-2.3,3.4
			c-0.5,1.3-0.7,2.7-0.7,4.2c0,3.1,0.7,5.3,2.2,6.8c1.5,1.5,3.3,2.2,5.4,2.2c1.2,0,2.3-0.2,3.1-0.7c0.8-0.5,1.5-1,2.1-1.6
			c0.6-0.6,1-1.3,1.3-2.1c0.3-0.7,0.6-1.4,0.8-2l2.2-6.6c0.2-0.7,0.5-1.4,1-2.2c0.4-0.8,1-1.6,1.7-2.3c0.7-0.7,1.5-1.4,2.6-1.9
			c1-0.5,2.2-0.8,3.5-0.8c2.7,0,4.8,1,6.4,3c1.6,2,2.3,4.7,2.3,8c0,2.3-0.3,4.3-1,6.2c-0.7,1.9-1.6,3.5-2.8,4.8l-8.3-0.4
			c4-1,6.9-2.4,8.7-4c1.8-1.7,2.6-3.9,2.6-6.7c0-2.2-0.5-4.1-1.6-5.5c-1-1.5-2.7-2.2-4.8-2.2c-1,0-1.8,0.2-2.5,0.6
			c-0.7,0.4-1.2,0.9-1.6,1.5c-0.4,0.6-0.8,1.2-1,1.9c-0.3,0.7-0.5,1.4-0.7,2l-2,6c-0.2,0.8-0.6,1.7-1,2.7c-0.5,1-1.1,2-1.8,2.9
			c-0.8,0.9-1.7,1.7-2.8,2.3c-1.1,0.6-2.5,0.9-4.2,0.9c-1.5,0-2.9-0.3-4.2-0.9c-1.3-0.6-2.4-1.4-3.3-2.5c-0.9-1.1-1.7-2.5-2.2-4.1
			c-0.5-1.6-0.8-3.5-0.8-5.6c0-2.3,0.3-4.6,0.9-6.7S2.5,262.1,3.6,260.7z"/>
		<path class="st1" d="M0.4,294.5c0.2,0.7,0.4,1.2,0.7,1.6c0.2,0.4,0.6,0.7,1,1c0.4,0.2,0.9,0.4,1.5,0.5c0.6,0.1,1.4,0.1,2.2,0.1
			h22.7c0.9,0,1.6,0,2.2-0.1c0.6-0.1,1.2-0.2,1.7-0.3c0.5-0.1,0.9-0.3,1.4-0.5c0.4-0.2,0.8-0.5,1.2-0.8l0.6,6.3H5.7
			c-0.9,0-1.6,0.1-2.2,0.2c-0.6,0.1-1.1,0.3-1.5,0.5c-0.4,0.2-0.7,0.6-1,1c-0.2,0.4-0.5,0.9-0.7,1.5V294.5z M46.1,299.8
			c0,0.9-0.3,1.7-0.8,2.3c-0.6,0.6-1.3,0.9-2.2,0.9c-0.9,0-1.7-0.3-2.3-0.9c-0.6-0.6-0.9-1.4-0.9-2.3c0-0.9,0.3-1.7,0.9-2.3
			c0.6-0.6,1.3-0.9,2.3-0.9c0.9,0,1.7,0.3,2.2,0.9C45.8,298.2,46.1,298.9,46.1,299.8z"/>
		<path class="st1" d="M35.4,330.8c0,2.7-0.5,5.2-1.4,7.5c-0.9,2.3-2.1,4.4-3.5,6.1l-9.7-2c2.6-0.2,4.8-0.7,6.5-1.5
			c1.8-0.7,3.2-1.6,4.2-2.7c1.1-1,1.8-2.2,2.3-3.5c0.5-1.3,0.7-2.6,0.7-3.9c0-1.8-0.4-3.4-1.2-4.8c-0.8-1.5-1.9-2.7-3.4-3.8
			s-3.2-1.9-5.3-2.5c-2.1-0.6-4.3-0.9-6.8-0.9c-2.5,0-4.9,0.3-6.9,0.9c-2.1,0.6-3.9,1.5-5.4,2.6s-2.6,2.4-3.4,3.9
			c-0.8,1.5-1.2,3.2-1.2,5c0,3.1,1.2,5.8,3.5,8.2c2.4,2.3,5.8,4.1,10.2,5.2l-10.3-0.4c-0.9-0.9-1.6-2-2.1-3.1
			c-0.6-1.1-1-2.3-1.3-3.4c-0.3-1.1-0.6-2.3-0.7-3.4c-0.1-1.1-0.2-2.2-0.2-3.1c0-2.5,0.4-4.8,1.3-6.9c0.8-2.1,2-4,3.6-5.5
			c1.6-1.5,3.4-2.7,5.6-3.6c2.2-0.9,4.6-1.3,7.3-1.3c2.6,0,4.9,0.4,7.1,1.2c2.1,0.8,4,2,5.5,3.4c1.6,1.5,2.8,3.2,3.6,5.3
			C35,326,35.4,328.3,35.4,330.8z"/>
	</g>
</g>
</svg>
