<?xml version="1.0" encoding="utf-8"?>
<!-- Generator: Adobe Illustrator 25.4.1, SVG Export Plug-In . SVG Version: 6.00 Build 0)  -->
<svg version="1.1" id="レイヤー_1" xmlns="http://www.w3.org/2000/svg" xmlns:xlink="http://www.w3.org/1999/xlink" x="0px"
	 y="0px" viewBox="0 0 169 13" style="enable-background:new 0 0 169 13;" xml:space="preserve">
<style type="text/css">
	.st0{fill:#C55A32;stroke:#C55A32;stroke-width:0.25;stroke-miterlimit:10;}
</style>
<g>
	<g>
		<path class="st0" d="M5.5,1.6c0.2,0,0.5,0,0.8,0c0.3,0,0.6,0.1,0.9,0.2c0.3,0.1,0.7,0.2,1,0.3c0.3,0.1,0.7,0.3,1,0.5l0.3,3.7
			C9.1,4.8,8.6,3.6,7.9,2.9C7.2,2.2,6.3,1.8,5.4,1.8c-0.5,0-1,0.1-1.5,0.3C3.4,2.4,3,2.7,2.7,3.2c-0.3,0.5-0.6,1-0.8,1.7
			S1.6,6.3,1.6,7.2c0,0.9,0.1,1.7,0.3,2.4c0.2,0.7,0.5,1.2,0.9,1.7c0.4,0.4,0.8,0.8,1.3,1c0.5,0.2,1,0.3,1.6,0.3
			c0.3,0,0.7,0,1.1-0.1c0.4-0.1,0.7-0.2,1-0.5c0.3-0.2,0.6-0.5,0.9-0.9c0.3-0.4,0.6-0.8,0.8-1.3v1.7c-0.4,0.4-1,0.7-1.6,0.9
			c-0.7,0.2-1.4,0.4-2.1,0.4c-0.8,0-1.5-0.1-2.1-0.4s-1.2-0.7-1.7-1.2c-0.5-0.5-0.9-1.1-1.1-1.8C0.4,8.7,0.2,8,0.2,7.2
			c0-0.8,0.1-1.5,0.4-2.2c0.3-0.7,0.7-1.3,1.1-1.8c0.5-0.5,1-0.9,1.7-1.2C4.1,1.7,4.8,1.6,5.5,1.6z"/>
		<path class="st0" d="M12.1,12.7c0.2-0.1,0.3-0.1,0.4-0.2c0.1-0.1,0.2-0.1,0.3-0.2s0.1-0.2,0.1-0.4s0-0.4,0-0.6V5.5
			c0-0.2,0-0.4,0-0.6c0-0.2,0-0.3-0.1-0.4c0-0.1-0.1-0.2-0.1-0.4c-0.1-0.1-0.1-0.2-0.2-0.3L14,3.7v2.1c0.1-0.3,0.3-0.6,0.4-0.8
			c0.2-0.3,0.3-0.5,0.6-0.7c0.2-0.2,0.5-0.3,0.7-0.4c0.3-0.1,0.6-0.2,1-0.2c0.3,0,0.6,0,0.9,0.1l0,1.5c-0.1-0.1-0.2-0.2-0.3-0.4
			c-0.1-0.1-0.3-0.2-0.4-0.4s-0.3-0.2-0.5-0.3s-0.3-0.1-0.5-0.1c-0.2,0-0.4,0.1-0.6,0.2c-0.2,0.1-0.3,0.2-0.5,0.4
			c-0.2,0.2-0.3,0.4-0.4,0.6s-0.2,0.5-0.3,0.8v5.2c0,0.2,0,0.4,0,0.6c0,0.2,0.1,0.3,0.1,0.4s0.1,0.2,0.3,0.3
			c0.1,0.1,0.2,0.1,0.4,0.2H12.1z"/>
		<path class="st0" d="M24,3.7c0.6,0,1.2,0.1,1.7,0.3c0.5,0.2,0.9,0.4,1.2,0.8c0.3,0.3,0.5,0.7,0.7,1.2c0.2,0.4,0.2,0.9,0.2,1.5
			h-6.7c0,0.2,0,0.3,0,0.5c0,0.2,0,0.3,0,0.5c0,0.6,0.1,1.2,0.2,1.7c0.2,0.5,0.4,1,0.7,1.4c0.3,0.4,0.6,0.7,1,0.9
			c0.4,0.2,0.8,0.3,1.3,0.3c0.4,0,0.8-0.1,1.2-0.2s0.7-0.4,0.9-0.7s0.5-0.6,0.8-1c0.2-0.4,0.4-0.8,0.6-1.3l-0.1,2.3
			c-0.5,0.4-1,0.7-1.6,0.9s-1.2,0.3-1.7,0.3c-0.7,0-1.3-0.1-1.8-0.3c-0.6-0.2-1-0.5-1.5-0.9c-0.4-0.4-0.7-0.9-0.9-1.4
			S19.7,9,19.7,8.3c0-0.7,0.1-1.3,0.3-1.8s0.5-1,0.9-1.5s0.8-0.7,1.3-1C22.7,3.8,23.3,3.7,24,3.7z M21.1,7.1h5.4
			c0-0.5-0.1-0.9-0.2-1.3c-0.1-0.4-0.3-0.7-0.5-1c-0.2-0.3-0.5-0.5-0.8-0.7C24.7,4,24.4,3.9,24,3.9c-0.4,0-0.7,0.1-1,0.2
			c-0.3,0.2-0.6,0.4-0.9,0.7s-0.5,0.6-0.6,1C21.3,6.2,21.2,6.7,21.1,7.1z"/>
		<path class="st0" d="M34.1,7.8l1.8-0.4V6.2c0-0.8-0.2-1.4-0.5-1.8c-0.3-0.4-0.8-0.6-1.4-0.6c-0.3,0-0.6,0.1-0.9,0.2
			c-0.3,0.1-0.6,0.3-0.9,0.5c-0.3,0.3-0.5,0.6-0.7,1.1c-0.2,0.4-0.4,1-0.6,1.7l-0.1-2.7c0.4-0.3,0.9-0.6,1.4-0.7s1.2-0.3,1.8-0.3
			c0.9,0,1.7,0.2,2.2,0.7c0.5,0.4,0.8,1.1,0.8,2v5c0,0.3,0,0.6,0.1,0.8c0.1,0.2,0.2,0.4,0.3,0.6l-1.6,0v-2.1
			c-0.1,0.3-0.2,0.5-0.4,0.8s-0.4,0.5-0.6,0.7c-0.2,0.2-0.5,0.4-0.9,0.5c-0.3,0.1-0.7,0.2-1.1,0.2c-0.4,0-0.7,0-1.1-0.1
			c-0.3-0.1-0.6-0.2-0.9-0.4c-0.2-0.2-0.4-0.4-0.6-0.7c-0.1-0.3-0.2-0.6-0.2-0.9c0-0.5,0.1-0.9,0.4-1.2s0.6-0.6,1-0.8
			c0.4-0.2,0.8-0.4,1.3-0.5C33.3,8,33.7,7.9,34.1,7.8z M31.5,10.7c0,0.5,0.1,1,0.4,1.3c0.3,0.3,0.7,0.5,1.2,0.5
			c0.3,0,0.6-0.1,0.9-0.2c0.3-0.1,0.6-0.3,0.8-0.6c0.3-0.2,0.5-0.6,0.6-0.9s0.3-0.8,0.3-1.3v-2L34.2,8c-0.2,0.1-0.5,0.1-0.8,0.2
			c-0.3,0.1-0.6,0.3-0.9,0.5c-0.3,0.2-0.5,0.5-0.7,0.8C31.6,9.8,31.5,10.2,31.5,10.7z"/>
		<path class="st0" d="M41.3,3.8l1.1-2.2v2.2H45v0.2h-2.6v6.8c0,0.4,0,0.6,0.1,0.9c0,0.2,0.1,0.4,0.2,0.6c0.1,0.1,0.2,0.2,0.3,0.3
			c0.1,0.1,0.3,0.1,0.5,0.1c0.3,0,0.6-0.1,0.8-0.3c0.2-0.2,0.4-0.4,0.6-0.7l0.2,0.1c-0.2,0.3-0.4,0.6-0.7,0.8
			c-0.2,0.2-0.6,0.3-1.1,0.3c-0.7,0-1.3-0.2-1.6-0.6c-0.3-0.4-0.5-1-0.5-1.8V3.9h-1.6V3.8H41.3z"/>
		<path class="st0" d="M51.4,3.7c0.6,0,1.2,0.1,1.7,0.3c0.5,0.2,0.9,0.4,1.2,0.8C54.6,5,54.8,5.4,55,5.9c0.2,0.4,0.2,0.9,0.2,1.5
			h-6.7c0,0.2,0,0.3,0,0.5c0,0.2,0,0.3,0,0.5c0,0.6,0.1,1.2,0.2,1.7c0.2,0.5,0.4,1,0.7,1.4c0.3,0.4,0.6,0.7,1,0.9
			c0.4,0.2,0.8,0.3,1.3,0.3c0.4,0,0.8-0.1,1.2-0.2s0.7-0.4,0.9-0.7s0.5-0.6,0.8-1c0.2-0.4,0.4-0.8,0.6-1.3l-0.1,2.3
			c-0.5,0.4-1,0.7-1.6,0.9s-1.2,0.3-1.7,0.3c-0.7,0-1.3-0.1-1.8-0.3c-0.6-0.2-1-0.5-1.5-0.9c-0.4-0.4-0.7-0.9-0.9-1.4
			S47.2,9,47.2,8.3c0-0.7,0.1-1.3,0.3-1.8s0.5-1,0.9-1.5s0.8-0.7,1.3-1C50.2,3.8,50.8,3.7,51.4,3.7z M48.5,7.1H54
			c0-0.5-0.1-0.9-0.2-1.3c-0.1-0.4-0.3-0.7-0.5-1c-0.2-0.3-0.5-0.5-0.8-0.7c-0.3-0.2-0.7-0.2-1.1-0.2c-0.4,0-0.7,0.1-1,0.2
			c-0.3,0.2-0.6,0.4-0.9,0.7s-0.5,0.6-0.6,1C48.7,6.2,48.6,6.7,48.5,7.1z"/>
		<path class="st0" d="M63.3,3.9V3.8h1.6V3c0-0.5,0.1-0.9,0.2-1.3s0.4-0.6,0.6-0.9c0.3-0.2,0.6-0.4,0.9-0.5c0.4-0.1,0.7-0.2,1.2-0.2
			c0.4,0,0.8,0,1.2,0.1c0.3,0.1,0.6,0.2,0.8,0.4l-0.1,1.9c-0.1-0.7-0.4-1.3-0.7-1.7c-0.3-0.4-0.7-0.6-1.3-0.6
			c-0.5,0-0.9,0.2-1.2,0.5s-0.5,0.9-0.5,1.8v1.1h3.3v0.2h-3.3v7.4c0,0.2,0,0.4,0,0.6s0.1,0.3,0.1,0.4s0.1,0.2,0.3,0.3
			c0.1,0.1,0.2,0.1,0.4,0.2h-2.8c0.2-0.1,0.3-0.1,0.4-0.2c0.1-0.1,0.2-0.1,0.3-0.2s0.1-0.2,0.1-0.4c0-0.2,0-0.4,0-0.6V3.9H63.3z"/>
		<path class="st0" d="M75.9,3.7c0.7,0,1.3,0.1,1.9,0.3s1,0.5,1.4,0.9c0.4,0.4,0.7,0.9,0.9,1.4s0.3,1.2,0.3,1.8v0
			c0,0.7-0.1,1.3-0.3,1.8s-0.5,1-0.9,1.4c-0.4,0.4-0.9,0.7-1.4,0.9s-1.2,0.3-1.9,0.3s-1.3-0.1-1.9-0.3s-1-0.5-1.4-0.9
			c-0.4-0.4-0.7-0.9-0.9-1.4s-0.3-1.2-0.3-1.8v0c0-0.7,0.1-1.3,0.3-1.8s0.5-1,0.9-1.4C73,4.5,73.5,4.2,74,4S75.2,3.7,75.9,3.7z
			 M72.6,8.2c0,0.6,0.1,1.2,0.2,1.7c0.2,0.5,0.4,1,0.7,1.4c0.3,0.4,0.6,0.7,1,0.9c0.4,0.2,0.8,0.3,1.3,0.3c0.5,0,0.9-0.1,1.3-0.3
			c0.4-0.2,0.7-0.5,1-0.9c0.3-0.4,0.5-0.8,0.7-1.4c0.2-0.5,0.2-1.1,0.2-1.7S79.1,7,78.9,6.5c-0.2-0.5-0.4-1-0.7-1.4
			c-0.3-0.4-0.6-0.7-1-0.9c-0.4-0.2-0.8-0.3-1.3-0.3c-0.5,0-0.9,0.1-1.3,0.3c-0.4,0.2-0.7,0.5-1,0.9C73.2,5.5,73,6,72.9,6.5
			C72.7,7,72.6,7.6,72.6,8.2z"/>
		<path class="st0" d="M82.7,12.7c0.2-0.1,0.3-0.1,0.4-0.2c0.1-0.1,0.2-0.1,0.3-0.2s0.1-0.2,0.1-0.4s0-0.4,0-0.6V5.5
			c0-0.2,0-0.4,0-0.6c0-0.2,0-0.3-0.1-0.4c0-0.1-0.1-0.2-0.1-0.4c-0.1-0.1-0.1-0.2-0.2-0.3l1.6-0.1v2.1C84.8,5.5,85,5.2,85.1,5
			c0.2-0.3,0.3-0.5,0.6-0.7c0.2-0.2,0.5-0.3,0.7-0.4c0.3-0.1,0.6-0.2,1-0.2c0.3,0,0.6,0,0.9,0.1l0,1.5C88.2,5.2,88.1,5.1,88,5
			c-0.1-0.1-0.3-0.2-0.4-0.4s-0.3-0.2-0.5-0.3s-0.3-0.1-0.5-0.1c-0.2,0-0.4,0.1-0.6,0.2c-0.2,0.1-0.3,0.2-0.5,0.4
			c-0.2,0.2-0.3,0.4-0.4,0.6s-0.2,0.5-0.3,0.8v5.2c0,0.2,0,0.4,0,0.6c0,0.2,0.1,0.3,0.1,0.4s0.1,0.2,0.3,0.3
			c0.1,0.1,0.2,0.1,0.4,0.2H82.7z"/>
		<path class="st0" d="M98.5,1.7c0,0-0.1,0.1-0.1,0.1S98.3,2,98.3,2.1c0,0.1,0,0.2,0,0.3c0,0.1,0.1,0.3,0.2,0.4l3.1,4.8l2.7-4.1
			c0.2-0.4,0.4-0.7,0.5-0.9c0.1-0.2,0.1-0.4,0.1-0.5c0-0.1,0-0.2-0.1-0.3c-0.1-0.1-0.1-0.1-0.1-0.2h1.5c-0.1,0-0.3,0.2-0.5,0.4
			c-0.2,0.2-0.4,0.5-0.7,0.9l-3.2,4.8v3.5c0,0.5,0.1,0.8,0.2,1c0.1,0.2,0.3,0.3,0.7,0.4h-2.9c0.3-0.1,0.6-0.2,0.7-0.4
			c0.1-0.2,0.2-0.5,0.2-1V7.9l-3.1-4.6c-0.4-0.5-0.6-0.9-0.8-1.2c-0.2-0.2-0.4-0.4-0.5-0.5H98.5z"/>
		<path class="st0" d="M113.1,3.7c0.7,0,1.3,0.1,1.9,0.3s1,0.5,1.4,0.9c0.4,0.4,0.7,0.9,0.9,1.4s0.3,1.2,0.3,1.8v0
			c0,0.7-0.1,1.3-0.3,1.8s-0.5,1-0.9,1.4c-0.4,0.4-0.9,0.7-1.4,0.9s-1.2,0.3-1.9,0.3s-1.3-0.1-1.9-0.3s-1-0.5-1.4-0.9
			c-0.4-0.4-0.7-0.9-0.9-1.4s-0.3-1.2-0.3-1.8v0c0-0.7,0.1-1.3,0.3-1.8s0.5-1,0.9-1.4c0.4-0.4,0.9-0.7,1.4-0.9S112.4,3.7,113.1,3.7z
			 M109.8,8.2c0,0.6,0.1,1.2,0.2,1.7c0.2,0.5,0.4,1,0.7,1.4c0.3,0.4,0.6,0.7,1,0.9c0.4,0.2,0.8,0.3,1.3,0.3c0.5,0,0.9-0.1,1.3-0.3
			c0.4-0.2,0.7-0.5,1-0.9c0.3-0.4,0.5-0.8,0.7-1.4c0.2-0.5,0.2-1.1,0.2-1.7s-0.1-1.2-0.2-1.7c-0.2-0.5-0.4-1-0.7-1.4
			c-0.3-0.4-0.6-0.7-1-0.9c-0.4-0.2-0.8-0.3-1.3-0.3c-0.5,0-0.9,0.1-1.3,0.3c-0.4,0.2-0.7,0.5-1,0.9c-0.3,0.4-0.5,0.8-0.7,1.4
			C109.9,7,109.8,7.6,109.8,8.2z"/>
		<path class="st0" d="M120,3.8l1.6-0.1v6.5c0,0.5,0,0.8,0.1,1.2c0.1,0.3,0.2,0.6,0.4,0.8c0.2,0.2,0.4,0.3,0.6,0.4s0.5,0.1,0.8,0.1
			c0.5,0,0.9-0.1,1.2-0.3s0.6-0.5,0.9-0.8c0.2-0.3,0.4-0.7,0.5-1.1c0.1-0.4,0.2-0.8,0.2-1.2V5.5c0-0.2,0-0.4,0-0.6
			c0-0.2,0-0.3-0.1-0.4c0-0.1-0.1-0.2-0.1-0.4c-0.1-0.1-0.1-0.2-0.2-0.3l1.6-0.1v7.5c0,0.5,0,0.8,0.1,1c0.1,0.2,0.2,0.4,0.3,0.5
			l-1.6,0v-2.4c-0.2,0.4-0.3,0.7-0.5,1s-0.4,0.6-0.6,0.8c-0.2,0.2-0.5,0.4-0.9,0.5s-0.7,0.2-1.1,0.2c-0.9,0-1.6-0.2-2.2-0.7
			c-0.5-0.5-0.8-1.2-0.8-2.1V5.5c0-0.2,0-0.4,0-0.6s0-0.3-0.1-0.4c0-0.1-0.1-0.2-0.1-0.4C120.2,4,120.1,3.9,120,3.8z"/>
		<path class="st0" d="M130.5,12.7c0.2-0.1,0.3-0.1,0.4-0.2c0.1-0.1,0.2-0.1,0.3-0.2s0.1-0.2,0.1-0.4s0-0.4,0-0.6V5.5
			c0-0.2,0-0.4,0-0.6c0-0.2,0-0.3-0.1-0.4c0-0.1-0.1-0.2-0.1-0.4c-0.1-0.1-0.1-0.2-0.2-0.3l1.6-0.1v2.1c0.1-0.3,0.3-0.6,0.4-0.8
			c0.2-0.3,0.3-0.5,0.6-0.7c0.2-0.2,0.5-0.3,0.7-0.4c0.3-0.1,0.6-0.2,1-0.2c0.3,0,0.6,0,0.9,0.1l0,1.5c-0.1-0.1-0.2-0.2-0.3-0.4
			c-0.1-0.1-0.3-0.2-0.4-0.4s-0.3-0.2-0.5-0.3s-0.3-0.1-0.5-0.1c-0.2,0-0.4,0.1-0.6,0.2c-0.2,0.1-0.3,0.2-0.5,0.4
			c-0.2,0.2-0.3,0.4-0.4,0.6s-0.2,0.5-0.3,0.8v5.2c0,0.2,0,0.4,0,0.6c0,0.2,0.1,0.3,0.1,0.4s0.1,0.2,0.3,0.3
			c0.1,0.1,0.2,0.1,0.4,0.2H130.5z"/>
		<path class="st0" d="M138.2,11.9l0.3-3c0.1,0.7,0.2,1.3,0.4,1.8s0.4,0.9,0.7,1.1c0.3,0.3,0.6,0.5,0.9,0.6s0.7,0.2,1.1,0.2
			c0.8,0,1.4-0.2,1.8-0.6c0.4-0.4,0.6-0.8,0.6-1.4c0-0.3-0.1-0.6-0.2-0.8c-0.1-0.2-0.3-0.4-0.4-0.5c-0.2-0.1-0.3-0.3-0.5-0.3
			c-0.2-0.1-0.4-0.1-0.5-0.2l-1.7-0.6c-0.2-0.1-0.4-0.1-0.6-0.2s-0.4-0.3-0.6-0.4c-0.2-0.2-0.4-0.4-0.5-0.7s-0.2-0.6-0.2-0.9
			c0-0.7,0.3-1.3,0.8-1.7c0.5-0.4,1.2-0.6,2.1-0.6c0.6,0,1.1,0.1,1.6,0.3c0.5,0.2,0.9,0.4,1.2,0.7l-0.1,2.1c-0.3-1-0.6-1.8-1-2.2
			c-0.4-0.5-1-0.7-1.7-0.7c-0.6,0-1,0.1-1.4,0.4c-0.4,0.3-0.6,0.7-0.6,1.2c0,0.3,0.1,0.5,0.2,0.6c0.1,0.2,0.2,0.3,0.4,0.4
			s0.3,0.2,0.5,0.3s0.3,0.1,0.5,0.2l1.5,0.5c0.2,0.1,0.4,0.2,0.7,0.3c0.3,0.1,0.5,0.3,0.7,0.5c0.2,0.2,0.4,0.4,0.6,0.7
			s0.2,0.6,0.2,1.1c0,0.4-0.1,0.8-0.2,1.1c-0.1,0.3-0.4,0.6-0.7,0.9c-0.3,0.2-0.6,0.4-1.1,0.6s-0.9,0.2-1.5,0.2
			c-0.6,0-1.2-0.1-1.7-0.2C139,12.4,138.5,12.2,138.2,11.9z"/>
		<path class="st0" d="M151.3,3.7c0.6,0,1.2,0.1,1.7,0.3c0.5,0.2,0.9,0.4,1.2,0.8c0.3,0.3,0.5,0.7,0.7,1.2c0.2,0.4,0.2,0.9,0.2,1.5
			h-6.7c0,0.2,0,0.3,0,0.5c0,0.2,0,0.3,0,0.5c0,0.6,0.1,1.2,0.2,1.7c0.2,0.5,0.4,1,0.7,1.4c0.3,0.4,0.6,0.7,1,0.9
			c0.4,0.2,0.8,0.3,1.3,0.3c0.4,0,0.8-0.1,1.2-0.2s0.7-0.4,0.9-0.7s0.5-0.6,0.8-1c0.2-0.4,0.4-0.8,0.6-1.3l-0.1,2.3
			c-0.5,0.4-1,0.7-1.6,0.9s-1.2,0.3-1.7,0.3c-0.7,0-1.3-0.1-1.8-0.3c-0.6-0.2-1-0.5-1.5-0.9c-0.4-0.4-0.7-0.9-0.9-1.4S147,9,147,8.3
			c0-0.7,0.1-1.3,0.3-1.8s0.5-1,0.9-1.5s0.8-0.7,1.3-1C150.1,3.8,150.7,3.7,151.3,3.7z M148.4,7.1h5.4c0-0.5-0.1-0.9-0.2-1.3
			c-0.1-0.4-0.3-0.7-0.5-1c-0.2-0.3-0.5-0.5-0.8-0.7c-0.3-0.2-0.7-0.2-1.1-0.2c-0.4,0-0.7,0.1-1,0.2c-0.3,0.2-0.6,0.4-0.9,0.7
			s-0.5,0.6-0.6,1C148.6,6.2,148.5,6.7,148.4,7.1z"/>
		<path class="st0" d="M157.5,12.7c0.2-0.1,0.3-0.1,0.4-0.2c0.1-0.1,0.2-0.1,0.3-0.2s0.1-0.2,0.1-0.4s0-0.4,0-0.6V2
			c0-0.3,0-0.6-0.1-0.7c-0.1-0.1-0.2-0.3-0.3-0.4l1.6-0.2v10.7c0,0.2,0,0.4,0,0.6s0.1,0.3,0.1,0.4s0.1,0.2,0.3,0.3
			c0.1,0.1,0.2,0.1,0.4,0.2H157.5z"/>
		<path class="st0" d="M162.2,3.9V3.8h1.6V3c0-0.5,0.1-0.9,0.2-1.3s0.4-0.6,0.6-0.9c0.3-0.2,0.6-0.4,0.9-0.5
			c0.4-0.1,0.7-0.2,1.2-0.2c0.4,0,0.8,0,1.2,0.1c0.3,0.1,0.6,0.2,0.8,0.4l-0.1,1.9c-0.1-0.7-0.4-1.3-0.7-1.7
			c-0.3-0.4-0.7-0.6-1.3-0.6c-0.5,0-0.9,0.2-1.2,0.5S165,1.8,165,2.6v1.1h3.3v0.2H165v7.4c0,0.2,0,0.4,0,0.6s0.1,0.3,0.1,0.4
			s0.1,0.2,0.3,0.3c0.1,0.1,0.2,0.1,0.4,0.2H163c0.2-0.1,0.3-0.1,0.4-0.2c0.1-0.1,0.2-0.1,0.3-0.2s0.1-0.2,0.1-0.4
			c0-0.2,0-0.4,0-0.6V3.9H162.2z"/>
	</g>
</g>
</svg>
