<?xml version="1.0" encoding="utf-8"?>
<!-- Generator: Adobe Illustrator 25.4.1, SVG Export Plug-In . SVG Version: 6.00 Build 0)  -->
<svg version="1.1" id="レイヤー_1" xmlns="http://www.w3.org/2000/svg" xmlns:xlink="http://www.w3.org/1999/xlink" x="0px"
	 y="0px" viewBox="0 0 169 13" style="enable-background:new 0 0 169 13;" xml:space="preserve">
<style type="text/css">
	.st0{fill:#C04459;}
</style>
<g>
	<g>
		<g>
			<path class="st0" d="M5.5,1.6c0.2,0,0.5,0,0.8,0c0.3,0,0.6,0.1,0.9,0.2s0.7,0.2,1,0.3c0.3,0.1,0.7,0.3,1,0.5l0.3,3.7
				C9.1,4.8,8.6,3.6,7.9,2.9C7.2,2.2,6.3,1.8,5.4,1.8c-0.5,0-1,0.1-1.5,0.3C3.4,2.4,3,2.7,2.7,3.2c-0.3,0.5-0.6,1-0.8,1.7
				C1.7,5.5,1.6,6.3,1.6,7.2c0,0.9,0.1,1.7,0.3,2.4c0.2,0.7,0.5,1.2,0.9,1.7c0.4,0.4,0.8,0.8,1.3,1c0.5,0.2,1,0.3,1.6,0.3
				c0.4,0,0.7,0,1.1-0.1c0.4-0.1,0.7-0.2,1-0.5c0.3-0.2,0.6-0.5,0.9-0.9c0.3-0.4,0.6-0.8,0.8-1.3v1.7c-0.4,0.4-1,0.7-1.6,0.9
				s-1.4,0.4-2.1,0.4c-0.8,0-1.5-0.1-2.1-0.4c-0.7-0.3-1.2-0.7-1.7-1.2c-0.5-0.5-0.9-1.1-1.1-1.8C0.4,8.7,0.2,8,0.2,7.2
				c0-0.8,0.1-1.5,0.4-2.2c0.3-0.7,0.7-1.3,1.1-1.8c0.5-0.5,1-0.9,1.7-1.2S4.8,1.6,5.5,1.6z"/>
			<path class="st0" d="M5.6,13c-0.8,0-1.5-0.1-2.2-0.4c-0.7-0.3-1.3-0.7-1.8-1.2c-0.5-0.5-0.9-1.1-1.2-1.8C0.3,8.8,0.1,8,0.1,7.2
				c0-0.8,0.1-1.6,0.4-2.3c0.3-0.7,0.7-1.3,1.2-1.8c0.5-0.5,1.1-0.9,1.7-1.2c0.7-0.3,1.3-0.4,2.1-0.4c0.2,0,0.5,0,0.8,0
				c0.3,0,0.6,0.1,0.9,0.2c0.3,0.1,0.7,0.2,1,0.3c0.3,0.1,0.7,0.3,1,0.5l0.1,0l0.3,3.7l-0.2,0C9,4.8,8.5,3.7,7.8,3
				C7.1,2.3,6.3,2,5.4,2C4.9,2,4.4,2.1,4,2.3c-0.4,0.2-0.8,0.5-1.2,1C2.5,3.7,2.2,4.2,2,4.9C1.8,5.6,1.7,6.3,1.7,7.2
				c0,0.9,0.1,1.7,0.3,2.3c0.2,0.7,0.5,1.2,0.8,1.6c0.3,0.4,0.8,0.8,1.2,1c0.8,0.3,1.7,0.4,2.6,0.2c0.3-0.1,0.7-0.2,1-0.4
				c0.3-0.2,0.6-0.5,0.9-0.8c0.3-0.3,0.5-0.8,0.8-1.3l0.2-0.6v2.4l0,0c-0.4,0.4-1,0.7-1.7,0.9C7.1,12.8,6.4,13,5.6,13z M9.3,10.4
				c-0.2,0.3-0.4,0.6-0.6,0.9c-0.3,0.4-0.6,0.7-1,0.9c-0.3,0.2-0.7,0.4-1.1,0.5c-0.2,0.1-0.4,0.1-0.6,0.1c0.6,0,1.1-0.2,1.7-0.4
				c0.6-0.2,1.2-0.5,1.6-0.9V10.4z M4.5,1.8C4.1,1.9,3.8,2,3.5,2.1C2.9,2.4,2.4,2.8,1.9,3.3C1.4,3.8,1,4.4,0.8,5
				C0.5,5.7,0.4,6.4,0.4,7.2c0,0.8,0.1,1.5,0.4,2.2c0.3,0.7,0.6,1.3,1.1,1.7c0.5,0.5,1,0.9,1.7,1.2c0.4,0.2,0.9,0.3,1.3,0.4
				c-0.3-0.1-0.6-0.1-0.9-0.3c-0.5-0.2-0.9-0.6-1.3-1c-0.4-0.5-0.7-1-0.9-1.7C1.6,8.9,1.5,8.1,1.5,7.2c0-0.9,0.1-1.7,0.3-2.4
				C2,4.1,2.2,3.6,2.6,3.1c0.4-0.5,0.8-0.8,1.3-1C4,2,4.3,1.9,4.5,1.8z M5.8,1.7C6.6,1.8,7.3,2.2,8,2.8c0.5,0.5,0.9,1.2,1.2,2.1
				L9,2.7C8.8,2.5,8.5,2.4,8.1,2.2C7.8,2.1,7.5,2,7.2,1.9C6.8,1.9,6.5,1.8,6.2,1.8C6.1,1.7,5.9,1.7,5.8,1.7z"/>
		</g>
		<g>
			<path class="st0" d="M12,12.7c0.2-0.1,0.3-0.1,0.4-0.2c0.1-0.1,0.2-0.1,0.3-0.2c0.1-0.1,0.1-0.2,0.1-0.4s0-0.4,0-0.6V5.5
				c0-0.2,0-0.4,0-0.6s0-0.3-0.1-0.4c0-0.1-0.1-0.2-0.1-0.4c-0.1-0.1-0.1-0.2-0.2-0.3L14,3.7v2.1c0.1-0.3,0.3-0.6,0.4-0.8
				c0.2-0.3,0.3-0.5,0.6-0.7c0.2-0.2,0.5-0.3,0.7-0.4c0.3-0.1,0.6-0.2,1-0.2c0.3,0,0.6,0,0.9,0.1l0,1.5c-0.1-0.1-0.2-0.2-0.3-0.4
				c-0.1-0.1-0.3-0.2-0.4-0.4s-0.3-0.2-0.5-0.3c-0.2-0.1-0.3-0.1-0.5-0.1c-0.2,0-0.4,0.1-0.6,0.2c-0.2,0.1-0.3,0.2-0.5,0.4
				c-0.2,0.2-0.3,0.4-0.4,0.6c-0.1,0.2-0.2,0.5-0.3,0.8v5.2c0,0.2,0,0.4,0,0.6s0.1,0.3,0.1,0.4s0.1,0.2,0.3,0.3
				c0.1,0.1,0.2,0.1,0.4,0.2H12z"/>
			<path class="st0" d="M15.7,12.9h-4.4l0.8-0.2c0.2,0,0.3-0.1,0.4-0.2c0.1-0.1,0.2-0.1,0.2-0.2s0.1-0.2,0.1-0.3c0-0.2,0-0.3,0-0.6
				V5.5c0-0.2,0-0.4,0-0.6c0-0.2,0-0.3-0.1-0.4c0-0.1-0.1-0.2-0.1-0.3c-0.1-0.1-0.1-0.2-0.2-0.3l-0.1-0.2l2-0.2v1.7
				c0.1-0.1,0.1-0.2,0.2-0.3c0.2-0.3,0.4-0.5,0.6-0.7c0.2-0.2,0.5-0.4,0.8-0.5c0.3-0.1,0.6-0.2,1-0.2c0.3,0,0.7,0,0.9,0.1l0.1,0l0,2
				l-0.2-0.3c-0.1-0.1-0.2-0.2-0.3-0.4c-0.1-0.1-0.3-0.2-0.4-0.3c-0.1-0.1-0.3-0.2-0.4-0.2c-0.3-0.1-0.7-0.1-1,0
				c-0.2,0.1-0.3,0.2-0.5,0.4c-0.1,0.2-0.3,0.4-0.4,0.6c-0.1,0.2-0.2,0.5-0.3,0.7v5.1c0,0.2,0,0.4,0,0.5c0,0.1,0.1,0.3,0.1,0.3
				c0.1,0.1,0.1,0.2,0.2,0.2c0.1,0.1,0.2,0.1,0.4,0.2L15.7,12.9z M12.6,12.6h1.7c-0.1-0.1-0.2-0.1-0.2-0.2C14,12.3,14,12.1,14,11.9
				c0-0.2,0-0.4,0-0.6v-5l0,0V3.8l-1.2,0.1c0,0.1,0.1,0.1,0.1,0.2c0.1,0.1,0.1,0.2,0.1,0.4c0,0.1,0.1,0.3,0.1,0.5c0,0.2,0,0.4,0,0.6
				v5.9c0,0.2,0,0.4,0,0.6c0,0.2-0.1,0.3-0.1,0.4C12.8,12.5,12.7,12.6,12.6,12.6z M15.9,4.1c0.2,0,0.4,0,0.5,0.1
				c0.2,0.1,0.3,0.2,0.5,0.3c0.2,0.1,0.3,0.2,0.4,0.4c0,0,0.1,0.1,0.1,0.1l0-1.1c-0.2-0.1-0.5-0.1-0.8-0.1c-0.3,0-0.7,0.1-0.9,0.2
				c-0.3,0.1-0.5,0.2-0.7,0.4c0,0,0,0,0,0c0,0,0.1-0.1,0.1-0.1C15.4,4.2,15.7,4.1,15.9,4.1z"/>
		</g>
		<g>
			<path class="st0" d="M24,3.7c0.6,0,1.2,0.1,1.7,0.3c0.5,0.2,0.9,0.4,1.2,0.8c0.3,0.3,0.5,0.7,0.7,1.2c0.2,0.4,0.2,0.9,0.2,1.5
				h-6.7c0,0.2,0,0.3,0,0.5c0,0.2,0,0.3,0,0.5c0,0.6,0.1,1.2,0.2,1.7c0.2,0.5,0.4,1,0.7,1.4c0.3,0.4,0.6,0.7,1,0.9
				c0.4,0.2,0.8,0.3,1.3,0.3c0.4,0,0.8-0.1,1.2-0.2c0.3-0.2,0.7-0.4,0.9-0.7c0.3-0.3,0.5-0.6,0.8-1c0.2-0.4,0.4-0.8,0.6-1.3
				l-0.1,2.3c-0.5,0.4-1,0.7-1.6,0.9c-0.6,0.2-1.2,0.3-1.7,0.3c-0.7,0-1.3-0.1-1.8-0.3s-1-0.5-1.5-0.9c-0.4-0.4-0.7-0.9-0.9-1.4
				S19.7,9,19.7,8.3c0-0.7,0.1-1.3,0.3-1.8s0.5-1,0.9-1.5c0.4-0.4,0.8-0.7,1.3-1S23.3,3.7,24,3.7z M21.1,7.1h5.4
				c0-0.5-0.1-0.9-0.2-1.3c-0.1-0.4-0.3-0.7-0.5-1c-0.2-0.3-0.5-0.5-0.8-0.7S24.4,3.9,24,3.9c-0.4,0-0.7,0.1-1,0.2
				c-0.3,0.2-0.6,0.4-0.9,0.7c-0.2,0.3-0.5,0.6-0.6,1C21.3,6.2,21.2,6.7,21.1,7.1z"/>
			<path class="st0" d="M24.3,12.9c-0.7,0-1.3-0.1-1.9-0.3c-0.6-0.2-1.1-0.5-1.5-0.9c-0.4-0.4-0.7-0.9-1-1.5
				c-0.2-0.6-0.3-1.2-0.3-1.9c0-0.7,0.1-1.3,0.3-1.9c0.2-0.6,0.5-1.1,0.9-1.5c0.4-0.4,0.8-0.8,1.4-1c0.5-0.2,1.2-0.4,1.8-0.4
				c0.6,0,1.2,0.1,1.7,0.3c0.5,0.2,0.9,0.5,1.2,0.8c0.3,0.3,0.6,0.7,0.7,1.2c0.2,0.5,0.2,1,0.3,1.5l0,0.1h-6.7c0,0.1,0,0.2,0,0.4
				c0,0.2,0,0.3,0,0.5c0,0.6,0.1,1.1,0.2,1.7c0.2,0.5,0.4,1,0.7,1.3c0.3,0.4,0.6,0.7,1,0.9c0.4,0.2,0.8,0.3,1.3,0.3
				c0.4,0,0.8-0.1,1.1-0.2c0.3-0.1,0.6-0.4,0.9-0.6c0.3-0.3,0.5-0.6,0.8-1c0.2-0.4,0.4-0.8,0.6-1.3l0.3-0.8l-0.2,3.2l0,0
				c-0.5,0.4-1,0.7-1.6,0.9C25.5,12.9,24.9,12.9,24.3,12.9z M23.3,3.8c-0.4,0.1-0.7,0.1-1,0.3c-0.5,0.2-0.9,0.5-1.3,0.9
				c-0.4,0.4-0.6,0.9-0.8,1.4c-0.2,0.5-0.3,1.2-0.3,1.8c0,0.7,0.1,1.3,0.3,1.8c0.2,0.5,0.5,1,0.9,1.4c0.4,0.4,0.9,0.7,1.4,0.9
				c0.4,0.1,0.8,0.2,1.2,0.3c-0.3-0.1-0.5-0.1-0.8-0.3c-0.4-0.2-0.8-0.5-1.1-0.9c-0.3-0.4-0.5-0.9-0.7-1.4c-0.2-0.5-0.3-1.1-0.3-1.7
				c0-0.2,0-0.3,0-0.5s0-0.3,0-0.5l0-0.2c0.1-0.5,0.2-0.9,0.4-1.3C21.5,5.4,21.7,5,22,4.7c0.3-0.3,0.6-0.5,0.9-0.7
				C23,3.9,23.1,3.9,23.3,3.8z M27.6,10.1c-0.1,0.2-0.2,0.4-0.3,0.6c-0.2,0.4-0.5,0.8-0.8,1.1c-0.3,0.3-0.6,0.5-1,0.7
				c-0.2,0.1-0.3,0.1-0.5,0.2c0.3,0,0.7-0.1,1-0.2c0.6-0.2,1.1-0.4,1.5-0.8L27.6,10.1z M26.6,7.2h1c0-0.5-0.1-0.9-0.2-1.3
				c-0.1-0.4-0.4-0.8-0.7-1.1c-0.3-0.3-0.7-0.6-1.1-0.7c-0.3-0.1-0.6-0.2-1-0.2c0.2,0,0.3,0.1,0.5,0.2c0.3,0.2,0.6,0.4,0.8,0.7
				c0.2,0.3,0.4,0.7,0.5,1.1C26.6,6.2,26.6,6.7,26.6,7.2L26.6,7.2z M21.2,7h5.1c0-0.4-0.1-0.8-0.2-1.1c-0.1-0.4-0.3-0.7-0.5-1
				c-0.2-0.3-0.5-0.5-0.7-0.7C24.7,4.1,24.4,4,24,4c-0.4,0-0.7,0.1-1,0.2c-0.3,0.2-0.6,0.4-0.8,0.6c-0.2,0.3-0.4,0.6-0.6,1
				C21.4,6.2,21.3,6.6,21.2,7z"/>
		</g>
		<g>
			<path class="st0" d="M34.1,7.8l1.8-0.4V6.2c0-0.8-0.2-1.4-0.5-1.8c-0.3-0.4-0.8-0.6-1.4-0.6c-0.3,0-0.6,0.1-0.9,0.2
				c-0.3,0.1-0.6,0.3-0.9,0.5s-0.5,0.6-0.7,1.1c-0.2,0.4-0.4,1-0.6,1.7l-0.1-2.7c0.4-0.3,0.9-0.6,1.4-0.7s1.2-0.3,1.8-0.3
				c0.9,0,1.7,0.2,2.2,0.7c0.5,0.4,0.8,1.1,0.8,2v5c0,0.3,0,0.6,0.1,0.8c0.1,0.2,0.2,0.4,0.3,0.6l-1.6,0v-2.1
				c-0.1,0.3-0.2,0.5-0.4,0.8c-0.2,0.3-0.4,0.5-0.6,0.7c-0.2,0.2-0.5,0.4-0.9,0.5c-0.3,0.1-0.7,0.2-1.1,0.2c-0.4,0-0.7,0-1.1-0.1
				c-0.3-0.1-0.6-0.2-0.9-0.4c-0.2-0.2-0.4-0.4-0.6-0.7c-0.1-0.3-0.2-0.6-0.2-0.9c0-0.5,0.1-0.9,0.4-1.2s0.6-0.6,1-0.8
				c0.4-0.2,0.8-0.4,1.3-0.5C33.3,8,33.7,7.9,34.1,7.8z M31.5,10.7c0,0.5,0.1,1,0.4,1.3c0.3,0.3,0.7,0.5,1.2,0.5
				c0.3,0,0.6-0.1,0.9-0.2c0.3-0.1,0.6-0.3,0.8-0.6s0.5-0.6,0.6-0.9c0.2-0.4,0.3-0.8,0.3-1.3v-2L34.2,8c-0.2,0.1-0.5,0.1-0.8,0.2
				c-0.3,0.1-0.6,0.3-0.9,0.5c-0.3,0.2-0.5,0.5-0.7,0.8C31.6,9.8,31.5,10.2,31.5,10.7z"/>
			<path class="st0" d="M33,12.9c-0.4,0-0.8,0-1.1-0.1c-0.3-0.1-0.7-0.2-0.9-0.4c-0.3-0.2-0.5-0.4-0.6-0.7c-0.1-0.3-0.2-0.6-0.2-1
				c0-0.5,0.1-0.9,0.4-1.3c0.3-0.3,0.6-0.6,1-0.9C32,8.4,32.4,8.2,32.8,8c0.5-0.1,0.9-0.2,1.2-0.3l0,0l1.7-0.4v-1
				c0-0.8-0.1-1.3-0.4-1.7C35,4.2,34.6,4,34,4c-0.3,0-0.6,0-0.9,0.1c-0.3,0.1-0.6,0.3-0.8,0.5c-0.3,0.2-0.5,0.6-0.7,1
				c-0.2,0.4-0.4,1-0.6,1.7l-0.2,1l-0.1-3.7l0.1,0c0.4-0.3,0.9-0.6,1.5-0.8c0.6-0.2,1.2-0.3,1.8-0.3c1,0,1.7,0.2,2.3,0.7
				c0.6,0.5,0.9,1.2,0.9,2.1v5c0,0.3,0,0.6,0.1,0.8c0.1,0.2,0.2,0.4,0.3,0.5l0.2,0.2l-2,0.1v-1.7c-0.1,0.1-0.1,0.2-0.2,0.3
				c-0.2,0.3-0.4,0.5-0.6,0.7c-0.2,0.2-0.5,0.4-0.9,0.5C33.8,12.9,33.4,12.9,33,12.9z M33.3,8.2c-0.1,0-0.3,0.1-0.4,0.1
				c-0.4,0.1-0.8,0.3-1.2,0.5C31.3,9,31,9.3,30.7,9.6c-0.2,0.3-0.4,0.7-0.4,1.1c0,0.3,0.1,0.6,0.2,0.9c0.1,0.2,0.3,0.4,0.5,0.6
				c0.2,0.2,0.5,0.3,0.8,0.4c0.3,0.1,0.7,0.1,1.1,0.1c-0.5,0-0.8-0.2-1.1-0.6c-0.3-0.4-0.5-0.8-0.5-1.4c0-0.5,0.1-0.9,0.3-1.3
				c0.2-0.3,0.4-0.6,0.7-0.8C32.7,8.4,33,8.3,33.3,8.2C33.3,8.2,33.3,8.2,33.3,8.2z M36.1,10v2.6l1.2,0c-0.1-0.1-0.2-0.3-0.2-0.4
				c-0.1-0.2-0.1-0.5-0.1-0.8v-5c0-0.8-0.3-1.4-0.8-1.9c-0.4-0.3-1-0.5-1.6-0.6c0.4,0.1,0.7,0.3,1,0.6c0.3,0.4,0.5,1,0.5,1.8v3.4
				c0,0.4-0.1,0.8-0.2,1.2c0,0,0-0.1,0-0.1L36.1,10z M35.8,7.8l-1.6,0.4c-0.2,0.1-0.5,0.1-0.8,0.2c-0.3,0.1-0.6,0.2-0.8,0.4
				c-0.3,0.2-0.5,0.4-0.6,0.7c-0.2,0.3-0.3,0.7-0.3,1.1c0,0.5,0.1,0.9,0.4,1.3c0.3,0.3,0.6,0.5,1.1,0.5c0.3,0,0.6-0.1,0.9-0.2
				c0.3-0.1,0.6-0.3,0.8-0.5c0.2-0.2,0.4-0.5,0.6-0.9c0.2-0.4,0.3-0.8,0.3-1.2V7.8z M30.9,4.8L31,6.5c0.1-0.3,0.2-0.6,0.4-0.9
				c0.2-0.5,0.5-0.8,0.8-1.1c0.3-0.3,0.6-0.5,0.9-0.6c0.1,0,0.2-0.1,0.4-0.1c-0.4,0-0.8,0.1-1.1,0.2C31.8,4.3,31.3,4.5,30.9,4.8z"/>
		</g>
		<g>
			<path class="st0" d="M41.3,3.8l1.1-2.2v2.2H45v0.2h-2.6v6.8c0,0.4,0,0.6,0.1,0.9c0,0.2,0.1,0.4,0.2,0.6c0.1,0.1,0.2,0.2,0.3,0.3
				c0.1,0.1,0.3,0.1,0.5,0.1c0.3,0,0.6-0.1,0.8-0.3c0.2-0.2,0.4-0.4,0.6-0.7l0.2,0.1c-0.2,0.3-0.4,0.6-0.7,0.8
				c-0.2,0.2-0.6,0.3-1.1,0.3c-0.7,0-1.3-0.2-1.6-0.6c-0.3-0.4-0.5-1-0.5-1.8V3.9h-1.6V3.8H41.3z"/>
			<path class="st0" d="M43.3,12.9c-0.8,0-1.3-0.2-1.7-0.7c-0.3-0.4-0.5-1.1-0.5-1.9V4.1h-1.6V3.6h1.7L42.5,1v2.6h2.6v0.4h-2.6v6.7
				c0,0.3,0,0.6,0.1,0.9c0,0.2,0.1,0.4,0.2,0.5c0.1,0.1,0.2,0.2,0.3,0.2c0.1,0,0.3,0.1,0.4,0.1c0.3,0,0.5-0.1,0.7-0.2
				c0.2-0.2,0.4-0.4,0.6-0.7l0.1-0.1l0.4,0.3l-0.1,0.1c-0.2,0.3-0.5,0.6-0.7,0.8C44.1,12.8,43.8,12.9,43.3,12.9z M41.4,3.9v6.5
				c0,0.8,0.1,1.3,0.4,1.7c0.3,0.4,0.8,0.6,1.5,0.6c0,0,0,0,0,0c-0.1,0-0.2,0-0.3-0.1c-0.2-0.1-0.3-0.2-0.4-0.3
				c-0.1-0.1-0.2-0.4-0.2-0.6c0-0.2-0.1-0.5-0.1-0.9V2.1L41.4,3.9L41.4,3.9z"/>
		</g>
		<g>
			<path class="st0" d="M51.4,3.7c0.6,0,1.2,0.1,1.7,0.3c0.5,0.2,0.9,0.4,1.2,0.8c0.3,0.3,0.5,0.7,0.7,1.2c0.2,0.4,0.2,0.9,0.2,1.5
				h-6.7c0,0.2,0,0.3,0,0.5c0,0.2,0,0.3,0,0.5c0,0.6,0.1,1.2,0.2,1.7s0.4,1,0.7,1.4s0.6,0.7,1,0.9c0.4,0.2,0.8,0.3,1.3,0.3
				c0.4,0,0.8-0.1,1.2-0.2c0.3-0.2,0.7-0.4,0.9-0.7s0.5-0.6,0.8-1s0.4-0.8,0.6-1.3l-0.1,2.3c-0.5,0.4-1,0.7-1.6,0.9
				s-1.2,0.3-1.7,0.3c-0.7,0-1.3-0.1-1.8-0.3c-0.6-0.2-1-0.5-1.5-0.9c-0.4-0.4-0.7-0.9-0.9-1.4S47.1,9,47.1,8.3
				c0-0.7,0.1-1.3,0.3-1.8c0.2-0.6,0.5-1,0.9-1.5c0.4-0.4,0.8-0.7,1.3-1S50.8,3.7,51.4,3.7z M48.5,7.1H54c0-0.5-0.1-0.9-0.2-1.3
				c-0.1-0.4-0.3-0.7-0.5-1c-0.2-0.3-0.5-0.5-0.8-0.7s-0.7-0.2-1.1-0.2c-0.4,0-0.7,0.1-1,0.2c-0.3,0.2-0.6,0.4-0.9,0.7
				s-0.5,0.6-0.6,1C48.7,6.2,48.6,6.7,48.5,7.1z"/>
			<path class="st0" d="M51.7,12.9c-0.7,0-1.3-0.1-1.9-0.3c-0.6-0.2-1.1-0.5-1.5-0.9c-0.4-0.4-0.7-0.9-1-1.5C47.1,9.6,47,9,47,8.3
				c0-0.7,0.1-1.3,0.3-1.9c0.2-0.6,0.5-1.1,0.9-1.5c0.4-0.4,0.8-0.8,1.4-1c0.5-0.2,1.2-0.4,1.8-0.4c0.6,0,1.2,0.1,1.7,0.3
				C53.6,4,54,4.3,54.3,4.6c0.3,0.3,0.6,0.7,0.7,1.2c0.2,0.5,0.2,1,0.3,1.5l0,0.1h-6.7c0,0.1,0,0.2,0,0.4c0,0.2,0,0.3,0,0.5
				c0,0.6,0.1,1.1,0.2,1.7c0.2,0.5,0.4,1,0.7,1.3c0.3,0.4,0.6,0.7,1,0.9c0.4,0.2,0.8,0.3,1.3,0.3c0.4,0,0.8-0.1,1.1-0.2
				c0.3-0.1,0.6-0.4,0.9-0.6c0.3-0.3,0.5-0.6,0.8-1c0.2-0.4,0.4-0.8,0.6-1.3l0.3-0.8l-0.2,3.2l0,0c-0.5,0.4-1,0.7-1.6,0.9
				C52.9,12.9,52.3,12.9,51.7,12.9z M50.7,3.8c-0.4,0.1-0.7,0.1-1,0.3c-0.5,0.2-0.9,0.5-1.3,0.9c-0.4,0.4-0.6,0.9-0.8,1.4
				c-0.2,0.5-0.3,1.2-0.3,1.8c0,0.7,0.1,1.3,0.3,1.8c0.2,0.5,0.5,1,0.9,1.4c0.4,0.4,0.9,0.7,1.4,0.9c0.4,0.1,0.8,0.2,1.2,0.3
				c-0.3-0.1-0.5-0.1-0.8-0.3c-0.4-0.2-0.8-0.5-1.1-0.9c-0.3-0.4-0.5-0.9-0.7-1.4c-0.2-0.5-0.3-1.1-0.3-1.7c0-0.2,0-0.3,0-0.5
				c0-0.2,0-0.3,0-0.5l0-0.2c0.1-0.5,0.2-0.9,0.4-1.3c0.2-0.4,0.4-0.8,0.6-1.1C49.7,4.4,50,4.2,50.3,4C50.4,3.9,50.6,3.9,50.7,3.8z
				 M55,10.1c-0.1,0.2-0.2,0.4-0.3,0.6c-0.2,0.4-0.5,0.8-0.8,1.1c-0.3,0.3-0.6,0.5-1,0.7c-0.2,0.1-0.3,0.1-0.5,0.2
				c0.3,0,0.7-0.1,1-0.2c0.6-0.2,1.1-0.4,1.5-0.8L55,10.1z M54.1,7.2h1c0-0.5-0.1-0.9-0.2-1.3c-0.1-0.4-0.4-0.8-0.7-1.1
				c-0.3-0.3-0.7-0.6-1.1-0.7c-0.3-0.1-0.6-0.2-1-0.2c0.2,0,0.3,0.1,0.5,0.2c0.3,0.2,0.6,0.4,0.8,0.7c0.2,0.3,0.4,0.7,0.5,1.1
				C54,6.2,54.1,6.7,54.1,7.2L54.1,7.2z M48.7,7h5.1c0-0.4-0.1-0.8-0.2-1.1c-0.1-0.4-0.3-0.7-0.5-1c-0.2-0.3-0.4-0.5-0.7-0.7
				c-0.3-0.2-0.6-0.2-1-0.2c-0.4,0-0.7,0.1-1,0.2c-0.3,0.2-0.6,0.4-0.8,0.6c-0.2,0.3-0.4,0.6-0.6,1C48.9,6.2,48.8,6.6,48.7,7z"/>
		</g>
		<g>
			<path class="st0" d="M63.3,3.9V3.8h1.6V3c0-0.5,0.1-0.9,0.2-1.3s0.4-0.6,0.6-0.9c0.3-0.2,0.6-0.4,0.9-0.5
				c0.4-0.1,0.7-0.2,1.2-0.2c0.4,0,0.8,0,1.2,0.1c0.3,0.1,0.6,0.2,0.8,0.4l-0.1,1.9c-0.1-0.7-0.4-1.3-0.7-1.7
				c-0.3-0.4-0.7-0.6-1.3-0.6c-0.5,0-0.9,0.2-1.2,0.5c-0.3,0.3-0.5,0.9-0.5,1.8v1.1h3.3v0.2h-3.3v7.4c0,0.2,0,0.4,0,0.6
				c0,0.2,0.1,0.3,0.1,0.4s0.1,0.2,0.3,0.3c0.1,0.1,0.2,0.1,0.4,0.2h-2.8c0.2-0.1,0.3-0.1,0.4-0.2c0.1-0.1,0.2-0.1,0.3-0.2
				c0.1-0.1,0.1-0.2,0.1-0.4c0-0.2,0-0.4,0-0.6V3.9H63.3z"/>
			<path class="st0" d="M67.7,12.9h-4.4l0.8-0.2c0.2,0,0.3-0.1,0.4-0.2c0.1-0.1,0.2-0.1,0.2-0.2c0.1-0.1,0.1-0.2,0.1-0.3
				c0-0.2,0-0.3,0-0.6V4.1h-1.6V3.6h1.6V3c0-0.5,0.1-1,0.2-1.3c0.2-0.4,0.4-0.7,0.6-0.9c0.3-0.2,0.6-0.4,1-0.5C67,0.1,67.4,0,67.8,0
				c0.5,0,0.9,0,1.2,0.1c0.3,0.1,0.6,0.2,0.9,0.4l0.1,0l-0.1,3.1l-0.2-1C69.4,1.9,69.2,1.4,69,1c-0.3-0.3-0.6-0.5-1.2-0.5
				c-0.5,0-0.9,0.2-1.2,0.5c-0.3,0.3-0.5,0.9-0.5,1.7v1h3.3v0.4h-3.3v7.3c0,0.2,0,0.4,0,0.5c0,0.1,0.1,0.3,0.1,0.3
				c0.1,0.1,0.1,0.2,0.2,0.2c0.1,0.1,0.2,0.1,0.4,0.2L67.7,12.9z M64.6,12.6h1.7c-0.1-0.1-0.2-0.1-0.2-0.2c-0.1-0.1-0.1-0.3-0.2-0.4
				c0-0.2,0-0.4,0-0.6V2.6c0-0.9,0.2-1.5,0.5-1.8c0.2-0.2,0.5-0.4,0.9-0.5c-0.2,0-0.4,0.1-0.6,0.1c-0.3,0.1-0.6,0.3-0.9,0.5
				c-0.2,0.2-0.4,0.5-0.6,0.8C65.1,2.1,65,2.5,65,3v8.4c0,0.2,0,0.4,0,0.6c0,0.2-0.1,0.3-0.1,0.4C64.8,12.5,64.7,12.6,64.6,12.6z
				 M68.3,0.3c0.4,0.1,0.7,0.3,0.9,0.6c0.2,0.2,0.3,0.5,0.5,0.9l0-1c-0.2-0.1-0.5-0.2-0.7-0.3C68.7,0.4,68.5,0.3,68.3,0.3z"/>
		</g>
		<g>
			<path class="st0" d="M75.9,3.7c0.7,0,1.3,0.1,1.9,0.3s1,0.5,1.4,0.9c0.4,0.4,0.7,0.9,0.9,1.4s0.3,1.2,0.3,1.8v0
				c0,0.7-0.1,1.3-0.3,1.8s-0.5,1-0.9,1.4c-0.4,0.4-0.9,0.7-1.4,0.9s-1.2,0.3-1.9,0.3c-0.7,0-1.3-0.1-1.9-0.3s-1-0.5-1.4-0.9
				c-0.4-0.4-0.7-0.9-0.9-1.4s-0.3-1.2-0.3-1.8v0c0-0.7,0.1-1.3,0.3-1.8s0.5-1,0.9-1.4C73,4.5,73.5,4.2,74,4S75.2,3.7,75.9,3.7z
				 M72.6,8.2c0,0.6,0.1,1.2,0.2,1.7c0.2,0.5,0.4,1,0.7,1.4c0.3,0.4,0.6,0.7,1,0.9s0.8,0.3,1.3,0.3s0.9-0.1,1.3-0.3s0.7-0.5,1-0.9
				c0.3-0.4,0.5-0.8,0.7-1.4c0.2-0.5,0.2-1.1,0.2-1.7S79.1,7,78.9,6.5c-0.2-0.5-0.4-1-0.7-1.4c-0.3-0.4-0.6-0.7-1-0.9
				c-0.4-0.2-0.8-0.3-1.3-0.3S75,4,74.6,4.2c-0.4,0.2-0.7,0.5-1,0.9C73.2,5.5,73,6,72.8,6.5C72.7,7,72.6,7.6,72.6,8.2z"/>
			<path class="st0" d="M75.9,12.9c-0.7,0-1.3-0.1-1.9-0.3c-0.6-0.2-1.1-0.6-1.5-1c-0.4-0.4-0.7-0.9-1-1.5c-0.2-0.6-0.3-1.2-0.3-1.9
				c0-0.7,0.1-1.3,0.3-1.9c0.2-0.6,0.6-1.1,1-1.5c0.4-0.4,0.9-0.7,1.5-1c0.6-0.2,1.2-0.3,1.9-0.3c0.7,0,1.3,0.1,1.9,0.3
				s1.1,0.6,1.5,1c0.4,0.4,0.7,0.9,1,1.5c0.2,0.6,0.3,1.2,0.3,1.9c0,0.7-0.1,1.3-0.3,1.9c-0.2,0.6-0.6,1.1-1,1.5
				c-0.4,0.4-0.9,0.7-1.5,1C77.2,12.8,76.6,12.9,75.9,12.9z M76.3,3.8c0.3,0,0.7,0.1,1,0.3c0.4,0.2,0.8,0.5,1.1,0.9
				c0.3,0.4,0.5,0.9,0.7,1.4c0.2,0.5,0.2,1.1,0.2,1.8c0,0.6-0.1,1.2-0.2,1.8c-0.2,0.5-0.4,1-0.7,1.4c-0.3,0.4-0.7,0.7-1.1,0.9
				c-0.3,0.2-0.6,0.3-1,0.3c0.5,0,1-0.1,1.4-0.3c0.5-0.2,1-0.5,1.4-0.9c0.4-0.4,0.7-0.9,0.9-1.4c0.2-0.5,0.3-1.1,0.3-1.8
				c0-0.7-0.1-1.3-0.3-1.8c-0.2-0.5-0.5-1-0.9-1.4c-0.4-0.4-0.9-0.7-1.4-0.9C77.3,4,76.8,3.9,76.3,3.8z M75.5,3.8
				c-0.5,0-1,0.1-1.4,0.3c-0.5,0.2-1,0.5-1.4,0.9c-0.4,0.4-0.7,0.9-0.9,1.4c-0.2,0.5-0.3,1.1-0.3,1.8c0,0.7,0.1,1.3,0.3,1.8
				c0.2,0.5,0.5,1,0.9,1.4c0.4,0.4,0.9,0.7,1.4,0.9c0.4,0.2,0.9,0.3,1.4,0.3c-0.3,0-0.7-0.1-1-0.3c-0.4-0.2-0.8-0.5-1.1-0.9
				c-0.3-0.4-0.5-0.9-0.7-1.4c-0.2-0.5-0.2-1.1-0.2-1.8c0-0.6,0.1-1.2,0.2-1.8c0.2-0.5,0.4-1,0.7-1.4c0.3-0.4,0.7-0.7,1.1-0.9
				C74.8,4,75.1,3.9,75.5,3.8z M75.9,4c-0.5,0-0.9,0.1-1.3,0.3c-0.4,0.2-0.7,0.5-1,0.9C73.3,5.6,73.1,6,73,6.5
				c-0.2,0.5-0.2,1.1-0.2,1.7c0,0.6,0.1,1.2,0.2,1.7c0.2,0.5,0.4,1,0.6,1.3c0.3,0.4,0.6,0.7,1,0.9c0.4,0.2,0.8,0.3,1.3,0.3
				s0.9-0.1,1.3-0.3c0.4-0.2,0.7-0.5,1-0.9c0.3-0.4,0.5-0.8,0.6-1.3C79,9.4,79,8.9,79,8.2C79,7.6,79,7,78.8,6.5
				c-0.2-0.5-0.4-1-0.6-1.3c-0.3-0.4-0.6-0.7-1-0.9C76.8,4.1,76.4,4,75.9,4z"/>
		</g>
		<g>
			<path class="st0" d="M82.7,12.7c0.2-0.1,0.3-0.1,0.4-0.2c0.1-0.1,0.2-0.1,0.3-0.2s0.1-0.2,0.1-0.4c0-0.2,0-0.4,0-0.6V5.5
				c0-0.2,0-0.4,0-0.6c0-0.2,0-0.3-0.1-0.4c0-0.1-0.1-0.2-0.1-0.4c-0.1-0.1-0.1-0.2-0.2-0.3l1.6-0.1v2.1C84.8,5.5,85,5.2,85.1,5
				c0.2-0.3,0.3-0.5,0.6-0.7c0.2-0.2,0.5-0.3,0.7-0.4c0.3-0.1,0.6-0.2,1-0.2c0.3,0,0.6,0,0.9,0.1l0,1.5c-0.1-0.1-0.2-0.2-0.3-0.4
				c-0.1-0.1-0.3-0.2-0.4-0.4s-0.3-0.2-0.5-0.3s-0.3-0.1-0.5-0.1c-0.2,0-0.4,0.1-0.6,0.2c-0.2,0.1-0.3,0.2-0.5,0.4
				c-0.2,0.2-0.3,0.4-0.4,0.6s-0.2,0.5-0.3,0.8v5.2c0,0.2,0,0.4,0,0.6c0,0.2,0.1,0.3,0.1,0.4c0.1,0.1,0.1,0.2,0.3,0.3
				c0.1,0.1,0.2,0.1,0.4,0.2H82.7z"/>
			<path class="st0" d="M86.3,12.9h-4.4l0.8-0.2c0.2,0,0.3-0.1,0.4-0.2c0.1-0.1,0.2-0.1,0.2-0.2c0.1-0.1,0.1-0.2,0.1-0.3
				c0-0.2,0-0.3,0-0.6V5.5c0-0.2,0-0.4,0-0.6c0-0.2,0-0.3-0.1-0.4c0-0.1-0.1-0.2-0.1-0.3C83.2,4.1,83.1,4,83,3.9l-0.1-0.2l2-0.2v1.7
				C84.9,5.1,85,5,85,4.9c0.2-0.3,0.4-0.5,0.6-0.7c0.2-0.2,0.5-0.4,0.8-0.5c0.3-0.1,0.6-0.2,1-0.2c0.3,0,0.7,0,0.9,0.1l0.1,0l0,2
				l-0.2-0.3c-0.1-0.1-0.2-0.2-0.3-0.4c-0.1-0.1-0.3-0.2-0.4-0.3c-0.1-0.1-0.3-0.2-0.4-0.2c-0.3-0.1-0.7-0.1-1,0
				c-0.2,0.1-0.3,0.2-0.5,0.4c-0.1,0.2-0.3,0.4-0.4,0.6c-0.1,0.2-0.2,0.5-0.3,0.7v5.1c0,0.2,0,0.4,0,0.5c0,0.1,0.1,0.3,0.1,0.3
				c0.1,0.1,0.1,0.2,0.2,0.2c0.1,0.1,0.2,0.1,0.4,0.2L86.3,12.9z M83.3,12.6H85c-0.1-0.1-0.2-0.1-0.2-0.2c-0.1-0.1-0.1-0.3-0.2-0.4
				c0-0.2,0-0.4,0-0.6v-5l0,0V3.8l-1.2,0.1c0,0.1,0.1,0.1,0.1,0.2c0.1,0.1,0.1,0.2,0.1,0.4c0,0.1,0.1,0.3,0.1,0.5c0,0.2,0,0.4,0,0.6
				v5.9c0,0.2,0,0.4,0,0.6c0,0.2-0.1,0.3-0.1,0.4C83.4,12.5,83.4,12.6,83.3,12.6z M86.6,4.1c0.2,0,0.4,0,0.5,0.1
				c0.2,0.1,0.3,0.2,0.5,0.3c0.2,0.1,0.3,0.2,0.4,0.4c0,0,0.1,0.1,0.1,0.1l0-1.1c-0.2-0.1-0.5-0.1-0.8-0.1c-0.3,0-0.7,0.1-0.9,0.2
				c-0.3,0.1-0.5,0.2-0.7,0.4c0,0,0,0,0,0c0,0,0.1-0.1,0.1-0.1C86.1,4.2,86.3,4.1,86.6,4.1z"/>
		</g>
		<g>
			<path class="st0" d="M98.5,1.7c0,0-0.1,0.1-0.1,0.1c0,0.1-0.1,0.1-0.1,0.2c0,0.1,0,0.2,0,0.3c0,0.1,0.1,0.3,0.2,0.4l3.1,4.8
				l2.7-4.1c0.2-0.4,0.4-0.7,0.5-0.9s0.1-0.4,0.1-0.5c0-0.1,0-0.2-0.1-0.3c-0.1-0.1-0.1-0.1-0.1-0.2h1.5c-0.1,0-0.3,0.2-0.5,0.4
				c-0.2,0.2-0.4,0.5-0.7,0.9l-3.2,4.8v3.5c0,0.5,0.1,0.8,0.2,1c0.1,0.2,0.3,0.3,0.7,0.4h-2.9c0.3-0.1,0.6-0.2,0.7-0.4
				c0.1-0.2,0.2-0.5,0.2-1V7.9l-3.1-4.6c-0.3-0.5-0.6-0.9-0.8-1.2c-0.2-0.2-0.4-0.4-0.5-0.5H98.5z"/>
			<path class="st0" d="M103.5,12.9h-4.6l0.9-0.2c0.3-0.1,0.5-0.2,0.6-0.4c0.1-0.2,0.2-0.5,0.2-0.9V8l-3-4.6
				c-0.3-0.5-0.6-0.9-0.8-1.1c-0.2-0.2-0.4-0.4-0.5-0.4l-0.5-0.2h3.2l-0.3,0.2c0,0-0.1,0.1-0.1,0.1c0,0,0,0.1-0.1,0.2
				c0,0.1,0,0.2,0,0.3c0,0.1,0.1,0.2,0.2,0.4l3,4.6l2.6-3.9c0.2-0.4,0.4-0.6,0.5-0.9c0.1-0.2,0.1-0.4,0.1-0.5c0-0.1,0-0.2,0-0.2
				c-0.1-0.1-0.1-0.1-0.1-0.2l-0.1-0.2h2.6l-0.8,0.2c-0.1,0-0.2,0.1-0.5,0.3c-0.2,0.2-0.4,0.5-0.7,0.9L102,7.8v3.5
				c0,0.4,0.1,0.7,0.2,0.9c0.1,0.2,0.3,0.3,0.6,0.4L103.5,12.9z M100.3,12.6h1.8c-0.1-0.1-0.2-0.2-0.2-0.2c-0.1-0.2-0.2-0.5-0.2-1
				V7.8l0,0l-3.2-4.9c-0.1-0.2-0.2-0.3-0.2-0.5c0-0.1-0.1-0.3-0.1-0.4c0-0.1,0-0.2,0.1-0.2h-1.7c0.1,0.1,0.2,0.1,0.2,0.2
				c0.2,0.2,0.5,0.6,0.9,1.2l3.1,4.7v3.4c0,0.5-0.1,0.8-0.2,1C100.5,12.5,100.4,12.5,100.3,12.6z M105.1,1.8c0,0.1,0.1,0.2,0.1,0.3
				c0,0.1,0,0.3-0.1,0.6c-0.1,0.1-0.1,0.3-0.3,0.5l0.2-0.3c0.3-0.4,0.5-0.7,0.7-0.9c0.1-0.1,0.1-0.1,0.2-0.2H105.1z"/>
		</g>
		<g>
			<path class="st0" d="M113.1,3.7c0.7,0,1.3,0.1,1.9,0.3s1,0.5,1.4,0.9c0.4,0.4,0.7,0.9,0.9,1.4s0.3,1.2,0.3,1.8v0
				c0,0.7-0.1,1.3-0.3,1.8s-0.5,1-0.9,1.4c-0.4,0.4-0.9,0.7-1.4,0.9s-1.2,0.3-1.9,0.3c-0.7,0-1.3-0.1-1.9-0.3s-1-0.5-1.4-0.9
				c-0.4-0.4-0.7-0.9-0.9-1.4s-0.3-1.2-0.3-1.8v0c0-0.7,0.1-1.3,0.3-1.8s0.5-1,0.9-1.4c0.4-0.4,0.9-0.7,1.4-0.9S112.4,3.7,113.1,3.7
				z M109.8,8.2c0,0.6,0.1,1.2,0.2,1.7c0.2,0.5,0.4,1,0.7,1.4c0.3,0.4,0.6,0.7,1,0.9s0.8,0.3,1.3,0.3s0.9-0.1,1.3-0.3s0.7-0.5,1-0.9
				c0.3-0.4,0.5-0.8,0.7-1.4c0.2-0.5,0.2-1.1,0.2-1.7s-0.1-1.2-0.2-1.7c-0.2-0.5-0.4-1-0.7-1.4c-0.3-0.4-0.6-0.7-1-0.9
				c-0.4-0.2-0.8-0.3-1.3-0.3s-0.9,0.1-1.3,0.3c-0.4,0.2-0.7,0.5-1,0.9c-0.3,0.4-0.5,0.8-0.7,1.4C109.9,7,109.8,7.6,109.8,8.2z"/>
			<path class="st0" d="M113.1,12.9c-0.7,0-1.3-0.1-1.9-0.3c-0.6-0.2-1.1-0.6-1.5-1c-0.4-0.4-0.7-0.9-1-1.5
				c-0.2-0.6-0.3-1.2-0.3-1.9c0-0.7,0.1-1.3,0.3-1.9c0.2-0.6,0.6-1.1,1-1.5c0.4-0.4,0.9-0.7,1.5-1c0.6-0.2,1.2-0.3,1.9-0.3
				c0.7,0,1.3,0.1,1.9,0.3s1.1,0.6,1.5,1c0.4,0.4,0.7,0.9,1,1.5c0.2,0.6,0.3,1.2,0.3,1.9c0,0.7-0.1,1.3-0.3,1.9
				c-0.2,0.6-0.6,1.1-1,1.5c-0.4,0.4-0.9,0.7-1.5,1C114.4,12.8,113.8,12.9,113.1,12.9z M113.5,3.8c0.3,0,0.7,0.1,1,0.3
				c0.4,0.2,0.8,0.5,1.1,0.9c0.3,0.4,0.5,0.9,0.7,1.4c0.2,0.5,0.2,1.1,0.2,1.8c0,0.6-0.1,1.2-0.2,1.8c-0.2,0.5-0.4,1-0.7,1.4
				c-0.3,0.4-0.7,0.7-1.1,0.9c-0.3,0.2-0.6,0.3-1,0.3c0.5,0,1-0.1,1.4-0.3c0.5-0.2,1-0.5,1.4-0.9c0.4-0.4,0.7-0.9,0.9-1.4
				c0.2-0.5,0.3-1.1,0.3-1.8c0-0.7-0.1-1.3-0.3-1.8c-0.2-0.5-0.5-1-0.9-1.4c-0.4-0.4-0.9-0.7-1.4-0.9C114.5,4,114,3.9,113.5,3.8z
				 M112.7,3.8c-0.5,0-1,0.1-1.4,0.3c-0.5,0.2-1,0.5-1.4,0.9c-0.4,0.4-0.7,0.9-0.9,1.4c-0.2,0.5-0.3,1.1-0.3,1.8
				c0,0.7,0.1,1.3,0.3,1.8c0.2,0.5,0.5,1,0.9,1.4c0.4,0.4,0.9,0.7,1.4,0.9c0.4,0.2,0.9,0.3,1.4,0.3c-0.3,0-0.7-0.1-1-0.3
				c-0.4-0.2-0.8-0.5-1.1-0.9c-0.3-0.4-0.5-0.9-0.7-1.4c-0.2-0.5-0.2-1.1-0.2-1.8c0-0.6,0.1-1.2,0.2-1.8c0.2-0.5,0.4-1,0.7-1.4
				c0.3-0.4,0.7-0.7,1.1-0.9C112,4,112.3,3.9,112.7,3.8z M113.1,4c-0.5,0-0.9,0.1-1.3,0.3c-0.4,0.2-0.7,0.5-1,0.9
				c-0.3,0.4-0.5,0.8-0.6,1.3c-0.2,0.5-0.2,1.1-0.2,1.7c0,0.6,0.1,1.2,0.2,1.7c0.2,0.5,0.4,1,0.6,1.3c0.3,0.4,0.6,0.7,1,0.9
				c0.4,0.2,0.8,0.3,1.3,0.3s0.9-0.1,1.3-0.3c0.4-0.2,0.7-0.5,1-0.9c0.3-0.4,0.5-0.8,0.6-1.3c0.2-0.5,0.2-1.1,0.2-1.7
				c0-0.6-0.1-1.2-0.2-1.7c-0.2-0.5-0.4-1-0.6-1.3c-0.3-0.4-0.6-0.7-1-0.9C114,4.1,113.6,4,113.1,4z"/>
		</g>
		<g>
			<path class="st0" d="M120,3.8l1.6-0.1v6.5c0,0.5,0,0.8,0.1,1.2c0.1,0.3,0.2,0.6,0.4,0.8c0.2,0.2,0.4,0.3,0.6,0.4s0.5,0.1,0.8,0.1
				c0.5,0,0.9-0.1,1.2-0.3c0.4-0.2,0.6-0.5,0.9-0.8c0.2-0.3,0.4-0.7,0.5-1.1c0.1-0.4,0.2-0.8,0.2-1.2V5.5c0-0.2,0-0.4,0-0.6
				c0-0.2,0-0.3-0.1-0.4c0-0.1-0.1-0.2-0.1-0.4c-0.1-0.1-0.1-0.2-0.2-0.3l1.6-0.1v7.5c0,0.5,0,0.8,0.1,1c0.1,0.2,0.2,0.4,0.3,0.5
				l-1.6,0v-2.4c-0.2,0.4-0.3,0.7-0.5,1s-0.4,0.6-0.6,0.8c-0.2,0.2-0.5,0.4-0.9,0.5c-0.3,0.1-0.7,0.2-1.1,0.2
				c-0.9,0-1.6-0.2-2.2-0.7c-0.5-0.5-0.8-1.2-0.8-2.1V5.5c0-0.2,0-0.4,0-0.6s0-0.3-0.1-0.4c0-0.1-0.1-0.2-0.1-0.4
				C120.2,4,120.1,3.9,120,3.8z"/>
			<path class="st0" d="M123.4,12.9c-0.9,0-1.7-0.2-2.3-0.7c-0.6-0.5-0.8-1.2-0.8-2.2V5.5c0-0.2,0-0.4,0-0.6c0-0.2,0-0.3-0.1-0.4
				c0-0.1-0.1-0.2-0.1-0.3c-0.1-0.1-0.1-0.2-0.2-0.3l-0.1-0.2l2-0.2v6.6c0,0.4,0,0.8,0.1,1.1c0.1,0.3,0.2,0.5,0.4,0.7
				c0.2,0.2,0.4,0.3,0.6,0.4c0.2,0.1,0.5,0.1,0.8,0.1c0.5,0,0.8-0.1,1.2-0.3c0.3-0.2,0.6-0.5,0.8-0.8c0.2-0.3,0.4-0.7,0.5-1.1
				c0.1-0.4,0.2-0.8,0.2-1.2V5.5c0-0.2,0-0.4,0-0.6c0-0.2,0-0.3-0.1-0.4c0-0.1-0.1-0.2-0.1-0.3c-0.1-0.1-0.1-0.2-0.2-0.3l-0.1-0.2
				l2-0.2v7.6c0,0.5,0,0.8,0.1,1c0.1,0.2,0.2,0.4,0.3,0.5l0.2,0.2l-2,0.1v-2c-0.1,0.2-0.2,0.4-0.3,0.5c-0.2,0.3-0.4,0.6-0.7,0.8
				c-0.3,0.2-0.6,0.4-0.9,0.5C124.2,12.9,123.9,12.9,123.4,12.9z M120.2,3.9c0,0.1,0.1,0.1,0.1,0.2c0.1,0.1,0.1,0.2,0.1,0.4
				c0,0.1,0.1,0.3,0.1,0.5c0,0.2,0,0.4,0,0.6V10c0,0.9,0.3,1.6,0.8,2c0.5,0.4,1.2,0.6,2,0.7c-0.2,0-0.4-0.1-0.6-0.1
				c-0.3-0.1-0.5-0.2-0.7-0.5c-0.2-0.2-0.3-0.5-0.4-0.8c-0.1-0.3-0.1-0.7-0.1-1.2V3.8L120.2,3.9z M126.7,9.8v2.9l1.2,0
				c-0.1-0.1-0.1-0.2-0.2-0.4c-0.1-0.2-0.1-0.6-0.1-1.1V3.8l-1.3,0.1c0,0.1,0.1,0.1,0.1,0.2c0.1,0.1,0.1,0.2,0.1,0.4
				c0,0.1,0.1,0.3,0.1,0.5c0,0.2,0,0.4,0,0.6v3.6c0,0.4-0.1,0.8-0.2,1.2c-0.1,0.2-0.1,0.3-0.2,0.5c0.1-0.2,0.1-0.3,0.2-0.5
				L126.7,9.8z"/>
		</g>
		<g>
			<path class="st0" d="M130.5,12.7c0.2-0.1,0.3-0.1,0.4-0.2c0.1-0.1,0.2-0.1,0.3-0.2c0.1-0.1,0.1-0.2,0.1-0.4c0-0.2,0-0.4,0-0.6
				V5.5c0-0.2,0-0.4,0-0.6c0-0.2,0-0.3-0.1-0.4c0-0.1-0.1-0.2-0.1-0.4c-0.1-0.1-0.1-0.2-0.2-0.3l1.6-0.1v2.1
				c0.1-0.3,0.3-0.6,0.4-0.8c0.2-0.3,0.3-0.5,0.6-0.7c0.2-0.2,0.5-0.3,0.7-0.4c0.3-0.1,0.6-0.2,1-0.2c0.3,0,0.6,0,0.9,0.1l0,1.5
				c-0.1-0.1-0.2-0.2-0.3-0.4c-0.1-0.1-0.3-0.2-0.4-0.4c-0.1-0.1-0.3-0.2-0.5-0.3c-0.2-0.1-0.3-0.1-0.5-0.1c-0.2,0-0.4,0.1-0.6,0.2
				c-0.2,0.1-0.3,0.2-0.5,0.4c-0.2,0.2-0.3,0.4-0.4,0.6c-0.1,0.2-0.2,0.5-0.3,0.8v5.2c0,0.2,0,0.4,0,0.6c0,0.2,0.1,0.3,0.1,0.4
				s0.1,0.2,0.3,0.3c0.1,0.1,0.2,0.1,0.4,0.2H130.5z"/>
			<path class="st0" d="M134.1,12.9h-4.4l0.8-0.2c0.2,0,0.3-0.1,0.4-0.2c0.1-0.1,0.2-0.1,0.2-0.2c0.1-0.1,0.1-0.2,0.1-0.3
				c0-0.2,0-0.3,0-0.6V5.5c0-0.2,0-0.4,0-0.6c0-0.2,0-0.3-0.1-0.4c0-0.1-0.1-0.2-0.1-0.3c-0.1-0.1-0.1-0.2-0.2-0.3l-0.1-0.2l2-0.2
				v1.7c0.1-0.1,0.1-0.2,0.2-0.3c0.2-0.3,0.4-0.5,0.6-0.7c0.2-0.2,0.5-0.4,0.8-0.5c0.3-0.1,0.6-0.2,1-0.2c0.3,0,0.7,0,0.9,0.1l0.1,0
				l0,2l-0.2-0.3c-0.1-0.1-0.2-0.2-0.3-0.4s-0.3-0.2-0.4-0.3c-0.1-0.1-0.3-0.2-0.4-0.2c-0.3-0.1-0.7-0.1-1,0
				c-0.2,0.1-0.3,0.2-0.5,0.4c-0.1,0.2-0.3,0.4-0.4,0.6c-0.1,0.2-0.2,0.5-0.3,0.7v5.1c0,0.2,0,0.4,0,0.5c0,0.1,0.1,0.3,0.1,0.3
				c0.1,0.1,0.1,0.2,0.2,0.2c0.1,0.1,0.2,0.1,0.4,0.2L134.1,12.9z M131,12.6h1.7c-0.1-0.1-0.2-0.1-0.2-0.2c-0.1-0.1-0.1-0.3-0.2-0.4
				c0-0.2,0-0.4,0-0.6v-5l0,0V3.8l-1.3,0.1c0,0.1,0.1,0.1,0.1,0.2c0.1,0.1,0.1,0.2,0.1,0.4c0,0.1,0.1,0.3,0.1,0.5c0,0.2,0,0.4,0,0.6
				v5.9c0,0.2,0,0.4,0,0.6c0,0.2-0.1,0.3-0.1,0.4C131.2,12.5,131.1,12.6,131,12.6z M134.3,4.1c0.2,0,0.4,0,0.5,0.1
				c0.2,0.1,0.3,0.2,0.5,0.3c0.2,0.1,0.3,0.2,0.4,0.4c0,0,0.1,0.1,0.1,0.1l0-1.1c-0.2-0.1-0.5-0.1-0.8-0.1c-0.3,0-0.7,0.1-0.9,0.2
				c-0.3,0.1-0.5,0.2-0.7,0.4c0,0,0,0,0,0c0,0,0.1-0.1,0.1-0.1C133.9,4.2,134.1,4.1,134.3,4.1z"/>
		</g>
		<g>
			<path class="st0" d="M138.2,11.9l0.3-3c0.1,0.7,0.2,1.3,0.4,1.8s0.4,0.9,0.7,1.1c0.3,0.3,0.6,0.5,0.9,0.6s0.7,0.2,1.1,0.2
				c0.8,0,1.4-0.2,1.8-0.6c0.4-0.4,0.6-0.8,0.6-1.4c0-0.3-0.1-0.6-0.2-0.8s-0.3-0.4-0.4-0.5c-0.2-0.1-0.3-0.3-0.5-0.3
				s-0.4-0.1-0.5-0.2l-1.7-0.6c-0.2-0.1-0.4-0.1-0.6-0.2c-0.2-0.1-0.4-0.3-0.6-0.4c-0.2-0.2-0.4-0.4-0.5-0.7
				c-0.1-0.3-0.2-0.6-0.2-0.9c0-0.7,0.3-1.3,0.8-1.7c0.5-0.4,1.2-0.6,2.1-0.6c0.6,0,1.1,0.1,1.6,0.3c0.5,0.2,0.9,0.4,1.2,0.7
				l-0.1,2.1c-0.3-1-0.6-1.8-1-2.2c-0.4-0.5-1-0.7-1.7-0.7c-0.6,0-1,0.1-1.4,0.4c-0.4,0.3-0.6,0.7-0.6,1.2c0,0.3,0.1,0.5,0.2,0.6
				c0.1,0.2,0.2,0.3,0.4,0.4c0.2,0.1,0.3,0.2,0.5,0.3c0.2,0.1,0.3,0.1,0.5,0.2l1.5,0.5c0.2,0.1,0.4,0.2,0.7,0.3
				c0.3,0.1,0.5,0.3,0.7,0.5c0.2,0.2,0.4,0.4,0.6,0.7s0.2,0.6,0.2,1.1c0,0.4-0.1,0.8-0.2,1.1c-0.1,0.3-0.4,0.6-0.7,0.9
				c-0.3,0.2-0.6,0.4-1.1,0.6s-0.9,0.2-1.5,0.2c-0.6,0-1.2-0.1-1.7-0.2C139,12.4,138.5,12.2,138.2,11.9z"/>
			<path class="st0" d="M141.3,12.9c-0.6,0-1.2-0.1-1.8-0.2c-0.6-0.2-1-0.4-1.4-0.7l-0.1,0l0.3-3.1h0.2c0.1,0.7,0.2,1.3,0.4,1.8
				c0.2,0.5,0.4,0.8,0.6,1.1c0.2,0.3,0.5,0.5,0.8,0.6c0.3,0.1,0.7,0.2,1,0.2c0.8,0,1.3-0.2,1.7-0.5c0.4-0.4,0.5-0.8,0.5-1.3
				c0-0.3-0.1-0.5-0.2-0.7c-0.1-0.2-0.2-0.4-0.4-0.5c-0.2-0.1-0.3-0.2-0.5-0.3c-0.2-0.1-0.4-0.1-0.5-0.2l-1.7-0.6
				c-0.2-0.1-0.4-0.1-0.6-0.3c-0.2-0.1-0.4-0.3-0.6-0.5c-0.2-0.2-0.4-0.4-0.5-0.7c-0.1-0.3-0.2-0.6-0.2-1c0-0.7,0.3-1.3,0.8-1.8
				c0.5-0.4,1.3-0.6,2.1-0.6c0.6,0,1.1,0.1,1.6,0.3c0.5,0.2,0.9,0.4,1.3,0.8l0,0l-0.2,3L144,6.8c-0.3-1-0.6-1.7-1-2.2
				c-0.4-0.4-1-0.6-1.6-0.6c-0.5,0-1,0.1-1.4,0.4c-0.3,0.2-0.5,0.6-0.5,1.1c0,0.2,0,0.4,0.1,0.6c0.1,0.2,0.2,0.3,0.4,0.4
				c0.1,0.1,0.3,0.2,0.5,0.3c0.2,0.1,0.3,0.1,0.5,0.2l1.5,0.5c0.2,0.1,0.4,0.2,0.7,0.3c0.3,0.1,0.5,0.3,0.8,0.5
				c0.2,0.2,0.5,0.5,0.6,0.8c0.2,0.3,0.3,0.7,0.3,1.1c0,0.4-0.1,0.8-0.2,1.1c-0.2,0.3-0.4,0.6-0.7,0.9c-0.3,0.3-0.7,0.5-1.1,0.6
				C142.4,12.9,141.9,12.9,141.3,12.9z M138.3,11.8c0.3,0.3,0.8,0.5,1.3,0.6c0.4,0.1,0.8,0.2,1.3,0.2c-0.2,0-0.4-0.1-0.6-0.1
				c-0.4-0.1-0.7-0.3-0.9-0.6c-0.3-0.3-0.5-0.7-0.7-1.2c-0.1-0.2-0.2-0.5-0.2-0.7L138.3,11.8z M140.5,3.9c-0.4,0.1-0.8,0.3-1.1,0.5
				c-0.5,0.4-0.7,0.9-0.7,1.6c0,0.3,0.1,0.6,0.2,0.9c0.1,0.2,0.3,0.5,0.5,0.6c0.2,0.2,0.4,0.3,0.6,0.4c0.2,0.1,0.4,0.2,0.6,0.2
				l1.7,0.6c0.2,0.1,0.3,0.1,0.5,0.2c0.2,0.1,0.4,0.2,0.6,0.4c0.2,0.2,0.3,0.3,0.4,0.6c0.1,0.2,0.2,0.5,0.2,0.9
				c0,0.6-0.2,1.1-0.6,1.5c-0.2,0.2-0.4,0.3-0.6,0.4c0,0,0.1,0,0.1,0c0.4-0.1,0.7-0.3,1-0.5c0.3-0.2,0.5-0.5,0.6-0.8
				c0.1-0.3,0.2-0.7,0.2-1c0-0.4-0.1-0.7-0.2-1c-0.2-0.3-0.3-0.5-0.6-0.7c-0.2-0.2-0.5-0.3-0.7-0.5c-0.3-0.1-0.5-0.2-0.7-0.3
				l-1.5-0.5c-0.2-0.1-0.3-0.1-0.5-0.2c-0.2-0.1-0.4-0.2-0.5-0.3c-0.2-0.1-0.3-0.3-0.4-0.5c-0.1-0.2-0.2-0.4-0.2-0.7
				c0-0.6,0.2-1.1,0.6-1.4C140,4,140.3,3.9,140.5,3.9z M141.9,3.8c0.5,0.1,0.9,0.3,1.2,0.7c0.3,0.4,0.6,0.9,0.9,1.6l0.1-1.4
				c-0.3-0.3-0.7-0.5-1.2-0.7C142.6,3.9,142.3,3.9,141.9,3.8z"/>
		</g>
		<g>
			<path class="st0" d="M151.3,3.7c0.6,0,1.2,0.1,1.7,0.3c0.5,0.2,0.9,0.4,1.2,0.8c0.3,0.3,0.5,0.7,0.7,1.2c0.2,0.4,0.2,0.9,0.2,1.5
				h-6.7c0,0.2,0,0.3,0,0.5c0,0.2,0,0.3,0,0.5c0,0.6,0.1,1.2,0.2,1.7c0.2,0.5,0.4,1,0.7,1.4c0.3,0.4,0.6,0.7,1,0.9s0.8,0.3,1.3,0.3
				c0.4,0,0.8-0.1,1.2-0.2c0.3-0.2,0.7-0.4,0.9-0.7c0.3-0.3,0.5-0.6,0.8-1c0.2-0.4,0.4-0.8,0.6-1.3l-0.1,2.3c-0.5,0.4-1,0.7-1.6,0.9
				s-1.2,0.3-1.7,0.3c-0.7,0-1.3-0.1-1.8-0.3c-0.6-0.2-1-0.5-1.5-0.9c-0.4-0.4-0.7-0.9-0.9-1.4S147,9,147,8.3c0-0.7,0.1-1.3,0.3-1.8
				c0.2-0.6,0.5-1,0.9-1.5s0.8-0.7,1.3-1C150.1,3.8,150.7,3.7,151.3,3.7z M148.4,7.1h5.4c0-0.5-0.1-0.9-0.2-1.3
				c-0.1-0.4-0.3-0.7-0.5-1c-0.2-0.3-0.5-0.5-0.8-0.7c-0.3-0.2-0.7-0.2-1.1-0.2c-0.4,0-0.7,0.1-1,0.2c-0.3,0.2-0.6,0.4-0.9,0.7
				c-0.2,0.3-0.5,0.6-0.6,1C148.6,6.2,148.5,6.7,148.4,7.1z"/>
			<path class="st0" d="M151.6,12.9c-0.7,0-1.3-0.1-1.9-0.3c-0.6-0.2-1.1-0.5-1.5-0.9c-0.4-0.4-0.7-0.9-1-1.5
				c-0.2-0.6-0.3-1.2-0.3-1.9c0-0.7,0.1-1.3,0.3-1.9c0.2-0.6,0.5-1.1,0.9-1.5s0.8-0.8,1.4-1c0.5-0.2,1.2-0.4,1.8-0.4
				c0.6,0,1.2,0.1,1.7,0.3c0.5,0.2,0.9,0.5,1.2,0.8c0.3,0.3,0.6,0.7,0.7,1.2c0.2,0.5,0.2,1,0.3,1.5l0,0.1h-6.7c0,0.1,0,0.2,0,0.4
				c0,0.2,0,0.3,0,0.5c0,0.6,0.1,1.1,0.2,1.7c0.2,0.5,0.4,1,0.7,1.3c0.3,0.4,0.6,0.7,1,0.9c0.4,0.2,0.8,0.3,1.3,0.3
				c0.4,0,0.8-0.1,1.1-0.2c0.3-0.1,0.6-0.4,0.9-0.6c0.3-0.3,0.5-0.6,0.8-1c0.2-0.4,0.4-0.8,0.6-1.3l0.3-0.8l-0.2,3.2l0,0
				c-0.5,0.4-1,0.7-1.6,0.9C152.8,12.9,152.2,12.9,151.6,12.9z M150.6,3.8c-0.4,0.1-0.7,0.1-1,0.3c-0.5,0.2-0.9,0.5-1.3,0.9
				c-0.4,0.4-0.6,0.9-0.8,1.4c-0.2,0.5-0.3,1.2-0.3,1.8c0,0.7,0.1,1.3,0.3,1.8c0.2,0.5,0.5,1,0.9,1.4c0.4,0.4,0.9,0.7,1.4,0.9
				c0.4,0.1,0.8,0.2,1.2,0.3c-0.3-0.1-0.5-0.1-0.8-0.3c-0.4-0.2-0.8-0.5-1.1-0.9c-0.3-0.4-0.5-0.9-0.7-1.4c-0.2-0.5-0.3-1.1-0.3-1.7
				c0-0.2,0-0.3,0-0.5c0-0.2,0-0.3,0-0.5l0-0.2c0.1-0.5,0.2-0.9,0.4-1.3c0.2-0.4,0.4-0.8,0.6-1.1c0.3-0.3,0.6-0.5,0.9-0.7
				C150.3,3.9,150.5,3.9,150.6,3.8z M154.9,10.1c-0.1,0.2-0.2,0.4-0.3,0.6c-0.2,0.4-0.5,0.8-0.8,1.1c-0.3,0.3-0.6,0.5-1,0.7
				c-0.2,0.1-0.3,0.1-0.5,0.2c0.3,0,0.7-0.1,1-0.2c0.6-0.2,1.1-0.4,1.5-0.8L154.9,10.1z M154,7.2h1c0-0.5-0.1-0.9-0.2-1.3
				c-0.1-0.4-0.4-0.8-0.7-1.1c-0.3-0.3-0.7-0.6-1.1-0.7c-0.3-0.1-0.6-0.2-1-0.2c0.2,0,0.3,0.1,0.5,0.2c0.3,0.2,0.6,0.4,0.8,0.7
				c0.2,0.3,0.4,0.7,0.5,1.1C153.9,6.2,154,6.7,154,7.2L154,7.2z M148.6,7h5.1c0-0.4-0.1-0.8-0.2-1.1c-0.1-0.4-0.3-0.7-0.5-1
				c-0.2-0.3-0.4-0.5-0.7-0.7c-0.3-0.2-0.6-0.2-1-0.2c-0.4,0-0.7,0.1-1,0.2c-0.3,0.2-0.6,0.4-0.8,0.6c-0.2,0.3-0.4,0.6-0.6,1
				C148.8,6.2,148.6,6.6,148.6,7z"/>
		</g>
		<g>
			<path class="st0" d="M157.5,12.7c0.2-0.1,0.3-0.1,0.4-0.2c0.1-0.1,0.2-0.1,0.3-0.2c0.1-0.1,0.1-0.2,0.1-0.4s0-0.4,0-0.6V2
				c0-0.3,0-0.6-0.1-0.7c-0.1-0.1-0.2-0.3-0.3-0.4l1.6-0.2v10.7c0,0.2,0,0.4,0,0.6s0.1,0.3,0.1,0.4s0.1,0.2,0.3,0.3
				c0.1,0.1,0.2,0.1,0.4,0.2H157.5z"/>
			<path class="st0" d="M161.1,12.9h-4.4l0.8-0.2c0.2,0,0.3-0.1,0.4-0.2c0.1-0.1,0.2-0.1,0.2-0.2c0.1-0.1,0.1-0.2,0.1-0.3
				c0-0.2,0-0.3,0-0.6V2c0-0.3,0-0.5-0.1-0.7c0-0.1-0.1-0.2-0.3-0.4l-0.2-0.2l2-0.2v10.8c0,0.2,0,0.4,0,0.5c0,0.1,0.1,0.3,0.1,0.3
				c0.1,0.1,0.1,0.2,0.2,0.2c0.1,0.1,0.2,0.1,0.4,0.2L161.1,12.9z M158.1,12.6h1.7c-0.1-0.1-0.2-0.1-0.2-0.2
				c-0.1-0.1-0.1-0.3-0.2-0.4c0-0.2,0-0.4,0-0.6V0.8L158.2,1c0.1,0.1,0.1,0.2,0.2,0.3c0.1,0.2,0.1,0.4,0.1,0.8v9.3
				c0,0.2,0,0.4,0,0.6c0,0.2-0.1,0.3-0.1,0.4C158.2,12.5,158.2,12.6,158.1,12.6z"/>
		</g>
		<g>
			<path class="st0" d="M162.2,3.9V3.8h1.6V3c0-0.5,0.1-0.9,0.2-1.3c0.1-0.4,0.4-0.6,0.6-0.9c0.3-0.2,0.6-0.4,0.9-0.5
				c0.4-0.1,0.7-0.2,1.2-0.2c0.4,0,0.8,0,1.2,0.1c0.3,0.1,0.6,0.2,0.8,0.4l-0.1,1.9c-0.1-0.7-0.4-1.3-0.7-1.7
				c-0.3-0.4-0.7-0.6-1.3-0.6c-0.5,0-0.9,0.2-1.2,0.5c-0.3,0.3-0.5,0.9-0.5,1.8v1.1h3.3v0.2H165v7.4c0,0.2,0,0.4,0,0.6
				c0,0.2,0.1,0.3,0.1,0.4c0.1,0.1,0.1,0.2,0.3,0.3c0.1,0.1,0.2,0.1,0.4,0.2H163c0.2-0.1,0.3-0.1,0.4-0.2c0.1-0.1,0.2-0.1,0.3-0.2
				s0.1-0.2,0.1-0.4s0-0.4,0-0.6V3.9H162.2z"/>
			<path class="st0" d="M166.6,12.9h-4.4l0.8-0.2c0.2,0,0.3-0.1,0.4-0.2c0.1-0.1,0.2-0.1,0.2-0.2c0.1-0.1,0.1-0.2,0.1-0.3
				c0-0.2,0-0.3,0-0.6V4.1h-1.6V3.6h1.6V3c0-0.5,0.1-1,0.2-1.3c0.2-0.4,0.4-0.7,0.6-0.9c0.3-0.2,0.6-0.4,1-0.5
				c0.4-0.1,0.8-0.2,1.2-0.2c0.5,0,0.9,0,1.2,0.1c0.3,0.1,0.6,0.2,0.9,0.4l0.1,0l-0.1,3.1l-0.2-1c-0.1-0.7-0.4-1.3-0.6-1.6
				c-0.3-0.3-0.6-0.5-1.2-0.5c-0.5,0-0.9,0.2-1.2,0.5c-0.3,0.3-0.4,0.9-0.4,1.7v1h3.3v0.4h-3.3v7.3c0,0.2,0,0.4,0,0.5
				c0,0.1,0.1,0.3,0.1,0.3c0.1,0.1,0.1,0.2,0.2,0.2c0.1,0.1,0.2,0.1,0.4,0.2L166.6,12.9z M163.6,12.6h1.7c-0.1-0.1-0.2-0.1-0.2-0.2
				c-0.1-0.1-0.1-0.3-0.2-0.4c0-0.2,0-0.4,0-0.6V2.6c0-0.9,0.2-1.5,0.5-1.8c0.2-0.2,0.5-0.4,0.9-0.5c-0.2,0-0.4,0.1-0.6,0.1
				c-0.3,0.1-0.6,0.3-0.9,0.5c-0.2,0.2-0.4,0.5-0.6,0.8C164.1,2.1,164,2.5,164,3v8.4c0,0.2,0,0.4,0,0.6c0,0.2-0.1,0.3-0.1,0.4
				C163.8,12.5,163.7,12.6,163.6,12.6z M167.2,0.3c0.4,0.1,0.7,0.3,0.9,0.6c0.2,0.2,0.3,0.5,0.5,0.9l0-1c-0.2-0.1-0.5-0.2-0.7-0.3
				C167.7,0.4,167.5,0.3,167.2,0.3z"/>
		</g>
	</g>
</g>
</svg>
