<?xml version="1.0" encoding="utf-8"?>
<!-- Generator: Adobe Illustrator 25.4.1, SVG Export Plug-In . SVG Version: 6.00 Build 0)  -->
<svg version="1.1" id="レイヤー_1" xmlns="http://www.w3.org/2000/svg" xmlns:xlink="http://www.w3.org/1999/xlink" x="0px"
	 y="0px" viewBox="0 0 124 76" style="enable-background:new 0 0 124 76;" xml:space="preserve">
<style type="text/css">
	.st0{fill:#EF8883;}
</style>
<g>
	<path class="st0" d="M29.8,75.9c-0.7,0-1.4,0-2.1,0C13.9,75.5,4.5,71.1,1.3,63.5c-3.2-7.5,0.2-17.3,9.5-27.4
		c9.2-10,23.2-19.3,39.3-26.1S82.8-0.3,96.4,0.1c13.8,0.4,23.1,4.8,26.3,12.3c3.2,7.5-0.2,17.3-9.5,27.4
		c-9.2,10-23.2,19.3-39.3,26.1C58.5,72.4,42.9,75.9,29.8,75.9z M94.2,1.1c-13.1,0-28.4,3.5-43.6,9.9c-16,6.7-29.9,15.9-39,25.9
		C2.6,46.7-0.7,56,2.3,63.2c3,7.2,12,11.3,25.4,11.7c13.5,0.4,29.7-3.1,45.7-9.8c16-6.7,29.9-15.9,39-25.9c9-9.8,12.4-19.2,9.3-26.3
		c-3-7.2-12-11.3-25.4-11.7C95.7,1.1,95,1.1,94.2,1.1z"/>
	<g>
		<path class="st0" d="M25.1,62.9c0.3-0.3,0.5-0.5,0.6-0.8c0-0.3,0-0.7-0.3-1.2l-4-9.4c-0.1-0.3-0.2-0.5-0.3-0.6
			c-0.1-0.2-0.2-0.3-0.3-0.4s-0.3-0.1-0.4-0.2c-0.2,0-0.3,0-0.6,0l4.1-1.7c1.4-0.6,2.7-0.8,3.7-0.7c1.1,0.2,1.8,0.7,2.2,1.7
			c0.3,0.8,0.3,1.6-0.1,2.4s-1.1,1.5-2.1,2.2c1.3-0.4,2.4-0.4,3.3-0.2c0.9,0.2,1.5,0.8,1.9,1.6c0.2,0.5,0.3,1.1,0.3,1.6
			c0,0.5-0.2,1-0.5,1.5c-0.3,0.5-0.7,0.9-1.2,1.3c-0.5,0.4-1.1,0.8-1.8,1.1L25.1,62.9z M24.6,55.2l1.9-0.8c0.9-0.4,1.6-1,1.9-1.7
			s0.3-1.6-0.1-2.4c-0.4-0.9-1-1.5-1.8-1.7c-0.8-0.2-1.8-0.1-2.8,0.3l-1.6,0.7L24.6,55.2z M27.3,61.6l1.9-0.8
			c1.1-0.5,1.8-1.1,2.2-1.9c0.4-0.8,0.4-1.7,0-2.7c-0.4-0.9-1-1.5-1.8-1.8c-0.8-0.3-1.8-0.2-2.8,0.3l-2,0.8L27.3,61.6z"/>
		<path class="st0" d="M33.8,44.3c-0.3,0.3-0.5,0.6-0.6,0.8c-0.1,0.3,0,0.7,0.3,1.2l2.6,6.3c0.6,1.4,1.4,2.4,2.3,3
			c0.9,0.6,1.9,0.6,3,0.2c1.3-0.5,2.1-1.4,2.4-2.5c0.3-1.1,0.2-2.5-0.4-4l-2.5-6c-0.1-0.3-0.2-0.5-0.3-0.6c-0.1-0.2-0.2-0.3-0.3-0.4
			c-0.1-0.1-0.3-0.1-0.4-0.2c-0.2,0-0.3,0-0.6,0l2.3-1c-0.3,0.3-0.5,0.6-0.6,0.8c0,0.3,0,0.7,0.3,1.2l2.5,6c0.7,1.6,0.8,3.1,0.5,4.3
			s-1.3,2.1-2.6,2.7c-1.5,0.6-2.9,0.8-4,0.3c-1.1-0.4-2-1.4-2.7-2.9l-2.8-6.6c-0.1-0.3-0.2-0.5-0.3-0.6c-0.1-0.2-0.2-0.3-0.3-0.4
			c-0.1-0.1-0.3-0.1-0.4-0.2c-0.2,0-0.3,0-0.6,0L33.8,44.3z"/>
		<path class="st0" d="M45.1,39.6c0,0.1-0.1,0.1-0.1,0.2c0,0.1,0,0.2,0,0.3c0,0.1,0.1,0.2,0.2,0.3c0.1,0.1,0.3,0.2,0.5,0.4l5.9,4
			l1.2-6c0.1-0.5,0.1-1,0.1-1.2c0-0.3-0.1-0.5-0.1-0.6c-0.1-0.1-0.1-0.2-0.2-0.3c-0.1,0-0.2-0.1-0.2-0.1l1.7-0.7
			c-0.1,0.1-0.3,0.3-0.4,0.7c-0.1,0.3-0.3,0.8-0.4,1.4l-1.4,7l1.7,4.1c0.2,0.5,0.4,0.9,0.7,1c0.2,0.2,0.6,0.2,1,0.2l-3.3,1.4
			c0.3-0.3,0.5-0.5,0.6-0.8c0-0.3,0-0.7-0.3-1.2l-1.6-3.9l-5.7-3.8c-0.7-0.4-1.2-0.8-1.5-0.9c-0.4-0.2-0.6-0.2-0.8-0.3L45.1,39.6z"
			/>
		<path class="st0" d="M60.5,33.1l1.7-0.7L75.6,39l-3.7-8.8c-0.1-0.3-0.2-0.5-0.3-0.6c-0.1-0.2-0.2-0.3-0.3-0.4
			C71.1,29,71,29,70.8,29c-0.2,0-0.3,0-0.6,0l2.3-1c-0.3,0.3-0.5,0.6-0.6,0.8c-0.1,0.3,0,0.7,0.3,1.2l4.6,11l-0.1,0.1L62.4,34l4,9.6
			c0.2,0.5,0.4,0.9,0.7,1c0.2,0.2,0.6,0.2,1,0.2l-2.3,1c0.3-0.3,0.5-0.5,0.6-0.8c0-0.3,0-0.7-0.3-1.2l-4-9.4
			c-0.1-0.3-0.2-0.5-0.3-0.6c-0.1-0.2-0.2-0.3-0.3-0.4c-0.1-0.1-0.3-0.1-0.4-0.2C60.9,33,60.7,33,60.5,33.1z"/>
		<path class="st0" d="M76.7,33.7c-0.4-0.9-0.6-1.8-0.6-2.7c0-0.9,0.1-1.8,0.4-2.6s0.7-1.5,1.4-2.2c0.6-0.6,1.4-1.1,2.2-1.5
			c0.9-0.4,1.8-0.6,2.7-0.5c0.9,0,1.7,0.2,2.5,0.5c0.8,0.3,1.5,0.9,2.1,1.5c0.6,0.7,1.1,1.4,1.5,2.4c0.4,0.9,0.6,1.8,0.6,2.7
			c0,0.9-0.1,1.8-0.4,2.6c-0.3,0.8-0.7,1.5-1.4,2.2c-0.6,0.6-1.4,1.1-2.2,1.5c-0.9,0.4-1.8,0.6-2.7,0.5c-0.9,0-1.7-0.2-2.5-0.5
			s-1.5-0.9-2.1-1.5C77.6,35.4,77.1,34.6,76.7,33.7z M85.4,37.3c0.7-0.3,1.2-0.7,1.7-1.2c0.5-0.5,0.8-1.1,0.9-1.8s0.2-1.5,0.1-2.3
			c-0.1-0.9-0.4-1.8-0.8-2.8c-0.4-1-0.9-1.9-1.5-2.6c-0.5-0.7-1.1-1.2-1.7-1.5c-0.6-0.3-1.3-0.5-1.9-0.5c-0.7,0-1.3,0.1-2,0.4
			c-0.7,0.3-1.2,0.7-1.7,1.2c-0.4,0.5-0.8,1.1-0.9,1.8c-0.2,0.7-0.2,1.5-0.1,2.3c0.1,0.9,0.4,1.8,0.8,2.8c0.4,1,0.9,1.9,1.5,2.6
			c0.5,0.7,1.1,1.2,1.7,1.5c0.6,0.3,1.3,0.5,1.9,0.5C84,37.7,84.7,37.6,85.4,37.3z"/>
		<path class="st0" d="M90.1,20.6c-0.1,0.1-0.2,0.3-0.2,0.6c0,0.3,0.2,0.6,0.6,1.1l6.4,7.6L96,20.3l-0.1-0.1l0.1,0l-0.2-1.9l0.1,0
			l8.1,8.8l-0.9-9c0-0.5-0.1-0.9-0.2-1.3s-0.2-0.6-0.3-0.7c-0.1-0.2-0.2-0.3-0.3-0.3c-0.1,0-0.2-0.1-0.3-0.1l1.6-0.7
			c-0.1,0.1-0.1,0.1-0.2,0.3c0,0.1-0.1,0.3-0.1,0.5c0,0.2,0,0.5,0,0.9c0,0.4,0,0.8,0.1,1.3l1.2,11.5l-0.1,0l-8.1-8.8l1.1,11.7
			l-0.1,0l-8.2-9.5c-0.4-0.5-0.8-0.8-1-1c-0.3-0.2-0.5-0.2-0.7-0.2L90.1,20.6z"/>
	</g>
</g>
</svg>
