<?xml version="1.0" encoding="utf-8"?>
<!-- Generator: Adobe Illustrator 25.4.1, SVG Export Plug-In . SVG Version: 6.00 Build 0)  -->
<svg version="1.1" id="レイヤー_1" xmlns="http://www.w3.org/2000/svg" xmlns:xlink="http://www.w3.org/1999/xlink" x="0px"
	 y="0px" viewBox="0 0 134 41" style="enable-background:new 0 0 134 41;" xml:space="preserve">
<style type="text/css">
	.st0{fill:#FFFFFF;}
</style>
<g>
	<path class="st0" d="M122,0.1c0,13.6,0,27.1,0,40.7c-40.6,0-81.2,0-121.8,0c0-13.6,0-27.1,0-40.7C40.8,0.1,81.4,0.1,122,0.1z
		 M36.5,37.6c0-11.3,0-22.6,0-33.8c-10.9,0-21.8,0-32.6,0c0,11.3,0,22.6,0,33.8C14.8,37.6,25.6,37.6,36.5,37.6z M103.3,29.6
		c1.1,0,2.2,0,3.3,0c0-4.2,0-8.3,0-12.5c0.1,0.1,0.1,0.1,0.1,0.2c1.7,4.1,3.9,8,5.9,12c0.1,0.2,0.3,0.4,0.4,0.4c1.2,0,2.4,0,3.6,0
		c0-5.8,0-11.6,0-17.3c-1.1,0-2.2,0-3.4,0c0.1,4,0.1,7.9,0.2,11.9c0,0,0,0,0,0c-1.5-4-3.7-7.7-5.6-11.5c-0.1-0.1-0.3-0.3-0.4-0.3
		c-1.3,0-2.7,0-4,0C103.3,18.1,103.3,23.8,103.3,29.6z M83,15.9c0.2-0.7,0.3-1.5,0.6-2.3c0.2-0.6,0-0.8-0.6-1
		c-1.8-0.6-3.6-0.7-5.5-0.4c-3,0.4-5.3,1.9-6.6,4.6c-1,2-1.1,4.1-0.8,6.2c0.5,3.3,2.7,5.7,6,6.4c2.6,0.6,5.1,0.2,7.6-0.5
		c0.4-0.1,0.5-0.3,0.5-0.7c0-2.7,0-5.4,0-8.1c0-0.2,0-0.3,0-0.5c-2,0-4,0-6,0c0,1,0,2,0,3.1c0.8,0,1.7,0,2.5,0c0,1.1,0,2.2,0,3.3
		c0,0.1-0.2,0.4-0.3,0.4c-1.6,0.4-3.8,0.2-5.2-1.5c-1-1.2-1.3-2.7-1.3-4.2c0-3.3,2.1-5.4,5.4-5.4C80.6,15.4,81.8,15.7,83,15.9z
		 M100.8,29.6c0-0.1,0-0.3-0.1-0.4c-1.6-5.5-3.2-11.1-4.8-16.6c-0.1-0.3-0.3-0.4-0.6-0.4c-1.3,0-2.5,0-3.8,0c-0.4,0-0.6,0.1-0.7,0.5
		c-0.9,3.3-1.8,6.5-2.8,9.7c-0.7,2.3-1.3,4.7-2,7.1c1.1,0,2.2,0,3.3,0c0.4,0,0.5-0.1,0.6-0.5c0.3-1.2,0.6-2.3,0.9-3.5
		c0.1-0.4,0.3-0.5,0.6-0.5c1.2,0,2.4,0,3.6,0c0.4,0,0.5,0.1,0.6,0.5c0.3,1.2,0.6,2.4,1,3.6c0,0.2,0.3,0.4,0.4,0.4
		C98.4,29.6,99.6,29.6,100.8,29.6z M61.5,15.5c2.1,0,4.2,0,6.2,0c0-1.1,0-2.2,0-3.2c-3.3,0-6.6,0-9.9,0c0,5.8,0,11.5,0,17.3
		c3.4,0,6.8,0,10.2,0c0-1.1,0-2.1,0-3.2c-2.2,0-4.4,0-6.5,0c0-1.4,0-2.7,0-4.1c2,0,3.9,0,5.9,0c0-1.1,0-2.1,0-3.2c-2,0-3.9,0-5.9,0
		C61.5,17.9,61.5,16.8,61.5,15.5z M45.1,12.3c-1.4,0-2.7,0-4,0c0,0.1,0,0.2,0.1,0.2c1.7,5.6,3.3,11.1,5,16.7
		c0.1,0.3,0.3,0.4,0.5,0.4c1.1,0,2.2,0,3.3,0c0.4,0,0.6-0.1,0.7-0.6c1.3-4.1,2.6-8.3,3.9-12.4c0.4-1.4,0.9-2.9,1.4-4.4
		c-1.2,0-2.3,0-3.4,0c-0.4,0-0.5,0.1-0.6,0.5c-0.4,1.4-0.8,2.8-1.2,4.3c-0.8,2.9-1.5,5.7-2.2,8.4C47.4,21.2,46.2,16.7,45.1,12.3z"/>
	<path class="st0" d="M129.1,10.5c-2.7,0-4.7-2-4.7-4.6c0-2.5,2.1-4.6,4.7-4.6c2.6,0,4.7,2,4.7,4.6C133.8,8.5,131.8,10.5,129.1,10.5
		z M132.6,5.9c0-2-1.5-3.6-3.4-3.6c-2,0-3.5,1.6-3.5,3.7c0,2,1.5,3.6,3.5,3.6C131.1,9.5,132.6,7.9,132.6,5.9z"/>
	<path class="st0" d="M26.4,13.1c1.2,0,2.3,0,3.5,0c0,0.3,0,0.5,0,0.8c-1.1,0-2.2,0-3.3,0c-0.3,0-0.6,0.1-0.8,0.4
		c-0.8,1-2,1.3-3.2,0.9c-0.6-0.2-0.6-0.4-0.3-0.9c0.6-0.8,1.5-1.2,2.6-1.1c0.5,0,0.8-0.1,0.8-0.7c0.1-0.9,0.2-1.7,0.2-2.8
		c-1.1,0.3-2,0.5-3,0.7c0.3,1.1,0.1,2.1-0.7,2.9c-0.3,0.3-0.7,0.4-1,0.6c-0.2-0.4-0.4-0.7-0.5-1.1c-0.2-1.1,0.2-2,1.1-2.7
		c-0.5-0.8-1.1-1.5-1.7-2.3c-0.6,0.8-1.1,1.5-1.7,2.3c0.6,0.5,1.1,1.1,1.1,1.9c0,0.5,0,1-0.1,1.5c-0.1,0.5-0.4,0.5-0.9,0.3
		c-1-0.6-1.5-1.8-1.2-3.3c-0.9-0.2-1.9-0.5-3-0.8c0.1,1.1,0.2,2.1,0.3,3.1c0,0.3,0.3,0.3,0.5,0.3c0.9,0,1.6,0.1,2.3,0.7
		c0.2,0.2,0.3,0.3,0.5,0.5c0.3,0.4,0.2,0.6-0.2,0.8c-1.1,0.5-2.5,0.2-3.3-0.8C14.5,14,14.2,14,13.9,14c-1.1,0-2.2,0-3.3,0
		c0-0.3,0-0.5,0-0.8c1.2,0,2.3,0,3.4,0c-0.1-1.1-0.1-2.2-0.2-3.3c0-0.9,0.1-1,1-0.8c0.9,0.2,1.8,0.4,2.7,0.7c0.3,0.1,0.4,0,0.6-0.2
		c0.5-0.8,1.1-1.5,1.7-2.3c0.4-0.5,0.6-0.5,0.9,0c0.6,0.7,1.1,1.5,1.7,2.3c0.2,0.3,0.3,0.3,0.6,0.2c0.9-0.3,1.8-0.5,2.7-0.7
		c0.8-0.2,0.9,0,0.9,0.8c0,0.5,0,1.1-0.1,1.6C26.6,12,26.5,12.5,26.4,13.1z M21.6,12.9c0.5-0.6,0.8-1.2,0.6-2
		C21.7,11.5,21.5,12.1,21.6,12.9z M18.9,12.8c0.2-0.7,0-1.4-0.6-1.8C18.1,11.8,18.3,12.3,18.9,12.8z M25,14.2c0-0.1,0-0.1-0.1-0.2
		c-0.6-0.1-1.1,0-1.5,0.5c0,0.1,0,0.1,0.1,0.2C23.9,14.5,24.5,14.3,25,14.2z M17.1,14.7c-0.3-0.6-0.8-0.8-1.5-0.5
		C16.1,14.3,16.6,14.5,17.1,14.7z"/>
	<path class="st0" d="M34.2,23.5c-2.4,0-4.6,0-7,0c0.1,1,0.1,1.9,0.3,2.8c0.2,0.8,0.9,1.2,1.8,1.3c1.7,0,3-0.6,4-2
		c0.1-0.1,0.2-0.2,0.2-0.3c0,0,0,0,0.2-0.1c-0.1,0.3,0,0.5-0.1,0.6c-1.1,1.6-2.6,2.2-4.5,2.2c-0.4,0-0.9-0.1-1.3-0.1
		c-1.7-0.4-2.8-1.4-3.2-3.1c-0.3-1.2-0.3-2.4,0-3.6c0.4-1.6,1.4-2.8,3.1-3c1-0.2,2.1-0.1,3,0c1.3,0.2,2.3,1,2.6,2.3
		C33.8,21.4,33.9,22.4,34.2,23.5z M27.1,22.1c1.4,0,2.6,0,3.8,0c0.1,0,0.2,0,0.4-0.1c-0.1-0.7-0.1-1.5-0.2-2.2
		c-0.2-0.9-0.9-1.5-1.8-1.5c-1,0-1.6,0.4-1.9,1.4C27.3,20.4,27.2,21.2,27.1,22.1z"/>
	<path class="st0" d="M8.6,23.5c0.1,0.9,0.1,1.7,0.2,2.4c0.2,1.1,0.9,1.6,1.9,1.6c1.8,0,3.2-0.8,4.2-2.3c0.1,0,0.1,0,0.2,0
		c0,0.2,0.1,0.3,0,0.4c-0.8,1.2-1.9,2.1-3.4,2.2c-0.8,0.1-1.7,0-2.4-0.1c-1.7-0.3-2.7-1.4-3.1-3.1c-0.3-1.2-0.3-2.4,0-3.6
		c0.4-1.8,1.7-3,3.6-3.2c0.9-0.1,1.8-0.1,2.7,0.1c1.9,0.4,2.7,1.8,3,3.6c0.1,0.6,0.1,1.2,0.2,1.9C13.2,23.5,11,23.5,8.6,23.5z
		 M8.6,22c1.5,0,2.8,0,4.2,0c-0.1-0.8-0.1-1.6-0.3-2.4c-0.2-0.9-0.9-1.3-1.9-1.3c-1,0-1.5,0.4-1.7,1.3C8.7,20.4,8.7,21.2,8.6,22z"/>
	<path class="st0" d="M21.2,24.1c0.7-1.8,1.4-3.5,2.1-5.2c0.2-0.4,0.3-0.9-0.4-1c-0.1,0-0.1-0.2-0.3-0.4c0.9,0,1.7,0,2.6,0
		c-0.1,0.2-0.2,0.4-0.3,0.4c-0.6,0.2-0.9,0.6-1,1.2c-1.1,3-2.2,5.9-3.2,8.9c-0.1,0.3-0.1,0.6-0.6,0.6c-0.5,0-0.6-0.2-0.8-0.6
		c-1-2.9-2.1-5.8-3.2-8.7c-0.3-0.7-0.6-1.3-1.4-1.3c-0.1,0-0.2-0.2-0.3-0.4c1.4,0,2.6,0,3.8,0c0.3,0,0.7,0.4,0.8,0.7
		c0.6,1.4,1.1,2.8,1.6,4.2C20.8,23,20.9,23.5,21.2,24.1z"/>
	<path class="st0" d="M5.9,35.5c0-0.4,0-0.7,0-1.1c9.5,0,19,0,28.6,0c0,0.4,0,0.7,0,1.1C25,35.5,15.5,35.5,5.9,35.5z"/>
	<path class="st0" d="M91.7,22.2c0.5-2.2,1.1-4.5,1.7-6.8c0.6,2.3,1.2,4.5,1.8,6.8C94,22.2,92.8,22.2,91.7,22.2z"/>
	<path class="st0" d="M130.3,6c0.9,0.5,0.7,1.5,1.1,2.3c-0.3,0-0.6,0-0.8,0c-0.2-0.1-0.4-0.2-0.5-0.4c-0.1-0.1-0.1-0.3-0.1-0.4
		c-0.3-1-0.4-1.1-1.5-1c0,0.6,0,1.1,0,1.7c-0.1,0-0.1,0.1-0.2,0.1c-0.9,0.1-0.9,0.1-0.9-0.9c0-1.2,0-2.4,0-3.6c1-0.2,2-0.3,2.9,0
		c0.5,0.1,0.8,0.5,0.9,1C131.2,5.4,130.8,5.7,130.3,6z M128.4,4.4c0,0.5,0,0.7,0,1.3c0.5-0.1,1,0,1.3-0.2c0.2-0.2,0.2-0.5,0.1-0.7
		C129.6,4.2,129,4.4,128.4,4.4z"/>
</g>
</svg>
