<?xml version="1.0" encoding="utf-8"?>
<!-- Generator: Adobe Illustrator 25.4.1, SVG Export Plug-In . SVG Version: 6.00 Build 0)  -->
<svg version="1.1" id="レイヤー_1" xmlns="http://www.w3.org/2000/svg" xmlns:xlink="http://www.w3.org/1999/xlink" x="0px"
	 y="0px" viewBox="0 0 187 26" style="enable-background:new 0 0 187 26;" xml:space="preserve">
<style type="text/css">
	.st0{fill:#F08984;}
</style>
<g>
	<path class="st0" d="M0.9,11.7c0-1.4,0.2-2.7,0.5-3.9c0.3-1.2,0.8-2.2,1.4-3c0.6-0.8,1.3-1.5,2.2-1.9c0.8-0.5,1.8-0.7,2.8-0.7
		c1,0,2,0.2,2.8,0.7c0.8,0.5,1.6,1.1,2.2,1.9c0.6,0.8,1.1,1.8,1.4,3c0.3,1.2,0.5,2.5,0.5,3.9c0,1.4-0.2,2.7-0.5,3.9
		c-0.3,1.2-0.8,2.2-1.4,3c-0.6,0.8-1.3,1.5-2.2,1.9c-0.8,0.5-1.8,0.7-2.8,0.7c-1,0-2-0.2-2.8-0.7c-0.8-0.5-1.6-1.1-2.2-1.9
		c-0.6-0.8-1.1-1.8-1.4-3C1,14.4,0.9,13.1,0.9,11.7z M3.2,11.7c0,2.9,0.4,5.1,1.2,6.7c0.8,1.6,1.9,2.4,3.4,2.4
		c1.5,0,2.6-0.8,3.4-2.4c0.8-1.6,1.2-3.8,1.2-6.7S11.9,6.6,11.2,5c-0.8-1.6-1.9-2.4-3.4-2.4C6.3,2.6,5.1,3.4,4.4,5
		C3.6,6.6,3.2,8.8,3.2,11.7z"/>
	<path class="st0" d="M22.7,2.2L22.7,2.2l0.1,15.7c0,0.6,0,1.1,0.1,1.4c0,0.4,0.1,0.7,0.2,0.9c0.1,0.2,0.3,0.4,0.4,0.5
		c0.2,0.1,0.4,0.2,0.7,0.3h-4.9c0.3-0.1,0.5-0.2,0.7-0.3c0.2-0.1,0.3-0.3,0.4-0.5c0.1-0.2,0.2-0.5,0.2-0.9c0-0.4,0.1-0.9,0.1-1.5
		V6.4c0-0.3,0-0.5-0.1-0.8c-0.1-0.2-0.2-0.4-0.4-0.6c-0.2-0.2-0.5-0.3-0.9-0.4c-0.4-0.1-0.9-0.1-1.6-0.1c1.1-0.3,2-0.6,2.7-1
		S22,2.7,22.7,2.2z"/>
	<path class="st0" d="M37.9,18.7v-14c0-0.4,0-0.7-0.1-1c0-0.3-0.1-0.5-0.2-0.7c-0.1-0.2-0.3-0.3-0.4-0.4s-0.4-0.2-0.7-0.3H43
		c0.9,0,1.7,0.1,2.5,0.2c0.8,0.2,1.5,0.4,2.2,0.8c0.6,0.4,1.2,0.9,1.5,1.4c0.4,0.6,0.6,1.3,0.6,2.2c0,0.8-0.1,1.4-0.4,2
		c-0.3,0.6-0.7,1.1-1.2,1.5c-0.5,0.4-1.1,0.8-1.7,1c-0.6,0.3-1.3,0.4-2,0.5l4.4,5.3c0.3,0.3,0.6,0.7,0.9,1.1c0.4,0.4,0.7,0.8,1,1.2
		c0.3,0.4,0.6,0.7,0.9,1c0.3,0.3,0.4,0.4,0.5,0.5h-3.6c0-0.3,0-0.5-0.1-0.7c-0.1-0.2-0.2-0.5-0.4-0.7c-0.2-0.3-0.4-0.5-0.6-0.8
		c-0.2-0.3-0.5-0.6-0.8-1l-4.5-5.6h-2.3v6.5c0,0.8,0.1,1.3,0.3,1.6c0.2,0.3,0.6,0.6,1.1,0.7h-5c0.6-0.2,1-0.4,1.2-0.7
		C37.8,20,37.9,19.5,37.9,18.7z M39.9,11.7h2.7c1.6,0,2.8-0.4,3.7-1.2c0.9-0.8,1.3-1.9,1.3-3.4c0-0.8-0.1-1.5-0.4-2.1
		c-0.3-0.6-0.7-1-1.2-1.3s-1-0.6-1.7-0.7c-0.6-0.1-1.3-0.2-2-0.2h-2.5V11.7z"/>
	<path class="st0" d="M62.6,5.7c1.2,0,2.2,0.2,3.1,0.6c0.9,0.4,1.8,0.9,2.4,1.6c0.7,0.7,1.2,1.5,1.6,2.5c0.4,0.9,0.6,2,0.6,3.1v0
		c0,1.1-0.2,2.2-0.6,3.1s-0.9,1.8-1.6,2.5c-0.7,0.7-1.5,1.2-2.4,1.6c-0.9,0.4-2,0.6-3.1,0.6c-1.2,0-2.2-0.2-3.1-0.6
		c-0.9-0.4-1.8-0.9-2.4-1.6c-0.7-0.7-1.2-1.5-1.6-2.5c-0.4-0.9-0.6-2-0.6-3.1v0c0-1.1,0.2-2.2,0.6-3.1c0.4-0.9,0.9-1.8,1.6-2.5
		c0.7-0.7,1.5-1.2,2.4-1.6C60.4,5.9,61.4,5.7,62.6,5.7z M57,13.4c0,1.1,0.1,2.1,0.4,3c0.3,0.9,0.6,1.7,1.1,2.3
		c0.5,0.7,1.1,1.2,1.8,1.5c0.7,0.4,1.4,0.5,2.3,0.5c0.8,0,1.6-0.2,2.3-0.5c0.7-0.4,1.3-0.9,1.8-1.5c0.5-0.7,0.9-1.4,1.1-2.3
		c0.3-0.9,0.4-1.9,0.4-3c0-1.1-0.1-2.1-0.4-3c-0.3-0.9-0.6-1.7-1.1-2.3c-0.5-0.6-1.1-1.2-1.8-1.5c-0.7-0.4-1.4-0.5-2.3-0.5
		c-0.8,0-1.6,0.2-2.3,0.5C59.6,7,59,7.5,58.5,8.1s-0.9,1.4-1.1,2.3C57.1,11.4,57,12.4,57,13.4z"/>
	<path class="st0" d="M73.1,19.7l0.4-5.1c0.1,1.2,0.3,2.2,0.6,3.1s0.7,1.5,1.1,1.9c0.4,0.5,0.9,0.8,1.5,1c0.6,0.2,1.2,0.3,1.8,0.3
		c1.3,0,2.3-0.3,3-1c0.6-0.6,1-1.4,1-2.4c0-0.5-0.1-1-0.3-1.4c-0.2-0.4-0.4-0.7-0.7-0.9c-0.3-0.2-0.6-0.4-0.9-0.6
		c-0.3-0.1-0.6-0.2-0.9-0.3l-2.9-1c-0.3-0.1-0.6-0.2-1-0.4c-0.4-0.2-0.7-0.4-1-0.7c-0.3-0.3-0.6-0.7-0.8-1.1c-0.2-0.4-0.3-1-0.3-1.6
		c0-1.2,0.4-2.1,1.3-2.8s2.1-1,3.5-1c1,0,1.9,0.2,2.7,0.5c0.8,0.3,1.5,0.7,2.1,1.2L83.2,11c-0.5-1.8-1-3-1.8-3.8
		C80.7,6.4,79.7,6,78.5,6c-1,0-1.8,0.2-2.4,0.7c-0.6,0.5-1,1.2-1,2.1c0,0.4,0.1,0.8,0.3,1.1c0.2,0.3,0.4,0.5,0.7,0.7
		c0.3,0.2,0.5,0.3,0.9,0.5c0.3,0.1,0.6,0.2,0.9,0.3l2.6,0.9c0.3,0.1,0.7,0.3,1.2,0.5c0.4,0.2,0.9,0.5,1.3,0.8c0.4,0.3,0.7,0.7,1,1.2
		c0.3,0.5,0.4,1.1,0.4,1.8c0,0.7-0.1,1.3-0.4,1.8c-0.3,0.6-0.6,1-1.1,1.5c-0.5,0.4-1.1,0.7-1.8,1c-0.7,0.2-1.5,0.4-2.5,0.4
		c-1,0-2-0.1-3-0.4C74.5,20.5,73.7,20.2,73.1,19.7z"/>
	<path class="st0" d="M89.8,5.8c-0.1,0.1-0.3,0.3-0.3,0.6c-0.1,0.3,0,0.7,0.3,1.3l4.5,11l4.3-11c0.1-0.3,0.2-0.6,0.2-0.9
		c0-0.2-0.1-0.4-0.1-0.6S98.4,6.1,98.3,6s-0.2-0.1-0.3-0.2h2.5c-0.2,0.1-0.4,0.3-0.7,0.6c-0.3,0.3-0.6,0.7-0.8,1.3L93.4,22
		c-0.1,0.3-0.3,0.7-0.5,1.1c-0.2,0.4-0.5,0.8-0.8,1.2c-0.3,0.4-0.7,0.7-1.2,1c-0.5,0.3-1,0.5-1.6,0.6l-0.9-2.7
		c0.7,0.4,1.3,0.5,2,0.5c0.6,0,1.2-0.2,1.7-0.6c0.5-0.4,0.9-1,1.2-1.8L87.6,7.5c-0.2-0.6-0.5-0.9-0.6-1.2c-0.2-0.2-0.4-0.4-0.5-0.5
		H89.8z"/>
	<path class="st0" d="M113.3,18.7v-14c0-0.4,0-0.7-0.1-1c0-0.3-0.1-0.5-0.2-0.7c-0.1-0.2-0.3-0.3-0.4-0.4s-0.4-0.2-0.7-0.3h2.6
		l8.1,16.4l7.1-16.4h3.2c-0.6,0.2-0.9,0.4-1.1,0.7c-0.2,0.3-0.3,0.9-0.3,1.6v14c0,0.8,0.1,1.3,0.3,1.6c0.2,0.3,0.6,0.6,1.1,0.7H128
		c0.6-0.2,1-0.4,1.2-0.7c0.2-0.3,0.3-0.9,0.3-1.6V4.2L122,21.1h-0.3l-7.9-15.9v13.5c0,0.8,0.1,1.3,0.3,1.6c0.2,0.3,0.6,0.6,1.1,0.7
		h-3.4c0.6-0.2,1-0.4,1.2-0.7C113.2,20,113.3,19.5,113.3,18.7z"/>
	<path class="st0" d="M143.7,5.7c1.2,0,2.2,0.2,3.1,0.6c0.9,0.4,1.8,0.9,2.4,1.6c0.7,0.7,1.2,1.5,1.6,2.5c0.4,0.9,0.6,2,0.6,3.1v0
		c0,1.1-0.2,2.2-0.6,3.1s-0.9,1.8-1.6,2.5c-0.7,0.7-1.5,1.2-2.4,1.6c-0.9,0.4-2,0.6-3.1,0.6c-1.2,0-2.2-0.2-3.1-0.6
		c-0.9-0.4-1.8-0.9-2.4-1.6s-1.2-1.5-1.6-2.5c-0.4-0.9-0.6-2-0.6-3.1v0c0-1.1,0.2-2.2,0.6-3.1c0.4-0.9,0.9-1.8,1.6-2.5
		c0.7-0.7,1.5-1.2,2.4-1.6S142.6,5.7,143.7,5.7z M138.2,13.4c0,1.1,0.1,2.1,0.4,3c0.3,0.9,0.6,1.7,1.1,2.3c0.5,0.7,1.1,1.2,1.8,1.5
		c0.7,0.4,1.4,0.5,2.3,0.5c0.8,0,1.6-0.2,2.3-0.5c0.7-0.4,1.3-0.9,1.8-1.5c0.5-0.7,0.9-1.4,1.1-2.3c0.3-0.9,0.4-1.9,0.4-3
		c0-1.1-0.1-2.1-0.4-3c-0.3-0.9-0.6-1.7-1.1-2.3S146.7,7,146,6.6c-0.7-0.4-1.4-0.5-2.3-0.5c-0.8,0-1.6,0.2-2.3,0.5
		c-0.7,0.4-1.3,0.9-1.8,1.5c-0.5,0.6-0.9,1.4-1.1,2.3C138.3,11.4,138.2,12.4,138.2,13.4z"/>
	<path class="st0" d="M162,5.7c1.2,0,2.2,0.2,3.1,0.6c0.9,0.4,1.8,0.9,2.4,1.6c0.7,0.7,1.2,1.5,1.6,2.5c0.4,0.9,0.6,2,0.6,3.1v0
		c0,1.1-0.2,2.2-0.6,3.1c-0.4,0.9-0.9,1.8-1.6,2.5s-1.5,1.2-2.4,1.6c-0.9,0.4-2,0.6-3.1,0.6c-1.2,0-2.2-0.2-3.1-0.6
		c-0.9-0.4-1.8-0.9-2.4-1.6c-0.7-0.7-1.2-1.5-1.6-2.5s-0.6-2-0.6-3.1v0c0-1.1,0.2-2.2,0.6-3.1c0.4-0.9,0.9-1.8,1.6-2.5
		c0.7-0.7,1.5-1.2,2.4-1.6C159.8,5.9,160.8,5.7,162,5.7z M156.4,13.4c0,1.1,0.1,2.1,0.4,3c0.3,0.9,0.6,1.7,1.1,2.3
		c0.5,0.7,1.1,1.2,1.8,1.5c0.7,0.4,1.4,0.5,2.3,0.5c0.8,0,1.6-0.2,2.3-0.5c0.7-0.4,1.3-0.9,1.8-1.5c0.5-0.7,0.9-1.4,1.1-2.3
		c0.3-0.9,0.4-1.9,0.4-3c0-1.1-0.1-2.1-0.4-3c-0.3-0.9-0.6-1.7-1.1-2.3s-1.1-1.2-1.8-1.5c-0.7-0.4-1.4-0.5-2.3-0.5
		c-0.8,0-1.6,0.2-2.3,0.5c-0.7,0.4-1.3,0.9-1.8,1.5c-0.5,0.6-0.9,1.4-1.1,2.3C156.5,11.4,156.4,12.4,156.4,13.4z"/>
	<path class="st0" d="M179.8,5.7c0.8,0,1.6,0.1,2.4,0.4c0.7,0.3,1.4,0.7,2,1.2V2.9c0-0.6,0-1-0.1-1.2c-0.1-0.3-0.3-0.5-0.5-0.7
		l2.7-0.3v17.8c0,0.8,0.1,1.3,0.2,1.7c0.1,0.4,0.3,0.7,0.6,0.9l-2.6,0.1v-2.1c-0.6,0.8-1.2,1.3-2,1.6s-1.6,0.5-2.4,0.5
		c-1.1,0-2.2-0.2-3.1-0.6c-0.9-0.4-1.7-0.9-2.4-1.6s-1.2-1.4-1.5-2.3c-0.4-0.9-0.5-1.9-0.5-2.9c0-1.2,0.2-2.3,0.6-3.3
		c0.4-1,0.9-1.9,1.6-2.6c0.7-0.7,1.5-1.3,2.4-1.7C177.7,5.9,178.7,5.7,179.8,5.7z M174.4,12.7c0,1.1,0.1,2.1,0.4,3.1
		c0.3,1,0.6,1.8,1.2,2.6c0.5,0.7,1.1,1.3,1.9,1.7c0.7,0.4,1.6,0.6,2.5,0.6c0.8,0,1.5-0.2,2.1-0.6s1.2-0.9,1.7-1.6V9.4
		c-0.5-1.1-1.1-2-1.9-2.5c-0.8-0.5-1.7-0.8-2.7-0.8c-0.8,0-1.5,0.2-2.2,0.5c-0.6,0.3-1.2,0.8-1.6,1.3c-0.4,0.6-0.8,1.3-1,2.1
		S174.4,11.7,174.4,12.7z"/>
</g>
</svg>
