<?xml version="1.0" encoding="utf-8"?>
<!-- Generator: Adobe Illustrator 25.4.1, SVG Export Plug-In . SVG Version: 6.00 Build 0)  -->
<svg version="1.1" id="レイヤー_1" xmlns="http://www.w3.org/2000/svg" xmlns:xlink="http://www.w3.org/1999/xlink" x="0px"
	 y="0px" viewBox="0 0 223 26" style="enable-background:new 0 0 223 26;" xml:space="preserve">
<style type="text/css">
	.st0{fill:#F08984;}
</style>
<g>
	<path class="st0" d="M0.4,11.7c0-1.4,0.2-2.7,0.5-3.9c0.3-1.2,0.8-2.2,1.4-3c0.6-0.8,1.3-1.5,2.2-1.9c0.8-0.5,1.8-0.7,2.8-0.7
		c1,0,2,0.2,2.8,0.7s1.6,1.1,2.2,1.9c0.6,0.8,1.1,1.8,1.4,3c0.3,1.2,0.5,2.5,0.5,3.9c0,1.4-0.2,2.7-0.5,3.9c-0.3,1.2-0.8,2.2-1.4,3
		c-0.6,0.8-1.3,1.5-2.2,1.9s-1.8,0.7-2.8,0.7c-1,0-2-0.2-2.8-0.7c-0.8-0.5-1.6-1.1-2.2-1.9c-0.6-0.8-1.1-1.8-1.4-3
		C0.6,14.4,0.4,13.1,0.4,11.7z M2.7,11.7c0,2.9,0.4,5.1,1.2,6.7c0.8,1.6,1.9,2.4,3.4,2.4c1.5,0,2.6-0.8,3.4-2.4
		c0.8-1.6,1.2-3.8,1.2-6.7S11.5,6.6,10.7,5C9.9,3.4,8.8,2.6,7.3,2.6C5.8,2.6,4.7,3.4,3.9,5C3.1,6.6,2.7,8.8,2.7,11.7z"/>
	<path class="st0" d="M17.7,20.9c1.6-1.6,2.9-3,4.1-4.3s2.1-2.5,2.8-3.6c0.7-1.1,1.3-2.2,1.6-3.2c0.4-1,0.5-2,0.5-2.9
		c0-1.4-0.3-2.4-0.9-3.2s-1.4-1.1-2.4-1.1c-0.4,0-0.9,0.1-1.4,0.3c-0.5,0.2-1,0.5-1.4,1c-0.5,0.5-0.9,1.1-1.3,2
		c-0.4,0.8-0.8,1.9-1.1,3.2l0.3-5.3c0.8-0.5,1.6-0.9,2.4-1.2s1.7-0.4,2.7-0.4c1.7,0,3,0.4,4,1.1C28.6,4,29.1,5,29.1,6.2
		c0,0.8-0.2,1.6-0.6,2.5c-0.4,0.9-1,1.9-1.8,3c-0.8,1.1-1.8,2.3-2.9,3.5c-1.2,1.3-2.5,2.7-4,4.2h5.8c0.7,0,1.3,0,1.7-0.1
		s0.8-0.2,1.2-0.3c0.3-0.2,0.6-0.4,0.8-0.7c0.2-0.3,0.4-0.7,0.6-1.2l-0.1,4H17.8L17.7,20.9z"/>
	<path class="st0" d="M44,17.2L51,2.3h0.2L59,19.2c0.3,0.6,0.6,1.1,0.8,1.4c0.2,0.3,0.5,0.4,0.7,0.5h-4.1c0.1-0.1,0.2-0.1,0.4-0.2
		c0.1-0.1,0.2-0.2,0.2-0.4c0.1-0.2,0.1-0.4,0-0.7c0-0.3-0.2-0.6-0.4-1.1l-2.2-4.8h-8.3L44,18.5c-0.2,0.5-0.4,0.9-0.4,1.2
		c-0.1,0.3-0.1,0.6-0.1,0.7c0,0.2,0.1,0.3,0.2,0.4c0.1,0.1,0.2,0.2,0.3,0.2h-2.4c0.1,0,0.3-0.1,0.4-0.2c0.1-0.1,0.3-0.3,0.5-0.6
		c0.2-0.3,0.4-0.6,0.6-1.1C43.3,18.7,43.6,18.1,44,17.2z M54.3,13.4l-4-8.5l-4,8.5H54.3z"/>
	<path class="st0" d="M64.5,18.7v-10c0-0.4,0-0.7,0-1c0-0.3-0.1-0.5-0.1-0.7c-0.1-0.2-0.1-0.4-0.2-0.6c-0.1-0.2-0.2-0.4-0.4-0.5
		l2.8-0.2v4.3c0.4-1.3,1.1-2.3,2.1-3.1s2.2-1.1,3.6-1.1c1.6,0,2.8,0.4,3.7,1.2s1.4,1.8,1.6,3.1c0.4-1.4,1.1-2.4,2.1-3.2
		c1-0.8,2.2-1.2,3.6-1.2c0.8,0,1.6,0.1,2.3,0.4c0.7,0.2,1.2,0.6,1.7,1c0.5,0.5,0.8,1,1.1,1.6c0.2,0.6,0.4,1.3,0.4,2v8
		c0,0.4,0,0.7,0.1,1c0,0.3,0.1,0.5,0.2,0.7c0.1,0.2,0.3,0.3,0.4,0.4c0.2,0.1,0.4,0.2,0.7,0.3h-4.8c0.3-0.1,0.5-0.2,0.7-0.3
		c0.2-0.1,0.3-0.2,0.4-0.4c0.1-0.2,0.2-0.4,0.2-0.7c0-0.3,0.1-0.6,0.1-1v-8.3c0-1.3-0.3-2.4-1-3.2c-0.6-0.8-1.6-1.2-2.8-1.2
		c-0.6,0-1.3,0.1-1.9,0.4c-0.6,0.3-1.1,0.7-1.6,1.2c-0.5,0.5-0.9,1.1-1.2,1.9c-0.3,0.7-0.5,1.6-0.6,2.5v6.6c0,0.4,0,0.7,0.1,1
		c0,0.3,0.1,0.5,0.2,0.7c0.1,0.2,0.3,0.3,0.4,0.4c0.2,0.1,0.4,0.2,0.7,0.3h-4.8c0.3-0.1,0.5-0.2,0.7-0.3c0.2-0.1,0.3-0.2,0.4-0.4
		c0.1-0.2,0.2-0.4,0.2-0.7s0.1-0.6,0.1-1v-8.3c0-1.3-0.3-2.4-1-3.2c-0.6-0.8-1.6-1.2-2.8-1.2c-0.6,0-1.3,0.1-1.9,0.4
		c-0.6,0.3-1.1,0.7-1.6,1.2c-0.5,0.5-0.9,1.1-1.2,1.9c-0.3,0.7-0.5,1.6-0.6,2.5v6.6c0,0.4,0,0.7,0.1,1c0,0.3,0.1,0.5,0.2,0.7
		c0.1,0.2,0.3,0.3,0.4,0.4c0.2,0.1,0.4,0.2,0.7,0.3H63c0.3-0.1,0.5-0.2,0.7-0.3c0.2-0.1,0.3-0.2,0.4-0.4c0.1-0.2,0.2-0.4,0.2-0.7
		S64.5,19.1,64.5,18.7z"/>
	<path class="st0" d="M92.6,1l2.7-0.3v6.9c0.3-0.4,0.7-0.7,1.1-0.9c0.4-0.2,0.8-0.4,1.1-0.6c0.4-0.1,0.8-0.2,1.2-0.3
		s0.8-0.1,1.1-0.1c1.2,0,2.2,0.2,3.2,0.5c0.9,0.4,1.7,0.8,2.4,1.5s1.2,1.4,1.5,2.3c0.4,0.9,0.5,1.9,0.5,3c0,1.1-0.2,2.2-0.6,3.2
		c-0.4,1-0.9,1.9-1.6,2.6c-0.7,0.7-1.5,1.3-2.4,1.8c-0.9,0.4-2,0.6-3.1,0.6c-1.9,0-3.5-0.6-4.8-1.9l-1.5,1.8l-0.1-0.1V2.9
		c0-0.6,0-1-0.1-1.2C93,1.4,92.9,1.2,92.6,1z M99.8,20.8c0.8,0,1.6-0.2,2.3-0.5c0.7-0.3,1.2-0.8,1.7-1.4c0.5-0.6,0.8-1.3,1.1-2.1
		c0.3-0.8,0.4-1.7,0.4-2.7c0-1.1-0.1-2.1-0.4-3.1c-0.3-1-0.6-1.8-1.1-2.5c-0.5-0.7-1.1-1.3-1.9-1.7c-0.8-0.4-1.6-0.6-2.6-0.6
		c-0.7,0-1.4,0.1-2.1,0.4c-0.7,0.3-1.4,0.8-1.9,1.5v9.7c0.5,1,1.2,1.8,1.9,2.3C97.9,20.5,98.8,20.8,99.8,20.8z"/>
	<path class="st0" d="M117.2,5.7c1.1,0,2,0.2,2.8,0.5c0.8,0.3,1.5,0.7,2,1.3c0.5,0.6,0.9,1.2,1.2,2c0.3,0.8,0.4,1.6,0.4,2.5h-11.4
		c0,0.3-0.1,0.5-0.1,0.8c0,0.3,0,0.6,0,0.9c0,1,0.1,2,0.4,2.9c0.3,0.9,0.7,1.7,1.2,2.3c0.5,0.6,1.1,1.2,1.8,1.5
		c0.7,0.4,1.4,0.6,2.2,0.6c0.7,0,1.4-0.1,2-0.4c0.6-0.3,1.1-0.6,1.6-1.1c0.5-0.5,0.9-1.1,1.3-1.7c0.4-0.7,0.7-1.4,1-2.2l-0.2,3.9
		c-0.8,0.7-1.7,1.2-2.7,1.5c-1,0.3-2,0.5-2.9,0.5c-1.1,0-2.2-0.2-3.1-0.6c-1-0.4-1.8-0.9-2.5-1.6c-0.7-0.7-1.2-1.5-1.6-2.4
		c-0.4-1-0.6-2-0.6-3.2c0-1.1,0.2-2.2,0.5-3.1c0.3-1,0.8-1.8,1.4-2.5c0.6-0.7,1.4-1.2,2.3-1.6C115.1,5.9,116.1,5.7,117.2,5.7z
		 M112.3,11.6h9.2c0-0.8-0.1-1.5-0.3-2.2c-0.2-0.7-0.5-1.3-0.8-1.8c-0.4-0.5-0.8-0.9-1.3-1.2c-0.5-0.3-1.1-0.4-1.8-0.4
		c-0.6,0-1.2,0.1-1.8,0.4c-0.5,0.3-1,0.7-1.4,1.1c-0.4,0.5-0.8,1.1-1.1,1.8S112.4,10.8,112.3,11.6z"/>
	<path class="st0" d="M126.6,21.1c0.3-0.1,0.5-0.2,0.7-0.3c0.2-0.1,0.3-0.2,0.4-0.4c0.1-0.2,0.2-0.4,0.2-0.7c0-0.3,0.1-0.6,0.1-1
		v-10c0-0.4,0-0.7,0-1c0-0.3-0.1-0.5-0.1-0.7c-0.1-0.2-0.1-0.4-0.2-0.6c-0.1-0.2-0.2-0.4-0.4-0.5l2.7-0.2v3.6c0.2-0.5,0.5-1,0.7-1.4
		c0.3-0.4,0.6-0.8,0.9-1.1s0.8-0.6,1.3-0.8c0.5-0.2,1-0.3,1.6-0.3c0.6,0,1.1,0.1,1.5,0.2l0,2.6c-0.2-0.2-0.4-0.4-0.6-0.6
		c-0.2-0.2-0.5-0.4-0.7-0.6c-0.3-0.2-0.5-0.3-0.8-0.4s-0.5-0.2-0.8-0.2c-0.4,0-0.7,0.1-1,0.3c-0.3,0.2-0.6,0.4-0.9,0.7
		c-0.3,0.3-0.5,0.6-0.7,1.1c-0.2,0.4-0.4,0.8-0.6,1.3v8.7c0,0.4,0,0.7,0.1,1c0,0.3,0.1,0.5,0.2,0.7c0.1,0.2,0.3,0.3,0.4,0.4
		c0.2,0.1,0.4,0.2,0.7,0.3H126.6z"/>
	<path class="st0" d="M149,18.7v-14c0-0.4,0-0.7-0.1-1c0-0.3-0.1-0.5-0.2-0.7c-0.1-0.2-0.3-0.3-0.4-0.4s-0.4-0.2-0.7-0.3h2.6
		l8.1,16.4l7.1-16.4h3.2c-0.6,0.2-0.9,0.4-1.1,0.7c-0.2,0.3-0.3,0.9-0.3,1.6v14c0,0.8,0.1,1.3,0.3,1.6c0.2,0.3,0.6,0.6,1.1,0.7h-4.9
		c0.6-0.2,1-0.4,1.2-0.7c0.2-0.3,0.3-0.9,0.3-1.6V4.2l-7.4,16.9h-0.3l-7.9-15.9v13.5c0,0.8,0.1,1.3,0.3,1.6c0.2,0.3,0.6,0.6,1.1,0.7
		h-3.4c0.6-0.2,1-0.4,1.2-0.7C148.9,20,149,19.5,149,18.7z"/>
	<path class="st0" d="M179.4,5.7c1.2,0,2.2,0.2,3.1,0.6c0.9,0.4,1.8,0.9,2.4,1.6c0.7,0.7,1.2,1.5,1.6,2.5c0.4,0.9,0.6,2,0.6,3.1v0
		c0,1.1-0.2,2.2-0.6,3.1s-0.9,1.8-1.6,2.5c-0.7,0.7-1.5,1.2-2.4,1.6c-0.9,0.4-2,0.6-3.1,0.6c-1.2,0-2.2-0.2-3.1-0.6
		c-0.9-0.4-1.8-0.9-2.4-1.6s-1.2-1.5-1.6-2.5s-0.6-2-0.6-3.1v0c0-1.1,0.2-2.2,0.6-3.1c0.4-0.9,0.9-1.8,1.6-2.5
		c0.7-0.7,1.5-1.2,2.4-1.6C177.2,5.9,178.2,5.7,179.4,5.7z M173.8,13.4c0,1.1,0.1,2.1,0.4,3c0.3,0.9,0.6,1.7,1.1,2.3
		c0.5,0.7,1.1,1.2,1.8,1.5c0.7,0.4,1.4,0.5,2.3,0.5c0.8,0,1.6-0.2,2.3-0.5c0.7-0.4,1.3-0.9,1.8-1.5c0.5-0.7,0.9-1.4,1.1-2.3
		c0.3-0.9,0.4-1.9,0.4-3c0-1.1-0.1-2.1-0.4-3c-0.3-0.9-0.6-1.7-1.1-2.3s-1.1-1.2-1.8-1.5c-0.7-0.4-1.4-0.5-2.3-0.5
		c-0.8,0-1.6,0.2-2.3,0.5c-0.7,0.4-1.3,0.9-1.8,1.5c-0.5,0.6-0.9,1.4-1.1,2.3C174,11.4,173.8,12.4,173.8,13.4z"/>
	<path class="st0" d="M197.6,5.7c1.2,0,2.2,0.2,3.1,0.6s1.8,0.9,2.4,1.6c0.7,0.7,1.2,1.5,1.6,2.5c0.4,0.9,0.6,2,0.6,3.1v0
		c0,1.1-0.2,2.2-0.6,3.1s-0.9,1.8-1.6,2.5s-1.5,1.2-2.4,1.6c-0.9,0.4-2,0.6-3.1,0.6c-1.2,0-2.2-0.2-3.1-0.6
		c-0.9-0.4-1.8-0.9-2.4-1.6s-1.2-1.5-1.6-2.5s-0.6-2-0.6-3.1v0c0-1.1,0.2-2.2,0.6-3.1c0.4-0.9,0.9-1.8,1.6-2.5
		c0.7-0.7,1.5-1.2,2.4-1.6S196.5,5.7,197.6,5.7z M192.1,13.4c0,1.1,0.1,2.1,0.4,3c0.3,0.9,0.6,1.7,1.1,2.3c0.5,0.7,1.1,1.2,1.8,1.5
		c0.7,0.4,1.4,0.5,2.3,0.5c0.8,0,1.6-0.2,2.3-0.5c0.7-0.4,1.3-0.9,1.8-1.5c0.5-0.7,0.9-1.4,1.1-2.3c0.3-0.9,0.4-1.9,0.4-3
		c0-1.1-0.1-2.1-0.4-3c-0.3-0.9-0.6-1.7-1.1-2.3s-1.1-1.2-1.8-1.5c-0.7-0.4-1.4-0.5-2.3-0.5c-0.8,0-1.6,0.2-2.3,0.5
		c-0.7,0.4-1.3,0.9-1.8,1.5c-0.5,0.6-0.9,1.4-1.1,2.3C192.2,11.4,192.1,12.4,192.1,13.4z"/>
	<path class="st0" d="M215.5,5.7c0.8,0,1.6,0.1,2.4,0.4c0.7,0.3,1.4,0.7,2,1.2V2.9c0-0.6,0-1-0.1-1.2c-0.1-0.3-0.3-0.5-0.5-0.7
		l2.7-0.3v17.8c0,0.8,0.1,1.3,0.2,1.7c0.1,0.4,0.3,0.7,0.6,0.9l-2.6,0.1v-2.1c-0.6,0.8-1.2,1.3-2,1.6s-1.6,0.5-2.4,0.5
		c-1.1,0-2.2-0.2-3.1-0.6c-0.9-0.4-1.7-0.9-2.4-1.6s-1.2-1.4-1.5-2.3c-0.4-0.9-0.5-1.9-0.5-2.9c0-1.2,0.2-2.3,0.6-3.3
		c0.4-1,0.9-1.9,1.6-2.6c0.7-0.7,1.5-1.3,2.4-1.7C213.4,5.9,214.4,5.7,215.5,5.7z M210.1,12.7c0,1.1,0.1,2.1,0.4,3.1
		c0.3,1,0.6,1.8,1.2,2.6s1.1,1.3,1.9,1.7c0.7,0.4,1.6,0.6,2.5,0.6c0.8,0,1.5-0.2,2.1-0.6s1.2-0.9,1.7-1.6V9.4
		c-0.5-1.1-1.1-2-1.9-2.5c-0.8-0.5-1.7-0.8-2.7-0.8c-0.8,0-1.5,0.2-2.2,0.5c-0.6,0.3-1.2,0.8-1.6,1.3c-0.4,0.6-0.8,1.3-1,2.1
		S210.1,11.7,210.1,12.7z"/>
</g>
</svg>
