<?xml version="1.0" encoding="utf-8"?>
<!-- Generator: Adobe Illustrator 25.4.1, SVG Export Plug-In . SVG Version: 6.00 Build 0)  -->
<svg version="1.1" id="レイヤー_1" xmlns="http://www.w3.org/2000/svg" xmlns:xlink="http://www.w3.org/1999/xlink" x="0px"
	 y="0px" viewBox="0 0 46 66" style="enable-background:new 0 0 46 66;" xml:space="preserve">
<style type="text/css">
	.st0{fill:#FFFFFF;}
	.st1{fill:#DF8B8B;}
</style>
<g>
	<g>
		<path class="st0" d="M4,14.4L0.1,6.1l1.1-0.5l3.9,8.3L4,14.4z M3.2,10.8l-0.5-1L5,8.8c0.3-0.1,0.6-0.3,0.7-0.6S6,7.7,6.1,7.4
			c0-0.3,0-0.6-0.2-0.9C5.7,6.2,5.5,5.9,5.3,5.8C5,5.6,4.8,5.5,4.5,5.5c-0.3,0-0.6,0.1-0.9,0.2L1.3,6.8l-0.5-1l2.3-1.1
			c0.5-0.2,1-0.3,1.5-0.3c0.5,0,1,0.2,1.4,0.4C6.4,5.1,6.8,5.5,7,6c0.2,0.5,0.3,1,0.3,1.5C7.2,8,7.1,8.4,6.7,8.8S6,9.5,5.5,9.8
			L3.2,10.8z"/>
		<path class="st0" d="M15.6,10.4c-0.6,0.1-1.3,0.1-1.9,0c-0.6-0.1-1.1-0.4-1.6-0.7s-0.9-0.8-1.3-1.3c-0.3-0.5-0.6-1.1-0.7-1.7
			C10,6,10,5.4,10.1,4.8c0.1-0.6,0.4-1.2,0.7-1.7c0.3-0.5,0.7-0.9,1.2-1.3c0.5-0.3,1.1-0.6,1.7-0.7c0.6-0.1,1.3-0.1,1.8,0
			c0.6,0.1,1.1,0.4,1.6,0.7c0.5,0.3,0.9,0.8,1.3,1.3c0.3,0.5,0.6,1.1,0.7,1.7c0.1,0.6,0.1,1.3,0,1.9c-0.1,0.6-0.4,1.2-0.7,1.7
			c-0.3,0.5-0.7,0.9-1.2,1.3C16.8,10.1,16.2,10.3,15.6,10.4z M15.3,9.3c0.6-0.1,1.2-0.4,1.6-0.8c0.4-0.4,0.7-0.9,0.9-1.4
			s0.2-1.2,0.1-1.9c-0.1-0.5-0.3-0.9-0.5-1.3c-0.2-0.4-0.5-0.7-0.9-1c-0.4-0.3-0.7-0.4-1.2-0.5c-0.4-0.1-0.9-0.1-1.4,0
			c-0.6,0.1-1.2,0.4-1.6,0.8C12,3.5,11.7,4,11.5,4.5c-0.2,0.6-0.2,1.2-0.1,1.9c0.1,0.5,0.3,0.9,0.5,1.3c0.2,0.4,0.5,0.7,0.9,1
			C13.1,9,13.5,9.1,14,9.2S14.8,9.3,15.3,9.3z"/>
		<path class="st0" d="M22.1,9.6l0.1-9.1l1.2,0l-0.1,9.1L22.1,9.6z"/>
		<path class="st0" d="M25.9,9.6l1.6-9l0.9,0.2l0.1,1.5l-1.4,7.6L25.9,9.6z M32.1,10.7l-4.2-8.4l0.5-1.6l4.2,8.4L32.1,10.7z
			 M32.1,10.7L32,9.3l1.4-7.7l1.2,0.2l-1.6,9L32.1,10.7z"/>
		<path class="st0" d="M37.4,12.6L41,4.5L42.1,5l-3.6,8.1L37.4,12.6z M37.8,4.1l0.5-1l6.8,3l-0.5,1L37.8,4.1z"/>
	</g>
	<circle class="st0" cx="23" cy="42.6" r="23"/>
	<g>
		<path class="st1" d="M15.6,50.9l7-7.5c0.6-0.6,1.1-1.2,1.4-1.7c0.4-0.5,0.6-1,0.8-1.4s0.2-0.9,0.2-1.3c0-0.9-0.3-1.5-0.8-2
			c-0.6-0.5-1.3-0.7-2.1-0.7c-0.9,0-1.7,0.2-2.4,0.7c-0.7,0.5-1.3,1.2-1.9,2.1l-2.2-1.8c0.7-1.3,1.7-2.3,2.8-2.9
			c1.1-0.7,2.4-1,3.8-1c1.2,0,2.2,0.2,3.1,0.7c0.9,0.5,1.6,1.1,2.1,2c0.5,0.8,0.7,1.8,0.7,2.9c0,0.8-0.1,1.5-0.3,2.1
			c-0.2,0.6-0.5,1.3-1,1.9c-0.5,0.6-1.1,1.4-1.9,2.2l-5.4,5.6L15.6,50.9z M15.6,52.7v-1.9l2.7-1h10.3v2.8H15.6z"/>
	</g>
</g>
</svg>
