<?xml version="1.0" encoding="utf-8"?>
<!-- Generator: Adobe Illustrator 25.4.1, SVG Export Plug-In . SVG Version: 6.00 Build 0)  -->
<svg version="1.1" id="レイヤー_1" xmlns="http://www.w3.org/2000/svg" xmlns:xlink="http://www.w3.org/1999/xlink" x="0px"
	 y="0px" viewBox="0 0 131 71" style="enable-background:new 0 0 131 71;" xml:space="preserve">
<style type="text/css">
	.st0{fill:#C64359;}
	.st1{fill:#FFFFFF;stroke:#FFFFFF;stroke-width:0.25;stroke-miterlimit:10;}
</style>
<g>
	<ellipse transform="matrix(0.1815 -0.9834 0.9834 0.1815 18.7 93.4677)" class="st0" cx="65.5" cy="35.5" rx="33.7" ry="66.2"/>
	<g>
		<g>
			<path class="st1" d="M29.3,19.9L29.3,19.9L29.3,19.9l0.2,0l-2.2,11.7l2.3,0.4l-0.5,1.3L27.1,33l-0.3,1.6c-0.1,0.6-0.2,1-0.2,1.4
				c0,0.4,0,0.6,0.1,0.9c0.1,0.2,0.2,0.4,0.3,0.6c0.1,0.1,0.3,0.3,0.6,0.4L23,36.9c0.3,0,0.5-0.1,0.7-0.2c0.2-0.1,0.4-0.2,0.5-0.4
				c0.1-0.2,0.3-0.5,0.4-0.8c0.1-0.3,0.2-0.8,0.3-1.4l0.3-1.6L17,31.1l0-0.2L29.3,19.9z M25.5,31.3l1.6-8.9L18.6,30L25.5,31.3z"/>
			<path class="st1" d="M37.7,39.6c0.6-0.1,1-0.2,1.2-0.5c0.2-0.3,0.4-0.8,0.6-1.5l2.4-13.1c0.1-0.4,0.1-0.7,0.1-0.9
				c0-0.3,0-0.5-0.1-0.7c-0.1-0.2-0.2-0.4-0.3-0.5c-0.2-0.1-0.4-0.3-0.6-0.4l6.5,1.2c0.8,0.1,1.5,0.4,2.3,0.7c0.8,0.3,1.4,0.7,2,1.2
				s1,1.1,1.3,1.8c0.3,0.7,0.4,1.5,0.2,2.4c-0.2,0.9-0.5,1.7-1.1,2.2c-0.5,0.6-1.2,1-1.9,1.3c-0.7,0.3-1.5,0.5-2.4,0.6
				c-0.8,0.1-1.6,0-2.4-0.1l-3.1-0.6l-1,5.2c-0.1,0.7-0.1,1.3,0,1.6c0.1,0.3,0.5,0.6,0.9,0.9L37.7,39.6z M44.2,23l-1.7,9.3l2.7,0.5
				c0.7,0.1,1.3,0.2,2,0.1c0.7-0.1,1.3-0.2,1.8-0.5s1-0.7,1.4-1.3c0.4-0.5,0.7-1.2,0.8-2.1c0.3-1.5,0-2.7-0.7-3.6
				c-0.8-0.9-2-1.6-3.6-1.9L44.2,23z"/>
			<path class="st1" d="M62.6,29.3c1.1,0.2,2,0.6,2.9,1.1c0.8,0.5,1.5,1.2,2,1.9c0.5,0.8,0.9,1.6,1.1,2.6c0.2,1,0.2,2,0,3l0,0
				c-0.2,1.1-0.6,2-1.1,2.8c-0.5,0.8-1.2,1.5-1.9,2c-0.8,0.5-1.6,0.9-2.6,1.1c-1,0.2-2,0.2-3,0c-1.1-0.2-2-0.6-2.9-1.1
				c-0.8-0.5-1.5-1.2-2-1.9c-0.5-0.8-0.9-1.6-1.1-2.6c-0.2-1-0.2-2,0-3l0,0c0.2-1.1,0.6-2,1.1-2.8c0.5-0.8,1.2-1.5,1.9-2
				c0.8-0.5,1.6-0.9,2.6-1.1C60.5,29.1,61.5,29.1,62.6,29.3z M56,35.6c-0.2,1-0.2,2-0.1,2.9c0.1,0.9,0.3,1.7,0.7,2.4
				c0.3,0.7,0.8,1.3,1.4,1.7c0.6,0.5,1.3,0.8,2,0.9c0.8,0.1,1.5,0.1,2.2-0.1c0.7-0.2,1.3-0.6,1.9-1.1c0.6-0.5,1.1-1.2,1.5-2
				c0.4-0.8,0.7-1.7,0.9-2.7c0.2-1,0.2-2,0.1-2.9c-0.1-0.9-0.3-1.7-0.7-2.4c-0.3-0.7-0.8-1.3-1.4-1.7c-0.6-0.5-1.3-0.8-2-0.9
				c-0.8-0.1-1.5-0.1-2.2,0.1c-0.7,0.2-1.3,0.6-1.9,1.1s-1.1,1.2-1.5,2C56.5,33.7,56.2,34.6,56,35.6z"/>
			<path class="st1" d="M68.7,45.3c0.3,0,0.5-0.1,0.7-0.2c0.2-0.1,0.3-0.2,0.5-0.3c0.1-0.1,0.2-0.3,0.3-0.6c0.1-0.2,0.2-0.5,0.2-0.9
				l1.7-9.3c0.1-0.4,0.1-0.7,0.1-0.9c0-0.3,0-0.5,0-0.7c0-0.2-0.1-0.4-0.1-0.6c-0.1-0.2-0.1-0.4-0.2-0.6l2.6,0.2l-2.3,12.3
				c-0.1,0.4-0.1,0.7-0.1,0.9c0,0.3,0,0.5,0.1,0.7c0.1,0.2,0.2,0.3,0.3,0.5c0.1,0.1,0.3,0.3,0.6,0.4L68.7,45.3z M74.3,26.9
				c0.4,0.1,0.7,0.2,0.9,0.5c0.2,0.3,0.3,0.6,0.2,1c-0.1,0.4-0.3,0.7-0.6,0.9c-0.3,0.2-0.6,0.2-1,0.2c-0.4-0.1-0.7-0.2-0.9-0.5
				c-0.2-0.3-0.3-0.6-0.2-1c0.1-0.4,0.3-0.7,0.6-0.9C73.6,26.9,73.9,26.8,74.3,26.9z"/>
			<path class="st1" d="M74.5,46.4c0.3,0,0.5-0.1,0.7-0.2c0.2-0.1,0.3-0.2,0.5-0.3c0.1-0.1,0.2-0.3,0.3-0.6c0.1-0.2,0.2-0.5,0.2-0.9
				l1.7-9.3c0.1-0.4,0.1-0.7,0.1-0.9c0-0.3,0-0.5,0-0.7c0-0.2-0.1-0.4-0.1-0.6c-0.1-0.2-0.1-0.4-0.2-0.6l2.6,0.2l-0.7,4
				c0.6-1.2,1.5-2,2.6-2.6c1.1-0.5,2.3-0.7,3.7-0.4c0.8,0.1,1.5,0.4,2.1,0.7c0.6,0.3,1.1,0.8,1.4,1.3c0.4,0.5,0.6,1.1,0.7,1.7
				c0.1,0.6,0.1,1.3,0,2l-1.4,7.5c-0.1,0.4-0.1,0.7-0.1,0.9c0,0.3,0,0.5,0.1,0.7c0.1,0.2,0.2,0.3,0.3,0.5c0.1,0.1,0.3,0.3,0.6,0.4
				l-4.5-0.8c0.3,0,0.5-0.1,0.7-0.2c0.2-0.1,0.3-0.2,0.5-0.3c0.1-0.1,0.2-0.3,0.3-0.6c0.1-0.2,0.2-0.5,0.2-0.9l1.4-7.7
				c0.2-1.3,0.1-2.3-0.4-3.1c-0.5-0.8-1.3-1.4-2.5-1.6c-0.7-0.1-1.3-0.1-2,0c-0.7,0.1-1.3,0.4-1.8,0.8c-0.6,0.4-1.1,0.9-1.5,1.5
				c-0.4,0.6-0.7,1.4-1,2.3l-1.1,6.2c-0.1,0.4-0.1,0.7-0.1,0.9c0,0.3,0,0.5,0.1,0.7c0.1,0.2,0.2,0.3,0.3,0.5
				c0.1,0.1,0.3,0.3,0.6,0.4L74.5,46.4z"/>
			<path class="st1" d="M96,35.6l2.4-3.2l-0.6,3.5l4.2,0.8l-0.1,0.3l-4.2-0.8l-2,10.9c-0.1,0.6-0.2,1-0.1,1.4c0,0.4,0.1,0.7,0.2,0.9
				c0.1,0.2,0.2,0.4,0.4,0.6c0.2,0.1,0.4,0.2,0.7,0.3c0.5,0.1,0.9,0,1.3-0.2c0.4-0.2,0.8-0.6,1.2-1l0.3,0.3
				c-0.4,0.5-0.9,0.8-1.3,1.1c-0.5,0.2-1.1,0.3-1.8,0.1c-1.2-0.2-1.9-0.7-2.3-1.5c-0.4-0.8-0.4-1.8-0.2-3l1.9-10.2l-2.5-0.5l0.1-0.3
				L96,35.6z"/>
			<path class="st1" d="M100.8,49.9l1.3-4.7c-0.1,1.2-0.1,2.2,0,3c0.1,0.8,0.4,1.5,0.7,2s0.7,0.9,1.2,1.2c0.5,0.3,1.1,0.5,1.7,0.6
				c1.3,0.2,2.3,0.1,3-0.4c0.7-0.5,1.1-1.2,1.3-2.1c0.1-0.5,0.1-1,0-1.3c-0.1-0.4-0.3-0.7-0.5-1c-0.2-0.3-0.5-0.5-0.8-0.7
				c-0.3-0.2-0.5-0.3-0.8-0.5l-2.5-1.4c-0.3-0.1-0.5-0.3-0.8-0.6c-0.3-0.2-0.6-0.5-0.8-0.9c-0.3-0.3-0.4-0.7-0.6-1.2
				c-0.1-0.5-0.2-1,0-1.5c0.2-1.1,0.8-1.9,1.7-2.4c0.9-0.5,2.1-0.6,3.5-0.4c0.9,0.2,1.7,0.5,2.5,0.9c0.7,0.4,1.3,0.9,1.8,1.5
				l-0.8,3.4c-0.1-1.7-0.4-3-1-3.9c-0.5-0.9-1.4-1.4-2.5-1.6c-0.9-0.2-1.7-0.1-2.4,0.2s-1.1,0.9-1.3,1.8c-0.1,0.4-0.1,0.8,0.1,1.1
				c0.1,0.3,0.3,0.6,0.5,0.8c0.2,0.2,0.5,0.4,0.7,0.6c0.3,0.2,0.5,0.3,0.8,0.4l2.3,1.3c0.3,0.2,0.6,0.4,1,0.6c0.4,0.3,0.7,0.6,1,1
				c0.3,0.4,0.6,0.8,0.7,1.3c0.2,0.5,0.2,1.1,0.1,1.8c-0.1,0.6-0.3,1.2-0.7,1.7c-0.3,0.5-0.8,0.9-1.3,1.2c-0.5,0.3-1.1,0.5-1.9,0.6
				c-0.7,0.1-1.5,0.1-2.4-0.1c-1-0.2-1.9-0.5-2.7-0.9C102,51,101.3,50.5,100.8,49.9z"/>
		</g>
	</g>
</g>
</svg>
