<?xml version="1.0" encoding="utf-8"?>
<!-- Generator: Adobe Illustrator 25.4.1, SVG Export Plug-In . SVG Version: 6.00 Build 0)  -->
<svg version="1.1" id="レイヤー_1" xmlns="http://www.w3.org/2000/svg" xmlns:xlink="http://www.w3.org/1999/xlink" x="0px"
	 y="0px" viewBox="0 0 46 66" style="enable-background:new 0 0 46 66;" xml:space="preserve">
<style type="text/css">
	.st0{fill:#FFFFFF;}
	.st1{fill:#E18659;}
</style>
<g>
	<path class="st0" d="M4,14.4L0.1,6.1l1.1-0.5l3.9,8.3L4,14.4z M3.2,10.8l-0.5-1l2.3-1c0.3-0.1,0.6-0.3,0.7-0.6C5.9,8,6,7.7,6.1,7.4
		c0-0.3,0-0.6-0.2-0.9C5.7,6.2,5.5,5.9,5.3,5.8C5,5.6,4.8,5.5,4.5,5.5S3.9,5.6,3.6,5.7L1.3,6.8l-0.5-1l2.3-1.1
		c0.5-0.2,1-0.3,1.5-0.3s1,0.2,1.4,0.4S6.8,5.5,7,6s0.3,1,0.3,1.5C7.2,8,7.1,8.4,6.7,8.8C6.4,9.2,6,9.5,5.5,9.8L3.2,10.8z"/>
	<path class="st0" d="M15.6,10.4c-0.6,0.1-1.3,0.1-1.9,0c-0.6-0.1-1.1-0.4-1.6-0.7s-0.9-0.8-1.3-1.3c-0.3-0.5-0.6-1.1-0.7-1.7
		C10,6,10,5.4,10.1,4.8s0.4-1.2,0.7-1.7s0.7-0.9,1.2-1.3c0.5-0.3,1.1-0.6,1.7-0.7C14.3,1,15,1,15.5,1.1c0.6,0.1,1.1,0.4,1.6,0.7
		s0.9,0.8,1.3,1.3c0.3,0.5,0.6,1.1,0.7,1.7s0.1,1.3,0,1.9s-0.4,1.2-0.7,1.7c-0.3,0.5-0.7,0.9-1.2,1.3C16.8,10.1,16.2,10.3,15.6,10.4
		z M15.3,9.3c0.6-0.1,1.2-0.4,1.6-0.8c0.4-0.4,0.7-0.9,0.9-1.4s0.2-1.2,0.1-1.9c-0.1-0.5-0.3-0.9-0.5-1.3s-0.5-0.7-0.9-1
		s-0.7-0.4-1.2-0.5c-0.4-0.1-0.9-0.1-1.4,0c-0.6,0.1-1.2,0.4-1.6,0.8C12,3.5,11.7,4,11.5,4.5c-0.2,0.6-0.2,1.2-0.1,1.9
		c0.1,0.5,0.3,0.9,0.5,1.3s0.5,0.7,0.9,1C13.1,9,13.5,9.1,14,9.2S14.8,9.3,15.3,9.3z"/>
	<path class="st0" d="M22.1,9.6l0.1-9.1h1.2l-0.1,9.1H22.1z"/>
	<path class="st0" d="M25.9,9.6l1.6-9l0.9,0.2l0.1,1.5l-1.4,7.6L25.9,9.6z M32.1,10.7l-4.2-8.4l0.5-1.6l4.2,8.4L32.1,10.7z
		 M32.1,10.7L32,9.3l1.4-7.7l1.2,0.2l-1.6,9L32.1,10.7z"/>
	<path class="st0" d="M37.4,12.6L41,4.5L42.1,5l-3.6,8.1L37.4,12.6z M37.8,4.1l0.5-1l6.8,3l-0.5,1L37.8,4.1z"/>
</g>
<circle class="st0" cx="23" cy="42.6" r="23"/>
<g>
	<path class="st1" d="M14.1,45.9l6.8-12.3h3.5l-7,12.3H14.1z M14.1,47.8v-1.9l1.3-0.9h13.5v2.8C28.9,47.8,14.1,47.8,14.1,47.8z
		 M23.1,52.7V40.2h3.1v12.5H23.1z"/>
</g>
</svg>
