<?xml version="1.0" encoding="utf-8"?>
<!-- Generator: Adobe Illustrator 25.4.1, SVG Export Plug-In . SVG Version: 6.00 Build 0)  -->
<svg version="1.1" id="レイヤー_1" xmlns="http://www.w3.org/2000/svg" xmlns:xlink="http://www.w3.org/1999/xlink" x="0px"
	 y="0px" viewBox="0 0 23 23" style="enable-background:new 0 0 23 23;" xml:space="preserve">
<style type="text/css">
	.st0{fill:#D87A55;}
</style>
<path class="st0" d="M11.5,23C5.2,23,0,17.8,0,11.5S5.2,0,11.5,0S23,5.2,23,11.5S17.8,23,11.5,23z M11.5,2C6.3,2,2,6.3,2,11.5
	S6.3,21,11.5,21s9.5-4.3,9.5-9.5S16.7,2,11.5,2z"/>
<path class="st0" d="M11.5,4.4L11.5,4.4c3.9,0,7.1,3.2,7.1,7.1v0c0,3.9-3.2,7.1-7.1,7.1h0c-3.9,0-7.1-3.2-7.1-7.1v0
	C4.4,7.6,7.6,4.4,11.5,4.4z"/>
</svg>
