<?xml version="1.0" encoding="utf-8"?>
<!-- Generator: Adobe Illustrator 25.4.1, SVG Export Plug-In . SVG Version: 6.00 Build 0)  -->
<svg version="1.1" id="レイヤー_1" xmlns="http://www.w3.org/2000/svg" xmlns:xlink="http://www.w3.org/1999/xlink" x="0px"
	 y="0px" viewBox="0 0 206 73" style="enable-background:new 0 0 206 73;" xml:space="preserve">
<style type="text/css">
	.st0{fill:#EF8883;}
	.st1{fill:#FFFFFF;stroke:#FFFFFF;stroke-width:0.25;stroke-miterlimit:10;}
</style>
<g>
	<g>
		<path class="st0" d="M19.6,63.6V46.8c0-0.5,0-0.9-0.1-1.2c-0.1-0.3-0.1-0.6-0.3-0.8c-0.1-0.2-0.3-0.4-0.5-0.5
			c-0.2-0.1-0.5-0.3-0.9-0.3h7.9c1,0,2,0.1,3,0.3c1,0.2,1.9,0.5,2.6,1c0.8,0.4,1.4,1,1.8,1.7c0.5,0.7,0.7,1.6,0.7,2.6
			c0,0.9-0.2,1.7-0.5,2.4c-0.4,0.7-0.8,1.3-1.4,1.8c-0.6,0.5-1.3,0.9-2.1,1.2c-0.8,0.3-1.6,0.5-2.4,0.6l5.3,6.4
			c0.3,0.4,0.7,0.8,1.1,1.3s0.8,1,1.2,1.4c0.4,0.5,0.8,0.8,1.1,1.2c0.3,0.3,0.5,0.5,0.6,0.6h-4.3c0-0.3,0-0.6-0.1-0.9
			c-0.1-0.3-0.2-0.6-0.4-0.9c-0.2-0.3-0.4-0.6-0.7-1c-0.3-0.4-0.6-0.8-1-1.2l-5.4-6.7h-2.8v7.8c0,0.9,0.1,1.6,0.4,2
			c0.2,0.4,0.7,0.7,1.4,0.9h-6c0.7-0.2,1.2-0.5,1.4-0.9C19.5,65.2,19.6,64.5,19.6,63.6z M22.1,55.2h3.3c1.9,0,3.4-0.5,4.5-1.4
			c1.1-1,1.6-2.3,1.6-4.1c0-1-0.2-1.8-0.5-2.5c-0.3-0.7-0.8-1.2-1.4-1.6c-0.6-0.4-1.3-0.7-2-0.9c-0.8-0.2-1.6-0.3-2.4-0.3h-2.9V55.2
			z"/>
		<path class="st0" d="M47.9,48c1.4,0,2.6,0.2,3.8,0.7s2.1,1.1,2.9,1.9c0.8,0.8,1.5,1.8,1.9,2.9c0.5,1.1,0.7,2.4,0.7,3.7v0
			c0,1.4-0.2,2.6-0.7,3.7c-0.5,1.1-1.1,2.1-1.9,2.9c-0.8,0.8-1.8,1.5-2.9,1.9c-1.1,0.5-2.4,0.7-3.8,0.7c-1.4,0-2.6-0.2-3.8-0.7
			C43,65.5,42,64.8,41.2,64c-0.8-0.8-1.5-1.8-1.9-2.9c-0.5-1.1-0.7-2.4-0.7-3.7v0c0-1.4,0.2-2.6,0.7-3.7c0.5-1.1,1.1-2.1,1.9-2.9
			c0.8-0.8,1.8-1.5,2.9-1.9S46.5,48,47.9,48z M41.3,57.3c0,1.3,0.2,2.5,0.5,3.6c0.3,1.1,0.8,2,1.4,2.8c0.6,0.8,1.3,1.4,2.1,1.8
			c0.8,0.4,1.7,0.6,2.7,0.6c1,0,1.9-0.2,2.7-0.6c0.8-0.4,1.5-1,2.1-1.8c0.6-0.8,1-1.7,1.4-2.8c0.3-1.1,0.5-2.3,0.5-3.6
			c0-1.3-0.2-2.5-0.5-3.6c-0.3-1.1-0.8-2-1.4-2.8s-1.3-1.4-2.1-1.8c-0.8-0.4-1.7-0.6-2.7-0.6c-1,0-1.9,0.2-2.7,0.6
			c-0.8,0.4-1.5,1-2.1,1.8c-0.6,0.8-1,1.7-1.4,2.8C41.4,54.8,41.3,56,41.3,57.3z"/>
		<path class="st0" d="M59.3,64.7l0.5-6.1c0.1,1.5,0.4,2.7,0.7,3.7c0.4,1,0.8,1.7,1.3,2.3c0.5,0.6,1.1,1,1.8,1.2
			c0.7,0.2,1.4,0.4,2.2,0.4c1.6,0,2.8-0.4,3.6-1.2c0.8-0.8,1.2-1.7,1.2-2.9c0-0.6-0.1-1.2-0.4-1.6c-0.2-0.4-0.5-0.8-0.9-1.1
			c-0.3-0.3-0.7-0.5-1.1-0.7s-0.7-0.3-1.1-0.4l-3.5-1.2c-0.3-0.1-0.7-0.3-1.2-0.5c-0.4-0.2-0.8-0.5-1.2-0.9c-0.4-0.4-0.7-0.8-1-1.3
			c-0.3-0.5-0.4-1.2-0.4-1.9c0-1.4,0.5-2.5,1.6-3.4c1.1-0.8,2.5-1.2,4.2-1.2c1.2,0,2.3,0.2,3.3,0.6c1,0.4,1.8,0.9,2.5,1.5l-0.2,4.4
			c-0.5-2.1-1.2-3.6-2.1-4.6s-2-1.4-3.5-1.4c-1.2,0-2.1,0.3-2.9,0.8c-0.8,0.6-1.2,1.4-1.2,2.5c0,0.5,0.1,1,0.3,1.3
			c0.2,0.3,0.5,0.6,0.8,0.9c0.3,0.2,0.7,0.4,1,0.6c0.4,0.1,0.7,0.3,1,0.4l3.1,1c0.4,0.1,0.9,0.3,1.4,0.6c0.5,0.2,1,0.6,1.5,1
			c0.5,0.4,0.9,0.9,1.2,1.5c0.3,0.6,0.5,1.3,0.5,2.2c0,0.8-0.2,1.5-0.5,2.2c-0.3,0.7-0.7,1.3-1.3,1.8c-0.6,0.5-1.3,0.9-2.2,1.2
			c-0.9,0.3-1.8,0.4-3,0.4c-1.2,0-2.4-0.2-3.5-0.5C61,65.8,60.1,65.3,59.3,64.7z"/>
		<path class="st0" d="M78.1,48.1c-0.2,0.2-0.3,0.4-0.4,0.7c-0.1,0.3,0,0.8,0.3,1.6l5.4,13.3l5.2-13.2c0.2-0.4,0.2-0.8,0.2-1
			c0-0.3-0.1-0.5-0.2-0.7c-0.1-0.2-0.2-0.3-0.3-0.4S88,48.2,88,48.1h3c-0.2,0.1-0.5,0.4-0.8,0.7c-0.3,0.3-0.7,0.9-1,1.6l-6.8,17.1
			c-0.2,0.4-0.4,0.8-0.6,1.3c-0.2,0.5-0.6,0.9-1,1.4c-0.4,0.5-0.9,0.9-1.4,1.2c-0.5,0.3-1.2,0.6-1.9,0.7l-1.1-3.2
			c0.8,0.4,1.6,0.6,2.4,0.6c0.8,0,1.4-0.2,2.1-0.7c0.6-0.5,1.1-1.2,1.5-2.2l-6.8-16.5c-0.3-0.7-0.5-1.1-0.8-1.4
			c-0.2-0.3-0.4-0.5-0.6-0.6H78.1z"/>
		<path class="st0" d="M103.7,63.6V46.8c0-0.5,0-0.9-0.1-1.2c-0.1-0.3-0.1-0.6-0.3-0.8c-0.1-0.2-0.3-0.4-0.5-0.5
			c-0.2-0.1-0.5-0.3-0.9-0.3h3.1l9.8,19.6l8.5-19.6h3.9c-0.7,0.2-1.1,0.5-1.4,0.9c-0.2,0.4-0.4,1-0.4,2v16.8c0,0.9,0.1,1.6,0.4,2
			c0.2,0.4,0.7,0.7,1.4,0.9h-5.9c0.7-0.2,1.2-0.5,1.4-0.9c0.2-0.4,0.4-1,0.4-2V46.1l-8.9,20.3h-0.4l-9.5-19.1v16.2
			c0,0.9,0.1,1.6,0.4,2c0.2,0.4,0.7,0.7,1.4,0.9H102c0.7-0.2,1.2-0.5,1.4-0.9C103.6,65.2,103.7,64.5,103.7,63.6z"/>
		<path class="st0" d="M138.9,48c1.4,0,2.6,0.2,3.8,0.7s2.1,1.1,2.9,1.9c0.8,0.8,1.5,1.8,1.9,2.9c0.5,1.1,0.7,2.4,0.7,3.7v0
			c0,1.4-0.2,2.6-0.7,3.7c-0.5,1.1-1.1,2.1-1.9,2.9c-0.8,0.8-1.8,1.5-2.9,1.9c-1.1,0.5-2.4,0.7-3.8,0.7c-1.4,0-2.6-0.2-3.8-0.7
			c-1.1-0.5-2.1-1.1-2.9-1.9c-0.8-0.8-1.5-1.8-1.9-2.9c-0.5-1.1-0.7-2.4-0.7-3.7v0c0-1.4,0.2-2.6,0.7-3.7c0.5-1.1,1.1-2.1,1.9-2.9
			c0.8-0.8,1.8-1.5,2.9-1.9C136.2,48.2,137.5,48,138.9,48z M132.2,57.3c0,1.3,0.2,2.5,0.5,3.6c0.3,1.1,0.8,2,1.4,2.8
			c0.6,0.8,1.3,1.4,2.1,1.8c0.8,0.4,1.7,0.6,2.7,0.6c1,0,1.9-0.2,2.7-0.6c0.8-0.4,1.5-1,2.1-1.8c0.6-0.8,1-1.7,1.4-2.8
			c0.3-1.1,0.5-2.3,0.5-3.6c0-1.3-0.2-2.5-0.5-3.6c-0.3-1.1-0.8-2-1.4-2.8s-1.3-1.4-2.1-1.8c-0.8-0.4-1.7-0.6-2.7-0.6
			c-1,0-1.9,0.2-2.7,0.6c-0.8,0.4-1.5,1-2.1,1.8c-0.6,0.8-1,1.7-1.4,2.8C132.4,54.8,132.2,56,132.2,57.3z"/>
		<path class="st0" d="M159.5,48c1.4,0,2.6,0.2,3.8,0.7s2.1,1.1,2.9,1.9c0.8,0.8,1.5,1.8,1.9,2.9c0.5,1.1,0.7,2.4,0.7,3.7v0
			c0,1.4-0.2,2.6-0.7,3.7c-0.5,1.1-1.1,2.1-1.9,2.9c-0.8,0.8-1.8,1.5-2.9,1.9c-1.1,0.5-2.4,0.7-3.8,0.7c-1.4,0-2.6-0.2-3.8-0.7
			c-1.1-0.5-2.1-1.1-2.9-1.9c-0.8-0.8-1.5-1.8-1.9-2.9c-0.5-1.1-0.7-2.4-0.7-3.7v0c0-1.4,0.2-2.6,0.7-3.7c0.5-1.1,1.1-2.1,1.9-2.9
			c0.8-0.8,1.8-1.5,2.9-1.9S158.1,48,159.5,48z M152.8,57.3c0,1.3,0.2,2.5,0.5,3.6c0.3,1.1,0.8,2,1.4,2.8c0.6,0.8,1.3,1.4,2.1,1.8
			c0.8,0.4,1.7,0.6,2.7,0.6c1,0,1.9-0.2,2.7-0.6c0.8-0.4,1.5-1,2.1-1.8c0.6-0.8,1-1.7,1.4-2.8c0.3-1.1,0.5-2.3,0.5-3.6
			c0-1.3-0.2-2.5-0.5-3.6c-0.3-1.1-0.8-2-1.4-2.8s-1.3-1.4-2.1-1.8c-0.8-0.4-1.7-0.6-2.7-0.6c-1,0-1.9,0.2-2.7,0.6
			c-0.8,0.4-1.5,1-2.1,1.8c-0.6,0.8-1,1.7-1.4,2.8C153,54.8,152.8,56,152.8,57.3z"/>
		<path class="st0" d="M179.6,48c1,0,2,0.2,2.9,0.5c0.9,0.3,1.7,0.8,2.4,1.4v-5.3c0-0.7-0.1-1.2-0.2-1.5c-0.1-0.3-0.3-0.6-0.6-0.8
			l3.2-0.4v21.4c0,0.9,0.1,1.6,0.2,2.1c0.2,0.4,0.4,0.8,0.7,1.1l-3.2,0.1V64c-0.7,0.9-1.5,1.6-2.4,2c-1,0.4-1.9,0.6-2.9,0.6
			c-1.4,0-2.6-0.2-3.7-0.7c-1.1-0.5-2.1-1.1-2.8-1.9c-0.8-0.8-1.4-1.7-1.8-2.8c-0.4-1.1-0.6-2.2-0.6-3.5c0-1.4,0.2-2.8,0.7-4
			c0.4-1.2,1.1-2.2,1.9-3.1c0.8-0.9,1.7-1.5,2.8-2C177.1,48.2,178.3,48,179.6,48z M173.1,56.4c0,1.3,0.2,2.6,0.5,3.7
			c0.3,1.2,0.8,2.2,1.4,3.1c0.6,0.9,1.4,1.6,2.3,2.1c0.9,0.5,1.9,0.8,3,0.8c0.9,0,1.8-0.2,2.6-0.7c0.8-0.5,1.4-1.1,2-1.9v-11
			c-0.6-1.4-1.3-2.4-2.3-3c-0.9-0.6-2-0.9-3.2-0.9c-1,0-1.8,0.2-2.6,0.6c-0.8,0.4-1.4,0.9-1.9,1.6c-0.5,0.7-0.9,1.5-1.2,2.5
			S173.1,55.2,173.1,56.4z"/>
	</g>
	<g>
		<ellipse class="st0" cx="101.5" cy="10.2" rx="17.3" ry="10.2"/>
		<g>
			<path class="st1" d="M94.4,10.6c0-0.9,0.1-1.6,0.3-2.3c0.2-0.7,0.5-1.3,0.8-1.8c0.4-0.5,0.8-0.9,1.3-1.1C97.3,5.1,97.9,5,98.5,5
				c0.6,0,1.2,0.1,1.7,0.4s0.9,0.7,1.3,1.1c0.4,0.5,0.6,1.1,0.8,1.8c0.2,0.7,0.3,1.5,0.3,2.3c0,0.8-0.1,1.6-0.3,2.3
				c-0.2,0.7-0.5,1.3-0.8,1.8c-0.4,0.5-0.8,0.9-1.3,1.1s-1.1,0.4-1.7,0.4c-0.6,0-1.2-0.1-1.7-0.4c-0.5-0.3-0.9-0.7-1.3-1.1
				c-0.4-0.5-0.6-1.1-0.8-1.8C94.5,12.2,94.4,11.4,94.4,10.6z M95.8,10.6c0,1.7,0.2,3,0.7,4c0.5,1,1.1,1.4,2,1.4
				c0.9,0,1.6-0.5,2-1.4c0.5-1,0.7-2.3,0.7-4s-0.2-3-0.7-4c-0.5-1-1.1-1.4-2-1.4c-0.9,0-1.5,0.5-2,1.4C96,7.6,95.8,8.9,95.8,10.6z"
				/>
			<path class="st1" d="M106.7,5L106.7,5l0,9.2c0,0.4,0,0.6,0,0.9s0.1,0.4,0.1,0.5c0.1,0.1,0.1,0.2,0.3,0.3c0.1,0.1,0.2,0.1,0.4,0.2
				h-2.9c0.2-0.1,0.3-0.1,0.4-0.2c0.1-0.1,0.2-0.2,0.3-0.3c0.1-0.1,0.1-0.3,0.1-0.5c0-0.2,0-0.5,0-0.9V7.5c0-0.2,0-0.3,0-0.5
				c0-0.1-0.1-0.2-0.2-0.3c-0.1-0.1-0.3-0.2-0.5-0.2c-0.2-0.1-0.5-0.1-0.9-0.1c0.6-0.2,1.2-0.4,1.6-0.6C105.8,5.5,106.3,5.3,106.7,5
				z"/>
		</g>
	</g>
</g>
</svg>
