<?xml version="1.0" encoding="utf-8"?>
<!-- Generator: Adobe Illustrator 25.4.1, SVG Export Plug-In . SVG Version: 6.00 Build 0)  -->
<svg version="1.1" id="レイヤー_1" xmlns="http://www.w3.org/2000/svg" xmlns:xlink="http://www.w3.org/1999/xlink" x="0px"
	 y="0px" viewBox="0 0 206 73" style="enable-background:new 0 0 206 73;" xml:space="preserve">
<style type="text/css">
	.st0{fill:#EF8883;}
	.st1{fill:#FFFFFF;stroke:#FFFFFF;stroke-width:0.25;stroke-miterlimit:10;}
</style>
<g>
	<g>
		<path class="st0" d="M3.1,61.8l8.3-17.9h0.2l9.5,20.3c0.4,0.8,0.7,1.3,1,1.6c0.3,0.3,0.6,0.5,0.8,0.6H18c0.2-0.1,0.3-0.2,0.4-0.3
			s0.2-0.3,0.3-0.5c0.1-0.2,0.1-0.5,0-0.9c-0.1-0.3-0.2-0.8-0.4-1.3l-2.7-5.8h-10L3,63.4c-0.3,0.6-0.4,1-0.5,1.4
			c-0.1,0.4-0.1,0.7-0.1,0.9s0.1,0.4,0.2,0.5c0.1,0.1,0.2,0.2,0.4,0.3H0.2c0.2,0,0.3-0.1,0.5-0.2c0.2-0.1,0.3-0.3,0.6-0.7
			c0.2-0.3,0.5-0.8,0.8-1.4C2.3,63.6,2.6,62.8,3.1,61.8z M15.4,57.2l-4.8-10.2L5.9,57.2H15.4z"/>
		<path class="st0" d="M26.3,63.6v-12c0-0.5,0-0.8,0-1.2c0-0.3-0.1-0.6-0.1-0.9c-0.1-0.3-0.2-0.5-0.3-0.7c-0.1-0.2-0.3-0.4-0.4-0.6
			l3.3-0.3V53c0.5-1.6,1.4-2.8,2.5-3.7c1.2-0.9,2.6-1.4,4.3-1.4c1.9,0,3.4,0.5,4.5,1.4c1.1,1,1.7,2.2,1.9,3.8
			c0.5-1.6,1.3-2.9,2.5-3.8c1.2-0.9,2.6-1.4,4.4-1.4c1,0,1.9,0.1,2.7,0.4c0.8,0.3,1.5,0.7,2,1.2c0.6,0.5,1,1.2,1.3,1.9
			c0.3,0.7,0.4,1.6,0.4,2.4v9.6c0,0.5,0,0.8,0.1,1.2c0.1,0.3,0.1,0.6,0.3,0.8s0.3,0.4,0.5,0.5c0.2,0.1,0.5,0.2,0.8,0.4h-5.8
			c0.3-0.1,0.6-0.2,0.8-0.4c0.2-0.1,0.4-0.3,0.5-0.5c0.1-0.2,0.2-0.5,0.3-0.8c0-0.3,0.1-0.7,0.1-1.2v-9.9c0-1.6-0.4-2.9-1.2-3.8
			c-0.8-0.9-1.9-1.4-3.4-1.4c-0.8,0-1.5,0.2-2.3,0.5c-0.7,0.3-1.4,0.8-2,1.4c-0.6,0.6-1.1,1.4-1.4,2.3c-0.4,0.9-0.6,1.9-0.7,3v8
			c0,0.5,0,0.8,0.1,1.2c0.1,0.3,0.1,0.6,0.3,0.8c0.1,0.2,0.3,0.4,0.5,0.5c0.2,0.1,0.5,0.2,0.8,0.4h-5.8c0.3-0.1,0.6-0.2,0.8-0.4
			c0.2-0.1,0.4-0.3,0.5-0.5c0.1-0.2,0.2-0.5,0.3-0.8c0-0.3,0.1-0.7,0.1-1.2v-9.9c0-1.6-0.4-2.9-1.2-3.8c-0.8-0.9-1.9-1.4-3.4-1.4
			c-0.8,0-1.5,0.2-2.3,0.5c-0.7,0.3-1.4,0.8-2,1.4c-0.6,0.6-1.1,1.4-1.4,2.3c-0.4,0.9-0.6,1.9-0.7,3v8c0,0.5,0,0.8,0.1,1.2
			c0.1,0.3,0.1,0.6,0.3,0.8c0.1,0.2,0.3,0.4,0.5,0.5c0.2,0.1,0.5,0.2,0.8,0.4h-5.8c0.3-0.1,0.6-0.2,0.8-0.4c0.2-0.1,0.4-0.3,0.5-0.5
			c0.1-0.2,0.2-0.5,0.3-0.8C26.3,64.5,26.3,64.1,26.3,63.6z"/>
		<path class="st0" d="M58.8,42.3l3.2-0.4v8.3c0.4-0.5,0.8-0.8,1.3-1.1c0.5-0.3,0.9-0.5,1.4-0.7c0.5-0.2,0.9-0.3,1.4-0.3
			C66.5,48,67,48,67.4,48c1.4,0,2.7,0.2,3.8,0.6s2.1,1,2.9,1.8c0.8,0.8,1.4,1.7,1.8,2.8c0.4,1.1,0.6,2.3,0.6,3.6
			c0,1.4-0.2,2.6-0.7,3.8c-0.5,1.2-1.1,2.2-1.9,3.1c-0.8,0.9-1.8,1.6-2.9,2.1s-2.4,0.8-3.7,0.8c-2.3,0-4.2-0.7-5.8-2.2l-1.8,2.1
			l-0.1-0.1V44.6c0-0.7-0.1-1.2-0.2-1.5C59.4,42.8,59.1,42.5,58.8,42.3z M67.5,66c1,0,1.9-0.2,2.7-0.6c0.8-0.4,1.5-1,2.1-1.7
			c0.6-0.7,1-1.6,1.3-2.5c0.3-1,0.5-2,0.5-3.2c0-1.3-0.2-2.5-0.5-3.7c-0.3-1.2-0.8-2.2-1.4-3c-0.6-0.9-1.4-1.6-2.3-2.1
			c-0.9-0.5-2-0.8-3.1-0.8c-0.8,0-1.6,0.2-2.5,0.5c-0.9,0.3-1.6,0.9-2.3,1.8v11.6c0.6,1.2,1.4,2.1,2.3,2.7
			C65.2,65.7,66.3,66,67.5,66z"/>
		<path class="st0" d="M87.1,48c1.3,0,2.4,0.2,3.4,0.6c1,0.4,1.8,0.9,2.4,1.6c0.6,0.7,1.1,1.5,1.4,2.4c0.3,0.9,0.5,1.9,0.5,3H81.2
			c0,0.3-0.1,0.7-0.1,1c0,0.3,0,0.7,0,1c0,1.2,0.2,2.4,0.5,3.5c0.3,1.1,0.8,2,1.4,2.8c0.6,0.8,1.3,1.4,2.1,1.8
			c0.8,0.4,1.7,0.7,2.7,0.7c0.9,0,1.6-0.2,2.4-0.5c0.7-0.3,1.3-0.8,1.9-1.3s1.1-1.3,1.6-2.1c0.5-0.8,0.9-1.7,1.2-2.7l-0.3,4.7
			c-1,0.8-2,1.4-3.2,1.8c-1.2,0.4-2.4,0.6-3.5,0.6c-1.4,0-2.6-0.2-3.8-0.7c-1.1-0.4-2.1-1.1-3-1.9c-0.8-0.8-1.5-1.8-1.9-2.9
			c-0.5-1.1-0.7-2.4-0.7-3.8c0-1.4,0.2-2.6,0.6-3.8c0.4-1.1,1-2.1,1.7-3c0.8-0.8,1.7-1.5,2.7-2C84.5,48.2,85.8,48,87.1,48z M81.2,55
			h11.1c0-1-0.2-1.8-0.4-2.6c-0.2-0.8-0.6-1.5-1-2.1c-0.4-0.6-1-1.1-1.6-1.4c-0.6-0.3-1.4-0.5-2.2-0.5c-0.8,0-1.5,0.2-2.1,0.5
			c-0.6,0.3-1.2,0.8-1.7,1.4c-0.5,0.6-0.9,1.3-1.3,2.1C81.6,53.2,81.4,54,81.2,55z"/>
		<path class="st0" d="M97,66.4c0.3-0.1,0.6-0.2,0.8-0.4c0.2-0.1,0.4-0.3,0.5-0.5c0.1-0.2,0.2-0.5,0.3-0.8c0-0.3,0.1-0.7,0.1-1.2
			v-12c0-0.5,0-0.8,0-1.2c0-0.3-0.1-0.6-0.1-0.9c-0.1-0.3-0.2-0.5-0.3-0.7c-0.1-0.2-0.3-0.4-0.4-0.6l3.3-0.3v4.3
			c0.3-0.6,0.6-1.2,0.9-1.7s0.7-1,1.1-1.4c0.4-0.4,0.9-0.7,1.5-0.9c0.6-0.2,1.2-0.3,2-0.3c0.7,0,1.3,0.1,1.8,0.2l0,3.1
			c-0.2-0.2-0.4-0.5-0.7-0.7c-0.3-0.3-0.6-0.5-0.9-0.7c-0.3-0.2-0.6-0.4-0.9-0.5c-0.3-0.1-0.7-0.2-1-0.2c-0.4,0-0.8,0.1-1.2,0.3
			c-0.4,0.2-0.7,0.5-1,0.9c-0.3,0.4-0.6,0.8-0.9,1.3s-0.5,1-0.7,1.5v10.5c0,0.5,0,0.8,0.1,1.2c0.1,0.3,0.1,0.6,0.3,0.8
			c0.1,0.2,0.3,0.4,0.5,0.5c0.2,0.1,0.5,0.2,0.8,0.4H97z"/>
		<path class="st0" d="M121.4,63.6V46.8c0-0.5,0-0.9-0.1-1.2c-0.1-0.3-0.1-0.6-0.3-0.8c-0.1-0.2-0.3-0.4-0.5-0.5
			c-0.2-0.1-0.5-0.3-0.9-0.3h3.1l9.8,19.6l8.5-19.6h3.9c-0.7,0.2-1.1,0.5-1.4,0.9c-0.2,0.4-0.4,1-0.4,2v16.8c0,0.9,0.1,1.6,0.4,2
			c0.2,0.4,0.7,0.7,1.4,0.9h-5.9c0.7-0.2,1.2-0.5,1.4-0.9c0.2-0.4,0.4-1,0.4-2V46.1l-8.9,20.3h-0.4l-9.5-19.1v16.2
			c0,0.9,0.1,1.6,0.4,2c0.2,0.4,0.7,0.7,1.4,0.9h-4.1c0.7-0.2,1.2-0.5,1.4-0.9C121.3,65.2,121.4,64.5,121.4,63.6z"/>
		<path class="st0" d="M156.5,48c1.4,0,2.6,0.2,3.8,0.7s2.1,1.1,2.9,1.9c0.8,0.8,1.5,1.8,1.9,2.9c0.5,1.1,0.7,2.4,0.7,3.7v0
			c0,1.4-0.2,2.6-0.7,3.7c-0.5,1.1-1.1,2.1-1.9,2.9c-0.8,0.8-1.8,1.5-2.9,1.9c-1.1,0.5-2.4,0.7-3.8,0.7c-1.4,0-2.6-0.2-3.8-0.7
			c-1.1-0.5-2.1-1.1-2.9-1.9c-0.8-0.8-1.5-1.8-1.9-2.9c-0.5-1.1-0.7-2.4-0.7-3.7v0c0-1.4,0.2-2.6,0.7-3.7c0.5-1.1,1.1-2.1,1.9-2.9
			c0.8-0.8,1.8-1.5,2.9-1.9S155.2,48,156.5,48z M149.9,57.3c0,1.3,0.2,2.5,0.5,3.6c0.3,1.1,0.8,2,1.4,2.8c0.6,0.8,1.3,1.4,2.1,1.8
			c0.8,0.4,1.7,0.6,2.7,0.6c1,0,1.9-0.2,2.7-0.6c0.8-0.4,1.5-1,2.1-1.8c0.6-0.8,1-1.7,1.4-2.8c0.3-1.1,0.5-2.3,0.5-3.6
			c0-1.3-0.2-2.5-0.5-3.6c-0.3-1.1-0.8-2-1.4-2.8s-1.3-1.4-2.1-1.8c-0.8-0.4-1.7-0.6-2.7-0.6c-1,0-1.9,0.2-2.7,0.6
			c-0.8,0.4-1.5,1-2.1,1.8c-0.6,0.8-1,1.7-1.4,2.8C150,54.8,149.9,56,149.9,57.3z"/>
		<path class="st0" d="M177.2,48c1.4,0,2.6,0.2,3.8,0.7s2.1,1.1,2.9,1.9c0.8,0.8,1.5,1.8,1.9,2.9c0.5,1.1,0.7,2.4,0.7,3.7v0
			c0,1.4-0.2,2.6-0.7,3.7c-0.5,1.1-1.1,2.1-1.9,2.9c-0.8,0.8-1.8,1.5-2.9,1.9c-1.1,0.5-2.4,0.7-3.8,0.7c-1.4,0-2.6-0.2-3.8-0.7
			c-1.1-0.5-2.1-1.1-2.9-1.9c-0.8-0.8-1.5-1.8-1.9-2.9c-0.5-1.1-0.7-2.4-0.7-3.7v0c0-1.4,0.2-2.6,0.7-3.7c0.5-1.1,1.1-2.1,1.9-2.9
			c0.8-0.8,1.8-1.5,2.9-1.9S175.8,48,177.2,48z M170.5,57.3c0,1.3,0.2,2.5,0.5,3.6c0.3,1.1,0.8,2,1.4,2.8c0.6,0.8,1.3,1.4,2.1,1.8
			c0.8,0.4,1.7,0.6,2.7,0.6c1,0,1.9-0.2,2.7-0.6c0.8-0.4,1.5-1,2.1-1.8c0.6-0.8,1-1.7,1.4-2.8c0.3-1.1,0.5-2.3,0.5-3.6
			c0-1.3-0.2-2.5-0.5-3.6c-0.3-1.1-0.8-2-1.4-2.8s-1.3-1.4-2.1-1.8c-0.8-0.4-1.7-0.6-2.7-0.6c-1,0-1.9,0.2-2.7,0.6
			c-0.8,0.4-1.5,1-2.1,1.8c-0.6,0.8-1,1.7-1.4,2.8C170.6,54.8,170.5,56,170.5,57.3z"/>
		<path class="st0" d="M197.3,48c1,0,2,0.2,2.9,0.5c0.9,0.3,1.7,0.8,2.4,1.4v-5.3c0-0.7-0.1-1.2-0.2-1.5c-0.1-0.3-0.3-0.6-0.6-0.8
			l3.2-0.4v21.4c0,0.9,0.1,1.6,0.2,2.1c0.2,0.4,0.4,0.8,0.7,1.1l-3.2,0.1V64c-0.7,0.9-1.5,1.6-2.4,2c-1,0.4-1.9,0.6-2.9,0.6
			c-1.4,0-2.6-0.2-3.7-0.7c-1.1-0.5-2.1-1.1-2.8-1.9c-0.8-0.8-1.4-1.7-1.8-2.8c-0.4-1.1-0.6-2.2-0.6-3.5c0-1.4,0.2-2.8,0.7-4
			c0.4-1.2,1.1-2.2,1.9-3.1c0.8-0.9,1.7-1.5,2.8-2C194.8,48.2,196,48,197.3,48z M190.8,56.4c0,1.3,0.2,2.6,0.5,3.7
			c0.3,1.2,0.8,2.2,1.4,3.1c0.6,0.9,1.4,1.6,2.3,2.1c0.9,0.5,1.9,0.8,3,0.8c0.9,0,1.8-0.2,2.6-0.7c0.8-0.5,1.4-1.1,2-1.9v-11
			c-0.6-1.4-1.3-2.4-2.3-3c-0.9-0.6-2-0.9-3.2-0.9c-1,0-1.8,0.2-2.6,0.6c-0.8,0.4-1.4,0.9-1.9,1.6c-0.5,0.7-0.9,1.5-1.2,2.5
			S190.8,55.2,190.8,56.4z"/>
	</g>
	<g>
		<ellipse class="st0" cx="103.2" cy="10.2" rx="17.3" ry="10.2"/>
		<g>
			<path class="st1" d="M94.2,10.6c0-0.9,0.1-1.6,0.3-2.3C94.7,7.6,95,7,95.3,6.5c0.4-0.5,0.8-0.9,1.3-1.1C97.1,5.1,97.7,5,98.3,5
				c0.6,0,1.2,0.1,1.7,0.4s0.9,0.7,1.3,1.1c0.4,0.5,0.6,1.1,0.8,1.8c0.2,0.7,0.3,1.5,0.3,2.3c0,0.8-0.1,1.6-0.3,2.3
				c-0.2,0.7-0.5,1.3-0.8,1.8c-0.4,0.5-0.8,0.9-1.3,1.1s-1.1,0.4-1.7,0.4c-0.6,0-1.2-0.1-1.7-0.4c-0.5-0.3-0.9-0.7-1.3-1.1
				c-0.4-0.5-0.6-1.1-0.8-1.8C94.3,12.2,94.2,11.4,94.2,10.6z M95.6,10.6c0,1.7,0.2,3,0.7,4c0.5,1,1.1,1.4,2,1.4
				c0.9,0,1.6-0.5,2-1.4c0.5-1,0.7-2.3,0.7-4s-0.2-3-0.7-4c-0.5-1-1.1-1.4-2-1.4c-0.9,0-1.5,0.5-2,1.4C95.8,7.6,95.6,8.9,95.6,10.6z
				"/>
			<path class="st1" d="M103.8,16c0.9-0.9,1.7-1.8,2.4-2.5c0.7-0.8,1.2-1.5,1.7-2.1s0.7-1.3,1-1.9c0.2-0.6,0.3-1.2,0.3-1.7
				c0-0.8-0.2-1.4-0.5-1.9c-0.4-0.4-0.8-0.7-1.4-0.7c-0.3,0-0.5,0.1-0.8,0.2c-0.3,0.1-0.6,0.3-0.9,0.6c-0.3,0.3-0.5,0.7-0.8,1.2
				s-0.5,1.1-0.6,1.9l0.2-3.1c0.5-0.3,1-0.5,1.4-0.7c0.5-0.2,1-0.2,1.6-0.2c1,0,1.8,0.2,2.3,0.7c0.6,0.4,0.8,1,0.8,1.7
				c0,0.5-0.1,1-0.4,1.5c-0.2,0.5-0.6,1.1-1.1,1.8c-0.5,0.6-1.1,1.3-1.7,2.1c-0.7,0.7-1.5,1.6-2.4,2.5h3.4c0.4,0,0.7,0,1,0
				s0.5-0.1,0.7-0.2c0.2-0.1,0.3-0.2,0.5-0.4c0.1-0.2,0.2-0.4,0.3-0.7l-0.1,2.4h-7L103.8,16z"/>
		</g>
	</g>
</g>
</svg>
