<?xml version="1.0" encoding="utf-8"?>
<!-- Generator: Adobe Illustrator 25.4.1, SVG Export Plug-In . SVG Version: 6.00 Build 0)  -->
<svg version="1.1" id="レイヤー_1" xmlns="http://www.w3.org/2000/svg" xmlns:xlink="http://www.w3.org/1999/xlink" x="0px"
	 y="0px" viewBox="0 0 317 181" style="enable-background:new 0 0 317 181;" xml:space="preserve">
<style type="text/css">
	.st0{fill:#EF8883;}
</style>
<g>
	<path class="st0" d="M36.4,3.8h31.9L69,17.6c-0.4-2.8-0.9-5-1.4-6.7c-0.6-1.7-1.2-3-2-3.9c-0.8-0.9-1.7-1.5-2.7-1.8
		s-2.3-0.4-3.8-0.4h-4.5v34.8c0,0.8,0,1.5,0.1,2.1c0.1,0.6,0.3,1.1,0.5,1.4c0.2,0.4,0.6,0.7,0.9,0.9c0.4,0.3,0.9,0.5,1.5,0.7H46.9
		c0.6-0.2,1.2-0.4,1.6-0.6s0.7-0.6,1-0.9c0.2-0.4,0.4-0.9,0.5-1.4c0.1-0.6,0.1-1.3,0.1-2.2V4.8h-4.5c-1.5,0-2.7,0.1-3.8,0.4
		s-2,0.9-2.8,1.8c-0.8,0.9-1.5,2.2-2,3.9c-0.6,1.7-1,3.9-1.5,6.7L36.4,3.8z"/>
	<path class="st0" d="M73.2,44.8c0.6-0.2,1.1-0.4,1.5-0.6c0.4-0.2,0.7-0.5,0.9-0.9c0.2-0.4,0.4-0.9,0.5-1.4c0.1-0.6,0.1-1.3,0.1-2.1
		V5c0-1.2-0.1-2.1-0.3-2.7c-0.2-0.6-0.6-1.1-1.2-1.5l5.8-0.7v20.4c1-2.9,2.6-5.1,4.7-6.8c2.2-1.7,4.9-2.5,8.3-2.5
		c1.9,0,3.6,0.3,5,0.8c1.5,0.5,2.7,1.3,3.7,2.3c1,1,1.8,2.2,2.3,3.5c0.5,1.4,0.8,2.8,0.8,4.5v17.5c0,0.8,0,1.5,0.1,2.1
		c0.1,0.6,0.3,1.1,0.5,1.4c0.2,0.4,0.6,0.7,0.9,0.9c0.4,0.2,0.9,0.5,1.5,0.6H98c0.6-0.2,1.1-0.4,1.5-0.6c0.4-0.2,0.7-0.5,0.9-0.9
		c0.2-0.4,0.4-0.9,0.5-1.4c0.1-0.6,0.1-1.3,0.1-2.1V21.6c0-3-0.7-5.3-2.1-6.9c-1.4-1.7-3.5-2.5-6.2-2.5c-1.5,0-3,0.3-4.4,0.9
		c-1.4,0.6-2.7,1.4-3.8,2.5c-1.1,1.1-2,2.5-2.7,4.1c-0.7,1.6-1.1,3.5-1.2,5.5v14.5c0,0.8,0,1.5,0.1,2.1c0.1,0.6,0.3,1.1,0.5,1.4
		c0.2,0.4,0.6,0.7,0.9,0.9c0.4,0.2,0.9,0.5,1.5,0.6H73.2z"/>
	<path class="st0" d="M127.7,11.2c2.4,0,4.4,0.3,6.2,1c1.7,0.7,3.2,1.6,4.3,2.8c1.1,1.2,2,2.7,2.6,4.3c0.6,1.7,0.9,3.5,0.9,5.4
		h-24.8c-0.1,0.6-0.1,1.2-0.2,1.8c0,0.6-0.1,1.2-0.1,1.9c0,2.2,0.3,4.3,0.9,6.3c0.6,1.9,1.5,3.6,2.5,5c1.1,1.4,2.4,2.5,3.9,3.3
		c1.5,0.8,3.1,1.2,4.9,1.2c1.6,0,3-0.3,4.3-0.9c1.3-0.6,2.4-1.4,3.5-2.4c1.1-1.1,2-2.3,2.9-3.8c0.8-1.5,1.6-3.1,2.2-4.9l-0.5,8.6
		c-1.7,1.5-3.7,2.5-5.9,3.2c-2.2,0.7-4.3,1-6.4,1c-2.5,0-4.8-0.4-6.8-1.2c-2.1-0.8-3.9-1.9-5.4-3.4c-1.5-1.5-2.7-3.2-3.5-5.3
		c-0.8-2.1-1.2-4.4-1.2-6.9c0-2.5,0.4-4.8,1.1-6.8c0.7-2.1,1.8-3.9,3.2-5.4c1.4-1.5,3-2.7,5-3.6C123,11.6,125.3,11.2,127.7,11.2z
		 M117,24h20.1c0-1.7-0.3-3.3-0.7-4.8c-0.4-1.5-1-2.7-1.8-3.8c-0.8-1.1-1.8-2-2.9-2.6c-1.2-0.6-2.5-0.9-4-0.9
		c-1.4,0-2.7,0.3-3.9,0.9c-1.2,0.6-2.2,1.4-3.2,2.5c-0.9,1.1-1.7,2.4-2.3,3.8C117.7,20.6,117.3,22.2,117,24z"/>
	<path class="st0" d="M164.3,40.5l0.9-11c0.5,4.7,1.8,8.3,4.1,10.9c2.2,2.6,5.3,3.9,9.3,3.9c1.6,0,3-0.2,4.2-0.7
		c1.3-0.5,2.3-1.1,3.2-1.9c0.9-0.8,1.5-1.7,2-2.8c0.5-1.1,0.7-2.2,0.7-3.4c0-1.5-0.3-2.8-0.9-3.8c-0.6-1-1.4-1.9-2.2-2.6
		c-0.8-0.7-1.7-1.3-2.7-1.7c-0.9-0.4-1.7-0.7-2.3-1l-5.7-2.2c-0.7-0.3-1.7-0.7-2.7-1.2c-1.1-0.5-2.1-1.2-3.1-2
		c-1-0.8-1.9-1.8-2.6-3.1c-0.7-1.2-1.1-2.7-1.1-4.5c0-1.4,0.3-2.8,0.8-4c0.5-1.3,1.3-2.4,2.3-3.3c1-0.9,2.3-1.7,3.8-2.2
		c1.5-0.5,3.2-0.8,5.3-0.8c1.8,0,3.8,0.3,6,0.8c2.2,0.5,4.1,1.3,5.8,2.4l0.4,11.3c-0.7-4.3-2-7.7-4-10.1c-2-2.4-4.7-3.6-8.2-3.6
		c-1.4,0-2.7,0.2-3.8,0.6c-1.2,0.4-2.2,0.9-3,1.6c-0.8,0.7-1.5,1.5-2,2.4c-0.5,0.9-0.7,1.9-0.7,3c0,1.2,0.3,2.3,0.9,3.1
		c0.6,0.9,1.3,1.6,2.1,2.2c0.8,0.6,1.7,1.1,2.6,1.5c0.9,0.4,1.7,0.7,2.4,0.9l6.1,2.3c3,1.1,5.4,2.6,7.1,4.5c1.8,1.8,2.7,4.2,2.7,7.1
		c0,1.7-0.3,3.2-0.9,4.6c-0.6,1.4-1.5,2.6-2.6,3.7c-1.1,1-2.5,1.9-4.2,2.5c-1.7,0.6-3.5,0.9-5.6,0.9c-2.8,0-5.4-0.4-7.9-1.2
		C167.9,43.2,165.9,42,164.3,40.5z"/>
	<path class="st0" d="M196.2,44.8c0.6-0.2,1.1-0.4,1.5-0.6c0.4-0.2,0.7-0.5,0.9-0.9c0.2-0.4,0.4-0.9,0.5-1.4
		c0.1-0.6,0.1-1.3,0.1-2.1V5c0-1.2-0.1-2.1-0.3-2.7c-0.2-0.6-0.6-1.1-1.2-1.5l5.8-0.7v30.1L218.7,17c1.1-0.9,1.9-1.8,2.7-2.8
		c0.7-0.9,1-1.9,0.9-2.8h5.4c-0.4,0.2-0.8,0.5-1.4,0.8c-0.5,0.3-1.1,0.8-1.8,1.3c-0.7,0.5-1.5,1.2-2.5,2c-0.9,0.8-2.1,1.8-3.4,2.9
		l-6.5,5.7l11.3,14.2c1.1,1.4,2,2.5,2.7,3.3c0.7,0.8,1.2,1.5,1.6,1.9c0.4,0.5,0.7,0.8,0.8,0.9c0.2,0.2,0.3,0.2,0.4,0.2h-7.6
		c0.1-0.1,0.1-0.3,0.2-0.5c0-0.2,0-0.5-0.2-0.9c-0.2-0.4-0.4-0.9-0.8-1.6c-0.4-0.6-0.9-1.5-1.7-2.4l-9.7-12.6l-5.5,4.9v8
		c0,0.8,0,1.5,0.1,2.1c0.1,0.6,0.3,1.1,0.5,1.4c0.2,0.4,0.6,0.7,0.9,0.9c0.4,0.2,0.9,0.5,1.5,0.6H196.2z"/>
	<path class="st0" d="M231.4,44.8c0.6-0.2,1.1-0.4,1.5-0.6c0.4-0.2,0.7-0.5,0.9-0.9c0.2-0.4,0.4-0.9,0.5-1.4
		c0.1-0.6,0.1-1.3,0.1-2.1V17.9c0-0.8,0-1.5-0.1-2.2c-0.1-0.6-0.1-1.2-0.3-1.6c-0.1-0.5-0.3-0.9-0.5-1.3c-0.2-0.4-0.5-0.8-0.8-1.2
		l6-0.5v28.6c0,0.8,0,1.5,0.1,2.1c0.1,0.6,0.3,1.1,0.5,1.4c0.2,0.4,0.6,0.7,0.9,0.9c0.4,0.2,0.9,0.5,1.5,0.6H231.4z M236.5,0.9
		c0.9,0,1.7,0.3,2.2,0.8c0.6,0.5,0.9,1.2,0.9,2.2c0,0.9-0.3,1.6-0.9,2.2c-0.6,0.6-1.3,0.8-2.2,0.8c-0.9,0-1.6-0.3-2.2-0.8
		c-0.6-0.6-0.9-1.3-0.9-2.2c0-0.9,0.3-1.6,0.9-2.2C234.9,1.2,235.6,0.9,236.5,0.9z"/>
	<path class="st0" d="M245.3,44.8c0.6-0.2,1.1-0.4,1.5-0.6c0.4-0.2,0.7-0.5,0.9-0.9c0.2-0.4,0.4-0.9,0.5-1.4
		c0.1-0.6,0.1-1.3,0.1-2.1V17.9c0-0.8,0-1.5-0.1-2.2c-0.1-0.6-0.1-1.2-0.3-1.6c-0.1-0.5-0.3-0.9-0.5-1.3c-0.2-0.4-0.5-0.8-0.8-1.2
		l6-0.5v9.4c1-2.9,2.6-5.1,4.7-6.8c2.2-1.7,4.9-2.5,8.3-2.5c1.9,0,3.6,0.3,5,0.8c1.5,0.5,2.7,1.3,3.7,2.3c1,1,1.8,2.2,2.3,3.5
		c0.5,1.4,0.8,2.8,0.8,4.5v17.5c0,0.8,0,1.5,0.1,2.1c0.1,0.6,0.3,1.1,0.5,1.4c0.2,0.4,0.6,0.7,0.9,0.9c0.4,0.2,0.9,0.5,1.5,0.6
		h-10.5c0.6-0.2,1.1-0.4,1.5-0.6c0.4-0.2,0.7-0.5,0.9-0.9c0.2-0.4,0.4-0.9,0.5-1.4c0.1-0.6,0.1-1.3,0.1-2.1V21.6
		c0-3-0.7-5.3-2.1-6.9c-1.4-1.7-3.5-2.5-6.2-2.5c-1.5,0-3,0.3-4.4,0.9c-1.4,0.6-2.7,1.4-3.8,2.5c-1.1,1.1-2,2.5-2.7,4.1
		c-0.7,1.6-1.1,3.5-1.2,5.5v14.5c0,0.8,0,1.5,0.1,2.1c0.1,0.6,0.3,1.1,0.5,1.4c0.2,0.4,0.6,0.7,0.9,0.9c0.4,0.2,0.9,0.5,1.5,0.6
		H245.3z"/>
	<path class="st0" d="M0.1,112.7c1.3-0.4,2.1-0.9,2.7-1.6c0.5-0.7,0.8-2,0.8-3.7V76.8c0-0.9,0-1.6-0.1-2.2c-0.1-0.6-0.2-1-0.4-1.4
		c-0.2-0.4-0.5-0.7-0.9-0.9c-0.4-0.2-0.9-0.4-1.5-0.6H27l1.2,10.8c-0.5-2-1.1-3.7-2-5c-0.9-1.3-1.9-2.3-3-3
		c-1.1-0.7-2.3-1.2-3.7-1.4c-1.3-0.3-2.7-0.4-4.2-0.4H8v17.5h4.8c2,0,3.6-0.1,4.9-0.4c1.3-0.2,2.3-0.6,3.1-1.1
		c0.8-0.5,1.3-1,1.7-1.7c0.4-0.7,0.6-1.4,0.8-2.3l-0.8,12c0-0.9-0.2-1.6-0.4-2.3c-0.3-0.7-0.7-1.3-1.4-1.7c-0.7-0.5-1.7-0.8-2.9-1.1
		c-1.3-0.3-2.9-0.4-5-0.4H8v20.5h9c1.5,0,2.8-0.1,4.1-0.4c1.3-0.3,2.4-0.9,3.5-1.7c1-0.8,2-2,2.8-3.4c0.8-1.5,1.4-3.3,1.9-5.7
		l-1.1,12.2H0.1z"/>
	<path class="st0" d="M40.2,79.3c-0.3,0.3-0.6,0.7-0.7,1.2c-0.2,0.6,0,1.5,0.6,2.9l9.8,24.1l9.4-24c0.3-0.7,0.5-1.4,0.4-1.9
		c0-0.5-0.1-0.9-0.3-1.2c-0.2-0.3-0.4-0.6-0.6-0.7c-0.2-0.2-0.4-0.3-0.6-0.4h5.4c-0.4,0.2-0.8,0.6-1.5,1.2c-0.6,0.6-1.2,1.6-1.8,2.9
		L48,114.7c-0.3,0.7-0.6,1.4-1.1,2.3c-0.5,0.9-1,1.7-1.7,2.5c-0.7,0.8-1.6,1.6-2.5,2.2c-1,0.6-2.1,1-3.5,1.2l-2.1-5.8
		c1.5,0.8,2.9,1.2,4.3,1.2c1.4,0,2.6-0.4,3.8-1.3c1.1-0.9,2-2.2,2.7-4l-12.4-30c-0.5-1.2-1-2.1-1.4-2.6c-0.4-0.5-0.8-0.8-1.1-1H40.2
		z"/>
	<path class="st0" d="M82.2,79.1c2.4,0,4.4,0.3,6.2,1c1.7,0.7,3.2,1.6,4.3,2.8c1.1,1.2,2,2.7,2.6,4.3c0.6,1.7,0.9,3.5,0.9,5.4H71.3
		c-0.1,0.6-0.1,1.2-0.2,1.8c0,0.6-0.1,1.2-0.1,1.9c0,2.2,0.3,4.3,0.9,6.3c0.6,1.9,1.5,3.6,2.5,5c1.1,1.4,2.4,2.5,3.9,3.3
		c1.5,0.8,3.1,1.2,4.9,1.2c1.6,0,3-0.3,4.3-0.9c1.3-0.6,2.4-1.4,3.5-2.4c1.1-1.1,2-2.3,2.9-3.8c0.8-1.5,1.6-3.1,2.2-4.9l-0.5,8.6
		c-1.7,1.5-3.7,2.5-5.9,3.2c-2.2,0.7-4.3,1-6.4,1c-2.5,0-4.8-0.4-6.8-1.2c-2.1-0.8-3.9-1.9-5.4-3.4c-1.5-1.5-2.7-3.2-3.5-5.3
		c-0.8-2.1-1.2-4.4-1.2-6.9c0-2.5,0.4-4.8,1.1-6.8c0.7-2.1,1.8-3.9,3.2-5.4c1.4-1.5,3-2.7,5-3.6C77.5,79.5,79.7,79.1,82.2,79.1z
		 M71.4,91.9h20.1c0-1.7-0.3-3.3-0.7-4.8c-0.4-1.5-1-2.7-1.8-3.8c-0.8-1.1-1.8-2-2.9-2.6c-1.2-0.6-2.5-0.9-4-0.9
		c-1.4,0-2.7,0.3-3.9,0.9c-1.2,0.6-2.2,1.4-3.2,2.5c-0.9,1.1-1.7,2.4-2.3,3.8C72.2,88.5,71.7,90.1,71.4,91.9z"/>
	<path class="st0" d="M100.8,109.6l0.9-11.2c0.2,2.7,0.7,4.9,1.3,6.7c0.6,1.8,1.5,3.2,2.4,4.2c1,1,2.1,1.8,3.3,2.2
		c1.2,0.4,2.6,0.6,4,0.6c3,0,5.1-0.7,6.5-2.1c1.4-1.4,2.1-3.1,2.1-5.2c0-1.2-0.2-2.2-0.6-3c-0.4-0.8-1-1.5-1.6-2
		c-0.6-0.5-1.3-0.9-2-1.2c-0.7-0.3-1.4-0.5-1.9-0.7l-6.3-2.1c-0.6-0.2-1.3-0.5-2.1-0.9c-0.8-0.4-1.5-1-2.2-1.6
		c-0.7-0.7-1.3-1.5-1.8-2.4c-0.5-1-0.7-2.1-0.7-3.4c0-2.6,1-4.6,2.9-6.1c1.9-1.5,4.5-2.2,7.7-2.2c2.2,0,4.1,0.3,5.9,1
		c1.8,0.7,3.3,1.6,4.6,2.7l-0.4,8c-1-3.9-2.3-6.6-3.9-8.3c-1.6-1.7-3.7-2.5-6.4-2.5c-2.1,0-3.9,0.5-5.3,1.5s-2.1,2.5-2.1,4.6
		c0,0.9,0.2,1.7,0.6,2.4c0.4,0.6,0.9,1.2,1.4,1.6c0.6,0.4,1.2,0.7,1.9,1c0.7,0.3,1.3,0.5,1.9,0.7l5.7,1.9c0.7,0.2,1.6,0.6,2.6,1
		c1,0.4,1.9,1,2.7,1.7c0.9,0.7,1.6,1.6,2.2,2.7c0.6,1.1,0.9,2.4,0.9,4c0,1.5-0.3,2.8-0.8,4c-0.6,1.2-1.4,2.3-2.4,3.2
		c-1.1,0.9-2.4,1.6-3.9,2.1c-1.6,0.5-3.4,0.8-5.4,0.8c-2.2,0-4.4-0.3-6.5-0.9C103.9,111.5,102.2,110.7,100.8,109.6z"/>
	<path class="st0" d="M128.7,112.7c0.6-0.2,1.1-0.4,1.5-0.6c0.4-0.2,0.7-0.5,0.9-0.9c0.2-0.4,0.4-0.9,0.5-1.4
		c0.1-0.6,0.1-1.3,0.1-2.1V72.9c0-1.2-0.1-2.1-0.3-2.7c-0.2-0.6-0.6-1.1-1.2-1.5l5.8-0.7v20.4c1-2.9,2.6-5.1,4.7-6.8
		c2.2-1.7,4.9-2.5,8.3-2.5c1.9,0,3.6,0.3,5,0.8c1.5,0.5,2.7,1.3,3.7,2.3c1,1,1.8,2.2,2.3,3.5c0.5,1.4,0.8,2.8,0.8,4.5v17.5
		c0,0.8,0,1.5,0.1,2.1c0.1,0.6,0.3,1.1,0.5,1.4c0.2,0.4,0.6,0.7,0.9,0.9c0.4,0.2,0.9,0.5,1.5,0.6h-10.5c0.6-0.2,1.1-0.4,1.5-0.6
		c0.4-0.2,0.7-0.5,0.9-0.9c0.2-0.4,0.4-0.9,0.5-1.4c0.1-0.6,0.1-1.3,0.1-2.1V89.5c0-3-0.7-5.3-2.1-6.9c-1.4-1.7-3.5-2.5-6.2-2.5
		c-1.5,0-3,0.3-4.4,0.9c-1.4,0.6-2.7,1.4-3.8,2.5c-1.1,1.1-2,2.5-2.7,4.1c-0.7,1.6-1.1,3.5-1.2,5.5v14.5c0,0.8,0,1.5,0.1,2.1
		c0.1,0.6,0.3,1.1,0.5,1.4c0.2,0.4,0.6,0.7,0.9,0.9c0.4,0.2,0.9,0.5,1.5,0.6H128.7z"/>
	<path class="st0" d="M181.8,94.4l6.5-1.6v-4.2c0-3-0.6-5.1-1.7-6.5c-1.2-1.4-2.9-2.1-5.3-2.1c-1.1,0-2.2,0.2-3.4,0.6
		c-1.1,0.4-2.2,1-3.2,2c-1,1-1.9,2.3-2.8,3.9c-0.8,1.7-1.5,3.7-2.1,6.3l-0.4-9.9c1.5-1.1,3.2-2,5.4-2.7c2.1-0.7,4.3-1,6.5-1
		c3.5,0,6.2,0.8,8.2,2.5c2,1.7,3,4.1,3,7.3v18.7c0,1.1,0.1,2.1,0.4,3c0.3,0.9,0.7,1.6,1.3,2.1l-5.8,0.2v-7.8c-0.4,1-0.9,1.9-1.5,2.9
		c-0.6,0.9-1.4,1.8-2.2,2.5c-0.9,0.7-1.9,1.3-3.2,1.8c-1.2,0.4-2.6,0.6-4.2,0.6c-1.4,0-2.7-0.2-4-0.5c-1.2-0.3-2.3-0.8-3.2-1.4
		s-1.6-1.5-2.1-2.4c-0.5-1-0.8-2.1-0.8-3.4c0-1.8,0.5-3.3,1.4-4.5c1-1.2,2.2-2.2,3.6-3.1c1.5-0.8,3-1.5,4.7-2
		C178.8,95.2,180.4,94.7,181.8,94.4z M172.2,105.1c0,2,0.5,3.7,1.6,5c1.1,1.3,2.6,1.9,4.6,1.9c1.1,0,2.2-0.2,3.4-0.7
		c1.1-0.5,2.2-1.2,3.1-2.1c0.9-0.9,1.7-2.1,2.4-3.5c0.6-1.4,1-3,1.1-4.8v-7.3l-6.4,1.5c-0.8,0.2-1.8,0.5-2.9,0.9
		c-1.1,0.4-2.2,1-3.2,1.7c-1,0.7-1.8,1.7-2.5,2.9C172.6,101.8,172.2,103.3,172.2,105.1z"/>
	<path class="st0" d="M214.3,79.1c1.8,0,3.6,0.3,5.2,0.9c1.6,0.6,3.1,1.4,4.4,2.6v-9.6c0-1.2-0.1-2.1-0.3-2.7
		c-0.2-0.6-0.6-1.1-1.2-1.5l5.8-0.7v38.9c0,1.7,0.1,2.9,0.4,3.7c0.3,0.8,0.7,1.5,1.2,2l-5.8,0.2v-4.5c-1.2,1.7-2.7,2.8-4.4,3.6
		c-1.7,0.7-3.5,1.1-5.3,1.1c-2.5,0-4.7-0.4-6.8-1.2c-2-0.8-3.7-2-5.2-3.4c-1.4-1.4-2.5-3.1-3.3-5.1c-0.8-2-1.2-4.1-1.2-6.4
		c0-2.6,0.4-5,1.2-7.2c0.8-2.2,1.9-4.1,3.4-5.6c1.5-1.6,3.2-2.8,5.2-3.7C209.7,79.5,211.9,79.1,214.3,79.1z M202.5,94.5
		c0,2.4,0.3,4.7,0.9,6.8c0.6,2.1,1.4,4,2.5,5.6c1.1,1.6,2.5,2.9,4.1,3.8c1.6,0.9,3.4,1.4,5.5,1.4c1.7,0,3.2-0.4,4.7-1.3
		c1.4-0.8,2.6-2,3.7-3.5v-20c-1-2.5-2.4-4.3-4.1-5.4c-1.7-1.1-3.7-1.7-5.9-1.7c-1.8,0-3.4,0.3-4.7,1c-1.4,0.7-2.6,1.7-3.5,2.9
		c-1,1.3-1.7,2.8-2.2,4.5S202.5,92.3,202.5,94.5z"/>
	<path class="st0" d="M250.9,79.1c2.5,0,4.8,0.4,6.9,1.2c2.1,0.8,3.8,2,5.3,3.5c1.5,1.5,2.7,3.3,3.5,5.4c0.8,2.1,1.2,4.3,1.2,6.8V96
		c0,2.5-0.4,4.7-1.2,6.8c-0.8,2.1-2,3.9-3.5,5.4c-1.5,1.5-3.3,2.7-5.3,3.5c-2.1,0.8-4.4,1.2-6.9,1.2c-2.5,0-4.8-0.4-6.9-1.2
		c-2.1-0.8-3.8-2-5.3-3.5c-1.5-1.5-2.7-3.3-3.5-5.4c-0.8-2.1-1.2-4.3-1.2-6.8V96c0-2.5,0.4-4.7,1.2-6.8c0.8-2.1,2-3.9,3.5-5.4
		c1.5-1.5,3.3-2.7,5.3-3.5C246.1,79.5,248.4,79.1,250.9,79.1z M238.8,96c0,2.4,0.3,4.5,0.9,6.5c0.6,2,1.4,3.7,2.5,5.1
		c1.1,1.4,2.3,2.5,3.8,3.3c1.5,0.8,3.1,1.2,5,1.2c1.8,0,3.5-0.4,5-1.2c1.5-0.8,2.8-1.9,3.8-3.3c1.1-1.4,1.9-3.1,2.5-5.1
		c0.6-2,0.9-4.1,0.9-6.5c0-2.4-0.3-4.5-0.9-6.5c-0.6-2-1.4-3.7-2.5-5.1c-1.1-1.4-2.3-2.5-3.8-3.3c-1.5-0.8-3.1-1.2-5-1.2
		c-1.8,0-3.5,0.4-5,1.2c-1.5,0.8-2.8,1.9-3.8,3.3c-1.1,1.4-1.9,3.1-2.5,5.1C239.1,91.5,238.8,93.6,238.8,96z"/>
	<path class="st0" d="M278,79.3c-0.4,0.3-0.6,0.7-0.9,1.2c-0.2,0.5-0.1,1.3,0.3,2.5l8.3,23l8.4-26.7h0.5l10.7,27.1l6.4-19.8
		c0.5-1.6,0.8-2.9,0.9-3.8c0.1-0.9,0-1.6-0.1-2.1c-0.2-0.5-0.4-0.8-0.7-1c-0.3-0.2-0.5-0.3-0.7-0.4h5.8c-0.6,0.3-1.2,0.8-1.8,1.4
		c-0.6,0.6-1.2,1.8-1.7,3.6l-9.2,28.3h-0.7L292.9,86l-8.4,26.7h-0.7l-10.2-28.1c-0.7-1.8-1.2-3-1.7-3.8c-0.5-0.7-0.9-1.2-1.3-1.4
		H278z"/>
	<path class="st0" d="M63.2,180.6c1.3-0.4,2.1-0.9,2.5-1.6c0.4-0.7,0.6-1.9,0.6-3.6v-30.6c0-0.9,0-1.6-0.1-2.2
		c-0.1-0.6-0.3-1.1-0.5-1.4c-0.2-0.4-0.6-0.7-1-1c-0.4-0.3-0.9-0.5-1.6-0.6h15.2c1.8,0,3.6,0.2,5.4,0.6c1.8,0.4,3.5,1,5,1.9
		c1.5,0.9,2.8,2,3.7,3.5c1,1.4,1.4,3.2,1.4,5.4c0,2.1-0.5,4-1.4,5.5c-1,1.5-2.2,2.8-3.7,3.8c-1.5,1-3.2,1.8-5.1,2.2
		c-1.9,0.5-3.7,0.7-5.5,0.7h-7.3v12.2c0,1.7,0.2,2.9,0.7,3.6c0.5,0.7,1.3,1.2,2.5,1.6H63.2z M70.9,140.5v21.7h6.2
		c1.6,0,3.1-0.2,4.5-0.6c1.5-0.4,2.7-1.1,3.9-2c1.1-0.9,2-2.1,2.7-3.5c0.7-1.4,1-3.1,1-5c0-3.5-1.1-6.1-3.2-7.9
		c-2.1-1.8-5.1-2.7-8.9-2.7H70.9z"/>
	<path class="st0" d="M112.6,162.3l6.5-1.6v-4.2c0-3-0.6-5.1-1.7-6.5c-1.2-1.4-2.9-2.1-5.3-2.1c-1.1,0-2.2,0.2-3.4,0.6
		c-1.1,0.4-2.2,1-3.2,2c-1,1-1.9,2.3-2.8,3.9c-0.8,1.7-1.5,3.7-2.1,6.3l-0.4-9.9c1.5-1.1,3.2-2,5.4-2.7c2.1-0.7,4.3-1,6.5-1
		c3.5,0,6.2,0.8,8.2,2.5c2,1.7,3,4.1,3,7.3v18.7c0,1.1,0.1,2.1,0.4,3c0.3,0.9,0.7,1.6,1.3,2.1l-5.8,0.2V173c-0.4,1-0.9,1.9-1.5,2.9
		c-0.6,0.9-1.4,1.8-2.2,2.5c-0.9,0.7-1.9,1.3-3.2,1.8c-1.2,0.4-2.6,0.6-4.2,0.6c-1.4,0-2.7-0.2-4-0.5c-1.2-0.3-2.3-0.8-3.2-1.4
		s-1.6-1.5-2.1-2.4c-0.5-1-0.8-2.1-0.8-3.4c0-1.8,0.5-3.3,1.4-4.5c1-1.2,2.2-2.2,3.6-3.1c1.5-0.8,3-1.5,4.7-2
		C109.7,163.1,111.2,162.6,112.6,162.3z M103.1,173c0,2,0.5,3.7,1.6,5c1.1,1.3,2.6,1.9,4.6,1.9c1.1,0,2.2-0.2,3.4-0.7
		c1.1-0.5,2.2-1.2,3.1-2.1c0.9-0.9,1.7-2.1,2.4-3.5c0.6-1.4,1-3,1.1-4.8v-7.3l-6.4,1.5c-0.8,0.2-1.8,0.5-2.9,0.9
		c-1.1,0.4-2.2,1-3.2,1.7c-1,0.7-1.8,1.7-2.5,2.9C103.4,169.7,103.1,171.2,103.1,173z"/>
	<path class="st0" d="M128.9,180.6c0.6-0.2,1.1-0.4,1.5-0.6c0.4-0.2,0.7-0.5,0.9-0.9c0.2-0.4,0.4-0.9,0.5-1.4
		c0.1-0.6,0.1-1.3,0.1-2.1v-34.6c0-1.2-0.1-2.1-0.3-2.7c-0.2-0.6-0.6-1.1-1.2-1.5l5.8-0.7v39.5c0,0.8,0,1.5,0.1,2.1
		c0.1,0.6,0.3,1.1,0.5,1.4c0.2,0.4,0.6,0.7,0.9,0.9c0.4,0.2,0.9,0.5,1.5,0.6H128.9z"/>
	<path class="st0" d="M158.9,147c2.4,0,4.4,0.3,6.2,1c1.7,0.7,3.2,1.6,4.3,2.8c1.1,1.2,2,2.7,2.6,4.3c0.6,1.7,0.9,3.5,0.9,5.4H148
		c-0.1,0.6-0.1,1.2-0.2,1.8c0,0.6-0.1,1.2-0.1,1.9c0,2.2,0.3,4.3,0.9,6.3c0.6,1.9,1.5,3.6,2.5,5c1.1,1.4,2.4,2.5,3.9,3.3
		c1.5,0.8,3.1,1.2,4.9,1.2c1.6,0,3-0.3,4.3-0.9c1.3-0.6,2.4-1.4,3.5-2.4c1.1-1.1,2-2.3,2.9-3.8c0.8-1.5,1.6-3.1,2.2-4.9l-0.5,8.6
		c-1.7,1.5-3.7,2.5-5.9,3.2c-2.2,0.7-4.3,1-6.4,1c-2.5,0-4.8-0.4-6.8-1.2c-2.1-0.8-3.9-1.9-5.4-3.4c-1.5-1.5-2.7-3.2-3.5-5.3
		c-0.8-2.1-1.2-4.4-1.2-6.9c0-2.5,0.4-4.8,1.1-6.8c0.7-2.1,1.8-3.9,3.2-5.4c1.4-1.5,3-2.7,5-3.6C154.2,147.4,156.4,147,158.9,147z
		 M148.1,159.8h20.1c0-1.7-0.3-3.3-0.7-4.8c-0.4-1.5-1-2.7-1.8-3.8c-0.8-1.1-1.8-2-2.9-2.6c-1.2-0.6-2.5-0.9-4-0.9
		c-1.4,0-2.7,0.3-3.9,0.9c-1.2,0.6-2.2,1.4-3.2,2.5c-0.9,1.1-1.7,2.4-2.3,3.8C148.9,156.4,148.4,158,148.1,159.8z"/>
	<path class="st0" d="M182.8,147.2l4.1-8.2v8.2h9.7v0.6h-9.7v25.4c0,1.3,0.1,2.4,0.3,3.2c0.2,0.9,0.4,1.6,0.7,2.1
		c0.3,0.5,0.7,0.9,1.2,1.1c0.5,0.2,1.1,0.3,1.7,0.3c1.1,0,2.1-0.3,2.9-1c0.8-0.6,1.5-1.6,2.2-2.7l0.8,0.5c-0.8,1.3-1.6,2.3-2.6,3
		c-0.9,0.7-2.3,1.1-4,1.1c-2.8,0-4.7-0.8-5.8-2.4c-1.1-1.6-1.7-3.8-1.7-6.8v-23.8h-5.8v-0.6H182.8z"/>
	<path class="st0" d="M205.1,147.2l4.1-8.2v8.2h9.7v0.6h-9.7v25.4c0,1.3,0.1,2.4,0.3,3.2c0.2,0.9,0.4,1.6,0.7,2.1
		c0.3,0.5,0.7,0.9,1.2,1.1c0.5,0.2,1.1,0.3,1.7,0.3c1.1,0,2.1-0.3,2.9-1c0.8-0.6,1.5-1.6,2.2-2.7l0.8,0.5c-0.8,1.3-1.6,2.3-2.6,3
		c-0.9,0.7-2.3,1.1-4,1.1c-2.8,0-4.7-0.8-5.8-2.4c-1.1-1.6-1.7-3.8-1.7-6.8v-23.8h-5.8v-0.6H205.1z"/>
	<path class="st0" d="M237.9,147c2.4,0,4.4,0.3,6.2,1c1.7,0.7,3.2,1.6,4.3,2.8c1.1,1.2,2,2.7,2.6,4.3c0.6,1.7,0.9,3.5,0.9,5.4h-24.8
		c-0.1,0.6-0.1,1.2-0.2,1.8c0,0.6-0.1,1.2-0.1,1.9c0,2.2,0.3,4.3,0.9,6.3c0.6,1.9,1.5,3.6,2.5,5c1.1,1.4,2.4,2.5,3.9,3.3
		c1.5,0.8,3.1,1.2,4.9,1.2c1.6,0,3-0.3,4.3-0.9c1.3-0.6,2.4-1.4,3.5-2.4c1.1-1.1,2-2.3,2.9-3.8c0.8-1.5,1.6-3.1,2.2-4.9l-0.5,8.6
		c-1.7,1.5-3.7,2.5-5.9,3.2c-2.2,0.7-4.3,1-6.4,1c-2.5,0-4.8-0.4-6.8-1.2c-2.1-0.8-3.9-1.9-5.4-3.4c-1.5-1.5-2.7-3.2-3.5-5.3
		c-0.8-2.1-1.2-4.4-1.2-6.9c0-2.5,0.4-4.8,1.1-6.8c0.7-2.1,1.8-3.9,3.2-5.4c1.4-1.5,3-2.7,5-3.6C233.3,147.4,235.5,147,237.9,147z
		 M227.2,159.8h20.1c0-1.7-0.3-3.3-0.7-4.8c-0.4-1.5-1-2.7-1.8-3.8c-0.8-1.1-1.8-2-2.9-2.6c-1.2-0.6-2.5-0.9-4-0.9
		c-1.4,0-2.7,0.3-3.9,0.9c-1.2,0.6-2.2,1.4-3.2,2.5c-0.9,1.1-1.7,2.4-2.3,3.8C227.9,156.4,227.5,158,227.2,159.8z"/>
</g>
</svg>
