<?xml version="1.0" encoding="utf-8"?>
<!-- Generator: Adobe Illustrator 25.4.1, SVG Export Plug-In . SVG Version: 6.00 Build 0)  -->
<svg version="1.1" id="レイヤー_1" xmlns="http://www.w3.org/2000/svg" xmlns:xlink="http://www.w3.org/1999/xlink" x="0px"
	 y="0px" viewBox="0 0 417 41" style="enable-background:new 0 0 417 41;" xml:space="preserve">
<style type="text/css">
	.st0{fill:#FFFFFF;stroke:#FFFFFF;stroke-width:0.25;stroke-miterlimit:10;}
</style>
<g>
	<g>
		<path class="st0" d="M0.2,22c0-2.9,0.3-5.5,1-7.8c0.6-2.3,1.6-4.3,2.8-6c1.2-1.6,2.6-2.9,4.3-3.8C9.9,3.5,11.8,3,13.8,3
			c2.1,0,4,0.5,5.6,1.4c1.7,0.9,3.1,2.2,4.3,3.8c1.2,1.6,2.1,3.6,2.8,6c0.6,2.3,1,4.9,1,7.8c0,2.8-0.3,5.4-1,7.8
			c-0.6,2.3-1.6,4.3-2.8,6c-1.2,1.6-2.6,2.9-4.3,3.8c-1.7,0.9-3.6,1.4-5.6,1.4c-2,0-3.9-0.5-5.6-1.4c-1.7-0.9-3.1-2.2-4.3-3.8
			c-1.2-1.6-2.1-3.6-2.8-6C0.5,27.4,0.2,24.8,0.2,22z M4.7,22c0,5.7,0.8,10.2,2.3,13.4c1.6,3.2,3.8,4.8,6.7,4.8c3,0,5.2-1.6,6.8-4.8
			C22.2,32.2,23,27.7,23,22s-0.8-10.2-2.3-13.4c-1.6-3.2-3.8-4.8-6.8-4.8c-2.9,0-5.2,1.6-6.7,4.8C5.5,11.9,4.7,16.3,4.7,22z"/>
		<path class="st0" d="M32.5,40.3c3.1-3.1,5.8-6,8.1-8.5s4.1-5,5.6-7.2c1.5-2.2,2.5-4.3,3.2-6.3c0.7-2,1-3.9,1-5.8
			c0-2.7-0.6-4.8-1.8-6.3c-1.2-1.5-2.8-2.2-4.7-2.2c-0.9,0-1.8,0.2-2.7,0.6s-1.9,1-2.9,2s-1.8,2.3-2.7,3.9c-0.8,1.6-1.5,3.8-2.1,6.3
			l0.5-10.5c1.6-1,3.2-1.8,4.8-2.4C40.5,3.3,42.4,3,44.4,3c3.4,0,6,0.7,7.9,2.2c1.9,1.5,2.8,3.4,2.8,5.8c0,1.5-0.4,3.2-1.2,5
			c-0.8,1.8-2,3.8-3.6,5.9c-1.6,2.2-3.5,4.5-5.9,7c-2.3,2.5-5,5.3-8,8.3H48c1.4,0,2.5-0.1,3.4-0.2c0.9-0.1,1.7-0.3,2.3-0.6
			c0.6-0.3,1.1-0.8,1.6-1.4c0.4-0.6,0.8-1.4,1.2-2.4l-0.3,8.1H32.6L32.5,40.3z"/>
		<path class="st0" d="M80.6,33.1L94.4,3.3h0.3L110.5,37c0.6,1.3,1.1,2.2,1.6,2.7c0.5,0.5,0.9,0.9,1.4,1h-8.2
			c0.2-0.1,0.5-0.3,0.7-0.5c0.2-0.2,0.4-0.5,0.5-0.9c0.1-0.4,0.1-0.9,0-1.5c-0.1-0.6-0.3-1.3-0.7-2.2l-4.4-9.6H84.9l-4.4,9.5
			c-0.4,0.9-0.7,1.7-0.9,2.3c-0.1,0.6-0.2,1.1-0.1,1.5s0.2,0.7,0.4,0.8c0.2,0.2,0.4,0.3,0.6,0.4h-4.7c0.3-0.1,0.5-0.2,0.8-0.4
			c0.3-0.2,0.6-0.6,0.9-1.1c0.4-0.5,0.8-1.3,1.3-2.3C79.2,36,79.8,34.7,80.6,33.1z M101,25.4l-7.9-17l-7.9,17H101z"/>
		<path class="st0" d="M119.1,36V16.2c0-0.8,0-1.4-0.1-2c-0.1-0.6-0.1-1-0.2-1.5c-0.1-0.4-0.3-0.8-0.5-1.2c-0.2-0.4-0.4-0.7-0.7-1.1
			l5.5-0.5v8.5c0.9-2.6,2.2-4.7,4.2-6.2c1.9-1.5,4.3-2.3,7.1-2.3c3.1,0,5.6,0.8,7.4,2.4c1.8,1.6,2.9,3.7,3.2,6.3
			c0.8-2.7,2.2-4.8,4.1-6.3c1.9-1.5,4.3-2.3,7.2-2.3c1.7,0,3.2,0.2,4.5,0.7s2.4,1.2,3.4,2.1c0.9,0.9,1.6,2,2.1,3.2
			c0.5,1.2,0.7,2.6,0.7,4.1V36c0,0.8,0,1.4,0.1,1.9c0.1,0.5,0.2,1,0.5,1.3c0.2,0.4,0.5,0.6,0.9,0.9c0.4,0.2,0.8,0.4,1.3,0.6h-9.6
			c0.6-0.2,1-0.4,1.4-0.6c0.4-0.2,0.6-0.5,0.9-0.8c0.2-0.3,0.4-0.8,0.4-1.3c0.1-0.5,0.1-1.2,0.1-1.9V19.6c0-2.7-0.6-4.8-1.9-6.4
			c-1.3-1.6-3.1-2.3-5.6-2.3c-1.3,0-2.5,0.3-3.7,0.8c-1.2,0.5-2.3,1.3-3.3,2.3s-1.8,2.3-2.4,3.7c-0.6,1.5-1,3.2-1.1,5.1V36
			c0,0.8,0,1.4,0.1,1.9c0.1,0.5,0.2,1,0.5,1.3c0.2,0.4,0.5,0.6,0.9,0.9c0.4,0.2,0.8,0.4,1.3,0.6h-9.6c0.6-0.2,1-0.4,1.4-0.6
			c0.4-0.2,0.6-0.5,0.9-0.8c0.2-0.3,0.4-0.8,0.4-1.3c0.1-0.5,0.1-1.2,0.1-1.9V19.6c0-2.7-0.6-4.8-1.9-6.4c-1.3-1.6-3.1-2.3-5.6-2.3
			c-1.3,0-2.5,0.3-3.7,0.8c-1.2,0.5-2.3,1.3-3.3,2.3s-1.8,2.3-2.4,3.7c-0.6,1.5-1,3.2-1.1,5.1V36c0,0.8,0,1.4,0.1,1.9
			c0.1,0.5,0.2,1,0.5,1.3c0.2,0.4,0.5,0.6,0.9,0.9c0.4,0.2,0.8,0.4,1.3,0.6h-9.6c0.6-0.2,1-0.4,1.4-0.6c0.4-0.2,0.6-0.5,0.9-0.8
			c0.2-0.3,0.4-0.8,0.4-1.3C119.1,37.4,119.1,36.8,119.1,36z"/>
		<path class="st0" d="M173,0.7l5.3-0.6v13.7c0.6-0.8,1.3-1.4,2.1-1.9s1.5-0.9,2.3-1.1c0.8-0.3,1.5-0.4,2.3-0.5
			c0.8-0.1,1.5-0.1,2.2-0.1c2.3,0,4.4,0.3,6.3,1c1.9,0.7,3.5,1.7,4.8,3c1.3,1.3,2.3,2.8,3,4.6s1.1,3.8,1.1,6c0,2.3-0.4,4.4-1.2,6.3
			c-0.8,2-1.8,3.7-3.2,5.2c-1.4,1.5-3,2.7-4.9,3.5c-1.9,0.8-3.9,1.3-6.2,1.3c-3.8,0-7-1.2-9.6-3.7l-2.9,3.5l-0.2-0.1V4.5
			c0-1.1-0.1-1.9-0.3-2.4C173.9,1.6,173.5,1.1,173,0.7z M187.4,40.1c1.7,0,3.2-0.3,4.5-1c1.3-0.7,2.5-1.6,3.4-2.8
			c0.9-1.2,1.6-2.6,2.2-4.2c0.5-1.6,0.8-3.4,0.8-5.3c0-2.2-0.3-4.2-0.8-6.1c-0.5-1.9-1.3-3.6-2.3-5c-1-1.4-2.3-2.6-3.8-3.4
			c-1.5-0.8-3.2-1.3-5.2-1.3c-1.3,0-2.7,0.3-4.1,0.8c-1.4,0.5-2.7,1.5-3.8,3V34c1,2,2.3,3.5,3.8,4.5
			C183.6,39.6,185.4,40.1,187.4,40.1z"/>
		<path class="st0" d="M219.9,10.1c2.2,0,4,0.3,5.6,0.9c1.6,0.6,2.9,1.5,4,2.6c1,1.1,1.8,2.4,2.3,3.9c0.5,1.5,0.8,3.2,0.8,4.9H210
			c-0.1,0.5-0.1,1.1-0.2,1.6c0,0.6-0.1,1.1-0.1,1.7c0,2,0.3,4,0.8,5.7s1.3,3.3,2.3,4.6c1,1.3,2.2,2.3,3.5,3c1.4,0.7,2.9,1.1,4.5,1.1
			c1.4,0,2.7-0.3,3.9-0.8c1.2-0.5,2.2-1.3,3.2-2.2c1-1,1.8-2.1,2.6-3.5c0.8-1.3,1.4-2.8,2-4.4l-0.5,7.8c-1.6,1.3-3.4,2.3-5.4,2.9
			c-2,0.6-4,0.9-5.9,0.9c-2.3,0-4.3-0.4-6.2-1.1c-1.9-0.7-3.5-1.8-4.9-3.1c-1.4-1.3-2.4-2.9-3.2-4.8c-0.8-1.9-1.1-4-1.1-6.3
			c0-2.3,0.3-4.3,1-6.2c0.7-1.9,1.6-3.5,2.9-4.9s2.8-2.5,4.5-3.3C215.7,10.5,217.7,10.1,219.9,10.1z M210.1,21.8h18.3
			c0-1.6-0.3-3-0.6-4.4c-0.4-1.3-1-2.5-1.7-3.5c-0.7-1-1.6-1.8-2.7-2.3c-1.1-0.6-2.3-0.8-3.6-0.8c-1.3,0-2.5,0.3-3.5,0.8
			c-1.1,0.5-2,1.3-2.9,2.3c-0.8,1-1.5,2.2-2.1,3.5S210.4,20.2,210.1,21.8z"/>
		<path class="st0" d="M236.4,40.7c0.6-0.2,1-0.4,1.4-0.6c0.4-0.2,0.6-0.5,0.9-0.8c0.2-0.3,0.4-0.8,0.4-1.3c0.1-0.5,0.1-1.2,0.1-1.9
			V16.2c0-0.8,0-1.4-0.1-2c-0.1-0.6-0.1-1-0.2-1.5c-0.1-0.4-0.3-0.8-0.5-1.2c-0.2-0.4-0.4-0.7-0.7-1.1l5.4-0.5v7.2
			c0.4-1,0.9-1.9,1.5-2.8s1.2-1.6,1.9-2.3c0.7-0.6,1.5-1.1,2.5-1.5c1-0.4,2-0.5,3.3-0.5c1.1,0,2.2,0.1,3.1,0.4l-0.1,5.2
			c-0.3-0.4-0.7-0.8-1.2-1.2s-0.9-0.8-1.4-1.2c-0.5-0.4-1-0.7-1.6-0.9c-0.5-0.2-1.1-0.3-1.7-0.3c-0.7,0-1.4,0.2-2,0.5
			c-0.6,0.4-1.2,0.8-1.7,1.4c-0.5,0.6-1,1.3-1.4,2.1c-0.4,0.8-0.8,1.7-1.1,2.6V36c0,0.8,0,1.4,0.1,1.9c0.1,0.5,0.2,1,0.5,1.3
			c0.2,0.4,0.5,0.6,0.9,0.9c0.4,0.2,0.8,0.4,1.3,0.6H236.4z"/>
		<path class="st0" d="M276.8,36V8.1c0-0.8,0-1.4-0.1-2c-0.1-0.5-0.2-1-0.5-1.3c-0.2-0.4-0.5-0.7-0.9-0.9c-0.4-0.2-0.9-0.4-1.4-0.6
			h5.2l16.2,32.6l14.1-32.6h6.5c-1.1,0.4-1.9,0.9-2.3,1.5c-0.4,0.6-0.6,1.7-0.6,3.3V36c0,1.5,0.2,2.6,0.6,3.3
			c0.4,0.6,1.2,1.1,2.3,1.5h-9.8c1.1-0.3,1.9-0.8,2.3-1.5c0.4-0.6,0.6-1.7,0.6-3.3V7L294,40.7h-0.6L277.7,9.1V36
			c0,1.5,0.2,2.6,0.6,3.3c0.4,0.6,1.2,1.1,2.3,1.5h-6.7c1.1-0.3,1.9-0.8,2.3-1.5C276.6,38.6,276.8,37.5,276.8,36z"/>
		<path class="st0" d="M335.1,10.1c2.3,0,4.4,0.4,6.3,1.1c1.9,0.8,3.5,1.8,4.9,3.2c1.4,1.4,2.4,3,3.2,4.9s1.1,4,1.1,6.2v0.1
			c0,2.3-0.4,4.3-1.1,6.2c-0.8,1.9-1.8,3.5-3.2,4.9c-1.4,1.4-3,2.4-4.9,3.2s-4,1.1-6.3,1.1s-4.4-0.4-6.3-1.1s-3.5-1.8-4.9-3.2
			c-1.4-1.4-2.4-3-3.2-4.9c-0.8-1.9-1.1-4-1.1-6.2v-0.1c0-2.3,0.4-4.3,1.1-6.2s1.8-3.5,3.2-4.9c1.4-1.4,3-2.4,4.9-3.2
			C330.7,10.4,332.8,10.1,335.1,10.1z M324,25.5c0,2.2,0.3,4.1,0.8,5.9c0.5,1.8,1.3,3.3,2.3,4.7c1,1.3,2.1,2.3,3.5,3
			c1.4,0.7,2.9,1.1,4.5,1.1s3.2-0.4,4.5-1.1c1.4-0.7,2.5-1.7,3.5-3c1-1.3,1.7-2.9,2.3-4.7c0.5-1.8,0.8-3.8,0.8-5.9s-0.3-4.1-0.8-5.9
			c-0.5-1.8-1.3-3.3-2.3-4.6c-1-1.3-2.1-2.3-3.5-3c-1.4-0.7-2.9-1.1-4.5-1.1s-3.2,0.4-4.5,1.1c-1.4,0.7-2.5,1.7-3.5,3
			s-1.7,2.8-2.3,4.6C324.3,21.4,324,23.3,324,25.5z"/>
		<path class="st0" d="M369.3,10.1c2.3,0,4.4,0.4,6.3,1.1c1.9,0.8,3.5,1.8,4.9,3.2c1.4,1.4,2.4,3,3.2,4.9s1.1,4,1.1,6.2v0.1
			c0,2.3-0.4,4.3-1.1,6.2c-0.8,1.9-1.8,3.5-3.2,4.9c-1.4,1.4-3,2.4-4.9,3.2s-4,1.1-6.3,1.1s-4.4-0.4-6.3-1.1s-3.5-1.8-4.9-3.2
			c-1.4-1.4-2.4-3-3.2-4.9c-0.8-1.9-1.1-4-1.1-6.2v-0.1c0-2.3,0.4-4.3,1.1-6.2s1.8-3.5,3.2-4.9c1.4-1.4,3-2.4,4.9-3.2
			C364.9,10.4,367,10.1,369.3,10.1z M358.2,25.5c0,2.2,0.3,4.1,0.8,5.9c0.5,1.8,1.3,3.3,2.3,4.7c1,1.3,2.1,2.3,3.5,3
			c1.4,0.7,2.9,1.1,4.5,1.1s3.2-0.4,4.5-1.1c1.4-0.7,2.5-1.7,3.5-3c1-1.3,1.7-2.9,2.3-4.7c0.5-1.8,0.8-3.8,0.8-5.9s-0.3-4.1-0.8-5.9
			c-0.5-1.8-1.3-3.3-2.3-4.6c-1-1.3-2.1-2.3-3.5-3c-1.4-0.7-2.9-1.1-4.5-1.1s-3.2,0.4-4.5,1.1c-1.4,0.7-2.5,1.7-3.5,3
			s-1.7,2.8-2.3,4.6C358.5,21.4,358.2,23.3,358.2,25.5z"/>
		<path class="st0" d="M402.6,10.1c1.7,0,3.3,0.3,4.7,0.8c1.5,0.5,2.8,1.3,4,2.3V4.5c0-1.1-0.1-1.9-0.3-2.4c-0.2-0.5-0.5-1-1.1-1.4
			l5.3-0.6v35.4c0,1.5,0.1,2.7,0.4,3.4c0.3,0.7,0.6,1.4,1.1,1.9l-5.3,0.2v-4.1c-1.1,1.5-2.5,2.6-4,3.3c-1.6,0.7-3.2,1-4.8,1
			c-2.3,0-4.3-0.4-6.2-1.1c-1.8-0.8-3.4-1.8-4.7-3.1c-1.3-1.3-2.3-2.9-3-4.7c-0.7-1.8-1.1-3.7-1.1-5.8c0-2.4,0.4-4.6,1.1-6.6
			s1.8-3.7,3.1-5.1c1.3-1.4,2.9-2.5,4.7-3.3C398.5,10.5,400.5,10.1,402.6,10.1z M391.9,24.1c0,2.2,0.3,4.2,0.8,6.2
			c0.5,1.9,1.3,3.6,2.3,5.1c1,1.5,2.3,2.6,3.7,3.4c1.5,0.8,3.1,1.3,5,1.3c1.5,0,3-0.4,4.2-1.2c1.3-0.8,2.4-1.8,3.3-3.2V17.5
			c-0.9-2.3-2.2-3.9-3.7-4.9c-1.6-1-3.3-1.6-5.4-1.6c-1.6,0-3.1,0.3-4.3,0.9c-1.3,0.6-2.3,1.5-3.2,2.7c-0.9,1.1-1.6,2.5-2,4.1
			C392.2,20.3,391.9,22.1,391.9,24.1z"/>
	</g>
</g>
</svg>
