<?xml version="1.0" encoding="utf-8"?>
<!-- Generator: Adobe Illustrator 25.4.1, SVG Export Plug-In . SVG Version: 6.00 Build 0)  -->
<svg version="1.1" id="レイヤー_1" xmlns="http://www.w3.org/2000/svg" xmlns:xlink="http://www.w3.org/1999/xlink" x="0px"
	 y="0px" viewBox="0 0 407 89" style="enable-background:new 0 0 407 89;" xml:space="preserve">
<style type="text/css">
	.st0{fill:#F08984;}
</style>
<g>
	<path class="st0" d="M0.8,2.7h23.6l0.5,10.3c-0.3-2.1-0.6-3.7-1-5c-0.4-1.2-0.9-2.2-1.5-2.9c-0.6-0.7-1.2-1.1-2-1.4
		c-0.8-0.2-1.7-0.3-2.8-0.3h-3.4v26c0,0.6,0,1.1,0.1,1.6c0.1,0.4,0.2,0.8,0.4,1.1c0.2,0.3,0.4,0.5,0.7,0.7c0.3,0.2,0.7,0.4,1.1,0.5
		H8.6C9,33.2,9.4,33,9.7,32.8c0.3-0.2,0.5-0.4,0.7-0.7c0.2-0.3,0.3-0.7,0.4-1.1c0.1-0.4,0.1-1,0.1-1.6v-26H7.6c-1.1,0-2,0.1-2.8,0.3
		C4,4,3.4,4.5,2.8,5.2C2.2,5.9,1.7,6.8,1.3,8.1c-0.4,1.2-0.8,2.9-1.1,5L0.8,2.7z"/>
	<path class="st0" d="M28.9,33.3c0.5-0.1,0.8-0.3,1.1-0.5c0.3-0.2,0.5-0.4,0.7-0.7c0.2-0.3,0.3-0.6,0.3-1.1c0.1-0.4,0.1-1,0.1-1.6
		V3.7c0-0.9-0.1-1.6-0.2-2c-0.1-0.4-0.4-0.8-0.9-1.1L34.4,0v15.2c0.7-2.1,1.9-3.8,3.5-5.1c1.6-1.2,3.6-1.9,6.1-1.9
		c1.4,0,2.6,0.2,3.7,0.6c1.1,0.4,2,1,2.7,1.7c0.7,0.7,1.3,1.6,1.7,2.6c0.4,1,0.6,2.1,0.6,3.3v13c0,0.6,0,1.1,0.1,1.6
		c0.1,0.4,0.2,0.8,0.4,1.1c0.2,0.3,0.4,0.5,0.7,0.7c0.3,0.2,0.7,0.3,1.1,0.5h-7.8c0.5-0.1,0.8-0.3,1.1-0.5c0.3-0.2,0.5-0.4,0.7-0.7
		c0.2-0.3,0.3-0.6,0.3-1.1c0.1-0.4,0.1-1,0.1-1.6V16c0-2.2-0.5-3.9-1.6-5.2c-1-1.2-2.6-1.9-4.6-1.9c-1.1,0-2.2,0.2-3.3,0.6
		c-1,0.4-2,1-2.8,1.9c-0.8,0.8-1.5,1.8-2,3c-0.5,1.2-0.8,2.6-0.9,4.1v10.8c0,0.6,0,1.1,0.1,1.6c0.1,0.4,0.2,0.8,0.4,1.1
		c0.2,0.3,0.4,0.5,0.7,0.7c0.3,0.2,0.7,0.3,1.1,0.5H28.9z"/>
	<path class="st0" d="M70.1,8.2c1.7,0,3.3,0.2,4.6,0.7c1.3,0.5,2.4,1.2,3.2,2.1c0.8,0.9,1.5,2,1.9,3.2c0.4,1.2,0.6,2.6,0.7,4H62.1
		c-0.1,0.4-0.1,0.9-0.1,1.3c0,0.5,0,0.9,0,1.4c0,1.7,0.2,3.2,0.7,4.7c0.4,1.5,1.1,2.7,1.9,3.8c0.8,1.1,1.7,1.9,2.9,2.5
		c1.1,0.6,2.3,0.9,3.6,0.9c1.2,0,2.2-0.2,3.2-0.6c0.9-0.4,1.8-1,2.6-1.8c0.8-0.8,1.5-1.7,2.1-2.8c0.6-1.1,1.2-2.3,1.6-3.6L80,30.4
		c-1.3,1.1-2.7,1.9-4.4,2.4c-1.6,0.5-3.2,0.8-4.7,0.8c-1.8,0-3.5-0.3-5.1-0.9c-1.5-0.6-2.9-1.4-4-2.5c-1.1-1.1-2-2.4-2.6-4
		c-0.6-1.6-0.9-3.3-0.9-5.1c0-1.8,0.3-3.5,0.8-5.1c0.5-1.6,1.3-2.9,2.3-4c1-1.1,2.2-2,3.7-2.7S68.3,8.2,70.1,8.2z M62.2,17.8H77
		c0-1.3-0.2-2.5-0.5-3.6c-0.3-1.1-0.8-2-1.4-2.9c-0.6-0.8-1.3-1.5-2.2-1.9C72.1,9,71.1,8.8,70,8.8c-1,0-2,0.2-2.9,0.7
		c-0.9,0.4-1.6,1.1-2.3,1.9c-0.7,0.8-1.2,1.8-1.7,2.9C62.7,15.3,62.4,16.5,62.2,17.8z"/>
	<path class="st0" d="M98.9,30.1l0.7-8.2c0.3,3.5,1.4,6.2,3,8.1c1.7,1.9,3.9,2.9,6.8,2.9c1.2,0,2.2-0.2,3.1-0.5
		c0.9-0.3,1.7-0.8,2.4-1.4c0.6-0.6,1.1-1.3,1.5-2.1c0.3-0.8,0.5-1.6,0.5-2.5c0-1.1-0.2-2.1-0.7-2.8c-0.5-0.8-1-1.4-1.6-1.9
		c-0.6-0.5-1.3-0.9-2-1.3c-0.7-0.3-1.2-0.5-1.7-0.7l-4.2-1.6c-0.6-0.2-1.2-0.5-2-0.9c-0.8-0.4-1.5-0.9-2.3-1.5
		c-0.7-0.6-1.4-1.4-1.9-2.3c-0.5-0.9-0.8-2-0.8-3.3c0-1.1,0.2-2.1,0.6-3c0.4-0.9,0.9-1.8,1.7-2.5c0.8-0.7,1.7-1.3,2.8-1.6
		c1.1-0.4,2.4-0.6,3.9-0.6c1.3,0,2.8,0.2,4.4,0.6c1.6,0.4,3,1,4.3,1.8l0.3,8.4c-0.5-3.2-1.5-5.7-2.9-7.5c-1.5-1.8-3.5-2.7-6-2.7
		c-1,0-2,0.1-2.8,0.4c-0.9,0.3-1.6,0.7-2.2,1.2c-0.6,0.5-1.1,1.1-1.5,1.8c-0.3,0.7-0.5,1.4-0.5,2.2c0,0.9,0.2,1.7,0.6,2.3
		c0.4,0.6,0.9,1.2,1.5,1.7c0.6,0.5,1.2,0.9,1.9,1.1c0.7,0.3,1.2,0.5,1.7,0.7l4.5,1.7c2.2,0.9,4,2,5.3,3.3s2,3.1,2,5.3
		c0,1.2-0.2,2.4-0.7,3.4c-0.5,1.1-1.1,2-1.9,2.8c-0.8,0.8-1.9,1.4-3.1,1.8s-2.6,0.7-4.1,0.7c-2,0-4-0.3-5.9-0.9
		C101.6,32.1,100.1,31.3,98.9,30.1z"/>
	<path class="st0" d="M123.4,33.3c0.5-0.1,0.8-0.3,1.1-0.5c0.3-0.2,0.5-0.4,0.7-0.7c0.2-0.3,0.3-0.6,0.3-1.1c0.1-0.4,0.1-1,0.1-1.6
		V3.7c0-0.9-0.1-1.6-0.2-2c-0.1-0.4-0.4-0.8-0.9-1.1l4.3-0.5v22.5l11.2-9.9c0.8-0.7,1.4-1.4,2-2.1c0.5-0.7,0.8-1.4,0.7-2.1h4
		c-0.3,0.1-0.6,0.3-1,0.6c-0.4,0.2-0.8,0.6-1.4,1c-0.5,0.4-1.1,0.9-1.8,1.5c-0.7,0.6-1.5,1.3-2.5,2.2l-4.8,4.3l8.3,10.6
		c0.8,1,1.5,1.8,2,2.5c0.5,0.6,0.9,1.1,1.2,1.5c0.3,0.4,0.5,0.6,0.6,0.7c0.1,0.1,0.2,0.2,0.3,0.2h-5.6c0.1-0.1,0.1-0.2,0.1-0.4
		c0-0.2,0-0.4-0.1-0.7c-0.1-0.3-0.3-0.7-0.6-1.2c-0.3-0.5-0.7-1.1-1.2-1.8l-7.1-9.4l-4.1,3.7v6c0,0.6,0,1.1,0.1,1.6
		c0.1,0.4,0.2,0.8,0.4,1.1c0.2,0.3,0.4,0.5,0.7,0.7c0.3,0.2,0.7,0.3,1.1,0.5H123.4z"/>
	<path class="st0" d="M150.3,33.3c0.5-0.1,0.8-0.3,1.1-0.5c0.3-0.2,0.5-0.4,0.7-0.7c0.2-0.3,0.3-0.6,0.3-1.1c0.1-0.4,0.1-1,0.1-1.6
		V13.3c0-0.6,0-1.2-0.1-1.6c0-0.5-0.1-0.9-0.2-1.2c-0.1-0.4-0.2-0.7-0.4-1c-0.2-0.3-0.4-0.6-0.6-0.9l4.4-0.4v21.3
		c0,0.6,0,1.1,0.1,1.6c0.1,0.4,0.2,0.8,0.4,1.1c0.2,0.3,0.4,0.5,0.7,0.7c0.3,0.2,0.7,0.3,1.1,0.5H150.3z M154,0.6
		c0.7,0,1.2,0.2,1.7,0.6s0.7,0.9,0.7,1.6c0,0.7-0.2,1.2-0.7,1.6c-0.4,0.4-1,0.6-1.7,0.6c-0.6,0-1.2-0.2-1.6-0.6
		c-0.4-0.4-0.7-1-0.7-1.6c0-0.7,0.2-1.2,0.7-1.6C152.8,0.8,153.4,0.6,154,0.6z"/>
	<path class="st0" d="M161.5,33.3c0.5-0.1,0.8-0.3,1.1-0.5c0.3-0.2,0.5-0.4,0.7-0.7c0.2-0.3,0.3-0.6,0.3-1.1c0.1-0.4,0.1-1,0.1-1.6
		V13.3c0-0.6,0-1.2-0.1-1.6c0-0.5-0.1-0.9-0.2-1.2c-0.1-0.4-0.2-0.7-0.4-1c-0.2-0.3-0.4-0.6-0.6-0.9l4.4-0.4v7
		c0.7-2.1,1.9-3.8,3.5-5.1c1.6-1.2,3.6-1.9,6.1-1.9c1.4,0,2.6,0.2,3.7,0.6c1.1,0.4,2,1,2.7,1.7c0.7,0.7,1.3,1.6,1.7,2.6
		c0.4,1,0.6,2.1,0.6,3.3v13c0,0.6,0,1.1,0.1,1.6c0.1,0.4,0.2,0.8,0.4,1.1c0.2,0.3,0.4,0.5,0.7,0.7c0.3,0.2,0.7,0.3,1.1,0.5h-7.8
		c0.5-0.1,0.8-0.3,1.1-0.5c0.3-0.2,0.5-0.4,0.7-0.7c0.2-0.3,0.3-0.6,0.3-1.1c0.1-0.4,0.1-1,0.1-1.6V16c0-2.2-0.5-3.9-1.6-5.2
		c-1-1.2-2.6-1.9-4.6-1.9c-1.1,0-2.2,0.2-3.3,0.6c-1,0.4-2,1-2.8,1.9c-0.8,0.8-1.5,1.8-2,3c-0.5,1.2-0.8,2.6-0.9,4.1v10.8
		c0,0.6,0,1.1,0.1,1.6c0.1,0.4,0.2,0.8,0.4,1.1c0.2,0.3,0.4,0.5,0.7,0.7c0.3,0.2,0.7,0.3,1.1,0.5H161.5z"/>
	<path class="st0" d="M3.8,81.3c0.9-0.3,1.6-0.7,2-1.2c0.4-0.5,0.6-1.5,0.6-2.8V54.5c0-0.6,0-1.2-0.1-1.6c-0.1-0.4-0.2-0.8-0.3-1.1
		c-0.1-0.3-0.4-0.5-0.7-0.7C5,51,4.6,50.9,4.2,50.7h19.5l0.9,8.1c-0.3-1.5-0.8-2.8-1.5-3.7c-0.6-1-1.4-1.7-2.2-2.2
		c-0.8-0.5-1.7-0.9-2.7-1.1c-1-0.2-2-0.3-3.1-0.3H9.7v13h3.5c1.5,0,2.7-0.1,3.6-0.3c0.9-0.2,1.7-0.4,2.3-0.8c0.6-0.4,1-0.8,1.2-1.3
		c0.3-0.5,0.5-1.1,0.6-1.7l-0.6,8.9c0-0.6-0.1-1.2-0.3-1.7c-0.2-0.5-0.5-0.9-1-1.3c-0.5-0.4-1.2-0.6-2.2-0.8
		c-0.9-0.2-2.2-0.3-3.7-0.3H9.7v15.3h6.7c1.1,0,2.1-0.1,3-0.3c0.9-0.2,1.8-0.6,2.5-1.3c0.8-0.6,1.5-1.5,2-2.6
		c0.6-1.1,1.1-2.5,1.4-4.2l-0.8,9.1H3.8z"/>
	<path class="st0" d="M34.4,56.5c-0.2,0.2-0.4,0.5-0.5,0.9c-0.1,0.4,0,1.1,0.4,2.2l7.2,18l7-17.9c0.2-0.6,0.3-1,0.3-1.4
		c0-0.4-0.1-0.7-0.2-0.9c-0.1-0.2-0.3-0.4-0.5-0.5c-0.2-0.1-0.3-0.2-0.4-0.3h4c-0.3,0.2-0.6,0.5-1.1,0.9c-0.5,0.4-0.9,1.2-1.3,2.2
		l-9.2,23.3c-0.2,0.5-0.5,1.1-0.8,1.7c-0.3,0.6-0.8,1.3-1.3,1.9c-0.5,0.6-1.1,1.2-1.9,1.6c-0.7,0.5-1.6,0.8-2.6,0.9L32,84.6
		c1.1,0.6,2.2,0.9,3.2,0.9s1.9-0.3,2.8-1c0.8-0.6,1.5-1.6,2-3l-9.2-22.4c-0.4-0.9-0.7-1.5-1-1.9c-0.3-0.4-0.6-0.6-0.8-0.8H34.4z"/>
	<path class="st0" d="M66.2,56.2c1.7,0,3.3,0.2,4.6,0.7c1.3,0.5,2.4,1.2,3.2,2.1c0.8,0.9,1.5,2,1.9,3.2c0.4,1.2,0.6,2.6,0.7,4H58.2
		c-0.1,0.4-0.1,0.9-0.1,1.3c0,0.5,0,0.9,0,1.4c0,1.7,0.2,3.2,0.7,4.7c0.4,1.5,1.1,2.7,1.9,3.8c0.8,1.1,1.7,1.9,2.9,2.5
		c1.1,0.6,2.3,0.9,3.6,0.9c1.2,0,2.2-0.2,3.2-0.6c0.9-0.4,1.8-1,2.6-1.8c0.8-0.8,1.5-1.7,2.1-2.8c0.6-1.1,1.2-2.3,1.6-3.6l-0.4,6.4
		c-1.3,1.1-2.7,1.9-4.4,2.4c-1.6,0.5-3.2,0.8-4.7,0.8c-1.8,0-3.5-0.3-5.1-0.9c-1.5-0.6-2.9-1.4-4-2.5c-1.1-1.1-2-2.4-2.6-4
		c-0.6-1.6-0.9-3.3-0.9-5.1c0-1.8,0.3-3.5,0.8-5.1c0.5-1.6,1.3-2.9,2.3-4c1-1.1,2.2-2,3.7-2.7S64.4,56.2,66.2,56.2z M58.3,65.8h14.9
		c0-1.3-0.2-2.5-0.5-3.6c-0.3-1.1-0.8-2-1.4-2.9c-0.6-0.8-1.3-1.5-2.2-1.9c-0.9-0.5-1.8-0.7-2.9-0.7c-1,0-2,0.2-2.9,0.7
		c-0.9,0.4-1.6,1.1-2.3,1.9c-0.7,0.8-1.2,1.8-1.7,2.9C58.8,63.3,58.5,64.5,58.3,65.8z"/>
	<path class="st0" d="M80.9,79l0.7-8.3c0.2,2,0.5,3.7,1,5c0.5,1.3,1.1,2.4,1.8,3.1c0.7,0.8,1.5,1.3,2.4,1.6c0.9,0.3,1.9,0.5,2.9,0.5
		c2.2,0,3.8-0.5,4.8-1.6c1-1.1,1.5-2.3,1.5-3.9c0-0.9-0.2-1.6-0.5-2.2c-0.3-0.6-0.7-1.1-1.2-1.5c-0.5-0.4-0.9-0.7-1.5-0.9
		c-0.5-0.2-1-0.4-1.4-0.5l-4.7-1.6c-0.5-0.1-1-0.4-1.6-0.7c-0.6-0.3-1.1-0.7-1.7-1.2c-0.5-0.5-1-1.1-1.3-1.8
		c-0.4-0.7-0.5-1.6-0.5-2.5c0-1.9,0.7-3.5,2.1-4.6c1.4-1.1,3.3-1.7,5.7-1.7c1.6,0,3.1,0.2,4.4,0.7c1.3,0.5,2.5,1.2,3.4,2l-0.3,5.9
		c-0.7-2.9-1.7-4.9-2.9-6.2c-1.2-1.3-2.8-1.9-4.7-1.9c-1.6,0-2.9,0.4-3.9,1.1c-1,0.7-1.6,1.9-1.6,3.5c0,0.7,0.1,1.3,0.4,1.8
		c0.3,0.5,0.6,0.9,1.1,1.2c0.4,0.3,0.9,0.6,1.4,0.7c0.5,0.2,1,0.4,1.4,0.5l4.2,1.4c0.6,0.2,1.2,0.4,1.9,0.7c0.7,0.3,1.4,0.8,2,1.3
		c0.6,0.5,1.2,1.2,1.6,2c0.4,0.8,0.7,1.8,0.7,3c0,1.1-0.2,2.1-0.6,3c-0.4,0.9-1,1.7-1.8,2.4c-0.8,0.7-1.8,1.2-2.9,1.6
		c-1.1,0.4-2.5,0.6-4,0.6c-1.7,0-3.2-0.2-4.8-0.7C83.2,80.4,81.9,79.8,80.9,79z"/>
	<path class="st0" d="M102.4,81.3c0.5-0.1,0.8-0.3,1.1-0.5c0.3-0.2,0.5-0.4,0.7-0.7c0.2-0.3,0.3-0.6,0.3-1.1c0.1-0.4,0.1-1,0.1-1.6
		V51.7c0-0.9-0.1-1.6-0.2-2c-0.1-0.4-0.4-0.8-0.9-1.1l4.3-0.5v15.2c0.7-2.1,1.9-3.8,3.5-5.1c1.6-1.2,3.6-1.9,6.1-1.9
		c1.4,0,2.6,0.2,3.7,0.6c1.1,0.4,2,1,2.7,1.7c0.7,0.7,1.3,1.6,1.7,2.6c0.4,1,0.6,2.1,0.6,3.3v13c0,0.6,0,1.1,0.1,1.6
		c0.1,0.4,0.2,0.8,0.4,1.1c0.2,0.3,0.4,0.5,0.7,0.7c0.3,0.2,0.7,0.3,1.1,0.5h-7.8c0.5-0.1,0.8-0.3,1.1-0.5c0.3-0.2,0.5-0.4,0.7-0.7
		c0.2-0.3,0.3-0.6,0.3-1.1c0.1-0.4,0.1-1,0.1-1.6V64c0-2.2-0.5-3.9-1.6-5.2c-1-1.2-2.6-1.9-4.6-1.9c-1.1,0-2.2,0.2-3.3,0.6
		c-1,0.4-2,1-2.8,1.9c-0.8,0.8-1.5,1.8-2,3c-0.5,1.2-0.8,2.6-0.9,4.1v10.8c0,0.6,0,1.1,0.1,1.6c0.1,0.4,0.2,0.8,0.4,1.1
		c0.2,0.3,0.4,0.5,0.7,0.7c0.3,0.2,0.7,0.3,1.1,0.5H102.4z"/>
	<path class="st0" d="M142.5,67.7l4.8-1.2v-3.2c0-2.2-0.4-3.8-1.3-4.9c-0.9-1-2.2-1.6-3.9-1.6c-0.8,0-1.6,0.1-2.5,0.4
		c-0.8,0.3-1.6,0.8-2.4,1.5s-1.4,1.7-2,2.9c-0.6,1.2-1.1,2.8-1.5,4.7l-0.3-7.3c1.1-0.9,2.4-1.5,4-2c1.6-0.5,3.2-0.7,4.8-0.7
		c2.6,0,4.6,0.6,6.1,1.8s2.2,3,2.2,5.4v13.9c0,0.9,0.1,1.6,0.3,2.2c0.2,0.6,0.5,1.2,0.9,1.6l-4.3,0.1v-5.8c-0.3,0.7-0.7,1.5-1.1,2.2
		c-0.5,0.7-1,1.3-1.7,1.9c-0.7,0.6-1.4,1-2.3,1.3c-0.9,0.3-1.9,0.5-3.1,0.5c-1,0-2-0.1-2.9-0.4c-0.9-0.2-1.7-0.6-2.4-1.1
		s-1.2-1.1-1.5-1.8c-0.4-0.7-0.6-1.6-0.6-2.5c0-1.3,0.4-2.4,1.1-3.3c0.7-0.9,1.6-1.7,2.7-2.3c1.1-0.6,2.2-1.1,3.4-1.5
		C140.3,68.3,141.5,68,142.5,67.7z M135.5,75.7c0,1.5,0.4,2.7,1.2,3.7c0.8,1,1.9,1.5,3.4,1.5c0.8,0,1.6-0.2,2.5-0.5
		c0.8-0.4,1.6-0.9,2.3-1.6c0.7-0.7,1.3-1.5,1.7-2.6c0.5-1,0.7-2.2,0.8-3.6v-5.5l-4.7,1.1c-0.6,0.1-1.3,0.4-2.2,0.7
		c-0.8,0.3-1.6,0.7-2.4,1.3c-0.7,0.5-1.4,1.3-1.9,2.1C135.7,73.2,135.5,74.3,135.5,75.7z"/>
	<path class="st0" d="M167.4,56.2c1.4,0,2.6,0.2,3.8,0.6c1.2,0.4,2.3,1.1,3.2,1.9v-7.1c0-0.9-0.1-1.6-0.2-2
		c-0.1-0.4-0.4-0.8-0.9-1.1l4.3-0.5v29c0,1.3,0.1,2.2,0.3,2.8c0.2,0.6,0.5,1.1,0.9,1.5l-4.3,0.1v-3.4c-0.9,1.2-2,2.1-3.3,2.7
		c-1.3,0.5-2.6,0.8-3.9,0.8c-1.8,0-3.5-0.3-5-0.9c-1.5-0.6-2.8-1.5-3.8-2.5c-1-1.1-1.9-2.3-2.4-3.8c-0.6-1.5-0.9-3.1-0.9-4.8
		c0-2,0.3-3.8,0.9-5.4c0.6-1.6,1.4-3,2.5-4.2c1.1-1.2,2.3-2.1,3.8-2.7C164.1,56.6,165.7,56.2,167.4,56.2z M158.8,67.7
		c0,1.8,0.2,3.5,0.6,5.1c0.4,1.6,1,3,1.9,4.2s1.8,2.1,3,2.8c1.2,0.7,2.5,1,4.1,1c1.2,0,2.4-0.3,3.4-0.9c1-0.6,1.9-1.5,2.7-2.6V62.3
		c-0.8-1.8-1.8-3.2-3-4c-1.3-0.9-2.7-1.3-4.3-1.3c-1.3,0-2.5,0.3-3.5,0.8c-1,0.5-1.9,1.2-2.6,2.2c-0.7,0.9-1.3,2.1-1.7,3.4
		C159,64.7,158.8,66.1,158.8,67.7z"/>
	<path class="st0" d="M195.4,56.2c1.9,0,3.6,0.3,5.1,0.9c1.5,0.6,2.8,1.5,3.9,2.6c1.1,1.1,2,2.5,2.6,4s0.9,3.2,0.9,5.1v0
		c0,1.8-0.3,3.5-0.9,5.1s-1.5,2.9-2.6,4c-1.1,1.1-2.4,2-3.9,2.6c-1.5,0.6-3.2,0.9-5.1,0.9s-3.5-0.3-5.1-0.9
		c-1.5-0.6-2.8-1.5-3.9-2.6c-1.1-1.1-2-2.5-2.6-4s-0.9-3.2-0.9-5.1v0c0-1.8,0.3-3.5,0.9-5.1s1.5-2.9,2.6-4c1.1-1.1,2.4-2,3.9-2.6
		C191.8,56.6,193.5,56.2,195.4,56.2z M186.4,68.9c0,1.8,0.2,3.4,0.7,4.8s1,2.7,1.8,3.8c0.8,1.1,1.7,1.9,2.8,2.5
		c1.1,0.6,2.3,0.9,3.7,0.9c1.3,0,2.6-0.3,3.7-0.9c1.1-0.6,2-1.4,2.8-2.5c0.8-1.1,1.4-2.3,1.8-3.8c0.4-1.5,0.7-3.1,0.7-4.8
		c0-1.8-0.2-3.4-0.7-4.8c-0.4-1.5-1-2.7-1.8-3.8c-0.8-1.1-1.7-1.9-2.8-2.5c-1.1-0.6-2.3-0.9-3.7-0.9c-1.3,0-2.6,0.3-3.7,0.9
		c-1.1,0.6-2,1.4-2.8,2.5c-0.8,1.1-1.4,2.3-1.8,3.8C186.6,65.5,186.4,67.1,186.4,68.9z"/>
	<path class="st0" d="M216.3,56.5c-0.3,0.2-0.5,0.5-0.6,0.9c-0.2,0.4-0.1,1,0.2,1.8l6.1,17.2l6.2-19.9h0.3l7.9,20.2l4.7-14.7
		c0.4-1.2,0.6-2.1,0.7-2.8c0.1-0.7,0-1.2-0.1-1.6c-0.1-0.4-0.3-0.6-0.5-0.7c-0.2-0.1-0.4-0.2-0.5-0.3h4.3c-0.4,0.2-0.9,0.6-1.3,1.1
		c-0.4,0.5-0.9,1.4-1.3,2.7l-6.8,21.1h-0.5l-7.8-19.9l-6.2,19.9h-0.5l-7.5-21c-0.5-1.3-0.9-2.3-1.3-2.8c-0.3-0.6-0.7-0.9-1-1.1
		H216.3z"/>
	<path class="st0" d="M262,81.3c0.9-0.3,1.6-0.7,1.9-1.2c0.3-0.5,0.5-1.4,0.5-2.7V54.6c0-0.6,0-1.2-0.1-1.6
		c-0.1-0.4-0.2-0.8-0.4-1.1c-0.2-0.3-0.4-0.5-0.7-0.7c-0.3-0.2-0.7-0.3-1.2-0.5h11.2c1.3,0,2.6,0.1,4,0.4c1.4,0.3,2.6,0.7,3.7,1.4
		c1.1,0.7,2,1.5,2.7,2.6c0.7,1.1,1.1,2.4,1.1,4c0,1.6-0.4,2.9-1.1,4.1c-0.7,1.1-1.6,2.1-2.8,2.8c-1.1,0.7-2.4,1.3-3.8,1.7
		c-1.4,0.4-2.7,0.5-4.1,0.5h-5.4v9.1c0,1.3,0.2,2.1,0.5,2.7c0.3,0.5,1,0.9,1.9,1.2H262z M267.7,51.5v16.2h4.6c1.2,0,2.3-0.2,3.4-0.5
		c1.1-0.3,2-0.8,2.9-1.5c0.8-0.7,1.5-1.5,2-2.6c0.5-1,0.7-2.3,0.7-3.8c0-2.6-0.8-4.5-2.3-5.9c-1.6-1.3-3.8-2-6.6-2H267.7z"/>
	<path class="st0" d="M299.4,67.7l4.8-1.2v-3.2c0-2.2-0.4-3.8-1.3-4.9c-0.9-1-2.2-1.6-3.9-1.6c-0.8,0-1.6,0.1-2.5,0.4
		c-0.8,0.3-1.6,0.8-2.4,1.5s-1.4,1.7-2,2.9c-0.6,1.2-1.1,2.8-1.5,4.7l-0.3-7.3c1.1-0.9,2.4-1.5,4-2c1.6-0.5,3.2-0.7,4.8-0.7
		c2.6,0,4.6,0.6,6.1,1.8s2.2,3,2.2,5.4v13.9c0,0.9,0.1,1.6,0.3,2.2c0.2,0.6,0.5,1.2,0.9,1.6l-4.3,0.1v-5.8c-0.3,0.7-0.7,1.5-1.1,2.2
		c-0.5,0.7-1,1.3-1.7,1.9c-0.7,0.6-1.4,1-2.3,1.3c-0.9,0.3-1.9,0.5-3.1,0.5c-1,0-2-0.1-2.9-0.4c-0.9-0.2-1.7-0.6-2.4-1.1
		s-1.2-1.1-1.5-1.8c-0.4-0.7-0.6-1.6-0.6-2.5c0-1.3,0.4-2.4,1.1-3.3c0.7-0.9,1.6-1.7,2.7-2.3c1.1-0.6,2.2-1.1,3.4-1.5
		C297.2,68.3,298.3,68,299.4,67.7z M292.3,75.7c0,1.5,0.4,2.7,1.2,3.7c0.8,1,1.9,1.5,3.4,1.5c0.8,0,1.6-0.2,2.5-0.5
		c0.8-0.4,1.6-0.9,2.3-1.6c0.7-0.7,1.3-1.5,1.7-2.6c0.5-1,0.7-2.2,0.8-3.6v-5.5l-4.7,1.1c-0.6,0.1-1.3,0.4-2.2,0.7
		c-0.8,0.3-1.6,0.7-2.4,1.3c-0.7,0.5-1.4,1.3-1.9,2.1C292.6,73.2,292.3,74.3,292.3,75.7z"/>
	<path class="st0" d="M312.3,81.3c0.5-0.1,0.8-0.3,1.1-0.5c0.3-0.2,0.5-0.4,0.7-0.7c0.2-0.3,0.3-0.6,0.3-1.1c0.1-0.4,0.1-1,0.1-1.6
		V51.7c0-0.9-0.1-1.6-0.2-2c-0.1-0.4-0.4-0.8-0.9-1.1l4.3-0.5v29.5c0,0.6,0,1.1,0.1,1.6c0.1,0.4,0.2,0.8,0.4,1.1
		c0.2,0.3,0.4,0.5,0.7,0.7c0.3,0.2,0.7,0.3,1.1,0.5H312.3z"/>
	<path class="st0" d="M335.4,56.2c1.7,0,3.3,0.2,4.6,0.7c1.3,0.5,2.4,1.2,3.2,2.1c0.8,0.9,1.5,2,1.9,3.2c0.4,1.2,0.6,2.6,0.7,4
		h-18.3c-0.1,0.4-0.1,0.9-0.1,1.3c0,0.5,0,0.9,0,1.4c0,1.7,0.2,3.2,0.7,4.7c0.4,1.5,1.1,2.7,1.9,3.8c0.8,1.1,1.7,1.9,2.9,2.5
		c1.1,0.6,2.3,0.9,3.6,0.9c1.2,0,2.2-0.2,3.2-0.6c0.9-0.4,1.8-1,2.6-1.8c0.8-0.8,1.5-1.7,2.1-2.8c0.6-1.1,1.2-2.3,1.6-3.6l-0.4,6.4
		c-1.3,1.1-2.7,1.9-4.4,2.4c-1.6,0.5-3.2,0.8-4.7,0.8c-1.8,0-3.5-0.3-5.1-0.9c-1.5-0.6-2.9-1.4-4-2.5c-1.1-1.1-2-2.4-2.6-4
		c-0.6-1.6-0.9-3.3-0.9-5.1c0-1.8,0.3-3.5,0.8-5.1c0.5-1.6,1.3-2.9,2.3-4c1-1.1,2.2-2,3.7-2.7S333.5,56.2,335.4,56.2z M327.4,65.8
		h14.9c0-1.3-0.2-2.5-0.5-3.6c-0.3-1.1-0.8-2-1.4-2.9c-0.6-0.8-1.3-1.5-2.2-1.9c-0.9-0.5-1.8-0.7-2.9-0.7c-1,0-2,0.2-2.9,0.7
		c-0.9,0.4-1.6,1.1-2.3,1.9c-0.7,0.8-1.2,1.8-1.7,2.9C328,63.3,327.6,64.5,327.4,65.8z"/>
	<path class="st0" d="M353.9,56.5l3-6.1v6.1h7.1V57h-7.1v18.9c0,1,0.1,1.8,0.2,2.4c0.1,0.6,0.3,1.2,0.5,1.5c0.2,0.4,0.5,0.6,0.9,0.8
		c0.4,0.1,0.8,0.2,1.2,0.2c0.8,0,1.6-0.2,2.1-0.7s1.1-1.2,1.6-2l0.6,0.4c-0.6,0.9-1.2,1.7-1.9,2.2c-0.7,0.5-1.7,0.8-3,0.8
		c-2,0-3.5-0.6-4.3-1.8s-1.2-2.9-1.2-5V57h-4.3v-0.5H353.9z"/>
	<path class="st0" d="M371.3,56.5l3-6.1v6.1h7.1V57h-7.1v18.9c0,1,0.1,1.8,0.2,2.4c0.1,0.6,0.3,1.2,0.5,1.5c0.2,0.4,0.5,0.6,0.9,0.8
		c0.4,0.1,0.8,0.2,1.2,0.2c0.8,0,1.6-0.2,2.1-0.7s1.1-1.2,1.6-2l0.6,0.4c-0.6,0.9-1.2,1.7-1.9,2.2c-0.7,0.5-1.7,0.8-3,0.8
		c-2,0-3.5-0.6-4.3-1.8s-1.2-2.9-1.2-5V57h-4.3v-0.5H371.3z"/>
	<path class="st0" d="M396.5,56.2c1.7,0,3.3,0.2,4.6,0.7c1.3,0.5,2.4,1.2,3.2,2.1c0.8,0.9,1.5,2,1.9,3.2c0.4,1.2,0.6,2.6,0.7,4
		h-18.3c-0.1,0.4-0.1,0.9-0.1,1.3c0,0.5,0,0.9,0,1.4c0,1.7,0.2,3.2,0.7,4.7c0.4,1.5,1.1,2.7,1.9,3.8c0.8,1.1,1.7,1.9,2.9,2.5
		c1.1,0.6,2.3,0.9,3.6,0.9c1.2,0,2.2-0.2,3.2-0.6c0.9-0.4,1.8-1,2.6-1.8c0.8-0.8,1.5-1.7,2.1-2.8c0.6-1.1,1.2-2.3,1.6-3.6l-0.4,6.4
		c-1.3,1.1-2.7,1.9-4.4,2.4c-1.6,0.5-3.2,0.8-4.7,0.8c-1.8,0-3.5-0.3-5.1-0.9c-1.5-0.6-2.9-1.4-4-2.5c-1.1-1.1-2-2.4-2.6-4
		c-0.6-1.6-0.9-3.3-0.9-5.1c0-1.8,0.3-3.5,0.8-5.1c0.5-1.6,1.3-2.9,2.3-4c1-1.1,2.2-2,3.7-2.7S394.6,56.2,396.5,56.2z M388.5,65.8
		h14.9c0-1.3-0.2-2.5-0.5-3.6c-0.3-1.1-0.8-2-1.4-2.9c-0.6-0.8-1.3-1.5-2.2-1.9c-0.9-0.5-1.8-0.7-2.9-0.7c-1,0-2,0.2-2.9,0.7
		c-0.9,0.4-1.6,1.1-2.3,1.9c-0.7,0.8-1.2,1.8-1.7,2.9C389.1,63.3,388.7,64.5,388.5,65.8z"/>
</g>
</svg>
