<?xml version="1.0" encoding="utf-8"?>
<!-- Generator: Adobe Illustrator 25.4.1, SVG Export Plug-In . SVG Version: 6.00 Build 0)  -->
<svg version="1.1" id="レイヤー_1" xmlns="http://www.w3.org/2000/svg" xmlns:xlink="http://www.w3.org/1999/xlink" x="0px"
	 y="0px" viewBox="0 0 367 192" style="enable-background:new 0 0 367 192;" xml:space="preserve">
<style type="text/css">
	.st0{fill:#FFFFFF;}
</style>
<g>
	<g>
		<polygon class="st0" points="80.8,1.3 66.3,1.3 66.3,12.7 80.8,12.7 80.8,79.3 92.5,79.3 92.5,1.3 91.5,1.3 		"/>
		<path class="st0" d="M153.5,5c-4.5-3.3-9.5-4.9-15-4.9C133,0.1,128,1.8,123.5,5c-4.5,3.3-8.1,7.9-10.7,13.9c-2.7,6-4,13.1-4,21.2
			s1.3,15.3,4,21.3c2.7,6,6.3,10.7,10.8,14c4.5,3.3,9.5,5,15,5c5.5,0,10.4-1.6,14.9-4.9c4.5-3.3,8-7.9,10.7-13.9
			c2.7-6,4-13.1,4-21.3c0-8.2-1.3-15.4-4-21.3C161.5,12.9,157.9,8.3,153.5,5z M153.9,55.9c-1.5,4.2-3.5,7.3-6.2,9.4
			c-2.6,2.1-5.7,3.1-9.3,3.1c-3.5,0-6.6-1-9.3-3.1c-2.7-2.1-4.7-5.2-6.2-9.4c-1.5-4.2-2.2-9.4-2.2-15.7s0.7-11.5,2.2-15.7
			c1.5-4.1,3.5-7.2,6.2-9.3c2.7-2,5.8-3.1,9.3-3.1s6.6,1,9.3,3.1c2.7,2,4.7,5.1,6.2,9.3c1.5,4.2,2.2,9.4,2.2,15.6
			C156.1,46.5,155.4,51.7,153.9,55.9z"/>
		<path class="st0" d="M225.5,5c-4.5-3.3-9.5-4.9-15-4.9C205,0.1,200,1.8,195.5,5c-4.5,3.3-8.1,7.9-10.7,13.9c-2.7,6-4,13.1-4,21.2
			s1.3,15.3,4,21.3c2.7,6,6.3,10.7,10.8,14c4.5,3.3,9.5,5,15,5c5.5,0,10.4-1.6,14.9-4.9c4.5-3.3,8-7.9,10.7-13.9
			c2.7-6,4-13.1,4-21.3c0-8.2-1.3-15.4-4-21.3C233.6,12.9,230,8.3,225.5,5z M226,55.9c-1.5,4.2-3.5,7.3-6.2,9.4
			c-2.6,2.1-5.7,3.1-9.3,3.1c-3.5,0-6.6-1-9.3-3.1c-2.7-2.1-4.7-5.2-6.2-9.4c-1.5-4.2-2.2-9.4-2.2-15.7s0.7-11.5,2.2-15.7
			c1.5-4.1,3.5-7.2,6.2-9.3c2.7-2,5.8-3.1,9.3-3.1s6.6,1,9.3,3.1c2.7,2,4.7,5.1,6.2,9.3c1.5,4.2,2.2,9.4,2.2,15.6
			C228.2,46.5,227.4,51.7,226,55.9z"/>
		<polygon class="st0" points="300.3,1.3 253.8,79.3 265.1,79.3 311.6,1.3 		"/>
		<path class="st0" d="M305.4,51c-2.2-1.4-4.8-2.1-7.5-2.1c-2.8,0-5.3,0.7-7.5,2.1c-2.2,1.4-4,3.3-5.3,5.6c-1.3,2.3-2,5-2,8
			c0,3,0.7,5.6,2,8c1.3,2.4,3.1,4.3,5.3,5.7c2.2,1.4,4.7,2.1,7.4,2.1c2.8,0,5.4-0.7,7.6-2.1c2.2-1.4,4-3.3,5.3-5.7
			c1.3-2.4,2-5.1,2-8c0-3-0.7-5.6-2-8C309.4,54.3,307.6,52.4,305.4,51z M302,69.1c-1.1,1.2-2.5,1.8-4.2,1.8c-1.7,0-3-0.6-4-1.8
			c-1-1.2-1.6-2.7-1.6-4.6c0-1.8,0.5-3.3,1.6-4.5c1-1.2,2.4-1.8,4-1.8c1.7,0,3,0.6,4.1,1.8c1.1,1.2,1.7,2.7,1.7,4.5
			C303.7,66.4,303.1,68,302,69.1z"/>
		<path class="st0" d="M260.1,29.6c2.2,1.4,4.7,2.1,7.4,2.1c2.8,0,5.4-0.7,7.6-2.1c2.2-1.4,4-3.3,5.3-5.7c1.3-2.4,2-5.1,2-8
			s-0.7-5.6-2-8c-1.3-2.3-3.1-4.2-5.3-5.6c-2.2-1.4-4.8-2.1-7.5-2.1c-2.8,0-5.3,0.7-7.5,2.1c-2.2,1.4-4,3.3-5.3,5.6
			c-1.3,2.3-2,5-2,8s0.7,5.6,2,8C256,26.3,257.8,28.2,260.1,29.6z M263.4,11.3c1-1.2,2.4-1.7,4-1.7c1.7,0,3,0.6,4.1,1.7
			c1.1,1.2,1.6,2.7,1.6,4.5s-0.5,3.4-1.6,4.6c-1,1.2-2.4,1.8-4.1,1.8c-1.7,0-3-0.6-4-1.8c-1-1.2-1.6-2.7-1.6-4.6
			S262.4,12.5,263.4,11.3z"/>
	</g>
	<g>
		<polygon class="st0" points="33.8,169.7 13.1,112.7 0.2,112.7 29.5,190.7 37.8,190.7 67.4,112.7 54.6,112.7 		"/>
		<polygon class="st0" points="93.8,156.5 127.2,156.5 127.2,145.3 93.8,145.3 93.8,124.4 130.2,124.4 130.2,112.7 93.8,112.7 
			90.1,112.7 81.9,112.7 81.9,190.7 90.1,190.7 93.8,190.7 130.7,190.7 130.7,179 93.8,179 		"/>
		<path class="st0" d="M179.5,160.2h23.1c-0.4,3-1.2,5.7-2.4,8.1c-1.9,3.8-4.5,6.6-8,8.5c-3.5,1.9-7.7,2.8-12.5,2.8
			c-4.6,0-8.6-1.2-12.2-3.6c-3.6-2.4-6.4-5.7-8.6-9.9c-2.1-4.2-3.2-9-3.2-14.5c0-5.5,1-10.3,3.1-14.5c2.1-4.2,5-7.4,8.8-9.8
			c3.8-2.3,8.1-3.5,13.1-3.5c4.1,0,8,0.9,11.6,2.6c3.6,1.7,6.5,4.3,8.6,7.5l8.1-8.7c-3.3-4.4-7.4-7.8-12.3-10.1
			c-4.9-2.4-10.2-3.6-16-3.6c-5.3,0-10.1,1-14.7,3.1c-4.5,2-8.5,4.9-11.8,8.6c-3.4,3.7-6,7.9-7.9,12.8c-1.9,4.8-2.9,10-2.9,15.6
			s0.9,10.8,2.9,15.7c1.9,4.9,4.5,9.1,7.8,12.8c3.3,3.7,7.2,6.6,11.6,8.6c4.4,2.1,9.1,3.1,14.1,3.1c6.8,0,12.9-1.5,18.2-4.6
			c5.3-3,9.5-7.7,12.6-13.8c3.1-6.2,4.6-13.9,4.6-23.2v-1.8h-35.9V160.2z"/>
		<path class="st0" d="M255.8,112.7l-29.9,78h12.6l5.6-15h31.2l5.5,15h12.9l-29.6-78H255.8z M248.3,164.5l11.5-31.1l11.4,31.1H248.3
			z"/>
		<polygon class="st0" points="354.9,112.7 354.9,166.6 316.5,112.7 308.3,112.7 308.3,190.7 320.2,190.7 320.2,136.9 358.5,190.7 
			366.8,190.7 366.8,112.7 		"/>
	</g>
</g>
</svg>
