<?xml version="1.0" encoding="utf-8"?>
<!-- Generator: Adobe Illustrator 25.4.1, SVG Export Plug-In . SVG Version: 6.00 Build 0)  -->
<svg version="1.1" id="レイヤー_1" xmlns="http://www.w3.org/2000/svg" xmlns:xlink="http://www.w3.org/1999/xlink" x="0px"
	 y="0px" viewBox="0 0 384 89" style="enable-background:new 0 0 384 89;" xml:space="preserve">
<style type="text/css">
	.st0{fill:#FFFFFF;stroke:#FFFFFF;stroke-width:0.25;stroke-miterlimit:10;}
</style>
<g>
	<g>
		<path class="st0" d="M103.9,2.7h21.7l0.5,9.4c-0.3-1.9-0.6-3.4-1-4.6c-0.4-1.1-0.8-2-1.3-2.6c-0.5-0.6-1.1-1-1.9-1.2
			c-0.7-0.2-1.6-0.3-2.6-0.3h-3.1V27c0,0.6,0,1,0.1,1.4c0.1,0.4,0.2,0.7,0.3,1c0.2,0.3,0.4,0.5,0.6,0.6c0.3,0.2,0.6,0.3,1,0.5H111
			c0.4-0.1,0.8-0.3,1.1-0.4s0.5-0.4,0.7-0.6c0.2-0.3,0.3-0.6,0.3-1c0.1-0.4,0.1-0.9,0.1-1.5V3.3h-3.1c-1,0-1.8,0.1-2.6,0.3
			s-1.4,0.6-1.9,1.2c-0.5,0.6-1,1.5-1.4,2.6c-0.4,1.1-0.7,2.7-1,4.6L103.9,2.7z"/>
		<path class="st0" d="M130.5,30.6c0.4-0.1,0.8-0.3,1-0.4c0.3-0.2,0.5-0.4,0.6-0.6c0.2-0.3,0.3-0.6,0.3-1c0.1-0.4,0.1-0.9,0.1-1.4
			V3.5c0-0.8-0.1-1.4-0.2-1.8c-0.1-0.4-0.4-0.7-0.8-1l4-0.5V14c0.7-2,1.7-3.5,3.2-4.6c1.5-1.1,3.3-1.7,5.6-1.7
			c1.3,0,2.4,0.2,3.4,0.5c1,0.4,1.8,0.9,2.5,1.5s1.2,1.5,1.6,2.4c0.4,0.9,0.5,1.9,0.5,3v11.9c0,0.6,0,1,0.1,1.4
			c0.1,0.4,0.2,0.7,0.3,1c0.2,0.3,0.4,0.5,0.6,0.6c0.3,0.2,0.6,0.3,1,0.4h-7.1c0.4-0.1,0.8-0.3,1-0.4c0.3-0.2,0.5-0.4,0.6-0.6
			c0.2-0.3,0.3-0.6,0.3-1c0.1-0.4,0.1-0.9,0.1-1.4V14.8c0-2-0.5-3.6-1.4-4.7c-1-1.1-2.4-1.7-4.2-1.7c-1,0-2,0.2-3,0.6
			c-1,0.4-1.8,1-2.6,1.7c-0.7,0.7-1.4,1.7-1.8,2.8c-0.5,1.1-0.7,2.4-0.8,3.8v9.9c0,0.6,0,1,0.1,1.4c0.1,0.4,0.2,0.7,0.3,1
			c0.2,0.3,0.4,0.5,0.6,0.6c0.3,0.2,0.6,0.3,1,0.4H130.5z"/>
		<path class="st0" d="M169.2,7.7c1.6,0,3,0.2,4.2,0.7c1.2,0.5,2.2,1.1,3,1.9c0.8,0.8,1.4,1.8,1.7,2.9c0.4,1.1,0.6,2.4,0.6,3.7
			h-16.9c-0.1,0.4-0.1,0.8-0.1,1.2c0,0.4,0,0.8,0,1.3c0,1.5,0.2,3,0.6,4.3c0.4,1.3,1,2.5,1.7,3.4c0.7,1,1.6,1.7,2.6,2.3
			c1,0.5,2.1,0.8,3.3,0.8c1.1,0,2-0.2,2.9-0.6c0.9-0.4,1.7-0.9,2.4-1.7c0.7-0.7,1.4-1.6,1.9-2.6c0.6-1,1.1-2.1,1.5-3.3l-0.4,5.8
			c-1.2,1-2.5,1.7-4,2.2c-1.5,0.5-3,0.7-4.4,0.7c-1.7,0-3.2-0.3-4.7-0.8c-1.4-0.5-2.6-1.3-3.7-2.3c-1-1-1.8-2.2-2.4-3.6
			c-0.6-1.4-0.8-3-0.8-4.7c0-1.7,0.2-3.2,0.7-4.7c0.5-1.4,1.2-2.6,2.1-3.7c0.9-1,2.1-1.9,3.4-2.4C166,8,167.5,7.7,169.2,7.7z
			 M161.9,16.4h13.7c0-1.2-0.2-2.3-0.5-3.3c-0.3-1-0.7-1.9-1.2-2.6c-0.5-0.7-1.2-1.3-2-1.7c-0.8-0.4-1.7-0.6-2.7-0.6
			c-1,0-1.8,0.2-2.6,0.6s-1.5,1-2.1,1.7c-0.6,0.7-1.2,1.6-1.6,2.6C162.4,14.1,162.1,15.2,161.9,16.4z"/>
		<path class="st0" d="M197.3,27.6l0.6-7.5c0.3,3.2,1.2,5.7,2.8,7.4c1.5,1.8,3.6,2.6,6.3,2.6c1.1,0,2-0.2,2.9-0.5
			c0.9-0.3,1.6-0.7,2.2-1.3c0.6-0.5,1-1.2,1.3-1.9c0.3-0.7,0.5-1.5,0.5-2.3c0-1-0.2-1.9-0.6-2.6c-0.4-0.7-0.9-1.3-1.5-1.8
			c-0.6-0.5-1.2-0.9-1.8-1.1c-0.6-0.3-1.1-0.5-1.5-0.7l-3.9-1.5c-0.5-0.2-1.1-0.4-1.8-0.8c-0.7-0.3-1.4-0.8-2.1-1.3
			c-0.7-0.6-1.3-1.3-1.7-2.1c-0.5-0.8-0.7-1.8-0.7-3.1c0-1,0.2-1.9,0.5-2.7c0.3-0.9,0.9-1.6,1.6-2.2c0.7-0.6,1.6-1.1,2.6-1.5
			c1-0.4,2.2-0.5,3.6-0.5c1.2,0,2.6,0.2,4.1,0.5c1.5,0.4,2.8,0.9,4,1.7l0.3,7.7c-0.5-2.9-1.4-5.2-2.7-6.8c-1.4-1.6-3.2-2.4-5.6-2.4
			c-0.9,0-1.8,0.1-2.6,0.4c-0.8,0.3-1.5,0.6-2.1,1.1c-0.6,0.5-1,1-1.3,1.6c-0.3,0.6-0.5,1.3-0.5,2c0,0.8,0.2,1.5,0.6,2.1
			c0.4,0.6,0.9,1.1,1.4,1.5c0.5,0.4,1.1,0.8,1.7,1c0.6,0.3,1.2,0.5,1.6,0.6l4.1,1.6c2,0.8,3.7,1.8,4.9,3c1.2,1.2,1.8,2.9,1.8,4.8
			c0,1.1-0.2,2.2-0.6,3.1c-0.4,1-1,1.8-1.8,2.5c-0.8,0.7-1.7,1.3-2.8,1.7c-1.1,0.4-2.4,0.6-3.8,0.6c-1.9,0-3.7-0.3-5.4-0.8
			C199.8,29.5,198.4,28.7,197.3,27.6z"/>
		<path class="st0" d="M220.6,30.6c0.4-0.1,0.8-0.3,1-0.4c0.3-0.2,0.5-0.4,0.6-0.6c0.2-0.3,0.3-0.6,0.3-1c0.1-0.4,0.1-0.9,0.1-1.4
			V3.5c0-0.8-0.1-1.4-0.2-1.8c-0.1-0.4-0.4-0.7-0.8-1l4-0.5v20.5l10.3-9c0.7-0.6,1.3-1.2,1.8-1.9c0.5-0.6,0.7-1.3,0.6-1.9h3.7
			c-0.3,0.1-0.6,0.3-0.9,0.5c-0.3,0.2-0.8,0.5-1.2,0.9s-1,0.8-1.7,1.3c-0.6,0.5-1.4,1.2-2.3,2l-4.4,3.9l7.7,9.7
			c0.7,0.9,1.4,1.7,1.8,2.2c0.5,0.6,0.8,1,1.1,1.3c0.3,0.3,0.5,0.5,0.6,0.6c0.1,0.1,0.2,0.2,0.2,0.2h-5.1c0.1-0.1,0.1-0.2,0.1-0.3
			c0-0.1,0-0.4-0.1-0.6c-0.1-0.3-0.3-0.6-0.5-1.1c-0.3-0.4-0.6-1-1.1-1.7l-6.6-8.5l-3.8,3.3v5.5c0,0.6,0,1,0.1,1.4
			c0.1,0.4,0.2,0.7,0.3,1s0.4,0.5,0.6,0.6c0.3,0.2,0.6,0.3,1,0.4H220.6z"/>
		<path class="st0" d="M246.1,30.6c0.4-0.1,0.8-0.3,1-0.4c0.3-0.2,0.5-0.4,0.6-0.6c0.2-0.3,0.3-0.6,0.3-1c0.1-0.4,0.1-0.9,0.1-1.4
			V12.2c0-0.6,0-1-0.1-1.5c0-0.4-0.1-0.8-0.2-1.1c-0.1-0.3-0.2-0.6-0.3-0.9c-0.1-0.3-0.3-0.5-0.5-0.8l4.1-0.4v19.4
			c0,0.6,0,1,0.1,1.4c0.1,0.4,0.2,0.7,0.3,1c0.2,0.3,0.4,0.5,0.6,0.6c0.3,0.2,0.6,0.3,1,0.4H246.1z M249.6,0.7
			c0.6,0,1.1,0.2,1.5,0.5s0.6,0.9,0.6,1.5s-0.2,1.1-0.6,1.5c-0.4,0.4-0.9,0.6-1.5,0.6c-0.6,0-1.1-0.2-1.5-0.6
			c-0.4-0.4-0.6-0.9-0.6-1.5s0.2-1.1,0.6-1.5S249,0.7,249.6,0.7z"/>
		<path class="st0" d="M257.2,30.6c0.4-0.1,0.8-0.3,1-0.4c0.3-0.2,0.5-0.4,0.6-0.6c0.2-0.3,0.3-0.6,0.3-1c0.1-0.4,0.1-0.9,0.1-1.4
			V12.2c0-0.6,0-1-0.1-1.5c0-0.4-0.1-0.8-0.2-1.1c-0.1-0.3-0.2-0.6-0.3-0.9c-0.1-0.3-0.3-0.5-0.5-0.8l4.1-0.4V14
			c0.7-2,1.7-3.5,3.2-4.6c1.5-1.1,3.3-1.7,5.6-1.7c1.3,0,2.4,0.2,3.4,0.5c1,0.4,1.8,0.9,2.5,1.5c0.7,0.7,1.2,1.5,1.6,2.4
			c0.4,0.9,0.5,1.9,0.5,3v11.9c0,0.6,0,1,0.1,1.4c0.1,0.4,0.2,0.7,0.3,1s0.4,0.5,0.6,0.6c0.3,0.2,0.6,0.3,1,0.4h-7.1
			c0.4-0.1,0.8-0.3,1-0.4c0.3-0.2,0.5-0.4,0.6-0.6c0.2-0.3,0.3-0.6,0.3-1c0.1-0.4,0.1-0.9,0.1-1.4V14.8c0-2-0.5-3.6-1.4-4.7
			c-1-1.1-2.4-1.7-4.2-1.7c-1,0-2,0.2-3,0.6c-1,0.4-1.8,1-2.6,1.7c-0.7,0.7-1.4,1.7-1.8,2.8c-0.5,1.1-0.7,2.4-0.8,3.8v9.9
			c0,0.6,0,1,0.1,1.4c0.1,0.4,0.2,0.7,0.3,1c0.2,0.3,0.4,0.5,0.6,0.6c0.3,0.2,0.6,0.3,1,0.4H257.2z"/>
		<path class="st0" d="M0.2,81.3C1,81.1,1.6,80.7,2,80.2c0.3-0.5,0.5-1.3,0.5-2.5V56.8c0-0.6,0-1.1-0.1-1.5c-0.1-0.4-0.1-0.7-0.3-1
			C2,54.2,1.8,54,1.5,53.8c-0.3-0.2-0.6-0.3-1-0.4h17.9l0.8,7.3c-0.3-1.4-0.8-2.5-1.4-3.4c-0.6-0.9-1.3-1.5-2-2
			c-0.8-0.5-1.6-0.8-2.5-1c-0.9-0.2-1.8-0.3-2.8-0.3h-5V66h3.3c1.4,0,2.5-0.1,3.4-0.2c0.9-0.2,1.6-0.4,2.1-0.7s0.9-0.7,1.1-1.2
			c0.2-0.5,0.4-1,0.6-1.6l-0.6,8.1c0-0.6-0.1-1.1-0.3-1.6c-0.2-0.5-0.5-0.9-1-1.2c-0.5-0.3-1.1-0.6-2-0.7c-0.9-0.2-2-0.3-3.4-0.3
			H5.5v14h6.1c1,0,1.9-0.1,2.8-0.3c0.9-0.2,1.6-0.6,2.3-1.1c0.7-0.6,1.3-1.3,1.9-2.3c0.5-1,1-2.3,1.3-3.9l-0.7,8.3H0.2z"/>
		<path class="st0" d="M29.1,58.6c-0.2,0.2-0.4,0.5-0.5,0.8c-0.1,0.4,0,1,0.4,2l6.7,16.4l6.4-16.3c0.2-0.5,0.3-0.9,0.3-1.3
			c0-0.3-0.1-0.6-0.2-0.8c-0.1-0.2-0.3-0.4-0.4-0.5c-0.2-0.1-0.3-0.2-0.4-0.3H45c-0.2,0.2-0.6,0.4-1,0.8c-0.4,0.4-0.8,1.1-1.2,2
			l-8.5,21.2c-0.2,0.5-0.4,1-0.7,1.6c-0.3,0.6-0.7,1.2-1.2,1.7c-0.5,0.6-1.1,1.1-1.7,1.5c-0.7,0.4-1.5,0.7-2.4,0.8l-1.4-4
			c1,0.5,2,0.8,2.9,0.8c0.9,0,1.8-0.3,2.6-0.9c0.8-0.6,1.4-1.5,1.8-2.7l-8.5-20.4c-0.3-0.8-0.7-1.4-1-1.7c-0.3-0.3-0.5-0.6-0.8-0.7
			H29.1z"/>
		<path class="st0" d="M59.2,58.4c1.6,0,3,0.2,4.2,0.7c1.2,0.5,2.2,1.1,3,1.9c0.8,0.8,1.4,1.8,1.7,2.9c0.4,1.1,0.6,2.4,0.6,3.7H51.8
			c-0.1,0.4-0.1,0.8-0.1,1.2c0,0.4,0,0.8,0,1.3c0,1.5,0.2,3,0.6,4.3c0.4,1.3,1,2.5,1.7,3.4c0.7,1,1.6,1.7,2.6,2.3
			c1,0.5,2.1,0.8,3.3,0.8c1.1,0,2-0.2,2.9-0.6c0.9-0.4,1.7-0.9,2.4-1.7c0.7-0.7,1.4-1.6,1.9-2.6c0.6-1,1.1-2.1,1.5-3.3l-0.4,5.8
			c-1.2,1-2.5,1.7-4,2.2c-1.5,0.5-3,0.7-4.4,0.7c-1.7,0-3.2-0.3-4.7-0.8c-1.4-0.5-2.6-1.3-3.7-2.3c-1-1-1.8-2.2-2.4-3.6
			c-0.6-1.4-0.8-3-0.8-4.7c0-1.7,0.2-3.2,0.7-4.7c0.5-1.4,1.2-2.6,2.1-3.7c0.9-1,2.1-1.9,3.4-2.4C56,58.7,57.5,58.4,59.2,58.4z
			 M51.9,67.2h13.7c0-1.2-0.2-2.3-0.5-3.3c-0.3-1-0.7-1.9-1.2-2.6c-0.5-0.7-1.2-1.3-2-1.7c-0.8-0.4-1.7-0.6-2.7-0.6
			c-1,0-1.8,0.2-2.6,0.6s-1.5,1-2.1,1.7c-0.6,0.7-1.2,1.6-1.6,2.6C52.4,64.9,52.1,66,51.9,67.2z"/>
		<path class="st0" d="M73.5,79.2l0.6-7.6c0.2,1.8,0.5,3.3,0.9,4.5c0.4,1.2,1,2.2,1.6,2.9c0.7,0.7,1.4,1.2,2.2,1.5s1.7,0.4,2.7,0.4
			c2,0,3.5-0.5,4.4-1.4c0.9-1,1.4-2.1,1.4-3.5c0-0.8-0.1-1.5-0.4-2c-0.3-0.5-0.6-1-1.1-1.4c-0.4-0.4-0.9-0.6-1.3-0.8
			c-0.5-0.2-0.9-0.4-1.3-0.5L79,69.8c-0.4-0.1-0.9-0.3-1.4-0.6c-0.5-0.3-1-0.6-1.5-1.1s-0.9-1-1.2-1.7c-0.3-0.7-0.5-1.4-0.5-2.3
			c0-1.8,0.7-3.2,2-4.2c1.3-1,3.1-1.5,5.2-1.5c1.5,0,2.8,0.2,4,0.7c1.2,0.5,2.3,1.1,3.2,1.8l-0.3,5.4c-0.7-2.6-1.5-4.5-2.6-5.7
			c-1.1-1.2-2.5-1.7-4.4-1.7c-1.4,0-2.6,0.3-3.6,1c-1,0.7-1.4,1.7-1.4,3.2c0,0.6,0.1,1.2,0.4,1.6c0.3,0.4,0.6,0.8,1,1.1
			c0.4,0.3,0.8,0.5,1.3,0.7c0.5,0.2,0.9,0.3,1.3,0.5l3.9,1.3c0.5,0.2,1.1,0.4,1.7,0.7c0.7,0.3,1.3,0.7,1.9,1.2
			c0.6,0.5,1.1,1.1,1.5,1.8c0.4,0.7,0.6,1.6,0.6,2.7c0,1-0.2,1.9-0.6,2.7c-0.4,0.8-0.9,1.6-1.6,2.2C87,80.1,86.1,80.6,85,81
			c-1.1,0.3-2.3,0.5-3.7,0.5c-1.5,0-3-0.2-4.4-0.6S74.4,79.9,73.5,79.2z"/>
		<path class="st0" d="M94.1,81.3c0.4-0.1,0.8-0.3,1-0.4c0.3-0.2,0.5-0.4,0.6-0.6c0.2-0.3,0.3-0.6,0.3-1c0.1-0.4,0.1-0.9,0.1-1.4
			V54.2c0-0.8-0.1-1.4-0.2-1.8c-0.1-0.4-0.4-0.7-0.8-1l4-0.5v13.8c0.7-2,1.7-3.5,3.2-4.6c1.5-1.1,3.3-1.7,5.6-1.7
			c1.3,0,2.4,0.2,3.4,0.5c1,0.4,1.8,0.9,2.5,1.5c0.7,0.7,1.2,1.5,1.6,2.4c0.4,0.9,0.5,1.9,0.5,3v11.9c0,0.6,0,1,0.1,1.4
			c0.1,0.4,0.2,0.7,0.3,1c0.2,0.3,0.4,0.5,0.6,0.6c0.3,0.2,0.6,0.3,1,0.4h-7.1c0.4-0.1,0.8-0.3,1-0.4c0.3-0.2,0.5-0.4,0.6-0.6
			c0.2-0.3,0.3-0.6,0.3-1c0.1-0.4,0.1-0.9,0.1-1.4V65.5c0-2-0.5-3.6-1.4-4.7c-1-1.1-2.4-1.7-4.2-1.7c-1,0-2,0.2-3,0.6
			c-1,0.4-1.8,1-2.6,1.7c-0.7,0.7-1.4,1.7-1.8,2.8c-0.5,1.1-0.7,2.4-0.8,3.8v9.9c0,0.6,0,1,0.1,1.4c0.1,0.4,0.2,0.7,0.3,1
			s0.4,0.5,0.6,0.6c0.3,0.2,0.6,0.3,1,0.4H94.1z"/>
		<path class="st0" d="M131.8,68.8l4.5-1.1v-2.9c0-2-0.4-3.5-1.2-4.4c-0.8-0.9-2-1.4-3.6-1.4c-0.7,0-1.5,0.1-2.3,0.4
			c-0.8,0.3-1.5,0.7-2.2,1.4c-0.7,0.7-1.3,1.5-1.9,2.7c-0.6,1.1-1.1,2.5-1.4,4.3l-0.2-6.7c1-0.8,2.2-1.4,3.7-1.8
			c1.4-0.5,2.9-0.7,4.5-0.7c2.4,0,4.2,0.6,5.6,1.7c1.4,1.1,2.1,2.8,2.1,4.9v12.7c0,0.8,0.1,1.5,0.3,2c0.2,0.6,0.5,1.1,0.9,1.4
			l-3.9,0.1v-5.3c-0.3,0.7-0.6,1.3-1,2c-0.4,0.6-0.9,1.2-1.5,1.7s-1.3,0.9-2.1,1.2c-0.8,0.3-1.8,0.4-2.8,0.4c-1,0-1.9-0.1-2.7-0.3
			c-0.8-0.2-1.6-0.5-2.2-1c-0.6-0.4-1.1-1-1.4-1.6c-0.3-0.7-0.5-1.4-0.5-2.3c0-1.2,0.3-2.2,1-3.1c0.7-0.8,1.5-1.5,2.5-2.1
			c1-0.6,2-1,3.2-1.3C129.8,69.4,130.8,69.1,131.8,68.8z M125.3,76.2c0,1.4,0.4,2.5,1.1,3.4c0.7,0.9,1.8,1.3,3.1,1.3
			c0.7,0,1.5-0.2,2.3-0.5c0.8-0.3,1.5-0.8,2.1-1.4c0.6-0.6,1.2-1.4,1.6-2.3c0.4-0.9,0.7-2,0.7-3.3v-5l-4.4,1c-0.6,0.1-1.2,0.3-2,0.6
			c-0.8,0.3-1.5,0.6-2.2,1.1c-0.7,0.5-1.3,1.1-1.7,1.9C125.5,73.9,125.3,74.9,125.3,76.2z"/>
		<path class="st0" d="M155.5,58.4c1.3,0,2.4,0.2,3.5,0.6c1.1,0.4,2.1,1,3,1.7v-6.5c0-0.8-0.1-1.4-0.2-1.8c-0.1-0.4-0.4-0.7-0.8-1
			l4-0.5v26.5c0,1.2,0.1,2,0.3,2.5c0.2,0.5,0.5,1,0.8,1.4l-3.9,0.1v-3.1c-0.8,1.1-1.8,1.9-3,2.4c-1.2,0.5-2.4,0.7-3.6,0.7
			c-1.7,0-3.2-0.3-4.6-0.8c-1.4-0.6-2.5-1.3-3.5-2.3c-1-1-1.7-2.1-2.2-3.5c-0.5-1.3-0.8-2.8-0.8-4.3c0-1.8,0.3-3.4,0.8-4.9
			c0.5-1.5,1.3-2.8,2.3-3.8c1-1.1,2.2-1.9,3.5-2.5C152.4,58.7,153.9,58.4,155.5,58.4z M147.5,68.9c0,1.6,0.2,3.2,0.6,4.6
			c0.4,1.4,1,2.7,1.7,3.8c0.8,1.1,1.7,1.9,2.8,2.6c1.1,0.6,2.3,0.9,3.7,0.9c1.2,0,2.2-0.3,3.2-0.9c1-0.6,1.8-1.4,2.5-2.4V64
			c-0.7-1.7-1.6-2.9-2.8-3.7c-1.2-0.8-2.5-1.2-4-1.2c-1.2,0-2.3,0.2-3.2,0.7c-1,0.5-1.8,1.1-2.4,2c-0.7,0.9-1.2,1.9-1.5,3.1
			C147.7,66.1,147.5,67.4,147.5,68.9z"/>
		<path class="st0" d="M182,58.4c1.7,0,3.3,0.3,4.7,0.8c1.4,0.6,2.6,1.4,3.6,2.4c1,1,1.8,2.2,2.4,3.7c0.6,1.4,0.8,3,0.8,4.6v0
			c0,1.7-0.3,3.2-0.8,4.6s-1.4,2.6-2.4,3.7c-1,1-2.2,1.8-3.6,2.4c-1.4,0.6-3,0.8-4.7,0.8c-1.7,0-3.3-0.3-4.7-0.8
			c-1.4-0.6-2.6-1.4-3.6-2.4c-1-1-1.8-2.2-2.4-3.7c-0.6-1.4-0.8-3-0.8-4.6v0c0-1.7,0.3-3.2,0.8-4.6c0.6-1.4,1.4-2.6,2.4-3.7
			c1-1,2.2-1.8,3.6-2.4S180.3,58.4,182,58.4z M173.8,69.9c0,1.6,0.2,3.1,0.6,4.4s1,2.5,1.7,3.5c0.7,1,1.6,1.7,2.6,2.3
			c1,0.5,2.1,0.8,3.4,0.8c1.2,0,2.4-0.3,3.4-0.8c1-0.5,1.9-1.3,2.6-2.3c0.7-1,1.3-2.1,1.7-3.5s0.6-2.8,0.6-4.4
			c0-1.6-0.2-3.1-0.6-4.4c-0.4-1.3-1-2.5-1.7-3.5c-0.7-1-1.6-1.7-2.6-2.2c-1-0.5-2.1-0.8-3.4-0.8c-1.2,0-2.4,0.3-3.4,0.8
			c-1,0.5-1.9,1.3-2.6,2.2c-0.7,1-1.3,2.1-1.7,3.5C174,66.9,173.8,68.3,173.8,69.9z"/>
		<path class="st0" d="M202.1,58.6c-0.2,0.2-0.4,0.5-0.6,0.8c-0.1,0.3-0.1,0.9,0.2,1.7l5.6,15.7l5.7-18.2h0.3l7.3,18.4l4.4-13.4
			c0.3-1.1,0.5-2,0.6-2.6c0.1-0.6,0-1.1-0.1-1.4c-0.1-0.3-0.3-0.6-0.5-0.7c-0.2-0.1-0.3-0.2-0.5-0.3h3.9c-0.4,0.2-0.8,0.5-1.2,1
			s-0.8,1.3-1.2,2.4l-6.3,19.3h-0.5l-7.2-18.1l-5.7,18.1H206l-6.9-19.1c-0.5-1.2-0.8-2.1-1.2-2.6c-0.3-0.5-0.6-0.8-0.9-1H202.1z"/>
		<path class="st0" d="M245.7,81.3c0.9-0.2,1.4-0.6,1.7-1.1c0.3-0.5,0.4-1.3,0.4-2.4V56.9c0-0.6,0-1.1-0.1-1.5
			c-0.1-0.4-0.2-0.7-0.3-1c-0.2-0.3-0.4-0.5-0.7-0.7c-0.3-0.2-0.6-0.3-1.1-0.4H256c1.2,0,2.4,0.1,3.7,0.4c1.3,0.3,2.4,0.7,3.4,1.3
			c1,0.6,1.9,1.4,2.5,2.4c0.7,1,1,2.2,1,3.7c0,1.4-0.3,2.7-1,3.7c-0.7,1-1.5,1.9-2.5,2.6c-1,0.7-2.2,1.2-3.5,1.5
			c-1.3,0.3-2.5,0.5-3.8,0.5h-5v8.3c0,1.2,0.2,2,0.5,2.4c0.3,0.5,0.9,0.8,1.7,1.1H245.7z M250.9,54v14.8h4.2c1.1,0,2.1-0.1,3.1-0.4
			c1-0.3,1.9-0.7,2.6-1.3c0.8-0.6,1.4-1.4,1.8-2.3c0.5-0.9,0.7-2.1,0.7-3.4c0-2.4-0.7-4.1-2.1-5.4c-1.4-1.2-3.5-1.8-6.1-1.8H250.9z"
			/>
		<path class="st0" d="M280.9,68.8l4.5-1.1v-2.9c0-2-0.4-3.5-1.2-4.4c-0.8-0.9-2-1.4-3.6-1.4c-0.7,0-1.5,0.1-2.3,0.4
			c-0.8,0.3-1.5,0.7-2.2,1.4c-0.7,0.7-1.3,1.5-1.9,2.7c-0.6,1.1-1.1,2.5-1.4,4.3l-0.2-6.7c1-0.8,2.2-1.4,3.7-1.8
			c1.4-0.5,2.9-0.7,4.5-0.7c2.4,0,4.2,0.6,5.6,1.7c1.4,1.1,2.1,2.8,2.1,4.9v12.7c0,0.8,0.1,1.5,0.3,2c0.2,0.6,0.5,1.1,0.9,1.4
			l-3.9,0.1v-5.3c-0.3,0.7-0.6,1.3-1,2c-0.4,0.6-0.9,1.2-1.5,1.7c-0.6,0.5-1.3,0.9-2.1,1.2c-0.8,0.3-1.8,0.4-2.8,0.4
			c-1,0-1.9-0.1-2.7-0.3c-0.8-0.2-1.6-0.5-2.2-1s-1.1-1-1.4-1.6c-0.3-0.7-0.5-1.4-0.5-2.3c0-1.2,0.3-2.2,1-3.1
			c0.7-0.8,1.5-1.5,2.5-2.1c1-0.6,2-1,3.2-1.3C278.9,69.4,279.9,69.1,280.9,68.8z M274.4,76.2c0,1.4,0.4,2.5,1.1,3.4
			c0.7,0.9,1.8,1.3,3.1,1.3c0.7,0,1.5-0.2,2.3-0.5c0.8-0.3,1.5-0.8,2.1-1.4c0.6-0.6,1.2-1.4,1.6-2.3c0.4-0.9,0.7-2,0.7-3.3v-5
			l-4.4,1c-0.6,0.1-1.2,0.3-2,0.6s-1.5,0.6-2.2,1.1c-0.7,0.5-1.3,1.1-1.7,1.9C274.6,73.9,274.4,74.9,274.4,76.2z"/>
		<path class="st0" d="M293.6,81.3c0.4-0.1,0.8-0.3,1-0.4c0.3-0.2,0.5-0.4,0.6-0.6c0.2-0.3,0.3-0.6,0.3-1c0.1-0.4,0.1-0.9,0.1-1.4
			V54.2c0-0.8-0.1-1.4-0.2-1.8c-0.1-0.4-0.4-0.7-0.8-1l4-0.5v26.9c0,0.6,0,1,0.1,1.4c0.1,0.4,0.2,0.7,0.3,1s0.4,0.5,0.6,0.6
			c0.3,0.2,0.6,0.3,1,0.4H293.6z"/>
		<path class="st0" d="M315.6,58.4c1.6,0,3,0.2,4.2,0.7c1.2,0.5,2.2,1.1,3,1.9c0.8,0.8,1.4,1.8,1.7,2.9c0.4,1.1,0.6,2.4,0.6,3.7
			h-16.9c-0.1,0.4-0.1,0.8-0.1,1.2c0,0.4,0,0.8,0,1.3c0,1.5,0.2,3,0.6,4.3c0.4,1.3,1,2.5,1.7,3.4c0.7,1,1.6,1.7,2.6,2.3
			c1,0.5,2.1,0.8,3.3,0.8c1.1,0,2-0.2,2.9-0.6c0.9-0.4,1.7-0.9,2.4-1.7s1.4-1.6,1.9-2.6c0.6-1,1.1-2.1,1.5-3.3l-0.4,5.8
			c-1.2,1-2.5,1.7-4,2.2c-1.5,0.5-3,0.7-4.4,0.7c-1.7,0-3.2-0.3-4.7-0.8c-1.4-0.5-2.6-1.3-3.7-2.3c-1-1-1.8-2.2-2.4-3.6
			c-0.6-1.4-0.8-3-0.8-4.7c0-1.7,0.2-3.2,0.7-4.7c0.5-1.4,1.2-2.6,2.1-3.7c0.9-1,2.1-1.9,3.4-2.4C312.4,58.7,313.9,58.4,315.6,58.4z
			 M308.3,67.2h13.7c0-1.2-0.2-2.3-0.5-3.3c-0.3-1-0.7-1.9-1.2-2.6c-0.5-0.7-1.2-1.3-2-1.7c-0.8-0.4-1.7-0.6-2.7-0.6
			c-1,0-1.8,0.2-2.6,0.6s-1.5,1-2.1,1.7c-0.6,0.7-1.2,1.6-1.6,2.6C308.7,64.9,308.4,66,308.3,67.2z"/>
		<path class="st0" d="M333.4,58.6l2.8-5.6v5.6h6.6v0.4h-6.6v17.3c0,0.9,0.1,1.6,0.2,2.2c0.1,0.6,0.3,1.1,0.5,1.4
			c0.2,0.3,0.5,0.6,0.8,0.7c0.3,0.1,0.7,0.2,1.1,0.2c0.8,0,1.4-0.2,2-0.7c0.5-0.4,1-1.1,1.5-1.9l0.5,0.4c-0.5,0.9-1.1,1.5-1.7,2
			c-0.6,0.5-1.5,0.7-2.7,0.7c-1.9,0-3.2-0.5-4-1.6c-0.8-1.1-1.1-2.6-1.1-4.6V59.1h-3.9v-0.4H333.4z"/>
		<path class="st0" d="M350.2,58.6L353,53v5.6h6.6v0.4H353v17.3c0,0.9,0.1,1.6,0.2,2.2c0.1,0.6,0.3,1.1,0.5,1.4
			c0.2,0.3,0.5,0.6,0.8,0.7c0.3,0.1,0.7,0.2,1.1,0.2c0.8,0,1.4-0.2,2-0.7c0.5-0.4,1-1.1,1.5-1.9l0.5,0.4c-0.5,0.9-1.1,1.5-1.7,2
			c-0.6,0.5-1.5,0.7-2.7,0.7c-1.9,0-3.2-0.5-4-1.6c-0.8-1.1-1.1-2.6-1.1-4.6V59.1h-3.9v-0.4H350.2z"/>
		<path class="st0" d="M374.2,58.4c1.6,0,3,0.2,4.2,0.7c1.2,0.5,2.2,1.1,3,1.9c0.8,0.8,1.4,1.8,1.7,2.9c0.4,1.1,0.6,2.4,0.6,3.7
			h-16.9c-0.1,0.4-0.1,0.8-0.1,1.2c0,0.4,0,0.8,0,1.3c0,1.5,0.2,3,0.6,4.3c0.4,1.3,1,2.5,1.7,3.4c0.7,1,1.6,1.7,2.6,2.3
			c1,0.5,2.1,0.8,3.3,0.8c1.1,0,2-0.2,2.9-0.6c0.9-0.4,1.7-0.9,2.4-1.7s1.4-1.6,1.9-2.6c0.6-1,1.1-2.1,1.5-3.3l-0.4,5.8
			c-1.2,1-2.5,1.7-4,2.2c-1.5,0.5-3,0.7-4.4,0.7c-1.7,0-3.2-0.3-4.7-0.8c-1.4-0.5-2.6-1.3-3.7-2.3c-1-1-1.8-2.2-2.4-3.6
			c-0.6-1.4-0.8-3-0.8-4.7c0-1.7,0.2-3.2,0.7-4.7c0.5-1.4,1.2-2.6,2.1-3.7c0.9-1,2.1-1.9,3.4-2.4C371,58.7,372.5,58.4,374.2,58.4z
			 M366.9,67.2h13.7c0-1.2-0.2-2.3-0.5-3.3c-0.3-1-0.7-1.9-1.2-2.6c-0.5-0.7-1.2-1.3-2-1.7c-0.8-0.4-1.7-0.6-2.7-0.6
			c-1,0-1.8,0.2-2.6,0.6s-1.5,1-2.1,1.7c-0.6,0.7-1.2,1.6-1.6,2.6C367.3,64.9,367,66,366.9,67.2z"/>
	</g>
</g>
</svg>
