<?xml version="1.0" encoding="utf-8"?>
<!-- Generator: Adobe Illustrator 25.4.1, SVG Export Plug-In . SVG Version: 6.00 Build 0)  -->
<svg version="1.1" id="レイヤー_1" xmlns="http://www.w3.org/2000/svg" xmlns:xlink="http://www.w3.org/1999/xlink" x="0px"
	 y="0px" viewBox="0 0 378 89" style="enable-background:new 0 0 378 89;" xml:space="preserve">
<style type="text/css">
	.st0{fill:#FFFFFF;stroke:#FFFFFF;stroke-width:0.5;stroke-miterlimit:10;}
	.st1{fill:#FFFFFF;}
</style>
<g>
	<path class="st0" d="M20.5,44.9c0.8,0,1.8,0.1,2.9,0.2c1.1,0.1,2.3,0.3,3.6,0.7c1.3,0.3,2.6,0.7,3.9,1.2c1.3,0.5,2.6,1.1,3.8,1.9
		l1,14.3c-1.2-5.9-3.1-10.2-5.9-13.1c-2.8-2.8-6-4.2-9.7-4.2c-2.1,0-4,0.4-5.8,1.3c-1.8,0.9-3.4,2.2-4.7,3.9
		c-1.3,1.8-2.4,3.9-3.2,6.6c-0.8,2.6-1.1,5.7-1.1,9.1c0,3.6,0.4,6.7,1.2,9.3c0.8,2.6,1.9,4.8,3.3,6.6c1.4,1.7,3.1,3,5,3.9
		c1.9,0.8,3.9,1.3,6.1,1.3c1.4,0,2.7-0.2,4.1-0.5c1.4-0.4,2.7-1,4-1.8c1.3-0.8,2.5-2,3.7-3.3c1.2-1.4,2.2-3.1,3-5.2v6.8
		c-1.7,1.4-3.8,2.6-6.4,3.6c-2.6,1-5.4,1.5-8.3,1.5c-3,0-5.7-0.6-8.3-1.7c-2.6-1.1-4.8-2.7-6.7-4.6c-1.9-2-3.4-4.3-4.4-7
		C0.6,72.7,0,69.8,0,66.7c0-3.1,0.5-6,1.6-8.6c1.1-2.7,2.6-5,4.5-6.9c1.9-1.9,4.1-3.5,6.5-4.6C15.2,45.4,17.8,44.9,20.5,44.9z"/>
	<path class="st0" d="M43.3,88.3c0.7-0.2,1.2-0.4,1.6-0.7c0.4-0.2,0.7-0.6,1-1c0.2-0.4,0.4-0.9,0.5-1.5c0.1-0.6,0.1-1.4,0.1-2.2
		V46.5c0-1.3-0.1-2.2-0.3-2.8c-0.2-0.6-0.6-1.1-1.2-1.6l6.1-0.7v21.4c1-3,2.7-5.4,5-7.2c2.3-1.8,5.2-2.6,8.7-2.6
		c2,0,3.7,0.3,5.3,0.8c1.5,0.6,2.8,1.4,3.9,2.4c1.1,1,1.9,2.3,2.4,3.7c0.6,1.4,0.8,3,0.8,4.7v18.4c0,0.9,0.1,1.6,0.2,2.2
		c0.1,0.6,0.3,1.1,0.5,1.5c0.2,0.4,0.6,0.7,1,1c0.4,0.2,0.9,0.5,1.6,0.7h-11c0.7-0.2,1.2-0.4,1.6-0.7c0.4-0.2,0.7-0.6,1-1
		c0.2-0.4,0.4-0.9,0.5-1.5c0.1-0.6,0.1-1.4,0.1-2.2V64c0-3.1-0.7-5.5-2.2-7.3c-1.5-1.8-3.7-2.6-6.5-2.6c-1.6,0-3.2,0.3-4.7,0.9
		c-1.5,0.6-2.8,1.5-4,2.6c-1.2,1.2-2.1,2.6-2.8,4.3c-0.7,1.7-1.1,3.6-1.3,5.8v15.3c0,0.9,0.1,1.6,0.2,2.2c0.1,0.6,0.3,1.1,0.5,1.5
		c0.2,0.4,0.6,0.7,1,1c0.4,0.2,0.9,0.5,1.6,0.7H43.3z"/>
	<path class="st0" d="M102.1,53c2.5,0,4.6,0.4,6.5,1.1c1.8,0.7,3.4,1.7,4.6,3c1.2,1.3,2.1,2.8,2.7,4.5c0.6,1.7,0.9,3.6,1,5.7H90.7
		c-0.1,0.6-0.1,1.3-0.2,1.9c0,0.6-0.1,1.3-0.1,2c0,2.4,0.3,4.6,1,6.6c0.6,2,1.5,3.8,2.7,5.3c1.1,1.5,2.5,2.7,4.1,3.5
		c1.6,0.8,3.3,1.3,5.1,1.3c1.7,0,3.2-0.3,4.5-0.9c1.3-0.6,2.6-1.5,3.7-2.6c1.1-1.1,2.1-2.4,3-4c0.9-1.6,1.7-3.3,2.3-5.1l-0.6,9
		c-1.8,1.5-3.9,2.7-6.2,3.4c-2.3,0.7-4.6,1.1-6.8,1.1c-2.6,0-5-0.4-7.2-1.3c-2.2-0.8-4.1-2-5.7-3.6c-1.6-1.5-2.8-3.4-3.7-5.6
		c-0.9-2.2-1.3-4.6-1.3-7.3c0-2.6,0.4-5,1.1-7.2c0.8-2.2,1.9-4.1,3.3-5.7c1.4-1.6,3.2-2.9,5.2-3.8C97.1,53.4,99.5,53,102.1,53z
		 M90.8,66.5h21.1c0-1.8-0.3-3.5-0.7-5c-0.5-1.5-1.1-2.9-1.9-4c-0.8-1.2-1.9-2.1-3.1-2.7c-1.2-0.6-2.6-1-4.2-1
		c-1.5,0-2.9,0.3-4.1,0.9s-2.3,1.5-3.3,2.6c-1,1.1-1.8,2.5-2.4,4C91.5,62.9,91.1,64.6,90.8,66.5z"/>
	<path class="st0" d="M140.5,53c2.7,0,5.2,0.5,7.5,1.4c2.3,0.9,4.4,2.1,6.2,3.5l-2,9.8c-0.2-2.6-0.7-4.8-1.5-6.6
		c-0.7-1.8-1.6-3.2-2.7-4.3c-1.1-1.1-2.2-1.8-3.5-2.3c-1.3-0.5-2.6-0.7-3.9-0.7c-1.8,0-3.4,0.4-4.9,1.2c-1.5,0.8-2.7,2-3.8,3.4
		c-1.1,1.5-1.9,3.3-2.5,5.3c-0.6,2.1-0.9,4.4-0.9,6.9c0,2.6,0.3,4.9,0.9,7c0.6,2.1,1.5,3.9,2.6,5.4s2.4,2.6,4,3.4
		c1.5,0.8,3.2,1.2,5.1,1.2c3.1,0,5.9-1.2,8.2-3.6c2.4-2.4,4.1-5.8,5.3-10.3l-0.4,10.4c-1,0.9-2,1.6-3.1,2.1c-1.1,0.6-2.3,1-3.4,1.3
		c-1.2,0.3-2.3,0.6-3.4,0.7c-1.1,0.1-2.2,0.2-3.1,0.2c-2.5,0-4.9-0.4-7-1.3c-2.1-0.8-4-2.1-5.5-3.6c-1.6-1.6-2.8-3.5-3.7-5.7
		c-0.9-2.2-1.3-4.7-1.3-7.4c0-2.6,0.4-5,1.2-7.1c0.8-2.1,2-4,3.5-5.6c1.5-1.6,3.3-2.8,5.4-3.7C135.7,53.4,138,53,140.5,53z"/>
	<path class="st0" d="M160.9,88.3c0.7-0.2,1.2-0.4,1.6-0.7c0.4-0.2,0.7-0.6,1-1c0.2-0.4,0.4-0.9,0.5-1.5c0.1-0.6,0.1-1.4,0.1-2.2
		V46.5c0-1.3-0.1-2.2-0.3-2.8c-0.2-0.6-0.6-1.1-1.2-1.6l6.1-0.7v31.7l15.9-14c1.1-1,2-1.9,2.8-2.9c0.7-1,1.1-2,1-2.9h5.6
		c-0.4,0.2-0.9,0.5-1.4,0.8c-0.5,0.4-1.2,0.8-1.9,1.4c-0.7,0.6-1.6,1.3-2.6,2.1c-1,0.8-2.2,1.8-3.5,3l-6.8,6l11.8,14.9
		c1.2,1.4,2.1,2.6,2.8,3.5c0.7,0.9,1.3,1.6,1.7,2c0.4,0.5,0.7,0.8,0.9,1c0.2,0.2,0.3,0.2,0.4,0.2h-7.9c0.1-0.1,0.1-0.3,0.2-0.5
		c0-0.2,0-0.6-0.2-1c-0.2-0.4-0.4-1-0.8-1.7c-0.4-0.7-1-1.5-1.8-2.6l-10.2-13.2l-5.8,5.1v8.4c0,0.9,0.1,1.6,0.2,2.2
		c0.1,0.6,0.3,1.1,0.5,1.5c0.2,0.4,0.6,0.7,1,1c0.4,0.2,0.9,0.5,1.6,0.7H160.9z"/>
	<path class="st0" d="M221.4,88.3c1.3-0.4,2.2-0.9,2.7-1.7c0.5-0.7,0.7-2,0.7-3.8V50.7c0-0.9-0.1-1.7-0.2-2.3
		c-0.1-0.6-0.3-1.1-0.5-1.5c-0.2-0.4-0.6-0.8-1-1c-0.4-0.3-1-0.5-1.6-0.7h15.9c1.9,0,3.8,0.2,5.7,0.6c1.9,0.4,3.7,1.1,5.3,2
		c1.6,0.9,2.9,2.1,3.9,3.7c1,1.5,1.5,3.4,1.5,5.7c0,2.2-0.5,4.2-1.5,5.8c-1,1.6-2.3,2.9-3.9,4c-1.6,1.1-3.4,1.8-5.4,2.4
		c-2,0.5-3.9,0.8-5.8,0.8h-7.7v12.8c0,1.8,0.2,3,0.7,3.8c0.5,0.7,1.4,1.3,2.6,1.7H221.4z M229.4,46.2V69h6.5c1.7,0,3.2-0.2,4.8-0.7
		c1.5-0.4,2.9-1.1,4.1-2.1c1.2-1,2.1-2.2,2.8-3.6c0.7-1.5,1.1-3.2,1.1-5.3c0-3.6-1.1-6.4-3.3-8.3c-2.2-1.9-5.3-2.9-9.4-2.9H229.4z"
		/>
	<path class="st0" d="M277.1,53c2.6,0,5.1,0.4,7.2,1.3c2.2,0.9,4,2.1,5.6,3.7c1.6,1.6,2.8,3.5,3.7,5.6s1.3,4.6,1.3,7.2v0.1
		c0,2.6-0.4,5-1.3,7.2c-0.9,2.2-2.1,4.1-3.7,5.6c-1.6,1.6-3.4,2.8-5.6,3.7c-2.2,0.9-4.6,1.3-7.2,1.3c-2.6,0-5.1-0.4-7.2-1.3
		c-2.2-0.9-4-2.1-5.6-3.7c-1.6-1.6-2.8-3.5-3.7-5.6c-0.9-2.2-1.3-4.6-1.3-7.2v-0.1c0-2.6,0.4-5,1.3-7.2c0.9-2.2,2.1-4.1,3.7-5.6
		c1.6-1.6,3.4-2.8,5.6-3.7C272,53.4,274.5,53,277.1,53z M264.3,70.8c0,2.5,0.3,4.8,0.9,6.8c0.6,2.1,1.5,3.9,2.6,5.4
		c1.1,1.5,2.5,2.7,4,3.5c1.6,0.8,3.3,1.2,5.2,1.2c1.9,0,3.6-0.4,5.2-1.2c1.6-0.8,2.9-2,4-3.5c1.1-1.5,2-3.3,2.6-5.4
		c0.6-2.1,0.9-4.3,0.9-6.8s-0.3-4.8-0.9-6.8c-0.6-2.1-1.5-3.8-2.6-5.3c-1.1-1.5-2.5-2.6-4-3.5c-1.6-0.8-3.3-1.2-5.2-1.2
		c-1.9,0-3.6,0.4-5.2,1.2c-1.6,0.8-2.9,2-4,3.5c-1.1,1.5-2,3.3-2.6,5.3C264.6,66,264.3,68.3,264.3,70.8z"/>
	<path class="st0" d="M300.3,88.3c0.7-0.2,1.2-0.4,1.6-0.7c0.4-0.2,0.7-0.6,1-1c0.2-0.4,0.4-0.9,0.5-1.5c0.1-0.6,0.1-1.4,0.1-2.2
		V60.1c0-0.9,0-1.6-0.1-2.3c-0.1-0.6-0.2-1.2-0.3-1.7c-0.1-0.5-0.3-1-0.5-1.4c-0.2-0.4-0.5-0.8-0.8-1.2l6.3-0.6v30
		c0,0.9,0.1,1.6,0.2,2.2c0.1,0.6,0.3,1.1,0.5,1.5c0.2,0.4,0.6,0.7,1,1c0.4,0.2,0.9,0.5,1.6,0.7H300.3z M305.6,42.2
		c1,0,1.7,0.3,2.4,0.8c0.6,0.6,0.9,1.3,0.9,2.3c0,1-0.3,1.7-0.9,2.3c-0.6,0.6-1.4,0.9-2.4,0.9c-0.9,0-1.7-0.3-2.3-0.9
		c-0.6-0.6-0.9-1.3-0.9-2.3c0-1,0.3-1.7,0.9-2.3C303.9,42.5,304.7,42.2,305.6,42.2z"/>
	<path class="st0" d="M317.3,88.3c0.7-0.2,1.2-0.4,1.6-0.7c0.4-0.2,0.7-0.6,1-1c0.2-0.4,0.4-0.9,0.5-1.5c0.1-0.6,0.1-1.4,0.1-2.2
		V60.1c0-0.9,0-1.6-0.1-2.3c-0.1-0.6-0.2-1.2-0.3-1.7c-0.1-0.5-0.3-1-0.5-1.4c-0.2-0.4-0.5-0.8-0.8-1.2l6.3-0.6v9.9
		c1-3,2.7-5.4,5-7.2c2.3-1.8,5.2-2.6,8.7-2.6c2,0,3.7,0.3,5.3,0.8c1.5,0.6,2.8,1.4,3.9,2.4c1.1,1,1.9,2.3,2.4,3.7
		c0.6,1.4,0.8,3,0.8,4.7v18.4c0,0.9,0.1,1.6,0.2,2.2c0.1,0.6,0.3,1.1,0.5,1.5c0.2,0.4,0.6,0.7,1,1c0.4,0.2,0.9,0.5,1.6,0.7h-11
		c0.7-0.2,1.2-0.4,1.6-0.7c0.4-0.2,0.7-0.6,1-1c0.2-0.4,0.4-0.9,0.5-1.5c0.1-0.6,0.1-1.4,0.1-2.2V64c0-3.1-0.7-5.5-2.2-7.3
		c-1.5-1.8-3.7-2.6-6.5-2.6c-1.6,0-3.2,0.3-4.7,0.9c-1.5,0.6-2.8,1.5-4,2.6c-1.2,1.2-2.1,2.6-2.8,4.3c-0.7,1.7-1.1,3.6-1.3,5.8v15.3
		c0,0.9,0.1,1.6,0.2,2.2c0.1,0.6,0.3,1.1,0.5,1.5c0.2,0.4,0.6,0.7,1,1c0.4,0.2,0.9,0.5,1.6,0.7H317.3z"/>
	<path class="st0" d="M363.5,53.3l4.3-8.6v8.6h10.2V54h-10.2v26.7c0,1.4,0.1,2.5,0.3,3.4c0.2,0.9,0.4,1.6,0.8,2.2
		c0.3,0.5,0.8,0.9,1.3,1.1c0.5,0.2,1.1,0.3,1.8,0.3c1.2,0,2.2-0.3,3-1c0.8-0.7,1.6-1.6,2.3-2.9l0.8,0.6c-0.8,1.3-1.7,2.4-2.7,3.1
		c-1,0.8-2.4,1.1-4.2,1.1c-2.9,0-4.9-0.8-6.1-2.5c-1.2-1.7-1.8-4-1.8-7.1V54h-6.1v-0.7H363.5z"/>
</g>
<g>
	<g>
		<path class="st1" d="M45.6,2.5V0.7h11.9v1.8H45.6z M50.5,15.3V1.1h2v14.2H50.5z"/>
		<path class="st1" d="M60.6,15.3v-15h1.9v15H60.6z M67.7,15.3V9.5c0-0.8-0.2-1.4-0.7-1.9c-0.5-0.5-1.1-0.7-1.8-0.7
			c-0.5,0-1,0.1-1.3,0.3c-0.4,0.2-0.7,0.5-0.9,0.9c-0.2,0.4-0.3,0.8-0.3,1.3L61.7,9c0-0.8,0.2-1.4,0.5-2C62.6,6.4,63,6,63.6,5.6
			c0.6-0.3,1.3-0.5,2-0.5c0.8,0,1.4,0.2,2,0.5c0.6,0.3,1,0.8,1.4,1.4c0.3,0.6,0.5,1.3,0.5,2.1v6.2H67.7z"/>
		<path class="st1" d="M77.9,15.5c-1,0-1.9-0.2-2.7-0.7c-0.8-0.5-1.4-1.1-1.9-1.9c-0.5-0.8-0.7-1.7-0.7-2.7c0-1,0.2-1.9,0.7-2.6
			c0.5-0.8,1.1-1.4,1.8-1.9c0.8-0.5,1.6-0.7,2.6-0.7c0.9,0,1.7,0.2,2.4,0.6c0.7,0.4,1.3,1,1.7,1.7c0.4,0.7,0.6,1.6,0.6,2.5
			c0,0.1,0,0.3,0,0.5c0,0.2,0,0.3-0.1,0.5H74V9.4h7.4L80.7,10c0-0.7-0.1-1.2-0.4-1.7c-0.2-0.5-0.6-0.8-1-1.1c-0.4-0.3-1-0.4-1.6-0.4
			c-0.6,0-1.2,0.1-1.7,0.4c-0.5,0.3-0.9,0.7-1.1,1.2c-0.3,0.5-0.4,1.1-0.4,1.8c0,0.7,0.1,1.3,0.4,1.8s0.7,0.9,1.2,1.2
			c0.5,0.3,1.1,0.4,1.8,0.4c0.6,0,1.1-0.1,1.5-0.3c0.5-0.2,0.9-0.5,1.2-0.9l1.2,1.2c-0.5,0.6-1.1,1-1.8,1.3
			C79.4,15.4,78.7,15.5,77.9,15.5z"/>
		<path class="st1" d="M95.6,15.5c-1.1,0-2.1-0.2-2.9-0.6c-0.8-0.4-1.5-1-2.2-1.8l1.3-1.3c0.5,0.6,1,1.1,1.6,1.5
			c0.6,0.3,1.3,0.5,2.2,0.5c0.9,0,1.6-0.2,2.1-0.6s0.8-0.9,0.8-1.6c0-0.5-0.1-1-0.4-1.3s-0.6-0.6-1-0.8c-0.4-0.2-0.9-0.4-1.4-0.6
			c-0.5-0.2-1-0.4-1.5-0.6c-0.5-0.2-1-0.5-1.4-0.8c-0.4-0.3-0.8-0.7-1-1.2c-0.3-0.5-0.4-1.1-0.4-1.9c0-0.8,0.2-1.5,0.6-2.1
			c0.4-0.6,0.9-1,1.6-1.3c0.7-0.3,1.5-0.5,2.3-0.5c1,0,1.8,0.2,2.6,0.6c0.8,0.4,1.4,0.9,1.8,1.5l-1.3,1.3c-0.4-0.5-0.9-0.9-1.4-1.1
			c-0.5-0.3-1.1-0.4-1.7-0.4c-0.8,0-1.4,0.2-1.9,0.5c-0.5,0.3-0.7,0.8-0.7,1.4c0,0.5,0.1,0.9,0.4,1.2c0.3,0.3,0.6,0.6,1,0.8
			c0.4,0.2,0.9,0.4,1.4,0.6c0.5,0.2,1,0.4,1.5,0.6s1,0.5,1.4,0.8c0.4,0.3,0.8,0.7,1,1.2c0.3,0.5,0.4,1.2,0.4,1.9
			c0,1.3-0.4,2.3-1.3,3C98.3,15.1,97.1,15.5,95.6,15.5z"/>
		<path class="st1" d="M104,15.3v-15h1.9v15H104z M110.4,15.3l-4.7-5.1l4.6-4.9h2.3l-5.1,5.4l0.1-1.1l5.2,5.7H110.4z"/>
		<path class="st1" d="M116.6,3.3c-0.4,0-0.6-0.1-0.9-0.3c-0.2-0.2-0.3-0.5-0.3-0.9c0-0.3,0.1-0.6,0.3-0.9c0.2-0.2,0.5-0.3,0.9-0.3
			c0.3,0,0.6,0.1,0.9,0.3c0.2,0.2,0.3,0.5,0.3,0.9c0,0.4-0.1,0.6-0.3,0.9C117.2,3.2,116.9,3.3,116.6,3.3z M115.6,15.3v-10h1.9v10
			H115.6z"/>
		<path class="st1" d="M121.5,15.3v-10h1.9v10H121.5z M128.5,15.3V9.5c0-0.8-0.2-1.4-0.7-1.9c-0.5-0.5-1.1-0.7-1.8-0.7
			c-0.5,0-1,0.1-1.3,0.3c-0.4,0.2-0.7,0.5-0.9,0.9c-0.2,0.4-0.3,0.8-0.3,1.3L122.6,9c0-0.8,0.2-1.4,0.5-2c0.3-0.6,0.8-1.1,1.4-1.4
			c0.6-0.3,1.3-0.5,2-0.5c0.8,0,1.4,0.2,2,0.6c0.6,0.4,1,0.9,1.4,1.5c0.3,0.6,0.5,1.3,0.5,1.9v6.2H128.5z"/>
		<path class="st1" d="M140,15.3V0.7h2v14.6H140z M141.3,2.5V0.7h8.3v1.8H141.3z M141.3,8.7V7h7.7v1.7H141.3z M141.3,15.3v-1.8h8.4
			v1.8H141.3z"/>
		<path class="st1" d="M156.5,15.4l-4.3-10.1h2.1l3.2,7.9h-0.7l3.4-7.9h2.1l-4.7,10.1H156.5z M153.6,19.5l2.9-6l1.1,1.9l-1.9,4.1
			H153.6z"/>
		<path class="st1" d="M169.8,15.5c-1,0-1.9-0.2-2.7-0.7c-0.8-0.5-1.4-1.1-1.9-1.9c-0.5-0.8-0.7-1.7-0.7-2.7c0-1,0.2-1.9,0.7-2.6
			c0.5-0.8,1.1-1.4,1.8-1.9c0.8-0.5,1.6-0.7,2.6-0.7c0.9,0,1.7,0.2,2.4,0.6c0.7,0.4,1.3,1,1.7,1.7c0.4,0.7,0.6,1.6,0.6,2.5
			c0,0.1,0,0.3,0,0.5c0,0.2,0,0.3-0.1,0.5h-8.4V9.4h7.4l-0.7,0.6c0-0.7-0.1-1.2-0.4-1.7c-0.2-0.5-0.6-0.8-1-1.1
			c-0.4-0.3-1-0.4-1.6-0.4c-0.6,0-1.2,0.1-1.7,0.4c-0.5,0.3-0.9,0.7-1.1,1.2c-0.3,0.5-0.4,1.1-0.4,1.8c0,0.7,0.1,1.3,0.4,1.8
			s0.7,0.9,1.2,1.2c0.5,0.3,1.1,0.4,1.8,0.4c0.6,0,1.1-0.1,1.5-0.3c0.5-0.2,0.9-0.5,1.2-0.9l1.2,1.2c-0.5,0.6-1.1,1-1.8,1.3
			C171.3,15.4,170.5,15.5,169.8,15.5z"/>
		<path class="st1" d="M180.7,15.5c-0.6,0-1.1-0.1-1.6-0.2c-0.5-0.1-1-0.4-1.4-0.6c-0.4-0.3-0.8-0.6-1.1-1l1.2-1.2
			c0.4,0.4,0.8,0.8,1.3,1c0.5,0.2,1,0.3,1.6,0.3c0.6,0,1-0.1,1.4-0.3c0.3-0.2,0.5-0.5,0.5-0.9c0-0.4-0.1-0.6-0.4-0.9
			c-0.3-0.2-0.6-0.4-1-0.5c-0.4-0.1-0.8-0.3-1.3-0.4c-0.5-0.1-0.9-0.3-1.3-0.5c-0.4-0.2-0.7-0.5-1-0.9c-0.3-0.4-0.4-0.9-0.4-1.5
			c0-0.6,0.1-1.1,0.4-1.6c0.3-0.4,0.7-0.8,1.2-1c0.5-0.2,1.2-0.4,1.9-0.4c0.8,0,1.5,0.1,2.1,0.4c0.6,0.3,1.1,0.7,1.5,1.2L183.2,8
			c-0.3-0.4-0.6-0.6-1-0.8c-0.4-0.2-0.9-0.3-1.4-0.3c-0.5,0-1,0.1-1.2,0.3c-0.3,0.2-0.4,0.5-0.4,0.8c0,0.3,0.1,0.6,0.4,0.8
			c0.3,0.2,0.6,0.3,1,0.5c0.4,0.1,0.8,0.3,1.3,0.4c0.4,0.1,0.9,0.3,1.3,0.5c0.4,0.2,0.7,0.5,1,0.9c0.3,0.4,0.4,0.9,0.4,1.5
			c0,0.9-0.3,1.7-1,2.2C182.7,15.2,181.8,15.5,180.7,15.5z"/>
		<path class="st1" d="M187.7,15.3v-15h1.9v15H187.7z M194.7,15.3V9.5c0-0.8-0.2-1.4-0.7-1.9c-0.5-0.5-1.1-0.7-1.8-0.7
			c-0.5,0-1,0.1-1.3,0.3c-0.4,0.2-0.7,0.5-0.9,0.9c-0.2,0.4-0.3,0.8-0.3,1.3L188.8,9c0-0.8,0.2-1.4,0.5-2c0.3-0.6,0.8-1.1,1.4-1.4
			c0.6-0.3,1.3-0.5,2-0.5c0.8,0,1.4,0.2,2,0.5c0.6,0.3,1,0.8,1.4,1.4c0.3,0.6,0.5,1.3,0.5,2.1v6.2H194.7z"/>
		<path class="st1" d="M204.6,15.5c-0.9,0-1.8-0.2-2.5-0.7c-0.7-0.5-1.3-1.1-1.7-1.9c-0.4-0.8-0.6-1.7-0.6-2.6c0-1,0.2-1.9,0.6-2.6
			c0.4-0.8,1-1.4,1.7-1.9c0.7-0.5,1.6-0.7,2.5-0.7c0.8,0,1.4,0.2,2,0.5c0.6,0.3,1.1,0.7,1.4,1.3c0.4,0.6,0.6,1.2,0.6,1.9v3
			c0,0.7-0.2,1.4-0.6,1.9c-0.4,0.6-0.8,1-1.4,1.3C206,15.4,205.3,15.5,204.6,15.5z M204.9,13.7c0.9,0,1.7-0.3,2.3-1
			c0.6-0.6,0.9-1.5,0.9-2.4c0-0.7-0.1-1.3-0.4-1.8c-0.3-0.5-0.6-0.9-1.1-1.2c-0.5-0.3-1-0.4-1.6-0.4c-0.6,0-1.2,0.1-1.7,0.4
			c-0.5,0.3-0.9,0.7-1.1,1.2c-0.3,0.5-0.4,1.1-0.4,1.8c0,0.7,0.1,1.3,0.4,1.8c0.3,0.5,0.7,0.9,1.1,1.2
			C203.7,13.6,204.3,13.7,204.9,13.7z M207.9,15.3v-2.7l0.4-2.4l-0.4-2.4V5.3h1.9v10H207.9z"/>
		<path class="st1" d="M217.9,15.5c-0.9,0-1.7-0.2-2.5-0.7c-0.7-0.5-1.3-1.1-1.7-1.9c-0.4-0.8-0.6-1.7-0.6-2.6c0-1,0.2-1.9,0.6-2.6
			c0.4-0.8,1-1.4,1.7-1.9c0.7-0.5,1.5-0.7,2.5-0.7c0.8,0,1.4,0.2,2,0.5c0.6,0.3,1.1,0.7,1.5,1.3c0.4,0.6,0.6,1.2,0.6,1.9v3
			c0,0.7-0.2,1.4-0.6,1.9c-0.4,0.6-0.8,1-1.4,1.3C219.4,15.4,218.7,15.5,217.9,15.5z M218.2,13.7c0.6,0,1.2-0.1,1.7-0.4
			c0.5-0.3,0.8-0.7,1.1-1.2c0.3-0.5,0.4-1.1,0.4-1.8c0-0.7-0.1-1.3-0.4-1.8c-0.3-0.5-0.6-0.9-1.1-1.2c-0.5-0.3-1-0.4-1.7-0.4
			c-0.6,0-1.2,0.1-1.7,0.4c-0.5,0.3-0.9,0.7-1.1,1.2c-0.3,0.5-0.4,1.1-0.4,1.8s0.1,1.3,0.4,1.8c0.3,0.5,0.7,0.9,1.1,1.2
			C217.1,13.6,217.6,13.7,218.2,13.7z M223.2,15.3h-1.9v-2.7l0.4-2.4l-0.4-2.4V0.3h1.9V15.3z"/>
		<path class="st1" d="M231.6,15.5c-1,0-1.8-0.2-2.6-0.7c-0.8-0.5-1.4-1.1-1.9-1.9s-0.7-1.7-0.7-2.7c0-1,0.2-1.8,0.7-2.6
			c0.5-0.8,1.1-1.4,1.9-1.9c0.8-0.5,1.7-0.7,2.6-0.7c1,0,1.9,0.2,2.7,0.7c0.8,0.5,1.4,1.1,1.9,1.9c0.5,0.8,0.7,1.7,0.7,2.6
			c0,1-0.2,1.9-0.7,2.7s-1.1,1.4-1.9,1.9C233.5,15.3,232.6,15.5,231.6,15.5z M231.6,13.7c0.6,0,1.2-0.1,1.7-0.4
			c0.5-0.3,0.9-0.7,1.2-1.2c0.3-0.5,0.4-1.1,0.4-1.8c0-0.6-0.1-1.2-0.4-1.7c-0.3-0.5-0.7-0.9-1.2-1.2c-0.5-0.3-1-0.4-1.7-0.4
			c-0.6,0-1.2,0.1-1.7,0.4c-0.5,0.3-0.9,0.7-1.2,1.2c-0.3,0.5-0.4,1.1-0.4,1.7c0,0.7,0.1,1.2,0.4,1.8c0.3,0.5,0.7,0.9,1.2,1.2
			C230.4,13.5,231,13.7,231.6,13.7z"/>
		<path class="st1" d="M242.9,15.3l-3.9-10h2l2.9,7.8h-0.6l2.8-7.8h1.1l2.8,7.8h-0.6l2.9-7.8h2l-3.9,10h-1.1l-2.9-7.5h0.7l-2.9,7.5
			H242.9z"/>
		<path class="st1" d="M262.8,15.3V0.7h2v14.6H262.8z M264.2,9.6V7.9h4c0.5,0,1-0.1,1.5-0.3c0.4-0.2,0.8-0.5,1-0.9
			c0.2-0.4,0.4-0.9,0.4-1.4c0-0.6-0.1-1-0.4-1.4c-0.2-0.4-0.6-0.7-1-0.9c-0.4-0.2-0.9-0.3-1.5-0.3h-4V0.7h4.1c0.9,0,1.7,0.2,2.4,0.5
			c0.7,0.4,1.3,0.9,1.7,1.5c0.4,0.7,0.6,1.5,0.6,2.4c0,0.9-0.2,1.7-0.6,2.4c-0.4,0.7-1,1.2-1.7,1.6c-0.7,0.4-1.5,0.5-2.4,0.5H264.2z
			"/>
		<path class="st1" d="M280.6,15.5c-0.9,0-1.8-0.2-2.5-0.7c-0.7-0.5-1.3-1.1-1.7-1.9c-0.4-0.8-0.6-1.7-0.6-2.6c0-1,0.2-1.9,0.6-2.6
			c0.4-0.8,1-1.4,1.7-1.9c0.7-0.5,1.6-0.7,2.5-0.7c0.8,0,1.4,0.2,2,0.5c0.6,0.3,1.1,0.7,1.4,1.3c0.4,0.6,0.6,1.2,0.6,1.9v3
			c0,0.7-0.2,1.4-0.6,1.9c-0.4,0.6-0.8,1-1.4,1.3C282.1,15.4,281.4,15.5,280.6,15.5z M280.9,13.7c0.9,0,1.7-0.3,2.3-1
			c0.6-0.6,0.9-1.5,0.9-2.4c0-0.7-0.1-1.3-0.4-1.8c-0.3-0.5-0.6-0.9-1.1-1.2c-0.5-0.3-1-0.4-1.6-0.4c-0.6,0-1.2,0.1-1.7,0.4
			c-0.5,0.3-0.9,0.7-1.1,1.2c-0.3,0.5-0.4,1.1-0.4,1.8c0,0.7,0.1,1.3,0.4,1.8c0.3,0.5,0.7,0.9,1.1,1.2
			C279.8,13.6,280.3,13.7,280.9,13.7z M283.9,15.3v-2.7l0.4-2.4l-0.4-2.4V5.3h1.9v10H283.9z"/>
		<path class="st1" d="M289.8,15.3v-15h1.9v15H289.8z"/>
		<path class="st1" d="M300.2,15.5c-1,0-1.9-0.2-2.7-0.7c-0.8-0.5-1.4-1.1-1.9-1.9c-0.5-0.8-0.7-1.7-0.7-2.7c0-1,0.2-1.9,0.7-2.6
			c0.5-0.8,1.1-1.4,1.8-1.9c0.8-0.5,1.6-0.7,2.6-0.7c0.9,0,1.7,0.2,2.4,0.6c0.7,0.4,1.3,1,1.7,1.7c0.4,0.7,0.6,1.6,0.6,2.5
			c0,0.1,0,0.3,0,0.5c0,0.2,0,0.3-0.1,0.5h-8.4V9.4h7.4L303,10c0-0.7-0.1-1.2-0.4-1.7c-0.2-0.5-0.6-0.8-1-1.1
			c-0.4-0.3-1-0.4-1.6-0.4c-0.6,0-1.2,0.1-1.7,0.4c-0.5,0.3-0.9,0.7-1.1,1.2c-0.3,0.5-0.4,1.1-0.4,1.8c0,0.7,0.1,1.3,0.4,1.8
			s0.7,0.9,1.2,1.2c0.5,0.3,1.1,0.4,1.8,0.4c0.6,0,1.1-0.1,1.5-0.3c0.5-0.2,0.9-0.5,1.2-0.9l1.2,1.2c-0.5,0.6-1.1,1-1.8,1.3
			C301.7,15.4,301,15.5,300.2,15.5z"/>
		<path class="st1" d="M307.1,7V5.3h12.7V7H307.1z M309.5,15.3V1.1h1.9v14.2H309.5z M315.5,15.3V1.1h1.9v14.2H315.5z"/>
		<path class="st1" d="M327.4,15.5c-1,0-1.9-0.2-2.7-0.7c-0.8-0.5-1.4-1.1-1.9-1.9c-0.5-0.8-0.7-1.7-0.7-2.7c0-1,0.2-1.9,0.7-2.6
			c0.5-0.8,1.1-1.4,1.8-1.9c0.8-0.5,1.6-0.7,2.6-0.7c0.9,0,1.7,0.2,2.4,0.6c0.7,0.4,1.3,1,1.7,1.7c0.4,0.7,0.6,1.6,0.6,2.5
			c0,0.1,0,0.3,0,0.5c0,0.2,0,0.3-0.1,0.5h-8.4V9.4h7.4l-0.7,0.6c0-0.7-0.1-1.2-0.4-1.7c-0.2-0.5-0.6-0.8-1-1.1
			c-0.4-0.3-1-0.4-1.6-0.4c-0.6,0-1.2,0.1-1.7,0.4c-0.5,0.3-0.9,0.7-1.1,1.2c-0.3,0.5-0.4,1.1-0.4,1.8c0,0.7,0.1,1.3,0.4,1.8
			s0.7,0.9,1.2,1.2c0.5,0.3,1.1,0.4,1.8,0.4c0.6,0,1.1-0.1,1.5-0.3c0.5-0.2,0.9-0.5,1.2-0.9l1.2,1.2c-0.5,0.6-1.1,1-1.8,1.3
			C329,15.4,328.2,15.5,327.4,15.5z"/>
	</g>
</g>
</svg>
