<?xml version="1.0" encoding="utf-8"?>
<!-- Generator: Adobe Illustrator 25.4.1, SVG Export Plug-In . SVG Version: 6.00 Build 0)  -->
<svg version="1.1" id="レイヤー_1" xmlns="http://www.w3.org/2000/svg" xmlns:xlink="http://www.w3.org/1999/xlink" x="0px"
	 y="0px" viewBox="0 0 344 50" style="enable-background:new 0 0 344 50;" xml:space="preserve">
<style type="text/css">
	.st0{fill:#FFFFFF;stroke:#FFFFFF;stroke-width:0.25;stroke-miterlimit:10;}
</style>
<g>
	<g>
		<path class="st0" d="M0.1,22c0-2.8,0.3-5.4,1-7.7C1.7,12,2.6,10,3.8,8.4C4.9,6.7,6.4,5.5,8,4.6c1.7-0.9,3.5-1.4,5.5-1.4
			c2.1,0,3.9,0.5,5.6,1.4c1.7,0.9,3.1,2.2,4.3,3.8c1.2,1.6,2.1,3.6,2.7,5.9c0.6,2.3,1,4.9,1,7.7c0,2.8-0.3,5.4-1,7.7
			c-0.6,2.3-1.6,4.3-2.7,5.9c-1.2,1.6-2.6,2.9-4.3,3.8c-1.7,0.9-3.5,1.4-5.6,1.4c-2,0-3.9-0.5-5.5-1.4c-1.7-0.9-3.1-2.2-4.3-3.8
			C2.6,34,1.7,32,1,29.7C0.4,27.4,0.1,24.8,0.1,22z M4.6,22c0,5.6,0.8,10.1,2.3,13.2c1.5,3.2,3.8,4.8,6.7,4.8c2.9,0,5.2-1.6,6.7-4.8
			c1.5-3.2,2.3-7.6,2.3-13.2c0-5.6-0.8-10.1-2.3-13.2C18.8,5.6,16.5,4,13.6,4c-2.9,0-5.1,1.6-6.7,4.8C5.4,12,4.6,16.4,4.6,22z"/>
		<path class="st0" d="M41,3.4h0.1v30.9c0,1.2,0,2.1,0.1,2.8c0.1,0.7,0.2,1.3,0.5,1.8c0.2,0.4,0.5,0.8,0.9,1
			c0.4,0.2,0.8,0.5,1.4,0.6h-9.7c0.6-0.2,1-0.4,1.4-0.6c0.4-0.2,0.7-0.6,0.9-1c0.2-0.4,0.4-1,0.5-1.8c0.1-0.7,0.1-1.7,0.1-2.9V11.5
			c0-0.6-0.1-1.1-0.2-1.5c-0.1-0.4-0.3-0.8-0.7-1.1s-0.9-0.6-1.7-0.7c-0.8-0.2-1.8-0.3-3.1-0.3c2.2-0.6,4-1.2,5.4-2
			C38.3,5.1,39.6,4.3,41,3.4z"/>
		<path class="st0" d="M66.6,35.8V8.2c0-0.8,0-1.4-0.1-1.9C66.4,5.8,66.2,5.3,66,5c-0.2-0.4-0.5-0.6-0.9-0.9
			c-0.4-0.2-0.8-0.4-1.4-0.6h12.9c1.7,0,3.4,0.2,5,0.5c1.6,0.3,3.1,0.8,4.3,1.6c1.3,0.7,2.3,1.7,3,2.8c0.8,1.2,1.1,2.6,1.1,4.3
			c0,1.5-0.3,2.8-0.9,4c-0.6,1.2-1.4,2.1-2.4,3c-1,0.8-2.1,1.5-3.4,2c-1.3,0.5-2.6,0.9-4,1.1l8.7,10.4c0.5,0.6,1.1,1.3,1.8,2.1
			c0.7,0.8,1.4,1.6,2,2.3c0.7,0.7,1.3,1.4,1.8,1.9c0.5,0.6,0.9,0.9,1.1,1h-7.1c0-0.5-0.1-1-0.2-1.5c-0.2-0.5-0.4-1-0.7-1.5
			c-0.3-0.5-0.7-1-1.2-1.6c-0.5-0.6-1-1.3-1.6-2l-8.8-11h-4.6v12.9c0,1.5,0.2,2.6,0.6,3.2c0.4,0.6,1.2,1.1,2.3,1.5h-9.8
			c1.1-0.3,1.9-0.8,2.3-1.4C66.4,38.4,66.6,37.4,66.6,35.8z M70.6,22.1H76c3.1,0,5.6-0.8,7.3-2.4c1.8-1.6,2.6-3.8,2.6-6.8
			c0-1.6-0.3-3-0.9-4.1c-0.6-1.1-1.3-2-2.3-2.6c-1-0.7-2.1-1.1-3.3-1.4c-1.3-0.3-2.6-0.4-4-0.4h-4.8V22.1z"/>
		<path class="st0" d="M113.1,10.2c2.3,0,4.3,0.4,6.2,1.1s3.5,1.8,4.8,3.2c1.3,1.4,2.4,3,3.1,4.8c0.7,1.9,1.1,3.9,1.1,6.1v0.1
			c0,2.2-0.4,4.3-1.1,6.1c-0.7,1.9-1.8,3.5-3.1,4.8c-1.3,1.4-3,2.4-4.8,3.2s-3.9,1.1-6.2,1.1c-2.3,0-4.3-0.4-6.2-1.1
			s-3.5-1.8-4.8-3.2c-1.3-1.4-2.4-3-3.1-4.8c-0.7-1.9-1.1-3.9-1.1-6.1v-0.1c0-2.2,0.4-4.3,1.1-6.1c0.7-1.9,1.8-3.5,3.1-4.8
			c1.3-1.4,3-2.4,4.8-3.2S110.8,10.2,113.1,10.2z M102.2,25.5c0,2.1,0.3,4.1,0.8,5.9c0.5,1.8,1.3,3.3,2.2,4.6c1,1.3,2.1,2.3,3.5,3
			c1.3,0.7,2.8,1.1,4.5,1.1c1.6,0,3.1-0.4,4.5-1.1c1.3-0.7,2.5-1.7,3.5-3c1-1.3,1.7-2.8,2.2-4.6c0.5-1.8,0.8-3.7,0.8-5.9
			c0-2.1-0.3-4.1-0.8-5.9c-0.5-1.8-1.3-3.3-2.2-4.6c-1-1.3-2.1-2.3-3.5-3c-1.3-0.7-2.8-1.1-4.5-1.1c-1.6,0-3.1,0.4-4.5,1.1
			c-1.3,0.7-2.5,1.7-3.5,3c-1,1.3-1.7,2.8-2.2,4.6C102.4,21.4,102.2,23.3,102.2,25.5z"/>
		<path class="st0" d="M131.9,37.7l0.9-10.1c0.2,2.4,0.6,4.4,1.2,6c0.6,1.6,1.3,2.9,2.2,3.8c0.9,0.9,1.9,1.6,3,2
			c1.1,0.4,2.3,0.6,3.6,0.6c2.7,0,4.6-0.6,5.9-1.9c1.3-1.3,1.9-2.8,1.9-4.7c0-1.1-0.2-2-0.6-2.7c-0.4-0.7-0.9-1.3-1.4-1.8
			c-0.6-0.5-1.1-0.9-1.8-1.1c-0.6-0.3-1.2-0.5-1.8-0.7l-5.7-1.9c-0.6-0.2-1.2-0.5-1.9-0.8c-0.7-0.4-1.4-0.9-2-1.5
			c-0.6-0.6-1.2-1.3-1.6-2.2c-0.4-0.9-0.7-1.9-0.7-3.1c0-2.3,0.9-4.2,2.6-5.5c1.7-1.3,4-2,6.9-2c2,0,3.7,0.3,5.3,0.9
			c1.6,0.6,3,1.4,4.2,2.4l-0.4,7.2c-0.9-3.5-2-6-3.5-7.5c-1.4-1.5-3.4-2.3-5.8-2.3c-1.9,0-3.5,0.5-4.8,1.4c-1.3,0.9-1.9,2.3-1.9,4.2
			c0,0.9,0.2,1.6,0.5,2.1c0.4,0.6,0.8,1,1.3,1.4c0.5,0.4,1.1,0.7,1.7,0.9c0.6,0.2,1.2,0.4,1.7,0.6l5.2,1.7c0.7,0.2,1.4,0.5,2.3,0.9
			c0.9,0.4,1.7,0.9,2.5,1.6c0.8,0.7,1.4,1.5,2,2.4c0.5,1,0.8,2.2,0.8,3.6c0,1.3-0.2,2.5-0.7,3.6c-0.5,1.1-1.2,2.1-2.2,2.9
			s-2.1,1.5-3.5,1.9c-1.4,0.5-3,0.7-4.9,0.7c-2,0-4-0.3-5.8-0.8S133.1,38.7,131.9,37.7z"/>
		<path class="st0" d="M162.6,10.5c-0.3,0.2-0.5,0.6-0.6,1.1c-0.1,0.5,0,1.4,0.5,2.6l8.8,21.8l8.5-21.7c0.3-0.7,0.4-1.2,0.4-1.7
			c0-0.4-0.1-0.8-0.3-1.1c-0.2-0.3-0.3-0.5-0.6-0.7c-0.2-0.2-0.4-0.3-0.5-0.4h4.9c-0.3,0.2-0.8,0.6-1.3,1.1
			c-0.6,0.5-1.1,1.4-1.6,2.6l-11.2,28.2c-0.2,0.6-0.6,1.3-1,2.1c-0.4,0.8-0.9,1.5-1.6,2.3s-1.4,1.4-2.3,2c-0.9,0.6-1.9,0.9-3.1,1.1
			l-1.9-5.3c1.3,0.7,2.6,1.1,3.9,1.1c1.2,0,2.4-0.4,3.4-1.2c1-0.8,1.8-2,2.4-3.6l-11.2-27.1c-0.5-1.1-0.9-1.9-1.3-2.3
			c-0.4-0.4-0.7-0.8-1-0.9H162.6z"/>
		<path class="st0" d="M204.7,35.8V8.2c0-0.8,0-1.4-0.1-1.9c-0.1-0.5-0.2-0.9-0.5-1.3c-0.2-0.4-0.5-0.6-0.9-0.9
			c-0.4-0.2-0.8-0.4-1.4-0.6h5.1l16,32.3l13.9-32.3h6.4c-1.1,0.4-1.9,0.8-2.3,1.5c-0.4,0.6-0.6,1.7-0.6,3.2v27.6
			c0,1.5,0.2,2.6,0.6,3.2c0.4,0.6,1.2,1.1,2.3,1.5h-9.7c1.1-0.3,1.9-0.8,2.3-1.4c0.4-0.6,0.6-1.7,0.6-3.2V7.2l-14.6,33.4h-0.6
			L205.6,9.2v26.6c0,1.5,0.2,2.6,0.6,3.2c0.4,0.6,1.2,1.1,2.3,1.5h-6.7c1.1-0.3,1.9-0.8,2.3-1.4C204.5,38.4,204.7,37.4,204.7,35.8z"
			/>
		<path class="st0" d="M262.5,10.2c2.3,0,4.3,0.4,6.2,1.1s3.5,1.8,4.8,3.2c1.3,1.4,2.4,3,3.1,4.8c0.7,1.9,1.1,3.9,1.1,6.1v0.1
			c0,2.2-0.4,4.3-1.1,6.1c-0.7,1.9-1.8,3.5-3.1,4.8c-1.3,1.4-3,2.4-4.8,3.2s-3.9,1.1-6.2,1.1c-2.3,0-4.3-0.4-6.2-1.1
			c-1.9-0.7-3.5-1.8-4.8-3.2c-1.3-1.4-2.4-3-3.1-4.8c-0.7-1.9-1.1-3.9-1.1-6.1v-0.1c0-2.2,0.4-4.3,1.1-6.1c0.7-1.9,1.8-3.5,3.1-4.8
			c1.3-1.4,3-2.4,4.8-3.2C258.1,10.6,260.2,10.2,262.5,10.2z M251.5,25.5c0,2.1,0.3,4.1,0.8,5.9c0.5,1.8,1.3,3.3,2.2,4.6
			c1,1.3,2.1,2.3,3.5,3c1.3,0.7,2.8,1.1,4.5,1.1c1.6,0,3.1-0.4,4.5-1.1c1.3-0.7,2.5-1.7,3.5-3c1-1.3,1.7-2.8,2.2-4.6
			c0.5-1.8,0.8-3.7,0.8-5.9c0-2.1-0.3-4.1-0.8-5.9c-0.5-1.8-1.3-3.3-2.2-4.6c-1-1.3-2.1-2.3-3.5-3c-1.3-0.7-2.8-1.1-4.5-1.1
			c-1.6,0-3.1,0.4-4.5,1.1c-1.3,0.7-2.5,1.7-3.5,3c-1,1.3-1.7,2.8-2.2,4.6C251.8,21.4,251.5,23.3,251.5,25.5z"/>
		<path class="st0" d="M296.3,10.2c2.3,0,4.3,0.4,6.2,1.1s3.5,1.8,4.8,3.2c1.3,1.4,2.4,3,3.1,4.8c0.7,1.9,1.1,3.9,1.1,6.1v0.1
			c0,2.2-0.4,4.3-1.1,6.1c-0.7,1.9-1.8,3.5-3.1,4.8c-1.3,1.4-3,2.4-4.8,3.2s-3.9,1.1-6.2,1.1c-2.3,0-4.3-0.4-6.2-1.1
			s-3.5-1.8-4.8-3.2c-1.3-1.4-2.4-3-3.1-4.8c-0.7-1.9-1.1-3.9-1.1-6.1v-0.1c0-2.2,0.4-4.3,1.1-6.1c0.7-1.9,1.8-3.5,3.1-4.8
			c1.3-1.4,3-2.4,4.8-3.2S294.1,10.2,296.3,10.2z M285.4,25.5c0,2.1,0.3,4.1,0.8,5.9c0.5,1.8,1.3,3.3,2.2,4.6c1,1.3,2.1,2.3,3.5,3
			c1.3,0.7,2.8,1.1,4.5,1.1c1.6,0,3.1-0.4,4.5-1.1c1.3-0.7,2.5-1.7,3.5-3c1-1.3,1.7-2.8,2.2-4.6c0.5-1.8,0.8-3.7,0.8-5.9
			c0-2.1-0.3-4.1-0.8-5.9c-0.5-1.8-1.3-3.3-2.2-4.6c-1-1.3-2.1-2.3-3.5-3c-1.3-0.7-2.8-1.1-4.5-1.1c-1.6,0-3.1,0.4-4.5,1.1
			c-1.3,0.7-2.5,1.7-3.5,3c-1,1.3-1.7,2.8-2.2,4.6C285.6,21.4,285.4,23.3,285.4,25.5z"/>
		<path class="st0" d="M329.3,10.2c1.7,0,3.2,0.3,4.7,0.8c1.5,0.5,2.8,1.3,3.9,2.3V4.6c0-1.1-0.1-1.9-0.3-2.4
			c-0.2-0.5-0.5-1-1.1-1.4l5.3-0.6v35.1c0,1.5,0.1,2.7,0.4,3.4c0.2,0.7,0.6,1.3,1.1,1.8l-5.2,0.2v-4.1c-1.1,1.5-2.4,2.6-4,3.2
			c-1.6,0.7-3.1,1-4.7,1c-2.2,0-4.3-0.4-6.1-1.1c-1.8-0.7-3.4-1.8-4.7-3.1c-1.3-1.3-2.3-2.8-3-4.6c-0.7-1.8-1.1-3.7-1.1-5.7
			c0-2.4,0.4-4.6,1.1-6.5c0.7-2,1.7-3.7,3.1-5.1c1.3-1.4,2.9-2.5,4.7-3.3C325.2,10.6,327.2,10.2,329.3,10.2z M318.7,24.1
			c0,2.2,0.3,4.2,0.8,6.1c0.5,1.9,1.3,3.6,2.3,5s2.2,2.6,3.7,3.4c1.5,0.8,3.1,1.3,5,1.3c1.5,0,2.9-0.4,4.2-1.1
			c1.3-0.8,2.4-1.8,3.3-3.2v-18c-0.9-2.2-2.2-3.9-3.7-4.9s-3.3-1.5-5.3-1.5c-1.6,0-3,0.3-4.3,0.9c-1.3,0.6-2.3,1.5-3.2,2.6
			c-0.9,1.1-1.5,2.5-2,4.1S318.7,22.1,318.7,24.1z"/>
	</g>
</g>
</svg>
