<?xml version="1.0" encoding="utf-8"?>
<!-- Generator: Adobe Illustrator 25.4.1, SVG Export Plug-In . SVG Version: 6.00 Build 0)  -->
<svg version="1.1" id="レイヤー_1" xmlns="http://www.w3.org/2000/svg" xmlns:xlink="http://www.w3.org/1999/xlink" x="0px"
	 y="0px" viewBox="0 0 45 189" style="enable-background:new 0 0 45 189;" xml:space="preserve">
<style type="text/css">
	.st0{fill:#C04359;}
</style>
<g>
	<g>
		<path class="st0" d="M28.9,0.4c0.1,0.5,0.3,0.8,0.6,0.9c0.3,0.2,0.7,0.2,1.3,0.2h11c0.3,0,0.6,0,0.8-0.1c0.2,0,0.4-0.1,0.5-0.2
			c0.1-0.1,0.3-0.2,0.3-0.4c0.1-0.1,0.2-0.3,0.2-0.6v5.4c0,0.6-0.1,1.3-0.2,1.9c-0.1,0.7-0.4,1.3-0.7,1.8c-0.3,0.5-0.7,1-1.3,1.3
			c-0.5,0.3-1.2,0.5-1.9,0.5c-0.8,0-1.4-0.2-2-0.5c-0.6-0.3-1-0.8-1.4-1.3c-0.4-0.6-0.6-1.2-0.8-1.8c-0.2-0.7-0.3-1.3-0.3-2V3.1
			h-4.4c-0.6,0-1,0.1-1.3,0.2c-0.2,0.2-0.4,0.5-0.6,0.9V0.4z M43.3,3.1h-7.8v2.2c0,0.6,0.1,1.1,0.2,1.6c0.1,0.5,0.4,1,0.7,1.4
			c0.3,0.4,0.7,0.7,1.2,1c0.5,0.2,1.1,0.4,1.8,0.4c1.2,0,2.2-0.4,2.8-1.1c0.7-0.8,1-1.8,1-3.2V3.1z"/>
		<path class="st0" d="M28.9,14.4c0.1,0.2,0.1,0.4,0.2,0.6c0.1,0.1,0.2,0.3,0.3,0.3c0.1,0.1,0.3,0.1,0.5,0.2c0.2,0,0.5,0,0.8,0h7.8
			c0.3,0,0.6,0,0.8,0c0.2,0,0.4-0.1,0.6-0.1c0.2,0,0.3-0.1,0.5-0.2c0.1-0.1,0.3-0.2,0.4-0.3L41,17h-2.8c0.4,0.2,0.8,0.4,1.1,0.6
			c0.3,0.2,0.6,0.5,0.9,0.7c0.3,0.3,0.5,0.6,0.6,1c0.1,0.4,0.2,0.8,0.2,1.3c0,0.5,0,0.9-0.1,1.2l-2,0c0.2-0.1,0.3-0.3,0.5-0.5
			c0.2-0.2,0.3-0.4,0.5-0.6c0.1-0.2,0.3-0.4,0.3-0.6c0.1-0.2,0.1-0.4,0.1-0.7c0-0.3-0.1-0.5-0.2-0.8c-0.1-0.2-0.3-0.5-0.6-0.7
			c-0.2-0.2-0.5-0.4-0.8-0.6c-0.3-0.2-0.7-0.3-1-0.4h-6.9c-0.3,0-0.5,0-0.8,0.1c-0.2,0-0.4,0.1-0.5,0.2c-0.1,0.1-0.3,0.2-0.3,0.3
			c-0.1,0.1-0.2,0.3-0.2,0.5V14.4z"/>
		<path class="st0" d="M41,30.5c0,0.9-0.1,1.7-0.4,2.5c-0.3,0.7-0.7,1.4-1.3,1.9c-0.5,0.5-1.2,1-1.9,1.3c-0.7,0.3-1.6,0.4-2.4,0.4h0
			c-0.9,0-1.7-0.1-2.4-0.4c-0.7-0.3-1.4-0.7-1.9-1.3c-0.5-0.5-1-1.2-1.3-1.9s-0.4-1.6-0.4-2.5s0.1-1.7,0.4-2.5s0.7-1.4,1.3-1.9
			c0.5-0.5,1.2-1,1.9-1.3c0.7-0.3,1.6-0.4,2.4-0.4h0c0.9,0,1.7,0.1,2.4,0.4c0.7,0.3,1.4,0.7,1.9,1.3c0.5,0.5,1,1.2,1.3,1.9
			C40.8,28.8,41,29.6,41,30.5z M34.9,26.1c-0.8,0-1.6,0.1-2.3,0.3c-0.7,0.2-1.3,0.5-1.8,0.9c-0.5,0.4-0.9,0.8-1.2,1.4
			c-0.3,0.5-0.4,1.1-0.4,1.8s0.1,1.2,0.4,1.8c0.3,0.5,0.7,1,1.2,1.4c0.5,0.4,1.1,0.7,1.8,0.9c0.7,0.2,1.5,0.3,2.3,0.3
			s1.6-0.1,2.3-0.3c0.7-0.2,1.3-0.5,1.8-0.9c0.5-0.4,0.9-0.8,1.2-1.4c0.3-0.5,0.4-1.1,0.4-1.8s-0.1-1.2-0.4-1.8s-0.7-1-1.2-1.4
			c-0.5-0.4-1.1-0.7-1.8-0.9S35.8,26.1,34.9,26.1z"/>
		<path class="st0" d="M41,45.2c0,0.7-0.1,1.3-0.3,1.9c-0.2,0.6-0.5,1.1-0.9,1.6h3.4c0.4,0,0.8,0,1-0.1c0.2-0.1,0.4-0.2,0.6-0.4
			l0.3,2.1H31c-0.6,0-1.1,0-1.3,0.1c-0.3,0.1-0.5,0.2-0.7,0.4l-0.1-2.1h1.6c-0.6-0.4-1-1-1.3-1.6s-0.4-1.3-0.4-1.9
			c0-0.9,0.1-1.7,0.4-2.4c0.3-0.7,0.7-1.3,1.2-1.9s1.1-0.9,1.8-1.2c0.7-0.3,1.5-0.4,2.3-0.4c0.9,0,1.8,0.1,2.6,0.4
			c0.8,0.3,1.5,0.7,2,1.2c0.6,0.5,1,1.1,1.3,1.9C40.8,43.6,41,44.4,41,45.2z M35.5,41c-0.9,0-1.7,0.1-2.4,0.3
			c-0.8,0.2-1.4,0.5-2,0.9c-0.6,0.4-1,0.9-1.4,1.5c-0.3,0.6-0.5,1.2-0.5,2c0,0.6,0.2,1.2,0.5,1.7c0.3,0.5,0.7,0.9,1.3,1.3h7.2
			c0.9-0.4,1.5-0.9,2-1.5c0.4-0.6,0.6-1.3,0.6-2.1c0-0.6-0.1-1.2-0.4-1.7c-0.2-0.5-0.6-0.9-1-1.3c-0.5-0.3-1-0.6-1.6-0.8
			C36.9,41.1,36.2,41,35.5,41z"/>
		<path class="st0" d="M40.8,53.9L41,56h-8.6c-0.6,0-1.1,0.1-1.5,0.2c-0.4,0.1-0.8,0.3-1,0.5c-0.3,0.2-0.4,0.5-0.6,0.8
			c-0.1,0.3-0.2,0.7-0.2,1.1c0,0.6,0.1,1.2,0.4,1.7c0.3,0.5,0.7,0.9,1.1,1.2c0.5,0.3,1,0.6,1.5,0.7c0.6,0.2,1.1,0.3,1.6,0.3h4.8
			c0.3,0,0.6,0,0.8,0c0.2,0,0.4-0.1,0.6-0.1c0.2,0,0.3-0.1,0.5-0.2c0.1-0.1,0.3-0.2,0.4-0.3l0.2,2.2H31c-0.6,0-1.1,0-1.4,0.1
			c-0.3,0.1-0.5,0.2-0.7,0.4l-0.1-2.1h3.2c-0.5-0.2-1-0.4-1.4-0.7c-0.4-0.2-0.7-0.5-1-0.9s-0.5-0.7-0.6-1.1
			c-0.1-0.4-0.2-0.9-0.2-1.5c0-1.2,0.3-2.2,0.9-2.9c0.6-0.7,1.5-1.1,2.8-1.1h6.1c0.3,0,0.6,0,0.8,0c0.2,0,0.4-0.1,0.6-0.1
			c0.2,0,0.3-0.1,0.5-0.2C40.5,54.1,40.7,54,40.8,53.9z"/>
		<path class="st0" d="M41,73.5c0,0.9-0.2,1.8-0.5,2.6c-0.3,0.8-0.7,1.5-1.2,2.1L36,77.5c0.9-0.1,1.6-0.3,2.2-0.5
			c0.6-0.3,1.1-0.6,1.5-0.9c0.4-0.4,0.6-0.8,0.8-1.2c0.2-0.4,0.2-0.9,0.2-1.3c0-0.6-0.1-1.2-0.4-1.7c-0.3-0.5-0.7-0.9-1.2-1.3
			c-0.5-0.4-1.1-0.6-1.8-0.8c-0.7-0.2-1.5-0.3-2.4-0.3c-0.9,0-1.7,0.1-2.4,0.3c-0.7,0.2-1.3,0.5-1.8,0.9c-0.5,0.4-0.9,0.8-1.2,1.4
			c-0.3,0.5-0.4,1.1-0.4,1.7c0,1.1,0.4,2,1.2,2.8c0.8,0.8,2,1.4,3.5,1.8l-3.5-0.1c-0.3-0.3-0.5-0.7-0.7-1.1
			c-0.2-0.4-0.3-0.8-0.5-1.2c-0.1-0.4-0.2-0.8-0.2-1.2c0-0.4-0.1-0.7-0.1-1.1c0-0.9,0.1-1.7,0.4-2.4c0.3-0.7,0.7-1.4,1.2-1.9
			c0.5-0.5,1.2-0.9,1.9-1.3s1.6-0.5,2.5-0.5c0.9,0,1.7,0.1,2.4,0.4c0.7,0.3,1.4,0.7,1.9,1.2c0.5,0.5,1,1.1,1.3,1.8
			C40.8,71.8,41,72.6,41,73.5z"/>
		<path class="st0" d="M41,87.1c0,0.8-0.1,1.6-0.4,2.2c-0.2,0.6-0.6,1.1-1,1.6c-0.4,0.4-1,0.7-1.5,0.9c-0.6,0.2-1.2,0.3-2,0.3v-8.9
			c-0.2,0-0.4,0-0.6-0.1c-0.2,0-0.4,0-0.7,0c-0.8,0-1.6,0.1-2.3,0.3c-0.7,0.2-1.3,0.5-1.8,0.9c-0.5,0.4-0.9,0.9-1.2,1.4
			c-0.3,0.5-0.4,1.1-0.4,1.8c0,0.6,0.1,1.1,0.3,1.5c0.2,0.5,0.5,0.9,0.9,1.3c0.4,0.4,0.8,0.7,1.4,1s1.1,0.6,1.7,0.8l-3.1-0.2
			c-0.5-0.6-0.9-1.3-1.2-2.1c-0.2-0.8-0.4-1.6-0.4-2.3c0-0.9,0.1-1.7,0.4-2.5c0.3-0.7,0.7-1.4,1.2-1.9c0.5-0.5,1.2-1,1.9-1.3
			c0.7-0.3,1.6-0.4,2.5-0.4c0.9,0,1.7,0.1,2.5,0.4c0.7,0.3,1.4,0.6,1.9,1.1c0.6,0.5,1,1.1,1.3,1.8C40.8,85.4,41,86.2,41,87.1z
			 M36.4,83.2v7.2c0.6,0,1.2-0.1,1.7-0.3c0.5-0.2,1-0.4,1.4-0.7c0.4-0.3,0.7-0.6,0.9-1c0.2-0.4,0.3-0.9,0.3-1.4c0-0.5-0.1-1-0.3-1.4
			c-0.2-0.4-0.5-0.8-0.9-1.1c-0.4-0.3-0.8-0.6-1.4-0.8C37.6,83.5,37,83.3,36.4,83.2z"/>
		<path class="st0" d="M41,101c0,0.7-0.1,1.3-0.3,1.9c-0.2,0.6-0.5,1.1-0.9,1.6h3.4c0.4,0,0.8,0,1-0.1c0.2-0.1,0.4-0.2,0.6-0.4
			L45,106H31c-0.6,0-1.1,0-1.3,0.1c-0.3,0.1-0.5,0.2-0.7,0.4l-0.1-2.1h1.6c-0.6-0.4-1-1-1.3-1.6c-0.3-0.6-0.4-1.3-0.4-1.9
			c0-0.9,0.1-1.7,0.4-2.4c0.3-0.7,0.7-1.3,1.2-1.9c0.5-0.5,1.1-0.9,1.8-1.2c0.7-0.3,1.5-0.4,2.3-0.4c0.9,0,1.8,0.1,2.6,0.4
			c0.8,0.3,1.5,0.7,2,1.2c0.6,0.5,1,1.1,1.3,1.9C40.8,99.4,41,100.1,41,101z M35.5,96.8c-0.9,0-1.7,0.1-2.4,0.3
			c-0.8,0.2-1.4,0.5-2,0.9c-0.6,0.4-1,0.9-1.4,1.5c-0.3,0.6-0.5,1.2-0.5,2c0,0.6,0.2,1.2,0.5,1.7c0.3,0.5,0.7,0.9,1.3,1.3h7.2
			c0.9-0.4,1.5-0.9,2-1.5c0.4-0.6,0.6-1.3,0.6-2.1c0-0.6-0.1-1.2-0.4-1.7c-0.2-0.5-0.6-0.9-1-1.3c-0.5-0.3-1-0.6-1.6-0.8
			C36.9,96.9,36.2,96.8,35.5,96.8z"/>
		<path class="st0" d="M44.7,117.4l0.3,2.1h-5.4c0.3,0.3,0.5,0.5,0.7,0.8c0.2,0.3,0.3,0.6,0.4,0.9c0.1,0.3,0.2,0.6,0.2,0.9
			c0,0.3,0.1,0.6,0.1,0.9c0,0.9-0.1,1.7-0.4,2.5c-0.3,0.7-0.7,1.4-1.2,1.9c-0.5,0.5-1.1,0.9-1.8,1.2c-0.7,0.3-1.5,0.4-2.4,0.4
			c-0.9,0-1.7-0.2-2.5-0.5c-0.8-0.3-1.5-0.7-2-1.3s-1-1.2-1.4-1.9s-0.5-1.6-0.5-2.4c0-1.5,0.5-2.8,1.5-3.8l-1.4-1.1l0-0.1h14.3
			c0.4,0,0.8,0,1-0.1C44.4,117.7,44.5,117.6,44.7,117.4z M29.2,123.1c0,0.7,0.1,1.3,0.4,1.8c0.3,0.5,0.6,1,1.1,1.3
			c0.5,0.4,1,0.6,1.7,0.8c0.6,0.2,1.3,0.3,2.1,0.3c0.8,0,1.6-0.1,2.4-0.3c0.8-0.2,1.4-0.5,2-0.9c0.6-0.4,1-0.9,1.3-1.5
			c0.3-0.6,0.5-1.3,0.5-2.1c0-0.5-0.1-1.1-0.3-1.6s-0.6-1.1-1.2-1.5h-7.6c-0.8,0.4-1.4,0.9-1.8,1.5S29.2,122.3,29.2,123.1z"/>
		<path class="st0" d="M40.9,134c-0.1-0.1-0.2-0.2-0.4-0.3c-0.2-0.1-0.5,0-1,0.2l-8.7,3.5l8.6,3.4c0.3,0.1,0.5,0.2,0.7,0.1
			c0.2,0,0.3-0.1,0.4-0.1c0.1-0.1,0.2-0.1,0.3-0.2c0.1-0.1,0.1-0.2,0.2-0.2v2c-0.1-0.1-0.2-0.3-0.4-0.5c-0.2-0.2-0.6-0.4-1-0.6
			l-11.2-4.5c-0.2-0.1-0.5-0.2-0.8-0.4c-0.3-0.2-0.6-0.4-0.9-0.6c-0.3-0.3-0.6-0.6-0.8-0.9c-0.2-0.4-0.4-0.8-0.4-1.3l2.1-0.7
			c-0.3,0.5-0.4,1.1-0.4,1.5c0,0.5,0.2,0.9,0.5,1.4c0.3,0.4,0.8,0.7,1.4,1l10.8-4.5c0.4-0.2,0.7-0.4,0.9-0.5
			c0.2-0.2,0.3-0.3,0.4-0.4V134z"/>
		<path class="st0" d="M14.9,3.1c0-0.1-0.1-0.1-0.2-0.2c-0.1,0-0.2-0.1-0.3-0.1c-0.1,0-0.3,0-0.4,0.1c-0.2,0.1-0.4,0.2-0.6,0.3
			L7,7.3l5.4,3.6c0.5,0.3,0.9,0.5,1.2,0.6c0.3,0.1,0.5,0.2,0.7,0.2c0.2,0,0.3,0,0.4-0.1c0.1-0.1,0.1-0.1,0.2-0.2v2
			c-0.1-0.2-0.2-0.4-0.5-0.7c-0.3-0.3-0.7-0.6-1.2-1L6.7,7.5H2c-0.6,0-1,0.1-1.3,0.2C0.5,7.9,0.3,8.2,0.1,8.7V4.8
			c0.1,0.5,0.3,0.8,0.6,0.9C1,5.8,1.4,5.9,2,5.9h4.5l6.2-4.1C13.5,1.4,14,1,14.3,0.7c0.3-0.3,0.5-0.5,0.6-0.7V3.1z"/>
		<path class="st0" d="M12.2,22.3c0,0.9-0.1,1.7-0.4,2.5c-0.3,0.7-0.7,1.4-1.3,1.9c-0.5,0.5-1.2,1-1.9,1.3c-0.7,0.3-1.6,0.4-2.4,0.4
			h0c-0.9,0-1.7-0.1-2.4-0.4c-0.7-0.3-1.4-0.7-1.9-1.3c-0.5-0.5-1-1.2-1.3-1.9C0.2,24,0,23.2,0,22.3c0-0.9,0.1-1.7,0.4-2.5
			s0.7-1.4,1.3-1.9c0.5-0.5,1.2-1,1.9-1.3s1.6-0.4,2.4-0.4h0c0.9,0,1.7,0.1,2.4,0.4c0.7,0.3,1.4,0.7,1.9,1.3c0.5,0.5,1,1.2,1.3,1.9
			C12.1,20.6,12.2,21.4,12.2,22.3z M6.1,18c-0.8,0-1.6,0.1-2.3,0.3S2.5,18.8,2,19.2c-0.5,0.4-0.9,0.8-1.2,1.4
			c-0.3,0.5-0.4,1.1-0.4,1.8s0.1,1.2,0.4,1.8c0.3,0.5,0.7,1,1.2,1.4c0.5,0.4,1.1,0.7,1.8,0.9c0.7,0.2,1.5,0.3,2.3,0.3
			s1.6-0.1,2.3-0.3c0.7-0.2,1.3-0.5,1.8-0.9c0.5-0.4,0.9-0.8,1.2-1.4s0.4-1.1,0.4-1.8s-0.1-1.2-0.4-1.8s-0.7-1-1.2-1.4
			c-0.5-0.4-1.1-0.7-1.8-0.9C7.8,18.1,7,18,6.1,18z"/>
		<path class="st0" d="M1.3,31.4l4,0.3c-1,0.1-1.8,0.2-2.4,0.5c-0.6,0.2-1.1,0.5-1.5,0.9c-0.4,0.3-0.6,0.7-0.8,1.2
			c-0.2,0.4-0.2,0.9-0.2,1.4c0,1.1,0.3,1.8,0.8,2.3c0.5,0.5,1.1,0.8,1.9,0.8c0.4,0,0.8-0.1,1.1-0.2c0.3-0.2,0.5-0.3,0.7-0.6
			c0.2-0.2,0.3-0.5,0.4-0.7c0.1-0.3,0.2-0.5,0.3-0.7l0.8-2.3c0.1-0.2,0.2-0.5,0.3-0.8s0.3-0.6,0.6-0.8c0.2-0.3,0.5-0.5,0.9-0.6
			c0.3-0.2,0.8-0.3,1.2-0.3c0.9,0,1.7,0.3,2.2,1c0.5,0.7,0.8,1.6,0.8,2.8c0,0.8-0.1,1.5-0.4,2.1c-0.2,0.6-0.6,1.2-1,1.7l-2.9-0.1
			c1.4-0.4,2.4-0.8,3-1.4c0.6-0.6,0.9-1.3,0.9-2.3c0-0.8-0.2-1.4-0.5-1.9c-0.4-0.5-0.9-0.8-1.7-0.8c-0.3,0-0.6,0.1-0.8,0.2
			c-0.2,0.1-0.4,0.3-0.6,0.5c-0.1,0.2-0.3,0.4-0.4,0.7c-0.1,0.2-0.2,0.5-0.2,0.7L7.1,37C7,37.3,6.9,37.6,6.7,38
			c-0.2,0.3-0.4,0.7-0.6,1c-0.3,0.3-0.6,0.6-1,0.8C4.7,39.9,4.2,40,3.7,40c-0.5,0-1-0.1-1.4-0.3c-0.4-0.2-0.8-0.5-1.1-0.9
			c-0.3-0.4-0.6-0.9-0.8-1.4C0.1,36.9,0,36.3,0,35.5c0-0.8,0.1-1.6,0.3-2.3C0.6,32.5,0.9,31.9,1.3,31.4z"/>
		<path class="st0" d="M0.1,42.9c0.1,0.2,0.1,0.4,0.2,0.6c0.1,0.1,0.2,0.3,0.3,0.3C0.8,43.9,1,43.9,1.2,44c0.2,0,0.5,0,0.8,0h12.4
			c0.4,0,0.8,0,1-0.1c0.2-0.1,0.4-0.2,0.6-0.4l0.3,2.1H8.9c1,0.4,1.8,0.9,2.4,1.7c0.6,0.8,0.9,1.8,0.9,3c0,0.7-0.1,1.3-0.3,1.8
			s-0.5,1-0.8,1.3c-0.4,0.4-0.8,0.6-1.3,0.8c-0.5,0.2-1,0.3-1.6,0.3H2c-0.3,0-0.5,0-0.8,0.1c-0.2,0-0.4,0.1-0.5,0.2
			c-0.1,0.1-0.3,0.2-0.3,0.3c-0.1,0.1-0.2,0.3-0.2,0.5v-3.8c0.1,0.2,0.1,0.4,0.2,0.6c0.1,0.1,0.2,0.3,0.3,0.3
			c0.1,0.1,0.3,0.1,0.5,0.2c0.2,0,0.5,0,0.8,0h6.5c1.1,0,1.9-0.3,2.5-0.8c0.6-0.5,0.9-1.3,0.9-2.2c0-0.6-0.1-1.1-0.3-1.6
			c-0.2-0.5-0.5-1-0.9-1.4c-0.4-0.4-0.9-0.7-1.5-1c-0.6-0.2-1.2-0.4-2-0.4H2c-0.3,0-0.5,0-0.8,0.1c-0.2,0-0.4,0.1-0.5,0.2
			c-0.1,0.1-0.3,0.2-0.3,0.3c-0.1,0.1-0.2,0.3-0.2,0.5V42.9z"/>
		<path class="st0" d="M0.1,58.2c0.1,0.2,0.1,0.4,0.2,0.6c0.1,0.1,0.2,0.3,0.3,0.3c0.1,0.1,0.3,0.1,0.5,0.2s0.5,0,0.8,0h7.8
			c0.3,0,0.6,0,0.8,0c0.2,0,0.4-0.1,0.6-0.1c0.2,0,0.3-0.1,0.5-0.2c0.1-0.1,0.3-0.2,0.4-0.3l0.2,2.2H2c-0.3,0-0.5,0-0.8,0.1
			C1,61,0.9,61,0.7,61.1c-0.1,0.1-0.3,0.2-0.3,0.3c-0.1,0.1-0.2,0.3-0.2,0.5V58.2z M15.9,60.1c0,0.3-0.1,0.6-0.3,0.8
			c-0.2,0.2-0.4,0.3-0.8,0.3s-0.6-0.1-0.8-0.3c-0.2-0.2-0.3-0.5-0.3-0.8c0-0.3,0.1-0.6,0.3-0.8c0.2-0.2,0.5-0.3,0.8-0.3
			s0.6,0.1,0.8,0.3C15.8,59.5,15.9,59.7,15.9,60.1z"/>
		<path class="st0" d="M6.7,70l0.6,2.4h1.5c1.1,0,1.8-0.2,2.3-0.6c0.5-0.4,0.8-1,0.8-1.9c0-0.4-0.1-0.8-0.2-1.2
			c-0.1-0.4-0.4-0.8-0.7-1.2c-0.3-0.4-0.8-0.7-1.4-1c-0.6-0.3-1.3-0.6-2.2-0.8l3.5-0.1c0.4,0.5,0.7,1.2,1,1.9
			c0.2,0.8,0.4,1.5,0.4,2.4c0,1.2-0.3,2.2-0.9,3c-0.6,0.7-1.5,1.1-2.6,1.1H2c-0.4,0-0.8,0-1.1,0.1c-0.3,0.1-0.6,0.2-0.8,0.5
			l-0.1-2.1h2.8c-0.4-0.1-0.7-0.3-1-0.5c-0.3-0.2-0.6-0.5-0.9-0.8c-0.3-0.3-0.5-0.7-0.6-1.1c-0.2-0.4-0.2-0.9-0.2-1.5
			c0-0.5,0.1-1,0.2-1.4c0.1-0.4,0.3-0.8,0.5-1.1c0.2-0.3,0.5-0.6,0.9-0.8c0.3-0.2,0.8-0.3,1.2-0.3c0.6,0,1.2,0.2,1.6,0.5
			c0.4,0.3,0.8,0.8,1.1,1.3c0.3,0.5,0.5,1.1,0.7,1.7C6.4,68.9,6.6,69.5,6.7,70z M2.9,66.5c-0.7,0-1.3,0.2-1.8,0.6
			c-0.5,0.4-0.7,0.9-0.7,1.6c0,0.4,0.1,0.8,0.3,1.2c0.2,0.4,0.4,0.8,0.8,1.1c0.3,0.3,0.7,0.6,1.2,0.8c0.5,0.2,1.1,0.4,1.7,0.4H7
			L6.4,70c-0.1-0.3-0.2-0.6-0.3-1c-0.1-0.4-0.3-0.8-0.6-1.1c-0.3-0.4-0.6-0.7-1-0.9C4,66.7,3.5,66.5,2.9,66.5z"/>
		<path class="st0" d="M0.1,77.3c0.1,0.2,0.1,0.4,0.2,0.6c0.1,0.1,0.2,0.3,0.3,0.3c0.1,0.1,0.3,0.1,0.5,0.2s0.5,0,0.8,0h12.4
			c0.4,0,0.8,0,1-0.1c0.2-0.1,0.4-0.2,0.6-0.4l0.3,2.1H5.4l4.8,5.4c0.3,0.4,0.7,0.7,1,1c0.3,0.3,0.7,0.4,1,0.3v1.9
			c-0.1-0.1-0.2-0.3-0.3-0.5c-0.1-0.2-0.3-0.4-0.5-0.7c-0.2-0.3-0.4-0.6-0.7-0.9c-0.3-0.3-0.6-0.7-1-1.2l-2.1-2.3l-5.1,4
			c-0.5,0.4-0.9,0.7-1.2,1s-0.5,0.4-0.7,0.6c-0.2,0.1-0.3,0.2-0.3,0.3C0.2,89,0.1,89,0.1,89.1v-2.7c0,0,0.1,0,0.2,0.1
			c0.1,0,0.2,0,0.3-0.1c0.1-0.1,0.3-0.2,0.6-0.3c0.2-0.1,0.5-0.3,0.9-0.6L6.6,82l-1.8-2H2c-0.3,0-0.5,0-0.8,0.1
			c-0.2,0-0.4,0.1-0.5,0.2c-0.1,0.1-0.3,0.2-0.3,0.3c-0.1,0.1-0.2,0.3-0.2,0.5V77.3z"/>
		<path class="st0" d="M0.1,91.5c0.1,0.2,0.1,0.4,0.2,0.6c0.1,0.1,0.2,0.3,0.3,0.3c0.1,0.1,0.3,0.1,0.5,0.2s0.5,0,0.8,0h7.8
			c0.3,0,0.6,0,0.8,0c0.2,0,0.4-0.1,0.6-0.1c0.2,0,0.3-0.1,0.5-0.2c0.1-0.1,0.3-0.2,0.4-0.3l0.2,2.2H2c-0.3,0-0.5,0-0.8,0.1
			c-0.2,0-0.4,0.1-0.5,0.2c-0.1,0.1-0.3,0.2-0.3,0.3c-0.1,0.1-0.2,0.3-0.2,0.5V91.5z M15.9,93.3c0,0.3-0.1,0.6-0.3,0.8
			c-0.2,0.2-0.4,0.3-0.8,0.3s-0.6-0.1-0.8-0.3c-0.2-0.2-0.3-0.5-0.3-0.8c0-0.3,0.1-0.6,0.3-0.8c0.2-0.2,0.5-0.3,0.8-0.3
			s0.6,0.1,0.8,0.3C15.8,92.7,15.9,93,15.9,93.3z"/>
		<path class="st0" d="M8.2,110.3c0.4-0.4,0.8-0.7,1.1-0.9c0.3-0.3,0.7-0.5,1-0.7c0.3-0.2,0.6-0.3,0.9-0.4c0.3-0.1,0.6-0.1,0.9-0.1
			c0.5,0,0.9,0.1,1.3,0.3c0.4,0.2,0.7,0.4,0.9,0.8c0.2,0.3,0.4,0.7,0.5,1.1s0.2,0.9,0.2,1.4c0,1-0.2,1.8-0.7,2.5
			c-0.5,0.6-1.1,1-1.9,1c-0.5,0-0.9-0.1-1.3-0.3c-0.4-0.2-0.7-0.5-1-0.8c-0.3-0.3-0.6-0.7-0.8-1.1c-0.3-0.4-0.5-0.8-0.7-1.3L3.5,116
			c0.4,0.2,0.9,0.4,1.4,0.6c0.5,0.2,1.1,0.3,1.8,0.5l-0.1,0.6c-1.4-0.3-2.6-0.8-3.5-1.3c-0.3,0.2-0.5,0.5-0.9,0.7
			c-0.3,0.3-0.6,0.5-0.9,0.8c-0.3,0.2-0.5,0.5-0.8,0.7c-0.2,0.2-0.3,0.3-0.4,0.4v-2.3c0.3-0.2,0.6-0.4,0.9-0.5
			c0.3-0.2,0.5-0.3,0.8-0.6c-1.2-1.1-1.8-2.5-1.8-4.3c0-1.5,0.3-2.7,1-3.5c0.7-0.8,1.6-1.3,2.7-1.3c0.6,0,1,0.1,1.5,0.3
			c0.4,0.2,0.8,0.5,1.2,0.8c0.3,0.3,0.7,0.8,0.9,1.2S7.9,109.7,8.2,110.3z M0.4,111.2c0,0.3,0,0.6,0.1,0.9c0,0.3,0.1,0.7,0.3,1
			s0.3,0.7,0.6,1c0.2,0.4,0.6,0.7,1,1c0.1-0.1,0.3-0.2,0.4-0.3c0.1-0.1,0.3-0.2,0.5-0.4l3.7-3c0.5-0.4,0.9-0.7,1.2-1
			c-0.2-0.5-0.5-0.9-0.9-1.2c-0.4-0.3-0.7-0.6-1.1-0.7c-0.4-0.2-0.8-0.3-1.1-0.4c-0.4-0.1-0.7-0.1-1-0.1c-0.6,0-1.2,0.1-1.6,0.2
			c-0.4,0.2-0.8,0.4-1.1,0.7c-0.3,0.3-0.5,0.6-0.6,1C0.4,110.3,0.4,110.7,0.4,111.2z M8.7,111.6c0.9,1.6,2,2.4,3.5,2.4
			c0.7,0,1.3-0.2,1.8-0.6c0.5-0.4,0.7-1,0.7-1.7c0-0.3,0-0.6-0.1-0.9c-0.1-0.3-0.2-0.5-0.4-0.7c-0.2-0.2-0.4-0.4-0.7-0.5
			c-0.3-0.1-0.6-0.2-0.9-0.2s-0.6,0.1-1,0.2c-0.3,0.1-0.6,0.3-0.9,0.5c-0.3,0.2-0.6,0.4-1,0.7C9.4,111,9.1,111.3,8.7,111.6z"/>
		<path class="st0" d="M2,131.3h11c0.3,0,0.6,0,0.8-0.1c0.2,0,0.4-0.1,0.5-0.2c0.1-0.1,0.3-0.2,0.3-0.4c0.1-0.1,0.2-0.3,0.2-0.6v2
			L2,138.5l12.8,5.6v2.5c-0.1-0.4-0.3-0.7-0.6-0.9c-0.2-0.2-0.7-0.2-1.3-0.2H2c-0.6,0-1,0.1-1.3,0.2c-0.2,0.2-0.4,0.5-0.6,0.9v-3.9
			c0.1,0.5,0.3,0.8,0.6,0.9c0.3,0.2,0.7,0.2,1.3,0.2h11.4l-13.3-5.8v-0.3l12.5-6.2H2c-0.6,0-1,0.1-1.3,0.2c-0.2,0.2-0.4,0.5-0.6,0.9
			v-2.6c0.1,0.5,0.3,0.8,0.6,0.9C1,131.2,1.4,131.3,2,131.3z"/>
		<path class="st0" d="M0.1,149.7c0.1,0.2,0.1,0.4,0.2,0.6c0.1,0.1,0.2,0.3,0.3,0.3c0.1,0.1,0.3,0.1,0.5,0.2c0.2,0,0.5,0,0.8,0h7.8
			c0.3,0,0.6,0,0.8,0c0.2,0,0.4-0.1,0.6-0.1c0.2,0,0.3-0.1,0.5-0.2c0.1-0.1,0.3-0.2,0.4-0.3l0.2,2.2H2c-0.3,0-0.5,0-0.8,0.1
			c-0.2,0-0.4,0.1-0.5,0.2c-0.1,0.1-0.3,0.2-0.3,0.3c-0.1,0.1-0.2,0.3-0.2,0.5V149.7z M15.9,151.5c0,0.3-0.1,0.6-0.3,0.8
			c-0.2,0.2-0.4,0.3-0.8,0.3s-0.6-0.1-0.8-0.3c-0.2-0.2-0.3-0.5-0.3-0.8c0-0.3,0.1-0.6,0.3-0.8c0.2-0.2,0.5-0.3,0.8-0.3
			s0.6,0.1,0.8,0.3C15.8,150.9,15.9,151.2,15.9,151.5z"/>
		<path class="st0" d="M12.2,162.1c0,0.9-0.2,1.8-0.5,2.6c-0.3,0.8-0.7,1.5-1.2,2.1l-3.3-0.7c0.9-0.1,1.6-0.3,2.2-0.5
			c0.6-0.3,1.1-0.6,1.5-0.9c0.4-0.4,0.6-0.8,0.8-1.2c0.2-0.4,0.2-0.9,0.2-1.3c0-0.6-0.1-1.2-0.4-1.7c-0.3-0.5-0.7-0.9-1.2-1.3
			c-0.5-0.4-1.1-0.6-1.8-0.8S7,158,6.2,158c-0.9,0-1.7,0.1-2.4,0.3c-0.7,0.2-1.3,0.5-1.8,0.9S1,160,0.7,160.6
			c-0.3,0.5-0.4,1.1-0.4,1.7c0,1.1,0.4,2,1.2,2.8c0.8,0.8,2,1.4,3.5,1.8l-3.5-0.1c-0.3-0.3-0.5-0.7-0.7-1.1s-0.3-0.8-0.5-1.2
			s-0.2-0.8-0.2-1.2S0,162.6,0,162.3c0-0.9,0.1-1.7,0.4-2.4c0.3-0.7,0.7-1.4,1.2-1.9c0.5-0.5,1.2-0.9,1.9-1.3s1.6-0.5,2.5-0.5
			c0.9,0,1.7,0.1,2.4,0.4c0.7,0.3,1.4,0.7,1.9,1.2c0.5,0.5,1,1.1,1.3,1.8C12.1,160.4,12.2,161.2,12.2,162.1z"/>
		<path class="st0" d="M0.1,169.9c0.1,0.2,0.1,0.4,0.2,0.6c0.1,0.1,0.2,0.3,0.3,0.3c0.1,0.1,0.3,0.1,0.5,0.2c0.2,0,0.5,0,0.8,0h12.4
			c0.4,0,0.8,0,1-0.1c0.2-0.1,0.4-0.2,0.6-0.4l0.3,2.1H8.9c1,0.4,1.8,0.9,2.4,1.7c0.6,0.8,0.9,1.8,0.9,3c0,0.7-0.1,1.3-0.3,1.8
			s-0.5,1-0.8,1.3c-0.4,0.4-0.8,0.6-1.3,0.8c-0.5,0.2-1,0.3-1.6,0.3H2c-0.3,0-0.5,0-0.8,0.1c-0.2,0-0.4,0.1-0.5,0.2
			c-0.1,0.1-0.3,0.2-0.3,0.3c-0.1,0.1-0.2,0.3-0.2,0.5v-3.8c0.1,0.2,0.1,0.4,0.2,0.6c0.1,0.1,0.2,0.3,0.3,0.3
			c0.1,0.1,0.3,0.1,0.5,0.2c0.2,0,0.5,0,0.8,0h6.5c1.1,0,1.9-0.3,2.5-0.8c0.6-0.5,0.9-1.3,0.9-2.2c0-0.6-0.1-1.1-0.3-1.6
			c-0.2-0.5-0.5-1-0.9-1.4c-0.4-0.4-0.9-0.7-1.5-1c-0.6-0.2-1.2-0.4-2-0.4H2c-0.3,0-0.5,0-0.8,0.1c-0.2,0-0.4,0.1-0.5,0.2
			c-0.1,0.1-0.3,0.2-0.3,0.3c-0.1,0.1-0.2,0.3-0.2,0.5V169.9z"/>
		<path class="st0" d="M0.1,185.2c0.1,0.2,0.1,0.4,0.2,0.6c0.1,0.1,0.2,0.3,0.3,0.3c0.1,0.1,0.3,0.1,0.5,0.2c0.2,0,0.5,0,0.8,0h7.8
			c0.3,0,0.6,0,0.8,0c0.2,0,0.4-0.1,0.6-0.1c0.2,0,0.3-0.1,0.5-0.2c0.1-0.1,0.3-0.2,0.4-0.3l0.2,2.2H2c-0.3,0-0.5,0-0.8,0.1
			c-0.2,0-0.4,0.1-0.5,0.2c-0.1,0.1-0.3,0.2-0.3,0.3c-0.1,0.1-0.2,0.3-0.2,0.5V185.2z M15.9,187c0,0.3-0.1,0.6-0.3,0.8
			c-0.2,0.2-0.4,0.3-0.8,0.3s-0.6-0.1-0.8-0.3c-0.2-0.2-0.3-0.5-0.3-0.8c0-0.3,0.1-0.6,0.3-0.8c0.2-0.2,0.5-0.3,0.8-0.3
			s0.6,0.1,0.8,0.3C15.8,186.5,15.9,186.7,15.9,187z"/>
	</g>
</g>
</svg>
