<?xml version="1.0" encoding="utf-8"?>
<!-- Generator: Adobe Illustrator 25.4.1, SVG Export Plug-In . SVG Version: 6.00 Build 0)  -->
<svg version="1.1" id="レイヤー_1" xmlns="http://www.w3.org/2000/svg" xmlns:xlink="http://www.w3.org/1999/xlink" x="0px"
	 y="0px" viewBox="0 0 45 190" style="enable-background:new 0 0 45 190;" xml:space="preserve">
<style type="text/css">
	.st0{fill:#D17A55;}
</style>
<g>
	<g>
		<path class="st0" d="M28.9,0.8c0.1,0.5,0.3,0.8,0.6,0.9C29.7,1.9,30.2,2,30.8,2h11c0.3,0,0.6,0,0.8-0.1s0.4-0.1,0.5-0.2
			s0.3-0.2,0.3-0.4s0.2-0.3,0.2-0.6v5.5c0,0.6-0.1,1.3-0.2,2c-0.1,0.7-0.4,1.3-0.7,1.8c-0.3,0.5-0.7,1-1.3,1.3
			c-0.5,0.3-1.2,0.5-1.9,0.5c-0.8,0-1.4-0.2-2-0.5c-0.6-0.3-1-0.8-1.4-1.3s-0.6-1.2-0.8-1.8c-0.2-0.7-0.3-1.3-0.3-2V3.6h-4.4
			c-0.6,0-1,0.1-1.3,0.2c-0.2,0.2-0.4,0.5-0.6,0.9V0.8z M43.3,3.6h-7.8v2.2c0,0.6,0.1,1.1,0.2,1.6c0.1,0.5,0.4,1,0.7,1.4
			c0.3,0.4,0.7,0.7,1.2,1s1.1,0.4,1.8,0.4c1.2,0,2.2-0.4,2.8-1.1c0.7-0.8,1-1.8,1-3.2V3.6z"/>
		<path class="st0" d="M28.9,14.9c0.1,0.2,0.1,0.4,0.2,0.6c0.1,0.1,0.2,0.3,0.3,0.3c0.1,0.1,0.3,0.1,0.5,0.2c0.2,0,0.5,0,0.8,0h7.8
			c0.3,0,0.6,0,0.8,0c0.2,0,0.4-0.1,0.6-0.1c0.2,0,0.3-0.1,0.5-0.2c0.1-0.1,0.3-0.2,0.4-0.3l0.2,2.1h-2.8c0.4,0.2,0.8,0.4,1.1,0.6
			c0.3,0.2,0.6,0.5,0.9,0.7c0.3,0.3,0.5,0.6,0.6,1c0.1,0.4,0.2,0.8,0.2,1.3c0,0.5,0,0.9-0.1,1.2l-2,0c0.2-0.1,0.3-0.3,0.5-0.5
			c0.2-0.2,0.3-0.4,0.5-0.6c0.1-0.2,0.3-0.4,0.3-0.6s0.1-0.4,0.1-0.7c0-0.3-0.1-0.5-0.2-0.8s-0.3-0.5-0.6-0.7S39,18.2,38.6,18
			s-0.7-0.3-1-0.4h-6.9c-0.3,0-0.5,0-0.8,0.1s-0.4,0.1-0.5,0.2s-0.3,0.2-0.3,0.3s-0.2,0.3-0.2,0.5V14.9z"/>
		<path class="st0" d="M41,31c0,0.9-0.1,1.7-0.4,2.5s-0.7,1.4-1.3,1.9s-1.2,1-1.9,1.3s-1.6,0.4-2.4,0.4h0c-0.9,0-1.7-0.1-2.4-0.4
			s-1.4-0.7-1.9-1.3c-0.5-0.5-1-1.2-1.3-1.9s-0.4-1.6-0.4-2.5s0.1-1.7,0.4-2.5s0.7-1.4,1.3-1.9c0.5-0.5,1.2-1,1.9-1.3
			s1.6-0.4,2.4-0.4h0c0.9,0,1.7,0.1,2.4,0.4s1.4,0.7,1.9,1.3s1,1.2,1.3,1.9S41,30.1,41,31z M34.9,26.6c-0.8,0-1.6,0.1-2.3,0.3
			c-0.7,0.2-1.3,0.5-1.8,0.9c-0.5,0.4-0.9,0.8-1.2,1.4c-0.3,0.5-0.4,1.1-0.4,1.8s0.1,1.2,0.4,1.8c0.3,0.5,0.7,1,1.2,1.4
			c0.5,0.4,1.1,0.7,1.8,0.9c0.7,0.2,1.5,0.3,2.3,0.3c0.8,0,1.6-0.1,2.3-0.3c0.7-0.2,1.3-0.5,1.8-0.9c0.5-0.4,0.9-0.8,1.2-1.4
			s0.4-1.1,0.4-1.8s-0.1-1.2-0.4-1.8s-0.7-1-1.2-1.4s-1.1-0.7-1.8-0.9C36.5,26.7,35.8,26.6,34.9,26.6z"/>
		<path class="st0" d="M41,45.7c0,0.7-0.1,1.3-0.3,1.9c-0.2,0.6-0.5,1.1-0.9,1.6h3.4c0.4,0,0.8,0,1-0.1c0.2-0.1,0.4-0.2,0.6-0.4
			l0.3,2.1H31c-0.6,0-1.1,0-1.3,0.1s-0.5,0.2-0.7,0.4l-0.1-2.1h1.6c-0.6-0.4-1-1-1.3-1.6s-0.4-1.3-0.4-1.9c0-0.9,0.1-1.7,0.4-2.4
			c0.3-0.7,0.7-1.3,1.2-1.9c0.5-0.5,1.1-0.9,1.8-1.2c0.7-0.3,1.5-0.4,2.3-0.4c0.9,0,1.8,0.1,2.6,0.4c0.8,0.3,1.5,0.7,2,1.2
			c0.6,0.5,1,1.1,1.3,1.9C40.8,44.1,41,44.9,41,45.7z M35.5,41.5c-0.9,0-1.7,0.1-2.4,0.3c-0.8,0.2-1.4,0.5-2,0.9
			c-0.6,0.4-1,0.9-1.4,1.5c-0.3,0.6-0.5,1.2-0.5,2c0,0.6,0.2,1.2,0.5,1.7c0.3,0.5,0.7,0.9,1.3,1.3h7.2c0.9-0.4,1.5-0.9,2-1.5
			c0.4-0.6,0.6-1.3,0.6-2.1c0-0.6-0.1-1.2-0.4-1.7c-0.2-0.5-0.6-0.9-1-1.3c-0.5-0.3-1-0.6-1.6-0.8C37,41.6,36.2,41.5,35.5,41.5z"/>
		<path class="st0" d="M40.8,54.3l0.2,2.2h-8.6c-0.6,0-1.1,0.1-1.5,0.2c-0.4,0.1-0.8,0.3-1,0.5c-0.3,0.2-0.4,0.5-0.6,0.8
			s-0.2,0.7-0.2,1.1c0,0.6,0.1,1.2,0.4,1.7s0.7,0.9,1.1,1.2c0.5,0.3,1,0.6,1.5,0.7c0.6,0.2,1.1,0.3,1.6,0.3h4.8c0.3,0,0.6,0,0.8,0
			c0.2,0,0.4-0.1,0.6-0.1c0.2,0,0.3-0.1,0.5-0.2s0.3-0.2,0.4-0.3l0.2,2.2H31c-0.6,0-1.1,0-1.4,0.1c-0.3,0.1-0.5,0.2-0.7,0.4
			l-0.1-2.1h3.2c-0.5-0.2-1-0.4-1.4-0.7s-0.7-0.5-1-0.9c-0.3-0.3-0.5-0.7-0.6-1.1c-0.1-0.4-0.2-0.9-0.2-1.5c0-1.2,0.3-2.2,0.9-2.9
			s1.5-1.1,2.8-1.1h6.1c0.3,0,0.6,0,0.8,0c0.2,0,0.4-0.1,0.6-0.1c0.2,0,0.3-0.1,0.5-0.2C40.6,54.6,40.7,54.5,40.8,54.3z"/>
		<path class="st0" d="M41,74c0,0.9-0.2,1.8-0.5,2.6c-0.3,0.8-0.7,1.5-1.2,2.1L36,78c0.9-0.1,1.6-0.3,2.2-0.5
			c0.6-0.3,1.1-0.6,1.5-0.9c0.4-0.4,0.6-0.8,0.8-1.2c0.2-0.4,0.2-0.9,0.2-1.3c0-0.6-0.1-1.2-0.4-1.7c-0.3-0.5-0.7-0.9-1.2-1.3
			c-0.5-0.4-1.1-0.6-1.8-0.8s-1.5-0.3-2.4-0.3c-0.9,0-1.7,0.1-2.4,0.3s-1.3,0.5-1.8,0.9s-0.9,0.8-1.2,1.4c-0.3,0.5-0.4,1.1-0.4,1.7
			c0,1.1,0.4,2,1.2,2.8c0.8,0.8,2,1.4,3.5,1.8l-3.5-0.1c-0.3-0.3-0.5-0.7-0.7-1.1s-0.3-0.8-0.5-1.2s-0.2-0.8-0.2-1.2
			c0-0.4-0.1-0.7-0.1-1.1c0-0.9,0.1-1.7,0.4-2.4c0.3-0.7,0.7-1.4,1.2-1.9s1.2-0.9,1.9-1.3c0.8-0.3,1.6-0.5,2.5-0.5
			c0.9,0,1.7,0.1,2.4,0.4c0.7,0.3,1.4,0.7,1.9,1.2c0.5,0.5,1,1.1,1.3,1.8S41,73.1,41,74z"/>
		<path class="st0" d="M41,87.6c0,0.8-0.1,1.6-0.4,2.2s-0.6,1.1-1,1.6c-0.4,0.4-1,0.7-1.5,0.9s-1.2,0.3-2,0.3v-8.9
			c-0.2,0-0.4,0-0.6-0.1c-0.2,0-0.4,0-0.7,0c-0.8,0-1.6,0.1-2.3,0.3c-0.7,0.2-1.3,0.5-1.8,0.9c-0.5,0.4-0.9,0.9-1.2,1.4
			c-0.3,0.5-0.4,1.1-0.4,1.8c0,0.6,0.1,1.1,0.3,1.5s0.5,0.9,0.9,1.3c0.4,0.4,0.8,0.7,1.4,1s1.1,0.6,1.7,0.8l-3.1-0.2
			c-0.5-0.6-0.9-1.3-1.2-2.1c-0.2-0.8-0.4-1.6-0.4-2.3c0-0.9,0.1-1.7,0.4-2.5c0.3-0.7,0.7-1.4,1.2-1.9s1.2-1,1.9-1.3
			c0.8-0.3,1.6-0.4,2.5-0.4c0.9,0,1.7,0.1,2.5,0.4c0.7,0.3,1.4,0.6,2,1.1c0.6,0.5,1,1.1,1.3,1.8C40.9,85.9,41,86.7,41,87.6z
			 M36.4,83.7V91c0.6,0,1.2-0.1,1.7-0.3c0.5-0.2,1-0.4,1.4-0.7c0.4-0.3,0.7-0.6,0.9-1c0.2-0.4,0.3-0.9,0.3-1.4c0-0.5-0.1-1-0.3-1.4
			c-0.2-0.4-0.5-0.8-0.9-1.1c-0.4-0.3-0.8-0.6-1.4-0.8C37.6,84,37,83.8,36.4,83.7z"/>
		<path class="st0" d="M41,101.5c0,0.7-0.1,1.3-0.3,1.9c-0.2,0.6-0.5,1.1-0.9,1.6h3.4c0.4,0,0.8,0,1-0.1c0.2-0.1,0.4-0.2,0.6-0.4
			l0.3,2.1H31c-0.6,0-1.1,0-1.3,0.1s-0.5,0.2-0.7,0.4l-0.1-2.1h1.6c-0.6-0.4-1-1-1.3-1.6s-0.4-1.3-0.4-1.9c0-0.9,0.1-1.7,0.4-2.4
			c0.3-0.7,0.7-1.3,1.2-1.9c0.5-0.5,1.1-0.9,1.8-1.2c0.7-0.3,1.5-0.4,2.3-0.4c0.9,0,1.8,0.1,2.6,0.4c0.8,0.3,1.5,0.7,2,1.2
			c0.6,0.5,1,1.1,1.3,1.9C40.8,99.9,41,100.6,41,101.5z M35.5,97.3c-0.9,0-1.7,0.1-2.4,0.3c-0.8,0.2-1.4,0.5-2,0.9
			c-0.6,0.4-1,0.9-1.4,1.5c-0.3,0.6-0.5,1.2-0.5,2c0,0.6,0.2,1.2,0.5,1.7c0.3,0.5,0.7,0.9,1.3,1.3h7.2c0.9-0.4,1.5-0.9,2-1.5
			c0.4-0.6,0.6-1.3,0.6-2.1c0-0.6-0.1-1.2-0.4-1.7c-0.2-0.5-0.6-0.9-1-1.3c-0.5-0.3-1-0.6-1.6-0.8C37,97.4,36.2,97.3,35.5,97.3z"/>
		<path class="st0" d="M44.7,117.9L45,120h-5.4c0.3,0.3,0.5,0.5,0.7,0.8c0.2,0.3,0.3,0.6,0.4,0.9c0.1,0.3,0.2,0.6,0.2,0.9
			c0,0.3,0.1,0.6,0.1,0.9c0,0.9-0.1,1.7-0.4,2.5c-0.3,0.7-0.7,1.4-1.2,1.9c-0.5,0.5-1.1,0.9-1.8,1.2c-0.7,0.3-1.5,0.4-2.4,0.4
			c-0.9,0-1.7-0.2-2.5-0.5c-0.8-0.3-1.5-0.7-2-1.3s-1-1.2-1.4-1.9c-0.3-0.7-0.5-1.6-0.5-2.4c0-1.5,0.5-2.8,1.5-3.8l-1.4-1.1l0-0.1
			h14.3c0.4,0,0.8,0,1-0.1C44.4,118.3,44.5,118.1,44.7,117.9z M29.2,123.6c0,0.7,0.1,1.3,0.4,1.8s0.6,1,1.1,1.3
			c0.5,0.4,1,0.6,1.7,0.8s1.3,0.3,2.1,0.3c0.8,0,1.7-0.1,2.4-0.3c0.8-0.2,1.4-0.5,2-0.9c0.6-0.4,1-0.9,1.3-1.5
			c0.3-0.6,0.5-1.3,0.5-2.1c0-0.5-0.1-1.1-0.3-1.6s-0.6-1.1-1.2-1.5h-7.6c-0.8,0.4-1.4,0.9-1.8,1.5
			C29.4,122.1,29.2,122.8,29.2,123.6z"/>
		<path class="st0" d="M40.9,134.5c-0.1-0.1-0.2-0.2-0.4-0.3c-0.2-0.1-0.5,0-1,0.2l-8.7,3.5l8.6,3.4c0.3,0.1,0.5,0.2,0.7,0.1
			c0.2,0,0.3-0.1,0.4-0.1s0.2-0.1,0.3-0.2s0.1-0.2,0.2-0.2v2c-0.1-0.1-0.2-0.3-0.4-0.5c-0.2-0.2-0.6-0.4-1-0.6l-11.2-4.5
			c-0.2-0.1-0.5-0.2-0.8-0.4c-0.3-0.2-0.6-0.4-0.9-0.6c-0.3-0.3-0.6-0.6-0.8-0.9c-0.2-0.4-0.4-0.8-0.4-1.3l2.1-0.7
			c-0.3,0.5-0.4,1.1-0.4,1.5c0,0.5,0.2,0.9,0.5,1.4s0.8,0.7,1.4,1l10.8-4.5c0.4-0.2,0.7-0.4,0.9-0.5c0.2-0.2,0.3-0.3,0.4-0.4V134.5z
			"/>
		<path class="st0" d="M14.9,3.5c0-0.1-0.1-0.1-0.2-0.2s-0.2-0.1-0.3-0.1c-0.1,0-0.3,0-0.4,0.1c-0.2,0.1-0.4,0.2-0.6,0.3L7,7.8
			l5.4,3.6c0.5,0.3,0.9,0.5,1.2,0.6c0.3,0.1,0.5,0.2,0.7,0.2s0.3,0,0.4-0.1c0.1-0.1,0.1-0.1,0.2-0.2v2c-0.1-0.2-0.2-0.4-0.5-0.7
			c-0.3-0.3-0.7-0.6-1.2-1L6.7,8H2C1.4,8,1,8.1,0.7,8.2C0.5,8.4,0.3,8.7,0.1,9.1V5.2C0.3,5.7,0.5,6,0.7,6.2C1,6.3,1.4,6.4,2,6.4h4.5
			l6.2-4.1c0.7-0.5,1.2-0.8,1.5-1.1c0.3-0.3,0.5-0.5,0.6-0.7V3.5z"/>
		<path class="st0" d="M12.2,22.8c0,0.9-0.1,1.7-0.4,2.5s-0.7,1.4-1.3,1.9s-1.2,1-1.9,1.3S7,28.9,6.1,28.9h0c-0.9,0-1.7-0.1-2.4-0.4
			s-1.4-0.7-1.9-1.3c-0.5-0.5-1-1.2-1.3-1.9S0,23.7,0,22.8s0.1-1.7,0.4-2.5s0.7-1.4,1.3-1.9c0.5-0.5,1.2-1,1.9-1.3s1.6-0.4,2.4-0.4
			h0c0.9,0,1.7,0.1,2.4,0.4s1.4,0.7,1.9,1.3s1,1.2,1.3,1.9S12.2,21.9,12.2,22.8z M6.1,18.4c-0.8,0-1.6,0.1-2.3,0.3
			C3.1,19,2.5,19.3,2,19.6C1.5,20,1.1,20.5,0.8,21c-0.3,0.5-0.4,1.1-0.4,1.8s0.1,1.2,0.4,1.8c0.3,0.5,0.7,1,1.2,1.4
			c0.5,0.4,1.1,0.7,1.8,0.9c0.7,0.2,1.5,0.3,2.3,0.3c0.8,0,1.6-0.1,2.3-0.3c0.7-0.2,1.3-0.5,1.8-0.9c0.5-0.4,0.9-0.8,1.2-1.4
			s0.4-1.1,0.4-1.8s-0.1-1.2-0.4-1.8s-0.7-1-1.2-1.4S9.2,19,8.5,18.7C7.8,18.5,7,18.4,6.1,18.4z"/>
		<path class="st0" d="M1.3,31.8l4,0.3c-1,0.1-1.8,0.2-2.4,0.5c-0.6,0.2-1.1,0.5-1.5,0.9c-0.4,0.3-0.6,0.7-0.8,1.2s-0.2,0.9-0.2,1.4
			c0,1.1,0.3,1.8,0.8,2.3C1.6,39,2.2,39.3,3,39.3c0.4,0,0.8-0.1,1.1-0.2c0.3-0.2,0.5-0.3,0.7-0.6c0.2-0.2,0.3-0.5,0.4-0.7
			c0.1-0.3,0.2-0.5,0.3-0.7l0.8-2.3c0.1-0.2,0.2-0.5,0.3-0.8s0.3-0.6,0.6-0.8C7.4,33,7.7,32.7,8,32.6c0.3-0.2,0.8-0.3,1.2-0.3
			c0.9,0,1.7,0.3,2.2,1c0.5,0.7,0.8,1.6,0.8,2.8c0,0.8-0.1,1.5-0.4,2.1c-0.2,0.6-0.6,1.2-1,1.7L8,39.7c1.4-0.4,2.4-0.8,3-1.4
			c0.6-0.6,0.9-1.3,0.9-2.3c0-0.8-0.2-1.4-0.5-1.9c-0.4-0.5-0.9-0.8-1.7-0.8c-0.3,0-0.6,0.1-0.8,0.2c-0.2,0.1-0.4,0.3-0.6,0.5
			S8.1,34.5,8,34.8s-0.2,0.5-0.2,0.7l-0.7,2.1c-0.1,0.3-0.2,0.6-0.4,0.9c-0.2,0.3-0.4,0.7-0.6,1c-0.3,0.3-0.6,0.6-1,0.8
			s-0.9,0.3-1.4,0.3c-0.5,0-1-0.1-1.4-0.3c-0.4-0.2-0.8-0.5-1.1-0.9s-0.6-0.9-0.8-1.4S0,36.7,0,36c0-0.8,0.1-1.6,0.3-2.3
			S0.9,32.3,1.3,31.8z"/>
		<path class="st0" d="M0.1,43.4c0.1,0.2,0.1,0.4,0.2,0.6c0.1,0.1,0.2,0.3,0.3,0.3c0.1,0.1,0.3,0.1,0.5,0.2c0.2,0,0.5,0,0.8,0h12.4
			c0.4,0,0.8,0,1-0.1c0.2-0.1,0.4-0.2,0.6-0.4l0.3,2.1H8.9c1,0.4,1.8,0.9,2.4,1.7s0.9,1.8,0.9,3c0,0.7-0.1,1.3-0.3,1.8
			s-0.5,1-0.8,1.3s-0.8,0.6-1.3,0.8c-0.5,0.2-1,0.3-1.6,0.3H2c-0.3,0-0.5,0-0.8,0.1c-0.2,0-0.4,0.1-0.5,0.2s-0.3,0.2-0.3,0.3
			c-0.1,0.1-0.2,0.3-0.2,0.5v-3.8c0.1,0.2,0.1,0.4,0.2,0.6c0.1,0.1,0.2,0.3,0.3,0.3c0.1,0.1,0.3,0.1,0.5,0.2c0.2,0,0.5,0,0.8,0h6.5
			c1.1,0,1.9-0.3,2.5-0.8s0.9-1.3,0.9-2.2c0-0.6-0.1-1.1-0.3-1.6s-0.5-1-0.9-1.4c-0.4-0.4-0.9-0.7-1.5-1c-0.6-0.2-1.2-0.4-2-0.4H2
			c-0.3,0-0.5,0-0.8,0.1c-0.2,0-0.4,0.1-0.5,0.2s-0.3,0.2-0.3,0.3c-0.1,0.1-0.2,0.3-0.2,0.5V43.4z"/>
		<path class="st0" d="M0.1,58.7c0.1,0.2,0.1,0.4,0.2,0.6c0.1,0.1,0.2,0.3,0.3,0.3c0.1,0.1,0.3,0.1,0.5,0.2c0.2,0,0.5,0,0.8,0h7.8
			c0.3,0,0.6,0,0.8,0c0.2,0,0.4-0.1,0.6-0.1c0.2,0,0.3-0.1,0.5-0.2c0.1-0.1,0.3-0.2,0.4-0.3l0.2,2.2H2c-0.3,0-0.5,0-0.8,0.1
			s-0.4,0.1-0.5,0.2S0.5,61.8,0.4,62s-0.2,0.3-0.2,0.5V58.7z M15.9,60.5c0,0.3-0.1,0.6-0.3,0.8c-0.2,0.2-0.4,0.3-0.8,0.3
			s-0.6-0.1-0.8-0.3c-0.2-0.2-0.3-0.5-0.3-0.8c0-0.3,0.1-0.6,0.3-0.8s0.5-0.3,0.8-0.3s0.6,0.1,0.8,0.3C15.8,60,15.9,60.2,15.9,60.5z
			"/>
		<path class="st0" d="M6.7,70.5l0.6,2.4h1.5c1.1,0,1.8-0.2,2.3-0.6c0.5-0.4,0.8-1,0.8-1.9c0-0.4-0.1-0.8-0.2-1.2s-0.4-0.8-0.7-1.2
			c-0.3-0.4-0.8-0.7-1.4-1s-1.3-0.6-2.2-0.8l3.5-0.1c0.4,0.5,0.7,1.2,1,1.9s0.4,1.5,0.4,2.4c0,1.2-0.3,2.2-0.9,3
			c-0.6,0.7-1.5,1.1-2.6,1.1H2c-0.4,0-0.8,0-1.1,0.1c-0.3,0.1-0.6,0.2-0.8,0.5l-0.1-2.1h2.8c-0.4-0.1-0.7-0.3-1-0.5
			c-0.3-0.2-0.6-0.5-0.9-0.8c-0.3-0.3-0.5-0.7-0.6-1.1s-0.2-0.9-0.2-1.5c0-0.5,0.1-1,0.2-1.4s0.3-0.8,0.5-1.1s0.5-0.6,0.9-0.8
			s0.8-0.3,1.2-0.3c0.6,0,1.2,0.2,1.6,0.5c0.4,0.3,0.8,0.8,1.1,1.3c0.3,0.5,0.5,1.1,0.7,1.7C6.4,69.4,6.6,70,6.7,70.5z M2.9,67
			c-0.7,0-1.3,0.2-1.8,0.6c-0.5,0.4-0.7,0.9-0.7,1.6c0,0.4,0.1,0.8,0.3,1.2c0.2,0.4,0.4,0.8,0.8,1.1c0.3,0.3,0.7,0.6,1.2,0.8
			c0.5,0.2,1.1,0.4,1.7,0.4H7l-0.6-2.3c-0.1-0.3-0.2-0.6-0.3-1c-0.1-0.4-0.3-0.8-0.6-1.1c-0.3-0.4-0.6-0.7-1-0.9
			C4,67.2,3.5,67,2.9,67z"/>
		<path class="st0" d="M0.1,77.8c0.1,0.2,0.1,0.4,0.2,0.6c0.1,0.1,0.2,0.3,0.3,0.3c0.1,0.1,0.3,0.1,0.5,0.2c0.2,0,0.5,0,0.8,0h12.4
			c0.4,0,0.8,0,1-0.1c0.2-0.1,0.4-0.2,0.6-0.4l0.3,2.1H5.4l4.8,5.4c0.3,0.4,0.7,0.7,1,1c0.3,0.3,0.7,0.4,1,0.3v1.9
			C12,89,12,88.8,11.8,88.7s-0.3-0.4-0.5-0.7c-0.2-0.3-0.4-0.6-0.7-0.9c-0.3-0.3-0.6-0.7-1-1.2l-2.1-2.3l-5.1,4
			c-0.5,0.4-0.9,0.7-1.2,1S0.7,89,0.6,89.1c-0.2,0.1-0.3,0.2-0.3,0.3c-0.1,0.1-0.1,0.1-0.1,0.1v-2.7c0,0,0.1,0,0.2,0.1
			c0.1,0,0.2,0,0.3-0.1c0.1-0.1,0.3-0.2,0.6-0.3c0.2-0.1,0.5-0.3,0.9-0.6l4.5-3.5l-1.8-2H2c-0.3,0-0.5,0-0.8,0.1
			c-0.2,0-0.4,0.1-0.5,0.2s-0.3,0.2-0.3,0.3c-0.1,0.1-0.2,0.3-0.2,0.5V77.8z"/>
		<path class="st0" d="M0.1,92c0.1,0.2,0.1,0.4,0.2,0.6c0.1,0.1,0.2,0.3,0.3,0.3C0.8,93,1,93,1.2,93c0.2,0,0.5,0,0.8,0h7.8
			c0.3,0,0.6,0,0.8,0c0.2,0,0.4-0.1,0.6-0.1c0.2,0,0.3-0.1,0.5-0.2c0.1-0.1,0.3-0.2,0.4-0.3l0.2,2.2H2c-0.3,0-0.5,0-0.8,0.1
			s-0.4,0.1-0.5,0.2s-0.3,0.2-0.3,0.3s-0.2,0.3-0.2,0.5V92z M15.9,93.8c0,0.3-0.1,0.6-0.3,0.8c-0.2,0.2-0.4,0.3-0.8,0.3
			s-0.6-0.1-0.8-0.3c-0.2-0.2-0.3-0.5-0.3-0.8c0-0.3,0.1-0.6,0.3-0.8s0.5-0.3,0.8-0.3s0.6,0.1,0.8,0.3
			C15.8,93.2,15.9,93.5,15.9,93.8z"/>
		<path class="st0" d="M8.2,110.8c0.4-0.4,0.8-0.7,1.1-0.9c0.3-0.3,0.7-0.5,1-0.7s0.6-0.3,0.9-0.4c0.3-0.1,0.6-0.1,0.9-0.1
			c0.5,0,0.9,0.1,1.3,0.3c0.4,0.2,0.7,0.4,0.9,0.8c0.2,0.3,0.4,0.7,0.5,1.1s0.2,0.9,0.2,1.4c0,1-0.2,1.8-0.7,2.5c-0.5,0.6-1.1,1-2,1
			c-0.5,0-0.9-0.1-1.3-0.3c-0.4-0.2-0.7-0.5-1-0.8c-0.3-0.3-0.6-0.7-0.8-1.1c-0.3-0.4-0.5-0.8-0.7-1.3l-5.1,4.2
			c0.4,0.2,0.9,0.4,1.4,0.6c0.5,0.2,1.1,0.3,1.8,0.5l-0.1,0.6c-1.4-0.3-2.6-0.8-3.5-1.3c-0.3,0.2-0.5,0.5-0.9,0.7
			c-0.3,0.3-0.6,0.5-0.9,0.8c-0.3,0.2-0.5,0.5-0.8,0.7s-0.3,0.3-0.4,0.4V117c0.3-0.2,0.6-0.4,0.9-0.5c0.3-0.2,0.5-0.3,0.8-0.6
			c-1.2-1.1-1.8-2.5-1.8-4.3c0-1.5,0.3-2.7,1-3.5s1.6-1.3,2.7-1.3c0.6,0,1,0.1,1.5,0.3c0.4,0.2,0.8,0.5,1.2,0.8s0.7,0.8,0.9,1.2
			C7.7,109.7,7.9,110.2,8.2,110.8z M0.3,111.7c0,0.3,0,0.6,0.1,0.9c0,0.3,0.1,0.7,0.3,1c0.1,0.3,0.3,0.7,0.6,1s0.6,0.7,1,1
			c0.1-0.1,0.3-0.2,0.4-0.3s0.3-0.2,0.5-0.4l3.7-3c0.5-0.4,0.9-0.7,1.2-1c-0.2-0.5-0.5-0.9-0.9-1.2s-0.7-0.6-1.1-0.7
			s-0.8-0.3-1.1-0.4c-0.4-0.1-0.7-0.1-1-0.1c-0.6,0-1.2,0.1-1.6,0.2s-0.8,0.4-1.1,0.7c-0.3,0.3-0.5,0.6-0.6,1
			C0.4,110.8,0.3,111.2,0.3,111.7z M8.7,112.1c0.9,1.6,2,2.4,3.5,2.4c0.7,0,1.3-0.2,1.8-0.6c0.5-0.4,0.7-1,0.7-1.7
			c0-0.3,0-0.6-0.1-0.9c-0.1-0.3-0.2-0.5-0.4-0.7c-0.2-0.2-0.4-0.4-0.7-0.5c-0.3-0.1-0.6-0.2-0.9-0.2s-0.6,0.1-1,0.2
			c-0.3,0.1-0.6,0.3-0.9,0.5c-0.3,0.2-0.6,0.4-1,0.7S9.1,111.8,8.7,112.1z"/>
		<path class="st0" d="M2,131.8h11c0.3,0,0.6,0,0.8-0.1s0.4-0.1,0.5-0.2s0.3-0.2,0.3-0.4s0.2-0.3,0.2-0.6v2L2,139l12.8,5.6v2.5
			c-0.1-0.4-0.3-0.7-0.6-0.9c-0.2-0.2-0.7-0.2-1.3-0.2H2c-0.6,0-1,0.1-1.3,0.2c-0.2,0.2-0.4,0.5-0.6,0.9v-3.9
			c0.1,0.5,0.3,0.8,0.6,0.9c0.3,0.2,0.7,0.2,1.3,0.2h11.4l-13.3-5.8v-0.3l12.5-6.2H2c-0.6,0-1,0.1-1.3,0.2c-0.2,0.2-0.4,0.5-0.6,0.9
			v-2.7c0.1,0.5,0.3,0.8,0.6,0.9C1,131.7,1.4,131.8,2,131.8z"/>
		<path class="st0" d="M0.1,150.2c0.1,0.2,0.1,0.4,0.2,0.6c0.1,0.1,0.2,0.3,0.3,0.3c0.1,0.1,0.3,0.1,0.5,0.2c0.2,0,0.5,0,0.8,0h7.8
			c0.3,0,0.6,0,0.8,0c0.2,0,0.4-0.1,0.6-0.1c0.2,0,0.3-0.1,0.5-0.2c0.1-0.1,0.3-0.2,0.4-0.3l0.2,2.2H2c-0.3,0-0.5,0-0.8,0.1
			s-0.4,0.1-0.5,0.2s-0.3,0.2-0.3,0.3s-0.2,0.3-0.2,0.5V150.2z M15.9,152c0,0.3-0.1,0.6-0.3,0.8c-0.2,0.2-0.4,0.3-0.8,0.3
			s-0.6-0.1-0.8-0.3c-0.2-0.2-0.3-0.5-0.3-0.8c0-0.3,0.1-0.6,0.3-0.8s0.5-0.3,0.8-0.3s0.6,0.1,0.8,0.3
			C15.8,151.5,15.9,151.7,15.9,152z"/>
		<path class="st0" d="M12.2,162.6c0,0.9-0.2,1.8-0.5,2.6c-0.3,0.8-0.7,1.5-1.2,2.1l-3.4-0.7c0.9-0.1,1.6-0.3,2.2-0.5
			c0.6-0.3,1.1-0.6,1.5-0.9c0.4-0.4,0.6-0.8,0.8-1.2c0.2-0.4,0.2-0.9,0.2-1.3c0-0.6-0.1-1.2-0.4-1.7c-0.3-0.5-0.7-0.9-1.2-1.3
			c-0.5-0.4-1.1-0.6-1.8-0.8s-1.5-0.3-2.4-0.3c-0.9,0-1.7,0.1-2.4,0.3s-1.3,0.5-1.8,0.9s-0.9,0.8-1.2,1.4c-0.3,0.5-0.4,1.1-0.4,1.7
			c0,1.1,0.4,2,1.2,2.8c0.8,0.8,2,1.4,3.5,1.8l-3.5-0.1c-0.3-0.3-0.5-0.7-0.7-1.1s-0.3-0.8-0.5-1.2s-0.2-0.8-0.2-1.2
			c0-0.4-0.1-0.7-0.1-1.1c0-0.9,0.1-1.7,0.4-2.4c0.3-0.7,0.7-1.4,1.2-1.9s1.2-0.9,1.9-1.3c0.8-0.3,1.6-0.5,2.5-0.5
			c0.9,0,1.7,0.1,2.4,0.4c0.7,0.3,1.4,0.7,1.9,1.2c0.5,0.5,1,1.1,1.3,1.8S12.2,161.7,12.2,162.6z"/>
		<path class="st0" d="M0.1,170.4c0.1,0.2,0.1,0.4,0.2,0.6c0.1,0.1,0.2,0.3,0.3,0.3c0.1,0.1,0.3,0.1,0.5,0.2c0.2,0,0.5,0,0.8,0h12.4
			c0.4,0,0.8,0,1-0.1c0.2-0.1,0.4-0.2,0.6-0.4l0.3,2.1H8.9c1,0.4,1.8,0.9,2.4,1.7s0.9,1.8,0.9,3c0,0.7-0.1,1.3-0.3,1.8
			s-0.5,1-0.8,1.3s-0.8,0.6-1.3,0.8c-0.5,0.2-1,0.3-1.6,0.3H2c-0.3,0-0.5,0-0.8,0.1c-0.2,0-0.4,0.1-0.5,0.2s-0.3,0.2-0.3,0.3
			c-0.1,0.1-0.2,0.3-0.2,0.5v-3.8c0.1,0.2,0.1,0.4,0.2,0.6c0.1,0.1,0.2,0.3,0.3,0.3c0.1,0.1,0.3,0.1,0.5,0.2c0.2,0,0.5,0,0.8,0h6.5
			c1.1,0,1.9-0.3,2.5-0.8s0.9-1.3,0.9-2.2c0-0.6-0.1-1.1-0.3-1.6s-0.5-1-0.9-1.4c-0.4-0.4-0.9-0.7-1.5-1c-0.6-0.2-1.2-0.4-2-0.4H2
			c-0.3,0-0.5,0-0.8,0.1c-0.2,0-0.4,0.1-0.5,0.2s-0.3,0.2-0.3,0.3c-0.1,0.1-0.2,0.3-0.2,0.5V170.4z"/>
		<path class="st0" d="M0.1,185.8c0.1,0.2,0.1,0.4,0.2,0.6c0.1,0.1,0.2,0.3,0.3,0.3c0.1,0.1,0.3,0.1,0.5,0.2c0.2,0,0.5,0,0.8,0h7.8
			c0.3,0,0.6,0,0.8,0c0.2,0,0.4-0.1,0.6-0.1c0.2,0,0.3-0.1,0.5-0.2c0.1-0.1,0.3-0.2,0.4-0.3l0.2,2.2H2c-0.3,0-0.5,0-0.8,0.1
			s-0.4,0.1-0.5,0.2s-0.3,0.2-0.3,0.3s-0.2,0.3-0.2,0.5V185.8z M15.9,187.6c0,0.3-0.1,0.6-0.3,0.8c-0.2,0.2-0.4,0.3-0.8,0.3
			s-0.6-0.1-0.8-0.3c-0.2-0.2-0.3-0.5-0.3-0.8c0-0.3,0.1-0.6,0.3-0.8s0.5-0.3,0.8-0.3s0.6,0.1,0.8,0.3
			C15.8,187,15.9,187.3,15.9,187.6z"/>
	</g>
</g>
</svg>
