<?xml version="1.0" encoding="utf-8"?>
<!-- Generator: Adobe Illustrator 25.4.1, SVG Export Plug-In . SVG Version: 6.00 Build 0)  -->
<svg version="1.1" id="レイヤー_1" xmlns="http://www.w3.org/2000/svg" xmlns:xlink="http://www.w3.org/1999/xlink" x="0px"
	 y="0px" viewBox="0 0 463 48" style="enable-background:new 0 0 463 48;" xml:space="preserve">
<style type="text/css">
	.st0{fill:#D17A55;}
	.st1{fill:none;stroke:#D17A55;stroke-width:2;stroke-miterlimit:10;}
</style>
<g>
	<g>
		<path class="st0" d="M53.8,38.6l16-34.4h0.4l18.2,39c0.7,1.5,1.3,2.5,1.9,3.1c0.5,0.6,1.1,1,1.6,1.2h-9.5c0.3-0.1,0.6-0.3,0.8-0.5
			c0.2-0.2,0.4-0.6,0.6-1s0.1-1,0-1.7c-0.1-0.7-0.4-1.5-0.8-2.5l-5.1-11.1H58.8l-5.1,11c-0.5,1.1-0.8,2-1,2.7
			c-0.2,0.7-0.2,1.3-0.2,1.7c0.1,0.4,0.2,0.8,0.4,1c0.2,0.2,0.5,0.4,0.7,0.5h-5.5c0.3-0.1,0.6-0.2,0.9-0.5c0.3-0.2,0.6-0.7,1.1-1.3
			c0.4-0.6,0.9-1.5,1.5-2.6C52.2,41.9,53,40.4,53.8,38.6z M77.5,29.7L68.3,10l-9.2,19.7H77.5z"/>
		<path class="st0" d="M100.7,42V19c0-0.9,0-1.6-0.1-2.3c-0.1-0.6-0.2-1.2-0.3-1.7c-0.1-0.5-0.3-1-0.5-1.4c-0.2-0.4-0.5-0.8-0.8-1.2
			l6.4-0.6v9.8c1-3,2.6-5.4,4.8-7.2c2.2-1.7,5-2.6,8.3-2.6c3.6,0,6.5,0.9,8.6,2.8c2.1,1.8,3.3,4.3,3.7,7.3c1-3.1,2.5-5.6,4.8-7.3
			c2.2-1.8,5-2.7,8.4-2.7c2,0,3.7,0.3,5.2,0.8s2.8,1.4,3.9,2.4c1.1,1,1.9,2.3,2.4,3.7c0.6,1.4,0.8,3,0.8,4.7V42
			c0,0.9,0.1,1.6,0.2,2.2c0.1,0.6,0.3,1.1,0.5,1.5c0.2,0.4,0.6,0.7,1,1c0.4,0.2,0.9,0.5,1.6,0.7h-11.1c0.7-0.2,1.2-0.4,1.6-0.7
			c0.4-0.2,0.7-0.6,1-1c0.2-0.4,0.4-0.9,0.5-1.5c0.1-0.6,0.1-1.4,0.1-2.2V22.9c0-3.1-0.7-5.6-2.2-7.4c-1.5-1.8-3.6-2.7-6.5-2.7
			c-1.5,0-2.9,0.3-4.3,0.9c-1.4,0.6-2.6,1.5-3.8,2.7s-2,2.6-2.8,4.3c-0.7,1.7-1.2,3.7-1.3,5.9V42c0,0.9,0.1,1.6,0.2,2.2
			c0.1,0.6,0.3,1.1,0.5,1.5c0.2,0.4,0.6,0.7,1,1c0.4,0.2,0.9,0.5,1.6,0.7h-11.1c0.7-0.2,1.2-0.4,1.6-0.7c0.4-0.2,0.7-0.6,1-1
			s0.4-0.9,0.5-1.5c0.1-0.6,0.1-1.4,0.1-2.2V22.9c0-3.1-0.7-5.6-2.2-7.4c-1.5-1.8-3.6-2.7-6.4-2.7c-1.5,0-2.9,0.3-4.3,0.9
			c-1.4,0.6-2.6,1.5-3.8,2.7c-1.1,1.2-2,2.6-2.8,4.3c-0.7,1.7-1.2,3.7-1.3,5.9V42c0,0.9,0.1,1.6,0.2,2.2c0.1,0.6,0.3,1.1,0.5,1.5
			c0.2,0.4,0.6,0.7,1,1c0.4,0.2,0.9,0.5,1.6,0.7H97.4c0.7-0.2,1.2-0.4,1.6-0.7c0.4-0.2,0.7-0.6,1-1c0.2-0.4,0.4-0.9,0.5-1.5
			C100.6,43.6,100.7,42.9,100.7,42z"/>
		<path class="st0" d="M165.3,1l6.2-0.7v15.9c0.7-0.9,1.6-1.6,2.4-2.1s1.8-1,2.6-1.3c0.9-0.3,1.8-0.5,2.7-0.6
			c0.9-0.1,1.7-0.2,2.5-0.2c2.7,0,5.1,0.4,7.3,1.2c2.2,0.8,4,2,5.5,3.4c1.5,1.5,2.7,3.2,3.5,5.3c0.8,2.1,1.2,4.4,1.2,7
			c0,2.6-0.4,5.1-1.3,7.3c-0.9,2.3-2.1,4.3-3.7,6c-1.6,1.7-3.5,3.1-5.6,4c-2.2,1-4.6,1.5-7.1,1.5c-4.4,0-8.1-1.4-11.1-4.3l-3.4,4.1
			l-0.2-0.1v-42c0-1.3-0.1-2.2-0.3-2.8C166.3,2.1,165.9,1.5,165.3,1z M181.9,46.7c2,0,3.7-0.4,5.3-1.2c1.6-0.8,2.9-1.8,4-3.2
			c1.1-1.4,1.9-3,2.5-4.9c0.6-1.9,0.9-3.9,0.9-6.1c0-2.5-0.3-4.8-0.9-7.1c-0.6-2.2-1.5-4.2-2.6-5.8c-1.2-1.7-2.6-3-4.4-4
			c-1.7-1-3.8-1.5-6-1.5c-1.5,0-3.1,0.3-4.8,0.9c-1.7,0.6-3.1,1.8-4.4,3.5v22.3c1.2,2.3,2.7,4.1,4.4,5.3
			C177.5,46.1,179.6,46.7,181.9,46.7z"/>
		<path class="st0" d="M221.8,11.9c2.5,0,4.7,0.4,6.5,1.1c1.8,0.7,3.4,1.7,4.6,3c1.2,1.3,2.1,2.8,2.7,4.5c0.6,1.7,0.9,3.7,1,5.7
			h-26.2c-0.1,0.6-0.1,1.3-0.2,1.9c0,0.6-0.1,1.3-0.1,2c0,2.4,0.3,4.6,1,6.6c0.6,2.1,1.5,3.8,2.7,5.3c1.1,1.5,2.5,2.7,4.1,3.5
			c1.6,0.9,3.3,1.3,5.2,1.3c1.7,0,3.2-0.3,4.5-0.9c1.3-0.6,2.6-1.5,3.7-2.6s2.1-2.5,3-4c0.9-1.6,1.7-3.3,2.3-5.1l-0.6,9
			c-1.8,1.5-3.9,2.7-6.2,3.4c-2.3,0.7-4.6,1.1-6.8,1.1c-2.6,0-5-0.4-7.2-1.3c-2.2-0.9-4.1-2-5.7-3.6c-1.6-1.5-2.8-3.4-3.7-5.6
			c-0.9-2.2-1.3-4.6-1.3-7.3c0-2.6,0.4-5,1.2-7.2c0.8-2.2,1.9-4.1,3.3-5.7c1.5-1.6,3.2-2.9,5.3-3.8
			C216.9,12.4,219.2,11.9,221.8,11.9z M210.5,25.5h21.2c0-1.8-0.3-3.5-0.7-5c-0.5-1.5-1.1-2.9-1.9-4c-0.8-1.2-1.9-2.1-3.1-2.7
			c-1.2-0.6-2.6-1-4.2-1c-1.5,0-2.9,0.3-4.1,0.9c-1.2,0.6-2.4,1.5-3.3,2.6c-1,1.1-1.8,2.5-2.4,4C211.2,21.9,210.8,23.6,210.5,25.5z"
			/>
		<path class="st0" d="M243,47.4c0.7-0.2,1.2-0.4,1.6-0.7c0.4-0.2,0.7-0.6,1-1c0.2-0.4,0.4-0.9,0.5-1.5c0.1-0.6,0.1-1.4,0.1-2.2V19
			c0-0.9,0-1.6-0.1-2.3c-0.1-0.6-0.2-1.2-0.3-1.7c-0.1-0.5-0.3-1-0.5-1.4c-0.2-0.4-0.5-0.8-0.8-1.2l6.3-0.6v8.3
			c0.5-1.2,1.1-2.2,1.7-3.2c0.6-1,1.3-1.9,2.2-2.6c0.8-0.7,1.8-1.3,2.9-1.7c1.1-0.4,2.4-0.6,3.8-0.6c1.3,0,2.5,0.1,3.5,0.4l-0.1,6
			c-0.4-0.5-0.8-0.9-1.3-1.4c-0.5-0.5-1.1-1-1.7-1.4c-0.6-0.4-1.2-0.8-1.8-1c-0.6-0.3-1.3-0.4-1.9-0.4c-0.8,0-1.6,0.2-2.3,0.6
			c-0.7,0.4-1.4,1-2,1.7c-0.6,0.7-1.2,1.5-1.7,2.4c-0.5,0.9-0.9,1.9-1.3,3V42c0,0.9,0.1,1.6,0.2,2.2c0.1,0.6,0.3,1.1,0.5,1.5
			c0.2,0.4,0.6,0.7,1,1c0.4,0.2,0.9,0.5,1.6,0.7H243z"/>
		<path class="st0" d="M294.2,41.9V9.6c0-0.9-0.1-1.7-0.2-2.3c-0.1-0.6-0.3-1.1-0.5-1.5s-0.6-0.8-1-1c-0.4-0.3-1-0.5-1.7-0.7h6
			l18.7,37.7l16.3-37.7h7.5c-1.3,0.4-2.2,1-2.6,1.7c-0.5,0.7-0.7,2-0.7,3.8v32.3c0,1.8,0.2,3,0.7,3.8c0.5,0.7,1.4,1.3,2.6,1.7h-11.4
			c1.3-0.4,2.2-0.9,2.7-1.7s0.7-2,0.7-3.8V8.4l-17.1,39.1h-0.7l-18.2-36.6v31.1c0,1.8,0.2,3,0.7,3.8c0.5,0.7,1.4,1.3,2.6,1.7h-7.8
			c1.3-0.4,2.2-0.9,2.7-1.7S294.2,43.7,294.2,41.9z"/>
		<path class="st0" d="M363.9,11.9c2.7,0,5.1,0.4,7.3,1.3c2.2,0.9,4.1,2.1,5.6,3.7c1.6,1.6,2.8,3.5,3.7,5.7s1.3,4.6,1.3,7.2v0.1
			c0,2.6-0.4,5-1.3,7.2s-2.1,4.1-3.7,5.7c-1.6,1.6-3.5,2.8-5.6,3.7c-2.2,0.9-4.6,1.3-7.3,1.3c-2.7,0-5.1-0.4-7.3-1.3
			c-2.2-0.9-4.1-2.1-5.6-3.7s-2.8-3.5-3.7-5.7c-0.9-2.2-1.3-4.6-1.3-7.2v-0.1c0-2.6,0.4-5,1.3-7.2c0.9-2.2,2.1-4.1,3.7-5.7
			c1.6-1.6,3.5-2.8,5.6-3.7C358.9,12.4,361.3,11.9,363.9,11.9z M351.1,29.8c0,2.5,0.3,4.8,0.9,6.9c0.6,2.1,1.5,3.9,2.6,5.4
			c1.1,1.5,2.5,2.7,4,3.5c1.6,0.8,3.3,1.2,5.2,1.2c1.9,0,3.7-0.4,5.2-1.2c1.6-0.8,2.9-2,4-3.5c1.1-1.5,2-3.3,2.6-5.4
			c0.6-2.1,0.9-4.4,0.9-6.9s-0.3-4.8-0.9-6.9c-0.6-2.1-1.5-3.9-2.6-5.4s-2.5-2.7-4-3.5c-1.6-0.8-3.3-1.2-5.2-1.2
			c-1.9,0-3.7,0.4-5.2,1.2c-1.6,0.8-2.9,2-4,3.5s-2,3.3-2.6,5.4C351.4,25,351.1,27.3,351.1,29.8z"/>
		<path class="st0" d="M405.7,11.9c2.7,0,5.1,0.4,7.3,1.3c2.2,0.9,4.1,2.1,5.6,3.7c1.6,1.6,2.8,3.5,3.7,5.7s1.3,4.6,1.3,7.2v0.1
			c0,2.6-0.4,5-1.3,7.2s-2.1,4.1-3.7,5.7c-1.6,1.6-3.5,2.8-5.6,3.7c-2.2,0.9-4.6,1.3-7.3,1.3c-2.7,0-5.1-0.4-7.3-1.3
			c-2.2-0.9-4.1-2.1-5.6-3.7s-2.8-3.5-3.7-5.7c-0.9-2.2-1.3-4.6-1.3-7.2v-0.1c0-2.6,0.4-5,1.3-7.2c0.9-2.2,2.1-4.1,3.7-5.7
			c1.6-1.6,3.5-2.8,5.6-3.7C400.6,12.4,403.1,11.9,405.7,11.9z M392.9,29.8c0,2.5,0.3,4.8,0.9,6.9c0.6,2.1,1.5,3.9,2.6,5.4
			c1.1,1.5,2.5,2.7,4,3.5c1.6,0.8,3.3,1.2,5.2,1.2c1.9,0,3.7-0.4,5.2-1.2c1.6-0.8,2.9-2,4-3.5c1.1-1.5,2-3.3,2.6-5.4
			c0.6-2.1,0.9-4.4,0.9-6.9s-0.3-4.8-0.9-6.9c-0.6-2.1-1.5-3.9-2.6-5.4s-2.5-2.7-4-3.5c-1.6-0.8-3.3-1.2-5.2-1.2
			c-1.9,0-3.7,0.4-5.2,1.2c-1.6,0.8-2.9,2-4,3.5s-2,3.3-2.6,5.4C393.2,25,392.9,27.3,392.9,29.8z"/>
		<path class="st0" d="M446.5,11.9c2,0,3.8,0.3,5.5,0.9c1.7,0.6,3.2,1.5,4.6,2.7V5.4c0-1.3-0.1-2.2-0.3-2.8
			c-0.2-0.6-0.6-1.1-1.2-1.6l6.2-0.7v41c0,1.8,0.1,3.1,0.4,4c0.3,0.9,0.7,1.6,1.3,2.1l-6.1,0.2v-4.8c-1.3,1.7-2.8,3-4.7,3.8
			c-1.8,0.8-3.7,1.2-5.5,1.2c-2.6,0-5-0.4-7.1-1.3c-2.1-0.9-4-2.1-5.5-3.6c-1.5-1.5-2.7-3.3-3.5-5.4c-0.8-2.1-1.2-4.3-1.2-6.7
			c0-2.8,0.4-5.3,1.3-7.6c0.9-2.3,2-4.3,3.6-5.9c1.5-1.7,3.4-2.9,5.5-3.9C441.7,12.4,444,11.9,446.5,11.9z M434.1,28.2
			c0,2.5,0.3,4.9,0.9,7.2c0.6,2.2,1.5,4.2,2.7,5.9c1.2,1.7,2.6,3,4.3,4c1.7,1,3.6,1.5,5.8,1.5c1.8,0,3.4-0.4,4.9-1.3
			c1.5-0.9,2.8-2.1,3.9-3.7V20.5c-1.1-2.6-2.5-4.5-4.3-5.7c-1.8-1.2-3.9-1.8-6.2-1.8c-1.9,0-3.5,0.4-5,1.1s-2.7,1.8-3.7,3.1
			c-1,1.3-1.8,2.9-2.4,4.8C434.4,23.8,434.1,25.9,434.1,28.2z"/>
	</g>
	<g>
		<g>
			<path class="st0" d="M0,17.6c0-1.6,0.2-3.1,0.6-4.5c0.4-1.3,0.9-2.5,1.6-3.4C2.9,8.8,3.7,8,4.6,7.5c1-0.5,2-0.8,3.2-0.8
				c1.2,0,2.3,0.3,3.2,0.8c1,0.5,1.8,1.3,2.5,2.2c0.7,0.9,1.2,2.1,1.6,3.4c0.4,1.3,0.6,2.8,0.6,4.5c0,1.6-0.2,3.1-0.6,4.4
				c-0.4,1.3-0.9,2.5-1.6,3.4c-0.7,0.9-1.5,1.7-2.5,2.2c-1,0.5-2,0.8-3.2,0.8c-1.2,0-2.2-0.3-3.2-0.8c-1-0.5-1.8-1.3-2.5-2.2
				C1.5,24.5,1,23.3,0.6,22C0.2,20.7,0,19.2,0,17.6z M2.6,17.6c0,3.3,0.4,5.8,1.3,7.6c0.9,1.8,2.2,2.7,3.9,2.7c1.7,0,3-0.9,3.9-2.7
				c0.9-1.8,1.3-4.4,1.3-7.6c0-3.3-0.4-5.8-1.3-7.6c-0.9-1.8-2.2-2.7-3.9-2.7c-1.7,0-3,0.9-3.9,2.7C3.1,11.8,2.6,14.3,2.6,17.6z"/>
			<path class="st0" d="M18.5,28c1.8-1.8,3.3-3.4,4.6-4.9s2.4-2.9,3.2-4.1c0.8-1.3,1.4-2.5,1.8-3.6s0.6-2.2,0.6-3.3
				c0-1.6-0.3-2.8-1-3.6S26.1,7.2,25,7.2c-0.5,0-1,0.1-1.6,0.3c-0.6,0.2-1.1,0.6-1.6,1.2c-0.5,0.6-1,1.3-1.5,2.2
				c-0.5,0.9-0.9,2.2-1.2,3.6l0.3-6c0.9-0.6,1.8-1,2.8-1.4c0.9-0.3,2-0.5,3.1-0.5c1.9,0,3.5,0.4,4.5,1.3c1.1,0.8,1.6,1.9,1.6,3.3
				c0,0.9-0.2,1.8-0.7,2.9c-0.5,1-1.2,2.2-2.1,3.4c-0.9,1.2-2,2.6-3.3,4c-1.3,1.4-2.8,3-4.6,4.7h6.6c0.8,0,1.4,0,2-0.1
				c0.5-0.1,1-0.2,1.3-0.4s0.7-0.5,0.9-0.8c0.2-0.3,0.5-0.8,0.7-1.4L32,28.3H18.6L18.5,28z"/>
		</g>
		<line class="st1" x1="1" y1="37.4" x2="31.8" y2="37.4"/>
	</g>
</g>
</svg>
