<?xml version="1.0" encoding="utf-8"?>
<!-- Generator: Adobe Illustrator 25.4.1, SVG Export Plug-In . SVG Version: 6.00 Build 0)  -->
<svg version="1.1" id="レイヤー_1" xmlns="http://www.w3.org/2000/svg" xmlns:xlink="http://www.w3.org/1999/xlink" x="0px"
	 y="0px" viewBox="0 0 16 113" style="enable-background:new 0 0 16 113;" xml:space="preserve">
<style type="text/css">
	.st0{fill:#C04359;}
</style>
<g>
	<g>
		<path class="st0" d="M14.9,0v2L2.7,12.6H13c0.3,0,0.6,0,0.8-0.1s0.4-0.1,0.5-0.2c0.1-0.1,0.3-0.2,0.4-0.4c0.1-0.1,0.2-0.3,0.2-0.6
			v2.7c-0.1-0.4-0.3-0.7-0.6-0.9c-0.2-0.2-0.7-0.2-1.3-0.2H0.2v-0.1l13-11.2H2c-0.6,0-1,0.1-1.3,0.2C0.5,2,0.3,2.3,0.2,2.7V0
			C0.3,0.5,0.5,0.8,0.7,1C1,1.1,1.4,1.2,2,1.2h11c0.3,0,0.6,0,0.8-0.1S14.2,1,14.3,1c0.1-0.1,0.3-0.2,0.4-0.4
			C14.8,0.5,14.8,0.3,14.9,0z"/>
		<path class="st0" d="M12.3,22.8c0,0.8-0.1,1.6-0.4,2.2c-0.2,0.6-0.6,1.1-1,1.6s-1,0.7-1.5,0.9s-1.2,0.3-2,0.3v-8.9
			c-0.2,0-0.4,0-0.6-0.1c-0.2,0-0.4,0-0.7,0c-0.8,0-1.6,0.1-2.3,0.3c-0.7,0.2-1.3,0.5-1.8,0.9s-0.9,0.9-1.2,1.4
			c-0.3,0.5-0.4,1.1-0.4,1.8c0,0.6,0.1,1.1,0.3,1.5c0.2,0.5,0.5,0.9,0.9,1.3s0.8,0.7,1.4,1s1.1,0.6,1.7,0.8l-3.1-0.2
			c-0.5-0.6-0.9-1.3-1.2-2.1c-0.2-0.8-0.4-1.6-0.4-2.3c0-0.9,0.1-1.7,0.4-2.5c0.3-0.7,0.7-1.4,1.2-1.9s1.2-1,1.9-1.3
			c0.7-0.3,1.6-0.4,2.5-0.4c0.9,0,1.7,0.1,2.5,0.4c0.7,0.3,1.4,0.6,2,1.1c0.6,0.5,1,1.1,1.3,1.8C12.1,21.2,12.3,21.9,12.3,22.8z
			 M7.6,19v7.2c0.6,0,1.2-0.1,1.7-0.3c0.5-0.2,1-0.4,1.4-0.7c0.4-0.3,0.7-0.6,0.9-1c0.2-0.4,0.3-0.9,0.3-1.4c0-0.5-0.1-1-0.3-1.4
			c-0.2-0.4-0.5-0.8-0.9-1.1c-0.4-0.3-0.8-0.6-1.4-0.8C8.8,19.2,8.3,19.1,7.6,19z"/>
		<path class="st0" d="M12.1,33.2c-0.1-0.1-0.2-0.2-0.4-0.3c-0.2-0.1-0.5,0-0.9,0.1l-8.3,3l9.6,3v0.2L2.4,43l7.1,2.3
			c0.6,0.2,1,0.3,1.4,0.3c0.3,0,0.6,0,0.8-0.1c0.2-0.1,0.3-0.1,0.3-0.2c0.1-0.1,0.1-0.2,0.1-0.3v2.1c-0.1-0.2-0.3-0.4-0.5-0.6
			s-0.7-0.4-1.3-0.6L0.2,42.6v-0.3l9.6-3.8l-9.6-3v-0.3l10.1-3.7c0.6-0.2,1.1-0.4,1.4-0.6c0.3-0.2,0.4-0.3,0.5-0.5V33.2z"/>
		<path class="st0" d="M0.2,57.6c0.1,0.5,0.3,0.8,0.6,0.9C1,58.7,1.4,58.7,2,58.7h11c0.3,0,0.6,0,0.8-0.1s0.4-0.1,0.5-0.2
			c0.1-0.1,0.3-0.2,0.4-0.4c0.1-0.1,0.2-0.3,0.2-0.6v4.8c0,1.7-0.3,3-0.9,4c-0.6,1-1.5,1.5-2.6,1.5c-0.9,0-1.7-0.4-2.4-1.1
			c-0.6-0.7-1.1-1.7-1.3-2.9c-0.2,1.4-0.6,2.5-1.2,3.3C6,68,5.2,68.4,4.2,68.4c-0.6,0-1.2-0.1-1.7-0.4c-0.5-0.3-0.9-0.6-1.3-1.1
			c-0.3-0.5-0.6-1-0.8-1.7c-0.2-0.7-0.3-1.4-0.3-2.3V57.6z M0.5,60.3v2.3c0,1.3,0.3,2.3,1,3s1.5,1.1,2.7,1.1c1.1,0,2-0.4,2.6-1.1
			c0.6-0.7,0.9-1.7,0.9-2.9v-2.4H0.5z M7.9,60.3v2.3c0,1.1,0.3,2,0.9,2.6s1.4,1,2.4,1c1.1,0,1.9-0.3,2.4-1c0.6-0.7,0.8-1.7,0.8-3
			v-1.8H7.9z"/>
		<path class="st0" d="M6.7,76.7L7.3,79h1.5c1.1,0,1.8-0.2,2.3-0.6c0.5-0.4,0.8-1,0.8-1.9c0-0.4-0.1-0.8-0.2-1.2s-0.4-0.8-0.7-1.2
			c-0.3-0.4-0.8-0.7-1.4-1s-1.3-0.6-2.2-0.8l3.5-0.1c0.4,0.5,0.7,1.2,1,1.9c0.2,0.8,0.4,1.5,0.4,2.4c0,1.2-0.3,2.2-0.9,3
			c-0.6,0.7-1.5,1.1-2.6,1.1H2c-0.4,0-0.8,0-1.1,0.1c-0.3,0.1-0.6,0.2-0.8,0.5l-0.1-2.1h2.8c-0.4-0.1-0.7-0.3-1-0.5
			c-0.3-0.2-0.6-0.5-0.9-0.8c-0.3-0.3-0.5-0.7-0.6-1.1s-0.2-0.9-0.2-1.5c0-0.5,0.1-1,0.2-1.4c0.1-0.4,0.3-0.8,0.5-1.1
			C1,72.2,1.3,72,1.6,71.8c0.3-0.2,0.8-0.3,1.2-0.3c0.6,0,1.2,0.2,1.6,0.5c0.4,0.3,0.8,0.8,1.1,1.3c0.3,0.5,0.5,1.1,0.7,1.7
			S6.6,76.2,6.7,76.7z M2.9,73.2c-0.7,0-1.3,0.2-1.8,0.6c-0.5,0.4-0.7,0.9-0.7,1.6c0,0.4,0.1,0.8,0.3,1.2c0.2,0.4,0.4,0.8,0.8,1.1
			c0.3,0.3,0.7,0.6,1.2,0.8C3.1,78.9,3.7,79,4.4,79H7l-0.6-2.3c-0.1-0.3-0.2-0.6-0.3-1s-0.3-0.8-0.6-1.1c-0.3-0.4-0.6-0.7-1-0.9
			C4.1,73.4,3.5,73.2,2.9,73.2z"/>
		<path class="st0" d="M1.3,84.2l4,0.3c-1,0.1-1.8,0.2-2.4,0.5s-1.1,0.5-1.5,0.9c-0.4,0.3-0.6,0.7-0.8,1.2c-0.2,0.4-0.2,0.9-0.2,1.4
			c0,1.1,0.3,1.8,0.8,2.3c0.5,0.5,1.1,0.8,1.9,0.8c0.4,0,0.8-0.1,1.1-0.2c0.3-0.2,0.5-0.3,0.7-0.6c0.2-0.2,0.3-0.5,0.4-0.7
			c0.1-0.3,0.2-0.5,0.3-0.7l0.8-2.3c0.1-0.2,0.2-0.5,0.3-0.8s0.3-0.6,0.6-0.8s0.5-0.5,0.9-0.6c0.3-0.2,0.8-0.3,1.2-0.3
			c0.9,0,1.7,0.3,2.2,1s0.8,1.6,0.8,2.8c0,0.8-0.1,1.5-0.4,2.1c-0.2,0.6-0.6,1.2-1,1.7l-2.9-0.1c1.4-0.4,2.4-0.8,3-1.4
			c0.6-0.6,0.9-1.3,0.9-2.3c0-0.8-0.2-1.4-0.5-1.9c-0.4-0.5-0.9-0.8-1.7-0.8c-0.3,0-0.6,0.1-0.8,0.2c-0.2,0.1-0.4,0.3-0.6,0.5
			S8.1,86.9,8,87.1c-0.1,0.2-0.2,0.5-0.2,0.7l-0.7,2.1c-0.1,0.3-0.2,0.6-0.4,0.9c-0.2,0.3-0.4,0.7-0.6,1c-0.3,0.3-0.6,0.6-1,0.8
			c-0.4,0.2-0.9,0.3-1.4,0.3c-0.5,0-1-0.1-1.4-0.3c-0.4-0.2-0.8-0.5-1.1-0.9c-0.3-0.4-0.6-0.9-0.8-1.4c-0.2-0.6-0.3-1.2-0.3-1.9
			c0-0.8,0.1-1.6,0.3-2.3C0.6,85.3,0.9,84.7,1.3,84.2z"/>
		<path class="st0" d="M0.2,95.7c0.1,0.2,0.1,0.4,0.2,0.6c0.1,0.1,0.2,0.3,0.3,0.3c0.1,0.1,0.3,0.1,0.5,0.2s0.5,0,0.8,0h7.8
			c0.3,0,0.6,0,0.8,0c0.2,0,0.4-0.1,0.6-0.1c0.2,0,0.3-0.1,0.5-0.2c0.1-0.1,0.3-0.2,0.4-0.3l0.2,2.2H2c-0.3,0-0.5,0-0.8,0.1
			c-0.2,0-0.4,0.1-0.5,0.2c-0.1,0.1-0.3,0.2-0.3,0.3c-0.1,0.1-0.2,0.3-0.2,0.5V95.7z M15.9,97.6c0,0.3-0.1,0.6-0.3,0.8
			c-0.2,0.2-0.4,0.3-0.8,0.3s-0.6-0.1-0.8-0.3c-0.2-0.2-0.3-0.5-0.3-0.8c0-0.3,0.1-0.6,0.3-0.8c0.2-0.2,0.5-0.3,0.8-0.3
			s0.6,0.1,0.8,0.3C15.8,97,15.9,97.3,15.9,97.6z"/>
		<path class="st0" d="M12.3,108.1c0,0.9-0.2,1.8-0.5,2.6c-0.3,0.8-0.7,1.5-1.2,2.1l-3.4-0.7c0.9-0.1,1.6-0.3,2.2-0.5
			s1.1-0.6,1.5-0.9c0.4-0.4,0.6-0.8,0.8-1.2c0.2-0.4,0.2-0.9,0.2-1.3c0-0.6-0.1-1.2-0.4-1.7c-0.3-0.5-0.7-0.9-1.2-1.3
			c-0.5-0.4-1.1-0.6-1.8-0.8S7,104,6.2,104c-0.9,0-1.7,0.1-2.4,0.3c-0.7,0.2-1.3,0.5-1.8,0.9s-0.9,0.8-1.2,1.4
			c-0.3,0.5-0.4,1.1-0.4,1.7c0,1.1,0.4,2,1.2,2.8s2,1.4,3.5,1.8l-3.5-0.1c-0.3-0.3-0.5-0.7-0.7-1.1s-0.3-0.8-0.5-1.2
			s-0.2-0.8-0.2-1.2s-0.1-0.7-0.1-1.1c0-0.9,0.1-1.7,0.4-2.4c0.3-0.7,0.7-1.4,1.2-1.9c0.5-0.5,1.2-0.9,1.9-1.3s1.6-0.5,2.5-0.5
			c0.9,0,1.7,0.1,2.4,0.4c0.7,0.3,1.4,0.7,1.9,1.2c0.5,0.5,1,1.1,1.3,1.8S12.3,107.3,12.3,108.1z"/>
	</g>
</g>
</svg>
