<?xml version="1.0" encoding="utf-8"?>
<!-- Generator: Adobe Illustrator 25.4.1, SVG Export Plug-In . SVG Version: 6.00 Build 0)  -->
<svg version="1.1" id="レイヤー_1" xmlns="http://www.w3.org/2000/svg" xmlns:xlink="http://www.w3.org/1999/xlink" x="0px"
	 y="0px" viewBox="0 0 455 121" style="enable-background:new 0 0 455 121;" xml:space="preserve">
<style type="text/css">
	.st0{fill:#FFFFFF;}
	.st1{fill:none;stroke:#FFFFFF;stroke-width:2;stroke-miterlimit:10;}
</style>
<g>
	<g>
		<g>
			<path class="st0" d="M56.8,48.7V11c0-1.1-0.1-2-0.2-2.7C56.5,7.6,56.3,7,56,6.5c-0.3-0.5-0.7-0.9-1.2-1.2
				c-0.5-0.3-1.2-0.6-1.9-0.8h17.7c2.3,0,4.6,0.2,6.8,0.7c2.2,0.4,4.2,1.2,5.9,2.1c1.7,1,3.1,2.3,4.1,3.9c1,1.6,1.6,3.6,1.6,5.9
				c0,2-0.4,3.8-1.2,5.4c-0.8,1.6-1.9,2.9-3.2,4.1c-1.4,1.1-2.9,2-4.7,2.7c-1.7,0.7-3.6,1.2-5.5,1.5l11.8,14.2
				c0.7,0.8,1.6,1.8,2.5,2.9c0.9,1.1,1.9,2.1,2.8,3.2c0.9,1,1.7,1.9,2.5,2.7c0.7,0.8,1.2,1.2,1.5,1.3h-9.7c0-0.7-0.1-1.3-0.3-2
				c-0.2-0.7-0.5-1.3-1-2c-0.4-0.7-1-1.4-1.6-2.3c-0.6-0.8-1.4-1.7-2.2-2.8l-12.1-15h-6.3v17.6c0,2.1,0.3,3.6,0.8,4.4
				c0.6,0.8,1.6,1.5,3.1,2H52.8c1.6-0.4,2.6-1.1,3.1-2C56.5,52.3,56.8,50.8,56.8,48.7z M62.3,30h7.3c4.3,0,7.6-1.1,10-3.2
				c2.4-2.2,3.6-5.2,3.6-9.3c0-2.2-0.4-4.1-1.2-5.6c-0.8-1.5-1.8-2.7-3.1-3.6c-1.3-0.9-2.8-1.5-4.5-1.9c-1.7-0.4-3.6-0.6-5.5-0.6
				h-6.6V30z"/>
			<path class="st0" d="M122.8,13.7c3.1,0,5.9,0.5,8.5,1.5s4.7,2.5,6.6,4.3c1.8,1.9,3.3,4.1,4.3,6.6c1,2.5,1.5,5.3,1.5,8.4v0.1
				c0,3.1-0.5,5.9-1.5,8.4c-1,2.5-2.4,4.8-4.3,6.6c-1.8,1.9-4,3.3-6.6,4.3s-5.4,1.5-8.5,1.5c-3.1,0-5.9-0.5-8.5-1.5
				c-2.5-1-4.7-2.5-6.6-4.3c-1.8-1.9-3.3-4.1-4.3-6.6c-1-2.5-1.5-5.3-1.5-8.4v-0.1c0-3.1,0.5-5.9,1.5-8.4c1-2.5,2.4-4.7,4.3-6.6
				c1.8-1.9,4-3.3,6.6-4.3C116.9,14.2,119.7,13.7,122.8,13.7z M107.9,34.5c0,2.9,0.4,5.6,1.1,8c0.7,2.4,1.7,4.5,3.1,6.3
				c1.3,1.8,2.9,3.1,4.7,4.1c1.8,1,3.9,1.5,6.1,1.5c2.2,0,4.3-0.5,6.1-1.5c1.8-1,3.4-2.3,4.7-4.1c1.3-1.8,2.3-3.9,3.1-6.3
				c0.7-2.4,1.1-5.1,1.1-8c0-2.9-0.4-5.6-1.1-8c-0.7-2.4-1.7-4.5-3.1-6.3c-1.3-1.7-2.9-3.1-4.7-4.1c-1.8-1-3.9-1.5-6.1-1.5
				c-2.2,0-4.3,0.5-6.1,1.5c-1.8,1-3.4,2.3-4.7,4.1s-2.3,3.8-3.1,6.3C108.2,29,107.9,31.6,107.9,34.5z"/>
			<path class="st0" d="M151,51.3l1.2-13.7c0.3,3.3,0.8,6,1.6,8.2s1.8,3.9,3,5.2c1.2,1.3,2.5,2.2,4.1,2.7c1.5,0.5,3.2,0.8,4.9,0.8
				c3.6,0,6.3-0.9,8-2.6c1.7-1.7,2.6-3.9,2.6-6.4c0-1.5-0.3-2.7-0.8-3.7c-0.5-1-1.2-1.8-1.9-2.5c-0.8-0.7-1.6-1.2-2.4-1.5
				c-0.9-0.4-1.7-0.7-2.4-0.9l-7.8-2.6c-0.8-0.2-1.6-0.6-2.6-1.1c-1-0.5-1.9-1.2-2.8-2c-0.9-0.8-1.6-1.8-2.2-3
				c-0.6-1.2-0.9-2.6-0.9-4.2c0-3.2,1.2-5.7,3.6-7.6c2.4-1.8,5.5-2.8,9.5-2.8c2.7,0,5.1,0.4,7.3,1.2c2.2,0.8,4.1,1.9,5.7,3.3L178,28
				c-1.2-4.7-2.8-8.2-4.8-10.2s-4.6-3.1-7.9-3.1c-2.6,0-4.8,0.6-6.5,1.9c-1.7,1.2-2.6,3.1-2.6,5.7c0,1.2,0.2,2.1,0.7,2.9
				c0.5,0.8,1.1,1.4,1.8,1.9c0.7,0.5,1.5,0.9,2.3,1.2c0.8,0.3,1.6,0.6,2.3,0.8l7.1,2.3c0.9,0.3,2,0.7,3.2,1.2
				c1.2,0.5,2.3,1.2,3.4,2.1c1.1,0.9,2,2,2.7,3.3c0.7,1.3,1.1,3,1.1,4.9c0,1.8-0.3,3.4-1,4.9c-0.7,1.5-1.7,2.8-3,3.9
				c-1.3,1.1-2.9,2-4.8,2.6c-1.9,0.6-4.1,0.9-6.7,0.9c-2.8,0-5.4-0.4-8-1.1C154.7,53.7,152.6,52.6,151,51.3z"/>
			<path class="st0" d="M195.5,14c-0.4,0.3-0.7,0.8-0.9,1.5c-0.2,0.7,0,1.9,0.7,3.6l12.1,29.7l11.6-29.6c0.4-0.9,0.6-1.7,0.5-2.3
				c0-0.6-0.2-1.1-0.4-1.5c-0.2-0.4-0.5-0.7-0.8-0.9c-0.3-0.2-0.5-0.4-0.7-0.5h6.7c-0.4,0.3-1,0.8-1.8,1.5c-0.8,0.7-1.5,1.9-2.2,3.6
				l-15.3,38.5c-0.3,0.8-0.8,1.8-1.3,2.8c-0.6,1.1-1.3,2.1-2.1,3.1s-1.9,1.9-3.1,2.7c-1.2,0.8-2.6,1.3-4.3,1.5l-2.5-7.2
				c1.8,1,3.6,1.5,5.3,1.5c1.7,0,3.2-0.5,4.7-1.6c1.4-1.1,2.5-2.7,3.3-4.9l-15.3-37c-0.6-1.5-1.2-2.6-1.7-3.2c-0.5-0.6-1-1-1.4-1.3
				H195.5z"/>
			<path class="st0" d="M258.1,48.7V11c0-1.1-0.1-2-0.2-2.7c-0.1-0.7-0.3-1.3-0.6-1.8c-0.3-0.5-0.7-0.9-1.2-1.2
				c-0.5-0.3-1.2-0.6-1.9-0.8h7l21.9,44.1l19-44.1h8.7c-1.5,0.5-2.5,1.2-3.1,2c-0.6,0.8-0.8,2.3-0.8,4.4v37.7c0,2.1,0.3,3.6,0.8,4.4
				c0.6,0.8,1.6,1.5,3.1,2h-13.3c1.6-0.4,2.6-1.1,3.1-2c0.5-0.9,0.8-2.3,0.8-4.4V9.5l-20,45.6h-0.9l-21.2-42.7v36.3
				c0,2.1,0.3,3.6,0.8,4.4c0.6,0.8,1.6,1.5,3.1,2h-9.1c1.6-0.4,2.6-1.1,3.1-2C257.9,52.3,258.1,50.8,258.1,48.7z"/>
			<path class="st0" d="M339.5,13.7c3.1,0,5.9,0.5,8.5,1.5s4.7,2.5,6.6,4.3c1.8,1.9,3.3,4.1,4.3,6.6c1,2.5,1.5,5.3,1.5,8.4v0.1
				c0,3.1-0.5,5.9-1.5,8.4c-1,2.5-2.4,4.8-4.3,6.6c-1.8,1.9-4,3.3-6.6,4.3s-5.4,1.5-8.5,1.5c-3.1,0-5.9-0.5-8.5-1.5
				c-2.5-1-4.7-2.5-6.6-4.3c-1.8-1.9-3.3-4.1-4.3-6.6c-1-2.5-1.5-5.3-1.5-8.4v-0.1c0-3.1,0.5-5.9,1.5-8.4c1-2.5,2.4-4.7,4.3-6.6
				c1.8-1.9,4-3.3,6.6-4.3C333.6,14.2,336.4,13.7,339.5,13.7z M324.6,34.5c0,2.9,0.4,5.6,1.1,8c0.7,2.4,1.7,4.5,3.1,6.3
				c1.3,1.8,2.9,3.1,4.7,4.1c1.8,1,3.9,1.5,6.1,1.5c2.2,0,4.3-0.5,6.1-1.5c1.8-1,3.4-2.3,4.7-4.1c1.3-1.8,2.3-3.9,3.1-6.3
				c0.7-2.4,1.1-5.1,1.1-8c0-2.9-0.4-5.6-1.1-8c-0.7-2.4-1.7-4.5-3.1-6.3c-1.3-1.7-2.9-3.1-4.7-4.1c-1.8-1-3.9-1.5-6.1-1.5
				c-2.2,0-4.3,0.5-6.1,1.5c-1.8,1-3.4,2.3-4.7,4.1s-2.3,3.8-3.1,6.3C324.9,29,324.6,31.6,324.6,34.5z"/>
			<path class="st0" d="M388.3,13.7c3.1,0,5.9,0.5,8.5,1.5s4.7,2.5,6.6,4.3c1.8,1.9,3.3,4.1,4.3,6.6c1,2.5,1.5,5.3,1.5,8.4v0.1
				c0,3.1-0.5,5.9-1.5,8.4c-1,2.5-2.4,4.8-4.3,6.6c-1.8,1.9-4,3.3-6.6,4.3s-5.4,1.5-8.5,1.5c-3.1,0-5.9-0.5-8.5-1.5
				c-2.5-1-4.7-2.5-6.6-4.3c-1.8-1.9-3.3-4.1-4.3-6.6c-1-2.5-1.5-5.3-1.5-8.4v-0.1c0-3.1,0.5-5.9,1.5-8.4c1-2.5,2.4-4.7,4.3-6.6
				c1.8-1.9,4-3.3,6.6-4.3C382.4,14.2,385.2,13.7,388.3,13.7z M373.4,34.5c0,2.9,0.4,5.6,1.1,8c0.7,2.4,1.7,4.5,3.1,6.3
				c1.3,1.8,2.9,3.1,4.7,4.1c1.8,1,3.9,1.5,6.1,1.5c2.2,0,4.3-0.5,6.1-1.5c1.8-1,3.4-2.3,4.7-4.1c1.3-1.8,2.3-3.9,3.1-6.3
				c0.7-2.4,1.1-5.1,1.1-8c0-2.9-0.4-5.6-1.1-8c-0.7-2.4-1.7-4.5-3.1-6.3c-1.3-1.7-2.9-3.1-4.7-4.1c-1.8-1-3.9-1.5-6.1-1.5
				c-2.2,0-4.3,0.5-6.1,1.5c-1.8,1-3.4,2.3-4.7,4.1s-2.3,3.8-3.1,6.3C373.7,29,373.4,31.6,373.4,34.5z"/>
			<path class="st0" d="M435.9,13.7c2.3,0,4.4,0.4,6.4,1.1c2,0.7,3.8,1.8,5.4,3.2V6.1c0-1.5-0.1-2.6-0.4-3.3
				c-0.2-0.7-0.7-1.3-1.5-1.9l7.2-0.9V48c0,2.1,0.2,3.6,0.5,4.6c0.3,1,0.8,1.8,1.5,2.5l-7.1,0.2v-5.6c-1.5,2-3.3,3.5-5.5,4.4
				c-2.1,0.9-4.3,1.3-6.5,1.3c-3.1,0-5.8-0.5-8.3-1.5c-2.5-1-4.6-2.4-6.4-4.2c-1.7-1.8-3.1-3.9-4.1-6.3c-1-2.4-1.5-5-1.5-7.9
				c0-3.2,0.5-6.2,1.5-8.9c1-2.7,2.4-5,4.2-6.9c1.8-1.9,3.9-3.4,6.4-4.5C430.4,14.2,433,13.7,435.9,13.7z M421.5,32.6
				c0,3,0.4,5.7,1.1,8.4c0.7,2.6,1.7,4.9,3.1,6.9c1.4,2,3.1,3.5,5.1,4.7c2,1.1,4.2,1.7,6.8,1.7c2.1,0,4-0.5,5.7-1.6
				c1.7-1,3.2-2.5,4.5-4.3V23.7c-1.3-3.1-2.9-5.3-5.1-6.7c-2.1-1.4-4.5-2.1-7.2-2.1c-2.2,0-4.1,0.4-5.9,1.3c-1.7,0.8-3.2,2-4.4,3.6
				c-1.2,1.6-2.1,3.4-2.8,5.6S421.5,30,421.5,32.6z"/>
		</g>
		<g>
			<g>
				<path class="st0" d="M-0.1,21.8c0-1.9,0.2-3.6,0.6-5.2s1-2.9,1.8-4c0.8-1.1,1.8-2,2.9-2.6C6.4,9.4,7.6,9.1,9,9.1
					c1.4,0,2.6,0.3,3.8,0.9c1.1,0.6,2.1,1.5,2.9,2.6c0.8,1.1,1.4,2.4,1.8,4s0.6,3.3,0.6,5.2c0,1.9-0.2,3.6-0.6,5.2s-1,2.9-1.8,4
					c-0.8,1.1-1.8,2-2.9,2.6c-1.1,0.6-2.4,0.9-3.8,0.9c-1.4,0-2.6-0.3-3.7-0.9c-1.1-0.6-2.1-1.5-2.9-2.6c-0.8-1.1-1.4-2.4-1.8-4
					S-0.1,23.7-0.1,21.8z M2.9,21.8c0,3.8,0.5,6.8,1.6,8.9c1,2.1,2.5,3.2,4.5,3.2c2,0,3.5-1.1,4.5-3.2c1-2.1,1.6-5.1,1.6-8.9
					c0-3.8-0.5-6.8-1.6-8.9c-1-2.1-2.6-3.2-4.5-3.2c-2,0-3.5,1.1-4.5,3.2C3.4,15,2.9,18,2.9,21.8z"/>
				<path class="st0" d="M27.4,9.2L27.4,9.2L27.5,30c0,0.8,0,1.4,0.1,1.9c0.1,0.5,0.2,0.9,0.3,1.2c0.1,0.3,0.3,0.5,0.6,0.7
					c0.2,0.2,0.5,0.3,0.9,0.4h-6.6c0.4-0.1,0.7-0.3,1-0.4s0.4-0.4,0.6-0.7c0.1-0.3,0.2-0.7,0.3-1.2c0.1-0.5,0.1-1.1,0.1-1.9V14.7
					c0-0.4,0-0.7-0.1-1c-0.1-0.3-0.2-0.6-0.5-0.8s-0.6-0.4-1.1-0.5c-0.5-0.1-1.2-0.2-2.1-0.2c1.5-0.4,2.7-0.8,3.6-1.3
					C25.6,10.4,26.5,9.8,27.4,9.2z"/>
			</g>
			<line class="st1" x1="1.3" y1="44.9" x2="30" y2="44.9"/>
		</g>
	</g>
	<g>
		<g>
			<path class="st0" d="M56.5,95.4c-0.8,0-1.5-0.2-2.1-0.5c-0.6-0.3-1.1-0.7-1.5-1.3l0.8-0.8c0.4,0.5,0.8,0.9,1.2,1.1
				c0.5,0.2,1,0.4,1.7,0.4c0.7,0,1.2-0.2,1.6-0.5c0.4-0.3,0.6-0.7,0.6-1.3c0-0.4-0.1-0.8-0.3-1c-0.2-0.3-0.4-0.5-0.8-0.7
				c-0.3-0.2-0.7-0.3-1-0.4s-0.7-0.3-1.1-0.4c-0.4-0.1-0.7-0.3-1-0.5c-0.3-0.2-0.6-0.5-0.8-0.8c-0.2-0.3-0.3-0.8-0.3-1.3
				c0-0.6,0.1-1,0.4-1.5c0.3-0.4,0.6-0.7,1.1-0.9c0.5-0.2,1-0.3,1.6-0.3c0.7,0,1.3,0.1,1.8,0.4s1,0.6,1.3,1.1L59,86.9
				c-0.3-0.4-0.7-0.7-1.1-0.9c-0.4-0.2-0.8-0.3-1.3-0.3c-0.6,0-1.1,0.1-1.5,0.4c-0.4,0.3-0.5,0.7-0.5,1.2c0,0.4,0.1,0.7,0.3,0.9
				s0.4,0.4,0.8,0.6c0.3,0.2,0.7,0.3,1,0.4c0.4,0.1,0.7,0.3,1.1,0.4s0.7,0.3,1,0.6s0.6,0.5,0.8,0.9c0.2,0.4,0.3,0.8,0.3,1.4
				c0,0.9-0.3,1.6-0.9,2.1C58.3,95.1,57.5,95.4,56.5,95.4z"/>
			<path class="st0" d="M62.3,95.2V84.5h1.1v10.7H62.3z M66.9,95.2l-3.6-3.7l3.6-3.5h1.3l-3.9,3.8l0-0.6l4,4H66.9z"/>
			<path class="st0" d="M70.8,86.6c-0.2,0-0.4-0.1-0.5-0.2c-0.1-0.2-0.2-0.3-0.2-0.5c0-0.2,0.1-0.4,0.2-0.5c0.1-0.1,0.3-0.2,0.5-0.2
				c0.2,0,0.4,0.1,0.5,0.2c0.1,0.1,0.2,0.3,0.2,0.5c0,0.2-0.1,0.4-0.2,0.5C71.2,86.5,71,86.6,70.8,86.6z M70.3,95.2v-7.1h1.1v7.1
				H70.3z"/>
			<path class="st0" d="M74.1,95.2v-7.1h1.1v7.1H74.1z M79.3,95.2V91c0-0.6-0.2-1.1-0.6-1.5c-0.4-0.4-0.9-0.6-1.5-0.6
				c-0.4,0-0.8,0.1-1.1,0.3s-0.6,0.4-0.7,0.7c-0.2,0.3-0.3,0.7-0.3,1.1l-0.5-0.3c0-0.5,0.1-1,0.4-1.4c0.3-0.4,0.6-0.8,1-1
				c0.4-0.2,0.9-0.4,1.5-0.4s1,0.1,1.5,0.4c0.4,0.3,0.8,0.6,1,1.1s0.4,0.9,0.4,1.5v4.4H79.3z"/>
			<path class="st0" d="M87,95.2V84.8h1.1v10.4H87z M87.8,95.2v-1h3.3c0.7,0,1.2-0.2,1.6-0.6c0.4-0.4,0.6-0.9,0.6-1.4
				c0-0.4-0.1-0.7-0.3-1s-0.4-0.5-0.7-0.7c-0.3-0.2-0.7-0.3-1.1-0.3h-3.4v-1H91c0.6,0,1-0.2,1.3-0.5c0.3-0.3,0.5-0.7,0.5-1.3
				c0-0.5-0.2-1-0.5-1.3c-0.4-0.3-0.8-0.5-1.4-0.5h-3.1v-1h3.1c0.6,0,1.2,0.1,1.7,0.3c0.5,0.2,0.8,0.5,1,0.9
				c0.2,0.4,0.3,0.8,0.3,1.3c0,0.6-0.2,1.1-0.5,1.5c-0.3,0.4-0.7,0.7-1.3,1l0.1-0.4c0.7,0.2,1.2,0.6,1.6,1c0.4,0.5,0.6,1.1,0.6,1.7
				c0,0.6-0.1,1.1-0.4,1.5c-0.3,0.4-0.7,0.8-1.2,1c-0.5,0.3-1.1,0.4-1.8,0.4H87.8z"/>
			<path class="st0" d="M100.1,95.4c-0.7,0-1.3-0.2-1.9-0.5s-1-0.8-1.3-1.3s-0.5-1.2-0.5-1.9c0-0.7,0.2-1.3,0.5-1.9
				c0.3-0.6,0.8-1,1.3-1.3c0.6-0.3,1.2-0.5,1.9-0.5c0.7,0,1.2,0.1,1.7,0.4c0.5,0.3,0.9,0.7,1.2,1.2c0.3,0.5,0.4,1.1,0.4,1.8
				c0,0.1,0,0.2,0,0.3c0,0.1,0,0.2-0.1,0.4h-6.2v-0.9h5.6l-0.4,0.3c0-0.5-0.1-1-0.3-1.3c-0.2-0.4-0.5-0.7-0.8-0.9
				c-0.3-0.2-0.8-0.3-1.2-0.3c-0.5,0-1,0.1-1.3,0.3c-0.4,0.2-0.7,0.5-0.9,0.9s-0.3,0.9-0.3,1.4c0,0.5,0.1,1,0.3,1.4
				c0.2,0.4,0.5,0.7,1,1c0.4,0.2,0.9,0.3,1.4,0.3c0.4,0,0.8-0.1,1.2-0.2c0.4-0.2,0.7-0.4,0.9-0.7l0.7,0.7c-0.3,0.4-0.7,0.7-1.2,0.9
				C101.2,95.3,100.7,95.4,100.1,95.4z"/>
			<path class="st0" d="M106.1,86.6c-0.2,0-0.4-0.1-0.5-0.2c-0.1-0.2-0.2-0.3-0.2-0.5c0-0.2,0.1-0.4,0.2-0.5
				c0.1-0.1,0.3-0.2,0.5-0.2c0.2,0,0.4,0.1,0.5,0.2c0.1,0.1,0.2,0.3,0.2,0.5c0,0.2-0.1,0.4-0.2,0.5
				C106.5,86.5,106.4,86.6,106.1,86.6z M105.6,95.2v-7.1h1.1v7.1H105.6z"/>
			<path class="st0" d="M112.4,95.1c-0.7,0-1.3-0.2-1.8-0.5c-0.5-0.3-0.9-0.7-1.2-1.3c-0.3-0.5-0.5-1.2-0.5-1.8s0.2-1.3,0.5-1.8
				c0.3-0.5,0.7-1,1.2-1.3c0.5-0.3,1.1-0.5,1.8-0.5c0.6,0,1.1,0.1,1.5,0.3s0.8,0.5,1.1,0.9s0.4,0.8,0.5,1.4v2
				c-0.1,0.5-0.2,1-0.5,1.4c-0.3,0.4-0.6,0.7-1.1,0.9S113,95.1,112.4,95.1z M112.4,98.4c-0.7,0-1.4-0.1-1.9-0.4
				c-0.6-0.3-1-0.6-1.4-1.1l0.7-0.7c0.3,0.4,0.6,0.7,1.1,0.9s0.9,0.3,1.5,0.3c0.8,0,1.5-0.2,1.9-0.7c0.5-0.4,0.7-1,0.7-1.8v-1.8
				l0.2-1.6l-0.2-1.6v-1.8h1.1v6.8c0,0.7-0.2,1.3-0.5,1.8s-0.8,0.9-1.3,1.2S113.1,98.4,112.4,98.4z M112.6,94.1
				c0.5,0,0.9-0.1,1.3-0.3c0.4-0.2,0.7-0.5,0.9-0.9c0.2-0.4,0.3-0.8,0.3-1.4c0-0.5-0.1-1-0.3-1.3c-0.2-0.4-0.5-0.7-0.9-0.9
				s-0.8-0.3-1.3-0.3c-0.5,0-0.9,0.1-1.3,0.3s-0.7,0.5-0.9,0.9c-0.2,0.4-0.3,0.8-0.3,1.3s0.1,1,0.3,1.3c0.2,0.4,0.5,0.7,0.9,0.9
				S112.1,94.1,112.6,94.1z"/>
			<path class="st0" d="M122.1,95.4c-0.7,0-1.3-0.2-1.9-0.5s-1-0.8-1.3-1.3s-0.5-1.2-0.5-1.9c0-0.7,0.2-1.3,0.5-1.9
				c0.3-0.6,0.8-1,1.3-1.3c0.6-0.3,1.2-0.5,1.9-0.5c0.7,0,1.2,0.1,1.7,0.4c0.5,0.3,0.9,0.7,1.2,1.2c0.3,0.5,0.4,1.1,0.4,1.8
				c0,0.1,0,0.2,0,0.3c0,0.1,0,0.2-0.1,0.4h-6.2v-0.9h5.6l-0.4,0.3c0-0.5-0.1-1-0.3-1.3c-0.2-0.4-0.5-0.7-0.8-0.9
				c-0.3-0.2-0.8-0.3-1.2-0.3c-0.5,0-1,0.1-1.3,0.3c-0.4,0.2-0.7,0.5-0.9,0.9s-0.3,0.9-0.3,1.4c0,0.5,0.1,1,0.3,1.4
				c0.2,0.4,0.5,0.7,1,1c0.4,0.2,0.9,0.3,1.4,0.3c0.4,0,0.8-0.1,1.2-0.2c0.4-0.2,0.7-0.4,0.9-0.7l0.7,0.7c-0.3,0.4-0.7,0.7-1.2,0.9
				C123.2,95.3,122.7,95.4,122.1,95.4z"/>
			<path class="st0" d="M131.6,96.8l0.9-1.7l0.4-0.1c0,0.1-0.1,0.2-0.2,0.2s-0.2,0.1-0.3,0.1c-0.2,0-0.4-0.1-0.5-0.2
				c-0.2-0.2-0.2-0.4-0.2-0.6c0-0.2,0.1-0.5,0.3-0.6c0.2-0.2,0.4-0.3,0.6-0.3c0.2,0,0.4,0.1,0.6,0.3s0.3,0.4,0.3,0.6
				c0,0.1,0,0.2-0.1,0.4c0,0.1-0.1,0.3-0.2,0.5l-0.9,1.7L131.6,96.8z"/>
			<path class="st0" d="M143,95.2V84.8h1.1v10.4H143z M143.7,91v-1h3.1c0.4,0,0.8-0.1,1.2-0.3c0.3-0.2,0.6-0.4,0.8-0.7
				s0.3-0.7,0.3-1.1s-0.1-0.8-0.3-1.1s-0.5-0.6-0.8-0.7s-0.7-0.3-1.2-0.3h-3.1v-1h3.2c0.6,0,1.2,0.1,1.7,0.4
				c0.5,0.3,0.9,0.6,1.2,1.1c0.3,0.5,0.4,1,0.4,1.6c0,0.6-0.1,1.2-0.4,1.7c-0.3,0.5-0.7,0.8-1.2,1.1c-0.5,0.3-1.1,0.4-1.7,0.4H143.7
				z"/>
			<path class="st0" d="M153.1,86.6c-0.2,0-0.4-0.1-0.5-0.2c-0.1-0.2-0.2-0.3-0.2-0.5c0-0.2,0.1-0.4,0.2-0.5
				c0.1-0.1,0.3-0.2,0.5-0.2c0.2,0,0.4,0.1,0.5,0.2c0.1,0.1,0.2,0.3,0.2,0.5c0,0.2-0.1,0.4-0.2,0.5
				C153.5,86.5,153.3,86.6,153.1,86.6z M152.5,95.2v-7.1h1.1v7.1H152.5z"/>
			<path class="st0" d="M156.4,95.2v-7.1h1.1v7.1H156.4z M161.6,95.2V91c0-0.6-0.2-1.1-0.6-1.5c-0.4-0.4-0.9-0.6-1.5-0.6
				c-0.4,0-0.8,0.1-1.1,0.3s-0.6,0.4-0.7,0.7c-0.2,0.3-0.3,0.7-0.3,1.1l-0.5-0.3c0-0.5,0.1-1,0.4-1.4c0.3-0.4,0.6-0.8,1-1
				c0.4-0.2,0.9-0.4,1.5-0.4s1,0.1,1.5,0.4c0.4,0.3,0.8,0.6,1,1.1s0.4,0.9,0.4,1.5v4.4H161.6z"/>
			<path class="st0" d="M165.2,95.2V84.5h1.1v10.7H165.2z M169.8,95.2l-3.6-3.7l3.6-3.5h1.3l-3.9,3.8l0-0.6l4,4H169.8z"/>
			<path class="st0" d="M182,95.4c-0.7,0-1.4-0.1-2.1-0.4c-0.6-0.3-1.2-0.7-1.7-1.1c-0.5-0.5-0.8-1.1-1.1-1.7s-0.4-1.4-0.4-2.1
				c0-0.8,0.1-1.5,0.4-2.1s0.6-1.2,1.1-1.7c0.5-0.5,1-0.9,1.7-1.1c0.6-0.3,1.3-0.4,2.1-0.4c0.8,0,1.6,0.2,2.3,0.5
				c0.7,0.3,1.3,0.8,1.7,1.4l-0.8,0.8c-0.4-0.5-0.8-0.9-1.4-1.2c-0.6-0.3-1.2-0.4-1.9-0.4c-0.8,0-1.5,0.2-2.2,0.6
				c-0.6,0.4-1.1,0.9-1.5,1.5c-0.3,0.6-0.5,1.4-0.5,2.2c0,0.8,0.2,1.6,0.5,2.2c0.3,0.6,0.8,1.2,1.4,1.5c0.6,0.4,1.3,0.6,2.1,0.6
				c0.8,0,1.4-0.2,2-0.5c0.6-0.3,1-0.8,1.3-1.4c0.3-0.6,0.5-1.3,0.5-2.2l0.6,0.5h-4.5v-1h5.1v0.2c0,1.2-0.2,2.2-0.6,3
				c-0.4,0.8-1,1.4-1.7,1.8S183,95.4,182,95.4z"/>
			<path class="st0" d="M189.3,95.2V84.5h1.1v10.7H189.3z"/>
			<path class="st0" d="M196.4,95.4c-0.7,0-1.3-0.2-1.9-0.5s-1-0.8-1.3-1.3s-0.5-1.2-0.5-1.9c0-0.7,0.2-1.3,0.5-1.9
				c0.3-0.6,0.8-1,1.3-1.3s1.2-0.5,1.9-0.5c0.7,0,1.3,0.2,1.9,0.5c0.6,0.3,1,0.8,1.3,1.3c0.3,0.6,0.5,1.2,0.5,1.9
				c0,0.7-0.2,1.3-0.5,1.9c-0.3,0.6-0.8,1-1.3,1.3S197.1,95.4,196.4,95.4z M196.4,94.3c0.5,0,0.9-0.1,1.3-0.3c0.4-0.2,0.7-0.6,0.9-1
				c0.2-0.4,0.3-0.9,0.3-1.4c0-0.5-0.1-1-0.3-1.4c-0.2-0.4-0.5-0.7-0.9-0.9s-0.8-0.3-1.3-0.3c-0.5,0-0.9,0.1-1.3,0.3
				s-0.7,0.5-0.9,0.9c-0.2,0.4-0.3,0.9-0.3,1.4c0,0.5,0.1,1,0.3,1.4c0.2,0.4,0.5,0.7,0.9,1S195.9,94.3,196.4,94.3z"/>
			<path class="st0" d="M204.3,95.2l-2.8-7.1h1.1l2.2,5.9l-0.4,0l2.1-5.9h0.6l2.2,5.9l-0.4,0l2.2-5.9h1.1l-2.8,7.1h-0.6l-2.2-5.8
				h0.5l-2.2,5.8H204.3z"/>
			<path class="st0" d="M218.3,96.8l0.9-1.7l0.4-0.1c0,0.1-0.1,0.2-0.2,0.2s-0.2,0.1-0.3,0.1c-0.2,0-0.4-0.1-0.5-0.2
				c-0.2-0.2-0.2-0.4-0.2-0.6c0-0.2,0.1-0.5,0.3-0.6c0.2-0.2,0.4-0.3,0.6-0.3c0.2,0,0.4,0.1,0.6,0.3s0.3,0.4,0.3,0.6
				c0,0.1,0,0.2-0.1,0.4c0,0.1-0.1,0.3-0.2,0.5l-0.9,1.7L218.3,96.8z"/>
			<path class="st0" d="M225.8,95.2V84.8h1.1v10.4H225.8z M226.5,95.2v-1h3.1c0.8,0,1.5-0.2,2.2-0.5c0.6-0.4,1.1-0.9,1.5-1.5
				c0.3-0.6,0.5-1.4,0.5-2.2c0-0.8-0.2-1.5-0.5-2.2c-0.4-0.6-0.8-1.1-1.5-1.5c-0.6-0.4-1.3-0.5-2.2-0.5h-3v-1h3.1
				c0.8,0,1.5,0.1,2.1,0.4c0.6,0.3,1.2,0.6,1.7,1.1s0.9,1,1.1,1.7s0.4,1.3,0.4,2.1c0,0.7-0.1,1.4-0.4,2.1c-0.3,0.6-0.6,1.2-1.1,1.7
				s-1,0.8-1.7,1.1s-1.3,0.4-2.1,0.4H226.5z"/>
			<path class="st0" d="M240.6,95.4c-0.7,0-1.3-0.2-1.9-0.5s-1-0.8-1.3-1.3s-0.5-1.2-0.5-1.9c0-0.7,0.2-1.3,0.5-1.9
				c0.3-0.6,0.8-1,1.3-1.3c0.6-0.3,1.2-0.5,1.9-0.5c0.7,0,1.2,0.1,1.7,0.4c0.5,0.3,0.9,0.7,1.2,1.2c0.3,0.5,0.4,1.1,0.4,1.8
				c0,0.1,0,0.2,0,0.3c0,0.1,0,0.2-0.1,0.4h-6.2v-0.9h5.6l-0.4,0.3c0-0.5-0.1-1-0.3-1.3c-0.2-0.4-0.5-0.7-0.8-0.9
				c-0.3-0.2-0.8-0.3-1.2-0.3c-0.5,0-1,0.1-1.3,0.3c-0.4,0.2-0.7,0.5-0.9,0.9s-0.3,0.9-0.3,1.4c0,0.5,0.1,1,0.3,1.4
				c0.2,0.4,0.5,0.7,1,1c0.4,0.2,0.9,0.3,1.4,0.3c0.4,0,0.8-0.1,1.2-0.2c0.4-0.2,0.7-0.4,0.9-0.7l0.7,0.7c-0.3,0.4-0.7,0.7-1.2,0.9
				C241.7,95.3,241.2,95.4,240.6,95.4z"/>
			<path class="st0" d="M248.1,95.2l-2.8-7.1h1.1l2.2,5.9l-0.4,0l2.1-5.9h0.6l2.2,5.9l-0.4,0l2.2-5.9h1.1l-2.8,7.1h-0.6l-2.2-5.8
				h0.5l-2.2,5.8H248.1z"/>
			<path class="st0" d="M260.4,95.3l-3.1-7.2h1.2l2.5,6h-0.4l2.6-6h1.2l-3.3,7.2H260.4z M258.4,98.2l2-4l0.6,1.1l-1.4,3H258.4z"/>
			<path class="st0" d="M270.4,95.2V84.8h1.1v10.4H270.4z M271.2,91v-1h3.1c0.4,0,0.8-0.1,1.2-0.3c0.3-0.2,0.6-0.4,0.8-0.7
				s0.3-0.7,0.3-1.1s-0.1-0.8-0.3-1.1s-0.5-0.6-0.8-0.7s-0.7-0.3-1.2-0.3h-3.1v-1h3.2c0.6,0,1.2,0.1,1.7,0.4
				c0.5,0.3,0.9,0.6,1.2,1.1c0.3,0.5,0.4,1,0.4,1.6c0,0.6-0.1,1.2-0.4,1.7c-0.3,0.5-0.7,0.8-1.2,1.1c-0.5,0.3-1.1,0.4-1.7,0.4H271.2
				z"/>
			<path class="st0" d="M283.3,95.4c-0.7,0-1.3-0.2-1.9-0.5s-1-0.8-1.3-1.3s-0.5-1.2-0.5-1.9c0-0.7,0.2-1.3,0.5-1.9
				c0.3-0.6,0.8-1,1.3-1.3c0.6-0.3,1.2-0.5,1.9-0.5c0.7,0,1.2,0.1,1.7,0.4c0.5,0.3,0.9,0.7,1.2,1.2c0.3,0.5,0.4,1.1,0.4,1.8
				c0,0.1,0,0.2,0,0.3c0,0.1,0,0.2-0.1,0.4h-6.2v-0.9h5.6l-0.4,0.3c0-0.5-0.1-1-0.3-1.3c-0.2-0.4-0.5-0.7-0.8-0.9
				c-0.3-0.2-0.8-0.3-1.2-0.3c-0.5,0-1,0.1-1.3,0.3c-0.4,0.2-0.7,0.5-0.9,0.9s-0.3,0.9-0.3,1.4c0,0.5,0.1,1,0.3,1.4
				c0.2,0.4,0.5,0.7,1,1c0.4,0.2,0.9,0.3,1.4,0.3c0.4,0,0.8-0.1,1.2-0.2c0.4-0.2,0.7-0.4,0.9-0.7l0.7,0.7c-0.3,0.4-0.7,0.7-1.2,0.9
				C284.3,95.3,283.8,95.4,283.3,95.4z"/>
			<path class="st0" d="M288,89.1v-1h4.6v1H288z M289.8,95.2V85.1h1.1v10.1H289.8z"/>
			<path class="st0" d="M297.8,95.4c-0.7,0-1.3-0.2-1.8-0.5s-1-0.8-1.3-1.3s-0.5-1.2-0.5-1.9c0-0.7,0.2-1.3,0.5-1.9s0.7-1,1.3-1.3
				c0.5-0.3,1.1-0.5,1.8-0.5c0.5,0,1,0.1,1.5,0.3c0.4,0.2,0.8,0.5,1.1,0.9s0.4,0.8,0.5,1.4v2.2c-0.1,0.5-0.2,1-0.5,1.4
				c-0.3,0.4-0.6,0.7-1,0.9C298.9,95.2,298.4,95.4,297.8,95.4z M298,94.3c0.7,0,1.3-0.2,1.8-0.7s0.7-1.1,0.7-2c0-0.5-0.1-1-0.3-1.4
				c-0.2-0.4-0.5-0.7-0.9-0.9c-0.4-0.2-0.8-0.3-1.3-0.3c-0.5,0-0.9,0.1-1.3,0.3c-0.4,0.2-0.7,0.6-0.9,1c-0.2,0.4-0.3,0.9-0.3,1.4
				c0,0.5,0.1,1,0.3,1.4c0.2,0.4,0.5,0.7,0.9,1S297.5,94.3,298,94.3z M300.4,95.2v-1.9l0.2-1.8l-0.2-1.7v-1.7h1.1v7.1H300.4z"/>
			<path class="st0" d="M304.2,95.2V84.5h1.1v10.7H304.2z"/>
			<path class="st0" d="M312,96.8l0.9-1.7l0.4-0.1c0,0.1-0.1,0.2-0.2,0.2s-0.2,0.1-0.3,0.1c-0.2,0-0.4-0.1-0.5-0.2
				c-0.2-0.2-0.2-0.4-0.2-0.6c0-0.2,0.1-0.5,0.3-0.6c0.2-0.2,0.4-0.3,0.6-0.3c0.2,0,0.4,0.1,0.6,0.3s0.3,0.4,0.3,0.6
				c0,0.1,0,0.2-0.1,0.4c0,0.1-0.1,0.3-0.2,0.5l-0.9,1.7L312,96.8z"/>
			<path class="st0" d="M322.9,95.2l-4.1-10.4h1.2l3.6,9.2h-0.4l3.6-9.2h1.2l-4.2,10.4H322.9z"/>
			<path class="st0" d="M330.7,86.6c-0.2,0-0.4-0.1-0.5-0.2c-0.1-0.2-0.2-0.3-0.2-0.5c0-0.2,0.1-0.4,0.2-0.5
				c0.1-0.1,0.3-0.2,0.5-0.2c0.2,0,0.4,0.1,0.5,0.2c0.1,0.1,0.2,0.3,0.2,0.5c0,0.2-0.1,0.4-0.2,0.5
				C331.1,86.5,330.9,86.6,330.7,86.6z M330.2,95.2v-7.1h1.1v7.1H330.2z"/>
			<path class="st0" d="M334,95.2v-7.1h1.1v7.1H334z M339.2,95.2V91c0-0.6-0.2-1.1-0.6-1.5c-0.4-0.4-0.9-0.6-1.5-0.6
				c-0.4,0-0.8,0.1-1.1,0.3s-0.6,0.4-0.7,0.7c-0.2,0.3-0.3,0.7-0.3,1.1l-0.5-0.3c0-0.5,0.1-1,0.4-1.4c0.3-0.4,0.6-0.8,1-1
				c0.4-0.2,0.9-0.4,1.5-0.4s1,0.1,1.5,0.4c0.4,0.3,0.8,0.6,1,1.1s0.4,0.9,0.4,1.5v4.4H339.2z"/>
			<path class="st0" d="M342.2,89.1v-1h4.6v1H342.2z M343.9,95.2V85.1h1.1v10.1H343.9z"/>
			<path class="st0" d="M351.9,95.4c-0.7,0-1.3-0.2-1.8-0.5s-1-0.8-1.3-1.3s-0.5-1.2-0.5-1.9c0-0.7,0.2-1.3,0.5-1.9s0.7-1,1.3-1.3
				c0.5-0.3,1.1-0.5,1.8-0.5c0.5,0,1,0.1,1.5,0.3c0.4,0.2,0.8,0.5,1.1,0.9s0.4,0.8,0.5,1.4v2.2c-0.1,0.5-0.2,1-0.5,1.4
				c-0.3,0.4-0.6,0.7-1,0.9C353,95.2,352.5,95.4,351.9,95.4z M352.1,94.3c0.7,0,1.3-0.2,1.8-0.7s0.7-1.1,0.7-2c0-0.5-0.1-1-0.3-1.4
				c-0.2-0.4-0.5-0.7-0.9-0.9c-0.4-0.2-0.8-0.3-1.3-0.3c-0.5,0-0.9,0.1-1.3,0.3c-0.4,0.2-0.7,0.6-0.9,1c-0.2,0.4-0.3,0.9-0.3,1.4
				c0,0.5,0.1,1,0.3,1.4c0.2,0.4,0.5,0.7,0.9,1S351.6,94.3,352.1,94.3z M354.5,95.2v-1.9l0.2-1.8l-0.2-1.7v-1.7h1.1v7.1H354.5z"/>
			<path class="st0" d="M361.3,95.1c-0.7,0-1.3-0.2-1.8-0.5c-0.5-0.3-0.9-0.7-1.2-1.3c-0.3-0.5-0.5-1.2-0.5-1.8s0.2-1.3,0.5-1.8
				c0.3-0.5,0.7-1,1.2-1.3c0.5-0.3,1.1-0.5,1.8-0.5c0.6,0,1.1,0.1,1.5,0.3s0.8,0.5,1.1,0.9s0.4,0.8,0.5,1.4v2
				c-0.1,0.5-0.2,1-0.5,1.4c-0.3,0.4-0.6,0.7-1.1,0.9S361.9,95.1,361.3,95.1z M361.3,98.4c-0.7,0-1.4-0.1-1.9-0.4
				c-0.6-0.3-1-0.6-1.4-1.1l0.7-0.7c0.3,0.4,0.6,0.7,1.1,0.9s0.9,0.3,1.5,0.3c0.8,0,1.5-0.2,1.9-0.7c0.5-0.4,0.7-1,0.7-1.8v-1.8
				l0.2-1.6l-0.2-1.6v-1.8h1.1v6.8c0,0.7-0.2,1.3-0.5,1.8s-0.8,0.9-1.3,1.2S362,98.4,361.3,98.4z M361.5,94.1c0.5,0,0.9-0.1,1.3-0.3
				c0.4-0.2,0.7-0.5,0.9-0.9c0.2-0.4,0.3-0.8,0.3-1.4c0-0.5-0.1-1-0.3-1.3c-0.2-0.4-0.5-0.7-0.9-0.9s-0.8-0.3-1.3-0.3
				c-0.5,0-0.9,0.1-1.3,0.3s-0.7,0.5-0.9,0.9c-0.2,0.4-0.3,0.8-0.3,1.3s0.1,1,0.3,1.3c0.2,0.4,0.5,0.7,0.9,0.9S361,94.1,361.5,94.1z
				"/>
			<path class="st0" d="M371,95.4c-0.7,0-1.3-0.2-1.9-0.5s-1-0.8-1.3-1.3s-0.5-1.2-0.5-1.9c0-0.7,0.2-1.3,0.5-1.9
				c0.3-0.6,0.8-1,1.3-1.3c0.6-0.3,1.2-0.5,1.9-0.5c0.7,0,1.2,0.1,1.7,0.4c0.5,0.3,0.9,0.7,1.2,1.2c0.3,0.5,0.4,1.1,0.4,1.8
				c0,0.1,0,0.2,0,0.3c0,0.1,0,0.2-0.1,0.4H368v-0.9h5.6l-0.4,0.3c0-0.5-0.1-1-0.3-1.3c-0.2-0.4-0.5-0.7-0.8-0.9
				c-0.3-0.2-0.8-0.3-1.2-0.3c-0.5,0-1,0.1-1.3,0.3c-0.4,0.2-0.7,0.5-0.9,0.9s-0.3,0.9-0.3,1.4c0,0.5,0.1,1,0.3,1.4
				c0.2,0.4,0.5,0.7,1,1c0.4,0.2,0.9,0.3,1.4,0.3c0.4,0,0.8-0.1,1.2-0.2c0.4-0.2,0.7-0.4,0.9-0.7l0.7,0.7c-0.3,0.4-0.7,0.7-1.2,0.9
				C372.1,95.3,371.6,95.4,371,95.4z"/>
			<path class="st0" d="M380.6,95.2V84.8h1.1v10.4H380.6z M381.3,90.6v-1h3c0.7,0,1.2-0.2,1.6-0.5s0.6-0.8,0.6-1.4
				c0-0.6-0.2-1-0.5-1.4c-0.4-0.4-0.9-0.5-1.6-0.5h-3v-1h3c0.7,0,1.3,0.1,1.7,0.4c0.5,0.2,0.9,0.6,1.1,1c0.3,0.4,0.4,0.9,0.4,1.5
				c0,0.6-0.1,1.1-0.4,1.5c-0.3,0.4-0.6,0.8-1.1,1c-0.5,0.2-1.1,0.4-1.7,0.4H381.3z M386.9,95.2l-3.9-4.8l1.1-0.3l4.3,5.2H386.9z"/>
			<path class="st0" d="M393.8,95.4c-0.7,0-1.3-0.2-1.9-0.5s-1-0.8-1.3-1.3s-0.5-1.2-0.5-1.9c0-0.7,0.2-1.3,0.5-1.9
				c0.3-0.6,0.8-1,1.3-1.3s1.2-0.5,1.9-0.5c0.7,0,1.3,0.2,1.9,0.5c0.6,0.3,1,0.8,1.3,1.3c0.3,0.6,0.5,1.2,0.5,1.9
				c0,0.7-0.2,1.3-0.5,1.9c-0.3,0.6-0.8,1-1.3,1.3S394.4,95.4,393.8,95.4z M393.8,94.3c0.5,0,0.9-0.1,1.3-0.3c0.4-0.2,0.7-0.6,0.9-1
				c0.2-0.4,0.3-0.9,0.3-1.4c0-0.5-0.1-1-0.3-1.4c-0.2-0.4-0.5-0.7-0.9-0.9s-0.8-0.3-1.3-0.3c-0.5,0-0.9,0.1-1.3,0.3
				s-0.7,0.5-0.9,0.9c-0.2,0.4-0.3,0.9-0.3,1.4c0,0.5,0.1,1,0.3,1.4c0.2,0.4,0.5,0.7,0.9,1S393.3,94.3,393.8,94.3z"/>
			<path class="st0" d="M401.9,95.4c-0.4,0-0.8-0.1-1.1-0.2c-0.4-0.1-0.7-0.3-1-0.4c-0.3-0.2-0.5-0.4-0.8-0.7l0.7-0.7
				c0.3,0.3,0.6,0.6,1,0.8c0.4,0.2,0.8,0.2,1.2,0.2c0.5,0,0.8-0.1,1.1-0.3s0.4-0.4,0.4-0.8c0-0.3-0.1-0.5-0.3-0.7
				c-0.2-0.2-0.4-0.3-0.7-0.4c-0.3-0.1-0.6-0.2-1-0.3c-0.3-0.1-0.6-0.2-0.9-0.4c-0.3-0.1-0.5-0.3-0.7-0.6c-0.2-0.3-0.3-0.6-0.3-1
				c0-0.4,0.1-0.8,0.3-1.1c0.2-0.3,0.5-0.5,0.8-0.7c0.4-0.2,0.8-0.2,1.3-0.2c0.5,0,1,0.1,1.5,0.3s0.8,0.5,1,0.8l-0.7,0.7
				c-0.2-0.3-0.5-0.5-0.8-0.6c-0.3-0.2-0.7-0.2-1.1-0.2c-0.5,0-0.8,0.1-1,0.3c-0.2,0.2-0.4,0.4-0.4,0.7c0,0.3,0.1,0.5,0.3,0.6
				c0.2,0.2,0.4,0.3,0.7,0.4s0.6,0.2,0.9,0.3c0.3,0.1,0.7,0.2,1,0.4c0.3,0.2,0.5,0.4,0.7,0.6c0.2,0.3,0.3,0.6,0.3,1.1
				c0,0.6-0.2,1.1-0.7,1.5C403.3,95.2,402.7,95.4,401.9,95.4z"/>
			<path class="st0" d="M410,95.4c-0.7,0-1.3-0.2-1.9-0.5s-1-0.8-1.3-1.3s-0.5-1.2-0.5-1.9c0-0.7,0.2-1.3,0.5-1.9
				c0.3-0.6,0.8-1,1.3-1.3c0.6-0.3,1.2-0.5,1.9-0.5c0.7,0,1.2,0.1,1.7,0.4c0.5,0.3,0.9,0.7,1.2,1.2c0.3,0.5,0.4,1.1,0.4,1.8
				c0,0.1,0,0.2,0,0.3c0,0.1,0,0.2-0.1,0.4h-6.2v-0.9h5.6l-0.4,0.3c0-0.5-0.1-1-0.3-1.3c-0.2-0.4-0.5-0.7-0.8-0.9
				c-0.3-0.2-0.8-0.3-1.2-0.3c-0.5,0-1,0.1-1.3,0.3c-0.4,0.2-0.7,0.5-0.9,0.9s-0.3,0.9-0.3,1.4c0,0.5,0.1,1,0.3,1.4
				c0.2,0.4,0.5,0.7,1,1c0.4,0.2,0.9,0.3,1.4,0.3c0.4,0,0.8-0.1,1.2-0.2c0.4-0.2,0.7-0.4,0.9-0.7l0.7,0.7c-0.3,0.4-0.7,0.7-1.2,0.9
				C411.1,95.3,410.6,95.4,410,95.4z"/>
			<path class="st0" d="M123.9,117.9l4.3-10.4h0.8l4.2,10.4h-1.2l-3.7-9.2h0.4l-3.7,9.2H123.9z M125.9,115.2v-1h5.5v1H125.9z"/>
			<path class="st0" d="M135.5,117.9v-7.1h1.1v7.1H135.5z M140.7,117.9v-4.2c0-0.6-0.2-1.1-0.6-1.5c-0.4-0.4-0.9-0.6-1.5-0.6
				c-0.4,0-0.8,0.1-1.1,0.3s-0.6,0.4-0.7,0.7c-0.2,0.3-0.3,0.7-0.3,1.1l-0.5-0.3c0-0.5,0.1-1,0.4-1.4c0.3-0.4,0.6-0.8,1-1
				c0.4-0.2,0.9-0.4,1.5-0.4s1,0.1,1.5,0.4c0.4,0.3,0.8,0.6,1,1.1s0.4,0.9,0.4,1.5v4.4H140.7z"/>
			<path class="st0" d="M143.7,111.8v-1h4.6v1H143.7z M145.4,117.9v-10.1h1.1v10.1H145.4z"/>
			<path class="st0" d="M150.9,109.3c-0.2,0-0.4-0.1-0.5-0.2c-0.1-0.2-0.2-0.3-0.2-0.5c0-0.2,0.1-0.4,0.2-0.5
				c0.1-0.1,0.3-0.2,0.5-0.2c0.2,0,0.4,0.1,0.5,0.2c0.1,0.1,0.2,0.3,0.2,0.5c0,0.2-0.1,0.4-0.2,0.5
				C151.3,109.2,151.1,109.3,150.9,109.3z M150.4,117.9v-7.1h1.1v7.1H150.4z"/>
			<path class="st0" d="M157.3,118.1c-0.7,0-1.3-0.2-1.8-0.5s-1-0.8-1.3-1.3s-0.5-1.2-0.5-1.9c0-0.7,0.2-1.3,0.5-1.9s0.7-1,1.3-1.3
				s1.1-0.5,1.8-0.5c0.5,0,1,0.1,1.5,0.3c0.4,0.2,0.8,0.5,1,0.9s0.4,0.8,0.5,1.4v2.2c-0.1,0.5-0.2,1-0.5,1.4c-0.3,0.4-0.6,0.7-1,0.9
				C158.3,118,157.8,118.1,157.3,118.1z M157.5,117.1c0.7,0,1.3-0.2,1.8-0.7c0.4-0.5,0.7-1.1,0.7-2c0-0.5-0.1-1-0.3-1.4
				c-0.2-0.4-0.5-0.7-0.9-0.9c-0.4-0.2-0.8-0.3-1.3-0.3c-0.5,0-1,0.1-1.3,0.3c-0.4,0.2-0.7,0.6-0.9,1c-0.2,0.4-0.3,0.9-0.3,1.4
				c0,0.5,0.1,1,0.3,1.4c0.2,0.4,0.5,0.7,0.9,1S157,117.1,157.5,117.1z M159.8,120.9v-4.8l0.2-1.7l-0.2-1.7v-1.8h1.1v10.1H159.8z"/>
			<path class="st0" d="M166.5,118.1c-0.6,0-1.1-0.1-1.6-0.4c-0.5-0.3-0.8-0.6-1.1-1.1c-0.3-0.5-0.4-1-0.4-1.6v-4.1h1.1v4.1
				c0,0.4,0.1,0.8,0.2,1.1c0.2,0.3,0.4,0.6,0.7,0.8c0.3,0.2,0.6,0.3,1,0.3c0.6,0,1.1-0.2,1.4-0.6s0.5-0.9,0.5-1.6v-4.1h1.1v4.1
				c0,0.6-0.1,1.2-0.4,1.6c-0.3,0.5-0.6,0.8-1.1,1.1C167.6,117.9,167.1,118.1,166.5,118.1z"/>
			<path class="st0" d="M175.3,118.1c-0.7,0-1.3-0.2-1.9-0.5s-1-0.8-1.3-1.3s-0.5-1.2-0.5-1.9c0-0.7,0.2-1.3,0.5-1.9
				c0.3-0.6,0.8-1,1.3-1.3c0.6-0.3,1.2-0.5,1.9-0.5c0.7,0,1.2,0.1,1.7,0.4c0.5,0.3,0.9,0.7,1.2,1.2c0.3,0.5,0.4,1.1,0.4,1.8
				c0,0.1,0,0.2,0,0.3c0,0.1,0,0.2-0.1,0.4h-6.2v-0.9h5.6l-0.4,0.3c0-0.5-0.1-1-0.3-1.3c-0.2-0.4-0.5-0.7-0.8-0.9
				c-0.3-0.2-0.8-0.3-1.2-0.3c-0.5,0-1,0.1-1.3,0.3c-0.4,0.2-0.7,0.5-0.9,0.9s-0.3,0.9-0.3,1.4c0,0.5,0.1,1,0.3,1.4
				c0.2,0.4,0.5,0.7,1,1c0.4,0.2,0.9,0.3,1.4,0.3c0.4,0,0.8-0.1,1.2-0.2c0.4-0.2,0.7-0.4,0.9-0.7l0.7,0.7c-0.3,0.4-0.7,0.7-1.2,0.9
				C176.4,118,175.9,118.1,175.3,118.1z"/>
			<path class="st0" d="M184.9,117.9v-10.4h1.1v10.4H184.9z M185.7,117.9v-1h3.3c0.7,0,1.2-0.2,1.6-0.6c0.4-0.4,0.6-0.9,0.6-1.4
				c0-0.4-0.1-0.7-0.3-1s-0.4-0.5-0.7-0.7c-0.3-0.2-0.7-0.3-1.1-0.3h-3.4v-1h3.2c0.6,0,1-0.2,1.3-0.5c0.3-0.3,0.5-0.7,0.5-1.3
				c0-0.5-0.2-1-0.5-1.3c-0.4-0.3-0.8-0.5-1.4-0.5h-3.1v-1h3.1c0.6,0,1.2,0.1,1.7,0.3c0.5,0.2,0.8,0.5,1,0.9
				c0.2,0.4,0.3,0.8,0.3,1.3c0,0.6-0.2,1.1-0.5,1.5c-0.3,0.4-0.7,0.7-1.3,1l0.1-0.4c0.7,0.2,1.2,0.6,1.6,1c0.4,0.5,0.6,1.1,0.6,1.7
				c0,0.6-0.1,1.1-0.4,1.5c-0.3,0.4-0.7,0.8-1.2,1c-0.5,0.3-1.1,0.4-1.8,0.4H185.7z"/>
			<path class="st0" d="M194.7,117.9v-7.1h1.1v7.1H194.7z M195.8,113.8l-0.4-0.2c0-0.9,0.2-1.6,0.7-2.2c0.4-0.5,1-0.8,1.8-0.8
				c0.4,0,0.7,0.1,1,0.2c0.3,0.1,0.6,0.3,0.8,0.6l-0.7,0.7c-0.2-0.2-0.3-0.3-0.6-0.4c-0.2-0.1-0.4-0.1-0.7-0.1c-0.5,0-1,0.2-1.3,0.5
				C196,112.6,195.8,113.1,195.8,113.8z"/>
			<path class="st0" d="M204.8,118.1c-0.7,0-1.3-0.2-1.9-0.5s-1-0.8-1.3-1.3s-0.5-1.2-0.5-1.9c0-0.7,0.2-1.3,0.5-1.9
				c0.3-0.6,0.8-1,1.3-1.3s1.2-0.5,1.9-0.5c0.7,0,1.3,0.2,1.9,0.5c0.6,0.3,1,0.8,1.3,1.3c0.3,0.6,0.5,1.2,0.5,1.9
				c0,0.7-0.2,1.3-0.5,1.9c-0.3,0.6-0.8,1-1.3,1.3S205.5,118.1,204.8,118.1z M204.8,117c0.5,0,0.9-0.1,1.3-0.3
				c0.4-0.2,0.7-0.6,0.9-1c0.2-0.4,0.3-0.9,0.3-1.4c0-0.5-0.1-1-0.3-1.4c-0.2-0.4-0.5-0.7-0.9-0.9s-0.8-0.3-1.3-0.3
				c-0.5,0-0.9,0.1-1.3,0.3s-0.7,0.5-0.9,0.9c-0.2,0.4-0.3,0.9-0.3,1.4c0,0.5,0.1,1,0.3,1.4c0.2,0.4,0.5,0.7,0.9,1
				S204.4,117,204.8,117z"/>
			<path class="st0" d="M212.8,117.9l-2.8-7.1h1.1l2.2,5.9l-0.4,0l2.1-5.9h0.6l2.2,5.9l-0.4,0l2.2-5.9h1.1l-2.8,7.1h-0.6l-2.2-5.8
				h0.5l-2.2,5.8H212.8z"/>
			<path class="st0" d="M222.7,117.9v-7.1h1.1v7.1H222.7z M227.9,117.9v-4.2c0-0.6-0.2-1.1-0.6-1.5c-0.4-0.4-0.9-0.6-1.5-0.6
				c-0.4,0-0.8,0.1-1.1,0.3s-0.6,0.4-0.7,0.7c-0.2,0.3-0.3,0.7-0.3,1.1l-0.5-0.3c0-0.5,0.1-1,0.4-1.4c0.3-0.4,0.6-0.8,1-1
				c0.4-0.2,0.9-0.4,1.5-0.4s1,0.1,1.5,0.4c0.4,0.3,0.8,0.6,1,1.1s0.4,0.9,0.4,1.5v4.4H227.9z"/>
			<path class="st0" d="M235.6,119.5l0.9-1.7l0.4-0.1c0,0.1-0.1,0.2-0.2,0.2s-0.2,0.1-0.3,0.1c-0.2,0-0.4-0.1-0.5-0.2
				c-0.2-0.2-0.2-0.4-0.2-0.6c0-0.2,0.1-0.5,0.3-0.6c0.2-0.2,0.4-0.3,0.6-0.3c0.2,0,0.4,0.1,0.6,0.3s0.3,0.4,0.3,0.6
				c0,0.1,0,0.2-0.1,0.4c0,0.1-0.1,0.3-0.2,0.5l-0.9,1.7L235.6,119.5z"/>
			<path class="st0" d="M247.8,118.1c-0.7,0-1.4-0.1-2.1-0.4c-0.6-0.3-1.2-0.7-1.7-1.2c-0.5-0.5-0.8-1.1-1.1-1.7
				c-0.3-0.7-0.4-1.4-0.4-2.1s0.1-1.4,0.4-2.1s0.6-1.2,1.1-1.7s1-0.9,1.7-1.1c0.6-0.3,1.3-0.4,2.1-0.4c0.8,0,1.5,0.1,2.1,0.4
				c0.6,0.3,1.2,0.7,1.7,1.2l-0.8,0.8c-0.4-0.4-0.8-0.7-1.3-0.9c-0.5-0.2-1.1-0.3-1.7-0.3c-0.6,0-1.1,0.1-1.6,0.3s-0.9,0.5-1.3,0.9
				c-0.4,0.4-0.7,0.8-0.8,1.4c-0.2,0.5-0.3,1.1-0.3,1.7c0,0.6,0.1,1.2,0.3,1.7c0.2,0.5,0.5,1,0.8,1.4c0.4,0.4,0.8,0.7,1.3,0.9
				c0.5,0.2,1,0.3,1.6,0.3c0.7,0,1.3-0.1,1.8-0.3s1-0.5,1.3-1l0.8,0.8c-0.5,0.5-1,0.9-1.7,1.2C249.3,117.9,248.6,118.1,247.8,118.1z
				"/>
			<path class="st0" d="M253.9,117.9v-10.7h1.1v10.7H253.9z M259.1,117.9v-4.2c0-0.6-0.2-1.1-0.6-1.5c-0.4-0.4-0.9-0.6-1.5-0.6
				c-0.4,0-0.8,0.1-1.1,0.3s-0.6,0.4-0.7,0.7c-0.2,0.3-0.3,0.7-0.3,1.1l-0.5-0.3c0-0.5,0.1-1,0.4-1.4c0.3-0.4,0.6-0.8,1-1
				c0.4-0.2,0.9-0.4,1.5-0.4s1,0.1,1.5,0.4c0.4,0.2,0.8,0.6,1,1c0.2,0.4,0.4,0.9,0.4,1.5v4.4H259.1z"/>
			<path class="st0" d="M266.1,118.1c-0.7,0-1.3-0.2-1.9-0.5s-1-0.8-1.3-1.3s-0.5-1.2-0.5-1.9c0-0.7,0.2-1.3,0.5-1.9
				c0.3-0.6,0.8-1,1.3-1.3c0.6-0.3,1.2-0.5,1.9-0.5c0.7,0,1.2,0.1,1.7,0.4c0.5,0.3,0.9,0.7,1.2,1.2c0.3,0.5,0.4,1.1,0.4,1.8
				c0,0.1,0,0.2,0,0.3c0,0.1,0,0.2-0.1,0.4h-6.2v-0.9h5.6l-0.4,0.3c0-0.5-0.1-1-0.3-1.3c-0.2-0.4-0.5-0.7-0.8-0.9
				c-0.3-0.2-0.8-0.3-1.2-0.3c-0.5,0-1,0.1-1.3,0.3c-0.4,0.2-0.7,0.5-0.9,0.9s-0.3,0.9-0.3,1.4c0,0.5,0.1,1,0.3,1.4
				c0.2,0.4,0.5,0.7,1,1c0.4,0.2,0.9,0.3,1.4,0.3c0.4,0,0.8-0.1,1.2-0.2c0.4-0.2,0.7-0.4,0.9-0.7l0.7,0.7c-0.3,0.4-0.7,0.7-1.2,0.9
				C267.2,118,266.6,118.1,266.1,118.1z"/>
			<path class="st0" d="M271.5,117.9v-7.1h1.1v7.1H271.5z M272.6,113.8l-0.4-0.2c0-0.9,0.2-1.6,0.7-2.2c0.4-0.5,1-0.8,1.8-0.8
				c0.4,0,0.7,0.1,1,0.2c0.3,0.1,0.6,0.3,0.8,0.6l-0.7,0.7c-0.2-0.2-0.3-0.3-0.6-0.4c-0.2-0.1-0.4-0.1-0.7-0.1c-0.5,0-1,0.2-1.3,0.5
				C272.8,112.6,272.6,113.1,272.6,113.8z"/>
			<path class="st0" d="M278.4,117.9v-7.1h1.1v7.1H278.4z M279.5,113.8l-0.4-0.2c0-0.9,0.2-1.6,0.7-2.2c0.4-0.5,1-0.8,1.8-0.8
				c0.4,0,0.7,0.1,1,0.2c0.3,0.1,0.6,0.3,0.8,0.6l-0.7,0.7c-0.2-0.2-0.3-0.3-0.6-0.4c-0.2-0.1-0.4-0.1-0.7-0.1c-0.5,0-1,0.2-1.3,0.5
				C279.7,112.6,279.5,113.1,279.5,113.8z"/>
			<path class="st0" d="M287.7,118l-3.1-7.2h1.2l2.5,6h-0.4l2.6-6h1.2l-3.3,7.2H287.7z M285.7,120.9l2-4l0.6,1.1l-1.4,3H285.7z"/>
			<path class="st0" d="M297.7,117.9v-10.4h1.1v10.4H297.7z M298.5,117.9v-1h3.3c0.7,0,1.2-0.2,1.6-0.6c0.4-0.4,0.6-0.9,0.6-1.4
				c0-0.4-0.1-0.7-0.3-1s-0.4-0.5-0.7-0.7c-0.3-0.2-0.7-0.3-1.1-0.3h-3.4v-1h3.2c0.6,0,1-0.2,1.3-0.5c0.3-0.3,0.5-0.7,0.5-1.3
				c0-0.5-0.2-1-0.5-1.3c-0.4-0.3-0.8-0.5-1.4-0.5h-3.1v-1h3.1c0.6,0,1.2,0.1,1.7,0.3c0.5,0.2,0.8,0.5,1,0.9
				c0.2,0.4,0.3,0.8,0.3,1.3c0,0.6-0.2,1.1-0.5,1.5c-0.3,0.4-0.7,0.7-1.3,1l0.1-0.4c0.7,0.2,1.2,0.6,1.6,1c0.4,0.5,0.6,1.1,0.6,1.7
				c0,0.6-0.1,1.1-0.4,1.5c-0.3,0.4-0.7,0.8-1.2,1c-0.5,0.3-1.1,0.4-1.8,0.4H298.5z"/>
			<path class="st0" d="M307.5,117.9v-7.1h1.1v7.1H307.5z M308.6,113.8l-0.4-0.2c0-0.9,0.2-1.6,0.7-2.2c0.4-0.5,1-0.8,1.8-0.8
				c0.4,0,0.7,0.1,1,0.2c0.3,0.1,0.6,0.3,0.8,0.6l-0.7,0.7c-0.2-0.2-0.3-0.3-0.6-0.4c-0.2-0.1-0.4-0.1-0.7-0.1c-0.5,0-1,0.2-1.3,0.5
				C308.8,112.6,308.6,113.1,308.6,113.8z"/>
			<path class="st0" d="M317.7,118.1c-0.7,0-1.3-0.2-1.9-0.5s-1-0.8-1.3-1.3s-0.5-1.2-0.5-1.9c0-0.7,0.2-1.3,0.5-1.9
				c0.3-0.6,0.8-1,1.3-1.3s1.2-0.5,1.9-0.5c0.7,0,1.3,0.2,1.9,0.5c0.6,0.3,1,0.8,1.3,1.3c0.3,0.6,0.5,1.2,0.5,1.9
				c0,0.7-0.2,1.3-0.5,1.9c-0.3,0.6-0.8,1-1.3,1.3S318.3,118.1,317.7,118.1z M317.7,117c0.5,0,0.9-0.1,1.3-0.3
				c0.4-0.2,0.7-0.6,0.9-1c0.2-0.4,0.3-0.9,0.3-1.4c0-0.5-0.1-1-0.3-1.4c-0.2-0.4-0.5-0.7-0.9-0.9s-0.8-0.3-1.3-0.3
				c-0.5,0-0.9,0.1-1.3,0.3s-0.7,0.5-0.9,0.9c-0.2,0.4-0.3,0.9-0.3,1.4c0,0.5,0.1,1,0.3,1.4c0.2,0.4,0.5,0.7,0.9,1
				S317.2,117,317.7,117z"/>
			<path class="st0" d="M325.6,117.9l-2.8-7.1h1.1l2.2,5.9l-0.4,0l2.1-5.9h0.6l2.2,5.9l-0.4,0l2.2-5.9h1.1l-2.8,7.1h-0.6l-2.2-5.8
				h0.5l-2.2,5.8H325.6z"/>
			<path class="st0" d="M335.5,117.9v-7.1h1.1v7.1H335.5z M340.7,117.9v-4.2c0-0.6-0.2-1.1-0.6-1.5c-0.4-0.4-0.9-0.6-1.5-0.6
				c-0.4,0-0.8,0.1-1.1,0.3s-0.6,0.4-0.7,0.7c-0.2,0.3-0.3,0.7-0.3,1.1l-0.5-0.3c0-0.5,0.1-1,0.4-1.4c0.3-0.4,0.6-0.8,1-1
				c0.4-0.2,0.9-0.4,1.5-0.4s1,0.1,1.5,0.4c0.4,0.3,0.8,0.6,1,1.1s0.4,0.9,0.4,1.5v4.4H340.7z"/>
		</g>
	</g>
</g>
</svg>
