<?xml version="1.0" encoding="utf-8"?>
<!-- Generator: Adobe Illustrator 25.4.1, SVG Export Plug-In . SVG Version: 6.00 Build 0)  -->
<svg version="1.1" id="レイヤー_1" xmlns="http://www.w3.org/2000/svg" xmlns:xlink="http://www.w3.org/1999/xlink" x="0px"
	 y="0px" viewBox="0 0 42 193" style="enable-background:new 0 0 42 193;" xml:space="preserve">
<style type="text/css">
	.st0{fill:#C04359;}
</style>
<g>
	<g>
		<path class="st0" d="M40.7,0.4v10.4L36.1,11c0.9-0.1,1.6-0.3,2.2-0.5s1-0.4,1.3-0.6c0.3-0.2,0.5-0.5,0.6-0.9s0.1-0.8,0.1-1.2V6.3
			H29c-0.3,0-0.5,0-0.7,0c-0.2,0-0.3,0.1-0.5,0.2c-0.1,0.1-0.2,0.2-0.3,0.3s-0.2,0.3-0.2,0.5V3.8c0.1,0.2,0.1,0.4,0.2,0.5
			c0.1,0.1,0.2,0.2,0.3,0.3c0.1,0.1,0.3,0.1,0.5,0.2c0.2,0,0.4,0,0.7,0h11.3V3.4c0-0.5,0-0.9-0.1-1.2c-0.1-0.3-0.3-0.6-0.6-0.9
			s-0.7-0.5-1.3-0.7c-0.5-0.2-1.3-0.3-2.2-0.5L40.7,0.4z"/>
		<path class="st0" d="M27.3,13.7c0.1,0.2,0.1,0.4,0.2,0.5s0.2,0.2,0.3,0.3c0.1,0.1,0.3,0.1,0.5,0.2s0.4,0,0.7,0h11.3
			c0.4,0,0.7,0,0.9-0.1c0.2-0.1,0.3-0.2,0.5-0.4l0.2,1.9h-6.6c0.9,0.3,1.7,0.8,2.2,1.5c0.5,0.7,0.8,1.6,0.8,2.7
			c0,0.6-0.1,1.2-0.3,1.6c-0.2,0.5-0.4,0.9-0.7,1.2c-0.3,0.3-0.7,0.6-1.1,0.7c-0.4,0.2-0.9,0.3-1.4,0.3H29c-0.3,0-0.5,0-0.7,0
			c-0.2,0-0.3,0.1-0.5,0.2c-0.1,0.1-0.2,0.2-0.3,0.3c-0.1,0.1-0.1,0.3-0.2,0.5v-3.4c0.1,0.2,0.1,0.4,0.2,0.5s0.2,0.2,0.3,0.3
			c0.1,0.1,0.3,0.1,0.5,0.2s0.4,0,0.7,0h5.9c1,0,1.7-0.2,2.3-0.7c0.5-0.5,0.8-1.1,0.8-2c0-0.5-0.1-1-0.3-1.4s-0.5-0.9-0.8-1.2
			c-0.4-0.4-0.8-0.6-1.3-0.9s-1.1-0.4-1.8-0.4H29c-0.3,0-0.5,0-0.7,0c-0.2,0-0.3,0.1-0.5,0.2c-0.1,0.1-0.2,0.2-0.3,0.3
			s-0.1,0.3-0.2,0.5V13.7z"/>
		<path class="st0" d="M38.3,32.8c0,0.8-0.1,1.4-0.3,2c-0.2,0.6-0.5,1-0.9,1.4s-0.9,0.6-1.4,0.8c-0.5,0.2-1.1,0.3-1.8,0.3v-8.1
			c-0.2,0-0.4,0-0.6-0.1c-0.2,0-0.4,0-0.6,0c-0.7,0-1.4,0.1-2,0.3C30,29.7,29.4,30,29,30.3c-0.5,0.4-0.8,0.8-1.1,1.3
			c-0.3,0.5-0.4,1-0.4,1.6c0,0.5,0.1,1,0.3,1.4c0.2,0.4,0.5,0.8,0.8,1.1c0.3,0.3,0.8,0.7,1.2,0.9c0.5,0.3,1,0.5,1.6,0.7l-2.8-0.2
			c-0.5-0.6-0.8-1.2-1-1.9c-0.2-0.7-0.3-1.4-0.3-2.1c0-0.8,0.1-1.5,0.4-2.2c0.3-0.7,0.6-1.3,1.1-1.8c0.5-0.5,1-0.9,1.7-1.1
			c0.7-0.3,1.4-0.4,2.2-0.4c0.8,0,1.5,0.1,2.2,0.4c0.7,0.2,1.3,0.6,1.8,1c0.5,0.4,0.9,1,1.2,1.6C38.1,31.3,38.3,32,38.3,32.8z
			 M34.1,29.3v6.5c0.6,0,1.1-0.1,1.6-0.2c0.5-0.1,0.9-0.3,1.2-0.6s0.6-0.6,0.8-0.9c0.2-0.4,0.3-0.8,0.3-1.3c0-0.5-0.1-0.9-0.3-1.3
			c-0.2-0.4-0.5-0.7-0.8-1c-0.4-0.3-0.8-0.5-1.2-0.7C35.2,29.6,34.7,29.4,34.1,29.3z"/>
		<path class="st0" d="M28.7,47.4l3.6,0.3c-1.5,0.2-2.7,0.6-3.5,1.3c-0.8,0.7-1.3,1.7-1.3,3c0,0.5,0.1,1,0.2,1.4
			c0.1,0.4,0.4,0.8,0.6,1c0.3,0.3,0.6,0.5,0.9,0.6c0.3,0.1,0.7,0.2,1.1,0.2c0.5,0,0.9-0.1,1.2-0.3c0.3-0.2,0.6-0.4,0.8-0.7
			s0.4-0.6,0.5-0.9c0.1-0.3,0.2-0.5,0.3-0.7l0.7-1.9c0.1-0.2,0.2-0.5,0.4-0.9c0.2-0.3,0.4-0.7,0.6-1c0.3-0.3,0.6-0.6,1-0.8
			c0.4-0.2,0.9-0.3,1.5-0.3c0.5,0,0.9,0.1,1.3,0.2c0.4,0.2,0.8,0.4,1.1,0.7c0.3,0.3,0.5,0.7,0.7,1.2c0.2,0.5,0.3,1.1,0.3,1.7
			c0,0.6-0.1,1.2-0.3,1.9s-0.4,1.3-0.8,1.9l-3.7,0.1c1.4-0.2,2.5-0.6,3.3-1.3c0.8-0.6,1.2-1.5,1.2-2.7c0-0.4-0.1-0.9-0.2-1.2
			c-0.1-0.4-0.3-0.7-0.5-1c-0.2-0.3-0.5-0.5-0.8-0.6c-0.3-0.2-0.6-0.2-1-0.2c-0.4,0-0.7,0.1-1,0.3c-0.3,0.2-0.5,0.4-0.7,0.7
			c-0.2,0.3-0.4,0.5-0.5,0.8s-0.2,0.5-0.3,0.8l-0.7,2c-0.4,1-0.9,1.7-1.4,2.3C32.7,56,32,56.3,31,56.3c-0.5,0-1-0.1-1.5-0.3
			c-0.5-0.2-0.9-0.5-1.2-0.9c-0.3-0.4-0.6-0.8-0.8-1.4c-0.2-0.5-0.3-1.1-0.3-1.8c0-0.9,0.1-1.8,0.4-2.6
			C27.9,48.6,28.2,47.9,28.7,47.4z"/>
		<path class="st0" d="M27.3,59.1c0.1,0.2,0.1,0.4,0.2,0.5s0.2,0.2,0.3,0.3c0.1,0.1,0.3,0.1,0.5,0.2s0.4,0,0.7,0h11.3
			c0.4,0,0.7,0,0.9-0.1c0.2-0.1,0.3-0.2,0.5-0.4l0.2,1.9H32l4.3,4.9c0.3,0.3,0.6,0.6,0.9,0.9c0.3,0.2,0.6,0.3,0.9,0.3v1.7
			c-0.1-0.1-0.2-0.3-0.3-0.4c-0.1-0.2-0.2-0.4-0.4-0.6c-0.2-0.2-0.4-0.5-0.6-0.8c-0.3-0.3-0.6-0.7-0.9-1.1L34,64.3L29.4,68
			c-0.4,0.4-0.8,0.6-1.1,0.9c-0.3,0.2-0.5,0.4-0.6,0.5s-0.3,0.2-0.3,0.3c-0.1,0.1-0.1,0.1-0.1,0.1v-2.5c0,0,0.1,0,0.2,0.1
			c0.1,0,0.2,0,0.3-0.1c0.1-0.1,0.3-0.1,0.5-0.3c0.2-0.1,0.5-0.3,0.8-0.5l4.1-3.1l-1.6-1.8H29c-0.3,0-0.5,0-0.7,0
			c-0.2,0-0.3,0.1-0.5,0.2c-0.1,0.1-0.2,0.2-0.3,0.3s-0.1,0.3-0.2,0.5V59.1z"/>
		<path class="st0" d="M27.3,71.9c0.1,0.2,0.1,0.4,0.2,0.5s0.2,0.2,0.3,0.3c0.1,0.1,0.3,0.1,0.5,0.2s0.4,0,0.7,0h7.1
			c0.3,0,0.5,0,0.7,0c0.2,0,0.4,0,0.5-0.1c0.2,0,0.3-0.1,0.4-0.2c0.1-0.1,0.3-0.2,0.4-0.3l0.2,2H29c-0.3,0-0.5,0-0.7,0
			c-0.2,0-0.3,0.1-0.5,0.2c-0.1,0.1-0.2,0.2-0.3,0.3c-0.1,0.1-0.1,0.3-0.2,0.5V71.9z M41.6,73.6c0,0.3-0.1,0.5-0.3,0.7
			c-0.2,0.2-0.4,0.3-0.7,0.3c-0.3,0-0.5-0.1-0.7-0.3c-0.2-0.2-0.3-0.4-0.3-0.7c0-0.3,0.1-0.5,0.3-0.7c0.2-0.2,0.4-0.3,0.7-0.3
			c0.3,0,0.5,0.1,0.7,0.3C41.5,73.1,41.6,73.3,41.6,73.6z"/>
		<path class="st0" d="M27.3,77.8c0.1,0.2,0.1,0.4,0.2,0.5s0.2,0.2,0.3,0.3c0.1,0.1,0.3,0.1,0.5,0.2s0.4,0,0.7,0h7.1
			c0.3,0,0.5,0,0.7,0c0.2,0,0.4,0,0.5-0.1c0.2,0,0.3-0.1,0.4-0.2c0.1-0.1,0.3-0.2,0.4-0.3l0.2,2h-3c0.9,0.3,1.7,0.8,2.2,1.5
			c0.5,0.7,0.8,1.6,0.8,2.7c0,0.6-0.1,1.2-0.3,1.6s-0.4,0.9-0.7,1.2c-0.3,0.3-0.7,0.6-1.1,0.7c-0.4,0.2-0.9,0.3-1.4,0.3H29
			c-0.3,0-0.5,0-0.7,0c-0.2,0-0.3,0.1-0.5,0.2c-0.1,0.1-0.2,0.2-0.3,0.3s-0.1,0.3-0.2,0.5v-3.4c0.1,0.2,0.1,0.4,0.2,0.5
			c0.1,0.1,0.2,0.2,0.3,0.3c0.1,0.1,0.3,0.1,0.5,0.2c0.2,0,0.4,0,0.7,0h5.9c1,0,1.7-0.2,2.3-0.7c0.5-0.5,0.8-1.1,0.8-2
			c0-0.5-0.1-1-0.3-1.4s-0.5-0.9-0.8-1.2c-0.4-0.4-0.8-0.6-1.3-0.9s-1.1-0.4-1.8-0.4H29c-0.3,0-0.5,0-0.7,0c-0.2,0-0.3,0.1-0.5,0.2
			c-0.1,0.1-0.2,0.2-0.3,0.3c-0.1,0.1-0.1,0.3-0.2,0.5V77.8z"/>
		<path class="st0" d="M3.5,0.2C3.6,0.6,3.8,0.9,4,1.1c0.2,0.2,0.6,0.2,1.2,0.2h9.9c0.3,0,0.5,0,0.7,0c0.2,0,0.3-0.1,0.5-0.1
			c0.1-0.1,0.2-0.2,0.3-0.3c0.1-0.1,0.1-0.3,0.2-0.5v8.6l-3.5,0.4c0.7-0.2,1.2-0.4,1.6-0.7c0.4-0.3,0.7-0.6,1-1
			c0.2-0.4,0.4-0.8,0.5-1.2c0.1-0.4,0.1-0.9,0.1-1.4V2.8h-5.7v1.6c0,0.7,0,1.2,0.1,1.6s0.2,0.7,0.3,1s0.3,0.4,0.6,0.5
			c0.2,0.1,0.5,0.2,0.7,0.3L8.7,7.5c0.3,0,0.5-0.1,0.8-0.1S9.9,7.1,10,6.9s0.3-0.5,0.4-0.9c0.1-0.4,0.1-1,0.1-1.6V2.8H3.8v2.9
			c0,0.5,0,0.9,0.1,1.3c0.1,0.4,0.3,0.8,0.5,1.1C4.8,8.5,5.2,8.8,5.6,9c0.5,0.3,1.1,0.5,1.8,0.6l-4-0.3V0.2z"/>
		<path class="st0" d="M14.3,14.6c-0.1-0.1-0.2-0.2-0.4-0.2c-0.2-0.1-0.5,0-0.9,0.2l-7.8,3.2l7.8,3.1c0.2,0.1,0.4,0.1,0.6,0.1
			c0.2,0,0.3,0,0.4-0.1c0.1-0.1,0.2-0.1,0.2-0.2c0.1-0.1,0.1-0.1,0.1-0.2v1.8c-0.1-0.1-0.2-0.3-0.4-0.5c-0.2-0.2-0.5-0.4-0.9-0.6
			l-10.1-4c-0.2-0.1-0.5-0.2-0.7-0.4c-0.3-0.1-0.6-0.3-0.8-0.6c-0.3-0.2-0.5-0.5-0.7-0.8c-0.2-0.3-0.3-0.7-0.4-1.1l1.9-0.7
			c-0.3,0.5-0.4,1-0.4,1.4s0.1,0.9,0.4,1.2c0.3,0.4,0.7,0.7,1.3,0.9l9.8-4c0.4-0.2,0.7-0.3,0.8-0.5c0.2-0.1,0.3-0.3,0.3-0.4V14.6z"
			/>
		<path class="st0" d="M14.4,29.6c0,0.8-0.1,1.4-0.3,2c-0.2,0.6-0.5,1-0.9,1.4s-0.9,0.6-1.4,0.8c-0.5,0.2-1.1,0.3-1.8,0.3V26
			c-0.2,0-0.4,0-0.6-0.1c-0.2,0-0.4,0-0.6,0c-0.7,0-1.4,0.1-2,0.3c-0.6,0.2-1.2,0.5-1.6,0.8c-0.5,0.4-0.8,0.8-1.1,1.3
			c-0.3,0.5-0.4,1-0.4,1.6c0,0.5,0.1,1,0.3,1.4c0.2,0.4,0.5,0.8,0.8,1.1c0.3,0.3,0.8,0.7,1.2,0.9c0.5,0.3,1,0.5,1.6,0.7l-2.8-0.2
			c-0.5-0.6-0.8-1.2-1-1.9c-0.2-0.7-0.3-1.4-0.3-2.1c0-0.8,0.1-1.5,0.4-2.2C4.1,27,4.4,26.5,4.9,26c0.5-0.5,1-0.9,1.7-1.1
			c0.7-0.3,1.4-0.4,2.2-0.4c0.8,0,1.5,0.1,2.2,0.4c0.7,0.2,1.3,0.6,1.8,1c0.5,0.4,0.9,1,1.2,1.6C14.3,28.1,14.4,28.8,14.4,29.6z
			 M10.2,26.1v6.5c0.6,0,1.1-0.1,1.6-0.2c0.5-0.1,0.9-0.3,1.2-0.6s0.6-0.6,0.8-0.9c0.2-0.4,0.3-0.8,0.3-1.3c0-0.5-0.1-0.9-0.3-1.3
			c-0.2-0.4-0.5-0.7-0.8-1c-0.4-0.3-0.8-0.5-1.2-0.7C11.3,26.3,10.8,26.2,10.2,26.1z"/>
		<path class="st0" d="M4.5,37l3.6,0.3c-0.9,0.1-1.6,0.2-2.2,0.4s-1,0.5-1.4,0.8c-0.3,0.3-0.6,0.7-0.7,1.1s-0.2,0.8-0.2,1.3
			c0,1,0.2,1.7,0.7,2.1c0.5,0.5,1,0.7,1.7,0.7c0.4,0,0.7-0.1,1-0.2c0.3-0.1,0.5-0.3,0.7-0.5s0.3-0.4,0.4-0.6
			c0.1-0.2,0.2-0.4,0.2-0.6L9,39.6c0.1-0.2,0.2-0.4,0.3-0.7s0.3-0.5,0.5-0.7c0.2-0.2,0.5-0.4,0.8-0.6c0.3-0.2,0.7-0.2,1.1-0.2
			c0.8,0,1.5,0.3,2,0.9c0.5,0.6,0.7,1.5,0.7,2.5c0,0.7-0.1,1.3-0.3,1.9c-0.2,0.6-0.5,1.1-0.9,1.5l-2.6-0.1c1.3-0.3,2.2-0.7,2.7-1.3
			c0.5-0.5,0.8-1.2,0.8-2.1c0-0.7-0.2-1.3-0.5-1.7c-0.3-0.5-0.8-0.7-1.5-0.7c-0.3,0-0.6,0.1-0.8,0.2c-0.2,0.1-0.4,0.3-0.5,0.5
			c-0.1,0.2-0.2,0.4-0.3,0.6c-0.1,0.2-0.2,0.4-0.2,0.6l-0.6,1.9c-0.1,0.2-0.2,0.5-0.3,0.8c-0.1,0.3-0.3,0.6-0.6,0.9
			c-0.2,0.3-0.5,0.5-0.9,0.7c-0.4,0.2-0.8,0.3-1.3,0.3c-0.5,0-0.9-0.1-1.3-0.3s-0.7-0.4-1-0.8C4,43.4,3.8,43,3.7,42.5
			s-0.2-1.1-0.2-1.8c0-0.7,0.1-1.4,0.3-2.1C3.9,38,4.2,37.4,4.5,37z"/>
		<path class="st0" d="M3.5,47.4c0.1,0.2,0.1,0.4,0.2,0.5s0.2,0.2,0.3,0.3c0.1,0.1,0.3,0.1,0.5,0.2s0.4,0,0.7,0h11.3
			c0.4,0,0.7,0,0.9-0.1c0.2-0.1,0.3-0.2,0.5-0.4l0.2,1.9h-6.6c0.9,0.3,1.7,0.8,2.2,1.5c0.5,0.7,0.8,1.6,0.8,2.7
			c0,0.6-0.1,1.2-0.3,1.6c-0.2,0.5-0.4,0.9-0.7,1.2c-0.3,0.3-0.7,0.6-1.1,0.7c-0.4,0.2-0.9,0.3-1.4,0.3H5.2c-0.3,0-0.5,0-0.7,0
			C4.3,58,4.1,58,4,58.1c-0.1,0.1-0.2,0.2-0.3,0.3c-0.1,0.1-0.1,0.3-0.2,0.5v-3.4c0.1,0.2,0.1,0.4,0.2,0.5s0.2,0.2,0.3,0.3
			c0.1,0.1,0.3,0.1,0.5,0.2s0.4,0,0.7,0H11c1,0,1.7-0.2,2.3-0.7c0.5-0.5,0.8-1.1,0.8-2c0-0.5-0.1-1-0.3-1.4s-0.5-0.9-0.8-1.2
			c-0.4-0.4-0.8-0.6-1.3-0.9s-1.1-0.4-1.8-0.4H5.2c-0.3,0-0.5,0-0.7,0C4.3,49.9,4.1,50,4,50c-0.1,0.1-0.2,0.2-0.3,0.3
			s-0.1,0.3-0.2,0.5V47.4z"/>
		<path class="st0" d="M9.4,66l0.5,2.1h1.4c1,0,1.7-0.2,2.1-0.6s0.7-0.9,0.7-1.7c0-0.4-0.1-0.7-0.2-1.1c-0.1-0.4-0.3-0.7-0.7-1
			s-0.7-0.6-1.3-0.9c-0.5-0.3-1.2-0.5-2-0.7l3.2-0.1c0.4,0.5,0.7,1.1,0.9,1.7c0.2,0.7,0.3,1.4,0.3,2.1c0,1.1-0.3,2-0.8,2.7
			s-1.3,1-2.4,1H5.2c-0.4,0-0.7,0-1,0.1s-0.5,0.2-0.7,0.4l-0.1-1.9H6c-0.3-0.1-0.6-0.3-0.9-0.5c-0.3-0.2-0.6-0.4-0.8-0.7
			c-0.2-0.3-0.4-0.6-0.6-1c-0.1-0.4-0.2-0.8-0.2-1.4c0-0.5,0.1-0.9,0.2-1.3s0.3-0.7,0.5-1s0.5-0.5,0.8-0.7s0.7-0.2,1.1-0.2
			c0.6,0,1.1,0.2,1.5,0.5c0.4,0.3,0.7,0.7,1,1.2c0.3,0.5,0.5,1,0.6,1.5C9.2,65.1,9.3,65.6,9.4,66z M6,62.9c-0.7,0-1.2,0.2-1.6,0.5
			c-0.4,0.4-0.6,0.8-0.6,1.5c0,0.4,0.1,0.7,0.2,1.1c0.2,0.4,0.4,0.7,0.7,1s0.7,0.6,1.1,0.8s1,0.3,1.6,0.3h2.4l-0.5-2.1
			c-0.1-0.3-0.2-0.6-0.3-0.9c-0.1-0.4-0.3-0.7-0.5-1c-0.2-0.3-0.5-0.6-0.9-0.8S6.5,62.9,6,62.9z"/>
		<path class="st0" d="M14.4,77.9c0,0.6-0.1,1.2-0.3,1.7c-0.2,0.5-0.5,1-0.8,1.4h3.1c0.4,0,0.7,0,0.9-0.1c0.2-0.1,0.3-0.2,0.5-0.4
			l0.2,1.9H5.4c-0.5,0-1,0-1.2,0.1c-0.3,0.1-0.5,0.2-0.7,0.4l-0.1-1.9h1.5c-0.5-0.4-0.9-0.9-1.2-1.4c-0.2-0.6-0.4-1.1-0.4-1.7
			c0-0.8,0.1-1.5,0.4-2.2c0.3-0.7,0.6-1.2,1.1-1.7s1-0.8,1.7-1.1c0.6-0.3,1.3-0.4,2.1-0.4c0.9,0,1.6,0.1,2.3,0.4
			c0.7,0.3,1.3,0.6,1.8,1.1s0.9,1,1.2,1.7C14.3,76.5,14.4,77.2,14.4,77.9z M9.4,74.1c-0.8,0-1.5,0.1-2.2,0.3
			c-0.7,0.2-1.3,0.5-1.8,0.8S4.5,76,4.2,76.6c-0.3,0.5-0.5,1.1-0.5,1.8c0,0.5,0.1,1.1,0.4,1.5c0.3,0.5,0.7,0.9,1.1,1.2h6.5
			c0.8-0.3,1.4-0.8,1.8-1.3s0.6-1.2,0.6-1.9c0-0.6-0.1-1.1-0.3-1.5c-0.2-0.5-0.5-0.8-0.9-1.1c-0.4-0.3-0.9-0.6-1.5-0.7
			C10.8,74.2,10.1,74.1,9.4,74.1z"/>
		<path class="st0" d="M14.4,91.2c0,0.8-0.1,1.6-0.4,2.2c-0.3,0.7-0.6,1.2-1.1,1.7c-0.5,0.5-1.1,0.9-1.7,1.1
			c-0.7,0.3-1.4,0.4-2.2,0.4h0c-0.8,0-1.5-0.1-2.2-0.4s-1.3-0.6-1.7-1.1c-0.5-0.5-0.9-1.1-1.1-1.7c-0.3-0.7-0.4-1.4-0.4-2.2
			c0-0.8,0.1-1.6,0.4-2.2c0.3-0.7,0.6-1.2,1.1-1.7c0.5-0.5,1.1-0.9,1.7-1.1c0.7-0.3,1.4-0.4,2.2-0.4h0c0.8,0,1.5,0.1,2.2,0.4
			c0.7,0.3,1.3,0.6,1.7,1.1c0.5,0.5,0.9,1.1,1.1,1.7C14.3,89.6,14.4,90.4,14.4,91.2z M8.9,87.3c-0.8,0-1.5,0.1-2.1,0.3
			c-0.6,0.2-1.2,0.5-1.7,0.8c-0.5,0.3-0.8,0.8-1.1,1.2c-0.3,0.5-0.4,1-0.4,1.6c0,0.6,0.1,1.1,0.4,1.6c0.3,0.5,0.6,0.9,1.1,1.2
			c0.5,0.3,1,0.6,1.7,0.8c0.6,0.2,1.3,0.3,2.1,0.3c0.8,0,1.5-0.1,2.1-0.3c0.6-0.2,1.2-0.5,1.6-0.8c0.5-0.3,0.8-0.8,1.1-1.2
			c0.3-0.5,0.4-1,0.4-1.6c0-0.6-0.1-1.1-0.4-1.6c-0.3-0.5-0.6-0.9-1.1-1.2c-0.5-0.3-1-0.6-1.6-0.8C10.4,87.3,9.7,87.3,8.9,87.3z"/>
		<path class="st0" d="M14.3,101.4c-0.1-0.1-0.2-0.2-0.4-0.3s-0.4,0-0.8,0.1l-7.5,2.7l8.7,2.7v0.2l-8.8,3.5l6.4,2.1
			c0.5,0.2,0.9,0.3,1.2,0.3c0.3,0,0.5,0,0.7,0c0.2-0.1,0.3-0.1,0.3-0.2c0.1-0.1,0.1-0.2,0.1-0.2v1.9c-0.1-0.2-0.3-0.4-0.5-0.6
			s-0.6-0.4-1.2-0.6l-9.2-3v-0.2l8.7-3.4l-8.7-2.7v-0.2l9.1-3.3c0.6-0.2,1-0.4,1.2-0.6s0.4-0.3,0.5-0.4V101.4z"/>
		<path class="st0" d="M3.5,123.4c0.1,0.4,0.3,0.7,0.5,0.8s0.6,0.2,1.2,0.2h9.9c0.3,0,0.5,0,0.7,0c0.2,0,0.3-0.1,0.5-0.2
			c0.1-0.1,0.2-0.2,0.3-0.3c0.1-0.1,0.1-0.3,0.2-0.5v4.9c0,0.6-0.1,1.2-0.2,1.8c-0.1,0.6-0.3,1.1-0.6,1.6c-0.3,0.5-0.7,0.9-1.1,1.2
			c-0.5,0.3-1.1,0.5-1.8,0.5c-0.7,0-1.3-0.2-1.8-0.5s-0.9-0.7-1.2-1.2s-0.6-1.1-0.7-1.7c-0.2-0.6-0.2-1.2-0.2-1.8v-2.4h-4
			c-0.5,0-0.9,0.1-1.2,0.2c-0.2,0.1-0.4,0.4-0.5,0.8V123.4z M16.5,125.9H9.5v2c0,0.5,0.1,1,0.2,1.5s0.3,0.9,0.6,1.3s0.7,0.7,1.1,0.9
			c0.5,0.2,1,0.3,1.6,0.3c1.1,0,2-0.3,2.6-1c0.6-0.7,0.9-1.7,0.9-2.9V125.9z"/>
		<path class="st0" d="M9.4,140.8l0.5,2.1h1.4c1,0,1.7-0.2,2.1-0.6s0.7-0.9,0.7-1.7c0-0.4-0.1-0.7-0.2-1.1c-0.1-0.4-0.3-0.7-0.7-1
			s-0.7-0.6-1.3-0.9c-0.5-0.3-1.2-0.5-2-0.7l3.2-0.1c0.4,0.5,0.7,1.1,0.9,1.7c0.2,0.7,0.3,1.4,0.3,2.1c0,1.1-0.3,2-0.8,2.7
			s-1.3,1-2.4,1H5.2c-0.4,0-0.7,0-1,0.1s-0.5,0.2-0.7,0.4L3.4,143H6c-0.3-0.1-0.6-0.3-0.9-0.5c-0.3-0.2-0.6-0.4-0.8-0.7
			c-0.2-0.3-0.4-0.6-0.6-1c-0.1-0.4-0.2-0.8-0.2-1.4c0-0.5,0.1-0.9,0.2-1.3s0.3-0.7,0.5-1s0.5-0.5,0.8-0.7s0.7-0.2,1.1-0.2
			c0.6,0,1.1,0.2,1.5,0.5c0.4,0.3,0.7,0.7,1,1.2c0.3,0.5,0.5,1,0.6,1.5C9.2,139.8,9.3,140.3,9.4,140.8z M6,137.7
			c-0.7,0-1.2,0.2-1.6,0.5c-0.4,0.4-0.6,0.8-0.6,1.5c0,0.4,0.1,0.7,0.2,1.1c0.2,0.4,0.4,0.7,0.7,1s0.7,0.6,1.1,0.8s1,0.3,1.6,0.3
			h2.4l-0.5-2.1c-0.1-0.3-0.2-0.6-0.3-0.9c-0.1-0.4-0.3-0.7-0.5-1c-0.2-0.3-0.5-0.6-0.9-0.8S6.5,137.7,6,137.7z"/>
		<path class="st0" d="M3.5,147.4c0.1,0.2,0.1,0.4,0.2,0.5s0.2,0.2,0.3,0.3c0.1,0.1,0.3,0.1,0.5,0.2s0.4,0,0.7,0h11.3
			c0.4,0,0.7,0,0.9-0.1c0.2-0.1,0.3-0.2,0.5-0.4l0.2,1.9H5.2c-0.3,0-0.5,0-0.7,0c-0.2,0-0.3,0.1-0.5,0.2c-0.1,0.1-0.2,0.2-0.3,0.3
			s-0.1,0.3-0.2,0.5V147.4z"/>
		<path class="st0" d="M14.4,158.5c0,0.8-0.1,1.4-0.3,2c-0.2,0.6-0.5,1-0.9,1.4s-0.9,0.6-1.4,0.8c-0.5,0.2-1.1,0.3-1.8,0.3V155
			c-0.2,0-0.4,0-0.6-0.1c-0.2,0-0.4,0-0.6,0c-0.7,0-1.4,0.1-2,0.3c-0.6,0.2-1.2,0.5-1.6,0.8c-0.5,0.4-0.8,0.8-1.1,1.3
			c-0.3,0.5-0.4,1-0.4,1.6c0,0.5,0.1,1,0.3,1.4c0.2,0.4,0.5,0.8,0.8,1.1c0.3,0.3,0.8,0.7,1.2,0.9c0.5,0.3,1,0.5,1.6,0.7l-2.8-0.2
			c-0.5-0.6-0.8-1.2-1-1.9c-0.2-0.7-0.3-1.4-0.3-2.1c0-0.8,0.1-1.5,0.4-2.2c0.3-0.7,0.6-1.3,1.1-1.8c0.5-0.5,1-0.9,1.7-1.1
			c0.7-0.3,1.4-0.4,2.2-0.4c0.8,0,1.5,0.1,2.2,0.4c0.7,0.2,1.3,0.6,1.8,1c0.5,0.4,0.9,1,1.2,1.6C14.3,157,14.4,157.7,14.4,158.5z
			 M10.2,155v6.5c0.6,0,1.1-0.1,1.6-0.2c0.5-0.1,0.9-0.3,1.2-0.6s0.6-0.6,0.8-0.9c0.2-0.4,0.3-0.8,0.3-1.3c0-0.5-0.1-0.9-0.3-1.3
			c-0.2-0.4-0.5-0.7-0.8-1c-0.4-0.3-0.8-0.5-1.2-0.7C11.3,155.3,10.8,155.1,10.2,155z"/>
		<path class="st0" d="M14.3,167.7L17,169h-2.7v3.1h-0.2V169H5.9c-0.4,0-0.8,0-1.1,0.1c-0.3,0.1-0.5,0.1-0.7,0.2
			c-0.2,0.1-0.3,0.2-0.3,0.4c-0.1,0.2-0.1,0.3-0.1,0.5c0,0.4,0.1,0.7,0.3,0.9c0.2,0.3,0.5,0.5,0.9,0.7l-0.2,0.2
			c-0.4-0.3-0.7-0.5-1-0.8c-0.2-0.3-0.4-0.7-0.4-1.3c0-0.9,0.3-1.5,0.8-1.9c0.5-0.4,1.2-0.5,2.2-0.5h7.7v-1.9h0.2V167.7z"/>
		<path class="st0" d="M14.3,176.3l2.7,1.3h-2.7v3.1h-0.2v-3.1H5.9c-0.4,0-0.8,0-1.1,0.1c-0.3,0.1-0.5,0.1-0.7,0.2
			c-0.2,0.1-0.3,0.2-0.3,0.4c-0.1,0.2-0.1,0.3-0.1,0.5c0,0.4,0.1,0.7,0.3,0.9c0.2,0.3,0.5,0.5,0.9,0.7l-0.2,0.2
			c-0.4-0.3-0.7-0.5-1-0.8c-0.2-0.3-0.4-0.7-0.4-1.3c0-0.9,0.3-1.5,0.8-1.9c0.5-0.4,1.2-0.5,2.2-0.5h7.7v-1.9h0.2V176.3z"/>
		<path class="st0" d="M14.4,188.3c0,0.8-0.1,1.4-0.3,2c-0.2,0.6-0.5,1-0.9,1.4s-0.9,0.6-1.4,0.8c-0.5,0.2-1.1,0.3-1.8,0.3v-8.1
			c-0.2,0-0.4,0-0.6-0.1c-0.2,0-0.4,0-0.6,0c-0.7,0-1.4,0.1-2,0.3c-0.6,0.2-1.2,0.5-1.6,0.8c-0.5,0.4-0.8,0.8-1.1,1.3
			c-0.3,0.5-0.4,1-0.4,1.6c0,0.5,0.1,1,0.3,1.4c0.2,0.4,0.5,0.8,0.8,1.1c0.3,0.3,0.8,0.7,1.2,0.9c0.5,0.3,1,0.5,1.6,0.7l-2.8-0.2
			c-0.5-0.6-0.8-1.2-1-1.9c-0.2-0.7-0.3-1.4-0.3-2.1c0-0.8,0.1-1.5,0.4-2.2c0.3-0.7,0.6-1.3,1.1-1.8c0.5-0.5,1-0.9,1.7-1.1
			c0.7-0.3,1.4-0.4,2.2-0.4c0.8,0,1.5,0.1,2.2,0.4c0.7,0.2,1.3,0.6,1.8,1c0.5,0.4,0.9,1,1.2,1.6C14.3,186.8,14.4,187.5,14.4,188.3z
			 M10.2,184.8v6.5c0.6,0,1.1-0.1,1.6-0.2c0.5-0.1,0.9-0.3,1.2-0.6s0.6-0.6,0.8-0.9c0.2-0.4,0.3-0.8,0.3-1.3c0-0.5-0.1-0.9-0.3-1.3
			c-0.2-0.4-0.5-0.7-0.8-1c-0.4-0.3-0.8-0.5-1.2-0.7C11.3,185,10.8,184.9,10.2,184.8z"/>
	</g>
</g>
</svg>
