<?xml version="1.0" encoding="utf-8"?>
<!-- Generator: Adobe Illustrator 25.4.1, SVG Export Plug-In . SVG Version: 6.00 Build 0)  -->
<svg version="1.1" id="レイヤー_1" xmlns="http://www.w3.org/2000/svg" xmlns:xlink="http://www.w3.org/1999/xlink" x="0px"
	 y="0px" viewBox="0 0 22 359" style="enable-background:new 0 0 22 359;" xml:space="preserve">
<style type="text/css">
	.st0{fill:#D17A55;}
</style>
<g>
	<path class="st0" d="M20.5,1.4v12.7L15,14.4c1.1-0.2,2-0.3,2.7-0.6c0.7-0.2,1.2-0.5,1.5-0.8c0.4-0.3,0.6-0.7,0.7-1.1
		c0.1-0.4,0.2-0.9,0.2-1.5V8.6H6.2c-0.3,0-0.6,0-0.8,0.1C5.1,8.7,5,8.8,4.8,8.9S4.5,9.1,4.4,9.2C4.3,9.4,4.2,9.6,4.2,9.8V5.5
		C4.2,5.8,4.3,6,4.4,6.2c0.1,0.2,0.2,0.3,0.4,0.4s0.3,0.2,0.6,0.2c0.2,0,0.5,0.1,0.9,0.1h13.9V5c0-0.6-0.1-1.1-0.2-1.5
		c-0.1-0.4-0.4-0.8-0.7-1.1c-0.4-0.3-0.9-0.6-1.5-0.8C17,1.4,16.1,1.2,15,1L20.5,1.4z"/>
	<path class="st0" d="M4.2,17.7c0.1,0.2,0.2,0.5,0.3,0.6c0.1,0.2,0.2,0.3,0.4,0.4s0.3,0.2,0.6,0.2s0.5,0,0.8,0H20
		c0.5,0,0.8,0,1.1-0.1c0.2-0.1,0.4-0.2,0.6-0.5l0.3,2.3h-8.1c1.1,0.4,2,1,2.7,1.9c0.7,0.9,1,2,1,3.3c0,0.8-0.1,1.4-0.3,2
		c-0.2,0.6-0.5,1.1-0.9,1.5c-0.4,0.4-0.9,0.7-1.4,0.9c-0.5,0.2-1.1,0.3-1.8,0.3H6.2c-0.3,0-0.6,0-0.8,0.1s-0.4,0.1-0.6,0.2
		S4.5,31,4.4,31.1c-0.1,0.2-0.2,0.4-0.3,0.6v-4.2c0.1,0.2,0.2,0.5,0.3,0.6c0.1,0.2,0.2,0.3,0.4,0.4s0.3,0.2,0.6,0.2s0.5,0,0.8,0h7.2
		c1.2,0,2.1-0.3,2.8-0.8c0.7-0.6,1-1.4,1-2.5c0-0.6-0.1-1.2-0.3-1.8c-0.2-0.6-0.6-1.1-1-1.5c-0.4-0.4-1-0.8-1.6-1.1
		c-0.6-0.3-1.4-0.4-2.2-0.5H6.2c-0.3,0-0.6,0-0.8,0.1s-0.4,0.1-0.6,0.2s-0.3,0.2-0.4,0.4c-0.1,0.2-0.2,0.4-0.3,0.6V17.7z"/>
	<path class="st0" d="M17.5,41c0,0.9-0.1,1.8-0.4,2.5c-0.3,0.7-0.6,1.3-1.1,1.7c-0.5,0.5-1.1,0.8-1.7,1c-0.7,0.2-1.4,0.3-2.2,0.4
		v-9.9c-0.2,0-0.5-0.1-0.7-0.1c-0.2,0-0.5,0-0.7,0c-0.9,0-1.7,0.1-2.5,0.4s-1.4,0.6-2,1c-0.6,0.4-1,0.9-1.3,1.5
		c-0.3,0.6-0.5,1.2-0.5,1.9c0,0.6,0.1,1.2,0.3,1.7c0.2,0.5,0.6,1,1,1.4c0.4,0.4,0.9,0.8,1.5,1.1c0.6,0.3,1.2,0.6,1.9,0.9l-3.4-0.2
		c-0.6-0.7-1-1.5-1.3-2.3C4.2,43.2,4,42.3,4,41.5c0-1,0.2-1.9,0.5-2.7c0.3-0.8,0.8-1.5,1.3-2.1C6.4,36,7.2,35.6,8,35.2
		c0.8-0.3,1.7-0.5,2.7-0.5c1,0,1.9,0.1,2.7,0.4c0.8,0.3,1.5,0.7,2.2,1.3s1.1,1.2,1.4,2C17.4,39.2,17.5,40.1,17.5,41z M12.4,36.8v8
		c0.7,0,1.3-0.1,1.9-0.3c0.6-0.2,1.1-0.4,1.5-0.7c0.4-0.3,0.8-0.7,1-1.2c0.2-0.5,0.4-1,0.4-1.6c0-0.6-0.1-1.1-0.4-1.5
		c-0.2-0.5-0.6-0.9-1-1.3c-0.4-0.4-0.9-0.7-1.5-0.9C13.8,37.1,13.1,36.9,12.4,36.8z"/>
	<path class="st0" d="M5.9,58.9l4.4,0.4c-1.9,0.2-3.3,0.7-4.3,1.6c-1,0.9-1.5,2.1-1.5,3.7c0,0.6,0.1,1.2,0.3,1.7
		c0.2,0.5,0.4,0.9,0.8,1.3c0.3,0.3,0.7,0.6,1.1,0.8s0.9,0.3,1.3,0.3c0.6,0,1.1-0.1,1.5-0.4s0.8-0.5,1-0.9c0.3-0.3,0.5-0.7,0.7-1.1
		c0.2-0.4,0.3-0.7,0.4-0.9l0.9-2.3c0.1-0.3,0.3-0.7,0.5-1.1c0.2-0.4,0.5-0.8,0.8-1.2c0.3-0.4,0.7-0.7,1.2-1c0.5-0.3,1.1-0.4,1.8-0.4
		c0.6,0,1.1,0.1,1.6,0.3s0.9,0.5,1.3,0.9c0.4,0.4,0.7,0.9,0.9,1.5s0.3,1.3,0.3,2.1c0,0.7-0.1,1.5-0.3,2.4c-0.2,0.9-0.5,1.6-1,2.3
		l-4.5,0.2c1.7-0.3,3.1-0.8,4-1.6c0.9-0.8,1.4-1.9,1.4-3.3c0-0.5-0.1-1.1-0.2-1.5c-0.1-0.5-0.4-0.9-0.6-1.2c-0.3-0.3-0.6-0.6-1-0.8
		c-0.4-0.2-0.8-0.3-1.2-0.3c-0.5,0-0.9,0.1-1.2,0.3c-0.3,0.2-0.6,0.5-0.9,0.8c-0.2,0.3-0.5,0.7-0.6,1s-0.3,0.7-0.4,0.9L13.3,66
		c-0.5,1.2-1,2.1-1.8,2.8c-0.7,0.7-1.7,1.1-2.8,1.1c-0.7,0-1.3-0.1-1.8-0.4c-0.6-0.2-1.1-0.6-1.5-1s-0.7-1-1-1.7
		C4.1,66.1,4,65.4,4,64.5c0-1.1,0.2-2.1,0.5-3.2C4.8,60.4,5.3,59.6,5.9,58.9z"/>
	<path class="st0" d="M4.2,73.3c0.1,0.2,0.2,0.5,0.3,0.6c0.1,0.2,0.2,0.3,0.4,0.4s0.3,0.2,0.6,0.2s0.5,0,0.8,0H20
		c0.5,0,0.8,0,1.1-0.1c0.2-0.1,0.4-0.2,0.6-0.5l0.3,2.3h-12l5.3,6c0.4,0.4,0.7,0.8,1.1,1.1c0.4,0.3,0.7,0.4,1.1,0.4v2.1
		c-0.1-0.2-0.2-0.3-0.3-0.5c-0.1-0.2-0.3-0.4-0.5-0.7c-0.2-0.3-0.5-0.6-0.8-1s-0.7-0.8-1.2-1.3l-2.3-2.6l-5.7,4.5
		c-0.5,0.4-1,0.8-1.3,1.1c-0.3,0.3-0.6,0.5-0.8,0.6c-0.2,0.2-0.3,0.3-0.4,0.3s-0.1,0.1-0.1,0.1v-3c0,0,0.1,0.1,0.2,0.1
		c0.1,0,0.2,0,0.4-0.1s0.4-0.2,0.6-0.3c0.3-0.1,0.6-0.4,1-0.7l5-3.9l-1.9-2.2H6.2c-0.3,0-0.6,0-0.8,0.1s-0.4,0.1-0.6,0.2
		s-0.3,0.2-0.4,0.4c-0.1,0.2-0.2,0.4-0.3,0.6V73.3z"/>
	<path class="st0" d="M4.2,89c0.1,0.2,0.2,0.5,0.3,0.6c0.1,0.2,0.2,0.3,0.4,0.4s0.3,0.2,0.6,0.2s0.5,0,0.8,0h8.7c0.3,0,0.6,0,0.9,0
		c0.2,0,0.5-0.1,0.6-0.1c0.2,0,0.4-0.1,0.5-0.2c0.2-0.1,0.3-0.2,0.5-0.3l0.2,2.4H6.2c-0.3,0-0.6,0-0.8,0.1s-0.4,0.1-0.6,0.2
		s-0.3,0.2-0.4,0.4c-0.1,0.2-0.2,0.4-0.3,0.6V89z M21.6,91c0,0.4-0.1,0.7-0.3,0.9c-0.2,0.2-0.5,0.4-0.9,0.4s-0.6-0.1-0.9-0.4
		c-0.2-0.2-0.3-0.5-0.3-0.9c0-0.3,0.1-0.6,0.3-0.9c0.2-0.2,0.5-0.4,0.9-0.4s0.6,0.1,0.9,0.4C21.5,90.3,21.6,90.6,21.6,91z"/>
	<path class="st0" d="M4.2,96.2c0.1,0.2,0.2,0.5,0.3,0.6c0.1,0.2,0.2,0.3,0.4,0.4s0.3,0.2,0.6,0.2s0.5,0,0.8,0h8.7
		c0.3,0,0.6,0,0.9,0c0.2,0,0.5-0.1,0.6-0.1c0.2,0,0.4-0.1,0.5-0.2c0.2-0.1,0.3-0.2,0.5-0.3l0.2,2.4h-3.7c1.1,0.4,2,1,2.7,1.9
		c0.7,0.9,1,2,1,3.3c0,0.8-0.1,1.4-0.3,2c-0.2,0.6-0.5,1.1-0.9,1.5c-0.4,0.4-0.9,0.7-1.4,0.9c-0.5,0.2-1.1,0.3-1.8,0.3H6.2
		c-0.3,0-0.6,0-0.8,0.1c-0.2,0-0.4,0.1-0.6,0.2s-0.3,0.2-0.4,0.4c-0.1,0.2-0.2,0.4-0.3,0.6V106c0.1,0.2,0.2,0.5,0.3,0.6
		c0.1,0.2,0.2,0.3,0.4,0.4s0.3,0.2,0.6,0.2s0.5,0,0.8,0h7.2c1.2,0,2.1-0.3,2.8-0.8c0.7-0.6,1-1.4,1-2.5c0-0.6-0.1-1.2-0.3-1.8
		c-0.2-0.6-0.6-1.1-1-1.5c-0.4-0.4-1-0.8-1.6-1.1s-1.4-0.4-2.2-0.5H6.2c-0.3,0-0.6,0-0.8,0.1s-0.4,0.1-0.6,0.2s-0.3,0.2-0.4,0.4
		c-0.1,0.2-0.2,0.4-0.3,0.6V96.2z"/>
	<path class="st0" d="M4.2,122c0.1,0.5,0.4,0.9,0.6,1.1c0.3,0.2,0.8,0.3,1.5,0.3h12.2c0.3,0,0.6,0,0.9,0s0.4-0.1,0.6-0.2
		c0.1-0.1,0.3-0.2,0.4-0.4s0.2-0.4,0.2-0.6v10.5l-4.3,0.5c0.8-0.2,1.5-0.5,2-0.8c0.5-0.3,0.9-0.7,1.2-1.2c0.3-0.4,0.5-0.9,0.6-1.5
		s0.2-1.1,0.2-1.7v-2.9h-6.9v1.9c0,0.8,0,1.5,0.1,2s0.2,0.9,0.4,1.2c0.2,0.3,0.4,0.5,0.7,0.7c0.3,0.1,0.6,0.2,0.9,0.3l-4.8-0.3
		c0.3,0,0.7-0.1,0.9-0.2c0.3-0.1,0.5-0.3,0.7-0.6c0.2-0.3,0.3-0.7,0.4-1.2c0.1-0.5,0.2-1.2,0.2-2v-1.9H4.6v3.6
		c0,0.6,0.1,1.1,0.2,1.6s0.3,1,0.7,1.4c0.3,0.4,0.8,0.8,1.4,1.1c0.6,0.3,1.3,0.6,2.3,0.8l-4.9-0.4V122z"/>
	<path class="st0" d="M17.4,139.6c-0.1-0.1-0.3-0.2-0.5-0.3s-0.6,0-1.2,0.2l-9.6,3.9l9.6,3.8c0.3,0.1,0.5,0.2,0.7,0.2
		c0.2,0,0.4-0.1,0.5-0.1s0.2-0.2,0.3-0.2c0.1-0.1,0.1-0.2,0.2-0.2v2.2c-0.1-0.1-0.3-0.3-0.5-0.6c-0.2-0.3-0.6-0.5-1.2-0.7l-12.4-5
		c-0.3-0.1-0.6-0.3-0.9-0.4c-0.3-0.2-0.7-0.4-1-0.7c-0.3-0.3-0.6-0.6-0.9-1s-0.4-0.9-0.5-1.4l2.3-0.8c-0.3,0.6-0.5,1.2-0.5,1.7
		s0.2,1,0.5,1.5c0.3,0.5,0.9,0.8,1.6,1.1l12-5c0.5-0.2,0.8-0.4,1-0.6c0.2-0.2,0.3-0.3,0.4-0.4V139.6z"/>
	<path class="st0" d="M17.5,158c0,0.9-0.1,1.8-0.4,2.5c-0.3,0.7-0.6,1.3-1.1,1.7c-0.5,0.5-1.1,0.8-1.7,1c-0.7,0.2-1.4,0.3-2.2,0.4
		v-9.9c-0.2,0-0.5-0.1-0.7-0.1c-0.2,0-0.5,0-0.7,0c-0.9,0-1.7,0.1-2.5,0.4s-1.4,0.6-2,1c-0.6,0.4-1,0.9-1.3,1.5
		c-0.3,0.6-0.5,1.2-0.5,1.9c0,0.6,0.1,1.2,0.3,1.7c0.2,0.5,0.6,1,1,1.4c0.4,0.4,0.9,0.8,1.5,1.1c0.6,0.3,1.2,0.6,1.9,0.9l-3.4-0.2
		c-0.6-0.7-1-1.5-1.3-2.3c-0.3-0.9-0.4-1.7-0.4-2.6c0-1,0.2-1.9,0.5-2.7c0.3-0.8,0.8-1.5,1.3-2.1c0.6-0.6,1.3-1.1,2.1-1.4
		c0.8-0.3,1.7-0.5,2.7-0.5c1,0,1.9,0.1,2.7,0.4c0.8,0.3,1.5,0.7,2.2,1.3s1.1,1.2,1.4,2C17.4,156.1,17.5,157,17.5,158z M12.4,153.7v8
		c0.7,0,1.3-0.1,1.9-0.3c0.6-0.2,1.1-0.4,1.5-0.7c0.4-0.3,0.8-0.7,1-1.2c0.2-0.5,0.4-1,0.4-1.6c0-0.6-0.1-1.1-0.4-1.5
		c-0.2-0.5-0.6-0.9-1-1.3c-0.4-0.4-0.9-0.7-1.5-0.9C13.8,154,13.1,153.8,12.4,153.7z"/>
	<path class="st0" d="M5.4,167.1l4.4,0.4c-1.1,0.1-1.9,0.3-2.7,0.5s-1.3,0.6-1.7,1c-0.4,0.4-0.7,0.8-0.9,1.3c-0.2,0.5-0.3,1-0.3,1.6
		c0,1.2,0.3,2,0.8,2.6s1.3,0.8,2.1,0.8c0.5,0,0.9-0.1,1.2-0.3c0.3-0.2,0.6-0.4,0.8-0.6c0.2-0.2,0.4-0.5,0.5-0.8
		c0.1-0.3,0.2-0.5,0.3-0.8l0.8-2.5c0.1-0.3,0.2-0.5,0.4-0.8c0.2-0.3,0.4-0.6,0.6-0.9c0.3-0.3,0.6-0.5,1-0.7c0.4-0.2,0.8-0.3,1.3-0.3
		c1,0,1.8,0.4,2.4,1.2c0.6,0.8,0.9,1.8,0.9,3.1c0,0.9-0.1,1.6-0.4,2.4c-0.3,0.7-0.6,1.3-1.1,1.8l-3.2-0.2c1.5-0.4,2.6-0.9,3.3-1.5
		s1-1.5,1-2.5c0-0.8-0.2-1.5-0.6-2.1c-0.4-0.6-1-0.8-1.8-0.8c-0.4,0-0.7,0.1-0.9,0.2c-0.3,0.2-0.5,0.3-0.6,0.6
		c-0.2,0.2-0.3,0.5-0.4,0.7c-0.1,0.3-0.2,0.5-0.3,0.8l-0.8,2.3c-0.1,0.3-0.2,0.6-0.4,1c-0.2,0.4-0.4,0.7-0.7,1.1
		c-0.3,0.3-0.6,0.6-1.1,0.9c-0.4,0.2-1,0.4-1.6,0.4c-0.6,0-1.1-0.1-1.6-0.3c-0.5-0.2-0.9-0.5-1.3-1c-0.4-0.4-0.6-0.9-0.8-1.6
		S4,172.5,4,171.7c0-0.9,0.1-1.7,0.4-2.6C4.6,168.3,5,167.6,5.4,167.1z"/>
	<path class="st0" d="M4.2,179.8c0.1,0.2,0.2,0.5,0.3,0.6c0.1,0.2,0.2,0.3,0.4,0.4s0.3,0.2,0.6,0.2s0.5,0,0.8,0H20
		c0.5,0,0.8,0,1.1-0.1c0.2-0.1,0.4-0.2,0.6-0.5l0.3,2.3h-8.1c1.1,0.4,2,1,2.7,1.9c0.7,0.9,1,2,1,3.3c0,0.8-0.1,1.4-0.3,2
		c-0.2,0.6-0.5,1.1-0.9,1.5c-0.4,0.4-0.9,0.7-1.4,0.9c-0.5,0.2-1.1,0.3-1.8,0.3H6.2c-0.3,0-0.6,0-0.8,0.1s-0.4,0.1-0.6,0.2
		s-0.3,0.2-0.4,0.4c-0.1,0.2-0.2,0.4-0.3,0.6v-4.2c0.1,0.2,0.2,0.5,0.3,0.6c0.1,0.2,0.2,0.3,0.4,0.4s0.3,0.2,0.6,0.2s0.5,0,0.8,0
		h7.2c1.2,0,2.1-0.3,2.8-0.8c0.7-0.6,1-1.4,1-2.5c0-0.6-0.1-1.2-0.3-1.8c-0.2-0.6-0.6-1.1-1-1.5c-0.4-0.4-1-0.8-1.6-1.1
		c-0.6-0.3-1.4-0.4-2.2-0.5H6.2c-0.3,0-0.6,0-0.8,0.1s-0.4,0.1-0.6,0.2s-0.3,0.2-0.4,0.4c-0.1,0.2-0.2,0.4-0.3,0.6V179.8z"/>
	<path class="st0" d="M11.4,202.6l0.6,2.6h1.7c1.2,0,2-0.2,2.6-0.7c0.6-0.5,0.8-1.2,0.8-2.1c0-0.4-0.1-0.9-0.2-1.3
		c-0.1-0.5-0.4-0.9-0.8-1.3c-0.4-0.4-0.9-0.8-1.6-1.1c-0.7-0.3-1.5-0.6-2.5-0.8l3.9-0.1c0.5,0.6,0.8,1.3,1.1,2.1
		c0.3,0.8,0.4,1.7,0.4,2.6c0,1.4-0.3,2.5-1,3.3c-0.7,0.8-1.6,1.2-2.9,1.2H6.2c-0.5,0-0.9,0.1-1.2,0.2c-0.3,0.1-0.6,0.3-0.8,0.5
		l-0.1-2.3h3.1c-0.4-0.2-0.8-0.4-1.2-0.6c-0.4-0.2-0.7-0.5-1-0.9c-0.3-0.4-0.5-0.8-0.7-1.3s-0.3-1-0.3-1.7c0-0.6,0.1-1.1,0.2-1.6
		c0.1-0.5,0.3-0.9,0.6-1.3c0.3-0.4,0.6-0.6,1-0.8c0.4-0.2,0.8-0.3,1.3-0.3c0.7,0,1.3,0.2,1.8,0.6s0.9,0.9,1.2,1.4
		c0.3,0.6,0.6,1.2,0.8,1.9C11.1,201.4,11.3,202,11.4,202.6z M7.2,198.8c-0.8,0-1.5,0.2-2,0.6c-0.5,0.4-0.8,1-0.8,1.8
		c0,0.4,0.1,0.9,0.3,1.3s0.5,0.9,0.8,1.2c0.4,0.4,0.8,0.7,1.4,0.9c0.5,0.2,1.2,0.4,1.9,0.4h2.9l-0.6-2.6c-0.1-0.3-0.2-0.7-0.4-1.2
		c-0.2-0.4-0.4-0.9-0.7-1.3c-0.3-0.4-0.7-0.7-1.1-1C8.5,198.9,7.9,198.8,7.2,198.8z"/>
	<path class="st0" d="M17.5,217.2c0,0.7-0.1,1.4-0.3,2.1c-0.2,0.6-0.6,1.2-1,1.7H20c0.5,0,0.8,0,1.1-0.1c0.2-0.1,0.4-0.2,0.6-0.5
		l0.3,2.3H6.5c-0.7,0-1.2,0.1-1.5,0.2c-0.3,0.1-0.6,0.3-0.8,0.5l-0.1-2.3h1.8c-0.7-0.5-1.1-1.1-1.4-1.8C4.2,218.7,4,218,4,217.3
		c0-1,0.2-1.9,0.5-2.7c0.3-0.8,0.8-1.5,1.3-2.1s1.2-1,2-1.3c0.8-0.3,1.6-0.5,2.5-0.5c1,0,2,0.2,2.9,0.5c0.9,0.3,1.6,0.8,2.2,1.3
		s1.1,1.3,1.5,2.1C17.4,215.4,17.5,216.3,17.5,217.2z M11.4,212.5c-1,0-1.9,0.1-2.7,0.3c-0.8,0.2-1.6,0.6-2.2,1
		c-0.6,0.4-1.1,1-1.5,1.6c-0.4,0.6-0.6,1.4-0.6,2.2c0,0.7,0.2,1.3,0.5,1.9c0.3,0.6,0.8,1,1.4,1.5h8c1-0.4,1.7-1,2.2-1.6
		s0.7-1.5,0.7-2.3c0-0.7-0.1-1.3-0.4-1.9c-0.3-0.6-0.7-1-1.2-1.4s-1.1-0.7-1.8-0.9C13.1,212.6,12.3,212.5,11.4,212.5z"/>
	<path class="st0" d="M17.5,233.5c0,1-0.2,1.9-0.5,2.7c-0.3,0.8-0.8,1.5-1.4,2.1s-1.3,1.1-2.1,1.4c-0.8,0.3-1.7,0.5-2.7,0.5h0
		c-1,0-1.9-0.2-2.7-0.5c-0.8-0.3-1.5-0.8-2.1-1.4s-1.1-1.3-1.4-2.1c-0.3-0.8-0.5-1.7-0.5-2.7c0-1,0.2-1.9,0.5-2.7
		c0.3-0.8,0.8-1.5,1.4-2.1c0.6-0.6,1.3-1.1,2.1-1.4c0.8-0.3,1.7-0.5,2.7-0.5h0c1,0,1.9,0.2,2.7,0.5c0.8,0.3,1.5,0.8,2.1,1.4
		c0.6,0.6,1.1,1.3,1.4,2.1C17.4,231.5,17.5,232.5,17.5,233.5z M10.8,228.6c-0.9,0-1.8,0.1-2.6,0.4c-0.8,0.2-1.5,0.6-2,1
		c-0.6,0.4-1,0.9-1.3,1.5c-0.3,0.6-0.5,1.3-0.5,2s0.2,1.4,0.5,2s0.8,1.1,1.3,1.5c0.6,0.4,1.2,0.8,2,1c0.8,0.2,1.6,0.4,2.6,0.4
		c0.9,0,1.8-0.1,2.6-0.4c0.8-0.2,1.5-0.6,2-1s1-0.9,1.3-1.5c0.3-0.6,0.5-1.3,0.5-2s-0.2-1.4-0.5-2c-0.3-0.6-0.8-1.1-1.3-1.5
		s-1.2-0.8-2-1C12.6,228.7,11.7,228.6,10.8,228.6z"/>
	<path class="st0" d="M17.4,245.9c-0.1-0.1-0.3-0.3-0.5-0.3s-0.5,0-1,0.1L6.8,249l10.6,3.3v0.2l-10.8,4.3l7.9,2.6
		c0.6,0.2,1.1,0.3,1.5,0.4c0.4,0,0.6,0,0.8-0.1c0.2-0.1,0.3-0.2,0.4-0.3s0.1-0.2,0.2-0.3v2.3c-0.1-0.2-0.3-0.5-0.6-0.7
		c-0.3-0.2-0.7-0.5-1.4-0.7l-11.3-3.7V256l10.6-4.2l-10.6-3.3v-0.3l11.2-4.1c0.7-0.3,1.2-0.5,1.5-0.7c0.3-0.2,0.5-0.4,0.6-0.5V245.9
		z"/>
	<path class="st0" d="M4.2,272.9c0.1,0.5,0.4,0.8,0.6,1c0.3,0.2,0.8,0.3,1.4,0.3h12.2c0.3,0,0.6,0,0.9-0.1s0.4-0.1,0.6-0.2
		c0.2-0.1,0.3-0.2,0.4-0.4c0.1-0.2,0.2-0.4,0.2-0.6v6c0,0.7-0.1,1.4-0.2,2.2c-0.1,0.7-0.4,1.4-0.8,2c-0.4,0.6-0.8,1.1-1.4,1.5
		s-1.3,0.6-2.1,0.6c-0.8,0-1.6-0.2-2.2-0.6s-1.1-0.9-1.5-1.5s-0.7-1.3-0.9-2c-0.2-0.7-0.3-1.5-0.3-2.2v-2.9H6.2
		c-0.7,0-1.1,0.1-1.4,0.3c-0.3,0.2-0.5,0.5-0.6,1V272.9z M20.1,275.9h-8.6v2.5c0,0.6,0.1,1.2,0.2,1.8s0.4,1.1,0.8,1.5
		c0.4,0.4,0.8,0.8,1.4,1.1c0.6,0.3,1.2,0.4,2,0.4c1.4,0,2.4-0.4,3.1-1.3c0.7-0.8,1.1-2,1.1-3.6V275.9z"/>
	<path class="st0" d="M11.4,294.2l0.6,2.6h1.7c1.2,0,2-0.2,2.6-0.7c0.6-0.5,0.8-1.2,0.8-2.1c0-0.4-0.1-0.9-0.2-1.3
		c-0.1-0.5-0.4-0.9-0.8-1.3c-0.4-0.4-0.9-0.8-1.6-1.1c-0.7-0.3-1.5-0.6-2.5-0.8l3.9-0.1c0.5,0.6,0.8,1.3,1.1,2.1
		c0.3,0.8,0.4,1.7,0.4,2.6c0,1.4-0.3,2.5-1,3.3c-0.7,0.8-1.6,1.2-2.9,1.2H6.2c-0.5,0-0.9,0.1-1.2,0.2c-0.3,0.1-0.6,0.3-0.8,0.5
		l-0.1-2.3h3.1c-0.4-0.2-0.8-0.4-1.2-0.6c-0.4-0.2-0.7-0.5-1-0.9c-0.3-0.4-0.5-0.8-0.7-1.3s-0.3-1-0.3-1.7c0-0.6,0.1-1.1,0.2-1.6
		c0.1-0.5,0.3-0.9,0.6-1.3c0.3-0.4,0.6-0.6,1-0.8c0.4-0.2,0.8-0.3,1.3-0.3c0.7,0,1.3,0.2,1.8,0.6s0.9,0.9,1.2,1.4
		c0.3,0.6,0.6,1.2,0.8,1.9C11.1,293,11.3,293.6,11.4,294.2z M7.2,290.4c-0.8,0-1.5,0.2-2,0.6c-0.5,0.4-0.8,1-0.8,1.8
		c0,0.4,0.1,0.9,0.3,1.3s0.5,0.9,0.8,1.2c0.4,0.4,0.8,0.7,1.4,0.9c0.5,0.2,1.2,0.4,1.9,0.4h2.9l-0.6-2.6c-0.1-0.3-0.2-0.7-0.4-1.2
		c-0.2-0.4-0.4-0.9-0.7-1.3c-0.3-0.4-0.7-0.7-1.1-1C8.5,290.5,7.9,290.4,7.2,290.4z"/>
	<path class="st0" d="M4.2,302.3c0.1,0.2,0.2,0.5,0.3,0.6c0.1,0.2,0.2,0.3,0.4,0.4s0.3,0.2,0.6,0.2s0.5,0,0.8,0H20
		c0.5,0,0.8,0,1.1-0.1c0.2-0.1,0.4-0.2,0.6-0.5l0.3,2.3H6.2c-0.3,0-0.6,0-0.8,0.1s-0.4,0.1-0.6,0.2s-0.3,0.2-0.4,0.4
		c-0.1,0.2-0.2,0.4-0.3,0.6V302.3z"/>
	<path class="st0" d="M17.5,315.9c0,0.9-0.1,1.8-0.4,2.5c-0.3,0.7-0.6,1.3-1.1,1.7c-0.5,0.5-1.1,0.8-1.7,1c-0.7,0.2-1.4,0.3-2.2,0.4
		v-9.9c-0.2,0-0.5-0.1-0.7-0.1c-0.2,0-0.5,0-0.7,0c-0.9,0-1.7,0.1-2.5,0.4s-1.4,0.6-2,1c-0.6,0.4-1,0.9-1.3,1.5
		c-0.3,0.6-0.5,1.2-0.5,1.9c0,0.6,0.1,1.2,0.3,1.7c0.2,0.5,0.6,1,1,1.4c0.4,0.4,0.9,0.8,1.5,1.1c0.6,0.3,1.2,0.6,1.9,0.9l-3.4-0.2
		c-0.6-0.7-1-1.5-1.3-2.3c-0.3-0.9-0.4-1.7-0.4-2.6c0-1,0.2-1.9,0.5-2.7c0.3-0.8,0.8-1.5,1.3-2.1c0.6-0.6,1.3-1.1,2.1-1.4
		c0.8-0.3,1.7-0.5,2.7-0.5c1,0,1.9,0.1,2.7,0.4c0.8,0.3,1.5,0.7,2.2,1.3s1.1,1.2,1.4,2C17.4,314.1,17.5,315,17.5,315.9z M12.4,311.7
		v8c0.7,0,1.3-0.1,1.9-0.3c0.6-0.2,1.1-0.4,1.5-0.7c0.4-0.3,0.8-0.7,1-1.2c0.2-0.5,0.4-1,0.4-1.6c0-0.6-0.1-1.1-0.4-1.5
		c-0.2-0.5-0.6-0.9-1-1.3c-0.4-0.4-0.9-0.7-1.5-0.9C13.8,311.9,13.1,311.8,12.4,311.7z"/>
	<path class="st0" d="M17.4,327.1l3.3,1.6h-3.3v3.9h-0.3v-3.9H7.1c-0.5,0-0.9,0-1.3,0.1c-0.3,0.1-0.6,0.2-0.8,0.3
		c-0.2,0.1-0.3,0.3-0.4,0.5c-0.1,0.2-0.1,0.4-0.1,0.7c0,0.5,0.1,0.8,0.4,1.2c0.3,0.3,0.6,0.6,1.1,0.9l-0.2,0.3
		c-0.5-0.3-0.9-0.7-1.2-1c-0.3-0.4-0.4-0.9-0.4-1.6c0-1.1,0.3-1.9,1-2.3c0.6-0.4,1.5-0.7,2.7-0.7h9.5v-2.3h0.3V327.1z"/>
	<path class="st0" d="M17.4,337.7l3.3,1.6h-3.3v3.9h-0.3v-3.9H7.1c-0.5,0-0.9,0-1.3,0.1c-0.3,0.1-0.6,0.2-0.8,0.3
		c-0.2,0.1-0.3,0.3-0.4,0.5c-0.1,0.2-0.1,0.4-0.1,0.7c0,0.5,0.1,0.8,0.4,1.2c0.3,0.3,0.6,0.6,1.1,0.9l-0.2,0.3
		c-0.5-0.3-0.9-0.7-1.2-1c-0.3-0.4-0.4-0.9-0.4-1.6c0-1.1,0.3-1.9,1-2.3c0.6-0.4,1.5-0.7,2.7-0.7h9.5v-2.3h0.3V337.7z"/>
	<path class="st0" d="M17.5,352.4c0,0.9-0.1,1.8-0.4,2.5c-0.3,0.7-0.6,1.3-1.1,1.7c-0.5,0.5-1.1,0.8-1.7,1c-0.7,0.2-1.4,0.3-2.2,0.4
		v-9.9c-0.2,0-0.5-0.1-0.7-0.1c-0.2,0-0.5,0-0.7,0c-0.9,0-1.7,0.1-2.5,0.4s-1.4,0.6-2,1c-0.6,0.4-1,0.9-1.3,1.5
		c-0.3,0.6-0.5,1.2-0.5,1.9c0,0.6,0.1,1.2,0.3,1.7c0.2,0.5,0.6,1,1,1.4c0.4,0.4,0.9,0.8,1.5,1.1c0.6,0.3,1.2,0.6,1.9,0.9l-3.4-0.2
		c-0.6-0.7-1-1.5-1.3-2.3c-0.3-0.9-0.4-1.7-0.4-2.6c0-1,0.2-1.9,0.5-2.7c0.3-0.8,0.8-1.5,1.3-2.1c0.6-0.6,1.3-1.1,2.1-1.4
		c0.8-0.3,1.7-0.5,2.7-0.5c1,0,1.9,0.1,2.7,0.4c0.8,0.3,1.5,0.7,2.2,1.3s1.1,1.2,1.4,2C17.4,350.5,17.5,351.4,17.5,352.4z
		 M12.4,348.1v8c0.7,0,1.3-0.1,1.9-0.3c0.6-0.2,1.1-0.4,1.5-0.7c0.4-0.3,0.8-0.7,1-1.2c0.2-0.5,0.4-1,0.4-1.6c0-0.6-0.1-1.1-0.4-1.5
		c-0.2-0.5-0.6-0.9-1-1.3c-0.4-0.4-0.9-0.7-1.5-0.9C13.8,348.4,13.1,348.2,12.4,348.1z"/>
</g>
</svg>
