<?xml version="1.0" encoding="utf-8"?>
<!-- Generator: Adobe Illustrator 25.4.1, SVG Export Plug-In . SVG Version: 6.00 Build 0)  -->
<svg version="1.1" id="レイヤー_1" xmlns="http://www.w3.org/2000/svg" xmlns:xlink="http://www.w3.org/1999/xlink" x="0px"
	 y="0px" viewBox="0 0 520 638" style="enable-background:new 0 0 520 638;" xml:space="preserve">
<style type="text/css">
	.st0{fill:#E0BEB1;}
	.st1{fill:none;stroke:#E0BEB1;stroke-miterlimit:10;}
</style>
<g>
	<path class="st0" d="M61.6,28.1L51,33.7l10.6,5.6v1.6l-12.1-6.4v-1.6l12.1-6.4V28.1z"/>
	<path class="st0" d="M50.3,48.4c0,1.9,0.5,3,1.5,4.1l-1,0.9c-1.2-1.3-1.7-2.9-1.7-5.1c0-3.7,2-5.8,5.1-5.8c3.1,0,5.1,2.1,5.1,5.7
		c0,3.4-1.8,5.5-5.1,5.5c-0.2,0-0.2,0-0.3,0V44C51.5,44.1,50.3,45.9,50.3,48.4z M55,44.1v8.2c2.1-0.4,3-2,3-4.1
		C58,46.1,57,44.4,55,44.1z"/>
	<path class="st0" d="M50.5,67.1c-3.4,0-4.9-2.5-4.9-5.6c0-1.7,0.5-3.5,1.3-4.5l1.1,0.7c-0.6,0.9-1.1,2.2-1.1,3.7
		c0,2.8,1.1,4.3,3.4,4.3h1c-1.3-0.9-2.2-2.7-2.2-4.6c0-3.2,2-5.1,5.1-5.1s5.1,2,5.1,5.1c0,2.1-0.8,3.7-2.2,4.6h1.8v1.4H50.5z
		 M52.7,65.7h3c1.7-1,2.3-2.4,2.3-4.2c0-2.6-1.4-4.1-3.8-4.1c-2.4,0-3.8,1.5-3.8,4.1C50.4,63.2,51,64.7,52.7,65.7z"/>
	<path class="st0" d="M54.7,80.5h-3.4c-0.7,0-1.3,0.1-1.8,0.5v-1.5c0.5-0.3,1-0.4,1.5-0.4h0c-1-0.7-1.9-2.2-1.9-4.3
		c0-2.1,0.8-4.8,3.3-4.8c2.5,0,3.3,2.8,3.3,4.8c0,2-0.8,3.5-1.9,4.3h0.8c2.3,0,3.3-1.3,3.3-3.9c0-1.5-0.4-2.7-1.1-3.7l1-0.7
		c0.7,1.1,1.3,2.9,1.3,4.6C59.2,78.6,57.7,80.5,54.7,80.5z M52.6,79.1c1.5-0.8,2-2.6,2-4.2c0-1.4-0.4-3.5-2.2-3.5
		c-1.8,0-2.2,2.2-2.2,3.5c0,1.6,0.5,3.4,2,4.2H52.6z"/>
	<path class="st0" d="M49.4,84.1h9.4v1.4h-2c1.4,0.9,2.3,2.5,2.3,4.5c0,2.9-1.9,4.3-4.5,4.3h-5.3V93h5.2c2.1,0,3.3-1.1,3.3-3.2
		c0-1.8-0.8-3.4-2.6-4.2h-5.9V84.1z"/>
	<path class="st0" d="M61.6,104.2L51,109.8l10.6,5.6v1.6l-12.1-6.4V109l12.1-6.4V104.2z"/>
	<path class="st0" d="M49.4,120.9v-1.4h9.4v1.4H49.4z M61.3,119.2c0.5,0,0.9,0.4,0.9,1c0,0.6-0.4,1-0.9,1c-0.5,0-0.9-0.4-0.9-1
		C60.3,119.6,60.8,119.2,61.3,119.2z"/>
	<path class="st0" d="M50,131.1c-0.5-0.7-0.9-1.7-0.9-2.7c0-1.7,0.9-3.1,2.7-3.1h5.8v-1.9h1.2v1.9h2.2v1.4h-2.2v4.4h-1.2v-4.4H52
		c-1.2,0-1.7,0.9-1.7,1.9c0,0.7,0.3,1.4,0.6,2L50,131.1z"/>
	<path class="st0" d="M54.7,143h-3.4c-0.7,0-1.3,0.1-1.8,0.5V142c0.5-0.3,1-0.4,1.5-0.4h0c-1-0.7-1.9-2.2-1.9-4.3
		c0-2.1,0.8-4.8,3.3-4.8c2.5,0,3.3,2.8,3.3,4.8c0,2-0.8,3.5-1.9,4.3h0.8c2.3,0,3.3-1.3,3.3-3.9c0-1.5-0.4-2.7-1.1-3.7l1-0.7
		c0.7,1.1,1.3,2.9,1.3,4.6C59.2,141.1,57.7,143,54.7,143z M52.6,141.6c1.5-0.8,2-2.6,2-4.2c0-1.4-0.4-3.5-2.2-3.5
		c-1.8,0-2.2,2.2-2.2,3.5c0,1.6,0.5,3.4,2,4.2H52.6z"/>
	<path class="st0" d="M52.8,164.1l-0.7,1.4c-1.8-1.1-3-3.3-3-6.2c0-4.5,2.5-7.3,6.4-7.3c3.9,0,6.4,2.8,6.4,7.3c0,2.9-1.2,5-3,6.2
		l-0.7-1.4c1.6-1,2.3-2.7,2.3-4.8c0-3.5-1.7-5.8-5.1-5.8c-3.3,0-5.1,2.3-5.1,5.8C50.4,161.4,51.1,163.2,52.8,164.1z"/>
	<path class="st0" d="M54.2,167.6c3.1,0,5.1,2.1,5.1,5.7s-2,5.7-5.1,5.7s-5.1-2.1-5.1-5.7S51,167.6,54.2,167.6z M54.2,177.6
		c2.6,0,3.8-1.8,3.8-4.3c0-2.5-1.3-4.3-3.8-4.3c-2.5,0-3.8,1.8-3.8,4.3C50.3,175.8,51.6,177.6,54.2,177.6z"/>
	<path class="st0" d="M49.4,182.2h12.8v1.4H49.4V182.2z"/>
	<path class="st0" d="M49.4,187.5h12.8v1.4H49.4V187.5z"/>
	<path class="st0" d="M50.3,197.8c0,1.9,0.5,3,1.5,4.1l-1,0.9c-1.2-1.3-1.7-2.9-1.7-5.1c0-3.7,2-5.8,5.1-5.8c3.1,0,5.1,2.1,5.1,5.7
		c0,3.4-1.8,5.5-5.1,5.5c-0.2,0-0.2,0-0.3,0v-9.7C51.5,193.6,50.3,195.3,50.3,197.8z M55,193.5v8.2c2.1-0.4,3-2,3-4.1
		C58,195.5,57,193.9,55,193.5z"/>
	<path class="st0" d="M49.1,211.2c0-3.6,2-5.7,5.1-5.7c3.1,0,5.1,2.1,5.1,5.7c0,2.6-1,4-2.3,4.9l-0.7-1.4c1.2-0.7,1.7-2.2,1.7-3.5
		c0-2.5-1.3-4.3-3.8-4.3c-2.5,0-3.8,1.8-3.8,4.3c0,1.4,0.5,2.9,1.8,3.6l-0.6,1.4C50.1,215.3,49.1,213.8,49.1,211.2z"/>
	<path class="st0" d="M50,225.3c-0.5-0.7-0.9-1.7-0.9-2.7c0-1.7,0.9-3.1,2.7-3.1h5.8v-1.9h1.2v1.9h2.2v1.4h-2.2v4.4h-1.2v-4.4H52
		c-1.2,0-1.7,0.9-1.7,1.9c0,0.7,0.3,1.4,0.6,2L50,225.3z"/>
	<path class="st0" d="M49.4,229.1v-1.4h9.4v1.4H49.4z M61.3,227.4c0.5,0,0.9,0.4,0.9,1c0,0.6-0.4,1-0.9,1c-0.5,0-0.9-0.4-0.9-1
		C60.3,227.8,60.8,227.4,61.3,227.4z"/>
	<path class="st0" d="M54.2,232.2c3.1,0,5.1,2.1,5.1,5.7s-2,5.7-5.1,5.7s-5.1-2.1-5.1-5.7S51,232.2,54.2,232.2z M54.2,242.3
		c2.6,0,3.8-1.8,3.8-4.3c0-2.5-1.3-4.3-3.8-4.3c-2.5,0-3.8,1.8-3.8,4.3C50.3,240.4,51.6,242.3,54.2,242.3z"/>
	<path class="st0" d="M49.4,246.8h9.4v1.4h-2c1.4,0.9,2.3,2.5,2.3,4.5c0,2.9-1.9,4.3-4.5,4.3h-5.3v-1.4h5.2c2.1,0,3.3-1.1,3.3-3.2
		c0-1.8-0.8-3.4-2.6-4.2h-5.9V246.8z"/>
</g>
<g>
	<path class="st0" d="M54.5,622.7v4.2h8.6v1.4h-8.6v5.2h-1.5v-12.1h11.5v1.4H54.5z"/>
	<path class="st0" d="M67.1,621.7c0-0.5,0.4-0.9,1-0.9s1,0.4,1,0.9c0,0.5-0.4,0.9-1,0.9S67.1,622.2,67.1,621.7z M68.8,633.5h-1.4
		V624h1.4V633.5z"/>
	<path class="st0" d="M72.7,633.5v-12.8h1.4v12.8H72.7z"/>
	<path class="st0" d="M84.3,632.9c-0.7,0.5-1.7,0.9-2.7,0.9c-1.7,0-3.1-0.9-3.1-2.7v-5.8h-1.9V624h1.9v-2.2h1.4v2.2h4.4v1.2h-4.4
		v5.6c0,1.2,0.9,1.7,1.9,1.7c0.7,0,1.4-0.3,2-0.6L84.3,632.9z"/>
	<path class="st0" d="M91.8,632.6c1.9,0,3-0.5,4.1-1.5l0.9,1c-1.3,1.2-2.9,1.7-5.1,1.7c-3.7,0-5.8-2-5.8-5.1c0-3.1,2.1-5.1,5.7-5.1
		c3.4,0,5.5,1.8,5.5,5.1c0,0.2,0,0.2,0,0.3h-9.7C87.5,631.4,89.2,632.6,91.8,632.6z M87.4,627.9h8.2c-0.4-2.1-2-3-4.1-3
		C89.4,624.9,87.8,625.9,87.4,627.9z"/>
	<path class="st0" d="M100.1,633.5V624h1.4v2.3c0.8-1.6,2.7-2.5,4.7-2.5v1.3c-2.1,0-4,1-4.7,2.8v5.5H100.1z"/>
	<path class="st0" d="M127.5,625.2c0,2.4-1.9,3.8-4.6,3.8h-6.7v4.4h-1.5v-12.1h8.1C125.7,621.3,127.5,622.8,127.5,625.2z M126,625.2
		c0-1.7-1.3-2.5-3.3-2.5h-6.6v5h6.6C124.7,627.7,126,626.9,126,625.2z"/>
	<path class="st0" d="M129.6,628.8c0-3.1,2.1-5.1,5.7-5.1s5.7,2,5.7,5.1s-2.1,5.1-5.7,5.1S129.6,631.9,129.6,628.8z M139.6,628.8
		c0-2.6-1.8-3.8-4.3-3.8c-2.5,0-4.3,1.3-4.3,3.8c0,2.5,1.8,3.8,4.3,3.8C137.8,632.6,139.6,631.3,139.6,628.8z"/>
	<path class="st0" d="M159,624l-3.5,9.4H154l-3-7.9l-3,7.9h-1.5L143,624h1.5l2.9,7.8l3-7.8h1.4l3,7.8l2.9-7.8H159z"/>
	<path class="st0" d="M170.6,625.8v-5.2h1.4v12.8h-1.4v-1.8c-0.9,1.3-2.5,2.2-4.6,2.2c-3.2,0-5.1-2-5.1-5.1s2-5.1,5.1-5.1
		C168.1,623.7,169.7,624.5,170.6,625.8z M170.6,630.3v-3c-1-1.7-2.4-2.3-4.2-2.3c-2.6,0-4.1,1.4-4.1,3.8c0,2.4,1.5,3.8,4.1,3.8
		C168.1,632.6,169.6,631.9,170.6,630.3z"/>
	<path class="st0" d="M180.9,632.6c1.9,0,3-0.5,4.1-1.5l0.9,1c-1.3,1.2-2.9,1.7-5.1,1.7c-3.7,0-5.8-2-5.8-5.1c0-3.1,2.1-5.1,5.7-5.1
		c3.4,0,5.5,1.8,5.5,5.1c0,0.2,0,0.2,0,0.3h-9.7C176.6,631.4,178.4,632.6,180.9,632.6z M176.6,627.9h8.2c-0.4-2.1-2-3-4.1-3
		C178.6,624.9,176.9,625.9,176.6,627.9z"/>
	<path class="st0" d="M189.2,633.5V624h1.4v2.3c0.8-1.6,2.7-2.5,4.7-2.5v1.3c-2.1,0-4,1-4.7,2.8v5.5H189.2z"/>
</g>
<line class="st1" x1="51.4" y1="287.7" x2="51.4" y2="592.6"/>
</svg>
