<?xml version="1.0" encoding="utf-8"?>
<!-- Generator: Adobe Illustrator 25.4.1, SVG Export Plug-In . SVG Version: 6.00 Build 0)  -->
<svg version="1.1" id="レイヤー_1" xmlns="http://www.w3.org/2000/svg" xmlns:xlink="http://www.w3.org/1999/xlink" x="0px"
	 y="0px" viewBox="0 0 127 21" style="enable-background:new 0 0 127 21;" xml:space="preserve">
<style type="text/css">
	.st0{fill:#615243;}
	.st1{fill:#FFFFFF;}
</style>
<g>
	<polygon class="st0" points="116.8,20.6 10.2,20.6 0.1,10.5 0.1,10.5 10.2,0.4 116.8,0.4 126.9,10.5 126.9,10.5 	"/>
</g>
<g>
	<g>
		<path class="st1" d="M19.7,11.7c-0.4,2.2-1.8,3.4-4.1,3.4c-2.6,0-4.3-1.6-4.3-4.2c0-2.6,1.7-4.2,4.3-4.2c1.3,0,2.3,0.4,3.1,1.1
			c0.5,0.5,0.8,1.1,0.9,2h-1.2c-0.3-1.3-1.3-2-2.8-2c-1.8,0-3.1,1.3-3.1,3.2c0,1.9,1.2,3.2,3.1,3.2c1,0,1.8-0.4,2.3-1
			c0.3-0.4,0.4-0.7,0.5-1.3H19.7z"/>
		<path class="st1" d="M30.6,10.9c0,1.1-0.4,2.2-1.2,3c-0.8,0.8-1.9,1.2-3.3,1.2c-2.7,0-4.5-1.7-4.5-4.2c0-2.5,1.8-4.2,4.5-4.2
			C28.8,6.7,30.6,8.3,30.6,10.9z M22.8,10.9c0,1.9,1.3,3.2,3.3,3.2c2,0,3.3-1.3,3.3-3.1c0-2-1.3-3.2-3.3-3.2
			C24.1,7.7,22.8,9,22.8,10.9z"/>
		<path class="st1" d="M41.6,14.9l0-6.6l-3.2,6.6h-1.1l-3.1-6.6l0,6.6l-1.2,0l0-8l1.8,0l3.2,6.8l3.2-6.8l1.7,0l0,8L41.6,14.9z"/>
		<path class="st1" d="M45.6,14.9l0-8h1.2l0,8H45.6z"/>
		<path class="st1" d="M56,14.9l-5.3-6.5l0,6.5h-1.2l0-8H51l5.3,6.5V6.9h1.2l0,8H56z"/>
		<path class="st1" d="M67.4,14.9l-0.2-1.1c-0.9,0.9-1.8,1.3-3.1,1.3c-2.5,0-4.2-1.7-4.2-4.2c0-2.5,1.8-4.2,4.4-4.2
			c1.2,0,2.3,0.4,3,1.1c0.5,0.5,0.7,0.9,0.9,1.7H67c-0.2-0.5-0.4-0.8-0.8-1.1c-0.5-0.4-1.2-0.6-1.9-0.6c-1.9,0-3.2,1.2-3.2,3.1
			c0,1.9,1.3,3.2,3.2,3.2c1,0,1.9-0.4,2.4-1c0.3-0.4,0.4-0.7,0.6-1.4l-2.6,0v-1.1l3.7,0l0,4.4H67.4z"/>
		<path class="st1" d="M80.6,9.2c0-0.5-0.2-0.8-0.5-1c-0.4-0.3-1-0.5-1.7-0.5c-1.3,0-2.1,0.5-2.1,1.3c0,0.3,0.2,0.6,0.5,0.8
			c0.3,0.2,0.5,0.2,1.3,0.4l1.6,0.3c0.9,0.2,1.3,0.3,1.7,0.6c0.5,0.3,0.7,0.9,0.7,1.5c0,0.8-0.5,1.6-1.2,2c-0.6,0.4-1.3,0.5-2.4,0.5
			c-1.5,0-2.6-0.4-3.2-1.1c-0.4-0.5-0.5-0.9-0.6-1.8l1.3,0c0,0.6,0.1,0.9,0.5,1.2c0.4,0.4,1.1,0.6,2.1,0.6c1.4,0,2.2-0.5,2.2-1.4
			c0-0.6-0.4-0.9-1.5-1.1l-1.5-0.3c-0.8-0.1-1.4-0.3-1.8-0.5c-0.6-0.3-1-1-1-1.8c0-1.5,1.3-2.4,3.4-2.4c1.1,0,2,0.2,2.5,0.6
			c0.6,0.4,0.8,0.9,0.9,1.9H80.6z"/>
		<path class="st1" d="M93.2,10.9c0,1.1-0.4,2.2-1.2,3c-0.8,0.8-1.9,1.2-3.3,1.2c-2.7,0-4.5-1.7-4.5-4.2c0-2.5,1.8-4.2,4.5-4.2
			C91.4,6.7,93.2,8.3,93.2,10.9z M85.4,10.9c0,1.9,1.3,3.2,3.3,3.2c2,0,3.3-1.3,3.3-3.1c0-2-1.3-3.2-3.3-3.2
			C86.7,7.7,85.4,9,85.4,10.9z"/>
		<path class="st1" d="M104.2,10.9c0,1.1-0.4,2.2-1.2,3c-0.8,0.8-1.9,1.2-3.3,1.2c-2.7,0-4.5-1.7-4.5-4.2c0-2.5,1.8-4.2,4.5-4.2
			C102.4,6.7,104.2,8.3,104.2,10.9z M96.4,10.9c0,1.9,1.3,3.2,3.3,3.2c2,0,3.3-1.3,3.3-3.1c0-2-1.3-3.2-3.3-3.2
			C97.7,7.7,96.4,9,96.4,10.9z"/>
		<path class="st1" d="M113.1,14.9l-5.3-6.5l0,6.5h-1.2l0-8h1.5l5.3,6.5V6.9h1.2l0,8H113.1z"/>
	</g>
</g>
</svg>
