<?xml version="1.0" encoding="utf-8"?>
<!-- Generator: Adobe Illustrator 25.4.1, SVG Export Plug-In . SVG Version: 6.00 Build 0)  -->
<svg version="1.1" id="レイヤー_1" xmlns="http://www.w3.org/2000/svg" xmlns:xlink="http://www.w3.org/1999/xlink" x="0px"
	 y="0px" viewBox="0 0 21 21" style="enable-background:new 0 0 21 21;" xml:space="preserve">
<style type="text/css">
	.st0{fill:#615243;}
</style>
<g>
	<g>
		<path class="st0" d="M10.6,2.2c2.7,0,3,0,4.1,0.1c1,0,1.5,0.2,1.9,0.3c0.5,0.2,0.8,0.4,1.2,0.8c0.4,0.4,0.6,0.7,0.8,1.2
			c0.1,0.4,0.3,0.9,0.3,1.9c0,1.1,0.1,1.4,0.1,4.1s0,3-0.1,4.1c0,1-0.2,1.5-0.3,1.9c-0.2,0.5-0.4,0.8-0.8,1.2
			c-0.4,0.4-0.7,0.6-1.2,0.8c-0.4,0.1-0.9,0.3-1.9,0.3c-1.1,0-1.4,0.1-4.1,0.1s-3,0-4.1-0.1c-1,0-1.5-0.2-1.9-0.3
			c-0.5-0.2-0.8-0.4-1.2-0.8c-0.4-0.4-0.6-0.7-0.8-1.2c-0.1-0.4-0.3-0.9-0.3-1.9c0-1.1-0.1-1.4-0.1-4.1s0-3,0.1-4.1
			c0-1,0.2-1.5,0.3-1.9C2.9,4,3.1,3.7,3.4,3.3C3.8,3,4.1,2.8,4.6,2.6C5,2.4,5.5,2.3,6.5,2.2C7.6,2.2,7.9,2.2,10.6,2.2 M10.6,0.3
			c-2.8,0-3.1,0-4.2,0.1c-1.1,0-1.8,0.2-2.5,0.5C3.3,1.1,2.7,1.5,2.1,2C1.6,2.6,1.2,3.2,1,3.8C0.7,4.5,0.6,5.2,0.5,6.3
			c0,1.1-0.1,1.4-0.1,4.2c0,2.8,0,3.1,0.1,4.2c0,1.1,0.2,1.8,0.5,2.5c0.3,0.7,0.6,1.2,1.2,1.8c0.6,0.6,1.1,0.9,1.8,1.2
			c0.6,0.3,1.4,0.4,2.5,0.5c1.1,0,1.4,0.1,4.2,0.1s3.1,0,4.2-0.1c1.1,0,1.8-0.2,2.5-0.5c0.7-0.3,1.2-0.6,1.8-1.2
			c0.6-0.6,0.9-1.1,1.2-1.8c0.3-0.6,0.4-1.4,0.5-2.5c0-1.1,0.1-1.4,0.1-4.2s0-3.1-0.1-4.2c0-1.1-0.2-1.8-0.5-2.5
			C20,3.2,19.6,2.6,19.1,2c-0.6-0.6-1.1-0.9-1.8-1.2c-0.6-0.3-1.4-0.4-2.5-0.5C13.7,0.4,13.4,0.3,10.6,0.3L10.6,0.3z"/>
		<path class="st0" d="M10.6,5.3c-2.9,0-5.2,2.3-5.2,5.2s2.3,5.2,5.2,5.2s5.2-2.3,5.2-5.2S13.5,5.3,10.6,5.3z M10.6,13.9
			c-1.9,0-3.4-1.5-3.4-3.4c0-1.9,1.5-3.4,3.4-3.4S14,8.6,14,10.5C14,12.4,12.5,13.9,10.6,13.9z"/>
		<circle class="st0" cx="16" cy="5.1" r="1.2"/>
	</g>
</g>
</svg>
