<?xml version="1.0" encoding="utf-8"?>
<!-- Generator: Adobe Illustrator 25.4.1, SVG Export Plug-In . SVG Version: 6.00 Build 0)  -->
<svg version="1.1" id="レイヤー_1" xmlns="http://www.w3.org/2000/svg" xmlns:xlink="http://www.w3.org/1999/xlink" x="0px"
	 y="0px" viewBox="0 0 1040 116" style="enable-background:new 0 0 1040 116;" xml:space="preserve">
<style type="text/css">
	.st0{fill:#D2AA86;stroke:#D2AA86;stroke-width:0.5;stroke-miterlimit:10;}
</style>
<g>
	<g>
		<path class="st0" d="M38.2,50c-0.1,0.1-0.2,0.2-0.3,0.3s-0.2,0.3-0.2,0.6s0,0.6,0,0.9s0.2,0.8,0.3,1.4l5.5,17.5l5.3-17.4
			c0.2-0.6,0.3-1.1,0.4-1.5c0.1-0.4,0.1-0.7,0.1-1c0-0.2-0.1-0.4-0.1-0.5S48.9,50,48.8,50h2.3c-0.1,0-0.2,0.1-0.4,0.3
			c-0.1,0.1-0.3,0.4-0.5,0.7c-0.2,0.3-0.4,0.8-0.6,1.4c-0.2,0.6-0.5,1.5-0.9,2.5L42.8,74h-0.2l-6.9-21.7c-0.3-0.8-0.5-1.4-0.8-1.7
			c-0.2-0.3-0.5-0.5-0.7-0.6H38.2z"/>
		<path class="st0" d="M61.6,54.3c1,0,1.9,0.2,2.7,0.6c0.8,0.4,1.4,0.9,1.9,1.7c0.5,0.7,0.9,1.6,1.1,2.5c0.2,1,0.4,2,0.4,3.2H56.8
			c0,0.3-0.1,0.7-0.1,1.1s0,0.7,0,1.1c0,1.3,0.1,2.5,0.4,3.7s0.6,2.1,1.1,3c0.5,0.8,1,1.5,1.7,2c0.7,0.5,1.4,0.7,2.2,0.7
			c0.7,0,1.3-0.2,1.9-0.5c0.6-0.3,1.1-0.8,1.5-1.4c0.5-0.6,0.9-1.4,1.3-2.2c0.4-0.9,0.7-1.8,1-2.9l-0.2,5c-0.8,0.9-1.6,1.5-2.6,1.9
			c-1,0.4-1.9,0.6-2.8,0.6c-1.1,0-2.1-0.2-3-0.7c-0.9-0.5-1.7-1.1-2.4-2c-0.7-0.9-1.2-1.9-1.5-3.1c-0.4-1.2-0.5-2.6-0.5-4
			c0-1.5,0.2-2.8,0.5-4c0.3-1.2,0.8-2.3,1.4-3.2c0.6-0.9,1.3-1.6,2.2-2.1C59.5,54.5,60.5,54.3,61.6,54.3z M56.8,61.8h8.9
			c0-1-0.1-2-0.3-2.8c-0.2-0.9-0.5-1.6-0.8-2.3c-0.3-0.6-0.8-1.1-1.3-1.5c-0.5-0.4-1.1-0.5-1.8-0.5c-0.6,0-1.2,0.2-1.7,0.5
			c-0.5,0.3-1,0.8-1.4,1.5s-0.7,1.4-1,2.2C57.2,59.8,57,60.8,56.8,61.8z"/>
		<path class="st0" d="M70.9,75.3c0-1.1,0.4-2,1.2-2.6c0.8-0.6,2.2-1,4-1.1c-1.2-0.1-2.1-0.5-2.6-1s-0.8-1.2-0.8-2
			c0-0.4,0.1-0.8,0.2-1.1c0.1-0.3,0.3-0.6,0.6-0.8c0.2-0.2,0.5-0.4,0.9-0.5c0.3-0.1,0.7-0.1,1-0.1h0.4c-1-0.5-1.7-1.2-2.3-2.1
			c-0.6-1-0.8-2.1-0.8-3.5c0-0.9,0.1-1.7,0.4-2.5c0.3-0.7,0.6-1.4,1.1-1.9c0.5-0.5,1.1-0.9,1.7-1.2c0.7-0.3,1.4-0.5,2.2-0.5
			c0.7,0,1.3,0.1,1.9,0.3s1.1,0.5,1.5,0.9c0.1-1.2,0.4-2.2,0.9-2.9c0.5-0.7,1.1-1,1.7-1c0.4,0,0.7,0.1,1,0.4
			c0.3,0.3,0.4,0.6,0.4,1.1c0,0.4-0.1,0.8-0.3,1c-0.2,0.3-0.5,0.4-0.8,0.4c-0.2,0-0.4,0-0.5-0.1c-0.2-0.1-0.3-0.2-0.4-0.3
			C83.3,54.1,83.1,54,83,54c-0.1-0.1-0.3-0.1-0.4-0.1c-0.2,0-0.4,0.1-0.5,0.4c-0.1,0.3-0.2,0.8-0.3,1.5c0.6,0.5,1,1.2,1.3,2
			s0.5,1.7,0.5,2.6c0,0.9-0.1,1.7-0.4,2.5s-0.6,1.4-1.1,1.9c-0.5,0.5-1,1-1.7,1.3c-0.7,0.3-1.4,0.5-2.2,0.5c-0.4,0-0.8,0-1.1-0.1
			c-0.2,0-0.4,0-0.5-0.1c-0.2,0-0.3,0-0.4,0c-0.7,0-1.2,0.1-1.6,0.4c-0.4,0.2-0.6,0.6-0.6,1c0,0.3,0.1,0.6,0.3,0.8
			c0.2,0.2,0.4,0.4,0.7,0.5c0.3,0.1,0.5,0.2,0.8,0.2l3.1,0.5c1,0.2,1.9,0.3,2.7,0.5c0.8,0.2,1.5,0.5,2,0.8s1,0.7,1.3,1.2
			c0.3,0.5,0.4,1.2,0.4,2c0,0.9-0.2,1.6-0.5,2.3c-0.3,0.7-0.8,1.3-1.4,1.8c-0.6,0.5-1.4,0.9-2.2,1.1c-0.9,0.3-1.8,0.4-2.9,0.4
			c-0.9,0-1.8-0.1-2.6-0.3c-0.9-0.2-1.6-0.5-2.3-0.9s-1.2-0.9-1.6-1.5C71.1,76.8,70.9,76.1,70.9,75.3z M72.5,75.4
			c0,1.3,0.5,2.3,1.5,3c1,0.7,2.4,1.1,4.1,1.1c0.9,0,1.8-0.1,2.5-0.3c0.7-0.2,1.3-0.5,1.9-0.9c0.5-0.4,0.9-0.8,1.2-1.2
			s0.4-1,0.4-1.5c0-0.8-0.2-1.4-0.7-1.9c-0.5-0.5-1.1-0.8-1.8-1.1s-1.4-0.4-2.2-0.5c-0.8-0.1-1.4-0.1-2-0.1c-1,0-1.7,0.1-2.4,0.2
			c-0.6,0.2-1.1,0.4-1.5,0.7c-0.4,0.3-0.6,0.6-0.8,1.1S72.5,74.9,72.5,75.4z M78.3,66.1c0.5,0,0.9-0.1,1.3-0.4s0.8-0.6,1.1-1.1
			c0.3-0.4,0.5-1,0.7-1.6c0.2-0.6,0.3-1.3,0.3-2.1s-0.1-1.5-0.3-2.2c-0.2-0.7-0.4-1.4-0.7-1.9c-0.3-0.6-0.7-1-1.2-1.4
			c-0.5-0.3-1-0.5-1.5-0.5c-0.5,0-1,0.1-1.4,0.4c-0.4,0.3-0.8,0.6-1.1,1.1c-0.3,0.5-0.5,1-0.7,1.6c-0.2,0.6-0.2,1.3-0.2,2.1
			s0.1,1.5,0.3,2.2c0.2,0.7,0.4,1.4,0.7,1.9c0.3,0.6,0.7,1,1.2,1.4C77.2,65.9,77.7,66.1,78.3,66.1z"/>
		<path class="st0" d="M94.7,63.3l2.9-0.9v-2.5c0-1.7-0.3-3-0.8-3.8c-0.5-0.8-1.3-1.2-2.3-1.2c-0.5,0-1,0.1-1.5,0.3
			c-0.5,0.2-1,0.6-1.4,1.2s-0.8,1.3-1.2,2.3c-0.4,1-0.7,2.2-0.9,3.7l-0.2-5.8c0.6-0.7,1.4-1.2,2.4-1.6c0.9-0.4,1.9-0.6,2.9-0.6
			c1.5,0,2.7,0.5,3.6,1.5c0.9,1,1.3,2.4,1.3,4.3v11c0,0.7,0.1,1.3,0.2,1.8c0.1,0.5,0.3,0.9,0.6,1.2l-2.5,0.1v-4.6
			c-0.2,0.6-0.4,1.1-0.7,1.7c-0.3,0.6-0.6,1.1-1,1.5c-0.4,0.4-0.9,0.8-1.4,1c-0.5,0.3-1.2,0.4-1.8,0.4c-0.6,0-1.2-0.1-1.8-0.3
			s-1-0.5-1.4-0.8c-0.4-0.4-0.7-0.9-0.9-1.4c-0.2-0.6-0.3-1.2-0.3-2c0-1,0.2-1.9,0.6-2.6c0.4-0.7,1-1.3,1.6-1.8s1.3-0.9,2.1-1.2
			C93.4,63.7,94.1,63.5,94.7,63.3z M90.5,69.6c0,1.2,0.2,2.1,0.7,2.9s1.1,1.1,2,1.1c0.5,0,1-0.1,1.5-0.4c0.5-0.3,1-0.7,1.4-1.2
			c0.4-0.5,0.8-1.2,1-2c0.3-0.8,0.4-1.7,0.5-2.8v-4.3l-2.8,0.9c-0.4,0.1-0.8,0.3-1.3,0.5c-0.5,0.2-1,0.6-1.4,1
			c-0.4,0.4-0.8,1-1.1,1.7S90.5,68.5,90.5,69.6z"/>
		<path class="st0" d="M103.9,74c0.3-0.1,0.5-0.2,0.7-0.4c0.2-0.1,0.3-0.3,0.4-0.5c0.1-0.2,0.2-0.5,0.2-0.8c0-0.3,0.1-0.8,0.1-1.2
			V58.2c0-0.5,0-0.9,0-1.3c0-0.4-0.1-0.7-0.1-1c-0.1-0.3-0.1-0.5-0.2-0.8c-0.1-0.2-0.2-0.5-0.4-0.7l2.6-0.3v5.5c0.4-1.7,1.1-3,2.1-4
			c1-1,2.2-1.5,3.6-1.5c0.8,0,1.6,0.2,2.2,0.5s1.2,0.8,1.6,1.3c0.4,0.6,0.8,1.3,1,2.1c0.2,0.8,0.4,1.7,0.4,2.6V71
			c0,0.5,0,0.9,0.1,1.2c0,0.3,0.1,0.6,0.2,0.8s0.2,0.4,0.4,0.6c0.2,0.1,0.4,0.3,0.6,0.4h-4.6c0.3-0.1,0.5-0.2,0.7-0.4
			c0.2-0.1,0.3-0.3,0.4-0.5c0.1-0.2,0.2-0.5,0.2-0.8c0-0.3,0.1-0.8,0.1-1.2V60.4c0-1.7-0.3-3.1-0.9-4.1c-0.6-1-1.5-1.5-2.7-1.5
			c-0.7,0-1.3,0.2-1.9,0.5c-0.6,0.3-1.2,0.8-1.7,1.5c-0.5,0.6-0.9,1.4-1.2,2.4c-0.3,0.9-0.5,2-0.5,3.3V71c0,0.5,0,0.9,0.1,1.2
			c0,0.3,0.1,0.6,0.2,0.8c0.1,0.2,0.2,0.4,0.4,0.6c0.2,0.1,0.4,0.3,0.7,0.4H103.9z"/>
		<path class="st0" d="M136.1,50c-0.1,0.1-0.2,0.2-0.3,0.3s-0.2,0.3-0.2,0.6s0,0.6,0,0.9s0.2,0.8,0.3,1.4l5.5,17.5l5.3-17.4
			c0.2-0.6,0.3-1.1,0.4-1.5c0.1-0.4,0.1-0.7,0.1-1c0-0.2-0.1-0.4-0.1-0.5s-0.2-0.2-0.3-0.3h2.3c-0.1,0-0.2,0.1-0.4,0.3
			c-0.1,0.1-0.3,0.4-0.5,0.7c-0.2,0.3-0.4,0.8-0.6,1.4c-0.2,0.6-0.5,1.5-0.9,2.5L140.8,74h-0.2l-6.9-21.7c-0.3-0.8-0.5-1.4-0.8-1.7
			c-0.2-0.3-0.5-0.5-0.7-0.6H136.1z"/>
		<path class="st0" d="M152.4,74c0.3-0.1,0.5-0.2,0.7-0.4c0.2-0.1,0.3-0.3,0.4-0.5c0.1-0.2,0.2-0.5,0.2-0.8c0-0.3,0.1-0.8,0.1-1.2
			V58.2c0-0.5,0-0.9,0-1.3c0-0.4-0.1-0.7-0.1-1c-0.1-0.3-0.1-0.5-0.2-0.8c-0.1-0.2-0.2-0.5-0.4-0.7l2.6-0.3V71c0,0.5,0,0.9,0.1,1.2
			c0,0.3,0.1,0.6,0.2,0.8c0.1,0.2,0.2,0.4,0.4,0.6c0.2,0.1,0.4,0.3,0.7,0.4H152.4z M154.7,48.3c0.4,0,0.7,0.2,1,0.5s0.4,0.7,0.4,1.3
			s-0.1,1-0.4,1.3c-0.3,0.3-0.6,0.5-1,0.5c-0.4,0-0.7-0.2-1-0.5c-0.3-0.3-0.4-0.7-0.4-1.3s0.1-1,0.4-1.3S154.3,48.3,154.7,48.3z"/>
		<path class="st0" d="M163,54.5l1.8-4.8v4.8h4.3v0.4h-4.3v14.9c0,0.8,0,1.4,0.1,1.9s0.2,0.9,0.3,1.2c0.1,0.3,0.3,0.5,0.5,0.6
			s0.5,0.2,0.7,0.2c0.5,0,0.9-0.2,1.3-0.6c0.3-0.4,0.7-0.9,1-1.6l0.3,0.3c-0.3,0.7-0.7,1.3-1.1,1.7c-0.4,0.4-1,0.6-1.8,0.6
			c-1.2,0-2.1-0.5-2.6-1.4c-0.5-0.9-0.7-2.3-0.7-4v-14h-2.5v-0.4H163z"/>
		<path class="st0" d="M178.8,63.3l2.9-0.9v-2.5c0-1.7-0.3-3-0.8-3.8c-0.5-0.8-1.3-1.2-2.3-1.2c-0.5,0-1,0.1-1.5,0.3
			c-0.5,0.2-1,0.6-1.4,1.2s-0.8,1.3-1.2,2.3c-0.4,1-0.7,2.2-0.9,3.7l-0.2-5.8c0.6-0.7,1.4-1.2,2.4-1.6c0.9-0.4,1.9-0.6,2.9-0.6
			c1.5,0,2.7,0.5,3.6,1.5c0.9,1,1.3,2.4,1.3,4.3v11c0,0.7,0.1,1.3,0.2,1.8c0.1,0.5,0.3,0.9,0.6,1.2l-2.5,0.1v-4.6
			c-0.2,0.6-0.4,1.1-0.7,1.7c-0.3,0.6-0.6,1.1-1,1.5c-0.4,0.4-0.9,0.8-1.4,1c-0.5,0.3-1.2,0.4-1.8,0.4c-0.6,0-1.2-0.1-1.8-0.3
			s-1-0.5-1.4-0.8c-0.4-0.4-0.7-0.9-0.9-1.4c-0.2-0.6-0.3-1.2-0.3-2c0-1,0.2-1.9,0.6-2.6c0.4-0.7,1-1.3,1.6-1.8s1.3-0.9,2.1-1.2
			C177.5,63.7,178.2,63.5,178.8,63.3z M174.6,69.6c0,1.2,0.2,2.1,0.7,2.9s1.1,1.1,2,1.1c0.5,0,1-0.1,1.5-0.4c0.5-0.3,1-0.7,1.4-1.2
			c0.4-0.5,0.8-1.2,1-2c0.3-0.8,0.4-1.7,0.5-2.8v-4.3l-2.8,0.9c-0.4,0.1-0.8,0.3-1.3,0.5c-0.5,0.2-1,0.6-1.4,1
			c-0.4,0.4-0.8,1-1.1,1.7S174.6,68.5,174.6,69.6z"/>
		<path class="st0" d="M198.2,50h14l0.3,8.1c-0.2-1.6-0.4-2.9-0.6-3.9c-0.2-1-0.5-1.7-0.9-2.3s-0.7-0.9-1.2-1.1s-1-0.3-1.7-0.3h-2
			V71c0,0.5,0,0.9,0.1,1.2c0,0.3,0.1,0.6,0.2,0.8c0.1,0.2,0.2,0.4,0.4,0.6c0.2,0.2,0.4,0.3,0.7,0.4h-4.7c0.3-0.1,0.5-0.2,0.7-0.4
			s0.3-0.3,0.4-0.6s0.2-0.5,0.2-0.8c0-0.3,0.1-0.8,0.1-1.3V50.6h-2c-0.6,0-1.2,0.1-1.7,0.3s-0.9,0.5-1.2,1.1s-0.6,1.3-0.9,2.3
			c-0.2,1-0.5,2.3-0.6,3.9L198.2,50z"/>
		<path class="st0" d="M223.9,54.3c1.1,0,2.1,0.2,3,0.7c0.9,0.5,1.7,1.2,2.3,2.1c0.7,0.9,1.2,1.9,1.5,3.2c0.4,1.2,0.5,2.5,0.5,4v0
			c0,1.5-0.2,2.8-0.5,4c-0.4,1.2-0.9,2.3-1.5,3.2c-0.7,0.9-1.4,1.6-2.3,2.1c-0.9,0.5-1.9,0.7-3,0.7c-1.1,0-2.1-0.2-3-0.7
			c-0.9-0.5-1.7-1.2-2.3-2.1c-0.7-0.9-1.2-1.9-1.5-3.2c-0.4-1.2-0.5-2.5-0.5-4v0c0-1.5,0.2-2.8,0.5-4c0.4-1.2,0.9-2.3,1.5-3.2
			c0.7-0.9,1.4-1.6,2.3-2.1C221.8,54.5,222.8,54.3,223.9,54.3z M218.6,64.2c0,1.4,0.1,2.7,0.4,3.8s0.6,2.2,1.1,3
			c0.5,0.8,1,1.5,1.7,2c0.7,0.5,1.4,0.7,2.2,0.7c0.8,0,1.5-0.2,2.2-0.7c0.7-0.5,1.2-1.1,1.7-2c0.5-0.8,0.8-1.8,1.1-3
			s0.4-2.4,0.4-3.8c0-1.4-0.1-2.7-0.4-3.8s-0.6-2.1-1.1-3c-0.5-0.8-1-1.5-1.7-1.9s-1.4-0.7-2.2-0.7c-0.8,0-1.5,0.2-2.2,0.7
			s-1.2,1.1-1.7,1.9c-0.5,0.8-0.8,1.8-1.1,3S218.6,62.8,218.6,64.2z"/>
		<path class="st0" d="M235,74c0.3-0.1,0.5-0.2,0.7-0.4c0.2-0.1,0.3-0.3,0.4-0.5c0.1-0.2,0.2-0.5,0.2-0.8c0-0.3,0.1-0.8,0.1-1.2
			V58.2c0-0.5,0-0.9,0-1.3c0-0.4-0.1-0.7-0.1-1c-0.1-0.3-0.1-0.5-0.2-0.8c-0.1-0.2-0.2-0.5-0.4-0.7l2.6-0.3v5.5c0.4-1.7,1.1-3,2.1-4
			c1-1,2.2-1.5,3.6-1.5c0.8,0,1.6,0.2,2.2,0.5s1.2,0.8,1.6,1.3c0.4,0.6,0.8,1.3,1,2.1c0.2,0.8,0.4,1.7,0.4,2.6V71
			c0,0.5,0,0.9,0.1,1.2c0,0.3,0.1,0.6,0.2,0.8s0.2,0.4,0.4,0.6c0.2,0.1,0.4,0.3,0.6,0.4h-4.6c0.3-0.1,0.5-0.2,0.7-0.4
			c0.2-0.1,0.3-0.3,0.4-0.5c0.1-0.2,0.2-0.5,0.2-0.8c0-0.3,0.1-0.8,0.1-1.2V60.4c0-1.7-0.3-3.1-0.9-4.1c-0.6-1-1.5-1.5-2.7-1.5
			c-0.7,0-1.3,0.2-1.9,0.5c-0.6,0.3-1.2,0.8-1.7,1.5c-0.5,0.6-0.9,1.4-1.2,2.4c-0.3,0.9-0.5,2-0.5,3.3V71c0,0.5,0,0.9,0.1,1.2
			c0,0.3,0.1,0.6,0.2,0.8c0.1,0.2,0.2,0.4,0.4,0.6c0.2,0.1,0.4,0.3,0.7,0.4H235z"/>
		<path class="st0" d="M260.9,54.3c1,0,1.9,0.2,2.7,0.6c0.8,0.4,1.4,0.9,1.9,1.7c0.5,0.7,0.9,1.6,1.1,2.5c0.2,1,0.4,2,0.4,3.2h-10.9
			c0,0.3-0.1,0.7-0.1,1.1s0,0.7,0,1.1c0,1.3,0.1,2.5,0.4,3.7s0.6,2.1,1.1,3c0.5,0.8,1,1.5,1.7,2c0.7,0.5,1.4,0.7,2.2,0.7
			c0.7,0,1.3-0.2,1.9-0.5c0.6-0.3,1.1-0.8,1.5-1.4c0.5-0.6,0.9-1.4,1.3-2.2c0.4-0.9,0.7-1.8,1-2.9l-0.2,5c-0.8,0.9-1.6,1.5-2.6,1.9
			c-1,0.4-1.9,0.6-2.8,0.6c-1.1,0-2.1-0.2-3-0.7c-0.9-0.5-1.7-1.1-2.4-2c-0.7-0.9-1.2-1.9-1.5-3.1c-0.4-1.2-0.5-2.6-0.5-4
			c0-1.5,0.2-2.8,0.5-4c0.3-1.2,0.8-2.3,1.4-3.2c0.6-0.9,1.3-1.6,2.2-2.1C258.9,54.5,259.8,54.3,260.9,54.3z M256.2,61.8h8.9
			c0-1-0.1-2-0.3-2.8c-0.2-0.9-0.5-1.6-0.8-2.3c-0.3-0.6-0.8-1.1-1.3-1.5c-0.5-0.4-1.1-0.5-1.8-0.5c-0.6,0-1.2,0.2-1.7,0.5
			c-0.5,0.3-1,0.8-1.4,1.5s-0.7,1.4-1,2.2C256.5,59.8,256.3,60.8,256.2,61.8z"/>
		<path class="st0" d="M285.5,50c-0.5,0.2-0.9,0.5-1.1,1c-0.2,0.4-0.3,1.1-0.3,2.1V65c0,2.7,0.4,4.9,1.3,6.4c0.8,1.5,2,2.3,3.5,2.3
			c1.8,0,3.2-0.8,4.2-2.4s1.5-3.9,1.5-6.8V53c0-0.5,0-0.9-0.1-1.3c0-0.3-0.1-0.6-0.2-0.8c-0.1-0.2-0.2-0.4-0.4-0.6s-0.4-0.3-0.7-0.4
			h3.3c-0.5,0.2-0.9,0.5-1.1,1c-0.2,0.4-0.3,1.1-0.3,2.1v11.4c0,3.1-0.5,5.5-1.6,7.3c-1.1,1.7-2.6,2.6-4.5,2.6c-2.2,0-3.9-0.7-5-2.2
			c-1.2-1.5-1.8-3.6-1.8-6.5V53c0-0.5,0-0.9-0.1-1.3c0-0.3-0.1-0.6-0.2-0.8c-0.1-0.2-0.2-0.4-0.4-0.6s-0.4-0.3-0.7-0.4H285.5z"/>
		<path class="st0" d="M301.5,77.6V58.2c0-0.5,0-0.9,0-1.3c0-0.4-0.1-0.7-0.1-1c-0.1-0.3-0.1-0.5-0.2-0.8c-0.1-0.2-0.2-0.5-0.3-0.7
			l2.6-0.3v2.5c0.3-0.5,0.6-0.9,1-1.2c0.4-0.3,0.7-0.6,1.1-0.7c0.4-0.2,0.8-0.3,1.1-0.4s0.7-0.1,1.1-0.1c1.1,0,2.1,0.2,3,0.7
			s1.7,1.1,2.3,1.9c0.7,0.8,1.2,1.8,1.5,3c0.4,1.2,0.5,2.5,0.5,3.9c0,1.5-0.2,2.8-0.6,4.1s-0.9,2.4-1.5,3.3s-1.4,1.7-2.4,2.2
			c-0.9,0.5-1.9,0.8-3,0.8c-0.8,0-1.6-0.2-2.3-0.5c-0.7-0.3-1.4-0.8-1.9-1.5v5.4c0,0.5,0,0.9,0.1,1.2c0,0.3,0.1,0.6,0.2,0.8
			s0.2,0.4,0.4,0.6c0.2,0.1,0.4,0.3,0.6,0.4h-4.6c0.3-0.1,0.5-0.2,0.7-0.4c0.2-0.2,0.3-0.3,0.4-0.6c0.1-0.2,0.2-0.5,0.2-0.8
			C301.5,78.5,301.5,78,301.5,77.6z M307.8,73.6c0.8,0,1.5-0.2,2.2-0.7c0.6-0.5,1.2-1.1,1.7-1.8c0.5-0.8,0.8-1.7,1.1-2.8
			s0.4-2.2,0.4-3.4c0-1.4-0.1-2.8-0.4-4c-0.2-1.2-0.6-2.3-1.1-3.2s-1.1-1.6-1.8-2.1c-0.7-0.5-1.6-0.8-2.6-0.8c-0.6,0-1.3,0.2-2,0.5
			c-0.7,0.3-1.3,1-1.8,1.9v12.5c0.5,1.3,1.1,2.2,1.8,2.9C305.9,73.3,306.8,73.6,307.8,73.6z"/>
		<path class="st0" d="M328.4,74c0.6-0.2,0.9-0.5,1.1-0.9c0.2-0.4,0.3-1.1,0.3-2.1V53c0-0.5,0-0.9-0.1-1.3c0-0.3-0.1-0.6-0.2-0.8
			c-0.1-0.2-0.2-0.4-0.4-0.6s-0.4-0.3-0.7-0.4h5.9c2,0,3.7,0.5,4.9,1.5c1.2,1,1.8,2.4,1.8,4.2c0,1.5-0.4,2.8-1.3,3.8
			c-0.9,1-2.1,1.7-3.6,2.1c1.7,0.3,3.1,0.9,4.1,1.9c1,1,1.5,2.3,1.5,3.9c0,1-0.2,2-0.5,2.8c-0.3,0.8-0.8,1.5-1.3,2.1
			c-0.6,0.6-1.3,1-2.1,1.3c-0.8,0.3-1.7,0.5-2.8,0.5H328.4z M331.8,61.4h2.8c1.3,0,2.4-0.5,3.2-1.5c0.8-1,1.2-2.3,1.2-4
			c0-1.7-0.4-3.1-1.3-4c-0.9-0.9-2.1-1.4-3.6-1.4h-2.2V61.4z M331.8,73.5h2.8c1.6,0,2.8-0.5,3.6-1.6c0.9-1,1.3-2.5,1.3-4.3
			c0-1.8-0.4-3.2-1.3-4.2c-0.9-1-2-1.5-3.5-1.5h-2.9V73.5z"/>
		<path class="st0" d="M351.9,63.3l2.9-0.9v-2.5c0-1.7-0.3-3-0.8-3.8c-0.5-0.8-1.3-1.2-2.3-1.2c-0.5,0-1,0.1-1.5,0.3
			c-0.5,0.2-1,0.6-1.4,1.2s-0.8,1.3-1.2,2.3c-0.4,1-0.7,2.2-0.9,3.7l-0.2-5.8c0.6-0.7,1.4-1.2,2.4-1.6c0.9-0.4,1.9-0.6,2.9-0.6
			c1.5,0,2.7,0.5,3.6,1.5c0.9,1,1.3,2.4,1.3,4.3v11c0,0.7,0.1,1.3,0.2,1.8c0.1,0.5,0.3,0.9,0.6,1.2l-2.5,0.1v-4.6
			c-0.2,0.6-0.4,1.1-0.7,1.7c-0.3,0.6-0.6,1.1-1,1.5c-0.4,0.4-0.9,0.8-1.4,1c-0.5,0.3-1.2,0.4-1.8,0.4c-0.6,0-1.2-0.1-1.8-0.3
			s-1-0.5-1.4-0.8c-0.4-0.4-0.7-0.9-0.9-1.4c-0.2-0.6-0.3-1.2-0.3-2c0-1,0.2-1.9,0.6-2.6c0.4-0.7,1-1.3,1.6-1.8s1.3-0.9,2.1-1.2
			C350.6,63.7,351.3,63.5,351.9,63.3z M347.7,69.6c0,1.2,0.2,2.1,0.7,2.9s1.1,1.1,2,1.1c0.5,0,1-0.1,1.5-0.4c0.5-0.3,1-0.7,1.4-1.2
			c0.4-0.5,0.8-1.2,1-2c0.3-0.8,0.4-1.7,0.5-2.8v-4.3l-2.8,0.9c-0.4,0.1-0.8,0.3-1.3,0.5c-0.5,0.2-1,0.6-1.4,1
			c-0.4,0.4-0.8,1-1.1,1.7S347.7,68.5,347.7,69.6z"/>
		<path class="st0" d="M361.3,72.2l0.4-6.5c0.1,1.6,0.3,2.9,0.6,3.9c0.3,1,0.6,1.9,1.1,2.5s0.9,1,1.5,1.3c0.5,0.3,1.1,0.4,1.8,0.4
			c1.3,0,2.3-0.4,2.9-1.2c0.6-0.8,0.9-1.8,0.9-3c0-0.7-0.1-1.3-0.3-1.7c-0.2-0.5-0.4-0.9-0.7-1.2s-0.6-0.6-0.9-0.7
			c-0.3-0.2-0.6-0.3-0.9-0.4l-2.8-1.2c-0.3-0.1-0.6-0.3-0.9-0.5s-0.7-0.6-1-1c-0.3-0.4-0.6-0.9-0.8-1.4s-0.3-1.2-0.3-2
			c0-1.5,0.4-2.7,1.3-3.6c0.8-0.9,2-1.3,3.4-1.3c1,0,1.8,0.2,2.6,0.6s1.5,0.9,2,1.6l-0.2,4.7c-0.4-2.3-1-3.9-1.7-4.9
			s-1.6-1.5-2.8-1.5c-0.9,0-1.7,0.3-2.3,0.9c-0.6,0.6-0.9,1.5-0.9,2.7c0,0.6,0.1,1,0.3,1.4s0.4,0.7,0.6,0.9c0.2,0.2,0.5,0.4,0.8,0.6
			c0.3,0.2,0.6,0.3,0.8,0.4l2.5,1.1c0.3,0.1,0.7,0.3,1.1,0.6s0.8,0.6,1.2,1c0.4,0.4,0.7,1,1,1.6s0.4,1.4,0.4,2.3
			c0,0.9-0.1,1.6-0.4,2.4s-0.6,1.3-1.1,1.9c-0.5,0.5-1,0.9-1.7,1.2c-0.7,0.3-1.5,0.5-2.4,0.5c-1,0-1.9-0.2-2.8-0.5
			C362.6,73.3,361.8,72.8,361.3,72.2z"/>
		<path class="st0" d="M382.6,54.3c1,0,1.9,0.2,2.7,0.6c0.8,0.4,1.4,0.9,1.9,1.7c0.5,0.7,0.9,1.6,1.1,2.5c0.2,1,0.4,2,0.4,3.2h-10.9
			c0,0.3-0.1,0.7-0.1,1.1s0,0.7,0,1.1c0,1.3,0.1,2.5,0.4,3.7s0.6,2.1,1.1,3c0.5,0.8,1,1.5,1.7,2c0.7,0.5,1.4,0.7,2.2,0.7
			c0.7,0,1.3-0.2,1.9-0.5c0.6-0.3,1.1-0.8,1.5-1.4c0.5-0.6,0.9-1.4,1.3-2.2c0.4-0.9,0.7-1.8,1-2.9l-0.2,5c-0.8,0.9-1.6,1.5-2.6,1.9
			c-1,0.4-1.9,0.6-2.8,0.6c-1.1,0-2.1-0.2-3-0.7c-0.9-0.5-1.7-1.1-2.4-2c-0.7-0.9-1.2-1.9-1.5-3.1c-0.4-1.2-0.5-2.6-0.5-4
			c0-1.5,0.2-2.8,0.5-4c0.3-1.2,0.8-2.3,1.4-3.2c0.6-0.9,1.3-1.6,2.2-2.1C380.5,54.5,381.5,54.3,382.6,54.3z M377.9,61.8h8.9
			c0-1-0.1-2-0.3-2.8c-0.2-0.9-0.5-1.6-0.8-2.3c-0.3-0.6-0.8-1.1-1.3-1.5c-0.5-0.4-1.1-0.5-1.8-0.5c-0.6,0-1.2,0.2-1.7,0.5
			c-0.5,0.3-1,0.8-1.4,1.5s-0.7,1.4-1,2.2C378.2,59.8,378,60.8,377.9,61.8z"/>
	</g>
</g>
<g>
	<g>
		<path class="st0" d="M816.9,49.8c0.3,0,0.8,0,1.2,0.1c0.5,0.1,1,0.2,1.5,0.4c0.5,0.2,1.1,0.4,1.6,0.7c0.6,0.3,1.1,0.6,1.6,1l0.4,8
			c-0.5-3.3-1.3-5.7-2.5-7.3s-2.5-2.4-4.1-2.4c-0.9,0-1.7,0.2-2.4,0.7s-1.4,1.2-2,2.2c-0.6,1-1,2.2-1.3,3.7s-0.5,3.2-0.5,5.1
			c0,2,0.2,3.7,0.5,5.2c0.3,1.5,0.8,2.7,1.4,3.7c0.6,1,1.3,1.7,2.1,2.2c0.8,0.5,1.7,0.7,2.6,0.7c0.6,0,1.1-0.1,1.7-0.3
			s1.1-0.5,1.7-1c0.5-0.5,1.1-1.1,1.5-1.9c0.5-0.8,0.9-1.7,1.3-2.9v3.8c-0.7,0.8-1.6,1.4-2.7,2s-2.2,0.8-3.5,0.8s-2.4-0.3-3.5-0.9
			c-1.1-0.6-2-1.5-2.8-2.6c-0.8-1.1-1.4-2.4-1.9-3.9c-0.5-1.5-0.7-3.1-0.7-4.9c0-1.7,0.2-3.3,0.7-4.8s1.1-2.8,1.9-3.9
			c0.8-1.1,1.7-1.9,2.7-2.6S815.7,49.8,816.9,49.8z"/>
		<path class="st0" d="M827.4,74c0.3-0.1,0.5-0.2,0.7-0.4c0.2-0.1,0.3-0.3,0.4-0.5c0.1-0.2,0.2-0.5,0.2-0.8c0-0.3,0.1-0.8,0.1-1.2
			V50.7c0-0.7,0-1.2-0.1-1.6c-0.1-0.3-0.3-0.6-0.5-0.9l2.6-0.4v11.9c0.4-1.7,1.1-3,2.1-4c1-1,2.2-1.5,3.6-1.5c0.8,0,1.6,0.2,2.2,0.5
			s1.2,0.8,1.6,1.3c0.4,0.6,0.8,1.3,1,2.1c0.2,0.8,0.4,1.7,0.4,2.6V71c0,0.5,0,0.9,0.1,1.2c0,0.3,0.1,0.6,0.2,0.8s0.2,0.4,0.4,0.6
			c0.2,0.1,0.4,0.3,0.6,0.4h-4.6c0.3-0.1,0.5-0.2,0.7-0.4s0.3-0.3,0.4-0.5c0.1-0.2,0.2-0.5,0.2-0.8c0-0.3,0.1-0.8,0.1-1.2V60.4
			c0-1.7-0.3-3.1-0.9-4.1c-0.6-1-1.5-1.5-2.7-1.5c-0.7,0-1.3,0.2-1.9,0.5c-0.6,0.3-1.2,0.8-1.7,1.5c-0.5,0.6-0.9,1.4-1.2,2.4
			c-0.3,0.9-0.5,2-0.5,3.3V71c0,0.5,0,0.9,0.1,1.2c0,0.3,0.1,0.6,0.2,0.8s0.2,0.4,0.4,0.6c0.2,0.1,0.4,0.3,0.6,0.4H827.4z"/>
		<path class="st0" d="M853.4,54.3c1,0,1.9,0.2,2.7,0.6c0.8,0.4,1.4,0.9,1.9,1.7c0.5,0.7,0.9,1.6,1.1,2.5c0.2,1,0.4,2,0.4,3.2h-10.9
			c0,0.3-0.1,0.7-0.1,1.1s0,0.7,0,1.1c0,1.3,0.1,2.5,0.4,3.7s0.6,2.1,1.1,3c0.5,0.8,1,1.5,1.7,2c0.7,0.5,1.4,0.7,2.2,0.7
			c0.7,0,1.3-0.2,1.9-0.5c0.6-0.3,1.1-0.8,1.5-1.4c0.5-0.6,0.9-1.4,1.3-2.2c0.4-0.9,0.7-1.8,1-2.9l-0.2,5c-0.8,0.9-1.6,1.5-2.6,1.9
			c-1,0.4-1.9,0.6-2.8,0.6c-1.1,0-2.1-0.2-3-0.7c-0.9-0.5-1.7-1.1-2.4-2c-0.7-0.9-1.2-1.9-1.5-3.1c-0.4-1.2-0.5-2.6-0.5-4
			c0-1.5,0.2-2.8,0.5-4c0.3-1.2,0.8-2.3,1.4-3.2c0.6-0.9,1.3-1.6,2.2-2.1C851.3,54.5,852.3,54.3,853.4,54.3z M848.7,61.8h8.9
			c0-1-0.1-2-0.3-2.8c-0.2-0.9-0.5-1.6-0.8-2.3c-0.3-0.6-0.8-1.1-1.3-1.5c-0.5-0.4-1.1-0.5-1.8-0.5c-0.6,0-1.2,0.2-1.7,0.5
			c-0.5,0.3-1,0.8-1.4,1.5s-0.7,1.4-1,2.2C849,59.8,848.8,60.8,848.7,61.8z"/>
		<path class="st0" d="M870.6,54.3c1.1,0,2.2,0.3,3.2,0.8c1,0.5,1.8,1.2,2.6,2l-0.9,5.5c-0.1-1.5-0.3-2.7-0.6-3.7s-0.7-1.8-1.1-2.4
			s-0.9-1-1.5-1.3c-0.5-0.3-1.1-0.4-1.6-0.4c-0.7,0-1.4,0.2-2,0.7c-0.6,0.5-1.1,1.1-1.6,1.9s-0.8,1.8-1,3c-0.3,1.2-0.4,2.4-0.4,3.8
			c0,1.4,0.1,2.7,0.4,3.9c0.3,1.2,0.6,2.2,1.1,3c0.5,0.8,1,1.5,1.7,1.9c0.6,0.5,1.3,0.7,2.1,0.7c1.3,0,2.5-0.7,3.5-2
			c1-1.3,1.7-3.2,2.2-5.8l-0.2,5.8c-0.4,0.5-0.8,0.9-1.3,1.2c-0.5,0.3-1,0.6-1.4,0.7c-0.5,0.2-1,0.3-1.4,0.4
			c-0.5,0.1-0.9,0.1-1.3,0.1c-1.1,0-2-0.2-2.9-0.7c-0.9-0.5-1.7-1.1-2.3-2c-0.6-0.9-1.2-1.9-1.5-3.2c-0.4-1.2-0.6-2.6-0.6-4.1
			c0-1.5,0.2-2.8,0.5-4c0.3-1.2,0.8-2.2,1.5-3.1c0.6-0.9,1.4-1.6,2.2-2C868.6,54.5,869.5,54.3,870.6,54.3z"/>
		<path class="st0" d="M880.3,74c0.3-0.1,0.5-0.2,0.7-0.4c0.2-0.1,0.3-0.3,0.4-0.5c0.1-0.2,0.2-0.5,0.2-0.8c0-0.3,0.1-0.8,0.1-1.2
			V50.7c0-0.7,0-1.2-0.1-1.6c-0.1-0.3-0.3-0.6-0.5-0.9l2.6-0.4v17.7l6.6-7.8c0.5-0.5,0.9-1.1,1.2-1.6c0.3-0.6,0.4-1.1,0.4-1.6h2.4
			c-0.2,0.1-0.4,0.3-0.6,0.5s-0.5,0.4-0.8,0.8c-0.3,0.3-0.7,0.7-1.1,1.2c-0.4,0.5-0.9,1-1.5,1.7l-2.9,3.4l5,8.3
			c0.5,0.8,0.9,1.5,1.2,1.9s0.5,0.9,0.7,1.1s0.3,0.5,0.4,0.6c0.1,0.1,0.1,0.1,0.2,0.1h-3.3c0-0.1,0.1-0.2,0.1-0.3s0-0.3-0.1-0.6
			c-0.1-0.2-0.2-0.6-0.3-0.9c-0.2-0.4-0.4-0.9-0.7-1.4l-4.3-7.4l-2.4,2.9V71c0,0.5,0,0.9,0.1,1.2c0,0.3,0.1,0.6,0.2,0.8
			s0.2,0.4,0.4,0.6c0.2,0.1,0.4,0.3,0.6,0.4H880.3z"/>
		<path class="st0" d="M907.7,74c0.6-0.2,0.9-0.5,1.1-0.9c0.2-0.4,0.3-1.1,0.3-2.1V53c0-0.5,0-0.9-0.1-1.3c0-0.3-0.1-0.6-0.2-0.8
			c-0.1-0.2-0.2-0.4-0.4-0.6s-0.4-0.3-0.7-0.4h6.7c0.8,0,1.6,0.1,2.4,0.3c0.8,0.2,1.6,0.6,2.2,1.1c0.7,0.5,1.2,1.2,1.6,2
			c0.4,0.8,0.6,1.9,0.6,3.2c0,1.2-0.2,2.3-0.6,3.2s-1,1.6-1.6,2.2c-0.7,0.6-1.4,1-2.2,1.3c-0.8,0.3-1.6,0.4-2.4,0.4h-3.2V71
			c0,1,0.1,1.7,0.3,2.1c0.2,0.4,0.6,0.7,1.1,1H907.7z M911.1,50.5v12.7h2.7c0.7,0,1.4-0.1,2-0.4c0.6-0.2,1.2-0.6,1.7-1.2
			s0.9-1.2,1.2-2c0.3-0.8,0.4-1.8,0.4-3c0-2-0.5-3.6-1.4-4.6c-0.9-1.1-2.2-1.6-3.9-1.6H911.1z"/>
		<path class="st0" d="M932.5,54.3c1.1,0,2.1,0.2,3,0.7c0.9,0.5,1.7,1.2,2.3,2.1c0.7,0.9,1.2,1.9,1.5,3.2c0.4,1.2,0.5,2.5,0.5,4v0
			c0,1.5-0.2,2.8-0.5,4c-0.4,1.2-0.9,2.3-1.5,3.2c-0.7,0.9-1.4,1.6-2.3,2.1c-0.9,0.5-1.9,0.7-3,0.7c-1.1,0-2.1-0.2-3-0.7
			c-0.9-0.5-1.7-1.2-2.3-2.1c-0.7-0.9-1.2-1.9-1.5-3.2c-0.4-1.2-0.5-2.5-0.5-4v0c0-1.5,0.2-2.8,0.5-4c0.4-1.2,0.9-2.3,1.5-3.2
			c0.7-0.9,1.4-1.6,2.3-2.1C930.4,54.5,931.4,54.3,932.5,54.3z M927.2,64.2c0,1.4,0.1,2.7,0.4,3.8s0.6,2.2,1.1,3
			c0.5,0.8,1,1.5,1.7,2c0.7,0.5,1.4,0.7,2.2,0.7c0.8,0,1.5-0.2,2.2-0.7c0.7-0.5,1.2-1.1,1.7-2c0.5-0.8,0.8-1.8,1.1-3
			s0.4-2.4,0.4-3.8c0-1.4-0.1-2.7-0.4-3.8s-0.6-2.1-1.1-3c-0.5-0.8-1-1.5-1.7-1.9s-1.4-0.7-2.2-0.7c-0.8,0-1.5,0.2-2.2,0.7
			s-1.2,1.1-1.7,1.9c-0.5,0.8-0.8,1.8-1.1,3S927.2,62.8,927.2,64.2z"/>
		<path class="st0" d="M943.6,74c0.3-0.1,0.5-0.2,0.7-0.4c0.2-0.1,0.3-0.3,0.4-0.5c0.1-0.2,0.2-0.5,0.2-0.8c0-0.3,0.1-0.8,0.1-1.2
			V58.2c0-0.5,0-0.9,0-1.3c0-0.4-0.1-0.7-0.1-1c-0.1-0.3-0.1-0.5-0.2-0.8c-0.1-0.2-0.2-0.5-0.4-0.7l2.6-0.3V71c0,0.5,0,0.9,0.1,1.2
			c0,0.3,0.1,0.6,0.2,0.8c0.1,0.2,0.2,0.4,0.4,0.6c0.2,0.1,0.4,0.3,0.7,0.4H943.6z M945.8,48.3c0.4,0,0.7,0.2,1,0.5s0.4,0.7,0.4,1.3
			s-0.1,1-0.4,1.3c-0.3,0.3-0.6,0.5-1,0.5c-0.4,0-0.7-0.2-1-0.5c-0.3-0.3-0.4-0.7-0.4-1.3s0.1-1,0.4-1.3S945.4,48.3,945.8,48.3z"/>
		<path class="st0" d="M951.7,74c0.3-0.1,0.5-0.2,0.7-0.4c0.2-0.1,0.3-0.3,0.4-0.5c0.1-0.2,0.2-0.5,0.2-0.8c0-0.3,0.1-0.8,0.1-1.2
			V58.2c0-0.5,0-0.9,0-1.3c0-0.4-0.1-0.7-0.1-1c-0.1-0.3-0.1-0.5-0.2-0.8c-0.1-0.2-0.2-0.5-0.4-0.7l2.6-0.3v5.5c0.4-1.7,1.1-3,2.1-4
			c1-1,2.2-1.5,3.6-1.5c0.8,0,1.6,0.2,2.2,0.5s1.2,0.8,1.6,1.3c0.4,0.6,0.8,1.3,1,2.1c0.2,0.8,0.4,1.7,0.4,2.6V71
			c0,0.5,0,0.9,0.1,1.2c0,0.3,0.1,0.6,0.2,0.8s0.2,0.4,0.4,0.6c0.2,0.1,0.4,0.3,0.6,0.4h-4.6c0.3-0.1,0.5-0.2,0.7-0.4
			c0.2-0.1,0.3-0.3,0.4-0.5c0.1-0.2,0.2-0.5,0.2-0.8c0-0.3,0.1-0.8,0.1-1.2V60.4c0-1.7-0.3-3.1-0.9-4.1c-0.6-1-1.5-1.5-2.7-1.5
			c-0.7,0-1.3,0.2-1.9,0.5c-0.6,0.3-1.2,0.8-1.7,1.5c-0.5,0.6-0.9,1.4-1.2,2.4c-0.3,0.9-0.5,2-0.5,3.3V71c0,0.5,0,0.9,0.1,1.2
			c0,0.3,0.1,0.6,0.2,0.8c0.1,0.2,0.2,0.4,0.4,0.6c0.2,0.1,0.4,0.3,0.7,0.4H951.7z"/>
		<path class="st0" d="M973.1,54.5l1.8-4.8v4.8h4.3v0.4h-4.3v14.9c0,0.8,0,1.4,0.1,1.9s0.2,0.9,0.3,1.2c0.1,0.3,0.3,0.5,0.5,0.6
			s0.5,0.2,0.7,0.2c0.5,0,0.9-0.2,1.3-0.6c0.3-0.4,0.7-0.9,1-1.6l0.3,0.3c-0.3,0.7-0.7,1.3-1.1,1.7c-0.4,0.4-1,0.6-1.8,0.6
			c-1.2,0-2.1-0.5-2.6-1.4c-0.5-0.9-0.7-2.3-0.7-4v-14h-2.5v-0.4H973.1z"/>
		<path class="st0" d="M982.6,72.2l0.4-6.5c0.1,1.6,0.3,2.9,0.6,3.9c0.3,1,0.6,1.9,1.1,2.5s0.9,1,1.5,1.3c0.5,0.3,1.1,0.4,1.8,0.4
			c1.3,0,2.3-0.4,2.9-1.2c0.6-0.8,0.9-1.8,0.9-3c0-0.7-0.1-1.3-0.3-1.7c-0.2-0.5-0.4-0.9-0.7-1.2s-0.6-0.6-0.9-0.7
			c-0.3-0.2-0.6-0.3-0.9-0.4l-2.8-1.2c-0.3-0.1-0.6-0.3-0.9-0.5s-0.7-0.6-1-1c-0.3-0.4-0.6-0.9-0.8-1.4s-0.3-1.2-0.3-2
			c0-1.5,0.4-2.7,1.3-3.6c0.8-0.9,2-1.3,3.4-1.3c1,0,1.8,0.2,2.6,0.6s1.5,0.9,2,1.6l-0.2,4.7c-0.4-2.3-1-3.9-1.7-4.9
			s-1.6-1.5-2.8-1.5c-0.9,0-1.7,0.3-2.3,0.9c-0.6,0.6-0.9,1.5-0.9,2.7c0,0.6,0.1,1,0.3,1.4s0.4,0.7,0.6,0.9c0.2,0.2,0.5,0.4,0.8,0.6
			c0.3,0.2,0.6,0.3,0.8,0.4l2.5,1.1c0.3,0.1,0.7,0.3,1.1,0.6s0.8,0.6,1.2,1c0.4,0.4,0.7,1,1,1.6s0.4,1.4,0.4,2.3
			c0,0.9-0.1,1.6-0.4,2.4s-0.6,1.3-1.1,1.9c-0.5,0.5-1,0.9-1.7,1.2c-0.7,0.3-1.5,0.5-2.4,0.5c-1,0-1.9-0.2-2.8-0.5
			C983.9,73.3,983.1,72.8,982.6,72.2z"/>
	</g>
</g>
</svg>
