<?xml version="1.0" encoding="utf-8"?>
<!-- Generator: Adobe Illustrator 25.4.1, SVG Export Plug-In . SVG Version: 6.00 Build 0)  -->
<svg version="1.1" id="レイヤー_1" xmlns="http://www.w3.org/2000/svg" xmlns:xlink="http://www.w3.org/1999/xlink" x="0px"
	 y="0px" viewBox="0 0 50 630" style="enable-background:new 0 0 50 630;" xml:space="preserve">
<style type="text/css">
	.st0{fill:#D2AA86;stroke:#D2AA86;stroke-width:0.25;stroke-miterlimit:10;}
</style>
<g>
	<g>
		<g>
			<path class="st0" d="M32.3,483.3c0,0.2,0,0.5-0.1,0.7c0,0.3-0.1,0.6-0.2,0.9c-0.1,0.3-0.2,0.6-0.4,1s-0.4,0.6-0.6,1l-4.8,0.2
				c2-0.3,3.4-0.8,4.4-1.5c0.9-0.7,1.4-1.5,1.4-2.4c0-0.5-0.1-1-0.4-1.5s-0.7-0.9-1.3-1.2c-0.6-0.3-1.3-0.6-2.2-0.8
				c-0.9-0.2-1.9-0.3-3.1-0.3c-1.2,0-2.2,0.1-3.1,0.3c-0.9,0.2-1.6,0.5-2.2,0.8s-1,0.8-1.3,1.2c-0.3,0.5-0.4,1-0.4,1.5
				c0,0.3,0.1,0.7,0.2,1c0.1,0.3,0.3,0.7,0.6,1s0.7,0.6,1.1,0.9c0.5,0.3,1,0.5,1.8,0.8h-2.3c-0.5-0.4-0.9-1-1.2-1.6
				c-0.3-0.6-0.5-1.3-0.5-2.1c0-0.7,0.2-1.4,0.6-2.1c0.4-0.6,0.9-1.2,1.5-1.7c0.7-0.5,1.4-0.8,2.3-1.1s1.9-0.4,2.9-0.4
				c1,0,2,0.1,2.9,0.4c0.9,0.3,1.7,0.6,2.3,1.1c0.7,0.5,1.2,1,1.5,1.6C32.1,481.9,32.3,482.6,32.3,483.3z"/>
			<path class="st0" d="M17.8,489.6c0.1,0.2,0.1,0.3,0.2,0.4c0.1,0.1,0.2,0.2,0.3,0.2c0.1,0.1,0.3,0.1,0.5,0.1c0.2,0,0.5,0,0.7,0
				h12.2c0.4,0,0.7,0,0.9-0.1c0.2-0.1,0.4-0.2,0.5-0.3l0.2,1.5H19.6c-0.3,0-0.5,0-0.7,0c-0.2,0-0.4,0.1-0.5,0.1
				c-0.1,0.1-0.2,0.1-0.3,0.2s-0.2,0.2-0.2,0.4V489.6z"/>
			<path class="st0" d="M29.6,498.7c0,0.6-0.1,1.2-0.4,1.6c-0.2,0.5-0.6,0.8-1,1.1c-0.4,0.3-0.9,0.5-1.5,0.7s-1.2,0.2-1.9,0.2v-6.6
				c-0.2,0-0.4,0-0.6,0s-0.4,0-0.7,0c-0.8,0-1.5,0.1-2.2,0.2s-1.3,0.4-1.8,0.7c-0.5,0.3-0.9,0.6-1.2,1c-0.3,0.4-0.4,0.8-0.4,1.3
				c0,0.4,0.1,0.8,0.3,1.1c0.2,0.3,0.5,0.6,0.9,0.9c0.4,0.3,0.8,0.5,1.3,0.8c0.5,0.2,1.1,0.4,1.7,0.6l-3-0.1c-0.5-0.5-0.9-1-1.1-1.6
				c-0.2-0.6-0.4-1.1-0.4-1.7c0-0.7,0.1-1.3,0.4-1.8c0.3-0.6,0.7-1,1.2-1.4c0.5-0.4,1.1-0.7,1.9-0.9s1.5-0.3,2.4-0.3
				c0.9,0,1.7,0.1,2.4,0.3c0.7,0.2,1.4,0.5,1.9,0.8c0.5,0.4,1,0.8,1.3,1.3C29.5,497.5,29.6,498.1,29.6,498.7z M25.1,495.9v5.3
				c0.6,0,1.2-0.1,1.7-0.2s1-0.3,1.4-0.5c0.4-0.2,0.7-0.5,0.9-0.8c0.2-0.3,0.3-0.7,0.3-1.1c0-0.4-0.1-0.7-0.3-1s-0.5-0.6-0.9-0.8
				s-0.8-0.4-1.4-0.6C26.3,496.1,25.7,496,25.1,495.9z"/>
			<path class="st0" d="M24.2,508.6l0.6,1.7h1.5c1,0,1.8-0.2,2.3-0.5c0.5-0.3,0.7-0.8,0.7-1.4c0-0.3-0.1-0.6-0.2-0.9
				s-0.4-0.6-0.7-0.8c-0.3-0.3-0.8-0.5-1.4-0.7c-0.6-0.2-1.3-0.4-2.2-0.6l3.5-0.1c0.4,0.4,0.7,0.9,1,1.4c0.2,0.6,0.4,1.1,0.4,1.7
				c0,0.9-0.3,1.6-0.9,2.2c-0.6,0.5-1.4,0.8-2.6,0.8h-6.6c-0.4,0-0.8,0-1.1,0.1s-0.6,0.2-0.7,0.3l-0.1-1.5h2.7
				c-0.3-0.1-0.7-0.2-1-0.4c-0.3-0.2-0.6-0.4-0.9-0.6c-0.3-0.2-0.5-0.5-0.6-0.8s-0.2-0.7-0.2-1.1c0-0.4,0.1-0.7,0.2-1.1
				s0.3-0.6,0.5-0.8c0.2-0.2,0.5-0.4,0.9-0.6c0.3-0.1,0.7-0.2,1.2-0.2c0.6,0,1.1,0.1,1.6,0.4c0.4,0.3,0.8,0.6,1.1,1s0.5,0.8,0.7,1.2
				C23.9,507.8,24.1,508.2,24.2,508.6z M20.4,506.1c-0.7,0-1.3,0.1-1.7,0.4s-0.7,0.7-0.7,1.2c0,0.3,0.1,0.6,0.2,0.9s0.4,0.6,0.7,0.8
				c0.3,0.2,0.7,0.5,1.2,0.6c0.5,0.2,1,0.3,1.7,0.3h2.6l-0.5-1.7c-0.1-0.2-0.2-0.5-0.3-0.8c-0.1-0.3-0.3-0.6-0.6-0.8
				c-0.3-0.3-0.6-0.5-1-0.7C21.6,506.2,21.1,506.1,20.4,506.1z"/>
			<path class="st0" d="M17.8,514.1c0.1,0.2,0.1,0.3,0.2,0.4c0.1,0.1,0.2,0.2,0.3,0.2c0.1,0.1,0.3,0.1,0.5,0.1c0.2,0,0.5,0,0.7,0
				h7.7c0.3,0,0.5,0,0.8,0s0.4,0,0.6-0.1s0.3-0.1,0.5-0.1c0.1-0.1,0.3-0.1,0.4-0.2l0.2,1.6h-2.8c0.4,0.1,0.7,0.3,1.1,0.4
				c0.3,0.2,0.6,0.3,0.9,0.5c0.2,0.2,0.4,0.4,0.6,0.7c0.1,0.3,0.2,0.6,0.2,0.9c0,0.3,0,0.6-0.1,0.9l-2,0c0.2-0.1,0.3-0.2,0.5-0.3
				c0.2-0.1,0.3-0.3,0.5-0.4s0.3-0.3,0.3-0.5s0.1-0.3,0.1-0.5c0-0.2-0.1-0.4-0.2-0.6s-0.3-0.3-0.6-0.5s-0.5-0.3-0.8-0.4
				c-0.3-0.1-0.6-0.2-1-0.3h-6.7c-0.3,0-0.5,0-0.7,0c-0.2,0-0.4,0.1-0.5,0.1c-0.1,0.1-0.2,0.1-0.3,0.2c-0.1,0.1-0.2,0.2-0.2,0.4
				V514.1z"/>
			<path class="st0" d="M17.8,527.4c0.1,0.3,0.3,0.6,0.6,0.7c0.2,0.1,0.7,0.2,1.3,0.2h10.8c0.3,0,0.6,0,0.8,0c0.2,0,0.4-0.1,0.5-0.1
				s0.3-0.1,0.3-0.3c0.1-0.1,0.2-0.2,0.2-0.4v3.6c0,1.2-0.3,2.2-0.9,2.9s-1.4,1.1-2.5,1.1c-0.9,0-1.7-0.3-2.3-0.8
				c-0.6-0.5-1-1.2-1.3-2.2c-0.2,1-0.6,1.9-1.2,2.4c-0.6,0.6-1.4,0.9-2.3,0.9c-0.6,0-1.2-0.1-1.7-0.3c-0.5-0.2-0.9-0.5-1.2-0.8
				s-0.6-0.8-0.8-1.3c-0.2-0.5-0.3-1-0.3-1.7V527.4z M18.1,529.5v1.7c0,0.9,0.3,1.7,0.9,2.2c0.6,0.5,1.5,0.8,2.6,0.8
				c1.1,0,1.9-0.3,2.5-0.8c0.6-0.5,0.9-1.2,0.9-2.1v-1.7H18.1z M25.4,529.5v1.7c0,0.8,0.3,1.4,0.9,1.9s1.4,0.7,2.4,0.7
				c1,0,1.8-0.3,2.4-0.8s0.8-1.2,0.8-2.2v-1.3H25.4z"/>
			<path class="st0" d="M29.6,541.9c0,0.6-0.1,1.2-0.4,1.6c-0.2,0.5-0.6,0.8-1,1.1c-0.4,0.3-0.9,0.5-1.5,0.7s-1.2,0.2-1.9,0.2v-6.6
				c-0.2,0-0.4,0-0.6,0s-0.4,0-0.7,0c-0.8,0-1.5,0.1-2.2,0.2s-1.3,0.4-1.8,0.7c-0.5,0.3-0.9,0.6-1.2,1c-0.3,0.4-0.4,0.8-0.4,1.3
				c0,0.4,0.1,0.8,0.3,1.1c0.2,0.3,0.5,0.6,0.9,0.9c0.4,0.3,0.8,0.5,1.3,0.8c0.5,0.2,1.1,0.4,1.7,0.6l-3-0.1c-0.5-0.5-0.9-1-1.1-1.6
				c-0.2-0.6-0.4-1.1-0.4-1.7c0-0.7,0.1-1.3,0.4-1.8c0.3-0.6,0.7-1,1.2-1.4c0.5-0.4,1.1-0.7,1.9-0.9s1.5-0.3,2.4-0.3
				c0.9,0,1.7,0.1,2.4,0.3c0.7,0.2,1.4,0.5,1.9,0.8c0.5,0.4,1,0.8,1.3,1.3C29.5,540.7,29.6,541.3,29.6,541.9z M25.1,539.1v5.3
				c0.6,0,1.2-0.1,1.7-0.2s1-0.3,1.4-0.5c0.4-0.2,0.7-0.5,0.9-0.8c0.2-0.3,0.3-0.7,0.3-1.1c0-0.4-0.1-0.7-0.3-1s-0.5-0.6-0.9-0.8
				s-0.8-0.4-1.4-0.6C26.3,539.3,25.7,539.2,25.1,539.1z"/>
			<path class="st0" d="M17.8,547.9c0.1,0.2,0.1,0.3,0.2,0.4c0.1,0.1,0.2,0.2,0.3,0.2c0.1,0.1,0.3,0.1,0.5,0.1c0.2,0,0.5,0,0.7,0
				h7.7c0.3,0,0.5,0,0.8,0s0.4,0,0.6-0.1s0.3-0.1,0.5-0.1c0.1-0.1,0.3-0.1,0.4-0.2l0.2,1.6H19.6c-0.3,0-0.5,0-0.7,0
				c-0.2,0-0.4,0.1-0.5,0.1c-0.1,0.1-0.2,0.1-0.3,0.2c-0.1,0.1-0.2,0.2-0.2,0.4V547.9z M33.2,549.3c0,0.2-0.1,0.4-0.3,0.6
				c-0.2,0.2-0.4,0.2-0.8,0.2s-0.6-0.1-0.8-0.2c-0.2-0.2-0.3-0.4-0.3-0.6c0-0.2,0.1-0.4,0.3-0.6c0.2-0.2,0.5-0.2,0.8-0.2
				s0.6,0.1,0.8,0.2C33.1,548.9,33.2,549.1,33.2,549.3z"/>
			<path class="st0" d="M17,552.4c0.7,0,1.2,0.2,1.6,0.7c0.4,0.5,0.6,1.3,0.7,2.4c0.1-0.7,0.3-1.3,0.6-1.6c0.3-0.3,0.7-0.5,1.2-0.5
				c0.3,0,0.5,0,0.7,0.1c0.2,0.1,0.3,0.2,0.5,0.4c0.1,0.2,0.2,0.3,0.3,0.5s0.1,0.4,0.1,0.6v0.2c0.3-0.6,0.7-1,1.3-1.4
				c0.6-0.3,1.3-0.5,2.1-0.5c0.5,0,1,0.1,1.5,0.2s0.8,0.4,1.1,0.7c0.3,0.3,0.6,0.6,0.7,1c0.2,0.4,0.3,0.8,0.3,1.3
				c0,0.4-0.1,0.8-0.2,1.1c-0.1,0.3-0.3,0.7-0.5,0.9c0.7,0.1,1.3,0.3,1.7,0.6c0.4,0.3,0.6,0.6,0.6,1c0,0.2-0.1,0.4-0.2,0.6
				c-0.2,0.2-0.4,0.2-0.7,0.2c-0.2,0-0.5-0.1-0.6-0.2s-0.2-0.3-0.2-0.5c0-0.1,0-0.2,0.1-0.3c0-0.1,0.1-0.2,0.2-0.3
				c0.1-0.1,0.1-0.2,0.2-0.2c0-0.1,0.1-0.2,0.1-0.2c0-0.1-0.1-0.2-0.3-0.3c-0.2-0.1-0.5-0.1-0.9-0.2c-0.3,0.3-0.7,0.6-1.2,0.8
				c-0.5,0.2-1,0.3-1.6,0.3c-0.5,0-1-0.1-1.5-0.2s-0.8-0.4-1.2-0.7c-0.3-0.3-0.6-0.6-0.8-1c-0.2-0.4-0.3-0.8-0.3-1.3
				c0-0.2,0-0.5,0.1-0.7c0-0.1,0-0.2,0-0.3c0-0.1,0-0.2,0-0.3c0-0.4-0.1-0.7-0.2-0.9s-0.3-0.3-0.6-0.3c-0.2,0-0.4,0.1-0.5,0.2
				c-0.1,0.1-0.2,0.3-0.3,0.4s-0.1,0.3-0.1,0.5l-0.3,1.8c-0.1,0.6-0.2,1.1-0.3,1.6c-0.1,0.5-0.3,0.9-0.5,1.2
				c-0.2,0.3-0.4,0.6-0.7,0.8c-0.3,0.2-0.7,0.3-1.2,0.3c-0.5,0-1-0.1-1.4-0.3c-0.4-0.2-0.8-0.5-1.1-0.9c-0.3-0.4-0.5-0.8-0.7-1.3
				s-0.2-1.1-0.2-1.7c0-0.5,0.1-1.1,0.2-1.6c0.1-0.5,0.3-1,0.5-1.4c0.2-0.4,0.5-0.7,0.9-1C16.1,552.5,16.5,552.4,17,552.4z
				 M16.9,553.4c-0.8,0-1.4,0.3-1.8,0.9c-0.4,0.6-0.7,1.4-0.7,2.5c0,0.6,0.1,1.1,0.2,1.5c0.1,0.4,0.3,0.8,0.5,1.1
				c0.2,0.3,0.5,0.5,0.7,0.7s0.6,0.2,0.9,0.2c0.5,0,0.8-0.1,1.1-0.4c0.3-0.3,0.5-0.6,0.7-1.1c0.2-0.4,0.3-0.9,0.3-1.3
				s0.1-0.8,0.1-1.2c0-0.6,0-1-0.1-1.4c-0.1-0.4-0.2-0.7-0.4-0.9s-0.4-0.4-0.6-0.5S17.3,553.4,16.9,553.4z M22.5,556.8
				c0,0.3,0.1,0.6,0.2,0.8c0.2,0.2,0.4,0.5,0.6,0.6c0.3,0.2,0.6,0.3,1,0.4c0.4,0.1,0.8,0.2,1.3,0.2s0.9-0.1,1.3-0.2
				c0.4-0.1,0.8-0.3,1.2-0.4c0.3-0.2,0.6-0.4,0.8-0.7c0.2-0.3,0.3-0.6,0.3-0.9c0-0.3-0.1-0.6-0.2-0.8c-0.2-0.2-0.4-0.5-0.6-0.6
				c-0.3-0.2-0.6-0.3-1-0.4c-0.4-0.1-0.8-0.1-1.2-0.1s-0.9,0.1-1.3,0.2c-0.4,0.1-0.8,0.3-1.2,0.4c-0.3,0.2-0.6,0.4-0.8,0.7
				C22.6,556.2,22.5,556.5,22.5,556.8z"/>
			<path class="st0" d="M29.6,567.1c0,0.6-0.1,1.2-0.4,1.6c-0.2,0.5-0.6,0.8-1,1.1c-0.4,0.3-0.9,0.5-1.5,0.7s-1.2,0.2-1.9,0.2v-6.6
				c-0.2,0-0.4,0-0.6,0s-0.4,0-0.7,0c-0.8,0-1.5,0.1-2.2,0.2s-1.3,0.4-1.8,0.7c-0.5,0.3-0.9,0.6-1.2,1c-0.3,0.4-0.4,0.8-0.4,1.3
				c0,0.4,0.1,0.8,0.3,1.1c0.2,0.3,0.5,0.6,0.9,0.9c0.4,0.3,0.8,0.5,1.3,0.8c0.5,0.2,1.1,0.4,1.7,0.6l-3-0.1c-0.5-0.5-0.9-1-1.1-1.6
				c-0.2-0.6-0.4-1.1-0.4-1.7c0-0.7,0.1-1.3,0.4-1.8c0.3-0.6,0.7-1,1.2-1.4c0.5-0.4,1.1-0.7,1.9-0.9s1.5-0.3,2.4-0.3
				c0.9,0,1.7,0.1,2.4,0.3c0.7,0.2,1.4,0.5,1.9,0.8c0.5,0.4,1,0.8,1.3,1.3C29.5,565.8,29.6,566.4,29.6,567.1z M25.1,564.2v5.3
				c0.6,0,1.2-0.1,1.7-0.2s1-0.3,1.4-0.5c0.4-0.2,0.7-0.5,0.9-0.8c0.2-0.3,0.3-0.7,0.3-1.1c0-0.4-0.1-0.7-0.3-1s-0.5-0.6-0.9-0.8
				s-0.8-0.4-1.4-0.6C26.3,564.4,25.7,564.3,25.1,564.2z"/>
			<path class="st0" d="M32.3,584.2c0,0.2,0,0.5-0.1,0.7c0,0.3-0.1,0.6-0.2,0.9c-0.1,0.3-0.2,0.6-0.4,1s-0.4,0.6-0.6,1l-4.8,0.2
				c2-0.3,3.4-0.8,4.4-1.5c0.9-0.7,1.4-1.5,1.4-2.4c0-0.5-0.1-1-0.4-1.5s-0.7-0.9-1.3-1.2c-0.6-0.3-1.3-0.6-2.2-0.8
				c-0.9-0.2-1.9-0.3-3.1-0.3c-1.2,0-2.2,0.1-3.1,0.3c-0.9,0.2-1.6,0.5-2.2,0.8s-1,0.8-1.3,1.2c-0.3,0.5-0.4,1-0.4,1.5
				c0,0.3,0.1,0.7,0.2,1c0.1,0.3,0.3,0.7,0.6,1s0.7,0.6,1.1,0.9c0.5,0.3,1,0.5,1.8,0.8h-2.3c-0.5-0.4-0.9-1-1.2-1.6
				c-0.3-0.6-0.5-1.3-0.5-2.1c0-0.7,0.2-1.4,0.6-2.1c0.4-0.6,0.9-1.2,1.5-1.7c0.7-0.5,1.4-0.8,2.3-1.1s1.9-0.4,2.9-0.4
				c1,0,2,0.1,2.9,0.4c0.9,0.3,1.7,0.6,2.3,1.1c0.7,0.5,1.2,1,1.5,1.6C32.1,582.9,32.3,583.5,32.3,584.2z"/>
			<path class="st0" d="M29.6,595.1c0,0.7-0.1,1.3-0.4,1.8c-0.3,0.5-0.7,1-1.2,1.4c-0.5,0.4-1.2,0.7-1.9,0.9
				c-0.7,0.2-1.5,0.3-2.4,0.3h0c-0.9,0-1.7-0.1-2.4-0.3c-0.7-0.2-1.4-0.5-1.9-0.9c-0.5-0.4-0.9-0.9-1.2-1.4
				c-0.3-0.5-0.4-1.2-0.4-1.8s0.1-1.3,0.4-1.8c0.3-0.5,0.7-1,1.2-1.4c0.5-0.4,1.2-0.7,1.9-0.9c0.7-0.2,1.5-0.3,2.4-0.3h0
				c0.9,0,1.7,0.1,2.4,0.3c0.7,0.2,1.4,0.5,1.9,0.9c0.5,0.4,0.9,0.9,1.2,1.4C29.5,593.8,29.6,594.4,29.6,595.1z M23.6,591.9
				c-0.8,0-1.6,0.1-2.3,0.2s-1.3,0.4-1.8,0.7c-0.5,0.3-0.9,0.6-1.2,1c-0.3,0.4-0.4,0.8-0.4,1.3s0.1,0.9,0.4,1.3s0.7,0.7,1.2,1
				c0.5,0.3,1.1,0.5,1.8,0.7s1.5,0.2,2.3,0.2c0.8,0,1.6-0.1,2.3-0.2s1.3-0.4,1.8-0.7c0.5-0.3,0.9-0.6,1.2-1c0.3-0.4,0.4-0.8,0.4-1.3
				s-0.1-0.9-0.4-1.3c-0.3-0.4-0.7-0.7-1.2-1c-0.5-0.3-1.1-0.5-1.8-0.7S24.5,591.9,23.6,591.9z"/>
			<path class="st0" d="M17.8,601.7c0.1,0.2,0.1,0.3,0.2,0.4c0.1,0.1,0.2,0.2,0.3,0.2c0.1,0.1,0.3,0.1,0.5,0.1c0.2,0,0.5,0,0.7,0
				h12.2c0.4,0,0.7,0,0.9-0.1c0.2-0.1,0.4-0.2,0.5-0.3l0.2,1.5H19.6c-0.3,0-0.5,0-0.7,0c-0.2,0-0.4,0.1-0.5,0.1
				c-0.1,0.1-0.2,0.1-0.3,0.2s-0.2,0.2-0.2,0.4V601.7z"/>
			<path class="st0" d="M29.6,611.1c0,0.7-0.1,1.3-0.4,1.8c-0.3,0.5-0.7,1-1.2,1.4c-0.5,0.4-1.2,0.7-1.9,0.9
				c-0.7,0.2-1.5,0.3-2.4,0.3h0c-0.9,0-1.7-0.1-2.4-0.3c-0.7-0.2-1.4-0.5-1.9-0.9c-0.5-0.4-0.9-0.9-1.2-1.4
				c-0.3-0.5-0.4-1.2-0.4-1.8s0.1-1.3,0.4-1.8c0.3-0.5,0.7-1,1.2-1.4c0.5-0.4,1.2-0.7,1.9-0.9c0.7-0.2,1.5-0.3,2.4-0.3h0
				c0.9,0,1.7,0.1,2.4,0.3c0.7,0.2,1.4,0.5,1.9,0.9c0.5,0.4,0.9,0.9,1.2,1.4C29.5,609.8,29.6,610.4,29.6,611.1z M23.6,607.9
				c-0.8,0-1.6,0.1-2.3,0.2s-1.3,0.4-1.8,0.7c-0.5,0.3-0.9,0.6-1.2,1c-0.3,0.4-0.4,0.8-0.4,1.3s0.1,0.9,0.4,1.3s0.7,0.7,1.2,1
				c0.5,0.3,1.1,0.5,1.8,0.7s1.5,0.2,2.3,0.2c0.8,0,1.6-0.1,2.3-0.2s1.3-0.4,1.8-0.7c0.5-0.3,0.9-0.6,1.2-1c0.3-0.4,0.4-0.8,0.4-1.3
				s-0.1-0.9-0.4-1.3c-0.3-0.4-0.7-0.7-1.2-1c-0.5-0.3-1.1-0.5-1.8-0.7S24.5,607.9,23.6,607.9z"/>
			<path class="st0" d="M17.8,617.7c0.1,0.2,0.1,0.3,0.2,0.4c0.1,0.1,0.2,0.2,0.3,0.2c0.1,0.1,0.3,0.1,0.5,0.1c0.2,0,0.5,0,0.7,0
				h7.7c0.3,0,0.5,0,0.8,0s0.4,0,0.6-0.1s0.3-0.1,0.5-0.1c0.1-0.1,0.3-0.1,0.4-0.2l0.2,1.6h-2.8c0.4,0.1,0.7,0.3,1.1,0.4
				c0.3,0.2,0.6,0.3,0.9,0.5c0.2,0.2,0.4,0.4,0.6,0.7c0.1,0.3,0.2,0.6,0.2,0.9c0,0.3,0,0.6-0.1,0.9l-2,0c0.2-0.1,0.3-0.2,0.5-0.3
				c0.2-0.1,0.3-0.3,0.5-0.4s0.3-0.3,0.3-0.5s0.1-0.3,0.1-0.5c0-0.2-0.1-0.4-0.2-0.6s-0.3-0.3-0.6-0.5s-0.5-0.3-0.8-0.4
				c-0.3-0.1-0.6-0.2-1-0.3h-6.7c-0.3,0-0.5,0-0.7,0c-0.2,0-0.4,0.1-0.5,0.1c-0.1,0.1-0.2,0.1-0.3,0.2c-0.1,0.1-0.2,0.2-0.2,0.4
				V617.7z"/>
		</g>
	</g>
	<g>
		<path class="st0" d="M17.8,24.5c0.1,0.3,0.3,0.6,0.6,0.7c0.2,0.1,0.7,0.2,1.3,0.2h10.8c0.3,0,0.6,0,0.8,0c0.2,0,0.4-0.1,0.5-0.1
			s0.3-0.1,0.3-0.3c0.1-0.1,0.2-0.2,0.2-0.4v4c0,0.5-0.1,0.9-0.2,1.4s-0.4,0.9-0.7,1.3c-0.3,0.4-0.7,0.7-1.2,1
			c-0.5,0.3-1.1,0.4-1.9,0.4c-0.7,0-1.4-0.1-1.9-0.4s-1-0.6-1.3-1c-0.4-0.4-0.6-0.9-0.8-1.3c-0.2-0.5-0.3-1-0.3-1.5v-1.9h-4.3
			c-0.6,0-1,0.1-1.3,0.2c-0.2,0.1-0.4,0.3-0.6,0.7V24.5z M31.9,26.6h-7.6v1.6c0,0.4,0.1,0.8,0.2,1.2c0.1,0.4,0.4,0.7,0.7,1
			c0.3,0.3,0.7,0.5,1.2,0.7c0.5,0.2,1.1,0.3,1.8,0.3c1.2,0,2.1-0.3,2.8-0.8c0.6-0.6,1-1.3,1-2.4V26.6z"/>
		<path class="st0" d="M29.6,39.4c0,0.7-0.1,1.3-0.4,1.8c-0.3,0.5-0.7,1-1.2,1.4c-0.5,0.4-1.2,0.7-1.9,0.9c-0.7,0.2-1.5,0.3-2.4,0.3
			h0c-0.9,0-1.7-0.1-2.4-0.3c-0.7-0.2-1.4-0.5-1.9-0.9c-0.5-0.4-0.9-0.9-1.2-1.4c-0.3-0.5-0.4-1.2-0.4-1.8s0.1-1.3,0.4-1.8
			c0.3-0.5,0.7-1,1.2-1.4c0.5-0.4,1.2-0.7,1.9-0.9c0.7-0.2,1.5-0.3,2.4-0.3h0c0.9,0,1.7,0.1,2.4,0.3c0.7,0.2,1.4,0.5,1.9,0.9
			c0.5,0.4,0.9,0.9,1.2,1.4C29.5,38.2,29.6,38.8,29.6,39.4z M23.6,36.2c-0.8,0-1.6,0.1-2.3,0.2s-1.3,0.4-1.8,0.7
			c-0.5,0.3-0.9,0.6-1.2,1C18.1,38.5,18,39,18,39.4s0.1,0.9,0.4,1.3s0.7,0.7,1.2,1c0.5,0.3,1.1,0.5,1.8,0.7s1.5,0.2,2.3,0.2
			c0.8,0,1.6-0.1,2.3-0.2s1.3-0.4,1.8-0.7c0.5-0.3,0.9-0.6,1.2-1c0.3-0.4,0.4-0.8,0.4-1.3s-0.1-0.9-0.4-1.3c-0.3-0.4-0.7-0.7-1.2-1
			c-0.5-0.3-1.1-0.5-1.8-0.7S24.5,36.2,23.6,36.2z"/>
		<path class="st0" d="M17.8,46.1c0.1,0.2,0.1,0.3,0.2,0.4c0.1,0.1,0.2,0.2,0.3,0.2c0.1,0.1,0.3,0.1,0.5,0.1c0.2,0,0.5,0,0.7,0h7.7
			c0.3,0,0.5,0,0.8,0s0.4,0,0.6-0.1s0.3-0.1,0.5-0.1c0.1-0.1,0.3-0.1,0.4-0.2l0.2,1.6H19.6c-0.3,0-0.5,0-0.7,0
			c-0.2,0-0.4,0.1-0.5,0.1c-0.1,0.1-0.2,0.1-0.3,0.2c-0.1,0.1-0.2,0.2-0.2,0.4V46.1z M33.2,47.4c0,0.2-0.1,0.4-0.3,0.6
			c-0.2,0.2-0.4,0.2-0.8,0.2s-0.6-0.1-0.8-0.2c-0.2-0.2-0.3-0.4-0.3-0.6c0-0.2,0.1-0.4,0.3-0.6c0.2-0.2,0.5-0.2,0.8-0.2
			s0.6,0.1,0.8,0.2C33.1,47,33.2,47.2,33.2,47.4z"/>
		<path class="st0" d="M17.8,50.9c0.1,0.2,0.1,0.3,0.2,0.4c0.1,0.1,0.2,0.2,0.3,0.2c0.1,0.1,0.3,0.1,0.5,0.1c0.2,0,0.5,0,0.7,0h7.7
			c0.3,0,0.5,0,0.8,0s0.4,0,0.6-0.1s0.3-0.1,0.5-0.1c0.1-0.1,0.3-0.1,0.4-0.2l0.2,1.6h-3.3c1,0.3,1.8,0.7,2.4,1.2s0.9,1.3,0.9,2.2
			c0,0.5-0.1,0.9-0.3,1.3c-0.2,0.4-0.5,0.7-0.8,1c-0.3,0.3-0.8,0.5-1.2,0.6c-0.5,0.1-1,0.2-1.6,0.2h-6.1c-0.3,0-0.5,0-0.7,0
			c-0.2,0-0.4,0.1-0.5,0.1c-0.1,0.1-0.2,0.1-0.3,0.2c-0.1,0.1-0.2,0.2-0.2,0.4v-2.8c0.1,0.2,0.1,0.3,0.2,0.4
			c0.1,0.1,0.2,0.2,0.3,0.2c0.1,0.1,0.3,0.1,0.5,0.1s0.5,0,0.7,0h6.4c1,0,1.9-0.2,2.4-0.6c0.6-0.4,0.9-0.9,0.9-1.6
			c0-0.4-0.1-0.8-0.3-1.2c-0.2-0.4-0.5-0.7-0.9-1c-0.4-0.3-0.9-0.5-1.4-0.7c-0.6-0.2-1.2-0.3-2-0.3h-5.1c-0.3,0-0.5,0-0.7,0
			c-0.2,0-0.4,0.1-0.5,0.1c-0.1,0.1-0.2,0.1-0.3,0.2c-0.1,0.1-0.2,0.2-0.2,0.4V50.9z"/>
		<path class="st0" d="M29.5,63.8l2.9,1.1h-2.9v2.6h-0.2v-2.6h-8.9c-0.5,0-0.8,0-1.1,0.1c-0.3,0-0.5,0.1-0.7,0.2s-0.3,0.2-0.4,0.3
			S18,65.7,18,65.9c0,0.3,0.1,0.6,0.3,0.8c0.2,0.2,0.6,0.4,1,0.6l-0.2,0.2c-0.4-0.2-0.8-0.4-1-0.7c-0.3-0.2-0.4-0.6-0.4-1.1
			c0-0.7,0.3-1.2,0.8-1.5c0.6-0.3,1.4-0.4,2.4-0.4h8.4v-1.5h0.2V63.8z"/>
		<path class="st0" d="M25,75.5c1.1,0,2.1,0.1,3,0.3c0.9,0.2,1.7,0.5,2.3,0.8c0.6,0.3,1.1,0.8,1.5,1.3c0.4,0.5,0.5,1,0.5,1.6
			c0,0.6-0.2,1.1-0.5,1.6c-0.4,0.5-0.8,0.9-1.5,1.3c-0.6,0.3-1.4,0.6-2.3,0.8c-0.9,0.2-1.9,0.3-3,0.3c-1.1,0-2.1-0.1-3-0.3
			c-0.9-0.2-1.7-0.5-2.3-0.8c-0.6-0.3-1.1-0.8-1.5-1.3s-0.5-1-0.5-1.6c0-0.6,0.2-1.1,0.5-1.6c0.4-0.5,0.8-0.9,1.5-1.3
			s1.4-0.6,2.3-0.8C22.9,75.6,23.9,75.5,25,75.5z M25,76.8c-2.2,0-3.9,0.2-5.2,0.7s-1.9,1.1-1.9,2c0,0.9,0.6,1.5,1.9,2
			s3,0.7,5.2,0.7c2.2,0,3.9-0.2,5.2-0.7s1.9-1.1,1.9-2c0-0.9-0.6-1.5-1.9-2S27.2,76.8,25,76.8z"/>
		<path class="st0" d="M17.9,86.1c1.2,0.9,2.3,1.7,3.3,2.3s1.9,1.2,2.8,1.6c0.9,0.4,1.7,0.7,2.4,0.9s1.5,0.3,2.2,0.3
			c1.1,0,1.9-0.2,2.4-0.5c0.6-0.4,0.9-0.8,0.9-1.4c0-0.2-0.1-0.5-0.2-0.8c-0.1-0.3-0.4-0.6-0.8-0.8c-0.4-0.3-0.9-0.5-1.5-0.8
			c-0.6-0.2-1.5-0.4-2.5-0.6l4.1,0.2c0.4,0.5,0.7,0.9,0.9,1.4s0.3,1,0.3,1.6c0,1-0.3,1.8-0.9,2.3c-0.6,0.5-1.3,0.8-2.2,0.8
			c-0.6,0-1.2-0.1-1.9-0.4s-1.5-0.6-2.3-1.1c-0.8-0.5-1.7-1-2.7-1.7c-1-0.7-2-1.4-3.2-2.3v3.4c0,0.4,0,0.7,0.1,1
			c0,0.3,0.1,0.5,0.2,0.7c0.1,0.2,0.3,0.3,0.5,0.5c0.2,0.1,0.5,0.2,0.9,0.3L17.8,93v-6.8L17.9,86.1z"/>
	</g>
</g>
</svg>
