<?xml version="1.0" encoding="utf-8"?>
<!-- Generator: Adobe Illustrator 25.4.1, SVG Export Plug-In . SVG Version: 6.00 Build 0)  -->
<svg version="1.1" id="レイヤー_1" xmlns="http://www.w3.org/2000/svg" xmlns:xlink="http://www.w3.org/1999/xlink" x="0px"
	 y="0px" viewBox="0 0 115 118" style="enable-background:new 0 0 115 118;" xml:space="preserve">
<style type="text/css">
	.st0{fill:#F9F7EE;stroke:#F9F7EE;stroke-width:0.25;stroke-miterlimit:10;}
</style>
<g>
	<path class="st0" d="M53.1,0.1c-0.1,0-0.2,0.1-0.3,0.2c-0.1,0.1-0.2,0.2-0.2,0.4c0,0.2,0,0.4,0,0.7c0,0.3,0.1,0.6,0.3,1l5,12.7
		l5.4-12.4c0.2-0.4,0.3-0.8,0.4-1.1c0.1-0.3,0.1-0.5,0.1-0.7c0-0.2-0.1-0.3-0.1-0.4c-0.1-0.1-0.2-0.2-0.3-0.2l2.2,0
		c-0.1,0-0.2,0.1-0.4,0.2c-0.1,0.1-0.3,0.3-0.5,0.5c-0.2,0.2-0.4,0.6-0.6,1c-0.2,0.4-0.5,1-0.9,1.8l-5.9,13.6l-0.1,0L50.7,1.8
		c-0.2-0.6-0.5-1-0.7-1.3c-0.2-0.2-0.4-0.4-0.7-0.5L53.1,0.1z"/>
	<path class="st0" d="M75.2,6.6c0.9,0.3,1.7,0.8,2.3,1.3s1,1.1,1.3,1.7s0.4,1.3,0.4,2.1c0,0.7-0.1,1.5-0.4,2.3L69,10.5
		c-0.1,0.2-0.2,0.5-0.3,0.7s-0.2,0.5-0.3,0.7c-0.3,0.9-0.5,1.8-0.5,2.6c0,0.9,0.1,1.6,0.3,2.4c0.2,0.7,0.6,1.3,1.1,1.9
		s1.1,0.9,1.8,1.2c0.6,0.2,1.2,0.3,1.8,0.3c0.6,0,1.2-0.2,1.7-0.5c0.6-0.3,1.1-0.6,1.7-1.1s1.1-1,1.6-1.6l-1.4,3.3
		c-0.9,0.3-1.8,0.5-2.8,0.4c-1,0-1.9-0.2-2.7-0.5c-1-0.4-1.8-0.8-2.5-1.5c-0.7-0.6-1.3-1.3-1.7-2.1C66.2,15.9,66,15,66,14.1
		s0.1-1.9,0.5-2.9c0.4-1,0.8-1.8,1.4-2.6c0.6-0.7,1.3-1.3,2-1.7c0.8-0.4,1.6-0.6,2.5-0.7C73.3,6.1,74.2,6.3,75.2,6.6z M69.1,10.2
		l8,2.9c0.2-0.7,0.4-1.4,0.4-2c0-0.6,0-1.2-0.2-1.8c-0.2-0.5-0.4-1-0.8-1.4c-0.4-0.4-0.9-0.7-1.5-0.9c-0.6-0.2-1.1-0.3-1.7-0.2
		c-0.6,0.1-1.1,0.2-1.6,0.5c-0.5,0.3-1,0.7-1.5,1.2C69.9,9,69.5,9.5,69.1,10.2z"/>
	<path class="st0" d="M76,22.9c0.5-0.6,1.2-0.9,2.1-0.7c0.9,0.2,2.1,0.7,3.5,1.8c-0.9-0.8-1.4-1.5-1.5-2.2s0-1.1,0.3-1.6
		c0.2-0.2,0.4-0.4,0.7-0.5s0.5-0.1,0.8-0.1s0.6,0.1,0.9,0.3s0.6,0.3,0.8,0.5l0.3,0.2C83.2,19.8,83,18.9,83,18c0-0.9,0.3-1.7,0.9-2.4
		c0.4-0.5,0.9-0.9,1.4-1.1c0.5-0.3,1.1-0.4,1.7-0.4s1.2,0.1,1.9,0.3c0.6,0.2,1.2,0.6,1.8,1.1c0.5,0.4,0.9,0.8,1.3,1.3
		c0.3,0.5,0.6,0.9,0.8,1.4c0.6-0.6,1.3-1,2-1.1c0.7-0.1,1.3,0.1,1.7,0.4c0.3,0.2,0.5,0.5,0.6,0.8s0,0.6-0.2,0.8
		c-0.2,0.2-0.4,0.4-0.7,0.4c-0.3,0-0.6-0.1-0.8-0.3c-0.1-0.1-0.3-0.2-0.3-0.4c-0.1-0.1-0.1-0.3-0.2-0.4c-0.1-0.1-0.1-0.3-0.2-0.4
		c-0.1-0.1-0.1-0.2-0.2-0.3c-0.2-0.1-0.4-0.2-0.6-0.1c-0.2,0.1-0.5,0.3-0.9,0.7c0.2,0.6,0.2,1.3,0.1,1.9c-0.1,0.6-0.4,1.2-0.8,1.8
		c-0.4,0.5-0.9,0.9-1.4,1.2c-0.5,0.3-1.1,0.4-1.7,0.4s-1.2-0.1-1.9-0.3c-0.6-0.2-1.2-0.6-1.8-1.1c-0.3-0.2-0.5-0.5-0.8-0.7
		c-0.1-0.1-0.3-0.3-0.4-0.4c-0.1-0.1-0.2-0.2-0.3-0.3c-0.5-0.4-0.9-0.6-1.3-0.7c-0.4-0.1-0.7,0-0.9,0.2c-0.2,0.2-0.2,0.4-0.1,0.7
		s0.2,0.5,0.3,0.7c0.1,0.2,0.3,0.4,0.5,0.6l2.1,2.1c0.7,0.7,1.3,1.3,1.8,1.9c0.5,0.6,0.9,1.1,1.2,1.6c0.3,0.5,0.4,1,0.4,1.5
		c0,0.5-0.2,0.9-0.6,1.4c-0.4,0.5-0.9,0.8-1.4,1c-0.6,0.2-1.2,0.2-1.9,0.1c-0.7-0.1-1.4-0.3-2.2-0.7c-0.8-0.4-1.6-0.9-2.4-1.5
		c-0.7-0.5-1.3-1.1-1.9-1.7c-0.6-0.6-1-1.3-1.3-1.9c-0.3-0.6-0.5-1.2-0.6-1.8C75.5,23.8,75.6,23.3,76,22.9z M77.1,23.9
		c-0.6,0.7-0.7,1.6-0.2,2.6c0.4,1,1.3,2,2.6,3.1c0.7,0.6,1.4,1,2,1.3c0.6,0.3,1.2,0.5,1.8,0.6c0.5,0.1,1,0.1,1.4,0s0.7-0.3,1-0.6
		c0.4-0.4,0.5-0.9,0.3-1.5s-0.4-1.1-0.8-1.7c-0.4-0.6-0.9-1.1-1.4-1.6c-0.5-0.5-1-0.9-1.4-1.2c-0.7-0.6-1.3-1-1.9-1.3
		c-0.5-0.3-1-0.5-1.4-0.5c-0.4-0.1-0.8,0-1.1,0.1C77.7,23.4,77.4,23.6,77.1,23.9z M85.6,22.1c0.4,0.3,0.8,0.5,1.2,0.6
		c0.4,0.1,0.9,0.1,1.3,0s0.9-0.2,1.3-0.5c0.4-0.3,0.8-0.6,1.1-1c0.3-0.4,0.6-0.9,0.8-1.4c0.2-0.5,0.3-1,0.3-1.5c0-0.5-0.1-1-0.3-1.5
		s-0.5-0.9-0.9-1.2c-0.4-0.3-0.8-0.5-1.2-0.6c-0.4-0.1-0.9-0.1-1.3,0c-0.4,0.1-0.9,0.2-1.3,0.5c-0.4,0.3-0.8,0.6-1.1,1
		c-0.3,0.4-0.6,0.9-0.8,1.4s-0.3,1-0.3,1.5c0,0.5,0.1,1,0.3,1.5C84.9,21.3,85.2,21.7,85.6,22.1z"/>
	<path class="st0" d="M97.4,32.1l2.1,1.9l1.5-1c1-0.7,1.7-1.4,1.9-2.1c0.2-0.7,0.1-1.5-0.5-2.3c-0.3-0.4-0.6-0.7-1-1.1
		c-0.4-0.3-0.9-0.5-1.5-0.7c-0.6-0.1-1.2-0.1-2-0.1c-0.8,0.1-1.7,0.3-2.7,0.7l3.4-2.4c0.7,0.2,1.5,0.7,2.2,1.3
		c0.7,0.6,1.4,1.3,1.9,2.1c0.8,1.2,1.2,2.4,1.1,3.5c-0.1,1.1-0.7,2-1.8,2.8L95.3,39c-0.4,0.3-0.7,0.5-1,0.8s-0.4,0.6-0.5,0.9l-1.4-2
		l2.7-1.8c-0.4,0.1-0.9,0.1-1.4,0.1c-0.5,0-0.9-0.1-1.4-0.2c-0.5-0.1-0.9-0.4-1.4-0.7c-0.4-0.3-0.8-0.8-1.2-1.3
		c-0.3-0.5-0.6-1-0.8-1.5s-0.3-1-0.2-1.5c0-0.5,0.1-0.9,0.4-1.3c0.2-0.4,0.6-0.8,1-1.1c0.6-0.4,1.3-0.6,1.9-0.5
		c0.7,0.1,1.3,0.2,1.9,0.6c0.6,0.3,1.2,0.7,1.8,1.2S96.9,31.7,97.4,32.1z M91.4,31.2c-0.7,0.5-1.2,1-1.4,1.7
		c-0.2,0.7-0.1,1.4,0.4,2.1c0.3,0.4,0.6,0.7,1,1c0.4,0.3,0.9,0.5,1.5,0.6c0.5,0.1,1.1,0.1,1.8,0c0.6-0.1,1.3-0.3,1.9-0.7l2.6-1.7
		l-2-1.9c-0.3-0.2-0.6-0.5-1-0.8c-0.4-0.3-0.8-0.5-1.3-0.7c-0.5-0.2-1-0.3-1.6-0.2C92.6,30.6,92,30.8,91.4,31.2z"/>
	<path class="st0" d="M94.6,41.7c0.1,0.2,0.3,0.4,0.4,0.6c0.1,0.1,0.3,0.2,0.5,0.3c0.2,0.1,0.4,0.1,0.6,0c0.2,0,0.5-0.1,0.9-0.2
		l8.9-2.2c0.3-0.1,0.6-0.2,0.9-0.3c0.2-0.1,0.5-0.2,0.6-0.3c0.2-0.1,0.3-0.2,0.5-0.3c0.1-0.1,0.3-0.3,0.4-0.4l0.8,2.4l-3.8,1
		c1.3,0.1,2.4,0.5,3.3,1.2c0.9,0.7,1.5,1.8,1.9,3.1c0.2,0.8,0.3,1.5,0.2,2.1c-0.1,0.6-0.3,1.2-0.6,1.7s-0.7,0.9-1.2,1.3
		s-1.1,0.6-1.7,0.8l-7.1,1.8c-0.3,0.1-0.6,0.2-0.8,0.3c-0.2,0.1-0.4,0.2-0.5,0.4s-0.2,0.3-0.3,0.5c-0.1,0.2-0.1,0.4-0.1,0.7
		l-1.1-4.3c0.1,0.2,0.3,0.4,0.4,0.6s0.3,0.2,0.5,0.3c0.2,0.1,0.4,0.1,0.6,0c0.2,0,0.5-0.1,0.9-0.2l7.4-1.8c1.2-0.3,2.1-0.8,2.6-1.6
		c0.5-0.8,0.7-1.7,0.4-2.8c-0.2-0.6-0.4-1.2-0.8-1.7c-0.4-0.5-0.9-1-1.4-1.3c-0.6-0.3-1.2-0.6-1.9-0.7c-0.7-0.1-1.5-0.1-2.4,0.1
		l-5.9,1.5c-0.3,0.1-0.6,0.2-0.8,0.3c-0.2,0.1-0.4,0.2-0.5,0.4c-0.1,0.1-0.2,0.3-0.3,0.5c-0.1,0.2-0.1,0.4-0.1,0.7L94.6,41.7z"/>
	<path class="st0" d="M113.4,73.4c0-0.1,0-0.2-0.1-0.4c-0.1-0.1-0.2-0.2-0.3-0.3c-0.2-0.1-0.4-0.2-0.6-0.2c-0.3,0-0.6-0.1-1.1,0
		l-13.6,1.1l10.3,8.8c0.4,0.3,0.7,0.5,0.9,0.7s0.5,0.2,0.6,0.3c0.2,0,0.3,0,0.4,0c0.1,0,0.2-0.1,0.3-0.2l-0.7,2.1
		c0-0.1,0-0.3-0.1-0.4c0-0.1-0.2-0.3-0.3-0.6c-0.2-0.2-0.4-0.5-0.8-0.9s-0.8-0.8-1.5-1.4l-11.3-9.7l0-0.1l16.9-1.4
		c0.6,0,1.1-0.1,1.4-0.3c0.3-0.1,0.5-0.3,0.6-0.5L113.4,73.4z"/>
	<path class="st0" d="M91.9,80.2c-0.1,0.3-0.1,0.5-0.1,0.7c0,0.2,0,0.4,0.1,0.5c0.1,0.2,0.2,0.3,0.4,0.5c0.2,0.2,0.4,0.3,0.7,0.5
		l7.6,5.1c0.3,0.2,0.5,0.4,0.8,0.5s0.4,0.2,0.6,0.3s0.4,0.1,0.6,0.1c0.2,0,0.4,0,0.6,0l-1.2,2.2L92,84c-0.3-0.2-0.5-0.3-0.8-0.4
		c-0.2-0.1-0.4-0.2-0.6-0.2c-0.2,0-0.4,0-0.6,0.1c-0.2,0.1-0.4,0.2-0.6,0.4L91.9,80.2z M106.1,92.3c-0.2,0.3-0.5,0.5-0.8,0.6
		c-0.3,0.1-0.6,0-1-0.2c-0.3-0.2-0.5-0.5-0.6-0.8c-0.1-0.3,0-0.7,0.2-1c0.2-0.3,0.5-0.5,0.8-0.6c0.3-0.1,0.7,0,1,0.2
		s0.5,0.5,0.5,0.8C106.4,91.7,106.3,92,106.1,92.3z"/>
	<path class="st0" d="M97.4,96.3l1.3,3.6l-2.5-2.4l-2.8,2.9l-0.2-0.2l2.8-2.9L88.3,90c-0.4-0.4-0.8-0.7-1.1-0.9s-0.6-0.3-0.8-0.4
		c-0.2-0.1-0.5,0-0.7,0.1c-0.2,0.1-0.4,0.2-0.6,0.4c-0.3,0.3-0.5,0.7-0.5,1.2s0,0.9,0.2,1.5l-0.4,0.1c-0.2-0.6-0.2-1.2-0.2-1.7
		s0.3-1,0.8-1.5c0.8-0.8,1.6-1.2,2.4-1.1c0.8,0.1,1.7,0.6,2.5,1.5l7.2,6.9l1.7-1.8l0.2,0.2L97.4,96.3z"/>
	<path class="st0" d="M81.2,101.4l-2,2l0.9,1.5c0.6,1.1,1.3,1.7,2,2c0.7,0.3,1.5,0.1,2.4-0.4c0.4-0.2,0.8-0.6,1.1-0.9
		c0.3-0.4,0.6-0.9,0.7-1.4c0.2-0.6,0.2-1.2,0.1-2c-0.1-0.8-0.3-1.7-0.6-2.7l2.3,3.5c-0.3,0.7-0.7,1.4-1.4,2.1
		c-0.6,0.7-1.3,1.3-2.2,1.8c-1.3,0.8-2.4,1.1-3.5,0.9c-1.1-0.2-2-0.8-2.7-2l-4.1-6.8c-0.2-0.4-0.5-0.7-0.8-1
		c-0.3-0.3-0.6-0.4-0.9-0.5l2.1-1.3l1.7,2.8c-0.1-0.4-0.1-0.9-0.1-1.4c0-0.5,0.1-0.9,0.3-1.4c0.2-0.5,0.4-0.9,0.8-1.3
		c0.3-0.4,0.8-0.8,1.4-1.1c0.5-0.3,1-0.5,1.5-0.7c0.5-0.2,1-0.2,1.5-0.2c0.5,0,0.9,0.2,1.3,0.4c0.4,0.2,0.7,0.6,1,1.1
		c0.4,0.6,0.5,1.3,0.5,1.9s-0.3,1.3-0.6,1.9s-0.8,1.2-1.3,1.7C82.1,100.5,81.6,101,81.2,101.4z M82.3,95.5c-0.4-0.7-1-1.2-1.7-1.4
		c-0.7-0.2-1.4-0.1-2.1,0.3c-0.4,0.2-0.8,0.6-1.1,1c-0.3,0.4-0.5,0.9-0.7,1.4c-0.1,0.5-0.2,1.1-0.1,1.8c0.1,0.6,0.3,1.3,0.7,2
		l1.6,2.6l2-2c0.3-0.3,0.5-0.6,0.9-1c0.3-0.4,0.6-0.8,0.8-1.3c0.2-0.5,0.3-1,0.3-1.6C82.9,96.8,82.7,96.1,82.3,95.5z"/>
	<path class="st0" d="M63.9,102.1l-0.2,4.6c-0.3-2-0.9-3.5-1.9-4.5c-1-1-2.3-1.5-4-1.4c-0.7,0-1.3,0.2-1.8,0.4
		c-0.5,0.2-1,0.5-1.3,0.9c-0.3,0.4-0.6,0.8-0.8,1.2c-0.2,0.5-0.2,0.9-0.2,1.4c0,0.6,0.2,1.2,0.5,1.6c0.3,0.4,0.6,0.8,1,1.1
		s0.8,0.5,1.2,0.7s0.7,0.3,1,0.4l2.5,0.8c0.3,0.1,0.7,0.2,1.2,0.4c0.5,0.2,0.9,0.4,1.3,0.8c0.4,0.3,0.8,0.7,1.1,1.2
		c0.3,0.5,0.5,1.1,0.5,1.9c0,0.6-0.1,1.2-0.2,1.7c-0.2,0.5-0.5,1-0.9,1.4c-0.4,0.4-0.9,0.8-1.5,1c-0.6,0.3-1.4,0.4-2.2,0.4
		c-0.8,0-1.6,0-2.5-0.2s-1.8-0.5-2.5-0.9l-0.4-4.7c0.4,1.8,1,3.2,1.9,4.2c0.9,1,2.1,1.4,3.5,1.3c0.6,0,1.1-0.1,1.6-0.3
		c0.5-0.2,0.9-0.4,1.2-0.7s0.6-0.7,0.8-1.1c0.2-0.4,0.3-0.8,0.2-1.3c0-0.5-0.2-0.9-0.4-1.3c-0.3-0.4-0.6-0.7-0.9-0.9
		c-0.4-0.2-0.7-0.4-1.1-0.6c-0.4-0.1-0.7-0.3-1-0.4l-2.6-0.9c-1.3-0.4-2.3-1-3.1-1.7c-0.8-0.7-1.2-1.7-1.3-2.9c0-0.7,0.1-1.3,0.3-2
		c0.2-0.6,0.6-1.1,1-1.6c0.5-0.5,1-0.8,1.7-1.1c0.7-0.3,1.5-0.5,2.3-0.5c1.2-0.1,2.3,0.1,3.4,0.3C62.3,101,63.2,101.4,63.9,102.1z"
		/>
	<path class="st0" d="M46.7,114.1l-2.5-0.5l2.8-9.7c0.2-0.7,0.3-1.3,0.3-1.8c0-0.5-0.1-1-0.3-1.3c-0.2-0.4-0.4-0.7-0.8-0.9
		c-0.3-0.2-0.7-0.4-1.2-0.5c-0.7-0.2-1.4-0.2-2-0.1c-0.6,0.2-1.2,0.5-1.7,0.9c-0.5,0.4-0.9,0.9-1.3,1.5s-0.7,1.1-0.8,1.7l-1.6,5.4
		c-0.1,0.3-0.2,0.6-0.2,0.9s-0.1,0.5-0.1,0.7s0,0.4,0,0.6c0,0.2,0.1,0.4,0.2,0.6l-2.5-0.5l3.3-11.3c0.2-0.7,0.3-1.2,0.3-1.6
		c0-0.4-0.1-0.7-0.3-1l2.4,0.6l-1,3.6c0.4-0.5,0.8-0.9,1.2-1.3c0.4-0.4,0.8-0.7,1.3-0.9c0.5-0.2,1-0.3,1.5-0.4s1.1,0.1,1.8,0.2
		c1.4,0.4,2.4,1.1,3,2c0.6,0.9,0.7,2.1,0.3,3.5l-2,6.8c-0.1,0.3-0.2,0.6-0.2,0.9c0,0.3-0.1,0.5-0.1,0.7s0,0.4,0,0.6
		C46.6,113.7,46.6,113.9,46.7,114.1z"/>
	<path class="st0" d="M37.3,96.8c-0.3-0.1-0.5-0.1-0.7-0.2s-0.4,0-0.5,0.1c-0.2,0.1-0.3,0.2-0.5,0.4c-0.2,0.2-0.4,0.4-0.6,0.7
		l-5.5,7.4c-0.2,0.3-0.4,0.5-0.5,0.8c-0.1,0.2-0.2,0.4-0.3,0.6c-0.1,0.2-0.1,0.4-0.2,0.6s0,0.4,0,0.6l-2.2-1.3l2.4-3.2
		c-1.1,0.7-2.2,1.1-3.3,1.1c-1.2,0-2.3-0.4-3.4-1.2c-0.6-0.5-1.1-1-1.5-1.5c-0.4-0.5-0.6-1.1-0.7-1.7c-0.1-0.6-0.1-1.2,0.1-1.8
		c0.2-0.6,0.4-1.2,0.9-1.7l4.4-5.9c0.2-0.3,0.4-0.5,0.5-0.7s0.2-0.4,0.2-0.6c0-0.2,0-0.4-0.1-0.6c-0.1-0.2-0.2-0.4-0.3-0.6l3.6,2.6
		c-0.3-0.1-0.5-0.1-0.7-0.2s-0.4,0-0.5,0.1s-0.3,0.2-0.5,0.4c-0.2,0.2-0.4,0.4-0.6,0.7L22,97.6c-0.7,1-1.1,2-1,2.9
		c0.1,0.9,0.5,1.7,1.5,2.4c0.5,0.4,1.1,0.7,1.7,0.8c0.6,0.2,1.3,0.2,1.9,0.1c0.7-0.1,1.3-0.3,1.9-0.7c0.6-0.4,1.2-0.9,1.8-1.6
		l3.7-4.9c0.2-0.3,0.4-0.5,0.5-0.7s0.2-0.4,0.2-0.6c0-0.2,0-0.4-0.1-0.6c-0.1-0.2-0.2-0.4-0.3-0.6L37.3,96.8z"/>
	<path class="st0" d="M18.5,81.4l-4.4,1.5c1.7-1,2.9-2.1,3.5-3.4c0.6-1.3,0.6-2.7,0-4.2c-0.3-0.6-0.6-1.1-1-1.5
		c-0.4-0.4-0.8-0.7-1.3-0.9c-0.5-0.2-0.9-0.3-1.4-0.3c-0.5,0-1,0.1-1.4,0.3c-0.6,0.2-1,0.6-1.3,1c-0.3,0.4-0.5,0.8-0.6,1.3
		s-0.2,0.9-0.2,1.3c0,0.4,0,0.8,0,1l0.1,2.6c0,0.3,0,0.8,0,1.2c0,0.5-0.1,1-0.3,1.5s-0.4,1-0.8,1.5s-0.9,0.9-1.6,1.2
		c-0.5,0.2-1.1,0.4-1.7,0.4s-1.1-0.1-1.7-0.3c-0.5-0.2-1-0.6-1.5-1.1c-0.5-0.5-0.8-1.1-1.2-1.9c-0.3-0.7-0.5-1.5-0.7-2.5
		c-0.2-0.9-0.2-1.8,0-2.7l4.3-2c-1.6,1-2.6,2.1-3.2,3.2c-0.6,1.2-0.6,2.4,0,3.8c0.2,0.5,0.5,1,0.9,1.4c0.3,0.4,0.7,0.7,1.1,0.9
		s0.8,0.3,1.3,0.4c0.4,0,0.9,0,1.3-0.2c0.5-0.2,0.8-0.5,1.1-0.9c0.2-0.4,0.4-0.8,0.5-1.2c0.1-0.4,0.2-0.8,0.2-1.3c0-0.4,0-0.8,0-1.1
		l-0.1-2.7c-0.1-1.3,0.1-2.5,0.5-3.5s1.2-1.7,2.3-2.2c0.6-0.3,1.3-0.4,1.9-0.4s1.3,0.1,1.9,0.4c0.6,0.3,1.1,0.7,1.7,1.2
		c0.5,0.5,0.9,1.2,1.3,2c0.5,1.1,0.7,2.2,0.9,3.3S18.9,80.5,18.5,81.4z"/>
	<path class="st0" d="M0.5,62.9c-0.1-1,0-1.9,0.2-2.6c0.2-0.8,0.6-1.4,1.1-1.9c0.5-0.5,1.1-0.9,1.7-1.2s1.4-0.5,2.3-0.6L6.6,67
		c0.3,0,0.5,0,0.8,0c0.3,0,0.5,0,0.8,0c0.9-0.1,1.8-0.3,2.6-0.6c0.8-0.3,1.5-0.7,2-1.2c0.6-0.5,1-1.1,1.3-1.7
		c0.3-0.7,0.4-1.4,0.4-2.1c0-0.7-0.2-1.3-0.5-1.8c-0.3-0.5-0.7-1-1.1-1.4c-0.5-0.4-1-0.8-1.7-1.1c-0.6-0.3-1.4-0.6-2.1-0.8l3.6,0
		c0.7,0.7,1.2,1.5,1.5,2.4c0.4,0.9,0.6,1.8,0.6,2.7c0.1,1,0,2-0.3,2.9c-0.3,0.9-0.7,1.7-1.3,2.4c-0.6,0.7-1.3,1.2-2.1,1.6
		c-0.9,0.4-1.8,0.7-2.9,0.7c-1,0.1-2,0-2.9-0.2c-0.9-0.2-1.7-0.6-2.4-1.2c-0.7-0.5-1.2-1.2-1.7-2C0.8,64.8,0.6,63.9,0.5,62.9z
		 M6.3,67l-0.6-8.5c-0.7,0.1-1.4,0.2-2,0.4c-0.6,0.2-1.1,0.5-1.6,0.9c-0.4,0.4-0.8,0.8-1,1.3c-0.2,0.5-0.3,1.1-0.3,1.7
		c0,0.6,0.2,1.1,0.5,1.6c0.3,0.5,0.7,0.9,1.2,1.3s1,0.6,1.7,0.9C4.8,66.8,5.5,66.9,6.3,67z"/>
	<path class="st0" d="M14.6,54.5c0-0.3-0.1-0.5-0.1-0.7s-0.2-0.3-0.3-0.5c-0.1-0.1-0.3-0.2-0.6-0.3c-0.2-0.1-0.5-0.2-0.9-0.2l-9-1.9
		c-0.3-0.1-0.6-0.1-0.9-0.2c-0.3,0-0.5,0-0.7,0s-0.4,0-0.6,0.1C1.4,50.9,1.2,51,1,51.1l0.3-2.5l3.3,0.7c-0.4-0.3-0.8-0.6-1.1-0.9
		c-0.3-0.3-0.6-0.7-0.8-1.1c-0.2-0.4-0.4-0.8-0.4-1.3c-0.1-0.5,0-1,0.1-1.5c0.1-0.5,0.3-1,0.5-1.4L5,43.6c-0.2,0.1-0.4,0.2-0.7,0.4
		c-0.2,0.2-0.5,0.3-0.7,0.5c-0.2,0.2-0.4,0.4-0.6,0.6c-0.2,0.2-0.3,0.5-0.3,0.7c-0.1,0.3,0,0.6,0.1,1c0.1,0.3,0.3,0.6,0.5,0.9
		c0.2,0.3,0.5,0.6,0.8,0.8c0.3,0.3,0.7,0.5,1,0.8l7.9,1.7c0.3,0.1,0.6,0.1,0.9,0.1c0.2,0,0.5,0,0.6-0.1c0.2-0.1,0.3-0.2,0.5-0.3
		c0.1-0.1,0.3-0.3,0.4-0.6L14.6,54.5z"/>
	<path class="st0" d="M4.2,38.1l1-2.3l8.9,4.8c0.6,0.3,1.2,0.6,1.7,0.7c0.5,0.1,1,0.1,1.4,0c0.4-0.1,0.8-0.3,1.1-0.6
		c0.3-0.3,0.6-0.6,0.8-1c0.4-0.7,0.5-1.3,0.5-1.9c0-0.6-0.2-1.3-0.5-1.8c-0.3-0.6-0.7-1.1-1.1-1.6s-1-0.9-1.5-1.2l-4.9-2.7
		c-0.3-0.2-0.6-0.3-0.8-0.4c-0.2-0.1-0.5-0.2-0.7-0.2c-0.2-0.1-0.4-0.1-0.6-0.1s-0.4,0-0.6,0.1l1-2.3l10.3,5.6
		c0.6,0.3,1.1,0.6,1.5,0.6s0.7,0,1,0l-1.1,2.2L18.2,34c0.4,0.5,0.7,1,1,1.5c0.3,0.5,0.5,1,0.6,1.5c0.1,0.5,0.1,1,0,1.5
		c-0.1,0.5-0.3,1.1-0.6,1.7c-0.7,1.3-1.5,2.1-2.6,2.5c-1,0.4-2.2,0.2-3.5-0.5l-6.3-3.4c-0.3-0.2-0.6-0.3-0.8-0.4
		c-0.2-0.1-0.5-0.2-0.7-0.2c-0.2-0.1-0.4-0.1-0.6-0.1S4.5,38.1,4.2,38.1z"/>
	<path class="st0" d="M22,29.5L16.8,22c-0.2-0.3-0.4-0.5-0.6-0.7s-0.3-0.4-0.5-0.5c-0.2-0.1-0.3-0.2-0.5-0.3
		c-0.2-0.1-0.4-0.2-0.6-0.2l2-1.6l2.3,3.2c-0.4-1.2-0.4-2.4-0.1-3.5c0.3-1.1,1-2,2.1-2.7c1.2-0.8,2.3-1.2,3.4-1.1
		c1.1,0.1,2.1,0.6,2.9,1.5c-0.4-1.2-0.4-2.4-0.1-3.5s1-2,2.1-2.8c0.6-0.4,1.3-0.8,1.9-0.9c0.6-0.2,1.2-0.2,1.8-0.1
		c0.6,0.1,1.1,0.3,1.6,0.7c0.5,0.3,1,0.8,1.4,1.3l4.2,6c0.2,0.3,0.4,0.5,0.6,0.7c0.2,0.2,0.3,0.3,0.5,0.4c0.2,0.1,0.4,0.1,0.6,0.1
		c0.2,0,0.4-0.1,0.7-0.1l-3.6,2.5c0.2-0.2,0.3-0.4,0.4-0.6c0.1-0.2,0.1-0.4,0.1-0.5c0-0.2-0.1-0.4-0.2-0.6c-0.1-0.2-0.3-0.5-0.5-0.8
		l-4.4-6.2c-0.7-1-1.5-1.7-2.4-1.9c-0.9-0.3-1.8-0.1-2.8,0.6c-0.5,0.3-0.9,0.8-1.2,1.3c-0.3,0.5-0.5,1.1-0.6,1.8
		c-0.1,0.6-0.1,1.3,0.1,2.1c0.2,0.7,0.5,1.5,0.9,2.2l3.5,5c0.2,0.3,0.4,0.5,0.6,0.7c0.2,0.2,0.3,0.3,0.5,0.4s0.4,0.1,0.6,0.1
		c0.2,0,0.4-0.1,0.7-0.1l-3.6,2.5c0.2-0.2,0.3-0.4,0.4-0.6s0.1-0.4,0.1-0.5c0-0.2-0.1-0.4-0.2-0.6c-0.1-0.2-0.3-0.5-0.5-0.8L26,17.4
		c-0.7-1-1.5-1.7-2.4-1.9c-0.9-0.3-1.8-0.1-2.7,0.6c-0.5,0.3-0.9,0.8-1.2,1.3c-0.3,0.5-0.5,1.1-0.6,1.8c-0.1,0.6-0.1,1.3,0.1,2.1
		c0.2,0.7,0.5,1.5,0.9,2.2l3.5,5c0.2,0.3,0.4,0.5,0.6,0.7c0.2,0.2,0.3,0.3,0.5,0.4c0.2,0.1,0.4,0.1,0.6,0.1c0.2,0,0.4-0.1,0.7-0.1
		L22.2,32c0.2-0.2,0.3-0.4,0.4-0.6s0.1-0.4,0.1-0.5c0-0.2-0.1-0.4-0.2-0.6C22.4,30.1,22.2,29.8,22,29.5z"/>
</g>
</svg>
