<?xml version="1.0" encoding="utf-8"?>
<!-- Generator: Adobe Illustrator 25.4.1, SVG Export Plug-In . SVG Version: 6.00 Build 0)  -->
<svg version="1.1" id="レイヤー_1" xmlns="http://www.w3.org/2000/svg" xmlns:xlink="http://www.w3.org/1999/xlink" x="0px"
	 y="0px" viewBox="0 0 50 570" style="enable-background:new 0 0 50 570;" xml:space="preserve">
<style type="text/css">
	.st0{fill:#D2AA86;stroke:#D2AA86;stroke-width:0.25;stroke-miterlimit:10;}
</style>
<g>
	<g>
		<g>
			<path class="st0" d="M31.6,445.7v1.5l-11.9,7.7h10.1c0.3,0,0.6,0,0.8,0c0.2,0,0.4-0.1,0.5-0.1s0.3-0.1,0.3-0.3
				c0.1-0.1,0.2-0.2,0.2-0.4v1.9c-0.1-0.3-0.3-0.5-0.6-0.7s-0.7-0.2-1.3-0.2H17.2V455l12.8-8.2H19c-0.6,0-1,0.1-1.3,0.2
				s-0.4,0.3-0.6,0.7v-1.9c0.1,0.3,0.3,0.6,0.6,0.7c0.2,0.1,0.7,0.2,1.3,0.2h10.8c0.3,0,0.6,0,0.8,0c0.2,0,0.4-0.1,0.5-0.1
				s0.3-0.1,0.3-0.3C31.5,446,31.6,445.8,31.6,445.7z"/>
			<path class="st0" d="M29,462.8c0,0.7-0.1,1.3-0.4,1.8c-0.3,0.5-0.7,1-1.2,1.4s-1.2,0.7-1.9,0.9c-0.7,0.2-1.5,0.3-2.4,0.3h0
				c-0.9,0-1.7-0.1-2.4-0.3c-0.7-0.2-1.4-0.5-1.9-0.9s-0.9-0.9-1.2-1.4c-0.3-0.5-0.4-1.2-0.4-1.8s0.1-1.3,0.4-1.8
				c0.3-0.5,0.7-1,1.2-1.4c0.5-0.4,1.2-0.7,1.9-0.9c0.7-0.2,1.5-0.3,2.4-0.3h0c0.9,0,1.7,0.1,2.4,0.3c0.7,0.2,1.4,0.5,1.9,0.9
				c0.5,0.4,0.9,0.9,1.2,1.4C28.9,461.5,29,462.1,29,462.8z M23.1,459.6c-0.8,0-1.6,0.1-2.3,0.2c-0.7,0.2-1.3,0.4-1.8,0.7
				c-0.5,0.3-0.9,0.6-1.2,1s-0.4,0.8-0.4,1.3s0.1,0.9,0.4,1.3s0.7,0.7,1.2,1c0.5,0.3,1.1,0.5,1.8,0.7c0.7,0.2,1.5,0.2,2.3,0.2
				c0.8,0,1.6-0.1,2.3-0.2c0.7-0.2,1.3-0.4,1.8-0.7c0.5-0.3,0.9-0.6,1.2-1c0.3-0.4,0.4-0.8,0.4-1.3s-0.1-0.9-0.4-1.3
				c-0.3-0.4-0.7-0.7-1.2-1c-0.5-0.3-1.1-0.5-1.8-0.7C24.7,459.6,23.9,459.6,23.1,459.6z"/>
			<path class="st0" d="M17.2,469.4c0.1,0.2,0.1,0.3,0.2,0.4c0.1,0.1,0.2,0.2,0.3,0.2c0.1,0.1,0.3,0.1,0.5,0.1c0.2,0,0.5,0,0.7,0
				h7.7c0.3,0,0.5,0,0.8,0s0.4,0,0.6-0.1c0.2,0,0.3-0.1,0.5-0.1c0.1-0.1,0.3-0.1,0.4-0.2l0.2,1.6h-3.3c1,0.3,1.8,0.7,2.4,1.2
				s0.9,1.3,0.9,2.2c0,0.5-0.1,0.9-0.3,1.3c-0.2,0.4-0.5,0.7-0.8,1c-0.3,0.3-0.8,0.5-1.2,0.6c-0.5,0.1-1,0.2-1.6,0.2H19
				c-0.3,0-0.5,0-0.7,0c-0.2,0-0.4,0.1-0.5,0.1c-0.1,0.1-0.2,0.1-0.3,0.2c-0.1,0.1-0.2,0.2-0.2,0.4V476c0.1,0.2,0.1,0.3,0.2,0.4
				c0.1,0.1,0.2,0.2,0.3,0.2c0.1,0.1,0.3,0.1,0.5,0.1c0.2,0,0.5,0,0.7,0h6.4c1,0,1.9-0.2,2.4-0.6c0.6-0.4,0.9-0.9,0.9-1.6
				c0-0.4-0.1-0.8-0.3-1.2c-0.2-0.4-0.5-0.7-0.9-1c-0.4-0.3-0.9-0.5-1.4-0.7c-0.6-0.2-1.2-0.3-2-0.3H19c-0.3,0-0.5,0-0.7,0
				c-0.2,0-0.4,0.1-0.5,0.1s-0.2,0.1-0.3,0.2c-0.1,0.1-0.2,0.2-0.2,0.4V469.4z"/>
			<path class="st0" d="M29,490.8c0,0.7-0.2,1.3-0.5,1.9s-0.7,1.1-1.2,1.5l-3.3-0.5c0.9-0.1,1.6-0.2,2.2-0.4
				c0.6-0.2,1.1-0.4,1.4-0.7c0.4-0.3,0.6-0.6,0.8-0.9c0.2-0.3,0.2-0.6,0.2-1c0-0.4-0.1-0.9-0.4-1.2c-0.3-0.4-0.7-0.7-1.2-1
				c-0.5-0.3-1.1-0.5-1.8-0.6s-1.5-0.2-2.3-0.2c-0.9,0-1.6,0.1-2.3,0.2c-0.7,0.2-1.3,0.4-1.8,0.7c-0.5,0.3-0.9,0.6-1.2,1
				c-0.3,0.4-0.4,0.8-0.4,1.3c0,0.8,0.4,1.5,1.2,2.1c0.8,0.6,1.9,1,3.5,1.3l-3.5-0.1c-0.3-0.2-0.5-0.5-0.7-0.8
				c-0.2-0.3-0.3-0.6-0.4-0.9c-0.1-0.3-0.2-0.6-0.2-0.9c0-0.3-0.1-0.5-0.1-0.8c0-0.6,0.1-1.2,0.4-1.8c0.3-0.5,0.7-1,1.2-1.4
				s1.2-0.7,1.9-0.9c0.7-0.2,1.6-0.3,2.5-0.3c0.9,0,1.7,0.1,2.4,0.3c0.7,0.2,1.3,0.5,1.9,0.9c0.5,0.4,0.9,0.8,1.2,1.3
				C28.9,489.6,29,490.2,29,490.8z"/>
			<path class="st0" d="M17.2,496.6c0.1,0.2,0.1,0.3,0.2,0.4c0.1,0.1,0.2,0.2,0.3,0.2c0.1,0.1,0.3,0.1,0.5,0.1c0.2,0,0.5,0,0.7,0
				h12.2c0.4,0,0.7,0,0.9-0.1c0.2-0.1,0.4-0.2,0.5-0.3l0.2,1.5h-7.2c1,0.3,1.8,0.7,2.4,1.2s0.9,1.3,0.9,2.2c0,0.5-0.1,0.9-0.3,1.3
				c-0.2,0.4-0.5,0.7-0.8,1c-0.3,0.3-0.8,0.5-1.2,0.6c-0.5,0.1-1,0.2-1.6,0.2H19c-0.3,0-0.5,0-0.7,0c-0.2,0-0.4,0.1-0.5,0.1
				c-0.1,0.1-0.2,0.1-0.3,0.2c-0.1,0.1-0.2,0.2-0.2,0.4v-2.8c0.1,0.2,0.1,0.3,0.2,0.4c0.1,0.1,0.2,0.2,0.3,0.2
				c0.1,0.1,0.3,0.1,0.5,0.1c0.2,0,0.5,0,0.7,0h6.4c1,0,1.9-0.2,2.4-0.6c0.6-0.4,0.9-0.9,0.9-1.6c0-0.4-0.1-0.8-0.3-1.2
				c-0.2-0.4-0.5-0.7-0.9-1c-0.4-0.3-0.9-0.5-1.4-0.7c-0.6-0.2-1.2-0.3-2-0.3H19c-0.3,0-0.5,0-0.7,0c-0.2,0-0.4,0.1-0.5,0.1
				c-0.1,0.1-0.2,0.1-0.3,0.2c-0.1,0.1-0.2,0.2-0.2,0.4V496.6z"/>
			<path class="st0" d="M29,512.2c0,0.6-0.1,1.2-0.4,1.6c-0.2,0.5-0.6,0.8-1,1.1c-0.4,0.3-0.9,0.5-1.5,0.7c-0.6,0.2-1.2,0.2-1.9,0.2
				v-6.6c-0.2,0-0.4,0-0.6,0c-0.2,0-0.4,0-0.7,0c-0.8,0-1.5,0.1-2.2,0.2s-1.3,0.4-1.8,0.7c-0.5,0.3-0.9,0.6-1.2,1
				c-0.3,0.4-0.4,0.8-0.4,1.3c0,0.4,0.1,0.8,0.3,1.1c0.2,0.3,0.5,0.6,0.9,0.9c0.4,0.3,0.8,0.5,1.3,0.8c0.5,0.2,1.1,0.4,1.7,0.6
				l-3-0.1c-0.5-0.5-0.9-1-1.1-1.6c-0.2-0.6-0.4-1.1-0.4-1.7c0-0.7,0.1-1.3,0.4-1.8c0.3-0.5,0.7-1,1.2-1.4c0.5-0.4,1.1-0.7,1.9-0.9
				c0.7-0.2,1.5-0.3,2.4-0.3c0.9,0,1.7,0.1,2.4,0.3c0.7,0.2,1.4,0.5,1.9,0.8s1,0.8,1.3,1.3C28.9,511,29,511.6,29,512.2z M24.5,509.4
				v5.3c0.6,0,1.2-0.1,1.7-0.2s1-0.3,1.4-0.5c0.4-0.2,0.7-0.5,0.9-0.8c0.2-0.3,0.3-0.7,0.3-1.1c0-0.4-0.1-0.7-0.3-1
				s-0.5-0.6-0.9-0.8c-0.4-0.2-0.8-0.4-1.4-0.6S25.1,509.4,24.5,509.4z"/>
			<path class="st0" d="M19,519h7.7c0.3,0,0.5,0,0.8,0s0.4,0,0.6-0.1c0.2,0,0.3-0.1,0.5-0.1c0.1-0.1,0.3-0.1,0.4-0.2l0.2,1.6h-3.3
				c1,0.2,1.8,0.7,2.4,1.2s0.9,1.2,0.9,2.1c0,0.9-0.3,1.6-0.9,2.1c-0.6,0.5-1.4,0.8-2.4,0.9c1,0.2,1.9,0.6,2.5,1.2
				c0.6,0.6,0.9,1.3,0.9,2.1c0,0.5-0.1,0.9-0.3,1.3c-0.2,0.4-0.5,0.7-0.8,1c-0.3,0.3-0.8,0.5-1.2,0.6c-0.5,0.1-1,0.2-1.6,0.2H19
				c-0.3,0-0.5,0-0.7,0c-0.2,0-0.4,0.1-0.5,0.1s-0.2,0.1-0.3,0.2s-0.2,0.2-0.2,0.4V531c0.1,0.2,0.1,0.3,0.2,0.4s0.2,0.2,0.3,0.2
				c0.1,0.1,0.3,0.1,0.5,0.1s0.5,0,0.7,0h6.4c1,0,1.9-0.2,2.5-0.6c0.6-0.4,0.9-0.9,0.9-1.6c0-0.4-0.1-0.7-0.3-1.1
				c-0.2-0.3-0.5-0.7-0.9-0.9c-0.4-0.3-0.9-0.5-1.4-0.7c-0.6-0.2-1.2-0.3-2-0.3H19c-0.3,0-0.5,0-0.7,0c-0.2,0-0.4,0.1-0.5,0.1
				s-0.2,0.1-0.3,0.2c-0.1,0.1-0.2,0.2-0.2,0.4v-2.8c0.1,0.2,0.1,0.3,0.2,0.4c0.1,0.1,0.2,0.2,0.3,0.2c0.1,0.1,0.3,0.1,0.5,0.1
				s0.5,0,0.7,0h6.4c1,0,1.9-0.2,2.5-0.6c0.6-0.4,0.9-0.9,0.9-1.6c0-0.4-0.1-0.7-0.3-1.1c-0.2-0.3-0.5-0.7-0.9-0.9s-0.9-0.5-1.4-0.7
				c-0.6-0.2-1.2-0.3-2-0.3H19c-0.3,0-0.5,0-0.7,0c-0.2,0-0.4,0.1-0.5,0.1s-0.2,0.1-0.3,0.2c-0.1,0.1-0.2,0.2-0.2,0.4v-2.8
				c0.1,0.2,0.1,0.3,0.2,0.4c0.1,0.1,0.2,0.2,0.3,0.2c0.1,0.1,0.3,0.1,0.5,0.1C18.5,519,18.7,519,19,519z"/>
			<path class="st0" d="M17.2,535.8c0.1,0.2,0.1,0.3,0.2,0.4c0.1,0.1,0.2,0.2,0.3,0.2c0.1,0.1,0.3,0.1,0.5,0.1c0.2,0,0.5,0,0.7,0
				h7.7c0.3,0,0.5,0,0.8,0s0.4,0,0.6-0.1c0.2,0,0.3-0.1,0.5-0.1c0.1-0.1,0.3-0.1,0.4-0.2l0.2,1.6H19c-0.3,0-0.5,0-0.7,0
				c-0.2,0-0.4,0.1-0.5,0.1s-0.2,0.1-0.3,0.2c-0.1,0.1-0.2,0.2-0.2,0.4V535.8z M32.6,537.1c0,0.2-0.1,0.4-0.3,0.6
				c-0.2,0.2-0.4,0.2-0.8,0.2s-0.6-0.1-0.8-0.2c-0.2-0.2-0.3-0.4-0.3-0.6c0-0.2,0.1-0.4,0.3-0.6c0.2-0.2,0.5-0.2,0.8-0.2
				s0.6,0.1,0.8,0.2C32.6,536.7,32.6,536.9,32.6,537.1z"/>
			<path class="st0" d="M29,544.9c0,0.7-0.2,1.3-0.5,1.9s-0.7,1.1-1.2,1.5l-3.3-0.5c0.9-0.1,1.6-0.2,2.2-0.4
				c0.6-0.2,1.1-0.4,1.4-0.7c0.4-0.3,0.6-0.6,0.8-0.9c0.2-0.3,0.2-0.6,0.2-1c0-0.4-0.1-0.9-0.4-1.2c-0.3-0.4-0.7-0.7-1.2-1
				c-0.5-0.3-1.1-0.5-1.8-0.6s-1.5-0.2-2.3-0.2c-0.9,0-1.6,0.1-2.3,0.2c-0.7,0.2-1.3,0.4-1.8,0.7c-0.5,0.3-0.9,0.6-1.2,1
				c-0.3,0.4-0.4,0.8-0.4,1.3c0,0.8,0.4,1.5,1.2,2.1c0.8,0.6,1.9,1,3.5,1.3l-3.5-0.1c-0.3-0.2-0.5-0.5-0.7-0.8
				c-0.2-0.3-0.3-0.6-0.4-0.9c-0.1-0.3-0.2-0.6-0.2-0.9c0-0.3-0.1-0.5-0.1-0.8c0-0.6,0.1-1.2,0.4-1.8c0.3-0.5,0.7-1,1.2-1.4
				s1.2-0.7,1.9-0.9c0.7-0.2,1.6-0.3,2.5-0.3c0.9,0,1.7,0.1,2.4,0.3c0.7,0.2,1.3,0.5,1.9,0.9c0.5,0.4,0.9,0.8,1.2,1.3
				C28.9,543.7,29,544.3,29,544.9z"/>
			<path class="st0" d="M23.6,554.6l0.6,1.7h1.5c1,0,1.8-0.2,2.3-0.5s0.7-0.8,0.7-1.4c0-0.3-0.1-0.6-0.2-0.9
				c-0.1-0.3-0.4-0.6-0.7-0.8c-0.3-0.3-0.8-0.5-1.4-0.7c-0.6-0.2-1.3-0.4-2.2-0.6l3.5-0.1c0.4,0.4,0.7,0.9,1,1.4
				c0.2,0.6,0.4,1.1,0.4,1.7c0,0.9-0.3,1.6-0.9,2.2c-0.6,0.5-1.4,0.8-2.6,0.8H19c-0.4,0-0.8,0-1.1,0.1s-0.6,0.2-0.7,0.3l-0.1-1.5
				h2.7c-0.3-0.1-0.7-0.2-1-0.4c-0.3-0.2-0.6-0.4-0.9-0.6c-0.3-0.2-0.5-0.5-0.6-0.8s-0.2-0.7-0.2-1.1c0-0.4,0.1-0.7,0.2-1.1
				s0.3-0.6,0.5-0.8c0.2-0.2,0.5-0.4,0.9-0.6c0.3-0.1,0.7-0.2,1.2-0.2c0.6,0,1.1,0.1,1.6,0.4c0.4,0.3,0.8,0.6,1.1,1
				c0.3,0.4,0.5,0.8,0.7,1.2C23.4,553.8,23.5,554.2,23.6,554.6z M19.8,552.1c-0.7,0-1.3,0.1-1.7,0.4c-0.5,0.3-0.7,0.7-0.7,1.2
				c0,0.3,0.1,0.6,0.2,0.9s0.4,0.6,0.7,0.8c0.3,0.2,0.7,0.5,1.2,0.6c0.5,0.2,1,0.3,1.7,0.3h2.6l-0.5-1.7c-0.1-0.2-0.2-0.5-0.3-0.8
				s-0.3-0.6-0.6-0.8c-0.3-0.3-0.6-0.5-1-0.7C21,552.2,20.5,552.1,19.8,552.1z"/>
			<path class="st0" d="M17.2,560.1c0.1,0.2,0.1,0.3,0.2,0.4c0.1,0.1,0.2,0.2,0.3,0.2c0.1,0.1,0.3,0.1,0.5,0.1c0.2,0,0.5,0,0.7,0
				h12.2c0.4,0,0.7,0,0.9-0.1c0.2-0.1,0.4-0.2,0.5-0.3l0.2,1.5H19c-0.3,0-0.5,0-0.7,0c-0.2,0-0.4,0.1-0.5,0.1
				c-0.1,0.1-0.2,0.1-0.3,0.2c-0.1,0.1-0.2,0.2-0.2,0.4V560.1z"/>
		</g>
	</g>
	<g>
		<g>
			<path class="st0" d="M17.2,24.5c0.1,0.3,0.3,0.6,0.6,0.7c0.2,0.1,0.7,0.2,1.3,0.2h10.8c0.3,0,0.6,0,0.8,0c0.2,0,0.4-0.1,0.5-0.1
				s0.3-0.1,0.3-0.3c0.1-0.1,0.2-0.2,0.2-0.4v4c0,0.5-0.1,0.9-0.2,1.4c-0.1,0.5-0.4,0.9-0.7,1.3c-0.3,0.4-0.7,0.7-1.2,1
				c-0.5,0.3-1.1,0.4-1.9,0.4c-0.7,0-1.4-0.1-1.9-0.4c-0.5-0.3-1-0.6-1.3-1c-0.4-0.4-0.6-0.9-0.8-1.3c-0.2-0.5-0.3-1-0.3-1.5v-1.9
				H19c-0.6,0-1,0.1-1.3,0.2c-0.2,0.1-0.4,0.3-0.6,0.7V24.5z M31.3,26.6h-7.6v1.6c0,0.4,0.1,0.8,0.2,1.2c0.1,0.4,0.4,0.7,0.7,1
				s0.7,0.5,1.2,0.7c0.5,0.2,1.1,0.3,1.8,0.3c1.2,0,2.1-0.3,2.8-0.8c0.6-0.6,1-1.3,1-2.4V26.6z"/>
			<path class="st0" d="M29,39.4c0,0.7-0.1,1.3-0.4,1.8c-0.3,0.5-0.7,1-1.2,1.4s-1.2,0.7-1.9,0.9c-0.7,0.2-1.5,0.3-2.4,0.3h0
				c-0.9,0-1.7-0.1-2.4-0.3c-0.7-0.2-1.4-0.5-1.9-0.9s-0.9-0.9-1.2-1.4c-0.3-0.5-0.4-1.2-0.4-1.8s0.1-1.3,0.4-1.8
				c0.3-0.5,0.7-1,1.2-1.4c0.5-0.4,1.2-0.7,1.9-0.9c0.7-0.2,1.5-0.3,2.4-0.3h0c0.9,0,1.7,0.1,2.4,0.3c0.7,0.2,1.4,0.5,1.9,0.9
				c0.5,0.4,0.9,0.9,1.2,1.4C28.9,38.2,29,38.8,29,39.4z M23.1,36.2c-0.8,0-1.6,0.1-2.3,0.2c-0.7,0.2-1.3,0.4-1.8,0.7
				c-0.5,0.3-0.9,0.6-1.2,1s-0.4,0.8-0.4,1.3s0.1,0.9,0.4,1.3s0.7,0.7,1.2,1c0.5,0.3,1.1,0.5,1.8,0.7c0.7,0.2,1.5,0.2,2.3,0.2
				c0.8,0,1.6-0.1,2.3-0.2c0.7-0.2,1.3-0.4,1.8-0.7c0.5-0.3,0.9-0.6,1.2-1c0.3-0.4,0.4-0.8,0.4-1.3s-0.1-0.9-0.4-1.3
				c-0.3-0.4-0.7-0.7-1.2-1c-0.5-0.3-1.1-0.5-1.8-0.7C24.7,36.3,23.9,36.2,23.1,36.2z"/>
			<path class="st0" d="M17.2,46.1c0.1,0.2,0.1,0.3,0.2,0.4c0.1,0.1,0.2,0.2,0.3,0.2c0.1,0.1,0.3,0.1,0.5,0.1c0.2,0,0.5,0,0.7,0h7.7
				c0.3,0,0.5,0,0.8,0s0.4,0,0.6-0.1c0.2,0,0.3-0.1,0.5-0.1c0.1-0.1,0.3-0.1,0.4-0.2l0.2,1.6H19c-0.3,0-0.5,0-0.7,0
				c-0.2,0-0.4,0.1-0.5,0.1s-0.2,0.1-0.3,0.2c-0.1,0.1-0.2,0.2-0.2,0.4V46.1z M32.6,47.4c0,0.2-0.1,0.4-0.3,0.6
				c-0.2,0.2-0.4,0.2-0.8,0.2S31,48.2,30.8,48c-0.2-0.2-0.3-0.4-0.3-0.6c0-0.2,0.1-0.4,0.3-0.6c0.2-0.2,0.5-0.2,0.8-0.2
				s0.6,0.1,0.8,0.2C32.6,47,32.6,47.2,32.6,47.4z"/>
			<path class="st0" d="M17.2,50.9c0.1,0.2,0.1,0.3,0.2,0.4c0.1,0.1,0.2,0.2,0.3,0.2c0.1,0.1,0.3,0.1,0.5,0.1c0.2,0,0.5,0,0.7,0h7.7
				c0.3,0,0.5,0,0.8,0s0.4,0,0.6-0.1c0.2,0,0.3-0.1,0.5-0.1c0.1-0.1,0.3-0.1,0.4-0.2l0.2,1.6h-3.3c1,0.3,1.8,0.7,2.4,1.2
				s0.9,1.3,0.9,2.2c0,0.5-0.1,0.9-0.3,1.3c-0.2,0.4-0.5,0.7-0.8,1c-0.3,0.3-0.8,0.5-1.2,0.6c-0.5,0.1-1,0.2-1.6,0.2H19
				c-0.3,0-0.5,0-0.7,0c-0.2,0-0.4,0.1-0.5,0.1c-0.1,0.1-0.2,0.1-0.3,0.2c-0.1,0.1-0.2,0.2-0.2,0.4v-2.8c0.1,0.2,0.1,0.3,0.2,0.4
				c0.1,0.1,0.2,0.2,0.3,0.2c0.1,0.1,0.3,0.1,0.5,0.1c0.2,0,0.5,0,0.7,0h6.4c1,0,1.9-0.2,2.4-0.6c0.6-0.4,0.9-0.9,0.9-1.6
				c0-0.4-0.1-0.8-0.3-1.2c-0.2-0.4-0.5-0.7-0.9-1c-0.4-0.3-0.9-0.5-1.4-0.7c-0.6-0.2-1.2-0.3-2-0.3H19c-0.3,0-0.5,0-0.7,0
				c-0.2,0-0.4,0.1-0.5,0.1s-0.2,0.1-0.3,0.2c-0.1,0.1-0.2,0.2-0.2,0.4V50.9z"/>
			<path class="st0" d="M28.9,63.8l2.9,1.1h-2.9v2.6h-0.2v-2.6h-8.9c-0.5,0-0.8,0-1.1,0.1c-0.3,0-0.5,0.1-0.7,0.2s-0.3,0.2-0.4,0.3
				s-0.1,0.3-0.1,0.4c0,0.3,0.1,0.6,0.3,0.8c0.2,0.2,0.6,0.4,1,0.6l-0.2,0.2c-0.4-0.2-0.8-0.4-1-0.7c-0.3-0.2-0.4-0.6-0.4-1.1
				c0-0.7,0.3-1.2,0.8-1.5c0.6-0.3,1.4-0.4,2.4-0.4h8.4v-1.5h0.2V63.8z"/>
			<path class="st0" d="M24.4,75.5c1.1,0,2.1,0.1,3,0.3c0.9,0.2,1.7,0.5,2.3,0.8c0.6,0.3,1.1,0.8,1.5,1.3c0.4,0.5,0.5,1,0.5,1.6
				c0,0.6-0.2,1.1-0.5,1.6c-0.4,0.5-0.8,0.9-1.5,1.3c-0.6,0.3-1.4,0.6-2.3,0.8c-0.9,0.2-1.9,0.3-3,0.3c-1.1,0-2.1-0.1-3-0.3
				c-0.9-0.2-1.7-0.5-2.3-0.8c-0.6-0.3-1.1-0.8-1.5-1.3c-0.4-0.5-0.5-1-0.5-1.6c0-0.6,0.2-1.1,0.5-1.6s0.8-0.9,1.5-1.3
				s1.4-0.6,2.3-0.8C22.3,75.6,23.3,75.5,24.4,75.5z M24.4,76.8c-2.2,0-3.9,0.2-5.2,0.7c-1.2,0.5-1.9,1.1-1.9,2c0,0.9,0.6,1.5,1.9,2
				c1.2,0.5,3,0.7,5.2,0.7c2.2,0,3.9-0.2,5.2-0.7c1.2-0.5,1.9-1.1,1.9-2c0-0.9-0.6-1.5-1.9-2C28.3,77.1,26.6,76.8,24.4,76.8z"/>
			<path class="st0" d="M17.4,89.5c0,0.4,0.1,0.7,0.3,1s0.4,0.6,0.8,0.8c0.4,0.2,0.8,0.4,1.3,0.5s1.1,0.2,1.8,0.2
				c1.2,0,2.2-0.2,2.8-0.6c0.6-0.4,1-1,1-1.7c0-0.2,0-0.5-0.1-0.8s-0.2-0.6-0.3-0.9l0.2,0l5.2,3.6v-2.9c0-0.4-0.1-0.7-0.2-1
				c-0.1-0.2-0.3-0.5-0.4-0.6c-0.2-0.2-0.4-0.3-0.6-0.4c-0.2-0.1-0.4-0.1-0.6-0.2l3.1,0v6.1h-0.2l-6-4.3c0.2,0.5,0.3,1,0.3,1.5
				c0,0.5-0.1,1-0.3,1.4c-0.2,0.4-0.5,0.8-0.9,1.1c-0.4,0.3-0.8,0.5-1.3,0.7c-0.5,0.2-1,0.2-1.6,0.2c-0.6,0-1.1-0.1-1.6-0.2
				s-1-0.4-1.5-0.7c-0.4-0.3-0.8-0.7-1-1.2c-0.3-0.5-0.4-1-0.4-1.6c0-0.3,0-0.6,0.1-0.8c0-0.3,0.1-0.5,0.2-0.7
				c0.1-0.2,0.2-0.5,0.4-0.7s0.4-0.5,0.6-0.8h3.6c-0.9,0.1-1.7,0.3-2.3,0.5c-0.6,0.2-1.1,0.5-1.4,0.8c-0.3,0.3-0.6,0.6-0.7,0.9
				C17.5,88.9,17.4,89.2,17.4,89.5z"/>
		</g>
	</g>
</g>
</svg>
