<?xml version="1.0" encoding="utf-8"?>
<!-- Generator: Adobe Illustrator 25.4.1, SVG Export Plug-In . SVG Version: 6.00 Build 0)  -->
<svg version="1.1" id="レイヤー_1" xmlns="http://www.w3.org/2000/svg" xmlns:xlink="http://www.w3.org/1999/xlink" x="0px"
	 y="0px" viewBox="0 0 50 580" style="enable-background:new 0 0 50 580;" xml:space="preserve">
<style type="text/css">
	.st0{fill:#D2AA86;stroke:#D2AA86;stroke-width:0.25;stroke-miterlimit:10;}
</style>
<g>
	<g>
		<g>
			<path class="st0" d="M18.9,24.5c0.1,0.3,0.3,0.6,0.6,0.7s0.7,0.2,1.3,0.2h10.8c0.3,0,0.6,0,0.8,0c0.2,0,0.4-0.1,0.5-0.1
				s0.3-0.1,0.3-0.3s0.2-0.2,0.2-0.4v4c0,0.5-0.1,0.9-0.2,1.4c-0.1,0.5-0.4,0.9-0.7,1.3c-0.3,0.4-0.7,0.7-1.2,1
				c-0.5,0.3-1.1,0.4-1.9,0.4c-0.7,0-1.4-0.1-1.9-0.4c-0.5-0.3-1-0.6-1.3-1c-0.4-0.4-0.6-0.9-0.8-1.3c-0.2-0.5-0.3-1-0.3-1.5v-1.9
				h-4.3c-0.6,0-1,0.1-1.3,0.2c-0.2,0.1-0.4,0.3-0.6,0.7V24.5z M33,26.6h-7.7v1.6c0,0.4,0.1,0.8,0.2,1.2s0.4,0.7,0.7,1
				c0.3,0.3,0.7,0.5,1.2,0.7s1.1,0.3,1.8,0.3c1.2,0,2.1-0.3,2.8-0.8s1-1.3,1-2.4V26.6z"/>
			<path class="st0" d="M30.8,39.5c0,0.7-0.1,1.3-0.4,1.8s-0.7,1-1.2,1.4c-0.5,0.4-1.2,0.7-1.9,0.9c-0.7,0.2-1.5,0.3-2.4,0.3h0
				c-0.9,0-1.7-0.1-2.4-0.3c-0.7-0.2-1.4-0.5-1.9-0.9c-0.5-0.4-0.9-0.9-1.2-1.4s-0.4-1.2-0.4-1.8c0-0.7,0.1-1.3,0.4-1.8
				s0.7-1,1.2-1.4s1.2-0.7,1.9-0.9c0.7-0.2,1.5-0.3,2.4-0.3h0c0.9,0,1.7,0.1,2.4,0.3c0.7,0.2,1.4,0.5,1.9,0.9
				c0.5,0.4,0.9,0.9,1.2,1.4S30.8,38.8,30.8,39.5z M24.8,36.2c-0.8,0-1.6,0.1-2.3,0.2c-0.7,0.2-1.3,0.4-1.8,0.7
				c-0.5,0.3-0.9,0.6-1.2,1s-0.4,0.8-0.4,1.3s0.1,0.9,0.4,1.3c0.3,0.4,0.7,0.7,1.2,1c0.5,0.3,1.1,0.5,1.8,0.7s1.5,0.2,2.3,0.2
				s1.6-0.1,2.3-0.2c0.7-0.2,1.3-0.4,1.8-0.7c0.5-0.3,0.9-0.6,1.2-1c0.3-0.4,0.4-0.8,0.4-1.3s-0.1-0.9-0.4-1.3s-0.7-0.7-1.2-1
				c-0.5-0.3-1.1-0.5-1.8-0.7C26.4,36.3,25.6,36.2,24.8,36.2z"/>
			<path class="st0" d="M18.9,46.1c0.1,0.2,0.1,0.3,0.2,0.4c0.1,0.1,0.2,0.2,0.3,0.2s0.3,0.1,0.5,0.1s0.5,0,0.7,0h7.7
				c0.3,0,0.5,0,0.8,0s0.4,0,0.6-0.1c0.2,0,0.3-0.1,0.5-0.1c0.1-0.1,0.3-0.1,0.4-0.2l0.2,1.6H20.7c-0.3,0-0.5,0-0.7,0
				c-0.2,0-0.4,0.1-0.5,0.1s-0.2,0.1-0.3,0.2c-0.1,0.1-0.2,0.2-0.2,0.4V46.1z M34.4,47.4c0,0.2-0.1,0.4-0.3,0.6s-0.4,0.2-0.8,0.2
				c-0.3,0-0.6-0.1-0.8-0.2c-0.2-0.2-0.3-0.4-0.3-0.6c0-0.2,0.1-0.4,0.3-0.6c0.2-0.2,0.5-0.2,0.8-0.2c0.3,0,0.6,0.1,0.8,0.2
				S34.4,47.2,34.4,47.4z"/>
			<path class="st0" d="M18.9,51c0.1,0.2,0.1,0.3,0.2,0.4c0.1,0.1,0.2,0.2,0.3,0.2s0.3,0.1,0.5,0.1s0.5,0,0.7,0h7.7
				c0.3,0,0.5,0,0.8,0s0.4,0,0.6-0.1c0.2,0,0.3-0.1,0.5-0.1c0.1-0.1,0.3-0.1,0.4-0.2l0.2,1.6h-3.3c1,0.3,1.8,0.7,2.4,1.2
				c0.6,0.6,0.9,1.3,0.9,2.2c0,0.5-0.1,0.9-0.3,1.3s-0.5,0.7-0.8,1c-0.3,0.3-0.8,0.5-1.2,0.6c-0.5,0.1-1,0.2-1.6,0.2h-6.2
				c-0.3,0-0.5,0-0.7,0c-0.2,0-0.4,0.1-0.5,0.1s-0.2,0.1-0.3,0.2c-0.1,0.1-0.2,0.2-0.2,0.4v-2.8c0.1,0.2,0.1,0.3,0.2,0.4
				c0.1,0.1,0.2,0.2,0.3,0.2c0.1,0.1,0.3,0.1,0.5,0.1s0.5,0,0.7,0h6.4c1,0,1.9-0.2,2.4-0.6c0.6-0.4,0.9-0.9,0.9-1.6
				c0-0.4-0.1-0.8-0.3-1.2c-0.2-0.4-0.5-0.7-0.9-1c-0.4-0.3-0.9-0.5-1.4-0.7c-0.6-0.2-1.2-0.3-2-0.3h-5.1c-0.3,0-0.5,0-0.7,0
				c-0.2,0-0.4,0.1-0.5,0.1s-0.2,0.1-0.3,0.2c-0.1,0.1-0.2,0.2-0.2,0.4V51z"/>
			<path class="st0" d="M30.7,63.8l2.9,1.1h-2.9v2.6h-0.2v-2.6h-8.9c-0.5,0-0.8,0-1.1,0.1c-0.3,0-0.5,0.1-0.7,0.2
				c-0.2,0.1-0.3,0.2-0.4,0.3s-0.1,0.3-0.1,0.4c0,0.3,0.1,0.6,0.3,0.8c0.2,0.2,0.6,0.4,1,0.6l-0.2,0.2c-0.4-0.2-0.8-0.4-1-0.7
				c-0.3-0.2-0.4-0.6-0.4-1.1c0-0.7,0.3-1.2,0.8-1.5c0.6-0.3,1.4-0.4,2.4-0.4h8.4v-1.5h0.2V63.8z"/>
			<path class="st0" d="M26.2,75.6c1.1,0,2.1,0.1,3,0.3c0.9,0.2,1.7,0.5,2.3,0.8c0.6,0.3,1.1,0.8,1.5,1.3c0.4,0.5,0.5,1,0.5,1.6
				c0,0.6-0.2,1.1-0.5,1.6c-0.4,0.5-0.8,0.9-1.5,1.3c-0.6,0.3-1.4,0.6-2.3,0.8c-0.9,0.2-1.9,0.3-3,0.3c-1.1,0-2.1-0.1-3-0.3
				s-1.7-0.5-2.3-0.8c-0.6-0.3-1.1-0.8-1.5-1.3c-0.4-0.5-0.5-1-0.5-1.6c0-0.6,0.2-1.1,0.5-1.6c0.4-0.5,0.8-0.9,1.5-1.3
				c0.6-0.3,1.4-0.6,2.3-0.8S25.1,75.6,26.2,75.6z M26.2,76.9c-2.2,0-3.9,0.2-5.2,0.7c-1.2,0.5-1.9,1.1-1.9,2c0,0.9,0.6,1.5,1.9,2
				s3,0.7,5.2,0.7s3.9-0.2,5.2-0.7s1.9-1.1,1.9-2c0-0.9-0.6-1.5-1.9-2C30.1,77.1,28.4,76.9,26.2,76.9z"/>
			<path class="st0" d="M33.4,92.1L33.4,92.1L33.4,92.1v0.1h-9.6v1.4l-1.1-0.2v-1.3h-1.3c-0.5,0-0.8,0-1.1,0c-0.3,0-0.5,0.1-0.7,0.1
				c-0.2,0.1-0.3,0.1-0.4,0.2c-0.1,0.1-0.2,0.2-0.2,0.4v-2.9c0.1,0.2,0.1,0.3,0.2,0.4c0.1,0.1,0.2,0.2,0.4,0.3
				C19.7,91,20,91,20.3,91s0.7,0,1.1,0h1.3V86h0.2L33.4,92.1z M23.8,91.1h7.3l-7.3-4.2V91.1z"/>
		</g>
	</g>
	<g>
		<g>
			<path class="st0" d="M33.5,446.2c0-0.1-0.1-0.1-0.2-0.2s-0.2-0.1-0.3-0.1s-0.3,0-0.6,0s-0.5,0.1-0.8,0.2l-10.5,3.3l10.5,3.2
				c0.4,0.1,0.7,0.2,0.9,0.2c0.2,0,0.4,0,0.6,0c0.1,0,0.3,0,0.3-0.1c0.1,0,0.1-0.1,0.2-0.2v1.4c0-0.1-0.1-0.1-0.2-0.2
				s-0.2-0.2-0.4-0.3s-0.5-0.2-0.9-0.4c-0.4-0.1-0.9-0.3-1.5-0.5L19.1,449v-0.1l13-4.1c0.5-0.2,0.8-0.3,1.1-0.5
				c0.2-0.1,0.3-0.3,0.4-0.4V446.2z"/>
			<path class="st0" d="M19.1,456c0.1,0.2,0.1,0.3,0.2,0.4c0.1,0.1,0.2,0.2,0.3,0.2s0.3,0.1,0.5,0.1s0.5,0,0.7,0h7.7
				c0.3,0,0.5,0,0.8,0s0.4,0,0.6-0.1c0.2,0,0.3-0.1,0.5-0.1c0.1-0.1,0.3-0.1,0.4-0.2L31,458H20.9c-0.3,0-0.5,0-0.7,0
				c-0.2,0-0.4,0.1-0.5,0.1s-0.2,0.1-0.3,0.2c-0.1,0.1-0.2,0.2-0.2,0.4V456z M34.6,457.4c0,0.2-0.1,0.4-0.3,0.6s-0.4,0.2-0.8,0.2
				c-0.3,0-0.6-0.1-0.8-0.2c-0.2-0.2-0.3-0.4-0.3-0.6c0-0.2,0.1-0.4,0.3-0.6c0.2-0.2,0.5-0.2,0.8-0.2c0.3,0,0.6,0.1,0.8,0.2
				S34.6,457.1,34.6,457.4z"/>
			<path class="st0" d="M30.8,462.4l2.9,1.1h-2.9v2.6h-0.2v-2.6h-8.9c-0.5,0-0.8,0-1.1,0.1c-0.3,0-0.5,0.1-0.7,0.2
				c-0.2,0.1-0.3,0.2-0.4,0.3s-0.1,0.3-0.1,0.4c0,0.3,0.1,0.6,0.3,0.8c0.2,0.2,0.6,0.4,1,0.6l-0.2,0.2c-0.4-0.2-0.8-0.4-1-0.7
				c-0.3-0.2-0.4-0.6-0.4-1.1c0-0.7,0.3-1.2,0.8-1.5c0.6-0.3,1.4-0.4,2.4-0.4h8.4v-1.5h0.2V462.4z"/>
			<path class="st0" d="M25.5,471.8l0.6,1.7h1.5c1,0,1.8-0.2,2.3-0.5s0.7-0.8,0.7-1.4c0-0.3-0.1-0.6-0.2-0.9
				c-0.1-0.3-0.4-0.6-0.7-0.9c-0.3-0.3-0.8-0.5-1.4-0.7c-0.6-0.2-1.3-0.4-2.2-0.6l3.5-0.1c0.4,0.4,0.7,0.9,1,1.4s0.4,1.1,0.4,1.7
				c0,0.9-0.3,1.6-0.9,2.2c-0.6,0.5-1.4,0.8-2.6,0.8h-6.6c-0.4,0-0.8,0-1.1,0.1c-0.3,0.1-0.6,0.2-0.7,0.3l-0.1-1.5h2.7
				c-0.3-0.1-0.7-0.2-1-0.4c-0.3-0.2-0.6-0.4-0.9-0.6c-0.3-0.2-0.5-0.5-0.6-0.8s-0.2-0.7-0.2-1.1c0-0.4,0.1-0.7,0.2-1.1
				c0.1-0.3,0.3-0.6,0.5-0.8s0.5-0.4,0.9-0.6c0.3-0.1,0.7-0.2,1.2-0.2c0.6,0,1.2,0.1,1.6,0.4c0.4,0.3,0.8,0.6,1.1,1s0.5,0.8,0.7,1.2
				C25.3,471.1,25.4,471.5,25.5,471.8z M21.8,469.3c-0.7,0-1.3,0.1-1.7,0.4c-0.5,0.3-0.7,0.7-0.7,1.2c0,0.3,0.1,0.6,0.2,0.9
				c0.2,0.3,0.4,0.6,0.7,0.8c0.3,0.2,0.7,0.5,1.2,0.6c0.5,0.2,1,0.3,1.7,0.3h2.6l-0.5-1.7c-0.1-0.2-0.2-0.5-0.3-0.8
				c-0.1-0.3-0.3-0.6-0.6-0.8c-0.3-0.3-0.6-0.5-1-0.7C22.9,469.4,22.4,469.3,21.8,469.3z"/>
			<path class="st0" d="M27.1,483.5h-0.3v-5.5h0.3V483.5z"/>
			<path class="st0" d="M29.2,487c0.7,0,1.2,0.1,1.8,0.3c0.5,0.2,1,0.4,1.4,0.7c0.4,0.3,0.7,0.7,0.9,1.1s0.3,0.9,0.3,1.4
				c0,0.6-0.2,1.1-0.5,1.6s-0.8,0.9-1.4,1.2s-1.4,0.6-2.3,0.8c-0.9,0.2-2,0.3-3.2,0.3c-1.1,0-2.1-0.1-3-0.3
				c-0.9-0.2-1.7-0.4-2.3-0.8s-1.1-0.8-1.5-1.3s-0.5-1.1-0.5-1.8c0-0.5,0.1-1,0.2-1.5c0.2-0.5,0.4-0.9,0.7-1.3l2.6,0
				c-0.7,0.2-1.2,0.5-1.6,0.7s-0.7,0.5-1,0.8c-0.2,0.2-0.4,0.5-0.5,0.7s-0.1,0.4-0.1,0.6c0,0.9,0.6,1.5,1.8,2c1.2,0.5,3,0.7,5.5,0.7
				c-0.5-0.3-1-0.6-1.3-1.1s-0.5-1-0.5-1.6c0-0.5,0.1-1,0.3-1.4s0.5-0.8,0.9-1.1c0.4-0.3,0.9-0.5,1.4-0.7
				C28,487.1,28.6,487,29.2,487z M29.3,488.2c-0.7,0-1.3,0.1-1.9,0.2c-0.5,0.1-1,0.3-1.3,0.5s-0.6,0.5-0.8,0.8
				c-0.2,0.3-0.2,0.6-0.2,0.9c0,0.5,0.2,1,0.6,1.4s0.8,0.8,1.4,1c0.9,0,1.8-0.1,2.6-0.1c0.8-0.1,1.4-0.2,2-0.4s1-0.5,1.3-0.8
				c0.3-0.3,0.4-0.7,0.4-1.2c0-0.3-0.1-0.6-0.2-0.9c-0.2-0.3-0.4-0.5-0.7-0.7s-0.8-0.4-1.3-0.5S30,488.2,29.3,488.2z"/>
			<path class="st0" d="M33.7,508.1c0,0.2,0,0.5-0.1,0.7c0,0.3-0.1,0.6-0.2,0.9c-0.1,0.3-0.2,0.6-0.4,1c-0.2,0.3-0.4,0.7-0.6,1
				l-4.8,0.2c2-0.3,3.4-0.8,4.4-1.5c1-0.7,1.4-1.5,1.4-2.4c0-0.5-0.1-1-0.4-1.5c-0.3-0.5-0.7-0.9-1.3-1.2c-0.6-0.3-1.3-0.6-2.2-0.8
				c-0.9-0.2-1.9-0.3-3.1-0.3c-1.2,0-2.2,0.1-3.1,0.3c-0.9,0.2-1.6,0.5-2.2,0.8c-0.6,0.4-1,0.8-1.3,1.2c-0.3,0.5-0.4,1-0.4,1.5
				c0,0.3,0.1,0.7,0.2,1c0.1,0.3,0.3,0.7,0.6,1c0.3,0.3,0.7,0.6,1.1,0.9c0.5,0.3,1,0.5,1.8,0.8h-2.3c-0.5-0.4-0.9-1-1.2-1.6
				c-0.3-0.7-0.5-1.3-0.5-2.1s0.2-1.4,0.6-2.1c0.4-0.6,0.9-1.2,1.5-1.7c0.7-0.5,1.4-0.8,2.3-1.1s1.9-0.4,2.9-0.4c1,0,2,0.1,2.9,0.4
				s1.7,0.7,2.3,1.1c0.7,0.5,1.2,1,1.5,1.6C33.5,506.7,33.7,507.4,33.7,508.1z"/>
			<path class="st0" d="M30.9,519c0,0.7-0.1,1.3-0.4,1.8s-0.7,1-1.2,1.4c-0.5,0.4-1.2,0.7-1.9,0.9c-0.7,0.2-1.5,0.3-2.4,0.3h0
				c-0.9,0-1.7-0.1-2.4-0.3c-0.7-0.2-1.4-0.5-1.9-0.9c-0.5-0.4-0.9-0.9-1.2-1.4S19,519.6,19,519c0-0.7,0.1-1.3,0.4-1.8
				s0.7-1,1.2-1.4s1.2-0.7,1.9-0.9c0.7-0.2,1.5-0.3,2.4-0.3h0c0.9,0,1.7,0.1,2.4,0.3c0.7,0.2,1.4,0.5,1.9,0.9
				c0.5,0.4,0.9,0.9,1.2,1.4S30.9,518.3,30.9,519z M25,515.8c-0.8,0-1.6,0.1-2.3,0.2c-0.7,0.2-1.3,0.4-1.8,0.7
				c-0.5,0.3-0.9,0.6-1.2,1s-0.4,0.8-0.4,1.3s0.1,0.9,0.4,1.3c0.3,0.4,0.7,0.7,1.2,1c0.5,0.3,1.1,0.5,1.8,0.7s1.5,0.2,2.3,0.2
				s1.6-0.1,2.3-0.2c0.7-0.2,1.3-0.4,1.8-0.7c0.5-0.3,0.9-0.6,1.2-1c0.3-0.4,0.4-0.8,0.4-1.3s-0.1-0.9-0.4-1.3s-0.7-0.7-1.2-1
				c-0.5-0.3-1.1-0.5-1.8-0.7C26.6,515.8,25.8,515.8,25,515.8z"/>
			<path class="st0" d="M20.9,526.4h7.7c0.3,0,0.5,0,0.8,0s0.4,0,0.6-0.1c0.2,0,0.3-0.1,0.5-0.1c0.1-0.1,0.3-0.1,0.4-0.2l0.2,1.6
				h-3.3c1,0.2,1.8,0.7,2.4,1.2s0.9,1.2,0.9,2.1c0,0.9-0.3,1.6-0.9,2.2c-0.6,0.5-1.4,0.8-2.4,0.9c1,0.2,1.9,0.6,2.5,1.2
				c0.6,0.6,0.9,1.3,0.9,2.1c0,0.5-0.1,0.9-0.3,1.3s-0.5,0.7-0.8,1c-0.3,0.3-0.8,0.5-1.2,0.6c-0.5,0.1-1,0.2-1.6,0.2h-6.2
				c-0.3,0-0.5,0-0.7,0s-0.4,0.1-0.5,0.1s-0.2,0.1-0.3,0.2c-0.1,0.1-0.2,0.2-0.2,0.4v-2.8c0.1,0.2,0.1,0.3,0.2,0.4
				c0.1,0.1,0.2,0.2,0.3,0.2s0.3,0.1,0.5,0.1s0.5,0,0.7,0h6.4c1,0,1.9-0.2,2.5-0.6c0.6-0.4,0.9-0.9,0.9-1.6c0-0.4-0.1-0.7-0.3-1.1
				s-0.5-0.7-0.9-0.9c-0.4-0.3-0.9-0.5-1.4-0.7c-0.6-0.2-1.2-0.3-2-0.3h-5.1c-0.3,0-0.5,0-0.7,0c-0.2,0-0.4,0.1-0.5,0.1
				s-0.2,0.1-0.3,0.2c-0.1,0.1-0.2,0.2-0.2,0.4V532c0.1,0.2,0.1,0.3,0.2,0.4c0.1,0.1,0.2,0.2,0.3,0.2s0.3,0.1,0.5,0.1
				c0.2,0,0.5,0,0.7,0h6.4c1,0,1.9-0.2,2.5-0.6c0.6-0.4,0.9-0.9,0.9-1.6c0-0.4-0.1-0.7-0.3-1.1s-0.5-0.7-0.9-0.9
				c-0.4-0.3-0.9-0.5-1.4-0.7c-0.6-0.2-1.2-0.3-2-0.3h-5.1c-0.3,0-0.5,0-0.7,0c-0.2,0-0.4,0.1-0.5,0.1s-0.2,0.1-0.3,0.2
				c-0.1,0.1-0.2,0.2-0.2,0.4v-2.8c0.1,0.2,0.1,0.3,0.2,0.4c0.1,0.1,0.2,0.2,0.3,0.2s0.3,0.1,0.5,0.1S20.6,526.4,20.9,526.4z"/>
			<path class="st0" d="M17,543.9h11.6c0.3,0,0.5,0,0.8,0s0.4,0,0.6-0.1c0.2,0,0.3-0.1,0.5-0.1c0.1-0.1,0.3-0.1,0.4-0.2l0.2,1.6
				h-1.5c0.3,0.2,0.6,0.4,0.7,0.6c0.2,0.2,0.3,0.4,0.4,0.7c0.1,0.2,0.2,0.5,0.2,0.7c0,0.2,0.1,0.4,0.1,0.6c0,0.7-0.1,1.3-0.4,1.8
				s-0.7,1-1.2,1.4c-0.5,0.4-1.1,0.7-1.8,0.9s-1.5,0.3-2.3,0.3c-0.9,0-1.7-0.1-2.5-0.3s-1.4-0.5-2-0.9c-0.6-0.4-1-0.9-1.3-1.4
				c-0.3-0.6-0.5-1.1-0.5-1.8c0-0.5,0.1-0.9,0.3-1.4c0.2-0.4,0.5-0.8,0.9-1.2H17c-0.3,0-0.5,0-0.7,0c-0.2,0-0.4,0.1-0.5,0.1
				s-0.2,0.1-0.3,0.2c-0.1,0.1-0.2,0.2-0.2,0.4v-2.8c0.1,0.2,0.1,0.3,0.2,0.4c0.1,0.1,0.2,0.2,0.3,0.2s0.3,0.1,0.5,0.1
				S16.7,543.9,17,543.9z M19.3,547.7c0,0.5,0.1,0.9,0.4,1.3c0.3,0.4,0.6,0.7,1.1,1c0.5,0.3,1,0.5,1.7,0.6s1.3,0.2,2.1,0.2
				c0.9,0,1.7-0.1,2.4-0.2s1.4-0.4,1.9-0.7c0.5-0.3,1-0.7,1.3-1.1c0.3-0.4,0.5-1,0.5-1.5c0-0.4-0.1-0.8-0.3-1.2
				c-0.2-0.4-0.6-0.8-1.2-1.1h-7.5c-0.8,0.3-1.3,0.6-1.7,1.1C19.5,546.6,19.3,547.1,19.3,547.7z"/>
			<path class="st0" d="M19.1,554.2c0.1,0.2,0.1,0.3,0.2,0.4c0.1,0.1,0.2,0.2,0.3,0.2s0.3,0.1,0.5,0.1s0.5,0,0.7,0h12.2
				c0.4,0,0.7,0,0.9-0.1s0.4-0.2,0.5-0.3l0.2,1.5H20.9c-0.3,0-0.5,0-0.7,0c-0.2,0-0.4,0.1-0.5,0.1s-0.2,0.1-0.3,0.2
				c-0.1,0.1-0.2,0.2-0.2,0.4V554.2z"/>
			<path class="st0" d="M30.9,563.3c0,0.6-0.1,1.2-0.4,1.6c-0.2,0.5-0.6,0.8-1,1.1s-0.9,0.5-1.5,0.7c-0.6,0.2-1.2,0.2-1.9,0.2v-6.6
				c-0.2,0-0.4,0-0.6,0s-0.4,0-0.7,0c-0.8,0-1.5,0.1-2.2,0.2s-1.3,0.4-1.8,0.7c-0.5,0.3-0.9,0.6-1.2,1s-0.4,0.8-0.4,1.3
				c0,0.4,0.1,0.8,0.3,1.1c0.2,0.3,0.5,0.6,0.9,0.9c0.4,0.3,0.8,0.5,1.3,0.8c0.5,0.2,1.1,0.4,1.7,0.6l-3-0.1c-0.5-0.5-0.9-1-1.1-1.6
				c-0.2-0.6-0.4-1.1-0.4-1.7c0-0.7,0.1-1.3,0.4-1.8c0.3-0.6,0.7-1,1.2-1.4c0.5-0.4,1.1-0.7,1.9-0.9c0.7-0.2,1.5-0.3,2.4-0.3
				c0.9,0,1.7,0.1,2.4,0.3c0.7,0.2,1.4,0.5,1.9,0.8s1,0.8,1.3,1.3C30.8,562,30.9,562.6,30.9,563.3z M26.4,560.4v5.3
				c0.6,0,1.2-0.1,1.7-0.2c0.5-0.1,1-0.3,1.4-0.5c0.4-0.2,0.7-0.5,0.9-0.8c0.2-0.3,0.3-0.7,0.3-1.1c0-0.4-0.1-0.7-0.3-1
				c-0.2-0.3-0.5-0.6-0.9-0.8c-0.4-0.2-0.8-0.4-1.4-0.6C27.6,560.6,27,560.5,26.4,560.4z"/>
			<path class="st0" d="M19.1,568.9c0.1,0.1,0.2,0.2,0.5,0.5c0.2,0.2,0.7,0.5,1.2,0.9l4.1,2.4l4.1-2.2c0.6-0.3,1-0.6,1.3-0.7
				c0.3-0.2,0.4-0.3,0.5-0.4v2.1c-0.1-0.1-0.2-0.1-0.4-0.2c-0.2,0-0.5,0-0.9,0.2l-3.6,2l2.8,1.7c0.4,0.2,0.8,0.4,1,0.5
				c0.2,0.1,0.4,0.1,0.6,0.1c0.1,0,0.2,0,0.3-0.1s0.1-0.1,0.2-0.1v1.5c-0.1-0.1-0.3-0.3-0.5-0.6c-0.2-0.3-0.7-0.5-1.2-0.9l-3.4-2
				l-4.8,2.6c-0.4,0.2-0.8,0.4-1.1,0.6c-0.3,0.2-0.5,0.4-0.6,0.6v-2.1c0,0,0.1,0.1,0.1,0.1c0,0,0.1,0.1,0.2,0.1c0.1,0,0.2,0,0.4,0
				c0.1,0,0.3-0.1,0.6-0.2l4.3-2.3l-3.5-2.1c-0.4-0.2-0.8-0.4-1-0.5c-0.3-0.1-0.5-0.1-0.6-0.1s-0.2,0.1-0.3,0.1
				c-0.1,0.1-0.1,0.1-0.1,0.1V568.9z"/>
		</g>
	</g>
</g>
</svg>
