<?xml version="1.0" encoding="utf-8"?>
<!-- Generator: Adobe Illustrator 25.4.1, SVG Export Plug-In . SVG Version: 6.00 Build 0)  -->
<svg version="1.1" id="レイヤー_1" xmlns="http://www.w3.org/2000/svg" xmlns:xlink="http://www.w3.org/1999/xlink" x="0px"
	 y="0px" viewBox="0 0 49 567" style="enable-background:new 0 0 49 567;" xml:space="preserve">
<style type="text/css">
	.st0{fill:#D2AA86;stroke:#D2AA86;stroke-width:0.25;stroke-miterlimit:10;}
</style>
<g>
	<g>
		<g>
			<path class="st0" d="M33.4,480c0,0.2,0,0.5-0.1,0.7c0,0.3-0.1,0.6-0.2,0.9c-0.1,0.3-0.2,0.6-0.4,1s-0.4,0.6-0.6,1l-4.8,0.2
				c2-0.3,3.4-0.8,4.4-1.5c0.9-0.7,1.4-1.5,1.4-2.4c0-0.5-0.1-1-0.4-1.5s-0.7-0.9-1.3-1.2c-0.6-0.3-1.3-0.6-2.2-0.8
				c-0.9-0.2-1.9-0.3-3.1-0.3c-1.2,0-2.2,0.1-3.1,0.3c-0.9,0.2-1.6,0.5-2.2,0.8s-1,0.8-1.3,1.2c-0.3,0.5-0.4,1-0.4,1.5
				c0,0.3,0.1,0.7,0.2,1c0.1,0.3,0.3,0.7,0.6,1s0.7,0.6,1.1,0.9c0.5,0.3,1,0.5,1.8,0.8h-2.3c-0.5-0.4-0.9-1-1.2-1.6
				c-0.3-0.6-0.5-1.3-0.5-2.1c0-0.7,0.2-1.4,0.6-2.1c0.4-0.6,0.9-1.2,1.5-1.7c0.7-0.5,1.4-0.8,2.3-1.1s1.9-0.4,2.9-0.4
				c1,0,2,0.1,2.9,0.4c0.9,0.3,1.7,0.6,2.3,1.1c0.7,0.5,1.2,1,1.5,1.6C33.2,478.7,33.4,479.3,33.4,480z"/>
			<path class="st0" d="M18.8,486.4c0.1,0.2,0.1,0.3,0.2,0.4c0.1,0.1,0.2,0.2,0.3,0.2c0.1,0.1,0.3,0.1,0.5,0.1c0.2,0,0.5,0,0.7,0
				h12.2c0.4,0,0.7,0,0.9-0.1c0.2-0.1,0.4-0.2,0.5-0.3l0.2,1.5H20.6c-0.3,0-0.5,0-0.7,0c-0.2,0-0.4,0.1-0.5,0.1
				c-0.1,0.1-0.2,0.1-0.3,0.2s-0.2,0.2-0.2,0.4V486.4z"/>
			<path class="st0" d="M30.7,495.5c0,0.6-0.1,1.2-0.4,1.6c-0.2,0.5-0.6,0.8-1,1.1c-0.4,0.3-0.9,0.5-1.5,0.7s-1.2,0.2-1.9,0.2v-6.6
				c-0.2,0-0.4,0-0.6,0s-0.4,0-0.7,0c-0.8,0-1.5,0.1-2.2,0.2s-1.3,0.4-1.8,0.7c-0.5,0.3-0.9,0.6-1.2,1c-0.3,0.4-0.4,0.8-0.4,1.3
				c0,0.4,0.1,0.8,0.3,1.1c0.2,0.3,0.5,0.6,0.9,0.9c0.4,0.3,0.8,0.5,1.3,0.8c0.5,0.2,1.1,0.4,1.7,0.6l-3-0.1c-0.5-0.5-0.9-1-1.1-1.6
				c-0.2-0.6-0.4-1.1-0.4-1.7c0-0.7,0.1-1.3,0.4-1.8c0.3-0.6,0.7-1,1.2-1.4c0.5-0.4,1.1-0.7,1.9-0.9s1.5-0.3,2.4-0.3
				c0.9,0,1.7,0.1,2.4,0.3c0.7,0.2,1.4,0.5,1.9,0.8c0.5,0.4,1,0.8,1.3,1.3C30.5,494.2,30.7,494.8,30.7,495.5z M26.1,492.6v5.3
				c0.6,0,1.2-0.1,1.7-0.2s1-0.3,1.4-0.5c0.4-0.2,0.7-0.5,0.9-0.8c0.2-0.3,0.3-0.7,0.3-1.1c0-0.4-0.1-0.7-0.3-1s-0.5-0.6-0.9-0.8
				s-0.8-0.4-1.4-0.6C27.3,492.8,26.8,492.7,26.1,492.6z"/>
			<path class="st0" d="M25.3,505.3l0.6,1.7h1.5c1,0,1.8-0.2,2.3-0.5c0.5-0.3,0.7-0.8,0.7-1.4c0-0.3-0.1-0.6-0.2-0.9
				s-0.4-0.6-0.7-0.8c-0.3-0.3-0.8-0.5-1.4-0.7c-0.6-0.2-1.3-0.4-2.2-0.6l3.5-0.1c0.4,0.4,0.7,0.9,1,1.4c0.2,0.6,0.4,1.1,0.4,1.7
				c0,0.9-0.3,1.6-0.9,2.2c-0.6,0.5-1.4,0.8-2.6,0.8h-6.6c-0.4,0-0.8,0-1.1,0.1s-0.6,0.2-0.7,0.3l-0.1-1.5h2.7
				c-0.3-0.1-0.7-0.2-1-0.4c-0.3-0.2-0.6-0.4-0.9-0.6c-0.3-0.2-0.5-0.5-0.6-0.8s-0.2-0.7-0.2-1.1c0-0.4,0.1-0.7,0.2-1.1
				s0.3-0.6,0.5-0.8c0.2-0.2,0.5-0.4,0.9-0.6c0.3-0.1,0.7-0.2,1.2-0.2c0.6,0,1.1,0.1,1.6,0.4c0.4,0.3,0.8,0.6,1.1,1s0.5,0.8,0.7,1.2
				C25,504.6,25.2,505,25.3,505.3z M21.5,502.8c-0.7,0-1.3,0.1-1.7,0.4s-0.7,0.7-0.7,1.2c0,0.3,0.1,0.6,0.2,0.9s0.4,0.6,0.7,0.8
				c0.3,0.2,0.7,0.5,1.2,0.6c0.5,0.2,1,0.3,1.7,0.3h2.6l-0.5-1.7c-0.1-0.2-0.2-0.5-0.3-0.8c-0.1-0.3-0.3-0.6-0.6-0.8
				c-0.3-0.3-0.6-0.5-1-0.7C22.7,502.9,22.1,502.8,21.5,502.8z"/>
			<path class="st0" d="M18.8,510.8c0.1,0.2,0.1,0.3,0.2,0.4c0.1,0.1,0.2,0.2,0.3,0.2c0.1,0.1,0.3,0.1,0.5,0.1c0.2,0,0.5,0,0.7,0
				h7.7c0.3,0,0.5,0,0.8,0s0.4,0,0.6-0.1s0.3-0.1,0.5-0.1c0.1-0.1,0.3-0.1,0.4-0.2l0.2,1.6h-2.8c0.4,0.1,0.7,0.3,1.1,0.4
				c0.3,0.2,0.6,0.3,0.9,0.5c0.2,0.2,0.4,0.4,0.6,0.7c0.1,0.3,0.2,0.6,0.2,0.9c0,0.3,0,0.6-0.1,0.9l-2,0c0.2-0.1,0.3-0.2,0.5-0.3
				c0.2-0.1,0.3-0.3,0.5-0.4s0.3-0.3,0.3-0.5s0.1-0.3,0.1-0.5c0-0.2-0.1-0.4-0.2-0.6s-0.3-0.3-0.6-0.5s-0.5-0.3-0.8-0.4
				c-0.3-0.1-0.6-0.2-1-0.3h-6.7c-0.3,0-0.5,0-0.7,0c-0.2,0-0.4,0.1-0.5,0.1c-0.1,0.1-0.2,0.1-0.3,0.2c-0.1,0.1-0.2,0.2-0.2,0.4
				V510.8z"/>
			<path class="st0" d="M20.4,524.2l3.9,0.2c-1.6,0.1-2.9,0.5-3.8,1.1c-0.9,0.6-1.4,1.4-1.4,2.4c0,0.4,0.1,0.8,0.2,1.1
				s0.4,0.6,0.7,0.8c0.3,0.2,0.6,0.4,1,0.5c0.4,0.1,0.8,0.2,1.2,0.2c0.5,0,1-0.1,1.3-0.2c0.4-0.2,0.7-0.4,0.9-0.6
				c0.2-0.2,0.4-0.5,0.6-0.7s0.3-0.4,0.3-0.6L26,527c0.1-0.2,0.2-0.4,0.4-0.7c0.2-0.3,0.4-0.6,0.7-0.8c0.3-0.3,0.7-0.5,1.1-0.7
				c0.4-0.2,1-0.3,1.6-0.3c0.5,0,1,0.1,1.4,0.2c0.4,0.1,0.8,0.3,1.2,0.6c0.3,0.3,0.6,0.6,0.8,1c0.2,0.4,0.3,0.9,0.3,1.4
				c0,0.5-0.1,1-0.3,1.6c-0.2,0.6-0.5,1.1-0.9,1.5l-4,0.1c1.5-0.2,2.7-0.5,3.5-1.1c0.8-0.5,1.3-1.2,1.3-2.2c0-0.4-0.1-0.7-0.2-1
				s-0.3-0.6-0.6-0.8c-0.2-0.2-0.5-0.4-0.9-0.5c-0.3-0.1-0.7-0.2-1-0.2c-0.4,0-0.8,0.1-1.1,0.2c-0.3,0.2-0.6,0.3-0.8,0.5
				s-0.4,0.4-0.5,0.7s-0.2,0.4-0.3,0.6l-0.8,1.6c-0.4,0.8-0.9,1.4-1.6,1.9c-0.6,0.5-1.5,0.7-2.5,0.7c-0.6,0-1.1-0.1-1.6-0.2
				c-0.5-0.2-0.9-0.4-1.3-0.7c-0.4-0.3-0.7-0.7-0.9-1.1c-0.2-0.4-0.3-0.9-0.3-1.5c0-0.7,0.1-1.4,0.4-2.1
				C19.4,525.2,19.8,524.7,20.4,524.2z"/>
			<path class="st0" d="M18.8,533.8c0.1,0.2,0.1,0.3,0.2,0.4c0.1,0.1,0.2,0.2,0.3,0.2c0.1,0.1,0.3,0.1,0.5,0.1c0.2,0,0.5,0,0.7,0
				h12.2c0.4,0,0.7,0,0.9-0.1c0.2-0.1,0.4-0.2,0.5-0.3l0.2,1.5H23.9l4.7,4c0.3,0.3,0.6,0.5,1,0.7c0.3,0.2,0.7,0.3,1,0.2v1.4
				c-0.1-0.1-0.2-0.2-0.3-0.4c-0.1-0.1-0.3-0.3-0.5-0.5c-0.2-0.2-0.4-0.4-0.7-0.7c-0.3-0.2-0.6-0.5-1-0.9l-2-1.7l-5,3
				c-0.5,0.3-0.9,0.5-1.2,0.7c-0.3,0.2-0.5,0.3-0.7,0.4c-0.2,0.1-0.3,0.2-0.3,0.2s-0.1,0.1-0.1,0.1v-2c0,0,0.1,0,0.2,0s0.2,0,0.3,0
				c0.1,0,0.3-0.1,0.6-0.2c0.2-0.1,0.5-0.2,0.9-0.4l4.4-2.6l-1.7-1.5h-2.8c-0.3,0-0.5,0-0.7,0c-0.2,0-0.4,0.1-0.5,0.1
				c-0.1,0.1-0.2,0.1-0.3,0.2s-0.2,0.2-0.2,0.4V533.8z"/>
			<path class="st0" d="M18.8,544.3c0.1,0.2,0.1,0.3,0.2,0.4c0.1,0.1,0.2,0.2,0.3,0.2c0.1,0.1,0.3,0.1,0.5,0.1c0.2,0,0.5,0,0.7,0
				h7.7c0.3,0,0.5,0,0.8,0s0.4,0,0.6-0.1s0.3-0.1,0.5-0.1c0.1-0.1,0.3-0.1,0.4-0.2l0.2,1.6H20.6c-0.3,0-0.5,0-0.7,0
				c-0.2,0-0.4,0.1-0.5,0.1c-0.1,0.1-0.2,0.1-0.3,0.2c-0.1,0.1-0.2,0.2-0.2,0.4V544.3z M34.3,545.7c0,0.2-0.1,0.4-0.3,0.6
				c-0.2,0.2-0.4,0.2-0.8,0.2s-0.6-0.1-0.8-0.2c-0.2-0.2-0.3-0.4-0.3-0.6c0-0.2,0.1-0.4,0.3-0.6c0.2-0.2,0.5-0.2,0.8-0.2
				s0.6,0.1,0.8,0.2C34.2,545.2,34.3,545.4,34.3,545.7z"/>
			<path class="st0" d="M18.8,549.2c0.1,0.2,0.1,0.3,0.2,0.4c0.1,0.1,0.2,0.2,0.3,0.2c0.1,0.1,0.3,0.1,0.5,0.1c0.2,0,0.5,0,0.7,0
				h7.7c0.3,0,0.5,0,0.8,0s0.4,0,0.6-0.1s0.3-0.1,0.5-0.1c0.1-0.1,0.3-0.1,0.4-0.2l0.2,1.6h-3.3c1,0.3,1.8,0.7,2.4,1.2
				s0.9,1.3,0.9,2.2c0,0.5-0.1,0.9-0.3,1.3c-0.2,0.4-0.5,0.7-0.8,1c-0.3,0.3-0.8,0.5-1.2,0.6c-0.5,0.1-1,0.2-1.6,0.2h-6.1
				c-0.3,0-0.5,0-0.7,0c-0.2,0-0.4,0.1-0.5,0.1c-0.1,0.1-0.2,0.1-0.3,0.2c-0.1,0.1-0.2,0.2-0.2,0.4v-2.8c0.1,0.2,0.1,0.3,0.2,0.4
				c0.1,0.1,0.2,0.2,0.3,0.2c0.1,0.1,0.3,0.1,0.5,0.1s0.5,0,0.7,0H27c1,0,1.9-0.2,2.4-0.6c0.6-0.4,0.9-0.9,0.9-1.6
				c0-0.4-0.1-0.8-0.3-1.2c-0.2-0.4-0.5-0.7-0.9-1c-0.4-0.3-0.9-0.5-1.4-0.7c-0.6-0.2-1.2-0.3-2-0.3h-5.1c-0.3,0-0.5,0-0.7,0
				c-0.2,0-0.4,0.1-0.5,0.1c-0.1,0.1-0.2,0.1-0.3,0.2c-0.1,0.1-0.2,0.2-0.2,0.4V549.2z"/>
		</g>
	</g>
	<g>
		<g>
			<path class="st0" d="M18.8,24.2c0.1,0.3,0.3,0.6,0.6,0.7c0.2,0.1,0.7,0.2,1.3,0.2h10.8c0.3,0,0.6,0,0.8,0c0.2,0,0.4-0.1,0.5-0.1
				s0.3-0.1,0.3-0.3c0.1-0.1,0.2-0.2,0.2-0.4v4c0,0.5-0.1,0.9-0.2,1.4s-0.4,0.9-0.7,1.3c-0.3,0.4-0.7,0.7-1.2,1
				c-0.5,0.3-1.1,0.4-1.9,0.4c-0.7,0-1.4-0.1-1.9-0.4c-0.5-0.3-1-0.6-1.3-1c-0.4-0.4-0.6-0.9-0.8-1.3c-0.2-0.5-0.3-1-0.3-1.5v-1.9
				h-4.3c-0.6,0-1,0.1-1.3,0.2c-0.2,0.1-0.4,0.3-0.6,0.7V24.2z M32.9,26.3h-7.6v1.6c0,0.4,0.1,0.8,0.2,1.2c0.1,0.4,0.4,0.7,0.7,1
				c0.3,0.3,0.7,0.5,1.2,0.7c0.5,0.2,1.1,0.3,1.8,0.3c1.2,0,2.1-0.3,2.8-0.8c0.6-0.6,1-1.3,1-2.4V26.3z"/>
			<path class="st0" d="M30.7,39.1c0,0.7-0.1,1.3-0.4,1.8c-0.3,0.5-0.7,1-1.2,1.4c-0.5,0.4-1.2,0.7-1.9,0.9
				c-0.7,0.2-1.5,0.3-2.4,0.3h0c-0.9,0-1.7-0.1-2.4-0.3c-0.7-0.2-1.4-0.5-1.9-0.9c-0.5-0.4-0.9-0.9-1.2-1.4
				c-0.3-0.5-0.4-1.2-0.4-1.8s0.1-1.3,0.4-1.8c0.3-0.5,0.7-1,1.2-1.4c0.5-0.4,1.2-0.7,1.9-0.9c0.7-0.2,1.5-0.3,2.4-0.3h0
				c0.9,0,1.7,0.1,2.4,0.3c0.7,0.2,1.4,0.5,1.9,0.9c0.5,0.4,0.9,0.9,1.2,1.4C30.5,37.9,30.7,38.5,30.7,39.1z M24.7,35.9
				c-0.8,0-1.6,0.1-2.3,0.2s-1.3,0.4-1.8,0.7c-0.5,0.3-0.9,0.6-1.2,1c-0.3,0.4-0.4,0.8-0.4,1.3s0.1,0.9,0.4,1.3s0.7,0.7,1.2,1
				c0.5,0.3,1.1,0.5,1.8,0.7s1.5,0.2,2.3,0.2c0.8,0,1.6-0.1,2.3-0.2s1.3-0.4,1.8-0.7c0.5-0.3,0.9-0.6,1.2-1c0.3-0.4,0.4-0.8,0.4-1.3
				s-0.1-0.9-0.4-1.3c-0.3-0.4-0.7-0.7-1.2-1c-0.5-0.3-1.1-0.5-1.8-0.7S25.5,35.9,24.7,35.9z"/>
			<path class="st0" d="M18.8,45.8c0.1,0.2,0.1,0.3,0.2,0.4c0.1,0.1,0.2,0.2,0.3,0.2c0.1,0.1,0.3,0.1,0.5,0.1c0.2,0,0.5,0,0.7,0h7.7
				c0.3,0,0.5,0,0.8,0s0.4,0,0.6-0.1s0.3-0.1,0.5-0.1c0.1-0.1,0.3-0.1,0.4-0.2l0.2,1.6H20.6c-0.3,0-0.5,0-0.7,0
				c-0.2,0-0.4,0.1-0.5,0.1c-0.1,0.1-0.2,0.1-0.3,0.2c-0.1,0.1-0.2,0.2-0.2,0.4V45.8z M34.3,47.1c0,0.2-0.1,0.4-0.3,0.6
				c-0.2,0.2-0.4,0.2-0.8,0.2s-0.6-0.1-0.8-0.2c-0.2-0.2-0.3-0.4-0.3-0.6c0-0.2,0.1-0.4,0.3-0.6c0.2-0.2,0.5-0.2,0.8-0.2
				s0.6,0.1,0.8,0.2C34.2,46.7,34.3,46.9,34.3,47.1z"/>
			<path class="st0" d="M18.8,50.6c0.1,0.2,0.1,0.3,0.2,0.4c0.1,0.1,0.2,0.2,0.3,0.2c0.1,0.1,0.3,0.1,0.5,0.1c0.2,0,0.5,0,0.7,0h7.7
				c0.3,0,0.5,0,0.8,0s0.4,0,0.6-0.1s0.3-0.1,0.5-0.1c0.1-0.1,0.3-0.1,0.4-0.2l0.2,1.6h-3.3c1,0.3,1.8,0.7,2.4,1.2s0.9,1.3,0.9,2.2
				c0,0.5-0.1,0.9-0.3,1.3c-0.2,0.4-0.5,0.7-0.8,1c-0.3,0.3-0.8,0.5-1.2,0.6c-0.5,0.1-1,0.2-1.6,0.2h-6.1c-0.3,0-0.5,0-0.7,0
				c-0.2,0-0.4,0.1-0.5,0.1c-0.1,0.1-0.2,0.1-0.3,0.2c-0.1,0.1-0.2,0.2-0.2,0.4v-2.8c0.1,0.2,0.1,0.3,0.2,0.4
				c0.1,0.1,0.2,0.2,0.3,0.2c0.1,0.1,0.3,0.1,0.5,0.1s0.5,0,0.7,0H27c1,0,1.9-0.2,2.4-0.6c0.6-0.4,0.9-0.9,0.9-1.6
				c0-0.4-0.1-0.8-0.3-1.2c-0.2-0.4-0.5-0.7-0.9-1c-0.4-0.3-0.9-0.5-1.4-0.7c-0.6-0.2-1.2-0.3-2-0.3h-5.1c-0.3,0-0.5,0-0.7,0
				c-0.2,0-0.4,0.1-0.5,0.1c-0.1,0.1-0.2,0.1-0.3,0.2c-0.1,0.1-0.2,0.2-0.2,0.4V50.6z"/>
			<path class="st0" d="M30.6,63.4l2.9,1.1h-2.9v2.6h-0.2v-2.6h-8.9c-0.5,0-0.8,0-1.1,0.1c-0.3,0-0.5,0.1-0.7,0.2s-0.3,0.2-0.4,0.3
				s-0.1,0.3-0.1,0.4c0,0.3,0.1,0.6,0.3,0.8c0.2,0.2,0.6,0.4,1,0.6l-0.2,0.2c-0.4-0.2-0.8-0.4-1-0.7c-0.3-0.2-0.4-0.6-0.4-1.1
				c0-0.7,0.3-1.2,0.8-1.5c0.6-0.3,1.4-0.4,2.4-0.4h8.4v-1.5h0.2V63.4z"/>
			<path class="st0" d="M26.1,75.2c1.1,0,2.1,0.1,3,0.3c0.9,0.2,1.7,0.5,2.3,0.8c0.6,0.3,1.1,0.8,1.5,1.3c0.4,0.5,0.5,1,0.5,1.6
				c0,0.6-0.2,1.1-0.5,1.6c-0.4,0.5-0.8,0.9-1.5,1.3c-0.6,0.3-1.4,0.6-2.3,0.8c-0.9,0.2-1.9,0.3-3,0.3c-1.1,0-2.1-0.1-3-0.3
				c-0.9-0.2-1.7-0.5-2.3-0.8c-0.6-0.3-1.1-0.8-1.5-1.3s-0.5-1-0.5-1.6c0-0.6,0.2-1.1,0.5-1.6c0.4-0.5,0.8-0.9,1.5-1.3
				s1.4-0.6,2.3-0.8C24,75.3,25,75.2,26.1,75.2z M26.1,76.5c-2.2,0-3.9,0.2-5.2,0.7s-1.9,1.1-1.9,2c0,0.9,0.6,1.5,1.9,2
				s3,0.7,5.2,0.7c2.2,0,3.9-0.2,5.2-0.7s1.9-1.1,1.9-2c0-0.9-0.6-1.5-1.9-2S28.3,76.5,26.1,76.5z"/>
			<path class="st0" d="M33.3,88.4L33.3,88.4l-12,0c-0.5,0-0.8,0-1.1,0c-0.3,0-0.5,0.1-0.7,0.1c-0.2,0.1-0.3,0.1-0.4,0.2
				c-0.1,0.1-0.2,0.2-0.2,0.4v-2.9c0.1,0.2,0.1,0.3,0.2,0.4c0.1,0.1,0.2,0.2,0.4,0.3c0.2,0.1,0.4,0.1,0.7,0.1c0.3,0,0.7,0,1.1,0h8.9
				c0.2,0,0.4,0,0.6,0c0.2,0,0.3-0.1,0.4-0.2c0.1-0.1,0.2-0.3,0.3-0.5s0.1-0.5,0.1-0.9c0.2,0.6,0.5,1.2,0.8,1.6
				C32.7,87.6,33,88,33.3,88.4z"/>
		</g>
	</g>
</g>
</svg>
