<?xml version="1.0" encoding="utf-8"?>
<!-- Generator: Adobe Illustrator 25.4.1, SVG Export Plug-In . SVG Version: 6.00 Build 0)  -->
<svg version="1.1" id="レイヤー_1" xmlns="http://www.w3.org/2000/svg" xmlns:xlink="http://www.w3.org/1999/xlink" x="0px"
	 y="0px" viewBox="0 0 512 14" style="enable-background:new 0 0 512 14;" xml:space="preserve">
<style type="text/css">
	.st0{fill:#D37176;}
</style>
<g>
	<g>
		<path class="st0" d="M3.5,9.1l1.1-8.4l0.1-0.4h2.4L4.8,13.9H2.3L0,0.3h2.3l0.1,0.2L3.5,9.1z"/>
		<path class="st0" d="M13.4,0.3h0.5v0.5v1.3v0.5h-0.5h-2.7V6h1.4h0.5v0.5v1.3v0.5h-0.5h-1.4v3.4h2.7h0.5v0.5v1.3v0.5h-0.5H8.9H8.4
			v-0.5V0.8V0.3h0.5H13.4z"/>
		<path class="st0" d="M17.3,0.3h0.5v0.5v10.9h2.6h0.5v0.5v1.3v0.5h-0.5H16h-0.5v-0.5V0.8V0.3H16H17.3z"/>
		<path class="st0" d="M25.3,9.1l1.1-8.4l0.1-0.4h2.4l-2.3,13.6H24L21.8,0.3h2.3l0.1,0.2L25.3,9.1z"/>
		<path class="st0" d="M35.2,0.3h0.5v0.5v1.3v0.5h-0.5h-2.7V6h1.4h0.5v0.5v1.3v0.5h-0.5h-1.4v3.4h2.7h0.5v0.5v1.3v0.5h-0.5h-4.5
			h-0.5v-0.5V0.8V0.3h0.5H35.2z"/>
		<path class="st0" d="M37.4,2.5h-0.5V2.1V0.8V0.3h0.5h1.9h1.3h1.9h0.5v0.5v1.3v0.5h-0.5h-1.4v10.8v0.5h-0.5h-1.3h-0.5v-0.5V2.5
			H37.4z"/>
		<path class="st0" d="M54.4,0.3h0.5v0.5v1.3v0.5h-0.5h-2.9V6h1.6h0.5v0.5v1.3v0.5h-0.5h-1.6v5.2v0.5h-0.5h-1.3h-0.5v-0.5V0.8V0.3
			h0.5H54.4z"/>
		<path class="st0" d="M58.2,0.3h0.5v0.5v12.6v0.5h-0.5h-1.3h-0.5v-0.5V0.8V0.3h0.5H58.2z"/>
		<path class="st0" d="M62.1,0.3h0.4l0.1,0.3l0.8,2.6l0.3,1.1L64,3.2l0.8-2.6l0.1-0.3h0.4h1.3h0.7l-0.2,0.6l-1.9,6.2l1.9,6.2
			l0.2,0.6h-0.7h-1.3h-0.4l-0.1-0.3L64,11l-0.3-1.1L63.4,11l-0.8,2.6l-0.1,0.3h-0.4h-1.3h-0.7l0.2-0.6l1.9-6.2l-1.9-6.2l-0.2-0.6
			h0.7H62.1z"/>
		<path class="st0" d="M75.3,0.3h0.5v0.5v10.9h2.6h0.5v0.5v1.3v0.5h-0.5H74h-0.5v-0.5V0.8V0.3H74H75.3z"/>
		<path class="st0" d="M82.1,0.3h0.5v0.5v12.6v0.5h-0.5h-1.3h-0.5v-0.5V0.8V0.3h0.5H82.1z"/>
		<path class="st0" d="M85,13.9h-0.5v-0.5V7.7V4.9V0.8V0.3H85h1.3h0.8c0.9,0,1.7,0.3,2.4,1c0.7,0.7,1,1.4,1,2.4v2.5
			c0,0.9-0.3,1.7-1,2.4c-0.7,0.7-1.5,1-2.4,1h-0.3v3.9v0.5h-0.5H85z M86.8,7.2h0.3c0.3,0,0.6-0.1,0.8-0.3c0.2-0.2,0.3-0.5,0.3-0.8
			V3.6c0-0.3-0.1-0.6-0.3-0.8c-0.2-0.2-0.5-0.3-0.8-0.3h-0.3V7.2z"/>
		<path class="st0" d="M103.1,9.3v1.3c0,0.9-0.3,1.7-1,2.3c-0.7,0.7-1.5,1-2.4,1h-2.8V0.3h2.6c0.9,0,1.7,0.3,2.4,1
			c0.7,0.6,1,1.4,1,2.4v1.3c0,0.9-0.5,1.6-0.9,2.1C102.4,7.5,103.1,8.4,103.1,9.3z M99.6,2.5h-0.4V6h0.4c0.6,0,1.1-0.5,1.1-1.1V3.6
			C100.7,3,100.2,2.5,99.6,2.5z M99.7,8.2h-0.5v3.4h0.5c0.6,0,1.1-0.5,1.1-1.1V9.3C100.8,8.7,100.3,8.2,99.7,8.2z"/>
		<path class="st0" d="M106.9,11.8c-0.1,0.7-0.3,1.4-0.4,2.1h-2.4l2.4-13.6h3l2.4,13.6h-2.4c-0.1-0.7-0.3-1.4-0.4-2.1H106.9z
			 M108,3.2l-0.8,6.5h1.6L108,3.2z"/>
		<path class="st0" d="M115,0.3h0.5v0.5v10.9h2.6h0.5v0.5v1.3v0.5h-0.5h-4.4h-0.5v-0.5V0.8V0.3h0.5H115z"/>
		<path class="st0" d="M120,0.3h3.7l1.5,9.1l1.5-9.1h3.7v13.6h-2.4V4.2l-1.7,9.7h-2.2l-1.8-9.7v9.7c0.2,0-1.7,0-2.4,0V0.3z"/>
	</g>
	<g>
		<path class="st0" d="M447.1,0.1h3.7l1.5,9.1l1.5-9.1h3.7v13.6h-2.4V4l-1.7,9.7h-2.2L449.4,4v9.7c0.2,0-1.7,0-2.4,0V0.1z"/>
		<path class="st0" d="M461.2,0.1h0.5v0.5v12.6v0.5h-0.5h-1.3h-0.5v-0.5V0.6V0.1h0.5H461.2z"/>
		<path class="st0" d="M468.7,1c0.6,0.6,0.9,1.3,0.9,2.1v0.3v0.5h-0.5h-1.3h-0.5V3.4V3.1c0-0.2-0.1-0.4-0.2-0.5
			c-0.1-0.2-0.3-0.2-0.6-0.2c-0.2,0-0.4,0.1-0.6,0.2c-0.2,0.2-0.2,0.3-0.2,0.5v7.6c0,0.2,0.1,0.4,0.2,0.5c0.2,0.2,0.3,0.2,0.6,0.2
			c0.2,0,0.4-0.1,0.6-0.2c0.2-0.2,0.2-0.3,0.2-0.5v-0.3V9.9h0.5h1.3h0.5v0.5v0.3c0,0.8-0.3,1.5-0.9,2.1s-1.3,0.9-2.2,0.9
			c-0.9,0-1.6-0.3-2.2-0.9c-0.6-0.6-0.9-1.3-0.9-2.1V3.1c0-0.8,0.3-1.5,0.9-2.1c0.6-0.6,1.3-0.9,2.2-0.9C467.3,0.1,468,0.4,468.7,1z
			"/>
		<path class="st0" d="M472.9,0.1h0.5v0.5v5.2h1.6V0.6V0.1h0.5h1.3h0.5v0.5v12.6v0.5h-0.5h-1.3H475v-0.5V8h-1.6v5.2v0.5h-0.5h-1.3
			h-0.5v-0.5V0.6V0.1h0.5H472.9z"/>
		<path class="st0" d="M481,0.1h0.5v0.5v12.6v0.5H481h-1.3h-0.5v-0.5V0.6V0.1h0.5H481z"/>
		<path class="st0" d="M484.9,0.1h0.4l0.1,0.3l0.8,2.6l0.3,1.1l0.3-1.1l0.8-2.6l0.1-0.3h0.4h1.3h0.7l-0.2,0.6L488,6.9l1.9,6.2
			l0.2,0.6h-0.7h-1.3h-0.4l-0.1-0.3l-0.8-2.6l-0.3-1.1l-0.3,1.1l-0.8,2.6l-0.1,0.3h-0.4h-1.3h-0.7L483,13l1.9-6.2L483,0.7l-0.2-0.6
			h0.7H484.9z"/>
		<path class="st0" d="M494.3,13.7c-1.7,0-3-1.3-3-3V9.2h2.2v1.4c0,0.4,0.3,0.8,0.8,0.8c0.4,0,0.7-0.3,0.7-0.8V10
			c0-0.7-0.6-1.2-1-1.6c-0.6-0.8-1.7-1.6-2-2.1c-0.5-0.6-0.7-1.6-0.7-2.1l0-1c0-1.7,1.4-3,3.1-3c1.7,0,2.9,1.3,2.9,3v1.4h-2.2V3.1
			c0-0.4-0.3-0.8-0.7-0.8c-0.4,0-0.8,0.3-0.8,0.8v0.6c0,0.2,0.2,0.8,0.4,1.1c0.4,0.5,0.9,0.9,1.2,1.2c0.9,0.9,1.3,1.2,1.6,1.7
			c0.4,0.6,0.6,1.4,0.6,2l0,1C497.2,12.4,495.9,13.7,494.3,13.7z"/>
		<path class="st0" d="M500.5,0.1h0.5v0.5v10.9h2.6h0.5v0.5v1.3v0.5h-0.5h-4.4h-0.5v-0.5V0.6V0.1h0.5H500.5z"/>
		<path class="st0" d="M507.4,0.1c0.2,1.5,0.8,3.8,1.1,5c0.4-1.7,0.8-3.8,1.1-5h2.4c-0.3,1.1-2.3,8.1-2.3,8.1v5.5h-2.3V8.3
			c-1.1-3.7-1.8-6.5-2.3-8.2H507.4z"/>
	</g>
</g>
</svg>
