<?xml version="1.0" encoding="utf-8"?>
<!-- Generator: Adobe Illustrator 25.4.1, SVG Export Plug-In . SVG Version: 6.00 Build 0)  -->
<svg version="1.1" id="レイヤー_1" xmlns="http://www.w3.org/2000/svg" xmlns:xlink="http://www.w3.org/1999/xlink" x="0px"
	 y="0px" viewBox="0 0 208 25" style="enable-background:new 0 0 208 25;" xml:space="preserve">
<style type="text/css">
	.st0{fill:#D2AA86;}
	.st1{fill:#FFFFFF;}
</style>
<path class="st0" d="M89.5,25H12.6C5.7,25,0.1,19.4,0.1,12.5v0C0.1,5.6,5.7,0,12.6,0l76.9,0c6.9,0,12.5,5.6,12.5,12.5v0
	C101.9,19.4,96.3,25,89.5,25z"/>
<path class="st0" d="M195.4,25h-69.9c-6.9,0-12.5-5.6-12.5-12.5v0C113,5.6,118.6,0,125.5,0l69.9,0c6.9,0,12.5,5.6,12.5,12.5v0
	C207.9,19.4,202.3,25,195.4,25z"/>
<g>
	<path class="st1" d="M136.4,11.3c0,2-1.6,3.2-3.9,3.2h-4.9v3.4h-1.7V8.2h6.6C134.8,8.2,136.4,9.3,136.4,11.3z M134.7,11.3
		c0-1.2-0.9-1.7-2.4-1.7h-4.8v3.5h4.8C133.7,13.1,134.7,12.6,134.7,11.3z"/>
	<path class="st1" d="M147.3,15.5h-6.2l-1.2,2.3h-1.8l5.3-9.7h1.8l5.2,9.7h-1.8L147.3,15.5z M146.6,14.1l-2.4-4.5l-2.4,4.5H146.6z"
		/>
	<path class="st1" d="M160.7,14h-3.3v2.9h-1.4V14h-3.3v-1.3h3.3V9.8h1.4v2.9h3.3V14z"/>
	<path class="st1" d="M172.1,14h-3.3v2.9h-1.4V14h-3.3v-1.3h3.3V9.8h1.4v2.9h3.3V14z"/>
	<path class="st1" d="M183.4,14h-3.3v2.9h-1.4V14h-3.3v-1.3h3.3V9.8h1.4v2.9h3.3V14z"/>
	<path class="st1" d="M194.7,14h-3.3v2.9h-1.4V14h-3.3v-1.3h3.3V9.8h1.4v2.9h3.3V14z"/>
</g>
<g>
	<path class="st1" d="M23.7,15c0,1.8-1.8,3.2-5.1,3.2c-2.3,0-4.3-0.7-5.8-2l1-1.2c1.3,1.2,2.9,1.7,4.8,1.7c2.2,0,3.4-0.6,3.4-1.6
		c0-1-1.2-1.3-3.7-1.5c-2.7-0.2-5.2-0.8-5.2-2.8c0-1.9,2.2-3,5-3c2.1,0,3.9,0.6,5.1,1.6l-1.1,1.1c-1-0.9-2.4-1.3-4-1.3
		c-1.5,0-3.4,0.4-3.4,1.4c0,1,1.6,1.2,3.7,1.4C21.6,12.3,23.7,13,23.7,15z"/>
	<path class="st1" d="M37.3,11.3c0,2-1.6,3.2-3.9,3.2h-4.9v3.4h-1.7V8.2h6.6C35.7,8.2,37.3,9.3,37.3,11.3z M35.6,11.3
		c0-1.2-0.9-1.7-2.4-1.7h-4.8v3.5h4.8C34.7,13.1,35.6,12.6,35.6,11.3z"/>
	<path class="st1" d="M42.1,9.6v2.9h6.6V14h-6.6v3.9h-1.7V8.2h9.5v1.5H42.1z"/>
	<path class="st1" d="M62.7,16.7c1.9,0,3.3-0.6,3.3-1.9c0-1.3-1.4-1.9-3.5-1.9c-1.2,0-2.2,0.2-3.5,0.7l-1.3-0.5l0.8-5h8.1v1.4h-6.8
		l-0.5,2.9c1.2-0.6,2.3-0.8,3.7-0.8c2.5,0,4.6,1,4.6,3.2c0,1.8-1.8,3.3-5,3.3c-2.3,0-4.2-0.9-5.4-2.2l1.1-0.9
		C59.2,16,60.8,16.7,62.7,16.7z"/>
	<path class="st1" d="M70.1,13c0-3.2,2.1-5.1,5.8-5.1c3.6,0,5.7,2,5.7,5.1s-2.1,5.1-5.7,5.1C72.3,18.1,70.1,16.2,70.1,13z M80,13
		c0-2.4-1.6-3.7-4.1-3.7c-2.5,0-4.1,1.2-4.1,3.7c0,2.4,1.6,3.7,4.1,3.7C78.4,16.7,80,15.4,80,13z"/>
	<path class="st1" d="M92.6,14h-3.3v2.9H88V14h-3.3v-1.3H88V9.8h1.4v2.9h3.3V14z"/>
</g>
</svg>
