<?xml version="1.0" encoding="utf-8"?>
<!-- Generator: Adobe Illustrator 25.4.1, SVG Export Plug-In . SVG Version: 6.00 Build 0)  -->
<svg version="1.1" id="レイヤー_1" xmlns="http://www.w3.org/2000/svg" xmlns:xlink="http://www.w3.org/1999/xlink" x="0px"
	 y="0px" viewBox="0 0 447 203" style="enable-background:new 0 0 447 203;" xml:space="preserve">
<style type="text/css">
	.st0{fill:none;stroke:#000000;stroke-miterlimit:10;}
</style>
<g>
	<g>
		<path d="M13.2,141.9l4.1-31.4l0.3-1.5h8.7l-8.4,50.6H8.6L0.5,109h8.4l0.3,0.9L13.2,141.9z"/>
		<path d="M47,109h1.8v1.8v4.7v1.8H47h-9.8v12.8h5.1h1.8v1.8v4.7v1.8h-1.8h-5.1v12.8H47h1.8v1.8v4.7v1.8H47H30.7h-1.8v-1.8v-46.9
			V109h1.8H47z"/>
		<path d="M59.1,109h1.8v1.8v40.4h9.4h1.8v1.8v4.7v1.8h-1.8H54.4h-1.8v-1.8v-46.9V109h1.8H59.1z"/>
		<path d="M86,141.9l4.1-31.4l0.3-1.5H99l-8.4,50.6h-9.3L73.3,109h8.4l0.3,0.9L86,141.9z"/>
		<path d="M119.8,109h1.8v1.8v4.7v1.8h-1.8H110v12.8h5.1h1.8v1.8v4.7v1.8h-1.8H110v12.8h9.8h1.8v1.8v4.7v1.8h-1.8h-16.3h-1.8v-1.8
			v-46.9V109h1.8H119.8z"/>
		<path d="M125.7,117.3h-1.8v-1.8v-4.7V109h1.8h7h4.7h7h1.8v1.8v4.7v1.8h-1.8h-5.2v40.4v1.8h-1.8h-4.7h-1.8v-1.8v-40.4H125.7z"/>
		<path d="M183.3,109h1.8v1.8v4.7v1.8h-1.8h-10.4v12.8h5.7h1.8v1.8v4.7v1.8h-1.8h-5.7v19.3v1.8h-1.8h-4.7h-1.8v-1.8v-46.9V109h1.8
			H183.3z"/>
		<path d="M194.9,109h1.8v1.8v46.9v1.8h-1.8h-4.7h-1.8v-1.8v-46.9V109h1.8H194.9z"/>
		<path d="M206.9,109h1.3l0.4,1.3l2.9,9.6l1.2,4l1.2-4l2.9-9.6l0.4-1.3h1.4h4.9h2.4l-0.7,2.3l-7,22.9l7,22.9l0.7,2.4h-2.4h-4.9h-1.4
			l-0.4-1.3l-2.9-9.6l-1.2-4l-1.2,4l-2.9,9.6l-0.4,1.3h-1.3H202h-2.5l0.7-2.4l6.9-22.9l-6.9-22.9l-0.7-2.3h2.5H206.9z"/>
		<path d="M250.6,109h1.8v1.8v40.4h9.4h1.8v1.8v4.7v1.8h-1.8h-15.9H244v-1.8v-46.9V109h1.8H250.6z"/>
		<path d="M273.3,109h1.8v1.8v46.9v1.8h-1.8h-4.7h-1.8v-1.8v-46.9V109h1.8H273.3z"/>
		<path d="M281.6,159.6h-1.8v-1.8v-21.1v-10.6v-15.2V109h1.8h4.7h2.9c3.4,0,6.3,1.2,8.8,3.6s3.6,5.3,3.6,8.8v9.4
			c0,3.4-1.2,6.3-3.6,8.8s-5.3,3.6-8.8,3.6h-1.1v14.6v1.8h-1.8H281.6z M288.1,134.8h1.1c1.1,0,2.1-0.4,2.9-1.2
			c0.8-0.8,1.2-1.7,1.2-2.9v-9.4c0-1.1-0.4-2.1-1.2-2.9c-0.8-0.8-1.7-1.2-2.9-1.2h-1.1V134.8z"/>
		<path d="M343.2,142.5v4.7c0,3.4-1.2,6.3-3.6,8.7c-2.4,2.4-5.3,3.6-8.7,3.6h-10V109h9.4c3.4,0,6.3,1.2,8.7,3.6
			c2.4,2.4,3.6,5.3,3.6,8.8v4.7c0,3.3-1.7,6-3.4,7.9C340.8,135.9,343.2,139.2,343.2,142.5z M330.5,117.3h-1.4v12.8h1.4
			c2.2,0,4-1.9,4-4v-4.7C334.6,119.2,332.7,117.3,330.5,117.3z M330.8,138.4h-1.7v12.8h1.7c2.2,0,4-1.9,4-4v-4.7
			C334.8,140.3,333,138.4,330.8,138.4z"/>
		<path d="M355,151.7c-0.5,2.6-1,5.2-1.5,7.8h-8.6l8.7-50.6h10.9l8.7,50.6h-8.6c-0.5-2.6-1-5.3-1.5-7.9H355z M359,119.7l-2.8,24.1
			h5.7L359,119.7z"/>
		<path d="M382.4,109h1.8v1.8v40.4h9.4h1.8v1.8v4.7v1.8h-1.8h-15.9h-1.8v-1.8v-46.9V109h1.8H382.4z"/>
		<path d="M398.3,109h13.6l5.4,34l5.3-34h13.6v50.6h-8.6v-36.2l-6.3,36.2h-7.8l-6.5-36.2v36.2c0.7,0-6.1,0-8.6,0V109z"/>
	</g>
	<g>
		<g>
			<path d="M50.1,202.3h-1.9l2.9-13.6h4.4c1.3,0,2.3,0.3,3,1.1c0.7,0.7,1.1,1.6,1.1,2.7c0,1.2-0.4,2.3-1.2,3.1
				c-0.8,0.9-2,1.3-3.5,1.3h-3.6L50.1,202.3z M54.4,195.2c1.3,0,1.9-0.2,2.4-0.7c0.5-0.5,0.7-1.1,0.7-1.9c0-0.7-0.2-1.3-0.7-1.7
				c-0.4-0.4-0.9-0.5-1.9-0.5h-2.4l-1,4.8H54.4z"/>
			<path d="M62.4,202.3h-1.9l2.9-13.6h1.9L62.4,202.3z"/>
			<path d="M74.7,202.3l-3.8-9.2c-0.3-0.7-0.4-0.9-0.6-1.5c0,0-0.1-0.1-0.1-0.3c0,0.6-0.3,2.2-0.5,3.1l-1.7,7.9h-1.8l2.9-13.6h1.9
				l3.6,8.8c0.3,0.8,0.6,1.6,0.8,2.3c0.1-0.9,0.2-1.6,0.6-3.3l1.6-7.7h1.8l-2.9,13.6H74.7z"/>
			<path d="M91.5,202.3h-2.2l-3.4-6.8l-2.4,2.1l-1,4.6h-1.9l2.9-13.6h1.9l-1.4,6.6l6.7-6.6h2.6l-6.1,5.5L91.5,202.3z"/>
			<path d="M105,202.3l-1.1-7.7c-0.2-1.1-0.3-2.4-0.4-3.4c-0.2,1.5-0.3,1.7-0.7,3.4l-1.6,7.7h-1.8l2.9-13.6h2.5l1.1,9.5
				c0.1,0.8,0.2,1.5,0.2,2.2c0.3-0.6,0.4-0.9,1-2l5.3-9.7h2.5l-2.9,13.6h-1.8l1.6-7.4c0.3-1.6,0.5-2.1,0.9-3.7
				c-0.7,1.5-1.3,2.7-1.8,3.4l-4.3,7.7H105z"/>
			<path d="M119,198.5l-2,3.8h-2.1l7.4-13.6h2.2l2.1,13.6h-1.9l-0.6-3.8H119z M123.2,190.6l-3.3,6.4h4.2L123.2,190.6z"/>
			<path d="M141.9,188.7l-1.8,8.4c-0.5,2.3-0.9,3.1-1.8,4c-1,1-2.4,1.5-3.9,1.5c-2.8,0-4.7-1.5-4.7-3.7c0-0.4,0.1-1.5,0.2-2l1.8-8.2
				h1.9l-1.7,8.1c-0.2,1-0.3,1.4-0.3,1.8c0,1.4,1.1,2.4,2.9,2.4c1.1,0,2.1-0.4,2.7-1.2c0.5-0.7,0.6-1.1,1-2.9l1.7-8.2H141.9z"/>
			<path d="M155.1,188.7l-6.8,13.6h-2.1l-2.4-13.6h2.1l1.4,9.3c0.2,1.2,0.2,1.9,0.3,2.6c0.2-0.8,0.4-1.3,1-2.5l4.4-9.4H155.1z"/>
			<path d="M166,190.4h-6.6l-0.8,3.9h6.5l-0.3,1.7h-6.5l-1,4.6h7.3l-0.3,1.7H155l2.9-13.6h8.5L166,190.4z"/>
			<path d="M171.6,202.3h-1.9l2.5-11.9h-4l0.4-1.7h9.9l-0.4,1.7h-3.9L171.6,202.3z"/>
			<path d="M182.5,202.3h-1.9l2.5-11.9h-4l0.4-1.7h9.9l-0.4,1.7H185L182.5,202.3z"/>
			<path d="M199.9,190.4h-6.6l-0.8,3.9h6.5l-0.3,1.7h-6.5l-1,4.6h7.3l-0.3,1.7h-9.3l2.9-13.6h8.5L199.9,190.4z"/>
		</g>
	</g>
	<g>
		<g>
			<path d="M269.4,188.7h4.7c1.6,0,2.5,0.2,3.1,0.8c0.7,0.6,1.1,1.5,1.1,2.6c0,1.5-0.7,2.5-2.3,3.1c1.3,0.5,1.9,1.4,1.9,2.8
				c0,1.3-0.6,2.6-1.7,3.3c-1,0.7-2.3,1-4.5,1h-5.1L269.4,188.7z M271.7,200.6c1.5,0,2.2-0.1,2.9-0.5c0.7-0.4,1.2-1.2,1.2-2
				c0-0.7-0.3-1.3-0.7-1.6c-0.5-0.3-1.1-0.4-2.4-0.4h-2.8l-1,4.5H271.7z M273,194.4c1.1,0,1.8-0.1,2.4-0.5c0.6-0.4,0.9-1,0.9-1.7
				c0-0.5-0.2-1-0.6-1.3c-0.4-0.3-0.9-0.4-2-0.4h-2.8l-0.8,4H273z"/>
			<path d="M282,202.3h-1.9l2.9-13.6h4.9c1.6,0,2.5,0.2,3.2,0.8c0.7,0.6,1.2,1.6,1.2,2.8c0,2-1,3.1-3,3.6c1.3,0.3,1.7,0.8,1.7,2.4
				c0,0.4,0,0.5,0,0.7l-0.1,1.1c0,0.3,0,0.3,0,0.9c0,0.7,0.1,1,0.4,1.5h-2.3c-0.1-0.4-0.1-0.6-0.1-1c0-0.3,0-0.8,0.1-1.3l0.1-0.9
				c0-0.2,0-0.4,0-0.7c0-1.4-0.7-1.9-2.4-1.9h-3.2L282,202.3z M286.4,194.8c1.5,0,2.3-0.2,2.9-0.6c0.6-0.4,0.9-1.1,0.9-1.9
				c0-1.3-0.7-2-2.4-2h-3.4l-0.9,4.4H286.4z"/>
			<path d="M295.8,202.3h-1.9l2.9-13.6h1.9L295.8,202.3z"/>
			<path d="M310.9,192.9c-0.1-1.8-1.3-2.9-3.2-2.9c-3,0-5.3,3-5.3,6.7c0,2.7,1.3,4.2,3.6,4.2c2,0,3.5-1.1,4.2-3.1h2
				c-1,3.1-3.2,4.8-6.3,4.8c-3.4,0-5.5-2.2-5.5-5.9c0-4.8,3.2-8.4,7.3-8.4c3,0,4.9,1.6,5.2,4.5H310.9z"/>
			<path d="M325,202.3h-2.2l-3.4-6.8l-2.4,2.1l-1,4.6h-1.9l2.9-13.6h1.9l-1.4,6.6l6.7-6.6h2.6l-6.1,5.5L325,202.3z"/>
			<path d="M336.8,188.7h4.7c1.6,0,2.5,0.2,3.1,0.8c0.7,0.6,1.1,1.5,1.1,2.6c0,1.5-0.7,2.5-2.3,3.1c1.3,0.5,1.9,1.4,1.9,2.8
				c0,1.3-0.6,2.6-1.7,3.3c-1,0.7-2.3,1-4.5,1h-5.1L336.8,188.7z M339.1,200.6c1.5,0,2.2-0.1,2.9-0.5c0.7-0.4,1.2-1.2,1.2-2
				c0-0.7-0.3-1.3-0.7-1.6c-0.5-0.3-1.1-0.4-2.4-0.4h-2.8l-1,4.5H339.1z M340.4,194.4c1.1,0,1.8-0.1,2.4-0.5c0.6-0.4,0.9-1,0.9-1.7
				c0-0.5-0.2-1-0.6-1.3c-0.4-0.3-0.9-0.4-2-0.4h-2.8l-0.8,4H340.4z"/>
			<path d="M349.4,202.3h-1.9l2.9-13.6h4.9c1.6,0,2.5,0.2,3.2,0.8c0.7,0.6,1.2,1.6,1.2,2.8c0,2-1,3.1-3,3.6c1.3,0.3,1.7,0.8,1.7,2.4
				c0,0.4,0,0.5,0,0.7l-0.1,1.1c0,0.3,0,0.3,0,0.9c0,0.7,0.1,1,0.4,1.5h-2.3c-0.1-0.4-0.1-0.6-0.1-1c0-0.3,0-0.8,0.1-1.3l0.1-0.9
				c0-0.2,0-0.4,0-0.7c0-1.4-0.7-1.9-2.4-1.9h-3.2L349.4,202.3z M353.8,194.8c1.5,0,2.3-0.2,2.9-0.6c0.6-0.4,0.9-1.1,0.9-1.9
				c0-1.3-0.7-2-2.4-2H352l-0.9,4.4H353.8z"/>
			<path d="M374.8,194.3c0,4.5-3.3,8.4-7.4,8.4c-3.3,0-5.5-2.4-5.5-6.1c0-4.6,3.3-8.2,7.4-8.2C372.8,188.4,374.8,190.6,374.8,194.3z
				 M364,196.9c0,2.5,1.4,4.1,3.6,4.1c1.5,0,2.9-0.8,3.8-2.1c0.9-1.3,1.5-3.1,1.5-4.6c0-2.6-1.3-4.2-3.6-4.2
				C366.3,190.1,364,193.1,364,196.9z"/>
			<path d="M378.6,202.3l-1-13.6h2l0.4,7.4c0,0.6,0,1.1,0,1.3c0,0.1,0,2,0,2.8c0.4-1.4,1.2-3.3,1.5-4.1l3.1-7.4h2.1l0.6,7.4
				c0.1,1.7,0.1,2.1,0.1,3.7v0.4c0.3-1.1,0.6-2.1,1.2-3.7l3.1-7.8h2l-5.6,13.6h-2l-0.6-7.3c-0.1-0.8-0.1-2.4-0.1-3.3
				c0-0.5,0-0.8,0-1.3c-0.6,2-0.8,2.7-1.9,5.1l-2.9,6.9H378.6z"/>
			<path d="M401.9,202.3l-3.8-9.2c-0.3-0.7-0.4-0.9-0.6-1.5c0,0-0.1-0.1-0.1-0.3c0,0.6-0.3,2.2-0.5,3.1l-1.7,7.9h-1.8l2.9-13.6h1.9
				l3.6,8.8c0.3,0.8,0.6,1.6,0.8,2.3c0.1-0.9,0.2-1.6,0.6-3.3l1.6-7.7h1.8l-2.9,13.6H401.9z"/>
		</g>
	</g>
	<g>
		<rect x="26.4" y="189.9" class="st0" width="10.2" height="10.2"/>
		<line class="st0" x1="26.4" y1="189.9" x2="36.6" y2="200.1"/>
	</g>
	<g>
		<rect x="244.8" y="189.9" class="st0" width="10.2" height="10.2"/>
		<line class="st0" x1="244.8" y1="189.9" x2="255" y2="200.1"/>
	</g>
	<g>
		<path d="M56.8,1.2c0.3-0.2,0.9-0.3,1.7-0.3l13.4,0c1.1,0,1.8,0.1,2,0.4c0.2,0.3,0.3,0.9,0.3,1.8l0,90.5c0,0.8-0.1,1.4-0.2,1.8
			c-0.1,0.4-0.6,0.6-1.5,0.6l-14.9,0c-0.8,0-1.3-0.1-1.4-0.2c-0.3-0.4-0.5-1-0.5-1.8l0-44.9L38.4,95.3c-0.1,0.5-0.4,0.8-1.1,0.8
			c-0.5,0-0.9-0.3-0.9-0.8L18.7,49.1l0,44.3c0,1-0.1,1.6-0.2,2c-0.1,0.4-0.6,0.6-1.4,0.6L2.5,96c-0.9,0-1.6-0.2-1.9-0.6
			c-0.3-0.4-0.5-1.1-0.5-2.2l0-89.6c0-0.4,0-0.9,0.1-1.3c0-0.4,0.2-0.7,0.5-0.9C1.1,1.1,2,0.9,3.2,0.9l13.2,0c1,0,1.7,0.1,2,0.4
			c0.3,0.3,0.6,0.9,1,1.9l17.9,48.1L56,2.4C56.2,1.8,56.5,1.4,56.8,1.2z"/>
		<path d="M99,0.6c0.4,0,0.7,0.2,1.1,0.5c0.3,0.3,0.5,0.7,0.5,1l0,92.5c0,0.9-0.5,1.3-1.5,1.3l-15.2,0c-1,0-1.5-0.4-1.5-1.3l0-92.5
			c0-0.4,0.2-0.7,0.5-1c0.3-0.3,0.7-0.5,1.1-0.5L99,0.6z"/>
		<path d="M110.7,16.2c1.5-3.2,3.5-6,5.9-8.3c2.5-2.3,5.2-4.1,8.3-5.3c3.1-1.3,6.1-1.9,9.2-1.9c6.7,0.1,12.2,2,16.5,5.6
			c4.3,3.6,7.2,8.8,8.8,15.7c0.2,0.7,0.1,1.1-0.1,1.3c-0.1,0.1-0.4,0.1-0.9,0.1l-16.5,0c-0.3,0-0.5,0-0.7-0.1
			c-0.1-0.1-0.3-0.3-0.4-0.7c-0.8-1.6-1.8-2.8-2.9-3.7c-1.2-0.8-2.4-1.3-3.7-1.3c-2.2,0-4,0.9-5.3,2.8c-1.3,1.8-2,4.4-2,7.7l0,41
			c0,6.5,2.5,9.8,7.5,9.8c1.3,0.1,2.7-0.2,3.9-0.9c1.3-0.7,2.1-1.7,2.5-3.1c0.2-0.4,0.3-0.7,0.5-1c0.2-0.3,0.4-0.4,0.8-0.3l16.2-0.1
			c0.5,0,0.7,0.1,0.7,0.2c0.2,0.1,0.2,0.5,0.2,1c-0.6,3.2-1.7,6.2-3.2,8.8c-1.5,2.6-3.3,4.8-5.5,6.7c-2.2,1.9-4.7,3.3-7.5,4.3
			c-2.8,1-5.8,1.5-9.1,1.5c-3.7,0-7.1-0.7-10.2-2c-3.1-1.4-5.8-3.3-8-5.7c-2.3-2.4-4-5.3-5.3-8.7c-1.3-3.4-1.9-7.1-1.9-11.2l0-41.5
			C108.5,23,109.2,19.4,110.7,16.2z"/>
		<path d="M214.8,0.6c0.4,0,0.7,0.2,1,0.5c0.3,0.3,0.4,0.7,0.4,1l0,92.5c0,0.9-0.5,1.3-1.4,1.3l-15.4,0c-0.4,0-0.7-0.1-1-0.4
			c-0.3-0.3-0.4-0.6-0.4-0.9l0-38.3l-14.5,0l0,38.3c0,0.9-0.6,1.3-1.7,1.3l-15.2,0c-0.9,0-1.4-0.4-1.4-1.3l0-92.5
			c0-0.4,0.1-0.7,0.4-1c0.3-0.3,0.6-0.5,1-0.5l15.2,0c0.5,0,0.9,0.2,1.2,0.5c0.3,0.3,0.5,0.7,0.5,1l0,38.3l14.5,0l0-38.3
			c0-0.4,0.1-0.7,0.4-1c0.3-0.3,0.6-0.5,1-0.5L214.8,0.6z"/>
		<path d="M240.9,0.6c0.4,0,0.7,0.2,1.1,0.5c0.3,0.3,0.5,0.7,0.5,1l0,92.5c0,0.9-0.5,1.3-1.5,1.3l-15.2,0c-1,0-1.5-0.4-1.5-1.3
			l0-92.5c0-0.4,0.2-0.7,0.5-1c0.3-0.3,0.7-0.5,1.1-0.5L240.9,0.6z"/>
		<path d="M303.3,17.5c1.3-3.4,3.1-6.3,5.4-8.8c2.2-2.5,4.9-4.5,7.8-5.9c3-1.4,6.2-2.1,9.6-2.1C340.1,0.9,348.7,8.3,352,23
			c0.1,0.3,0.1,0.6,0.1,1c0,0.4-0.1,0.7-0.4,0.9c-0.1,0.4-0.5,0.5-1.4,0.5l-14.5,0c-0.9,0-1.4-0.2-1.7-0.7c-0.3-0.4-0.5-1-0.7-1.7
			c-0.2-1.5-0.8-2.7-2-3.7c-1.2-1-2.6-1.5-4.2-1.5c-2.3,0-4.2,0.7-5.6,2c-2,1.8-3,4.8-3,8.9c0,3.5,0.7,6.3,2.2,8.2
			c1.5,1.9,3.6,2.9,6.4,2.9l1.2,0c4.4,0,8.2,0.8,11.3,2.5c3.1,1.6,5.6,3.8,7.5,6.4c1.9,2.6,3.3,5.6,4.2,9c0.9,3.3,1.3,6.7,1.4,10.1
			c0,3.4-0.6,6.7-1.8,10.1c-1.2,3.3-3,6.4-5.3,9c-2.3,2.7-5.2,4.9-8.5,6.6C334,95.2,330.2,96,326,96c-6.3,0-11.5-1.9-15.8-5.8
			c-4.3-3.9-7.1-9.3-8.5-16.5c0-0.4,0-0.7,0.1-1.1c0-0.4,0.2-0.7,0.4-0.9c0.3-0.4,0.9-0.6,1.7-0.6l14.5,0c1.4,0,2,0.6,2,1.8
			c0,1.9,0.6,3.4,1.8,4.4c1.2,1,2.9,1.5,5,1.5c2.7-0.1,4.8-1.1,6.4-3.1c1.6-2,2.4-4.7,2.4-8c0-2.2-0.3-4-0.8-5.4
			c-0.6-1.4-1.3-2.5-2.2-3.3c-0.9-0.8-1.9-1.4-3-1.7c-1.1-0.3-2.1-0.5-3.1-0.5l-1.4,0c-2.7,0-5.3-0.5-7.8-1.6
			c-2.5-1.1-4.8-2.6-6.9-4.6c-3-2.8-5.3-6.2-7-10.2c-1.7-4-2.5-8.1-2.4-12.2C301.3,24.5,302,20.9,303.3,17.5z"/>
		<path d="M374.6,0.6c0.9,0,1.5,0.1,1.8,0.3c0.2,0.2,0.4,0.8,0.4,1.9l0,76.1l23.9,0c0.9,0,1.4,0.1,1.7,0.3c0.2,0.2,0.4,0.8,0.4,1.7
			l0,13.2c0,0.8-0.1,1.3-0.3,1.5c-0.2,0.2-0.7,0.3-1.5,0.3l-40.1,0c-1,0-1.5-0.1-1.7-0.4c-0.3-0.2-0.5-0.8-0.5-2l0-90.8
			c0-1,0.1-1.5,0.4-1.7c0.2-0.2,0.8-0.3,1.7-0.5L374.6,0.6z"/>
		<path d="M444.7,0.6c1,0,1.7,0.2,2.1,0.7c0.1,0.3,0.1,0.8,0,1.5l-18.8,52c-0.2,0.4-0.4,1-0.4,1.5l0,37.7c0,1.3-0.9,2-2.7,2l-13.4,0
			c-1.4,0-2.1-0.6-2.1-1.9l0-38c0-0.6-0.1-1-0.2-1.3l-19-51.7c-0.3-0.7-0.3-1.3,0-1.8c0.2-0.4,0.8-0.5,1.5-0.5l15.8,0
			c1,0,1.5,0.6,1.7,1.7c0.1,0.2,0.4,1.1,1,3c0.6,1.8,1.3,4.2,2.3,7.1c1,2.9,1.9,5.8,2.7,8.5c0.9,2.8,1.6,5.2,2.3,7.3
			c0.7,2.1,1,3.3,1.1,3.5c0.1-0.2,0.4-1.4,1.1-3.4c0.6-2,1.4-4.5,2.2-7.3c0.8-2.8,1.7-5.6,2.6-8.5c0.9-2.9,1.6-5.2,2.1-7.1
			c0.5-1.8,0.8-2.8,0.9-2.9c0.2-0.7,0.5-1.2,0.9-1.5c0.4-0.3,1-0.6,1.6-0.7L444.7,0.6z"/>
		<g>
			<path d="M301.6,0.3c0.3,0,0.6,0.1,1,0.4c0.2,0.3,0.2,0.7,0,1.1l-18.2,45.9c-0.2,0.4-0.2,0.7,0,1l18.2,45.9c0.3,0.4,0.3,0.7,0,1
				c-0.2,0.3-0.5,0.4-1,0.4l-15.4,0c-0.4,0-0.8-0.1-1.1-0.4c-0.4-0.2-0.6-0.6-0.8-0.9L275,71.2l-9.4,23.4c-0.2,0.4-0.4,0.7-0.8,0.9
				c-0.4,0.3-0.8,0.4-1.2,0.4l-15.3,0c-0.5,0-0.8-0.1-1-0.4c-0.3-0.3-0.3-0.6,0-1l18.2-45.7c0.1-0.4,0-0.9-0.1-1.3L247.3,1.9
				c-0.2-0.4-0.2-0.8,0-1.1c0.3-0.3,0.6-0.4,1-0.4l15.3,0c0.4,0,0.8,0.1,1.2,0.4c0.4,0.3,0.7,0.6,0.8,1l9.4,23.4l9.3-23.4
				c0.2-0.4,0.4-0.7,0.8-1c0.4-0.3,0.7-0.4,1.1-0.4L301.6,0.3z"/>
		</g>
	</g>
</g>
</svg>
