<?xml version="1.0" encoding="utf-8"?>
<!-- Generator: Adobe Illustrator 25.4.1, SVG Export Plug-In . SVG Version: 6.00 Build 0)  -->
<svg version="1.1" id="レイヤー_1" xmlns="http://www.w3.org/2000/svg" xmlns:xlink="http://www.w3.org/1999/xlink" x="0px"
	 y="0px" viewBox="0 0 134 151" style="enable-background:new 0 0 134 151;" xml:space="preserve">
<style type="text/css">
	.st0{fill:#965048;}
	.st1{fill:#FFFFFF;stroke:#FFFFFF;stroke-width:0.25;stroke-miterlimit:10;}
</style>
<g>
	<ellipse class="st0" cx="67" cy="75.5" rx="66.8" ry="75.1"/>
	<g>
		<g>
			<g>
				<path class="st1" d="M52.8,91.1l0.5-8c0.6,2.1,1.3,3.9,2.1,5.3c0.8,1.4,1.7,2.6,2.6,3.5c0.9,0.9,1.9,1.5,3,1.9
					c1.1,0.4,2.1,0.6,3.2,0.6c1.4,0,2.8-0.2,4-0.7c1.2-0.5,2.3-1.3,3.2-2.3s1.6-2.3,2.1-3.9s0.7-3.4,0.7-5.4c0-3.8-0.8-6.6-2.5-8.4
					c-1.7-1.8-4.1-2.7-7.2-2.7c-1.8,0-3.5,0.4-5.2,1c-1.7,0.6-3,1.6-4,3l-0.5-0.3l1.4-21.1h21.2l-0.4,5.1c-0.6-0.8-1.4-1.3-2.5-1.4
					s-2.8-0.2-5.1-0.2H56.9l-1.1,16.2c0.9-0.8,2.1-1.6,3.7-2.2c1.6-0.6,3.4-0.9,5.4-0.9c2,0,3.8,0.3,5.6,0.8
					c1.8,0.5,3.3,1.3,4.6,2.3c1.3,1,2.4,2.3,3.1,3.7c0.8,1.5,1.2,3.1,1.2,5c0,1.8-0.3,3.5-1,5.1c-0.7,1.6-1.7,3.1-3,4.3
					c-1.3,1.2-2.9,2.2-4.8,2.9c-1.9,0.7-4,1.1-6.3,1.1c-2.1,0-4.2-0.4-6.1-1.1C56.1,93.4,54.4,92.3,52.8,91.1z"/>
			</g>
			<g>
				<path class="st1" d="M36.2,123.3c0.4-0.1,0.7-0.3,0.8-0.5c0.1-0.2,0.2-0.6,0.2-1.2v-9.8c0-0.3,0-0.5,0-0.7
					c0-0.2-0.1-0.3-0.2-0.5c-0.1-0.1-0.2-0.2-0.3-0.3c-0.1-0.1-0.3-0.1-0.5-0.2H41c0.6,0,1.1,0.1,1.7,0.2s1.1,0.3,1.6,0.6
					s0.9,0.7,1.2,1.1c0.3,0.5,0.5,1,0.5,1.7c0,0.7-0.2,1.3-0.5,1.8s-0.7,0.9-1.2,1.2c-0.5,0.3-1,0.6-1.6,0.7s-1.2,0.2-1.8,0.2h-2.3
					v3.9c0,0.5,0.1,0.9,0.2,1.1c0.1,0.2,0.4,0.4,0.8,0.5H36.2z M38.6,110.5v7h2c0.5,0,1-0.1,1.5-0.2c0.5-0.1,0.9-0.3,1.2-0.6
					c0.4-0.3,0.6-0.7,0.9-1.1c0.2-0.4,0.3-1,0.3-1.6c0-1.1-0.3-2-1-2.5c-0.7-0.6-1.6-0.9-2.9-0.9H38.6z"/>
				<path class="st1" d="M49,116.7c0-0.9,0.2-1.8,0.5-2.7s0.8-1.5,1.3-2.1c0.6-0.6,1.2-1.1,2-1.4s1.6-0.5,2.5-0.5
					c0.9,0,1.8,0.2,2.5,0.5s1.4,0.8,2,1.4s1,1.3,1.3,2.1s0.5,1.7,0.5,2.7c0,0.9-0.2,1.8-0.5,2.7c-0.3,0.8-0.8,1.5-1.3,2.1
					s-1.2,1.1-2,1.4s-1.6,0.5-2.5,0.5c-0.9,0-1.8-0.2-2.5-0.5s-1.4-0.8-2-1.4c-0.6-0.6-1-1.3-1.3-2.1C49.2,118.6,49,117.7,49,116.7z
					 M55.3,123.2c0.7,0,1.4-0.1,1.9-0.4c0.6-0.3,1.1-0.7,1.5-1.2c0.4-0.5,0.7-1.2,1-2c0.2-0.8,0.3-1.7,0.3-2.8s-0.1-2-0.3-2.8
					c-0.2-0.8-0.5-1.5-1-2c-0.4-0.5-0.9-0.9-1.5-1.2c-0.6-0.3-1.2-0.4-1.9-0.4c-0.7,0-1.4,0.1-1.9,0.4c-0.6,0.3-1.1,0.7-1.5,1.2
					c-0.4,0.5-0.7,1.2-1,2c-0.2,0.8-0.3,1.7-0.3,2.8s0.1,2,0.3,2.8c0.2,0.8,0.5,1.5,1,2c0.4,0.5,0.9,0.9,1.5,1.2
					C54,123,54.6,123.2,55.3,123.2z"/>
				<path class="st1" d="M68.1,110.2c-0.2,0.1-0.4,0.1-0.5,0.2s-0.2,0.2-0.3,0.4c-0.1,0.2-0.1,0.4-0.2,0.6c0,0.3,0,0.6,0,1v8.7
					c0,0.4,0,0.8,0,1c0,0.3,0.1,0.5,0.2,0.6c0.1,0.2,0.2,0.3,0.3,0.4c0.1,0.1,0.3,0.2,0.5,0.2h-3.5c0.2-0.1,0.4-0.1,0.5-0.2
					c0.1-0.1,0.2-0.2,0.3-0.4c0.1-0.2,0.1-0.4,0.2-0.6c0-0.3,0-0.6,0-1v-8.7c0-0.4,0-0.8,0-1c0-0.3-0.1-0.5-0.2-0.6
					c-0.1-0.2-0.2-0.3-0.3-0.4c-0.1-0.1-0.3-0.2-0.5-0.2H68.1z"/>
				<path class="st1" d="M71.2,110.2h1.8l9.4,10.9v-9.2c0-0.3,0-0.5,0-0.7c0-0.2-0.1-0.3-0.2-0.5c-0.1-0.1-0.2-0.2-0.3-0.3
					c-0.1-0.1-0.3-0.1-0.5-0.2h2.4c-0.4,0.1-0.7,0.3-0.8,0.5c-0.1,0.2-0.2,0.6-0.2,1.1v11.5h-0.1l-10-11.6v10c0,0.5,0.1,0.9,0.2,1.1
					c0.1,0.2,0.4,0.4,0.8,0.5h-2.4c0.4-0.1,0.7-0.3,0.8-0.5c0.1-0.2,0.2-0.6,0.2-1.2v-9.8c0-0.3,0-0.5,0-0.7c0-0.2-0.1-0.3-0.2-0.5
					c-0.1-0.1-0.2-0.2-0.3-0.3C71.6,110.3,71.4,110.2,71.2,110.2z"/>
				<path class="st1" d="M87,110.2h10.2l0.2,4.5c-0.1-0.9-0.3-1.6-0.5-2.1c-0.2-0.5-0.4-1-0.6-1.2s-0.5-0.5-0.9-0.6
					s-0.7-0.1-1.2-0.1h-1.5v11.2c0,0.3,0,0.5,0,0.7s0.1,0.3,0.2,0.5c0.1,0.1,0.2,0.2,0.3,0.3c0.1,0.1,0.3,0.2,0.5,0.2h-3.4
					c0.2-0.1,0.4-0.1,0.5-0.2c0.1-0.1,0.2-0.2,0.3-0.3c0.1-0.1,0.1-0.3,0.2-0.5c0-0.2,0-0.4,0-0.7v-11.2H90c-0.5,0-0.9,0-1.2,0.1
					s-0.6,0.3-0.9,0.6c-0.3,0.3-0.5,0.7-0.6,1.2c-0.2,0.5-0.3,1.3-0.5,2.1L87,110.2z"/>
			</g>
			<g>
				<path class="st1" d="M45.2,27.3c0.2,0,0.4,0,0.7,0c0.3,0,0.6,0.1,0.9,0.2c0.3,0.1,0.6,0.2,0.9,0.3c0.3,0.1,0.6,0.3,0.9,0.4
					l0.2,3.4c-0.3-1.4-0.7-2.4-1.4-3.1c-0.7-0.7-1.4-1-2.3-1c-0.5,0-0.9,0.1-1.4,0.3s-0.8,0.5-1.1,0.9c-0.3,0.4-0.6,0.9-0.7,1.5
					s-0.3,1.3-0.3,2.1c0,0.8,0.1,1.6,0.3,2.2s0.4,1.1,0.8,1.5c0.3,0.4,0.7,0.7,1.2,0.9c0.4,0.2,0.9,0.3,1.4,0.3c0.3,0,0.6,0,1-0.1
					c0.3-0.1,0.6-0.2,0.9-0.4s0.6-0.5,0.9-0.8c0.3-0.3,0.5-0.7,0.7-1.2v1.6c-0.4,0.3-0.9,0.6-1.5,0.8c-0.6,0.2-1.3,0.3-2,0.3
					c-0.7,0-1.4-0.1-2-0.4c-0.6-0.3-1.1-0.6-1.6-1.1c-0.4-0.5-0.8-1-1-1.6c-0.3-0.6-0.4-1.3-0.4-2.1c0-0.7,0.1-1.4,0.4-2
					s0.6-1.2,1-1.6c0.4-0.5,1-0.8,1.5-1.1C43.9,27.4,44.6,27.3,45.2,27.3z"/>
				<path class="st1" d="M51.4,27.4H54c-0.2,0-0.3,0.1-0.4,0.2c-0.1,0.1-0.2,0.2-0.2,0.3c-0.1,0.1-0.1,0.3-0.1,0.5s0,0.5,0,0.8v2.7
					h6v-2.7c0-0.3,0-0.6,0-0.8c0-0.2-0.1-0.4-0.1-0.5c-0.1-0.1-0.1-0.2-0.2-0.3c-0.1-0.1-0.2-0.1-0.4-0.2h2.7
					c-0.2,0-0.3,0.1-0.4,0.2c-0.1,0.1-0.2,0.2-0.2,0.3c-0.1,0.1-0.1,0.3-0.1,0.5c0,0.2,0,0.5,0,0.8v6.7c0,0.3,0,0.6,0,0.8
					c0,0.2,0.1,0.4,0.1,0.5c0.1,0.1,0.1,0.2,0.2,0.3c0.1,0.1,0.2,0.1,0.4,0.2h-2.7c0.2,0,0.3-0.1,0.4-0.2c0.1-0.1,0.2-0.2,0.2-0.3
					c0.1-0.1,0.1-0.3,0.1-0.5c0-0.2,0-0.5,0-0.8v-3.7h-6v3.7c0,0.3,0,0.6,0,0.8c0,0.2,0.1,0.4,0.1,0.5c0.1,0.1,0.1,0.2,0.2,0.3
					c0.1,0.1,0.2,0.1,0.4,0.2h-2.7c0.2,0,0.3-0.1,0.4-0.2c0.1-0.1,0.2-0.2,0.2-0.3c0.1-0.1,0.1-0.3,0.1-0.5c0-0.2,0-0.5,0-0.8v-6.7
					c0-0.3,0-0.6,0-0.8c0-0.2-0.1-0.4-0.1-0.5c-0.1-0.1-0.1-0.2-0.2-0.3C51.7,27.5,51.5,27.4,51.4,27.4z"/>
				<path class="st1" d="M63.6,37.5c0.3-0.1,0.5-0.2,0.7-0.4c0.1-0.2,0.2-0.5,0.2-0.9v-7.6c0-0.2,0-0.4,0-0.5c0-0.1-0.1-0.3-0.1-0.3
					s-0.1-0.2-0.2-0.2c-0.1-0.1-0.2-0.1-0.4-0.1h6.5l0.3,2.7c-0.1-0.5-0.3-0.9-0.5-1.2c-0.2-0.3-0.5-0.6-0.7-0.7
					c-0.3-0.2-0.6-0.3-0.9-0.4c-0.3-0.1-0.7-0.1-1-0.1h-1.8V32h1.2c0.5,0,0.9,0,1.2-0.1c0.3-0.1,0.6-0.1,0.8-0.3
					c0.2-0.1,0.3-0.3,0.4-0.4c0.1-0.2,0.2-0.4,0.2-0.6l-0.2,3c0-0.2,0-0.4-0.1-0.6c-0.1-0.2-0.2-0.3-0.3-0.4
					c-0.2-0.1-0.4-0.2-0.7-0.3c-0.3-0.1-0.7-0.1-1.2-0.1h-1.2v5.1h2.2c0.4,0,0.7,0,1-0.1c0.3-0.1,0.6-0.2,0.9-0.4s0.5-0.5,0.7-0.8
					c0.2-0.4,0.4-0.8,0.5-1.4l-0.3,3H63.6z"/>
				<path class="st1" d="M78,27.3c0.2,0,0.4,0,0.7,0c0.3,0,0.6,0.1,0.9,0.2c0.3,0.1,0.6,0.2,0.9,0.3c0.3,0.1,0.6,0.3,0.9,0.4
					l0.2,3.4c-0.3-1.4-0.7-2.4-1.4-3.1c-0.7-0.7-1.4-1-2.3-1c-0.5,0-0.9,0.1-1.4,0.3s-0.8,0.5-1.1,0.9c-0.3,0.4-0.6,0.9-0.7,1.5
					s-0.3,1.3-0.3,2.1c0,0.8,0.1,1.6,0.3,2.2s0.4,1.1,0.8,1.5c0.3,0.4,0.7,0.7,1.2,0.9c0.4,0.2,0.9,0.3,1.4,0.3c0.3,0,0.6,0,1-0.1
					c0.3-0.1,0.6-0.2,0.9-0.4s0.6-0.5,0.9-0.8c0.3-0.3,0.5-0.7,0.7-1.2v1.6c-0.4,0.3-0.9,0.6-1.5,0.8c-0.6,0.2-1.3,0.3-2,0.3
					c-0.7,0-1.4-0.1-2-0.4c-0.6-0.3-1.1-0.6-1.6-1.1c-0.4-0.5-0.8-1-1-1.6c-0.3-0.6-0.4-1.3-0.4-2.1c0-0.7,0.1-1.4,0.4-2
					s0.6-1.2,1-1.6c0.4-0.5,1-0.8,1.5-1.1C76.7,27.4,77.4,27.3,78,27.3z"/>
				<path class="st1" d="M84.2,27.4h2.7c-0.2,0-0.3,0.1-0.4,0.2c-0.1,0.1-0.2,0.2-0.2,0.3c-0.1,0.1-0.1,0.3-0.1,0.5s0,0.5,0,0.8v4.1
					l4.8-4.4c0.7-0.7,1-1.1,0.8-1.5h1.5c-0.2,0.1-0.5,0.3-0.8,0.6c-0.4,0.3-0.9,0.7-1.5,1.3l-2.4,2.2c0.2,0.3,0.4,0.6,0.7,0.9
					c0.3,0.3,0.5,0.6,0.8,1c0.3,0.3,0.6,0.7,0.9,1.1c0.3,0.4,0.6,0.7,0.9,1.1c0.1,0.2,0.3,0.4,0.5,0.6c0.2,0.2,0.4,0.5,0.6,0.7
					c0.2,0.2,0.4,0.4,0.5,0.6c0.2,0.2,0.2,0.3,0.3,0.3h-1.9c0-0.3-0.1-0.5-0.3-0.8c-0.2-0.3-0.4-0.6-0.8-1.1
					c-0.2-0.2-0.4-0.5-0.6-0.8c-0.2-0.3-0.5-0.6-0.7-1c-0.3-0.3-0.5-0.6-0.8-1c-0.2-0.3-0.5-0.6-0.7-0.9l-1.7,1.5v2.2
					c0,0.3,0,0.6,0,0.8c0,0.2,0.1,0.4,0.1,0.5c0.1,0.1,0.1,0.2,0.2,0.3c0.1,0.1,0.2,0.1,0.4,0.2h-2.7c0.2,0,0.3-0.1,0.4-0.2
					c0.1-0.1,0.2-0.2,0.2-0.3c0.1-0.1,0.1-0.3,0.1-0.5c0-0.2,0-0.5,0-0.8v-6.7c0-0.3,0-0.6,0-0.8c0-0.2-0.1-0.4-0.1-0.5
					c-0.1-0.1-0.1-0.2-0.2-0.3C84.5,27.5,84.3,27.4,84.2,27.4z"/>
			</g>
		</g>
	</g>
</g>
</svg>
