<?xml version="1.0" encoding="utf-8"?>
<!-- Generator: Adobe Illustrator 25.4.1, SVG Export Plug-In . SVG Version: 6.00 Build 0)  -->
<svg version="1.1" id="レイヤー_1" xmlns="http://www.w3.org/2000/svg" xmlns:xlink="http://www.w3.org/1999/xlink" x="0px"
	 y="0px" viewBox="0 0 147 43" style="enable-background:new 0 0 147 43;" xml:space="preserve">
<style type="text/css">
	.st0{fill:#FFFFFF;}
</style>
<g>
	<path class="st0" d="M91.3,3.1c0.3-0.3,0.6-0.6,0.9-0.8c-1.9-1.2-4.1-2-7.1-2c-1.5,0-3,0.4-4.6,1.2c-1.6,0.8-3.2,2-4.6,3.7l0-1.9
		c0-1.1-1-1.9-2.2-1.7l-8.2,1.7c1.9,0.3,2.4,2.1,2.4,2.8l0,9.7c0,1-0.3,2-0.8,2.8c-1.4,2.4-2.6,4.1-4.9,6.3
		c-2.6,2.5-6.1,3.6-9.6,3.6c-3.4,0-5.8-1.3-7.2-3.8c-1.4-2.5-2.1-5.7-2.1-9.5v-1.8l19.7,0c0-2.5-0.6-4.8-1.8-6.8
		c-1.2-2-2.8-3.6-4.8-4.7c-2-1.2-4.3-1.7-6.7-1.7c-2.8,0-5.2,0.7-7.4,2C40,3.6,38.3,5.4,37,7.7c-1.3,2.3-1.9,4.7-1.9,7.4
		c0,2.7,0.7,5.2,2.1,7.5c1.4,2.3,3.4,4.1,5.9,5.4c2.5,1.3,5.3,2,8.3,2c7.8,0,12.7-4.6,17.7-13.7l1.1-2c1-1.8,1.8-3.3,2.5-4.5
		c0.7-1.2,1.5-2.2,2.3-3.2l0.5-0.6C77.6,4,79.5,3,81.5,2.9c3.2-0.1,5.4,2.7,7.9,6.4c0-0.3,0-0.6,0-0.9C89.3,6.4,89.9,4.5,91.3,3.1z
		 M45.1,4.2c1-2.2,2.5-3.3,4.5-3.3c2.3,0,3.9,1,4.6,3c0.8,2,1.1,5,1.1,9.2l-12.2,0C43.3,9.8,44.1,6.4,45.1,4.2z"/>
	<path class="st0" d="M71.2,15.2l-1,1.9c-0.6,1-1.3,2.2-2.2,3.6l0,6.6c0,1.6-1.3,2.4-2.4,2.7l7.6,0c1.5,0,2.7-1.2,2.7-2.6V27l0-19.2
		c-0.8,1-1.5,2-2.2,3.1C72.9,12,72.1,13.5,71.2,15.2z"/>
	<path class="st0" d="M136.1,28.7c-1.2,0-2.3-0.2-3.4-0.6c-2.2-0.9-3.8-2.5-4.7-5.1c-0.9-2.5-1.4-5.2-1.4-7.9l0-1.6l19.9,0
		c0-2.5-0.6-4.8-1.8-6.8c-1.2-2-2.8-3.6-4.8-4.7c-2-1.2-4.4-1.7-6.8-1.7c-2.8,0-5.4,0.7-7.6,2c-2.2,1.3-3.9,3.1-5.2,5.4
		c-1.3,2.3-1.9,4.7-1.9,7.4c0,2.7,0.7,5.2,2.1,7.5c1.4,2.3,3.4,4.1,5.9,5.4c2.5,1.3,5.2,2,8.3,2c2.1,0,3.9-0.4,5.6-1.2
		c1.7-0.8,3-1.9,4.1-3.3c-1.5,1-2.9,1.9-4.2,2.5C139,28.4,137.6,28.7,136.1,28.7z M128.3,4.2c1-2.3,2.7-3.4,4.7-3.4c2.3,0,4,1,4.7,3
		c0.8,2,1.2,5.1,1.2,9.3l-12.4,0C126.6,9.6,127.3,6.4,128.3,4.2z"/>
	<path class="st0" d="M112,14.5c-1.3-0.7-3.1-1.4-5.5-2.3c-2-0.7-3.6-1.4-4.8-2c-1.2-0.6-2.2-1.3-3-2.1c-0.8-0.8-1.2-1.7-1.2-2.8
		c0-1.6,0.6-2.8,1.7-3.5c1.2-0.7,2.6-1.1,4.3-1.1c2.7,0,4.9,0.7,6.6,2.1c1.7,1.4,2.9,3.1,3.7,5l-0.6-6.1l0,0
		c-0.7,0.4-1.5,0.4-2.2,0.1c-0.8-0.4-1.8-0.7-2.8-1c-1.5-0.4-3.1-0.6-4.7-0.6c-2,0-3.8,0.3-5.7,0.9c-1.8,0.6-3.4,1.5-4.6,2.7
		c-1.2,1.2-1.8,2.8-1.8,4.6c0,1.7,0.6,3.2,1.7,4.5c1.1,1.2,2.5,2.3,4.1,3c1.6,0.8,3.7,1.6,6.2,2.6c2,0.7,3.5,1.4,4.5,1.8
		c1.1,0.5,2,1.1,2.7,1.7c0.7,0.7,1.1,1.4,1.1,2.3c0,1.5-0.7,2.7-2.2,3.6c-1.4,0.9-3.2,1.4-5.4,1.4c-2.3,0-4.4-0.5-6.3-1.5
		c-1.8-1-3.4-2.2-4.5-3.5c-1.2-1.3-2-2.5-2.5-3.7l0.6,7.2c1.1-0.3,2.2-0.3,3.3,0.2c1,0.5,2.2,0.9,3.5,1.2c1.9,0.5,3.9,0.7,5.9,0.7
		c3.8,0,6.8-0.8,9.2-2.5c2.4-1.7,3.5-3.9,3.5-6.8c0-1.4-0.5-2.6-1.4-3.7C114.4,16,113.3,15.2,112,14.5z"/>
	<path class="st0" d="M26.1,2.3c-2-1.3-4.1-2-6.4-2c-1.8,0-3.5,0.5-5,1.4c-1.5,0.9-3,2.3-4.5,4.2l0-4.7L1.1,3.1
		C1.6,3.4,2,3.8,2.3,4.3c0.2,0.4,0.4,1.1,0.4,1.8l0,33.6l0,0c0,1.5-0.9,2.6-2.2,3h3l4.4,0l4.5,0c-1.3-0.4-2.2-1.5-2.2-3l0-10.9
		c1.9,0.8,4.1,1.2,6.4,1.2c2.9,0,5.6-0.7,8.1-2c2.5-1.3,4.4-3.1,5.9-5.3c1.5-2.2,2.2-4.7,2.2-7.3c0-2.6-0.6-5.4-1.8-7.7
		C29.7,5.4,28.1,3.6,26.1,2.3z M23,25.2c-1.3,2.6-3.4,4.3-6.4,4.3c-2.8,0-4.9-1.3-6.4-3.9l0-19.1C12.4,4,14.7,2.7,17,2.7
		c0.9,0,1.8,0.2,2.7,0.7c1.9,0.9,3.3,2.3,4.1,4.1c0.8,1.9,1.2,4.7,1.2,7.8C24.9,19.5,24.3,22.5,23,25.2z"/>
</g>
</svg>
