<?xml version="1.0" encoding="utf-8"?>
<!-- Generator: Adobe Illustrator 25.4.1, SVG Export Plug-In . SVG Version: 6.00 Build 0)  -->
<svg version="1.1" id="レイヤー_1" xmlns="http://www.w3.org/2000/svg" xmlns:xlink="http://www.w3.org/1999/xlink" x="0px"
	 y="0px" viewBox="0 0 486 76" style="enable-background:new 0 0 486 76;" xml:space="preserve">
<style type="text/css">
	.st0{opacity:0.28;}
	.st1{fill:#E4C8AD;}
</style>
<g class="st0">
	<path class="st1" d="M289.5,38.2c0-23.4,15.8-37.8,42.3-37.8c26.6,0,42.3,14.4,42.3,37.8S358.3,76,331.7,76
		C305.2,76,289.5,61.6,289.5,38.2z M361.6,38.2c0-17.8-11.5-27-29.9-27c-18.4,0-29.9,9.2-29.9,27s11.4,27,29.9,27
		C350.1,65.2,361.6,56,361.6,38.2z"/>
	<path class="st1" d="M400.6,16.7c-6.1,4.8-13.7,7.4-21.9,8.8V14.8c9.1-1.3,18.1-6.4,24.9-12.3h9.3v71.3h-12.2V16.7z"/>
</g>
</svg>
