<?xml version="1.0" encoding="utf-8"?>
<!-- Generator: Adobe Illustrator 25.4.1, SVG Export Plug-In . SVG Version: 6.00 Build 0)  -->
<svg version="1.1" id="レイヤー_1" xmlns="http://www.w3.org/2000/svg" xmlns:xlink="http://www.w3.org/1999/xlink" x="0px"
	 y="0px" viewBox="0 0 486 76" style="enable-background:new 0 0 486 76;" xml:space="preserve">
<style type="text/css">
	.st0{opacity:0.28;}
	.st1{fill:#E4C8AD;}
</style>
<g class="st0">
	<path class="st1" d="M53.4,37.8C53.4,14.4,69.2,0,95.7,0C122.3,0,138,14.4,138,37.8s-15.7,37.8-42.3,37.8
		C69.2,75.6,53.4,61.2,53.4,37.8z M125.6,37.8c0-17.8-11.5-27-29.9-27c-18.4,0-29.9,9.2-29.9,27s11.4,27,29.9,27
		C114,64.8,125.6,55.6,125.6,37.8z"/>
	<path class="st1" d="M182.1,0.1c16.7,0,33.7,7.2,33.7,21.6c0,12.2-11.7,18.5-28.3,24c-14.7,5.1-25.7,10.7-28.1,17.5h58.1v10.2
		h-73.3v-5.6c2.2-12.7,15.4-23.7,36.4-31c13.1-4.6,22.8-7.9,22.8-15c0-7.9-10.8-11.7-21.7-11.7c-11.5,0-20.6,4.7-27.6,13.7l-8-6.3
		C152.3,7.6,165.7,0.1,182.1,0.1z"/>
</g>
</svg>
