<?xml version="1.0" encoding="utf-8"?>
<!-- Generator: Adobe Illustrator 25.4.1, SVG Export Plug-In . SVG Version: 6.00 Build 0)  -->
<svg version="1.1" id="レイヤー_1" xmlns="http://www.w3.org/2000/svg" xmlns:xlink="http://www.w3.org/1999/xlink" x="0px"
	 y="0px" viewBox="0 0 98 38" style="enable-background:new 0 0 98 38;" xml:space="preserve">
<style type="text/css">
	.st0{fill:#FFFFFF;}
</style>
<g>
	<g>
		<g>
			<path class="st0" d="M23.9,17.8c0,1.7-1.3,2.7-3.3,2.7h-4.2v2.9h-1.4v-8.3h5.6C22.5,15.1,23.9,16.1,23.9,17.8z M22.4,17.8
				c0-1.1-0.8-1.5-2-1.5h-4.1v3h4.1C21.6,19.3,22.4,18.8,22.4,17.8z"/>
			<path class="st0" d="M25.2,19.2c0-2.7,2-4.4,5.1-4.4c3.2,0,5.1,1.7,5.1,4.4c0,2.7-2,4.4-5.1,4.4C27.2,23.6,25.2,21.9,25.2,19.2z
				 M34,19.2c0-2-1.4-3.1-3.7-3.1s-3.7,1.1-3.7,3.1c0,2,1.4,3.1,3.7,3.1C32.6,22.3,34,21.2,34,19.2z"/>
			<path class="st0" d="M37.6,23.4v-8.3h1.4v8.3H37.6z"/>
			<path class="st0" d="M50.9,15.1v8.3h-1.3l-6.5-6.5v6.5h-1.4v-8.3h1.5l6.2,6.3v-6.3H50.9z"/>
			<path class="st0" d="M61.5,16.3h-3.8v7h-1.4v-7h-3.7v-1.2h8.9V16.3z"/>
			<path class="st0" d="M66.5,19.2c0-2.7,1.8-4.4,4.9-4.4c3.1,0,4.9,1.7,4.9,4.4c0,2.7-1.8,4.4-4.9,4.4
				C68.3,23.6,66.5,21.9,66.5,19.2z M74.8,19.2c0-2.1-1.3-3.1-3.5-3.1c-2.1,0-3.5,1.1-3.5,3.1c0,2.1,1.3,3.1,3.5,3.1
				C73.5,22.3,74.8,21.3,74.8,19.2z"/>
			<path class="st0" d="M80.1,16.7c-0.7,0.6-1.6,0.9-2.5,1v-1.2c1.1-0.2,2.1-0.7,2.9-1.4h1.1v8.3h-1.4V16.7z"/>
		</g>
	</g>
	<path class="st0" d="M49,37.8C22.1,37.8,0.3,29.3,0.3,19C0.3,8.7,22.1,0.2,49,0.2S97.7,8.7,97.7,19C97.7,29.3,75.9,37.8,49,37.8z
		 M49,1.2C22.7,1.2,1.3,9.2,1.3,19c0,9.8,21.4,17.8,47.7,17.8s47.7-8,47.7-17.8C96.7,9.2,75.3,1.2,49,1.2z"/>
</g>
</svg>
