<?xml version="1.0" encoding="utf-8"?>
<!-- Generator: Adobe Illustrator 25.4.1, SVG Export Plug-In . SVG Version: 6.00 Build 0)  -->
<svg version="1.1" id="レイヤー_1" xmlns="http://www.w3.org/2000/svg" xmlns:xlink="http://www.w3.org/1999/xlink" x="0px"
	 y="0px" viewBox="0 0 89 34" style="enable-background:new 0 0 89 34;" xml:space="preserve">
<style type="text/css">
	.st0{fill:#E0BEB1;}
</style>
<g>
	<g>
		<g>
			<path class="st0" d="M20.5,15.9c0,1.6-1.2,2.4-3,2.4h-3.8v2.6h-1.3v-7.5h5C19.3,13.5,20.5,14.3,20.5,15.9z M19.2,15.9
				c0-1-0.7-1.3-1.8-1.3h-3.7v2.7h3.7C18.5,17.2,19.2,16.9,19.2,15.9z"/>
			<path class="st0" d="M21.7,17.2c0-2.5,1.8-4,4.6-4s4.6,1.5,4.6,4s-1.8,4-4.6,4S21.7,19.7,21.7,17.2z M29.7,17.2
				c0-1.8-1.3-2.8-3.3-2.8c-2,0-3.3,1-3.3,2.8c0,1.8,1.3,2.8,3.3,2.8C28.4,20,29.7,19,29.7,17.2z"/>
			<path class="st0" d="M32.9,20.9v-7.5h1.3v7.5H32.9z"/>
			<path class="st0" d="M44.9,13.5v7.5h-1.1L37.9,15v5.9h-1.2v-7.5H38l5.6,5.7v-5.7H44.9z"/>
			<path class="st0" d="M54.5,14.6h-3.4v6.3h-1.3v-6.3h-3.4v-1.1h8.1V14.6z"/>
			<path class="st0" d="M58.9,17.2c0-2.5,1.7-4,4.4-4c2.8,0,4.4,1.5,4.4,4s-1.6,4-4.4,4C60.6,21.2,58.9,19.6,58.9,17.2z M66.5,17.2
				c0-1.9-1.2-2.8-3.1-2.8c-1.9,0-3.1,1-3.1,2.8c0,1.9,1.2,2.8,3.1,2.8C65.3,20,66.5,19.1,66.5,17.2z"/>
			<path class="st0" d="M73.1,20.1c1.3,0,2.4-0.4,2.4-1.3c0-0.9-1.1-1.2-2.7-1.2h-1v-1h1c1.3,0,2.4-0.3,2.4-1.1
				c0-0.8-1.2-1.1-2.2-1.1c-1.4,0-2.3,0.5-2.9,1.2l-1-0.6c0.8-1.1,2-1.7,3.8-1.7c1.9,0,3.6,0.7,3.6,2.1c0,1-0.9,1.6-1.8,1.7
				c0.9,0.1,2.1,0.6,2.1,1.8c0,1.5-1.7,2.3-3.8,2.3c-1.9,0-3.3-0.7-4.1-1.8l1.1-0.6C70.6,19.6,71.7,20.1,73.1,20.1z"/>
		</g>
	</g>
	<path class="st0" d="M44.5,34c-24.3,0-44-7.6-44-17s19.7-17,44-17c24.3,0,44,7.6,44,17S68.8,34,44.5,34z M44.5,1
		c-23.7,0-43,7.2-43,16s19.3,16,43,16c23.7,0,43-7.2,43-16S68.2,1,44.5,1z"/>
</g>
</svg>
