<?xml version="1.0" encoding="utf-8"?>
<!-- Generator: Adobe Illustrator 25.4.1, SVG Export Plug-In . SVG Version: 6.00 Build 0)  -->
<svg version="1.1" id="レイヤー_1" xmlns="http://www.w3.org/2000/svg" xmlns:xlink="http://www.w3.org/1999/xlink" x="0px"
	 y="0px" viewBox="0 0 88 34" style="enable-background:new 0 0 88 34;" xml:space="preserve">
<style type="text/css">
	.st0{fill:#FFFFFF;}
</style>
<g>
	<g>
		<g>
			<path class="st0" d="M20.2,15.9c0,1.6-1.2,2.4-3,2.4h-3.8v2.6h-1.3v-7.4h5C19,13.5,20.2,14.4,20.2,15.9z M18.9,15.9
				c0-1-0.7-1.3-1.8-1.3h-3.6v2.7h3.6C18.2,17.2,18.9,16.9,18.9,15.9z"/>
			<path class="st0" d="M21.5,17.2c0-2.5,1.8-3.9,4.6-3.9c2.9,0,4.6,1.5,4.6,3.9c0,2.5-1.8,3.9-4.6,3.9
				C23.2,21.1,21.5,19.7,21.5,17.2z M29.4,17.2c0-1.8-1.3-2.8-3.3-2.8s-3.3,1-3.3,2.8c0,1.8,1.3,2.8,3.3,2.8
				C28.1,20,29.4,19,29.4,17.2z"/>
			<path class="st0" d="M32.7,20.9v-7.4h1.3v7.4H32.7z"/>
			<path class="st0" d="M44.6,13.5v7.4h-1.1L37.6,15v5.9h-1.2v-7.4h1.4l5.6,5.6v-5.6H44.6z"/>
			<path class="st0" d="M54.2,14.6h-3.4v6.3h-1.3v-6.3h-3.4v-1.1h8V14.6z"/>
			<path class="st0" d="M58.6,17.2c0-2.4,1.6-3.9,4.4-3.9c2.8,0,4.4,1.5,4.4,3.9s-1.6,3.9-4.4,3.9C60.3,21.1,58.6,19.6,58.6,17.2z
				 M66.1,17.2c0-1.9-1.2-2.8-3.1-2.8c-1.9,0-3.1,1-3.1,2.8S61.1,20,63,20C64.9,20,66.1,19.1,66.1,17.2z"/>
			<path class="st0" d="M72.7,13.3c1.7,0,3.5,0.8,3.5,2.3c0,1.3-1.2,1.9-3,2.5c-1.5,0.5-2.7,1.1-2.9,1.8h6.1v1.1h-7.6v-0.6
				c0.2-1.3,1.6-2.5,3.8-3.2c1.4-0.5,2.4-0.8,2.4-1.6c0-0.8-1.1-1.2-2.3-1.2c-1.2,0-2.1,0.5-2.9,1.4l-0.8-0.7
				C69.6,14,71,13.3,72.7,13.3z"/>
		</g>
	</g>
	<path class="st0" d="M44,33.9C19.8,33.9,0.1,26.3,0.1,17S19.8,0.1,44,0.1S87.9,7.7,87.9,17S68.2,33.9,44,33.9z M44,1.1
		C20.3,1.1,1.1,8.2,1.1,17S20.3,32.9,44,32.9S86.9,25.8,86.9,17S67.7,1.1,44,1.1z"/>
</g>
</svg>
