<?xml version="1.0" encoding="utf-8"?>
<!-- Generator: Adobe Illustrator 25.4.1, SVG Export Plug-In . SVG Version: 6.00 Build 0)  -->
<svg version="1.1" id="レイヤー_1" xmlns="http://www.w3.org/2000/svg" xmlns:xlink="http://www.w3.org/1999/xlink" x="0px"
	 y="0px" viewBox="0 0 89 34" style="enable-background:new 0 0 89 34;" xml:space="preserve">
<style type="text/css">
	.st0{fill:#FFFFFF;}
</style>
<g>
	<g>
		<path class="st0" d="M19.4,15.9c0,1.6-1.2,2.4-3,2.4h-3.8v2.6h-1.3v-7.5h5C18.2,13.5,19.4,14.3,19.4,15.9z M18.1,15.9
			c0-1-0.7-1.3-1.8-1.3h-3.7v2.7h3.7C17.4,17.2,18.1,16.9,18.1,15.9z"/>
		<path class="st0" d="M20.6,17.2c0-2.5,1.8-4,4.6-4s4.6,1.5,4.6,4s-1.8,4-4.6,4S20.6,19.7,20.6,17.2z M28.6,17.2
			c0-1.8-1.3-2.8-3.3-2.8c-2,0-3.3,1-3.3,2.8c0,1.8,1.3,2.8,3.3,2.8C27.3,20,28.6,19,28.6,17.2z"/>
		<path class="st0" d="M31.9,20.9v-7.5h1.3v7.5H31.9z"/>
		<path class="st0" d="M43.8,13.5v7.5h-1.1L36.9,15v5.9h-1.2v-7.5H37l5.6,5.7v-5.7H43.8z"/>
		<path class="st0" d="M53.4,14.6H50v6.3h-1.3v-6.3h-3.4v-1.1h8.1V14.6z"/>
		<path class="st0" d="M57.9,17.2c0-2.5,1.7-4,4.4-4c2.8,0,4.4,1.5,4.4,4s-1.6,4-4.4,4C59.5,21.2,57.9,19.6,57.9,17.2z M65.4,17.2
			c0-1.9-1.2-2.8-3.1-2.8c-1.9,0-3.1,1-3.1,2.8c0,1.9,1.2,2.8,3.1,2.8C64.2,20,65.4,19.1,65.4,17.2z"/>
		<path class="st0" d="M76.5,19.2h-1.6v1.7h-1.3v-1.7h-5.8v-0.8l5.9-5h1.1v4.7h1.6V19.2z M73.6,18.2v-3.3l-4,3.3H73.6z"/>
	</g>
</g>
<path class="st0" d="M44.5,34c-24.3,0-44-7.6-44-17s19.8-17,44-17c24.3,0,44,7.6,44,17S68.8,34,44.5,34z M44.5,1
	c-23.7,0-43,7.2-43,16s19.3,16,43,16s43-7.2,43-16S68.2,1,44.5,1z"/>
</svg>
