<?xml version="1.0" encoding="utf-8"?>
<!-- Generator: Adobe Illustrator 25.4.1, SVG Export Plug-In . SVG Version: 6.00 Build 0)  -->
<svg version="1.1" id="レイヤー_1" xmlns="http://www.w3.org/2000/svg" xmlns:xlink="http://www.w3.org/1999/xlink" x="0px"
	 y="0px" viewBox="0 0 2637 30" style="enable-background:new 0 0 2637 30;" xml:space="preserve">
<style type="text/css">
	.st0{fill:#F08984;}
</style>
<g>
	<path class="st0" d="M1,3.1h16.4l0.4,7.1c-0.2-1.4-0.4-2.6-0.7-3.4c-0.3-0.9-0.6-1.5-1-2c-0.4-0.5-0.9-0.8-1.4-0.9
		c-0.5-0.2-1.2-0.2-1.9-0.2h-2.3v17.9c0,0.4,0,0.8,0.1,1.1c0.1,0.3,0.1,0.6,0.3,0.7c0.1,0.2,0.3,0.4,0.5,0.5
		c0.2,0.1,0.5,0.2,0.8,0.3H6.4C6.7,24,7,23.9,7.2,23.8c0.2-0.1,0.4-0.3,0.5-0.5c0.1-0.2,0.2-0.4,0.3-0.7c0.1-0.3,0.1-0.7,0.1-1.1
		V3.6H5.8C5,3.6,4.4,3.6,3.8,3.8c-0.5,0.2-1,0.5-1.4,0.9c-0.4,0.5-0.7,1.1-1,2c-0.3,0.9-0.5,2-0.8,3.4L1,3.1z"/>
	<path class="st0" d="M29.9,6.8c1.3,0,2.5,0.2,3.5,0.6s2,1,2.7,1.8c0.8,0.8,1.4,1.7,1.8,2.8c0.4,1.1,0.6,2.2,0.6,3.5v0
		c0,1.3-0.2,2.4-0.6,3.5c-0.4,1.1-1,2-1.8,2.8c-0.8,0.8-1.7,1.4-2.7,1.8c-1.1,0.4-2.2,0.6-3.5,0.6c-1.3,0-2.5-0.2-3.5-0.6
		c-1.1-0.4-2-1-2.7-1.8s-1.4-1.7-1.8-2.8c-0.4-1.1-0.6-2.2-0.6-3.5v0c0-1.3,0.2-2.4,0.6-3.5c0.4-1.1,1-2,1.8-2.8
		c0.8-0.8,1.7-1.4,2.7-1.8S28.6,6.8,29.9,6.8z M23.6,15.6c0,1.2,0.2,2.3,0.5,3.3c0.3,1,0.7,1.9,1.3,2.6c0.5,0.7,1.2,1.3,2,1.7
		c0.8,0.4,1.6,0.6,2.5,0.6s1.8-0.2,2.5-0.6c0.8-0.4,1.4-1,2-1.7c0.5-0.7,1-1.6,1.3-2.6c0.3-1,0.5-2.1,0.5-3.3c0-1.2-0.2-2.3-0.5-3.3
		c-0.3-1-0.7-1.9-1.3-2.6c-0.5-0.7-1.2-1.3-2-1.7c-0.8-0.4-1.6-0.6-2.5-0.6s-1.8,0.2-2.5,0.6c-0.8,0.4-1.4,1-2,1.7
		c-0.5,0.7-1,1.6-1.3,2.6C23.8,13.2,23.6,14.3,23.6,15.6z"/>
	<path class="st0" d="M43.2,21.5V10.3c0-0.4,0-0.8,0-1.1c0-0.3-0.1-0.6-0.1-0.8c-0.1-0.2-0.1-0.5-0.3-0.7c-0.1-0.2-0.2-0.4-0.4-0.6
		l3.1-0.3v4.8c0.5-1.5,1.3-2.6,2.4-3.5c1.1-0.8,2.4-1.3,4-1.3c1.8,0,3.2,0.4,4.2,1.3c1,0.9,1.6,2.1,1.8,3.5c0.5-1.5,1.2-2.7,2.3-3.6
		c1.1-0.9,2.4-1.3,4.1-1.3c1,0,1.8,0.1,2.5,0.4c0.7,0.3,1.4,0.7,1.9,1.2c0.5,0.5,0.9,1.1,1.2,1.8c0.3,0.7,0.4,1.5,0.4,2.3v9
		c0,0.4,0,0.8,0.1,1.1c0.1,0.3,0.1,0.5,0.3,0.7c0.1,0.2,0.3,0.4,0.5,0.5c0.2,0.1,0.5,0.2,0.8,0.3h-5.4c0.3-0.1,0.6-0.2,0.8-0.3
		c0.2-0.1,0.4-0.3,0.5-0.5s0.2-0.4,0.2-0.7c0-0.3,0.1-0.7,0.1-1.1v-9.3c0-1.5-0.4-2.7-1.1-3.6s-1.8-1.3-3.2-1.3
		c-0.7,0-1.4,0.2-2.1,0.5c-0.7,0.3-1.3,0.7-1.8,1.3c-0.5,0.6-1,1.3-1.4,2.1C58,12,57.8,13,57.8,14v7.5c0,0.4,0,0.8,0.1,1.1
		c0,0.3,0.1,0.5,0.3,0.7c0.1,0.2,0.3,0.4,0.5,0.5c0.2,0.1,0.5,0.2,0.8,0.3H54c0.3-0.1,0.6-0.2,0.8-0.3c0.2-0.1,0.4-0.3,0.5-0.5
		s0.2-0.4,0.2-0.7c0-0.3,0.1-0.7,0.1-1.1v-9.3c0-1.5-0.4-2.7-1.1-3.6c-0.7-0.9-1.8-1.3-3.1-1.3c-0.7,0-1.4,0.2-2.1,0.5
		c-0.7,0.3-1.3,0.7-1.8,1.3c-0.5,0.6-1,1.3-1.4,2.1C45.7,12,45.5,13,45.4,14v7.5c0,0.4,0,0.8,0.1,1.1c0,0.3,0.1,0.5,0.3,0.7
		c0.1,0.2,0.3,0.4,0.5,0.5c0.2,0.1,0.5,0.2,0.8,0.3h-5.4c0.3-0.1,0.6-0.2,0.8-0.3c0.2-0.1,0.4-0.3,0.5-0.5s0.2-0.4,0.2-0.7
		C43.1,22.3,43.2,21.9,43.2,21.5z"/>
	<path class="st0" d="M83.3,6.8c1.3,0,2.5,0.2,3.5,0.6c1.1,0.4,2,1,2.7,1.8c0.8,0.8,1.4,1.7,1.8,2.8c0.4,1.1,0.6,2.2,0.6,3.5v0
		c0,1.3-0.2,2.4-0.6,3.5c-0.4,1.1-1,2-1.8,2.8c-0.8,0.8-1.7,1.4-2.7,1.8c-1.1,0.4-2.2,0.6-3.5,0.6c-1.3,0-2.5-0.2-3.5-0.6
		c-1.1-0.4-2-1-2.7-1.8s-1.4-1.7-1.8-2.8c-0.4-1.1-0.6-2.2-0.6-3.5v0c0-1.3,0.2-2.4,0.6-3.5c0.4-1.1,1-2,1.8-2.8
		c0.8-0.8,1.7-1.4,2.7-1.8C80.8,7.1,82,6.8,83.3,6.8z M77,15.6c0,1.2,0.2,2.3,0.5,3.3c0.3,1,0.7,1.9,1.3,2.6c0.5,0.7,1.2,1.3,2,1.7
		c0.8,0.4,1.6,0.6,2.5,0.6c0.9,0,1.8-0.2,2.5-0.6c0.8-0.4,1.4-1,2-1.7c0.5-0.7,1-1.6,1.3-2.6c0.3-1,0.5-2.1,0.5-3.3
		c0-1.2-0.2-2.3-0.5-3.3c-0.3-1-0.7-1.9-1.3-2.6c-0.5-0.7-1.2-1.3-2-1.7c-0.8-0.4-1.6-0.6-2.5-0.6c-0.9,0-1.8,0.2-2.5,0.6
		c-0.8,0.4-1.4,1-2,1.7c-0.5,0.7-1,1.6-1.3,2.6C77.2,13.2,77,14.3,77,15.6z"/>
	<path class="st0" d="M95,24.1c0.3-0.1,0.6-0.2,0.8-0.3c0.2-0.1,0.4-0.3,0.5-0.5c0.1-0.2,0.2-0.4,0.2-0.7c0-0.3,0.1-0.7,0.1-1.1
		V10.3c0-0.4,0-0.8,0-1.1c0-0.3-0.1-0.6-0.1-0.8c-0.1-0.2-0.1-0.5-0.3-0.7c-0.1-0.2-0.2-0.4-0.4-0.6l3.1-0.3v4.1
		c0.2-0.6,0.5-1.1,0.8-1.6c0.3-0.5,0.7-0.9,1.1-1.3c0.4-0.4,0.9-0.6,1.4-0.8c0.5-0.2,1.1-0.3,1.8-0.3c0.6,0,1.2,0.1,1.7,0.2l0,2.9
		c-0.2-0.2-0.4-0.5-0.7-0.7c-0.3-0.2-0.5-0.5-0.8-0.7c-0.3-0.2-0.6-0.4-0.9-0.5c-0.3-0.1-0.6-0.2-0.9-0.2c-0.4,0-0.8,0.1-1.1,0.3
		c-0.3,0.2-0.7,0.5-1,0.8c-0.3,0.3-0.6,0.7-0.8,1.2c-0.2,0.5-0.5,0.9-0.6,1.4v9.8c0,0.4,0,0.8,0.1,1.1c0,0.3,0.1,0.5,0.3,0.7
		c0.1,0.2,0.3,0.4,0.5,0.5c0.2,0.1,0.5,0.2,0.8,0.3H95z"/>
	<path class="st0" d="M108.2,24.1c0.3-0.1,0.6-0.2,0.8-0.3c0.2-0.1,0.4-0.3,0.5-0.5c0.1-0.2,0.2-0.4,0.2-0.7c0-0.3,0.1-0.7,0.1-1.1
		V10.3c0-0.4,0-0.8,0-1.1c0-0.3-0.1-0.6-0.1-0.8c-0.1-0.2-0.1-0.5-0.3-0.7c-0.1-0.2-0.2-0.4-0.4-0.6l3.1-0.3v4.1
		c0.2-0.6,0.5-1.1,0.8-1.6c0.3-0.5,0.7-0.9,1.1-1.3c0.4-0.4,0.9-0.6,1.4-0.8c0.5-0.2,1.1-0.3,1.8-0.3c0.6,0,1.2,0.1,1.7,0.2l0,2.9
		c-0.2-0.2-0.4-0.5-0.7-0.7c-0.3-0.2-0.5-0.5-0.8-0.7c-0.3-0.2-0.6-0.4-0.9-0.5c-0.3-0.1-0.6-0.2-0.9-0.2c-0.4,0-0.8,0.1-1.1,0.3
		c-0.3,0.2-0.7,0.5-1,0.8c-0.3,0.3-0.6,0.7-0.8,1.2c-0.2,0.5-0.5,0.9-0.6,1.4v9.8c0,0.4,0,0.8,0.1,1.1c0,0.3,0.1,0.5,0.3,0.7
		c0.1,0.2,0.3,0.4,0.5,0.5c0.2,0.1,0.5,0.2,0.8,0.3H108.2z"/>
	<path class="st0" d="M130.2,6.8c1.3,0,2.5,0.2,3.5,0.6c1.1,0.4,2,1,2.7,1.8c0.8,0.8,1.4,1.7,1.8,2.8c0.4,1.1,0.6,2.2,0.6,3.5v0
		c0,1.3-0.2,2.4-0.6,3.5c-0.4,1.1-1,2-1.8,2.8c-0.8,0.8-1.7,1.4-2.7,1.8c-1.1,0.4-2.2,0.6-3.5,0.6c-1.3,0-2.5-0.2-3.5-0.6
		c-1.1-0.4-2-1-2.7-1.8s-1.4-1.7-1.8-2.8c-0.4-1.1-0.6-2.2-0.6-3.5v0c0-1.3,0.2-2.4,0.6-3.5c0.4-1.1,1-2,1.8-2.8
		c0.8-0.8,1.7-1.4,2.7-1.8C127.7,7.1,128.9,6.8,130.2,6.8z M123.9,15.6c0,1.2,0.2,2.3,0.5,3.3c0.3,1,0.7,1.9,1.3,2.6
		c0.5,0.7,1.2,1.3,2,1.7c0.8,0.4,1.6,0.6,2.5,0.6c0.9,0,1.8-0.2,2.5-0.6c0.8-0.4,1.4-1,2-1.7c0.5-0.7,1-1.6,1.3-2.6
		c0.3-1,0.5-2.1,0.5-3.3c0-1.2-0.2-2.3-0.5-3.3c-0.3-1-0.7-1.9-1.3-2.6c-0.5-0.7-1.2-1.3-2-1.7c-0.8-0.4-1.6-0.6-2.5-0.6
		c-0.9,0-1.8,0.2-2.5,0.6c-0.8,0.4-1.4,1-2,1.7c-0.5,0.7-1,1.6-1.3,2.6C124.1,13.2,123.9,14.3,123.9,15.6z"/>
	<path class="st0" d="M145.2,7c-0.2,0.1-0.3,0.3-0.4,0.6c-0.1,0.3-0.1,0.7,0.2,1.3l4.2,11.8L153.5,7h0.2l5.5,13.9l3.3-10.2
		c0.3-0.8,0.4-1.5,0.5-1.9c0-0.5,0-0.8-0.1-1.1s-0.2-0.4-0.3-0.5c-0.1-0.1-0.3-0.2-0.4-0.2h3c-0.3,0.2-0.6,0.4-0.9,0.7
		c-0.3,0.3-0.6,0.9-0.9,1.8l-4.7,14.6h-0.4l-5.4-13.7l-4.3,13.7h-0.4L143,9.7c-0.3-0.9-0.6-1.6-0.9-1.9c-0.2-0.4-0.5-0.6-0.7-0.7
		H145.2z"/>
	<path class="st0" d="M168.9,23.1c0-0.3,0.1-0.6,0.3-0.8c0.2-0.2,0.5-0.3,0.8-0.3s0.6,0.1,0.8,0.3c0.2,0.2,0.3,0.5,0.3,0.9
		c0,0.9-0.2,1.6-0.6,2.2s-0.9,1-1.5,1.2l0,0c0.4-0.3,0.7-0.7,0.9-1.1c0.2-0.4,0.4-0.8,0.4-1.3c-0.1,0-0.2,0-0.3,0
		c-0.3,0-0.6-0.1-0.8-0.3C169,23.7,168.9,23.4,168.9,23.1z"/>
	<path class="st0" d="M190.5,3.1c-0.1,0.1-0.2,0.2-0.2,0.3c-0.1,0.1-0.1,0.3-0.1,0.4c0,0.2,0,0.4,0.1,0.6c0.1,0.2,0.2,0.5,0.4,0.8
		l6,9.1l5.2-7.8c0.5-0.7,0.8-1.3,0.9-1.7c0.2-0.4,0.2-0.7,0.2-1s-0.1-0.4-0.2-0.5c-0.1-0.1-0.2-0.2-0.2-0.3h2.8
		c-0.3,0.1-0.6,0.3-1,0.7c-0.4,0.4-0.9,1-1.4,1.8l-6.2,9.2v6.8c0,0.9,0.1,1.5,0.3,1.8c0.2,0.4,0.7,0.6,1.3,0.8H193
		c0.6-0.2,1.1-0.5,1.3-0.8c0.2-0.4,0.3-1,0.3-1.9V15l-5.8-8.9c-0.7-1-1.2-1.8-1.6-2.2c-0.4-0.4-0.7-0.7-1-0.9H190.5z"/>
	<path class="st0" d="M217.1,6.8c1.3,0,2.5,0.2,3.5,0.6c1.1,0.4,2,1,2.7,1.8c0.8,0.8,1.4,1.7,1.8,2.8c0.4,1.1,0.6,2.2,0.6,3.5v0
		c0,1.3-0.2,2.4-0.6,3.5c-0.4,1.1-1,2-1.8,2.8c-0.8,0.8-1.7,1.4-2.7,1.8c-1.1,0.4-2.2,0.6-3.5,0.6c-1.3,0-2.5-0.2-3.5-0.6
		c-1.1-0.4-2-1-2.7-1.8s-1.4-1.7-1.8-2.8c-0.4-1.1-0.6-2.2-0.6-3.5v0c0-1.3,0.2-2.4,0.6-3.5c0.4-1.1,1-2,1.8-2.8
		c0.8-0.8,1.7-1.4,2.7-1.8S215.8,6.8,217.1,6.8z M210.8,15.6c0,1.2,0.2,2.3,0.5,3.3c0.3,1,0.7,1.9,1.3,2.6c0.5,0.7,1.2,1.3,2,1.7
		c0.8,0.4,1.6,0.6,2.5,0.6s1.8-0.2,2.5-0.6c0.8-0.4,1.4-1,2-1.7c0.5-0.7,1-1.6,1.3-2.6c0.3-1,0.5-2.1,0.5-3.3c0-1.2-0.2-2.3-0.5-3.3
		c-0.3-1-0.7-1.9-1.3-2.6c-0.5-0.7-1.2-1.3-2-1.7c-0.8-0.4-1.6-0.6-2.5-0.6s-1.8,0.2-2.5,0.6c-0.8,0.4-1.4,1-2,1.7
		c-0.5,0.7-1,1.6-1.3,2.6C211,13.2,210.8,14.3,210.8,15.6z"/>
	<path class="st0" d="M228.9,7.1l3.1-0.3v12.3c0,0.9,0.1,1.6,0.3,2.2c0.2,0.6,0.4,1.1,0.8,1.5c0.3,0.4,0.7,0.6,1.2,0.8
		c0.5,0.2,1,0.2,1.6,0.2c0.9,0,1.7-0.2,2.4-0.6c0.7-0.4,1.2-0.9,1.7-1.6c0.4-0.6,0.8-1.4,1-2.2c0.2-0.8,0.4-1.6,0.4-2.3v-6.9
		c0-0.4,0-0.8,0-1.1c0-0.3-0.1-0.6-0.1-0.8c-0.1-0.2-0.1-0.5-0.3-0.7c-0.1-0.2-0.2-0.4-0.4-0.6l3.1-0.3v14.3c0,0.9,0.1,1.5,0.2,2
		c0.1,0.4,0.4,0.8,0.6,1l-3,0.1v-4.6c-0.3,0.7-0.6,1.4-1,1.9c-0.4,0.6-0.8,1.1-1.2,1.5c-0.5,0.4-1,0.7-1.6,0.9
		c-0.6,0.2-1.3,0.3-2.1,0.3c-1.7,0-3.1-0.4-4.1-1.3c-1-0.9-1.5-2.2-1.5-4v-8.7c0-0.4,0-0.8,0-1.1c0-0.3-0.1-0.6-0.1-0.8
		c-0.1-0.2-0.1-0.5-0.3-0.7C229.2,7.5,229.1,7.3,228.9,7.1z"/>
	<path class="st0" d="M260.8,7c-0.2,0.1-0.3,0.3-0.4,0.6c-0.1,0.3-0.1,0.7,0.2,1.3l4.2,11.8L269.1,7h0.2l5.5,13.9l3.3-10.2
		c0.3-0.8,0.4-1.5,0.5-1.9c0-0.5,0-0.8-0.1-1.1s-0.2-0.4-0.3-0.5c-0.1-0.1-0.3-0.2-0.4-0.2h3c-0.3,0.2-0.6,0.4-0.9,0.7
		c-0.3,0.3-0.6,0.9-0.9,1.8l-4.7,14.6h-0.4l-5.4-13.7l-4.3,13.7h-0.4l-5.2-14.5c-0.3-0.9-0.6-1.6-0.9-1.9c-0.2-0.4-0.5-0.6-0.7-0.7
		H260.8z"/>
	<path class="st0" d="M283.2,24.1c0.3-0.1,0.6-0.2,0.8-0.3c0.2-0.1,0.4-0.3,0.5-0.5c0.1-0.2,0.2-0.4,0.2-0.7c0-0.3,0.1-0.7,0.1-1.1
		V10.3c0-0.4,0-0.8,0-1.1c0-0.3-0.1-0.6-0.1-0.8c-0.1-0.2-0.1-0.5-0.3-0.7c-0.1-0.2-0.2-0.4-0.4-0.6l3.1-0.3v14.7
		c0,0.4,0,0.8,0.1,1.1c0,0.3,0.1,0.5,0.3,0.7c0.1,0.2,0.3,0.4,0.5,0.5c0.2,0.1,0.5,0.2,0.8,0.3H283.2z M285.8,1.6
		c0.5,0,0.8,0.1,1.2,0.4c0.3,0.3,0.5,0.6,0.5,1.1c0,0.5-0.2,0.8-0.5,1.1s-0.7,0.4-1.2,0.4c-0.4,0-0.8-0.1-1.1-0.4s-0.5-0.7-0.5-1.1
		c0-0.5,0.2-0.8,0.5-1.1C284.9,1.7,285.3,1.6,285.8,1.6z"/>
	<path class="st0" d="M291.4,24.1c0.3-0.1,0.6-0.2,0.8-0.3c0.2-0.1,0.4-0.3,0.5-0.5c0.1-0.2,0.2-0.4,0.2-0.7c0-0.3,0.1-0.7,0.1-1.1
		V3.7c0-0.6-0.1-1.1-0.2-1.4c-0.1-0.3-0.3-0.5-0.6-0.8l3-0.4v20.3c0,0.4,0,0.8,0.1,1.1c0.1,0.3,0.1,0.5,0.3,0.7
		c0.1,0.2,0.3,0.4,0.5,0.5c0.2,0.1,0.5,0.2,0.8,0.3H291.4z"/>
	<path class="st0" d="M299.6,24.1c0.3-0.1,0.6-0.2,0.8-0.3c0.2-0.1,0.4-0.3,0.5-0.5c0.1-0.2,0.2-0.4,0.2-0.7c0-0.3,0.1-0.7,0.1-1.1
		V3.7c0-0.6-0.1-1.1-0.2-1.4c-0.1-0.3-0.3-0.5-0.6-0.8l3-0.4v20.3c0,0.4,0,0.8,0.1,1.1c0.1,0.3,0.1,0.5,0.3,0.7
		c0.1,0.2,0.3,0.4,0.5,0.5c0.2,0.1,0.5,0.2,0.8,0.3H299.6z"/>
	<path class="st0" d="M318.1,1.5l3-0.4v7.7c0.4-0.4,0.8-0.8,1.2-1c0.4-0.3,0.9-0.5,1.3-0.6c0.4-0.2,0.9-0.3,1.3-0.3
		c0.4-0.1,0.8-0.1,1.2-0.1c1.3,0,2.5,0.2,3.6,0.6c1.1,0.4,2,1,2.7,1.7c0.7,0.7,1.3,1.6,1.7,2.6s0.6,2.1,0.6,3.4
		c0,1.3-0.2,2.5-0.7,3.6c-0.4,1.1-1,2.1-1.8,2.9c-0.8,0.8-1.7,1.5-2.7,2c-1.1,0.5-2.2,0.7-3.5,0.7c-2.2,0-4-0.7-5.4-2.1l-1.6,2
		l-0.1-0.1V3.7c0-0.6-0.1-1.1-0.2-1.4C318.6,2,318.4,1.8,318.1,1.5z M326.2,23.8c1,0,1.8-0.2,2.6-0.6c0.8-0.4,1.4-0.9,1.9-1.6
		c0.5-0.7,0.9-1.5,1.2-2.4c0.3-0.9,0.4-1.9,0.4-3c0-1.2-0.1-2.4-0.4-3.4c-0.3-1.1-0.7-2-1.3-2.8c-0.6-0.8-1.3-1.5-2.1-1.9
		c-0.8-0.5-1.8-0.7-2.9-0.7c-0.7,0-1.5,0.1-2.3,0.4c-0.8,0.3-1.5,0.9-2.1,1.7v10.9c0.6,1.1,1.3,2,2.1,2.6
		C324.1,23.5,325,23.8,326.2,23.8z"/>
	<path class="st0" d="M345.8,6.8c1.2,0,2.3,0.2,3.2,0.5c0.9,0.3,1.6,0.8,2.2,1.5c0.6,0.6,1,1.4,1.3,2.2c0.3,0.8,0.4,1.8,0.5,2.8
		h-12.8c0,0.3-0.1,0.6-0.1,0.9c0,0.3,0,0.6,0,1c0,1.2,0.2,2.2,0.5,3.2c0.3,1,0.7,1.9,1.3,2.6c0.6,0.7,1.2,1.3,2,1.7
		c0.8,0.4,1.6,0.6,2.5,0.6c0.8,0,1.5-0.1,2.2-0.4c0.7-0.3,1.3-0.7,1.8-1.3c0.5-0.5,1-1.2,1.5-2c0.4-0.8,0.8-1.6,1.1-2.5l-0.3,4.4
		c-0.9,0.7-1.9,1.3-3,1.7c-1.1,0.4-2.2,0.5-3.3,0.5c-1.3,0-2.4-0.2-3.5-0.6c-1.1-0.4-2-1-2.8-1.7c-0.8-0.7-1.4-1.7-1.8-2.7
		c-0.4-1.1-0.6-2.3-0.6-3.5c0-1.3,0.2-2.4,0.6-3.5c0.4-1.1,0.9-2,1.6-2.8c0.7-0.8,1.6-1.4,2.6-1.8S344.5,6.8,345.8,6.8z M340.2,13.5
		h10.3c0-0.9-0.1-1.7-0.4-2.5c-0.2-0.7-0.5-1.4-0.9-2c-0.4-0.6-0.9-1-1.5-1.3c-0.6-0.3-1.3-0.5-2-0.5c-0.7,0-1.4,0.2-2,0.5
		c-0.6,0.3-1.1,0.7-1.6,1.3c-0.5,0.6-0.9,1.2-1.2,2C340.6,11.7,340.4,12.5,340.2,13.5z"/>
	<path class="st0" d="M366.5,1.5l3-0.4v7.7c0.4-0.4,0.8-0.8,1.2-1c0.4-0.3,0.9-0.5,1.3-0.6c0.4-0.2,0.9-0.3,1.3-0.3
		c0.4-0.1,0.8-0.1,1.2-0.1c1.3,0,2.5,0.2,3.6,0.6c1.1,0.4,2,1,2.7,1.7c0.7,0.7,1.3,1.6,1.7,2.6s0.6,2.1,0.6,3.4
		c0,1.3-0.2,2.5-0.7,3.6c-0.4,1.1-1,2.1-1.8,2.9c-0.8,0.8-1.7,1.5-2.7,2c-1.1,0.5-2.2,0.7-3.5,0.7c-2.2,0-4-0.7-5.4-2.1l-1.6,2
		l-0.1-0.1V3.7c0-0.6-0.1-1.1-0.2-1.4C367,2,366.8,1.8,366.5,1.5z M374.6,23.8c1,0,1.8-0.2,2.6-0.6c0.8-0.4,1.4-0.9,1.9-1.6
		c0.5-0.7,0.9-1.5,1.2-2.4c0.3-0.9,0.4-1.9,0.4-3c0-1.2-0.1-2.4-0.4-3.4c-0.3-1.1-0.7-2-1.3-2.8c-0.6-0.8-1.3-1.5-2.1-1.9
		c-0.8-0.5-1.8-0.7-2.9-0.7c-0.7,0-1.5,0.1-2.3,0.4c-0.8,0.3-1.5,0.9-2.1,1.7v10.9c0.6,1.1,1.3,2,2.1,2.6
		C372.5,23.5,373.5,23.8,374.6,23.8z"/>
	<path class="st0" d="M394.2,6.8c1.2,0,2.3,0.2,3.2,0.5c0.9,0.3,1.6,0.8,2.2,1.5c0.6,0.6,1,1.4,1.3,2.2c0.3,0.8,0.4,1.8,0.5,2.8
		h-12.8c0,0.3-0.1,0.6-0.1,0.9c0,0.3,0,0.6,0,1c0,1.2,0.2,2.2,0.5,3.2c0.3,1,0.7,1.9,1.3,2.6c0.6,0.7,1.2,1.3,2,1.7
		c0.8,0.4,1.6,0.6,2.5,0.6c0.8,0,1.5-0.1,2.2-0.4c0.7-0.3,1.3-0.7,1.8-1.3c0.5-0.5,1-1.2,1.5-2c0.4-0.8,0.8-1.6,1.1-2.5l-0.3,4.4
		c-0.9,0.7-1.9,1.3-3,1.7c-1.1,0.4-2.2,0.5-3.3,0.5c-1.3,0-2.4-0.2-3.5-0.6c-1.1-0.4-2-1-2.8-1.7c-0.8-0.7-1.4-1.7-1.8-2.7
		c-0.4-1.1-0.6-2.3-0.6-3.5c0-1.3,0.2-2.4,0.6-3.5c0.4-1.1,0.9-2,1.6-2.8c0.7-0.8,1.6-1.4,2.6-1.8S392.9,6.8,394.2,6.8z M388.7,13.5
		H399c0-0.9-0.1-1.7-0.4-2.5c-0.2-0.7-0.5-1.4-0.9-2c-0.4-0.6-0.9-1-1.5-1.3c-0.6-0.3-1.3-0.5-2-0.5c-0.7,0-1.4,0.2-2,0.5
		C391.5,8,391,8.4,390.5,9c-0.5,0.6-0.9,1.2-1.2,2C389,11.7,388.8,12.5,388.7,13.5z"/>
	<path class="st0" d="M407.6,7l2.1-4.2V7h5v0.3h-5v13c0,0.7,0,1.2,0.1,1.7s0.2,0.8,0.4,1.1c0.2,0.3,0.4,0.4,0.6,0.5
		c0.3,0.1,0.5,0.2,0.9,0.2c0.6,0,1.1-0.2,1.5-0.5c0.4-0.3,0.8-0.8,1.1-1.4l0.4,0.3c-0.4,0.6-0.8,1.2-1.3,1.5
		c-0.5,0.4-1.2,0.6-2.1,0.6c-1.4,0-2.4-0.4-3-1.2c-0.6-0.8-0.9-2-0.9-3.5V7.3h-3V7H407.6z"/>
	<path class="st0" d="M420.2,7l2.1-4.2V7h5v0.3h-5v13c0,0.7,0,1.2,0.1,1.7s0.2,0.8,0.4,1.1c0.2,0.3,0.4,0.4,0.6,0.5
		c0.3,0.1,0.5,0.2,0.9,0.2c0.6,0,1.1-0.2,1.5-0.5c0.4-0.3,0.8-0.8,1.1-1.4l0.4,0.3c-0.4,0.6-0.8,1.2-1.3,1.5
		c-0.5,0.4-1.2,0.6-2.1,0.6c-1.4,0-2.4-0.4-3-1.2c-0.6-0.8-0.9-2-0.9-3.5V7.3h-3V7H420.2z"/>
	<path class="st0" d="M438.1,6.8c1.2,0,2.3,0.2,3.2,0.5c0.9,0.3,1.6,0.8,2.2,1.5c0.6,0.6,1,1.4,1.3,2.2c0.3,0.8,0.4,1.8,0.5,2.8
		h-12.8c0,0.3-0.1,0.6-0.1,0.9c0,0.3,0,0.6,0,1c0,1.2,0.2,2.2,0.5,3.2c0.3,1,0.7,1.9,1.3,2.6c0.6,0.7,1.2,1.3,2,1.7
		c0.8,0.4,1.6,0.6,2.5,0.6c0.8,0,1.5-0.1,2.2-0.4c0.7-0.3,1.3-0.7,1.8-1.3c0.5-0.5,1-1.2,1.5-2c0.4-0.8,0.8-1.6,1.1-2.5l-0.3,4.4
		c-0.9,0.7-1.9,1.3-3,1.7c-1.1,0.4-2.2,0.5-3.3,0.5c-1.3,0-2.4-0.2-3.5-0.6c-1.1-0.4-2-1-2.8-1.7c-0.8-0.7-1.4-1.7-1.8-2.7
		c-0.4-1.1-0.6-2.3-0.6-3.5c0-1.3,0.2-2.4,0.6-3.5c0.4-1.1,0.9-2,1.6-2.8c0.7-0.8,1.6-1.4,2.6-1.8C435.7,7.1,436.8,6.8,438.1,6.8z
		 M432.6,13.5h10.3c0-0.9-0.1-1.7-0.4-2.5c-0.2-0.7-0.5-1.4-0.9-2c-0.4-0.6-0.9-1-1.5-1.3c-0.6-0.3-1.3-0.5-2-0.5
		c-0.7,0-1.4,0.2-2,0.5c-0.6,0.3-1.1,0.7-1.6,1.3c-0.5,0.6-0.9,1.2-1.2,2C433,11.7,432.7,12.5,432.6,13.5z"/>
	<path class="st0" d="M448.6,24.1c0.3-0.1,0.6-0.2,0.8-0.3c0.2-0.1,0.4-0.3,0.5-0.5s0.2-0.4,0.2-0.7c0-0.3,0.1-0.7,0.1-1.1V10.3
		c0-0.4,0-0.8,0-1.1c0-0.3-0.1-0.6-0.1-0.8c-0.1-0.2-0.1-0.5-0.3-0.7c-0.1-0.2-0.2-0.4-0.4-0.6l3.1-0.3v4.1c0.2-0.6,0.5-1.1,0.8-1.6
		c0.3-0.5,0.7-0.9,1.1-1.3c0.4-0.4,0.9-0.6,1.4-0.8c0.5-0.2,1.1-0.3,1.8-0.3c0.6,0,1.2,0.1,1.7,0.2l0,2.9c-0.2-0.2-0.4-0.5-0.7-0.7
		c-0.3-0.2-0.5-0.5-0.8-0.7c-0.3-0.2-0.6-0.4-0.9-0.5c-0.3-0.1-0.6-0.2-0.9-0.2c-0.4,0-0.8,0.1-1.1,0.3c-0.3,0.2-0.7,0.5-1,0.8
		c-0.3,0.3-0.6,0.7-0.8,1.2c-0.2,0.5-0.5,0.9-0.6,1.4v9.8c0,0.4,0,0.8,0.1,1.1c0,0.3,0.1,0.5,0.3,0.7c0.1,0.2,0.3,0.4,0.5,0.5
		c0.2,0.1,0.5,0.2,0.8,0.3H448.6z"/>
	<path class="st0" d="M474.6,7l2.1-4.2V7h5v0.3h-5v13c0,0.7,0,1.2,0.1,1.7c0.1,0.4,0.2,0.8,0.4,1.1c0.2,0.3,0.4,0.4,0.6,0.5
		c0.3,0.1,0.5,0.2,0.9,0.2c0.6,0,1.1-0.2,1.5-0.5c0.4-0.3,0.8-0.8,1.1-1.4l0.4,0.3c-0.4,0.6-0.8,1.2-1.3,1.5
		c-0.5,0.4-1.2,0.6-2.1,0.6c-1.4,0-2.4-0.4-3-1.2c-0.6-0.8-0.9-2-0.9-3.5V7.3h-3V7H474.6z"/>
	<path class="st0" d="M484.3,24.1c0.3-0.1,0.6-0.2,0.8-0.3c0.2-0.1,0.4-0.3,0.5-0.5c0.1-0.2,0.2-0.4,0.2-0.7c0-0.3,0.1-0.7,0.1-1.1
		V3.7c0-0.6-0.1-1.1-0.2-1.4c-0.1-0.3-0.3-0.5-0.6-0.8l3-0.4v10.5c0.5-1.5,1.3-2.6,2.4-3.5c1.1-0.9,2.5-1.3,4.2-1.3
		c1,0,1.8,0.1,2.6,0.4c0.7,0.3,1.4,0.7,1.9,1.2c0.5,0.5,0.9,1.1,1.2,1.8c0.3,0.7,0.4,1.5,0.4,2.3v9c0,0.4,0,0.8,0.1,1.1
		c0.1,0.3,0.1,0.5,0.3,0.7c0.1,0.2,0.3,0.4,0.5,0.5c0.2,0.1,0.5,0.2,0.8,0.3h-5.4c0.3-0.1,0.6-0.2,0.8-0.3c0.2-0.1,0.4-0.3,0.5-0.5
		c0.1-0.2,0.2-0.4,0.2-0.7c0-0.3,0.1-0.7,0.1-1.1v-9.3c0-1.5-0.4-2.7-1.1-3.6c-0.7-0.9-1.8-1.3-3.2-1.3c-0.8,0-1.5,0.1-2.3,0.4
		c-0.7,0.3-1.4,0.7-1.9,1.3c-0.6,0.6-1,1.3-1.4,2.1c-0.4,0.8-0.6,1.8-0.6,2.9v7.5c0,0.4,0,0.8,0.1,1.1c0.1,0.3,0.1,0.5,0.3,0.7
		c0.1,0.2,0.3,0.4,0.5,0.5c0.2,0.1,0.5,0.2,0.8,0.3H484.3z"/>
	<path class="st0" d="M512.7,14.7l3.4-0.8v-2.2c0-1.5-0.3-2.6-0.9-3.4c-0.6-0.7-1.5-1.1-2.7-1.1c-0.6,0-1.1,0.1-1.7,0.3
		c-0.6,0.2-1.1,0.5-1.7,1c-0.5,0.5-1,1.2-1.4,2c-0.4,0.8-0.8,1.9-1.1,3.2l-0.2-5.1c0.7-0.6,1.7-1.1,2.8-1.4c1.1-0.3,2.2-0.5,3.4-0.5
		c1.8,0,3.2,0.4,4.2,1.3c1,0.8,1.6,2.1,1.6,3.7v9.6c0,0.6,0.1,1.1,0.2,1.5c0.1,0.4,0.3,0.8,0.7,1.1l-3,0.1v-4
		c-0.2,0.5-0.5,1-0.8,1.5c-0.3,0.5-0.7,0.9-1.2,1.3c-0.5,0.4-1,0.7-1.6,0.9c-0.6,0.2-1.3,0.3-2.2,0.3c-0.7,0-1.4-0.1-2-0.2
		c-0.6-0.2-1.2-0.4-1.6-0.7c-0.5-0.3-0.8-0.7-1.1-1.2c-0.3-0.5-0.4-1.1-0.4-1.7c0-0.9,0.2-1.7,0.7-2.3c0.5-0.6,1.1-1.2,1.9-1.6
		s1.5-0.8,2.4-1C511.2,15.1,512,14.9,512.7,14.7z M507.8,20.3c0,1,0.3,1.9,0.8,2.5c0.6,0.7,1.3,1,2.4,1c0.6,0,1.1-0.1,1.7-0.4
		c0.6-0.2,1.1-0.6,1.6-1.1c0.5-0.5,0.9-1.1,1.2-1.8c0.3-0.7,0.5-1.5,0.5-2.5v-3.8l-3.3,0.8c-0.4,0.1-0.9,0.3-1.5,0.5
		c-0.6,0.2-1.1,0.5-1.6,0.9c-0.5,0.4-1,0.9-1.3,1.5C507.9,18.6,507.8,19.3,507.8,20.3z"/>
	<path class="st0" d="M522.2,24.1c0.3-0.1,0.6-0.2,0.8-0.3c0.2-0.1,0.4-0.3,0.5-0.5c0.1-0.2,0.2-0.4,0.2-0.7c0-0.3,0.1-0.7,0.1-1.1
		V10.3c0-0.4,0-0.8,0-1.1c0-0.3-0.1-0.6-0.1-0.8c-0.1-0.2-0.1-0.5-0.3-0.7c-0.1-0.2-0.2-0.4-0.4-0.6l3.1-0.3v4.8
		c0.5-1.5,1.3-2.6,2.4-3.5c1.1-0.9,2.5-1.3,4.2-1.3c1,0,1.8,0.1,2.6,0.4c0.7,0.3,1.4,0.7,1.9,1.2c0.5,0.5,0.9,1.1,1.2,1.8
		c0.3,0.7,0.4,1.5,0.4,2.3v9c0,0.4,0,0.8,0.1,1.1c0.1,0.3,0.1,0.5,0.3,0.7c0.1,0.2,0.3,0.4,0.5,0.5c0.2,0.1,0.5,0.2,0.8,0.3h-5.4
		c0.3-0.1,0.6-0.2,0.8-0.3c0.2-0.1,0.4-0.3,0.5-0.5c0.1-0.2,0.2-0.4,0.2-0.7c0-0.3,0.1-0.7,0.1-1.1v-9.3c0-1.5-0.4-2.7-1.1-3.6
		c-0.7-0.9-1.8-1.3-3.2-1.3c-0.8,0-1.5,0.1-2.3,0.4c-0.7,0.3-1.4,0.7-1.9,1.3c-0.6,0.6-1,1.3-1.4,2.1c-0.4,0.8-0.6,1.8-0.6,2.9v7.5
		c0,0.4,0,0.8,0.1,1.1c0,0.3,0.1,0.5,0.3,0.7c0.1,0.2,0.3,0.4,0.5,0.5c0.2,0.1,0.5,0.2,0.8,0.3H522.2z"/>
	<path class="st0" d="M556.3,7c-0.2,0.1-0.3,0.4-0.4,0.6s0,0.8,0.3,1.5l5,12.4l4.9-12.3c0.2-0.4,0.2-0.7,0.2-1
		c0-0.3-0.1-0.5-0.2-0.6c-0.1-0.2-0.2-0.3-0.3-0.4c-0.1-0.1-0.2-0.2-0.3-0.2h2.8c-0.2,0.1-0.4,0.3-0.8,0.6c-0.3,0.3-0.6,0.8-0.9,1.5
		l-6.4,16c-0.1,0.3-0.3,0.7-0.6,1.2s-0.5,0.9-0.9,1.3s-0.8,0.8-1.3,1.1c-0.5,0.3-1.1,0.5-1.8,0.6l-1.1-3c0.8,0.4,1.5,0.6,2.2,0.6
		c0.7,0,1.4-0.2,1.9-0.7c0.6-0.4,1.1-1.1,1.4-2.1l-6.4-15.4c-0.3-0.6-0.5-1.1-0.7-1.3c-0.2-0.3-0.4-0.4-0.6-0.5H556.3z"/>
	<path class="st0" d="M579.5,6.8c1.3,0,2.5,0.2,3.5,0.6c1.1,0.4,2,1,2.7,1.8c0.8,0.8,1.4,1.7,1.8,2.8c0.4,1.1,0.6,2.2,0.6,3.5v0
		c0,1.3-0.2,2.4-0.6,3.5c-0.4,1.1-1,2-1.8,2.8c-0.8,0.8-1.7,1.4-2.7,1.8c-1.1,0.4-2.2,0.6-3.5,0.6c-1.3,0-2.5-0.2-3.5-0.6
		c-1.1-0.4-2-1-2.7-1.8c-0.8-0.8-1.4-1.7-1.8-2.8c-0.4-1.1-0.6-2.2-0.6-3.5v0c0-1.3,0.2-2.4,0.6-3.5c0.4-1.1,1-2,1.8-2.8
		c0.8-0.8,1.7-1.4,2.7-1.8C577,7.1,578.2,6.8,579.5,6.8z M573.2,15.6c0,1.2,0.2,2.3,0.5,3.3c0.3,1,0.7,1.9,1.3,2.6
		c0.5,0.7,1.2,1.3,2,1.7c0.8,0.4,1.6,0.6,2.5,0.6c0.9,0,1.8-0.2,2.5-0.6c0.8-0.4,1.4-1,2-1.7c0.5-0.7,1-1.6,1.3-2.6
		c0.3-1,0.5-2.1,0.5-3.3c0-1.2-0.2-2.3-0.5-3.3c-0.3-1-0.7-1.9-1.3-2.6c-0.5-0.7-1.2-1.3-2-1.7c-0.8-0.4-1.6-0.6-2.5-0.6
		c-0.9,0-1.8,0.2-2.5,0.6c-0.8,0.4-1.4,1-2,1.7c-0.5,0.7-1,1.6-1.3,2.6C573.4,13.2,573.2,14.3,573.2,15.6z"/>
	<path class="st0" d="M591.3,7.1l3.1-0.3v12.3c0,0.9,0.1,1.6,0.3,2.2c0.2,0.6,0.4,1.1,0.8,1.5c0.3,0.4,0.7,0.6,1.2,0.8
		c0.5,0.2,1,0.2,1.6,0.2c0.9,0,1.7-0.2,2.4-0.6c0.7-0.4,1.2-0.9,1.7-1.6c0.4-0.6,0.8-1.4,1-2.2c0.2-0.8,0.4-1.6,0.4-2.3v-6.9
		c0-0.4,0-0.8,0-1.1c0-0.3-0.1-0.6-0.1-0.8c-0.1-0.2-0.1-0.5-0.3-0.7c-0.1-0.2-0.2-0.4-0.4-0.6l3.1-0.3v14.3c0,0.9,0.1,1.5,0.2,2
		c0.1,0.4,0.4,0.8,0.6,1l-3,0.1v-4.6c-0.3,0.7-0.6,1.4-1,1.9c-0.4,0.6-0.8,1.1-1.2,1.5c-0.5,0.4-1,0.7-1.6,0.9
		c-0.6,0.2-1.3,0.3-2.1,0.3c-1.7,0-3.1-0.4-4.1-1.3c-1-0.9-1.5-2.2-1.5-4v-8.7c0-0.4,0-0.8,0-1.1c0-0.3-0.1-0.6-0.1-0.8
		c-0.1-0.2-0.1-0.5-0.3-0.7C591.6,7.5,591.5,7.3,591.3,7.1z"/>
	<path class="st0" d="M627.4,14.7l3.4-0.8v-2.2c0-1.5-0.3-2.6-0.9-3.4c-0.6-0.7-1.5-1.1-2.7-1.1c-0.6,0-1.1,0.1-1.7,0.3
		c-0.6,0.2-1.1,0.5-1.7,1s-1,1.2-1.4,2c-0.4,0.8-0.8,1.9-1.1,3.2l-0.2-5.1c0.7-0.6,1.7-1.1,2.8-1.4c1.1-0.3,2.2-0.5,3.4-0.5
		c1.8,0,3.2,0.4,4.2,1.3c1,0.8,1.6,2.1,1.6,3.7v9.6c0,0.6,0.1,1.1,0.2,1.5c0.1,0.4,0.3,0.8,0.7,1.1l-3,0.1v-4
		c-0.2,0.5-0.5,1-0.8,1.5c-0.3,0.5-0.7,0.9-1.2,1.3c-0.5,0.4-1,0.7-1.6,0.9c-0.6,0.2-1.3,0.3-2.2,0.3c-0.7,0-1.4-0.1-2-0.2
		c-0.6-0.2-1.2-0.4-1.6-0.7c-0.5-0.3-0.8-0.7-1.1-1.2c-0.3-0.5-0.4-1.1-0.4-1.7c0-0.9,0.2-1.7,0.7-2.3c0.5-0.6,1.1-1.2,1.9-1.6
		s1.5-0.8,2.4-1C625.9,15.1,626.7,14.9,627.4,14.7z M622.5,20.3c0,1,0.3,1.9,0.8,2.5c0.6,0.7,1.3,1,2.4,1c0.6,0,1.1-0.1,1.7-0.4
		s1.1-0.6,1.6-1.1c0.5-0.5,0.9-1.1,1.2-1.8c0.3-0.7,0.5-1.5,0.5-2.5v-3.8l-3.3,0.8c-0.4,0.1-0.9,0.3-1.5,0.5
		c-0.6,0.2-1.1,0.5-1.6,0.9c-0.5,0.4-1,0.9-1.3,1.5C622.7,18.6,622.5,19.3,622.5,20.3z"/>
	<path class="st0" d="M636.9,24.1c0.3-0.1,0.6-0.2,0.8-0.3c0.2-0.1,0.4-0.3,0.5-0.5c0.1-0.2,0.2-0.4,0.2-0.7c0-0.3,0.1-0.7,0.1-1.1
		V10.3c0-0.4,0-0.8,0-1.1c0-0.3-0.1-0.6-0.1-0.8c-0.1-0.2-0.1-0.5-0.3-0.7c-0.1-0.2-0.2-0.4-0.4-0.6l3.1-0.3v4.1
		c0.2-0.6,0.5-1.1,0.8-1.6c0.3-0.5,0.7-0.9,1.1-1.3c0.4-0.4,0.9-0.6,1.4-0.8c0.5-0.2,1.1-0.3,1.8-0.3c0.6,0,1.2,0.1,1.7,0.2l0,2.9
		c-0.2-0.2-0.4-0.5-0.7-0.7c-0.3-0.2-0.5-0.5-0.8-0.7c-0.3-0.2-0.6-0.4-0.9-0.5c-0.3-0.1-0.6-0.2-0.9-0.2c-0.4,0-0.8,0.1-1.1,0.3
		c-0.3,0.2-0.7,0.5-1,0.8c-0.3,0.3-0.6,0.7-0.8,1.2c-0.2,0.5-0.5,0.9-0.6,1.4v9.8c0,0.4,0,0.8,0.1,1.1c0,0.3,0.1,0.5,0.3,0.7
		c0.1,0.2,0.3,0.4,0.5,0.5c0.2,0.1,0.5,0.2,0.8,0.3H636.9z"/>
	<path class="st0" d="M658.4,6.8c1.2,0,2.3,0.2,3.2,0.5c0.9,0.3,1.6,0.8,2.2,1.5c0.6,0.6,1,1.4,1.3,2.2c0.3,0.8,0.4,1.8,0.5,2.8
		h-12.8c0,0.3-0.1,0.6-0.1,0.9c0,0.3,0,0.6,0,1c0,1.2,0.2,2.2,0.5,3.2c0.3,1,0.7,1.9,1.3,2.6c0.6,0.7,1.2,1.3,2,1.7
		c0.8,0.4,1.6,0.6,2.5,0.6c0.8,0,1.5-0.1,2.2-0.4c0.7-0.3,1.3-0.7,1.8-1.3c0.5-0.5,1-1.2,1.5-2c0.4-0.8,0.8-1.6,1.1-2.5l-0.3,4.4
		c-0.9,0.7-1.9,1.3-3,1.7c-1.1,0.4-2.2,0.5-3.3,0.5c-1.3,0-2.4-0.2-3.5-0.6c-1.1-0.4-2-1-2.8-1.7c-0.8-0.7-1.4-1.7-1.8-2.7
		c-0.4-1.1-0.6-2.3-0.6-3.5c0-1.3,0.2-2.4,0.6-3.5c0.4-1.1,0.9-2,1.6-2.8c0.7-0.8,1.6-1.4,2.6-1.8S657.1,6.8,658.4,6.8z M652.8,13.5
		h10.3c0-0.9-0.1-1.7-0.4-2.5c-0.2-0.7-0.5-1.4-0.9-2c-0.4-0.6-0.9-1-1.5-1.3c-0.6-0.3-1.3-0.5-2-0.5c-0.7,0-1.4,0.2-2,0.5
		c-0.6,0.3-1.1,0.7-1.6,1.3c-0.5,0.6-0.9,1.2-1.2,2C653.2,11.7,653,12.5,652.8,13.5z"/>
	<path class="st0" d="M670.9,23.1c0-0.3,0.1-0.6,0.3-0.8c0.2-0.2,0.5-0.3,0.8-0.3c0.3,0,0.6,0.1,0.8,0.3c0.2,0.2,0.3,0.5,0.3,0.8
		c0,0.3-0.1,0.6-0.3,0.8c-0.2,0.2-0.5,0.3-0.8,0.3c-0.3,0-0.6-0.1-0.8-0.3C671.1,23.7,670.9,23.4,670.9,23.1z"/>
	<path class="st0" d="M694.3,3.1c-0.3,0.1-0.6,0.2-0.8,0.3c-0.2,0.1-0.4,0.3-0.5,0.5c-0.1,0.2-0.2,0.4-0.3,0.7
		c-0.1,0.3-0.1,0.7-0.1,1.1v17.9h5.1c0.7,0,1.4-0.1,1.9-0.2c0.5-0.1,1-0.4,1.3-0.8c0.4-0.4,0.7-0.9,1-1.5c0.3-0.7,0.5-1.5,0.8-2.6
		l-0.6,5.6h-13.4c0.6-0.2,1.1-0.5,1.3-0.8c0.2-0.4,0.3-1,0.3-1.9V5.7c0-0.4,0-0.8-0.1-1.1c-0.1-0.3-0.1-0.5-0.3-0.7
		c-0.1-0.2-0.3-0.4-0.5-0.5c-0.2-0.1-0.5-0.2-0.8-0.3H694.3z"/>
	<path class="st0" d="M714.2,6.8c1.2,0,2.3,0.2,3.2,0.5c0.9,0.3,1.6,0.8,2.2,1.5c0.6,0.6,1,1.4,1.3,2.2c0.3,0.8,0.4,1.8,0.5,2.8
		h-12.8c0,0.3-0.1,0.6-0.1,0.9c0,0.3,0,0.6,0,1c0,1.2,0.2,2.2,0.5,3.2c0.3,1,0.7,1.9,1.3,2.6c0.6,0.7,1.2,1.3,2,1.7
		c0.8,0.4,1.6,0.6,2.5,0.6c0.8,0,1.5-0.1,2.2-0.4c0.7-0.3,1.3-0.7,1.8-1.3c0.5-0.5,1-1.2,1.5-2c0.4-0.8,0.8-1.6,1.1-2.5l-0.3,4.4
		c-0.9,0.7-1.9,1.3-3,1.7c-1.1,0.4-2.2,0.5-3.3,0.5c-1.3,0-2.4-0.2-3.5-0.6c-1.1-0.4-2-1-2.8-1.7c-0.8-0.7-1.4-1.7-1.8-2.7
		c-0.4-1.1-0.6-2.3-0.6-3.5c0-1.3,0.2-2.4,0.6-3.5c0.4-1.1,0.9-2,1.6-2.8c0.7-0.8,1.6-1.4,2.6-1.8C711.8,7.1,712.9,6.8,714.2,6.8z
		 M708.7,13.5H719c0-0.9-0.1-1.7-0.4-2.5c-0.2-0.7-0.5-1.4-0.9-2c-0.4-0.6-0.9-1-1.5-1.3c-0.6-0.3-1.3-0.5-2-0.5
		c-0.7,0-1.4,0.2-2,0.5C711.5,8,711,8.4,710.5,9c-0.5,0.6-0.9,1.2-1.2,2C709,11.7,708.8,12.5,708.7,13.5z"/>
	<path class="st0" d="M727.6,7l2.1-4.2V7h5v0.3h-5v13c0,0.7,0,1.2,0.1,1.7c0.1,0.4,0.2,0.8,0.4,1.1c0.2,0.3,0.4,0.4,0.6,0.5
		c0.3,0.1,0.5,0.2,0.9,0.2c0.6,0,1.1-0.2,1.5-0.5c0.4-0.3,0.8-0.8,1.1-1.4l0.4,0.3c-0.4,0.6-0.8,1.2-1.3,1.5
		c-0.5,0.4-1.2,0.6-2.1,0.6c-1.4,0-2.4-0.4-3-1.2c-0.6-0.8-0.9-2-0.9-3.5V7.3h-3V7H727.6z"/>
	<path class="st0" d="M750.5,7c-0.2,0.1-0.3,0.4-0.4,0.6s0,0.8,0.3,1.5l5,12.4l4.9-12.3c0.2-0.4,0.2-0.7,0.2-1
		c0-0.3-0.1-0.5-0.2-0.6c-0.1-0.2-0.2-0.3-0.3-0.4c-0.1-0.1-0.2-0.2-0.3-0.2h2.8c-0.2,0.1-0.4,0.3-0.8,0.6c-0.3,0.3-0.6,0.8-0.9,1.5
		l-6.4,16c-0.1,0.3-0.3,0.7-0.6,1.2s-0.5,0.9-0.9,1.3c-0.4,0.4-0.8,0.8-1.3,1.1c-0.5,0.3-1.1,0.5-1.8,0.6l-1.1-3
		c0.8,0.4,1.5,0.6,2.2,0.6c0.7,0,1.4-0.2,1.9-0.7c0.6-0.4,1.1-1.1,1.4-2.1L748,8.8c-0.3-0.6-0.5-1.1-0.7-1.3
		c-0.2-0.3-0.4-0.4-0.6-0.5H750.5z"/>
	<path class="st0" d="M773.7,6.8c1.3,0,2.5,0.2,3.5,0.6c1.1,0.4,2,1,2.7,1.8c0.8,0.8,1.4,1.7,1.8,2.8c0.4,1.1,0.6,2.2,0.6,3.5v0
		c0,1.3-0.2,2.4-0.6,3.5c-0.4,1.1-1,2-1.8,2.8c-0.8,0.8-1.7,1.4-2.7,1.8c-1.1,0.4-2.2,0.6-3.5,0.6c-1.3,0-2.5-0.2-3.5-0.6
		c-1.1-0.4-2-1-2.7-1.8c-0.8-0.8-1.4-1.7-1.8-2.8c-0.4-1.1-0.6-2.2-0.6-3.5v0c0-1.3,0.2-2.4,0.6-3.5c0.4-1.1,1-2,1.8-2.8
		c0.8-0.8,1.7-1.4,2.7-1.8C771.2,7.1,772.4,6.8,773.7,6.8z M767.4,15.6c0,1.2,0.2,2.3,0.5,3.3c0.3,1,0.7,1.9,1.3,2.6
		c0.5,0.7,1.2,1.3,2,1.7c0.8,0.4,1.6,0.6,2.5,0.6c0.9,0,1.8-0.2,2.5-0.6c0.8-0.4,1.4-1,2-1.7c0.5-0.7,1-1.6,1.3-2.6
		c0.3-1,0.5-2.1,0.5-3.3c0-1.2-0.2-2.3-0.5-3.3c-0.3-1-0.7-1.9-1.3-2.6c-0.5-0.7-1.2-1.3-2-1.7c-0.8-0.4-1.6-0.6-2.5-0.6
		c-0.9,0-1.8,0.2-2.5,0.6c-0.8,0.4-1.4,1-2,1.7c-0.5,0.7-1,1.6-1.3,2.6C767.6,13.2,767.4,14.3,767.4,15.6z"/>
	<path class="st0" d="M785.6,7.1l3.1-0.3v12.3c0,0.9,0.1,1.6,0.3,2.2c0.2,0.6,0.4,1.1,0.8,1.5c0.3,0.4,0.7,0.6,1.2,0.8
		c0.5,0.2,1,0.2,1.6,0.2c0.9,0,1.7-0.2,2.4-0.6c0.7-0.4,1.2-0.9,1.7-1.6c0.4-0.6,0.8-1.4,1-2.2c0.2-0.8,0.4-1.6,0.4-2.3v-6.9
		c0-0.4,0-0.8,0-1.1c0-0.3-0.1-0.6-0.1-0.8c-0.1-0.2-0.1-0.5-0.3-0.7c-0.1-0.2-0.2-0.4-0.4-0.6l3.1-0.3v14.3c0,0.9,0.1,1.5,0.2,2
		c0.1,0.4,0.4,0.8,0.6,1l-3,0.1v-4.6c-0.3,0.7-0.6,1.4-1,1.9c-0.4,0.6-0.8,1.1-1.2,1.5c-0.5,0.4-1,0.7-1.6,0.9
		c-0.6,0.2-1.3,0.3-2.1,0.3c-1.7,0-3.1-0.4-4.1-1.3c-1-0.9-1.5-2.2-1.5-4v-8.7c0-0.4,0-0.8,0-1.1c0-0.3-0.1-0.6-0.1-0.8
		c-0.1-0.2-0.1-0.5-0.3-0.7C785.9,7.5,785.7,7.3,785.6,7.1z"/>
	<path class="st0" d="M804.2,24.1c0.3-0.1,0.6-0.2,0.8-0.3c0.2-0.1,0.4-0.3,0.5-0.5c0.1-0.2,0.2-0.4,0.2-0.7c0-0.3,0.1-0.7,0.1-1.1
		V10.3c0-0.4,0-0.8,0-1.1c0-0.3-0.1-0.6-0.1-0.8c-0.1-0.2-0.1-0.5-0.3-0.7c-0.1-0.2-0.2-0.4-0.4-0.6l3.1-0.3v4.1
		c0.2-0.6,0.5-1.1,0.8-1.6c0.3-0.5,0.7-0.9,1.1-1.3c0.4-0.4,0.9-0.6,1.4-0.8c0.5-0.2,1.1-0.3,1.8-0.3c0.6,0,1.2,0.1,1.7,0.2l0,2.9
		c-0.2-0.2-0.4-0.5-0.7-0.7c-0.3-0.2-0.5-0.5-0.8-0.7c-0.3-0.2-0.6-0.4-0.9-0.5c-0.3-0.1-0.6-0.2-0.9-0.2c-0.4,0-0.8,0.1-1.1,0.3
		c-0.3,0.2-0.7,0.5-1,0.8c-0.3,0.3-0.6,0.7-0.8,1.2c-0.2,0.5-0.5,0.9-0.6,1.4v9.8c0,0.4,0,0.8,0.1,1.1c0,0.3,0.1,0.5,0.3,0.7
		c0.1,0.2,0.3,0.4,0.5,0.5c0.2,0.1,0.5,0.2,0.8,0.3H804.2z"/>
	<path class="st0" d="M827.5,22.5l0.5-5.7c0.1,1.4,0.3,2.5,0.7,3.4c0.3,0.9,0.7,1.6,1.2,2.2c0.5,0.5,1.1,0.9,1.7,1.1
		c0.6,0.2,1.3,0.3,2,0.3c1.5,0,2.6-0.4,3.4-1.1c0.7-0.7,1.1-1.6,1.1-2.7c0-0.6-0.1-1.1-0.3-1.5c-0.2-0.4-0.5-0.8-0.8-1
		c-0.3-0.3-0.7-0.5-1-0.6c-0.4-0.2-0.7-0.3-1-0.4l-3.2-1.1c-0.3-0.1-0.7-0.3-1.1-0.5c-0.4-0.2-0.8-0.5-1.2-0.8
		c-0.4-0.3-0.7-0.8-0.9-1.3c-0.3-0.5-0.4-1.1-0.4-1.7c0-1.3,0.5-2.4,1.5-3.2c1-0.8,2.3-1.2,3.9-1.2c1.1,0,2.1,0.2,3,0.5
		c0.9,0.3,1.7,0.8,2.4,1.4l-0.2,4.1c-0.5-2-1.2-3.4-2-4.3c-0.8-0.9-1.9-1.3-3.3-1.3c-1.1,0-2,0.3-2.7,0.8c-0.7,0.5-1.1,1.3-1.1,2.4
		c0,0.5,0.1,0.9,0.3,1.2c0.2,0.3,0.4,0.6,0.7,0.8c0.3,0.2,0.6,0.4,1,0.5s0.7,0.2,1,0.3l2.9,1c0.4,0.1,0.8,0.3,1.3,0.5
		c0.5,0.2,1,0.5,1.4,0.9c0.4,0.4,0.8,0.8,1.1,1.4c0.3,0.6,0.5,1.2,0.5,2c0,0.7-0.1,1.4-0.4,2.1c-0.3,0.6-0.7,1.2-1.2,1.6
		c-0.5,0.5-1.2,0.8-2,1.1c-0.8,0.3-1.7,0.4-2.8,0.4c-1.2,0-2.3-0.2-3.3-0.5C829.1,23.5,828.2,23.1,827.5,22.5z"/>
	<path class="st0" d="M851.2,6.8c1.2,0,2.3,0.2,3.2,0.5c0.9,0.3,1.6,0.8,2.2,1.5c0.6,0.6,1,1.4,1.3,2.2c0.3,0.8,0.4,1.8,0.5,2.8
		h-12.8c0,0.3-0.1,0.6-0.1,0.9c0,0.3,0,0.6,0,1c0,1.2,0.2,2.2,0.5,3.2c0.3,1,0.7,1.9,1.3,2.6c0.6,0.7,1.2,1.3,2,1.7
		c0.8,0.4,1.6,0.6,2.5,0.6c0.8,0,1.5-0.1,2.2-0.4c0.7-0.3,1.3-0.7,1.8-1.3c0.5-0.5,1-1.2,1.5-2c0.4-0.8,0.8-1.6,1.1-2.5l-0.3,4.4
		c-0.9,0.7-1.9,1.3-3,1.7c-1.1,0.4-2.2,0.5-3.3,0.5c-1.3,0-2.4-0.2-3.5-0.6c-1.1-0.4-2-1-2.8-1.7c-0.8-0.7-1.4-1.7-1.8-2.7
		c-0.4-1.1-0.6-2.3-0.6-3.5c0-1.3,0.2-2.4,0.6-3.5c0.4-1.1,0.9-2,1.6-2.8c0.7-0.8,1.6-1.4,2.6-1.8C848.8,7.1,850,6.8,851.2,6.8z
		 M845.7,13.5h10.3c0-0.9-0.1-1.7-0.4-2.5c-0.2-0.7-0.5-1.4-0.9-2c-0.4-0.6-0.9-1-1.5-1.3c-0.6-0.3-1.3-0.5-2-0.5
		c-0.7,0-1.4,0.2-2,0.5c-0.6,0.3-1.1,0.7-1.6,1.3c-0.5,0.6-0.9,1.2-1.2,2C846.1,11.7,845.9,12.5,845.7,13.5z"/>
	<path class="st0" d="M861.7,24.1c0.3-0.1,0.6-0.2,0.8-0.3c0.2-0.1,0.4-0.3,0.5-0.5s0.2-0.4,0.2-0.7c0-0.3,0.1-0.7,0.1-1.1V10.3
		c0-0.4,0-0.8,0-1.1c0-0.3-0.1-0.6-0.1-0.8c-0.1-0.2-0.1-0.5-0.3-0.7c-0.1-0.2-0.2-0.4-0.4-0.6l3.1-0.3v4.8c0.5-1.5,1.3-2.6,2.4-3.5
		c1.1-0.9,2.5-1.3,4.2-1.3c1,0,1.8,0.1,2.6,0.4c0.7,0.3,1.4,0.7,1.9,1.2c0.5,0.5,0.9,1.1,1.2,1.8c0.3,0.7,0.4,1.5,0.4,2.3v9
		c0,0.4,0,0.8,0.1,1.1c0.1,0.3,0.1,0.5,0.3,0.7c0.1,0.2,0.3,0.4,0.5,0.5c0.2,0.1,0.5,0.2,0.8,0.3h-5.4c0.3-0.1,0.6-0.2,0.8-0.3
		c0.2-0.1,0.4-0.3,0.5-0.5c0.1-0.2,0.2-0.4,0.2-0.7c0-0.3,0.1-0.7,0.1-1.1v-9.3c0-1.5-0.4-2.7-1.1-3.6c-0.7-0.9-1.8-1.3-3.2-1.3
		c-0.8,0-1.5,0.1-2.3,0.4c-0.7,0.3-1.4,0.7-1.9,1.3c-0.6,0.6-1,1.3-1.4,2.1c-0.4,0.8-0.6,1.8-0.6,2.9v7.5c0,0.4,0,0.8,0.1,1.1
		c0,0.3,0.1,0.5,0.3,0.7c0.1,0.2,0.3,0.4,0.5,0.5c0.2,0.1,0.5,0.2,0.8,0.3H861.7z"/>
	<path class="st0" d="M882.8,22.5l0.5-5.7c0.1,1.4,0.3,2.5,0.7,3.4c0.3,0.9,0.7,1.6,1.2,2.2c0.5,0.5,1.1,0.9,1.7,1.1
		c0.6,0.2,1.3,0.3,2,0.3c1.5,0,2.6-0.4,3.4-1.1c0.7-0.7,1.1-1.6,1.1-2.7c0-0.6-0.1-1.1-0.3-1.5c-0.2-0.4-0.5-0.8-0.8-1
		c-0.3-0.3-0.7-0.5-1-0.6c-0.4-0.2-0.7-0.3-1-0.4l-3.2-1.1c-0.3-0.1-0.7-0.3-1.1-0.5c-0.4-0.2-0.8-0.5-1.2-0.8
		c-0.4-0.3-0.7-0.8-0.9-1.3c-0.3-0.5-0.4-1.1-0.4-1.7c0-1.3,0.5-2.4,1.5-3.2c1-0.8,2.3-1.2,3.9-1.2c1.1,0,2.1,0.2,3,0.5
		c0.9,0.3,1.7,0.8,2.4,1.4l-0.2,4.1c-0.5-2-1.2-3.4-2-4.3c-0.8-0.9-1.9-1.3-3.3-1.3c-1.1,0-2,0.3-2.7,0.8c-0.7,0.5-1.1,1.3-1.1,2.4
		c0,0.5,0.1,0.9,0.3,1.2c0.2,0.3,0.4,0.6,0.7,0.8c0.3,0.2,0.6,0.4,1,0.5s0.7,0.2,1,0.3l2.9,1c0.4,0.1,0.8,0.3,1.3,0.5
		c0.5,0.2,1,0.5,1.4,0.9c0.4,0.4,0.8,0.8,1.1,1.4c0.3,0.6,0.5,1.2,0.5,2c0,0.7-0.1,1.4-0.4,2.1c-0.3,0.6-0.7,1.2-1.2,1.6
		c-0.5,0.5-1.2,0.8-2,1.1c-0.8,0.3-1.7,0.4-2.8,0.4c-1.2,0-2.3-0.2-3.3-0.5C884.4,23.5,883.5,23.1,882.8,22.5z"/>
	<path class="st0" d="M898.3,24.1c0.3-0.1,0.6-0.2,0.8-0.3c0.2-0.1,0.4-0.3,0.5-0.5c0.1-0.2,0.2-0.4,0.2-0.7c0-0.3,0.1-0.7,0.1-1.1
		V10.3c0-0.4,0-0.8,0-1.1c0-0.3-0.1-0.6-0.1-0.8c-0.1-0.2-0.1-0.5-0.3-0.7c-0.1-0.2-0.2-0.4-0.4-0.6l3.1-0.3v14.7
		c0,0.4,0,0.8,0.1,1.1c0,0.3,0.1,0.5,0.3,0.7c0.1,0.2,0.3,0.4,0.5,0.5c0.2,0.1,0.5,0.2,0.8,0.3H898.3z M900.9,1.6
		c0.5,0,0.8,0.1,1.2,0.4c0.3,0.3,0.5,0.6,0.5,1.1c0,0.5-0.2,0.8-0.5,1.1c-0.3,0.3-0.7,0.4-1.2,0.4c-0.4,0-0.8-0.1-1.1-0.4
		c-0.3-0.3-0.5-0.7-0.5-1.1c0-0.5,0.2-0.8,0.5-1.1C900.1,1.7,900.4,1.6,900.9,1.6z"/>
	<path class="st0" d="M909.4,7l2.1-4.2V7h5v0.3h-5v13c0,0.7,0,1.2,0.1,1.7c0.1,0.4,0.2,0.8,0.4,1.1c0.2,0.3,0.4,0.4,0.6,0.5
		c0.3,0.1,0.5,0.2,0.9,0.2c0.6,0,1.1-0.2,1.5-0.5c0.4-0.3,0.8-0.8,1.1-1.4l0.4,0.3c-0.4,0.6-0.8,1.2-1.3,1.5
		c-0.5,0.4-1.2,0.6-2.1,0.6c-1.4,0-2.4-0.4-3-1.2c-0.6-0.8-0.9-2-0.9-3.5V7.3h-3V7H909.4z"/>
	<path class="st0" d="M919.1,24.1c0.3-0.1,0.6-0.2,0.8-0.3c0.2-0.1,0.4-0.3,0.5-0.5s0.2-0.4,0.2-0.7c0-0.3,0.1-0.7,0.1-1.1V10.3
		c0-0.4,0-0.8,0-1.1c0-0.3-0.1-0.6-0.1-0.8c-0.1-0.2-0.1-0.5-0.3-0.7c-0.1-0.2-0.2-0.4-0.4-0.6l3.1-0.3v14.7c0,0.4,0,0.8,0.1,1.1
		c0,0.3,0.1,0.5,0.3,0.7c0.1,0.2,0.3,0.4,0.5,0.5c0.2,0.1,0.5,0.2,0.8,0.3H919.1z M921.7,1.6c0.5,0,0.8,0.1,1.2,0.4
		c0.3,0.3,0.5,0.6,0.5,1.1c0,0.5-0.2,0.8-0.5,1.1s-0.7,0.4-1.2,0.4c-0.4,0-0.8-0.1-1.1-0.4s-0.5-0.7-0.5-1.1c0-0.5,0.2-0.8,0.5-1.1
		C920.9,1.7,921.3,1.6,921.7,1.6z"/>
	<path class="st0" d="M930.6,7c-0.2,0.1-0.3,0.3-0.4,0.6c-0.1,0.3,0,0.7,0.2,1.3l5.4,12.5l4.6-10.7c0.3-0.8,0.5-1.4,0.6-1.9
		c0.1-0.5,0.1-0.8,0-1.1c-0.1-0.2-0.2-0.4-0.3-0.5c-0.1-0.1-0.2-0.2-0.3-0.2h2.9c-0.2,0.1-0.5,0.4-0.9,0.7c-0.4,0.4-0.7,1-1.1,1.8
		l-6.2,14.6h-0.3l-6.3-14.5c-0.4-0.9-0.7-1.6-1-1.9c-0.3-0.4-0.5-0.6-0.7-0.7H930.6z"/>
	<path class="st0" d="M945.8,24.1c0.3-0.1,0.6-0.2,0.8-0.3c0.2-0.1,0.4-0.3,0.5-0.5c0.1-0.2,0.2-0.4,0.2-0.7c0-0.3,0.1-0.7,0.1-1.1
		V10.3c0-0.4,0-0.8,0-1.1c0-0.3-0.1-0.6-0.1-0.8c-0.1-0.2-0.1-0.5-0.3-0.7c-0.1-0.2-0.2-0.4-0.4-0.6l3.1-0.3v14.7
		c0,0.4,0,0.8,0.1,1.1c0,0.3,0.1,0.5,0.3,0.7c0.1,0.2,0.3,0.4,0.5,0.5c0.2,0.1,0.5,0.2,0.8,0.3H945.8z M948.4,1.6
		c0.5,0,0.8,0.1,1.2,0.4c0.3,0.3,0.5,0.6,0.5,1.1c0,0.5-0.2,0.8-0.5,1.1c-0.3,0.3-0.7,0.4-1.2,0.4c-0.4,0-0.8-0.1-1.1-0.4
		c-0.3-0.3-0.5-0.7-0.5-1.1c0-0.5,0.2-0.8,0.5-1.1C947.6,1.7,947.9,1.6,948.4,1.6z"/>
	<path class="st0" d="M956.9,7l2.1-4.2V7h5v0.3h-5v13c0,0.7,0,1.2,0.1,1.7c0.1,0.4,0.2,0.8,0.4,1.1c0.2,0.3,0.4,0.4,0.6,0.5
		c0.3,0.1,0.5,0.2,0.9,0.2c0.6,0,1.1-0.2,1.5-0.5c0.4-0.3,0.8-0.8,1.1-1.4l0.4,0.3c-0.4,0.6-0.8,1.2-1.3,1.5
		c-0.5,0.4-1.2,0.6-2.1,0.6c-1.4,0-2.4-0.4-3-1.2c-0.6-0.8-0.9-2-0.9-3.5V7.3h-3V7H956.9z"/>
	<path class="st0" d="M969.9,7c-0.2,0.1-0.3,0.4-0.4,0.6c-0.1,0.3,0,0.8,0.3,1.5l5,12.4l4.9-12.3c0.2-0.4,0.2-0.7,0.2-1
		c0-0.3-0.1-0.5-0.2-0.6c-0.1-0.2-0.2-0.3-0.3-0.4c-0.1-0.1-0.2-0.2-0.3-0.2h2.8c-0.2,0.1-0.4,0.3-0.8,0.6c-0.3,0.3-0.6,0.8-0.9,1.5
		l-6.4,16c-0.1,0.3-0.3,0.7-0.6,1.2c-0.2,0.4-0.5,0.9-0.9,1.3s-0.8,0.8-1.3,1.1c-0.5,0.3-1.1,0.5-1.8,0.6l-1.1-3
		c0.8,0.4,1.5,0.6,2.2,0.6c0.7,0,1.4-0.2,1.9-0.7c0.6-0.4,1.1-1.1,1.4-2.1l-6.4-15.4c-0.3-0.6-0.5-1.1-0.7-1.3
		c-0.2-0.3-0.4-0.4-0.6-0.5H969.9z"/>
	<path class="st0" d="M997.6,7c-0.2,0.1-0.3,0.3-0.4,0.6c-0.1,0.3-0.1,0.7,0.2,1.3l4.2,11.8l4.3-13.7h0.2l5.5,13.9l3.3-10.2
		c0.3-0.8,0.4-1.5,0.5-1.9c0-0.5,0-0.8-0.1-1.1c-0.1-0.3-0.2-0.4-0.3-0.5c-0.1-0.1-0.3-0.2-0.4-0.2h3c-0.3,0.2-0.6,0.4-0.9,0.7
		c-0.3,0.3-0.6,0.9-0.9,1.8l-4.7,14.6h-0.4l-5.4-13.7l-4.3,13.7h-0.4l-5.2-14.5c-0.3-0.9-0.6-1.6-0.9-1.9c-0.2-0.4-0.5-0.6-0.7-0.7
		H997.6z"/>
	<path class="st0" d="M1019.9,24.1c0.3-0.1,0.6-0.2,0.8-0.3c0.2-0.1,0.4-0.3,0.5-0.5c0.1-0.2,0.2-0.4,0.2-0.7c0-0.3,0.1-0.7,0.1-1.1
		V3.7c0-0.6-0.1-1.1-0.2-1.4c-0.1-0.3-0.3-0.5-0.6-0.8l3-0.4v10.5c0.5-1.5,1.3-2.6,2.4-3.5c1.1-0.9,2.5-1.3,4.2-1.3
		c1,0,1.8,0.1,2.6,0.4c0.7,0.3,1.4,0.7,1.9,1.2c0.5,0.5,0.9,1.1,1.2,1.8c0.3,0.7,0.4,1.5,0.4,2.3v9c0,0.4,0,0.8,0.1,1.1
		c0.1,0.3,0.1,0.5,0.3,0.7c0.1,0.2,0.3,0.4,0.5,0.5c0.2,0.1,0.5,0.2,0.8,0.3h-5.4c0.3-0.1,0.6-0.2,0.8-0.3c0.2-0.1,0.4-0.3,0.5-0.5
		c0.1-0.2,0.2-0.4,0.2-0.7c0-0.3,0.1-0.7,0.1-1.1v-9.3c0-1.5-0.4-2.7-1.1-3.6c-0.7-0.9-1.8-1.3-3.2-1.3c-0.8,0-1.5,0.1-2.3,0.4
		c-0.7,0.3-1.4,0.7-1.9,1.3c-0.6,0.6-1,1.3-1.4,2.1c-0.4,0.8-0.6,1.8-0.6,2.9v7.5c0,0.4,0,0.8,0.1,1.1c0.1,0.3,0.1,0.5,0.3,0.7
		c0.1,0.2,0.3,0.4,0.5,0.5c0.2,0.1,0.5,0.2,0.8,0.3H1019.9z"/>
	<path class="st0" d="M1049,6.8c1.2,0,2.3,0.2,3.2,0.5c0.9,0.3,1.6,0.8,2.2,1.5c0.6,0.6,1,1.4,1.3,2.2c0.3,0.8,0.4,1.8,0.5,2.8
		h-12.8c0,0.3-0.1,0.6-0.1,0.9c0,0.3,0,0.6,0,1c0,1.2,0.2,2.2,0.5,3.2c0.3,1,0.7,1.9,1.3,2.6c0.6,0.7,1.2,1.3,2,1.7
		c0.8,0.4,1.6,0.6,2.5,0.6c0.8,0,1.5-0.1,2.2-0.4c0.7-0.3,1.3-0.7,1.8-1.3c0.5-0.5,1-1.2,1.5-2c0.4-0.8,0.8-1.6,1.1-2.5l-0.3,4.4
		c-0.9,0.7-1.9,1.3-3,1.7c-1.1,0.4-2.2,0.5-3.3,0.5c-1.3,0-2.4-0.2-3.5-0.6c-1.1-0.4-2-1-2.8-1.7c-0.8-0.7-1.4-1.7-1.8-2.7
		c-0.4-1.1-0.6-2.3-0.6-3.5c0-1.3,0.2-2.4,0.6-3.5c0.4-1.1,0.9-2,1.6-2.8c0.7-0.8,1.6-1.4,2.6-1.8S1047.7,6.8,1049,6.8z
		 M1043.5,13.5h10.3c0-0.9-0.1-1.7-0.4-2.5c-0.2-0.7-0.5-1.4-0.9-2c-0.4-0.6-0.9-1-1.5-1.3c-0.6-0.3-1.3-0.5-2-0.5
		c-0.7,0-1.4,0.2-2,0.5c-0.6,0.3-1.1,0.7-1.6,1.3c-0.5,0.6-0.9,1.2-1.2,2C1043.9,11.7,1043.6,12.5,1043.5,13.5z"/>
	<path class="st0" d="M1059.5,24.1c0.3-0.1,0.6-0.2,0.8-0.3c0.2-0.1,0.4-0.3,0.5-0.5c0.1-0.2,0.2-0.4,0.2-0.7c0-0.3,0.1-0.7,0.1-1.1
		V10.3c0-0.4,0-0.8,0-1.1c0-0.3-0.1-0.6-0.1-0.8c-0.1-0.2-0.1-0.5-0.3-0.7c-0.1-0.2-0.2-0.4-0.4-0.6l3.1-0.3v4.1
		c0.2-0.6,0.5-1.1,0.8-1.6c0.3-0.5,0.7-0.9,1.1-1.3c0.4-0.4,0.9-0.6,1.4-0.8c0.5-0.2,1.1-0.3,1.8-0.3c0.6,0,1.2,0.1,1.7,0.2l0,2.9
		c-0.2-0.2-0.4-0.5-0.7-0.7c-0.3-0.2-0.5-0.5-0.8-0.7c-0.3-0.2-0.6-0.4-0.9-0.5c-0.3-0.1-0.6-0.2-0.9-0.2c-0.4,0-0.8,0.1-1.1,0.3
		c-0.3,0.2-0.7,0.5-1,0.8c-0.3,0.3-0.6,0.7-0.8,1.2c-0.2,0.5-0.5,0.9-0.6,1.4v9.8c0,0.4,0,0.8,0.1,1.1c0,0.3,0.1,0.5,0.3,0.7
		c0.1,0.2,0.3,0.4,0.5,0.5c0.2,0.1,0.5,0.2,0.8,0.3H1059.5z"/>
	<path class="st0" d="M1080.9,6.8c1.2,0,2.3,0.2,3.2,0.5c0.9,0.3,1.6,0.8,2.2,1.5c0.6,0.6,1,1.4,1.3,2.2c0.3,0.8,0.4,1.8,0.5,2.8
		h-12.8c0,0.3-0.1,0.6-0.1,0.9c0,0.3,0,0.6,0,1c0,1.2,0.2,2.2,0.5,3.2c0.3,1,0.7,1.9,1.3,2.6c0.6,0.7,1.2,1.3,2,1.7
		c0.8,0.4,1.6,0.6,2.5,0.6c0.8,0,1.5-0.1,2.2-0.4c0.7-0.3,1.3-0.7,1.8-1.3c0.5-0.5,1-1.2,1.5-2c0.4-0.8,0.8-1.6,1.1-2.5l-0.3,4.4
		c-0.9,0.7-1.9,1.3-3,1.7c-1.1,0.4-2.2,0.5-3.3,0.5c-1.3,0-2.4-0.2-3.5-0.6c-1.1-0.4-2-1-2.8-1.7c-0.8-0.7-1.4-1.7-1.8-2.7
		c-0.4-1.1-0.6-2.3-0.6-3.5c0-1.3,0.2-2.4,0.6-3.5c0.4-1.1,0.9-2,1.6-2.8c0.7-0.8,1.6-1.4,2.6-1.8C1078.5,7.1,1079.7,6.8,1080.9,6.8
		z M1075.4,13.5h10.3c0-0.9-0.1-1.7-0.4-2.5c-0.2-0.7-0.5-1.4-0.9-2c-0.4-0.6-0.9-1-1.5-1.3c-0.6-0.3-1.3-0.5-2-0.5
		c-0.7,0-1.4,0.2-2,0.5c-0.6,0.3-1.1,0.7-1.6,1.3c-0.5,0.6-0.9,1.2-1.2,2C1075.8,11.7,1075.6,12.5,1075.4,13.5z"/>
	<path class="st0" d="M1094.7,7c-0.2,0.1-0.3,0.3-0.4,0.6c-0.1,0.3,0,0.7,0.2,1.3l5.4,12.5l4.6-10.7c0.3-0.8,0.5-1.4,0.6-1.9
		c0.1-0.5,0.1-0.8,0-1.1c-0.1-0.2-0.2-0.4-0.3-0.5c-0.1-0.1-0.2-0.2-0.3-0.2h2.9c-0.2,0.1-0.5,0.4-0.9,0.7c-0.4,0.4-0.7,1-1.1,1.8
		l-6.2,14.6h-0.3l-6.3-14.5c-0.4-0.9-0.7-1.6-1-1.9c-0.3-0.4-0.5-0.6-0.7-0.7H1094.7z"/>
	<path class="st0" d="M1118.1,6.8c1.2,0,2.3,0.2,3.2,0.5c0.9,0.3,1.6,0.8,2.2,1.5c0.6,0.6,1,1.4,1.3,2.2c0.3,0.8,0.4,1.8,0.5,2.8
		h-12.8c0,0.3-0.1,0.6-0.1,0.9c0,0.3,0,0.6,0,1c0,1.2,0.2,2.2,0.5,3.2c0.3,1,0.7,1.9,1.3,2.6c0.6,0.7,1.2,1.3,2,1.7
		c0.8,0.4,1.6,0.6,2.5,0.6c0.8,0,1.5-0.1,2.2-0.4c0.7-0.3,1.3-0.7,1.8-1.3c0.5-0.5,1-1.2,1.5-2c0.4-0.8,0.8-1.6,1.1-2.5l-0.3,4.4
		c-0.9,0.7-1.9,1.3-3,1.7c-1.1,0.4-2.2,0.5-3.3,0.5c-1.3,0-2.4-0.2-3.5-0.6c-1.1-0.4-2-1-2.8-1.7c-0.8-0.7-1.4-1.7-1.8-2.7
		c-0.4-1.1-0.6-2.3-0.6-3.5c0-1.3,0.2-2.4,0.6-3.5c0.4-1.1,0.9-2,1.6-2.8c0.7-0.8,1.6-1.4,2.6-1.8C1115.7,7.1,1116.8,6.8,1118.1,6.8
		z M1112.6,13.5h10.3c0-0.9-0.1-1.7-0.4-2.5c-0.2-0.7-0.5-1.4-0.9-2c-0.4-0.6-0.9-1-1.5-1.3c-0.6-0.3-1.3-0.5-2-0.5
		c-0.7,0-1.4,0.2-2,0.5c-0.6,0.3-1.1,0.7-1.6,1.3c-0.5,0.6-0.9,1.2-1.2,2C1113,11.7,1112.7,12.5,1112.6,13.5z"/>
	<path class="st0" d="M1128.6,24.1c0.3-0.1,0.6-0.2,0.8-0.3c0.2-0.1,0.4-0.3,0.5-0.5c0.1-0.2,0.2-0.4,0.2-0.7c0-0.3,0.1-0.7,0.1-1.1
		V10.3c0-0.4,0-0.8,0-1.1c0-0.3-0.1-0.6-0.1-0.8c-0.1-0.2-0.1-0.5-0.3-0.7c-0.1-0.2-0.2-0.4-0.4-0.6l3.1-0.3v4.1
		c0.2-0.6,0.5-1.1,0.8-1.6c0.3-0.5,0.7-0.9,1.1-1.3c0.4-0.4,0.9-0.6,1.4-0.8c0.5-0.2,1.1-0.3,1.8-0.3c0.6,0,1.2,0.1,1.7,0.2l0,2.9
		c-0.2-0.2-0.4-0.5-0.7-0.7c-0.3-0.2-0.5-0.5-0.8-0.7c-0.3-0.2-0.6-0.4-0.9-0.5c-0.3-0.1-0.6-0.2-0.9-0.2c-0.4,0-0.8,0.1-1.1,0.3
		c-0.3,0.2-0.7,0.5-1,0.8c-0.3,0.3-0.6,0.7-0.8,1.2c-0.2,0.5-0.5,0.9-0.6,1.4v9.8c0,0.4,0,0.8,0.1,1.1c0,0.3,0.1,0.5,0.3,0.7
		c0.1,0.2,0.3,0.4,0.5,0.5c0.2,0.1,0.5,0.2,0.8,0.3H1128.6z"/>
	<path class="st0" d="M1155,7c-0.2,0.1-0.3,0.4-0.4,0.6s0,0.8,0.3,1.5l5,12.4l4.9-12.3c0.2-0.4,0.2-0.7,0.2-1c0-0.3-0.1-0.5-0.2-0.6
		c-0.1-0.2-0.2-0.3-0.3-0.4c-0.1-0.1-0.2-0.2-0.3-0.2h2.8c-0.2,0.1-0.4,0.3-0.8,0.6c-0.3,0.3-0.6,0.8-0.9,1.5l-6.4,16
		c-0.1,0.3-0.3,0.7-0.6,1.2s-0.5,0.9-0.9,1.3s-0.8,0.8-1.3,1.1c-0.5,0.3-1.1,0.5-1.8,0.6l-1.1-3c0.8,0.4,1.5,0.6,2.2,0.6
		c0.7,0,1.4-0.2,1.9-0.7c0.6-0.4,1.1-1.1,1.4-2.1l-6.4-15.4c-0.3-0.6-0.5-1.1-0.7-1.3c-0.2-0.3-0.4-0.4-0.6-0.5H1155z"/>
	<path class="st0" d="M1178.2,6.8c1.3,0,2.5,0.2,3.5,0.6s2,1,2.7,1.8c0.8,0.8,1.4,1.7,1.8,2.8c0.4,1.1,0.6,2.2,0.6,3.5v0
		c0,1.3-0.2,2.4-0.6,3.5c-0.4,1.1-1,2-1.8,2.8c-0.8,0.8-1.7,1.4-2.7,1.8c-1.1,0.4-2.2,0.6-3.5,0.6c-1.3,0-2.5-0.2-3.5-0.6
		c-1.1-0.4-2-1-2.7-1.8c-0.8-0.8-1.4-1.7-1.8-2.8c-0.4-1.1-0.6-2.2-0.6-3.5v0c0-1.3,0.2-2.4,0.6-3.5c0.4-1.1,1-2,1.8-2.8
		c0.8-0.8,1.7-1.4,2.7-1.8S1176.9,6.8,1178.2,6.8z M1172,15.6c0,1.2,0.2,2.3,0.5,3.3c0.3,1,0.7,1.9,1.3,2.6c0.5,0.7,1.2,1.3,2,1.7
		c0.8,0.4,1.6,0.6,2.5,0.6s1.8-0.2,2.5-0.6c0.8-0.4,1.4-1,2-1.7c0.5-0.7,1-1.6,1.3-2.6c0.3-1,0.5-2.1,0.5-3.3c0-1.2-0.2-2.3-0.5-3.3
		c-0.3-1-0.7-1.9-1.3-2.6c-0.5-0.7-1.2-1.3-2-1.7c-0.8-0.4-1.6-0.6-2.5-0.6s-1.8,0.2-2.5,0.6c-0.8,0.4-1.4,1-2,1.7
		c-0.5,0.7-1,1.6-1.3,2.6C1172.1,13.2,1172,14.3,1172,15.6z"/>
	<path class="st0" d="M1190.1,7.1l3.1-0.3v12.3c0,0.9,0.1,1.6,0.3,2.2c0.2,0.6,0.4,1.1,0.8,1.5c0.3,0.4,0.7,0.6,1.2,0.8
		c0.5,0.2,1,0.2,1.6,0.2c0.9,0,1.7-0.2,2.4-0.6c0.7-0.4,1.2-0.9,1.7-1.6c0.4-0.6,0.8-1.4,1-2.2c0.2-0.8,0.4-1.6,0.4-2.3v-6.9
		c0-0.4,0-0.8,0-1.1c0-0.3-0.1-0.6-0.1-0.8c-0.1-0.2-0.1-0.5-0.3-0.7c-0.1-0.2-0.2-0.4-0.4-0.6l3.1-0.3v14.3c0,0.9,0.1,1.5,0.2,2
		c0.1,0.4,0.4,0.8,0.6,1l-3,0.1v-4.6c-0.3,0.7-0.6,1.4-1,1.9c-0.4,0.6-0.8,1.1-1.2,1.5c-0.5,0.4-1,0.7-1.6,0.9
		c-0.6,0.2-1.3,0.3-2.1,0.3c-1.7,0-3.1-0.4-4.1-1.3c-1-0.9-1.5-2.2-1.5-4v-8.7c0-0.4,0-0.8,0-1.1c0-0.3-0.1-0.6-0.1-0.8
		c-0.1-0.2-0.1-0.5-0.3-0.7C1190.4,7.5,1190.3,7.3,1190.1,7.1z"/>
	<path class="st0" d="M1208.7,24.1c0.3-0.1,0.6-0.2,0.8-0.3c0.2-0.1,0.4-0.3,0.5-0.5c0.1-0.2,0.2-0.4,0.2-0.7c0-0.3,0.1-0.7,0.1-1.1
		V10.3c0-0.4,0-0.8,0-1.1c0-0.3-0.1-0.6-0.1-0.8c-0.1-0.2-0.1-0.5-0.3-0.7c-0.1-0.2-0.2-0.4-0.4-0.6l3.1-0.3v4.1
		c0.2-0.6,0.5-1.1,0.8-1.6c0.3-0.5,0.7-0.9,1.1-1.3c0.4-0.4,0.9-0.6,1.4-0.8c0.5-0.2,1.1-0.3,1.8-0.3c0.6,0,1.2,0.1,1.7,0.2l0,2.9
		c-0.2-0.2-0.4-0.5-0.7-0.7c-0.3-0.2-0.5-0.5-0.8-0.7c-0.3-0.2-0.6-0.4-0.9-0.5c-0.3-0.1-0.6-0.2-0.9-0.2c-0.4,0-0.8,0.1-1.1,0.3
		c-0.3,0.2-0.7,0.5-1,0.8c-0.3,0.3-0.6,0.7-0.8,1.2c-0.2,0.5-0.5,0.9-0.6,1.4v9.8c0,0.4,0,0.8,0.1,1.1c0,0.3,0.1,0.5,0.3,0.7
		c0.1,0.2,0.3,0.4,0.5,0.5c0.2,0.1,0.5,0.2,0.8,0.3H1208.7z"/>
	<path class="st0" d="M1231.8,24.1c0.3-0.1,0.6-0.2,0.8-0.3c0.2-0.1,0.4-0.3,0.5-0.5c0.1-0.2,0.2-0.4,0.2-0.7c0-0.3,0.1-0.7,0.1-1.1
		V3.7c0-0.6-0.1-1.1-0.2-1.4c-0.1-0.3-0.3-0.5-0.6-0.8l3-0.4v10.5c0.5-1.5,1.3-2.6,2.4-3.5c1.1-0.9,2.5-1.3,4.2-1.3
		c1,0,1.8,0.1,2.6,0.4c0.7,0.3,1.4,0.7,1.9,1.2c0.5,0.5,0.9,1.1,1.2,1.8c0.3,0.7,0.4,1.5,0.4,2.3v9c0,0.4,0,0.8,0.1,1.1
		c0.1,0.3,0.1,0.5,0.3,0.7c0.1,0.2,0.3,0.4,0.5,0.5c0.2,0.1,0.5,0.2,0.8,0.3h-5.4c0.3-0.1,0.6-0.2,0.8-0.3c0.2-0.1,0.4-0.3,0.5-0.5
		s0.2-0.4,0.2-0.7c0-0.3,0.1-0.7,0.1-1.1v-9.3c0-1.5-0.4-2.7-1.1-3.6c-0.7-0.9-1.8-1.3-3.2-1.3c-0.8,0-1.5,0.1-2.3,0.4
		c-0.7,0.3-1.4,0.7-1.9,1.3c-0.6,0.6-1,1.3-1.4,2.1c-0.4,0.8-0.6,1.8-0.6,2.9v7.5c0,0.4,0,0.8,0.1,1.1c0.1,0.3,0.1,0.5,0.3,0.7
		c0.1,0.2,0.3,0.4,0.5,0.5c0.2,0.1,0.5,0.2,0.8,0.3H1231.8z"/>
	<path class="st0" d="M1279.4,14.7l3.4-0.8v-2.2c0-1.5-0.3-2.6-0.9-3.4c-0.6-0.7-1.5-1.1-2.7-1.1c-0.6,0-1.1,0.1-1.7,0.3
		c-0.6,0.2-1.1,0.5-1.7,1c-0.5,0.5-1,1.2-1.4,2c-0.4,0.8-0.8,1.9-1.1,3.2l-0.2-5.1c0.7-0.6,1.7-1.1,2.8-1.4c1.1-0.3,2.2-0.5,3.4-0.5
		c1.8,0,3.2,0.4,4.2,1.3c1,0.8,1.6,2.1,1.6,3.7v9.6c0,0.6,0.1,1.1,0.2,1.5c0.1,0.4,0.3,0.8,0.7,1.1l-3,0.1v-4
		c-0.2,0.5-0.5,1-0.8,1.5c-0.3,0.5-0.7,0.9-1.2,1.3c-0.5,0.4-1,0.7-1.6,0.9c-0.6,0.2-1.3,0.3-2.2,0.3c-0.7,0-1.4-0.1-2-0.2
		c-0.6-0.2-1.2-0.4-1.6-0.7c-0.5-0.3-0.8-0.7-1.1-1.2c-0.3-0.5-0.4-1.1-0.4-1.7c0-0.9,0.2-1.7,0.7-2.3c0.5-0.6,1.1-1.2,1.9-1.6
		s1.5-0.8,2.4-1C1277.8,15.1,1278.6,14.9,1279.4,14.7z M1274.4,20.3c0,1,0.3,1.9,0.8,2.5c0.6,0.7,1.3,1,2.4,1c0.6,0,1.1-0.1,1.7-0.4
		c0.6-0.2,1.1-0.6,1.6-1.1s0.9-1.1,1.2-1.8c0.3-0.7,0.5-1.5,0.5-2.5v-3.8l-3.3,0.8c-0.4,0.1-0.9,0.3-1.5,0.5
		c-0.6,0.2-1.1,0.5-1.6,0.9c-0.5,0.4-1,0.9-1.3,1.5C1274.6,18.6,1274.4,19.3,1274.4,20.3z"/>
	<path class="st0" d="M1288.8,24.1c0.3-0.1,0.6-0.2,0.8-0.3c0.2-0.1,0.4-0.3,0.5-0.5s0.2-0.4,0.2-0.7c0-0.3,0.1-0.7,0.1-1.1V10.3
		c0-0.4,0-0.8,0-1.1c0-0.3-0.1-0.6-0.1-0.8c-0.1-0.2-0.1-0.5-0.3-0.7c-0.1-0.2-0.2-0.4-0.4-0.6l3.1-0.3v4.1c0.2-0.6,0.5-1.1,0.8-1.6
		c0.3-0.5,0.7-0.9,1.1-1.3c0.4-0.4,0.9-0.6,1.4-0.8c0.5-0.2,1.1-0.3,1.8-0.3c0.6,0,1.2,0.1,1.7,0.2l0,2.9c-0.2-0.2-0.4-0.5-0.7-0.7
		c-0.3-0.2-0.5-0.5-0.8-0.7c-0.3-0.2-0.6-0.4-0.9-0.5c-0.3-0.1-0.6-0.2-0.9-0.2c-0.4,0-0.8,0.1-1.1,0.3c-0.3,0.2-0.7,0.5-1,0.8
		c-0.3,0.3-0.6,0.7-0.8,1.2c-0.2,0.5-0.5,0.9-0.6,1.4v9.8c0,0.4,0,0.8,0.1,1.1c0,0.3,0.1,0.5,0.3,0.7c0.1,0.2,0.3,0.4,0.5,0.5
		c0.2,0.1,0.5,0.2,0.8,0.3H1288.8z"/>
	<path class="st0" d="M1304.9,7l2.1-4.2V7h5v0.3h-5v13c0,0.7,0,1.2,0.1,1.7s0.2,0.8,0.4,1.1c0.2,0.3,0.4,0.4,0.6,0.5
		c0.3,0.1,0.5,0.2,0.9,0.2c0.6,0,1.1-0.2,1.5-0.5c0.4-0.3,0.8-0.8,1.1-1.4l0.4,0.3c-0.4,0.6-0.8,1.2-1.3,1.5
		c-0.5,0.4-1.2,0.6-2.1,0.6c-1.4,0-2.4-0.4-3-1.2c-0.6-0.8-0.9-2-0.9-3.5V7.3h-3V7H1304.9z"/>
	<path class="st0" d="M1327.5,7l2.1-4.2V7h5v0.3h-5v13c0,0.7,0,1.2,0.1,1.7c0.1,0.4,0.2,0.8,0.4,1.1c0.2,0.3,0.4,0.4,0.6,0.5
		c0.3,0.1,0.5,0.2,0.9,0.2c0.6,0,1.1-0.2,1.5-0.5c0.4-0.3,0.8-0.8,1.1-1.4l0.4,0.3c-0.4,0.6-0.8,1.2-1.3,1.5
		c-0.5,0.4-1.2,0.6-2.1,0.6c-1.4,0-2.4-0.4-3-1.2c-0.6-0.8-0.9-2-0.9-3.5V7.3h-3V7H1327.5z"/>
	<path class="st0" d="M1344.7,14.7l3.4-0.8v-2.2c0-1.5-0.3-2.6-0.9-3.4c-0.6-0.7-1.5-1.1-2.7-1.1c-0.6,0-1.1,0.1-1.7,0.3
		c-0.6,0.2-1.1,0.5-1.7,1c-0.5,0.5-1,1.2-1.4,2c-0.4,0.8-0.8,1.9-1.1,3.2l-0.2-5.1c0.7-0.6,1.7-1.1,2.8-1.4c1.1-0.3,2.2-0.5,3.4-0.5
		c1.8,0,3.2,0.4,4.2,1.3c1,0.8,1.6,2.1,1.6,3.7v9.6c0,0.6,0.1,1.1,0.2,1.5c0.1,0.4,0.3,0.8,0.7,1.1l-3,0.1v-4
		c-0.2,0.5-0.5,1-0.8,1.5c-0.3,0.5-0.7,0.9-1.2,1.3c-0.5,0.4-1,0.7-1.6,0.9c-0.6,0.2-1.3,0.3-2.2,0.3c-0.7,0-1.4-0.1-2-0.2
		c-0.6-0.2-1.2-0.4-1.6-0.7c-0.5-0.3-0.8-0.7-1.1-1.2c-0.3-0.5-0.4-1.1-0.4-1.7c0-0.9,0.2-1.7,0.7-2.3c0.5-0.6,1.1-1.2,1.9-1.6
		s1.5-0.8,2.4-1C1343.1,15.1,1343.9,14.9,1344.7,14.7z M1339.8,20.3c0,1,0.3,1.9,0.8,2.5c0.6,0.7,1.3,1,2.4,1c0.6,0,1.1-0.1,1.7-0.4
		c0.6-0.2,1.1-0.6,1.6-1.1c0.5-0.5,0.9-1.1,1.2-1.8c0.3-0.7,0.5-1.5,0.5-2.5v-3.8l-3.3,0.8c-0.4,0.1-0.9,0.3-1.5,0.5
		c-0.6,0.2-1.1,0.5-1.6,0.9c-0.5,0.4-1,0.9-1.3,1.5C1339.9,18.6,1339.8,19.3,1339.8,20.3z"/>
	<path class="st0" d="M1354.1,24.1c0.3-0.1,0.6-0.2,0.8-0.3c0.2-0.1,0.4-0.3,0.5-0.5c0.1-0.2,0.2-0.4,0.2-0.7c0-0.3,0.1-0.7,0.1-1.1
		V3.7c0-0.6-0.1-1.1-0.2-1.4c-0.1-0.3-0.3-0.5-0.6-0.8l3-0.4v15.5l7.8-6.8c0.5-0.5,1-0.9,1.4-1.4c0.4-0.5,0.5-1,0.5-1.4h2.8
		c-0.2,0.1-0.4,0.2-0.7,0.4c-0.3,0.2-0.6,0.4-0.9,0.7c-0.4,0.3-0.8,0.6-1.3,1c-0.5,0.4-1.1,0.9-1.7,1.5l-3.3,2.9l5.8,7.3
		c0.6,0.7,1,1.3,1.4,1.7c0.3,0.4,0.6,0.8,0.8,1s0.3,0.4,0.4,0.5c0.1,0.1,0.1,0.1,0.2,0.1h-3.9c0-0.1,0.1-0.1,0.1-0.3
		c0-0.1,0-0.3-0.1-0.5c-0.1-0.2-0.2-0.5-0.4-0.8c-0.2-0.3-0.5-0.8-0.9-1.3l-5-6.5l-2.9,2.5v4.1c0,0.4,0,0.8,0.1,1.1
		c0.1,0.3,0.1,0.5,0.3,0.7c0.1,0.2,0.3,0.4,0.5,0.5c0.2,0.1,0.5,0.2,0.8,0.3H1354.1z"/>
	<path class="st0" d="M1381.6,6.8c1.2,0,2.3,0.2,3.2,0.5c0.9,0.3,1.6,0.8,2.2,1.5c0.6,0.6,1,1.4,1.3,2.2c0.3,0.8,0.4,1.8,0.5,2.8
		H1376c0,0.3-0.1,0.6-0.1,0.9c0,0.3,0,0.6,0,1c0,1.2,0.2,2.2,0.5,3.2c0.3,1,0.7,1.9,1.3,2.6c0.6,0.7,1.2,1.3,2,1.7
		c0.8,0.4,1.6,0.6,2.5,0.6c0.8,0,1.5-0.1,2.2-0.4c0.7-0.3,1.3-0.7,1.8-1.3c0.5-0.5,1-1.2,1.5-2c0.4-0.8,0.8-1.6,1.1-2.5l-0.3,4.4
		c-0.9,0.7-1.9,1.3-3,1.7c-1.1,0.4-2.2,0.5-3.3,0.5c-1.3,0-2.4-0.2-3.5-0.6c-1.1-0.4-2-1-2.8-1.7c-0.8-0.7-1.4-1.7-1.8-2.7
		c-0.4-1.1-0.6-2.3-0.6-3.5c0-1.3,0.2-2.4,0.6-3.5c0.4-1.1,0.9-2,1.6-2.8c0.7-0.8,1.6-1.4,2.6-1.8S1380.3,6.8,1381.6,6.8z
		 M1376.1,13.5h10.3c0-0.9-0.1-1.7-0.4-2.5c-0.2-0.7-0.5-1.4-0.9-2c-0.4-0.6-0.9-1-1.5-1.3c-0.6-0.3-1.3-0.5-2-0.5
		c-0.7,0-1.4,0.2-2,0.5c-0.6,0.3-1.1,0.7-1.6,1.3c-0.5,0.6-0.9,1.2-1.2,2C1376.4,11.7,1376.2,12.5,1376.1,13.5z"/>
	<path class="st0" d="M1260.4,6.8c1.2,0,2.3,0.2,3.2,0.5c0.9,0.3,1.6,0.8,2.2,1.5c0.6,0.6,1,1.4,1.3,2.2c0.3,0.8,0.4,1.8,0.5,2.8
		h-12.8c0,0.3-0.1,0.6-0.1,0.9c0,0.3,0,0.6,0,1c0,1.2,0.2,2.2,0.5,3.2c0.3,1,0.7,1.9,1.3,2.6c0.6,0.7,1.2,1.3,2,1.7
		c0.8,0.4,1.6,0.6,2.5,0.6c0.8,0,1.5-0.1,2.2-0.4c0.7-0.3,1.3-0.7,1.8-1.3c0.5-0.5,1-1.2,1.5-2c0.4-0.8,0.8-1.6,1.1-2.5l-0.3,4.4
		c-0.9,0.7-1.9,1.3-3,1.7c-1.1,0.4-2.2,0.5-3.3,0.5c-1.3,0-2.4-0.2-3.5-0.6c-1.1-0.4-2-1-2.8-1.7c-0.8-0.7-1.4-1.7-1.8-2.7
		c-0.4-1.1-0.6-2.3-0.6-3.5c0-1.3,0.2-2.4,0.6-3.5c0.4-1.1,0.9-2,1.6-2.8c0.7-0.8,1.6-1.4,2.6-1.8S1259.1,6.8,1260.4,6.8z
		 M1254.8,13.5h10.3c0-0.9-0.1-1.7-0.4-2.5c-0.2-0.7-0.5-1.4-0.9-2c-0.4-0.6-0.9-1-1.5-1.3c-0.6-0.3-1.3-0.5-2-0.5
		c-0.7,0-1.4,0.2-2,0.5c-0.6,0.3-1.1,0.7-1.6,1.3c-0.5,0.6-0.9,1.2-1.2,2C1255.2,11.7,1255,12.5,1254.8,13.5z"/>
	<path class="st0" d="M1392.3,22.5l0.5-5.7c0.1,1.4,0.3,2.5,0.7,3.4c0.3,0.9,0.7,1.6,1.2,2.2c0.5,0.5,1.1,0.9,1.7,1.1
		c0.6,0.2,1.3,0.3,2,0.3c1.5,0,2.6-0.4,3.4-1.1c0.7-0.7,1.1-1.6,1.1-2.7c0-0.6-0.1-1.1-0.3-1.5c-0.2-0.4-0.5-0.8-0.8-1
		c-0.3-0.3-0.7-0.5-1-0.6c-0.4-0.2-0.7-0.3-1-0.4l-3.2-1.1c-0.3-0.1-0.7-0.3-1.1-0.5c-0.4-0.2-0.8-0.5-1.2-0.8
		c-0.4-0.3-0.7-0.8-0.9-1.3c-0.3-0.5-0.4-1.1-0.4-1.7c0-1.3,0.5-2.4,1.5-3.2c1-0.8,2.3-1.2,3.9-1.2c1.1,0,2.1,0.2,3,0.5
		c0.9,0.3,1.7,0.8,2.4,1.4l-0.2,4.1c-0.5-2-1.2-3.4-2-4.3c-0.8-0.9-1.9-1.3-3.3-1.3c-1.1,0-2,0.3-2.7,0.8c-0.7,0.5-1.1,1.3-1.1,2.4
		c0,0.5,0.1,0.9,0.3,1.2c0.2,0.3,0.4,0.6,0.7,0.8c0.3,0.2,0.6,0.4,1,0.5c0.3,0.1,0.7,0.2,1,0.3l2.9,1c0.4,0.1,0.8,0.3,1.3,0.5
		c0.5,0.2,1,0.5,1.4,0.9c0.4,0.4,0.8,0.8,1.1,1.4c0.3,0.6,0.5,1.2,0.5,2c0,0.7-0.1,1.4-0.4,2.1c-0.3,0.6-0.7,1.2-1.2,1.6
		c-0.5,0.5-1.2,0.8-2,1.1c-0.8,0.3-1.7,0.4-2.8,0.4c-1.2,0-2.3-0.2-3.3-0.5C1393.8,23.5,1393,23.1,1392.3,22.5z"/>
	<path class="st0" d="M1421,7c-0.2,0.1-0.3,0.4-0.4,0.6c-0.1,0.3,0,0.8,0.3,1.5l5,12.4l4.9-12.3c0.2-0.4,0.2-0.7,0.2-1
		c0-0.3-0.1-0.5-0.2-0.6c-0.1-0.2-0.2-0.3-0.3-0.4c-0.1-0.1-0.2-0.2-0.3-0.2h2.8c-0.2,0.1-0.4,0.3-0.8,0.6c-0.3,0.3-0.6,0.8-0.9,1.5
		l-6.4,16c-0.1,0.3-0.3,0.7-0.6,1.2c-0.2,0.4-0.5,0.9-0.9,1.3s-0.8,0.8-1.3,1.1c-0.5,0.3-1.1,0.5-1.8,0.6l-1.1-3
		c0.8,0.4,1.5,0.6,2.2,0.6c0.7,0,1.4-0.2,1.9-0.7c0.6-0.4,1.1-1.1,1.4-2.1l-6.4-15.4c-0.3-0.6-0.5-1.1-0.7-1.3
		c-0.2-0.3-0.4-0.4-0.6-0.5H1421z"/>
	<path class="st0" d="M1444.2,6.8c1.3,0,2.5,0.2,3.5,0.6s2,1,2.7,1.8c0.8,0.8,1.4,1.7,1.8,2.8c0.4,1.1,0.6,2.2,0.6,3.5v0
		c0,1.3-0.2,2.4-0.6,3.5c-0.4,1.1-1,2-1.8,2.8c-0.8,0.8-1.7,1.4-2.7,1.8c-1.1,0.4-2.2,0.6-3.5,0.6c-1.3,0-2.5-0.2-3.5-0.6
		c-1.1-0.4-2-1-2.7-1.8c-0.8-0.8-1.4-1.7-1.8-2.8c-0.4-1.1-0.6-2.2-0.6-3.5v0c0-1.3,0.2-2.4,0.6-3.5c0.4-1.1,1-2,1.8-2.8
		c0.8-0.8,1.7-1.4,2.7-1.8C1441.7,7.1,1442.9,6.8,1444.2,6.8z M1437.9,15.6c0,1.2,0.2,2.3,0.5,3.3c0.3,1,0.7,1.9,1.3,2.6
		c0.5,0.7,1.2,1.3,2,1.7c0.8,0.4,1.6,0.6,2.5,0.6s1.8-0.2,2.5-0.6c0.8-0.4,1.4-1,2-1.7c0.5-0.7,1-1.6,1.3-2.6c0.3-1,0.5-2.1,0.5-3.3
		c0-1.2-0.2-2.3-0.5-3.3c-0.3-1-0.7-1.9-1.3-2.6c-0.5-0.7-1.2-1.3-2-1.7c-0.8-0.4-1.6-0.6-2.5-0.6s-1.8,0.2-2.5,0.6
		c-0.8,0.4-1.4,1-2,1.7c-0.5,0.7-1,1.6-1.3,2.6C1438.1,13.2,1437.9,14.3,1437.9,15.6z"/>
	<path class="st0" d="M1456,7.1l3.1-0.3v12.3c0,0.9,0.1,1.6,0.3,2.2c0.2,0.6,0.4,1.1,0.8,1.5c0.3,0.4,0.7,0.6,1.2,0.8
		c0.5,0.2,1,0.2,1.6,0.2c0.9,0,1.7-0.2,2.4-0.6c0.7-0.4,1.2-0.9,1.7-1.6c0.4-0.6,0.8-1.4,1-2.2c0.2-0.8,0.4-1.6,0.4-2.3v-6.9
		c0-0.4,0-0.8,0-1.1c0-0.3-0.1-0.6-0.1-0.8c-0.1-0.2-0.1-0.5-0.3-0.7c-0.1-0.2-0.2-0.4-0.4-0.6l3.1-0.3v14.3c0,0.9,0.1,1.5,0.2,2
		c0.1,0.4,0.4,0.8,0.6,1l-3,0.1v-4.6c-0.3,0.7-0.6,1.4-1,1.9c-0.4,0.6-0.8,1.1-1.2,1.5c-0.5,0.4-1,0.7-1.6,0.9
		c-0.6,0.2-1.3,0.3-2.1,0.3c-1.7,0-3.1-0.4-4.1-1.3c-1-0.9-1.5-2.2-1.5-4v-8.7c0-0.4,0-0.8,0-1.1c0-0.3-0.1-0.6-0.1-0.8
		c-0.1-0.2-0.1-0.5-0.3-0.7C1456.3,7.5,1456.2,7.3,1456,7.1z"/>
	<path class="st0" d="M1476.8,23.1c0-0.3,0.1-0.6,0.3-0.8c0.2-0.2,0.5-0.3,0.8-0.3c0.3,0,0.6,0.1,0.8,0.3c0.2,0.2,0.3,0.5,0.3,0.8
		c0,0.3-0.1,0.6-0.3,0.8c-0.2,0.2-0.5,0.3-0.8,0.3c-0.3,0-0.6-0.1-0.8-0.3C1476.9,23.7,1476.8,23.4,1476.8,23.1z"/>
	<path class="st0" d="M1496.3,21.4V5.7c0-0.4,0-0.8-0.1-1.1c0-0.3-0.1-0.5-0.2-0.7c-0.1-0.2-0.3-0.3-0.5-0.5
		c-0.2-0.1-0.5-0.2-0.8-0.3h13.6l0.6,5.6c-0.2-1.1-0.6-1.9-1-2.6c-0.4-0.7-1-1.2-1.5-1.5c-0.6-0.4-1.2-0.6-1.9-0.7
		c-0.7-0.1-1.4-0.2-2.1-0.2h-3.9V13h2.5c1,0,1.9-0.1,2.5-0.2c0.7-0.1,1.2-0.3,1.6-0.5c0.4-0.2,0.7-0.5,0.9-0.9
		c0.2-0.3,0.3-0.7,0.4-1.2l-0.4,6.2c0-0.4-0.1-0.8-0.2-1.2c-0.1-0.4-0.4-0.7-0.7-0.9c-0.4-0.2-0.9-0.4-1.5-0.6
		c-0.6-0.1-1.5-0.2-2.6-0.2h-2.5v7.9c0,0.9,0.1,1.5,0.4,1.9c0.3,0.4,0.7,0.7,1.4,0.8h-5.8c0.6-0.2,1.1-0.5,1.4-0.8
		C1496.2,22.9,1496.3,22.3,1496.3,21.4z"/>
	<path class="st0" d="M1512.2,24.1c0.3-0.1,0.6-0.2,0.8-0.3c0.2-0.1,0.4-0.3,0.5-0.5c0.1-0.2,0.2-0.4,0.2-0.7c0-0.3,0.1-0.7,0.1-1.1
		V10.3c0-0.4,0-0.8,0-1.1c0-0.3-0.1-0.6-0.1-0.8c-0.1-0.2-0.1-0.5-0.3-0.7c-0.1-0.2-0.2-0.4-0.4-0.6l3.1-0.3v14.7
		c0,0.4,0,0.8,0.1,1.1c0,0.3,0.1,0.5,0.3,0.7c0.1,0.2,0.3,0.4,0.5,0.5c0.2,0.1,0.5,0.2,0.8,0.3H1512.2z M1514.8,1.6
		c0.5,0,0.8,0.1,1.2,0.4c0.3,0.3,0.5,0.6,0.5,1.1c0,0.5-0.2,0.8-0.5,1.1s-0.7,0.4-1.2,0.4c-0.4,0-0.8-0.1-1.1-0.4s-0.5-0.7-0.5-1.1
		c0-0.5,0.2-0.8,0.5-1.1C1514,1.7,1514.4,1.6,1514.8,1.6z"/>
	<path class="st0" d="M1520.4,24.1c0.3-0.1,0.6-0.2,0.8-0.3c0.2-0.1,0.4-0.3,0.5-0.5s0.2-0.4,0.2-0.7c0-0.3,0.1-0.7,0.1-1.1V10.3
		c0-0.4,0-0.8,0-1.1c0-0.3-0.1-0.6-0.1-0.8c-0.1-0.2-0.1-0.5-0.3-0.7c-0.1-0.2-0.2-0.4-0.4-0.6l3.1-0.3v4.8c0.5-1.5,1.3-2.6,2.4-3.5
		c1.1-0.9,2.5-1.3,4.2-1.3c1,0,1.8,0.1,2.6,0.4c0.7,0.3,1.4,0.7,1.9,1.2c0.5,0.5,0.9,1.1,1.2,1.8c0.3,0.7,0.4,1.5,0.4,2.3v9
		c0,0.4,0,0.8,0.1,1.1c0.1,0.3,0.1,0.5,0.3,0.7c0.1,0.2,0.3,0.4,0.5,0.5c0.2,0.1,0.5,0.2,0.8,0.3h-5.4c0.3-0.1,0.6-0.2,0.8-0.3
		c0.2-0.1,0.4-0.3,0.5-0.5c0.1-0.2,0.2-0.4,0.2-0.7c0-0.3,0.1-0.7,0.1-1.1v-9.3c0-1.5-0.4-2.7-1.1-3.6c-0.7-0.9-1.8-1.3-3.2-1.3
		c-0.8,0-1.5,0.1-2.3,0.4c-0.7,0.3-1.4,0.7-1.9,1.3c-0.6,0.6-1,1.3-1.4,2.1c-0.4,0.8-0.6,1.8-0.6,2.9v7.5c0,0.4,0,0.8,0.1,1.1
		c0,0.3,0.1,0.5,0.3,0.7c0.1,0.2,0.3,0.4,0.5,0.5c0.2,0.1,0.5,0.2,0.8,0.3H1520.4z"/>
	<path class="st0" d="M1549.6,6.8c1,0,1.8,0.1,2.7,0.4c0.8,0.3,1.6,0.7,2.2,1.3V3.7c0-0.6-0.1-1.1-0.2-1.4c-0.1-0.3-0.3-0.5-0.6-0.8
		l3-0.4v20c0,0.9,0.1,1.5,0.2,1.9c0.1,0.4,0.4,0.8,0.6,1l-3,0.1v-2.3c-0.6,0.8-1.4,1.5-2.3,1.8c-0.9,0.4-1.8,0.6-2.7,0.6
		c-1.3,0-2.4-0.2-3.5-0.6c-1-0.4-1.9-1-2.7-1.7c-0.7-0.7-1.3-1.6-1.7-2.6c-0.4-1-0.6-2.1-0.6-3.3c0-1.4,0.2-2.6,0.6-3.7
		c0.4-1.1,1-2.1,1.7-2.9c0.7-0.8,1.6-1.4,2.7-1.9C1547.3,7.1,1548.4,6.8,1549.6,6.8z M1543.6,14.8c0,1.2,0.1,2.4,0.4,3.5
		c0.3,1.1,0.7,2,1.3,2.9c0.6,0.8,1.3,1.5,2.1,1.9c0.8,0.5,1.8,0.7,2.8,0.7c0.9,0,1.7-0.2,2.4-0.7c0.7-0.4,1.4-1,1.9-1.8V11
		c-0.5-1.3-1.2-2.2-2.1-2.8c-0.9-0.6-1.9-0.9-3-0.9c-0.9,0-1.7,0.2-2.4,0.5c-0.7,0.4-1.3,0.9-1.8,1.5c-0.5,0.6-0.9,1.4-1.2,2.3
		S1543.6,13.6,1543.6,14.8z"/>
	<path class="st0" d="M1570.7,24.1c0.3-0.1,0.6-0.2,0.8-0.3c0.2-0.1,0.4-0.3,0.5-0.5c0.1-0.2,0.2-0.4,0.2-0.7c0-0.3,0.1-0.7,0.1-1.1
		V3.7c0-0.6-0.1-1.1-0.2-1.4c-0.1-0.3-0.3-0.5-0.6-0.8l3-0.4v10.5c0.5-1.5,1.3-2.6,2.4-3.5c1.1-0.9,2.5-1.3,4.2-1.3
		c1,0,1.8,0.1,2.6,0.4c0.7,0.3,1.4,0.7,1.9,1.2c0.5,0.5,0.9,1.1,1.2,1.8c0.3,0.7,0.4,1.5,0.4,2.3v9c0,0.4,0,0.8,0.1,1.1
		c0.1,0.3,0.1,0.5,0.3,0.7c0.1,0.2,0.3,0.4,0.5,0.5c0.2,0.1,0.5,0.2,0.8,0.3h-5.4c0.3-0.1,0.6-0.2,0.8-0.3c0.2-0.1,0.4-0.3,0.5-0.5
		c0.1-0.2,0.2-0.4,0.2-0.7c0-0.3,0.1-0.7,0.1-1.1v-9.3c0-1.5-0.4-2.7-1.1-3.6c-0.7-0.9-1.8-1.3-3.2-1.3c-0.8,0-1.5,0.1-2.3,0.4
		c-0.7,0.3-1.4,0.7-1.9,1.3c-0.6,0.6-1,1.3-1.4,2.1c-0.4,0.8-0.6,1.8-0.6,2.9v7.5c0,0.4,0,0.8,0.1,1.1c0.1,0.3,0.1,0.5,0.3,0.7
		c0.1,0.2,0.3,0.4,0.5,0.5c0.2,0.1,0.5,0.2,0.8,0.3H1570.7z"/>
	<path class="st0" d="M1591.5,24.1c0.3-0.1,0.6-0.2,0.8-0.3c0.2-0.1,0.4-0.3,0.5-0.5s0.2-0.4,0.2-0.7c0-0.3,0.1-0.7,0.1-1.1V10.3
		c0-0.4,0-0.8,0-1.1c0-0.3-0.1-0.6-0.1-0.8c-0.1-0.2-0.1-0.5-0.3-0.7c-0.1-0.2-0.2-0.4-0.4-0.6l3.1-0.3v14.7c0,0.4,0,0.8,0.1,1.1
		c0,0.3,0.1,0.5,0.3,0.7c0.1,0.2,0.3,0.4,0.5,0.5c0.2,0.1,0.5,0.2,0.8,0.3H1591.5z M1594.2,1.6c0.5,0,0.8,0.1,1.2,0.4
		c0.3,0.3,0.5,0.6,0.5,1.1c0,0.5-0.2,0.8-0.5,1.1s-0.7,0.4-1.2,0.4c-0.4,0-0.8-0.1-1.1-0.4s-0.5-0.7-0.5-1.1c0-0.5,0.2-0.8,0.5-1.1
		C1593.3,1.7,1593.7,1.6,1594.2,1.6z"/>
	<path class="st0" d="M1608.1,6.8c1,0,1.8,0.1,2.7,0.4c0.8,0.3,1.6,0.7,2.2,1.3V3.7c0-0.6-0.1-1.1-0.2-1.4c-0.1-0.3-0.3-0.5-0.6-0.8
		l3-0.4v20c0,0.9,0.1,1.5,0.2,1.9c0.1,0.4,0.4,0.8,0.6,1l-3,0.1v-2.3c-0.6,0.8-1.4,1.5-2.3,1.8c-0.9,0.4-1.8,0.6-2.7,0.6
		c-1.3,0-2.4-0.2-3.5-0.6c-1-0.4-1.9-1-2.7-1.7c-0.7-0.7-1.3-1.6-1.7-2.6c-0.4-1-0.6-2.1-0.6-3.3c0-1.4,0.2-2.6,0.6-3.7
		c0.4-1.1,1-2.1,1.7-2.9c0.7-0.8,1.6-1.4,2.7-1.9C1605.8,7.1,1606.9,6.8,1608.1,6.8z M1602.1,14.8c0,1.2,0.1,2.4,0.4,3.5
		c0.3,1.1,0.7,2,1.3,2.9c0.6,0.8,1.3,1.5,2.1,1.9c0.8,0.5,1.8,0.7,2.8,0.7c0.9,0,1.7-0.2,2.4-0.7c0.7-0.4,1.4-1,1.9-1.8V11
		c-0.5-1.3-1.2-2.2-2.1-2.8c-0.9-0.6-1.9-0.9-3-0.9c-0.9,0-1.7,0.2-2.4,0.5c-0.7,0.4-1.3,0.9-1.8,1.5c-0.5,0.6-0.9,1.4-1.2,2.3
		S1602.1,13.6,1602.1,14.8z"/>
	<path class="st0" d="M1627.6,6.8c1,0,1.8,0.1,2.7,0.4c0.8,0.3,1.6,0.7,2.2,1.3V3.7c0-0.6-0.1-1.1-0.2-1.4c-0.1-0.3-0.3-0.5-0.6-0.8
		l3-0.4v20c0,0.9,0.1,1.5,0.2,1.9c0.1,0.4,0.4,0.8,0.6,1l-3,0.1v-2.3c-0.6,0.8-1.4,1.5-2.3,1.8c-0.9,0.4-1.8,0.6-2.7,0.6
		c-1.3,0-2.4-0.2-3.5-0.6c-1-0.4-1.9-1-2.7-1.7c-0.7-0.7-1.3-1.6-1.7-2.6c-0.4-1-0.6-2.1-0.6-3.3c0-1.4,0.2-2.6,0.6-3.7
		c0.4-1.1,1-2.1,1.7-2.9c0.7-0.8,1.6-1.4,2.7-1.9C1625.2,7.1,1626.3,6.8,1627.6,6.8z M1621.5,14.8c0,1.2,0.1,2.4,0.4,3.5
		c0.3,1.1,0.7,2,1.3,2.9c0.6,0.8,1.3,1.5,2.1,1.9c0.8,0.5,1.8,0.7,2.8,0.7c0.9,0,1.7-0.2,2.4-0.7c0.7-0.4,1.4-1,1.9-1.8V11
		c-0.5-1.3-1.2-2.2-2.1-2.8c-0.9-0.6-1.9-0.9-3-0.9c-0.9,0-1.7,0.2-2.4,0.5c-0.7,0.4-1.3,0.9-1.8,1.5c-0.5,0.6-0.9,1.4-1.2,2.3
		S1621.5,13.6,1621.5,14.8z"/>
	<path class="st0" d="M1646.9,6.8c1.2,0,2.3,0.2,3.2,0.5c0.9,0.3,1.6,0.8,2.2,1.5c0.6,0.6,1,1.4,1.3,2.2c0.3,0.8,0.4,1.8,0.5,2.8
		h-12.8c0,0.3-0.1,0.6-0.1,0.9c0,0.3,0,0.6,0,1c0,1.2,0.2,2.2,0.5,3.2c0.3,1,0.7,1.9,1.3,2.6c0.6,0.7,1.2,1.3,2,1.7
		c0.8,0.4,1.6,0.6,2.5,0.6c0.8,0,1.5-0.1,2.2-0.4c0.7-0.3,1.3-0.7,1.8-1.3c0.5-0.5,1-1.2,1.5-2c0.4-0.8,0.8-1.6,1.1-2.5l-0.3,4.4
		c-0.9,0.7-1.9,1.3-3,1.7c-1.1,0.4-2.2,0.5-3.3,0.5c-1.3,0-2.4-0.2-3.5-0.6c-1.1-0.4-2-1-2.8-1.7c-0.8-0.7-1.4-1.7-1.8-2.7
		c-0.4-1.1-0.6-2.3-0.6-3.5c0-1.3,0.2-2.4,0.6-3.5c0.4-1.1,0.9-2,1.6-2.8c0.7-0.8,1.6-1.4,2.6-1.8S1645.7,6.8,1646.9,6.8z
		 M1641.4,13.5h10.3c0-0.9-0.1-1.7-0.4-2.5c-0.2-0.7-0.5-1.4-0.9-2c-0.4-0.6-0.9-1-1.5-1.3c-0.6-0.3-1.3-0.5-2-0.5
		c-0.7,0-1.4,0.2-2,0.5c-0.6,0.3-1.1,0.7-1.6,1.3c-0.5,0.6-0.9,1.2-1.2,2C1641.8,11.7,1641.6,12.5,1641.4,13.5z"/>
	<path class="st0" d="M1657.4,24.1c0.3-0.1,0.6-0.2,0.8-0.3c0.2-0.1,0.4-0.3,0.5-0.5c0.1-0.2,0.2-0.4,0.2-0.7c0-0.3,0.1-0.7,0.1-1.1
		V10.3c0-0.4,0-0.8,0-1.1c0-0.3-0.1-0.6-0.1-0.8c-0.1-0.2-0.1-0.5-0.3-0.7c-0.1-0.2-0.2-0.4-0.4-0.6l3.1-0.3v4.8
		c0.5-1.5,1.3-2.6,2.4-3.5c1.1-0.9,2.5-1.3,4.2-1.3c1,0,1.8,0.1,2.6,0.4c0.7,0.3,1.4,0.7,1.9,1.2c0.5,0.5,0.9,1.1,1.2,1.8
		s0.4,1.5,0.4,2.3v9c0,0.4,0,0.8,0.1,1.1c0.1,0.3,0.1,0.5,0.3,0.7c0.1,0.2,0.3,0.4,0.5,0.5c0.2,0.1,0.5,0.2,0.8,0.3h-5.4
		c0.3-0.1,0.6-0.2,0.8-0.3c0.2-0.1,0.4-0.3,0.5-0.5c0.1-0.2,0.2-0.4,0.2-0.7c0-0.3,0.1-0.7,0.1-1.1v-9.3c0-1.5-0.4-2.7-1.1-3.6
		c-0.7-0.9-1.8-1.3-3.2-1.3c-0.8,0-1.5,0.1-2.3,0.4c-0.7,0.3-1.4,0.7-1.9,1.3c-0.6,0.6-1,1.3-1.4,2.1c-0.4,0.8-0.6,1.8-0.6,2.9v7.5
		c0,0.4,0,0.8,0.1,1.1c0,0.3,0.1,0.5,0.3,0.7c0.1,0.2,0.3,0.4,0.5,0.5c0.2,0.1,0.5,0.2,0.8,0.3H1657.4z"/>
	<path class="st0" d="M1691.5,7c-0.2,0.1-0.3,0.4-0.4,0.6c-0.1,0.3,0,0.8,0.3,1.5l5,12.4l4.9-12.3c0.2-0.4,0.2-0.7,0.2-1
		c0-0.3-0.1-0.5-0.2-0.6c-0.1-0.2-0.2-0.3-0.3-0.4c-0.1-0.1-0.2-0.2-0.3-0.2h2.8c-0.2,0.1-0.4,0.3-0.8,0.6c-0.3,0.3-0.6,0.8-0.9,1.5
		l-6.4,16c-0.1,0.3-0.3,0.7-0.6,1.2s-0.5,0.9-0.9,1.3s-0.8,0.8-1.3,1.1c-0.5,0.3-1.1,0.5-1.8,0.6l-1.1-3c0.8,0.4,1.5,0.6,2.2,0.6
		c0.7,0,1.4-0.2,1.9-0.7c0.6-0.4,1.1-1.1,1.4-2.1l-6.4-15.4c-0.3-0.6-0.5-1.1-0.7-1.3c-0.2-0.3-0.4-0.4-0.6-0.5H1691.5z"/>
	<path class="st0" d="M1714.7,6.8c1.3,0,2.5,0.2,3.5,0.6c1.1,0.4,2,1,2.7,1.8c0.8,0.8,1.4,1.7,1.8,2.8c0.4,1.1,0.6,2.2,0.6,3.5v0
		c0,1.3-0.2,2.4-0.6,3.5c-0.4,1.1-1,2-1.8,2.8c-0.8,0.8-1.7,1.4-2.7,1.8c-1.1,0.4-2.2,0.6-3.5,0.6c-1.3,0-2.5-0.2-3.5-0.6
		c-1.1-0.4-2-1-2.7-1.8c-0.8-0.8-1.4-1.7-1.8-2.8c-0.4-1.1-0.6-2.2-0.6-3.5v0c0-1.3,0.2-2.4,0.6-3.5c0.4-1.1,1-2,1.8-2.8
		c0.8-0.8,1.7-1.4,2.7-1.8S1713.5,6.8,1714.7,6.8z M1708.5,15.6c0,1.2,0.2,2.3,0.5,3.3c0.3,1,0.7,1.9,1.3,2.6c0.5,0.7,1.2,1.3,2,1.7
		c0.8,0.4,1.6,0.6,2.5,0.6s1.8-0.2,2.5-0.6c0.8-0.4,1.4-1,2-1.7c0.5-0.7,1-1.6,1.3-2.6c0.3-1,0.5-2.1,0.5-3.3c0-1.2-0.2-2.3-0.5-3.3
		c-0.3-1-0.7-1.9-1.3-2.6c-0.5-0.7-1.2-1.3-2-1.7c-0.8-0.4-1.6-0.6-2.5-0.6s-1.8,0.2-2.5,0.6c-0.8,0.4-1.4,1-2,1.7
		c-0.5,0.7-1,1.6-1.3,2.6C1708.6,13.2,1708.5,14.3,1708.5,15.6z"/>
	<path class="st0" d="M1726.6,7.1l3.1-0.3v12.3c0,0.9,0.1,1.6,0.3,2.2c0.2,0.6,0.4,1.1,0.8,1.5c0.3,0.4,0.7,0.6,1.2,0.8
		c0.5,0.2,1,0.2,1.6,0.2c0.9,0,1.7-0.2,2.4-0.6c0.7-0.4,1.2-0.9,1.7-1.6c0.4-0.6,0.8-1.4,1-2.2c0.2-0.8,0.4-1.6,0.4-2.3v-6.9
		c0-0.4,0-0.8,0-1.1c0-0.3-0.1-0.6-0.1-0.8c-0.1-0.2-0.1-0.5-0.3-0.7c-0.1-0.2-0.2-0.4-0.4-0.6l3.1-0.3v14.3c0,0.9,0.1,1.5,0.2,2
		c0.1,0.4,0.4,0.8,0.6,1l-3,0.1v-4.6c-0.3,0.7-0.6,1.4-1,1.9c-0.4,0.6-0.8,1.1-1.2,1.5c-0.5,0.4-1,0.7-1.6,0.9
		c-0.6,0.2-1.3,0.3-2.1,0.3c-1.7,0-3.1-0.4-4.1-1.3c-1-0.9-1.5-2.2-1.5-4v-8.7c0-0.4,0-0.8,0-1.1c0-0.3-0.1-0.6-0.1-0.8
		c-0.1-0.2-0.1-0.5-0.3-0.7C1726.9,7.5,1726.8,7.3,1726.6,7.1z"/>
	<path class="st0" d="M1745.2,24.1c0.3-0.1,0.6-0.2,0.8-0.3c0.2-0.1,0.4-0.3,0.5-0.5c0.1-0.2,0.2-0.4,0.2-0.7c0-0.3,0.1-0.7,0.1-1.1
		V10.3c0-0.4,0-0.8,0-1.1c0-0.3-0.1-0.6-0.1-0.8c-0.1-0.2-0.1-0.5-0.3-0.7c-0.1-0.2-0.2-0.4-0.4-0.6l3.1-0.3v4.1
		c0.2-0.6,0.5-1.1,0.8-1.6c0.3-0.5,0.7-0.9,1.1-1.3c0.4-0.4,0.9-0.6,1.4-0.8c0.5-0.2,1.1-0.3,1.8-0.3c0.6,0,1.2,0.1,1.7,0.2l0,2.9
		c-0.2-0.2-0.4-0.5-0.7-0.7c-0.3-0.2-0.5-0.5-0.8-0.7c-0.3-0.2-0.6-0.4-0.9-0.5c-0.3-0.1-0.6-0.2-0.9-0.2c-0.4,0-0.8,0.1-1.1,0.3
		c-0.3,0.2-0.7,0.5-1,0.8c-0.3,0.3-0.6,0.7-0.8,1.2c-0.2,0.5-0.5,0.9-0.6,1.4v9.8c0,0.4,0,0.8,0.1,1.1c0,0.3,0.1,0.5,0.3,0.7
		c0.1,0.2,0.3,0.4,0.5,0.5c0.2,0.1,0.5,0.2,0.8,0.3H1745.2z"/>
	<path class="st0" d="M1777.2,6.8c1.3,0,2.5,0.2,3.5,0.6s2,1,2.7,1.8c0.8,0.8,1.4,1.7,1.8,2.8c0.4,1.1,0.6,2.2,0.6,3.5v0
		c0,1.3-0.2,2.4-0.6,3.5c-0.4,1.1-1,2-1.8,2.8c-0.8,0.8-1.7,1.4-2.7,1.8c-1.1,0.4-2.2,0.6-3.5,0.6c-1.3,0-2.5-0.2-3.5-0.6
		c-1.1-0.4-2-1-2.7-1.8c-0.8-0.8-1.4-1.7-1.8-2.8c-0.4-1.1-0.6-2.2-0.6-3.5v0c0-1.3,0.2-2.4,0.6-3.5c0.4-1.1,1-2,1.8-2.8
		c0.8-0.8,1.7-1.4,2.7-1.8S1775.9,6.8,1777.2,6.8z M1770.9,15.6c0,1.2,0.2,2.3,0.5,3.3c0.3,1,0.7,1.9,1.3,2.6c0.5,0.7,1.2,1.3,2,1.7
		c0.8,0.4,1.6,0.6,2.5,0.6s1.8-0.2,2.5-0.6c0.8-0.4,1.4-1,2-1.7c0.5-0.7,1-1.6,1.3-2.6c0.3-1,0.5-2.1,0.5-3.3c0-1.2-0.2-2.3-0.5-3.3
		c-0.3-1-0.7-1.9-1.3-2.6c-0.5-0.7-1.2-1.3-2-1.7c-0.8-0.4-1.6-0.6-2.5-0.6s-1.8,0.2-2.5,0.6c-0.8,0.4-1.4,1-2,1.7
		c-0.5,0.7-1,1.6-1.3,2.6C1771.1,13.2,1770.9,14.3,1770.9,15.6z"/>
	<path class="st0" d="M1792.2,7c-0.2,0.1-0.3,0.3-0.4,0.6c-0.1,0.3-0.1,0.7,0.2,1.3l4.2,11.8l4.3-13.7h0.2l5.5,13.9l3.3-10.2
		c0.3-0.8,0.4-1.5,0.5-1.9c0-0.5,0-0.8-0.1-1.1c-0.1-0.3-0.2-0.4-0.3-0.5s-0.3-0.2-0.4-0.2h3c-0.3,0.2-0.6,0.4-0.9,0.7
		c-0.3,0.3-0.6,0.9-0.9,1.8l-4.7,14.6h-0.4l-5.4-13.7l-4.3,13.7h-0.4L1790,9.7c-0.3-0.9-0.6-1.6-0.9-1.9c-0.2-0.4-0.5-0.6-0.7-0.7
		H1792.2z"/>
	<path class="st0" d="M1814.6,24.1c0.3-0.1,0.6-0.2,0.8-0.3c0.2-0.1,0.4-0.3,0.5-0.5c0.1-0.2,0.2-0.4,0.2-0.7c0-0.3,0.1-0.7,0.1-1.1
		V10.3c0-0.4,0-0.8,0-1.1c0-0.3-0.1-0.6-0.1-0.8c-0.1-0.2-0.1-0.5-0.3-0.7c-0.1-0.2-0.2-0.4-0.4-0.6l3.1-0.3v4.8
		c0.5-1.5,1.3-2.6,2.4-3.5c1.1-0.9,2.5-1.3,4.2-1.3c1,0,1.8,0.1,2.6,0.4c0.7,0.3,1.4,0.7,1.9,1.2c0.5,0.5,0.9,1.1,1.2,1.8
		c0.3,0.7,0.4,1.5,0.4,2.3v9c0,0.4,0,0.8,0.1,1.1c0.1,0.3,0.1,0.5,0.3,0.7c0.1,0.2,0.3,0.4,0.5,0.5c0.2,0.1,0.5,0.2,0.8,0.3h-5.4
		c0.3-0.1,0.6-0.2,0.8-0.3c0.2-0.1,0.4-0.3,0.5-0.5c0.1-0.2,0.2-0.4,0.2-0.7c0-0.3,0.1-0.7,0.1-1.1v-9.3c0-1.5-0.4-2.7-1.1-3.6
		c-0.7-0.9-1.8-1.3-3.2-1.3c-0.8,0-1.5,0.1-2.3,0.4c-0.7,0.3-1.4,0.7-1.9,1.3c-0.6,0.6-1,1.3-1.4,2.1c-0.4,0.8-0.6,1.8-0.6,2.9v7.5
		c0,0.4,0,0.8,0.1,1.1c0,0.3,0.1,0.5,0.3,0.7c0.1,0.2,0.3,0.4,0.5,0.5c0.2,0.1,0.5,0.2,0.8,0.3H1814.6z"/>
	<path class="st0" d="M1845.6,1.5l3-0.4v7.7c0.4-0.4,0.8-0.8,1.2-1c0.4-0.3,0.9-0.5,1.3-0.6c0.4-0.2,0.9-0.3,1.3-0.3
		c0.4-0.1,0.8-0.1,1.2-0.1c1.3,0,2.5,0.2,3.6,0.6c1.1,0.4,2,1,2.7,1.7c0.7,0.7,1.3,1.6,1.7,2.6s0.6,2.1,0.6,3.4
		c0,1.3-0.2,2.5-0.7,3.6c-0.4,1.1-1,2.1-1.8,2.9c-0.8,0.8-1.7,1.5-2.7,2c-1.1,0.5-2.2,0.7-3.5,0.7c-2.2,0-4-0.7-5.4-2.1l-1.6,2
		l-0.1-0.1V3.7c0-0.6-0.1-1.1-0.2-1.4C1846.2,2,1846,1.8,1845.6,1.5z M1853.8,23.8c1,0,1.8-0.2,2.6-0.6c0.8-0.4,1.4-0.9,1.9-1.6
		c0.5-0.7,0.9-1.5,1.2-2.4c0.3-0.9,0.4-1.9,0.4-3c0-1.2-0.1-2.4-0.4-3.4c-0.3-1.1-0.7-2-1.3-2.8c-0.6-0.8-1.3-1.5-2.1-1.9
		c-0.8-0.5-1.8-0.7-2.9-0.7c-0.7,0-1.5,0.1-2.3,0.4c-0.8,0.3-1.5,0.9-2.1,1.7v10.9c0.6,1.1,1.3,2,2.1,2.6
		C1851.6,23.5,1852.6,23.8,1853.8,23.8z"/>
	<path class="st0" d="M1873.3,6.8c1.2,0,2.3,0.2,3.2,0.5c0.9,0.3,1.6,0.8,2.2,1.5c0.6,0.6,1,1.4,1.3,2.2c0.3,0.8,0.4,1.8,0.5,2.8
		h-12.8c0,0.3-0.1,0.6-0.1,0.9c0,0.3,0,0.6,0,1c0,1.2,0.2,2.2,0.5,3.2c0.3,1,0.7,1.9,1.3,2.6c0.6,0.7,1.2,1.3,2,1.7
		c0.8,0.4,1.6,0.6,2.5,0.6c0.8,0,1.5-0.1,2.2-0.4c0.7-0.3,1.3-0.7,1.8-1.3c0.5-0.5,1-1.2,1.5-2c0.4-0.8,0.8-1.6,1.1-2.5l-0.3,4.4
		c-0.9,0.7-1.9,1.3-3,1.7c-1.1,0.4-2.2,0.5-3.3,0.5c-1.3,0-2.4-0.2-3.5-0.6c-1.1-0.4-2-1-2.8-1.7c-0.8-0.7-1.4-1.7-1.8-2.7
		c-0.4-1.1-0.6-2.3-0.6-3.5c0-1.3,0.2-2.4,0.6-3.5c0.4-1.1,0.9-2,1.6-2.8c0.7-0.8,1.6-1.4,2.6-1.8C1870.9,7.1,1872.1,6.8,1873.3,6.8
		z M1867.8,13.5h10.3c0-0.9-0.1-1.7-0.4-2.5c-0.2-0.7-0.5-1.4-0.9-2c-0.4-0.6-0.9-1-1.5-1.3c-0.6-0.3-1.3-0.5-2-0.5
		c-0.7,0-1.4,0.2-2,0.5c-0.6,0.3-1.1,0.7-1.6,1.3c-0.5,0.6-0.9,1.2-1.2,2C1868.2,11.7,1868,12.5,1867.8,13.5z"/>
	<path class="st0" d="M1891.3,14.7l3.4-0.8v-2.2c0-1.5-0.3-2.6-0.9-3.4c-0.6-0.7-1.5-1.1-2.7-1.1c-0.6,0-1.1,0.1-1.7,0.3
		c-0.6,0.2-1.1,0.5-1.7,1s-1,1.2-1.4,2c-0.4,0.8-0.8,1.9-1.1,3.2l-0.2-5.1c0.7-0.6,1.7-1.1,2.8-1.4c1.1-0.3,2.2-0.5,3.4-0.5
		c1.8,0,3.2,0.4,4.2,1.3c1,0.8,1.6,2.1,1.6,3.7v9.6c0,0.6,0.1,1.1,0.2,1.5c0.1,0.4,0.3,0.8,0.7,1.1l-3,0.1v-4
		c-0.2,0.5-0.5,1-0.8,1.5c-0.3,0.5-0.7,0.9-1.2,1.3c-0.5,0.4-1,0.7-1.6,0.9c-0.6,0.2-1.3,0.3-2.2,0.3c-0.7,0-1.4-0.1-2-0.2
		c-0.6-0.2-1.2-0.4-1.6-0.7c-0.5-0.3-0.8-0.7-1.1-1.2c-0.3-0.5-0.4-1.1-0.4-1.7c0-0.9,0.2-1.7,0.7-2.3c0.5-0.6,1.1-1.2,1.9-1.6
		c0.7-0.4,1.5-0.8,2.4-1C1889.8,15.1,1890.6,14.9,1891.3,14.7z M1886.4,20.3c0,1,0.3,1.9,0.8,2.5c0.6,0.7,1.3,1,2.4,1
		c0.6,0,1.1-0.1,1.7-0.4s1.1-0.6,1.6-1.1c0.5-0.5,0.9-1.1,1.2-1.8c0.3-0.7,0.5-1.5,0.5-2.5v-3.8l-3.3,0.8c-0.4,0.1-0.9,0.3-1.5,0.5
		c-0.6,0.2-1.1,0.5-1.6,0.9c-0.5,0.4-1,0.9-1.3,1.5C1886.6,18.6,1886.4,19.3,1886.4,20.3z"/>
	<path class="st0" d="M1901,7.1l3.1-0.3v12.3c0,0.9,0.1,1.6,0.3,2.2c0.2,0.6,0.4,1.1,0.8,1.5c0.3,0.4,0.7,0.6,1.2,0.8
		c0.5,0.2,1,0.2,1.6,0.2c0.9,0,1.7-0.2,2.4-0.6c0.7-0.4,1.2-0.9,1.7-1.6c0.4-0.6,0.8-1.4,1-2.2c0.2-0.8,0.4-1.6,0.4-2.3v-6.9
		c0-0.4,0-0.8,0-1.1c0-0.3-0.1-0.6-0.1-0.8c-0.1-0.2-0.1-0.5-0.3-0.7c-0.1-0.2-0.2-0.4-0.4-0.6l3.1-0.3v14.3c0,0.9,0.1,1.5,0.2,2
		c0.1,0.4,0.4,0.8,0.6,1l-3,0.1v-4.6c-0.3,0.7-0.6,1.4-1,1.9c-0.4,0.6-0.8,1.1-1.2,1.5c-0.5,0.4-1,0.7-1.6,0.9
		c-0.6,0.2-1.3,0.3-2.1,0.3c-1.7,0-3.1-0.4-4.1-1.3c-1-0.9-1.5-2.2-1.5-4v-8.7c0-0.4,0-0.8,0-1.1c0-0.3-0.1-0.6-0.1-0.8
		c-0.1-0.2-0.1-0.5-0.3-0.7C1901.3,7.5,1901.1,7.3,1901,7.1z"/>
	<path class="st0" d="M1922.5,7l2.1-4.2V7h5v0.3h-5v13c0,0.7,0,1.2,0.1,1.7s0.2,0.8,0.4,1.1c0.2,0.3,0.4,0.4,0.6,0.5
		c0.3,0.1,0.5,0.2,0.9,0.2c0.6,0,1.1-0.2,1.5-0.5c0.4-0.3,0.8-0.8,1.1-1.4l0.4,0.3c-0.4,0.6-0.8,1.2-1.3,1.5
		c-0.5,0.4-1.2,0.6-2.1,0.6c-1.4,0-2.4-0.4-3-1.2c-0.6-0.8-0.9-2-0.9-3.5V7.3h-3V7H1922.5z"/>
	<path class="st0" d="M1935.5,7c-0.2,0.1-0.3,0.4-0.4,0.6c-0.1,0.3,0,0.8,0.3,1.5l5,12.4l4.9-12.3c0.2-0.4,0.2-0.7,0.2-1
		c0-0.3-0.1-0.5-0.2-0.6c-0.1-0.2-0.2-0.3-0.3-0.4c-0.1-0.1-0.2-0.2-0.3-0.2h2.8c-0.2,0.1-0.4,0.3-0.8,0.6c-0.3,0.3-0.6,0.8-0.9,1.5
		l-6.4,16c-0.1,0.3-0.3,0.7-0.6,1.2s-0.5,0.9-0.9,1.3s-0.8,0.8-1.3,1.1c-0.5,0.3-1.1,0.5-1.8,0.6l-1.1-3c0.8,0.4,1.5,0.6,2.2,0.6
		c0.7,0,1.4-0.2,1.9-0.7c0.6-0.4,1.1-1.1,1.4-2.1L1933,8.8c-0.3-0.6-0.5-1.1-0.7-1.3c-0.2-0.3-0.4-0.4-0.6-0.5H1935.5z"/>
	<path class="st0" d="M1963.1,7c-0.2,0.1-0.3,0.3-0.4,0.6c-0.1,0.3-0.1,0.7,0.2,1.3l4.2,11.8l4.3-13.7h0.2l5.5,13.9l3.3-10.2
		c0.3-0.8,0.4-1.5,0.5-1.9c0-0.5,0-0.8-0.1-1.1s-0.2-0.4-0.3-0.5c-0.1-0.1-0.3-0.2-0.4-0.2h3c-0.3,0.2-0.6,0.4-0.9,0.7
		c-0.3,0.3-0.6,0.9-0.9,1.8l-4.7,14.6h-0.4l-5.4-13.7l-4.3,13.7h-0.4l-5.2-14.5c-0.3-0.9-0.6-1.6-0.9-1.9c-0.2-0.4-0.5-0.6-0.7-0.7
		H1963.1z"/>
	<path class="st0" d="M1985.5,24.1c0.3-0.1,0.6-0.2,0.8-0.3c0.2-0.1,0.4-0.3,0.5-0.5s0.2-0.4,0.2-0.7c0-0.3,0.1-0.7,0.1-1.1V10.3
		c0-0.4,0-0.8,0-1.1c0-0.3-0.1-0.6-0.1-0.8c-0.1-0.2-0.1-0.5-0.3-0.7c-0.1-0.2-0.2-0.4-0.4-0.6l3.1-0.3v14.7c0,0.4,0,0.8,0.1,1.1
		c0,0.3,0.1,0.5,0.3,0.7c0.1,0.2,0.3,0.4,0.5,0.5c0.2,0.1,0.5,0.2,0.8,0.3H1985.5z M1988.1,1.6c0.5,0,0.8,0.1,1.2,0.4
		c0.3,0.3,0.5,0.6,0.5,1.1c0,0.5-0.2,0.8-0.5,1.1c-0.3,0.3-0.7,0.4-1.2,0.4c-0.4,0-0.8-0.1-1.1-0.4c-0.3-0.3-0.5-0.7-0.5-1.1
		c0-0.5,0.2-0.8,0.5-1.1C1987.3,1.7,1987.7,1.6,1988.1,1.6z"/>
	<path class="st0" d="M1996.6,7l2.1-4.2V7h5v0.3h-5v13c0,0.7,0,1.2,0.1,1.7c0.1,0.4,0.2,0.8,0.4,1.1c0.2,0.3,0.4,0.4,0.6,0.5
		c0.3,0.1,0.5,0.2,0.9,0.2c0.6,0,1.1-0.2,1.5-0.5c0.4-0.3,0.8-0.8,1.1-1.4l0.4,0.3c-0.4,0.6-0.8,1.2-1.3,1.5
		c-0.5,0.4-1.2,0.6-2.1,0.6c-1.4,0-2.4-0.4-3-1.2c-0.6-0.8-0.9-2-0.9-3.5V7.3h-3V7H1996.6z"/>
	<path class="st0" d="M2006.3,24.1c0.3-0.1,0.6-0.2,0.8-0.3c0.2-0.1,0.4-0.3,0.5-0.5c0.1-0.2,0.2-0.4,0.2-0.7c0-0.3,0.1-0.7,0.1-1.1
		V3.7c0-0.6-0.1-1.1-0.2-1.4c-0.1-0.3-0.3-0.5-0.6-0.8l3-0.4v10.5c0.5-1.5,1.3-2.6,2.4-3.5c1.1-0.9,2.5-1.3,4.2-1.3
		c1,0,1.8,0.1,2.6,0.4c0.7,0.3,1.4,0.7,1.9,1.2c0.5,0.5,0.9,1.1,1.2,1.8c0.3,0.7,0.4,1.5,0.4,2.3v9c0,0.4,0,0.8,0.1,1.1
		c0.1,0.3,0.1,0.5,0.3,0.7c0.1,0.2,0.3,0.4,0.5,0.5c0.2,0.1,0.5,0.2,0.8,0.3h-5.4c0.3-0.1,0.6-0.2,0.8-0.3c0.2-0.1,0.4-0.3,0.5-0.5
		c0.1-0.2,0.2-0.4,0.2-0.7c0-0.3,0.1-0.7,0.1-1.1v-9.3c0-1.5-0.4-2.7-1.1-3.6c-0.7-0.9-1.8-1.3-3.2-1.3c-0.8,0-1.5,0.1-2.3,0.4
		c-0.7,0.3-1.4,0.7-1.9,1.3c-0.6,0.6-1,1.3-1.4,2.1c-0.4,0.8-0.6,1.8-0.6,2.9v7.5c0,0.4,0,0.8,0.1,1.1c0.1,0.3,0.1,0.5,0.3,0.7
		c0.1,0.2,0.3,0.4,0.5,0.5c0.2,0.1,0.5,0.2,0.8,0.3H2006.3z"/>
	<path class="st0" d="M2027.2,24.1c0.3-0.1,0.6-0.2,0.8-0.3c0.2-0.1,0.4-0.3,0.5-0.5c0.1-0.2,0.2-0.4,0.2-0.7c0-0.3,0.1-0.7,0.1-1.1
		V10.3c0-0.4,0-0.8,0-1.1c0-0.3-0.1-0.6-0.1-0.8c-0.1-0.2-0.1-0.5-0.3-0.7c-0.1-0.2-0.2-0.4-0.4-0.6l3.1-0.3v14.7
		c0,0.4,0,0.8,0.1,1.1c0,0.3,0.1,0.5,0.3,0.7c0.1,0.2,0.3,0.4,0.5,0.5c0.2,0.1,0.5,0.2,0.8,0.3H2027.2z M2029.8,1.6
		c0.5,0,0.8,0.1,1.2,0.4c0.3,0.3,0.5,0.6,0.5,1.1c0,0.5-0.2,0.8-0.5,1.1s-0.7,0.4-1.2,0.4c-0.4,0-0.8-0.1-1.1-0.4s-0.5-0.7-0.5-1.1
		c0-0.5,0.2-0.8,0.5-1.1C2029,1.7,2029.3,1.6,2029.8,1.6z"/>
	<path class="st0" d="M2035.4,24.1c0.3-0.1,0.6-0.2,0.8-0.3c0.2-0.1,0.4-0.3,0.5-0.5c0.1-0.2,0.2-0.4,0.2-0.7c0-0.3,0.1-0.7,0.1-1.1
		V10.3c0-0.4,0-0.8,0-1.1c0-0.3-0.1-0.6-0.1-0.8c-0.1-0.2-0.1-0.5-0.3-0.7c-0.1-0.2-0.2-0.4-0.4-0.6l3.1-0.3v4.8
		c0.5-1.5,1.3-2.6,2.4-3.5c1.1-0.9,2.5-1.3,4.2-1.3c1,0,1.8,0.1,2.6,0.4c0.7,0.3,1.4,0.7,1.9,1.2c0.5,0.5,0.9,1.1,1.2,1.8
		s0.4,1.5,0.4,2.3v9c0,0.4,0,0.8,0.1,1.1c0.1,0.3,0.1,0.5,0.3,0.7c0.1,0.2,0.3,0.4,0.5,0.5c0.2,0.1,0.5,0.2,0.8,0.3h-5.4
		c0.3-0.1,0.6-0.2,0.8-0.3c0.2-0.1,0.4-0.3,0.5-0.5c0.1-0.2,0.2-0.4,0.2-0.7c0-0.3,0.1-0.7,0.1-1.1v-9.3c0-1.5-0.4-2.7-1.1-3.6
		c-0.7-0.9-1.8-1.3-3.2-1.3c-0.8,0-1.5,0.1-2.3,0.4c-0.7,0.3-1.4,0.7-1.9,1.3c-0.6,0.6-1,1.3-1.4,2.1c-0.4,0.8-0.6,1.8-0.6,2.9v7.5
		c0,0.4,0,0.8,0.1,1.1c0,0.3,0.1,0.5,0.3,0.7c0.1,0.2,0.3,0.4,0.5,0.5c0.2,0.1,0.5,0.2,0.8,0.3H2035.4z"/>
	<path class="st0" d="M2069.5,7c-0.2,0.1-0.3,0.4-0.4,0.6c-0.1,0.3,0,0.8,0.3,1.5l5,12.4l4.9-12.3c0.2-0.4,0.2-0.7,0.2-1
		c0-0.3-0.1-0.5-0.2-0.6c-0.1-0.2-0.2-0.3-0.3-0.4c-0.1-0.1-0.2-0.2-0.3-0.2h2.8c-0.2,0.1-0.4,0.3-0.8,0.6c-0.3,0.3-0.6,0.8-0.9,1.5
		l-6.4,16c-0.1,0.3-0.3,0.7-0.6,1.2s-0.5,0.9-0.9,1.3c-0.4,0.4-0.8,0.8-1.3,1.1c-0.5,0.3-1.1,0.5-1.8,0.6l-1.1-3
		c0.8,0.4,1.5,0.6,2.2,0.6c0.7,0,1.4-0.2,1.9-0.7c0.6-0.4,1.1-1.1,1.4-2.1L2067,8.8c-0.3-0.6-0.5-1.1-0.7-1.3
		c-0.2-0.3-0.4-0.4-0.6-0.5H2069.5z"/>
	<path class="st0" d="M2092.7,6.8c1.3,0,2.5,0.2,3.5,0.6s2,1,2.7,1.8c0.8,0.8,1.4,1.7,1.8,2.8c0.4,1.1,0.6,2.2,0.6,3.5v0
		c0,1.3-0.2,2.4-0.6,3.5c-0.4,1.1-1,2-1.8,2.8c-0.8,0.8-1.7,1.4-2.7,1.8c-1.1,0.4-2.2,0.6-3.5,0.6c-1.3,0-2.5-0.2-3.5-0.6
		c-1.1-0.4-2-1-2.7-1.8s-1.4-1.7-1.8-2.8c-0.4-1.1-0.6-2.2-0.6-3.5v0c0-1.3,0.2-2.4,0.6-3.5c0.4-1.1,1-2,1.8-2.8
		c0.8-0.8,1.7-1.4,2.7-1.8C2090.3,7.1,2091.4,6.8,2092.7,6.8z M2086.5,15.6c0,1.2,0.2,2.3,0.5,3.3c0.3,1,0.7,1.9,1.3,2.6
		c0.5,0.7,1.2,1.3,2,1.7c0.8,0.4,1.6,0.6,2.5,0.6c0.9,0,1.8-0.2,2.5-0.6c0.8-0.4,1.4-1,2-1.7c0.5-0.7,1-1.6,1.3-2.6
		c0.3-1,0.5-2.1,0.5-3.3c0-1.2-0.2-2.3-0.5-3.3c-0.3-1-0.7-1.9-1.3-2.6c-0.5-0.7-1.2-1.3-2-1.7c-0.8-0.4-1.6-0.6-2.5-0.6
		c-0.9,0-1.8,0.2-2.5,0.6c-0.8,0.4-1.4,1-2,1.7c-0.5,0.7-1,1.6-1.3,2.6C2086.6,13.2,2086.5,14.3,2086.5,15.6z"/>
	<path class="st0" d="M2104.6,7.1l3.1-0.3v12.3c0,0.9,0.1,1.6,0.3,2.2c0.2,0.6,0.4,1.1,0.8,1.5c0.3,0.4,0.7,0.6,1.2,0.8
		c0.5,0.2,1,0.2,1.6,0.2c0.9,0,1.7-0.2,2.4-0.6c0.7-0.4,1.2-0.9,1.7-1.6c0.4-0.6,0.8-1.4,1-2.2c0.2-0.8,0.4-1.6,0.4-2.3v-6.9
		c0-0.4,0-0.8,0-1.1c0-0.3-0.1-0.6-0.1-0.8c-0.1-0.2-0.1-0.5-0.3-0.7c-0.1-0.2-0.2-0.4-0.4-0.6l3.1-0.3v14.3c0,0.9,0.1,1.5,0.2,2
		c0.1,0.4,0.4,0.8,0.6,1l-3,0.1v-4.6c-0.3,0.7-0.6,1.4-1,1.9c-0.4,0.6-0.8,1.1-1.2,1.5c-0.5,0.4-1,0.7-1.6,0.9
		c-0.6,0.2-1.3,0.3-2.1,0.3c-1.7,0-3.1-0.4-4.1-1.3c-1-0.9-1.5-2.2-1.5-4v-8.7c0-0.4,0-0.8,0-1.1c0-0.3-0.1-0.6-0.1-0.8
		c-0.1-0.2-0.1-0.5-0.3-0.7C2104.9,7.5,2104.8,7.3,2104.6,7.1z"/>
	<path class="st0" d="M2123.2,24.1c0.3-0.1,0.6-0.2,0.8-0.3c0.2-0.1,0.4-0.3,0.5-0.5c0.1-0.2,0.2-0.4,0.2-0.7c0-0.3,0.1-0.7,0.1-1.1
		V10.3c0-0.4,0-0.8,0-1.1c0-0.3-0.1-0.6-0.1-0.8c-0.1-0.2-0.1-0.5-0.3-0.7c-0.1-0.2-0.2-0.4-0.4-0.6l3.1-0.3v4.1
		c0.2-0.6,0.5-1.1,0.8-1.6c0.3-0.5,0.7-0.9,1.1-1.3c0.4-0.4,0.9-0.6,1.4-0.8c0.5-0.2,1.1-0.3,1.8-0.3c0.6,0,1.2,0.1,1.7,0.2l0,2.9
		c-0.2-0.2-0.4-0.5-0.7-0.7c-0.3-0.2-0.5-0.5-0.8-0.7c-0.3-0.2-0.6-0.4-0.9-0.5c-0.3-0.1-0.6-0.2-0.9-0.2c-0.4,0-0.8,0.1-1.1,0.3
		c-0.3,0.2-0.7,0.5-1,0.8c-0.3,0.3-0.6,0.7-0.8,1.2c-0.2,0.5-0.5,0.9-0.6,1.4v9.8c0,0.4,0,0.8,0.1,1.1c0,0.3,0.1,0.5,0.3,0.7
		c0.1,0.2,0.3,0.4,0.5,0.5c0.2,0.1,0.5,0.2,0.8,0.3H2123.2z"/>
	<path class="st0" d="M2136.6,22.5l0.5-5.7c0.1,1.4,0.3,2.5,0.7,3.4c0.3,0.9,0.7,1.6,1.2,2.2c0.5,0.5,1.1,0.9,1.7,1.1
		c0.6,0.2,1.3,0.3,2,0.3c1.5,0,2.6-0.4,3.4-1.1c0.7-0.7,1.1-1.6,1.1-2.7c0-0.6-0.1-1.1-0.3-1.5c-0.2-0.4-0.5-0.8-0.8-1
		c-0.3-0.3-0.7-0.5-1-0.6c-0.4-0.2-0.7-0.3-1-0.4l-3.2-1.1c-0.3-0.1-0.7-0.3-1.1-0.5c-0.4-0.2-0.8-0.5-1.2-0.8
		c-0.4-0.3-0.7-0.8-0.9-1.3c-0.3-0.5-0.4-1.1-0.4-1.7c0-1.3,0.5-2.4,1.5-3.2c1-0.8,2.3-1.2,3.9-1.2c1.1,0,2.1,0.2,3,0.5
		c0.9,0.3,1.7,0.8,2.4,1.4l-0.2,4.1c-0.5-2-1.2-3.4-2-4.3c-0.8-0.9-1.9-1.3-3.3-1.3c-1.1,0-2,0.3-2.7,0.8c-0.7,0.5-1.1,1.3-1.1,2.4
		c0,0.5,0.1,0.9,0.3,1.2c0.2,0.3,0.4,0.6,0.7,0.8c0.3,0.2,0.6,0.4,1,0.5c0.3,0.1,0.7,0.2,1,0.3l2.9,1c0.4,0.1,0.8,0.3,1.3,0.5
		c0.5,0.2,1,0.5,1.4,0.9c0.4,0.4,0.8,0.8,1.1,1.4c0.3,0.6,0.5,1.2,0.5,2c0,0.7-0.1,1.4-0.4,2.1c-0.3,0.6-0.7,1.2-1.2,1.6
		c-0.5,0.5-1.2,0.8-2,1.1c-0.8,0.3-1.7,0.4-2.8,0.4c-1.2,0-2.3-0.2-3.3-0.5C2138.2,23.5,2137.3,23.1,2136.6,22.5z"/>
	<path class="st0" d="M2160.3,6.8c1.2,0,2.3,0.2,3.2,0.5c0.9,0.3,1.6,0.8,2.2,1.5c0.6,0.6,1,1.4,1.3,2.2c0.3,0.8,0.4,1.8,0.5,2.8
		h-12.8c0,0.3-0.1,0.6-0.1,0.9c0,0.3,0,0.6,0,1c0,1.2,0.2,2.2,0.5,3.2c0.3,1,0.7,1.9,1.3,2.6c0.6,0.7,1.2,1.3,2,1.7
		c0.8,0.4,1.6,0.6,2.5,0.6c0.8,0,1.5-0.1,2.2-0.4c0.7-0.3,1.3-0.7,1.8-1.3c0.5-0.5,1-1.2,1.5-2c0.4-0.8,0.8-1.6,1.1-2.5l-0.3,4.4
		c-0.9,0.7-1.9,1.3-3,1.7c-1.1,0.4-2.2,0.5-3.3,0.5c-1.3,0-2.4-0.2-3.5-0.6c-1.1-0.4-2-1-2.8-1.7c-0.8-0.7-1.4-1.7-1.8-2.7
		c-0.4-1.1-0.6-2.3-0.6-3.5c0-1.3,0.2-2.4,0.6-3.5c0.4-1.1,0.9-2,1.6-2.8c0.7-0.8,1.6-1.4,2.6-1.8C2157.9,7.1,2159.1,6.8,2160.3,6.8
		z M2154.8,13.5h10.3c0-0.9-0.1-1.7-0.4-2.5c-0.2-0.7-0.5-1.4-0.9-2c-0.4-0.6-0.9-1-1.5-1.3c-0.6-0.3-1.3-0.5-2-0.5
		c-0.7,0-1.4,0.2-2,0.5c-0.6,0.3-1.1,0.7-1.6,1.3c-0.5,0.6-0.9,1.2-1.2,2C2155.2,11.7,2155,12.5,2154.8,13.5z"/>
	<path class="st0" d="M2170.8,24.1c0.3-0.1,0.6-0.2,0.8-0.3c0.2-0.1,0.4-0.3,0.5-0.5c0.1-0.2,0.2-0.4,0.2-0.7c0-0.3,0.1-0.7,0.1-1.1
		V3.7c0-0.6-0.1-1.1-0.2-1.4c-0.1-0.3-0.3-0.5-0.6-0.8l3-0.4v20.3c0,0.4,0,0.8,0.1,1.1c0.1,0.3,0.1,0.5,0.3,0.7
		c0.1,0.2,0.3,0.4,0.5,0.5c0.2,0.1,0.5,0.2,0.8,0.3H2170.8z"/>
	<path class="st0" d="M2178.5,7.3V7h3.1V5.5c0-1,0.1-1.8,0.4-2.4c0.3-0.7,0.7-1.2,1.2-1.7s1.1-0.8,1.8-1c0.7-0.2,1.4-0.3,2.2-0.3
		c0.8,0,1.6,0.1,2.2,0.3c0.6,0.2,1.1,0.4,1.6,0.7l-0.1,3.7c-0.3-1.4-0.7-2.5-1.2-3.2c-0.5-0.7-1.4-1.1-2.4-1.1c-1,0-1.8,0.3-2.4,1
		c-0.6,0.6-0.9,1.8-0.9,3.4V7h6.2v0.3h-6.2v14.2c0,0.4,0,0.8,0.1,1.1c0.1,0.3,0.1,0.5,0.3,0.7c0.1,0.2,0.3,0.4,0.5,0.5
		c0.2,0.1,0.5,0.2,0.8,0.3h-5.4c0.3-0.1,0.6-0.2,0.8-0.3c0.2-0.1,0.4-0.3,0.5-0.5c0.1-0.2,0.2-0.4,0.2-0.7c0-0.3,0.1-0.7,0.1-1.1
		V7.3H2178.5z"/>
	<path class="st0" d="M2194.6,23.1c0-0.3,0.1-0.6,0.3-0.8c0.2-0.2,0.5-0.3,0.8-0.3c0.3,0,0.6,0.1,0.8,0.3c0.2,0.2,0.3,0.5,0.3,0.8
		c0,0.3-0.1,0.6-0.3,0.8c-0.2,0.2-0.5,0.3-0.8,0.3c-0.3,0-0.6-0.1-0.8-0.3C2194.7,23.7,2194.6,23.4,2194.6,23.1z"/>
	<path class="st0" d="M2214,21.5V5.7c0-0.4,0-0.8-0.1-1.1c-0.1-0.3-0.1-0.5-0.3-0.7c-0.1-0.2-0.3-0.4-0.5-0.5
		c-0.2-0.1-0.5-0.2-0.8-0.3h2.9l9.1,18.4l7.9-18.4h3.6c-0.6,0.2-1.1,0.5-1.3,0.8s-0.3,1-0.3,1.8v15.7c0,0.9,0.1,1.5,0.3,1.8
		c0.2,0.4,0.7,0.6,1.3,0.8h-5.6c0.6-0.2,1.1-0.5,1.3-0.8c0.2-0.4,0.3-1,0.3-1.9V5.1l-8.3,19h-0.4l-8.9-17.8v15.2
		c0,0.9,0.1,1.5,0.3,1.8c0.2,0.4,0.7,0.6,1.3,0.8h-3.8c0.6-0.2,1.1-0.5,1.3-0.8C2213.9,23,2214,22.3,2214,21.5z"/>
	<path class="st0" d="M2247.6,6.8c1.2,0,2.3,0.2,3.2,0.5c0.9,0.3,1.6,0.8,2.2,1.5c0.6,0.6,1,1.4,1.3,2.2c0.3,0.8,0.4,1.8,0.5,2.8
		H2242c0,0.3-0.1,0.6-0.1,0.9c0,0.3,0,0.6,0,1c0,1.2,0.2,2.2,0.5,3.2c0.3,1,0.7,1.9,1.3,2.6c0.6,0.7,1.2,1.3,2,1.7
		c0.8,0.4,1.6,0.6,2.5,0.6c0.8,0,1.5-0.1,2.2-0.4c0.7-0.3,1.3-0.7,1.8-1.3c0.5-0.5,1-1.2,1.5-2c0.4-0.8,0.8-1.6,1.1-2.5l-0.3,4.4
		c-0.9,0.7-1.9,1.3-3,1.7c-1.1,0.4-2.2,0.5-3.3,0.5c-1.3,0-2.4-0.2-3.5-0.6c-1.1-0.4-2-1-2.8-1.7c-0.8-0.7-1.4-1.7-1.8-2.7
		c-0.4-1.1-0.6-2.3-0.6-3.5c0-1.3,0.2-2.4,0.6-3.5c0.4-1.1,0.9-2,1.6-2.8c0.7-0.8,1.6-1.4,2.6-1.8C2245.1,7.1,2246.3,6.8,2247.6,6.8
		z M2242,13.5h10.3c0-0.9-0.1-1.7-0.4-2.5c-0.2-0.7-0.5-1.4-0.9-2c-0.4-0.6-0.9-1-1.5-1.3c-0.6-0.3-1.3-0.5-2-0.5
		c-0.7,0-1.4,0.2-2,0.5c-0.6,0.3-1.1,0.7-1.6,1.3c-0.5,0.6-0.9,1.2-1.2,2C2242.4,11.7,2242.2,12.5,2242,13.5z"/>
	<path class="st0" d="M2266.3,6.8c1.2,0,2.3,0.2,3.2,0.5c0.9,0.3,1.6,0.8,2.2,1.5c0.6,0.6,1,1.4,1.3,2.2c0.3,0.8,0.4,1.8,0.5,2.8
		h-12.8c0,0.3-0.1,0.6-0.1,0.9c0,0.3,0,0.6,0,1c0,1.2,0.2,2.2,0.5,3.2c0.3,1,0.7,1.9,1.3,2.6c0.6,0.7,1.2,1.3,2,1.7
		c0.8,0.4,1.6,0.6,2.5,0.6c0.8,0,1.5-0.1,2.2-0.4c0.7-0.3,1.3-0.7,1.8-1.3c0.5-0.5,1-1.2,1.5-2c0.4-0.8,0.8-1.6,1.1-2.5l-0.3,4.4
		c-0.9,0.7-1.9,1.3-3,1.7c-1.1,0.4-2.2,0.5-3.3,0.5c-1.3,0-2.4-0.2-3.5-0.6c-1.1-0.4-2-1-2.8-1.7c-0.8-0.7-1.4-1.7-1.8-2.7
		c-0.4-1.1-0.6-2.3-0.6-3.5c0-1.3,0.2-2.4,0.6-3.5c0.4-1.1,0.9-2,1.6-2.8c0.7-0.8,1.6-1.4,2.6-1.8C2263.9,7.1,2265,6.8,2266.3,6.8z
		 M2260.8,13.5h10.3c0-0.9-0.1-1.7-0.4-2.5c-0.2-0.7-0.5-1.4-0.9-2c-0.4-0.6-0.9-1-1.5-1.3c-0.6-0.3-1.3-0.5-2-0.5
		c-0.7,0-1.4,0.2-2,0.5c-0.6,0.3-1.1,0.7-1.6,1.3c-0.5,0.6-0.9,1.2-1.2,2C2261.1,11.7,2260.9,12.5,2260.8,13.5z"/>
	<path class="st0" d="M2279.7,7l2.1-4.2V7h5v0.3h-5v13c0,0.7,0,1.2,0.1,1.7c0.1,0.4,0.2,0.8,0.4,1.1c0.2,0.3,0.4,0.4,0.6,0.5
		c0.3,0.1,0.5,0.2,0.9,0.2c0.6,0,1.1-0.2,1.5-0.5c0.4-0.3,0.8-0.8,1.1-1.4l0.4,0.3c-0.4,0.6-0.8,1.2-1.3,1.5
		c-0.5,0.4-1.2,0.6-2.1,0.6c-1.4,0-2.4-0.4-3-1.2c-0.6-0.8-0.9-2-0.9-3.5V7.3h-3V7H2279.7z"/>
	<path class="st0" d="M2306.8,14.7l3.4-0.8v-2.2c0-1.5-0.3-2.6-0.9-3.4c-0.6-0.7-1.5-1.1-2.7-1.1c-0.6,0-1.1,0.1-1.7,0.3
		c-0.6,0.2-1.1,0.5-1.7,1s-1,1.2-1.4,2c-0.4,0.8-0.8,1.9-1.1,3.2l-0.2-5.1c0.7-0.6,1.7-1.1,2.8-1.4c1.1-0.3,2.2-0.5,3.4-0.5
		c1.8,0,3.2,0.4,4.2,1.3c1,0.8,1.6,2.1,1.6,3.7v9.6c0,0.6,0.1,1.1,0.2,1.5c0.1,0.4,0.3,0.8,0.7,1.1l-3,0.1v-4
		c-0.2,0.5-0.5,1-0.8,1.5c-0.3,0.5-0.7,0.9-1.2,1.3c-0.5,0.4-1,0.7-1.6,0.9c-0.6,0.2-1.3,0.3-2.2,0.3c-0.7,0-1.4-0.1-2-0.2
		c-0.6-0.2-1.2-0.4-1.6-0.7c-0.5-0.3-0.8-0.7-1.1-1.2c-0.3-0.5-0.4-1.1-0.4-1.7c0-0.9,0.2-1.7,0.7-2.3c0.5-0.6,1.1-1.2,1.9-1.6
		c0.7-0.4,1.5-0.8,2.4-1C2305.3,15.1,2306.1,14.9,2306.8,14.7z M2301.9,20.3c0,1,0.3,1.9,0.8,2.5c0.6,0.7,1.3,1,2.4,1
		c0.6,0,1.1-0.1,1.7-0.4c0.6-0.2,1.1-0.6,1.6-1.1c0.5-0.5,0.9-1.1,1.2-1.8c0.3-0.7,0.5-1.5,0.5-2.5v-3.8l-3.3,0.8
		c-0.4,0.1-0.9,0.3-1.5,0.5c-0.6,0.2-1.1,0.5-1.6,0.9c-0.5,0.4-1,0.9-1.3,1.5C2302.1,18.6,2301.9,19.3,2301.9,20.3z"/>
	<path class="st0" d="M2326.3,24.1c0.3-0.1,0.6-0.2,0.8-0.3c0.2-0.1,0.4-0.3,0.5-0.5s0.2-0.4,0.2-0.7c0-0.3,0.1-0.7,0.1-1.1V10.3
		c0-0.4,0-0.8,0-1.1c0-0.3-0.1-0.6-0.1-0.8c-0.1-0.2-0.1-0.5-0.3-0.7c-0.1-0.2-0.2-0.4-0.4-0.6l3.1-0.3v4.8c0.5-1.5,1.3-2.6,2.4-3.5
		c1.1-0.9,2.5-1.3,4.2-1.3c1,0,1.8,0.1,2.6,0.4c0.7,0.3,1.4,0.7,1.9,1.2c0.5,0.5,0.9,1.1,1.2,1.8s0.4,1.5,0.4,2.3v9
		c0,0.4,0,0.8,0.1,1.1c0.1,0.3,0.1,0.5,0.3,0.7c0.1,0.2,0.3,0.4,0.5,0.5c0.2,0.1,0.5,0.2,0.8,0.3h-5.4c0.3-0.1,0.6-0.2,0.8-0.3
		c0.2-0.1,0.4-0.3,0.5-0.5c0.1-0.2,0.2-0.4,0.2-0.7c0-0.3,0.1-0.7,0.1-1.1v-9.3c0-1.5-0.4-2.7-1.1-3.6c-0.7-0.9-1.8-1.3-3.2-1.3
		c-0.8,0-1.5,0.1-2.3,0.4c-0.7,0.3-1.4,0.7-1.9,1.3c-0.6,0.6-1,1.3-1.4,2.1c-0.4,0.8-0.6,1.8-0.6,2.9v7.5c0,0.4,0,0.8,0.1,1.1
		c0,0.3,0.1,0.5,0.3,0.7c0.1,0.2,0.3,0.4,0.5,0.5c0.2,0.1,0.5,0.2,0.8,0.3H2326.3z"/>
	<path class="st0" d="M2355.4,6.8c1.2,0,2.3,0.2,3.2,0.5c0.9,0.3,1.6,0.8,2.2,1.5c0.6,0.6,1,1.4,1.3,2.2c0.3,0.8,0.4,1.8,0.5,2.8
		h-12.8c0,0.3-0.1,0.6-0.1,0.9c0,0.3,0,0.6,0,1c0,1.2,0.2,2.2,0.5,3.2c0.3,1,0.7,1.9,1.3,2.6c0.6,0.7,1.2,1.3,2,1.7
		c0.8,0.4,1.6,0.6,2.5,0.6c0.8,0,1.5-0.1,2.2-0.4c0.7-0.3,1.3-0.7,1.8-1.3c0.5-0.5,1-1.2,1.5-2c0.4-0.8,0.8-1.6,1.1-2.5l-0.3,4.4
		c-0.9,0.7-1.9,1.3-3,1.7c-1.1,0.4-2.2,0.5-3.3,0.5c-1.3,0-2.4-0.2-3.5-0.6c-1.1-0.4-2-1-2.8-1.7c-0.8-0.7-1.4-1.7-1.8-2.7
		c-0.4-1.1-0.6-2.3-0.6-3.5c0-1.3,0.2-2.4,0.6-3.5c0.4-1.1,0.9-2,1.6-2.8c0.7-0.8,1.6-1.4,2.6-1.8C2353,7.1,2354.1,6.8,2355.4,6.8z
		 M2349.9,13.5h10.3c0-0.9-0.1-1.7-0.4-2.5c-0.2-0.7-0.5-1.4-0.9-2c-0.4-0.6-0.9-1-1.5-1.3c-0.6-0.3-1.3-0.5-2-0.5
		c-0.7,0-1.4,0.2-2,0.5c-0.6,0.3-1.1,0.7-1.6,1.3c-0.5,0.6-0.9,1.2-1.2,2C2350.2,11.7,2350,12.5,2349.9,13.5z"/>
	<path class="st0" d="M2369.2,7c-0.2,0.1-0.3,0.3-0.4,0.6c-0.1,0.3-0.1,0.7,0.2,1.3l4.2,11.8l4.3-13.7h0.2l5.5,13.9l3.3-10.2
		c0.3-0.8,0.4-1.5,0.5-1.9c0-0.5,0-0.8-0.1-1.1c-0.1-0.3-0.2-0.4-0.3-0.5c-0.1-0.1-0.3-0.2-0.4-0.2h3c-0.3,0.2-0.6,0.4-0.9,0.7
		c-0.3,0.3-0.6,0.9-0.9,1.8l-4.7,14.6h-0.4l-5.4-13.7l-4.3,13.7h-0.4L2367,9.7c-0.3-0.9-0.6-1.6-0.9-1.9c-0.2-0.4-0.5-0.6-0.7-0.7
		H2369.2z"/>
	<path class="st0" d="M2404.8,7c-0.2,0.1-0.3,0.4-0.4,0.6c-0.1,0.3,0,0.8,0.3,1.5l5,12.4l4.9-12.3c0.2-0.4,0.2-0.7,0.2-1
		c0-0.3-0.1-0.5-0.2-0.6c-0.1-0.2-0.2-0.3-0.3-0.4c-0.1-0.1-0.2-0.2-0.3-0.2h2.8c-0.2,0.1-0.4,0.3-0.8,0.6c-0.3,0.3-0.6,0.8-0.9,1.5
		l-6.4,16c-0.1,0.3-0.3,0.7-0.6,1.2s-0.5,0.9-0.9,1.3c-0.4,0.4-0.8,0.8-1.3,1.1c-0.5,0.3-1.1,0.5-1.8,0.6l-1.1-3
		c0.8,0.4,1.5,0.6,2.2,0.6c0.7,0,1.4-0.2,1.9-0.7c0.6-0.4,1.1-1.1,1.4-2.1l-6.4-15.4c-0.3-0.6-0.5-1.1-0.7-1.3
		c-0.2-0.3-0.4-0.4-0.6-0.5H2404.8z"/>
	<path class="st0" d="M2428,6.8c1.3,0,2.5,0.2,3.5,0.6s2,1,2.7,1.8c0.8,0.8,1.4,1.7,1.8,2.8c0.4,1.1,0.6,2.2,0.6,3.5v0
		c0,1.3-0.2,2.4-0.6,3.5c-0.4,1.1-1,2-1.8,2.8c-0.8,0.8-1.7,1.4-2.7,1.8c-1.1,0.4-2.2,0.6-3.5,0.6c-1.3,0-2.5-0.2-3.5-0.6
		c-1.1-0.4-2-1-2.7-1.8s-1.4-1.7-1.8-2.8c-0.4-1.1-0.6-2.2-0.6-3.5v0c0-1.3,0.2-2.4,0.6-3.5c0.4-1.1,1-2,1.8-2.8
		c0.8-0.8,1.7-1.4,2.7-1.8S2426.7,6.8,2428,6.8z M2421.7,15.6c0,1.2,0.2,2.3,0.5,3.3c0.3,1,0.7,1.9,1.3,2.6c0.5,0.7,1.2,1.3,2,1.7
		c0.8,0.4,1.6,0.6,2.5,0.6c0.9,0,1.8-0.2,2.5-0.6c0.8-0.4,1.4-1,2-1.7c0.5-0.7,1-1.6,1.3-2.6c0.3-1,0.5-2.1,0.5-3.3
		c0-1.2-0.2-2.3-0.5-3.3c-0.3-1-0.7-1.9-1.3-2.6c-0.5-0.7-1.2-1.3-2-1.7c-0.8-0.4-1.6-0.6-2.5-0.6c-0.9,0-1.8,0.2-2.5,0.6
		c-0.8,0.4-1.4,1-2,1.7c-0.5,0.7-1,1.6-1.3,2.6C2421.9,13.2,2421.7,14.3,2421.7,15.6z"/>
	<path class="st0" d="M2439.9,7.1l3.1-0.3v12.3c0,0.9,0.1,1.6,0.3,2.2c0.2,0.6,0.4,1.1,0.8,1.5c0.3,0.4,0.7,0.6,1.2,0.8
		c0.5,0.2,1,0.2,1.6,0.2c0.9,0,1.7-0.2,2.4-0.6c0.7-0.4,1.2-0.9,1.7-1.6c0.4-0.6,0.8-1.4,1-2.2c0.2-0.8,0.4-1.6,0.4-2.3v-6.9
		c0-0.4,0-0.8,0-1.1c0-0.3-0.1-0.6-0.1-0.8c-0.1-0.2-0.1-0.5-0.3-0.7c-0.1-0.2-0.2-0.4-0.4-0.6l3.1-0.3v14.3c0,0.9,0.1,1.5,0.2,2
		c0.1,0.4,0.4,0.8,0.6,1l-3,0.1v-4.6c-0.3,0.7-0.6,1.4-1,1.9c-0.4,0.6-0.8,1.1-1.2,1.5c-0.5,0.4-1,0.7-1.6,0.9
		c-0.6,0.2-1.3,0.3-2.1,0.3c-1.7,0-3.1-0.4-4.1-1.3c-1-0.9-1.5-2.2-1.5-4v-8.7c0-0.4,0-0.8,0-1.1c0-0.3-0.1-0.6-0.1-0.8
		c-0.1-0.2-0.1-0.5-0.3-0.7C2440.2,7.5,2440,7.3,2439.9,7.1z"/>
	<path class="st0" d="M2471.7,7c-0.2,0.1-0.3,0.3-0.4,0.6c-0.1,0.3-0.1,0.7,0.2,1.3l4.2,11.8L2480,7h0.2l5.5,13.9l3.3-10.2
		c0.3-0.8,0.4-1.5,0.5-1.9c0-0.5,0-0.8-0.1-1.1c-0.1-0.3-0.2-0.4-0.3-0.5s-0.3-0.2-0.4-0.2h3c-0.3,0.2-0.6,0.4-0.9,0.7
		c-0.3,0.3-0.6,0.9-0.9,1.8l-4.7,14.6h-0.4l-5.4-13.7l-4.3,13.7h-0.4l-5.2-14.5c-0.3-0.9-0.6-1.6-0.9-1.9c-0.2-0.4-0.5-0.6-0.7-0.7
		H2471.7z"/>
	<path class="st0" d="M2494.1,24.1c0.3-0.1,0.6-0.2,0.8-0.3c0.2-0.1,0.4-0.3,0.5-0.5c0.1-0.2,0.2-0.4,0.2-0.7c0-0.3,0.1-0.7,0.1-1.1
		V10.3c0-0.4,0-0.8,0-1.1c0-0.3-0.1-0.6-0.1-0.8c-0.1-0.2-0.1-0.5-0.3-0.7c-0.1-0.2-0.2-0.4-0.4-0.6l3.1-0.3v14.7
		c0,0.4,0,0.8,0.1,1.1c0,0.3,0.1,0.5,0.3,0.7c0.1,0.2,0.3,0.4,0.5,0.5c0.2,0.1,0.5,0.2,0.8,0.3H2494.1z M2496.7,1.6
		c0.5,0,0.8,0.1,1.2,0.4c0.3,0.3,0.5,0.6,0.5,1.1c0,0.5-0.2,0.8-0.5,1.1s-0.7,0.4-1.2,0.4c-0.4,0-0.8-0.1-1.1-0.4
		c-0.3-0.3-0.5-0.7-0.5-1.1c0-0.5,0.2-0.8,0.5-1.1C2495.9,1.7,2496.3,1.6,2496.7,1.6z"/>
	<path class="st0" d="M2505.2,7l2.1-4.2V7h5v0.3h-5v13c0,0.7,0,1.2,0.1,1.7c0.1,0.4,0.2,0.8,0.4,1.1c0.2,0.3,0.4,0.4,0.6,0.5
		c0.3,0.1,0.5,0.2,0.9,0.2c0.6,0,1.1-0.2,1.5-0.5c0.4-0.3,0.8-0.8,1.1-1.4l0.4,0.3c-0.4,0.6-0.8,1.2-1.3,1.5
		c-0.5,0.4-1.2,0.6-2.1,0.6c-1.4,0-2.4-0.4-3-1.2c-0.6-0.8-0.9-2-0.9-3.5V7.3h-3V7H2505.2z"/>
	<path class="st0" d="M2514.9,24.1c0.3-0.1,0.6-0.2,0.8-0.3c0.2-0.1,0.4-0.3,0.5-0.5c0.1-0.2,0.2-0.4,0.2-0.7c0-0.3,0.1-0.7,0.1-1.1
		V3.7c0-0.6-0.1-1.1-0.2-1.4c-0.1-0.3-0.3-0.5-0.6-0.8l3-0.4v10.5c0.5-1.5,1.3-2.6,2.4-3.5c1.1-0.9,2.5-1.3,4.2-1.3
		c1,0,1.8,0.1,2.6,0.4c0.7,0.3,1.4,0.7,1.9,1.2c0.5,0.5,0.9,1.1,1.2,1.8c0.3,0.7,0.4,1.5,0.4,2.3v9c0,0.4,0,0.8,0.1,1.1
		c0.1,0.3,0.1,0.5,0.3,0.7c0.1,0.2,0.3,0.4,0.5,0.5c0.2,0.1,0.5,0.2,0.8,0.3h-5.4c0.3-0.1,0.6-0.2,0.8-0.3c0.2-0.1,0.4-0.3,0.5-0.5
		s0.2-0.4,0.2-0.7c0-0.3,0.1-0.7,0.1-1.1v-9.3c0-1.5-0.4-2.7-1.1-3.6c-0.7-0.9-1.8-1.3-3.2-1.3c-0.8,0-1.5,0.1-2.3,0.4
		c-0.7,0.3-1.4,0.7-1.9,1.3c-0.6,0.6-1,1.3-1.4,2.1c-0.4,0.8-0.6,1.8-0.6,2.9v7.5c0,0.4,0,0.8,0.1,1.1c0.1,0.3,0.1,0.5,0.3,0.7
		c0.1,0.2,0.3,0.4,0.5,0.5c0.2,0.1,0.5,0.2,0.8,0.3H2514.9z"/>
	<path class="st0" d="M2547.2,27.2V10.3c0-0.4,0-0.8,0-1.1c0-0.3-0.1-0.6-0.1-0.8c-0.1-0.2-0.1-0.5-0.3-0.7
		c-0.1-0.2-0.2-0.4-0.4-0.6l3-0.3V9c0.4-0.4,0.8-0.8,1.2-1.1c0.4-0.3,0.9-0.5,1.3-0.6c0.4-0.2,0.9-0.3,1.3-0.3
		c0.4-0.1,0.9-0.1,1.2-0.1c1.3,0,2.5,0.2,3.5,0.6c1.1,0.4,2,1,2.7,1.7c0.8,0.7,1.3,1.6,1.8,2.6c0.4,1,0.6,2.2,0.6,3.4
		c0,1.3-0.2,2.5-0.7,3.6c-0.4,1.1-1,2.1-1.8,2.9c-0.8,0.8-1.7,1.5-2.8,1.9c-1.1,0.5-2.2,0.7-3.5,0.7c-1,0-1.8-0.1-2.7-0.4
		c-0.8-0.3-1.6-0.7-2.2-1.3v4.7c0,0.4,0,0.8,0.1,1.1c0.1,0.3,0.1,0.5,0.3,0.7c0.1,0.2,0.3,0.4,0.5,0.5c0.2,0.1,0.5,0.2,0.8,0.3h-5.4
		c0.3-0.1,0.6-0.2,0.8-0.3c0.2-0.1,0.4-0.3,0.5-0.5c0.1-0.2,0.2-0.4,0.2-0.7C2547.2,28,2547.2,27.7,2547.2,27.2z M2554.6,23.8
		c1,0,1.8-0.2,2.6-0.6c0.8-0.4,1.4-0.9,1.9-1.6s0.9-1.5,1.2-2.4c0.3-0.9,0.4-1.9,0.4-3c0-1.3-0.1-2.4-0.4-3.5
		c-0.3-1.1-0.7-2-1.3-2.8c-0.6-0.8-1.3-1.4-2.1-1.9c-0.8-0.4-1.9-0.7-3-0.7c-0.7,0-1.5,0.1-2.3,0.4c-0.8,0.3-1.5,0.9-2.1,1.7v11
		c0.5,1.1,1.2,2,2.1,2.5C2552.5,23.5,2553.5,23.8,2554.6,23.8z"/>
	<path class="st0" d="M2574.2,6.8c1.2,0,2.3,0.2,3.2,0.5c0.9,0.3,1.6,0.8,2.2,1.5c0.6,0.6,1,1.4,1.3,2.2c0.3,0.8,0.4,1.8,0.5,2.8
		h-12.8c0,0.3-0.1,0.6-0.1,0.9c0,0.3,0,0.6,0,1c0,1.2,0.2,2.2,0.5,3.2c0.3,1,0.7,1.9,1.3,2.6c0.6,0.7,1.2,1.3,2,1.7
		c0.8,0.4,1.6,0.6,2.5,0.6c0.8,0,1.5-0.1,2.2-0.4c0.7-0.3,1.3-0.7,1.8-1.3c0.5-0.5,1-1.2,1.5-2c0.4-0.8,0.8-1.6,1.1-2.5l-0.3,4.4
		c-0.9,0.7-1.9,1.3-3,1.7c-1.1,0.4-2.2,0.5-3.3,0.5c-1.3,0-2.4-0.2-3.5-0.6c-1.1-0.4-2-1-2.8-1.7c-0.8-0.7-1.4-1.7-1.8-2.7
		c-0.4-1.1-0.6-2.3-0.6-3.5c0-1.3,0.2-2.4,0.6-3.5c0.4-1.1,0.9-2,1.6-2.8c0.7-0.8,1.6-1.4,2.6-1.8S2572.9,6.8,2574.2,6.8z
		 M2568.7,13.5h10.3c0-0.9-0.1-1.7-0.4-2.5c-0.2-0.7-0.5-1.4-0.9-2c-0.4-0.6-0.9-1-1.5-1.3c-0.6-0.3-1.3-0.5-2-0.5
		c-0.7,0-1.4,0.2-2,0.5c-0.6,0.3-1.1,0.7-1.6,1.3c-0.5,0.6-0.9,1.2-1.2,2C2569,11.7,2568.8,12.5,2568.7,13.5z"/>
	<path class="st0" d="M2584.7,24.1c0.3-0.1,0.6-0.2,0.8-0.3c0.2-0.1,0.4-0.3,0.5-0.5c0.1-0.2,0.2-0.4,0.2-0.7c0-0.3,0.1-0.7,0.1-1.1
		V10.3c0-0.4,0-0.8,0-1.1c0-0.3-0.1-0.6-0.1-0.8c-0.1-0.2-0.1-0.5-0.3-0.7c-0.1-0.2-0.2-0.4-0.4-0.6l3.1-0.3v4.1
		c0.2-0.6,0.5-1.1,0.8-1.6c0.3-0.5,0.7-0.9,1.1-1.3c0.4-0.4,0.9-0.6,1.4-0.8c0.5-0.2,1.1-0.3,1.8-0.3c0.6,0,1.2,0.1,1.7,0.2l0,2.9
		c-0.2-0.2-0.4-0.5-0.7-0.7c-0.3-0.2-0.5-0.5-0.8-0.7c-0.3-0.2-0.6-0.4-0.9-0.5c-0.3-0.1-0.6-0.2-0.9-0.2c-0.4,0-0.8,0.1-1.1,0.3
		c-0.3,0.2-0.7,0.5-1,0.8c-0.3,0.3-0.6,0.7-0.8,1.2c-0.2,0.5-0.5,0.9-0.6,1.4v9.8c0,0.4,0,0.8,0.1,1.1c0,0.3,0.1,0.5,0.3,0.7
		c0.1,0.2,0.3,0.4,0.5,0.5c0.2,0.1,0.5,0.2,0.8,0.3H2584.7z"/>
	<path class="st0" d="M2598.1,22.5l0.5-5.7c0.1,1.4,0.3,2.5,0.7,3.4c0.3,0.9,0.7,1.6,1.2,2.2c0.5,0.5,1.1,0.9,1.7,1.1
		c0.6,0.2,1.3,0.3,2,0.3c1.5,0,2.6-0.4,3.4-1.1c0.7-0.7,1.1-1.6,1.1-2.7c0-0.6-0.1-1.1-0.3-1.5c-0.2-0.4-0.5-0.8-0.8-1
		c-0.3-0.3-0.7-0.5-1-0.6c-0.4-0.2-0.7-0.3-1-0.4l-3.2-1.1c-0.3-0.1-0.7-0.3-1.1-0.5c-0.4-0.2-0.8-0.5-1.2-0.8
		c-0.4-0.3-0.7-0.8-0.9-1.3c-0.3-0.5-0.4-1.1-0.4-1.7c0-1.3,0.5-2.4,1.5-3.2c1-0.8,2.3-1.2,3.9-1.2c1.1,0,2.1,0.2,3,0.5
		c0.9,0.3,1.7,0.8,2.4,1.4l-0.2,4.1c-0.5-2-1.2-3.4-2-4.3c-0.8-0.9-1.9-1.3-3.3-1.3c-1.1,0-2,0.3-2.7,0.8c-0.7,0.5-1.1,1.3-1.1,2.4
		c0,0.5,0.1,0.9,0.3,1.2c0.2,0.3,0.4,0.6,0.7,0.8c0.3,0.2,0.6,0.4,1,0.5s0.7,0.2,1,0.3l2.9,1c0.4,0.1,0.8,0.3,1.3,0.5
		c0.5,0.2,1,0.5,1.4,0.9c0.4,0.4,0.8,0.8,1.1,1.4c0.3,0.6,0.5,1.2,0.5,2c0,0.7-0.1,1.4-0.4,2.1c-0.3,0.6-0.7,1.2-1.2,1.6
		c-0.5,0.5-1.2,0.8-2,1.1c-0.8,0.3-1.7,0.4-2.8,0.4c-1.2,0-2.3-0.2-3.3-0.5C2599.6,23.5,2598.8,23.1,2598.1,22.5z"/>
	<path class="st0" d="M2621.8,6.8c1.2,0,2.3,0.2,3.2,0.5c0.9,0.3,1.6,0.8,2.2,1.5c0.6,0.6,1,1.4,1.3,2.2c0.3,0.8,0.4,1.8,0.5,2.8
		h-12.8c0,0.3-0.1,0.6-0.1,0.9c0,0.3,0,0.6,0,1c0,1.2,0.2,2.2,0.5,3.2c0.3,1,0.7,1.9,1.3,2.6c0.6,0.7,1.2,1.3,2,1.7
		c0.8,0.4,1.6,0.6,2.5,0.6c0.8,0,1.5-0.1,2.2-0.4c0.7-0.3,1.3-0.7,1.8-1.3c0.5-0.5,1-1.2,1.5-2c0.4-0.8,0.8-1.6,1.1-2.5l-0.3,4.4
		c-0.9,0.7-1.9,1.3-3,1.7c-1.1,0.4-2.2,0.5-3.3,0.5c-1.3,0-2.4-0.2-3.5-0.6c-1.1-0.4-2-1-2.8-1.7c-0.8-0.7-1.4-1.7-1.8-2.7
		c-0.4-1.1-0.6-2.3-0.6-3.5c0-1.3,0.2-2.4,0.6-3.5c0.4-1.1,0.9-2,1.6-2.8c0.7-0.8,1.6-1.4,2.6-1.8C2619.4,7.1,2620.5,6.8,2621.8,6.8
		z M2616.3,13.5h10.3c0-0.9-0.1-1.7-0.4-2.5c-0.2-0.7-0.5-1.4-0.9-2c-0.4-0.6-0.9-1-1.5-1.3c-0.6-0.3-1.3-0.5-2-0.5
		c-0.7,0-1.4,0.2-2,0.5c-0.6,0.3-1.1,0.7-1.6,1.3c-0.5,0.6-0.9,1.2-1.2,2C2616.6,11.7,2616.4,12.5,2616.3,13.5z"/>
	<path class="st0" d="M2634.4,23.1c0-0.3,0.1-0.6,0.3-0.8c0.2-0.2,0.5-0.3,0.8-0.3c0.3,0,0.6,0.1,0.8,0.3c0.2,0.2,0.3,0.5,0.3,0.8
		c0,0.3-0.1,0.6-0.3,0.8c-0.2,0.2-0.5,0.3-0.8,0.3c-0.3,0-0.6-0.1-0.8-0.3C2634.5,23.7,2634.4,23.4,2634.4,23.1z"/>
</g>
</svg>
