<?xml version="1.0" encoding="utf-8"?>
<!-- Generator: Adobe Illustrator 25.4.1, SVG Export Plug-In . SVG Version: 6.00 Build 0)  -->
<svg version="1.1" id="レイヤー_1" xmlns="http://www.w3.org/2000/svg" xmlns:xlink="http://www.w3.org/1999/xlink" x="0px"
	 y="0px" viewBox="0 0 280 29" style="enable-background:new 0 0 280 29;" xml:space="preserve">
<style type="text/css">
	.st0{fill:#635444;}
</style>
<g>
	<g>
		<path class="st0" d="M0.6,12.8c0-1.7,0.2-3.1,0.6-4.5C1.5,7,2,5.8,2.7,4.9c0.7-0.9,1.5-1.7,2.5-2.2c1-0.5,2-0.8,3.2-0.8
			c1.2,0,2.3,0.3,3.2,0.8c1,0.5,1.8,1.3,2.5,2.2c0.7,0.9,1.2,2.1,1.6,3.4c0.4,1.3,0.6,2.8,0.6,4.5c0,1.6-0.2,3.1-0.6,4.5
			c-0.4,1.4-0.9,2.5-1.6,3.5c-0.7,0.9-1.5,1.7-2.5,2.2c-1,0.5-2.1,0.8-3.2,0.8c-1.2,0-2.2-0.3-3.2-0.8c-1-0.5-1.8-1.3-2.5-2.2
			c-0.7-0.9-1.2-2.1-1.6-3.5C0.8,15.9,0.6,14.4,0.6,12.8z M3.2,12.8c0,3.3,0.4,5.8,1.3,7.7c0.9,1.8,2.2,2.8,3.9,2.8
			c1.7,0,3-0.9,3.9-2.8c0.9-1.8,1.3-4.4,1.3-7.7c0-3.3-0.4-5.8-1.3-7.7c-0.9-1.8-2.2-2.8-3.9-2.8c-1.7,0-3,0.9-3.9,2.8
			C3.7,6.9,3.2,9.5,3.2,12.8z"/>
		<path class="st0" d="M8.5,23.8c-1.2,0-2.3-0.3-3.3-0.8c-1-0.5-1.8-1.3-2.5-2.2c-0.7-1-1.2-2.1-1.6-3.5c-0.4-1.4-0.6-2.9-0.6-4.5
			c0-1.7,0.2-3.2,0.6-4.5c0.4-1.4,0.9-2.5,1.6-3.5c0.7-1,1.5-1.7,2.5-2.2c1-0.5,2.1-0.8,3.3-0.8c1.2,0,2.3,0.3,3.3,0.8
			c1,0.5,1.8,1.3,2.5,2.2c0.7,1,1.2,2.1,1.6,3.5c0.4,1.3,0.6,2.9,0.6,4.5c0,1.6-0.2,3.1-0.6,4.5c-0.4,1.4-0.9,2.5-1.6,3.5
			c-0.7,1-1.5,1.7-2.5,2.2C10.8,23.6,9.7,23.8,8.5,23.8z M8.5,2C7.3,2,6.2,2.2,5.3,2.8C4.3,3.3,3.5,4,2.8,4.9C2.2,5.9,1.6,7,1.3,8.3
			c-0.4,1.3-0.6,2.8-0.6,4.5c0,1.6,0.2,3.1,0.6,4.4c0.4,1.3,0.9,2.5,1.6,3.4c0.7,0.9,1.5,1.7,2.5,2.2c0.9,0.5,2,0.8,3.2,0.8
			c1.2,0,2.2-0.3,3.2-0.8c1-0.5,1.8-1.2,2.5-2.2c0.7-0.9,1.2-2.1,1.6-3.4c0.4-1.3,0.6-2.8,0.6-4.4c0-1.6-0.2-3.1-0.6-4.5
			c-0.4-1.3-0.9-2.5-1.6-3.4c-0.7-0.9-1.5-1.7-2.5-2.2C10.7,2.2,9.6,2,8.5,2z M8.5,23.4c-1.7,0-3.1-1-4-2.8
			c-0.9-1.9-1.4-4.5-1.4-7.7c0-3.3,0.5-5.9,1.4-7.7c0.9-1.9,2.3-2.8,4-2.8c1.8,0,3.1,1,4,2.8c0.9,1.9,1.4,4.5,1.4,7.7
			c0,3.3-0.5,5.9-1.4,7.7C11.6,22.4,10.2,23.4,8.5,23.4z M8.5,2.4c-1.6,0-2.9,0.9-3.8,2.7C3.8,7,3.3,9.5,3.3,12.8
			c0,3.2,0.4,5.8,1.3,7.6c0.9,1.8,2.1,2.7,3.8,2.7c1.7,0,2.9-0.9,3.8-2.7c0.9-1.8,1.3-4.4,1.3-7.6c0-3.2-0.4-5.8-1.3-7.6
			C11.4,3.4,10.1,2.4,8.5,2.4z"/>
	</g>
	<g>
		<path class="st0" d="M31.7,2.1L31.7,2.1L31.7,2.1H32v14.3h2.8L34.5,18H32v1.9c0,0.7,0,1.2,0.1,1.7c0.1,0.4,0.1,0.8,0.3,1
			c0.1,0.3,0.3,0.5,0.5,0.6c0.2,0.1,0.5,0.3,0.8,0.4h-5.7c0.3-0.1,0.6-0.2,0.8-0.4c0.2-0.1,0.4-0.3,0.5-0.6c0.1-0.3,0.2-0.6,0.3-1
			c0.1-0.4,0.1-1,0.1-1.7V18h-10v-0.2L31.7,2.1z M29.6,16.3V5.5l-8.4,10.9H29.6z"/>
		<path class="st0" d="M34.4,23.7h-7.2l0.7-0.2c0.3-0.1,0.6-0.2,0.8-0.3c0.2-0.1,0.4-0.3,0.5-0.5c0.1-0.2,0.2-0.6,0.3-1
			c0.1-0.4,0.1-1,0.1-1.7v-1.8h-10v-0.4l0,0l12.3-16v0.2h0.3v14.3H35l-0.4,1.9h-2.5v1.8c0,0.7,0,1.2,0.1,1.6c0,0.4,0.1,0.7,0.3,1
			c0.1,0.2,0.3,0.4,0.5,0.6c0.2,0.1,0.5,0.3,0.8,0.4L34.4,23.7z M28.6,23.4H33c-0.1,0-0.2-0.1-0.3-0.2c-0.2-0.2-0.4-0.4-0.5-0.7
			c-0.1-0.3-0.2-0.6-0.3-1.1c-0.1-0.4-0.1-1-0.1-1.7v-2h2.6l0.3-1.4h-2.8V2.2h-0.1l-0.1,0.1l-12,15.5v0.1h10v2c0,0.7,0,1.2-0.1,1.7
			c-0.1,0.5-0.1,0.8-0.3,1.1c-0.1,0.3-0.3,0.5-0.6,0.6C28.8,23.4,28.7,23.4,28.6,23.4z M29.7,16.5H21l8.7-11.4V16.5z M21.5,16.2h8
			V5.8L21.5,16.2z"/>
	</g>
	<g>
		<path class="st0" d="M49.6,19.2l8-17.1h0.2l9.1,19.4c0.4,0.7,0.7,1.3,0.9,1.6c0.3,0.3,0.5,0.5,0.8,0.6h-4.7
			c0.1-0.1,0.3-0.1,0.4-0.3c0.1-0.1,0.2-0.3,0.3-0.5c0.1-0.2,0.1-0.5,0-0.8c-0.1-0.3-0.2-0.7-0.4-1.2l-2.5-5.5h-9.5l-2.5,5.4
			c-0.2,0.5-0.4,1-0.5,1.3C49,22.3,49,22.6,49,22.8c0,0.2,0.1,0.4,0.2,0.5c0.1,0.1,0.2,0.2,0.4,0.2h-2.7c0.1,0,0.3-0.1,0.4-0.2
			c0.1-0.1,0.3-0.3,0.5-0.6c0.2-0.3,0.5-0.7,0.7-1.3S49.2,20.1,49.6,19.2z M61.4,14.7L56.9,5l-4.5,9.8H61.4z"/>
		<path class="st0" d="M69.4,23.7h-6.1l0.5-0.2c0.1-0.1,0.3-0.1,0.4-0.2c0.1-0.1,0.2-0.2,0.2-0.5c0.1-0.2,0.1-0.5,0-0.8
			c0-0.3-0.2-0.7-0.4-1.2l-2.5-5.4h-9.3l-2.5,5.4c-0.2,0.5-0.4,1-0.5,1.3c-0.1,0.3-0.1,0.6-0.1,0.8c0,0.2,0.1,0.3,0.2,0.4
			c0.1,0.1,0.2,0.2,0.3,0.2l0.4,0.2H46l0.8-0.2c0.1,0,0.3-0.1,0.4-0.2c0.1-0.1,0.3-0.3,0.5-0.6c0.2-0.3,0.5-0.7,0.7-1.3
			c0.3-0.5,0.6-1.3,1.1-2.2l8-17.2h0.3L67,21.4c0.3,0.7,0.7,1.2,0.9,1.5c0.3,0.3,0.5,0.5,0.8,0.5L69.4,23.7z M64.3,23.4h3.8
			c-0.1-0.1-0.3-0.2-0.4-0.4c-0.3-0.3-0.6-0.8-0.9-1.6l-9-19.3h0l-7.9,17c-0.4,1-0.8,1.7-1.1,2.2c-0.3,0.6-0.5,1-0.7,1.3
			c-0.2,0.3-0.4,0.5-0.6,0.7c0,0,0,0,0,0h1.9c0,0,0,0,0,0c-0.1-0.1-0.2-0.3-0.3-0.6c0-0.2,0-0.5,0.1-0.9c0.1-0.4,0.2-0.8,0.5-1.4
			l2.6-5.5h9.7l0,0.1l2.5,5.5c0.2,0.5,0.4,0.9,0.4,1.3c0.1,0.4,0,0.6,0,0.9C64.6,23.1,64.5,23.3,64.3,23.4
			C64.3,23.4,64.3,23.4,64.3,23.4z M61.6,14.9h-9.5l4.7-10.2L61.6,14.9z M52.5,14.6h8.7l-4.4-9.4L52.5,14.6z"/>
	</g>
	<g>
		<path class="st0" d="M70.9,23.6c0.3-0.1,0.6-0.2,0.8-0.3c0.2-0.1,0.4-0.3,0.5-0.5c0.1-0.2,0.2-0.4,0.2-0.8c0-0.3,0.1-0.7,0.1-1.1
			V2.7c0-0.6-0.1-1.1-0.2-1.4s-0.3-0.6-0.6-0.8l3.1-0.4v20.7c0,0.4,0,0.8,0.1,1.1c0.1,0.3,0.1,0.6,0.3,0.8c0.1,0.2,0.3,0.4,0.5,0.5
			c0.2,0.1,0.5,0.2,0.8,0.3H70.9z"/>
		<path class="st0" d="M77.2,23.7h-7l0.7-0.2c0.3-0.1,0.6-0.2,0.8-0.3c0.2-0.1,0.3-0.3,0.5-0.4c0.1-0.2,0.2-0.4,0.2-0.7
			c0-0.3,0.1-0.7,0.1-1.1V2.7c0-0.6,0-1.1-0.1-1.4c-0.1-0.3-0.3-0.5-0.6-0.8l-0.2-0.2L74.9,0v20.9c0,0.4,0,0.8,0.1,1.1
			c0,0.3,0.1,0.5,0.2,0.7c0.1,0.2,0.3,0.3,0.5,0.5c0.2,0.1,0.5,0.2,0.8,0.3L77.2,23.7z M71.6,23.4h4.3c-0.1,0-0.2-0.1-0.2-0.1
			c-0.2-0.1-0.4-0.3-0.5-0.5c-0.1-0.2-0.2-0.5-0.3-0.8c-0.1-0.3-0.1-0.7-0.1-1.1V0.3L72,0.6c0.2,0.2,0.4,0.4,0.5,0.7
			c0.1,0.3,0.2,0.8,0.2,1.4v18.2c0,0.4,0,0.8-0.1,1.1c0,0.3-0.1,0.6-0.3,0.8c-0.1,0.2-0.3,0.4-0.5,0.5
			C71.7,23.4,71.7,23.4,71.6,23.4z"/>
	</g>
	<g>
		<path class="st0" d="M80.5,20.9V9.4c0-0.4,0-0.8,0-1.1c0-0.3-0.1-0.6-0.1-0.9C80.2,7.2,80.1,7,80,6.8c-0.1-0.2-0.3-0.4-0.4-0.6
			l3.2-0.3v4.9c0.5-1.5,1.3-2.7,2.4-3.6c1.1-0.9,2.5-1.3,4.1-1.3c1.8,0,3.2,0.5,4.3,1.4c1.1,0.9,1.7,2.1,1.8,3.6
			c0.5-1.5,1.3-2.8,2.4-3.7c1.1-0.9,2.5-1.3,4.2-1.3c1,0,1.8,0.1,2.6,0.4c0.8,0.3,1.4,0.7,1.9,1.2s0.9,1.1,1.2,1.8
			c0.3,0.7,0.4,1.5,0.4,2.3v9.2c0,0.4,0,0.8,0.1,1.1c0.1,0.3,0.1,0.6,0.3,0.8c0.1,0.2,0.3,0.4,0.5,0.5c0.2,0.1,0.5,0.2,0.8,0.3h-5.5
			c0.3-0.1,0.6-0.2,0.8-0.3c0.2-0.1,0.4-0.3,0.5-0.5c0.1-0.2,0.2-0.4,0.2-0.8c0-0.3,0.1-0.7,0.1-1.1v-9.5c0-1.5-0.4-2.8-1.1-3.7
			c-0.7-0.9-1.8-1.3-3.2-1.3c-0.7,0-1.5,0.2-2.2,0.5c-0.7,0.3-1.3,0.8-1.9,1.3c-0.6,0.6-1,1.3-1.4,2.2c-0.4,0.8-0.6,1.8-0.6,2.9v7.6
			c0,0.4,0,0.8,0.1,1.1c0.1,0.3,0.1,0.6,0.3,0.8c0.1,0.2,0.3,0.4,0.5,0.5c0.2,0.1,0.5,0.2,0.8,0.3h-5.5c0.3-0.1,0.6-0.2,0.8-0.3
			c0.2-0.1,0.4-0.3,0.5-0.5c0.1-0.2,0.2-0.4,0.2-0.8c0-0.3,0.1-0.7,0.1-1.1v-9.5c0-1.5-0.4-2.8-1.1-3.7c-0.7-0.9-1.8-1.3-3.2-1.3
			c-0.7,0-1.5,0.2-2.2,0.5c-0.7,0.3-1.3,0.8-1.9,1.3s-1,1.3-1.4,2.2c-0.4,0.8-0.6,1.8-0.6,2.9v7.6c0,0.4,0,0.8,0.1,1.1
			c0.1,0.3,0.1,0.6,0.3,0.8c0.1,0.2,0.3,0.4,0.5,0.5c0.2,0.1,0.5,0.2,0.8,0.3h-5.5c0.3-0.1,0.6-0.2,0.8-0.3c0.2-0.1,0.4-0.3,0.5-0.5
			c0.1-0.2,0.2-0.4,0.2-0.8C80.4,21.7,80.5,21.3,80.5,20.9z"/>
		<path class="st0" d="M110.4,23.7h-7l0.7-0.2c0.3-0.1,0.6-0.2,0.8-0.3c0.2-0.1,0.3-0.3,0.5-0.4c0.1-0.2,0.2-0.4,0.2-0.7
			c0-0.3,0.1-0.7,0.1-1.1v-9.5c0-1.5-0.4-2.7-1.1-3.6c-0.7-0.9-1.8-1.3-3.1-1.3c-0.7,0-1.4,0.2-2.1,0.5c-0.7,0.3-1.3,0.7-1.8,1.3
			c-0.5,0.6-1,1.3-1.4,2.1c-0.4,0.8-0.6,1.8-0.6,2.9l0,7.6c0,0.4,0,0.8,0.1,1.1c0,0.3,0.1,0.5,0.2,0.7c0.1,0.2,0.3,0.3,0.5,0.5
			c0.2,0.1,0.5,0.2,0.7,0.3l0.7,0.2h-7l0.7-0.2c0.3-0.1,0.6-0.2,0.8-0.3c0.2-0.1,0.3-0.3,0.5-0.4c0.1-0.2,0.2-0.4,0.2-0.7
			c0-0.3,0.1-0.7,0.1-1.1v-9.5c0-1.5-0.4-2.7-1.1-3.6c-0.7-0.9-1.8-1.3-3.1-1.3c-0.7,0-1.4,0.2-2.1,0.5c-0.7,0.3-1.3,0.7-1.8,1.3
			c-0.5,0.6-1,1.3-1.4,2.1c-0.4,0.8-0.6,1.8-0.6,2.9l0,7.6c0,0.4,0,0.8,0.1,1.1c0,0.3,0.1,0.5,0.2,0.7c0.1,0.2,0.3,0.3,0.5,0.5
			c0.2,0.1,0.5,0.2,0.7,0.3l0.7,0.2h-7l0.7-0.2c0.3-0.1,0.6-0.2,0.8-0.3c0.2-0.1,0.3-0.3,0.5-0.4c0.1-0.2,0.2-0.4,0.2-0.7
			c0-0.3,0.1-0.7,0.1-1.1V9.4c0-0.4,0-0.8,0-1.1c0-0.3-0.1-0.6-0.1-0.8C80.1,7.3,80,7,79.9,6.8c-0.1-0.2-0.2-0.4-0.4-0.6l-0.1-0.2
			l3.5-0.3v4.4c0.5-1.2,1.2-2.2,2.2-3c1.1-0.9,2.5-1.3,4.2-1.3c1.8,0,3.3,0.5,4.3,1.4c1,0.8,1.6,1.9,1.8,3.2
			c0.5-1.3,1.2-2.4,2.2-3.2c1.1-0.9,2.5-1.4,4.2-1.4c1,0,1.9,0.1,2.6,0.4c0.8,0.3,1.4,0.7,2,1.2c0.5,0.5,1,1.2,1.2,1.9
			c0.3,0.7,0.4,1.5,0.4,2.4v9.2c0,0.4,0,0.8,0.1,1.1c0,0.3,0.1,0.5,0.2,0.7c0.1,0.2,0.3,0.3,0.5,0.5c0.2,0.1,0.5,0.2,0.8,0.3
			L110.4,23.7z M104.8,23.4h4.3c-0.1,0-0.2-0.1-0.2-0.1c-0.2-0.1-0.4-0.3-0.5-0.5c-0.1-0.2-0.2-0.5-0.3-0.8
			c-0.1-0.3-0.1-0.7-0.1-1.1v-9.2c0-0.8-0.1-1.6-0.4-2.3c-0.3-0.7-0.7-1.3-1.2-1.8c-0.5-0.5-1.1-0.9-1.9-1.2
			c-0.7-0.3-1.6-0.4-2.6-0.4c-1.6,0-3,0.4-4.1,1.3c-1.1,0.9-1.9,2.1-2.3,3.6l-0.2,0.5l-0.1-0.6c-0.2-1.4-0.8-2.6-1.8-3.5
			C92.4,6.5,91,6,89.2,6c-1.6,0-2.9,0.4-4,1.3c-1.1,0.8-1.9,2-2.4,3.5l-0.2,0.7V6l-2.8,0.2c0.1,0.2,0.2,0.3,0.3,0.5
			c0.1,0.2,0.2,0.5,0.3,0.7c0.1,0.2,0.1,0.5,0.1,0.9c0,0.3,0,0.7,0,1.1v11.4c0,0.4,0,0.8-0.1,1.1c0,0.3-0.1,0.6-0.3,0.8
			c-0.1,0.2-0.3,0.4-0.5,0.5c-0.1,0-0.1,0.1-0.2,0.1h4.3c-0.1,0-0.2-0.1-0.2-0.1c-0.2-0.1-0.4-0.3-0.5-0.5c-0.1-0.2-0.2-0.5-0.3-0.8
			c-0.1-0.3-0.1-0.7-0.1-1.1v-7.6c0.1-1.1,0.3-2.1,0.6-3c0.4-0.9,0.8-1.6,1.4-2.2c0.6-0.6,1.2-1.1,1.9-1.4c0.7-0.3,1.4-0.5,2.2-0.5
			c1.4,0,2.5,0.5,3.3,1.4c0.7,0.9,1.1,2.2,1.1,3.7v9.5c0,0.4,0,0.8-0.1,1.1c0,0.3-0.1,0.6-0.3,0.8c-0.1,0.2-0.3,0.4-0.5,0.5
			c-0.1,0-0.1,0.1-0.2,0.1h4.3c-0.1,0-0.2-0.1-0.2-0.1c-0.2-0.1-0.4-0.3-0.5-0.5c-0.1-0.2-0.2-0.5-0.3-0.8c-0.1-0.3-0.1-0.7-0.1-1.1
			v-7.6c0.1-1.1,0.3-2.1,0.6-3c0.4-0.9,0.8-1.6,1.4-2.2c0.6-0.6,1.2-1.1,1.9-1.4c0.7-0.3,1.4-0.5,2.2-0.5c1.5,0,2.6,0.5,3.3,1.4
			c0.7,0.9,1.1,2.2,1.1,3.7v9.5c0,0.4,0,0.8-0.1,1.1c0,0.3-0.1,0.6-0.3,0.8c-0.1,0.2-0.3,0.4-0.5,0.5
			C104.9,23.4,104.9,23.4,104.8,23.4z"/>
	</g>
	<g>
		<path class="st0" d="M120.9,5.9c1.3,0,2.5,0.2,3.6,0.6c1.1,0.4,2,1,2.8,1.8c0.8,0.8,1.4,1.7,1.8,2.8s0.6,2.3,0.6,3.6v0
			c0,1.3-0.2,2.5-0.6,3.6s-1,2-1.8,2.8c-0.8,0.8-1.7,1.4-2.8,1.8c-1.1,0.4-2.3,0.6-3.6,0.6s-2.5-0.2-3.6-0.6c-1.1-0.4-2-1-2.8-1.8
			c-0.8-0.8-1.4-1.7-1.8-2.8c-0.4-1.1-0.6-2.3-0.6-3.6v0c0-1.3,0.2-2.5,0.6-3.6c0.4-1.1,1-2,1.8-2.8c0.8-0.8,1.7-1.4,2.8-1.8
			C118.4,6.1,119.6,5.9,120.9,5.9z M114.5,14.8c0,1.2,0.2,2.4,0.5,3.4c0.3,1,0.7,1.9,1.3,2.7c0.6,0.8,1.2,1.3,2,1.7
			c0.8,0.4,1.7,0.6,2.6,0.6s1.8-0.2,2.6-0.6s1.5-1,2-1.7c0.6-0.8,1-1.6,1.3-2.7c0.3-1,0.5-2.2,0.5-3.4s-0.2-2.4-0.5-3.4
			c-0.3-1-0.7-1.9-1.3-2.7c-0.6-0.7-1.2-1.3-2-1.7c-0.8-0.4-1.7-0.6-2.6-0.6s-1.8,0.2-2.6,0.6c-0.8,0.4-1.5,1-2,1.7
			c-0.6,0.7-1,1.6-1.3,2.7C114.7,12.4,114.5,13.6,114.5,14.8z"/>
		<path class="st0" d="M120.9,23.8c-1.3,0-2.6-0.2-3.6-0.7c-1.1-0.4-2-1.1-2.8-1.9c-0.8-0.8-1.4-1.8-1.9-2.9
			c-0.4-1.1-0.7-2.3-0.7-3.6v0c0-1.3,0.2-2.5,0.7-3.6c0.4-1.1,1.1-2.1,1.9-2.9c0.8-0.8,1.7-1.4,2.8-1.9c1.1-0.4,2.3-0.7,3.6-0.7
			c1.3,0,2.6,0.2,3.6,0.7c1.1,0.4,2,1.1,2.8,1.9c0.8,0.8,1.4,1.8,1.9,2.9c0.4,1.1,0.7,2.3,0.7,3.6v0c0,1.3-0.2,2.5-0.7,3.6
			c-0.4,1.1-1.1,2.1-1.9,2.9c-0.8,0.8-1.7,1.4-2.8,1.9C123.5,23.6,122.2,23.8,120.9,23.8z M120.9,6c-1.3,0-2.5,0.2-3.6,0.6
			c-1.1,0.4-2,1-2.8,1.8c-0.8,0.8-1.4,1.7-1.8,2.8c-0.4,1.1-0.6,2.3-0.6,3.5v0c0,1.3,0.2,2.5,0.6,3.5c0.4,1.1,1,2,1.8,2.8
			c0.8,0.8,1.7,1.4,2.8,1.8c1.1,0.4,2.3,0.6,3.6,0.6c1.3,0,2.5-0.2,3.6-0.6c1.1-0.4,2-1,2.8-1.8c0.8-0.8,1.4-1.7,1.8-2.8
			c0.4-1.1,0.6-2.2,0.6-3.5v0c0-1.3-0.2-2.5-0.6-3.5c-0.4-1.1-1-2-1.8-2.8c-0.8-0.8-1.7-1.4-2.8-1.8C123.4,6.3,122.2,6,120.9,6z
			 M120.9,23.4c-1,0-1.9-0.2-2.7-0.6c-0.8-0.4-1.5-1-2.1-1.8c-0.6-0.8-1-1.7-1.3-2.7c-0.3-1-0.5-2.2-0.5-3.4c0-1.2,0.2-2.4,0.5-3.4
			c0.3-1,0.8-1.9,1.3-2.7c0.6-0.8,1.3-1.3,2.1-1.8c0.8-0.4,1.7-0.6,2.7-0.6c1,0,1.9,0.2,2.7,0.6c0.8,0.4,1.5,1,2.1,1.8
			c0.6,0.8,1,1.7,1.3,2.7c0.3,1,0.5,2.2,0.5,3.4c0,1.2-0.2,2.4-0.5,3.4c-0.3,1-0.8,2-1.3,2.7c-0.6,0.8-1.3,1.4-2.1,1.8
			C122.8,23.2,121.9,23.4,120.9,23.4z M120.9,6.5c-0.9,0-1.8,0.2-2.5,0.6c-0.8,0.4-1.4,1-2,1.7c-0.5,0.7-1,1.6-1.3,2.6
			c-0.3,1-0.5,2.2-0.5,3.4c0,1.2,0.2,2.4,0.5,3.4c0.3,1,0.7,1.9,1.3,2.6c0.5,0.7,1.2,1.3,2,1.7c0.8,0.4,1.6,0.6,2.5,0.6
			c0.9,0,1.8-0.2,2.5-0.6c0.8-0.4,1.4-1,2-1.7c0.5-0.7,1-1.6,1.3-2.6c0.3-1,0.5-2.1,0.5-3.4c0-1.2-0.2-2.4-0.5-3.4
			c-0.3-1-0.7-1.9-1.3-2.6c-0.5-0.7-1.2-1.3-2-1.7C122.7,6.7,121.8,6.5,120.9,6.5z"/>
	</g>
	<g>
		<path class="st0" d="M132.4,23.6c0.3-0.1,0.6-0.2,0.8-0.3c0.2-0.1,0.4-0.3,0.5-0.5c0.1-0.2,0.2-0.4,0.2-0.8c0-0.3,0.1-0.7,0.1-1.1
			V9.4c0-0.4,0-0.8,0-1.1c0-0.3-0.1-0.6-0.1-0.9c-0.1-0.2-0.1-0.5-0.3-0.7c-0.1-0.2-0.3-0.4-0.4-0.6l3.2-0.3v4.9
			c0.5-1.5,1.3-2.7,2.5-3.6c1.1-0.9,2.6-1.3,4.3-1.3c1,0,1.9,0.1,2.6,0.4c0.8,0.3,1.4,0.7,1.9,1.2s0.9,1.1,1.2,1.8
			c0.3,0.7,0.4,1.5,0.4,2.3v9.2c0,0.4,0,0.8,0.1,1.1c0.1,0.3,0.1,0.6,0.3,0.8c0.1,0.2,0.3,0.4,0.5,0.5c0.2,0.1,0.5,0.2,0.8,0.3h-5.5
			c0.3-0.1,0.6-0.2,0.8-0.3c0.2-0.1,0.4-0.3,0.5-0.5c0.1-0.2,0.2-0.4,0.2-0.8c0-0.3,0.1-0.7,0.1-1.1v-9.5c0-1.5-0.4-2.8-1.1-3.6
			c-0.7-0.9-1.8-1.3-3.3-1.3c-0.8,0-1.6,0.1-2.3,0.4c-0.7,0.3-1.4,0.7-2,1.3c-0.6,0.6-1,1.3-1.4,2.1c-0.4,0.8-0.6,1.8-0.6,2.9v7.6
			c0,0.4,0,0.8,0.1,1.1c0.1,0.3,0.1,0.6,0.3,0.8c0.1,0.2,0.3,0.4,0.5,0.5c0.2,0.1,0.5,0.2,0.8,0.3H132.4z"/>
		<path class="st0" d="M151.6,23.7h-7l0.7-0.2c0.3-0.1,0.6-0.2,0.8-0.3c0.2-0.1,0.3-0.3,0.5-0.4c0.1-0.2,0.2-0.4,0.2-0.7
			c0-0.3,0.1-0.7,0.1-1.1v-9.5c0-1.5-0.4-2.7-1.1-3.6C145,7,144,6.6,142.6,6.6c-0.8,0-1.5,0.1-2.3,0.4c-0.7,0.3-1.4,0.7-1.9,1.3
			c-0.6,0.6-1,1.3-1.4,2.1c-0.4,0.8-0.6,1.8-0.6,2.9l0,7.6c0,0.4,0,0.8,0.1,1.1c0,0.3,0.1,0.5,0.2,0.7c0.1,0.2,0.3,0.3,0.5,0.5
			c0.2,0.1,0.5,0.2,0.7,0.3l0.7,0.2h-7l0.7-0.2c0.3-0.1,0.6-0.2,0.8-0.3c0.2-0.1,0.3-0.3,0.5-0.4c0.1-0.2,0.2-0.4,0.2-0.7
			c0-0.3,0.1-0.7,0.1-1.1V9.4c0-0.4,0-0.8,0-1.1c0-0.3-0.1-0.6-0.1-0.8c-0.1-0.2-0.1-0.5-0.3-0.7c-0.1-0.2-0.2-0.4-0.4-0.6l-0.1-0.2
			l3.5-0.3v4.4c0.5-1.2,1.3-2.3,2.3-3c1.2-0.9,2.6-1.3,4.4-1.3c1,0,1.9,0.1,2.7,0.4c0.8,0.3,1.4,0.7,2,1.2c0.5,0.5,1,1.2,1.2,1.9
			c0.3,0.7,0.4,1.5,0.4,2.4v9.2c0,0.4,0,0.8,0.1,1.1c0,0.3,0.1,0.5,0.2,0.7c0.1,0.2,0.3,0.3,0.5,0.5c0.2,0.1,0.5,0.2,0.8,0.3
			L151.6,23.7z M146,23.4h4.3c-0.1,0-0.2-0.1-0.2-0.1c-0.2-0.1-0.4-0.3-0.5-0.5c-0.1-0.2-0.2-0.5-0.3-0.8c-0.1-0.3-0.1-0.7-0.1-1.1
			v-9.2c0-0.8-0.1-1.6-0.4-2.3c-0.3-0.7-0.7-1.3-1.2-1.8s-1.1-0.9-1.9-1.2C144.9,6.2,144,6,143.1,6c-1.7,0-3.2,0.4-4.3,1.3
			c-1.1,0.9-1.9,2-2.4,3.5l-0.2,0.7V6l-2.8,0.2c0.1,0.2,0.2,0.3,0.3,0.5c0.1,0.2,0.2,0.5,0.3,0.7C134,7.7,134,8,134,8.3
			c0,0.3,0,0.7,0,1.1v11.4c0,0.4,0,0.8-0.1,1.1c0,0.3-0.1,0.6-0.3,0.8c-0.1,0.2-0.3,0.4-0.5,0.5c-0.1,0-0.1,0.1-0.2,0.1h4.3
			c-0.1,0-0.2-0.1-0.2-0.1c-0.2-0.1-0.4-0.3-0.5-0.5c-0.1-0.2-0.2-0.5-0.3-0.8c-0.1-0.3-0.1-0.7-0.1-1.1v-7.6c0.1-1.1,0.3-2.1,0.6-3
			c0.4-0.9,0.8-1.6,1.4-2.2s1.3-1,2-1.3c0.8-0.3,1.5-0.5,2.4-0.5c1.5,0,2.6,0.5,3.3,1.4c0.8,0.9,1.1,2.1,1.1,3.7v9.5
			c0,0.4,0,0.8-0.1,1.1c0,0.3-0.1,0.6-0.3,0.8c-0.1,0.2-0.3,0.4-0.5,0.5C146.2,23.4,146.1,23.4,146,23.4z"/>
	</g>
	<g>
		<path class="st0" d="M161.6,5.9c1,0,1.9,0.1,2.7,0.4c0.8,0.3,1.6,0.7,2.3,1.3v-5c0-0.6-0.1-1.1-0.2-1.4c-0.1-0.3-0.3-0.6-0.6-0.8
			l3.1-0.4v20.4c0,0.9,0.1,1.5,0.2,2c0.1,0.4,0.4,0.8,0.6,1.1l-3,0.1v-2.4c-0.6,0.9-1.4,1.5-2.3,1.9s-1.8,0.6-2.8,0.6
			c-1.3,0-2.5-0.2-3.5-0.6c-1.1-0.4-2-1-2.7-1.8c-0.7-0.8-1.3-1.6-1.7-2.7c-0.4-1-0.6-2.1-0.6-3.3c0-1.4,0.2-2.6,0.6-3.8
			c0.4-1.1,1-2.1,1.8-3c0.8-0.8,1.7-1.5,2.7-1.9C159.3,6.1,160.4,5.9,161.6,5.9z M155.5,14c0,1.3,0.1,2.4,0.4,3.6
			c0.3,1.1,0.7,2.1,1.3,2.9c0.6,0.8,1.3,1.5,2.2,2c0.8,0.5,1.8,0.7,2.9,0.7c0.9,0,1.7-0.2,2.4-0.7s1.4-1.1,1.9-1.8V10.2
			c-0.5-1.3-1.3-2.2-2.2-2.8c-0.9-0.6-1.9-0.9-3.1-0.9c-0.9,0-1.8,0.2-2.5,0.5c-0.7,0.4-1.4,0.9-1.9,1.5c-0.5,0.7-0.9,1.5-1.2,2.4
			C155.6,11.8,155.5,12.9,155.5,14z"/>
		<path class="st0" d="M161.7,23.8c-1.3,0-2.5-0.2-3.6-0.7c-1.1-0.4-2-1-2.7-1.8c-0.8-0.8-1.3-1.7-1.8-2.7c-0.4-1-0.6-2.2-0.6-3.4
			c0-1.4,0.2-2.7,0.6-3.8c0.4-1.2,1-2.2,1.8-3c0.8-0.8,1.7-1.5,2.7-1.9c1.1-0.5,2.2-0.7,3.5-0.7c1,0,1.9,0.2,2.8,0.5
			c0.8,0.3,1.5,0.7,2.1,1.2V2.7c0-0.6,0-1.1-0.1-1.4c-0.1-0.3-0.3-0.5-0.6-0.8l-0.2-0.2l3.5-0.4v20.5c0,0.9,0.1,1.5,0.2,1.9
			c0.1,0.4,0.3,0.7,0.6,1l0.2,0.2l-3.4,0.1v-2.2c-0.6,0.7-1.3,1.3-2.2,1.6C163.6,23.6,162.6,23.8,161.7,23.8z M161.6,6
			c-1.2,0-2.3,0.2-3.4,0.7c-1,0.4-1.9,1.1-2.7,1.9c-0.8,0.8-1.3,1.8-1.8,2.9c-0.4,1.1-0.6,2.4-0.6,3.7c0,1.2,0.2,2.3,0.6,3.3
			c0.4,1,1,1.9,1.7,2.6c0.7,0.7,1.6,1.3,2.7,1.8c1,0.4,2.2,0.6,3.5,0.6c0.9,0,1.8-0.2,2.7-0.6c0.9-0.4,1.6-1,2.3-1.8l0.2-0.3v2.6
			l2.7-0.1c-0.2-0.3-0.4-0.6-0.5-0.9c-0.2-0.4-0.2-1.1-0.2-2V0.3l-2.7,0.3c0.2,0.2,0.4,0.4,0.5,0.7c0.1,0.3,0.2,0.8,0.2,1.4V8
			l-0.2-0.2c-0.7-0.6-1.4-1-2.3-1.3C163.5,6.2,162.6,6,161.6,6z M162.3,23.3c-1.1,0-2.1-0.3-2.9-0.7c-0.9-0.5-1.6-1.2-2.2-2
			c-0.6-0.8-1-1.8-1.3-3c-0.3-1.1-0.5-2.3-0.5-3.6c0-1.1,0.1-2.2,0.4-3.1c0.3-0.9,0.7-1.8,1.2-2.4c0.5-0.7,1.2-1.2,1.9-1.6
			c0.7-0.4,1.6-0.6,2.5-0.6c1.2,0,2.2,0.3,3.1,0.9c0.9,0.6,1.7,1.6,2.2,2.9l0,0v10.5l0,0c-0.5,0.8-1.2,1.4-2,1.9
			C164,23.1,163.2,23.3,162.3,23.3z M161.4,6.6c-0.9,0-1.7,0.2-2.4,0.5c-0.7,0.4-1.3,0.9-1.8,1.5c-0.5,0.6-0.9,1.4-1.2,2.3
			c-0.3,0.9-0.4,1.9-0.4,3.1c0,1.2,0.1,2.4,0.4,3.5c0.3,1.1,0.7,2.1,1.3,2.9c0.6,0.8,1.3,1.5,2.1,1.9c0.8,0.5,1.8,0.7,2.8,0.7
			c0.9,0,1.7-0.2,2.4-0.6c0.7-0.4,1.3-1,1.9-1.8V10.2C166,9,165.3,8,164.4,7.4C163.6,6.9,162.5,6.6,161.4,6.6z"/>
	</g>
	<g>
		<path class="st0" d="M182.6,23.6c0.7-0.2,1.1-0.5,1.3-0.8c0.2-0.4,0.3-1,0.3-1.9V4.8c0-0.5,0-0.8-0.1-1.1
			c-0.1-0.3-0.1-0.6-0.3-0.8c-0.1-0.2-0.3-0.4-0.5-0.5c-0.2-0.1-0.5-0.2-0.8-0.3h7.1c2.4,0,4.4,0.4,5.8,1.3c1.4,0.9,2.1,2.1,2.1,3.8
			c0,1.4-0.5,2.5-1.5,3.4c-1,0.9-2.5,1.6-4.3,1.9c2.1,0.2,3.7,0.8,4.8,1.7c1.2,0.9,1.7,2.1,1.7,3.5c0,0.9-0.2,1.8-0.6,2.5
			c-0.4,0.7-0.9,1.3-1.6,1.8c-0.7,0.5-1.5,0.9-2.5,1.2c-1,0.3-2.1,0.4-3.3,0.4H182.6z M186.6,12.3h3.3c1.6,0,2.9-0.5,3.8-1.4
			c0.9-0.9,1.4-2.1,1.4-3.6c0-1.5-0.5-2.7-1.5-3.6c-1-0.8-2.5-1.2-4.3-1.2h-2.7V12.3z M186.6,23.1h3.3c1.9,0,3.3-0.5,4.3-1.4
			c1-0.9,1.5-2.2,1.5-3.9c0-1.6-0.5-2.9-1.6-3.7c-1-0.9-2.4-1.3-4.2-1.3h-3.4V23.1z"/>
		<path class="st0" d="M190.4,23.7h-8.7l0.8-0.2c0.6-0.2,1.1-0.4,1.3-0.8c0.2-0.4,0.3-1,0.3-1.8V4.8c0-0.4,0-0.8-0.1-1.1
			c0-0.3-0.1-0.5-0.2-0.7c-0.1-0.2-0.3-0.3-0.5-0.5c-0.2-0.1-0.5-0.2-0.8-0.3l-0.9-0.2h8c2.4,0,4.4,0.4,5.8,1.3
			c1.5,0.9,2.2,2.2,2.2,3.9c0,1.4-0.5,2.6-1.6,3.5c-0.9,0.8-2.2,1.4-3.7,1.8c1.8,0.3,3.2,0.8,4.2,1.6c1.2,0.9,1.8,2.1,1.8,3.6
			c0,0.9-0.2,1.8-0.6,2.5c-0.4,0.7-0.9,1.4-1.6,1.9c-0.7,0.5-1.5,0.9-2.5,1.2C192.7,23.5,191.6,23.7,190.4,23.7z M183.2,23.4h7.1
			c1.2,0,2.3-0.1,3.3-0.4c1-0.3,1.8-0.6,2.5-1.1c0.7-0.5,1.2-1.1,1.5-1.8c0.4-0.7,0.5-1.5,0.5-2.4c0-1.4-0.6-2.5-1.7-3.4
			c-1.1-0.9-2.8-1.4-4.8-1.7l-0.8-0.1l0.8-0.1c1.8-0.3,3.2-0.9,4.2-1.9c1-0.9,1.5-2,1.5-3.3c0-1.6-0.7-2.8-2.1-3.7
			c-1.4-0.9-3.3-1.3-5.7-1.3h-6.4c0.1,0,0.1,0.1,0.2,0.1c0.2,0.1,0.4,0.3,0.5,0.6c0.1,0.2,0.2,0.5,0.3,0.8c0.1,0.3,0.1,0.7,0.1,1.1
			v16.1c0,0.9-0.1,1.6-0.4,2C183.9,23,183.6,23.3,183.2,23.4z M189.9,23.2h-3.4V12.6h3.6c1.8,0,3.2,0.5,4.3,1.3
			c1.1,0.9,1.6,2.2,1.6,3.8c0,1.7-0.5,3-1.6,4C193.3,22.7,191.8,23.2,189.9,23.2z M186.7,22.9h3.2c1.8,0,3.2-0.5,4.3-1.4
			c1-0.9,1.5-2.2,1.5-3.8c0-1.6-0.5-2.8-1.5-3.6c-1-0.9-2.4-1.3-4.1-1.3h-3.3V22.9z M189.9,12.4h-3.4v-10h2.8c1.9,0,3.4,0.4,4.4,1.3
			c1,0.8,1.6,2.1,1.6,3.7c0,1.5-0.5,2.7-1.4,3.6C192.8,11.9,191.5,12.4,189.9,12.4z M186.7,12.1h3.2c1.5,0,2.8-0.4,3.7-1.3
			c0.9-0.9,1.4-2,1.4-3.5c0-1.5-0.5-2.7-1.5-3.5c-1-0.8-2.4-1.2-4.2-1.2h-2.5V12.1z"/>
	</g>
	<g>
		<path class="st0" d="M201.2,23.6c0.3-0.1,0.6-0.2,0.8-0.3c0.2-0.1,0.4-0.3,0.5-0.5c0.1-0.2,0.2-0.4,0.2-0.8c0-0.3,0.1-0.7,0.1-1.1
			V9.4c0-0.4,0-0.8,0-1.1c0-0.3-0.1-0.6-0.1-0.9c-0.1-0.2-0.1-0.5-0.3-0.7c-0.1-0.2-0.3-0.4-0.4-0.6l3.1-0.3V10
			c0.2-0.6,0.5-1.1,0.8-1.6s0.7-0.9,1.1-1.3c0.4-0.4,0.9-0.7,1.4-0.9c0.5-0.2,1.2-0.3,1.9-0.3c0.7,0,1.2,0.1,1.8,0.2l0,3
			c-0.2-0.2-0.4-0.5-0.7-0.7c-0.3-0.2-0.5-0.5-0.8-0.7c-0.3-0.2-0.6-0.4-0.9-0.5c-0.3-0.1-0.6-0.2-1-0.2c-0.4,0-0.8,0.1-1.1,0.3
			c-0.4,0.2-0.7,0.5-1,0.8c-0.3,0.3-0.6,0.7-0.8,1.2c-0.2,0.5-0.5,1-0.6,1.5v10c0,0.4,0,0.8,0.1,1.1c0.1,0.3,0.1,0.6,0.3,0.8
			c0.1,0.2,0.3,0.4,0.5,0.5c0.2,0.1,0.5,0.2,0.8,0.3H201.2z"/>
		<path class="st0" d="M207.5,23.7h-7l0.7-0.2c0.3-0.1,0.6-0.2,0.8-0.3c0.2-0.1,0.3-0.3,0.5-0.4c0.1-0.2,0.2-0.4,0.2-0.7
			c0-0.3,0.1-0.7,0.1-1.1V9.4c0-0.4,0-0.8,0-1.1c0-0.3-0.1-0.6-0.1-0.8c-0.1-0.2-0.1-0.5-0.3-0.7c-0.1-0.2-0.2-0.4-0.4-0.6l-0.1-0.2
			l3.5-0.3v3.7c0.2-0.4,0.4-0.8,0.6-1.1c0.3-0.5,0.7-0.9,1.1-1.3c0.4-0.4,0.9-0.7,1.5-0.9c0.6-0.2,1.2-0.3,1.9-0.3
			c0.7,0,1.3,0.1,1.8,0.2l0.1,0l0,3.4L212,9.2c-0.2-0.2-0.4-0.5-0.7-0.7c-0.3-0.2-0.5-0.5-0.8-0.7c-0.3-0.2-0.6-0.4-0.9-0.5
			c-0.7-0.3-1.4-0.2-2,0.1c-0.3,0.2-0.7,0.5-0.9,0.8c-0.3,0.3-0.6,0.7-0.8,1.2c-0.2,0.5-0.5,0.9-0.6,1.4v10c0,0.4,0,0.8,0.1,1.1
			c0,0.3,0.1,0.5,0.2,0.7c0.1,0.2,0.3,0.3,0.5,0.5c0.2,0.1,0.5,0.2,0.7,0.3L207.5,23.7z M201.9,23.4h4.3c-0.1,0-0.2-0.1-0.2-0.1
			c-0.2-0.1-0.4-0.3-0.5-0.5c-0.1-0.2-0.2-0.5-0.3-0.8c-0.1-0.3-0.1-0.7-0.1-1.1l0-10.1c0.2-0.5,0.4-1,0.7-1.5
			c0.3-0.5,0.5-0.9,0.8-1.2c0.3-0.3,0.6-0.6,1-0.8c0.7-0.4,1.5-0.4,2.2-0.1c0.3,0.1,0.6,0.3,0.9,0.5c0.3,0.2,0.6,0.4,0.8,0.7
			c0.2,0.2,0.3,0.3,0.5,0.5l0-2.6c-0.5-0.1-1-0.2-1.6-0.2c-0.7,0-1.3,0.1-1.8,0.3c-0.5,0.2-1,0.5-1.4,0.8c-0.4,0.4-0.8,0.8-1.1,1.3
			c-0.3,0.5-0.6,1-0.8,1.6l-0.2,0.5V6l-2.8,0.2c0.1,0.2,0.2,0.3,0.3,0.5c0.1,0.2,0.2,0.5,0.3,0.7c0.1,0.3,0.1,0.5,0.1,0.9
			c0,0.3,0,0.7,0,1.1v11.4c0,0.4,0,0.8-0.1,1.1c0,0.3-0.1,0.6-0.3,0.8c-0.1,0.2-0.3,0.4-0.5,0.5C202,23.4,201.9,23.4,201.9,23.4z"/>
	</g>
	<g>
		<path class="st0" d="M223.2,5.9c1.3,0,2.5,0.2,3.6,0.6c1.1,0.4,2,1,2.8,1.8c0.8,0.8,1.4,1.7,1.8,2.8s0.6,2.3,0.6,3.6v0
			c0,1.3-0.2,2.5-0.6,3.6s-1,2-1.8,2.8c-0.8,0.8-1.7,1.4-2.8,1.8c-1.1,0.4-2.3,0.6-3.6,0.6c-1.3,0-2.5-0.2-3.6-0.6
			c-1.1-0.4-2-1-2.8-1.8c-0.8-0.8-1.4-1.7-1.8-2.8c-0.4-1.1-0.6-2.3-0.6-3.6v0c0-1.3,0.2-2.5,0.6-3.6c0.4-1.1,1-2,1.8-2.8
			c0.8-0.8,1.7-1.4,2.8-1.8C220.6,6.1,221.8,5.9,223.2,5.9z M216.8,14.8c0,1.2,0.2,2.4,0.5,3.4c0.3,1,0.7,1.9,1.3,2.7
			c0.6,0.8,1.2,1.3,2,1.7c0.8,0.4,1.7,0.6,2.6,0.6s1.8-0.2,2.6-0.6c0.8-0.4,1.5-1,2-1.7c0.6-0.8,1-1.6,1.3-2.7
			c0.3-1,0.5-2.2,0.5-3.4s-0.2-2.4-0.5-3.4c-0.3-1-0.7-1.9-1.3-2.7c-0.6-0.7-1.2-1.3-2-1.7c-0.8-0.4-1.7-0.6-2.6-0.6
			s-1.8,0.2-2.6,0.6c-0.8,0.4-1.5,1-2,1.7c-0.6,0.7-1,1.6-1.3,2.7C216.9,12.4,216.8,13.6,216.8,14.8z"/>
		<path class="st0" d="M223.2,23.8c-1.3,0-2.6-0.2-3.6-0.7c-1.1-0.4-2-1.1-2.8-1.9c-0.8-0.8-1.4-1.8-1.9-2.9
			c-0.4-1.1-0.7-2.3-0.7-3.6v0c0-1.3,0.2-2.5,0.7-3.6c0.4-1.1,1.1-2.1,1.9-2.9c0.8-0.8,1.7-1.4,2.8-1.9c1.1-0.4,2.3-0.7,3.6-0.7
			s2.6,0.2,3.7,0.7c1.1,0.4,2,1.1,2.8,1.9c0.8,0.8,1.4,1.8,1.9,2.9c0.4,1.1,0.7,2.3,0.7,3.6v0c0,1.3-0.2,2.5-0.7,3.6
			c-0.4,1.1-1.1,2.1-1.9,2.9c-0.8,0.8-1.7,1.4-2.8,1.9C225.7,23.6,224.5,23.8,223.2,23.8z M223.2,6c-1.3,0-2.5,0.2-3.6,0.6
			c-1.1,0.4-2,1-2.8,1.8c-0.8,0.8-1.4,1.7-1.8,2.8c-0.4,1.1-0.6,2.3-0.6,3.5v0c0,1.3,0.2,2.5,0.6,3.5c0.4,1.1,1,2,1.8,2.8
			c0.8,0.8,1.7,1.4,2.8,1.8c1.1,0.4,2.3,0.6,3.6,0.6c1.3,0,2.5-0.2,3.6-0.6c1.1-0.4,2-1,2.8-1.8c0.8-0.8,1.4-1.7,1.8-2.8
			c0.4-1.1,0.6-2.2,0.6-3.5v0c0-1.3-0.2-2.5-0.6-3.5c-0.4-1.1-1-2-1.8-2.8c-0.8-0.8-1.7-1.4-2.8-1.8C225.6,6.3,224.5,6,223.2,6z
			 M223.2,23.4c-1,0-1.9-0.2-2.7-0.6c-0.8-0.4-1.5-1-2.1-1.8c-0.6-0.8-1-1.7-1.3-2.7c-0.3-1-0.5-2.2-0.5-3.4c0-1.2,0.2-2.4,0.5-3.4
			c0.3-1,0.8-1.9,1.3-2.7c0.6-0.8,1.3-1.3,2.1-1.8c0.8-0.4,1.7-0.6,2.7-0.6s1.9,0.2,2.7,0.6c0.8,0.4,1.5,1,2.1,1.8
			c0.6,0.8,1,1.7,1.3,2.7c0.3,1,0.5,2.2,0.5,3.4c0,1.2-0.2,2.4-0.5,3.4c-0.3,1-0.8,2-1.3,2.7c-0.6,0.8-1.3,1.4-2.1,1.8
			C225,23.2,224.1,23.4,223.2,23.4z M223.2,6.5c-0.9,0-1.8,0.2-2.5,0.6c-0.8,0.4-1.4,1-2,1.7c-0.5,0.7-1,1.6-1.3,2.6
			c-0.3,1-0.5,2.2-0.5,3.4c0,1.2,0.2,2.4,0.5,3.4c0.3,1,0.7,1.9,1.3,2.6c0.5,0.7,1.2,1.3,2,1.7c0.8,0.4,1.6,0.6,2.5,0.6
			c0.9,0,1.8-0.2,2.5-0.6c0.8-0.4,1.4-1,2-1.7c0.5-0.7,1-1.6,1.3-2.6c0.3-1,0.5-2.1,0.5-3.4c0-1.2-0.2-2.4-0.5-3.4
			c-0.3-1-0.7-1.9-1.3-2.6c-0.5-0.7-1.2-1.3-2-1.7C224.9,6.7,224.1,6.5,223.2,6.5z"/>
	</g>
	<g>
		<path class="st0" d="M238,6.1c-0.2,0.1-0.3,0.4-0.4,0.6c-0.1,0.3-0.1,0.7,0.2,1.3l4.3,12.1l4.4-14h0.2l5.6,14.2l3.4-10.4
			c0.3-0.8,0.4-1.5,0.5-2c0-0.5,0-0.8-0.1-1.1c-0.1-0.3-0.2-0.4-0.4-0.5c-0.1-0.1-0.3-0.2-0.4-0.2h3c-0.3,0.2-0.6,0.4-0.9,0.8
			c-0.3,0.3-0.6,1-0.9,1.9l-4.8,14.9h-0.4l-5.5-14l-4.4,14H241l-5.4-14.8c-0.4-0.9-0.6-1.6-0.9-2c-0.2-0.4-0.5-0.6-0.7-0.7H238z"/>
		<path class="st0" d="M251.8,23.7h-0.5l0-0.1l-5.4-13.7l-4.3,13.8H241l0-0.1l-5.4-14.8c-0.3-0.9-0.6-1.6-0.9-2
			c-0.2-0.4-0.4-0.6-0.6-0.7L233.6,6h4.7L238,6.2c-0.2,0.1-0.3,0.3-0.4,0.6c-0.1,0.2-0.1,0.5,0.2,1.2l4.2,11.7l4.3-13.8h0.4l0,0.1
			l5.5,13.9l3.3-10.1c0.3-0.8,0.4-1.5,0.5-2c0-0.5,0-0.8-0.1-1c-0.1-0.2-0.2-0.4-0.3-0.4c-0.1-0.1-0.3-0.2-0.4-0.2L254.9,6h3.9
			l-0.4,0.2c-0.3,0.2-0.6,0.4-0.9,0.7c-0.3,0.3-0.6,0.9-0.9,1.8L251.8,23.7z M251.4,23.4h0.2l4.8-14.8c0.3-0.9,0.6-1.6,0.9-1.9
			c0.2-0.2,0.4-0.4,0.6-0.6h-2.2c0.2,0.1,0.3,0.3,0.4,0.6c0.1,0.3,0.1,0.7,0.1,1.1c0,0.5-0.2,1.2-0.5,2l-3.5,10.7l-5.7-14.4h-0.1
			L242,20.4L237.6,8c-0.2-0.6-0.3-1.1-0.2-1.4c0.1-0.2,0.2-0.3,0.3-0.5h-3.2c0.1,0.1,0.3,0.3,0.4,0.6c0.3,0.4,0.6,1.1,0.9,2
			l5.3,14.7h0.2l4.5-14.2L251.4,23.4z"/>
	</g>
	<g>
		<path class="st0" d="M260.3,23.6c0.3-0.1,0.6-0.2,0.8-0.3c0.2-0.1,0.4-0.3,0.5-0.5c0.1-0.2,0.2-0.4,0.2-0.8c0-0.3,0.1-0.7,0.1-1.1
			V9.4c0-0.4,0-0.8,0-1.1c0-0.3-0.1-0.6-0.1-0.9c-0.1-0.2-0.1-0.5-0.3-0.7c-0.1-0.2-0.3-0.4-0.4-0.6l3.2-0.3v4.9
			c0.5-1.5,1.3-2.7,2.5-3.6c1.1-0.9,2.6-1.3,4.3-1.3c1,0,1.9,0.1,2.6,0.4c0.8,0.3,1.4,0.7,1.9,1.2s0.9,1.1,1.2,1.8
			c0.3,0.7,0.4,1.5,0.4,2.3v9.2c0,0.4,0,0.8,0.1,1.1c0.1,0.3,0.1,0.6,0.3,0.8c0.1,0.2,0.3,0.4,0.5,0.5c0.2,0.1,0.5,0.2,0.8,0.3h-5.5
			c0.3-0.1,0.6-0.2,0.8-0.3c0.2-0.1,0.4-0.3,0.5-0.5c0.1-0.2,0.2-0.4,0.2-0.8c0-0.3,0.1-0.7,0.1-1.1v-9.5c0-1.5-0.4-2.8-1.1-3.6
			c-0.7-0.9-1.8-1.3-3.3-1.3c-0.8,0-1.6,0.1-2.3,0.4c-0.7,0.3-1.4,0.7-2,1.3c-0.6,0.6-1,1.3-1.4,2.1c-0.4,0.8-0.6,1.8-0.6,2.9v7.6
			c0,0.4,0,0.8,0.1,1.1c0.1,0.3,0.1,0.6,0.3,0.8c0.1,0.2,0.3,0.4,0.5,0.5c0.2,0.1,0.5,0.2,0.8,0.3H260.3z"/>
		<path class="st0" d="M279.5,23.7h-7l0.7-0.2c0.3-0.1,0.6-0.2,0.8-0.3c0.2-0.1,0.3-0.3,0.5-0.4c0.1-0.2,0.2-0.4,0.2-0.7
			c0-0.3,0.1-0.7,0.1-1.1v-9.5c0-1.5-0.4-2.7-1.1-3.6c-0.7-0.8-1.8-1.3-3.2-1.3c-0.8,0-1.5,0.1-2.3,0.4c-0.7,0.3-1.4,0.7-1.9,1.3
			c-0.6,0.6-1,1.3-1.4,2.1c-0.4,0.8-0.6,1.8-0.6,2.9l0,7.6c0,0.4,0,0.8,0.1,1.1c0,0.3,0.1,0.5,0.2,0.7c0.1,0.2,0.3,0.3,0.5,0.5
			c0.2,0.1,0.5,0.2,0.7,0.3l0.7,0.2h-7l0.7-0.2c0.3-0.1,0.6-0.2,0.8-0.3c0.2-0.1,0.3-0.3,0.5-0.4c0.1-0.2,0.2-0.4,0.2-0.7
			c0-0.3,0.1-0.7,0.1-1.1V9.4c0-0.4,0-0.8,0-1.1c0-0.3-0.1-0.6-0.1-0.8c-0.1-0.2-0.1-0.5-0.3-0.7c-0.1-0.2-0.2-0.4-0.4-0.6l-0.1-0.2
			l3.5-0.3v4.4c0.5-1.2,1.3-2.3,2.3-3c1.2-0.9,2.6-1.3,4.4-1.3c1,0,1.9,0.1,2.7,0.4c0.8,0.3,1.4,0.7,2,1.2c0.5,0.5,1,1.2,1.2,1.9
			c0.3,0.7,0.4,1.5,0.4,2.4v9.2c0,0.4,0,0.8,0.1,1.1c0,0.3,0.1,0.5,0.2,0.7c0.1,0.2,0.3,0.3,0.5,0.5c0.2,0.1,0.5,0.2,0.8,0.3
			L279.5,23.7z M273.9,23.4h4.3c-0.1,0-0.2-0.1-0.2-0.1c-0.2-0.1-0.4-0.3-0.5-0.5c-0.1-0.2-0.2-0.5-0.3-0.8
			c-0.1-0.3-0.1-0.7-0.1-1.1v-9.2c0-0.8-0.1-1.6-0.4-2.3c-0.3-0.7-0.7-1.3-1.2-1.8s-1.1-0.9-1.9-1.2C272.8,6.2,272,6,271,6
			c-1.7,0-3.2,0.4-4.3,1.3c-1.1,0.9-1.9,2-2.4,3.5l-0.2,0.7V6l-2.8,0.2c0.1,0.2,0.2,0.3,0.3,0.5c0.1,0.2,0.2,0.5,0.3,0.7
			c0.1,0.3,0.1,0.5,0.1,0.9c0,0.3,0,0.7,0,1.1v11.4c0,0.4,0,0.8-0.1,1.1c0,0.3-0.1,0.6-0.3,0.8c-0.1,0.2-0.3,0.4-0.5,0.5
			c-0.1,0-0.1,0.1-0.2,0.1h4.3c-0.1,0-0.2-0.1-0.2-0.1c-0.2-0.1-0.4-0.3-0.5-0.5c-0.1-0.2-0.2-0.5-0.3-0.8c-0.1-0.3-0.1-0.7-0.1-1.1
			v-7.6c0.1-1.1,0.3-2.1,0.6-3c0.4-0.9,0.8-1.6,1.4-2.2c0.6-0.6,1.3-1,2-1.3c0.8-0.3,1.5-0.5,2.4-0.5c1.5,0,2.6,0.5,3.3,1.4
			c0.8,0.9,1.1,2.1,1.1,3.7v9.5c0,0.4,0,0.8-0.1,1.1c0,0.3-0.1,0.6-0.3,0.8c-0.1,0.2-0.3,0.4-0.5,0.5
			C274.1,23.4,274,23.4,273.9,23.4z"/>
	</g>
</g>
</svg>
