<?xml version="1.0" encoding="utf-8"?>
<!-- Generator: Adobe Illustrator 25.4.1, SVG Export Plug-In . SVG Version: 6.00 Build 0)  -->
<svg version="1.1" id="レイヤー_1" xmlns="http://www.w3.org/2000/svg" xmlns:xlink="http://www.w3.org/1999/xlink" x="0px"
	 y="0px" viewBox="0 0 280 29" style="enable-background:new 0 0 280 29;" xml:space="preserve">
<style type="text/css">
	.st0{fill:#635444;}
</style>
<g>
	<g>
		<g>
			<path class="st0" d="M13,12.8c0-1.6,0.2-3.1,0.6-4.5s0.9-2.5,1.6-3.4c0.7-0.9,1.5-1.7,2.5-2.2c1-0.5,2-0.8,3.2-0.8
				c1.2,0,2.3,0.3,3.2,0.8s1.8,1.3,2.5,2.2c0.7,0.9,1.2,2.1,1.6,3.4c0.4,1.3,0.6,2.8,0.6,4.5c0,1.6-0.2,3.1-0.6,4.5
				c-0.4,1.3-0.9,2.5-1.6,3.4c-0.7,0.9-1.5,1.7-2.5,2.2c-1,0.5-2,0.8-3.2,0.8c-1.2,0-2.2-0.3-3.2-0.8c-1-0.5-1.8-1.3-2.5-2.2
				c-0.7-0.9-1.2-2.1-1.6-3.4C13.2,15.9,13,14.4,13,12.8z M15.6,12.8c0,3.3,0.4,5.8,1.3,7.7c0.9,1.8,2.2,2.8,3.9,2.8
				c1.7,0,3-0.9,3.9-2.8c0.9-1.8,1.3-4.4,1.3-7.7c0-3.3-0.4-5.8-1.3-7.7c-0.9-1.8-2.2-2.8-3.9-2.8c-1.7,0-3,0.9-3.9,2.8
				C16.1,6.9,15.6,9.5,15.6,12.8z"/>
			<path class="st0" d="M20.9,23.8c-1.2,0-2.3-0.3-3.3-0.8c-1-0.5-1.8-1.3-2.5-2.2c-0.7-1-1.2-2.1-1.6-3.5c-0.4-1.4-0.6-2.9-0.6-4.5
				c0-1.6,0.2-3.2,0.6-4.5c0.4-1.3,0.9-2.5,1.6-3.5c0.7-1,1.5-1.7,2.5-2.2c1-0.5,2.1-0.8,3.3-0.8c1.2,0,2.3,0.3,3.3,0.8
				c1,0.5,1.8,1.3,2.5,2.2c0.7,1,1.2,2.1,1.6,3.5c0.4,1.3,0.6,2.9,0.6,4.5c0,1.6-0.2,3.1-0.6,4.5c-0.4,1.4-0.9,2.5-1.6,3.5
				c-0.7,1-1.5,1.7-2.5,2.2C23.2,23.5,22.1,23.8,20.9,23.8z M20.9,2c-1.1,0-2.2,0.3-3.2,0.8c-0.9,0.5-1.8,1.2-2.4,2.2
				C14.6,5.9,14,7,13.7,8.3c-0.4,1.3-0.6,2.8-0.6,4.4c0,1.6,0.2,3.1,0.6,4.4c0.4,1.3,0.9,2.5,1.6,3.4c0.7,0.9,1.5,1.7,2.4,2.2
				c0.9,0.5,2,0.8,3.2,0.8c1.2,0,2.2-0.3,3.2-0.8c0.9-0.5,1.8-1.2,2.4-2.2c0.7-0.9,1.2-2.1,1.6-3.4c0.4-1.3,0.6-2.8,0.6-4.4
				c0-1.6-0.2-3.1-0.6-4.4c-0.4-1.3-0.9-2.5-1.6-3.4C25.8,4,25,3.3,24,2.8C23.1,2.2,22,2,20.9,2z M20.9,23.3c-1.7,0-3.1-1-4-2.8
				c-0.9-1.8-1.4-4.4-1.4-7.7c0-3.3,0.5-5.9,1.4-7.7c0.9-1.9,2.3-2.8,4-2.8c1.7,0,3.1,1,4,2.8c0.9,1.9,1.4,4.5,1.4,7.7
				c0,3.3-0.5,5.9-1.4,7.7C24,22.4,22.6,23.3,20.9,23.3z M20.9,2.4c-1.6,0-2.9,0.9-3.8,2.7c-0.9,1.8-1.3,4.4-1.3,7.6
				c0,3.2,0.4,5.8,1.3,7.6c0.9,1.8,2.1,2.7,3.8,2.7c1.7,0,2.9-0.9,3.8-2.7c0.9-1.8,1.3-4.4,1.3-7.6c0-3.2-0.4-5.8-1.3-7.6
				C23.8,3.4,22.5,2.4,20.9,2.4z"/>
		</g>
		<g>
			<path class="st0" d="M32.1,12.8c0-1.6,0.2-3.1,0.6-4.5s1-2.5,1.7-3.4C35.1,3.9,36,3.2,37,2.7c1-0.5,2.2-0.8,3.4-0.8
				c1.1,0,2.1,0.1,3,0.4c0.9,0.2,1.7,0.6,2.3,1l-0.1,3.5c-0.4-0.9-0.8-1.7-1.3-2.3c-0.5-0.6-0.9-1-1.4-1.3c-0.5-0.3-0.9-0.5-1.3-0.6
				c-0.4-0.1-0.8-0.2-1.2-0.2c-1.9,0-3.3,0.9-4.2,2.8c-1,1.8-1.5,4.4-1.5,7.7v0.1c0.5-0.8,1.3-1.5,2.2-2c0.9-0.5,1.9-0.7,3.1-0.7
				c1,0,1.9,0.1,2.7,0.4c0.9,0.3,1.6,0.7,2.2,1.3c0.6,0.5,1.1,1.2,1.5,2s0.6,1.7,0.6,2.8c0,1-0.2,1.9-0.5,2.7
				c-0.3,0.9-0.8,1.6-1.5,2.2c-0.6,0.6-1.4,1.1-2.3,1.5c-0.9,0.4-1.8,0.6-2.9,0.6c-1.2,0-2.2-0.3-3.2-0.8c-1-0.5-1.8-1.3-2.5-2.2
				c-0.7-1-1.2-2.1-1.6-3.4S32.1,14.4,32.1,12.8z M39.9,23.2c0.7,0,1.3-0.1,1.8-0.4c0.6-0.3,1.1-0.6,1.5-1.2c0.4-0.5,0.8-1.2,1-2
				c0.2-0.8,0.4-1.7,0.4-2.8c0-1-0.1-1.9-0.4-2.7c-0.3-0.8-0.6-1.4-1-1.9c-0.4-0.5-0.9-0.9-1.5-1.2c-0.6-0.3-1.2-0.4-1.9-0.4
				c-1.1,0-2.1,0.3-3,0.8c-0.9,0.6-1.6,1.3-2.1,2.1c0,1.4,0.2,2.7,0.4,3.9c0.2,1.2,0.5,2.2,1,3c0.4,0.8,0.9,1.5,1.6,1.9
				C38.3,23,39.1,23.2,39.9,23.2z"/>
			<path class="st0" d="M39.9,23.8c-1.2,0-2.3-0.3-3.3-0.8c-1-0.5-1.8-1.3-2.5-2.3c-0.7-1-1.2-2.1-1.6-3.5c-0.4-1.3-0.6-2.8-0.6-4.5
				c0-1.7,0.2-3.2,0.6-4.5c0.4-1.3,1-2.5,1.7-3.5c0.7-1,1.6-1.7,2.7-2.2c1-0.5,2.2-0.8,3.5-0.8c1.1,0,2.1,0.1,3.1,0.4
				c0.9,0.2,1.7,0.6,2.4,1l0.1,0l0,0.1l-0.1,4l-0.2-0.5c-0.4-0.9-0.8-1.7-1.3-2.3c-0.5-0.6-0.9-1-1.3-1.3c-0.4-0.3-0.9-0.5-1.3-0.6
				c-0.4-0.1-0.8-0.2-1.2-0.2c-1.8,0-3.2,0.9-4.1,2.7c-0.9,1.8-1.4,4.2-1.5,7.3c0.5-0.7,1.2-1.3,2-1.7c0.9-0.5,2-0.8,3.2-0.8
				c1,0,1.9,0.1,2.8,0.4c0.9,0.3,1.6,0.7,2.3,1.3c0.6,0.6,1.2,1.2,1.5,2.1c0.4,0.8,0.6,1.8,0.6,2.8c0,1-0.2,1.9-0.5,2.8
				c-0.4,0.9-0.9,1.6-1.5,2.3c-0.6,0.6-1.4,1.2-2.3,1.5C42,23.6,41,23.8,39.9,23.8z M40.5,2c-1.2,0-2.4,0.3-3.4,0.8
				c-1,0.5-1.9,1.2-2.6,2.2c-0.7,0.9-1.3,2.1-1.7,3.4c-0.4,1.3-0.6,2.8-0.6,4.4c0,1.6,0.2,3.1,0.6,4.4c0.4,1.3,0.9,2.5,1.6,3.4
				c0.7,0.9,1.5,1.7,2.4,2.2c0.9,0.5,2,0.8,3.1,0.8c1,0,2-0.2,2.8-0.5c0.8-0.4,1.6-0.9,2.2-1.5c0.6-0.6,1.1-1.4,1.5-2.2
				c0.3-0.8,0.5-1.7,0.5-2.7c0-1-0.2-1.9-0.5-2.7c-0.4-0.8-0.9-1.5-1.5-2c-0.6-0.5-1.4-0.9-2.2-1.2c-0.8-0.3-1.7-0.4-2.7-0.4
				c-1.1,0-2.2,0.2-3.1,0.7c-0.9,0.5-1.6,1.1-2.1,1.9l-0.2,0.3v-0.5c0-3.3,0.5-5.9,1.5-7.7c1-1.9,2.5-2.8,4.4-2.8
				c0.4,0,0.8,0.1,1.2,0.2c0.5,0.1,0.9,0.3,1.4,0.7c0.5,0.3,0.9,0.8,1.4,1.4c0.4,0.5,0.8,1.1,1.1,1.9l0.1-2.9
				c-0.6-0.4-1.4-0.7-2.3-0.9C42.6,2.1,41.6,2,40.5,2z M39.9,23.3c-0.9,0-1.7-0.2-2.3-0.7c-0.6-0.5-1.2-1.1-1.6-2
				c-0.4-0.8-0.8-1.9-1-3c-0.2-1.2-0.4-2.5-0.4-3.9l0,0l0,0c0.5-0.9,1.2-1.6,2.1-2.2c0.9-0.6,2-0.9,3-0.9c0.7,0,1.3,0.1,1.9,0.4
				c0.6,0.3,1.1,0.7,1.6,1.2c0.4,0.5,0.8,1.2,1.1,2c0.3,0.8,0.4,1.7,0.4,2.7c0,1.1-0.1,2.1-0.4,2.9c-0.2,0.8-0.6,1.5-1,2
				c-0.4,0.5-0.9,0.9-1.5,1.2C41.2,23.2,40.6,23.3,39.9,23.3z M34.9,13.7c0,1.4,0.2,2.7,0.4,3.9c0.2,1.2,0.5,2.2,1,3
				c0.4,0.8,0.9,1.4,1.5,1.9c0.6,0.4,1.3,0.7,2.2,0.7c0.6,0,1.2-0.1,1.8-0.4c0.5-0.2,1-0.6,1.4-1.1c0.4-0.5,0.7-1.2,1-2
				c0.2-0.8,0.4-1.7,0.4-2.8c0-1-0.1-1.9-0.4-2.6c-0.3-0.8-0.6-1.4-1-1.9c-0.4-0.5-0.9-0.9-1.5-1.1c-0.6-0.2-1.2-0.4-1.8-0.4
				c-1,0-2,0.3-2.9,0.8C36,12.2,35.3,12.9,34.9,13.7z"/>
		</g>
		<g>
			<path class="st0" d="M59.1,23.5c0.7-0.2,1.1-0.5,1.3-0.8c0.2-0.4,0.3-1,0.3-1.9v-16c0-0.5,0-0.8-0.1-1.1
				c-0.1-0.3-0.1-0.6-0.3-0.8c-0.1-0.2-0.3-0.4-0.5-0.5c-0.2-0.1-0.5-0.2-0.8-0.3h7.9c0.9,0,1.9,0.1,2.8,0.3c1,0.2,1.8,0.5,2.6,1
				c0.8,0.5,1.4,1.1,1.9,1.8C75,5.9,75.2,6.8,75.2,8c0,1.1-0.3,2.1-0.8,2.9c-0.5,0.8-1.2,1.5-2,2c-0.8,0.5-1.7,0.9-2.7,1.2
				c-1,0.3-1.9,0.4-2.9,0.4h-3.8v6.4c0,0.9,0.1,1.5,0.4,1.9c0.2,0.4,0.7,0.6,1.3,0.8H59.1z M63.1,2.5v11.4h3.2
				c0.8,0,1.6-0.1,2.4-0.3c0.8-0.2,1.4-0.6,2-1c0.6-0.5,1.1-1.1,1.4-1.8c0.3-0.7,0.5-1.6,0.5-2.6c0-1.8-0.6-3.2-1.7-4.1
				c-1.1-0.9-2.7-1.4-4.7-1.4H63.1z"/>
			<path class="st0" d="M65.5,23.6h-7.3l0.8-0.2c0.6-0.2,1-0.4,1.3-0.8c0.2-0.4,0.3-1,0.3-1.8v-16c0-0.4,0-0.8-0.1-1.1
				c0-0.3-0.1-0.5-0.2-0.7c-0.1-0.2-0.3-0.3-0.5-0.5c-0.2-0.1-0.5-0.2-0.8-0.3l-0.9-0.2h8.9c0.9,0,1.9,0.1,2.9,0.3
				c1,0.2,1.9,0.5,2.7,1c0.8,0.5,1.5,1.1,2,1.9c0.5,0.8,0.8,1.7,0.8,2.9c0,1.1-0.3,2.1-0.8,2.9c-0.5,0.8-1.2,1.5-2,2
				c-0.8,0.5-1.7,0.9-2.7,1.2c-1,0.3-2,0.4-2.9,0.4h-3.7v6.3c0,0.9,0.1,1.5,0.3,1.8c0.2,0.3,0.6,0.6,1.2,0.8L65.5,23.6z M59.8,23.4
				h4.4c-0.4-0.2-0.6-0.4-0.8-0.7c-0.3-0.4-0.4-1-0.4-1.9v-6.5H67c0.9,0,1.9-0.1,2.9-0.4c1-0.3,1.9-0.6,2.6-1.2
				c0.8-0.5,1.4-1.2,1.9-2c0.5-0.8,0.7-1.7,0.7-2.8c0-1.1-0.2-2-0.7-2.8c-0.5-0.7-1.1-1.3-1.9-1.8c-0.8-0.5-1.7-0.8-2.6-1
				c-1-0.2-1.9-0.3-2.8-0.3h-7.2c0.1,0,0.1,0.1,0.2,0.1c0.2,0.1,0.4,0.3,0.5,0.5c0.1,0.2,0.2,0.5,0.3,0.8c0.1,0.3,0.1,0.7,0.1,1.1
				v16c0,0.9-0.1,1.6-0.4,1.9C60.4,23,60.1,23.2,59.8,23.4z M66.4,14H63V2.4h3.4c2,0,3.6,0.5,4.8,1.4c1.1,1,1.7,2.4,1.7,4.2
				c0,1-0.2,1.9-0.5,2.7c-0.4,0.7-0.8,1.4-1.4,1.8c-0.6,0.5-1.3,0.8-2.1,1.1C68,13.9,67.2,14,66.4,14z M63.2,13.8h3.1
				c0.8,0,1.6-0.1,2.3-0.3c0.7-0.2,1.4-0.6,2-1c0.6-0.5,1-1.1,1.4-1.8c0.3-0.7,0.5-1.6,0.5-2.6c0-1.8-0.5-3.1-1.6-4
				c-1.1-0.9-2.6-1.4-4.6-1.4h-3.1V13.8z"/>
		</g>
		<g>
			<path class="st0" d="M77.2,23.5c0.3-0.1,0.6-0.2,0.8-0.3c0.2-0.1,0.4-0.3,0.5-0.5c0.1-0.2,0.2-0.4,0.2-0.8c0-0.3,0.1-0.7,0.1-1.1
				V9.4c0-0.4,0-0.8,0-1.1c0-0.3-0.1-0.6-0.1-0.8c-0.1-0.2-0.1-0.5-0.3-0.7c-0.1-0.2-0.3-0.4-0.4-0.6l3.1-0.3v14.9
				c0,0.4,0,0.8,0.1,1.1c0.1,0.3,0.1,0.6,0.3,0.8s0.3,0.4,0.5,0.5c0.2,0.1,0.5,0.2,0.8,0.3H77.2z M79.9,0.5c0.5,0,0.9,0.1,1.2,0.4
				c0.3,0.3,0.5,0.7,0.5,1.1S81.3,2.9,81,3.2c-0.3,0.3-0.7,0.4-1.2,0.4c-0.5,0-0.8-0.1-1.1-0.4c-0.3-0.3-0.5-0.7-0.5-1.1
				s0.2-0.8,0.5-1.1C79,0.7,79.4,0.5,79.9,0.5z"/>
			<path class="st0" d="M83.4,23.6h-7l0.7-0.2c0.3-0.1,0.6-0.2,0.8-0.3c0.2-0.1,0.3-0.3,0.5-0.4c0.1-0.2,0.2-0.4,0.2-0.7
				c0-0.3,0.1-0.7,0.1-1.1V9.4c0-0.4,0-0.8,0-1.1c0-0.3-0.1-0.6-0.1-0.8c-0.1-0.2-0.1-0.5-0.3-0.7c-0.1-0.2-0.2-0.4-0.4-0.6
				l-0.1-0.2l3.5-0.3v15.1c0,0.4,0,0.8,0.1,1.1c0,0.3,0.1,0.5,0.2,0.7c0.1,0.2,0.3,0.3,0.5,0.5c0.2,0.1,0.5,0.2,0.7,0.3L83.4,23.6z
				 M77.8,23.4h4.2c-0.1,0-0.2-0.1-0.2-0.1c-0.2-0.1-0.4-0.3-0.5-0.5c-0.1-0.2-0.2-0.5-0.3-0.8C81,21.6,81,21.3,81,20.8V6l-2.8,0.2
				c0.1,0.2,0.2,0.3,0.3,0.5c0.1,0.2,0.2,0.5,0.3,0.7c0.1,0.2,0.1,0.5,0.1,0.9c0,0.3,0,0.7,0,1.1v11.4c0,0.4,0,0.8-0.1,1.1
				c0,0.3-0.1,0.6-0.3,0.8c-0.1,0.2-0.3,0.4-0.5,0.5C78,23.3,77.9,23.4,77.8,23.4z M79.9,3.8c-0.5,0-0.9-0.2-1.2-0.5
				c-0.3-0.3-0.5-0.7-0.5-1.2c0-0.5,0.2-0.9,0.5-1.2c0.3-0.3,0.7-0.4,1.2-0.4c0.5,0,0.9,0.2,1.3,0.4c0.3,0.3,0.5,0.7,0.5,1.2
				c0,0.5-0.2,0.9-0.5,1.2C80.8,3.6,80.4,3.8,79.9,3.8z M79.9,0.7c-0.4,0-0.8,0.1-1.1,0.4c-0.3,0.3-0.4,0.6-0.4,1
				c0,0.4,0.1,0.8,0.4,1.1c0.3,0.3,0.6,0.4,1.1,0.4c0.4,0,0.8-0.1,1.1-0.4c0.3-0.3,0.4-0.6,0.4-1.1c0-0.4-0.1-0.8-0.4-1
				C80.7,0.8,80.3,0.7,79.9,0.7z"/>
		</g>
		<g>
			<path class="st0" d="M84.4,23.5c0.3-0.1,0.6-0.2,0.8-0.3c0.2-0.1,0.4-0.3,0.5-0.5c0.1-0.2,0.2-0.4,0.2-0.8c0-0.3,0.1-0.7,0.1-1.1
				V9.4c0-0.4,0-0.8,0-1.1c0-0.3-0.1-0.6-0.1-0.8c-0.1-0.2-0.1-0.5-0.3-0.7c-0.1-0.2-0.3-0.4-0.4-0.6l3.1-0.3v4.9
				c0.5-1.5,1.3-2.7,2.5-3.6c1.1-0.9,2.6-1.3,4.3-1.3c1,0,1.9,0.1,2.6,0.4c0.8,0.3,1.4,0.7,1.9,1.2c0.5,0.5,0.9,1.1,1.2,1.8
				c0.3,0.7,0.4,1.5,0.4,2.3v9.1c0,0.4,0,0.8,0.1,1.1c0.1,0.3,0.1,0.6,0.3,0.8c0.1,0.2,0.3,0.4,0.5,0.5c0.2,0.1,0.5,0.2,0.8,0.3
				h-5.5c0.3-0.1,0.6-0.2,0.8-0.3c0.2-0.1,0.4-0.3,0.5-0.5c0.1-0.2,0.2-0.4,0.2-0.8c0-0.3,0.1-0.7,0.1-1.1v-9.4
				c0-1.5-0.4-2.8-1.1-3.6c-0.7-0.9-1.8-1.3-3.2-1.3c-0.8,0-1.6,0.1-2.3,0.4c-0.7,0.3-1.4,0.7-2,1.3c-0.6,0.6-1,1.3-1.4,2.1
				c-0.4,0.8-0.6,1.8-0.6,2.9v7.6c0,0.4,0,0.8,0.1,1.1c0.1,0.3,0.1,0.6,0.3,0.8c0.1,0.2,0.3,0.4,0.5,0.5c0.2,0.1,0.5,0.2,0.8,0.3
				H84.4z"/>
			<path class="st0" d="M103.6,23.6h-7l0.7-0.2c0.3-0.1,0.6-0.2,0.8-0.3c0.2-0.1,0.3-0.3,0.5-0.4c0.1-0.2,0.2-0.4,0.2-0.7
				c0-0.3,0.1-0.7,0.1-1.1v-9.4c0-1.5-0.4-2.7-1.1-3.6C97,7,96,6.6,94.6,6.6c-0.8,0-1.5,0.1-2.3,0.4c-0.7,0.3-1.4,0.7-1.9,1.3
				c-0.6,0.6-1,1.3-1.4,2.1c-0.4,0.8-0.6,1.8-0.6,2.9l0,7.6c0,0.4,0,0.8,0.1,1.1c0,0.3,0.1,0.5,0.2,0.7c0.1,0.2,0.3,0.3,0.5,0.5
				c0.2,0.1,0.5,0.2,0.7,0.3l0.7,0.2h-7l0.7-0.2c0.3-0.1,0.6-0.2,0.8-0.3c0.2-0.1,0.3-0.3,0.5-0.4c0.1-0.2,0.2-0.4,0.2-0.7
				c0-0.3,0.1-0.7,0.1-1.1V9.4c0-0.4,0-0.8,0-1.1c0-0.3-0.1-0.6-0.1-0.8c-0.1-0.2-0.1-0.5-0.3-0.7c-0.1-0.2-0.2-0.4-0.4-0.6
				l-0.1-0.2l3.5-0.3v4.4c0.5-1.2,1.3-2.3,2.3-3c1.1-0.9,2.6-1.3,4.4-1.3c1,0,1.9,0.1,2.7,0.4c0.8,0.3,1.4,0.7,2,1.2
				c0.5,0.5,1,1.2,1.2,1.9c0.3,0.7,0.4,1.5,0.4,2.4v9.1c0,0.4,0,0.8,0.1,1.1c0,0.3,0.1,0.5,0.2,0.7c0.1,0.2,0.3,0.3,0.5,0.5
				c0.2,0.1,0.5,0.2,0.7,0.3L103.6,23.6z M98,23.4h4.2c-0.1,0-0.2-0.1-0.2-0.1c-0.2-0.1-0.4-0.3-0.5-0.5c-0.1-0.2-0.2-0.5-0.3-0.8
				c-0.1-0.3-0.1-0.7-0.1-1.1v-9.1c0-0.8-0.1-1.6-0.4-2.3c-0.3-0.7-0.7-1.3-1.2-1.8c-0.5-0.5-1.1-0.9-1.9-1.2C96.9,6.2,96,6,95.1,6
				c-1.7,0-3.1,0.4-4.3,1.3c-1.1,0.9-1.9,2-2.4,3.5l-0.2,0.7V6l-2.8,0.2c0.1,0.2,0.2,0.3,0.3,0.5c0.1,0.2,0.2,0.5,0.3,0.7
				C86,7.7,86,8,86.1,8.3c0,0.3,0,0.7,0,1.1v11.4c0,0.4,0,0.8-0.1,1.1c0,0.3-0.1,0.6-0.3,0.8c-0.1,0.2-0.3,0.4-0.5,0.5
				c-0.1,0-0.1,0.1-0.2,0.1h4.2c-0.1,0-0.2-0.1-0.2-0.1c-0.2-0.1-0.4-0.3-0.5-0.5c-0.1-0.2-0.2-0.5-0.3-0.8
				c-0.1-0.3-0.1-0.7-0.1-1.1v-7.6c0.1-1.1,0.3-2.1,0.6-2.9c0.4-0.9,0.8-1.6,1.4-2.2c0.6-0.6,1.3-1,2-1.3c0.8-0.3,1.5-0.5,2.4-0.5
				c1.4,0,2.6,0.5,3.3,1.4c0.8,0.9,1.1,2.1,1.1,3.7v9.4c0,0.4,0,0.8-0.1,1.1c0,0.3-0.1,0.6-0.3,0.8c-0.1,0.2-0.3,0.4-0.5,0.5
				C98.1,23.3,98.1,23.4,98,23.4z"/>
		</g>
		<g>
			<path class="st0" d="M104.4,23.5c0.3-0.1,0.6-0.2,0.8-0.3c0.2-0.1,0.4-0.3,0.5-0.5c0.1-0.2,0.2-0.4,0.2-0.8
				c0-0.3,0.1-0.7,0.1-1.1V2.7c0-0.6-0.1-1.1-0.2-1.4c-0.1-0.3-0.3-0.6-0.6-0.8l3.1-0.4v15.8l7.9-6.9c0.6-0.5,1-1,1.4-1.5
				c0.4-0.5,0.5-1,0.5-1.5h2.8c-0.2,0.1-0.4,0.2-0.7,0.4c-0.3,0.2-0.6,0.4-1,0.7c-0.4,0.3-0.8,0.6-1.3,1c-0.5,0.4-1.1,0.9-1.8,1.5
				l-3.4,3l5.9,7.4c0.6,0.7,1,1.3,1.4,1.7c0.3,0.4,0.6,0.8,0.8,1c0.2,0.2,0.3,0.4,0.4,0.5c0.1,0.1,0.1,0.1,0.2,0.1h-4
				c0-0.1,0.1-0.1,0.1-0.3c0-0.1,0-0.3-0.1-0.5c-0.1-0.2-0.2-0.5-0.4-0.8c-0.2-0.3-0.5-0.8-0.9-1.3l-5.1-6.6l-2.9,2.6v4.2
				c0,0.4,0,0.8,0.1,1.1c0.1,0.3,0.1,0.6,0.3,0.8c0.1,0.2,0.3,0.4,0.5,0.5c0.2,0.1,0.5,0.2,0.8,0.3H104.4z"/>
			<path class="st0" d="M121.5,23.6h-4.2l0.1-0.2c0-0.1,0.1-0.1,0.1-0.2c0-0.1,0-0.2-0.1-0.4c-0.1-0.2-0.2-0.5-0.4-0.8
				c-0.2-0.3-0.5-0.8-0.9-1.3l-5-6.5l-2.8,2.4v4.1c0,0.4,0,0.8,0.1,1.1c0,0.3,0.1,0.5,0.2,0.7c0.1,0.2,0.3,0.3,0.5,0.5
				c0.2,0.1,0.5,0.2,0.7,0.3l0.7,0.2h-7l0.7-0.2c0.3-0.1,0.6-0.2,0.8-0.3c0.2-0.1,0.3-0.3,0.5-0.4c0.1-0.2,0.2-0.4,0.2-0.7
				c0-0.3,0.1-0.7,0.1-1.1V2.7c0-0.6,0-1.1-0.1-1.4c-0.1-0.3-0.3-0.5-0.6-0.7l-0.2-0.2l3.5-0.4v15.7l7.7-6.8c0.5-0.5,1-0.9,1.4-1.4
				c0.4-0.5,0.5-0.9,0.5-1.4l0-0.1h3.4l-0.5,0.2c-0.2,0.1-0.4,0.2-0.7,0.4c-0.3,0.2-0.6,0.4-1,0.7c-0.4,0.3-0.8,0.6-1.3,1
				c-0.5,0.4-1.1,0.9-1.8,1.5l-3.3,2.9l5.8,7.4c0.6,0.7,1,1.3,1.4,1.7c0.3,0.4,0.6,0.8,0.8,1c0.2,0.3,0.3,0.4,0.4,0.5
				c0.1,0.1,0.1,0.1,0.1,0.1L121.5,23.6z M117.7,23.4h3.4c-0.1-0.1-0.2-0.2-0.4-0.4c-0.2-0.2-0.5-0.6-0.8-1c-0.4-0.4-0.8-1-1.4-1.7
				l-6-7.5l3.5-3.1c0.7-0.6,1.3-1.1,1.8-1.5c0.5-0.4,0.9-0.8,1.3-1c0.4-0.3,0.7-0.5,1-0.7c0.1-0.1,0.2-0.1,0.3-0.2h-2.2
				c0,0.5-0.2,0.9-0.5,1.4c-0.4,0.5-0.8,1-1.4,1.5l-8.1,7.1V0.3l-2.7,0.3c0.2,0.2,0.4,0.4,0.5,0.7c0.1,0.3,0.2,0.8,0.2,1.4v18.1
				c0,0.4,0,0.8-0.1,1.1c0,0.3-0.1,0.6-0.3,0.8c-0.1,0.2-0.3,0.4-0.5,0.5c-0.1,0-0.1,0.1-0.2,0.1h4.2c-0.1,0-0.2-0.1-0.2-0.1
				c-0.2-0.1-0.4-0.3-0.5-0.5c-0.1-0.2-0.2-0.5-0.3-0.8c-0.1-0.3-0.1-0.7-0.1-1.1v-4.3l3-2.7l5.1,6.7c0.4,0.5,0.7,0.9,0.9,1.3
				c0.2,0.3,0.3,0.6,0.4,0.9c0.1,0.2,0.1,0.4,0.1,0.6C117.7,23.3,117.7,23.4,117.7,23.4z"/>
		</g>
		<g>
			<path class="st0" d="M133.7,20.8v-16c0-0.5,0-0.8-0.1-1.1c-0.1-0.3-0.1-0.6-0.3-0.8c-0.1-0.2-0.3-0.4-0.5-0.5
				c-0.2-0.1-0.5-0.2-0.8-0.3h3l9.3,18.7L152.3,2h3.7c-0.6,0.2-1.1,0.5-1.3,0.8s-0.4,1-0.4,1.9v16c0,0.9,0.1,1.5,0.4,1.9
				c0.2,0.4,0.7,0.6,1.3,0.8h-5.7c0.7-0.2,1.1-0.5,1.3-0.8c0.2-0.4,0.3-1,0.3-1.9V4.1l-8.5,19.4h-0.4l-9-18.2v15.4
				c0,0.9,0.1,1.5,0.4,1.9c0.2,0.4,0.7,0.6,1.3,0.8H132c0.7-0.2,1.1-0.5,1.3-0.8C133.5,22.3,133.7,21.7,133.7,20.8z"/>
			<path class="st0" d="M156.8,23.6h-7.3l0.8-0.2c0.6-0.2,1-0.4,1.3-0.8c0.2-0.4,0.3-1,0.3-1.8V4.7l-8.3,18.9h-0.5l0-0.1l-8.8-17.7
				v14.9c0,0.9,0.1,1.5,0.3,1.8c0.2,0.3,0.6,0.6,1.2,0.8l0.7,0.2h-5.5l0.8-0.2c0.6-0.2,1-0.4,1.3-0.8c0.2-0.3,0.3-1,0.3-1.8v-16
				c0-0.4,0-0.8-0.1-1.1c0-0.3-0.1-0.5-0.2-0.7c-0.1-0.2-0.3-0.3-0.5-0.5c-0.2-0.1-0.5-0.2-0.8-0.3L131,1.9h4l0,0.1l9.2,18.5l8-18.6
				h4.5l-0.7,0.2c-0.6,0.2-1,0.5-1.2,0.8c-0.2,0.3-0.3,0.9-0.3,1.8v16c0,0.9,0.1,1.5,0.3,1.8c0.2,0.3,0.6,0.6,1.2,0.8L156.8,23.6z
				 M151,23.4h4.4c-0.4-0.2-0.6-0.4-0.8-0.7c-0.3-0.4-0.4-1-0.4-1.9v-16c0-0.9,0.1-1.6,0.4-1.9c0.2-0.3,0.4-0.5,0.8-0.7h-3L144.3,21
				l-0.1-0.2l-9.3-18.6h-2.2c0.1,0,0.1,0.1,0.2,0.1c0.2,0.1,0.4,0.3,0.5,0.5c0.1,0.2,0.2,0.5,0.3,0.8c0.1,0.3,0.1,0.7,0.1,1.1v16
				c0,0.9-0.1,1.6-0.4,1.9c-0.2,0.3-0.4,0.5-0.8,0.7h2.6c-0.4-0.2-0.6-0.4-0.8-0.7c-0.3-0.4-0.4-1-0.4-1.9V4.8l9.2,18.5h0.2
				l8.7-19.8v17.2c0,0.9-0.1,1.6-0.4,1.9C151.7,23,151.4,23.2,151,23.4z"/>
		</g>
		<g>
			<path class="st0" d="M165.8,13.9l3.4-0.8v-2.2c0-1.5-0.3-2.7-0.9-3.4c-0.6-0.7-1.5-1.1-2.8-1.1c-0.6,0-1.2,0.1-1.8,0.3
				c-0.6,0.2-1.2,0.5-1.7,1c-0.5,0.5-1,1.2-1.5,2.1c-0.4,0.9-0.8,2-1.1,3.3l-0.2-5.2c0.8-0.6,1.7-1.1,2.8-1.4
				c1.1-0.3,2.3-0.5,3.4-0.5c1.8,0,3.2,0.4,4.3,1.3c1.1,0.9,1.6,2.1,1.6,3.8v9.8c0,0.6,0.1,1.1,0.2,1.6c0.1,0.5,0.4,0.8,0.7,1.1
				l-3,0.1v-4.1c-0.2,0.5-0.5,1-0.8,1.5c-0.3,0.5-0.7,0.9-1.2,1.3c-0.5,0.4-1,0.7-1.7,0.9c-0.6,0.2-1.4,0.3-2.2,0.3
				c-0.7,0-1.4-0.1-2.1-0.2c-0.6-0.2-1.2-0.4-1.7-0.8c-0.5-0.3-0.8-0.8-1.1-1.3c-0.3-0.5-0.4-1.1-0.4-1.8c0-0.9,0.3-1.7,0.8-2.3
				c0.5-0.6,1.1-1.2,1.9-1.6c0.8-0.4,1.6-0.8,2.4-1C164.3,14.3,165.1,14.1,165.8,13.9z M160.8,19.6c0,1.1,0.3,1.9,0.8,2.6
				c0.6,0.7,1.4,1,2.4,1c0.6,0,1.2-0.1,1.8-0.4c0.6-0.2,1.1-0.6,1.6-1.1c0.5-0.5,0.9-1.1,1.2-1.8c0.3-0.7,0.5-1.6,0.6-2.5v-3.8
				l-3.4,0.8c-0.4,0.1-0.9,0.3-1.5,0.5c-0.6,0.2-1.1,0.5-1.7,0.9c-0.5,0.4-1,0.9-1.3,1.5C161,17.8,160.8,18.6,160.8,19.6z"/>
			<path class="st0" d="M163.6,23.8c-0.7,0-1.5-0.1-2.1-0.3c-0.7-0.2-1.2-0.4-1.7-0.8c-0.5-0.4-0.9-0.8-1.1-1.3
				c-0.3-0.5-0.4-1.1-0.4-1.8c0-0.9,0.3-1.8,0.8-2.4c0.5-0.6,1.2-1.2,1.9-1.6c0.8-0.4,1.6-0.8,2.5-1c0.9-0.3,1.7-0.5,2.4-0.7l0,0
				l3.3-0.8v-2.1c0-1.5-0.3-2.6-0.9-3.3c-0.6-0.7-1.5-1.1-2.7-1.1c-0.6,0-1.1,0.1-1.7,0.3c-0.6,0.2-1.1,0.5-1.6,1
				c-0.5,0.5-1,1.2-1.4,2c-0.4,0.9-0.8,1.9-1.1,3.2l-0.2,0.9l-0.2-6.2l0,0c0.8-0.6,1.7-1.1,2.8-1.4c1.1-0.4,2.3-0.5,3.5-0.5
				c1.8,0,3.3,0.4,4.4,1.3c1.1,0.9,1.6,2.2,1.6,3.9v9.8c0,0.6,0.1,1.1,0.2,1.5c0.1,0.4,0.3,0.8,0.6,1.1l0.2,0.2l-3.4,0.1v-3.6
				c-0.2,0.3-0.4,0.7-0.6,1c-0.3,0.5-0.7,1-1.2,1.4c-0.5,0.4-1,0.7-1.7,0.9C165.2,23.6,164.4,23.8,163.6,23.8z M165.9,14.1
				c-0.7,0.2-1.5,0.4-2.4,0.7c-0.9,0.3-1.7,0.6-2.4,1c-0.7,0.4-1.4,1-1.9,1.6c-0.5,0.6-0.7,1.4-0.7,2.3c0,0.7,0.1,1.2,0.4,1.7
				c0.3,0.5,0.6,0.9,1.1,1.2c0.4,0.3,1,0.6,1.6,0.7c0.6,0.2,1.3,0.2,2.1,0.2c0.8,0,1.5-0.1,2.2-0.3c0.6-0.2,1.2-0.5,1.6-0.9
				c0.5-0.4,0.8-0.8,1.2-1.3c0.3-0.5,0.6-1,0.8-1.5l0.2-0.6v4.6l2.6-0.1c-0.2-0.3-0.4-0.6-0.5-1c-0.1-0.5-0.2-1-0.2-1.6V11
				c0-1.6-0.5-2.9-1.5-3.7c-1-0.8-2.5-1.3-4.2-1.3c-1.2,0-2.3,0.2-3.4,0.5c-1.1,0.3-2,0.8-2.7,1.4l0.2,4.2c0.3-1,0.6-1.8,0.9-2.5
				c0.4-0.9,0.9-1.6,1.5-2.1c0.5-0.5,1.1-0.9,1.7-1.1c0.6-0.2,1.2-0.3,1.8-0.3c1.3,0,2.2,0.4,2.9,1.1c0.6,0.8,0.9,1.9,0.9,3.5v2.3
				L165.9,14.1z M164.1,23.3c-1.1,0-1.9-0.4-2.5-1.1c-0.6-0.7-0.9-1.6-0.9-2.7c0-1,0.2-1.8,0.6-2.4c0.4-0.6,0.8-1.1,1.4-1.5
				c0.5-0.4,1.1-0.7,1.7-0.9c0.6-0.2,1.1-0.4,1.5-0.5l3.5-0.8v4c0,1-0.2,1.8-0.6,2.6c-0.3,0.7-0.8,1.4-1.3,1.8
				c-0.5,0.5-1.1,0.9-1.7,1.1C165.3,23.2,164.7,23.3,164.1,23.3z M169.1,13.7l-3.2,0.8c-0.4,0.1-0.9,0.3-1.5,0.5
				c-0.6,0.2-1.1,0.5-1.6,0.9c-0.5,0.4-0.9,0.9-1.3,1.5c-0.3,0.6-0.5,1.4-0.5,2.3c0,1,0.3,1.9,0.8,2.5c0.5,0.6,1.3,1,2.3,1
				c0.6,0,1.1-0.1,1.7-0.4c0.6-0.2,1.1-0.6,1.6-1.1c0.5-0.5,0.9-1.1,1.2-1.8c0.3-0.7,0.5-1.5,0.5-2.5L169.1,13.7z"/>
		</g>
		<g>
			<path class="st0" d="M174.4,6.2l3.1-0.3v12.5c0,0.9,0.1,1.6,0.3,2.2c0.2,0.6,0.4,1.1,0.8,1.5c0.3,0.4,0.8,0.7,1.2,0.8
				c0.5,0.2,1,0.2,1.6,0.2c0.9,0,1.7-0.2,2.4-0.6c0.7-0.4,1.2-1,1.7-1.6c0.5-0.7,0.8-1.4,1.1-2.2c0.2-0.8,0.4-1.6,0.4-2.3v-7
				c0-0.4,0-0.8,0-1.1c0-0.3-0.1-0.6-0.1-0.8c-0.1-0.2-0.1-0.5-0.3-0.7c-0.1-0.2-0.3-0.4-0.4-0.6l3.2-0.3v14.6c0,0.9,0.1,1.6,0.2,2
				c0.1,0.4,0.4,0.8,0.6,1.1l-3,0.1v-4.7c-0.3,0.7-0.6,1.4-1,2c-0.4,0.6-0.8,1.1-1.3,1.5c-0.5,0.4-1,0.7-1.7,0.9
				c-0.6,0.2-1.4,0.3-2.2,0.3c-1.8,0-3.2-0.4-4.2-1.3c-1-0.9-1.6-2.2-1.6-4.1V9.4c0-0.4,0-0.8,0-1.1c0-0.3-0.1-0.6-0.1-0.8
				s-0.1-0.5-0.3-0.7C174.7,6.6,174.6,6.4,174.4,6.2z"/>
			<path class="st0" d="M181.1,23.8c-1.8,0-3.2-0.5-4.3-1.4c-1.1-0.9-1.6-2.3-1.6-4.2V9.4c0-0.4,0-0.8,0-1.1c0-0.3-0.1-0.6-0.1-0.8
				c-0.1-0.2-0.1-0.5-0.3-0.7c-0.1-0.2-0.2-0.4-0.4-0.6l-0.1-0.2l3.5-0.3v12.7c0,0.9,0.1,1.6,0.3,2.2c0.2,0.6,0.4,1.1,0.8,1.4
				c0.3,0.4,0.7,0.6,1.2,0.8c0.5,0.2,1,0.2,1.6,0.2c0.9,0,1.7-0.2,2.3-0.6c0.7-0.4,1.2-0.9,1.7-1.6c0.4-0.6,0.8-1.4,1-2.2
				c0.2-0.8,0.4-1.6,0.4-2.3v-7c0-0.4,0-0.8,0-1.1c0-0.3-0.1-0.6-0.1-0.8c-0.1-0.2-0.1-0.5-0.3-0.7c-0.1-0.2-0.2-0.4-0.4-0.6
				l-0.1-0.2l3.5-0.3v14.7c0,0.9,0.1,1.5,0.2,2c0.1,0.4,0.3,0.7,0.6,1l0.2,0.2l-3.4,0.1v-4.2c-0.2,0.5-0.5,1-0.8,1.5
				c-0.4,0.6-0.8,1.1-1.3,1.5c-0.5,0.4-1.1,0.7-1.7,1C182.6,23.7,181.9,23.8,181.1,23.8z M174.6,6.3c0.1,0.2,0.2,0.3,0.3,0.5
				c0.1,0.2,0.2,0.5,0.3,0.7c0.1,0.3,0.1,0.5,0.1,0.9c0,0.3,0,0.7,0,1.1v8.8c0,1.8,0.5,3.1,1.5,4c1,0.9,2.4,1.3,4.1,1.3
				c0.8,0,1.5-0.1,2.1-0.3c0.6-0.2,1.2-0.5,1.6-0.9c0.5-0.4,0.9-0.9,1.2-1.5c0.4-0.6,0.7-1.2,1-2l0.2-0.5v5.1l2.6-0.1
				c-0.2-0.3-0.4-0.6-0.5-0.9c-0.1-0.4-0.2-1.1-0.2-2V6l-2.8,0.2c0.1,0.2,0.2,0.3,0.3,0.5c0.1,0.2,0.2,0.5,0.3,0.7
				c0.1,0.3,0.1,0.5,0.1,0.9c0,0.3,0,0.7,0,1.1v7c0,0.8-0.2,1.6-0.4,2.4c-0.3,0.8-0.6,1.6-1.1,2.2c-0.5,0.7-1,1.2-1.7,1.7
				c-0.7,0.4-1.5,0.7-2.5,0.7c-0.6,0-1.1-0.1-1.6-0.3c-0.5-0.2-0.9-0.5-1.3-0.9c-0.3-0.4-0.6-0.9-0.8-1.5c-0.2-0.6-0.3-1.4-0.3-2.3
				V6L174.6,6.3z"/>
		</g>
		<g>
			<path class="st0" d="M195.5,6.1c-0.2,0.1-0.3,0.3-0.4,0.6c-0.1,0.3,0,0.7,0.2,1.3l5.5,12.7l4.7-10.9c0.3-0.8,0.6-1.4,0.6-1.9
				c0.1-0.5,0.1-0.8,0-1.1c-0.1-0.2-0.2-0.4-0.3-0.5c-0.1-0.1-0.2-0.2-0.3-0.2h3c-0.2,0.1-0.5,0.4-0.9,0.8c-0.4,0.4-0.7,1-1.1,1.9
				l-6.3,14.8h-0.3l-6.4-14.7c-0.4-0.9-0.8-1.6-1.1-2c-0.3-0.4-0.5-0.6-0.7-0.7H195.5z"/>
			<path class="st0" d="M200.2,23.6h-0.5l0-0.1l-6.4-14.7c-0.4-0.9-0.8-1.6-1-2c-0.3-0.4-0.5-0.6-0.7-0.7l-0.4-0.2h4.7l-0.2,0.2
				c-0.1,0.1-0.3,0.3-0.4,0.6c-0.1,0.2,0,0.6,0.2,1.2l5.4,12.5l4.6-10.6c0.3-0.8,0.5-1.4,0.6-1.9c0.1-0.5,0.1-0.8,0-1
				c-0.1-0.2-0.1-0.4-0.2-0.4c-0.1-0.1-0.2-0.2-0.3-0.2l-0.3-0.2h3.8l-0.3,0.2c-0.2,0.1-0.5,0.4-0.9,0.7c-0.4,0.3-0.7,1-1.1,1.8
				L200.2,23.6z M199.9,23.4h0.2l6.3-14.8c0.4-0.9,0.8-1.5,1.1-1.9c0.2-0.2,0.4-0.4,0.6-0.6h-2.3c0,0,0,0,0,0
				c0.2,0.1,0.3,0.3,0.3,0.6c0.1,0.3,0.1,0.6,0,1.1c-0.1,0.5-0.3,1.1-0.6,1.9L200.8,21l-5.6-13c-0.3-0.6-0.3-1.1-0.2-1.4
				c0.1-0.2,0.1-0.3,0.2-0.5H192c0.1,0.1,0.3,0.3,0.5,0.6c0.3,0.4,0.7,1.1,1.1,2L199.9,23.4z"/>
		</g>
		<g>
			<path class="st0" d="M218,5.9c1.2,0,2.3,0.2,3.2,0.5c0.9,0.4,1.7,0.8,2.3,1.5c0.6,0.6,1,1.4,1.3,2.3c0.3,0.9,0.5,1.8,0.5,2.8h-13
				c0,0.3-0.1,0.6-0.1,0.9s0,0.6,0,1c0,1.2,0.2,2.3,0.5,3.3c0.3,1,0.8,1.9,1.3,2.6c0.6,0.7,1.2,1.3,2,1.7c0.8,0.4,1.6,0.6,2.6,0.6
				c0.8,0,1.6-0.1,2.2-0.4c0.7-0.3,1.3-0.7,1.8-1.3c0.6-0.6,1.1-1.2,1.5-2c0.4-0.8,0.8-1.6,1.2-2.5l-0.3,4.5
				c-0.9,0.8-1.9,1.3-3.1,1.7c-1.2,0.4-2.3,0.5-3.4,0.5c-1.3,0-2.5-0.2-3.6-0.6c-1.1-0.4-2-1-2.8-1.8c-0.8-0.8-1.4-1.7-1.8-2.8
				c-0.4-1.1-0.6-2.3-0.6-3.6c0-1.3,0.2-2.5,0.6-3.6c0.4-1.1,0.9-2,1.7-2.8c0.7-0.8,1.6-1.4,2.6-1.9C215.6,6.1,216.7,5.9,218,5.9z
				 M212.4,12.6H223c0-0.9-0.1-1.7-0.4-2.5c-0.2-0.8-0.5-1.4-1-2c-0.4-0.6-0.9-1-1.5-1.3c-0.6-0.3-1.3-0.5-2.1-0.5
				c-0.7,0-1.4,0.2-2,0.5c-0.6,0.3-1.2,0.7-1.7,1.3c-0.5,0.6-0.9,1.2-1.2,2C212.8,10.9,212.6,11.7,212.4,12.6z"/>
			<path class="st0" d="M218.6,23.8c-1.3,0-2.5-0.2-3.6-0.6c-1.1-0.4-2.1-1-2.9-1.8c-0.8-0.8-1.4-1.7-1.9-2.8
				c-0.4-1.1-0.7-2.3-0.7-3.7c0-1.3,0.2-2.5,0.6-3.6c0.4-1.1,0.9-2.1,1.7-2.9c0.7-0.8,1.6-1.5,2.6-1.9c1-0.4,2.2-0.7,3.5-0.7
				c1.2,0,2.3,0.2,3.3,0.5c0.9,0.4,1.7,0.9,2.3,1.5c0.6,0.6,1.1,1.4,1.4,2.3c0.3,0.9,0.5,1.8,0.5,2.9l0,0.1h-13
				c0,0.3-0.1,0.6-0.1,0.8c0,0.3,0,0.6,0,1c0,1.2,0.2,2.3,0.5,3.3c0.3,1,0.8,1.9,1.3,2.6c0.6,0.7,1.2,1.3,2,1.7
				c0.8,0.4,1.6,0.6,2.5,0.6c0.8,0,1.5-0.1,2.2-0.4c0.7-0.3,1.3-0.7,1.8-1.3c0.5-0.5,1-1.2,1.5-2c0.4-0.8,0.8-1.6,1.1-2.5l0.3-0.8
				l-0.3,5.4l0,0c-0.9,0.8-2,1.3-3.1,1.7C220.9,23.6,219.7,23.8,218.6,23.8z M218,6c-1.3,0-2.4,0.2-3.4,0.7c-1,0.4-1.9,1.1-2.6,1.8
				c-0.7,0.8-1.3,1.7-1.6,2.8c-0.4,1.1-0.6,2.3-0.6,3.5c0,1.3,0.2,2.5,0.6,3.6c0.4,1.1,1,2,1.8,2.7c0.8,0.7,1.7,1.3,2.8,1.8
				c2,0.8,4.4,0.9,6.9,0.1c1.1-0.3,2.1-0.9,3-1.6l0.2-3.6c-0.3,0.7-0.6,1.3-0.9,1.8c-0.4,0.8-1,1.5-1.5,2c-0.6,0.6-1.2,1-1.9,1.3
				c-0.7,0.3-1.4,0.5-2.3,0.5c-0.9,0-1.8-0.2-2.6-0.6c-0.8-0.4-1.5-1-2.1-1.8c-0.6-0.7-1-1.6-1.3-2.7c-0.3-1-0.5-2.1-0.5-3.3
				c0-0.3,0-0.7,0-1c0-0.3,0.1-0.6,0.1-0.9l0-0.1h13c0-1-0.2-1.9-0.5-2.7c-0.3-0.8-0.7-1.6-1.3-2.2c-0.6-0.6-1.3-1.1-2.2-1.5
				C220.3,6.2,219.3,6,218,6z M223.1,12.8h-10.8l0-0.1c0.1-0.9,0.4-1.8,0.7-2.6c0.3-0.8,0.7-1.5,1.2-2c0.5-0.6,1.1-1,1.7-1.3
				c0.6-0.3,1.3-0.5,2.1-0.5c0.8,0,1.5,0.2,2.1,0.5c0.6,0.3,1.1,0.8,1.6,1.4c0.4,0.6,0.7,1.3,1,2c0.2,0.8,0.4,1.6,0.4,2.5
				L223.1,12.8z M212.6,12.5h10.3c0-0.8-0.2-1.6-0.4-2.3c-0.2-0.7-0.5-1.4-0.9-2c-0.4-0.6-0.9-1-1.5-1.3c-0.6-0.3-1.3-0.5-2-0.5
				c-0.7,0-1.4,0.2-2,0.5c-0.6,0.3-1.1,0.7-1.6,1.3c-0.5,0.6-0.9,1.2-1.2,2C212.9,10.9,212.7,11.7,212.6,12.5z"/>
		</g>
		<g>
			<path class="st0" d="M230.4,6.1l2.1-4.3v4.3h5.1v0.3h-5.1v13.3c0,0.7,0,1.2,0.1,1.7c0.1,0.5,0.2,0.8,0.4,1.1
				c0.2,0.3,0.4,0.5,0.6,0.6s0.5,0.2,0.9,0.2c0.6,0,1.1-0.2,1.5-0.5c0.4-0.3,0.8-0.8,1.1-1.4l0.4,0.3c-0.4,0.7-0.9,1.2-1.3,1.6
				c-0.5,0.4-1.2,0.6-2.1,0.6c-1.4,0-2.5-0.4-3-1.2c-0.6-0.8-0.9-2-0.9-3.5V6.4h-3V6.1H230.4z"/>
			<path class="st0" d="M234.2,23.8c-1.5,0-2.5-0.4-3.1-1.3c-0.6-0.9-0.9-2.1-0.9-3.6V6.5h-3V5.9h3.2l2.3-4.7v4.7h5.1v0.6h-5.1v13.2
				c0,0.7,0,1.2,0.1,1.7c0.1,0.4,0.2,0.8,0.4,1c0.2,0.2,0.3,0.4,0.6,0.5c0.2,0.1,0.5,0.1,0.8,0.1c0.6,0,1-0.2,1.4-0.5
				c0.4-0.3,0.8-0.8,1.1-1.4l0.1-0.1l0.6,0.4l-0.1,0.1c-0.4,0.7-0.9,1.2-1.4,1.6C235.9,23.5,235.1,23.8,234.2,23.8z M227.4,6.3h3
				v12.6c0,1.5,0.3,2.7,0.9,3.5c0.6,0.8,1.6,1.2,2.9,1.2c0.9,0,1.6-0.2,2-0.5c0.4-0.4,0.9-0.8,1.3-1.4l-0.2-0.1
				c-0.3,0.6-0.7,1-1.1,1.4c-0.4,0.4-1,0.5-1.6,0.5c-0.3,0-0.7-0.1-0.9-0.2c-0.3-0.1-0.5-0.3-0.7-0.6c-0.2-0.3-0.3-0.6-0.4-1.1
				c-0.1-0.5-0.1-1-0.1-1.7V6.3h5.1V6.2h-5.1V2.3l-1.9,3.9h-3.1V6.3z"/>
		</g>
		<g>
			<path class="st0" d="M242,6.1l2.1-4.3v4.3h5.1v0.3h-5.1v13.3c0,0.7,0,1.2,0.1,1.7c0.1,0.5,0.2,0.8,0.4,1.1
				c0.2,0.3,0.4,0.5,0.6,0.6s0.6,0.2,0.9,0.2c0.6,0,1.1-0.2,1.5-0.5c0.4-0.3,0.8-0.8,1.1-1.4l0.4,0.3c-0.4,0.7-0.9,1.2-1.3,1.6
				c-0.5,0.4-1.2,0.6-2.1,0.6c-1.4,0-2.5-0.4-3-1.2c-0.6-0.8-0.9-2-0.9-3.5V6.4h-3V6.1H242z"/>
			<path class="st0" d="M245.8,23.8c-1.5,0-2.5-0.4-3.1-1.3c-0.6-0.8-0.9-2.1-0.9-3.6V6.5h-3V5.9h3.2l2.3-4.7v4.7h5.1v0.6h-5.1v13.2
				c0,0.7,0,1.2,0.1,1.7c0.1,0.4,0.2,0.8,0.4,1c0.2,0.2,0.3,0.4,0.6,0.5c0.2,0.1,0.5,0.1,0.8,0.1c0.6,0,1-0.2,1.4-0.5
				c0.4-0.3,0.8-0.8,1.1-1.4l0.1-0.1l0.6,0.4l-0.1,0.1c-0.4,0.7-0.9,1.2-1.4,1.6C247.5,23.5,246.7,23.8,245.8,23.8z M238.9,6.3h3
				v12.6c0,1.5,0.3,2.7,0.9,3.5c0.6,0.8,1.6,1.2,2.9,1.2c0.9,0,1.6-0.2,2-0.5c0.4-0.4,0.9-0.8,1.3-1.4l-0.2-0.1
				c-0.3,0.6-0.7,1-1.1,1.4c-0.4,0.4-1,0.5-1.6,0.5c-0.3,0-0.7-0.1-0.9-0.2c-0.3-0.1-0.5-0.3-0.7-0.6c-0.2-0.3-0.3-0.7-0.4-1.1
				c-0.1-0.5-0.1-1-0.1-1.7V6.3h5.1V6.2H244V2.3l-1.9,3.9h-3.1V6.3z"/>
		</g>
		<g>
			<path class="st0" d="M259.1,5.9c1.2,0,2.3,0.2,3.2,0.5c0.9,0.4,1.7,0.8,2.3,1.5c0.6,0.6,1,1.4,1.3,2.3c0.3,0.9,0.5,1.8,0.5,2.8
				h-13c0,0.3-0.1,0.6-0.1,0.9s0,0.6,0,1c0,1.2,0.2,2.3,0.5,3.3c0.3,1,0.8,1.9,1.3,2.6c0.6,0.7,1.2,1.3,2,1.7
				c0.8,0.4,1.6,0.6,2.6,0.6c0.8,0,1.6-0.1,2.2-0.4c0.7-0.3,1.3-0.7,1.8-1.3c0.6-0.6,1.1-1.2,1.5-2c0.4-0.8,0.8-1.6,1.2-2.5
				l-0.3,4.5c-0.9,0.8-1.9,1.3-3.1,1.7s-2.3,0.5-3.4,0.5c-1.3,0-2.5-0.2-3.6-0.6c-1.1-0.4-2-1-2.8-1.8c-0.8-0.8-1.4-1.7-1.8-2.8
				c-0.4-1.1-0.6-2.3-0.6-3.6c0-1.3,0.2-2.5,0.6-3.6c0.4-1.1,0.9-2,1.7-2.8c0.7-0.8,1.6-1.4,2.6-1.9C256.6,6.1,257.8,5.9,259.1,5.9z
				 M253.4,12.6H264c0-0.9-0.1-1.7-0.4-2.5c-0.2-0.8-0.5-1.4-1-2c-0.4-0.6-0.9-1-1.5-1.3s-1.3-0.5-2.1-0.5c-0.7,0-1.4,0.2-2,0.5
				c-0.6,0.3-1.2,0.7-1.7,1.3s-0.9,1.2-1.2,2C253.8,10.9,253.6,11.7,253.4,12.6z"/>
			<path class="st0" d="M259.6,23.8c-1.3,0-2.5-0.2-3.6-0.6c-1.1-0.4-2.1-1-2.9-1.8c-0.8-0.8-1.4-1.7-1.9-2.8
				c-0.4-1.1-0.7-2.3-0.7-3.7c0-1.3,0.2-2.5,0.6-3.6c0.4-1.1,0.9-2.1,1.7-2.9c0.7-0.8,1.6-1.4,2.6-1.9c1-0.4,2.2-0.7,3.5-0.7
				c1.2,0,2.3,0.2,3.3,0.5c0.9,0.4,1.7,0.9,2.3,1.5c0.6,0.6,1.1,1.4,1.4,2.3c0.3,0.9,0.5,1.8,0.5,2.9l0,0.1h-13
				c0,0.3-0.1,0.6-0.1,0.8c0,0.3,0,0.7,0,1c0,1.2,0.2,2.3,0.5,3.3c0.3,1,0.8,1.9,1.3,2.6c0.6,0.7,1.2,1.3,2,1.7
				c0.8,0.4,1.6,0.6,2.5,0.6c0.8,0,1.5-0.1,2.2-0.4c0.7-0.3,1.3-0.7,1.8-1.3c0.5-0.5,1-1.2,1.5-2c0.4-0.8,0.8-1.6,1.1-2.5l0.3-0.8
				l-0.3,5.4l0,0c-0.9,0.8-2,1.3-3.1,1.7C261.9,23.6,260.7,23.8,259.6,23.8z M259.1,6c-1.3,0-2.4,0.2-3.4,0.7
				c-1,0.4-1.9,1.1-2.6,1.8c-0.7,0.8-1.3,1.7-1.6,2.8c-0.4,1.1-0.6,2.3-0.6,3.5c0,1.3,0.2,2.5,0.6,3.6c0.4,1.1,1,2,1.8,2.7
				c0.8,0.7,1.7,1.3,2.8,1.8c2,0.8,4.4,0.9,6.9,0.1c1.1-0.3,2.1-0.9,3-1.6l0.2-3.6c-0.3,0.7-0.6,1.3-0.9,1.8c-0.4,0.8-1,1.5-1.5,2
				c-0.6,0.6-1.2,1-1.9,1.3c-0.7,0.3-1.5,0.5-2.3,0.5c-0.9,0-1.8-0.2-2.6-0.6c-0.8-0.4-1.5-1-2.1-1.8c-0.6-0.7-1-1.7-1.3-2.7
				c-0.3-1-0.5-2.1-0.5-3.3c0-0.3,0-0.6,0-1c0-0.3,0.1-0.6,0.1-0.9l0-0.1h13c0-1-0.2-1.9-0.5-2.7c-0.3-0.8-0.7-1.6-1.3-2.2
				c-0.6-0.6-1.3-1.1-2.2-1.5C261.3,6.2,260.3,6,259.1,6z M264.1,12.8h-10.8l0-0.1c0.1-0.9,0.4-1.8,0.7-2.6c0.3-0.8,0.7-1.5,1.2-2
				c0.5-0.6,1.1-1,1.7-1.3c0.6-0.3,1.3-0.5,2.1-0.5c0.8,0,1.5,0.2,2.1,0.5c0.6,0.3,1.1,0.8,1.6,1.4c0.4,0.6,0.7,1.3,1,2
				c0.2,0.8,0.4,1.6,0.4,2.5L264.1,12.8z M253.6,12.5h10.3c0-0.8-0.2-1.6-0.4-2.3c-0.2-0.7-0.5-1.4-0.9-2c-0.4-0.6-0.9-1-1.5-1.3
				c-0.6-0.3-1.3-0.5-2-0.5c-0.7,0-1.4,0.2-2,0.5c-0.6,0.3-1.1,0.7-1.6,1.3c-0.5,0.6-0.9,1.2-1.2,2
				C253.9,10.9,253.7,11.7,253.6,12.5z"/>
		</g>
	</g>
</g>
</svg>
