<?xml version="1.0" encoding="utf-8"?>
<!-- Generator: Adobe Illustrator 25.4.1, SVG Export Plug-In . SVG Version: 6.00 Build 0)  -->
<svg version="1.1" id="レイヤー_1" xmlns="http://www.w3.org/2000/svg" xmlns:xlink="http://www.w3.org/1999/xlink" x="0px"
	 y="0px" viewBox="0 0 280 29" style="enable-background:new 0 0 280 29;" xml:space="preserve">
<style type="text/css">
	.st0{fill:#635444;}
</style>
<g>
	<g>
		<path class="st0" d="M39,12.8c0-1.7,0.2-3.1,0.6-4.5c0.4-1.3,0.9-2.5,1.6-3.4c0.7-0.9,1.5-1.7,2.5-2.2c1-0.5,2-0.8,3.2-0.8
			c1.2,0,2.3,0.3,3.2,0.8c1,0.5,1.8,1.3,2.5,2.2c0.7,0.9,1.2,2.1,1.6,3.4c0.4,1.3,0.6,2.8,0.6,4.5c0,1.6-0.2,3.1-0.6,4.5
			c-0.4,1.4-0.9,2.5-1.6,3.5c-0.7,0.9-1.5,1.7-2.5,2.2c-1,0.5-2.1,0.8-3.2,0.8c-1.2,0-2.2-0.3-3.2-0.8c-1-0.5-1.8-1.3-2.5-2.2
			c-0.7-0.9-1.2-2.1-1.6-3.5C39.2,15.9,39,14.4,39,12.8z M41.6,12.8c0,3.3,0.4,5.8,1.3,7.7c0.9,1.8,2.2,2.8,3.9,2.8
			c1.7,0,3-0.9,3.9-2.8c0.9-1.8,1.3-4.4,1.3-7.7s-0.4-5.8-1.3-7.7c-0.9-1.8-2.2-2.8-3.9-2.8c-1.7,0-3,0.9-3.9,2.8
			C42.1,6.9,41.6,9.5,41.6,12.8z"/>
		<path class="st0" d="M46.9,23.8c-1.2,0-2.3-0.3-3.3-0.8c-1-0.5-1.8-1.3-2.5-2.2c-0.7-1-1.2-2.1-1.6-3.5c-0.4-1.4-0.6-2.9-0.6-4.5
			c0-1.7,0.2-3.2,0.6-4.5c0.4-1.3,0.9-2.5,1.6-3.5c0.7-1,1.6-1.7,2.5-2.2c1-0.5,2.1-0.8,3.3-0.8c1.2,0,2.3,0.3,3.3,0.8
			c1,0.5,1.8,1.3,2.5,2.2c0.7,1,1.2,2.1,1.6,3.5c0.4,1.3,0.6,2.9,0.6,4.5c0,1.6-0.2,3.1-0.6,4.5c-0.4,1.4-0.9,2.5-1.6,3.5
			c-0.7,1-1.5,1.7-2.5,2.2C49.2,23.6,48.1,23.8,46.9,23.8z M46.9,2c-1.2,0-2.2,0.3-3.2,0.8c-0.9,0.5-1.8,1.2-2.5,2.2
			C40.6,5.9,40,7,39.7,8.3c-0.4,1.3-0.6,2.8-0.6,4.5c0,1.6,0.2,3.1,0.6,4.4c0.4,1.3,0.9,2.5,1.6,3.4c0.7,0.9,1.5,1.7,2.5,2.2
			c0.9,0.5,2,0.8,3.2,0.8c1.2,0,2.2-0.3,3.2-0.8c1-0.5,1.8-1.2,2.5-2.2c0.7-0.9,1.2-2.1,1.6-3.4c0.4-1.3,0.6-2.8,0.6-4.4
			c0-1.6-0.2-3.1-0.6-4.5c-0.4-1.3-0.9-2.5-1.6-3.4C51.8,4,51,3.3,50.1,2.8C49.1,2.2,48,2,46.9,2z M46.9,23.4c-1.7,0-3.1-1-4-2.8
			c-0.9-1.9-1.4-4.5-1.4-7.7c0-3.3,0.5-5.9,1.4-7.7c0.9-1.9,2.3-2.8,4-2.8c1.8,0,3.1,1,4,2.8c0.9,1.9,1.4,4.5,1.4,7.7
			c0,3.3-0.5,5.9-1.4,7.7C50,22.4,48.6,23.4,46.9,23.4z M46.9,2.4c-1.6,0-2.9,0.9-3.8,2.7c-0.9,1.8-1.3,4.4-1.3,7.6
			c0,3.2,0.4,5.8,1.3,7.6c0.9,1.8,2.1,2.7,3.8,2.7c1.7,0,2.9-0.9,3.8-2.7c0.9-1.8,1.3-4.4,1.3-7.6c0-3.2-0.4-5.8-1.3-7.6
			C49.8,3.4,48.5,2.4,46.9,2.4z"/>
	</g>
	<g>
		<path class="st0" d="M63.6,2L63.6,2l0.1,17.9c0,0.7,0,1.2,0.1,1.7c0.1,0.4,0.1,0.8,0.3,1c0.1,0.3,0.3,0.5,0.5,0.6
			c0.2,0.1,0.5,0.3,0.8,0.4h-5.7c0.3-0.1,0.6-0.2,0.8-0.4c0.2-0.1,0.4-0.3,0.5-0.6c0.1-0.3,0.2-0.6,0.3-1c0.1-0.4,0.1-1,0.1-1.7V6.7
			c0-0.3,0-0.6-0.1-0.9c-0.1-0.3-0.2-0.5-0.4-0.7c-0.2-0.2-0.5-0.3-1-0.4c-0.4-0.1-1-0.2-1.8-0.2c1.3-0.3,2.3-0.7,3.1-1.1
			C62,3,62.8,2.5,63.6,2z"/>
		<path class="st0" d="M66,23.7h-7.2l0.7-0.2c0.3-0.1,0.6-0.2,0.8-0.3c0.2-0.1,0.4-0.3,0.5-0.5c0.1-0.2,0.2-0.6,0.3-1
			c0.1-0.4,0.1-1,0.1-1.7V6.7c0-0.3,0-0.6-0.1-0.9c-0.1-0.2-0.2-0.4-0.4-0.6c-0.2-0.2-0.5-0.3-0.9-0.4c-0.4-0.1-1-0.2-1.8-0.2h-0.9
			L58,4.4c1.2-0.3,2.3-0.7,3.1-1.1c0.8-0.4,1.6-0.9,2.4-1.4l0,0h0.2v18.1c0,0.7,0,1.2,0.1,1.6c0,0.4,0.1,0.7,0.3,1
			c0.1,0.2,0.3,0.4,0.5,0.6c0.2,0.1,0.5,0.3,0.8,0.4L66,23.7z M60.2,23.4h4.4c-0.1,0-0.2-0.1-0.3-0.2c-0.2-0.2-0.4-0.4-0.5-0.6
			c-0.1-0.3-0.2-0.6-0.3-1.1c-0.1-0.4-0.1-1-0.1-1.7V2.1c-0.7,0.5-1.5,1-2.3,1.4c-0.7,0.3-1.5,0.7-2.4,0.9c0.4,0,0.7,0.1,1,0.1
			c0.5,0.1,0.8,0.3,1,0.5c0.2,0.2,0.4,0.4,0.5,0.7c0.1,0.3,0.1,0.6,0.1,0.9v13.2c0,0.7,0,1.3-0.1,1.7c-0.1,0.5-0.1,0.8-0.3,1.1
			c-0.1,0.3-0.3,0.5-0.6,0.6C60.4,23.4,60.3,23.4,60.2,23.4z"/>
	</g>
	<g>
		<path class="st0" d="M78.2,2.1h3l15.3,17.8v-15c0-0.5,0-0.8-0.1-1.1c-0.1-0.3-0.1-0.6-0.3-0.8c-0.1-0.2-0.3-0.4-0.5-0.5
			s-0.5-0.2-0.8-0.3h3.9c-0.6,0.2-1.1,0.5-1.3,0.9c-0.2,0.4-0.4,1-0.4,1.9v18.8h-0.2l-16.4-19v16.3c0,0.9,0.1,1.5,0.4,1.9
			c0.2,0.4,0.7,0.6,1.3,0.9h-3.9c0.7-0.2,1.1-0.5,1.3-0.8c0.2-0.4,0.3-1,0.3-1.9V4.8c0-0.5,0-0.8-0.1-1.1c-0.1-0.3-0.1-0.6-0.3-0.8
			c-0.1-0.2-0.3-0.4-0.5-0.5C78.9,2.2,78.6,2.1,78.2,2.1z"/>
		<path class="st0" d="M97.2,23.7h-0.4l0,0L80.6,4.8v16c0,0.9,0.1,1.5,0.3,1.8c0.2,0.3,0.6,0.6,1.3,0.8l0.7,0.2h-5.5l0.8-0.2
			c0.6-0.2,1.1-0.4,1.3-0.8c0.2-0.4,0.3-1,0.3-1.8V4.8c0-0.4,0-0.8-0.1-1.1c0-0.3-0.1-0.5-0.2-0.7c-0.1-0.2-0.3-0.3-0.5-0.5
			c-0.2-0.1-0.5-0.2-0.8-0.3l-0.9-0.2h4l0,0l15.1,17.5V4.8c0-0.4,0-0.8-0.1-1.1c0-0.3-0.1-0.5-0.2-0.7c-0.1-0.2-0.3-0.3-0.5-0.5
			c-0.2-0.1-0.5-0.2-0.8-0.3l-0.9-0.2h5.6l-0.7,0.2c-0.6,0.2-1,0.5-1.3,0.8c-0.2,0.3-0.3,0.9-0.3,1.8V23.7z M96.9,23.4L96.9,23.4
			l0-18.7c0-0.9,0.1-1.6,0.4-1.9c0.2-0.3,0.4-0.5,0.8-0.7h-2.6c0.1,0,0.1,0.1,0.2,0.1c0.2,0.1,0.4,0.3,0.5,0.6
			c0.1,0.2,0.2,0.5,0.3,0.8c0.1,0.3,0.1,0.7,0.1,1.2v15.4l-15.5-18h-2.2c0.1,0,0.1,0.1,0.2,0.1c0.2,0.1,0.4,0.3,0.5,0.6
			C79.8,3,79.9,3.3,80,3.6C80,3.9,80,4.3,80,4.8v16.1c0,0.9-0.1,1.6-0.4,1.9c-0.2,0.3-0.4,0.5-0.8,0.7h2.6c-0.4-0.2-0.6-0.4-0.8-0.7
			c-0.3-0.4-0.4-1-0.4-1.9V4.2L96.9,23.4z"/>
	</g>
	<g>
		<path class="st0" d="M101.7,6.2l3.2-0.3v12.6c0,0.9,0.1,1.6,0.3,2.2c0.2,0.6,0.4,1.1,0.8,1.5c0.3,0.4,0.8,0.7,1.2,0.8
			c0.5,0.2,1,0.2,1.6,0.2c0.9,0,1.7-0.2,2.4-0.6c0.7-0.4,1.2-1,1.7-1.6c0.5-0.7,0.8-1.4,1.1-2.2c0.2-0.8,0.4-1.6,0.4-2.4v-7
			c0-0.4,0-0.8,0-1.1c0-0.3-0.1-0.6-0.1-0.9c-0.1-0.2-0.1-0.5-0.3-0.7s-0.3-0.4-0.4-0.6l3.2-0.3v14.6c0,0.9,0.1,1.6,0.2,2
			c0.1,0.4,0.4,0.8,0.7,1.1l-3,0.1V19c-0.3,0.7-0.6,1.4-1,2c-0.4,0.6-0.8,1.1-1.3,1.5c-0.5,0.4-1,0.7-1.7,0.9s-1.4,0.3-2.2,0.3
			c-1.8,0-3.2-0.4-4.2-1.3c-1-0.9-1.6-2.2-1.6-4.1V9.4c0-0.4,0-0.8,0-1.1c0-0.3-0.1-0.6-0.1-0.9c-0.1-0.2-0.1-0.5-0.3-0.7
			C102,6.6,101.8,6.4,101.7,6.2z"/>
		<path class="st0" d="M108.3,23.8c-1.8,0-3.2-0.5-4.3-1.4c-1.1-0.9-1.6-2.3-1.6-4.2V9.4c0-0.4,0-0.8,0-1.1c0-0.3-0.1-0.6-0.1-0.8
			c-0.1-0.2-0.1-0.5-0.3-0.7c-0.1-0.2-0.2-0.4-0.4-0.6l-0.1-0.2l3.5-0.3v12.7c0,0.9,0.1,1.6,0.3,2.2c0.2,0.6,0.4,1.1,0.8,1.4
			c0.3,0.4,0.7,0.6,1.2,0.8c0.5,0.2,1,0.2,1.6,0.2c0.9,0,1.7-0.2,2.4-0.6c0.7-0.4,1.2-0.9,1.7-1.6c0.4-0.6,0.8-1.4,1-2.2
			c0.2-0.8,0.4-1.6,0.4-2.3v-7c0-0.4,0-0.8,0-1.1c0-0.3-0.1-0.6-0.1-0.8c-0.1-0.2-0.1-0.5-0.3-0.7c-0.1-0.2-0.2-0.4-0.4-0.6
			l-0.1-0.2l3.5-0.3v14.7c0,0.9,0.1,1.5,0.2,2c0.1,0.4,0.3,0.7,0.6,1l0.2,0.2l-3.4,0.1v-4.2c-0.2,0.5-0.5,1-0.8,1.5
			c-0.4,0.6-0.8,1.1-1.3,1.5c-0.5,0.4-1.1,0.7-1.7,1C109.9,23.7,109.2,23.8,108.3,23.8z M101.9,6.3c0.1,0.2,0.2,0.3,0.3,0.5
			c0.1,0.2,0.2,0.5,0.3,0.7c0.1,0.3,0.1,0.5,0.1,0.9c0,0.3,0,0.7,0,1.1v8.9c0,1.8,0.5,3.1,1.5,4c1,0.9,2.4,1.3,4.1,1.3
			c0.8,0,1.5-0.1,2.1-0.3c0.6-0.2,1.2-0.5,1.6-0.9c0.5-0.4,0.9-0.9,1.2-1.5c0.4-0.6,0.7-1.2,1-2l0.2-0.5v5.1l2.7-0.1
			c-0.2-0.3-0.4-0.6-0.5-0.9c-0.1-0.4-0.2-1.1-0.2-2V6l-2.8,0.2c0.1,0.2,0.2,0.3,0.3,0.5c0.1,0.2,0.2,0.5,0.3,0.7
			c0.1,0.3,0.1,0.5,0.1,0.9c0,0.3,0,0.7,0,1.1v7c0,0.8-0.2,1.6-0.4,2.4c-0.2,0.8-0.6,1.6-1.1,2.2c-0.5,0.7-1,1.2-1.7,1.7
			c-0.7,0.4-1.5,0.7-2.5,0.7c-0.6,0-1.1-0.1-1.6-0.3c-0.5-0.2-0.9-0.5-1.3-0.9c-0.3-0.4-0.6-0.9-0.8-1.5c-0.2-0.6-0.3-1.4-0.3-2.3V6
			L101.9,6.3z"/>
	</g>
	<g>
		<path class="st0" d="M128.7,5.9c1,0,1.9,0.1,2.7,0.4c0.8,0.3,1.6,0.7,2.3,1.3v-5c0-0.6-0.1-1.1-0.2-1.4c-0.1-0.3-0.3-0.6-0.6-0.8
			l3.1-0.4v20.4c0,0.9,0.1,1.5,0.2,2c0.1,0.4,0.4,0.8,0.6,1.1l-3,0.1v-2.4c-0.6,0.9-1.4,1.5-2.3,1.9c-0.9,0.4-1.8,0.6-2.8,0.6
			c-1.3,0-2.5-0.2-3.5-0.6c-1.1-0.4-2-1-2.7-1.8c-0.7-0.8-1.3-1.6-1.7-2.7c-0.4-1-0.6-2.1-0.6-3.3c0-1.4,0.2-2.6,0.6-3.8
			c0.4-1.1,1-2.1,1.8-3c0.8-0.8,1.7-1.5,2.7-1.9C126.3,6.1,127.4,5.9,128.7,5.9z M122.5,14c0,1.3,0.1,2.4,0.4,3.6
			c0.3,1.1,0.7,2.1,1.3,2.9c0.6,0.8,1.3,1.5,2.2,2c0.8,0.5,1.8,0.7,2.9,0.7c0.9,0,1.7-0.2,2.4-0.7s1.4-1.1,1.9-1.8V10.2
			c-0.5-1.3-1.3-2.2-2.2-2.8c-0.9-0.6-1.9-0.9-3.1-0.9c-0.9,0-1.8,0.2-2.5,0.5c-0.7,0.4-1.4,0.9-1.9,1.5c-0.5,0.7-0.9,1.5-1.2,2.4
			C122.6,11.8,122.5,12.9,122.5,14z"/>
		<path class="st0" d="M128.7,23.8c-1.3,0-2.5-0.2-3.6-0.7c-1.1-0.4-2-1-2.7-1.8c-0.8-0.8-1.3-1.7-1.8-2.7c-0.4-1-0.6-2.2-0.6-3.4
			c0-1.4,0.2-2.7,0.6-3.8c0.4-1.2,1-2.2,1.8-3c0.8-0.8,1.7-1.5,2.7-1.9c1.1-0.5,2.2-0.7,3.5-0.7c1,0,1.9,0.2,2.8,0.5
			c0.8,0.3,1.5,0.7,2.1,1.2V2.7c0-0.6,0-1.1-0.1-1.4c-0.1-0.3-0.3-0.5-0.6-0.8l-0.2-0.2l3.5-0.4v20.5c0,0.9,0.1,1.5,0.2,1.9
			c0.1,0.4,0.3,0.7,0.6,1l0.2,0.2l-3.4,0.1v-2.2c-0.6,0.7-1.3,1.3-2.2,1.6C130.6,23.6,129.7,23.8,128.7,23.8z M128.7,6
			c-1.2,0-2.3,0.2-3.4,0.7c-1,0.4-1.9,1.1-2.7,1.9c-0.8,0.8-1.3,1.8-1.8,2.9c-0.4,1.1-0.6,2.4-0.6,3.7c0,1.2,0.2,2.3,0.6,3.3
			c0.4,1,1,1.9,1.7,2.6c0.7,0.7,1.6,1.3,2.7,1.8c1,0.4,2.2,0.6,3.5,0.6c0.9,0,1.8-0.2,2.7-0.6c0.9-0.4,1.6-1,2.3-1.8l0.2-0.3v2.6
			l2.7-0.1c-0.2-0.3-0.4-0.6-0.5-0.9c-0.2-0.4-0.2-1.1-0.2-2V0.3l-2.7,0.3c0.2,0.2,0.4,0.4,0.5,0.7c0.1,0.3,0.2,0.8,0.2,1.4V8
			l-0.2-0.2c-0.7-0.6-1.4-1-2.3-1.3C130.5,6.2,129.6,6,128.7,6z M129.3,23.3c-1.1,0-2.1-0.3-2.9-0.7c-0.9-0.5-1.6-1.2-2.2-2
			c-0.6-0.8-1-1.8-1.3-3c-0.3-1.1-0.5-2.3-0.5-3.6c0-1.1,0.1-2.2,0.4-3.1c0.3-0.9,0.7-1.8,1.2-2.4c0.5-0.7,1.2-1.2,1.9-1.6
			c0.7-0.4,1.6-0.6,2.5-0.6c1.2,0,2.2,0.3,3.1,0.9c0.9,0.6,1.7,1.6,2.2,2.9l0,0v10.5l0,0c-0.5,0.8-1.2,1.4-2,1.9
			C131.1,23.1,130.2,23.3,129.3,23.3z M128.4,6.6c-0.9,0-1.7,0.2-2.4,0.5c-0.7,0.4-1.3,0.9-1.8,1.5c-0.5,0.6-0.9,1.4-1.2,2.3
			c-0.3,0.9-0.4,1.9-0.4,3.1c0,1.2,0.1,2.4,0.4,3.5c0.3,1.1,0.7,2.1,1.3,2.9c0.6,0.8,1.3,1.5,2.1,1.9c0.8,0.5,1.8,0.7,2.8,0.7
			c0.9,0,1.7-0.2,2.4-0.6c0.7-0.4,1.3-1,1.9-1.8V10.2C133,9,132.3,8,131.5,7.4C130.6,6.9,129.6,6.6,128.4,6.6z"/>
	</g>
	<g>
		<path class="st0" d="M147.9,5.9c1.2,0,2.3,0.2,3.2,0.5c0.9,0.4,1.7,0.8,2.3,1.5c0.6,0.6,1,1.4,1.3,2.3c0.3,0.9,0.5,1.8,0.5,2.8
			h-13c0,0.3-0.1,0.6-0.1,0.9c0,0.3,0,0.6,0,1c0,1.2,0.2,2.3,0.5,3.3c0.3,1,0.8,1.9,1.3,2.6c0.6,0.7,1.2,1.3,2,1.7
			c0.8,0.4,1.6,0.6,2.6,0.6c0.8,0,1.6-0.1,2.2-0.4c0.7-0.3,1.3-0.7,1.8-1.3c0.6-0.6,1.1-1.2,1.5-2c0.4-0.8,0.8-1.6,1.2-2.6l-0.3,4.5
			c-0.9,0.8-1.9,1.3-3.1,1.7c-1.2,0.4-2.3,0.5-3.4,0.5c-1.3,0-2.5-0.2-3.6-0.6c-1.1-0.4-2-1-2.8-1.8c-0.8-0.8-1.4-1.7-1.8-2.8
			c-0.4-1.1-0.6-2.3-0.6-3.6c0-1.3,0.2-2.5,0.6-3.6c0.4-1.1,0.9-2,1.7-2.8c0.7-0.8,1.6-1.4,2.6-1.9C145.5,6.1,146.6,5.9,147.9,5.9z
			 M142.3,12.7h10.6c0-0.9-0.1-1.7-0.4-2.5c-0.2-0.8-0.5-1.4-1-2c-0.4-0.6-0.9-1-1.5-1.3c-0.6-0.3-1.3-0.5-2.1-0.5
			c-0.7,0-1.4,0.2-2,0.5c-0.6,0.3-1.2,0.7-1.7,1.3c-0.5,0.6-0.9,1.2-1.2,2C142.7,10.9,142.4,11.7,142.3,12.7z"/>
		<path class="st0" d="M148.5,23.8c-1.3,0-2.5-0.2-3.6-0.6c-1.1-0.4-2.1-1-2.9-1.8c-0.8-0.8-1.4-1.7-1.9-2.8
			c-0.4-1.1-0.7-2.3-0.7-3.7c0-1.3,0.2-2.5,0.6-3.6c0.4-1.1,1-2.1,1.7-2.9c0.7-0.8,1.6-1.5,2.7-1.9c1-0.4,2.2-0.7,3.5-0.7
			c1.2,0,2.3,0.2,3.3,0.5c0.9,0.4,1.7,0.9,2.3,1.5c0.6,0.6,1.1,1.4,1.4,2.3c0.3,0.9,0.5,1.8,0.5,2.9l0,0.1h-13
			c0,0.3-0.1,0.5-0.1,0.8c0,0.3,0,0.6,0,1c0,1.2,0.2,2.3,0.5,3.3c0.3,1,0.8,1.9,1.3,2.6c0.6,0.7,1.2,1.3,2,1.7
			c0.8,0.4,1.6,0.6,2.5,0.6c0.8,0,1.5-0.1,2.2-0.4c0.7-0.3,1.3-0.7,1.8-1.3c0.5-0.5,1-1.2,1.5-2c0.4-0.8,0.8-1.6,1.2-2.5l0.3-0.8
			l-0.3,5.4l0,0c-0.9,0.8-2,1.3-3.1,1.7C150.8,23.6,149.6,23.8,148.5,23.8z M147.9,6c-1.3,0-2.4,0.2-3.4,0.7c-1,0.4-1.9,1.1-2.6,1.8
			c-0.7,0.8-1.3,1.7-1.6,2.8c-0.4,1.1-0.6,2.3-0.6,3.6c0,1.3,0.2,2.5,0.6,3.6c0.4,1.1,1,2,1.8,2.7c0.8,0.7,1.7,1.3,2.8,1.8
			c2,0.8,4.4,0.9,6.9,0.1c1.1-0.3,2.1-0.9,3-1.6l0.2-3.7c-0.3,0.7-0.6,1.3-0.9,1.8c-0.4,0.8-1,1.5-1.5,2c-0.6,0.6-1.2,1-1.9,1.3
			c-0.7,0.3-1.5,0.5-2.3,0.5c-0.9,0-1.8-0.2-2.6-0.6c-0.8-0.4-1.5-1-2.1-1.8c-0.6-0.7-1-1.7-1.4-2.7c-0.3-1-0.5-2.1-0.5-3.3
			c0-0.3,0-0.7,0-1c0-0.3,0.1-0.6,0.1-1l0-0.1h13c0-1-0.2-1.9-0.5-2.7c-0.3-0.8-0.7-1.6-1.3-2.2c-0.6-0.6-1.3-1.1-2.2-1.5
			C150.2,6.2,149.2,6,147.9,6z M153,12.8h-10.8l0-0.1c0.1-0.9,0.4-1.8,0.7-2.6c0.3-0.8,0.7-1.5,1.2-2c0.5-0.6,1.1-1,1.7-1.3
			c0.6-0.3,1.3-0.5,2.1-0.5c0.8,0,1.5,0.2,2.1,0.5c0.6,0.3,1.2,0.8,1.6,1.4c0.4,0.6,0.7,1.3,1,2c0.2,0.8,0.4,1.6,0.4,2.5L153,12.8z
			 M142.4,12.5h10.3c0-0.8-0.2-1.6-0.4-2.4c-0.2-0.7-0.5-1.4-0.9-2c-0.4-0.6-0.9-1-1.5-1.3c-0.6-0.3-1.3-0.5-2-0.5
			c-0.7,0-1.4,0.2-2,0.5c-0.6,0.3-1.1,0.7-1.6,1.3c-0.5,0.6-0.9,1.2-1.2,2C142.8,10.9,142.6,11.7,142.4,12.5z"/>
	</g>
	<g>
		<path class="st0" d="M169.9,20.8V4.8c0-0.5,0-0.8-0.1-1.1c-0.1-0.3-0.1-0.6-0.3-0.8c-0.1-0.2-0.3-0.4-0.5-0.5s-0.5-0.2-0.8-0.3
			h7.5c1,0,2,0.1,2.9,0.3c0.9,0.2,1.8,0.5,2.5,0.9c0.7,0.4,1.3,1,1.8,1.7s0.7,1.5,0.7,2.5c0,0.9-0.2,1.6-0.5,2.3
			c-0.3,0.7-0.8,1.2-1.4,1.7c-0.6,0.5-1.2,0.9-2,1.2c-0.7,0.3-1.5,0.5-2.3,0.6l5,6.1c0.3,0.4,0.7,0.8,1.1,1.2
			c0.4,0.5,0.8,0.9,1.2,1.3c0.4,0.4,0.7,0.8,1.1,1.1c0.3,0.3,0.5,0.5,0.6,0.6h-4.1c0-0.3,0-0.6-0.1-0.9c-0.1-0.3-0.2-0.6-0.4-0.9
			c-0.2-0.3-0.4-0.6-0.7-1c-0.3-0.4-0.6-0.7-0.9-1.2l-5.1-6.4h-2.7v7.5c0,0.9,0.1,1.5,0.4,1.9c0.2,0.4,0.7,0.6,1.3,0.9h-5.7
			c0.7-0.2,1.1-0.5,1.3-0.8C169.8,22.4,169.9,21.7,169.9,20.8z M172.3,12.9h3.1c1.8,0,3.2-0.5,4.3-1.4c1-0.9,1.5-2.2,1.5-3.9
			c0-0.9-0.2-1.7-0.5-2.4c-0.3-0.6-0.8-1.1-1.3-1.5c-0.6-0.4-1.2-0.7-1.9-0.8c-0.7-0.2-1.5-0.2-2.3-0.2h-2.8V12.9z"/>
		<path class="st0" d="M186.8,23.7h-4.7v-0.1c0-0.3,0-0.5-0.1-0.8c-0.1-0.3-0.2-0.5-0.4-0.8c-0.2-0.3-0.4-0.6-0.7-1
			c-0.3-0.4-0.6-0.7-0.9-1.2l-5.1-6.3h-2.5v7.4c0,0.9,0.1,1.5,0.3,1.8c0.2,0.3,0.6,0.6,1.3,0.8l0.7,0.2h-7.3l0.8-0.2
			c0.6-0.2,1.1-0.4,1.3-0.8c0.2-0.4,0.3-1,0.3-1.8V4.8c0-0.4,0-0.8-0.1-1.1c0-0.3-0.1-0.5-0.2-0.7c-0.1-0.2-0.3-0.3-0.5-0.5
			c-0.2-0.1-0.5-0.2-0.8-0.3l-0.9-0.2h8.5c1,0,2,0.1,2.9,0.3c0.9,0.2,1.8,0.5,2.5,0.9c0.7,0.4,1.4,1,1.8,1.7
			c0.5,0.7,0.7,1.6,0.7,2.6c0,0.9-0.2,1.7-0.5,2.4c-0.3,0.7-0.8,1.3-1.4,1.8c-0.6,0.5-1.3,0.9-2,1.2c-0.7,0.3-1.4,0.5-2.1,0.6
			l4.9,5.9c0.3,0.3,0.7,0.8,1.1,1.2c0.4,0.5,0.8,0.9,1.2,1.3c0.4,0.4,0.7,0.8,1,1.1c0.4,0.4,0.5,0.5,0.6,0.6L186.8,23.7z
			 M182.3,23.4h3.7c-0.1-0.1-0.2-0.2-0.4-0.4c-0.3-0.3-0.7-0.7-1.1-1.1c-0.4-0.4-0.8-0.8-1.2-1.3c-0.4-0.5-0.8-0.9-1.1-1.2l-5.2-6.2
			l0.2,0c0.8-0.1,1.6-0.3,2.3-0.6c0.7-0.3,1.4-0.7,1.9-1.1c0.6-0.5,1-1,1.3-1.7c0.3-0.6,0.5-1.4,0.5-2.3c0-1-0.2-1.8-0.6-2.4
			c-0.4-0.7-1-1.2-1.7-1.6c-0.7-0.4-1.5-0.7-2.5-0.9c-0.9-0.2-1.9-0.3-2.9-0.3h-6.8c0.1,0,0.1,0.1,0.2,0.1c0.2,0.1,0.4,0.3,0.5,0.6
			c0.1,0.2,0.2,0.5,0.3,0.8c0.1,0.3,0.1,0.7,0.1,1.2v16.1c0,0.9-0.1,1.6-0.4,1.9c-0.2,0.3-0.4,0.5-0.8,0.7h4.4
			c-0.4-0.2-0.6-0.4-0.8-0.7c-0.3-0.4-0.4-1-0.4-1.9v-7.6h2.8l0,0l5.1,6.4c0.3,0.4,0.7,0.8,0.9,1.2c0.3,0.4,0.5,0.7,0.7,1
			c0.2,0.3,0.3,0.6,0.4,0.9C182.3,22.9,182.3,23.2,182.3,23.4z M175.4,13h-3.2V2.4h2.9c0.8,0,1.6,0.1,2.4,0.3c0.7,0.2,1.4,0.5,2,0.8
			c0.6,0.4,1,0.9,1.4,1.6c0.3,0.7,0.5,1.5,0.5,2.4c0,1.7-0.5,3.1-1.6,4C178.7,12.5,177.2,13,175.4,13z M172.4,12.7h3
			c1.8,0,3.2-0.5,4.2-1.3c1-0.9,1.5-2.2,1.5-3.9c0-0.9-0.2-1.7-0.5-2.3c-0.3-0.6-0.8-1.1-1.3-1.5c-0.5-0.4-1.2-0.6-1.9-0.8
			c-0.7-0.2-1.5-0.2-2.3-0.2h-2.7V12.7z"/>
	</g>
	<g>
		<path class="st0" d="M197.7,5.9c1.3,0,2.5,0.2,3.6,0.6c1.1,0.4,2,1,2.8,1.8c0.8,0.8,1.4,1.7,1.8,2.8s0.6,2.3,0.6,3.6v0
			c0,1.3-0.2,2.5-0.6,3.6s-1,2-1.8,2.8c-0.8,0.8-1.7,1.4-2.8,1.8c-1.1,0.4-2.3,0.6-3.6,0.6s-2.5-0.2-3.6-0.6c-1.1-0.4-2-1-2.8-1.8
			c-0.8-0.8-1.4-1.7-1.8-2.8c-0.4-1.1-0.6-2.3-0.6-3.6v0c0-1.3,0.2-2.5,0.6-3.6c0.4-1.1,1-2,1.8-2.8c0.8-0.8,1.7-1.4,2.8-1.8
			C195.2,6.1,196.4,5.9,197.7,5.9z M191.3,14.8c0,1.2,0.2,2.4,0.5,3.4c0.3,1,0.7,1.9,1.3,2.7c0.6,0.8,1.2,1.3,2,1.7
			c0.8,0.4,1.7,0.6,2.6,0.6s1.8-0.2,2.6-0.6c0.8-0.4,1.5-1,2-1.7c0.6-0.8,1-1.6,1.3-2.7c0.3-1,0.5-2.2,0.5-3.4
			c0-1.2-0.2-2.4-0.5-3.4c-0.3-1-0.7-1.9-1.3-2.7c-0.6-0.7-1.2-1.3-2-1.7c-0.8-0.4-1.7-0.6-2.6-0.6s-1.8,0.2-2.6,0.6
			c-0.8,0.4-1.5,1-2,1.7c-0.6,0.7-1,1.6-1.3,2.7C191.5,12.4,191.3,13.6,191.3,14.8z"/>
		<path class="st0" d="M197.7,23.8c-1.3,0-2.6-0.2-3.6-0.7c-1.1-0.4-2-1.1-2.8-1.9c-0.8-0.8-1.4-1.8-1.9-2.9
			c-0.4-1.1-0.7-2.3-0.7-3.6v0c0-1.3,0.2-2.5,0.7-3.6c0.4-1.1,1.1-2.1,1.9-2.9c0.8-0.8,1.7-1.4,2.8-1.9c1.1-0.4,2.3-0.7,3.6-0.7
			c1.3,0,2.6,0.2,3.6,0.7c1.1,0.4,2,1.1,2.8,1.9c0.8,0.8,1.4,1.8,1.9,2.9c0.4,1.1,0.7,2.3,0.7,3.6v0c0,1.3-0.2,2.5-0.7,3.6
			c-0.4,1.1-1.1,2.1-1.9,2.9c-0.8,0.8-1.7,1.4-2.8,1.9C200.3,23.6,199,23.8,197.7,23.8z M197.7,6c-1.3,0-2.5,0.2-3.6,0.6
			c-1.1,0.4-2,1-2.8,1.8c-0.8,0.8-1.4,1.7-1.8,2.8c-0.4,1.1-0.6,2.3-0.6,3.5v0c0,1.3,0.2,2.5,0.6,3.5c0.4,1.1,1,2,1.8,2.8
			c0.8,0.8,1.7,1.4,2.8,1.8c1.1,0.4,2.3,0.6,3.6,0.6c1.3,0,2.5-0.2,3.6-0.6c1.1-0.4,2-1,2.8-1.8c0.8-0.8,1.4-1.7,1.8-2.8
			c0.4-1.1,0.6-2.3,0.6-3.5v0c0-1.3-0.2-2.5-0.6-3.5c-0.4-1.1-1-2-1.8-2.8c-0.8-0.8-1.7-1.4-2.8-1.8C200.2,6.3,199,6,197.7,6z
			 M197.7,23.4c-1,0-1.9-0.2-2.7-0.6c-0.8-0.4-1.5-1-2.1-1.8c-0.6-0.8-1-1.7-1.3-2.7c-0.3-1-0.5-2.2-0.5-3.4c0-1.2,0.2-2.4,0.5-3.4
			c0.3-1,0.8-1.9,1.3-2.7c0.6-0.8,1.3-1.3,2.1-1.8c0.8-0.4,1.7-0.6,2.7-0.6c1,0,1.9,0.2,2.7,0.6c0.8,0.4,1.5,1,2.1,1.8
			c0.6,0.8,1,1.7,1.3,2.7c0.3,1,0.5,2.2,0.5,3.4c0,1.2-0.2,2.4-0.5,3.4c-0.3,1-0.8,2-1.3,2.7c-0.6,0.8-1.3,1.4-2.1,1.8
			C199.6,23.2,198.7,23.4,197.7,23.4z M197.7,6.5c-0.9,0-1.8,0.2-2.5,0.6c-0.8,0.4-1.4,1-2,1.7c-0.5,0.7-1,1.6-1.3,2.6
			c-0.3,1-0.5,2.2-0.5,3.4c0,1.2,0.2,2.4,0.5,3.4c0.3,1,0.7,1.9,1.3,2.6c0.5,0.7,1.2,1.3,2,1.7c0.8,0.4,1.6,0.6,2.5,0.6
			s1.8-0.2,2.5-0.6c0.8-0.4,1.4-1,2-1.7c0.5-0.7,1-1.6,1.3-2.6c0.3-1,0.5-2.1,0.5-3.4c0-1.2-0.2-2.4-0.5-3.4c-0.3-1-0.7-1.9-1.3-2.6
			c-0.5-0.7-1.2-1.3-2-1.7C199.5,6.7,198.6,6.5,197.7,6.5z"/>
	</g>
	<g>
		<path class="st0" d="M209.3,21.9l0.5-5.8c0.1,1.4,0.4,2.6,0.7,3.5c0.3,0.9,0.8,1.7,1.3,2.2c0.5,0.5,1.1,0.9,1.7,1.2
			c0.7,0.2,1.3,0.3,2.1,0.3c1.5,0,2.7-0.4,3.4-1.1c0.7-0.7,1.1-1.7,1.1-2.7c0-0.6-0.1-1.1-0.3-1.6c-0.2-0.4-0.5-0.8-0.8-1.1
			c-0.3-0.3-0.7-0.5-1-0.6c-0.4-0.2-0.7-0.3-1-0.4l-3.3-1.1c-0.3-0.1-0.7-0.3-1.1-0.5c-0.4-0.2-0.8-0.5-1.2-0.9
			c-0.4-0.4-0.7-0.8-0.9-1.3c-0.3-0.5-0.4-1.1-0.4-1.8c0-1.4,0.5-2.4,1.5-3.2c1-0.8,2.4-1.2,4-1.2c1.1,0,2.2,0.2,3.1,0.5
			c0.9,0.4,1.7,0.8,2.4,1.4l-0.2,4.2c-0.5-2-1.2-3.5-2-4.4c-0.8-0.9-2-1.3-3.4-1.3c-1.1,0-2,0.3-2.8,0.8c-0.7,0.5-1.1,1.3-1.1,2.4
			c0,0.5,0.1,0.9,0.3,1.2c0.2,0.3,0.5,0.6,0.8,0.8c0.3,0.2,0.6,0.4,1,0.5c0.4,0.1,0.7,0.3,1,0.4l3,1c0.4,0.1,0.8,0.3,1.3,0.5
			c0.5,0.2,1,0.5,1.4,0.9c0.5,0.4,0.8,0.9,1.1,1.4c0.3,0.6,0.5,1.3,0.5,2.1c0,0.8-0.1,1.5-0.4,2.1c-0.3,0.6-0.7,1.2-1.3,1.7
			c-0.6,0.5-1.2,0.8-2.1,1.1c-0.8,0.3-1.8,0.4-2.8,0.4c-1.2,0-2.3-0.2-3.4-0.5C210.9,22.9,210,22.5,209.3,21.9z"/>
		<path class="st0" d="M215.4,23.8c-1.2,0-2.3-0.2-3.4-0.5c-1.1-0.3-2-0.8-2.7-1.4l0,0l0.5-5.9h0.2c0.1,1.4,0.4,2.6,0.7,3.5
			c0.3,0.9,0.8,1.6,1.2,2.2c0.5,0.5,1.1,0.9,1.7,1.1c0.6,0.2,1.3,0.3,2,0.3c1.5,0,2.6-0.4,3.3-1.1c0.7-0.7,1.1-1.6,1.1-2.6
			c0-0.6-0.1-1.1-0.3-1.5c-0.2-0.4-0.5-0.8-0.8-1c-0.3-0.3-0.6-0.5-1-0.6c-0.4-0.2-0.7-0.3-1-0.4l-3.3-1.1c-0.3-0.1-0.7-0.3-1.1-0.5
			c-0.4-0.2-0.8-0.5-1.2-0.9c-0.4-0.4-0.7-0.8-1-1.3c-0.3-0.5-0.4-1.1-0.4-1.8c0-1.4,0.5-2.5,1.6-3.3c1-0.8,2.4-1.2,4.1-1.2
			c1.1,0,2.2,0.2,3.2,0.5c1,0.4,1.8,0.8,2.5,1.4l0,0l-0.3,5l-0.2-0.8c-0.5-2-1.2-3.4-2-4.3c-0.8-0.9-1.9-1.3-3.3-1.3
			c-1.1,0-2,0.3-2.7,0.8c-0.7,0.5-1.1,1.3-1.1,2.3c0,0.5,0.1,0.9,0.3,1.2c0.2,0.3,0.4,0.6,0.7,0.8c0.3,0.2,0.6,0.4,0.9,0.5
			c0.3,0.1,0.7,0.3,1,0.4l3,1c0.4,0.1,0.8,0.3,1.4,0.5c0.5,0.2,1,0.5,1.5,0.9c0.5,0.4,0.9,0.9,1.2,1.5c0.3,0.6,0.5,1.3,0.5,2.1
			c0,0.8-0.1,1.5-0.4,2.2c-0.3,0.7-0.7,1.2-1.3,1.7c-0.6,0.5-1.3,0.9-2.1,1.1C217.4,23.7,216.5,23.8,215.4,23.8z M209.5,21.9
			c0.7,0.5,1.5,1,2.6,1.3c1.1,0.3,2.2,0.5,3.4,0.5c1.1,0,2-0.1,2.8-0.4c0.8-0.3,1.5-0.6,2-1.1c0.5-0.5,1-1,1.2-1.6
			c0.3-0.6,0.4-1.3,0.4-2.1c0-0.8-0.2-1.5-0.4-2c-0.3-0.5-0.7-1-1.1-1.4c-0.4-0.4-0.9-0.7-1.4-0.9c-0.5-0.2-1-0.4-1.3-0.5l-3-1
			c-0.3-0.1-0.6-0.2-1-0.4c-0.4-0.1-0.7-0.3-1-0.5c-0.3-0.2-0.6-0.5-0.8-0.9c-0.2-0.3-0.3-0.8-0.3-1.3c0-1.1,0.4-2,1.2-2.5
			c0.8-0.5,1.7-0.8,2.9-0.8c1.4,0,2.6,0.5,3.4,1.4c0.7,0.8,1.4,2,1.9,3.7l0.2-3.4c-0.7-0.6-1.4-1-2.3-1.4c-0.9-0.3-2-0.5-3.1-0.5
			c-1.6,0-3,0.4-3.9,1.2c-1,0.8-1.5,1.8-1.5,3.1c0,0.7,0.1,1.2,0.4,1.7c0.2,0.5,0.6,0.9,0.9,1.3c0.4,0.3,0.7,0.6,1.2,0.8
			c0.4,0.2,0.8,0.4,1.1,0.5l3.3,1.1c0.3,0.1,0.7,0.2,1,0.4c0.4,0.2,0.7,0.4,1.1,0.7c0.3,0.3,0.6,0.7,0.8,1.1c0.2,0.4,0.4,1,0.4,1.6
			c0,1.1-0.4,2-1.1,2.8c-0.8,0.8-1.9,1.1-3.5,1.1c-0.8,0-1.5-0.1-2.1-0.3c-0.7-0.2-1.3-0.6-1.8-1.2c-0.5-0.6-0.9-1.3-1.3-2.3
			c-0.2-0.7-0.4-1.5-0.6-2.4L209.5,21.9z"/>
	</g>
	<g>
		<path class="st0" d="M233,5.9c1.2,0,2.3,0.2,3.2,0.5c0.9,0.4,1.7,0.8,2.3,1.5c0.6,0.6,1,1.4,1.3,2.3c0.3,0.9,0.5,1.8,0.5,2.8h-13
			c0,0.3-0.1,0.6-0.1,0.9c0,0.3,0,0.6,0,1c0,1.2,0.2,2.3,0.5,3.3c0.3,1,0.8,1.9,1.3,2.6c0.6,0.7,1.2,1.3,2,1.7
			c0.8,0.4,1.6,0.6,2.6,0.6c0.8,0,1.6-0.1,2.2-0.4c0.7-0.3,1.3-0.7,1.8-1.3c0.6-0.6,1.1-1.2,1.5-2c0.4-0.8,0.8-1.6,1.2-2.6l-0.3,4.5
			c-0.9,0.8-1.9,1.3-3.1,1.7c-1.2,0.4-2.3,0.5-3.4,0.5c-1.3,0-2.5-0.2-3.6-0.6c-1.1-0.4-2-1-2.8-1.8c-0.8-0.8-1.4-1.7-1.8-2.8
			c-0.4-1.1-0.6-2.3-0.6-3.6c0-1.3,0.2-2.5,0.6-3.6c0.4-1.1,0.9-2,1.7-2.8c0.7-0.8,1.6-1.4,2.6-1.9C230.6,6.1,231.7,5.9,233,5.9z
			 M227.4,12.7H238c0-0.9-0.1-1.7-0.4-2.5c-0.2-0.8-0.5-1.4-1-2c-0.4-0.6-0.9-1-1.5-1.3c-0.6-0.3-1.3-0.5-2.1-0.5
			c-0.7,0-1.4,0.2-2,0.5c-0.6,0.3-1.2,0.7-1.7,1.3c-0.5,0.6-0.9,1.2-1.2,2C227.8,10.9,227.6,11.7,227.4,12.7z"/>
		<path class="st0" d="M233.6,23.8c-1.3,0-2.5-0.2-3.6-0.6c-1.1-0.4-2.1-1-2.9-1.8c-0.8-0.8-1.4-1.7-1.9-2.8
			c-0.4-1.1-0.7-2.3-0.7-3.7c0-1.3,0.2-2.5,0.6-3.6c0.4-1.1,1-2.1,1.7-2.9c0.7-0.8,1.6-1.5,2.7-1.9c1-0.4,2.2-0.7,3.5-0.7
			c1.2,0,2.3,0.2,3.3,0.5c0.9,0.4,1.7,0.9,2.3,1.5c0.6,0.6,1.1,1.4,1.4,2.3c0.3,0.9,0.5,1.8,0.5,2.9l0,0.1h-13
			c0,0.3-0.1,0.5-0.1,0.8c0,0.3,0,0.6,0,1c0,1.2,0.2,2.3,0.5,3.3c0.3,1,0.8,1.9,1.3,2.6c0.6,0.7,1.2,1.3,2,1.7
			c0.8,0.4,1.6,0.6,2.5,0.6c0.8,0,1.5-0.1,2.2-0.4c0.7-0.3,1.3-0.7,1.8-1.3c0.5-0.5,1-1.2,1.5-2c0.4-0.8,0.8-1.6,1.2-2.5l0.3-0.8
			l-0.3,5.4l0,0c-0.9,0.8-2,1.3-3.1,1.7C235.9,23.6,234.7,23.8,233.6,23.8z M233,6c-1.3,0-2.4,0.2-3.4,0.7c-1,0.4-1.9,1.1-2.6,1.8
			c-0.7,0.8-1.3,1.7-1.6,2.8c-0.4,1.1-0.6,2.3-0.6,3.6c0,1.3,0.2,2.5,0.6,3.6c0.4,1.1,1,2,1.8,2.7c0.8,0.7,1.7,1.3,2.8,1.8
			c2,0.8,4.4,0.9,6.9,0.1c1.1-0.3,2.1-0.9,3-1.6l0.2-3.7c-0.3,0.7-0.6,1.3-0.9,1.8c-0.4,0.8-1,1.5-1.5,2c-0.6,0.6-1.2,1-1.9,1.3
			c-0.7,0.3-1.5,0.5-2.3,0.5c-0.9,0-1.8-0.2-2.6-0.6c-0.8-0.4-1.5-1-2.1-1.8c-0.6-0.7-1-1.7-1.4-2.7c-0.3-1-0.5-2.1-0.5-3.3
			c0-0.3,0-0.7,0-1c0-0.3,0.1-0.6,0.1-1l0-0.1h13c0-1-0.2-1.9-0.5-2.7c-0.3-0.8-0.7-1.6-1.3-2.2c-0.6-0.6-1.3-1.1-2.2-1.5
			C235.3,6.2,234.3,6,233,6z M238.1,12.8h-10.8l0-0.1c0.1-0.9,0.4-1.8,0.7-2.6c0.3-0.8,0.7-1.5,1.2-2c0.5-0.6,1.1-1,1.7-1.3
			c0.6-0.3,1.3-0.5,2.1-0.5c0.8,0,1.5,0.2,2.1,0.5c0.6,0.3,1.2,0.8,1.6,1.4c0.4,0.6,0.7,1.3,1,2c0.2,0.8,0.4,1.6,0.4,2.5L238.1,12.8
			z M227.5,12.5h10.3c0-0.8-0.2-1.6-0.4-2.4c-0.2-0.7-0.5-1.4-0.9-2c-0.4-0.6-0.9-1-1.5-1.3c-0.6-0.3-1.3-0.5-2-0.5
			c-0.7,0-1.4,0.2-2,0.5c-0.6,0.3-1.1,0.7-1.6,1.3c-0.5,0.6-0.9,1.2-1.2,2C227.9,10.9,227.7,11.7,227.5,12.5z"/>
	</g>
</g>
</svg>
