<?xml version="1.0" encoding="utf-8"?>
<!-- Generator: Adobe Illustrator 25.4.1, SVG Export Plug-In . SVG Version: 6.00 Build 0)  -->
<svg version="1.1" id="レイヤー_1" xmlns="http://www.w3.org/2000/svg" xmlns:xlink="http://www.w3.org/1999/xlink" x="0px"
	 y="0px" viewBox="0 0 280 29" style="enable-background:new 0 0 280 29;" xml:space="preserve">
<style type="text/css">
	.st0{fill:#635444;}
</style>
<g>
	<g>
		<path class="st0" d="M24.3,12.8c0-1.7,0.2-3.1,0.6-4.5c0.4-1.3,0.9-2.5,1.6-3.4C27.2,3.9,28,3.2,29,2.7c1-0.5,2-0.8,3.2-0.8
			c1.2,0,2.3,0.3,3.2,0.8s1.8,1.3,2.5,2.2c0.7,0.9,1.2,2.1,1.6,3.4c0.4,1.3,0.6,2.8,0.6,4.5c0,1.6-0.2,3.1-0.6,4.5
			c-0.4,1.4-0.9,2.5-1.6,3.5c-0.7,0.9-1.5,1.7-2.5,2.2c-1,0.5-2.1,0.8-3.2,0.8c-1.2,0-2.2-0.3-3.2-0.8c-1-0.5-1.8-1.3-2.5-2.2
			c-0.7-0.9-1.2-2.1-1.6-3.5C24.5,15.9,24.3,14.4,24.3,12.8z M27,12.8c0,3.3,0.4,5.8,1.3,7.7c0.9,1.8,2.2,2.8,3.9,2.8
			c1.7,0,3-0.9,3.9-2.8c0.9-1.8,1.3-4.4,1.3-7.7c0-3.3-0.4-5.8-1.3-7.7c-0.9-1.8-2.2-2.8-3.9-2.8c-1.7,0-3,0.9-3.9,2.8
			C27.4,6.9,27,9.5,27,12.8z"/>
		<path class="st0" d="M32.2,23.8c-1.2,0-2.3-0.3-3.3-0.8c-1-0.5-1.8-1.3-2.5-2.2c-0.7-1-1.2-2.1-1.6-3.5c-0.4-1.4-0.6-2.9-0.6-4.5
			c0-1.7,0.2-3.2,0.6-4.5c0.4-1.3,0.9-2.5,1.6-3.5c0.7-1,1.6-1.7,2.5-2.2c1-0.5,2.1-0.8,3.3-0.8c1.2,0,2.3,0.3,3.3,0.8
			c1,0.5,1.8,1.3,2.5,2.2c0.7,1,1.2,2.1,1.6,3.5c0.4,1.3,0.6,2.9,0.6,4.5c0,1.6-0.2,3.1-0.6,4.5c-0.4,1.4-0.9,2.5-1.6,3.5
			c-0.7,1-1.5,1.7-2.5,2.2C34.5,23.6,33.4,23.8,32.2,23.8z M32.2,2C31,2,30,2.2,29,2.8c-0.9,0.5-1.8,1.2-2.5,2.2
			C25.9,5.9,25.4,7,25,8.3c-0.4,1.3-0.6,2.8-0.6,4.5c0,1.6,0.2,3.1,0.6,4.4c0.4,1.3,0.9,2.5,1.6,3.4c0.7,0.9,1.5,1.7,2.5,2.2
			c0.9,0.5,2,0.8,3.2,0.8c1.2,0,2.2-0.3,3.2-0.8c1-0.5,1.8-1.2,2.5-2.2c0.7-0.9,1.2-2.1,1.6-3.4c0.4-1.3,0.6-2.8,0.6-4.4
			c0-1.6-0.2-3.1-0.6-4.5C39,7,38.5,5.9,37.8,4.9c-0.7-0.9-1.5-1.7-2.5-2.2C34.4,2.2,33.4,2,32.2,2z M32.2,23.4c-1.7,0-3.1-1-4-2.8
			c-0.9-1.9-1.4-4.5-1.4-7.7c0-3.3,0.5-5.9,1.4-7.7c0.9-1.9,2.3-2.8,4-2.8c1.8,0,3.1,1,4,2.8c0.9,1.9,1.4,4.5,1.4,7.7
			c0,3.3-0.5,5.9-1.4,7.7C35.3,22.4,33.9,23.4,32.2,23.4z M32.2,2.4c-1.6,0-2.9,0.9-3.8,2.7c-0.9,1.8-1.3,4.4-1.3,7.6
			c0,3.2,0.4,5.8,1.3,7.6c0.9,1.8,2.1,2.7,3.8,2.7c1.7,0,2.9-0.9,3.8-2.7c0.9-1.8,1.3-4.4,1.3-7.6c0-3.2-0.4-5.8-1.3-7.6
			C35.1,3.4,33.8,2.4,32.2,2.4z"/>
	</g>
	<g>
		<path class="st0" d="M50.4,23.2c0.7,0,1.4-0.1,2-0.4c0.6-0.3,1.1-0.7,1.6-1.2c0.4-0.5,0.8-1.2,1-1.9c0.2-0.8,0.4-1.7,0.4-2.7
			c0-1.8-0.4-3.2-1.2-4.2c-0.8-0.9-2-1.4-3.4-1.4c-0.5,0-1,0-1.5,0.1c-0.6,0.1-1.1,0.3-1.7,0.5l-0.1-0.3L54.6,4h-5.8
			c-0.8,0-1.4,0.1-1.9,0.2c-0.5,0.2-0.9,0.4-1.2,0.6c-0.3,0.3-0.5,0.6-0.7,0.9c-0.2,0.3-0.3,0.6-0.3,0.9l0.1-4.6h12.1v0.3l-8.4,9
			c1-0.3,2-0.4,2.9-0.4c1.1,0,2,0.2,2.8,0.5c0.8,0.3,1.5,0.7,2.1,1.3c0.6,0.5,1,1.2,1.3,1.9c0.3,0.7,0.5,1.5,0.5,2.4
			c0,0.8-0.2,1.6-0.5,2.4c-0.3,0.8-0.8,1.5-1.5,2.2c-0.7,0.6-1.4,1.2-2.4,1.5c-0.9,0.4-2,0.6-3.2,0.6c-0.6,0-1.2,0-1.7-0.1
			c-0.5-0.1-1-0.2-1.5-0.3c-0.5-0.1-1-0.3-1.4-0.6c-0.5-0.2-1-0.5-1.5-0.9v-5.4c0.2,1.4,0.6,2.5,1.1,3.4c0.5,0.9,1,1.6,1.5,2.1
			c0.6,0.5,1.1,0.9,1.7,1C49.3,23.2,49.9,23.2,50.4,23.2z"/>
		<path class="st0" d="M50.4,23.8c-0.6,0-1.2,0-1.7-0.1c-0.5-0.1-1-0.2-1.5-0.3c-0.5-0.1-1-0.3-1.5-0.6c-0.5-0.2-1-0.5-1.5-0.9
			l-0.1,0v-5.5l0.2,0c0.2,1.4,0.6,2.5,1.1,3.4c0.5,0.9,1,1.5,1.5,2c0.5,0.5,1.1,0.8,1.7,1c1.3,0.4,2.6,0.3,3.6-0.1
			c0.6-0.3,1.1-0.6,1.5-1.2c0.4-0.5,0.8-1.2,1-1.9c0.2-0.8,0.4-1.7,0.4-2.7c0-1.8-0.4-3.2-1.2-4.1c-0.8-0.9-1.9-1.4-3.3-1.4
			c-0.5,0-1,0-1.5,0.1c-0.5,0.1-1.1,0.3-1.7,0.5l-0.1,0l-0.2-0.5l7.1-7.6h-5.5c-0.7,0-1.4,0.1-1.8,0.2c-0.5,0.2-0.9,0.4-1.2,0.6
			c-0.3,0.3-0.5,0.5-0.7,0.8c-0.2,0.3-0.3,0.6-0.3,0.8l-0.2,0l0.1-4.7h12.3v0.5l0,0l-8.2,8.7c0.9-0.2,1.7-0.3,2.5-0.3
			c1.1,0,2,0.2,2.9,0.5c0.8,0.3,1.6,0.8,2.2,1.3c0.6,0.6,1.1,1.2,1.4,2c0.3,0.7,0.5,1.6,0.5,2.4c0,0.8-0.2,1.7-0.5,2.5
			c-0.3,0.8-0.8,1.6-1.5,2.2c-0.7,0.6-1.5,1.2-2.4,1.6C52.8,23.6,51.7,23.8,50.4,23.8z M44.4,21.8c0.5,0.3,1,0.6,1.5,0.8
			c0.5,0.2,1,0.4,1.4,0.6c0.5,0.1,1,0.2,1.5,0.3c0.5,0.1,1.1,0.1,1.7,0.1c1.2,0,2.3-0.2,3.2-0.6c0.9-0.4,1.7-0.9,2.3-1.5
			c0.6-0.6,1.1-1.3,1.4-2.1c0.3-0.8,0.5-1.6,0.5-2.4c0-0.8-0.2-1.6-0.5-2.3c-0.3-0.7-0.7-1.3-1.3-1.9c-0.6-0.5-1.3-1-2.1-1.3
			c-0.8-0.3-1.8-0.5-2.8-0.5c-0.9,0-1.9,0.1-2.9,0.4l-0.4,0.1l8.7-9.2V2.2H44.8l-0.1,3.7c0-0.1,0.1-0.1,0.1-0.2
			c0.2-0.3,0.4-0.6,0.7-0.9c0.3-0.3,0.7-0.5,1.2-0.7C47.4,4,48,3.9,48.8,3.9h6.1l-7.4,7.9l0,0.1c0.6-0.2,1.1-0.4,1.6-0.4
			c0.6-0.1,1.1-0.1,1.6-0.1c1.5,0,2.7,0.5,3.5,1.5c0.8,1,1.2,2.4,1.2,4.3c0,1-0.1,2-0.4,2.7c-0.3,0.8-0.6,1.5-1.1,2
			c-0.5,0.5-1,1-1.6,1.2c-1.1,0.5-2.4,0.6-3.8,0.1c-0.6-0.2-1.2-0.5-1.8-1.1c-0.6-0.5-1.1-1.2-1.6-2.1c-0.3-0.6-0.6-1.4-0.8-2.3
			V21.8z"/>
	</g>
	<g>
		<path class="st0" d="M81.3,1.9c0.4,0,0.9,0,1.5,0.1c0.6,0.1,1.2,0.2,1.8,0.3c0.6,0.2,1.3,0.4,1.9,0.6c0.7,0.2,1.3,0.6,1.9,0.9
			l0.5,7.1c-0.6-2.9-1.6-5.1-3-6.5c-1.4-1.4-3-2.1-4.8-2.1c-1,0-2,0.2-2.9,0.7c-0.9,0.4-1.7,1.1-2.4,2c-0.7,0.9-1.2,2-1.6,3.3
			c-0.4,1.3-0.6,2.8-0.6,4.6c0,1.8,0.2,3.3,0.6,4.6s1,2.4,1.7,3.3c0.7,0.9,1.5,1.5,2.5,1.9c0.9,0.4,2,0.6,3.1,0.6
			c0.7,0,1.4-0.1,2.1-0.3c0.7-0.2,1.4-0.5,2-0.9c0.6-0.4,1.3-1,1.8-1.7c0.6-0.7,1.1-1.6,1.5-2.6v3.4C88,21.9,87,22.5,85.7,23
			c-1.3,0.5-2.7,0.7-4.2,0.7c-1.5,0-2.9-0.3-4.1-0.8c-1.3-0.6-2.4-1.3-3.3-2.3c-0.9-1-1.7-2.1-2.2-3.5c-0.5-1.3-0.8-2.8-0.8-4.4
			c0-1.5,0.3-3,0.8-4.3C72.4,7.1,73.1,6,74.1,5c0.9-1,2-1.7,3.3-2.3C78.6,2.1,79.9,1.9,81.3,1.9z"/>
		<path class="st0" d="M81.5,23.9c-1.5,0-2.9-0.3-4.2-0.8c-1.3-0.6-2.4-1.3-3.4-2.3c-0.9-1-1.7-2.2-2.2-3.5
			c-0.5-1.3-0.8-2.8-0.8-4.4c0-1.6,0.3-3,0.8-4.4C72.3,7.1,73,5.9,74,4.9c0.9-1,2.1-1.8,3.3-2.3c1.2-0.6,2.6-0.8,4-0.8
			c0.4,0,0.9,0,1.5,0.1c0.6,0.1,1.2,0.2,1.8,0.3c0.6,0.2,1.3,0.4,2,0.6c0.7,0.2,1.3,0.6,1.9,0.9l0.1,0l0,0.1L89,11l-0.2,0
			c-0.6-2.9-1.6-5.1-2.9-6.5c-1.4-1.4-3-2.1-4.8-2.1c-1,0-2,0.2-2.9,0.6c-0.9,0.4-1.7,1.1-2.3,1.9c-0.7,0.9-1.2,2-1.6,3.2
			c-0.4,1.3-0.6,2.8-0.6,4.5c0,1.8,0.2,3.3,0.6,4.6c0.4,1.3,0.9,2.4,1.6,3.2c0.7,0.8,1.5,1.5,2.4,1.9c1.5,0.7,3.3,0.8,5,0.4
			c0.7-0.2,1.3-0.5,2-0.9c0.6-0.4,1.2-1,1.8-1.6c0.6-0.7,1.1-1.5,1.5-2.6l0.2-0.6v4.1l0,0c-0.9,0.7-1.9,1.3-3.2,1.8
			C84.4,23.6,83,23.9,81.5,23.9z M81.3,2c-1.4,0-2.7,0.3-3.9,0.8c-1.2,0.5-2.3,1.3-3.2,2.3c-0.9,1-1.7,2.1-2.2,3.4
			c-0.5,1.3-0.8,2.7-0.8,4.3c0,1.5,0.3,3,0.8,4.3c0.5,1.3,1.3,2.5,2.2,3.4c0.9,1,2,1.7,3.3,2.3c1.3,0.5,2.6,0.8,4.1,0.8
			c1.5,0,2.9-0.2,4.1-0.7c1.2-0.5,2.3-1,3.1-1.7v-2.8c-0.4,0.8-0.8,1.5-1.3,2.1c-0.6,0.7-1.2,1.3-1.9,1.7c-0.7,0.4-1.3,0.7-2,0.9
			c-1.8,0.5-3.6,0.3-5.2-0.4c-1-0.4-1.8-1.1-2.5-2c-0.7-0.9-1.3-2-1.7-3.3c-0.4-1.3-0.6-2.9-0.6-4.7c0-1.7,0.2-3.3,0.6-4.6
			c0.4-1.3,0.9-2.4,1.6-3.3c0.7-0.9,1.5-1.6,2.4-2c0.9-0.4,1.9-0.7,3-0.7c1.9,0,3.5,0.7,4.9,2.2c1.2,1.2,2,2.9,2.6,5.1l-0.4-5.6
			c-0.6-0.4-1.2-0.7-1.8-0.9c-0.7-0.2-1.3-0.4-1.9-0.6c-0.6-0.2-1.2-0.3-1.8-0.3C82.2,2,81.7,2,81.3,2z"/>
	</g>
	<g>
		<path class="st0" d="M92.1,23.6c0.3-0.1,0.6-0.2,0.8-0.3c0.2-0.1,0.4-0.3,0.5-0.5c0.1-0.2,0.2-0.4,0.2-0.8c0-0.3,0.1-0.7,0.1-1.1
			V2.7c0-0.6-0.1-1.1-0.2-1.4C93.5,1,93.3,0.8,93,0.5L96,0.1v10.7c0.5-1.5,1.3-2.7,2.5-3.6c1.1-0.9,2.6-1.3,4.3-1.3
			c1,0,1.9,0.1,2.6,0.4s1.4,0.7,1.9,1.2c0.5,0.5,0.9,1.1,1.2,1.8c0.3,0.7,0.4,1.5,0.4,2.3v9.2c0,0.4,0,0.8,0.1,1.1
			c0.1,0.3,0.1,0.6,0.3,0.8c0.1,0.2,0.3,0.4,0.5,0.5c0.2,0.1,0.5,0.2,0.8,0.3h-5.5c0.3-0.1,0.6-0.2,0.8-0.3c0.2-0.1,0.4-0.3,0.5-0.5
			c0.1-0.2,0.2-0.4,0.2-0.8c0-0.3,0.1-0.7,0.1-1.1v-9.5c0-1.5-0.4-2.8-1.1-3.6c-0.7-0.9-1.8-1.3-3.2-1.3c-0.8,0-1.6,0.1-2.3,0.4
			c-0.7,0.3-1.4,0.7-2,1.3s-1,1.3-1.4,2.1c-0.4,0.8-0.6,1.8-0.6,2.9v7.6c0,0.4,0,0.8,0.1,1.1c0.1,0.3,0.1,0.6,0.3,0.8
			c0.1,0.2,0.3,0.4,0.5,0.5c0.2,0.1,0.5,0.2,0.8,0.3H92.1z"/>
		<path class="st0" d="M111.4,23.7h-7l0.7-0.2c0.3-0.1,0.6-0.2,0.8-0.3c0.2-0.1,0.3-0.3,0.5-0.4c0.1-0.2,0.2-0.4,0.2-0.7
			c0-0.3,0.1-0.7,0.1-1.1v-9.5c0-1.5-0.4-2.7-1.1-3.6c-0.7-0.8-1.8-1.3-3.2-1.3c-0.8,0-1.6,0.1-2.3,0.4c-0.7,0.3-1.4,0.7-1.9,1.3
			c-0.6,0.6-1,1.3-1.4,2.1c-0.4,0.8-0.6,1.8-0.6,2.9l0,7.6c0,0.4,0,0.8,0.1,1.1c0,0.3,0.1,0.5,0.2,0.7c0.1,0.2,0.3,0.3,0.5,0.5
			c0.2,0.1,0.4,0.2,0.8,0.3l0.7,0.2h-7l0.7-0.2c0.3-0.1,0.6-0.2,0.8-0.3c0.2-0.1,0.3-0.3,0.5-0.4c0.1-0.2,0.2-0.4,0.2-0.7
			c0-0.3,0.1-0.7,0.1-1.1V2.7c0-0.6,0-1.1-0.1-1.4c-0.1-0.3-0.3-0.5-0.6-0.8l-0.2-0.2L96.1,0v10.2c0.5-1.2,1.3-2.3,2.3-3
			c1.2-0.9,2.6-1.3,4.4-1.3c1,0,1.9,0.1,2.7,0.4c0.8,0.3,1.4,0.7,2,1.2c0.5,0.5,1,1.2,1.2,1.9c0.3,0.7,0.4,1.5,0.4,2.4v9.2
			c0,0.4,0,0.8,0.1,1.1c0,0.3,0.1,0.5,0.2,0.7c0.1,0.2,0.3,0.3,0.5,0.5c0.2,0.1,0.4,0.2,0.7,0.3L111.4,23.7z M105.8,23.4h4.3
			c-0.1,0-0.2-0.1-0.2-0.1c-0.2-0.1-0.4-0.3-0.5-0.5c-0.1-0.2-0.2-0.5-0.3-0.8c-0.1-0.3-0.1-0.7-0.1-1.1v-9.2c0-0.8-0.1-1.6-0.4-2.3
			c-0.3-0.7-0.7-1.3-1.2-1.8c-0.5-0.5-1.1-0.9-1.9-1.2c-0.7-0.3-1.6-0.4-2.6-0.4c-1.7,0-3.2,0.4-4.3,1.3c-1.1,0.9-1.9,2-2.4,3.5
			l-0.2,0.7V0.3l-2.7,0.3c0.2,0.2,0.4,0.4,0.5,0.7c0.1,0.3,0.2,0.8,0.2,1.4v18.2c0,0.4,0,0.8-0.1,1.1c0,0.3-0.1,0.6-0.3,0.8
			c-0.1,0.2-0.3,0.4-0.5,0.5c-0.1,0-0.1,0.1-0.2,0.1H97c-0.1,0-0.2-0.1-0.2-0.1c-0.2-0.1-0.4-0.3-0.5-0.5C96.1,22.6,96,22.3,96,22
			c-0.1-0.3-0.1-0.7-0.1-1.1v-7.6c0.1-1.1,0.3-2.1,0.6-3c0.4-0.9,0.8-1.6,1.4-2.2c0.6-0.6,1.3-1,2-1.3c0.8-0.3,1.5-0.5,2.4-0.5
			c1.5,0,2.6,0.5,3.3,1.4c0.8,0.9,1.1,2.1,1.1,3.7v9.5c0,0.4,0,0.8-0.1,1.1c0,0.3-0.1,0.6-0.3,0.8c-0.1,0.2-0.3,0.4-0.5,0.5
			C105.9,23.4,105.8,23.4,105.8,23.4z"/>
	</g>
	<g>
		<path class="st0" d="M112.9,23.6c0.3-0.1,0.6-0.2,0.8-0.3c0.2-0.1,0.4-0.3,0.5-0.5c0.1-0.2,0.2-0.4,0.2-0.8c0-0.3,0.1-0.7,0.1-1.1
			V9.4c0-0.4,0-0.8,0-1.1c0-0.3-0.1-0.6-0.1-0.9c-0.1-0.2-0.1-0.5-0.3-0.7c-0.1-0.2-0.3-0.4-0.4-0.6l3.2-0.3v15c0,0.4,0,0.8,0.1,1.1
			c0.1,0.3,0.1,0.6,0.3,0.8c0.1,0.2,0.3,0.4,0.5,0.5c0.2,0.1,0.5,0.2,0.8,0.3H112.9z M115.6,0.5c0.5,0,0.9,0.1,1.2,0.4
			c0.3,0.3,0.5,0.7,0.5,1.1c0,0.5-0.2,0.9-0.5,1.1c-0.3,0.3-0.7,0.4-1.2,0.4c-0.5,0-0.8-0.1-1.1-0.4c-0.3-0.3-0.5-0.7-0.5-1.1
			c0-0.5,0.2-0.9,0.5-1.1C114.7,0.7,115.1,0.5,115.6,0.5z"/>
		<path class="st0" d="M119.2,23.7h-7l0.7-0.2c0.3-0.1,0.6-0.2,0.8-0.3c0.2-0.1,0.3-0.3,0.5-0.4c0.1-0.2,0.2-0.4,0.2-0.7
			c0-0.3,0.1-0.7,0.1-1.1V9.4c0-0.4,0-0.8,0-1.1c0-0.3-0.1-0.6-0.1-0.8c-0.1-0.2-0.1-0.5-0.3-0.7c-0.1-0.2-0.2-0.4-0.4-0.6l-0.1-0.2
			l3.5-0.3v15.1c0,0.4,0,0.8,0.1,1.1c0,0.3,0.1,0.5,0.2,0.7c0.1,0.2,0.3,0.3,0.5,0.5c0.2,0.1,0.4,0.2,0.7,0.3L119.2,23.7z
			 M113.6,23.4h4.3c-0.1,0-0.2-0.1-0.2-0.1c-0.2-0.1-0.4-0.3-0.5-0.5c-0.1-0.2-0.2-0.5-0.3-0.8c-0.1-0.3-0.1-0.7-0.1-1.1V6l-2.8,0.2
			c0.1,0.2,0.2,0.3,0.3,0.5c0.1,0.2,0.2,0.5,0.3,0.7c0.1,0.3,0.1,0.5,0.1,0.9c0,0.3,0,0.7,0,1.1v11.4c0,0.4,0,0.8-0.1,1.1
			c0,0.3-0.1,0.6-0.3,0.8c-0.1,0.2-0.3,0.4-0.5,0.5C113.7,23.4,113.6,23.4,113.6,23.4z M115.6,3.8c-0.5,0-0.9-0.2-1.2-0.5
			c-0.3-0.3-0.5-0.7-0.5-1.2c0-0.5,0.2-0.9,0.5-1.2c0.3-0.3,0.7-0.4,1.2-0.4c0.5,0,0.9,0.2,1.3,0.4c0.3,0.3,0.5,0.7,0.5,1.2
			c0,0.5-0.2,0.9-0.5,1.2C116.5,3.6,116.1,3.8,115.6,3.8z M115.6,0.7c-0.4,0-0.8,0.1-1.1,0.4c-0.3,0.3-0.4,0.6-0.4,1
			c0,0.4,0.1,0.8,0.4,1.1c0.3,0.3,0.6,0.4,1.1,0.4c0.4,0,0.8-0.1,1.1-0.4c0.3-0.3,0.4-0.6,0.4-1.1c0-0.4-0.1-0.8-0.4-1
			C116.4,0.8,116,0.7,115.6,0.7z"/>
	</g>
	<g>
		<path class="st0" d="M120.8,23.6c0.3-0.1,0.6-0.2,0.8-0.3c0.2-0.1,0.4-0.3,0.5-0.5c0.1-0.2,0.2-0.4,0.2-0.8c0-0.3,0.1-0.7,0.1-1.1
			V2.7c0-0.6-0.1-1.1-0.2-1.4c-0.1-0.3-0.3-0.6-0.6-0.8l3.1-0.4v20.7c0,0.4,0,0.8,0.1,1.1c0.1,0.3,0.1,0.6,0.3,0.8
			c0.1,0.2,0.3,0.4,0.5,0.5c0.2,0.1,0.5,0.2,0.8,0.3H120.8z"/>
		<path class="st0" d="M127.1,23.7h-7l0.7-0.2c0.3-0.1,0.6-0.2,0.8-0.3c0.2-0.1,0.3-0.3,0.5-0.4c0.1-0.2,0.2-0.4,0.2-0.7
			c0-0.3,0.1-0.7,0.1-1.1V2.7c0-0.6,0-1.1-0.1-1.4c-0.1-0.3-0.3-0.5-0.6-0.8l-0.2-0.2l3.5-0.4v20.9c0,0.4,0,0.8,0.1,1.1
			c0,0.3,0.1,0.5,0.2,0.7c0.1,0.2,0.3,0.3,0.5,0.5c0.2,0.1,0.4,0.2,0.8,0.3L127.1,23.7z M121.5,23.4h4.3c-0.1,0-0.2-0.1-0.2-0.1
			c-0.2-0.1-0.4-0.3-0.5-0.5c-0.1-0.2-0.2-0.5-0.3-0.8c-0.1-0.3-0.1-0.7-0.1-1.1V0.3l-2.7,0.3c0.2,0.2,0.4,0.4,0.5,0.7
			c0.1,0.3,0.2,0.8,0.2,1.4v18.2c0,0.4,0,0.8-0.1,1.1c0,0.3-0.1,0.6-0.3,0.8c-0.1,0.2-0.3,0.4-0.5,0.5
			C121.6,23.4,121.5,23.4,121.5,23.4z"/>
	</g>
	<g>
		<path class="st0" d="M128.7,23.6c0.3-0.1,0.6-0.2,0.8-0.3c0.2-0.1,0.4-0.3,0.5-0.5c0.1-0.2,0.2-0.4,0.2-0.8c0-0.3,0.1-0.7,0.1-1.1
			V9.4c0-0.4,0-0.8,0-1.1c0-0.3-0.1-0.6-0.1-0.9c-0.1-0.2-0.1-0.5-0.3-0.7c-0.1-0.2-0.3-0.4-0.4-0.6l3.2-0.3v15c0,0.4,0,0.8,0.1,1.1
			s0.1,0.6,0.3,0.8c0.1,0.2,0.3,0.4,0.5,0.5c0.2,0.1,0.5,0.2,0.8,0.3H128.7z M131.4,0.5c0.5,0,0.9,0.1,1.2,0.4
			c0.3,0.3,0.5,0.7,0.5,1.1c0,0.5-0.2,0.9-0.5,1.1c-0.3,0.3-0.7,0.4-1.2,0.4c-0.5,0-0.8-0.1-1.1-0.4c-0.3-0.3-0.5-0.7-0.5-1.1
			c0-0.5,0.2-0.9,0.5-1.1C130.6,0.7,130.9,0.5,131.4,0.5z"/>
		<path class="st0" d="M135,23.7h-7l0.7-0.2c0.3-0.1,0.6-0.2,0.8-0.3c0.2-0.1,0.3-0.3,0.5-0.4c0.1-0.2,0.2-0.4,0.2-0.7
			c0-0.3,0.1-0.7,0.1-1.1V9.4c0-0.4,0-0.8,0-1.1c0-0.3-0.1-0.6-0.1-0.8c-0.1-0.2-0.1-0.5-0.3-0.7c-0.1-0.2-0.2-0.4-0.4-0.6l-0.1-0.2
			l3.5-0.3v15.1c0,0.4,0,0.8,0.1,1.1c0,0.3,0.1,0.5,0.2,0.7c0.1,0.2,0.3,0.3,0.5,0.5c0.2,0.1,0.4,0.2,0.7,0.3L135,23.7z M129.4,23.4
			h4.3c-0.1,0-0.2-0.1-0.2-0.1c-0.2-0.1-0.4-0.3-0.5-0.5c-0.1-0.2-0.2-0.5-0.3-0.8c-0.1-0.3-0.1-0.7-0.1-1.1V6l-2.8,0.2
			c0.1,0.2,0.2,0.3,0.3,0.5c0.1,0.2,0.2,0.5,0.3,0.7c0.1,0.3,0.1,0.5,0.1,0.9c0,0.3,0,0.7,0,1.1v11.4c0,0.4,0,0.8-0.1,1.1
			c0,0.3-0.1,0.6-0.3,0.8c-0.1,0.2-0.3,0.4-0.5,0.5C129.5,23.4,129.5,23.4,129.4,23.4z M131.4,3.8c-0.5,0-0.9-0.2-1.2-0.5
			c-0.3-0.3-0.5-0.7-0.5-1.2c0-0.5,0.2-0.9,0.5-1.2c0.3-0.3,0.7-0.4,1.2-0.4c0.5,0,0.9,0.2,1.3,0.4c0.3,0.3,0.5,0.7,0.5,1.2
			c0,0.5-0.2,0.9-0.5,1.2C132.3,3.6,131.9,3.8,131.4,3.8z M131.4,0.7c-0.4,0-0.8,0.1-1.1,0.4c-0.3,0.3-0.4,0.6-0.4,1
			c0,0.4,0.1,0.8,0.4,1.1c0.3,0.3,0.6,0.4,1.1,0.4c0.4,0,0.8-0.1,1.1-0.4c0.3-0.3,0.4-0.6,0.4-1.1c0-0.4-0.1-0.8-0.4-1
			C132.2,0.8,131.8,0.7,131.4,0.7z"/>
	</g>
	<g>
		<path class="st0" d="M146.8,12.8c0-1.5,0.3-3,0.8-4.3c0.5-1.3,1.2-2.5,2.1-3.5c0.9-1,2-1.7,3.3-2.3s2.7-0.8,4.2-0.8
			c1.5,0,2.9,0.3,4.2,0.8c1.3,0.6,2.4,1.3,3.3,2.3c0.9,1,1.6,2.1,2.2,3.5c0.5,1.3,0.8,2.8,0.8,4.3c0,1.5-0.3,3-0.8,4.3
			c-0.5,1.3-1.2,2.5-2.2,3.5c-0.9,1-2,1.7-3.3,2.3c-1.3,0.6-2.7,0.8-4.2,0.8c-1.5,0-2.9-0.3-4.2-0.8c-1.3-0.6-2.4-1.3-3.3-2.3
			c-0.9-1-1.6-2.1-2.1-3.5C147.1,15.8,146.8,14.3,146.8,12.8z M157.2,23.3c1.2,0,2.2-0.2,3.2-0.7c0.9-0.4,1.8-1.1,2.4-2
			c0.7-0.9,1.2-2,1.6-3.3c0.4-1.3,0.6-2.8,0.6-4.6c0-1.8-0.2-3.3-0.6-4.6c-0.4-1.3-0.9-2.4-1.6-3.3c-0.7-0.9-1.5-1.5-2.4-2
			c-0.9-0.4-2-0.6-3.2-0.6c-1.2,0-2.2,0.2-3.2,0.6c-0.9,0.4-1.8,1.1-2.4,2c-0.7,0.9-1.2,2-1.6,3.3c-0.4,1.3-0.6,2.8-0.6,4.6
			c0,1.8,0.2,3.3,0.6,4.6c0.4,1.3,0.9,2.4,1.6,3.3c0.7,0.9,1.5,1.5,2.4,2C155,23.1,156,23.3,157.2,23.3z"/>
		<path class="st0" d="M157.2,23.9c-1.5,0-2.9-0.3-4.2-0.8c-1.3-0.6-2.4-1.3-3.3-2.3c-0.9-1-1.7-2.2-2.2-3.5
			c-0.5-1.3-0.8-2.8-0.8-4.4c0-1.6,0.3-3,0.8-4.4c0.5-1.3,1.2-2.5,2.2-3.5c0.9-1,2-1.8,3.3-2.3c1.3-0.6,2.7-0.8,4.2-0.8
			s2.9,0.3,4.2,0.8c1.3,0.6,2.4,1.3,3.3,2.3c0.9,1,1.7,2.2,2.2,3.5c0.5,1.3,0.8,2.8,0.8,4.4c0,1.6-0.3,3-0.8,4.4
			c-0.5,1.3-1.2,2.5-2.2,3.5c-0.9,1-2,1.8-3.3,2.3C160.1,23.6,158.7,23.9,157.2,23.9z M157.2,2c-1.5,0-2.9,0.3-4.1,0.8
			c-1.2,0.5-2.3,1.3-3.2,2.3c-0.9,1-1.6,2.1-2.1,3.4c-0.5,1.3-0.8,2.8-0.8,4.3c0,1.5,0.3,3,0.8,4.3c0.5,1.3,1.2,2.5,2.1,3.4
			c0.9,1,2,1.7,3.2,2.3c1.2,0.5,2.6,0.8,4.1,0.8s2.9-0.3,4.1-0.8c1.2-0.5,2.3-1.3,3.2-2.3c0.9-1,1.6-2.1,2.1-3.4
			c0.5-1.3,0.8-2.8,0.8-4.3c0-1.5-0.3-3-0.8-4.3c-0.5-1.3-1.2-2.5-2.1-3.4c-0.9-1-2-1.7-3.2-2.3C160,2.2,158.7,2,157.2,2z
			 M157.2,23.4c-1.2,0-2.2-0.2-3.2-0.7c-1-0.4-1.8-1.1-2.5-2c-0.7-0.9-1.2-2-1.6-3.3c-0.4-1.3-0.6-2.9-0.6-4.6
			c0-1.8,0.2-3.3,0.6-4.6c0.4-1.3,0.9-2.4,1.6-3.3c0.7-0.9,1.5-1.6,2.5-2c1-0.4,2-0.7,3.2-0.7c1.2,0,2.2,0.2,3.2,0.7
			c1,0.4,1.8,1.1,2.5,2c0.7,0.9,1.2,2,1.6,3.3c0.4,1.3,0.6,2.9,0.6,4.6c0,1.8-0.2,3.3-0.6,4.6c-0.4,1.3-0.9,2.4-1.6,3.3
			c-0.7,0.9-1.5,1.6-2.5,2C159.4,23.2,158.3,23.4,157.2,23.4z M157.2,2.4c-1.1,0-2.2,0.2-3.1,0.6c-0.9,0.4-1.7,1.1-2.4,1.9
			c-0.7,0.9-1.2,1.9-1.6,3.2c-0.4,1.3-0.6,2.8-0.6,4.6c0,1.7,0.2,3.3,0.6,4.6c0.4,1.3,0.9,2.4,1.6,3.2c0.7,0.9,1.5,1.5,2.4,1.9
			c0.9,0.4,2,0.6,3.1,0.6s2.2-0.2,3.1-0.6c0.9-0.4,1.7-1.1,2.4-1.9c0.7-0.9,1.2-1.9,1.6-3.2c0.4-1.3,0.6-2.8,0.6-4.6
			c0-1.7-0.2-3.3-0.6-4.6c-0.4-1.3-0.9-2.4-1.6-3.2c-0.7-0.9-1.5-1.5-2.4-1.9C159.4,2.6,158.3,2.4,157.2,2.4z"/>
	</g>
	<g>
		<path class="st0" d="M170.5,23.6c0.3-0.1,0.6-0.2,0.8-0.3c0.2-0.1,0.4-0.3,0.5-0.5c0.1-0.2,0.2-0.4,0.2-0.8c0-0.3,0.1-0.7,0.1-1.1
			V9.4c0-0.4,0-0.8,0-1.1c0-0.3-0.1-0.6-0.1-0.9c-0.1-0.2-0.1-0.5-0.3-0.7c-0.1-0.2-0.3-0.4-0.4-0.6l3.1-0.3V10
			c0.2-0.6,0.5-1.1,0.8-1.6c0.3-0.5,0.7-0.9,1.1-1.3c0.4-0.4,0.9-0.7,1.4-0.9c0.5-0.2,1.2-0.3,1.9-0.3c0.7,0,1.2,0.1,1.8,0.2l0,3
			c-0.2-0.2-0.4-0.5-0.7-0.7c-0.3-0.2-0.5-0.5-0.8-0.7c-0.3-0.2-0.6-0.4-0.9-0.5c-0.3-0.1-0.6-0.2-1-0.2c-0.4,0-0.8,0.1-1.1,0.3
			c-0.4,0.2-0.7,0.5-1,0.8c-0.3,0.3-0.6,0.7-0.8,1.2c-0.2,0.5-0.5,1-0.6,1.5v10c0,0.4,0,0.8,0.1,1.1c0.1,0.3,0.1,0.6,0.3,0.8
			c0.1,0.2,0.3,0.4,0.5,0.5c0.2,0.1,0.5,0.2,0.8,0.3H170.5z"/>
		<path class="st0" d="M176.7,23.7h-7l0.7-0.2c0.3-0.1,0.6-0.2,0.8-0.3c0.2-0.1,0.3-0.3,0.5-0.4c0.1-0.2,0.2-0.4,0.2-0.7
			c0-0.3,0.1-0.7,0.1-1.1V9.4c0-0.4,0-0.8,0-1.1c0-0.3-0.1-0.6-0.1-0.8c-0.1-0.2-0.1-0.5-0.3-0.7c-0.1-0.2-0.2-0.4-0.4-0.6L171,6.1
			l3.5-0.3v3.7c0.2-0.4,0.4-0.8,0.6-1.1c0.3-0.5,0.7-0.9,1.1-1.3c0.4-0.4,0.9-0.7,1.5-0.9c0.6-0.2,1.2-0.3,1.9-0.3
			c0.7,0,1.3,0.1,1.8,0.2l0.1,0l0,3.4l-0.2-0.3c-0.2-0.2-0.4-0.5-0.7-0.7c-0.3-0.2-0.5-0.5-0.8-0.7c-0.3-0.2-0.6-0.4-0.9-0.5
			c-0.7-0.3-1.4-0.3-2,0.1c-0.3,0.2-0.7,0.5-0.9,0.8c-0.3,0.3-0.6,0.7-0.8,1.2c-0.2,0.5-0.5,0.9-0.6,1.4v10c0,0.4,0,0.8,0.1,1.1
			c0,0.3,0.1,0.5,0.2,0.7c0.1,0.2,0.3,0.3,0.5,0.5c0.2,0.1,0.4,0.2,0.7,0.3L176.7,23.7z M171.2,23.4h4.3c-0.1,0-0.2-0.1-0.2-0.1
			c-0.2-0.1-0.4-0.3-0.5-0.5c-0.1-0.2-0.2-0.5-0.3-0.8c-0.1-0.3-0.1-0.7-0.1-1.1l0-10.1c0.2-0.5,0.4-1,0.7-1.5
			c0.3-0.5,0.5-0.9,0.8-1.2c0.3-0.3,0.6-0.6,1-0.8c0.7-0.4,1.5-0.4,2.2-0.1c0.3,0.1,0.6,0.3,0.9,0.5c0.3,0.2,0.6,0.4,0.8,0.7
			c0.2,0.2,0.3,0.3,0.5,0.5l0-2.6c-0.5-0.1-1-0.2-1.6-0.2c-0.7,0-1.3,0.1-1.8,0.3c-0.5,0.2-1,0.5-1.4,0.8c-0.4,0.4-0.8,0.8-1.1,1.3
			c-0.3,0.5-0.6,1-0.8,1.6l-0.2,0.5V6l-2.8,0.2c0.1,0.2,0.2,0.3,0.3,0.5c0.1,0.2,0.2,0.5,0.3,0.7c0.1,0.3,0.1,0.5,0.1,0.9
			c0,0.3,0,0.7,0,1.1v11.4c0,0.4,0,0.8-0.1,1.1c0,0.3-0.1,0.6-0.3,0.8c-0.1,0.2-0.3,0.4-0.5,0.5C171.3,23.4,171.2,23.4,171.2,23.4z"
			/>
	</g>
	<g>
		<path class="st0" d="M191.1,14l3.4-0.8v-2.2c0-1.5-0.3-2.7-0.9-3.4c-0.6-0.7-1.5-1.1-2.8-1.1c-0.6,0-1.2,0.1-1.8,0.3
			c-0.6,0.2-1.2,0.5-1.7,1.1c-0.5,0.5-1,1.2-1.5,2.1c-0.4,0.9-0.8,2-1.1,3.3l-0.2-5.2c0.8-0.6,1.7-1.1,2.8-1.4
			c1.1-0.4,2.3-0.5,3.4-0.5c1.8,0,3.3,0.4,4.3,1.3c1.1,0.9,1.6,2.1,1.6,3.8v9.8c0,0.6,0.1,1.1,0.2,1.6c0.1,0.5,0.4,0.8,0.7,1.1
			l-3,0.1v-4.1c-0.2,0.5-0.5,1-0.8,1.5c-0.3,0.5-0.7,0.9-1.2,1.3c-0.5,0.4-1,0.7-1.7,0.9c-0.6,0.2-1.4,0.3-2.2,0.3
			c-0.7,0-1.4-0.1-2.1-0.2c-0.6-0.2-1.2-0.4-1.7-0.8c-0.5-0.3-0.8-0.8-1.1-1.3c-0.3-0.5-0.4-1.1-0.4-1.8c0-0.9,0.3-1.7,0.8-2.4
			c0.5-0.6,1.1-1.2,1.9-1.6c0.8-0.4,1.6-0.8,2.4-1C189.6,14.4,190.4,14.2,191.1,14z M186.1,19.6c0,1.1,0.3,1.9,0.9,2.6
			c0.6,0.7,1.4,1,2.4,1c0.6,0,1.2-0.1,1.8-0.4c0.6-0.2,1.1-0.6,1.6-1.1c0.5-0.5,0.9-1.1,1.2-1.8c0.3-0.7,0.5-1.6,0.6-2.5v-3.8
			l-3.4,0.8c-0.4,0.1-0.9,0.3-1.5,0.5c-0.6,0.2-1.1,0.5-1.7,0.9c-0.5,0.4-1,0.9-1.3,1.5C186.3,17.9,186.1,18.6,186.1,19.6z"/>
		<path class="st0" d="M188.9,23.8c-0.7,0-1.5-0.1-2.1-0.3c-0.7-0.2-1.2-0.4-1.7-0.8c-0.5-0.4-0.9-0.8-1.1-1.3
			c-0.3-0.5-0.4-1.1-0.4-1.8c0-1,0.3-1.8,0.8-2.4c0.5-0.6,1.2-1.2,1.9-1.6c0.8-0.4,1.6-0.8,2.5-1c0.9-0.3,1.7-0.5,2.4-0.7l0,0
			l3.3-0.8v-2.1c0-1.5-0.3-2.6-0.9-3.3c-0.6-0.7-1.5-1.1-2.7-1.1c-0.6,0-1.1,0.1-1.7,0.3c-0.6,0.2-1.1,0.5-1.6,1
			c-0.5,0.5-1,1.2-1.4,2c-0.4,0.9-0.8,1.9-1.1,3.3l-0.2,0.9l-0.2-6.2l0,0c0.8-0.6,1.7-1.1,2.9-1.4c1.1-0.4,2.3-0.5,3.5-0.5
			c1.8,0,3.3,0.4,4.4,1.3c1.1,0.9,1.6,2.2,1.6,3.9v9.8c0,0.6,0.1,1.1,0.2,1.5c0.1,0.4,0.3,0.8,0.6,1.1l0.2,0.2l-3.4,0.1v-3.6
			c-0.2,0.3-0.4,0.7-0.6,1c-0.3,0.5-0.7,1-1.2,1.4c-0.5,0.4-1,0.7-1.7,0.9C190.5,23.7,189.7,23.8,188.9,23.8z M191.2,14.1
			L191.2,14.1c-0.7,0.2-1.5,0.4-2.4,0.7c-0.9,0.3-1.7,0.6-2.4,1c-0.7,0.4-1.4,1-1.9,1.6c-0.5,0.6-0.7,1.4-0.7,2.3
			c0,0.7,0.1,1.2,0.4,1.7c0.3,0.5,0.6,0.9,1.1,1.2c0.4,0.3,1,0.6,1.6,0.7c0.6,0.2,1.3,0.2,2.1,0.2c0.8,0,1.5-0.1,2.2-0.3
			c0.6-0.2,1.2-0.5,1.6-0.9c0.5-0.4,0.8-0.8,1.2-1.3c0.3-0.5,0.6-1,0.8-1.5l0.2-0.6v4.6l2.6-0.1c-0.2-0.3-0.4-0.6-0.5-1
			c-0.1-0.5-0.2-1-0.2-1.6v-9.8c0-1.6-0.5-2.9-1.6-3.7c-1-0.8-2.5-1.3-4.2-1.3c-1.2,0-2.3,0.2-3.4,0.5c-1.1,0.3-2,0.8-2.7,1.4
			l0.2,4.2c0.3-1,0.6-1.8,0.9-2.5c0.4-0.9,0.9-1.6,1.5-2.1c0.5-0.5,1.1-0.9,1.7-1.1c0.6-0.2,1.2-0.3,1.8-0.3c1.3,0,2.2,0.4,2.9,1.1
			c0.6,0.8,0.9,1.9,0.9,3.5v2.3L191.2,14.1z M189.4,23.3c-1.1,0-1.9-0.4-2.5-1.1c-0.6-0.7-0.9-1.6-0.9-2.7c0-1,0.2-1.8,0.6-2.4
			c0.4-0.6,0.8-1.1,1.4-1.5c0.5-0.4,1.1-0.7,1.7-0.9c0.6-0.2,1.1-0.4,1.5-0.5l3.5-0.8v4c0,1-0.2,1.8-0.6,2.6
			c-0.3,0.7-0.8,1.4-1.3,1.8c-0.5,0.5-1.1,0.9-1.7,1.1C190.6,23.2,190,23.3,189.4,23.3z M194.4,13.7l-3.2,0.8
			c-0.4,0.1-0.9,0.3-1.5,0.5c-0.6,0.2-1.1,0.5-1.6,0.9c-0.5,0.4-0.9,0.9-1.3,1.5c-0.3,0.6-0.5,1.4-0.5,2.3c0,1,0.3,1.9,0.8,2.5
			c0.5,0.6,1.3,1,2.3,1c0.6,0,1.1-0.1,1.7-0.4c0.6-0.2,1.1-0.6,1.6-1.1c0.5-0.5,0.9-1.1,1.2-1.8c0.3-0.7,0.5-1.5,0.5-2.5L194.4,13.7
			z"/>
	</g>
	<g>
		<path class="st0" d="M200.3,23.6c0.3-0.1,0.6-0.2,0.8-0.3c0.2-0.1,0.4-0.3,0.5-0.5c0.1-0.2,0.2-0.4,0.2-0.8c0-0.3,0.1-0.7,0.1-1.1
			V9.4c0-0.4,0-0.8,0-1.1c0-0.3-0.1-0.6-0.1-0.9c-0.1-0.2-0.1-0.5-0.3-0.7c-0.1-0.2-0.3-0.4-0.4-0.6l3.2-0.3v4.9
			c0.5-1.5,1.3-2.7,2.5-3.6c1.1-0.9,2.6-1.3,4.3-1.3c1,0,1.9,0.1,2.6,0.4c0.8,0.3,1.4,0.7,1.9,1.2s0.9,1.1,1.2,1.8
			c0.3,0.7,0.4,1.5,0.4,2.3v9.2c0,0.4,0,0.8,0.1,1.1c0.1,0.3,0.1,0.6,0.3,0.8c0.1,0.2,0.3,0.4,0.5,0.5c0.2,0.1,0.5,0.2,0.8,0.3h-5.5
			c0.3-0.1,0.6-0.2,0.8-0.3c0.2-0.1,0.4-0.3,0.5-0.5c0.1-0.2,0.2-0.4,0.2-0.8c0-0.3,0.1-0.7,0.1-1.1v-9.5c0-1.5-0.4-2.8-1.1-3.6
			c-0.7-0.9-1.8-1.3-3.3-1.3c-0.8,0-1.6,0.1-2.3,0.4c-0.7,0.3-1.4,0.7-2,1.3c-0.6,0.6-1,1.3-1.4,2.1c-0.4,0.8-0.6,1.8-0.6,2.9v7.6
			c0,0.4,0,0.8,0.1,1.1s0.1,0.6,0.3,0.8c0.1,0.2,0.3,0.4,0.5,0.5c0.2,0.1,0.5,0.2,0.8,0.3H200.3z"/>
		<path class="st0" d="M219.5,23.7h-7l0.7-0.2c0.3-0.1,0.6-0.2,0.8-0.3c0.2-0.1,0.3-0.3,0.5-0.4c0.1-0.2,0.2-0.4,0.2-0.7
			c0-0.3,0.1-0.7,0.1-1.1v-9.5c0-1.5-0.4-2.7-1.1-3.6c-0.7-0.8-1.8-1.3-3.2-1.3c-0.8,0-1.5,0.1-2.3,0.4c-0.7,0.3-1.4,0.7-1.9,1.3
			c-0.6,0.6-1,1.3-1.4,2.1c-0.4,0.8-0.6,1.8-0.6,2.9l0,7.6c0,0.4,0,0.8,0.1,1.1c0,0.3,0.1,0.5,0.2,0.7c0.1,0.2,0.3,0.3,0.5,0.5
			c0.2,0.1,0.4,0.2,0.8,0.3l0.7,0.2h-7l0.7-0.2c0.3-0.1,0.6-0.2,0.8-0.3c0.2-0.1,0.3-0.3,0.5-0.4c0.1-0.2,0.2-0.4,0.2-0.7
			c0-0.3,0.1-0.7,0.1-1.1V9.4c0-0.4,0-0.8,0-1.1c0-0.3-0.1-0.6-0.1-0.8c-0.1-0.2-0.1-0.5-0.3-0.7c-0.1-0.2-0.2-0.4-0.4-0.6l-0.1-0.2
			l3.5-0.3v4.4c0.5-1.2,1.3-2.3,2.3-3c1.2-0.9,2.6-1.3,4.4-1.3c1,0,1.9,0.1,2.7,0.4c0.8,0.3,1.4,0.7,2,1.2c0.5,0.5,1,1.2,1.2,1.9
			c0.3,0.7,0.4,1.5,0.4,2.4v9.2c0,0.4,0,0.8,0.1,1.1c0,0.3,0.1,0.5,0.2,0.7c0.1,0.2,0.3,0.3,0.5,0.5c0.2,0.1,0.5,0.2,0.8,0.3
			L219.5,23.7z M213.9,23.4h4.3c-0.1,0-0.2-0.1-0.2-0.1c-0.2-0.1-0.4-0.3-0.5-0.5c-0.1-0.2-0.2-0.5-0.3-0.8
			c-0.1-0.3-0.1-0.7-0.1-1.1v-9.2c0-0.8-0.1-1.6-0.4-2.3c-0.3-0.7-0.7-1.3-1.2-1.8c-0.5-0.5-1.1-0.9-1.9-1.2C212.9,6.2,212,6,211,6
			c-1.7,0-3.2,0.4-4.3,1.3c-1.1,0.9-1.9,2-2.4,3.5l-0.2,0.7V6l-2.8,0.2c0.1,0.2,0.2,0.3,0.3,0.5c0.1,0.2,0.2,0.5,0.3,0.7
			c0.1,0.3,0.1,0.5,0.1,0.9c0,0.3,0,0.7,0,1.1v11.4c0,0.4,0,0.8-0.1,1.1c0,0.3-0.1,0.6-0.3,0.8c-0.1,0.2-0.3,0.4-0.5,0.5
			c-0.1,0-0.1,0.1-0.2,0.1h4.3c-0.1,0-0.2-0.1-0.2-0.1c-0.2-0.1-0.4-0.3-0.5-0.5c-0.1-0.2-0.2-0.5-0.3-0.8c-0.1-0.3-0.1-0.7-0.1-1.1
			v-7.6c0.1-1.1,0.3-2.1,0.6-3c0.4-0.9,0.8-1.6,1.4-2.2c0.6-0.6,1.3-1,2-1.3c0.8-0.3,1.6-0.5,2.4-0.5c1.5,0,2.6,0.5,3.3,1.4
			c0.8,0.9,1.1,2.1,1.1,3.7v9.5c0,0.4,0,0.8-0.1,1.1c0,0.3-0.1,0.6-0.3,0.8c-0.1,0.2-0.3,0.4-0.5,0.5
			C214.1,23.4,214,23.4,213.9,23.4z"/>
	</g>
	<g>
		<path class="st0" d="M220.3,24.7c0-1,0.5-1.8,1.5-2.3c1-0.5,2.6-0.9,4.8-1c-1.5-0.1-2.5-0.4-3.2-0.9c-0.6-0.5-0.9-1.1-0.9-1.8
			c0-0.4,0.1-0.7,0.3-1c0.2-0.3,0.4-0.5,0.7-0.7c0.3-0.2,0.6-0.3,1-0.4c0.4-0.1,0.8-0.1,1.2-0.1h0.4c-1.2-0.4-2.1-1.1-2.7-1.9
			c-0.7-0.9-1-1.9-1-3.1c0-0.8,0.2-1.5,0.5-2.2c0.3-0.7,0.8-1.2,1.3-1.7c0.6-0.5,1.3-0.8,2.1-1.1c0.8-0.3,1.7-0.4,2.6-0.4
			c0.8,0,1.6,0.1,2.2,0.3c0.7,0.2,1.3,0.5,1.8,0.8c0.1-1.1,0.5-2,1.1-2.6c0.6-0.6,1.3-0.9,2-0.9c0.5,0,0.9,0.1,1.2,0.4
			c0.3,0.2,0.4,0.6,0.4,1c0,0.4-0.1,0.7-0.4,0.9c-0.3,0.2-0.6,0.4-1,0.4c-0.2,0-0.4,0-0.6-0.1c-0.2-0.1-0.4-0.2-0.5-0.2
			c-0.2-0.1-0.3-0.2-0.5-0.2c-0.2-0.1-0.3-0.1-0.5-0.1c-0.3,0-0.5,0.1-0.6,0.4c-0.2,0.3-0.3,0.7-0.4,1.4c0.7,0.5,1.2,1.1,1.5,1.8
			c0.4,0.7,0.6,1.5,0.6,2.4c0,0.8-0.2,1.5-0.5,2.2c-0.3,0.7-0.7,1.2-1.3,1.7c-0.6,0.5-1.2,0.9-2,1.1c-0.8,0.3-1.7,0.4-2.6,0.4
			c-0.5,0-0.9,0-1.3-0.1c-0.2,0-0.5,0-0.6,0c-0.2,0-0.4,0-0.5,0c-0.8,0-1.4,0.1-1.9,0.3c-0.5,0.2-0.7,0.5-0.7,0.9
			c0,0.3,0.1,0.6,0.4,0.7c0.2,0.2,0.5,0.3,0.9,0.4c0.3,0.1,0.6,0.2,0.9,0.2l3.7,0.5c1.2,0.1,2.3,0.3,3.2,0.5
			c0.9,0.2,1.8,0.4,2.4,0.7c0.7,0.3,1.2,0.6,1.5,1.1c0.4,0.5,0.5,1,0.5,1.8c0,0.8-0.2,1.5-0.6,2.1c-0.4,0.6-1,1.1-1.7,1.6
			c-0.7,0.4-1.6,0.8-2.6,1c-1,0.2-2.2,0.4-3.5,0.4c-1.1,0-2.1-0.1-3.2-0.3c-1-0.2-2-0.4-2.8-0.8c-0.8-0.4-1.5-0.8-2-1.3
			C220.6,26,220.3,25.4,220.3,24.7z M222.3,24.8c0,1.2,0.6,2.1,1.8,2.7c1.2,0.7,2.8,1,4.9,1c1.1,0,2.1-0.1,3-0.3
			c0.9-0.2,1.6-0.4,2.2-0.8c0.6-0.3,1.1-0.7,1.4-1.1s0.5-0.9,0.5-1.3c0-0.7-0.3-1.3-0.9-1.7c-0.6-0.4-1.3-0.7-2.1-1
			c-0.8-0.2-1.7-0.4-2.6-0.4c-0.9-0.1-1.7-0.1-2.3-0.1c-1.1,0-2.1,0.1-2.8,0.2c-0.8,0.1-1.4,0.3-1.8,0.6c-0.4,0.3-0.8,0.6-0.9,1
			C222.3,23.9,222.3,24.3,222.3,24.8z M229.1,16.5c0.6,0,1.1-0.1,1.6-0.3c0.5-0.2,0.9-0.5,1.3-0.9c0.4-0.4,0.6-0.9,0.9-1.5
			c0.2-0.6,0.3-1.2,0.3-1.9c0-0.7-0.1-1.3-0.3-2c-0.2-0.6-0.5-1.2-0.9-1.7c-0.4-0.5-0.8-0.9-1.4-1.2c-0.5-0.3-1.2-0.5-1.8-0.5
			c-0.6,0-1.1,0.1-1.6,0.3c-0.5,0.2-0.9,0.5-1.3,1c-0.4,0.4-0.6,0.9-0.8,1.5c-0.2,0.6-0.3,1.2-0.3,1.8s0.1,1.3,0.3,2
			c0.2,0.7,0.5,1.2,0.9,1.7c0.4,0.5,0.8,0.9,1.4,1.2C227.8,16.3,228.4,16.5,229.1,16.5z"/>
		<path class="st0" d="M228.9,29c-1.1,0-2.1-0.1-3.2-0.3c-1-0.2-2-0.4-2.8-0.8c-0.8-0.4-1.5-0.8-2-1.3c-0.5-0.5-0.8-1.2-0.8-1.9
			c0-1.1,0.5-1.9,1.5-2.4c0.8-0.4,2-0.8,3.6-0.9c-0.9-0.2-1.6-0.4-2-0.8c-0.6-0.5-1-1.1-1-1.9c0-0.4,0.1-0.8,0.3-1.1
			c0.2-0.3,0.4-0.5,0.7-0.7c0.3-0.2,0.7-0.3,1.1-0.4c0.3-0.1,0.7-0.1,1.1-0.1c-0.9-0.4-1.7-1-2.2-1.7c-0.7-0.9-1-1.9-1-3.2
			c0-0.8,0.2-1.6,0.5-2.2c0.3-0.7,0.8-1.3,1.4-1.7c0.6-0.5,1.3-0.9,2.1-1.1c0.8-0.3,1.7-0.4,2.7-0.4c0.8,0,1.6,0.1,2.3,0.3
			c0.6,0.2,1.2,0.4,1.7,0.7c0.2-1,0.5-1.9,1.1-2.5c0.6-0.6,1.3-0.9,2.1-0.9c0.5,0,0.9,0.1,1.2,0.4c0.3,0.3,0.5,0.6,0.5,1.1
			c0,0.4-0.1,0.7-0.4,1c-0.3,0.3-0.6,0.4-1.1,0.4c-0.2,0-0.5,0-0.7-0.1c-0.2-0.1-0.4-0.2-0.5-0.3c-0.2-0.1-0.3-0.2-0.5-0.2
			c-0.1-0.1-0.3-0.1-0.4-0.1c-0.2,0-0.4,0.1-0.5,0.3c-0.1,0.2-0.3,0.7-0.3,1.3c0.6,0.5,1.2,1.1,1.5,1.8c0.4,0.7,0.6,1.5,0.6,2.4
			c0,0.8-0.2,1.6-0.5,2.3c-0.3,0.7-0.8,1.3-1.3,1.8c-0.6,0.5-1.3,0.9-2.1,1.2c-0.8,0.3-1.7,0.4-2.7,0.4c-0.5,0-0.9,0-1.3-0.1
			c-0.2,0-0.5,0-0.6,0c-0.2,0-0.4,0-0.5,0c-0.8,0-1.4,0.1-1.8,0.3c-0.4,0.2-0.6,0.5-0.6,0.8c0,0.3,0.1,0.5,0.3,0.6
			c0.2,0.2,0.5,0.3,0.8,0.4c0.3,0.1,0.6,0.2,0.9,0.2l3.7,0.5c1.2,0.1,2.3,0.3,3.2,0.5c1,0.2,1.8,0.4,2.5,0.7
			c0.7,0.3,1.2,0.7,1.6,1.1c0.4,0.5,0.6,1.1,0.6,1.8c0,0.8-0.2,1.5-0.6,2.1c-0.4,0.6-1,1.2-1.7,1.6c-0.7,0.4-1.6,0.8-2.7,1
			C231.4,28.9,230.2,29,228.9,29z M225.7,16.6c-0.4,0-0.8,0-1.2,0.1c-0.4,0.1-0.7,0.2-1,0.4c-0.3,0.2-0.5,0.4-0.7,0.7
			c-0.2,0.3-0.2,0.6-0.2,0.9c0,0.7,0.3,1.3,0.9,1.7c0.6,0.5,1.6,0.8,3.1,0.9l0,0.2c-2.2,0.1-3.7,0.4-4.7,1c-1,0.5-1.4,1.3-1.4,2.2
			c0,0.7,0.2,1.3,0.7,1.7c0.5,0.5,1.1,0.9,1.9,1.3c0.8,0.3,1.7,0.6,2.7,0.8c1,0.2,2.1,0.3,3.1,0.3c1.3,0,2.4-0.1,3.4-0.4
			c1-0.2,1.9-0.6,2.6-1c0.7-0.4,1.3-0.9,1.7-1.5c0.4-0.6,0.6-1.3,0.6-2c0-0.7-0.2-1.3-0.5-1.7c-0.3-0.4-0.8-0.8-1.5-1.1
			c-0.7-0.3-1.5-0.5-2.4-0.7c-0.9-0.2-2-0.3-3.2-0.5l-3.7-0.5c-0.3,0-0.6-0.1-1-0.2c-0.3-0.1-0.6-0.3-0.9-0.5
			c-0.3-0.2-0.4-0.5-0.4-0.8c0-0.4,0.3-0.8,0.7-1c0.5-0.2,1.1-0.3,1.9-0.3c0.2,0,0.3,0,0.5,0c0.2,0,0.4,0,0.7,0
			c0.4,0.1,0.9,0.1,1.3,0.1c0.9,0,1.8-0.1,2.6-0.4c0.8-0.3,1.4-0.6,2-1.1c0.6-0.5,1-1,1.3-1.7c0.3-0.7,0.5-1.4,0.5-2.2
			c0-0.8-0.2-1.6-0.5-2.3c-0.4-0.7-0.9-1.3-1.5-1.7l-0.1,0l0-0.1c0.1-0.7,0.2-1.2,0.4-1.4c0.2-0.3,0.4-0.4,0.7-0.4
			c0.2,0,0.4,0,0.5,0.1c0.2,0.1,0.3,0.2,0.5,0.3c0.2,0.1,0.3,0.2,0.5,0.2c0.2,0.1,0.4,0.1,0.6,0.1c0.4,0,0.7-0.1,0.9-0.3
			c0.2-0.2,0.4-0.5,0.4-0.8c0-0.4-0.1-0.7-0.4-0.9c-0.3-0.2-0.6-0.3-1.1-0.3c-0.7,0-1.3,0.3-1.9,0.9c-0.6,0.6-1,1.4-1.1,2.5l0,0.2
			l-0.2-0.1c-0.5-0.3-1.1-0.6-1.8-0.8c-0.7-0.2-1.4-0.3-2.2-0.3c-0.9,0-1.8,0.1-2.6,0.4c-0.8,0.3-1.5,0.6-2,1.1
			c-0.6,0.5-1,1-1.3,1.7c-0.3,0.6-0.5,1.4-0.5,2.1c0,1.2,0.3,2.2,1,3c0.6,0.8,1.5,1.5,2.7,1.9l0.6,0.2H225.7z M229,28.6
			c-2.1,0-3.8-0.3-5-1c-1.2-0.7-1.8-1.6-1.8-2.8c0-0.5,0.1-0.9,0.3-1.3c0.2-0.4,0.5-0.7,1-1c0.5-0.3,1.1-0.5,1.8-0.6
			c0.8-0.1,1.7-0.2,2.9-0.2c0.7,0,1.4,0,2.3,0.1c0.9,0.1,1.8,0.2,2.6,0.5c0.8,0.2,1.6,0.6,2.2,1c0.6,0.4,0.9,1,0.9,1.8
			c0,0.5-0.2,1-0.5,1.4c-0.3,0.4-0.8,0.8-1.4,1.1c-0.6,0.3-1.4,0.6-2.2,0.8C231.1,28.5,230.1,28.6,229,28.6z M228.1,21.9
			c-1.1,0-2.1,0.1-2.8,0.2c-0.7,0.1-1.3,0.3-1.8,0.6c-0.4,0.2-0.7,0.5-0.9,0.9c-0.2,0.4-0.3,0.8-0.3,1.2c0,1.1,0.6,2,1.7,2.6
			c1.2,0.6,2.8,1,4.9,1c1.1,0,2.1-0.1,2.9-0.3c0.9-0.2,1.6-0.4,2.2-0.8c0.6-0.3,1-0.7,1.3-1.1c0.3-0.4,0.4-0.8,0.4-1.3
			c0-0.7-0.3-1.2-0.8-1.6c-0.6-0.4-1.3-0.7-2.1-1c-0.8-0.2-1.7-0.4-2.6-0.4C229.5,21.9,228.7,21.9,228.1,21.9z M229.1,16.6
			c-0.7,0-1.3-0.2-1.9-0.5c-0.6-0.3-1-0.8-1.4-1.3c-0.4-0.5-0.7-1.1-0.9-1.8c-0.2-0.7-0.3-1.3-0.3-2c0-0.7,0.1-1.3,0.3-1.9
			c0.2-0.6,0.5-1.1,0.9-1.5c0.4-0.4,0.8-0.8,1.3-1c0.5-0.2,1.1-0.4,1.7-0.4c0.7,0,1.3,0.2,1.9,0.5c0.6,0.3,1,0.7,1.4,1.2
			c0.4,0.5,0.7,1.1,0.9,1.8c0.2,0.7,0.3,1.3,0.3,2c0,0.7-0.1,1.3-0.3,1.9c-0.2,0.6-0.5,1.1-0.9,1.5c-0.4,0.4-0.8,0.7-1.3,1
			C230.2,16.5,229.7,16.6,229.1,16.6z M228.7,6.6c-0.6,0-1.1,0.1-1.6,0.3c-0.5,0.2-0.9,0.5-1.2,0.9c-0.3,0.4-0.6,0.9-0.8,1.4
			c-0.2,0.6-0.3,1.2-0.3,1.8c0,0.6,0.1,1.3,0.3,1.9c0.2,0.6,0.5,1.2,0.9,1.7c0.4,0.5,0.8,0.9,1.4,1.2c0.5,0.3,1.1,0.5,1.8,0.5
			c0.6,0,1.1-0.1,1.6-0.3c0.5-0.2,0.9-0.5,1.2-0.9c0.3-0.4,0.6-0.9,0.8-1.4c0.2-0.6,0.3-1.2,0.3-1.8c0-0.7-0.1-1.3-0.3-2
			c-0.2-0.6-0.5-1.2-0.9-1.7c-0.4-0.5-0.8-0.9-1.4-1.2C229.9,6.7,229.3,6.6,228.7,6.6z"/>
	</g>
	<g>
		<path class="st0" d="M247.7,5.9c1.2,0,2.3,0.2,3.2,0.5c0.9,0.4,1.7,0.8,2.3,1.5s1,1.4,1.3,2.3c0.3,0.9,0.5,1.8,0.5,2.8h-13
			c0,0.3-0.1,0.6-0.1,0.9c0,0.3,0,0.6,0,1c0,1.2,0.2,2.3,0.5,3.3c0.3,1,0.8,1.9,1.3,2.6c0.6,0.7,1.2,1.3,2,1.7
			c0.8,0.4,1.6,0.6,2.6,0.6c0.8,0,1.6-0.1,2.2-0.4s1.3-0.7,1.8-1.3c0.6-0.6,1.1-1.2,1.5-2c0.4-0.8,0.8-1.6,1.2-2.6l-0.3,4.5
			c-0.9,0.8-1.9,1.3-3.1,1.7c-1.2,0.4-2.3,0.5-3.4,0.5c-1.3,0-2.5-0.2-3.6-0.6c-1.1-0.4-2-1-2.8-1.8c-0.8-0.8-1.4-1.7-1.8-2.8
			c-0.4-1.1-0.6-2.3-0.6-3.6c0-1.3,0.2-2.5,0.6-3.6c0.4-1.1,0.9-2,1.7-2.8s1.6-1.4,2.6-1.9C245.3,6.1,246.4,5.9,247.7,5.9z
			 M242.1,12.7h10.6c0-0.9-0.1-1.7-0.4-2.5c-0.2-0.8-0.5-1.4-1-2c-0.4-0.6-0.9-1-1.5-1.3c-0.6-0.3-1.3-0.5-2.1-0.5
			c-0.7,0-1.4,0.2-2,0.5c-0.6,0.3-1.2,0.7-1.7,1.3c-0.5,0.6-0.9,1.2-1.2,2C242.5,10.9,242.2,11.7,242.1,12.7z"/>
		<path class="st0" d="M248.3,23.8c-1.3,0-2.5-0.2-3.6-0.6c-1.1-0.4-2.1-1-2.9-1.8c-0.8-0.8-1.4-1.7-1.9-2.8
			c-0.4-1.1-0.7-2.3-0.7-3.7c0-1.3,0.2-2.5,0.6-3.6c0.4-1.1,1-2.1,1.7-2.9c0.7-0.8,1.6-1.5,2.7-1.9c1-0.4,2.2-0.7,3.5-0.7
			c1.2,0,2.3,0.2,3.3,0.5c0.9,0.4,1.7,0.9,2.3,1.5c0.6,0.6,1.1,1.4,1.4,2.3c0.3,0.9,0.5,1.8,0.5,2.9l0,0.1h-13
			c0,0.3-0.1,0.5-0.1,0.8c0,0.3,0,0.6,0,1c0,1.2,0.2,2.3,0.5,3.3c0.3,1,0.8,1.9,1.3,2.6c0.6,0.7,1.2,1.3,2,1.7
			c0.8,0.4,1.6,0.6,2.5,0.6c0.8,0,1.5-0.1,2.2-0.4c0.7-0.3,1.3-0.7,1.8-1.3c0.5-0.5,1-1.2,1.5-2c0.4-0.8,0.8-1.6,1.2-2.5l0.3-0.8
			l-0.3,5.4l0,0c-0.9,0.8-2,1.3-3.1,1.7C250.6,23.6,249.4,23.8,248.3,23.8z M247.7,6c-1.3,0-2.4,0.2-3.4,0.7c-1,0.4-1.9,1.1-2.6,1.8
			c-0.7,0.8-1.3,1.7-1.6,2.8c-0.4,1.1-0.6,2.3-0.6,3.6c0,1.3,0.2,2.5,0.6,3.6c0.4,1.1,1,2,1.8,2.7c0.8,0.7,1.7,1.3,2.8,1.8
			c2,0.8,4.4,0.9,6.9,0.1c1.1-0.3,2.1-0.9,3-1.6l0.2-3.7c-0.3,0.7-0.6,1.3-0.9,1.8c-0.4,0.8-1,1.5-1.5,2c-0.6,0.6-1.2,1-1.9,1.3
			c-0.7,0.3-1.5,0.5-2.3,0.5c-0.9,0-1.8-0.2-2.6-0.6c-0.8-0.4-1.5-1-2.1-1.8c-0.6-0.7-1-1.7-1.3-2.7c-0.3-1-0.5-2.1-0.5-3.3
			c0-0.3,0-0.7,0-1c0-0.3,0.1-0.6,0.1-1l0-0.1h13c0-1-0.2-1.9-0.5-2.7c-0.3-0.8-0.7-1.6-1.3-2.2c-0.6-0.6-1.3-1.1-2.2-1.5
			C250,6.2,248.9,6,247.7,6z M252.8,12.8H242l0-0.1c0.1-0.9,0.4-1.8,0.7-2.6c0.3-0.8,0.7-1.5,1.2-2c0.5-0.6,1.1-1,1.7-1.3
			c0.6-0.3,1.3-0.5,2.1-0.5c0.8,0,1.5,0.2,2.1,0.5c0.6,0.3,1.2,0.8,1.6,1.4c0.4,0.6,0.7,1.3,1,2c0.2,0.8,0.4,1.6,0.4,2.5L252.8,12.8
			z M242.2,12.5h10.3c0-0.8-0.2-1.6-0.4-2.4c-0.2-0.7-0.5-1.4-0.9-2c-0.4-0.6-0.9-1-1.5-1.3c-0.6-0.3-1.3-0.5-2-0.5
			c-0.7,0-1.4,0.2-2,0.5c-0.6,0.3-1.1,0.7-1.6,1.3c-0.5,0.6-0.9,1.2-1.2,2C242.6,10.9,242.4,11.7,242.2,12.5z"/>
	</g>
</g>
</svg>
