<?xml version="1.0" encoding="utf-8"?>
<!-- Generator: Adobe Illustrator 25.4.1, SVG Export Plug-In . SVG Version: 6.00 Build 0)  -->
<svg version="1.1" id="レイヤー_1" xmlns="http://www.w3.org/2000/svg" xmlns:xlink="http://www.w3.org/1999/xlink" x="0px"
	 y="0px" viewBox="0 0 280 29" style="enable-background:new 0 0 280 29;" xml:space="preserve">
<style type="text/css">
	.st0{fill:#635444;}
</style>
<g>
	<g>
		<g>
			<path class="st0" d="M30.8,12.8c0-1.6,0.2-3.1,0.6-4.5s0.9-2.5,1.6-3.4c0.7-0.9,1.5-1.7,2.5-2.2c1-0.5,2-0.8,3.2-0.8
				c1.2,0,2.3,0.3,3.2,0.8c1,0.5,1.8,1.3,2.5,2.2c0.7,0.9,1.2,2.1,1.6,3.4c0.4,1.3,0.6,2.8,0.6,4.5c0,1.6-0.2,3.1-0.6,4.5
				c-0.4,1.3-0.9,2.5-1.6,3.4c-0.7,0.9-1.5,1.7-2.5,2.2c-1,0.5-2,0.8-3.2,0.8c-1.2,0-2.2-0.3-3.2-0.8c-1-0.5-1.8-1.3-2.5-2.2
				c-0.7-0.9-1.2-2.1-1.6-3.4C31,15.9,30.8,14.4,30.8,12.8z M33.5,12.8c0,3.3,0.4,5.8,1.3,7.7c0.9,1.8,2.2,2.8,3.9,2.8
				c1.7,0,3-0.9,3.9-2.8c0.9-1.8,1.3-4.4,1.3-7.7c0-3.3-0.4-5.8-1.3-7.7c-0.9-1.8-2.2-2.8-3.9-2.8c-1.7,0-3,0.9-3.9,2.8
				C33.9,6.9,33.5,9.5,33.5,12.8z"/>
			<path class="st0" d="M38.7,23.8c-1.2,0-2.3-0.3-3.3-0.8c-1-0.5-1.8-1.3-2.5-2.2c-0.7-1-1.2-2.1-1.6-3.5c-0.4-1.4-0.6-2.9-0.6-4.5
				c0-1.6,0.2-3.2,0.6-4.5c0.4-1.3,0.9-2.5,1.6-3.5c0.7-1,1.5-1.7,2.5-2.2c1-0.5,2.1-0.8,3.3-0.8C39.9,1.7,41,2,42,2.5
				c1,0.5,1.8,1.3,2.5,2.2c0.7,1,1.2,2.1,1.6,3.5c0.4,1.3,0.6,2.9,0.6,4.5c0,1.6-0.2,3.1-0.6,4.5c-0.4,1.4-0.9,2.5-1.6,3.5
				c-0.7,1-1.5,1.7-2.5,2.2C41,23.5,39.9,23.8,38.7,23.8z M38.7,2c-1.1,0-2.2,0.3-3.2,0.8c-0.9,0.5-1.8,1.2-2.4,2.2
				c-0.7,0.9-1.2,2.1-1.6,3.4c-0.4,1.3-0.6,2.8-0.6,4.4c0,1.6,0.2,3.1,0.6,4.4c0.4,1.3,0.9,2.5,1.6,3.4c0.7,0.9,1.5,1.7,2.4,2.2
				c0.9,0.5,2,0.8,3.2,0.8c1.2,0,2.2-0.3,3.2-0.8c0.9-0.5,1.8-1.2,2.4-2.2c0.7-0.9,1.2-2.1,1.6-3.4c0.4-1.3,0.6-2.8,0.6-4.4
				c0-1.6-0.2-3.1-0.6-4.4C45.5,7,45,5.9,44.3,4.9c-0.7-0.9-1.5-1.7-2.4-2.2C40.9,2.2,39.9,2,38.7,2z M38.7,23.3c-1.7,0-3.1-1-4-2.8
				c-0.9-1.8-1.4-4.4-1.4-7.7c0-3.3,0.5-5.9,1.4-7.7c0.9-1.9,2.3-2.8,4-2.8c1.7,0,3.1,1,4,2.8c0.9,1.9,1.4,4.5,1.4,7.7
				c0,3.3-0.5,5.9-1.4,7.7C41.8,22.4,40.4,23.3,38.7,23.3z M38.7,2.4c-1.6,0-2.9,0.9-3.8,2.7C34,7,33.6,9.5,33.6,12.8
				c0,3.2,0.4,5.8,1.3,7.6c0.9,1.8,2.1,2.7,3.8,2.7c1.7,0,2.9-0.9,3.8-2.7c0.9-1.8,1.3-4.4,1.3-7.6c0-3.2-0.4-5.8-1.3-7.6
				C41.6,3.4,40.3,2.4,38.7,2.4z"/>
		</g>
		<g>
			<path class="st0" d="M49.7,2h12.1L62,2.2l-3.1,8.9c-0.2,0.6-0.5,1.4-0.8,2.5c-0.4,1.1-0.7,2.2-1.1,3.5c-0.3,1.2-0.6,2.4-0.9,3.6
				c-0.2,1.2-0.4,2.1-0.3,2.8h-2.8c0.4-0.6,0.8-1.4,1.2-2.2c0.4-0.8,0.9-1.8,1.4-2.9c0.5-1.1,1-2.3,1.5-3.7c0.5-1.4,1.1-3,1.8-4.8
				l2.1-6h-7.1c-0.8,0-1.5,0.1-2,0.2c-0.5,0.2-0.9,0.4-1.2,0.6c-0.3,0.3-0.5,0.5-0.7,0.8c-0.1,0.3-0.3,0.6-0.4,0.9L49.7,2z"/>
			<path class="st0" d="M55.9,23.6h-3.2l0.1-0.2c0.4-0.6,0.8-1.4,1.2-2.2c0.4-0.8,0.9-1.8,1.4-2.8c0.5-1.1,1-2.3,1.5-3.7
				c0.5-1.4,1.1-3,1.8-4.8l2.1-5.9h-7c-0.8,0-1.5,0.1-2,0.2c-0.5,0.2-0.9,0.4-1.2,0.6c-0.3,0.2-0.5,0.5-0.6,0.8
				c-0.1,0.3-0.3,0.6-0.4,0.9l-0.3,0.6l0.3-5.3h12.3l0.2,0.3l0,0.1L59,11.2c-0.2,0.6-0.5,1.4-0.8,2.5c-0.4,1.1-0.7,2.3-1,3.5
				c-0.3,1.2-0.6,2.4-0.9,3.6c-0.2,1.1-0.4,2.1-0.3,2.8L55.9,23.6z M53.1,23.4h2.5c0-0.7,0.1-1.6,0.3-2.7c0.2-1.2,0.5-2.4,0.9-3.6
				c0.3-1.2,0.7-2.4,1.1-3.5c0.4-1.1,0.6-1.9,0.8-2.5l3.1-8.8l-0.1-0.1h-12L49.6,6c0-0.1,0.1-0.2,0.1-0.3c0.2-0.3,0.4-0.6,0.7-0.9
				c0.3-0.3,0.7-0.5,1.2-0.7c0.5-0.2,1.2-0.3,2.1-0.3h7.3l-2.2,6.2c-0.6,1.8-1.2,3.4-1.8,4.8c-0.5,1.4-1.1,2.6-1.5,3.7
				c-0.5,1.1-0.9,2.1-1.4,2.9C53.8,22.1,53.5,22.8,53.1,23.4z"/>
		</g>
		<g>
			<path class="st0" d="M73,23.5c0.7-0.2,1.1-0.5,1.3-0.8c0.2-0.4,0.3-1,0.3-1.9v-16c0-0.5,0-0.8-0.1-1.1c-0.1-0.3-0.1-0.6-0.3-0.8
				c-0.1-0.2-0.3-0.4-0.5-0.5C73.6,2.2,73.4,2.1,73,2h7c2.4,0,4.4,0.4,5.8,1.3C87.3,4.2,88,5.5,88,7.1c0,1.4-0.5,2.5-1.5,3.4
				c-1,0.9-2.5,1.6-4.3,1.9c2.1,0.2,3.7,0.8,4.8,1.7c1.2,0.9,1.7,2.1,1.7,3.5c0,0.9-0.2,1.7-0.6,2.5c-0.4,0.7-0.9,1.3-1.6,1.8
				c-0.7,0.5-1.5,0.9-2.5,1.2s-2.1,0.4-3.3,0.4H73z M77,12.2h3.3c1.6,0,2.8-0.5,3.8-1.4c0.9-0.9,1.4-2.1,1.4-3.6
				c0-1.5-0.5-2.7-1.5-3.6s-2.5-1.2-4.3-1.2H77V12.2z M77,23h3.3c1.9,0,3.3-0.5,4.3-1.4c1-0.9,1.5-2.2,1.5-3.9
				c0-1.6-0.5-2.8-1.6-3.7c-1-0.9-2.4-1.3-4.2-1.3H77V23z"/>
			<path class="st0" d="M80.8,23.6h-8.6l0.8-0.2c0.6-0.2,1-0.4,1.3-0.8c0.2-0.4,0.3-1,0.3-1.8v-16c0-0.4,0-0.8-0.1-1.1
				c0-0.3-0.1-0.5-0.2-0.7c-0.1-0.2-0.3-0.3-0.5-0.5c-0.2-0.1-0.5-0.2-0.8-0.3l-0.9-0.2h8c2.4,0,4.4,0.4,5.8,1.3
				c1.5,0.9,2.2,2.2,2.2,3.9c0,1.4-0.5,2.6-1.6,3.5c-0.9,0.8-2.1,1.4-3.7,1.8c1.8,0.3,3.2,0.8,4.2,1.6c1.2,0.9,1.8,2.1,1.8,3.6
				c0,0.9-0.2,1.8-0.6,2.5c-0.4,0.7-0.9,1.4-1.6,1.9c-0.7,0.5-1.5,0.9-2.5,1.2C83.1,23.5,82,23.6,80.8,23.6z M73.7,23.4h7.1
				c1.2,0,2.3-0.1,3.3-0.4c1-0.3,1.8-0.6,2.4-1.1c0.7-0.5,1.2-1.1,1.5-1.8c0.4-0.7,0.5-1.5,0.5-2.4c0-1.4-0.6-2.5-1.7-3.4
				c-1.1-0.9-2.7-1.4-4.8-1.7l-0.8-0.1l0.8-0.1c1.8-0.3,3.2-0.9,4.2-1.9c1-0.9,1.5-2,1.5-3.3c0-1.6-0.7-2.8-2.1-3.7
				c-1.4-0.9-3.3-1.3-5.7-1.3h-6.4c0.1,0,0.1,0.1,0.2,0.1c0.2,0.1,0.4,0.3,0.5,0.5c0.1,0.2,0.2,0.5,0.3,0.8c0.1,0.3,0.1,0.7,0.1,1.1
				v16c0,0.9-0.1,1.6-0.4,1.9C74.3,23,74,23.2,73.7,23.4z M80.3,23.1h-3.4V12.6h3.5c1.8,0,3.2,0.5,4.3,1.3c1.1,0.9,1.6,2.2,1.6,3.8
				c0,1.7-0.5,3-1.6,3.9C83.7,22.7,82.2,23.1,80.3,23.1z M77.2,22.9h3.2c1.8,0,3.2-0.5,4.2-1.4c1-0.9,1.5-2.2,1.5-3.8
				c0-1.6-0.5-2.8-1.5-3.6c-1-0.9-2.4-1.3-4.1-1.3h-3.3V22.9z M80.3,12.4h-3.4V2.4h2.8c1.9,0,3.3,0.4,4.4,1.3c1,0.8,1.6,2.1,1.6,3.6
				c0,1.5-0.5,2.7-1.4,3.6C83.3,11.9,82,12.4,80.3,12.4z M77.2,12.1h3.2c1.5,0,2.8-0.4,3.7-1.3c0.9-0.9,1.4-2,1.4-3.5
				c0-1.5-0.5-2.7-1.5-3.5c-1-0.8-2.4-1.2-4.2-1.2h-2.5V12.1z"/>
		</g>
		<g>
			<path class="st0" d="M90.9,23.5c0.3-0.1,0.6-0.2,0.8-0.3c0.2-0.1,0.4-0.3,0.5-0.5c0.1-0.2,0.2-0.4,0.2-0.8c0-0.3,0.1-0.7,0.1-1.1
				V9.4c0-0.4,0-0.8,0-1.1c0-0.3-0.1-0.6-0.1-0.8C92.2,7.2,92.1,7,92,6.8c-0.1-0.2-0.3-0.4-0.4-0.6l3.1-0.3V10
				c0.2-0.6,0.5-1.1,0.8-1.6c0.3-0.5,0.7-0.9,1.1-1.3c0.4-0.4,0.9-0.7,1.4-0.9c0.5-0.2,1.2-0.3,1.9-0.3c0.7,0,1.2,0.1,1.8,0.2l0,3
				c-0.2-0.2-0.4-0.5-0.7-0.7c-0.3-0.2-0.5-0.5-0.8-0.7c-0.3-0.2-0.6-0.4-0.9-0.5C99,7.1,98.7,7,98.3,7c-0.4,0-0.8,0.1-1.1,0.3
				c-0.3,0.2-0.7,0.5-1,0.8c-0.3,0.3-0.6,0.7-0.8,1.2c-0.2,0.5-0.5,1-0.6,1.5v10c0,0.4,0,0.8,0.1,1.1c0.1,0.3,0.1,0.6,0.3,0.8
				c0.1,0.2,0.3,0.4,0.5,0.5c0.2,0.1,0.5,0.2,0.8,0.3H90.9z"/>
			<path class="st0" d="M97.1,23.6h-7l0.7-0.2c0.3-0.1,0.6-0.2,0.8-0.3c0.2-0.1,0.3-0.3,0.5-0.4c0.1-0.2,0.2-0.4,0.2-0.7
				c0-0.3,0.1-0.7,0.1-1.1V9.4c0-0.4,0-0.8,0-1.1c0-0.3-0.1-0.6-0.1-0.8C92.1,7.2,92,7,91.9,6.8c-0.1-0.2-0.2-0.4-0.4-0.6l-0.1-0.2
				l3.5-0.3v3.7c0.2-0.4,0.4-0.8,0.6-1.1c0.3-0.5,0.7-0.9,1.1-1.3C97,6.6,97.5,6.3,98,6.1c0.6-0.2,1.2-0.3,1.9-0.3
				c0.7,0,1.3,0.1,1.8,0.2l0.1,0l0,3.4l-0.2-0.3c-0.2-0.2-0.4-0.5-0.7-0.7c-0.2-0.2-0.5-0.5-0.8-0.7c-0.3-0.2-0.6-0.4-0.9-0.5
				c-0.7-0.3-1.4-0.2-2,0.1c-0.3,0.2-0.7,0.5-0.9,0.8C96,8.6,95.8,9,95.5,9.4c-0.2,0.5-0.5,0.9-0.6,1.4v10c0,0.4,0,0.8,0.1,1.1
				c0,0.3,0.1,0.5,0.2,0.7c0.1,0.2,0.3,0.3,0.5,0.5c0.2,0.1,0.4,0.2,0.7,0.3L97.1,23.6z M91.5,23.4h4.2c-0.1,0-0.2-0.1-0.2-0.1
				c-0.2-0.1-0.4-0.3-0.5-0.5c-0.1-0.2-0.2-0.5-0.3-0.8c-0.1-0.3-0.1-0.7-0.1-1.1l0-10c0.2-0.5,0.4-1,0.7-1.5
				c0.3-0.5,0.5-0.9,0.8-1.2c0.3-0.3,0.6-0.6,1-0.8c0.7-0.4,1.5-0.4,2.2-0.1c0.3,0.1,0.6,0.3,0.9,0.5c0.3,0.2,0.6,0.4,0.8,0.7
				c0.2,0.2,0.3,0.3,0.5,0.5l0-2.6c-0.5-0.1-1-0.2-1.6-0.2c-0.7,0-1.3,0.1-1.8,0.3c-0.5,0.2-1,0.5-1.4,0.8C96.3,7.6,96,8,95.7,8.5
				c-0.3,0.5-0.6,1-0.8,1.6l-0.2,0.5V6l-2.8,0.2c0.1,0.2,0.2,0.3,0.3,0.5c0.1,0.2,0.2,0.5,0.3,0.7c0.1,0.3,0.1,0.5,0.1,0.9
				c0,0.3,0,0.7,0,1.1v11.4c0,0.4,0,0.8-0.1,1.1c0,0.3-0.1,0.6-0.3,0.8c-0.1,0.2-0.3,0.4-0.5,0.5C91.7,23.3,91.6,23.4,91.5,23.4z"/>
		</g>
		<g>
			<path class="st0" d="M103.1,23.5c0.3-0.1,0.6-0.2,0.8-0.3c0.2-0.1,0.4-0.3,0.5-0.5c0.1-0.2,0.2-0.4,0.2-0.8
				c0-0.3,0.1-0.7,0.1-1.1V9.4c0-0.4,0-0.8,0-1.1c0-0.3-0.1-0.6-0.1-0.8c-0.1-0.2-0.1-0.5-0.3-0.7c-0.1-0.2-0.3-0.4-0.4-0.6l3.1-0.3
				v14.9c0,0.4,0,0.8,0.1,1.1c0.1,0.3,0.1,0.6,0.3,0.8c0.1,0.2,0.3,0.4,0.5,0.5c0.2,0.1,0.5,0.2,0.8,0.3H103.1z M105.7,0.5
				c0.5,0,0.9,0.1,1.2,0.4c0.3,0.3,0.5,0.7,0.5,1.1s-0.2,0.9-0.5,1.1c-0.3,0.3-0.7,0.4-1.2,0.4c-0.5,0-0.8-0.1-1.1-0.4
				c-0.3-0.3-0.5-0.7-0.5-1.1s0.2-0.8,0.5-1.1C104.9,0.7,105.3,0.5,105.7,0.5z"/>
			<path class="st0" d="M109.3,23.6h-7l0.7-0.2c0.3-0.1,0.6-0.2,0.8-0.3c0.2-0.1,0.3-0.3,0.5-0.4c0.1-0.2,0.2-0.4,0.2-0.7
				c0-0.3,0.1-0.7,0.1-1.1V9.4c0-0.4,0-0.8,0-1.1c0-0.3-0.1-0.6-0.1-0.8c-0.1-0.2-0.1-0.5-0.3-0.7c-0.1-0.2-0.2-0.4-0.4-0.6
				l-0.1-0.2l3.5-0.3v15.1c0,0.4,0,0.8,0.1,1.1c0,0.3,0.1,0.5,0.2,0.7c0.1,0.2,0.3,0.3,0.5,0.5c0.2,0.1,0.5,0.2,0.7,0.3L109.3,23.6z
				 M103.7,23.4h4.2c-0.1,0-0.2-0.1-0.2-0.1c-0.2-0.1-0.4-0.3-0.5-0.5c-0.1-0.2-0.2-0.5-0.3-0.8c-0.1-0.3-0.1-0.7-0.1-1.1V6L104,6.3
				c0.1,0.2,0.2,0.3,0.3,0.5c0.1,0.2,0.2,0.5,0.3,0.7c0.1,0.2,0.1,0.5,0.1,0.9c0,0.3,0,0.7,0,1.1v11.4c0,0.4,0,0.8-0.1,1.1
				c0,0.3-0.1,0.6-0.3,0.8c-0.1,0.2-0.3,0.4-0.5,0.5C103.9,23.3,103.8,23.4,103.7,23.4z M105.7,3.8c-0.5,0-0.9-0.2-1.2-0.5
				C104.2,3,104,2.6,104,2.1c0-0.5,0.2-0.9,0.5-1.2c0.3-0.3,0.7-0.4,1.2-0.4c0.5,0,0.9,0.2,1.3,0.4c0.3,0.3,0.5,0.7,0.5,1.2
				c0,0.5-0.2,0.9-0.5,1.2C106.6,3.6,106.2,3.8,105.7,3.8z M105.7,0.7c-0.4,0-0.8,0.1-1.1,0.4c-0.3,0.3-0.4,0.6-0.4,1
				c0,0.4,0.1,0.8,0.4,1.1c0.3,0.3,0.6,0.4,1.1,0.4c0.4,0,0.8-0.1,1.1-0.4c0.3-0.3,0.4-0.6,0.4-1.1c0-0.4-0.1-0.8-0.4-1
				C106.5,0.8,106.2,0.7,105.7,0.7z"/>
		</g>
		<g>
			<path class="st0" d="M118.8,5.9c1.3,0,2.6,0.2,3.8,0.7c1.2,0.5,2.2,1,3.1,1.7l-1,4.9c-0.1-1.3-0.4-2.4-0.7-3.3
				c-0.4-0.9-0.8-1.6-1.3-2.1c-0.5-0.5-1.1-0.9-1.7-1.1c-0.6-0.2-1.3-0.3-1.9-0.3c-0.9,0-1.7,0.2-2.4,0.6c-0.7,0.4-1.4,1-1.9,1.7
				s-0.9,1.6-1.2,2.7c-0.3,1-0.4,2.2-0.4,3.4c0,1.3,0.2,2.4,0.5,3.5c0.3,1.1,0.7,1.9,1.3,2.7c0.6,0.7,1.2,1.3,2,1.7
				c0.8,0.4,1.6,0.6,2.5,0.6c1.6,0,2.9-0.6,4.1-1.8c1.2-1.2,2-2.9,2.6-5.1l-0.2,5.2c-0.5,0.4-1,0.8-1.6,1.1
				c-0.6,0.3-1.1,0.5-1.7,0.7c-0.6,0.2-1.1,0.3-1.7,0.4s-1.1,0.1-1.6,0.1c-1.3,0-2.4-0.2-3.5-0.6c-1.1-0.4-2-1-2.8-1.8
				c-0.8-0.8-1.4-1.7-1.8-2.8c-0.4-1.1-0.7-2.3-0.7-3.7c0-1.3,0.2-2.5,0.6-3.6c0.4-1.1,1-2,1.7-2.8c0.7-0.8,1.6-1.4,2.7-1.8
				C116.4,6.1,117.5,5.9,118.8,5.9z"/>
			<path class="st0" d="M119.1,23.8c-1.3,0-2.5-0.2-3.5-0.6c-1.1-0.4-2-1-2.8-1.8c-0.8-0.8-1.4-1.8-1.8-2.9
				c-0.4-1.1-0.7-2.4-0.7-3.7c0-1.3,0.2-2.5,0.6-3.6c0.4-1.1,1-2,1.8-2.8c0.7-0.8,1.7-1.4,2.7-1.8c1-0.4,2.2-0.7,3.5-0.7
				c1.3,0,2.6,0.2,3.8,0.7c1.2,0.5,2.2,1.1,3.1,1.8l0.1,0l0,0.1l-1.2,5.6l-0.1-0.8c-0.1-1.3-0.4-2.4-0.7-3.2
				c-0.4-0.9-0.8-1.6-1.3-2.1c-0.5-0.5-1.1-0.9-1.7-1.1c-0.6-0.2-1.3-0.3-1.9-0.3c-0.9,0-1.7,0.2-2.4,0.6c-0.7,0.4-1.3,1-1.8,1.7
				c-0.5,0.7-0.9,1.6-1.2,2.6c-0.3,1-0.4,2.2-0.4,3.4c0,1.3,0.2,2.4,0.5,3.5c0.3,1,0.7,1.9,1.3,2.6c0.5,0.7,1.2,1.3,1.9,1.7
				c0.7,0.4,1.6,0.6,2.5,0.6c1.5,0,2.9-0.6,4-1.7c1.2-1.2,2-2.9,2.6-5.1l0.3-1.1l-0.3,6.3l0,0c-0.5,0.4-1,0.8-1.6,1.1
				c-0.6,0.3-1.2,0.5-1.7,0.7s-1.2,0.3-1.7,0.4C120.1,23.7,119.5,23.8,119.1,23.8z M118.8,6c-1.2,0-2.4,0.2-3.4,0.6
				c-1,0.4-1.9,1-2.6,1.8c-0.7,0.8-1.3,1.7-1.7,2.7c-0.4,1.1-0.6,2.2-0.6,3.5c0,1.3,0.2,2.6,0.7,3.6c0.4,1.1,1,2,1.8,2.8
				c0.8,0.8,1.7,1.4,2.7,1.8c1.1,0.4,2.2,0.6,3.4,0.6c0.5,0,1,0,1.5-0.1c0.6-0.1,1.1-0.2,1.7-0.4c0.6-0.2,1.1-0.4,1.7-0.7
				c0.5-0.3,1-0.6,1.5-1l0.2-4.1c-0.6,1.8-1.4,3.2-2.4,4.2c-1.2,1.2-2.6,1.8-4.2,1.8c-0.9,0-1.8-0.2-2.6-0.6c-0.8-0.4-1.4-1-2-1.7
				c-0.6-0.8-1-1.7-1.3-2.7c-0.3-1.1-0.5-2.2-0.5-3.5c0-1.3,0.2-2.4,0.5-3.5c0.3-1,0.7-1.9,1.3-2.7c0.5-0.8,1.2-1.3,1.9-1.7
				c0.7-0.4,1.6-0.6,2.5-0.6c0.7,0,1.3,0.1,2,0.3c0.7,0.2,1.3,0.6,1.8,1.2c0.5,0.5,1,1.3,1.4,2.2c0.3,0.7,0.5,1.6,0.7,2.6l0.9-4.1
				c-0.9-0.7-1.9-1.2-3-1.7C121.4,6.3,120.1,6,118.8,6z"/>
		</g>
		<g>
			<path class="st0" d="M127.9,23.5c0.3-0.1,0.6-0.2,0.8-0.3c0.2-0.1,0.4-0.3,0.5-0.5c0.1-0.2,0.2-0.4,0.2-0.8
				c0-0.3,0.1-0.7,0.1-1.1V2.7c0-0.6-0.1-1.1-0.2-1.4c-0.1-0.3-0.3-0.6-0.6-0.8l3.1-0.4v15.8l7.9-6.9c0.6-0.5,1-1,1.4-1.5
				c0.4-0.5,0.5-1,0.5-1.5h2.8c-0.2,0.1-0.4,0.2-0.7,0.4c-0.3,0.2-0.6,0.4-1,0.7c-0.4,0.3-0.8,0.6-1.3,1c-0.5,0.4-1.1,0.9-1.8,1.5
				l-3.4,3l5.9,7.4c0.6,0.7,1,1.3,1.4,1.7c0.3,0.4,0.6,0.8,0.8,1c0.2,0.2,0.3,0.4,0.4,0.5c0.1,0.1,0.1,0.1,0.2,0.1h-4
				c0-0.1,0.1-0.1,0.1-0.3c0-0.1,0-0.3-0.1-0.5c-0.1-0.2-0.2-0.5-0.4-0.8c-0.2-0.3-0.5-0.8-0.9-1.3l-5.1-6.6l-2.9,2.6v4.2
				c0,0.4,0,0.8,0.1,1.1c0.1,0.3,0.1,0.6,0.3,0.8c0.1,0.2,0.3,0.4,0.5,0.5c0.2,0.1,0.5,0.2,0.8,0.3H127.9z"/>
			<path class="st0" d="M145,23.6h-4.2l0.1-0.2c0-0.1,0.1-0.1,0.1-0.2c0-0.1,0-0.2-0.1-0.4c-0.1-0.2-0.2-0.5-0.4-0.8
				c-0.2-0.3-0.5-0.8-0.9-1.3l-5-6.5l-2.8,2.4v4.1c0,0.4,0,0.8,0.1,1.1c0,0.3,0.1,0.5,0.2,0.7c0.1,0.2,0.3,0.3,0.5,0.5
				c0.2,0.1,0.5,0.2,0.7,0.3l0.7,0.2h-7l0.7-0.2c0.3-0.1,0.6-0.2,0.8-0.3c0.2-0.1,0.3-0.3,0.5-0.4c0.1-0.2,0.2-0.4,0.2-0.7
				c0-0.3,0.1-0.7,0.1-1.1V2.7c0-0.6,0-1.1-0.1-1.4c-0.1-0.3-0.3-0.5-0.6-0.7l-0.2-0.2l3.5-0.4v15.7l7.7-6.8c0.5-0.5,1-0.9,1.4-1.4
				c0.4-0.5,0.5-0.9,0.5-1.4l0-0.1h3.4l-0.4,0.2c-0.2,0.1-0.4,0.2-0.7,0.4c-0.3,0.2-0.6,0.4-1,0.7c-0.4,0.3-0.8,0.6-1.3,1
				c-0.5,0.4-1.1,0.9-1.8,1.5l-3.3,2.9l5.8,7.4c0.6,0.7,1,1.3,1.4,1.7c0.3,0.4,0.6,0.8,0.8,1c0.2,0.3,0.3,0.4,0.4,0.5
				c0.1,0.1,0.1,0.1,0.1,0.1L145,23.6z M141.2,23.4h3.4c-0.1-0.1-0.2-0.2-0.4-0.4c-0.2-0.2-0.5-0.6-0.8-1c-0.4-0.4-0.8-1-1.4-1.7
				l-6-7.5l3.5-3.1c0.7-0.6,1.3-1.1,1.8-1.5c0.5-0.4,0.9-0.8,1.3-1c0.4-0.3,0.7-0.5,1-0.7c0.1-0.1,0.2-0.1,0.3-0.2h-2.2
				c0,0.5-0.2,0.9-0.5,1.4c-0.4,0.5-0.8,1-1.4,1.5l-8.1,7.1V0.3L129,0.6c0.2,0.2,0.4,0.4,0.5,0.7c0.1,0.3,0.2,0.8,0.2,1.4v18.1
				c0,0.4,0,0.8-0.1,1.1c0,0.3-0.1,0.6-0.3,0.8c-0.1,0.2-0.3,0.4-0.5,0.5c-0.1,0-0.1,0.1-0.2,0.1h4.2c-0.1,0-0.2-0.1-0.2-0.1
				c-0.2-0.1-0.4-0.3-0.5-0.5c-0.1-0.2-0.2-0.5-0.3-0.8c-0.1-0.3-0.1-0.7-0.1-1.1v-4.3l3-2.7l5.1,6.7c0.4,0.5,0.7,0.9,0.9,1.3
				c0.2,0.3,0.3,0.6,0.4,0.9c0.1,0.2,0.1,0.4,0.1,0.6C141.2,23.3,141.2,23.4,141.2,23.4z"/>
		</g>
		<g>
			<path class="st0" d="M155.5,23.5c0.7-0.2,1.1-0.5,1.3-0.8c0.2-0.4,0.3-1,0.3-1.9v-16c0-0.5,0-0.8-0.1-1.1
				c-0.1-0.3-0.1-0.6-0.3-0.8c-0.1-0.2-0.3-0.4-0.5-0.5c-0.2-0.1-0.5-0.2-0.8-0.3h7c2.4,0,4.4,0.4,5.8,1.3c1.4,0.9,2.1,2.1,2.1,3.8
				c0,1.4-0.5,2.5-1.5,3.4c-1,0.9-2.5,1.6-4.3,1.9c2.1,0.2,3.7,0.8,4.8,1.7c1.2,0.9,1.7,2.1,1.7,3.5c0,0.9-0.2,1.7-0.6,2.5
				c-0.4,0.7-0.9,1.3-1.6,1.8c-0.7,0.5-1.5,0.9-2.5,1.2c-1,0.3-2.1,0.4-3.3,0.4H155.5z M159.5,12.2h3.3c1.6,0,2.8-0.5,3.8-1.4
				c0.9-0.9,1.4-2.1,1.4-3.6c0-1.5-0.5-2.7-1.5-3.6c-1-0.8-2.5-1.2-4.3-1.2h-2.7V12.2z M159.5,23h3.3c1.9,0,3.3-0.5,4.3-1.4
				c1-0.9,1.5-2.2,1.5-3.9c0-1.6-0.5-2.8-1.6-3.7c-1-0.9-2.4-1.3-4.2-1.3h-3.4V23z"/>
			<path class="st0" d="M163.3,23.6h-8.6l0.8-0.2c0.6-0.2,1-0.4,1.3-0.8c0.2-0.3,0.3-1,0.3-1.8v-16c0-0.4,0-0.8-0.1-1.1
				c0-0.3-0.1-0.5-0.2-0.7c-0.1-0.2-0.3-0.3-0.5-0.5c-0.2-0.1-0.5-0.2-0.8-0.3l-0.9-0.2h8c2.4,0,4.4,0.4,5.8,1.3
				c1.5,0.9,2.2,2.2,2.2,3.9c0,1.4-0.5,2.6-1.6,3.5c-0.9,0.8-2.1,1.4-3.7,1.8c1.8,0.3,3.2,0.8,4.2,1.6c1.2,0.9,1.8,2.1,1.8,3.6
				c0,0.9-0.2,1.8-0.6,2.5c-0.4,0.7-0.9,1.4-1.6,1.9c-0.7,0.5-1.5,0.9-2.5,1.2C165.6,23.5,164.5,23.6,163.3,23.6z M156.2,23.4h7.1
				c1.2,0,2.3-0.1,3.3-0.4c1-0.3,1.8-0.6,2.4-1.1c0.7-0.5,1.2-1.1,1.5-1.8c0.4-0.7,0.5-1.5,0.5-2.4c0-1.4-0.6-2.5-1.7-3.4
				c-1.1-0.9-2.7-1.4-4.8-1.7l-0.8-0.1l0.8-0.1c1.8-0.3,3.2-0.9,4.2-1.9c1-0.9,1.5-2,1.5-3.3c0-1.6-0.7-2.8-2.1-3.7
				c-1.4-0.9-3.3-1.3-5.7-1.3h-6.4c0.1,0,0.1,0.1,0.2,0.1c0.2,0.1,0.4,0.3,0.5,0.5c0.1,0.2,0.2,0.5,0.3,0.8c0.1,0.3,0.1,0.7,0.1,1.1
				v16c0,0.9-0.1,1.6-0.4,1.9C156.8,23,156.5,23.2,156.2,23.4z M162.8,23.1h-3.4V12.6h3.5c1.8,0,3.2,0.5,4.3,1.3
				c1.1,0.9,1.6,2.2,1.6,3.8c0,1.7-0.5,3-1.6,3.9C166.2,22.7,164.7,23.1,162.8,23.1z M159.6,22.9h3.2c1.8,0,3.2-0.5,4.2-1.4
				c1-0.9,1.5-2.2,1.5-3.8c0-1.6-0.5-2.8-1.5-3.6c-1-0.9-2.4-1.3-4.1-1.3h-3.3V22.9z M162.8,12.4h-3.4V2.4h2.8
				c1.9,0,3.3,0.4,4.4,1.3c1,0.8,1.6,2.1,1.6,3.6c0,1.5-0.5,2.7-1.4,3.6C165.7,11.9,164.4,12.4,162.8,12.4z M159.6,12.1h3.2
				c1.5,0,2.8-0.4,3.7-1.3c0.9-0.9,1.4-2,1.4-3.5c0-1.5-0.5-2.7-1.5-3.5c-1-0.8-2.4-1.2-4.2-1.2h-2.5V12.1z"/>
		</g>
		<g>
			<path class="st0" d="M173.3,23.5c0.3-0.1,0.6-0.2,0.8-0.3c0.2-0.1,0.4-0.3,0.5-0.5c0.1-0.2,0.2-0.4,0.2-0.8
				c0-0.3,0.1-0.7,0.1-1.1V9.4c0-0.4,0-0.8,0-1.1c0-0.3-0.1-0.6-0.1-0.8c-0.1-0.2-0.1-0.5-0.3-0.7c-0.1-0.2-0.3-0.4-0.4-0.6l3.1-0.3
				V10c0.2-0.6,0.5-1.1,0.8-1.6c0.3-0.5,0.7-0.9,1.1-1.3c0.4-0.4,0.9-0.7,1.4-0.9c0.5-0.2,1.2-0.3,1.9-0.3c0.7,0,1.2,0.1,1.8,0.2
				l0,3c-0.2-0.2-0.4-0.5-0.7-0.7c-0.3-0.2-0.5-0.5-0.8-0.7c-0.3-0.2-0.6-0.4-0.9-0.5c-0.3-0.1-0.6-0.2-1-0.2
				c-0.4,0-0.8,0.1-1.1,0.3c-0.4,0.2-0.7,0.5-1,0.8c-0.3,0.3-0.6,0.7-0.8,1.2s-0.5,1-0.6,1.5v10c0,0.4,0,0.8,0.1,1.1
				c0.1,0.3,0.1,0.6,0.3,0.8s0.3,0.4,0.5,0.5c0.2,0.1,0.5,0.2,0.8,0.3H173.3z"/>
			<path class="st0" d="M179.6,23.6h-7l0.7-0.2c0.3-0.1,0.6-0.2,0.8-0.3c0.2-0.1,0.3-0.3,0.5-0.4c0.1-0.2,0.2-0.4,0.2-0.7
				c0-0.3,0.1-0.7,0.1-1.1V9.4c0-0.4,0-0.8,0-1.1c0-0.3-0.1-0.6-0.1-0.8c-0.1-0.2-0.1-0.5-0.3-0.7c-0.1-0.2-0.2-0.4-0.4-0.6
				l-0.1-0.2l3.5-0.3v3.7c0.2-0.4,0.4-0.8,0.6-1.1c0.3-0.5,0.7-0.9,1.1-1.3c0.4-0.4,0.9-0.7,1.5-0.9c0.6-0.2,1.2-0.3,1.9-0.3
				c0.7,0,1.3,0.1,1.8,0.2l0.1,0l0,3.4l-0.2-0.3c-0.2-0.2-0.4-0.5-0.7-0.7c-0.3-0.2-0.5-0.5-0.8-0.7c-0.3-0.2-0.6-0.4-0.9-0.5
				c-0.7-0.3-1.4-0.2-2,0.1c-0.3,0.2-0.7,0.5-0.9,0.8c-0.3,0.3-0.6,0.7-0.8,1.2c-0.2,0.4-0.5,0.9-0.6,1.4v10c0,0.4,0,0.8,0.1,1.1
				c0,0.3,0.1,0.5,0.2,0.7c0.1,0.2,0.3,0.3,0.5,0.5c0.2,0.1,0.5,0.2,0.7,0.3L179.6,23.6z M174,23.4h4.2c-0.1,0-0.2-0.1-0.2-0.1
				c-0.2-0.1-0.4-0.3-0.5-0.5c-0.1-0.2-0.2-0.5-0.3-0.8c-0.1-0.3-0.1-0.7-0.1-1.1l0-10c0.2-0.5,0.4-1,0.7-1.5
				c0.2-0.5,0.5-0.9,0.8-1.2c0.3-0.3,0.6-0.6,1-0.8c0.7-0.4,1.5-0.4,2.2-0.1c0.3,0.1,0.6,0.3,0.9,0.5c0.3,0.2,0.6,0.4,0.8,0.7
				c0.2,0.2,0.3,0.3,0.5,0.5l0-2.6c-0.5-0.1-1-0.2-1.6-0.2c-0.7,0-1.3,0.1-1.8,0.3c-0.5,0.2-1,0.5-1.4,0.8c-0.4,0.4-0.8,0.8-1.1,1.3
				c-0.3,0.5-0.6,1-0.8,1.6l-0.2,0.5V6l-2.8,0.2c0.1,0.2,0.2,0.3,0.3,0.5c0.1,0.2,0.2,0.5,0.3,0.7c0.1,0.2,0.1,0.5,0.1,0.9
				c0,0.3,0,0.7,0,1.1v11.4c0,0.4,0,0.8-0.1,1.1c0,0.3-0.1,0.6-0.3,0.8c-0.1,0.2-0.3,0.4-0.5,0.5C174.1,23.3,174.1,23.4,174,23.4z"
				/>
		</g>
		<g>
			<path class="st0" d="M194.5,5.9c1.3,0,2.5,0.2,3.6,0.6c1.1,0.4,2,1,2.8,1.8c0.8,0.8,1.4,1.7,1.8,2.8c0.4,1.1,0.6,2.3,0.6,3.6v0
				c0,1.3-0.2,2.5-0.6,3.6c-0.4,1.1-1,2-1.8,2.8c-0.8,0.8-1.7,1.4-2.8,1.8c-1.1,0.4-2.3,0.6-3.6,0.6c-1.3,0-2.5-0.2-3.6-0.6
				s-2-1-2.8-1.8c-0.8-0.8-1.4-1.7-1.8-2.8s-0.6-2.3-0.6-3.6v0c0-1.3,0.2-2.5,0.6-3.6s1-2,1.8-2.8c0.8-0.8,1.7-1.4,2.8-1.8
				C192,6.1,193.2,5.9,194.5,5.9z M188.1,14.8c0,1.2,0.2,2.4,0.5,3.4c0.3,1,0.7,1.9,1.3,2.7c0.6,0.8,1.2,1.3,2,1.7
				c0.8,0.4,1.6,0.6,2.6,0.6s1.8-0.2,2.6-0.6c0.8-0.4,1.5-1,2-1.7c0.6-0.8,1-1.6,1.3-2.7c0.3-1,0.5-2.2,0.5-3.4s-0.2-2.4-0.5-3.4
				c-0.3-1-0.7-1.9-1.3-2.7c-0.6-0.7-1.2-1.3-2-1.7c-0.8-0.4-1.6-0.6-2.6-0.6s-1.8,0.2-2.6,0.6c-0.8,0.4-1.5,1-2,1.7
				c-0.6,0.7-1,1.6-1.3,2.7C188.3,12.4,188.1,13.5,188.1,14.8z"/>
			<path class="st0" d="M194.5,23.8c-1.3,0-2.6-0.2-3.6-0.7c-1.1-0.4-2-1.1-2.8-1.9c-0.8-0.8-1.4-1.8-1.8-2.8
				c-0.4-1.1-0.7-2.3-0.7-3.6v0c0-1.3,0.2-2.5,0.7-3.6c0.4-1.1,1.1-2,1.8-2.8c0.8-0.8,1.7-1.4,2.8-1.9c1.1-0.4,2.3-0.7,3.6-0.7
				s2.6,0.2,3.6,0.7c1.1,0.4,2,1.1,2.8,1.9c0.8,0.8,1.4,1.8,1.8,2.8c0.4,1.1,0.7,2.3,0.7,3.6v0c0,1.3-0.2,2.5-0.7,3.6
				c-0.4,1.1-1.1,2.1-1.8,2.8c-0.8,0.8-1.7,1.4-2.8,1.9C197,23.6,195.8,23.8,194.5,23.8z M194.5,6c-1.3,0-2.5,0.2-3.6,0.6
				c-1.1,0.4-2,1-2.8,1.8s-1.4,1.7-1.8,2.8c-0.4,1.1-0.6,2.2-0.6,3.5v0c0,1.3,0.2,2.5,0.6,3.5c0.4,1.1,1,2,1.8,2.8
				c0.8,0.8,1.7,1.4,2.8,1.8c1.1,0.4,2.3,0.6,3.6,0.6c1.3,0,2.5-0.2,3.6-0.6c1.1-0.4,2-1,2.8-1.8c0.8-0.8,1.4-1.7,1.8-2.8
				c0.4-1.1,0.6-2.2,0.6-3.5v0c0-1.3-0.2-2.5-0.6-3.5c-0.4-1.1-1-2-1.8-2.8c-0.8-0.8-1.7-1.4-2.8-1.8C197,6.2,195.8,6,194.5,6z
				 M194.5,23.3c-1,0-1.9-0.2-2.6-0.6c-0.8-0.4-1.5-1-2-1.8c-0.6-0.8-1-1.7-1.3-2.7c-0.3-1-0.5-2.2-0.5-3.4c0-1.2,0.2-2.4,0.5-3.4
				c0.3-1,0.8-1.9,1.3-2.7c0.6-0.8,1.3-1.3,2-1.8c0.8-0.4,1.7-0.6,2.6-0.6c1,0,1.9,0.2,2.6,0.6c0.8,0.4,1.5,1,2,1.8
				c0.6,0.7,1,1.7,1.3,2.7c0.3,1,0.5,2.2,0.5,3.4c0,1.2-0.2,2.4-0.5,3.4c-0.3,1-0.8,1.9-1.3,2.7c-0.6,0.8-1.3,1.4-2,1.8
				C196.4,23.1,195.5,23.3,194.5,23.3z M194.5,6.5c-0.9,0-1.8,0.2-2.5,0.6c-0.8,0.4-1.4,1-2,1.7c-0.5,0.7-1,1.6-1.3,2.6
				c-0.3,1-0.5,2.1-0.5,3.4c0,1.2,0.2,2.4,0.5,3.4c0.3,1,0.7,1.9,1.3,2.6c0.5,0.7,1.2,1.3,2,1.7c0.8,0.4,1.6,0.6,2.5,0.6
				c0.9,0,1.8-0.2,2.5-0.6c0.8-0.4,1.4-1,2-1.7c0.5-0.7,1-1.6,1.3-2.6c0.3-1,0.5-2.1,0.5-3.4c0-1.2-0.2-2.3-0.5-3.4
				c-0.3-1-0.7-1.9-1.3-2.6c-0.5-0.7-1.2-1.3-2-1.7C196.3,6.7,195.4,6.5,194.5,6.5z"/>
		</g>
		<g>
			<path class="st0" d="M208.5,6.1c-0.2,0.1-0.3,0.3-0.4,0.6C208,6.9,208,7.4,208.3,8l4.3,12L217,6h0.2l5.6,14.2l3.4-10.3
				c0.3-0.8,0.4-1.5,0.5-2c0-0.5,0-0.8-0.1-1.1c-0.1-0.3-0.2-0.4-0.4-0.5c-0.1-0.1-0.3-0.2-0.4-0.2h3c-0.3,0.2-0.6,0.4-0.9,0.8
				c-0.3,0.3-0.6,1-0.9,1.9l-4.8,14.8h-0.4l-5.5-14l-4.4,14h-0.4l-5.3-14.7c-0.4-0.9-0.6-1.6-0.9-2s-0.5-0.6-0.7-0.7H208.5z"/>
			<path class="st0" d="M222.3,23.6h-0.5l0-0.1l-5.4-13.6l-4.3,13.7h-0.5l0-0.1l-5.3-14.7c-0.3-0.9-0.6-1.6-0.9-2
				c-0.2-0.4-0.4-0.6-0.6-0.7l-0.4-0.2h4.7l-0.3,0.2c-0.2,0.1-0.3,0.3-0.4,0.6c-0.1,0.2,0,0.6,0.2,1.2l4.2,11.7l4.3-13.7h0.4l0,0.1
				l5.5,13.9l3.3-10c0.3-0.8,0.4-1.5,0.5-1.9c0-0.5,0-0.8-0.1-1c-0.1-0.2-0.2-0.4-0.3-0.4c-0.1-0.1-0.3-0.2-0.4-0.2l-0.4-0.2h3.9
				L229,6.2c-0.3,0.2-0.6,0.4-0.9,0.7c-0.3,0.3-0.6,0.9-0.9,1.8L222.3,23.6z M222,23.4h0.2L227,8.6c0.3-0.9,0.6-1.6,0.9-1.9
				c0.2-0.2,0.4-0.4,0.6-0.6h-2.2c0.2,0.1,0.3,0.3,0.4,0.6c0.1,0.3,0.1,0.7,0.1,1.1c0,0.5-0.2,1.2-0.5,2l-3.5,10.7l-5.7-14.4h-0.1
				l-4.5,14.2L208.2,8c-0.2-0.6-0.3-1.1-0.2-1.4c0.1-0.2,0.2-0.3,0.3-0.5H205c0.1,0.1,0.3,0.3,0.4,0.6c0.3,0.4,0.6,1.1,0.9,2
				l5.3,14.7h0.2l4.5-14.2L222,23.4z"/>
		</g>
		<g>
			<path class="st0" d="M230.1,23.5c0.3-0.1,0.6-0.2,0.8-0.3c0.2-0.1,0.4-0.3,0.5-0.5c0.1-0.2,0.2-0.4,0.2-0.8
				c0-0.3,0.1-0.7,0.1-1.1V9.4c0-0.4,0-0.8,0-1.1c0-0.3-0.1-0.6-0.1-0.8s-0.1-0.5-0.3-0.7c-0.1-0.2-0.3-0.4-0.4-0.6l3.1-0.3v4.9
				c0.5-1.5,1.3-2.7,2.5-3.6c1.1-0.9,2.6-1.3,4.3-1.3c1,0,1.9,0.1,2.6,0.4c0.8,0.3,1.4,0.7,1.9,1.2c0.5,0.5,0.9,1.1,1.2,1.8
				c0.3,0.7,0.4,1.5,0.4,2.3v9.1c0,0.4,0,0.8,0.1,1.1c0,0.3,0.1,0.6,0.3,0.8c0.1,0.2,0.3,0.4,0.5,0.5c0.2,0.1,0.5,0.2,0.8,0.3H243
				c0.3-0.1,0.6-0.2,0.8-0.3c0.2-0.1,0.4-0.3,0.5-0.5c0.1-0.2,0.2-0.4,0.2-0.8c0-0.3,0.1-0.7,0.1-1.1v-9.4c0-1.5-0.4-2.8-1.1-3.6
				s-1.8-1.3-3.2-1.3c-0.8,0-1.6,0.1-2.3,0.4c-0.7,0.3-1.4,0.7-2,1.3c-0.6,0.6-1,1.3-1.4,2.1c-0.4,0.8-0.6,1.8-0.6,2.9v7.6
				c0,0.4,0,0.8,0.1,1.1c0.1,0.3,0.1,0.6,0.3,0.8c0.1,0.2,0.3,0.4,0.5,0.5c0.2,0.1,0.5,0.2,0.8,0.3H230.1z"/>
			<path class="st0" d="M249.3,23.6h-7l0.7-0.2c0.3-0.1,0.6-0.2,0.8-0.3c0.2-0.1,0.3-0.3,0.5-0.4c0.1-0.2,0.2-0.4,0.2-0.7
				c0-0.3,0.1-0.7,0.1-1.1v-9.4c0-1.5-0.4-2.7-1.1-3.6c-0.7-0.8-1.8-1.3-3.2-1.3c-0.8,0-1.5,0.1-2.3,0.4c-0.7,0.3-1.4,0.7-1.9,1.3
				c-0.6,0.6-1,1.3-1.4,2.1c-0.4,0.8-0.6,1.8-0.6,2.9l0,7.6c0,0.4,0,0.8,0.1,1.1c0,0.3,0.1,0.5,0.2,0.7c0.1,0.2,0.3,0.3,0.5,0.5
				c0.2,0.1,0.5,0.2,0.7,0.3l0.7,0.2h-7l0.7-0.2c0.3-0.1,0.6-0.2,0.8-0.3c0.2-0.1,0.3-0.3,0.5-0.4c0.1-0.2,0.2-0.4,0.2-0.7
				c0-0.3,0.1-0.7,0.1-1.1V9.4c0-0.4,0-0.8,0-1.1c0-0.3-0.1-0.6-0.1-0.8c-0.1-0.2-0.1-0.5-0.3-0.7c-0.1-0.2-0.2-0.4-0.4-0.6
				l-0.1-0.2l3.5-0.3v4.4c0.5-1.2,1.3-2.3,2.3-3c1.1-0.9,2.6-1.3,4.4-1.3c1,0,1.9,0.1,2.7,0.4c0.8,0.3,1.4,0.7,2,1.2
				c0.5,0.5,1,1.2,1.2,1.9c0.3,0.7,0.4,1.5,0.4,2.4v9.1c0,0.4,0,0.8,0.1,1.1c0,0.3,0.1,0.5,0.2,0.7c0.1,0.2,0.3,0.3,0.5,0.5
				c0.2,0.1,0.5,0.2,0.7,0.3L249.3,23.6z M243.7,23.4h4.2c-0.1,0-0.2-0.1-0.2-0.1c-0.2-0.1-0.4-0.3-0.5-0.5
				c-0.1-0.2-0.2-0.5-0.3-0.8c-0.1-0.3-0.1-0.7-0.1-1.1v-9.1c0-0.8-0.1-1.6-0.4-2.3c-0.3-0.7-0.7-1.3-1.2-1.8
				c-0.5-0.5-1.1-0.9-1.9-1.2c-0.7-0.3-1.6-0.4-2.6-0.4c-1.7,0-3.1,0.4-4.3,1.3c-1.1,0.9-1.9,2-2.4,3.5l-0.2,0.7V6L231,6.3
				c0.1,0.2,0.2,0.3,0.3,0.5c0.1,0.2,0.2,0.5,0.3,0.7c0.1,0.2,0.1,0.5,0.1,0.9c0,0.3,0,0.7,0,1.1v11.4c0,0.4,0,0.8-0.1,1.1
				c0,0.3-0.1,0.6-0.3,0.8c-0.1,0.2-0.3,0.4-0.5,0.5c-0.1,0-0.1,0.1-0.2,0.1h4.2c-0.1,0-0.2-0.1-0.2-0.1c-0.2-0.1-0.4-0.3-0.5-0.5
				c-0.1-0.2-0.2-0.5-0.3-0.8c-0.1-0.3-0.1-0.7-0.1-1.1v-7.6c0.1-1.1,0.3-2.1,0.6-2.9c0.4-0.9,0.8-1.6,1.4-2.2c0.6-0.6,1.3-1,2-1.3
				c0.8-0.3,1.5-0.5,2.4-0.5c1.5,0,2.6,0.5,3.3,1.4c0.8,0.9,1.1,2.1,1.1,3.7v9.4c0,0.4,0,0.8-0.1,1.1c0,0.3-0.1,0.6-0.3,0.8
				c-0.1,0.2-0.3,0.4-0.5,0.5C243.8,23.3,243.8,23.4,243.7,23.4z"/>
		</g>
	</g>
</g>
</svg>
