<?xml version="1.0" encoding="utf-8"?>
<!-- Generator: Adobe Illustrator 25.4.1, SVG Export Plug-In . SVG Version: 6.00 Build 0)  -->
<svg version="1.1" id="レイヤー_1" xmlns="http://www.w3.org/2000/svg" xmlns:xlink="http://www.w3.org/1999/xlink" x="0px"
	 y="0px" viewBox="0 0 280 29" style="enable-background:new 0 0 280 29;" xml:space="preserve">
<style type="text/css">
	.st0{fill:#635444;}
</style>
<g>
	<g>
		<path class="st0" d="M13.2,12.8c0-1.7,0.2-3.1,0.6-4.5c0.4-1.3,0.9-2.5,1.6-3.4c0.7-0.9,1.5-1.7,2.5-2.2c1-0.5,2-0.8,3.2-0.8
			c1.2,0,2.3,0.3,3.2,0.8c1,0.5,1.8,1.3,2.5,2.2c0.7,0.9,1.2,2.1,1.6,3.4c0.4,1.3,0.6,2.8,0.6,4.5c0,1.6-0.2,3.1-0.6,4.5
			c-0.4,1.4-0.9,2.5-1.6,3.5c-0.7,0.9-1.5,1.7-2.5,2.2c-1,0.5-2.1,0.8-3.2,0.8c-1.2,0-2.2-0.3-3.2-0.8c-1-0.5-1.8-1.3-2.5-2.2
			c-0.7-0.9-1.2-2.1-1.6-3.5C13.4,15.9,13.2,14.4,13.2,12.8z M15.9,12.8c0,3.3,0.4,5.8,1.3,7.7s2.2,2.8,3.9,2.8c1.7,0,3-0.9,3.9-2.8
			c0.9-1.8,1.3-4.4,1.3-7.7S25.9,6.9,25,5.1c-0.9-1.8-2.2-2.8-3.9-2.8c-1.7,0-3,0.9-3.9,2.8C16.3,6.9,15.9,9.5,15.9,12.8z"/>
		<path class="st0" d="M21.1,23.8c-1.2,0-2.3-0.3-3.3-0.8c-1-0.5-1.8-1.3-2.5-2.2c-0.7-1-1.2-2.1-1.6-3.5c-0.4-1.4-0.6-2.9-0.6-4.5
			c0-1.7,0.2-3.2,0.6-4.5c0.4-1.3,0.9-2.5,1.6-3.5c0.7-1,1.6-1.7,2.5-2.2c1-0.5,2.1-0.8,3.3-0.8c1.2,0,2.3,0.3,3.3,0.8
			c1,0.5,1.8,1.3,2.5,2.2c0.7,1,1.2,2.1,1.6,3.5c0.4,1.3,0.6,2.9,0.6,4.5c0,1.6-0.2,3.1-0.6,4.5c-0.4,1.4-0.9,2.5-1.6,3.5
			c-0.7,1-1.5,1.7-2.5,2.2C23.4,23.6,22.3,23.8,21.1,23.8z M21.1,2c-1.2,0-2.2,0.3-3.2,0.8C17,3.3,16.2,4,15.5,4.9
			c-0.7,0.9-1.2,2.1-1.6,3.4c-0.4,1.3-0.6,2.8-0.6,4.5c0,1.6,0.2,3.1,0.6,4.4c0.4,1.3,0.9,2.5,1.6,3.4c0.7,0.9,1.5,1.7,2.5,2.2
			c0.9,0.5,2,0.8,3.2,0.8c1.2,0,2.2-0.3,3.2-0.8c1-0.5,1.8-1.2,2.5-2.2c0.7-0.9,1.2-2.1,1.6-3.4c0.4-1.3,0.6-2.8,0.6-4.4
			c0-1.6-0.2-3.1-0.6-4.5c-0.4-1.3-0.9-2.5-1.6-3.4c-0.7-0.9-1.5-1.7-2.5-2.2C23.3,2.2,22.3,2,21.1,2z M21.1,23.4
			c-1.7,0-3.1-1-4-2.8c-0.9-1.9-1.4-4.5-1.4-7.7c0-3.3,0.5-5.9,1.4-7.7c0.9-1.9,2.3-2.8,4-2.8c1.8,0,3.1,1,4,2.8
			c0.9,1.9,1.4,4.5,1.4,7.7c0,3.3-0.5,5.9-1.4,7.7C24.2,22.4,22.8,23.4,21.1,23.4z M21.1,2.4c-1.6,0-2.9,0.9-3.8,2.7
			C16.4,7,16,9.5,16,12.8c0,3.2,0.4,5.8,1.3,7.6c0.9,1.8,2.1,2.7,3.8,2.7c1.7,0,2.9-0.9,3.8-2.7c0.9-1.8,1.3-4.4,1.3-7.6
			c0-3.2-0.4-5.8-1.3-7.6C24,3.4,22.7,2.4,21.1,2.4z"/>
	</g>
	<g>
		<path class="st0" d="M32.6,23.3c1.8-1.8,3.3-3.4,4.7-4.9c1.3-1.5,2.4-2.9,3.2-4.2c0.8-1.3,1.5-2.5,1.9-3.6
			c0.4-1.1,0.6-2.2,0.6-3.3c0-1.6-0.4-2.8-1.1-3.6c-0.7-0.9-1.6-1.3-2.7-1.3c-0.5,0-1,0.1-1.6,0.3c-0.6,0.2-1.1,0.6-1.7,1.2
			c-0.5,0.6-1.1,1.3-1.5,2.3s-0.9,2.2-1.2,3.7l0.3-6c0.9-0.6,1.9-1.1,2.8-1.4c0.9-0.3,2-0.5,3.1-0.5c2,0,3.5,0.4,4.6,1.3
			C45,4,45.6,5.1,45.6,6.4c0,0.9-0.2,1.9-0.7,2.9c-0.5,1-1.2,2.2-2.1,3.4c-0.9,1.2-2,2.6-3.4,4c-1.3,1.5-2.9,3-4.6,4.8h6.7
			c0.8,0,1.4,0,2-0.1c0.5-0.1,1-0.2,1.3-0.4c0.4-0.2,0.7-0.5,0.9-0.8c0.2-0.4,0.5-0.8,0.7-1.4l-0.2,4.6H32.6L32.6,23.3z"/>
		<path class="st0" d="M46.3,23.7H32.5l-0.1-0.4l0,0c1.8-1.8,3.3-3.4,4.7-4.9c1.3-1.5,2.4-2.9,3.2-4.1c0.8-1.3,1.4-2.5,1.8-3.6
			c0.4-1.1,0.6-2.2,0.6-3.3c0-1.5-0.3-2.7-1-3.6c-0.7-0.8-1.6-1.2-2.6-1.2c-0.5,0-1,0.1-1.5,0.3C37.1,3,36.5,3.4,36,3.9
			c-0.5,0.5-1,1.3-1.5,2.2c-0.5,0.9-0.9,2.2-1.2,3.6l-0.2,0l0.3-6.1l0.1,0c0.9-0.6,1.9-1.1,2.8-1.4c0.9-0.3,2-0.5,3.2-0.5
			c2,0,3.5,0.4,4.6,1.3c1.1,0.9,1.7,2,1.7,3.4c0,0.9-0.2,1.9-0.7,2.9c-0.5,1-1.2,2.2-2.1,3.4c-0.9,1.2-2.1,2.6-3.4,4
			c-1.3,1.4-2.8,2.9-4.4,4.6h6.4c0.8,0,1.4,0,2-0.1c0.5-0.1,0.9-0.2,1.3-0.4c0.3-0.2,0.6-0.4,0.9-0.8c0.2-0.3,0.4-0.8,0.7-1.4
			l0.3-0.7L46.3,23.7z M32.7,23.4h13.3l0.1-3.8c-0.1,0.3-0.3,0.6-0.4,0.8c-0.2,0.4-0.6,0.6-0.9,0.8c-0.4,0.2-0.8,0.3-1.4,0.4
			c-0.5,0.1-1.2,0.1-2,0.1h-7l0.2-0.2c1.7-1.7,3.3-3.3,4.6-4.8c1.3-1.4,2.4-2.8,3.4-4c0.9-1.2,1.6-2.4,2.1-3.4c0.5-1,0.7-2,0.7-2.8
			c0-1.3-0.5-2.4-1.6-3.2c-1-0.8-2.6-1.2-4.5-1.2c-1.1,0-2.2,0.2-3.1,0.5c-0.9,0.3-1.8,0.7-2.7,1.3l-0.2,4.8c0.3-1,0.6-1.8,0.9-2.5
			c0.5-1,1-1.7,1.6-2.3c0.6-0.6,1.1-1,1.7-1.2c0.6-0.2,1.1-0.3,1.6-0.3c1.1,0,2.1,0.4,2.8,1.3c0.7,0.9,1.1,2.1,1.1,3.7
			c0,1.1-0.2,2.2-0.6,3.4c-0.4,1.1-1,2.4-1.9,3.7c-0.8,1.3-1.9,2.7-3.2,4.2C36.1,19.9,34.5,21.6,32.7,23.4L32.7,23.4z"/>
	</g>
	<g>
		<path class="st0" d="M65.2,2.1c-0.3,0.1-0.6,0.2-0.8,0.4C64.1,2.5,64,2.7,63.9,3c-0.1,0.3-0.2,0.6-0.3,1c-0.1,0.4-0.1,1-0.1,1.7
			v14.2c0,0.7,0,1.2,0.1,1.7c0.1,0.4,0.1,0.8,0.3,1c0.1,0.3,0.3,0.5,0.5,0.6c0.2,0.1,0.5,0.3,0.8,0.4h-5.7c0.3-0.1,0.6-0.2,0.8-0.4
			c0.2-0.1,0.4-0.3,0.5-0.6c0.1-0.3,0.2-0.6,0.3-1c0.1-0.4,0.1-1,0.1-1.7V5.7c0-0.7,0-1.2-0.1-1.7C61,3.6,61,3.3,60.8,3
			c-0.1-0.3-0.3-0.5-0.5-0.6c-0.2-0.1-0.5-0.3-0.8-0.3H65.2z"/>
		<path class="st0" d="M65.9,23.7h-7.2l0.7-0.2c0.3-0.1,0.6-0.2,0.8-0.3c0.2-0.1,0.4-0.3,0.5-0.5c0.1-0.2,0.2-0.6,0.3-1
			c0.1-0.4,0.1-1,0.1-1.7V5.7C61,5,61,4.5,61,4c0-0.4-0.1-0.8-0.3-1c-0.1-0.2-0.3-0.4-0.5-0.6c-0.2-0.1-0.5-0.2-0.8-0.3l-0.9-0.2
			h7.4l-0.7,0.2c-0.3,0.1-0.6,0.2-0.8,0.3c-0.2,0.1-0.3,0.3-0.5,0.6c-0.1,0.3-0.2,0.6-0.3,1c-0.1,0.4-0.1,1-0.1,1.6v14.2
			c0,0.7,0,1.2,0.1,1.6c0,0.4,0.1,0.7,0.3,1c0.1,0.2,0.3,0.4,0.5,0.6c0.2,0.1,0.5,0.3,0.8,0.4L65.9,23.7z M60.1,23.4h4.4
			c-0.1,0-0.2-0.1-0.3-0.2c-0.2-0.2-0.4-0.4-0.5-0.6c-0.1-0.3-0.2-0.6-0.3-1.1c-0.1-0.4-0.1-1-0.1-1.7V5.7c0-0.7,0-1.2,0.1-1.7
			c0.1-0.4,0.1-0.8,0.3-1.1c0.1-0.3,0.3-0.5,0.5-0.7c0.1,0,0.2-0.1,0.2-0.1h-4.4c0.1,0,0.1,0.1,0.2,0.1c0.2,0.2,0.4,0.4,0.6,0.7
			c0.1,0.3,0.2,0.6,0.3,1.1c0.1,0.4,0.1,1,0.1,1.7v14.2c0,0.7,0,1.2-0.1,1.7c-0.1,0.4-0.1,0.8-0.3,1.1c-0.1,0.3-0.3,0.5-0.6,0.6
			C60.3,23.4,60.2,23.4,60.1,23.4z"/>
	</g>
	<g>
		<path class="st0" d="M68.1,23.6c0.3-0.1,0.6-0.2,0.8-0.3c0.2-0.1,0.4-0.3,0.5-0.5c0.1-0.2,0.2-0.4,0.2-0.8c0-0.3,0.1-0.7,0.1-1.1
			V9.4c0-0.4,0-0.8,0-1.1c0-0.3-0.1-0.6-0.1-0.9c-0.1-0.2-0.1-0.5-0.3-0.7c-0.1-0.2-0.3-0.4-0.4-0.6L72,5.9v4.9
			c0.5-1.5,1.3-2.7,2.5-3.6s2.6-1.3,4.3-1.3c1,0,1.9,0.1,2.6,0.4c0.8,0.3,1.4,0.7,1.9,1.2s0.9,1.1,1.2,1.8s0.4,1.5,0.4,2.3v9.2
			c0,0.4,0,0.8,0.1,1.1c0.1,0.3,0.1,0.6,0.3,0.8c0.1,0.2,0.3,0.4,0.5,0.5c0.2,0.1,0.5,0.2,0.8,0.3h-5.5c0.3-0.1,0.6-0.2,0.8-0.3
			c0.2-0.1,0.4-0.3,0.5-0.5c0.1-0.2,0.2-0.4,0.2-0.8c0-0.3,0.1-0.7,0.1-1.1v-9.5c0-1.5-0.4-2.8-1.1-3.6c-0.7-0.9-1.8-1.3-3.3-1.3
			c-0.8,0-1.6,0.1-2.3,0.4c-0.7,0.3-1.4,0.7-2,1.3c-0.6,0.6-1,1.3-1.4,2.1c-0.4,0.8-0.6,1.8-0.6,2.9v7.6c0,0.4,0,0.8,0.1,1.1
			c0.1,0.3,0.1,0.6,0.3,0.8c0.1,0.2,0.3,0.4,0.5,0.5c0.2,0.1,0.5,0.2,0.8,0.3H68.1z"/>
		<path class="st0" d="M87.3,23.7h-7l0.7-0.2c0.3-0.1,0.6-0.2,0.8-0.3c0.2-0.1,0.3-0.3,0.5-0.4c0.1-0.2,0.2-0.4,0.2-0.7
			c0-0.3,0.1-0.7,0.1-1.1v-9.5c0-1.5-0.4-2.7-1.1-3.6c-0.7-0.8-1.8-1.3-3.2-1.3c-0.8,0-1.5,0.1-2.3,0.4c-0.7,0.3-1.4,0.7-1.9,1.3
			c-0.6,0.6-1,1.3-1.4,2.1c-0.4,0.8-0.6,1.8-0.6,2.9l0,7.6c0,0.4,0,0.8,0.1,1.1c0,0.3,0.1,0.5,0.2,0.7c0.1,0.2,0.3,0.3,0.5,0.5
			c0.2,0.1,0.5,0.2,0.7,0.3l0.7,0.2h-7l0.7-0.2c0.3-0.1,0.6-0.2,0.8-0.3c0.2-0.1,0.3-0.3,0.5-0.4c0.1-0.2,0.2-0.4,0.2-0.7
			c0-0.3,0.1-0.7,0.1-1.1V9.4c0-0.4,0-0.8,0-1.1c0-0.3-0.1-0.6-0.1-0.8c-0.1-0.2-0.1-0.5-0.3-0.7c-0.1-0.2-0.2-0.4-0.4-0.6l-0.1-0.2
			l3.5-0.3v4.4c0.5-1.2,1.3-2.3,2.3-3c1.2-0.9,2.6-1.3,4.4-1.3c1,0,1.9,0.1,2.7,0.4c0.8,0.3,1.4,0.7,2,1.2c0.5,0.5,1,1.2,1.2,1.9
			c0.3,0.7,0.4,1.5,0.4,2.4v9.2c0,0.4,0,0.8,0.1,1.1c0,0.3,0.1,0.5,0.2,0.7c0.1,0.2,0.3,0.3,0.5,0.5c0.2,0.1,0.5,0.2,0.8,0.3
			L87.3,23.7z M81.7,23.4H86c-0.1,0-0.2-0.1-0.2-0.1c-0.2-0.1-0.4-0.3-0.5-0.5c-0.1-0.2-0.2-0.5-0.3-0.8c-0.1-0.3-0.1-0.7-0.1-1.1
			v-9.2c0-0.8-0.1-1.6-0.4-2.3c-0.3-0.7-0.7-1.3-1.2-1.8c-0.5-0.5-1.1-0.9-1.9-1.2C80.6,6.2,79.7,6,78.8,6c-1.7,0-3.2,0.4-4.3,1.3
			c-1.1,0.9-1.9,2-2.4,3.5l-0.2,0.7V6L69,6.3c0.1,0.2,0.2,0.3,0.3,0.5c0.1,0.2,0.2,0.5,0.3,0.7c0.1,0.3,0.1,0.5,0.1,0.9
			c0,0.3,0,0.7,0,1.1v11.4c0,0.4,0,0.8-0.1,1.1c0,0.3-0.1,0.6-0.3,0.8c-0.1,0.2-0.3,0.4-0.5,0.5c-0.1,0-0.1,0.1-0.2,0.1H73
			c-0.1,0-0.2-0.1-0.2-0.1c-0.2-0.1-0.4-0.3-0.5-0.5c-0.1-0.2-0.2-0.5-0.3-0.8c-0.1-0.3-0.1-0.7-0.1-1.1v-7.6c0.1-1.1,0.3-2.1,0.6-3
			c0.4-0.9,0.8-1.6,1.4-2.2c0.6-0.6,1.3-1,2-1.3c0.8-0.3,1.5-0.5,2.4-0.5c1.5,0,2.6,0.5,3.3,1.4c0.8,0.9,1.1,2.1,1.1,3.7v9.5
			c0,0.4,0,0.8-0.1,1.1c0,0.3-0.1,0.6-0.3,0.8c-0.1,0.2-0.3,0.4-0.5,0.5C81.9,23.4,81.8,23.4,81.7,23.4z"/>
	</g>
	<g>
		<path class="st0" d="M88.9,23.6c0.3-0.1,0.6-0.2,0.8-0.3c0.2-0.1,0.4-0.3,0.5-0.5c0.1-0.2,0.2-0.4,0.2-0.8c0-0.3,0.1-0.7,0.1-1.1
			V9.4c0-0.4,0-0.8,0-1.1c0-0.3-0.1-0.6-0.1-0.9C90.2,7.2,90.1,7,90,6.8c-0.1-0.2-0.3-0.4-0.4-0.6l3.2-0.3v4.9
			c0.5-1.5,1.3-2.7,2.5-3.6c1.1-0.9,2.6-1.3,4.3-1.3c1,0,1.9,0.1,2.6,0.4c0.8,0.3,1.4,0.7,1.9,1.2s0.9,1.1,1.2,1.8
			c0.3,0.7,0.4,1.5,0.4,2.3v9.2c0,0.4,0,0.8,0.1,1.1c0.1,0.3,0.1,0.6,0.3,0.8c0.1,0.2,0.3,0.4,0.5,0.5c0.2,0.1,0.5,0.2,0.8,0.3h-5.5
			c0.3-0.1,0.6-0.2,0.8-0.3c0.2-0.1,0.4-0.3,0.5-0.5c0.1-0.2,0.2-0.4,0.2-0.8c0-0.3,0.1-0.7,0.1-1.1v-9.5c0-1.5-0.4-2.8-1.1-3.6
			c-0.7-0.9-1.8-1.3-3.3-1.3c-0.8,0-1.6,0.1-2.3,0.4c-0.7,0.3-1.4,0.7-2,1.3c-0.6,0.6-1,1.3-1.4,2.1c-0.4,0.8-0.6,1.8-0.6,2.9v7.6
			c0,0.4,0,0.8,0.1,1.1c0.1,0.3,0.1,0.6,0.3,0.8c0.1,0.2,0.3,0.4,0.5,0.5c0.2,0.1,0.5,0.2,0.8,0.3H88.9z"/>
		<path class="st0" d="M108.1,23.7h-7l0.7-0.2c0.3-0.1,0.6-0.2,0.8-0.3c0.2-0.1,0.3-0.3,0.5-0.4c0.1-0.2,0.2-0.4,0.2-0.7
			c0-0.3,0.1-0.7,0.1-1.1v-9.5c0-1.5-0.4-2.7-1.1-3.6c-0.7-0.8-1.8-1.3-3.2-1.3c-0.8,0-1.5,0.1-2.3,0.4c-0.7,0.3-1.4,0.7-1.9,1.3
			c-0.6,0.6-1,1.3-1.4,2.1c-0.4,0.8-0.6,1.8-0.6,2.9l0,7.6c0,0.4,0,0.8,0.1,1.1c0,0.3,0.1,0.5,0.2,0.7c0.1,0.2,0.3,0.3,0.5,0.5
			c0.2,0.1,0.4,0.2,0.7,0.3l0.7,0.2h-7l0.7-0.2c0.3-0.1,0.6-0.2,0.8-0.3c0.2-0.1,0.3-0.3,0.5-0.4c0.1-0.2,0.2-0.4,0.2-0.7
			c0-0.3,0.1-0.7,0.1-1.1V9.4c0-0.4,0-0.8,0-1.1c0-0.3-0.1-0.6-0.1-0.8C90.1,7.3,90,7,89.9,6.8c-0.1-0.2-0.2-0.4-0.4-0.6l-0.1-0.2
			l3.5-0.3v4.4c0.5-1.2,1.3-2.3,2.3-3c1.2-0.9,2.6-1.3,4.4-1.3c1,0,1.9,0.1,2.7,0.4c0.8,0.3,1.4,0.7,2,1.2c0.5,0.5,1,1.2,1.2,1.9
			c0.3,0.7,0.4,1.5,0.4,2.4v9.2c0,0.4,0,0.8,0.1,1.1c0,0.3,0.1,0.5,0.2,0.7c0.1,0.2,0.3,0.3,0.5,0.5c0.2,0.1,0.5,0.2,0.8,0.3
			L108.1,23.7z M102.5,23.4h4.3c-0.1,0-0.2-0.1-0.2-0.1c-0.2-0.1-0.4-0.3-0.5-0.5c-0.1-0.2-0.2-0.5-0.3-0.8
			c-0.1-0.3-0.1-0.7-0.1-1.1v-9.2c0-0.8-0.1-1.6-0.4-2.3c-0.3-0.7-0.7-1.3-1.2-1.8c-0.5-0.5-1.1-0.9-1.9-1.2
			c-0.7-0.3-1.6-0.4-2.6-0.4c-1.7,0-3.2,0.4-4.3,1.3c-1.1,0.9-1.9,2-2.4,3.5l-0.2,0.7V6l-2.8,0.2c0.1,0.2,0.2,0.3,0.3,0.5
			c0.1,0.2,0.2,0.5,0.3,0.7c0.1,0.3,0.1,0.5,0.1,0.9c0,0.3,0,0.7,0,1.1v11.4c0,0.4,0,0.8-0.1,1.1c0,0.3-0.1,0.6-0.3,0.8
			c-0.1,0.2-0.3,0.4-0.5,0.5c-0.1,0-0.1,0.1-0.2,0.1h4.3c-0.1,0-0.2-0.1-0.2-0.1c-0.2-0.1-0.4-0.3-0.5-0.5c-0.1-0.2-0.2-0.5-0.3-0.8
			c-0.1-0.3-0.1-0.7-0.1-1.1v-7.6c0.1-1.1,0.3-2.1,0.6-3c0.4-0.9,0.8-1.6,1.4-2.2c0.6-0.6,1.3-1,2-1.3c0.8-0.3,1.5-0.5,2.4-0.5
			c1.5,0,2.6,0.5,3.3,1.4c0.8,0.9,1.1,2.1,1.1,3.7v9.5c0,0.4,0,0.8-0.1,1.1c0,0.3-0.1,0.6-0.3,0.8c-0.1,0.2-0.3,0.4-0.5,0.5
			C102.7,23.4,102.6,23.4,102.5,23.4z"/>
	</g>
	<g>
		<path class="st0" d="M118.6,5.9c1.3,0,2.5,0.2,3.6,0.6c1.1,0.4,2,1,2.8,1.8c0.8,0.8,1.4,1.7,1.8,2.8c0.4,1.1,0.6,2.3,0.6,3.6v0
			c0,1.3-0.2,2.5-0.6,3.6c-0.4,1.1-1,2-1.8,2.8c-0.8,0.8-1.7,1.4-2.8,1.8c-1.1,0.4-2.3,0.6-3.6,0.6s-2.5-0.2-3.6-0.6
			c-1.1-0.4-2-1-2.8-1.8c-0.8-0.8-1.4-1.7-1.8-2.8c-0.4-1.1-0.6-2.3-0.6-3.6v0c0-1.3,0.2-2.5,0.6-3.6c0.4-1.1,1-2,1.8-2.8
			c0.8-0.8,1.7-1.4,2.8-1.8S117.3,5.9,118.6,5.9z M112.3,14.8c0,1.2,0.2,2.4,0.5,3.4c0.3,1,0.7,1.9,1.3,2.7c0.6,0.8,1.2,1.3,2,1.7
			c0.8,0.4,1.7,0.6,2.6,0.6s1.8-0.2,2.6-0.6c0.8-0.4,1.5-1,2-1.7c0.6-0.8,1-1.6,1.3-2.7c0.3-1,0.5-2.2,0.5-3.4
			c0-1.2-0.2-2.4-0.5-3.4c-0.3-1-0.7-1.9-1.3-2.7c-0.6-0.7-1.2-1.3-2-1.7c-0.8-0.4-1.7-0.6-2.6-0.6S116.8,6.6,116,7
			c-0.8,0.4-1.5,1-2,1.7c-0.6,0.7-1,1.6-1.3,2.7C112.4,12.4,112.3,13.6,112.3,14.8z"/>
		<path class="st0" d="M118.6,23.8c-1.3,0-2.6-0.2-3.6-0.7c-1.1-0.4-2-1.1-2.8-1.9c-0.8-0.8-1.4-1.8-1.9-2.9
			c-0.4-1.1-0.7-2.3-0.7-3.6v0c0-1.3,0.2-2.5,0.7-3.6c0.4-1.1,1.1-2.1,1.9-2.9c0.8-0.8,1.7-1.4,2.8-1.9c1.1-0.4,2.3-0.7,3.6-0.7
			c1.3,0,2.6,0.2,3.6,0.7c1.1,0.4,2,1.1,2.8,1.9c0.8,0.8,1.4,1.8,1.9,2.9c0.4,1.1,0.7,2.3,0.7,3.6v0c0,1.3-0.2,2.5-0.7,3.6
			c-0.4,1.1-1.1,2.1-1.9,2.9c-0.8,0.8-1.7,1.4-2.8,1.9C121.2,23.6,120,23.8,118.6,23.8z M118.6,6c-1.3,0-2.5,0.2-3.6,0.6
			c-1.1,0.4-2,1-2.8,1.8c-0.8,0.8-1.4,1.7-1.8,2.8c-0.4,1.1-0.6,2.3-0.6,3.5v0c0,1.3,0.2,2.5,0.6,3.5c0.4,1.1,1,2,1.8,2.8
			c0.8,0.8,1.7,1.4,2.8,1.8c1.1,0.4,2.3,0.6,3.6,0.6c1.3,0,2.5-0.2,3.6-0.6c1.1-0.4,2-1,2.8-1.8c0.8-0.8,1.4-1.7,1.8-2.8
			c0.4-1.1,0.6-2.2,0.6-3.5v0c0-1.3-0.2-2.5-0.6-3.5c-0.4-1.1-1-2-1.8-2.8c-0.8-0.8-1.7-1.4-2.8-1.8C121.1,6.3,119.9,6,118.6,6z
			 M118.6,23.4c-1,0-1.9-0.2-2.7-0.6c-0.8-0.4-1.5-1-2.1-1.8c-0.6-0.8-1-1.7-1.3-2.7c-0.3-1-0.5-2.2-0.5-3.4c0-1.2,0.2-2.4,0.5-3.4
			c0.3-1,0.8-1.9,1.3-2.7c0.6-0.8,1.3-1.3,2.1-1.8c0.8-0.4,1.7-0.6,2.7-0.6c1,0,1.9,0.2,2.7,0.6c0.8,0.4,1.5,1,2.1,1.8
			c0.6,0.8,1,1.7,1.3,2.7c0.3,1,0.5,2.2,0.5,3.4c0,1.2-0.2,2.4-0.5,3.4c-0.3,1-0.8,2-1.3,2.7c-0.6,0.8-1.3,1.4-2.1,1.8
			C120.5,23.2,119.6,23.4,118.6,23.4z M118.6,6.5c-0.9,0-1.8,0.2-2.5,0.6c-0.8,0.4-1.4,1-2,1.7c-0.5,0.7-1,1.6-1.3,2.6
			c-0.3,1-0.5,2.2-0.5,3.4c0,1.2,0.2,2.4,0.5,3.4c0.3,1,0.7,1.9,1.3,2.6c0.5,0.7,1.2,1.3,2,1.7c0.8,0.4,1.6,0.6,2.5,0.6
			c0.9,0,1.8-0.2,2.5-0.6c0.8-0.4,1.4-1,2-1.7c0.5-0.7,1-1.6,1.3-2.6c0.3-1,0.5-2.1,0.5-3.4c0-1.2-0.2-2.4-0.5-3.4
			c-0.3-1-0.7-1.9-1.3-2.6c-0.5-0.7-1.2-1.3-2-1.7C120.4,6.7,119.6,6.5,118.6,6.5z"/>
	</g>
	<g>
		<path class="st0" d="M138.7,5.9c1.3,0,2.6,0.2,3.8,0.7c1.2,0.5,2.2,1,3.1,1.7l-1,4.9c-0.1-1.3-0.4-2.4-0.7-3.3
			c-0.4-0.9-0.8-1.6-1.3-2.1c-0.5-0.5-1.1-0.9-1.7-1.1c-0.6-0.2-1.3-0.3-1.9-0.3c-0.9,0-1.7,0.2-2.4,0.6c-0.7,0.4-1.4,1-1.9,1.7
			c-0.5,0.7-0.9,1.6-1.2,2.7c-0.3,1-0.4,2.2-0.4,3.4c0,1.3,0.2,2.4,0.5,3.5c0.3,1.1,0.7,1.9,1.3,2.7c0.6,0.7,1.2,1.3,2,1.7
			c0.8,0.4,1.6,0.6,2.5,0.6c1.6,0,2.9-0.6,4.1-1.8s2.1-2.9,2.6-5.2l-0.2,5.2c-0.5,0.4-1,0.8-1.6,1.1c-0.6,0.3-1.1,0.5-1.7,0.7
			c-0.6,0.2-1.2,0.3-1.7,0.4c-0.6,0.1-1.1,0.1-1.6,0.1c-1.3,0-2.4-0.2-3.5-0.6c-1.1-0.4-2-1-2.8-1.8c-0.8-0.8-1.4-1.7-1.8-2.8
			c-0.4-1.1-0.7-2.3-0.7-3.7c0-1.3,0.2-2.5,0.6-3.6c0.4-1.1,1-2,1.7-2.8c0.7-0.8,1.6-1.4,2.7-1.8S137.4,5.9,138.7,5.9z"/>
		<path class="st0" d="M138.9,23.8c-1.3,0-2.5-0.2-3.5-0.6c-1.1-0.4-2-1-2.8-1.8c-0.8-0.8-1.4-1.8-1.9-2.9c-0.4-1.1-0.7-2.4-0.7-3.7
			c0-1.3,0.2-2.5,0.6-3.6c0.4-1.1,1-2,1.8-2.8c0.8-0.8,1.7-1.4,2.7-1.9c1.1-0.4,2.2-0.7,3.5-0.7c1.4,0,2.6,0.2,3.8,0.7
			c1.2,0.5,2.2,1.1,3.1,1.8l0.1,0l0,0.1l-1.2,5.7l-0.1-0.8c-0.1-1.3-0.4-2.4-0.7-3.2c-0.4-0.9-0.8-1.6-1.3-2.1
			c-0.5-0.5-1.1-0.9-1.7-1.1c-0.6-0.2-1.3-0.3-1.9-0.3c-0.9,0-1.7,0.2-2.4,0.6c-0.7,0.4-1.3,1-1.8,1.7c-0.5,0.7-0.9,1.6-1.2,2.6
			c-0.3,1-0.4,2.2-0.4,3.4c0,1.3,0.2,2.4,0.5,3.5c0.3,1,0.7,1.9,1.3,2.7c0.5,0.7,1.2,1.3,1.9,1.7c0.7,0.4,1.6,0.6,2.5,0.6
			c1.5,0,2.9-0.6,4-1.7c1.2-1.2,2-2.9,2.6-5.1l0.3-1.1l-0.3,6.3l0,0c-0.5,0.4-1,0.8-1.6,1.1c-0.6,0.3-1.2,0.5-1.7,0.7
			c-0.6,0.2-1.2,0.3-1.7,0.4C139.9,23.8,139.4,23.8,138.9,23.8z M138.7,6c-1.2,0-2.4,0.2-3.4,0.6c-1,0.4-1.9,1-2.6,1.8
			c-0.7,0.8-1.3,1.7-1.7,2.7c-0.4,1.1-0.6,2.2-0.6,3.5c0,1.3,0.2,2.6,0.7,3.7c0.4,1.1,1,2,1.8,2.8c0.8,0.8,1.7,1.4,2.7,1.8
			c1.1,0.4,2.2,0.6,3.5,0.6c0.5,0,1,0,1.5-0.1c0.6-0.1,1.1-0.2,1.7-0.4c0.6-0.2,1.1-0.4,1.7-0.7c0.5-0.3,1-0.6,1.5-1l0.2-4.1
			c-0.6,1.8-1.4,3.2-2.4,4.2c-1.2,1.2-2.6,1.8-4.2,1.8c-0.9,0-1.8-0.2-2.6-0.6c-0.8-0.4-1.5-1-2-1.8c-0.6-0.7-1-1.7-1.3-2.7
			c-0.3-1.1-0.5-2.2-0.5-3.5c0-1.3,0.2-2.4,0.5-3.5c0.3-1,0.7-1.9,1.3-2.7c0.5-0.8,1.2-1.3,1.9-1.8c0.7-0.4,1.6-0.6,2.5-0.6
			c0.7,0,1.3,0.1,2,0.3c0.7,0.2,1.3,0.6,1.8,1.2c0.5,0.5,1,1.3,1.4,2.2c0.3,0.7,0.5,1.6,0.7,2.6l0.9-4.1c-0.9-0.7-1.9-1.2-3-1.7
			C141.2,6.3,140,6,138.7,6z"/>
	</g>
	<g>
		<path class="st0" d="M156.9,5.9c1.2,0,2.3,0.2,3.2,0.5c0.9,0.4,1.7,0.8,2.3,1.5c0.6,0.6,1,1.4,1.3,2.3c0.3,0.9,0.5,1.8,0.5,2.8
			h-13c0,0.3-0.1,0.6-0.1,0.9c0,0.3,0,0.6,0,1c0,1.2,0.2,2.3,0.5,3.3c0.3,1,0.8,1.9,1.3,2.6c0.6,0.7,1.2,1.3,2,1.7
			c0.8,0.4,1.6,0.6,2.6,0.6c0.8,0,1.6-0.1,2.2-0.4c0.7-0.3,1.3-0.7,1.8-1.3c0.6-0.6,1.1-1.2,1.5-2c0.4-0.8,0.8-1.6,1.2-2.6l-0.3,4.5
			c-0.9,0.8-1.9,1.3-3.1,1.7c-1.2,0.4-2.3,0.5-3.4,0.5c-1.3,0-2.5-0.2-3.6-0.6c-1.1-0.4-2-1-2.8-1.8c-0.8-0.8-1.4-1.7-1.8-2.8
			c-0.4-1.1-0.6-2.3-0.6-3.6c0-1.3,0.2-2.5,0.6-3.6c0.4-1.1,0.9-2,1.7-2.8c0.7-0.8,1.6-1.4,2.6-1.9C154.5,6.1,155.6,5.9,156.9,5.9z
			 M151.3,12.7h10.6c0-0.9-0.1-1.7-0.4-2.5c-0.2-0.8-0.5-1.4-1-2c-0.4-0.6-0.9-1-1.5-1.3c-0.6-0.3-1.3-0.5-2.1-0.5
			c-0.7,0-1.4,0.2-2,0.5c-0.6,0.3-1.2,0.7-1.7,1.3c-0.5,0.6-0.9,1.2-1.2,2C151.7,10.9,151.5,11.7,151.3,12.7z"/>
		<path class="st0" d="M157.5,23.8c-1.3,0-2.5-0.2-3.6-0.6c-1.1-0.4-2.1-1-2.9-1.8c-0.8-0.8-1.4-1.7-1.9-2.8
			c-0.4-1.1-0.7-2.3-0.7-3.7c0-1.3,0.2-2.5,0.6-3.6c0.4-1.1,1-2.1,1.7-2.9c0.7-0.8,1.6-1.5,2.7-1.9c1-0.4,2.2-0.7,3.5-0.7
			c1.2,0,2.3,0.2,3.3,0.5c0.9,0.4,1.7,0.9,2.3,1.5c0.6,0.6,1.1,1.4,1.4,2.3c0.3,0.9,0.5,1.8,0.5,2.9l0,0.1h-13
			c0,0.3-0.1,0.5-0.1,0.8c0,0.3,0,0.6,0,1c0,1.2,0.2,2.3,0.5,3.3c0.3,1,0.8,1.9,1.3,2.6c0.6,0.7,1.2,1.3,2,1.7
			c0.8,0.4,1.6,0.6,2.5,0.6c0.8,0,1.5-0.1,2.2-0.4c0.7-0.3,1.3-0.7,1.8-1.3c0.5-0.5,1-1.2,1.5-2c0.4-0.8,0.8-1.6,1.2-2.5l0.3-0.8
			l-0.3,5.4l0,0c-0.9,0.8-2,1.3-3.1,1.7C159.8,23.6,158.6,23.8,157.5,23.8z M156.9,6c-1.3,0-2.4,0.2-3.4,0.7c-1,0.4-1.9,1.1-2.6,1.8
			c-0.7,0.8-1.3,1.7-1.6,2.8c-0.4,1.1-0.6,2.3-0.6,3.6c0,1.3,0.2,2.5,0.6,3.6c0.4,1.1,1,2,1.8,2.7c0.8,0.7,1.7,1.3,2.8,1.8
			c1.1,0.4,2.3,0.6,3.5,0.6c1.1,0,2.2-0.2,3.3-0.5c1.1-0.3,2.1-0.9,3-1.6l0.2-3.7c-0.3,0.7-0.6,1.3-0.9,1.8c-0.4,0.8-1,1.5-1.5,2
			c-0.6,0.6-1.2,1-1.9,1.3c-0.7,0.3-1.5,0.5-2.3,0.5c-0.9,0-1.8-0.2-2.6-0.6c-0.8-0.4-1.5-1-2.1-1.8c-0.6-0.8-1-1.7-1.3-2.7
			c-0.3-1-0.5-2.1-0.5-3.3c0-0.3,0-0.7,0-1c0-0.3,0.1-0.7,0.1-1l0-0.1h13c0-1-0.2-1.9-0.5-2.7c-0.3-0.8-0.7-1.6-1.3-2.2
			c-0.6-0.6-1.3-1.1-2.2-1.5C159.2,6.2,158.2,6,156.9,6z M162,12.8h-10.8l0-0.1c0.1-0.9,0.4-1.8,0.7-2.6c0.3-0.8,0.7-1.5,1.2-2
			c0.5-0.6,1.1-1,1.7-1.3c0.6-0.3,1.3-0.5,2.1-0.5c0.8,0,1.5,0.2,2.1,0.5c0.6,0.3,1.2,0.8,1.6,1.4c0.4,0.6,0.7,1.3,1,2
			c0.2,0.8,0.4,1.6,0.4,2.5L162,12.8z M151.5,12.5h10.3c0-0.8-0.2-1.6-0.4-2.4c-0.2-0.7-0.5-1.4-0.9-2c-0.4-0.6-0.9-1-1.5-1.3
			c-0.6-0.3-1.3-0.5-2-0.5c-0.7,0-1.4,0.2-2,0.5c-0.6,0.3-1.1,0.7-1.6,1.3c-0.5,0.6-0.9,1.2-1.2,2C151.8,10.9,151.6,11.7,151.5,12.5
			z"/>
	</g>
	<g>
		<path class="st0" d="M167.2,23.6c0.3-0.1,0.6-0.2,0.8-0.3c0.2-0.1,0.4-0.3,0.5-0.5c0.1-0.2,0.2-0.4,0.2-0.8c0-0.3,0.1-0.7,0.1-1.1
			V9.4c0-0.4,0-0.8,0-1.1c0-0.3-0.1-0.6-0.1-0.9c-0.1-0.2-0.1-0.5-0.3-0.7c-0.1-0.2-0.3-0.4-0.4-0.6l3.2-0.3v4.9
			c0.5-1.5,1.3-2.7,2.5-3.6c1.1-0.9,2.6-1.3,4.3-1.3c1,0,1.9,0.1,2.6,0.4c0.8,0.3,1.4,0.7,1.9,1.2s0.9,1.1,1.2,1.8
			c0.3,0.7,0.4,1.5,0.4,2.3v9.2c0,0.4,0,0.8,0.1,1.1c0.1,0.3,0.1,0.6,0.3,0.8c0.1,0.2,0.3,0.4,0.5,0.5c0.2,0.1,0.5,0.2,0.8,0.3h-5.5
			c0.3-0.1,0.6-0.2,0.8-0.3c0.2-0.1,0.4-0.3,0.5-0.5c0.1-0.2,0.2-0.4,0.2-0.8c0-0.3,0.1-0.7,0.1-1.1v-9.5c0-1.5-0.4-2.8-1.1-3.6
			c-0.7-0.9-1.8-1.3-3.3-1.3c-0.8,0-1.6,0.1-2.3,0.4c-0.7,0.3-1.4,0.7-2,1.3c-0.6,0.6-1,1.3-1.4,2.1c-0.4,0.8-0.6,1.8-0.6,2.9v7.6
			c0,0.4,0,0.8,0.1,1.1c0.1,0.3,0.1,0.6,0.3,0.8c0.1,0.2,0.3,0.4,0.5,0.5c0.2,0.1,0.5,0.2,0.8,0.3H167.2z"/>
		<path class="st0" d="M186.4,23.7h-7l0.7-0.2c0.3-0.1,0.6-0.2,0.8-0.3c0.2-0.1,0.3-0.3,0.5-0.4c0.1-0.2,0.2-0.4,0.2-0.7
			c0-0.3,0.1-0.7,0.1-1.1v-9.5c0-1.5-0.4-2.7-1.1-3.6c-0.7-0.8-1.8-1.3-3.2-1.3c-0.8,0-1.5,0.1-2.3,0.4c-0.7,0.3-1.4,0.7-1.9,1.3
			c-0.6,0.6-1,1.3-1.4,2.1c-0.4,0.8-0.6,1.8-0.6,2.9l0,7.6c0,0.4,0,0.8,0.1,1.1c0,0.3,0.1,0.5,0.2,0.7c0.1,0.2,0.3,0.3,0.5,0.5
			c0.2,0.1,0.4,0.2,0.7,0.3l0.7,0.2h-7l0.7-0.2c0.3-0.1,0.6-0.2,0.8-0.3c0.2-0.1,0.3-0.3,0.5-0.4c0.1-0.2,0.2-0.4,0.2-0.7
			c0-0.3,0.1-0.7,0.1-1.1V9.4c0-0.4,0-0.8,0-1.1c0-0.3-0.1-0.6-0.1-0.8c-0.1-0.2-0.1-0.5-0.3-0.7c-0.1-0.2-0.2-0.4-0.4-0.6l-0.1-0.2
			l3.5-0.3v4.4c0.5-1.2,1.3-2.3,2.3-3c1.2-0.9,2.6-1.3,4.4-1.3c1,0,1.9,0.1,2.7,0.4c0.8,0.3,1.4,0.7,2,1.2c0.5,0.5,1,1.2,1.2,1.9
			c0.3,0.7,0.4,1.5,0.4,2.4v9.2c0,0.4,0,0.8,0.1,1.1c0,0.3,0.1,0.5,0.2,0.7c0.1,0.2,0.3,0.3,0.5,0.5c0.2,0.1,0.5,0.2,0.8,0.3
			L186.4,23.7z M180.8,23.4h4.3c-0.1,0-0.2-0.1-0.2-0.1c-0.2-0.1-0.4-0.3-0.5-0.5c-0.1-0.2-0.2-0.5-0.3-0.8
			c-0.1-0.3-0.1-0.7-0.1-1.1v-9.2c0-0.8-0.1-1.6-0.4-2.3c-0.3-0.7-0.7-1.3-1.2-1.8s-1.1-0.9-1.9-1.2c-0.7-0.3-1.6-0.4-2.6-0.4
			c-1.7,0-3.2,0.4-4.3,1.3c-1.1,0.9-1.9,2-2.4,3.5l-0.2,0.7V6l-2.8,0.2c0.1,0.2,0.2,0.3,0.3,0.5c0.1,0.2,0.2,0.5,0.3,0.7
			c0.1,0.3,0.1,0.5,0.1,0.9c0,0.3,0,0.7,0,1.1v11.4c0,0.4,0,0.8-0.1,1.1c0,0.3-0.1,0.6-0.3,0.8c-0.1,0.2-0.3,0.4-0.5,0.5
			c-0.1,0-0.1,0.1-0.2,0.1h4.3c-0.1,0-0.2-0.1-0.2-0.1c-0.2-0.1-0.4-0.3-0.5-0.5c-0.1-0.2-0.2-0.5-0.3-0.8c-0.1-0.3-0.1-0.7-0.1-1.1
			v-7.6c0.1-1.1,0.3-2.1,0.6-3c0.4-0.9,0.8-1.6,1.4-2.2c0.6-0.6,1.3-1,2-1.3c0.8-0.3,1.5-0.5,2.4-0.5c1.5,0,2.6,0.5,3.3,1.4
			c0.8,0.9,1.1,2.1,1.1,3.7v9.5c0,0.4,0,0.8-0.1,1.1c0,0.3-0.1,0.6-0.3,0.8c-0.1,0.2-0.3,0.4-0.5,0.5
			C180.9,23.4,180.9,23.4,180.8,23.4z"/>
	</g>
	<g>
		<path class="st0" d="M190.9,6.1l2.1-4.3v4.3h5.1v0.3H193v13.3c0,0.7,0,1.2,0.1,1.7c0.1,0.5,0.2,0.8,0.4,1.1
			c0.2,0.3,0.4,0.5,0.6,0.6c0.3,0.1,0.6,0.2,0.9,0.2c0.6,0,1.1-0.2,1.5-0.5c0.4-0.3,0.8-0.8,1.1-1.4l0.4,0.3
			c-0.4,0.7-0.9,1.2-1.3,1.6c-0.5,0.4-1.2,0.6-2.1,0.6c-1.4,0-2.5-0.4-3-1.3c-0.6-0.8-0.9-2-0.9-3.5V6.4h-3V6.1H190.9z"/>
		<path class="st0" d="M194.7,23.8c-1.5,0-2.5-0.4-3.1-1.3c-0.6-0.9-0.9-2.1-0.9-3.6V6.5h-3V6h3.2l2.3-4.7V6h5.1v0.6h-5.1v13.2
			c0,0.7,0,1.2,0.1,1.7c0.1,0.4,0.2,0.8,0.4,1c0.2,0.2,0.3,0.4,0.6,0.5c0.2,0.1,0.5,0.1,0.8,0.1c0.6,0,1.1-0.2,1.4-0.5
			c0.4-0.3,0.8-0.8,1.1-1.4l0.1-0.1l0.6,0.4l-0.1,0.1c-0.4,0.7-0.9,1.2-1.4,1.6C196.4,23.6,195.6,23.8,194.7,23.8z M187.8,6.3h3
			v12.6c0,1.5,0.3,2.7,0.9,3.5c0.6,0.8,1.6,1.2,3,1.2c0.9,0,1.6-0.2,2-0.5c0.4-0.4,0.9-0.8,1.3-1.4l-0.2-0.1c-0.3,0.6-0.7,1-1.1,1.4
			c-0.4,0.4-1,0.5-1.6,0.5c-0.3,0-0.7-0.1-0.9-0.2c-0.3-0.1-0.5-0.3-0.7-0.6c-0.2-0.3-0.3-0.7-0.4-1.1c-0.1-0.5-0.1-1-0.1-1.7V6.3
			h5.1V6.2h-5.1V2.3L191,6.2h-3.1V6.3z"/>
	</g>
	<g>
		<path class="st0" d="M212.1,20.8V4.8c0-0.5,0-0.8-0.1-1.1c-0.1-0.3-0.1-0.6-0.3-0.8c-0.1-0.2-0.3-0.4-0.5-0.5s-0.5-0.2-0.8-0.3
			h7.5c1,0,2,0.1,2.9,0.3c0.9,0.2,1.8,0.5,2.5,0.9c0.7,0.4,1.3,1,1.8,1.7c0.4,0.7,0.7,1.5,0.7,2.5c0,0.9-0.2,1.6-0.5,2.3
			c-0.3,0.7-0.8,1.2-1.4,1.7c-0.6,0.5-1.2,0.9-2,1.2c-0.7,0.3-1.5,0.5-2.3,0.6l5,6.1c0.3,0.4,0.7,0.8,1.1,1.2
			c0.4,0.5,0.8,0.9,1.2,1.3c0.4,0.4,0.7,0.8,1.1,1.1c0.3,0.3,0.5,0.5,0.6,0.6h-4.1c0-0.3,0-0.6-0.1-0.9c-0.1-0.3-0.2-0.6-0.4-0.9
			c-0.2-0.3-0.4-0.6-0.7-1c-0.3-0.4-0.6-0.7-0.9-1.2l-5.1-6.4h-2.7v7.5c0,0.9,0.1,1.5,0.4,1.9c0.2,0.4,0.7,0.6,1.3,0.9h-5.7
			c0.7-0.2,1.1-0.5,1.3-0.8C211.9,22.4,212.1,21.7,212.1,20.8z M214.4,12.9h3.1c1.8,0,3.2-0.5,4.3-1.4c1-0.9,1.5-2.2,1.5-3.9
			c0-0.9-0.2-1.7-0.5-2.4c-0.3-0.6-0.8-1.1-1.3-1.5c-0.6-0.4-1.2-0.7-1.9-0.8c-0.7-0.2-1.5-0.2-2.3-0.2h-2.8V12.9z"/>
		<path class="st0" d="M229,23.7h-4.7v-0.1c0-0.3,0-0.5-0.1-0.8c-0.1-0.3-0.2-0.5-0.4-0.8c-0.2-0.3-0.4-0.6-0.7-1
			c-0.3-0.3-0.6-0.7-0.9-1.2l-5.1-6.3h-2.5v7.4c0,0.9,0.1,1.5,0.3,1.8c0.2,0.3,0.6,0.6,1.3,0.8l0.7,0.2h-7.3l0.8-0.2
			c0.6-0.2,1.1-0.4,1.3-0.8c0.2-0.4,0.3-1,0.3-1.8V4.8c0-0.4,0-0.8-0.1-1.1c0-0.3-0.1-0.5-0.2-0.7c-0.1-0.2-0.3-0.3-0.5-0.5
			c-0.2-0.1-0.5-0.2-0.8-0.3l-0.9-0.2h8.5c1,0,2,0.1,2.9,0.3c0.9,0.2,1.8,0.5,2.5,0.9c0.7,0.4,1.4,1,1.8,1.7
			c0.5,0.7,0.7,1.6,0.7,2.6c0,0.9-0.2,1.7-0.5,2.4c-0.3,0.7-0.8,1.3-1.4,1.8c-0.6,0.5-1.3,0.9-2,1.2c-0.7,0.3-1.4,0.5-2.1,0.6
			l4.9,5.9c0.3,0.3,0.7,0.8,1.1,1.2c0.4,0.5,0.8,0.9,1.2,1.3c0.4,0.4,0.7,0.8,1,1.1c0.4,0.4,0.5,0.5,0.6,0.6L229,23.7z M224.5,23.4
			h3.7c-0.1-0.1-0.2-0.2-0.4-0.4c-0.3-0.3-0.7-0.7-1.1-1.1c-0.4-0.4-0.7-0.8-1.2-1.3c-0.4-0.5-0.8-0.9-1.1-1.2l-5.2-6.2l0.2,0
			c0.8-0.1,1.6-0.3,2.3-0.6c0.7-0.3,1.4-0.7,1.9-1.1c0.6-0.5,1-1,1.3-1.7c0.3-0.7,0.5-1.4,0.5-2.3c0-1-0.2-1.8-0.6-2.4
			c-0.4-0.7-1-1.2-1.7-1.6c-0.7-0.4-1.5-0.7-2.5-0.9c-0.9-0.2-1.9-0.3-2.9-0.3h-6.8c0.1,0,0.1,0.1,0.2,0.1c0.2,0.1,0.4,0.3,0.5,0.6
			c0.1,0.2,0.2,0.5,0.3,0.8c0.1,0.3,0.1,0.7,0.1,1.2v16.1c0,0.9-0.1,1.6-0.4,1.9c-0.2,0.3-0.4,0.5-0.8,0.7h4.4
			c-0.4-0.2-0.6-0.4-0.8-0.7c-0.3-0.4-0.4-1-0.4-1.9v-7.6h2.8l0,0l5.1,6.4c0.4,0.4,0.7,0.8,0.9,1.2c0.3,0.4,0.5,0.7,0.7,1
			c0.2,0.3,0.3,0.6,0.4,0.9C224.4,22.9,224.5,23.2,224.5,23.4z M217.5,13h-3.2V2.4h2.9c0.8,0,1.6,0.1,2.4,0.3c0.7,0.2,1.4,0.5,2,0.8
			c0.6,0.4,1,0.9,1.4,1.6s0.5,1.5,0.5,2.4c0,1.7-0.5,3.1-1.6,4C220.8,12.5,219.4,13,217.5,13z M214.5,12.7h3c1.8,0,3.2-0.5,4.2-1.3
			c1-0.9,1.5-2.2,1.5-3.9c0-0.9-0.2-1.7-0.5-2.3c-0.3-0.6-0.8-1.1-1.3-1.5c-0.5-0.4-1.2-0.6-1.9-0.8c-0.7-0.2-1.5-0.2-2.3-0.2h-2.7
			V12.7z"/>
	</g>
	<g>
		<path class="st0" d="M239.3,5.9c1.2,0,2.3,0.2,3.2,0.5c0.9,0.4,1.7,0.8,2.3,1.5c0.6,0.6,1,1.4,1.3,2.3c0.3,0.9,0.5,1.8,0.5,2.8
			h-13c0,0.3-0.1,0.6-0.1,0.9c0,0.3,0,0.6,0,1c0,1.2,0.2,2.3,0.5,3.3c0.3,1,0.8,1.9,1.3,2.6c0.6,0.7,1.2,1.3,2,1.7
			c0.8,0.4,1.6,0.6,2.6,0.6c0.8,0,1.6-0.1,2.2-0.4c0.7-0.3,1.3-0.7,1.8-1.3c0.6-0.6,1.1-1.2,1.5-2c0.4-0.8,0.8-1.6,1.2-2.6l-0.3,4.5
			c-0.9,0.8-1.9,1.3-3.1,1.7c-1.2,0.4-2.3,0.5-3.4,0.5c-1.3,0-2.5-0.2-3.6-0.6c-1.1-0.4-2-1-2.8-1.8c-0.8-0.8-1.4-1.7-1.8-2.8
			c-0.4-1.1-0.6-2.3-0.6-3.6c0-1.3,0.2-2.5,0.6-3.6c0.4-1.1,0.9-2,1.7-2.8c0.7-0.8,1.6-1.4,2.6-1.9C236.8,6.1,238,5.9,239.3,5.9z
			 M233.7,12.7h10.6c0-0.9-0.1-1.7-0.4-2.5c-0.2-0.8-0.5-1.4-1-2c-0.4-0.6-0.9-1-1.5-1.3c-0.6-0.3-1.3-0.5-2.1-0.5
			c-0.7,0-1.4,0.2-2,0.5s-1.2,0.7-1.7,1.3c-0.5,0.6-0.9,1.2-1.2,2C234,10.9,233.8,11.7,233.7,12.7z"/>
		<path class="st0" d="M239.9,23.8c-1.3,0-2.5-0.2-3.6-0.6c-1.1-0.4-2.1-1-2.9-1.8c-0.8-0.8-1.4-1.7-1.9-2.8
			c-0.4-1.1-0.7-2.3-0.7-3.7c0-1.3,0.2-2.5,0.6-3.6c0.4-1.1,1-2.1,1.7-2.9c0.7-0.8,1.6-1.5,2.7-1.9c1-0.4,2.2-0.7,3.5-0.7
			c1.2,0,2.3,0.2,3.3,0.5c0.9,0.4,1.7,0.9,2.3,1.5c0.6,0.6,1.1,1.4,1.4,2.3c0.3,0.9,0.5,1.8,0.5,2.9l0,0.1h-13
			c0,0.3-0.1,0.6-0.1,0.8c0,0.3,0,0.6,0,1c0,1.2,0.2,2.3,0.5,3.3c0.3,1,0.8,1.9,1.3,2.6c0.6,0.7,1.2,1.3,2,1.7
			c0.8,0.4,1.6,0.6,2.5,0.6c0.8,0,1.5-0.1,2.2-0.4c0.7-0.3,1.3-0.7,1.8-1.3c0.5-0.5,1-1.2,1.5-2c0.4-0.8,0.8-1.6,1.2-2.5l0.3-0.8
			l-0.3,5.4l0,0c-0.9,0.8-2,1.3-3.1,1.7C242.1,23.6,241,23.8,239.9,23.8z M239.3,6c-1.3,0-2.4,0.2-3.4,0.7c-1,0.4-1.9,1.1-2.6,1.8
			c-0.7,0.8-1.3,1.7-1.6,2.8c-0.4,1.1-0.6,2.3-0.6,3.6c0,1.3,0.2,2.5,0.6,3.6c0.4,1.1,1,2,1.8,2.7c0.8,0.7,1.7,1.3,2.8,1.8
			c2,0.8,4.4,0.9,6.9,0.1c1.1-0.3,2.1-0.9,3-1.6l0.2-3.7c-0.3,0.7-0.6,1.3-0.9,1.8c-0.4,0.8-1,1.5-1.5,2c-0.6,0.6-1.2,1-1.9,1.3
			c-0.7,0.3-1.5,0.5-2.3,0.5c-0.9,0-1.8-0.2-2.6-0.6c-0.8-0.4-1.5-1-2.1-1.8c-0.6-0.8-1-1.7-1.3-2.7c-0.3-1-0.5-2.1-0.5-3.3
			c0-0.3,0-0.7,0-1c0-0.3,0.1-0.6,0.1-1l0-0.1h13c0-1-0.2-1.9-0.5-2.7c-0.3-0.8-0.7-1.6-1.3-2.2c-0.6-0.6-1.3-1.1-2.2-1.5
			C241.6,6.2,240.5,6,239.3,6z M244.3,12.8h-10.8l0-0.1c0.1-0.9,0.4-1.8,0.7-2.6c0.3-0.8,0.7-1.5,1.2-2c0.5-0.6,1.1-1,1.7-1.3
			c0.6-0.3,1.3-0.5,2.1-0.5c0.8,0,1.5,0.2,2.1,0.5c0.6,0.3,1.2,0.8,1.6,1.4c0.4,0.6,0.7,1.3,1,2c0.2,0.8,0.4,1.6,0.4,2.5L244.3,12.8
			z M233.8,12.5h10.3c0-0.8-0.2-1.6-0.4-2.4c-0.2-0.7-0.5-1.4-0.9-2c-0.4-0.6-0.9-1-1.5-1.3c-0.6-0.3-1.3-0.5-2-0.5
			c-0.7,0-1.4,0.2-2,0.5c-0.6,0.3-1.1,0.7-1.6,1.3c-0.5,0.6-0.9,1.2-1.2,2C234.2,10.9,233.9,11.7,233.8,12.5z"/>
	</g>
	<g>
		<path class="st0" d="M258,5.9c1,0,1.9,0.1,2.7,0.4c0.8,0.3,1.6,0.7,2.3,1.3v-5c0-0.6-0.1-1.1-0.2-1.4c-0.1-0.3-0.3-0.6-0.6-0.8
			l3.1-0.4v20.4c0,0.9,0.1,1.5,0.2,2c0.1,0.4,0.4,0.8,0.6,1.1l-3,0.1v-2.4c-0.6,0.9-1.4,1.5-2.3,1.9c-0.9,0.4-1.8,0.6-2.8,0.6
			c-1.3,0-2.5-0.2-3.5-0.6c-1.1-0.4-2-1-2.7-1.8c-0.7-0.8-1.3-1.6-1.7-2.7c-0.4-1-0.6-2.1-0.6-3.3c0-1.4,0.2-2.6,0.6-3.8
			c0.4-1.1,1-2.1,1.8-3c0.8-0.8,1.7-1.5,2.7-1.9C255.6,6.1,256.7,5.9,258,5.9z M251.8,14c0,1.3,0.1,2.4,0.4,3.6s0.7,2.1,1.3,2.9
			c0.6,0.8,1.3,1.5,2.2,2c0.8,0.5,1.8,0.7,2.9,0.7c0.9,0,1.7-0.2,2.4-0.7c0.7-0.4,1.4-1.1,1.9-1.8V10.2c-0.5-1.3-1.3-2.2-2.2-2.8
			c-0.9-0.6-1.9-0.9-3.1-0.9c-0.9,0-1.8,0.2-2.5,0.5c-0.7,0.4-1.4,0.9-1.9,1.5c-0.5,0.7-0.9,1.5-1.2,2.4
			C252,11.8,251.8,12.9,251.8,14z"/>
		<path class="st0" d="M258,23.8c-1.3,0-2.5-0.2-3.6-0.7s-2-1-2.7-1.8c-0.8-0.8-1.3-1.7-1.8-2.7c-0.4-1-0.6-2.2-0.6-3.4
			c0-1.4,0.2-2.7,0.6-3.8c0.4-1.2,1-2.2,1.8-3c0.8-0.8,1.7-1.5,2.7-1.9c1.1-0.5,2.2-0.7,3.5-0.7c1,0,1.9,0.2,2.8,0.5
			c0.8,0.3,1.5,0.7,2.1,1.2V2.7c0-0.6,0-1.1-0.1-1.4c-0.1-0.3-0.3-0.5-0.6-0.8l-0.2-0.2l3.5-0.4v20.5c0,0.9,0.1,1.5,0.2,1.9
			c0.1,0.4,0.3,0.7,0.6,1l0.2,0.2l-3.4,0.1v-2.2c-0.6,0.7-1.3,1.3-2.2,1.6C259.9,23.6,259,23.8,258,23.8z M258,6
			c-1.2,0-2.3,0.2-3.4,0.7c-1,0.4-1.9,1.1-2.7,1.9c-0.8,0.8-1.3,1.8-1.8,2.9c-0.4,1.1-0.6,2.4-0.6,3.7c0,1.2,0.2,2.3,0.6,3.3
			c0.4,1,1,1.9,1.7,2.6c0.7,0.7,1.6,1.3,2.7,1.8c1,0.4,2.2,0.6,3.5,0.6c0.9,0,1.8-0.2,2.7-0.6c0.9-0.4,1.6-1,2.3-1.8l0.2-0.3v2.6
			l2.7-0.1c-0.2-0.3-0.4-0.6-0.5-0.9c-0.2-0.4-0.2-1.1-0.2-2V0.3l-2.7,0.3c0.2,0.2,0.4,0.4,0.5,0.7c0.1,0.3,0.2,0.8,0.2,1.4V8
			l-0.2-0.2c-0.7-0.6-1.4-1-2.3-1.3C259.8,6.2,258.9,6,258,6z M258.6,23.3c-1.1,0-2.1-0.3-2.9-0.7c-0.9-0.5-1.6-1.2-2.2-2
			c-0.6-0.8-1-1.8-1.3-3c-0.3-1.1-0.5-2.3-0.5-3.6c0-1.1,0.1-2.2,0.4-3.1c0.3-0.9,0.7-1.8,1.2-2.4c0.5-0.7,1.2-1.2,1.9-1.6
			c0.7-0.4,1.6-0.6,2.5-0.6c1.2,0,2.2,0.3,3.1,0.9c0.9,0.6,1.7,1.6,2.2,2.9l0,0v10.5l0,0c-0.5,0.8-1.2,1.4-2,1.9
			C260.4,23.1,259.5,23.3,258.6,23.3z M257.8,6.6c-0.9,0-1.7,0.2-2.4,0.5c-0.7,0.4-1.3,0.9-1.8,1.5c-0.5,0.6-0.9,1.4-1.2,2.3
			c-0.3,0.9-0.4,1.9-0.4,3.1c0,1.2,0.1,2.4,0.4,3.5c0.3,1.1,0.7,2.1,1.3,2.9c0.6,0.8,1.3,1.5,2.1,1.9c0.8,0.5,1.8,0.7,2.8,0.7
			c0.9,0,1.7-0.2,2.4-0.6c0.7-0.4,1.3-1,1.9-1.8V10.2c-0.5-1.3-1.2-2.2-2.1-2.8C259.9,6.9,258.9,6.6,257.8,6.6z"/>
	</g>
</g>
</svg>
