<?xml version="1.0" encoding="utf-8"?>
<!-- Generator: Adobe Illustrator 25.4.1, SVG Export Plug-In . SVG Version: 6.00 Build 0)  -->
<svg version="1.1" id="レイヤー_1" xmlns="http://www.w3.org/2000/svg" xmlns:xlink="http://www.w3.org/1999/xlink" x="0px"
	 y="0px" viewBox="0 0 392 69" style="enable-background:new 0 0 392 69;" xml:space="preserve">
<style type="text/css">
	.st0{fill:#635444;}
</style>
<g>
	<g>
		<path class="st0" d="M3.1,63.7V36.3c0-0.8,0-1.4-0.1-1.9c-0.1-0.5-0.2-0.9-0.4-1.3c-0.2-0.3-0.4-0.6-0.8-0.8
			c-0.4-0.2-0.8-0.4-1.4-0.5h23.7l1.1,9.7c-0.4-1.8-1-3.3-1.8-4.5c-0.8-1.1-1.7-2-2.7-2.7c-1-0.6-2.1-1.1-3.3-1.3
			c-1.2-0.2-2.4-0.3-3.7-0.3H7.1v16.5h4.4c1.8,0,3.3-0.1,4.4-0.3c1.1-0.2,2.1-0.5,2.7-1s1.2-0.9,1.5-1.5c0.3-0.6,0.6-1.3,0.7-2.1
			L20.2,55c0-0.8-0.2-1.5-0.4-2.1c-0.2-0.6-0.7-1.1-1.3-1.6c-0.6-0.4-1.5-0.7-2.6-1c-1.1-0.2-2.6-0.3-4.5-0.3H7.1v13.7
			c0,1.5,0.2,2.6,0.7,3.3c0.5,0.7,1.2,1.1,2.4,1.5H0.1C1.2,68.2,2,67.7,2.4,67C2.9,66.4,3.1,65.3,3.1,63.7z"/>
		<path class="st0" d="M28.7,68.5c0.6-0.2,1-0.4,1.4-0.6c0.4-0.2,0.6-0.5,0.8-0.8c0.2-0.3,0.4-0.8,0.4-1.3c0.1-0.5,0.1-1.2,0.1-1.9
			V44.4c0-0.7,0-1.4-0.1-1.9c-0.1-0.5-0.1-1-0.2-1.5s-0.3-0.8-0.4-1.2c-0.2-0.4-0.4-0.7-0.7-1.1l5.4-0.5v25.6c0,0.7,0,1.4,0.1,1.9
			c0.1,0.5,0.2,0.9,0.4,1.3c0.2,0.4,0.5,0.6,0.8,0.8c0.4,0.2,0.8,0.4,1.3,0.6H28.7z M33.2,29.2c0.8,0,1.5,0.2,2,0.7
			c0.5,0.5,0.8,1.1,0.8,1.9c0,0.8-0.3,1.5-0.8,2c-0.5,0.5-1.2,0.7-2,0.7c-0.8,0-1.4-0.2-2-0.7c-0.5-0.5-0.8-1.1-0.8-2
			c0-0.8,0.3-1.5,0.8-1.9C31.8,29.4,32.4,29.2,33.2,29.2z"/>
		<path class="st0" d="M40.9,68.5c0.6-0.2,1-0.4,1.4-0.6c0.4-0.2,0.6-0.5,0.8-0.8c0.2-0.3,0.4-0.8,0.4-1.3c0.1-0.5,0.1-1.2,0.1-1.9
			V44.4c0-0.7,0-1.4-0.1-1.9c-0.1-0.5-0.1-1-0.2-1.5s-0.3-0.8-0.4-1.2c-0.2-0.4-0.4-0.7-0.7-1.1l5.4-0.5v8.4
			c0.9-2.6,2.3-4.6,4.2-6.1c1.9-1.5,4.4-2.2,7.4-2.2c1.7,0,3.2,0.2,4.5,0.7c1.3,0.5,2.4,1.2,3.3,2c0.9,0.9,1.6,1.9,2.1,3.1
			c0.5,1.2,0.7,2.5,0.7,4v15.6c0,0.7,0,1.4,0.1,1.9c0.1,0.5,0.2,0.9,0.4,1.3c0.2,0.4,0.5,0.6,0.8,0.8c0.4,0.2,0.8,0.4,1.3,0.6h-9.4
			c0.6-0.2,1-0.4,1.4-0.6c0.4-0.2,0.6-0.5,0.8-0.8c0.2-0.3,0.4-0.8,0.4-1.3c0.1-0.5,0.1-1.2,0.1-1.9V47.7c0-2.6-0.6-4.7-1.9-6.2
			c-1.3-1.5-3.1-2.2-5.5-2.2c-1.4,0-2.7,0.3-4,0.8s-2.4,1.3-3.4,2.2c-1,1-1.8,2.2-2.4,3.6c-0.6,1.4-1,3.1-1.1,5v13
			c0,0.7,0,1.4,0.1,1.9c0.1,0.5,0.2,0.9,0.4,1.3c0.2,0.4,0.5,0.6,0.8,0.8c0.4,0.2,0.8,0.4,1.3,0.6H40.9z"/>
		<path class="st0" d="M89.6,38.4c1.7,0,3.2,0.3,4.6,0.8c1.4,0.5,2.7,1.3,3.9,2.3v-8.6c0-1.1-0.1-1.9-0.3-2.4
			c-0.2-0.5-0.5-1-1.1-1.4l5.2-0.6v34.8c0,1.5,0.1,2.6,0.4,3.4c0.2,0.7,0.6,1.3,1.1,1.8l-5.2,0.2v-4.1c-1.1,1.5-2.4,2.5-4,3.2
			c-1.5,0.7-3.1,1-4.7,1c-2.2,0-4.2-0.4-6-1.1s-3.4-1.8-4.6-3c-1.3-1.3-2.3-2.8-3-4.6c-0.7-1.8-1.1-3.7-1.1-5.7
			c0-2.4,0.4-4.5,1.1-6.5c0.7-2,1.7-3.6,3-5c1.3-1.4,2.8-2.5,4.6-3.3C85.6,38.8,87.5,38.4,89.6,38.4z M79.1,52.2
			c0,2.1,0.3,4.2,0.8,6.1c0.5,1.9,1.3,3.6,2.3,5c1,1.4,2.2,2.6,3.7,3.4c1.4,0.8,3.1,1.2,4.9,1.2c1.5,0,2.9-0.4,4.2-1.1
			c1.3-0.8,2.4-1.8,3.3-3.1V45.7c-0.9-2.2-2.1-3.8-3.7-4.9c-1.5-1-3.3-1.5-5.3-1.5c-1.6,0-3,0.3-4.3,0.9c-1.2,0.6-2.3,1.5-3.2,2.6
			c-0.9,1.1-1.5,2.5-2,4.1C79.3,48.5,79.1,50.2,79.1,52.2z"/>
		<path class="st0" d="M129.5,31.8c-0.1,0.1-0.3,0.3-0.4,0.5c-0.1,0.2-0.2,0.5-0.2,0.8c0,0.3,0,0.7,0.2,1.1c0.1,0.4,0.4,0.9,0.7,1.5
			l10.4,15.9l9.1-13.6c0.8-1.2,1.3-2.2,1.6-2.9c0.3-0.7,0.4-1.3,0.4-1.7s-0.1-0.7-0.3-0.9c-0.2-0.2-0.3-0.4-0.4-0.5h4.9
			c-0.5,0.1-1,0.6-1.7,1.3c-0.7,0.7-1.5,1.7-2.4,3.1l-10.7,15.9v11.8c0,1.5,0.2,2.6,0.6,3.2c0.4,0.6,1.2,1.1,2.2,1.5h-9.7
			c1.1-0.3,1.9-0.8,2.3-1.4c0.4-0.6,0.6-1.7,0.6-3.2V52.5l-10.1-15.4c-1.2-1.8-2.1-3.1-2.8-3.8c-0.7-0.8-1.3-1.3-1.8-1.5H129.5z"/>
		<path class="st0" d="M173.5,38.4c2.3,0,4.3,0.4,6.2,1.1c1.8,0.7,3.4,1.8,4.8,3.1c1.3,1.4,2.4,3,3.1,4.8c0.7,1.8,1.1,3.9,1.1,6.1
			v0.1c0,2.2-0.4,4.3-1.1,6.1c-0.7,1.8-1.8,3.5-3.1,4.8c-1.3,1.4-2.9,2.4-4.8,3.1c-1.8,0.7-3.9,1.1-6.2,1.1c-2.3,0-4.3-0.4-6.2-1.1
			s-3.4-1.8-4.8-3.1c-1.3-1.4-2.4-3-3.1-4.8c-0.7-1.8-1.1-3.9-1.1-6.1v-0.1c0-2.2,0.4-4.3,1.1-6.1c0.7-1.8,1.8-3.4,3.1-4.8
			c1.3-1.4,2.9-2.4,4.8-3.1S171.3,38.4,173.5,38.4z M162.6,53.5c0,2.1,0.3,4,0.8,5.8c0.5,1.8,1.3,3.3,2.2,4.6c1,1.3,2.1,2.3,3.4,3
			c1.3,0.7,2.8,1.1,4.4,1.1c1.6,0,3.1-0.4,4.4-1.1c1.3-0.7,2.5-1.7,3.4-3c1-1.3,1.7-2.8,2.2-4.6c0.5-1.8,0.8-3.7,0.8-5.8
			s-0.3-4-0.8-5.8c-0.5-1.8-1.3-3.3-2.2-4.5c-1-1.3-2.1-2.3-3.4-3c-1.3-0.7-2.8-1.1-4.4-1.1c-1.6,0-3.1,0.4-4.4,1.1
			c-1.3,0.7-2.5,1.7-3.4,3c-1,1.3-1.7,2.8-2.2,4.5C162.9,49.5,162.6,51.4,162.6,53.5z"/>
		<path class="st0" d="M192,38.8l5.4-0.5v21.4c0,1.5,0.2,2.8,0.5,3.8c0.3,1,0.8,1.9,1.3,2.5c0.6,0.7,1.3,1.1,2.1,1.4
			c0.8,0.3,1.7,0.4,2.7,0.4c1.6,0,3-0.4,4.1-1.1c1.2-0.7,2.1-1.6,2.9-2.8c0.8-1.1,1.4-2.4,1.8-3.7c0.4-1.4,0.7-2.7,0.7-4V44.4
			c0-0.7,0-1.4-0.1-1.9c-0.1-0.5-0.1-1-0.2-1.5c-0.1-0.4-0.3-0.8-0.4-1.2c-0.2-0.4-0.4-0.7-0.7-1.1l5.4-0.5v24.9
			c0,1.5,0.1,2.7,0.4,3.4c0.2,0.7,0.6,1.3,1.1,1.8l-5.2,0.2v-8c-0.5,1.3-1.1,2.4-1.7,3.4c-0.6,1-1.3,1.8-2.1,2.5
			c-0.8,0.7-1.8,1.2-2.8,1.6c-1.1,0.4-2.3,0.6-3.7,0.6c-3,0-5.4-0.8-7.2-2.3c-1.8-1.5-2.7-3.8-2.7-7V44.4c0-0.7,0-1.4-0.1-1.9
			c-0.1-0.5-0.1-1-0.2-1.5c-0.1-0.4-0.3-0.8-0.4-1.2C192.6,39.5,192.3,39.2,192,38.8z"/>
		<path class="st0" d="M222.3,68.5c0.6-0.2,1-0.4,1.4-0.6c0.4-0.2,0.6-0.5,0.8-0.8c0.2-0.3,0.4-0.8,0.4-1.3c0.1-0.5,0.1-1.2,0.1-1.9
			V44.4c0-0.7,0-1.4-0.1-1.9c-0.1-0.5-0.1-1-0.2-1.5s-0.3-0.8-0.4-1.2c-0.2-0.4-0.4-0.7-0.7-1.1l5.3-0.5v7.1c0.4-1,0.9-1.9,1.4-2.7
			c0.5-0.8,1.1-1.6,1.8-2.2c0.7-0.6,1.5-1.1,2.5-1.5c0.9-0.4,2-0.5,3.2-0.5c1.1,0,2.1,0.1,3,0.4l-0.1,5.1c-0.3-0.4-0.7-0.8-1.1-1.2
			c-0.4-0.4-0.9-0.8-1.4-1.2c-0.5-0.4-1-0.6-1.5-0.9c-0.5-0.2-1.1-0.3-1.6-0.3c-0.7,0-1.4,0.2-2,0.5c-0.6,0.4-1.2,0.8-1.7,1.4
			c-0.5,0.6-1,1.3-1.4,2.1c-0.4,0.8-0.8,1.6-1.1,2.5v17.1c0,0.7,0,1.4,0.1,1.9c0.1,0.5,0.2,0.9,0.4,1.3c0.2,0.4,0.5,0.6,0.8,0.8
			c0.4,0.2,0.8,0.4,1.3,0.6H222.3z"/>
		<path class="st0" d="M276.7,31.5c0.7,0,1.5,0.1,2.5,0.2c1,0.1,2,0.3,3.1,0.6c1.1,0.3,2.2,0.6,3.3,1c1.1,0.4,2.2,1,3.2,1.6
			l0.8,12.2c-1-5-2.7-8.7-5-11.1c-2.4-2.4-5.1-3.6-8.3-3.6c-1.8,0-3.4,0.4-5,1.1c-1.5,0.7-2.9,1.9-4,3.4c-1.1,1.5-2,3.4-2.7,5.6
			c-0.7,2.2-1,4.8-1,7.8c0,3,0.3,5.7,1,7.9c0.7,2.3,1.6,4.1,2.8,5.6c1.2,1.5,2.6,2.6,4.2,3.3c1.6,0.7,3.4,1.1,5.2,1.1
			c1.2,0,2.3-0.1,3.5-0.4c1.2-0.3,2.3-0.8,3.4-1.5c1.1-0.7,2.2-1.7,3.1-2.9c1-1.2,1.8-2.7,2.6-4.5v5.8c-1.4,1.2-3.3,2.2-5.5,3
			c-2.2,0.8-4.6,1.2-7.1,1.2c-2.5,0-4.9-0.5-7.1-1.4c-2.2-1-4.1-2.3-5.7-3.9c-1.6-1.7-2.9-3.7-3.8-5.9c-0.9-2.3-1.4-4.8-1.4-7.4
			c0-2.6,0.5-5.1,1.4-7.4c0.9-2.3,2.2-4.2,3.8-5.9c1.6-1.7,3.5-3,5.6-3.9C272.1,31.9,274.4,31.5,276.7,31.5z"/>
		<path class="st0" d="M309.4,38.4c2.3,0,4.3,0.4,6.2,1.1c1.8,0.7,3.4,1.8,4.8,3.1c1.3,1.4,2.4,3,3.1,4.8c0.7,1.8,1.1,3.9,1.1,6.1
			v0.1c0,2.2-0.4,4.3-1.1,6.1c-0.7,1.8-1.8,3.5-3.1,4.8c-1.3,1.4-2.9,2.4-4.8,3.1c-1.8,0.7-3.9,1.1-6.2,1.1c-2.3,0-4.3-0.4-6.2-1.1
			s-3.4-1.8-4.8-3.1c-1.3-1.4-2.4-3-3.1-4.8c-0.7-1.8-1.1-3.9-1.1-6.1v-0.1c0-2.2,0.4-4.3,1.1-6.1c0.7-1.8,1.8-3.4,3.1-4.8
			c1.3-1.4,2.9-2.4,4.8-3.1S307.1,38.4,309.4,38.4z M298.5,53.5c0,2.1,0.3,4,0.8,5.8c0.5,1.8,1.3,3.3,2.2,4.6c1,1.3,2.1,2.3,3.4,3
			c1.3,0.7,2.8,1.1,4.4,1.1c1.6,0,3.1-0.4,4.4-1.1c1.3-0.7,2.5-1.7,3.4-3c1-1.3,1.7-2.8,2.2-4.6c0.5-1.8,0.8-3.7,0.8-5.8
			s-0.3-4-0.8-5.8c-0.5-1.8-1.3-3.3-2.2-4.5c-1-1.3-2.1-2.3-3.4-3c-1.3-0.7-2.8-1.1-4.4-1.1c-1.6,0-3.1,0.4-4.4,1.1
			c-1.3,0.7-2.5,1.7-3.4,3c-1,1.3-1.7,2.8-2.2,4.5C298.7,49.5,298.5,51.4,298.5,53.5z"/>
		<path class="st0" d="M327.6,68.5c0.6-0.2,1-0.4,1.4-0.6c0.4-0.2,0.6-0.5,0.8-0.8c0.2-0.3,0.4-0.8,0.4-1.3c0.1-0.5,0.1-1.2,0.1-1.9
			v-31c0-1.1-0.1-1.9-0.3-2.4c-0.2-0.5-0.5-1-1.1-1.4l5.2-0.6v35.4c0,0.7,0,1.4,0.1,1.9c0.1,0.5,0.2,0.9,0.4,1.3
			c0.2,0.4,0.5,0.6,0.8,0.8c0.4,0.2,0.8,0.4,1.3,0.6H327.6z"/>
		<path class="st0" d="M355.1,38.4c2.3,0,4.3,0.4,6.2,1.1c1.8,0.7,3.4,1.8,4.8,3.1c1.3,1.4,2.4,3,3.1,4.8c0.7,1.8,1.1,3.9,1.1,6.1
			v0.1c0,2.2-0.4,4.3-1.1,6.1c-0.7,1.8-1.8,3.5-3.1,4.8c-1.3,1.4-2.9,2.4-4.8,3.1c-1.8,0.7-3.9,1.1-6.2,1.1c-2.3,0-4.3-0.4-6.2-1.1
			s-3.4-1.8-4.8-3.1c-1.3-1.4-2.4-3-3.1-4.8c-0.7-1.8-1.1-3.9-1.1-6.1v-0.1c0-2.2,0.4-4.3,1.1-6.1c0.7-1.8,1.8-3.4,3.1-4.8
			c1.3-1.4,2.9-2.4,4.8-3.1S352.9,38.4,355.1,38.4z M344.3,53.5c0,2.1,0.3,4,0.8,5.8c0.5,1.8,1.3,3.3,2.2,4.6c1,1.3,2.1,2.3,3.4,3
			c1.3,0.7,2.8,1.1,4.4,1.1c1.6,0,3.1-0.4,4.4-1.1c1.3-0.7,2.5-1.7,3.4-3c1-1.3,1.7-2.8,2.2-4.6c0.5-1.8,0.8-3.7,0.8-5.8
			s-0.3-4-0.8-5.8c-0.5-1.8-1.3-3.3-2.2-4.5c-1-1.3-2.1-2.3-3.4-3c-1.3-0.7-2.8-1.1-4.4-1.1c-1.6,0-3.1,0.4-4.4,1.1
			c-1.3,0.7-2.5,1.7-3.4,3c-1,1.3-1.7,2.8-2.2,4.5C344.5,49.5,344.3,51.4,344.3,53.5z"/>
		<path class="st0" d="M373.4,68.5c0.6-0.2,1-0.4,1.4-0.6c0.4-0.2,0.6-0.5,0.8-0.8c0.2-0.3,0.4-0.8,0.4-1.3c0.1-0.5,0.1-1.2,0.1-1.9
			V44.4c0-0.7,0-1.4-0.1-1.9c-0.1-0.5-0.1-1-0.2-1.5s-0.3-0.8-0.4-1.2c-0.2-0.4-0.4-0.7-0.7-1.1l5.3-0.5v7.1c0.4-1,0.9-1.9,1.4-2.7
			c0.5-0.8,1.1-1.6,1.8-2.2c0.7-0.6,1.5-1.1,2.5-1.5c0.9-0.4,2-0.5,3.2-0.5c1.1,0,2.1,0.1,3,0.4l-0.1,5.1c-0.3-0.4-0.7-0.8-1.1-1.2
			c-0.4-0.4-0.9-0.8-1.4-1.2c-0.5-0.4-1-0.6-1.5-0.9c-0.5-0.2-1.1-0.3-1.6-0.3c-0.7,0-1.4,0.2-2,0.5c-0.6,0.4-1.2,0.8-1.7,1.4
			c-0.5,0.6-1,1.3-1.4,2.1c-0.4,0.8-0.8,1.6-1.1,2.5v17.1c0,0.7,0,1.4,0.1,1.9c0.1,0.5,0.2,0.9,0.4,1.3c0.2,0.4,0.5,0.6,0.8,0.8
			c0.4,0.2,0.8,0.4,1.3,0.6H373.4z"/>
	</g>
	<g>
		<path class="st0" d="M118,0.2h1.7l3.3,8.5l3.3-8.5h1.7l-4.2,10.6h-1.7L118,0.2z"/>
		<path class="st0" d="M131.7,7.7c0.2,1,1.1,1.9,2.3,1.9c1.4,0,2.2-1.1,2.2-1.1l1,1c0,0-1.1,1.5-3.2,1.5c-2,0-3.8-1.7-3.8-3.9
			c0-2,1.7-3.7,3.7-3.7c2,0,3.6,1.5,3.6,3.6c0,0.5-0.1,0.8-0.1,0.8H131.7z M131.8,6.4h4.2c-0.2-1-0.9-1.7-2.1-1.7S132,5.4,131.8,6.4
			z"/>
		<path class="st0" d="M142,10.8h-1.5V0.2h1.5V10.8z"/>
		<path class="st0" d="M147.6,10.8l-3-7.3h1.6l2.1,5.3l2.1-5.3h1.6l-3,7.3H147.6z"/>
		<path class="st0" d="M155.5,7.7c0.2,1,1.1,1.9,2.3,1.9c1.4,0,2.2-1.1,2.2-1.1l1,1c0,0-1.1,1.5-3.2,1.5c-2,0-3.8-1.7-3.8-3.9
			c0-2,1.7-3.7,3.7-3.7c2,0,3.6,1.5,3.6,3.6c0,0.5-0.1,0.8-0.1,0.8H155.5z M155.6,6.4h4.2c-0.2-1-0.9-1.7-2.1-1.7
			S155.8,5.4,155.6,6.4z"/>
		<path class="st0" d="M165.1,1.1h1.4v2.4h1.5v1.4h-1.5v3.8c0,0.5,0.4,0.9,0.9,0.9c0.4,0,0.8-0.2,0.8-0.2v1.4c0,0-0.5,0.2-1.1,0.2
			c-1.4,0-2.1-0.8-2.1-2.3V4.9h-1.4V3.5h0.8c0.5,0,0.8-0.3,0.8-0.9V1.1z"/>
		<path class="st0" d="M183.4,0.2v1.5h-5.8v3h4.6v1.5h-4.6v4.6H176V0.2H183.4z"/>
		<path class="st0" d="M187,2.2c-0.5,0-0.9-0.4-0.9-0.9s0.4-0.9,0.9-0.9c0.5,0,0.9,0.4,0.9,0.9S187.6,2.2,187,2.2z M187.8,10.8h-1.5
			V3.5h1.5V10.8z"/>
		<path class="st0" d="M197.6,10.8h-1.7l-1.9-2.7l-1.9,2.7h-1.7L193,7l-2.5-3.5h1.7l1.7,2.4l1.7-2.4h1.7L194.9,7L197.6,10.8z"/>
		<path class="st0" d="M204.8,10.8V0.2h1.7v9.1h5.2v1.5H204.8z"/>
		<path class="st0" d="M215.1,2.2c-0.5,0-0.9-0.4-0.9-0.9s0.4-0.9,0.9-0.9c0.5,0,0.9,0.4,0.9,0.9S215.7,2.2,215.1,2.2z M215.9,10.8
			h-1.5V3.5h1.5V10.8z"/>
		<path class="st0" d="M220.8,10v4h-1.5V3.5h1.5v0.8c0,0,0.9-1,2.4-1c1.9,0,3.6,1.7,3.6,3.8c0,2.1-1.7,3.8-3.6,3.8
			C221.7,11,220.8,10,220.8,10z M220.8,7.2c0,1.4,1.1,2.4,2.2,2.4s2.2-1.1,2.2-2.4c0-1.4-1.1-2.4-2.2-2.4S220.8,5.8,220.8,7.2z"/>
		<path class="st0" d="M234.4,10.8V0.2h4.3c1.7,0,3.1,1.4,3.1,2.8s-1.1,2.1-1.1,2.1s1.6,0.8,1.6,2.6c0,1.7-1.4,3.1-3.4,3.1H234.4z
			 M236.1,1.6v2.9h2.7c0.8,0,1.4-0.6,1.4-1.4s-0.6-1.4-1.4-1.4H236.1z M239,9.4c1,0,1.7-0.8,1.7-1.7s-0.8-1.7-1.7-1.7h-2.9v3.5H239z
			"/>
		<path class="st0" d="M249.8,10.8v-0.8c0,0-0.8,0.9-2.2,0.9c-1.5,0-2.6-1.1-2.6-2.1c0-1.2,0.8-2,2.1-2.3l2.7-0.5
			c0-0.8-0.6-1.4-1.5-1.4c-1.3,0-1.9,1-1.9,1l-1-1c0,0,1-1.4,2.9-1.4c1.8,0,3,1.2,3,2.7v4.7H249.8z M249.8,7.5V7.3l-2.4,0.4
			c-0.5,0.1-0.9,0.5-0.9,1c0,0.5,0.5,0.9,1.3,0.9C249.1,9.6,249.8,8.9,249.8,7.5z"/>
		<path class="st0" d="M256.3,10.8h-1.5V0.2h1.5V10.8z"/>
		<path class="st0" d="M269.2,6.6c0-1.2-0.6-1.8-1.5-1.8c-0.9,0-1.7,0.8-1.7,2.1v3.9h-1.5V6.6c0-1.2-0.6-1.8-1.5-1.8
			c-0.9,0-1.7,0.8-1.7,2.1v3.9h-1.5V3.5h1.5v0.8c0,0,0.8-0.9,2-0.9c1.6,0,2.2,1.2,2.2,1.2s0.8-1.2,2.5-1.2c1.7,0,2.7,1.1,2.7,3.2
			v4.3h-1.5V6.6z"/>
	</g>
</g>
</svg>
