<?xml version="1.0" encoding="utf-8"?>
<!-- Generator: Adobe Illustrator 25.4.1, SVG Export Plug-In . SVG Version: 6.00 Build 0)  -->
<svg version="1.1" id="レイヤー_1" xmlns="http://www.w3.org/2000/svg" xmlns:xlink="http://www.w3.org/1999/xlink" x="0px"
	 y="0px" viewBox="0 0 280 29" style="enable-background:new 0 0 280 29;" xml:space="preserve">
<style type="text/css">
	.st0{fill:#635444;}
</style>
<g>
	<g>
		<path class="st0" d="M8.5,12.8c0-1.7,0.2-3.1,0.6-4.5C9.5,7,10,5.8,10.7,4.9c0.7-0.9,1.5-1.7,2.5-2.2c1-0.5,2-0.8,3.2-0.8
			c1.2,0,2.3,0.3,3.2,0.8s1.8,1.3,2.5,2.2c0.7,0.9,1.2,2.1,1.6,3.4c0.4,1.3,0.6,2.8,0.6,4.5c0,1.6-0.2,3.1-0.6,4.5
			c-0.4,1.4-0.9,2.5-1.6,3.5c-0.7,0.9-1.5,1.7-2.5,2.2c-1,0.5-2.1,0.8-3.2,0.8c-1.2,0-2.2-0.3-3.2-0.8c-1-0.5-1.8-1.3-2.5-2.2
			c-0.7-0.9-1.2-2.1-1.6-3.5C8.7,15.9,8.5,14.4,8.5,12.8z M11.2,12.8c0,3.3,0.4,5.8,1.3,7.7s2.2,2.8,3.9,2.8c1.7,0,3-0.9,3.9-2.8
			c0.9-1.8,1.3-4.4,1.3-7.7c0-3.3-0.4-5.8-1.3-7.7c-0.9-1.8-2.2-2.8-3.9-2.8c-1.7,0-3,0.9-3.9,2.8C11.6,6.9,11.2,9.5,11.2,12.8z"/>
		<path class="st0" d="M16.4,23.8c-1.2,0-2.3-0.3-3.3-0.8c-1-0.5-1.8-1.3-2.5-2.2c-0.7-1-1.2-2.1-1.6-3.5c-0.4-1.4-0.6-2.9-0.6-4.5
			c0-1.7,0.2-3.2,0.6-4.5c0.4-1.3,0.9-2.5,1.6-3.5c0.7-1,1.6-1.7,2.5-2.2c1-0.5,2.1-0.8,3.3-0.8c1.2,0,2.3,0.3,3.3,0.8
			c1,0.5,1.8,1.3,2.5,2.2c0.7,1,1.2,2.1,1.6,3.5c0.4,1.3,0.6,2.9,0.6,4.5c0,1.6-0.2,3.1-0.6,4.5c-0.4,1.4-0.9,2.5-1.6,3.5
			c-0.7,1-1.5,1.7-2.5,2.2C18.7,23.6,17.6,23.8,16.4,23.8z M16.4,2c-1.1,0-2.2,0.3-3.2,0.8c-0.9,0.5-1.8,1.2-2.5,2.2
			C10.1,5.9,9.6,7,9.2,8.3c-0.4,1.3-0.6,2.8-0.6,4.5c0,1.6,0.2,3.1,0.6,4.4c0.4,1.3,0.9,2.5,1.6,3.4c0.7,0.9,1.5,1.7,2.5,2.2
			c0.9,0.5,2,0.8,3.2,0.8c1.2,0,2.2-0.3,3.2-0.8c0.9-0.5,1.8-1.2,2.5-2.2c0.7-0.9,1.2-2.1,1.6-3.4c0.4-1.3,0.6-2.8,0.6-4.4
			c0-1.6-0.2-3.1-0.6-4.5C23.2,7,22.7,5.9,22,4.9c-0.7-0.9-1.5-1.7-2.5-2.2C18.6,2.2,17.6,2,16.4,2z M16.4,23.4c-1.7,0-3.1-1-4-2.8
			c-0.9-1.9-1.4-4.5-1.4-7.7c0-3.3,0.5-5.9,1.4-7.7c0.9-1.9,2.3-2.8,4-2.8c1.8,0,3.1,1,4,2.8c0.9,1.9,1.4,4.5,1.4,7.7
			c0,3.3-0.5,5.9-1.4,7.7C19.5,22.4,18.1,23.4,16.4,23.4z M16.4,2.4c-1.6,0-2.9,0.9-3.8,2.7c-0.9,1.8-1.3,4.4-1.3,7.6
			c0,3.2,0.4,5.8,1.3,7.6c0.9,1.8,2.1,2.7,3.8,2.7c1.7,0,2.9-0.9,3.8-2.7c0.9-1.8,1.3-4.4,1.3-7.6c0-3.2-0.4-5.8-1.3-7.6
			C19.3,3.4,18,2.4,16.4,2.4z"/>
	</g>
	<g>
		<path class="st0" d="M28.6,21.5l0.2-4.1c0.3,1.1,0.7,2,1.1,2.8c0.4,0.7,0.9,1.3,1.3,1.8c0.5,0.5,1,0.8,1.5,1
			c0.5,0.2,1.1,0.3,1.7,0.3c0.7,0,1.4-0.1,2.1-0.4c0.6-0.3,1.2-0.7,1.6-1.2c0.5-0.5,0.8-1.2,1.1-2c0.3-0.8,0.4-1.7,0.4-2.8
			c0-2-0.4-3.4-1.3-4.3c-0.9-0.9-2.1-1.4-3.7-1.4c-0.9,0-1.8,0.2-2.7,0.5c-0.9,0.3-1.6,0.8-2.1,1.5L29.6,13l0.7-10.9h11l-0.2,2.7
			c-0.3-0.4-0.7-0.7-1.3-0.7c-0.6-0.1-1.5-0.1-2.6-0.1h-6.4l-0.6,8.4c0.5-0.4,1.1-0.8,1.9-1.1c0.8-0.3,1.7-0.5,2.8-0.5
			c1,0,2,0.1,2.9,0.4s1.7,0.7,2.4,1.2c0.7,0.5,1.2,1.2,1.6,1.9c0.4,0.8,0.6,1.6,0.6,2.6c0,0.9-0.2,1.8-0.5,2.7
			c-0.4,0.8-0.9,1.6-1.5,2.2c-0.7,0.6-1.5,1.1-2.5,1.5c-1,0.4-2.1,0.6-3.3,0.6c-1.1,0-2.2-0.2-3.2-0.6
			C30.3,22.7,29.4,22.2,28.6,21.5z"/>
		<path class="st0" d="M34.5,23.8c-1.1,0-2.2-0.2-3.2-0.6c-1-0.4-2-0.9-2.7-1.6l0,0l0-0.1l0.3-4.8l0.2,0.7c0.3,1.1,0.7,2,1.1,2.7
			c0.4,0.7,0.9,1.3,1.3,1.8c0.5,0.4,1,0.8,1.5,0.9c0.5,0.2,1.1,0.3,1.6,0.3c0.7,0,1.4-0.1,2-0.4c0.6-0.3,1.1-0.6,1.6-1.2
			c0.5-0.5,0.8-1.2,1.1-2c0.3-0.8,0.4-1.7,0.4-2.8c0-1.9-0.4-3.4-1.3-4.3c-0.8-0.9-2.1-1.4-3.6-1.4c-0.9,0-1.8,0.2-2.7,0.5
			c-0.8,0.3-1.5,0.8-2,1.5l-0.1,0.1L29.5,13l0-0.1l0.7-11h11.2L41.2,5L41,4.8c-0.3-0.4-0.7-0.6-1.2-0.7C39.2,4,38.3,4,37.2,4h-6.3
			l-0.6,8c0.4-0.4,1-0.7,1.7-1c0.8-0.3,1.8-0.5,2.8-0.5c1,0,2,0.1,2.9,0.4c0.9,0.3,1.7,0.7,2.4,1.2c0.7,0.5,1.2,1.2,1.7,2
			c0.4,0.8,0.6,1.7,0.6,2.6c0,0.9-0.2,1.9-0.6,2.7c-0.4,0.9-0.9,1.6-1.6,2.3c-0.7,0.6-1.5,1.2-2.5,1.5
			C36.9,23.6,35.7,23.8,34.5,23.8z M28.8,21.5c0.8,0.6,1.6,1.1,2.6,1.5c1,0.4,2.1,0.6,3.1,0.6c1.2,0,2.3-0.2,3.2-0.5
			c1-0.4,1.8-0.9,2.4-1.5c0.7-0.6,1.2-1.4,1.5-2.2c0.4-0.8,0.5-1.7,0.5-2.6c0-0.9-0.2-1.8-0.6-2.5c-0.4-0.7-0.9-1.4-1.6-1.9
			c-0.7-0.5-1.5-0.9-2.3-1.2c-0.9-0.3-1.9-0.4-2.8-0.4c-1,0-2,0.2-2.8,0.5c-0.8,0.3-1.4,0.7-1.9,1.1L30,12.5l0.6-8.8h6.5
			c1.2,0,2,0,2.6,0.1c0.5,0.1,0.9,0.2,1.2,0.5l0.2-2.2H30.5l-0.7,10.7l0.1,0.1c0.5-0.7,1.2-1.2,2.1-1.5c0.9-0.3,1.8-0.5,2.7-0.5
			c1.6,0,2.9,0.5,3.8,1.4c0.9,1,1.3,2.4,1.3,4.4c0,1.1-0.1,2-0.4,2.9c-0.3,0.8-0.6,1.5-1.1,2.1c-0.5,0.5-1,1-1.7,1.2
			c-0.6,0.3-1.3,0.4-2.1,0.4c-0.6,0-1.1-0.1-1.7-0.3c-0.6-0.2-1.1-0.5-1.6-1c-0.5-0.5-1-1.1-1.4-1.8c-0.3-0.6-0.6-1.3-0.9-2.1
			L28.8,21.5z"/>
	</g>
	<g>
		<path class="st0" d="M57.2,20.8V4.7c0-0.5,0-0.8-0.1-1.1S57.1,3,57,2.8c-0.1-0.2-0.3-0.4-0.5-0.5c-0.2-0.1-0.5-0.2-0.8-0.3h13.9
			l0.6,5.7c-0.2-1.1-0.6-1.9-1.1-2.6c-0.5-0.7-1-1.2-1.6-1.6c-0.6-0.4-1.2-0.6-1.9-0.8c-0.7-0.1-1.4-0.2-2.2-0.2h-3.9v9.7h2.6
			c1.1,0,1.9-0.1,2.6-0.2c0.7-0.1,1.2-0.3,1.6-0.6c0.4-0.2,0.7-0.5,0.9-0.9c0.2-0.4,0.3-0.8,0.4-1.2l-0.4,6.3c0-0.5-0.1-0.9-0.2-1.2
			c-0.1-0.4-0.4-0.7-0.7-0.9c-0.4-0.2-0.9-0.4-1.5-0.6c-0.7-0.1-1.5-0.2-2.6-0.2h-2.5v8c0,0.9,0.1,1.6,0.4,1.9
			c0.3,0.4,0.7,0.7,1.4,0.9h-5.9c0.7-0.2,1.1-0.5,1.4-0.9C57.1,22.3,57.2,21.7,57.2,20.8z"/>
		<path class="st0" d="M62.2,23.7h-7.7l0.8-0.2c0.6-0.2,1.1-0.4,1.3-0.8c0.3-0.4,0.4-1,0.4-1.9V4.7c0-0.4,0-0.8-0.1-1.1
			c0-0.3-0.1-0.5-0.2-0.7c-0.1-0.2-0.2-0.3-0.4-0.4c-0.2-0.1-0.5-0.2-0.8-0.3l-0.9-0.2h15l0.7,5.8l-0.2,0c-0.2-1.1-0.6-1.9-1-2.6
			c-0.4-0.7-1-1.2-1.5-1.5C67,3.3,66.4,3,65.7,2.9c-0.7-0.1-1.4-0.2-2.2-0.2h-3.8v9.4h2.4c1,0,1.9-0.1,2.6-0.2
			c0.7-0.1,1.2-0.3,1.6-0.5c0.4-0.2,0.7-0.5,0.8-0.9c0.2-0.3,0.3-0.7,0.4-1.2l0.2,0l-0.4,6.3l-0.2,0c0-0.4-0.1-0.8-0.2-1.2
			c-0.1-0.3-0.4-0.6-0.7-0.9c-0.3-0.2-0.8-0.4-1.5-0.6c-0.6-0.1-1.5-0.2-2.6-0.2h-2.4v7.9c0,0.9,0.1,1.5,0.4,1.9
			c0.3,0.4,0.7,0.6,1.3,0.8L62.2,23.7z M56.1,23.4h4.6c-0.4-0.2-0.6-0.4-0.8-0.7c-0.3-0.4-0.4-1.1-0.4-2v-8.1h2.6
			c1.1,0,2,0.1,2.7,0.2c0.7,0.1,1.2,0.3,1.6,0.6c0.4,0.3,0.6,0.6,0.8,1c0,0.1,0.1,0.1,0.1,0.2l0.3-4.3c0,0.1-0.1,0.2-0.1,0.3
			c-0.2,0.4-0.5,0.7-0.9,0.9c-0.4,0.3-1,0.4-1.7,0.6c-0.7,0.1-1.5,0.2-2.6,0.2h-2.7V2.5h4c0.8,0,1.5,0.1,2.2,0.2
			c0.7,0.1,1.4,0.4,2,0.8c0.6,0.4,1.1,0.9,1.6,1.6c0.3,0.4,0.5,0.8,0.7,1.4l-0.5-4.2H56.4c0.1,0,0.1,0.1,0.2,0.1
			c0.2,0.1,0.4,0.3,0.5,0.5c0.1,0.2,0.2,0.5,0.2,0.8c0,0.3,0.1,0.7,0.1,1.1v16.1c0,0.9-0.1,1.6-0.4,2C56.7,23,56.5,23.3,56.1,23.4z"
			/>
	</g>
	<g>
		<path class="st0" d="M73,23.6c0.3-0.1,0.6-0.2,0.8-0.3c0.2-0.1,0.4-0.3,0.5-0.5c0.1-0.2,0.2-0.4,0.2-0.8c0-0.3,0.1-0.7,0.1-1.1
			V9.4c0-0.4,0-0.8,0-1.1c0-0.3-0.1-0.6-0.1-0.9c-0.1-0.2-0.1-0.5-0.3-0.7c-0.1-0.2-0.3-0.4-0.4-0.6l3.1-0.3V10
			c0.2-0.6,0.5-1.1,0.8-1.6c0.3-0.5,0.7-0.9,1.1-1.3c0.4-0.4,0.9-0.7,1.4-0.9C80.7,6.1,81.4,6,82.1,6c0.7,0,1.2,0.1,1.8,0.2l0,3
			c-0.2-0.2-0.4-0.5-0.7-0.7c-0.3-0.2-0.5-0.5-0.8-0.7c-0.3-0.2-0.6-0.4-0.9-0.5c-0.3-0.1-0.6-0.2-1-0.2c-0.4,0-0.8,0.1-1.1,0.3
			c-0.4,0.2-0.7,0.5-1,0.8c-0.3,0.3-0.6,0.7-0.8,1.2c-0.2,0.5-0.5,1-0.6,1.5v10c0,0.4,0,0.8,0.1,1.1c0.1,0.3,0.1,0.6,0.3,0.8
			c0.1,0.2,0.3,0.4,0.5,0.5c0.2,0.1,0.5,0.2,0.8,0.3H73z"/>
		<path class="st0" d="M79.2,23.7h-7l0.7-0.2c0.3-0.1,0.6-0.2,0.8-0.3c0.2-0.1,0.3-0.3,0.5-0.4c0.1-0.2,0.2-0.4,0.2-0.7
			c0-0.3,0.1-0.7,0.1-1.1V9.4c0-0.4,0-0.8,0-1.1c0-0.3-0.1-0.6-0.1-0.8C74.2,7.3,74.1,7,74,6.8c-0.1-0.2-0.2-0.4-0.4-0.6l-0.1-0.2
			l3.5-0.3v3.7c0.2-0.4,0.4-0.8,0.6-1.1c0.3-0.5,0.7-1,1.1-1.3c0.4-0.4,0.9-0.7,1.5-0.9c0.6-0.2,1.2-0.3,1.9-0.3
			c0.7,0,1.3,0.1,1.8,0.2l0.1,0l0,3.4l-0.2-0.3C83.5,9,83.3,8.8,83,8.5c-0.3-0.2-0.5-0.5-0.8-0.7c-0.3-0.2-0.6-0.4-0.9-0.5
			c-0.7-0.3-1.4-0.2-2,0.1c-0.3,0.2-0.7,0.5-0.9,0.8c-0.3,0.3-0.6,0.7-0.8,1.2c-0.2,0.5-0.5,0.9-0.6,1.4v10c0,0.4,0,0.8,0.1,1.1
			c0,0.3,0.1,0.5,0.2,0.7c0.1,0.2,0.3,0.3,0.5,0.5c0.2,0.1,0.4,0.2,0.7,0.3L79.2,23.7z M73.6,23.4h4.3c-0.1,0-0.2-0.1-0.2-0.1
			c-0.2-0.1-0.4-0.3-0.5-0.5c-0.1-0.2-0.2-0.5-0.3-0.8c-0.1-0.3-0.1-0.7-0.1-1.1l0-10.1c0.2-0.5,0.4-1,0.7-1.5
			c0.3-0.5,0.5-0.9,0.8-1.2c0.3-0.3,0.6-0.6,1-0.8c0.7-0.4,1.5-0.4,2.2-0.1c0.3,0.1,0.6,0.3,0.9,0.5c0.3,0.2,0.6,0.4,0.8,0.7
			c0.2,0.2,0.3,0.3,0.5,0.5l0-2.6c-0.5-0.1-1-0.2-1.6-0.2c-0.7,0-1.3,0.1-1.8,0.3c-0.5,0.2-1,0.5-1.4,0.8c-0.4,0.4-0.8,0.8-1.1,1.3
			c-0.3,0.5-0.6,1-0.8,1.6l-0.2,0.5V6l-2.8,0.2c0.1,0.2,0.2,0.3,0.3,0.5c0.1,0.2,0.2,0.5,0.3,0.7c0.1,0.3,0.1,0.5,0.1,0.9
			c0,0.3,0,0.7,0,1.1v11.4c0,0.4,0,0.8-0.1,1.1c0,0.3-0.1,0.6-0.3,0.8c-0.1,0.2-0.3,0.4-0.5,0.5C73.8,23.4,73.7,23.4,73.6,23.4z"/>
	</g>
	<g>
		<path class="st0" d="M94.3,5.9c1.2,0,2.3,0.2,3.2,0.5c0.9,0.4,1.7,0.8,2.3,1.5c0.6,0.6,1,1.4,1.3,2.3c0.3,0.9,0.5,1.8,0.5,2.8h-13
			c0,0.3-0.1,0.6-0.1,0.9c0,0.3,0,0.6,0,1c0,1.2,0.2,2.3,0.5,3.3s0.8,1.9,1.3,2.6c0.6,0.7,1.2,1.3,2,1.7c0.8,0.4,1.6,0.6,2.6,0.6
			c0.8,0,1.6-0.1,2.2-0.4c0.7-0.3,1.3-0.7,1.8-1.3c0.6-0.6,1.1-1.2,1.5-2c0.4-0.8,0.8-1.6,1.2-2.6l-0.3,4.5
			c-0.9,0.8-1.9,1.3-3.1,1.7c-1.2,0.4-2.3,0.5-3.4,0.5c-1.3,0-2.5-0.2-3.6-0.6c-1.1-0.4-2-1-2.8-1.8c-0.8-0.8-1.4-1.7-1.8-2.8
			c-0.4-1.1-0.6-2.3-0.6-3.6c0-1.3,0.2-2.5,0.6-3.6c0.4-1.1,0.9-2,1.7-2.8C89,7.7,89.8,7,90.9,6.6C91.9,6.1,93,5.9,94.3,5.9z
			 M88.7,12.7h10.6c0-0.9-0.1-1.7-0.4-2.5c-0.2-0.8-0.5-1.4-1-2c-0.4-0.6-0.9-1-1.5-1.3c-0.6-0.3-1.3-0.5-2.1-0.5
			c-0.7,0-1.4,0.2-2,0.5c-0.6,0.3-1.2,0.7-1.7,1.3c-0.5,0.6-0.9,1.2-1.2,2C89.1,10.9,88.9,11.7,88.7,12.7z"/>
		<path class="st0" d="M94.9,23.8c-1.3,0-2.5-0.2-3.6-0.6c-1.1-0.4-2.1-1-2.9-1.8c-0.8-0.8-1.4-1.7-1.9-2.8
			c-0.4-1.1-0.7-2.3-0.7-3.7c0-1.3,0.2-2.5,0.6-3.6c0.4-1.1,1-2.1,1.7-2.9c0.7-0.8,1.6-1.5,2.7-1.9c1-0.4,2.2-0.7,3.5-0.7
			c1.2,0,2.3,0.2,3.3,0.5c0.9,0.4,1.7,0.9,2.3,1.5c0.6,0.6,1.1,1.4,1.4,2.3c0.3,0.9,0.5,1.8,0.5,2.9l0,0.1h-13
			c0,0.3-0.1,0.5-0.1,0.8c0,0.3,0,0.6,0,1c0,1.2,0.2,2.3,0.5,3.3c0.3,1,0.8,1.9,1.3,2.6c0.6,0.7,1.2,1.3,2,1.7
			c0.8,0.4,1.6,0.6,2.5,0.6c0.8,0,1.5-0.1,2.2-0.4c0.7-0.3,1.3-0.7,1.8-1.3c0.5-0.5,1-1.2,1.5-2c0.4-0.8,0.8-1.6,1.2-2.5l0.3-0.8
			l-0.3,5.4l0,0c-0.9,0.8-2,1.3-3.1,1.7C97.2,23.6,96,23.8,94.9,23.8z M94.3,6c-1.3,0-2.4,0.2-3.4,0.7c-1,0.4-1.9,1.1-2.6,1.8
			s-1.3,1.7-1.6,2.8s-0.6,2.3-0.6,3.6c0,1.3,0.2,2.5,0.6,3.6c0.4,1.1,1,2,1.8,2.7c0.8,0.7,1.7,1.3,2.8,1.8c2,0.8,4.4,0.9,6.9,0.1
			c1.1-0.3,2.1-0.9,3-1.6l0.2-3.7c-0.3,0.7-0.6,1.3-0.9,1.8c-0.4,0.8-1,1.5-1.5,2c-0.6,0.6-1.2,1-1.9,1.3c-0.7,0.3-1.5,0.5-2.3,0.5
			c-0.9,0-1.8-0.2-2.6-0.6c-0.8-0.4-1.5-1-2.1-1.8c-0.6-0.8-1-1.7-1.3-2.7c-0.3-1-0.5-2.1-0.5-3.3c0-0.3,0-0.7,0-1
			c0-0.3,0.1-0.6,0.1-1l0-0.1h13c0-1-0.2-1.9-0.5-2.7c-0.3-0.8-0.7-1.6-1.3-2.2c-0.6-0.6-1.3-1.1-2.2-1.5C96.6,6.2,95.6,6,94.3,6z
			 M99.4,12.8H88.6l0-0.1c0.1-0.9,0.4-1.8,0.7-2.6c0.3-0.8,0.7-1.5,1.2-2c0.5-0.6,1.1-1,1.7-1.3c0.6-0.3,1.3-0.5,2.1-0.5
			c0.8,0,1.5,0.2,2.1,0.5C97.1,7,97.6,7.5,98,8.1c0.4,0.6,0.7,1.3,1,2c0.2,0.8,0.4,1.6,0.4,2.5L99.4,12.8z M88.8,12.5h10.3
			c0-0.8-0.2-1.6-0.4-2.4c-0.2-0.7-0.5-1.4-0.9-2c-0.4-0.6-0.9-1-1.5-1.3c-0.6-0.3-1.3-0.5-2-0.5c-0.7,0-1.4,0.2-2,0.5
			c-0.6,0.3-1.1,0.7-1.6,1.3c-0.5,0.6-0.9,1.2-1.2,2C89.2,10.9,89,11.7,88.8,12.5z"/>
	</g>
	<g>
		<path class="st0" d="M104.6,23.6c0.3-0.1,0.6-0.2,0.8-0.3c0.2-0.1,0.4-0.3,0.5-0.5c0.1-0.2,0.2-0.4,0.2-0.8c0-0.3,0.1-0.7,0.1-1.1
			V9.4c0-0.4,0-0.8,0-1.1c0-0.3-0.1-0.6-0.1-0.9c-0.1-0.2-0.1-0.5-0.3-0.7c-0.1-0.2-0.3-0.4-0.4-0.6l3.2-0.3v4.9
			c0.5-1.5,1.3-2.7,2.5-3.6c1.1-0.9,2.6-1.3,4.3-1.3c1,0,1.9,0.1,2.6,0.4c0.8,0.3,1.4,0.7,1.9,1.2s0.9,1.1,1.2,1.8
			c0.3,0.7,0.4,1.5,0.4,2.3v9.2c0,0.4,0,0.8,0.1,1.1c0.1,0.3,0.1,0.6,0.3,0.8c0.1,0.2,0.3,0.4,0.5,0.5c0.2,0.1,0.5,0.2,0.8,0.3h-5.5
			c0.3-0.1,0.6-0.2,0.8-0.3c0.2-0.1,0.4-0.3,0.5-0.5c0.1-0.2,0.2-0.4,0.2-0.8c0-0.3,0.1-0.7,0.1-1.1v-9.5c0-1.5-0.4-2.8-1.1-3.6
			c-0.7-0.9-1.8-1.3-3.3-1.3c-0.8,0-1.6,0.1-2.3,0.4c-0.7,0.3-1.4,0.7-2,1.3c-0.6,0.6-1,1.3-1.4,2.1c-0.4,0.8-0.6,1.8-0.6,2.9v7.6
			c0,0.4,0,0.8,0.1,1.1c0.1,0.3,0.1,0.6,0.3,0.8c0.1,0.2,0.3,0.4,0.5,0.5c0.2,0.1,0.5,0.2,0.8,0.3H104.6z"/>
		<path class="st0" d="M123.8,23.7h-7l0.7-0.2c0.3-0.1,0.6-0.2,0.8-0.3c0.2-0.1,0.3-0.3,0.5-0.4c0.1-0.2,0.2-0.4,0.2-0.7
			c0-0.3,0.1-0.7,0.1-1.1v-9.5c0-1.5-0.4-2.7-1.1-3.6c-0.7-0.8-1.8-1.3-3.2-1.3c-0.8,0-1.5,0.1-2.3,0.4c-0.7,0.3-1.4,0.7-1.9,1.3
			c-0.6,0.6-1,1.3-1.4,2.1c-0.4,0.8-0.6,1.8-0.6,2.9l0,7.6c0,0.4,0,0.8,0.1,1.1c0,0.3,0.1,0.5,0.2,0.7c0.1,0.2,0.3,0.3,0.5,0.5
			c0.2,0.1,0.4,0.2,0.7,0.3l0.7,0.2h-7l0.7-0.2c0.3-0.1,0.6-0.2,0.8-0.3c0.2-0.1,0.3-0.3,0.5-0.4c0.1-0.2,0.2-0.4,0.2-0.7
			c0-0.3,0.1-0.7,0.1-1.1V9.4c0-0.4,0-0.8,0-1.1c0-0.3-0.1-0.6-0.1-0.8c-0.1-0.2-0.1-0.5-0.3-0.7c-0.1-0.2-0.2-0.4-0.4-0.6l-0.1-0.2
			l3.5-0.3v4.4c0.5-1.2,1.3-2.3,2.3-3c1.2-0.9,2.6-1.3,4.4-1.3c1,0,1.9,0.1,2.7,0.4c0.8,0.3,1.4,0.7,2,1.2c0.5,0.5,1,1.2,1.2,1.9
			c0.3,0.7,0.4,1.5,0.4,2.4v9.2c0,0.4,0,0.8,0.1,1.1c0,0.3,0.1,0.5,0.2,0.7c0.1,0.2,0.3,0.3,0.5,0.5c0.2,0.1,0.5,0.2,0.8,0.3
			L123.8,23.7z M118.2,23.4h4.3c-0.1,0-0.2-0.1-0.2-0.1c-0.2-0.1-0.4-0.3-0.5-0.5c-0.1-0.2-0.2-0.5-0.3-0.8
			c-0.1-0.3-0.1-0.7-0.1-1.1v-9.2c0-0.8-0.1-1.6-0.4-2.3c-0.3-0.7-0.7-1.3-1.2-1.8c-0.5-0.5-1.1-0.9-1.9-1.2
			c-0.7-0.3-1.6-0.4-2.6-0.4c-1.7,0-3.2,0.4-4.3,1.3c-1.1,0.9-1.9,2-2.4,3.5l-0.2,0.7V6l-2.8,0.2c0.1,0.2,0.2,0.3,0.3,0.5
			c0.1,0.2,0.2,0.5,0.3,0.7c0.1,0.3,0.1,0.5,0.1,0.9c0,0.3,0,0.7,0,1.1v11.4c0,0.4,0,0.8-0.1,1.1c0,0.3-0.1,0.6-0.3,0.8
			c-0.1,0.2-0.3,0.4-0.5,0.5c-0.1,0-0.1,0.1-0.2,0.1h4.3c-0.1,0-0.2-0.1-0.2-0.1c-0.2-0.1-0.4-0.3-0.5-0.5c-0.1-0.2-0.2-0.5-0.3-0.8
			c-0.1-0.3-0.1-0.7-0.1-1.1v-7.6c0.1-1.1,0.3-2.1,0.6-3c0.4-0.9,0.8-1.6,1.4-2.2c0.6-0.6,1.3-1,2-1.3c0.8-0.3,1.5-0.5,2.4-0.5
			c1.5,0,2.6,0.5,3.3,1.4c0.8,0.9,1.1,2.1,1.1,3.7v9.5c0,0.4,0,0.8-0.1,1.1c0,0.3-0.1,0.6-0.3,0.8c-0.1,0.2-0.3,0.4-0.5,0.5
			C118.3,23.4,118.3,23.4,118.2,23.4z"/>
	</g>
	<g>
		<path class="st0" d="M133.9,5.9c1.3,0,2.6,0.2,3.8,0.7c1.2,0.5,2.2,1,3.1,1.7l-1,4.9c-0.1-1.3-0.4-2.4-0.7-3.3
			c-0.4-0.9-0.8-1.6-1.3-2.1c-0.5-0.5-1.1-0.9-1.7-1.1c-0.6-0.2-1.3-0.3-1.9-0.3c-0.9,0-1.7,0.2-2.4,0.6c-0.7,0.4-1.4,1-1.9,1.7
			c-0.5,0.7-0.9,1.6-1.2,2.7c-0.3,1-0.4,2.2-0.4,3.4c0,1.3,0.2,2.4,0.5,3.5c0.3,1.1,0.7,1.9,1.3,2.7c0.6,0.7,1.2,1.3,2,1.7
			c0.8,0.4,1.6,0.6,2.5,0.6c1.6,0,2.9-0.6,4.1-1.8s2.1-2.9,2.6-5.2l-0.2,5.2c-0.5,0.4-1,0.8-1.6,1.1c-0.6,0.3-1.1,0.5-1.7,0.7
			c-0.6,0.2-1.2,0.3-1.7,0.4c-0.6,0.1-1.1,0.1-1.6,0.1c-1.3,0-2.4-0.2-3.5-0.6c-1.1-0.4-2-1-2.8-1.8c-0.8-0.8-1.4-1.7-1.8-2.8
			c-0.4-1.1-0.7-2.3-0.7-3.7c0-1.3,0.2-2.5,0.6-3.6c0.4-1.1,1-2,1.7-2.8c0.7-0.8,1.6-1.4,2.7-1.8S132.7,5.9,133.9,5.9z"/>
		<path class="st0" d="M134.2,23.8c-1.3,0-2.5-0.2-3.5-0.6c-1.1-0.4-2-1-2.8-1.8c-0.8-0.8-1.4-1.8-1.9-2.9c-0.4-1.1-0.7-2.4-0.7-3.7
			c0-1.3,0.2-2.5,0.6-3.6c0.4-1.1,1-2,1.8-2.8c0.8-0.8,1.7-1.4,2.7-1.9c1-0.4,2.2-0.7,3.5-0.7c1.4,0,2.6,0.2,3.8,0.7
			c1.2,0.5,2.2,1.1,3.1,1.8l0.1,0l-1.2,5.7l-0.1-0.8c-0.1-1.3-0.4-2.4-0.7-3.2c-0.4-0.9-0.8-1.6-1.3-2.1c-0.5-0.5-1.1-0.9-1.7-1.1
			c-0.6-0.2-1.3-0.3-1.9-0.3c-0.9,0-1.7,0.2-2.4,0.6c-0.7,0.4-1.3,1-1.8,1.7c-0.5,0.7-0.9,1.6-1.2,2.6c-0.3,1-0.4,2.2-0.4,3.4
			c0,1.3,0.2,2.4,0.5,3.5c0.3,1,0.7,1.9,1.3,2.7c0.5,0.7,1.2,1.3,1.9,1.7c0.7,0.4,1.6,0.6,2.5,0.6c1.5,0,2.9-0.6,4-1.7
			c1.2-1.2,2-2.9,2.6-5.1l0.3-1.1l-0.3,6.3l0,0c-0.5,0.4-1,0.8-1.6,1.1c-0.6,0.3-1.2,0.5-1.7,0.7c-0.6,0.2-1.2,0.3-1.7,0.4
			C135.2,23.8,134.7,23.8,134.2,23.8z M133.9,6c-1.2,0-2.4,0.2-3.4,0.6c-1,0.4-1.9,1-2.6,1.8c-0.7,0.8-1.3,1.7-1.7,2.7
			c-0.4,1.1-0.6,2.2-0.6,3.5c0,1.3,0.2,2.6,0.7,3.7c0.4,1.1,1,2,1.8,2.8c0.8,0.8,1.7,1.4,2.7,1.8c1.1,0.4,2.2,0.6,3.5,0.6
			c0.5,0,1,0,1.5-0.1c0.6-0.1,1.1-0.2,1.7-0.4c0.6-0.2,1.1-0.4,1.7-0.7c0.5-0.3,1-0.6,1.5-1l0.2-4.1c-0.6,1.8-1.4,3.2-2.4,4.2
			c-1.2,1.2-2.6,1.8-4.2,1.8c-0.9,0-1.8-0.2-2.6-0.6c-0.8-0.4-1.5-1-2-1.8c-0.6-0.7-1-1.7-1.3-2.7c-0.3-1.1-0.5-2.2-0.5-3.5
			c0-1.3,0.2-2.4,0.5-3.5c0.3-1,0.7-1.9,1.3-2.7c0.5-0.8,1.2-1.3,1.9-1.8c0.7-0.4,1.6-0.6,2.5-0.6c0.7,0,1.3,0.1,2,0.3
			c0.7,0.2,1.3,0.6,1.8,1.2c0.5,0.5,1,1.3,1.4,2.2c0.3,0.7,0.5,1.6,0.7,2.6l0.9-4.1c-0.9-0.7-1.9-1.2-3-1.7
			C136.5,6.3,135.2,6,133.9,6z"/>
	</g>
	<g>
		<path class="st0" d="M143.8,23.6c0.3-0.1,0.6-0.2,0.8-0.3c0.2-0.1,0.4-0.3,0.5-0.5c0.1-0.2,0.2-0.4,0.2-0.8c0-0.3,0.1-0.7,0.1-1.1
			V2.7c0-0.6-0.1-1.1-0.2-1.4c-0.1-0.3-0.3-0.6-0.6-0.8l3.1-0.4v10.7c0.5-1.5,1.3-2.7,2.5-3.6c1.1-0.9,2.6-1.3,4.3-1.3
			c1,0,1.9,0.1,2.6,0.4s1.4,0.7,1.9,1.2c0.5,0.5,0.9,1.1,1.2,1.8c0.3,0.7,0.4,1.5,0.4,2.3v9.2c0,0.4,0,0.8,0.1,1.1
			c0.1,0.3,0.1,0.6,0.3,0.8c0.1,0.2,0.3,0.4,0.5,0.5c0.2,0.1,0.5,0.2,0.8,0.3h-5.5c0.3-0.1,0.6-0.2,0.8-0.3c0.2-0.1,0.4-0.3,0.5-0.5
			c0.1-0.2,0.2-0.4,0.2-0.8c0-0.3,0.1-0.7,0.1-1.1v-9.5c0-1.5-0.4-2.8-1.1-3.6c-0.7-0.9-1.8-1.3-3.2-1.3c-0.8,0-1.6,0.1-2.3,0.4
			c-0.7,0.3-1.4,0.7-2,1.3c-0.6,0.6-1,1.3-1.4,2.1c-0.4,0.8-0.6,1.8-0.6,2.9v7.6c0,0.4,0,0.8,0.1,1.1c0.1,0.3,0.1,0.6,0.3,0.8
			c0.1,0.2,0.3,0.4,0.5,0.5c0.2,0.1,0.5,0.2,0.8,0.3H143.8z"/>
		<path class="st0" d="M163,23.7h-7l0.7-0.2c0.3-0.1,0.6-0.2,0.8-0.3c0.2-0.1,0.3-0.3,0.5-0.4c0.1-0.2,0.2-0.4,0.2-0.7
			c0-0.3,0.1-0.7,0.1-1.1v-9.5c0-1.5-0.4-2.7-1.1-3.6c-0.7-0.8-1.8-1.3-3.2-1.3c-0.8,0-1.6,0.1-2.3,0.4c-0.7,0.3-1.4,0.7-1.9,1.3
			c-0.6,0.6-1,1.3-1.4,2.1c-0.4,0.8-0.6,1.8-0.6,2.9l0,7.6c0,0.4,0,0.8,0.1,1.1c0,0.3,0.1,0.5,0.2,0.7c0.1,0.2,0.3,0.3,0.5,0.5
			c0.2,0.1,0.4,0.2,0.8,0.3l0.7,0.2h-7l0.7-0.2c0.3-0.1,0.6-0.2,0.8-0.3c0.2-0.1,0.3-0.3,0.5-0.4c0.1-0.2,0.2-0.4,0.2-0.7
			c0-0.3,0.1-0.7,0.1-1.1V2.7c0-0.6,0-1.1-0.1-1.4c-0.1-0.3-0.3-0.5-0.6-0.8l-0.2-0.2l3.5-0.4v10.2c0.5-1.2,1.3-2.3,2.3-3
			c1.2-0.9,2.6-1.3,4.4-1.3c1,0,1.9,0.1,2.7,0.4c0.8,0.3,1.4,0.7,2,1.2c0.5,0.5,1,1.2,1.2,1.9c0.3,0.7,0.4,1.5,0.4,2.4v9.2
			c0,0.4,0,0.8,0.1,1.1c0,0.3,0.1,0.5,0.2,0.7c0.1,0.2,0.3,0.3,0.5,0.5c0.2,0.1,0.4,0.2,0.7,0.3L163,23.7z M157.4,23.4h4.3
			c-0.1,0-0.2-0.1-0.2-0.1c-0.2-0.1-0.4-0.3-0.5-0.5c-0.1-0.2-0.2-0.5-0.3-0.8c-0.1-0.3-0.1-0.7-0.1-1.1v-9.2c0-0.8-0.1-1.6-0.4-2.3
			c-0.3-0.7-0.7-1.3-1.2-1.8c-0.5-0.5-1.1-0.9-1.9-1.2c-0.7-0.3-1.6-0.4-2.6-0.4c-1.7,0-3.2,0.4-4.3,1.3c-1.1,0.9-1.9,2-2.4,3.5
			l-0.2,0.7V0.3l-2.7,0.3c0.2,0.2,0.4,0.4,0.5,0.7c0.1,0.3,0.2,0.8,0.2,1.4v18.2c0,0.4,0,0.8-0.1,1.1c0,0.3-0.1,0.6-0.3,0.8
			c-0.1,0.2-0.3,0.4-0.5,0.5c-0.1,0-0.1,0.1-0.2,0.1h4.3c-0.1,0-0.2-0.1-0.2-0.1c-0.2-0.1-0.4-0.3-0.5-0.5c-0.1-0.2-0.2-0.5-0.3-0.8
			c-0.1-0.3-0.1-0.7-0.1-1.1v-7.6c0.1-1.1,0.3-2.1,0.6-3c0.4-0.9,0.8-1.6,1.4-2.2s1.3-1,2-1.3c0.8-0.3,1.5-0.5,2.4-0.5
			c1.5,0,2.6,0.5,3.3,1.4c0.8,0.9,1.1,2.1,1.1,3.7v9.5c0,0.4,0,0.8-0.1,1.1c0,0.3-0.1,0.6-0.3,0.8c-0.1,0.2-0.3,0.4-0.5,0.5
			C157.6,23.4,157.5,23.4,157.4,23.4z"/>
	</g>
	<g>
		<path class="st0" d="M174.6,23.6c0.7-0.2,1.1-0.5,1.3-0.8c0.2-0.4,0.3-1,0.3-1.9V4.8c0-0.5,0-0.8-0.1-1.1
			c-0.1-0.3-0.1-0.6-0.3-0.8c-0.1-0.2-0.3-0.4-0.5-0.5c-0.2-0.1-0.5-0.2-0.8-0.3h7.1c2.4,0,4.4,0.4,5.8,1.3c1.4,0.9,2.1,2.1,2.1,3.8
			c0,1.4-0.5,2.5-1.5,3.4c-1,0.9-2.5,1.6-4.3,1.9c2.1,0.2,3.7,0.8,4.8,1.7c1.2,0.9,1.7,2.1,1.7,3.5c0,0.9-0.2,1.8-0.6,2.5
			c-0.4,0.7-0.9,1.3-1.6,1.8c-0.7,0.5-1.5,0.9-2.5,1.2c-1,0.3-2.1,0.4-3.3,0.4H174.6z M178.7,12.3h3.3c1.6,0,2.9-0.5,3.8-1.4
			c0.9-0.9,1.4-2.1,1.4-3.6c0-1.5-0.5-2.7-1.5-3.6c-1-0.8-2.5-1.2-4.3-1.2h-2.7V12.3z M178.7,23.1h3.3c1.9,0,3.3-0.5,4.3-1.4
			c1-0.9,1.5-2.2,1.5-3.9c0-1.6-0.5-2.9-1.6-3.7c-1-0.9-2.4-1.3-4.2-1.3h-3.4V23.1z"/>
		<path class="st0" d="M182.4,23.7h-8.7l0.8-0.2c0.6-0.2,1.1-0.4,1.3-0.8c0.2-0.4,0.3-1,0.3-1.8V4.8c0-0.4,0-0.8-0.1-1.1
			c0-0.3-0.1-0.5-0.2-0.7c-0.1-0.2-0.3-0.3-0.5-0.5c-0.2-0.1-0.5-0.2-0.8-0.3l-0.9-0.2h8c2.4,0,4.4,0.4,5.8,1.3
			c1.5,0.9,2.2,2.2,2.2,3.9c0,1.4-0.5,2.6-1.6,3.5c-0.9,0.8-2.2,1.4-3.7,1.8c1.8,0.3,3.2,0.8,4.2,1.6c1.2,0.9,1.8,2.1,1.8,3.6
			c0,0.9-0.2,1.8-0.6,2.5c-0.4,0.7-0.9,1.4-1.6,1.9c-0.7,0.5-1.5,0.9-2.5,1.2C184.8,23.5,183.7,23.7,182.4,23.7z M175.3,23.4h7.1
			c1.2,0,2.3-0.1,3.3-0.4c1-0.3,1.8-0.6,2.5-1.1c0.7-0.5,1.2-1.1,1.5-1.8c0.4-0.7,0.5-1.5,0.5-2.4c0-1.4-0.6-2.5-1.7-3.4
			c-1.1-0.9-2.8-1.5-4.8-1.7l-0.8-0.1l0.8-0.1c1.8-0.3,3.2-0.9,4.2-1.9c1-0.9,1.5-2,1.5-3.3c0-1.6-0.7-2.8-2.1-3.7
			c-1.4-0.9-3.3-1.3-5.7-1.3h-6.4c0.1,0,0.1,0.1,0.2,0.1c0.2,0.1,0.4,0.3,0.6,0.6c0.1,0.2,0.2,0.5,0.3,0.8c0.1,0.3,0.1,0.7,0.1,1.2
			v16.1c0,0.9-0.1,1.6-0.4,1.9C175.9,23,175.7,23.3,175.3,23.4z M182,23.2h-3.4V12.6h3.6c1.8,0,3.2,0.5,4.3,1.3
			c1.1,0.9,1.6,2.2,1.6,3.8c0,1.7-0.5,3-1.6,4C185.3,22.7,183.9,23.2,182,23.2z M178.8,22.9h3.2c1.8,0,3.2-0.5,4.3-1.4
			c1-0.9,1.5-2.2,1.5-3.8c0-1.6-0.5-2.8-1.5-3.6c-1-0.9-2.4-1.3-4.1-1.3h-3.3V22.9z M182,12.4h-3.4v-10h2.8c1.9,0,3.4,0.4,4.4,1.3
			c1,0.8,1.6,2.1,1.6,3.7c0,1.5-0.5,2.7-1.4,3.6C184.9,11.9,183.6,12.4,182,12.4z M178.8,12.1h3.2c1.5,0,2.8-0.4,3.7-1.3
			c0.9-0.9,1.4-2,1.4-3.5c0-1.5-0.5-2.7-1.5-3.5c-1-0.8-2.4-1.2-4.2-1.2h-2.5V12.1z"/>
	</g>
	<g>
		<path class="st0" d="M193.3,23.6c0.3-0.1,0.6-0.2,0.8-0.3c0.2-0.1,0.4-0.3,0.5-0.5c0.1-0.2,0.2-0.4,0.2-0.8c0-0.3,0.1-0.7,0.1-1.1
			V9.4c0-0.4,0-0.8,0-1.1c0-0.3-0.1-0.6-0.1-0.9c-0.1-0.2-0.1-0.5-0.3-0.7c-0.1-0.2-0.3-0.4-0.4-0.6l3.1-0.3V10
			c0.2-0.6,0.5-1.1,0.8-1.6c0.3-0.5,0.7-0.9,1.1-1.3c0.4-0.4,0.9-0.7,1.4-0.9c0.5-0.2,1.2-0.3,1.9-0.3c0.7,0,1.2,0.1,1.8,0.2l0,3
			c-0.2-0.2-0.4-0.5-0.7-0.7c-0.3-0.2-0.5-0.5-0.8-0.7c-0.3-0.2-0.6-0.4-0.9-0.5c-0.3-0.1-0.6-0.2-1-0.2c-0.4,0-0.8,0.1-1.1,0.3
			c-0.4,0.2-0.7,0.5-1,0.8c-0.3,0.3-0.6,0.7-0.8,1.2c-0.2,0.5-0.5,1-0.6,1.5v10c0,0.4,0,0.8,0.1,1.1s0.1,0.6,0.3,0.8
			c0.1,0.2,0.3,0.4,0.5,0.5c0.2,0.1,0.5,0.2,0.8,0.3H193.3z"/>
		<path class="st0" d="M199.5,23.7h-7l0.7-0.2c0.3-0.1,0.6-0.2,0.8-0.3c0.2-0.1,0.3-0.3,0.5-0.4c0.1-0.2,0.2-0.4,0.2-0.7
			c0-0.3,0.1-0.7,0.1-1.1V9.4c0-0.4,0-0.8,0-1.1c0-0.3-0.1-0.6-0.1-0.8c-0.1-0.2-0.1-0.5-0.3-0.7c-0.1-0.2-0.2-0.4-0.4-0.6l-0.1-0.2
			l3.5-0.3v3.7c0.2-0.4,0.4-0.8,0.6-1.1c0.3-0.5,0.7-0.9,1.1-1.3c0.4-0.4,0.9-0.7,1.5-0.9c0.6-0.2,1.2-0.3,1.9-0.3
			c0.7,0,1.3,0.1,1.8,0.2l0.1,0l0,3.4L204,9.2c-0.2-0.2-0.4-0.5-0.7-0.7c-0.3-0.2-0.5-0.5-0.8-0.7c-0.3-0.2-0.6-0.4-0.9-0.5
			c-0.7-0.3-1.4-0.2-2,0.1c-0.3,0.2-0.7,0.5-0.9,0.8c-0.3,0.3-0.6,0.7-0.8,1.2c-0.2,0.5-0.5,0.9-0.6,1.4v10c0,0.4,0,0.8,0.1,1.1
			c0,0.3,0.1,0.5,0.2,0.7c0.1,0.2,0.3,0.3,0.5,0.5c0.2,0.1,0.4,0.2,0.7,0.3L199.5,23.7z M193.9,23.4h4.3c-0.1,0-0.2-0.1-0.2-0.1
			c-0.2-0.1-0.4-0.3-0.5-0.5c-0.1-0.2-0.2-0.5-0.3-0.8c-0.1-0.3-0.1-0.7-0.1-1.1l0-10.1c0.2-0.5,0.4-1,0.7-1.5
			c0.3-0.5,0.5-0.9,0.8-1.2c0.3-0.3,0.6-0.6,1-0.8c0.7-0.4,1.5-0.4,2.2-0.1c0.3,0.1,0.6,0.3,0.9,0.5c0.3,0.2,0.6,0.4,0.8,0.7
			c0.2,0.2,0.3,0.3,0.5,0.5l0-2.6c-0.5-0.1-1-0.2-1.6-0.2c-0.7,0-1.3,0.1-1.8,0.3c-0.5,0.2-1,0.5-1.4,0.8c-0.4,0.4-0.8,0.8-1.1,1.3
			c-0.3,0.5-0.6,1-0.8,1.6l-0.2,0.5V6l-2.8,0.2c0.1,0.2,0.2,0.3,0.3,0.5c0.1,0.2,0.2,0.5,0.3,0.7c0.1,0.3,0.1,0.5,0.1,0.9
			c0,0.3,0,0.7,0,1.1v11.4c0,0.4,0,0.8-0.1,1.1c0,0.3-0.1,0.6-0.3,0.8c-0.1,0.2-0.3,0.4-0.5,0.5C194.1,23.4,194,23.4,193.9,23.4z"/>
	</g>
	<g>
		<path class="st0" d="M215.2,5.9c1.3,0,2.5,0.2,3.6,0.6c1.1,0.4,2,1,2.8,1.8c0.8,0.8,1.4,1.7,1.8,2.8s0.6,2.3,0.6,3.6v0
			c0,1.3-0.2,2.5-0.6,3.6c-0.4,1.1-1,2-1.8,2.8c-0.8,0.8-1.7,1.4-2.8,1.8c-1.1,0.4-2.3,0.7-3.6,0.7c-1.3,0-2.5-0.2-3.6-0.7
			c-1.1-0.4-2-1-2.8-1.8c-0.8-0.8-1.4-1.7-1.8-2.8c-0.4-1.1-0.6-2.3-0.6-3.6v0c0-1.3,0.2-2.5,0.6-3.6c0.4-1.1,1-2,1.8-2.8
			c0.8-0.8,1.7-1.4,2.8-1.8C212.7,6.1,213.9,5.9,215.2,5.9z M208.8,14.8c0,1.2,0.2,2.4,0.5,3.4c0.3,1,0.7,1.9,1.3,2.7
			c0.6,0.8,1.2,1.3,2,1.7c0.8,0.4,1.7,0.6,2.6,0.6s1.8-0.2,2.6-0.6c0.8-0.4,1.5-1,2-1.7c0.6-0.8,1-1.6,1.3-2.7
			c0.3-1,0.5-2.2,0.5-3.4s-0.2-2.4-0.5-3.4c-0.3-1-0.7-1.9-1.3-2.7c-0.6-0.7-1.2-1.3-2-1.7c-0.8-0.4-1.7-0.6-2.6-0.6
			s-1.8,0.2-2.6,0.6c-0.8,0.4-1.5,1-2,1.7c-0.6,0.7-1,1.6-1.3,2.7C209,12.4,208.8,13.6,208.8,14.8z"/>
		<path class="st0" d="M215.2,23.8c-1.3,0-2.6-0.2-3.6-0.7c-1.1-0.4-2-1.1-2.8-1.9c-0.8-0.8-1.4-1.8-1.9-2.9
			c-0.4-1.1-0.7-2.3-0.7-3.6v0c0-1.3,0.2-2.5,0.7-3.6c0.4-1.1,1.1-2.1,1.9-2.9c0.8-0.8,1.7-1.4,2.8-1.9c1.1-0.4,2.3-0.7,3.6-0.7
			c1.3,0,2.6,0.2,3.6,0.7c1.1,0.4,2,1.1,2.8,1.9c0.8,0.8,1.4,1.8,1.9,2.9c0.4,1.1,0.7,2.3,0.7,3.6v0c0,1.3-0.2,2.5-0.7,3.6
			c-0.4,1.1-1.1,2.1-1.9,2.9c-0.8,0.8-1.7,1.4-2.8,1.9C217.8,23.6,216.5,23.8,215.2,23.8z M215.2,6c-1.3,0-2.5,0.2-3.6,0.6
			c-1.1,0.4-2,1-2.8,1.8c-0.8,0.8-1.4,1.7-1.8,2.8c-0.4,1.1-0.6,2.3-0.6,3.5v0c0,1.3,0.2,2.5,0.6,3.5c0.4,1.1,1,2,1.8,2.8
			c0.8,0.8,1.7,1.4,2.8,1.8c1.1,0.4,2.3,0.6,3.6,0.6c1.3,0,2.5-0.2,3.6-0.6c1.1-0.4,2-1,2.8-1.8c0.8-0.8,1.4-1.7,1.8-2.8
			c0.4-1.1,0.6-2.2,0.6-3.5v0c0-1.3-0.2-2.5-0.6-3.5c-0.4-1.1-1-2-1.8-2.8c-0.8-0.8-1.7-1.4-2.8-1.8C217.7,6.3,216.5,6,215.2,6z
			 M215.2,23.4c-1,0-1.9-0.2-2.7-0.6c-0.8-0.4-1.5-1-2.1-1.8c-0.6-0.8-1-1.7-1.3-2.7c-0.3-1-0.5-2.2-0.5-3.4s0.2-2.4,0.5-3.4
			c0.3-1,0.8-1.9,1.3-2.7c0.6-0.8,1.3-1.3,2.1-1.8c0.8-0.4,1.7-0.6,2.7-0.6c1,0,1.9,0.2,2.7,0.6c0.8,0.4,1.5,1,2.1,1.8
			c0.6,0.8,1,1.7,1.3,2.7c0.3,1,0.5,2.2,0.5,3.4s-0.2,2.4-0.5,3.4c-0.3,1-0.8,2-1.3,2.7c-0.6,0.8-1.3,1.4-2.1,1.8
			C217.1,23.2,216.2,23.4,215.2,23.4z M215.2,6.5c-0.9,0-1.8,0.2-2.5,0.6c-0.8,0.4-1.4,1-2,1.7c-0.5,0.7-1,1.6-1.3,2.6
			c-0.3,1-0.5,2.2-0.5,3.4s0.2,2.4,0.5,3.4c0.3,1,0.7,1.9,1.3,2.6c0.5,0.7,1.2,1.3,2,1.7c0.8,0.4,1.6,0.6,2.5,0.6
			c0.9,0,1.8-0.2,2.5-0.6c0.8-0.4,1.4-1,2-1.7c0.5-0.7,1-1.6,1.3-2.6c0.3-1,0.5-2.1,0.5-3.4s-0.2-2.4-0.5-3.4
			c-0.3-1-0.7-1.9-1.3-2.6c-0.5-0.7-1.2-1.3-2-1.7C217,6.7,216.1,6.5,215.2,6.5z"/>
	</g>
	<g>
		<path class="st0" d="M230,6.1c-0.2,0.1-0.3,0.4-0.4,0.6c-0.1,0.3-0.1,0.7,0.2,1.3l4.3,12.1l4.4-14h0.2l5.6,14.2l3.4-10.4
			c0.3-0.8,0.4-1.5,0.5-2c0-0.5,0-0.8-0.1-1.1c-0.1-0.3-0.2-0.4-0.4-0.5c-0.1-0.1-0.3-0.2-0.4-0.2h3c-0.3,0.2-0.6,0.4-0.9,0.8
			c-0.3,0.3-0.6,1-0.9,1.9l-4.8,14.9h-0.4l-5.5-14l-4.4,14h-0.4l-5.4-14.8c-0.4-0.9-0.6-1.6-0.9-2c-0.2-0.4-0.5-0.6-0.7-0.7H230z"/>
		<path class="st0" d="M243.9,23.7h-0.5l0-0.1l-5.4-13.7l-4.3,13.8H233l0-0.1l-5.4-14.8c-0.3-0.9-0.6-1.6-0.9-2
			c-0.2-0.4-0.4-0.6-0.6-0.7L225.7,6h4.7l-0.3,0.2c-0.2,0.1-0.3,0.3-0.4,0.6c-0.1,0.2-0.1,0.5,0.2,1.2l4.2,11.7l4.3-13.8h0.4l0,0.1
			l5.5,13.9l3.3-10.1c0.3-0.8,0.4-1.5,0.5-2c0-0.5,0-0.8-0.1-1c-0.1-0.2-0.2-0.4-0.3-0.4c-0.1-0.1-0.3-0.2-0.4-0.2L247,6h3.9
			l-0.4,0.2c-0.3,0.2-0.6,0.4-0.9,0.7c-0.3,0.3-0.6,0.9-0.9,1.8L243.9,23.7z M243.5,23.4h0.2l4.8-14.8c0.3-0.9,0.6-1.6,0.9-1.9
			c0.2-0.2,0.4-0.4,0.6-0.6h-2.2c0.2,0.1,0.3,0.3,0.4,0.6c0.1,0.3,0.1,0.7,0.1,1.1c0,0.5-0.2,1.2-0.5,2l-3.5,10.7l-5.7-14.4h-0.1
			l-4.5,14.3L229.6,8c-0.2-0.6-0.3-1.1-0.2-1.4c0.1-0.2,0.2-0.3,0.3-0.5h-3.2c0.1,0.1,0.3,0.3,0.4,0.6c0.3,0.4,0.6,1.1,0.9,2
			l5.3,14.7h0.2l4.5-14.2L243.5,23.4z"/>
	</g>
	<g>
		<path class="st0" d="M252.3,23.6c0.3-0.1,0.6-0.2,0.8-0.3c0.2-0.1,0.4-0.3,0.5-0.5c0.1-0.2,0.2-0.4,0.2-0.8c0-0.3,0.1-0.7,0.1-1.1
			V9.4c0-0.4,0-0.8,0-1.1c0-0.3-0.1-0.6-0.1-0.9c-0.1-0.2-0.1-0.5-0.3-0.7c-0.1-0.2-0.3-0.4-0.4-0.6l3.2-0.3v4.9
			c0.5-1.5,1.3-2.7,2.5-3.6c1.1-0.9,2.6-1.3,4.3-1.3c1,0,1.9,0.1,2.6,0.4c0.8,0.3,1.4,0.7,1.9,1.2s0.9,1.1,1.2,1.8
			c0.3,0.7,0.4,1.5,0.4,2.3v9.2c0,0.4,0,0.8,0.1,1.1c0.1,0.3,0.1,0.6,0.3,0.8c0.1,0.2,0.3,0.4,0.5,0.5c0.2,0.1,0.5,0.2,0.8,0.3h-5.5
			c0.3-0.1,0.6-0.2,0.8-0.3c0.2-0.1,0.4-0.3,0.5-0.5c0.1-0.2,0.2-0.4,0.2-0.8c0-0.3,0.1-0.7,0.1-1.1v-9.5c0-1.5-0.4-2.8-1.1-3.6
			c-0.7-0.9-1.8-1.3-3.3-1.3c-0.8,0-1.6,0.1-2.3,0.4c-0.7,0.3-1.4,0.7-2,1.3c-0.6,0.6-1,1.3-1.4,2.1c-0.4,0.8-0.6,1.8-0.6,2.9v7.6
			c0,0.4,0,0.8,0.1,1.1c0.1,0.3,0.1,0.6,0.3,0.8c0.1,0.2,0.3,0.4,0.5,0.5c0.2,0.1,0.5,0.2,0.8,0.3H252.3z"/>
		<path class="st0" d="M271.6,23.7h-7l0.7-0.2c0.3-0.1,0.6-0.2,0.8-0.3c0.2-0.1,0.3-0.3,0.5-0.4c0.1-0.2,0.2-0.4,0.2-0.7
			c0-0.3,0.1-0.7,0.1-1.1v-9.5c0-1.5-0.4-2.7-1.1-3.6C265,7,264,6.6,262.6,6.6c-0.8,0-1.5,0.1-2.3,0.4c-0.7,0.3-1.4,0.7-1.9,1.3
			c-0.6,0.6-1,1.3-1.4,2.1c-0.4,0.8-0.6,1.8-0.6,2.9l0,7.6c0,0.4,0,0.8,0.1,1.1c0,0.3,0.1,0.5,0.2,0.7c0.1,0.2,0.3,0.3,0.5,0.5
			c0.2,0.1,0.4,0.2,0.7,0.3l0.7,0.2h-7l0.7-0.2c0.3-0.1,0.6-0.2,0.8-0.3c0.2-0.1,0.3-0.3,0.5-0.4c0.1-0.2,0.2-0.4,0.2-0.7
			c0-0.3,0.1-0.7,0.1-1.1V9.4c0-0.4,0-0.8,0-1.1c0-0.3-0.1-0.6-0.1-0.8c-0.1-0.2-0.1-0.5-0.3-0.7c-0.1-0.2-0.2-0.4-0.4-0.6l-0.1-0.2
			l3.5-0.3v4.4c0.5-1.2,1.3-2.3,2.3-3c1.2-0.9,2.6-1.3,4.4-1.3c1,0,1.9,0.1,2.7,0.4c0.8,0.3,1.4,0.7,2,1.2c0.5,0.5,1,1.2,1.2,1.9
			c0.3,0.7,0.4,1.5,0.4,2.4v9.2c0,0.4,0,0.8,0.1,1.1c0,0.3,0.1,0.5,0.2,0.7c0.1,0.2,0.3,0.3,0.5,0.5c0.2,0.1,0.5,0.2,0.8,0.3
			L271.6,23.7z M266,23.4h4.3c-0.1,0-0.2-0.1-0.2-0.1c-0.2-0.1-0.4-0.3-0.5-0.5c-0.1-0.2-0.2-0.5-0.3-0.8c-0.1-0.3-0.1-0.7-0.1-1.1
			v-9.2c0-0.8-0.1-1.6-0.4-2.3c-0.3-0.7-0.7-1.3-1.2-1.8c-0.5-0.5-1.1-0.9-1.9-1.2C264.9,6.2,264,6,263.1,6c-1.7,0-3.2,0.4-4.3,1.3
			c-1.1,0.9-1.9,2-2.4,3.5l-0.2,0.7V6l-2.8,0.2c0.1,0.2,0.2,0.3,0.3,0.5c0.1,0.2,0.2,0.5,0.3,0.7c0.1,0.3,0.1,0.5,0.1,0.9
			c0,0.3,0,0.7,0,1.1v11.4c0,0.4,0,0.8-0.1,1.1c0,0.3-0.1,0.6-0.3,0.8c-0.1,0.2-0.3,0.4-0.5,0.5c-0.1,0-0.1,0.1-0.2,0.1h4.3
			c-0.1,0-0.2-0.1-0.2-0.1c-0.2-0.1-0.4-0.3-0.5-0.5c-0.1-0.2-0.2-0.5-0.3-0.8c-0.1-0.3-0.1-0.7-0.1-1.1v-7.6c0.1-1.1,0.3-2.1,0.6-3
			c0.4-0.9,0.8-1.6,1.4-2.2c0.6-0.6,1.3-1,2-1.3c0.8-0.3,1.5-0.5,2.4-0.5c1.5,0,2.6,0.5,3.3,1.4c0.8,0.9,1.1,2.1,1.1,3.7v9.5
			c0,0.4,0,0.8-0.1,1.1c0,0.3-0.1,0.6-0.3,0.8c-0.1,0.2-0.3,0.4-0.5,0.5C266.1,23.4,266.1,23.4,266,23.4z"/>
	</g>
</g>
</svg>
