<?xml version="1.0" encoding="utf-8"?>
<!-- Generator: Adobe Illustrator 25.4.1, SVG Export Plug-In . SVG Version: 6.00 Build 0)  -->
<svg version="1.1" id="レイヤー_1" xmlns="http://www.w3.org/2000/svg" xmlns:xlink="http://www.w3.org/1999/xlink" x="0px"
	 y="0px" viewBox="0 0 98 43" style="enable-background:new 0 0 98 43;" xml:space="preserve">
<style type="text/css">
	.st0{fill:#FFFFFF;}
</style>
<g>
	<g>
		<path class="st0" d="M27.9,16.2c0.7,0.5,1.3,1.3,1.8,2.2c0.4,1,0.7,2.1,0.7,3.4c0,1.8-0.4,3.3-1.1,4.5c-0.7,1.2-1.6,2.1-2.6,2.6
			c-1.1,0.6-2.1,0.8-3.2,0.8c-0.6,0-1.2-0.1-1.6-0.2c-0.5-0.1-1-0.3-1.5-0.5v7c0,0.7,0.1,1.2,0.2,1.5c0.1,0.3,0.4,0.6,0.9,0.7
			c0.4,0.1,1.1,0.2,2,0.2c0.1,0,0.1,0.1,0.1,0.2c0,0.1,0,0.2-0.1,0.2c-0.7,0-1.3,0-1.7,0l-2.4,0l-1.8,0c-0.3,0-0.7,0-1.2,0
			c-0.1,0-0.1-0.1-0.1-0.2c0-0.1,0-0.2,0.1-0.2c0.5,0,1-0.1,1.2-0.2c0.3-0.1,0.5-0.4,0.6-0.7s0.1-0.8,0.1-1.5V19.8
			c0-0.8-0.1-1.4-0.3-1.7c-0.2-0.4-0.5-0.5-0.9-0.5s-0.9,0.2-1.6,0.5h0c-0.1,0-0.2-0.1-0.2-0.2c-0.1-0.1,0-0.2,0-0.2l3.8-2l0.2-0.1
			c0.3,0,0.5,0.2,0.7,0.7c0.2,0.5,0.3,1.1,0.4,1.9c1.7-1.8,3.4-2.8,5.1-2.8C26.3,15.4,27.1,15.7,27.9,16.2z M26.9,27.5
			c0.7-1.1,1-2.6,1-4.5c0-1.9-0.4-3.4-1.1-4.4s-1.7-1.6-2.9-1.6c-0.7,0-1.3,0.2-1.8,0.5c-0.6,0.3-1.1,0.8-1.7,1.4V27
			c0.5,0.7,1.1,1.2,1.7,1.5s1.4,0.5,2.2,0.5C25.4,29.1,26.3,28.5,26.9,27.5z"/>
		<path class="st0" d="M43.8,27.3c0.1,0,0.1,0,0.2,0.1c0.1,0.1,0.1,0.2,0,0.2c-0.7,0.7-1.5,1.3-2.3,1.6c-0.8,0.3-1.6,0.5-2.5,0.5
			c-1.3,0-2.3-0.3-3.3-0.9c-0.9-0.6-1.6-1.4-2.1-2.5c-0.5-1-0.7-2.1-0.7-3.3c0-1.4,0.3-2.6,0.9-3.8c0.6-1.2,1.4-2.1,2.5-2.7
			s2.2-1,3.5-1c1.2,0,2.1,0.3,2.7,0.9c0.7,0.6,1,1.5,1,2.5c0,0.6-0.1,0.9-0.3,0.9h-1.5L35.7,20c-0.1,0.5-0.1,1-0.1,1.7
			c0,2,0.4,3.6,1.3,4.9c0.9,1.2,2.1,1.9,3.6,1.9C41.7,28.4,42.8,28,43.8,27.3L43.8,27.3z M37,17.1c-0.5,0.5-0.9,1.3-1.2,2.3l5.4-0.1
			c0-0.9-0.2-1.7-0.6-2.2c-0.4-0.5-0.9-0.8-1.6-0.8C38.2,16.2,37.5,16.5,37,17.1z"/>
		<path class="st0" d="M55.9,16c0.4,0.3,0.6,0.7,0.6,1.1c0,0.4-0.1,0.6-0.3,0.9s-0.5,0.4-0.9,0.4c-0.2,0-0.4,0-0.5-0.1
			c-0.1-0.1-0.3-0.2-0.4-0.3c-0.1-0.1-0.2-0.2-0.2-0.2c-0.2-0.2-0.3-0.3-0.5-0.4c-0.2-0.1-0.4-0.2-0.6-0.2c-0.3,0-0.5,0.1-0.8,0.3
			c-0.3,0.2-0.7,0.7-1.3,1.5v7.5c0,0.7,0.1,1.2,0.2,1.5c0.2,0.3,0.4,0.6,0.9,0.7c0.4,0.1,1.1,0.2,1.9,0.2c0.1,0,0.1,0.1,0.1,0.2
			c0,0.1,0,0.2-0.1,0.2c-0.7,0-1.3,0-1.7,0l-2.4,0l-1.8,0c-0.3,0-0.7,0-1.2,0c-0.1,0-0.1-0.1-0.1-0.2c0-0.1,0-0.2,0.1-0.2
			c0.8,0,1.3-0.2,1.5-0.5c0.2-0.3,0.4-1,0.4-1.9v-6.8c0-0.8-0.1-1.3-0.2-1.7c-0.2-0.3-0.4-0.5-0.8-0.5c-0.4,0-1,0.2-1.7,0.5h-0.1
			C46,18,46,18,45.9,17.9c0-0.1,0-0.2,0-0.2l3.9-2.1c0,0,0.1,0,0.2,0c0.2,0,0.4,0.3,0.6,0.8c0.2,0.5,0.3,1.2,0.3,2
			c0.9-1.1,1.5-1.8,2.1-2.2c0.5-0.4,1-0.6,1.5-0.6C55.1,15.5,55.5,15.7,55.9,16z"/>
		<path class="st0" d="M62,19.7c0.5,0.5,1.2,1,2,1.5c0.8,0.4,1.3,0.8,1.8,1.1c0.4,0.3,0.8,0.7,1.1,1.2c0.3,0.5,0.4,1.1,0.4,1.8
			c0,1.2-0.4,2.2-1.2,3.1c-0.8,0.9-1.9,1.3-3.3,1.3c-1.1,0-2.1-0.3-3.1-1c-0.1-0.1-0.2-0.3-0.2-0.4l-0.1-3c0-0.1,0.1-0.1,0.2-0.1
			c0.1,0,0.2,0,0.2,0.1c0.4,1.2,0.9,2.1,1.6,2.8c0.7,0.7,1.4,1,2.3,1c0.6,0,1-0.2,1.4-0.5s0.5-0.8,0.5-1.4c0-0.7-0.1-1.2-0.4-1.7
			c-0.3-0.5-0.6-0.8-0.9-1.1c-0.4-0.3-0.9-0.6-1.5-1c-0.7-0.4-1.2-0.7-1.7-1c-0.4-0.3-0.8-0.7-1-1.2c-0.3-0.5-0.4-1.1-0.4-1.9
			c0-1.3,0.4-2.3,1.3-3c0.9-0.7,1.9-1,3.1-1c0.8,0,1.6,0.2,2.4,0.5c0.2,0.1,0.3,0.2,0.3,0.4c0,0.5,0,0.9,0,1.2l0,1.6
			c0,0-0.1,0.1-0.2,0.1s-0.2,0-0.2-0.1c0-0.5-0.2-0.9-0.5-1.4c-0.3-0.5-0.8-0.8-1.3-1.1c-0.5-0.3-1-0.4-1.6-0.4
			c-0.5,0-0.9,0.1-1.2,0.4c-0.3,0.3-0.4,0.7-0.4,1.3C61.3,18.6,61.5,19.3,62,19.7z"/>
		<path class="st0" d="M80.9,27.3c0.1,0,0.1,0,0.2,0.1c0.1,0.1,0.1,0.2,0,0.2c-0.7,0.7-1.5,1.3-2.3,1.6c-0.8,0.3-1.6,0.5-2.5,0.5
			c-1.3,0-2.3-0.3-3.3-0.9c-0.9-0.6-1.6-1.4-2.1-2.5c-0.5-1-0.7-2.1-0.7-3.3c0-1.4,0.3-2.6,0.9-3.8c0.6-1.2,1.4-2.1,2.5-2.7
			s2.2-1,3.5-1c1.2,0,2.1,0.3,2.7,0.9c0.7,0.6,1,1.5,1,2.5c0,0.6-0.1,0.9-0.3,0.9h-1.5L72.9,20c-0.1,0.5-0.1,1-0.1,1.7
			c0,2,0.4,3.6,1.3,4.9c0.9,1.2,2.1,1.9,3.6,1.9C78.9,28.4,79.9,28,80.9,27.3L80.9,27.3z M74.1,17.1c-0.5,0.5-0.9,1.3-1.2,2.3
			l5.4-0.1c0-0.9-0.2-1.7-0.6-2.2c-0.4-0.5-0.9-0.8-1.6-0.8C75.3,16.2,74.7,16.5,74.1,17.1z"/>
	</g>
</g>
<path class="st0" d="M49,42.6c-26.9,0-48.7-9.5-48.7-21.1S22.1,0.4,49,0.4s48.7,9.5,48.7,21.1S75.9,42.6,49,42.6z M49,1.4
	c-26.3,0-47.7,9-47.7,20.1S22.7,41.6,49,41.6s47.7-9,47.7-20.1S75.3,1.4,49,1.4z"/>
</svg>
