<?xml version="1.0" encoding="utf-8"?>
<!-- Generator: Adobe Illustrator 25.4.1, SVG Export Plug-In . SVG Version: 6.00 Build 0)  -->
<svg version="1.1" id="レイヤー_1" xmlns="http://www.w3.org/2000/svg" xmlns:xlink="http://www.w3.org/1999/xlink" x="0px"
	 y="0px" viewBox="0 0 54 21" style="enable-background:new 0 0 54 21;" xml:space="preserve">
<style type="text/css">
	.st0{fill:#615243;}
	.st1{fill:#FFFFFF;}
</style>
<g>
	<g>
		<polygon class="st0" points="43.9,20.6 10.1,20.6 0,10.5 0,10.5 10.1,0.4 43.9,0.4 54,10.5 54,10.5 		"/>
	</g>
	<g>
		<g>
			<path class="st1" d="M18.5,14.9l-5.3-6.5l0,6.5h-1.2l0-8h1.5l5.3,6.5V6.9H20l0,8H18.5z"/>
			<path class="st1" d="M22.7,14.9l0-8l6.5,0V8l-5.3,0v2.2l5,0v1.1l-5,0l0,2.4l5.4,0v1.1L22.7,14.9z"/>
			<path class="st1" d="M39.4,14.9l-2.3-6.6l-2.2,6.6h-1.4l-2.7-8h1.4l2.1,6.6l2.2-6.6h1.4l2.3,6.6l2.1-6.6h1.3l-2.7,8H39.4z"/>
		</g>
	</g>
</g>
</svg>
