<?xml version="1.0" encoding="utf-8"?>
<!-- Generator: Adobe Illustrator 25.4.1, SVG Export Plug-In . SVG Version: 6.00 Build 0)  -->
<svg version="1.1" id="レイヤー_1" xmlns="http://www.w3.org/2000/svg" xmlns:xlink="http://www.w3.org/1999/xlink" x="0px"
	 y="0px" viewBox="0 0 118 21" style="enable-background:new 0 0 118 21;" xml:space="preserve">
<style type="text/css">
	.st0{fill:#615243;}
	.st1{fill:#FFFFFF;}
</style>
<g>
	<g>
		<polygon class="st0" points="107.8,20.6 10.2,20.6 0.1,10.5 0.1,10.5 10.2,0.4 107.8,0.4 117.9,10.5 117.9,10.5 		"/>
	</g>
	<g>
		<g>
			<path class="st1" d="M15.4,14.9l-1.2,0l0-8l4.4,0c1.8,0,2.7,0.8,2.7,2.2c0,0.9-0.3,1.4-1.1,1.9c0.8,0.4,1,0.8,1,2.6
				c0,0.9,0.1,1.1,0.5,1v0.3l-1.5,0c-0.1-0.5-0.1-0.6-0.2-1.6c-0.1-1.3-0.4-1.8-1.6-1.8l-3,0L15.4,14.9z M18.5,10.5
				c0.5,0,0.8-0.1,1-0.2c0.3-0.2,0.5-0.6,0.5-1.1s-0.2-0.9-0.5-1.1c-0.2-0.1-0.5-0.2-1-0.2l-3.1,0v2.5L18.5,10.5z"/>
			<path class="st1" d="M23.9,14.9l0-8l6.5,0V8l-5.3,0v2.2l5,0v1.1l-5,0l0,2.4l5.4,0v1.1L23.9,14.9z"/>
			<path class="st1" d="M40.9,11.7c-0.4,2.2-1.8,3.4-4.1,3.4c-2.6,0-4.3-1.6-4.3-4.2c0-2.6,1.7-4.2,4.3-4.2c1.3,0,2.3,0.4,3.1,1.1
				c0.5,0.5,0.8,1.1,0.9,2l-1.2,0c-0.3-1.3-1.3-2-2.8-2c-1.8,0-3.1,1.3-3.1,3.2c0,1.9,1.2,3.2,3.1,3.2c1,0,1.8-0.4,2.3-1
				c0.3-0.4,0.4-0.7,0.5-1.3H40.9z"/>
			<path class="st1" d="M51.7,10.9c0,1.1-0.4,2.2-1.2,3c-0.8,0.8-1.9,1.2-3.3,1.2c-2.7,0-4.5-1.7-4.5-4.2c0-2.5,1.8-4.2,4.5-4.2
				C50,6.7,51.7,8.3,51.7,10.9z M44,10.9c0,1.9,1.3,3.2,3.3,3.2c2,0,3.3-1.3,3.3-3.1c0-2-1.3-3.2-3.3-3.2C45.3,7.7,44,9,44,10.9z"/>
			<path class="st1" d="M62.8,14.9l0-6.6l-3.2,6.6h-1.1l-3.1-6.6l0,6.6l-1.2,0l0-8l1.8,0l3.2,6.8l3.2-6.8l1.7,0l0,8L62.8,14.9z"/>
			<path class="st1" d="M75.4,14.9l0-6.6l-3.2,6.6h-1.1L68,8.3l0,6.6l-1.2,0l0-8l1.8,0l3.2,6.8L75,6.9l1.7,0l0,8L75.4,14.9z"/>
			<path class="st1" d="M79.4,14.9l0-8l6.5,0V8l-5.3,0v2.2l5,0v1.1l-5,0l0,2.4l5.4,0v1.1L79.4,14.9z"/>
			<path class="st1" d="M94.9,14.9l-5.3-6.5l0,6.5l-1.2,0l0-8l1.5,0l5.3,6.5V6.9h1.2l0,8H94.9z"/>
			<path class="st1" d="M99.1,6.9l3.6,0c1.3,0,2,0.2,2.7,0.6c0.9,0.6,1.5,1.8,1.5,3.4c0,1.5-0.4,2.6-1.2,3.2
				c-0.7,0.6-1.4,0.7-2.9,0.7l-3.6,0L99.1,6.9z M102.7,13.8c1,0,1.5-0.1,2-0.5c0.5-0.5,0.8-1.3,0.8-2.4c0-1.1-0.3-1.9-0.8-2.4
				c-0.4-0.4-1-0.5-2-0.5l-2.4,0l0,5.8L102.7,13.8z"/>
		</g>
	</g>
</g>
</svg>
