<?xml version="1.0" encoding="utf-8"?>
<!-- Generator: Adobe Illustrator 25.4.1, SVG Export Plug-In . SVG Version: 6.00 Build 0)  -->
<svg version="1.1" id="レイヤー_1" xmlns="http://www.w3.org/2000/svg" xmlns:xlink="http://www.w3.org/1999/xlink" x="0px"
	 y="0px" viewBox="0 0 21 46" style="enable-background:new 0 0 21 46;" xml:space="preserve">
<style type="text/css">
	.st0{fill:#615243;}
</style>
<path class="st0" d="M6.2,1.3c0.1,0,0.1,0,0.1,0.1c0,0.4,0,0.7,0.1,0.9c0.1,0.2,0.2,0.3,0.4,0.5C7,2.8,7.3,2.9,7.7,3l9.3,1.5
	c0.2,0,0.4,0.1,0.6,0.1c0.3,0,0.4-0.1,0.5-0.2c0.1-0.1,0.1-0.4,0.1-0.8V3.1c0-0.7-0.2-1.3-0.7-1.7c-0.4-0.4-1.2-0.8-2.2-1
	c0,0,0,0,0-0.1c0,0,0-0.1,0-0.1c0,0,0,0,0.1,0c0.3,0.1,0.9,0.2,1.7,0.4C17.9,0.8,18.6,0.9,19,1c0,0,0.1,0.1,0,0.1
	c0,0.1,0,0.1-0.1,0.1c-0.3,0-0.4,0.2-0.4,0.7c0,0.9-0.1,2-0.1,3.3c0,0.6,0,1.3,0,2l0,1.1c0,0.4,0,0.6,0.1,0.8
	c0.1,0.2,0.2,0.3,0.4,0.4c0,0,0.1,0.1,0,0.1s0,0.1-0.1,0.1c-0.4-0.1-1-0.2-1.8-0.4S15.7,9.1,15.4,9c0,0-0.1-0.1-0.1-0.1
	s0-0.1,0.1-0.1c0.4,0.1,0.8,0.1,1.1,0.1c0.6,0,1.1-0.1,1.3-0.4s0.4-0.7,0.4-1.3V6.7c0-0.3,0-0.5-0.1-0.7s-0.2-0.3-0.4-0.4
	c-0.2-0.1-0.5-0.1-0.8-0.2L7.7,4C7.4,4,7.2,3.9,7.1,3.9C6.8,3.9,6.6,4,6.4,4.2c-0.1,0.2-0.1,0.5-0.1,1c0,0,0,0-0.1,0s-0.1,0-0.1,0
	c0-0.3,0-0.6,0-0.8l0-1.2l0-1.1c0-0.2,0-0.5,0-0.8C6.1,1.3,6.1,1.3,6.2,1.3z"/>
<path class="st0" d="M6.4,9.4C6.9,9.1,7.4,9,8.1,9c0.5,0,1,0.1,1.6,0.3c0.6,0.2,1.3,0.5,2,0.8c0.1,0,0.2,0.1,0.3,0.1
	c0.1,0,0.2,0.1,0.2,0.1c0.1,0,0.2,0.1,0.3,0.1c0.1,0,0.2-0.1,0.2-0.3V9.2c0-0.3,0-0.5-0.1-0.7c-0.1-0.2-0.1-0.3-0.3-0.4
	C12.3,8.1,12,8,11.7,7.9c0,0-0.1,0-0.1-0.1c0,0,0-0.1,0-0.1c0,0,0.1,0,0.1,0c0.6,0.2,1,0.3,1.3,0.5c0.3,0.1,0.4,0.3,0.5,0.5
	c0.1,0.2,0.1,0.5,0.1,0.8v1.6c0,0.1,0,0.2-0.1,0.2c0,0-0.1,0-0.2-0.1c-0.7-0.3-1.5-0.6-2.3-0.8c-0.8-0.2-1.5-0.4-2.1-0.4
	c-0.3,0-0.5,0-0.6,0c-0.6,0-1,0.1-1.3,0.3c-0.3,0.2-0.5,0.5-0.5,0.9c0,0.4,0.2,0.8,0.6,1.2c0.4,0.4,0.9,0.8,1.6,1.1
	c0.7,0.3,1.4,0.5,2.2,0.6c0.3,0,0.4,0,0.5,0c0.3,0,0.5,0,0.7-0.1c0.2-0.1,0.3-0.2,0.3-0.4c0-0.2-0.1-0.3-0.4-0.4
	c-0.3-0.1-0.6-0.2-1-0.2c-0.3,0-0.7-0.1-1.1-0.1c-1,0-1.8,0.2-2.5,0.5c-0.7,0.3-1,0.8-1,1.4c0,0.3,0.1,0.6,0.4,0.9
	c0.3,0.3,0.7,0.6,1.1,0.9c0.5,0.3,1.1,0.4,1.7,0.5c0.3,0,0.6,0.1,0.9,0.1c0.4,0,0.8,0,1-0.1c0.2-0.1,0.5-0.2,0.7-0.4
	c0.1-0.1,0.2-0.2,0.3-0.2c0.1-0.1,0.2-0.1,0.3-0.1c0.2,0,0.4,0.1,0.5,0.2S14,16.9,14,17c0,0.5-0.6,0.8-1.8,0.8c-0.4,0-0.8,0-1.2-0.1
	c-1-0.1-1.9-0.4-2.7-0.8c-0.8-0.4-1.4-0.8-1.8-1.3c-0.4-0.5-0.6-0.9-0.6-1.4c0-0.6,0.3-1,1-1.3c0.7-0.3,1.5-0.5,2.5-0.5
	c0.4,0,0.9,0,1.4,0.1c0.9,0.1,1.6,0.3,2.2,0.6s0.9,0.5,0.9,0.8c0,0.2-0.1,0.4-0.4,0.5c-0.2,0.1-0.6,0.2-1,0.2c-0.1,0-0.4,0-0.8-0.1
	c-1.2-0.2-2.3-0.5-3.2-0.9c-0.9-0.4-1.6-0.9-2.1-1.5c-0.5-0.6-0.7-1.1-0.7-1.6C5.8,10.1,6,9.7,6.4,9.4z"/>
<path class="st0" d="M6.1,19.9c0.1-0.1,0.4-0.2,0.7-0.2c0.2,0,0.6,0,1.1,0.1l4.2,0.7c0.2,0,0.4,0.1,0.5,0.1c0.2,0,0.4,0,0.5-0.1
	s0.2-0.2,0.2-0.3c0-0.1-0.1-0.3-0.2-0.5c-0.2-0.2-0.4-0.5-0.7-0.7c0,0,0,0,0-0.1c0,0,0-0.1,0.1-0.1c0,0,0.1,0,0.1,0
	c0.5,0.4,0.9,0.8,1.2,1.1c0.2,0.3,0.4,0.7,0.4,1c0,0.2-0.1,0.4-0.2,0.5c-0.1,0.1-0.4,0.2-0.7,0.2c-0.2,0-0.5,0-1.1-0.1l-4.2-0.7
	c-0.2,0-0.4-0.1-0.5-0.1c-0.4,0-0.6,0.1-0.6,0.3c0,0.3,0.3,0.7,0.9,1.2c0,0,0,0,0,0.1c0,0,0,0.1-0.1,0.1c0,0-0.1,0-0.1,0
	c-0.5-0.4-0.9-0.8-1.1-1.1c-0.2-0.3-0.4-0.6-0.4-1C5.9,20.1,5.9,20,6.1,19.9z M16.6,20.9c0.2-0.1,0.4-0.2,0.6-0.2
	c0.3,0,0.5,0.1,0.6,0.2c0.1,0.1,0.2,0.3,0.2,0.6c0,0.2-0.1,0.4-0.2,0.6c-0.1,0.1-0.3,0.2-0.6,0.2c-0.3,0-0.5-0.1-0.6-0.2
	c-0.2-0.1-0.2-0.3-0.2-0.6C16.3,21.3,16.4,21.1,16.6,20.9z"/>
<path class="st0" d="M6.1,24.2c0.2-0.2,0.5-0.3,1-0.3c0.1,0,0.2,0,0.4,0l4.7,0.8c0.3,0,0.5,0.1,0.6,0.1c0.2,0,0.3,0,0.4-0.1
	c0.1-0.1,0.1-0.3,0.1-0.5c0,0,0-0.1,0.1-0.1c0,0,0.1,0,0.1,0s0,0,0,0c0,0.4,0.1,0.8,0.4,1.1c0.3,0.3,0.7,0.5,1.1,0.6
	c0,0,0.1,0.1,0.1,0.2c0,0.1,0,0.2-0.1,0.1l-6.9-1.1c-0.2,0-0.4-0.1-0.6-0.1c-0.7,0-1,0.3-1,0.9c0,0.3,0.1,0.6,0.2,0.9
	s0.4,0.6,0.7,0.9v0c0,0,0,0.1-0.1,0.1c0,0-0.1,0-0.1,0c-0.5-0.5-0.9-1-1.1-1.4c-0.2-0.4-0.4-0.8-0.4-1.2C5.8,24.7,5.9,24.4,6.1,24.2
	z M13,26.8c0.1-0.5,0.1-0.9,0.1-1.4l0.5,0c0,0.4,0,1,0.1,2l0,0.6c0,0.1,0,0.1-0.1,0.1c-0.1,0-0.2-0.1-0.4-0.2
	c-0.2-0.1-0.3-0.3-0.3-0.4C12.9,27.6,12.9,27.3,13,26.8z"/>
<path class="st0" d="M6.1,29.5c0.2-0.2,0.5-0.3,1-0.3c0.1,0,0.2,0,0.4,0l4.7,0.8c0.3,0,0.5,0.1,0.6,0.1c0.2,0,0.3,0,0.4-0.1
	c0.1-0.1,0.1-0.3,0.1-0.5c0,0,0-0.1,0.1-0.1c0,0,0.1,0,0.1,0s0,0,0,0c0,0.4,0.1,0.8,0.4,1.1c0.3,0.3,0.7,0.5,1.1,0.6
	c0,0,0.1,0.1,0.1,0.2c0,0.1,0,0.2-0.1,0.1l-6.9-1.1c-0.2,0-0.4-0.1-0.6-0.1c-0.7,0-1,0.3-1,0.9c0,0.3,0.1,0.6,0.2,0.9
	s0.4,0.6,0.7,0.9v0c0,0,0,0.1-0.1,0.1c0,0-0.1,0-0.1,0c-0.5-0.5-0.9-1-1.1-1.4c-0.2-0.4-0.4-0.8-0.4-1.2C5.8,30,5.9,29.7,6.1,29.5z
	 M13,32.1c0.1-0.5,0.1-0.9,0.1-1.4l0.5,0c0,0.4,0,1,0.1,2l0,0.6c0,0.1,0,0.1-0.1,0.1c-0.1,0-0.2-0.1-0.4-0.2
	c-0.2-0.1-0.3-0.3-0.3-0.4C12.9,32.9,12.9,32.6,13,32.1z"/>
<path class="st0" d="M6.6,34.5C7.2,34.2,7.9,34,8.7,34c0.3,0,0.6,0,1,0.1c0.7,0.1,1.3,0.4,2,0.8s1.2,0.9,1.6,1.5
	c0.4,0.6,0.6,1.2,0.6,1.9c0,0.4-0.1,0.8-0.3,1c-0.2,0.2-0.5,0.3-0.8,0.2c-0.4-0.1-0.8-0.3-1.2-0.8c-0.4-0.5-0.7-1-1-1.7
	c-0.3-0.7-0.4-1.4-0.5-2.2l0.3,0c0.1,1,0.4,1.7,0.7,2.4c0.3,0.6,0.8,1,1.3,1.1c0.1,0,0.2,0,0.3,0c0.2,0,0.4-0.1,0.5-0.3
	s0.2-0.4,0.2-0.6c0-0.6-0.3-1.1-0.9-1.4c-0.6-0.4-1.3-0.6-2.2-0.8C10,35.1,9.6,35,9.2,35c-0.8,0-1.5,0.2-2,0.5s-0.8,0.8-0.8,1.4
	c0,0.7,0.2,1.3,0.7,1.8v0c0,0,0,0.1-0.1,0.1c0,0-0.1,0-0.1,0c-0.8-0.8-1.2-1.7-1.2-2.6C5.8,35.5,6.1,34.9,6.6,34.5z"/>
<path class="st0" d="M5.9,40.8C5.9,40.7,6,40.7,5.9,40.8l0.5,0l1.1,0.2l3.7,0.6c0.4,0.1,0.8,0.1,1,0.1c0.6,0,0.9-0.1,0.9-0.4
	c0-0.3-0.2-0.6-0.7-1.1l0,0c0,0,0-0.1,0.1-0.1s0.1,0,0.1,0c0.5,0.4,0.8,0.7,1,1c0.2,0.3,0.3,0.6,0.3,0.9c0,0.2-0.1,0.4-0.3,0.5
	c-0.2,0.1-0.5,0.2-0.9,0.2c-0.4,0-0.9-0.1-1.5-0.2l-5.1-0.8c-0.2,0-0.3-0.2-0.3-0.6C5.9,40.9,5.9,40.8,5.9,40.8z M9.6,42.3
	c1.2,0.4,2.2,0.8,3.1,1.2c0.8,0.5,1.2,0.9,1.2,1.3c0,0.2-0.1,0.4-0.3,0.7c-0.2,0.2-0.4,0.3-0.7,0.3c-0.2,0-0.4-0.1-0.5-0.2
	c-0.1-0.1-0.2-0.3-0.2-0.4c0-0.1,0-0.2,0.1-0.3c0.1-0.1,0.2-0.2,0.3-0.2c0.1,0,0.1-0.1,0.2-0.2c0.1-0.1,0.1-0.1,0.1-0.2
	c0-0.3-0.4-0.6-1.2-0.9c-0.8-0.4-1.7-0.7-2.8-1C8,42,7,41.8,6.2,41.6l0-0.2C7.3,41.6,8.4,41.9,9.6,42.3z"/>
</svg>
