<?xml version="1.0" encoding="utf-8"?>
<!-- Generator: Adobe Illustrator 25.4.1, SVG Export Plug-In . SVG Version: 6.00 Build 0)  -->
<svg version="1.1" id="レイヤー_1" xmlns="http://www.w3.org/2000/svg" xmlns:xlink="http://www.w3.org/1999/xlink" x="0px"
	 y="0px" viewBox="0 0 21 65" style="enable-background:new 0 0 21 65;" xml:space="preserve">
<style type="text/css">
	.st0{fill:#615243;}
</style>
<g>
	<path class="st0" d="M6.2,0.3c0.1,0,0.1,0,0.1,0.1c0,0.4,0,0.7,0.1,0.9s0.2,0.3,0.4,0.4C7,1.7,7.3,1.8,7.7,1.9l9.3,1.5
		c0.3,0,0.6,0.1,0.6,0.1c0.3,0,0.5-0.1,0.6-0.3c0.1-0.2,0.1-0.5,0.1-0.9c0,0,0-0.1,0.1-0.1s0.1,0,0.1,0.1l0,0.8c0,0.4,0,0.8,0,1
		c0,0.3,0,0.7,0,1.2l0,0.7c0,0,0,0-0.1,0s-0.1,0-0.1,0c0-0.4,0-0.7-0.1-0.9S18,4.8,17.8,4.7c-0.2-0.1-0.5-0.2-0.9-0.3L7.7,2.9
		C7.4,2.9,7.2,2.9,7,2.9C6.7,2.9,6.6,3,6.4,3.1C6.4,3.3,6.3,3.6,6.3,4c0,0,0,0-0.1,0s-0.1,0-0.1,0c0-0.3,0-0.6,0-0.8l0-1.1l0-1.1
		c0-0.2,0-0.4,0-0.8C6.1,0.3,6.1,0.3,6.2,0.3z"/>
	<path class="st0" d="M6.1,11.1C6.2,11,6.5,11,6.8,11c0.3,0,0.6,0,1.1,0.1l3.2,0.5c0.4,0.1,0.8,0.1,1.1,0.1c0.8,0,1.2-0.3,1.2-0.8
		c0-0.4-0.3-0.8-0.8-1.2C11.9,9.3,11,8.9,10,8.5C8.9,8.1,7.7,7.8,6.2,7.6l0-0.2c1.5,0.2,2.9,0.6,4.1,1c1.2,0.4,2.1,0.9,2.8,1.5
		c0.7,0.5,1,1.1,1,1.7c0,0.4-0.1,0.7-0.4,0.9s-0.6,0.3-1.1,0.3c-0.2,0-0.6,0-1.2-0.1L7.8,12c-0.2,0-0.4-0.1-0.5-0.1
		c-0.4,0-0.6,0.1-0.6,0.4c0,0.3,0.3,0.7,0.9,1.2c0,0,0,0,0,0.1c0,0,0,0.1-0.1,0.1s-0.1,0-0.1,0c-0.5-0.4-0.9-0.8-1.2-1.1
		c-0.3-0.3-0.4-0.6-0.4-0.9C5.9,11.4,5.9,11.2,6.1,11.1z M5.9,6.7C5.9,6.6,6,6.6,5.9,6.7l0.5,0c0.3,0.1,0.7,0.1,1.1,0.2L12,7.6
		c0.2,0,0.4,0.1,0.5,0.1c0.4,0,0.6-0.1,0.6-0.4c0-0.1-0.1-0.3-0.2-0.5s-0.4-0.5-0.7-0.7c0,0,0,0,0-0.1c0,0,0-0.1,0.1-0.1
		c0,0,0.1,0,0.1,0c0.5,0.4,0.9,0.8,1.2,1.1C13.8,7.4,14,7.7,14,8c0,0.2-0.1,0.4-0.2,0.5c-0.1,0.1-0.4,0.1-0.7,0.1
		c-0.3,0-0.7,0-1-0.1L6.2,7.6C6.1,7.6,6,7.5,6,7.4C5.9,7.3,5.9,7.2,5.9,7C5.9,6.8,5.9,6.7,5.9,6.7z"/>
	<path class="st0" d="M6.2,14.6c0.2-0.3,0.5-0.5,0.8-0.5c0.2,0,0.4,0.1,0.5,0.2c0.1,0.1,0.2,0.2,0.2,0.4c0,0.1,0,0.2-0.1,0.3
		s-0.2,0.1-0.4,0.2c-0.3,0.1-0.5,0.3-0.6,0.4c-0.1,0.1-0.2,0.4-0.2,0.7c0,0.7,0.4,1,1.2,1.2c0.1,0,0.2,0,0.3,0c0.4,0,0.7-0.1,1-0.3
		c0.3-0.2,0.6-0.5,1-0.9c0.4-0.4,0.7-0.7,1-0.9c0.3-0.2,0.6-0.3,1-0.3c0.1,0,0.2,0,0.3,0c0.6,0.1,1.1,0.4,1.4,0.9
		c0.4,0.5,0.5,1,0.5,1.5c0,0.4-0.1,0.8-0.3,1.1S13.3,19,13,18.9c-0.2,0-0.3-0.1-0.4-0.2c-0.1-0.1-0.1-0.2-0.1-0.4
		c0-0.1,0-0.2,0.1-0.3s0.2-0.2,0.4-0.3c0.2-0.1,0.4-0.3,0.5-0.4s0.2-0.3,0.2-0.5c0-0.3-0.1-0.5-0.3-0.7c-0.2-0.2-0.4-0.3-0.8-0.3
		c-0.4,0-0.7,0.1-1,0.3c-0.3,0.2-0.6,0.5-1,0.9c-0.4,0.4-0.8,0.7-1.1,0.9c-0.3,0.2-0.6,0.3-1,0.3c-0.4,0-0.8-0.1-1.2-0.3
		c-0.4-0.2-0.7-0.5-1-0.9s-0.4-0.8-0.4-1.3C5.8,15.3,5.9,14.9,6.2,14.6z"/>
	<path class="st0" d="M6.1,20.7c0.2-0.2,0.5-0.3,1-0.3c0.1,0,0.2,0,0.4,0l4.7,0.8c0.3,0,0.5,0.1,0.6,0.1c0.2,0,0.3,0,0.4-0.1
		c0.1-0.1,0.1-0.3,0.1-0.5c0,0,0-0.1,0.1-0.1c0,0,0.1,0,0.1,0s0,0,0,0c0,0.4,0.1,0.8,0.4,1.1c0.3,0.3,0.7,0.5,1.1,0.6
		c0,0,0.1,0.1,0.1,0.2c0,0.1,0,0.2-0.1,0.1l-6.9-1.1c-0.2,0-0.4-0.1-0.6-0.1c-0.7,0-1,0.3-1,0.9c0,0.3,0.1,0.6,0.2,0.9
		s0.4,0.6,0.7,0.9v0c0,0,0,0.1-0.1,0.1c0,0-0.1,0-0.1,0c-0.5-0.5-0.9-1-1.1-1.4c-0.2-0.4-0.4-0.8-0.4-1.2
		C5.8,21.2,5.9,20.9,6.1,20.7z M13,23.3c0.1-0.5,0.1-0.9,0.1-1.4l0.5,0c0,0.4,0,1,0.1,2l0,0.6c0,0.1,0,0.1-0.1,0.1
		c-0.1,0-0.2-0.1-0.4-0.2c-0.2-0.1-0.3-0.3-0.3-0.4C12.9,24.1,12.9,23.8,13,23.3z"/>
	<path class="st0" d="M7.3,25c0.1,0,0.3,0,0.6,0c0.9,0.1,1.9,0.4,2.9,1c1,0.5,1.8,1.1,2.4,1.8s0.9,1.4,0.9,2c0,0.4-0.1,0.7-0.4,1
		s-0.6,0.4-1,0.5l0.5-0.8c0,0.2,0.1,0.3,0.3,0.5c0.2,0.2,0.4,0.3,0.7,0.4c0,0,0.1,0.1,0,0.1c0,0.1,0,0.1-0.1,0.1l-6.3-1
		c-0.2,0-0.4-0.1-0.6-0.1c-0.4,0-0.6,0.1-0.6,0.3c0,0.3,0.3,0.7,0.9,1.2c0,0,0,0,0,0.1c0,0,0,0.1-0.1,0.1c0,0-0.1,0-0.1,0
		c-0.5-0.4-0.9-0.8-1.2-1.1s-0.4-0.6-0.4-0.9c0-0.2,0.1-0.4,0.2-0.5c0.1-0.1,0.4-0.2,0.7-0.2c0.3,0,0.6,0,1.1,0.1l2.8,0.4l0.3,0.3
		c-1.5-0.5-2.8-1.2-3.7-2s-1.4-1.5-1.4-2.3C5.8,25.4,6.3,25,7.3,25z M7.5,28.1c0.5,0.5,1.1,0.9,1.9,1.3c0.8,0.4,1.5,0.6,2.2,0.8
		c0.2,0,0.3,0.1,0.5,0.1c0.4,0,0.7-0.1,0.9-0.3c0.2-0.2,0.3-0.5,0.3-0.8c0-0.4-0.2-0.8-0.6-1.3c-0.4-0.4-1-0.8-1.7-1.2
		S9.6,26.2,8.8,26C8.5,26,8.2,26,8,26c-0.4,0-0.7,0.1-0.9,0.2c-0.2,0.1-0.3,0.3-0.3,0.6C6.8,27.2,7,27.7,7.5,28.1z"/>
	<path class="st0" d="M1,32.4c0.4-0.5,0.9-0.7,1.4-0.7c0.4,0,0.8,0.1,1.2,0.4c0.4,0.3,0.7,0.6,1,0.9c0.3,0.4,0.6,0.9,1.1,1.6
		l-0.2,0.1C5.5,34.6,5.3,34.4,5,34c-0.3-0.4-0.6-0.7-0.9-0.9c-0.3-0.2-0.7-0.3-1.1-0.3c-0.6,0-1.1,0.2-1.4,0.7
		C1.2,33.9,1,34.5,1,35.3c0,0.6,0.2,1.2,0.5,1.5c0.3,0.4,0.7,0.5,1.2,0.5c0.5,0,0.9-0.2,1.2-0.5c0.3-0.3,0.7-0.8,1-1.5
		c0.3-0.6,0.6-1,0.9-1.3c0.2-0.3,0.5-0.4,0.9-0.4c0.3,0,0.6,0.1,0.9,0.3c0.3,0.2,0.6,0.5,1,1l-0.2,0.2c-0.1-0.2-0.2-0.3-0.5-0.4
		c-0.2-0.1-0.4-0.2-0.6-0.2c-0.3,0-0.6,0.1-0.8,0.4c-0.2,0.3-0.5,0.7-0.8,1.2c-0.3,0.5-0.5,0.8-0.7,1.1s-0.4,0.5-0.7,0.7
		c-0.3,0.2-0.6,0.3-1,0.3c-0.5,0-1-0.2-1.4-0.5c-0.4-0.3-0.8-0.8-1.1-1.4c-0.3-0.6-0.4-1.2-0.4-1.9C0.4,33.6,0.6,32.9,1,32.4z
		 M8.6,33.8c0.4-0.3,0.9-0.5,1.6-0.5c0.2,0,0.5,0,0.8,0.1c0.8,0.1,1.5,0.5,2.1,1.1c0.6,0.6,0.8,1.2,0.8,1.9c0,0.6-0.2,1-0.6,1.3
		s-0.9,0.5-1.5,0.5c-0.3,0-0.6,0-0.8-0.1c-0.6-0.1-1.1-0.3-1.5-0.6c-0.4-0.3-0.8-0.7-1-1.1C8.1,36,8,35.6,8,35.2
		C8,34.6,8.2,34.2,8.6,33.8z M8.9,36.6c0.4,0.3,0.9,0.5,1.5,0.6c0.2,0,0.5,0.1,0.7,0.1c0.6,0,1.2-0.1,1.7-0.3
		c0.5-0.2,0.7-0.5,0.7-0.9c0-0.4-0.2-0.7-0.6-1c-0.4-0.3-0.9-0.5-1.5-0.6c-0.3,0-0.5-0.1-0.8-0.1c-0.6,0-1.2,0.1-1.6,0.3
		c-0.4,0.2-0.7,0.5-0.7,0.9C8.4,36,8.6,36.3,8.9,36.6z M13.7,38.3c0.2,0.4,0.2,0.8,0.2,1.1c0,0.1-0.1,0.1-0.2,0.1
		c-0.2,0-0.3,0-0.5-0.1c-0.2-0.1-0.3-0.1-0.2-0.2c0.2-0.3,0.2-0.6,0.2-1c0-0.4-0.1-0.8-0.2-1.1l0.1,0C13.4,37.5,13.6,37.9,13.7,38.3
		z"/>
	<path class="st0" d="M5.9,40.4C5.9,40.3,6,40.3,5.9,40.4l0.5,0l1.1,0.2l3.7,0.6c0.4,0.1,0.8,0.1,1,0.1c0.6,0,0.9-0.1,0.9-0.4
		c0-0.3-0.2-0.6-0.7-1.1l0,0c0,0,0-0.1,0.1-0.1s0.1,0,0.1,0c0.5,0.4,0.8,0.7,1,1c0.2,0.3,0.3,0.6,0.3,0.9c0,0.2-0.1,0.4-0.3,0.5
		c-0.2,0.1-0.5,0.2-0.9,0.2c-0.4,0-0.9-0.1-1.5-0.2l-5.1-0.8c-0.2,0-0.3-0.2-0.3-0.6C5.9,40.6,5.9,40.4,5.9,40.4z M9.6,41.9
		c1.2,0.4,2.2,0.8,3.1,1.2c0.8,0.5,1.2,0.9,1.2,1.3c0,0.2-0.1,0.4-0.3,0.7c-0.2,0.2-0.4,0.3-0.7,0.3c-0.2,0-0.4-0.1-0.5-0.2
		c-0.1-0.1-0.2-0.3-0.2-0.4c0-0.1,0-0.2,0.1-0.3c0.1-0.1,0.2-0.2,0.3-0.2c0.1,0,0.1-0.1,0.2-0.2C13,44.1,13,44,13,44
		c0-0.3-0.4-0.6-1.2-0.9c-0.8-0.4-1.7-0.7-2.8-1c-1.1-0.3-2-0.6-2.9-0.7l0-0.2C7.3,41.3,8.4,41.6,9.6,41.9z"/>
	<path class="st0" d="M7.3,45.3c0.1,0,0.3,0,0.6,0c0.9,0.1,1.9,0.4,2.9,1c1,0.5,1.8,1.1,2.4,1.8s0.9,1.4,0.9,2c0,0.4-0.1,0.7-0.4,1
		s-0.6,0.4-1,0.5l0.5-0.8c0,0.2,0.1,0.3,0.3,0.5c0.2,0.2,0.4,0.3,0.7,0.4c0,0,0.1,0.1,0,0.1c0,0.1,0,0.1-0.1,0.1l-6.3-1
		c-0.2,0-0.4-0.1-0.6-0.1c-0.4,0-0.6,0.1-0.6,0.3c0,0.3,0.3,0.7,0.9,1.2c0,0,0,0,0,0.1c0,0,0,0.1-0.1,0.1c0,0-0.1,0-0.1,0
		c-0.5-0.4-0.9-0.8-1.2-1.1s-0.4-0.6-0.4-0.9c0-0.2,0.1-0.4,0.2-0.5c0.1-0.1,0.4-0.2,0.7-0.2c0.3,0,0.6,0,1.1,0.1l2.8,0.4l0.3,0.3
		c-1.5-0.5-2.8-1.2-3.7-2s-1.4-1.5-1.4-2.3C5.8,45.7,6.3,45.3,7.3,45.3z M7.5,48.5C8,49,8.6,49.4,9.4,49.8c0.8,0.4,1.5,0.6,2.2,0.8
		c0.2,0,0.3,0.1,0.5,0.1c0.4,0,0.7-0.1,0.9-0.3c0.2-0.2,0.3-0.5,0.3-0.8c0-0.4-0.2-0.8-0.6-1.3c-0.4-0.4-1-0.8-1.7-1.2
		s-1.5-0.6-2.3-0.7c-0.3,0-0.6-0.1-0.8-0.1c-0.4,0-0.7,0.1-0.9,0.2c-0.2,0.1-0.3,0.3-0.3,0.6C6.8,47.5,7,48,7.5,48.5z"/>
	<path class="st0" d="M6.1,62.2C6.2,62.1,6.5,62,6.8,62c0.3,0,0.6,0,1.1,0.1l3.2,0.5c0.3,0.1,0.7,0.1,1.1,0.1c0.4,0,0.7-0.1,0.9-0.2
		c0.2-0.1,0.3-0.3,0.3-0.5c0-0.4-0.3-0.8-0.8-1.2c-0.6-0.4-1.4-0.8-2.4-1.2c-1.1-0.4-2.3-0.7-3.8-0.9l0-0.2c1.5,0.2,2.9,0.6,4.1,1
		c1.2,0.4,2.1,0.9,2.8,1.4c0.6,0.5,1,1.1,1,1.7c0,0.4-0.1,0.6-0.4,0.8c-0.2,0.2-0.6,0.3-1.1,0.3c-0.3,0-0.7,0-1.2-0.1L7.8,63
		C7.6,63,7.5,63,7.3,63c-0.2,0-0.4,0-0.5,0.1c-0.1,0.1-0.2,0.1-0.2,0.3c0,0.3,0.3,0.7,0.9,1.2c0,0,0,0,0,0.1c0,0,0,0.1-0.1,0.1
		s-0.1,0-0.1,0c-0.5-0.4-0.9-0.8-1.2-1.1S5.9,63,5.9,62.7C5.9,62.4,5.9,62.3,6.1,62.2z M5.9,53.9C5.9,53.9,6,53.9,5.9,53.9
		c0.1-0.1,0.4,0,0.9,0.1l0.6,0.1l4.6,0.8c0.2,0,0.4,0.1,0.5,0.1c0.4,0,0.6-0.1,0.6-0.4c0-0.1-0.1-0.3-0.2-0.5s-0.4-0.5-0.7-0.7
		c0,0,0,0,0-0.1c0,0,0-0.1,0.1-0.1c0,0,0.1,0,0.1,0c0.5,0.4,0.9,0.8,1.2,1.1c0.3,0.3,0.4,0.7,0.4,1c0,0.2-0.1,0.4-0.2,0.5
		c-0.1,0.1-0.4,0.1-0.7,0.1c-0.3,0-0.7,0-1-0.1l-5.8-0.9c-0.2-0.1-0.3-0.3-0.3-0.6C5.9,54.1,5.9,54,5.9,53.9z M5.9,57.9
		C5.9,57.9,6,57.8,5.9,57.9l0.5,0l1.1,0.2l3.5,0.6c0.4,0,0.7,0.1,1,0.1c0.8,0,1.2-0.2,1.2-0.7c0-0.4-0.3-0.8-0.9-1.2
		c-0.6-0.4-1.4-0.8-2.4-1.2c-1.1-0.4-2.3-0.7-3.8-0.9l0-0.2c1.5,0.2,2.9,0.6,4.1,1s2.1,0.9,2.8,1.4c0.7,0.5,1,1.1,1,1.7
		c0,0.4-0.1,0.6-0.4,0.8c-0.2,0.2-0.6,0.3-1.1,0.3c-0.3,0-0.7,0-1.2-0.1l-5.2-0.8c-0.1,0-0.2-0.1-0.2-0.2c-0.1-0.1-0.1-0.2-0.1-0.4
		C5.9,58.1,5.9,58,5.9,57.9z"/>
</g>
</svg>
