<?xml version="1.0" encoding="utf-8"?>
<!-- Generator: Adobe Illustrator 25.4.1, SVG Export Plug-In . SVG Version: 6.00 Build 0)  -->
<svg version="1.1" id="レイヤー_1" xmlns="http://www.w3.org/2000/svg" xmlns:xlink="http://www.w3.org/1999/xlink" x="0px"
	 y="0px" viewBox="0 0 21 50" style="enable-background:new 0 0 21 50;" xml:space="preserve">
<style type="text/css">
	.st0{fill:#615243;}
</style>
<g>
	<path class="st0" d="M6.2,1.3c0.1,0,0.1,0,0.1,0.1c0,0.4,0,0.7,0.1,0.9s0.2,0.4,0.4,0.5C7,2.8,7.3,2.9,7.7,2.9l4.6,0.7l0.2,1.1
		L7.7,4C7.3,3.9,7.1,3.9,7,3.9C6.7,3.9,6.6,4,6.4,4.1C6.4,4.3,6.3,4.6,6.3,5.1c0,0,0,0.1-0.1,0.1s-0.1,0-0.1-0.1c0-0.3,0-0.6,0-0.8
		l0-1.1l0-1.1c0-0.2,0-0.4,0-0.8C6.1,1.3,6.1,1.3,6.2,1.3z M11.6,4l4.9,3.1c0.5,0.3,0.9,0.5,1.2,0.5c0.4,0,0.6-0.3,0.6-0.8
		c0,0,0-0.1,0.1-0.1s0.1,0,0.1,0.1l0,0.7c0,0.4,0,0.8,0,1.1c0,0.2,0,0.4,0,0.6l0,0.6c0,0,0,0.1-0.1,0.1s-0.1,0-0.1-0.1
		c0-0.8-0.6-1.6-1.9-2.4l-5-3.3L11.6,4z M18,1.2c0.2-0.2,0.3-0.5,0.3-0.8c0,0,0-0.1,0.1-0.1s0.1,0,0.1,0.1l0,0.6c0,0.3,0,0.5,0,0.6
		c0,0.3,0,0.7,0,1.2l0,0.8c0,0,0,0-0.1,0c0,0-0.1,0-0.1,0s0,0,0-0.1c0-0.3,0-0.5-0.1-0.7c-0.1-0.1-0.2-0.2-0.3-0.2
		c-0.1,0-0.2,0-0.4,0.1l-5.1,1.9l-0.9-0.9l5.4-2.1C17.4,1.6,17.8,1.4,18,1.2z"/>
	<path class="st0" d="M6.6,7.9c0.6-0.4,1.3-0.6,2.2-0.6c0.4,0,0.8,0,1.1,0.1c0.8,0.1,1.5,0.4,2.1,0.8c0.6,0.4,1.1,0.8,1.5,1.4
		c0.4,0.5,0.5,1.1,0.5,1.7c0,0.7-0.3,1.3-0.8,1.7c-0.6,0.4-1.3,0.6-2.2,0.6c-0.4,0-0.8,0-1.1-0.1c-0.8-0.1-1.5-0.4-2.2-0.8
		c-0.6-0.4-1.1-0.9-1.5-1.4c-0.3-0.5-0.5-1.1-0.5-1.6C5.8,8.8,6.1,8.3,6.6,7.9z M7,11.6c0.5,0.4,1.2,0.7,2,0.8
		c0.3,0.1,0.7,0.1,1.2,0.1c0.9,0,1.7-0.2,2.4-0.5s1-0.8,1-1.4c0-0.5-0.3-1-0.8-1.4c-0.5-0.4-1.2-0.7-2-0.9C10.4,8.3,10,8.3,9.6,8.3
		c-0.9,0-1.7,0.2-2.3,0.5c-0.6,0.3-1,0.8-1,1.4C6.3,10.7,6.5,11.1,7,11.6z"/>
	<path class="st0" d="M7.3,15.1c0.4,0,0.7,0,1.2,0.1l3.6,0.6c0.2,0,0.4,0.1,0.5,0.1c0.4,0,0.6-0.1,0.6-0.3c0-0.2-0.3-0.6-0.9-1.2
		c0,0,0,0,0-0.1c0,0,0-0.1,0.1-0.1c0,0,0.1,0,0.1,0c0.5,0.4,0.9,0.8,1.2,1.1c0.3,0.3,0.4,0.6,0.4,0.9c0,0.4-0.3,0.6-0.9,0.6
		c-0.2,0-0.5,0-1-0.1l-3.2-0.6c-0.4-0.1-0.8-0.1-1.1-0.1c-0.7,0-1.1,0.3-1.1,0.8c0,0.4,0.3,0.8,0.8,1.2C8,18.6,8.8,19,9.9,19.3
		s2.3,0.7,3.8,0.9l0,0.2c-1.5-0.2-2.9-0.6-4.1-1c-1.2-0.4-2.1-0.9-2.8-1.5c-0.7-0.5-1-1.1-1-1.7C5.8,15.5,6.3,15.1,7.3,15.1z
		 M6.1,19.4c0.1-0.1,0.4-0.1,0.7-0.1c0.3,0,0.7,0,1,0.1l5.8,0.9c0.2,0,0.3,0.2,0.3,0.6c0,0.3,0,0.4-0.1,0.4l-0.5-0.1
		C13,21.1,12.7,21,12.3,21l-4.5-0.7c-0.2,0-0.4-0.1-0.5-0.1c-0.4,0-0.6,0.1-0.6,0.3c0,0.3,0.3,0.7,0.9,1.3c0,0,0,0,0,0.1
		c0,0,0,0.1-0.1,0.1c0,0-0.1,0-0.1,0c-0.5-0.4-0.9-0.8-1.2-1.1c-0.2-0.3-0.4-0.7-0.4-1C5.9,19.6,5.9,19.5,6.1,19.4z"/>
	<path class="st0" d="M6.1,23.6c0.2-0.2,0.5-0.3,1-0.3c0.1,0,0.2,0,0.4,0l4.7,0.8c0.3,0,0.5,0.1,0.6,0.1c0.2,0,0.3,0,0.4-0.1
		c0.1-0.1,0.1-0.3,0.1-0.5c0,0,0-0.1,0.1-0.1c0,0,0.1,0,0.1,0s0,0,0,0c0,0.4,0.1,0.8,0.4,1.1c0.3,0.3,0.7,0.5,1.1,0.6
		c0,0,0.1,0.1,0.1,0.2c0,0.1,0,0.2-0.1,0.1l-6.9-1.1c-0.2,0-0.4-0.1-0.6-0.1c-0.7,0-1,0.3-1,0.9c0,0.3,0.1,0.6,0.2,0.9
		s0.4,0.6,0.7,0.9v0c0,0,0,0.1-0.1,0.1c0,0-0.1,0-0.1,0c-0.5-0.5-0.9-1-1.1-1.4c-0.2-0.4-0.4-0.8-0.4-1.2
		C5.8,24.1,5.9,23.9,6.1,23.6z M13,26.3c0.1-0.5,0.1-0.9,0.1-1.4l0.5,0c0,0.4,0,1,0.1,2l0,0.6c0,0.1,0,0.1-0.1,0.1
		c-0.1,0-0.2-0.1-0.4-0.2c-0.2-0.1-0.3-0.3-0.3-0.4C12.9,27,12.9,26.8,13,26.3z"/>
	<path class="st0" d="M7.3,28.8c0.4,0,0.7,0,1.2,0.1l3.6,0.6c0.2,0,0.4,0.1,0.5,0.1c0.4,0,0.6-0.1,0.6-0.3c0-0.2-0.3-0.6-0.9-1.2
		c0,0,0,0,0-0.1c0,0,0-0.1,0.1-0.1c0,0,0.1,0,0.1,0c0.5,0.4,0.9,0.8,1.2,1.1c0.3,0.3,0.4,0.6,0.4,0.9c0,0.4-0.3,0.6-0.9,0.6
		c-0.2,0-0.5,0-1-0.1l-3.2-0.6c-0.4-0.1-0.8-0.1-1.1-0.1c-0.7,0-1.1,0.3-1.1,0.8c0,0.4,0.3,0.8,0.8,1.2C8,32.2,8.8,32.6,9.9,33
		s2.3,0.7,3.8,0.9l0,0.2c-1.5-0.2-2.9-0.6-4.1-1c-1.2-0.4-2.1-0.9-2.8-1.5c-0.7-0.5-1-1.1-1-1.7C5.8,29.2,6.3,28.8,7.3,28.8z
		 M6.1,33.1c0.1-0.1,0.4-0.1,0.7-0.1c0.3,0,0.7,0,1,0.1l5.8,0.9c0.2,0,0.3,0.2,0.3,0.6c0,0.3,0,0.4-0.1,0.4l-0.5-0.1
		c-0.3-0.1-0.7-0.1-1.1-0.2l-4.5-0.7c-0.2,0-0.4-0.1-0.5-0.1c-0.4,0-0.6,0.1-0.6,0.3c0,0.3,0.3,0.7,0.9,1.3c0,0,0,0,0,0.1
		c0,0,0,0.1-0.1,0.1c0,0-0.1,0-0.1,0c-0.5-0.4-0.9-0.8-1.2-1.1c-0.2-0.3-0.4-0.7-0.4-1C5.9,33.3,5.9,33.2,6.1,33.1z"/>
	<path class="st0" d="M6.2,37.3c0.3-0.3,0.6-0.5,1.1-0.5c0.1,0,0.2,0,0.3,0l10.8,1.8c0.2,0,0.3,0,0.4,0c0.4,0,0.5-0.1,0.5-0.4
		c0-0.2-0.1-0.5-0.3-0.9v0c0,0,0-0.1,0.1-0.1c0.1,0,0.1,0,0.1,0.1l1.3,2.3v0c0,0,0,0.1-0.1,0.1s-0.1,0.1-0.1,0L8,37.9
		c-0.1,0-0.2,0-0.3,0c-0.4,0-0.7,0.1-1,0.4c-0.3,0.3-0.4,0.6-0.4,1.1c0,0.4,0.2,0.8,0.5,1.2c0.3,0.4,0.8,0.7,1.4,1
		c0.6,0.3,1.4,0.5,2.2,0.7c0.4,0.1,0.7,0.1,1.1,0.1c0.5,0,0.9-0.1,1.2-0.3c0.3-0.2,0.4-0.4,0.4-0.8c0-0.5-0.2-1-0.7-1.4
		c-0.4-0.5-1-0.9-1.8-1.2C9.9,38.3,9,38.1,8,37.9l0.4-0.1c1,0.1,1.9,0.4,2.8,0.9s1.6,0.9,2.1,1.5c0.5,0.6,0.8,1.2,0.8,1.8
		c0,0.5-0.2,0.8-0.6,1.1s-0.9,0.4-1.5,0.4c-0.3,0-0.6,0-0.9-0.1c-1.1-0.2-2-0.6-2.8-1.1s-1.4-1.1-1.8-1.8c-0.4-0.7-0.6-1.3-0.6-1.9
		C5.8,38.1,5.9,37.7,6.2,37.3z"/>
	<path class="st0" d="M6.6,44.9c0.5-0.4,1.2-0.6,2.1-0.6c0.3,0,0.6,0,1,0.1c0.7,0.1,1.3,0.4,2,0.8s1.2,0.9,1.6,1.5
		c0.4,0.6,0.6,1.2,0.6,1.9c0,0.4-0.1,0.8-0.3,1c-0.2,0.2-0.5,0.3-0.8,0.2c-0.4-0.1-0.8-0.3-1.2-0.8c-0.4-0.5-0.7-1-1-1.7
		c-0.3-0.7-0.4-1.4-0.5-2.2l0.3,0c0.1,1,0.4,1.7,0.7,2.4c0.3,0.6,0.8,1,1.3,1.1c0.1,0,0.2,0,0.3,0c0.2,0,0.4-0.1,0.5-0.3
		s0.2-0.4,0.2-0.6c0-0.6-0.3-1.1-0.9-1.4c-0.6-0.4-1.3-0.6-2.2-0.8c-0.4-0.1-0.8-0.1-1.2-0.1c-0.8,0-1.5,0.2-2,0.5s-0.8,0.8-0.8,1.4
		c0,0.7,0.2,1.3,0.7,1.8v0c0,0,0,0.1-0.1,0.1c0,0-0.1,0-0.1,0c-0.8-0.8-1.2-1.7-1.2-2.6C5.8,45.8,6.1,45.3,6.6,44.9z"/>
</g>
</svg>
