<?xml version="1.0" encoding="utf-8"?>
<!-- Generator: Adobe Illustrator 25.4.1, SVG Export Plug-In . SVG Version: 6.00 Build 0)  -->
<svg version="1.1" id="レイヤー_1" xmlns="http://www.w3.org/2000/svg" xmlns:xlink="http://www.w3.org/1999/xlink" x="0px"
	 y="0px" viewBox="0 0 840 1460" style="enable-background:new 0 0 840 1460;" xml:space="preserve">
<style type="text/css">
	.st0{fill:none;}
	.st1{fill:#73924F;}
	.st2{fill:#FFFFFF;}
	.st3{fill:#99998D;}
	.st4{fill:url(#SVGID_1_);}
	.st5{fill:url(#SVGID_00000116951428977020990490000002965181112164668065_);}
	.st6{fill:url(#SVGID_00000167396192280487423480000006633710041518147733_);}
	.st7{fill:url(#SVGID_00000068644754220862216280000010070038468200714385_);}
	.st8{fill:url(#SVGID_00000161600598358665151880000001021542945262014398_);}
	.st9{fill:url(#SVGID_00000163753491120982283460000008267929846524874125_);}
	.st10{fill:url(#SVGID_00000033354727519532128550000010079285591903300010_);}
	.st11{fill:url(#SVGID_00000020389433218030866300000011362424800240682647_);}
	.st12{fill:url(#SVGID_00000006703199592908469370000003212567020545602491_);}
	.st13{fill:url(#SVGID_00000077318312895809770800000012559331058054709424_);}
	.st14{fill:url(#SVGID_00000120523185391170630610000009111175434601181879_);}
	.st15{fill:url(#SVGID_00000100348624299758640220000000051123418741935522_);}
	.st16{fill:url(#SVGID_00000159447746884923162760000015859402188185434772_);}
	.st17{fill:url(#SVGID_00000098934289704746865840000005641832926900434333_);}
	.st18{fill:url(#SVGID_00000142862304227987385560000018352545969996132243_);}
	.st19{fill:url(#SVGID_00000112604514281492762320000001092510580591423622_);}
	.st20{fill:url(#SVGID_00000180341153770647909820000012911474689982047108_);}
	.st21{fill:url(#SVGID_00000139276190904263101250000009647155509385100457_);}
	.st22{fill:url(#SVGID_00000165206115776336341350000012890511864751205557_);}
	.st23{fill:#FFFBF2;}
	.st24{fill:url(#SVGID_00000078009217679336676940000008547255202433190310_);}
</style>
<pattern  x="420" y="730" width="419" height="419" patternUnits="userSpaceOnUse" id="Unnamed_Pattern_7" viewBox="0 -419 419 419" style="overflow:visible;">
	<g>
		<rect y="-419" class="st0" width="419" height="419"/>
		<rect x="0" y="-419" class="st1" width="419" height="419"/>
	</g>
</pattern>
<g>
	<polygon class="st1" points="517.6,56.7 323.4,56.7 295.8,29.2 295.8,29.2 323.4,1.6 517.6,1.6 545.1,29.2 545.1,29.2 	"/>
</g>
<g>
	<path class="st2" d="M363.7,20.2h-19.4v-3.5h24.5v2.8L355,40.7h-4.8L363.7,20.2z"/>
	<path class="st2" d="M381.5,20.3v7.1H398V31h-16.4v9.7h-4.1V16.6H401v3.6H381.5z"/>
	<path class="st2" d="M429,40.7l-7.5-8.7h-10.1v8.7h-4.1V16.6h16.4c5.6,0,9.7,2.7,9.7,7.7c0,4.2-2.9,6.7-7.1,7.5l7.8,8.9H429z
		 M423.3,28.4c3.4,0,5.8-1.1,5.8-4.1c0-3-2.3-4.1-5.8-4.1h-12v8.2H423.3z"/>
	<path class="st2" d="M464.6,37.1v3.6h-24V16.6h23.6v3.6h-19.5v6.4h16.4v3.6h-16.4v6.8H464.6z"/>
	<path class="st2" d="M495.5,37.1v3.6h-24V16.6h23.6v3.6h-19.5v6.4h16.4v3.6h-16.4v6.8H495.5z"/>
</g>
<g>
	<path class="st3" d="M74.3,514.4c0,0,0,0.8,0,1.1c-0.3,10.8-0.5,14.5-1.4,15.7c-0.5,0.8-1,1-1.9,1.1c-0.8,0.1-2,0.1-3.2,0
		c-0.1-0.7-0.3-1.7-0.7-2.3c1.2,0.1,2.3,0.1,2.7,0.1c0.4,0,0.7-0.1,0.9-0.4c0.6-0.7,0.8-4.1,1-13.1h-3.1c-0.3,7-1.5,12.5-6,16
		c-0.4-0.6-1.2-1.4-1.8-1.8c0.2-0.1,0.3-0.2,0.5-0.4c-3.8,0.4-7.5,0.8-10.3,1.1l-0.3-2.1c1.5-0.1,3.4-0.3,5.5-0.4v-2h-4.8v-1.8h4.8
		V524h-4.7v-7.9h4.7v-1.4h-5.4v-1.8h5.4v-1.5c-1.6,0.1-3.2,0.2-4.7,0.3c-0.1-0.5-0.3-1.3-0.6-1.8c3.9-0.2,8.5-0.7,11.2-1.3l1.2,1.8
		c-1.4,0.3-3.1,0.5-4.9,0.7v1.7h5.3v1.5h2.7c0-1.8,0-3.6,0-5.6H69c0,1.9,0,3.8-0.1,5.6H74.3z M53.6,519.3h2.7v-1.6h-2.7V519.3z
		 M56.3,522.4v-1.6h-2.7v1.6H56.3z M58.6,528.9c1.6-0.2,3.3-0.3,4.9-0.5c2.1-3,2.8-6.9,3-11.7h-2.8v-2h-5.2v1.4h4.9v7.9h-4.9v1.3
		h4.9v1.8h-4.9V528.9z M61.4,519.3v-1.6h-2.8v1.6H61.4z M58.6,520.8v1.6h2.8v-1.6H58.6z"/>
	<path class="st3" d="M88.4,522.1c-1,0.3-2,0.7-3.1,1v9.4h-2.3v-8.7l-4.1,1.3l-0.6-2.3c1.3-0.3,3-0.8,4.7-1.3V516H81
		c-0.3,1.4-0.7,2.6-1.1,3.6c-0.4-0.3-1.3-0.8-1.8-1.1c0.9-2.1,1.4-5.4,1.6-8.5l2.1,0.3c-0.1,1.1-0.3,2.3-0.4,3.4h1.6v-5.2h2.3v5.2
		h2.4v2.3h-2.4v4.8l2.7-0.8L88.4,522.1z M102.3,512.7c0,0,0,0.8,0,1.2c-0.6,11.8-1.1,15.9-2.1,17.2c-0.5,0.8-1.1,1-1.9,1.2
		c-0.7,0.1-1.8,0.1-3,0.1c0-0.7-0.3-1.7-0.7-2.4c1.1,0.1,2.1,0.1,2.6,0.1c0.4,0,0.7-0.1,0.9-0.5c0.8-0.9,1.3-4.6,1.8-14.5h-0.7
		c-1.3,6.8-4.1,13.6-8.4,17c-0.5-0.4-1.3-1.1-2-1.4c4.2-3,7-9.3,8.3-15.6h-1.8c-1.2,4.4-3.4,9.2-6.2,11.7c-0.4-0.4-1.2-1-1.9-1.4
		c2.7-2.1,4.8-6.2,6-10.3h-1.9c-0.8,1.9-1.8,3.5-2.8,4.8c-0.4-0.3-1.4-1.1-1.9-1.4c2.1-2.3,3.6-6,4.5-9.9l2.2,0.4
		c-0.3,1.3-0.7,2.6-1.1,3.8H102.3z"/>
	<path class="st3" d="M120,525.9c1.8,2.5,5,4,9.4,4.6c-0.5,0.5-1.1,1.5-1.5,2.1c-5.1-0.9-8.4-2.9-10.4-6.5
		c-1.4,2.5-4.3,4.8-10.1,6.4c-0.3-0.5-1-1.4-1.5-1.9c4.8-1.2,7.4-2.9,8.8-4.7h-8.4v-2.1h9.6c0.2-0.7,0.3-1.4,0.4-2.1h-7v-2h7v-2
		h-7.4v-1.5h-2.2v-5.2h9.7v-2.4h2.5v2.4h9.7v5.2h-2v1.5h-7.8v2h7.4v2h-7.4c-0.1,0.7-0.2,1.4-0.3,2.1h10.7v2.1H120z M116.3,515.6
		v-1.9h2.5v1.9h7.4V513H109v2.6H116.3z"/>
	<path class="st3" d="M133.1,530.3c0.9-1.3,1.2-3.5,1.3-5.8l1.4,0.3c-0.1,2.3-0.4,4.8-1.4,6.2L133.1,530.3z M152.5,525.3
		c1,2.4,2.8,4.3,5.2,5.3c-0.5,0.4-1.2,1.3-1.5,1.9c-2.4-1.2-4.1-3.2-5.2-5.9c-0.9,2.2-2.6,4.3-6,5.9c-0.2-0.5-0.9-1.2-1.4-1.6
		c-0.1,0.3-0.2,0.6-0.4,0.7c-0.4,0.5-0.8,0.7-1.4,0.8c-0.5,0.1-1.4,0.1-2.3,0.1c-0.1-0.6-0.2-1.4-0.5-1.9c0.8,0.1,1.5,0.1,1.9,0.1
		c0.3,0,0.5-0.1,0.7-0.3c0.2-0.3,0.4-1.1,0.6-2.8l-0.9,0.3c-0.2-0.9-0.7-2.3-1.3-3.4l1-0.3c0.4,0.8,0.9,1.9,1.2,2.7
		c0.1-1,0.2-2.1,0.2-3.6h-7.6v-13.7h9.4v2h-3.1v1.9h2.6v1.6c2.5-1.5,4.8-4.2,6-6.5h2.1c1.5,2.5,4,4.9,6.3,6.1
		c-0.4,0.5-0.9,1.4-1.2,2.1c-0.6-0.4-1.3-0.9-1.9-1.4v1.5h-2.9v1.8h4.8v6.6H152.5z M137.4,524.9c0.3,1.5,0.4,3.5,0.4,4.7l-1.2,0.2
		c0.1-1.3-0.1-3.2-0.3-4.8L137.4,524.9z M136.6,511.5v1.9h2.2v-1.9H136.6z M136.6,515.3v2h2.2v-2H136.6z M136.6,521.2h2.2v-2h-2.2
		V521.2z M139,529.1c-0.1-1.1-0.5-2.9-0.9-4.2l1.1-0.2c0.5,1.3,0.9,3.1,1,4.2L139,529.1z M144.3,521.2c0,0,0,0.6,0,0.9
		c-0.2,4.8-0.4,7.4-0.8,8.6c3.2-1.5,4.7-3.5,5.4-5.5h-4v-6.6h4.6v-1.8h-2.9v-1.5c-0.7,0.6-1.4,1.2-2.1,1.6c-0.2-0.5-0.7-1.4-1.1-1.9
		v0.2h-2.6v2h2.6v1.9h-2.6v2H144.3z M149.4,523.4c0.1-0.8,0.2-1.7,0.2-2.5v-0.5h-2.6v3H149.4z M154.2,514.9
		c-1.5-1.3-2.8-2.8-3.7-4.3c-0.8,1.4-2,3-3.4,4.3H154.2z M151.7,520.5v0.5c0,0.8,0,1.6-0.1,2.4h2.8v-3H151.7z"/>
	<path class="st3" d="M170.6,513.4c1.3-0.2,2.6-0.5,3.8-0.9l0.1,2.4c-1.3,0.4-2.9,0.7-4.7,0.9c-1.3,3.7-3.6,8.2-5.7,11.1l-2.5-1.3
		c2.1-2.6,4.3-6.6,5.5-9.6c-0.7,0-1.3,0.1-1.9,0.1c-1,0-2.1,0-3.1-0.1l-0.2-2.4c1,0.1,2.3,0.2,3.3,0.2c0.9,0,1.8,0,2.7-0.1
		c0.4-1.5,0.7-3.1,0.8-4.5l2.9,0.3C171.3,510.4,171,511.9,170.6,513.4z M177.7,520.7c0,0.9,0.1,2.4,0.2,3.9c2.3,0.8,4.1,2.1,5.4,3.3
		l-1.4,2.2c-1-0.9-2.4-2.1-3.9-2.9c0,0.3,0,0.5,0,0.7c0,2.2-1.3,4-4.8,4c-3,0-5.5-1.3-5.5-4c0-2.5,2.2-4.2,5.5-4.2
		c0.8,0,1.5,0.1,2.2,0.2c-0.1-2.1-0.2-4.5-0.3-6.3h2.6C177.7,518.7,177.7,519.6,177.7,520.7z M172.9,529.5c2,0,2.6-1.1,2.6-2.5
		c0-0.2,0-0.5,0-0.9c-0.8-0.2-1.6-0.3-2.4-0.3c-1.7,0-2.9,0.8-2.9,1.9C170.1,528.8,171.1,529.5,172.9,529.5z M176.5,515l1.3-2
		c1.9,0.8,5,2.6,6.3,3.5l-1.5,2.2C181.2,517.4,178.3,515.8,176.5,515z"/>
	<path class="st3" d="M193.4,512.9c-0.1,2.9-0.3,9-0.3,12.6c0,2.8,1.7,3.7,4,3.7c4.6,0,7.3-2.6,9.2-5.4l1.9,2.3
		c-1.7,2.5-5.3,5.9-11.1,5.9c-4,0-6.7-1.7-6.7-6c0-3.7,0.3-10.5,0.3-13c0-1.1-0.1-2.2-0.3-3l3.4,0
		C193.5,510.8,193.4,511.9,193.4,512.9z"/>
</g>
<g>
	<path class="st1" d="M128.3,339.8c-49.3,0-89.5-40.1-89.5-89.5s40.1-89.5,89.5-89.5s89.5,40.1,89.5,89.5S177.6,339.8,128.3,339.8z
		 M128.3,163.7c-47.8,0-86.7,38.9-86.7,86.7s38.9,86.7,86.7,86.7s86.7-38.9,86.7-86.7S176.1,163.7,128.3,163.7z"/>
	<path class="st1" d="M152.5,296.7h-24.3c-1.6,0-3-0.9-3.7-2.3c-0.7-1.4-0.5-2.9,0.4-4c0.5-0.6,1.1-1.1,1.7-1.5
		c-1.4-0.6-2.8-1.1-4.2-1.7c-0.5-0.2-1-0.2-1.4,0c-0.4,0.2-0.6,0.5-0.8,1c-0.4,1.4-0.7,2.9-1,4.5c-0.1,0.7-0.3,1.5-0.4,2.3
		c-0.1,0.6-0.7,1.1-1.4,1.1l-2.1,0c-2.5,0-5,0-7.6,0c-1,0-2-0.7-2.3-1.7c-0.8-2.3-0.5-4.4,1-6.1c0.5-0.6,0.8-1.2,1-1.9
		c1.5-5.8,1.6-12.1,0.5-18.6c-1-5.8-4-9.2-9.2-10.5c-4-1-6.7-5.7-6.1-10.5c0.5-3.9,2.2-7.5,5.1-10.9c1.4-1.6,2.9-3,4.5-4.4
		c0.4-0.4,0.9-0.8,1.3-1.2c-0.2-0.5-0.5-1.1-0.7-1.6c-0.8-1.9-1.7-3.9-2.4-6c-2-5.4-1.2-10.3,2.1-14.6c1-1.3,2.3-2,3.6-2
		c0.8,0,2,0.2,3.2,1.5c1.5,1.7,2.7,3.6,3.1,5.5c0.5,1.8,0.6,3.6,0.7,5.3c0.1,0.9,0.1,1.8,0.2,2.6c0.2,1.4,0.4,2.9,0.6,4.5
		c0-0.1,0-0.3,0-0.4c0-0.8,0.1-1.6,0.2-2.4c1.3-7.2,3.4-15.2,12.5-18.5c0.2-0.1,0.4-0.1,0.6-0.1l1.5,0.1c0.2,0,0.4,0.1,0.6,0.2
		c2,1.2,3,3.1,3,5.4c0,1.9-0.1,3.9-0.3,6.1c-0.4,4.6-2.6,8.7-4.6,12.1c-1,1.7-1.9,3.6-1.6,5.8c0.6,5.9,3.3,9.8,8.4,11.8
		c1.9,0.7,3.7,1.5,5.6,2.2c2.7,1.1,5.5,2.1,8.3,3.3c10.7,4.5,17.3,14.9,16.4,25.9c0,0.3,0,0.4,0,0.4h0c0,0,0.1,0.1,0.4,0.1
		c2.9,1,4.6,3.1,5,6.1c0.4,3.1-1.3,6.4-4,7.8c-2.2,1.2-4.7,1.2-7,0.1l-5.7,5C153.2,296.6,152.8,296.7,152.5,296.7z M121.7,284.2
		c0.6,0,1.3,0.1,1.9,0.4c1.4,0.6,2.9,1.2,4.4,1.8c0.7,0.3,1.4,0.6,2.2,0.9c0.5,0.2,0.8,0.6,0.9,1.1c0.1,0.5-0.2,1-0.6,1.3
		c-0.4,0.3-0.9,0.6-1.4,0.8c-0.8,0.5-1.6,0.9-2,1.5c-0.3,0.5-0.2,0.9-0.1,1.1c0.2,0.4,0.6,0.8,1.2,0.8H152l6-5.3
		c0.5-0.4,1.1-0.5,1.7-0.1c1,0.6,2.9,1.5,5.1,0.3c1.8-0.9,2.8-3,2.6-5c-0.2-1.9-1.3-3.2-3.2-3.8c-1.7-0.6-2.4-1.6-2.2-3.4
		c0.8-9.8-5.2-19.1-14.8-23.1c-2.7-1.1-5.5-2.2-8.2-3.3c-1.9-0.7-3.8-1.5-5.6-2.2c-6-2.4-9.4-7.1-10.1-14.1c-0.3-3,0.8-5.5,2-7.5
		c1.9-3.3,3.8-6.9,4.2-11c0.2-2,0.3-4,0.3-5.8c0-1.2-0.5-2.2-1.4-2.9l-0.8-0.1c-6.7,2.6-9,8.2-10.4,16.3c-0.1,0.7-0.2,1.4-0.2,2.1
		c0,0.7-0.1,1.5-0.2,2.2c-0.1,0.7-0.5,1.3-0.8,1.7c-0.1,0.1-0.2,0.3-0.3,0.4c-0.2,0.4-0.6,0.6-1,0.7c-0.4,0.1-0.9-0.1-1.2-0.4
		c-0.1-0.1-0.2-0.2-0.4-0.3c-0.5-0.4-1.2-0.9-1.3-1.8c-0.5-2.2-0.8-4.5-1-6.5c-0.1-0.9-0.2-1.8-0.2-2.8c-0.1-1.7-0.2-3.3-0.6-4.8
		c-0.4-1.4-1.3-3-2.5-4.3c-0.4-0.4-0.7-0.6-1.1-0.6c-0.4,0-1,0.4-1.5,1c-2.8,3.5-3.3,7.4-1.7,11.9c0.7,2,1.6,3.9,2.4,5.8
		c0.4,0.9,0.7,1.7,1.1,2.5c0.2,0.5,0.1,1.1-0.3,1.5c-0.7,0.6-1.3,1.3-2,1.9c-1.5,1.3-3,2.7-4.2,4.2c-2.6,3-4.1,6.1-4.5,9.4
		c-0.4,3.4,1.4,6.8,4,7.5c6.3,1.5,10.1,5.8,11.3,12.7c1.2,6.9,1,13.5-0.5,19.7c-0.3,1.1-0.8,2.1-1.6,3c-0.8,0.9-0.9,1.9-0.5,3.2
		c2.5,0,4.9,0,7.3,0l1,0c0.1-0.4,0.1-0.7,0.2-1.1c0.3-1.6,0.6-3.2,1-4.8c0.3-1.2,1.2-2.2,2.3-2.7
		C120.5,284.3,121.1,284.2,121.7,284.2z M108.2,293.3C108.2,293.3,108.2,293.3,108.2,293.3C108.2,293.3,108.2,293.3,108.2,293.3z
		 M107.9,293.1C107.9,293.1,107.9,293.1,107.9,293.1C107.9,293.1,107.9,293.1,107.9,293.1z"/>
</g>
<g>
	<g>
		<path class="st1" d="M74.1,392.7c1.3,0,2.7,0.2,4.3,0.6c1.5,0.4,2.9,0.9,4.2,1.7l0.6,8c-0.8-3-2-5.2-3.6-6.7
			c-1.6-1.5-3.5-2.3-5.6-2.3c-1.2,0-2.4,0.2-3.4,0.7c-1.1,0.5-2,1.2-2.8,2.1c-0.8,1-1.4,2.2-1.9,3.6c-0.4,1.4-0.7,3.1-0.7,5.1
			c0,1.9,0.2,3.5,0.7,5c0.4,1.5,1.1,2.7,1.9,3.7c0.8,1,1.8,1.8,2.9,2.3c1.1,0.5,2.4,0.8,3.8,0.8c0.8,0,1.6-0.1,2.4-0.3
			c0.8-0.2,1.6-0.5,2.3-0.9c0.8-0.4,1.5-1,2.1-1.7c0.7-0.7,1.3-1.6,1.8-2.7l0,4.3c-0.9,0.8-2.2,1.4-3.7,1.9c-1.5,0.5-3.2,0.8-5,0.8
			c-1.9,0-3.6-0.4-5.1-1.1c-1.5-0.7-2.8-1.7-3.9-2.9c-1.1-1.2-1.9-2.6-2.5-4.1s-0.9-3.2-0.9-4.9s0.3-3.4,0.8-4.9
			c0.6-1.6,1.4-2.9,2.4-4.1c1-1.2,2.3-2.1,3.8-2.8C70.7,393,72.3,392.7,74.1,392.7z"/>
		<path class="st1" d="M88.7,418.2c0.8-0.2,1.3-0.7,1.5-1.3c0.2-0.7,0.4-1.5,0.4-2.6V402c0-1-0.1-1.9-0.2-2.5
			c-0.1-0.6-0.4-1.2-0.8-1.7l3.6-0.3v4.3c0.7-1.3,1.6-2.3,2.7-3.1c1.1-0.8,2.5-1.2,4.2-1.2c0.3,0,0.6,0,0.9,0.1c0.3,0,0.7,0.1,1,0.2
			l0,3.6c-0.5-0.5-1.1-0.9-1.7-1.2c-0.7-0.4-1.4-0.5-2.3-0.5c-1.2,0-2.1,0.4-2.9,1.2c-0.8,0.8-1.4,1.7-1.9,2.9v10.8
			c0,1,0.1,1.9,0.4,2.5c0.3,0.7,0.8,1.1,1.5,1.3H88.7z"/>
		<path class="st1" d="M106.3,397.7l3.6-0.3v14.1c0,1.2,0.1,2.1,0.4,2.9c0.3,0.8,0.6,1.3,1,1.7c0.4,0.4,0.9,0.7,1.5,0.9
			c0.5,0.2,1.1,0.2,1.7,0.2c1.1,0,2.1-0.2,2.9-0.7c0.8-0.4,1.5-1,2-1.7c0.5-0.7,0.9-1.4,1.2-2.2c0.3-0.8,0.4-1.6,0.5-2.3V402
			c0-1-0.1-1.9-0.2-2.5c-0.1-0.6-0.4-1.2-0.8-1.7l3.6-0.3v16.8c0,1.1,0.1,1.9,0.3,2.5c0.2,0.6,0.4,1.1,0.8,1.4l-3.5,0.1V414
			c-0.6,1.3-1.5,2.4-2.6,3.3c-1.1,0.8-2.7,1.3-4.6,1.3c-0.9,0-1.8-0.1-2.6-0.3c-0.8-0.2-1.5-0.6-2.1-1.1c-0.6-0.5-1.1-1.1-1.4-1.9
			c-0.4-0.8-0.5-1.8-0.5-2.9V402c0-1-0.1-1.9-0.2-2.5C107,398.8,106.7,398.2,106.3,397.7z"/>
		<path class="st1" d="M139.4,397.3c1.5,0,2.8,0.2,3.8,0.6c1.1,0.4,1.9,1,2.6,1.8c0.7,0.8,1.2,1.7,1.5,2.7c0.3,1,0.5,2.2,0.5,3.4
			h-15.3c0,0.3-0.1,0.7-0.1,1.1c0,0.4,0,0.7,0,1.1c0,1.4,0.2,2.6,0.6,3.8c0.4,1.1,0.9,2.1,1.6,2.9c0.7,0.8,1.5,1.4,2.5,1.9
			c1,0.4,2,0.7,3.1,0.7c1.7,0,3.3-0.6,4.6-1.7c1.3-1.1,2.3-2.8,3.1-5.2l-0.3,5.3c-0.9,0.8-2,1.5-3.4,2c-1.4,0.5-2.8,0.8-4.3,0.8
			c-1.6,0-3-0.3-4.3-0.8c-1.3-0.5-2.4-1.2-3.3-2.1s-1.6-2-2.1-3.3c-0.5-1.3-0.8-2.7-0.8-4.3c0-1.5,0.2-2.9,0.7-4.2
			c0.5-1.3,1.1-2.4,2-3.4c0.9-1,1.9-1.7,3.1-2.2C136.5,397.6,137.9,397.3,139.4,397.3z M132.8,404.7H145c-0.1-1.9-0.7-3.4-1.6-4.5
			c-1-1.1-2.3-1.6-4.1-1.6c-1.7,0-3.1,0.5-4.2,1.6C134,401.3,133.2,402.8,132.8,404.7z"/>
		<path class="st1" d="M152.9,418.2c0.8-0.2,1.3-0.7,1.5-1.3c0.2-0.7,0.4-1.5,0.4-2.6v-19.9c0-0.9-0.1-1.6-0.2-2.1
			c-0.1-0.5-0.4-0.9-0.7-1.2l3.5-0.4v23.6c0,1,0.1,1.9,0.4,2.5c0.3,0.7,0.8,1.1,1.5,1.3H152.9z"/>
		<path class="st1" d="M162.7,397.6h3l2.7-5.9v5.9h5.7v1.1h-5.7V414c0,0.2,0,0.5,0,0.9c0,0.4,0.1,0.7,0.2,1.1
			c0.1,0.3,0.4,0.6,0.7,0.9c0.3,0.2,0.7,0.4,1.3,0.4c0.6,0,1.1-0.2,1.5-0.5c0.5-0.3,0.9-0.7,1.2-1.1l0.7,0.6
			c-0.2,0.2-0.4,0.5-0.7,0.7c-0.2,0.3-0.5,0.5-0.9,0.7c-0.3,0.2-0.7,0.4-1.2,0.5c-0.4,0.1-1,0.2-1.5,0.2c-1,0-1.8-0.2-2.4-0.5
			c-0.6-0.4-1-0.8-1.2-1.3c-0.2-0.5-0.4-1-0.4-1.6c0-0.6-0.1-1-0.1-1.5v-14.9h-3.1V397.6z"/>
		<path class="st1" d="M181.3,397.6c-0.2,0.2-0.3,0.4-0.4,0.8c-0.1,0.3,0,0.9,0.4,1.8l5.8,14.3l5.1-12.6c0.3-0.8,0.5-1.5,0.6-2.1
			c0.1-0.5,0.1-0.9,0-1.2s-0.2-0.5-0.3-0.6c-0.1-0.1-0.3-0.2-0.4-0.3h4c-0.1,0.1-0.2,0.2-0.4,0.3c-0.2,0.1-0.4,0.4-0.6,0.7
			c-0.2,0.3-0.5,0.7-0.7,1.2c-0.3,0.5-0.6,1.2-0.9,2l-6.9,17c-0.2,0.6-0.5,1.1-0.8,1.8c-0.3,0.6-0.7,1.2-1.2,1.7
			c-0.5,0.5-1,1-1.6,1.4c-0.6,0.4-1.4,0.7-2.2,0.8l-1.5-3.7c0.8,0.4,1.5,0.7,2.2,0.7c0.9,0,1.8-0.3,2.6-1c0.8-0.7,1.4-1.6,1.9-2.7
			l-7.5-17.9c-0.3-0.8-0.6-1.3-0.9-1.6c-0.3-0.3-0.5-0.5-0.7-0.6H181.3z"/>
		<path class="st1" d="M90.1,461.1v-18.1c0-1.1-0.1-1.9-0.3-2.4c-0.2-0.5-0.7-0.9-1.5-1.1h16.2l0.8,6.5c-0.3-1.1-0.7-1.9-1.1-2.6
			c-0.4-0.7-1-1.2-1.7-1.6c-0.7-0.4-1.5-0.6-2.4-0.8c-0.9-0.1-2.1-0.2-3.5-0.2h-3.8v10h2.9c1.3,0,2.4-0.1,3.2-0.2
			c0.8-0.1,1.4-0.3,1.9-0.6c0.5-0.2,0.8-0.5,1.1-0.9c0.2-0.4,0.4-0.7,0.6-1.2l-0.4,7c-0.1-0.5-0.2-0.9-0.4-1.3
			c-0.2-0.4-0.5-0.7-1-0.9c-0.4-0.3-1.1-0.5-1.9-0.6c-0.8-0.1-1.9-0.2-3.2-0.2h-2.8v9.1c0,1.1,0.2,1.9,0.5,2.5
			c0.3,0.6,0.9,1,1.6,1.2H88c0.8-0.2,1.3-0.6,1.6-1.2C89.9,463,90.1,462.1,90.1,461.1z"/>
		<path class="st1" d="M109.8,464.7c0.8-0.2,1.3-0.7,1.5-1.3c0.2-0.7,0.4-1.5,0.4-2.6v-12.3c0-1-0.1-1.9-0.2-2.5
			c-0.1-0.6-0.4-1.2-0.8-1.7l3.6-0.3v4.3c0.7-1.3,1.6-2.3,2.7-3.1c1.1-0.8,2.5-1.2,4.2-1.2c0.3,0,0.6,0,0.9,0.1c0.3,0,0.7,0.1,1,0.2
			l0,3.6c-0.5-0.5-1.1-0.9-1.7-1.2c-0.7-0.4-1.4-0.5-2.3-0.5c-1.2,0-2.1,0.4-2.9,1.2c-0.8,0.8-1.4,1.7-1.9,2.9v10.8
			c0,1,0.1,1.9,0.4,2.5c0.3,0.7,0.8,1.1,1.5,1.3H109.8z"/>
		<path class="st1" d="M136.9,443.9c1.5,0,2.8,0.2,3.8,0.6c1.1,0.4,1.9,1,2.6,1.8c0.7,0.8,1.2,1.7,1.5,2.7c0.3,1,0.5,2.2,0.5,3.4
			h-15.3c0,0.3-0.1,0.7-0.1,1.1c0,0.4,0,0.7,0,1.1c0,1.4,0.2,2.6,0.6,3.8c0.4,1.1,0.9,2.1,1.6,2.9c0.7,0.8,1.5,1.4,2.5,1.9
			c1,0.4,2,0.7,3.1,0.7c1.7,0,3.3-0.6,4.6-1.7c1.3-1.1,2.3-2.8,3.1-5.2l-0.3,5.3c-0.9,0.8-2,1.5-3.4,2c-1.4,0.5-2.8,0.8-4.3,0.8
			c-1.6,0-3-0.3-4.3-0.8c-1.3-0.5-2.4-1.2-3.3-2.1c-0.9-0.9-1.6-2-2.1-3.3c-0.5-1.3-0.8-2.7-0.8-4.3c0-1.5,0.2-2.9,0.7-4.2
			c0.5-1.3,1.1-2.4,2-3.4c0.9-1,1.9-1.7,3.1-2.2C134.1,444.1,135.4,443.9,136.9,443.9z M130.4,451.3h12.3c-0.1-1.9-0.7-3.4-1.6-4.5
			c-1-1.1-2.3-1.6-4.1-1.6c-1.7,0-3.1,0.5-4.2,1.6C131.5,447.8,130.8,449.3,130.4,451.3z"/>
		<path class="st1" d="M160.2,443.9c1.5,0,2.8,0.2,3.8,0.6c1.1,0.4,1.9,1,2.6,1.8c0.7,0.8,1.2,1.7,1.5,2.7c0.3,1,0.5,2.2,0.5,3.4
			h-15.3c0,0.3-0.1,0.7-0.1,1.1c0,0.4,0,0.7,0,1.1c0,1.4,0.2,2.6,0.6,3.8c0.4,1.1,0.9,2.1,1.6,2.9c0.7,0.8,1.5,1.4,2.5,1.9
			c1,0.4,2,0.7,3.1,0.7c1.7,0,3.3-0.6,4.6-1.7c1.3-1.1,2.3-2.8,3.1-5.2l-0.3,5.3c-0.9,0.8-2,1.5-3.4,2c-1.4,0.5-2.8,0.8-4.3,0.8
			c-1.6,0-3-0.3-4.3-0.8c-1.3-0.5-2.4-1.2-3.3-2.1c-0.9-0.9-1.6-2-2.1-3.3c-0.5-1.3-0.8-2.7-0.8-4.3c0-1.5,0.2-2.9,0.7-4.2
			c0.5-1.3,1.1-2.4,2-3.4c0.9-1,1.9-1.7,3.1-2.2C157.4,444.1,158.7,443.9,160.2,443.9z M153.7,451.3h12.3c-0.1-1.9-0.7-3.4-1.6-4.5
			c-1-1.1-2.3-1.6-4.1-1.6c-1.7,0-3.1,0.5-4.2,1.6C154.9,447.8,154.1,449.3,153.7,451.3z"/>
	</g>
</g>
<g>
	<path class="st3" d="M343,515c0,0,0,0.8,0,1.1c-0.3,10.8-0.5,14.5-1.4,15.7c-0.5,0.8-1,1-1.9,1.1c-0.8,0.1-2,0.1-3.2,0
		c-0.1-0.7-0.3-1.7-0.7-2.3c1.2,0.1,2.3,0.1,2.7,0.1c0.4,0,0.7-0.1,0.9-0.4c0.6-0.7,0.8-4.1,1-13.1h-3.1c-0.3,7-1.5,12.5-6,16
		c-0.4-0.6-1.2-1.4-1.8-1.8c0.2-0.1,0.3-0.2,0.5-0.4c-3.8,0.4-7.5,0.8-10.3,1.1l-0.3-2.1c1.5-0.1,3.4-0.3,5.5-0.4v-2h-4.8v-1.8h4.8
		v-1.3h-4.7v-7.9h4.7v-1.4h-5.4v-1.8h5.4V512c-1.6,0.1-3.2,0.2-4.7,0.3c-0.1-0.5-0.3-1.3-0.6-1.8c3.9-0.2,8.5-0.7,11.2-1.3l1.2,1.8
		c-1.4,0.3-3.1,0.5-4.9,0.7v1.7h5.3v1.5h2.7c0-1.8,0-3.6,0-5.6h2.3c0,1.9,0,3.8-0.1,5.6H343z M322.3,519.8h2.7v-1.6h-2.7V519.8z
		 M325,522.9v-1.6h-2.7v1.6H325z M327.2,529.4c1.6-0.2,3.3-0.3,4.9-0.5c2.1-3,2.8-6.9,3-11.7h-2.8v-2h-5.2v1.4h4.9v7.9h-4.9v1.3h4.9
		v1.8h-4.9V529.4z M330,519.8v-1.6h-2.8v1.6H330z M327.2,521.3v1.6h2.8v-1.6H327.2z"/>
	<path class="st3" d="M357,522.7c-1,0.3-2,0.7-3.1,1v9.4h-2.3v-8.7l-4.1,1.3l-0.6-2.3c1.3-0.3,3-0.8,4.7-1.3v-5.5h-2.1
		c-0.3,1.4-0.7,2.6-1.1,3.6c-0.4-0.3-1.3-0.8-1.8-1.1c0.9-2.1,1.4-5.4,1.6-8.5l2.1,0.3c-0.1,1.1-0.3,2.3-0.4,3.4h1.6V509h2.3v5.2
		h2.4v2.3H354v4.8l2.7-0.8L357,522.7z M370.9,513.2c0,0,0,0.8,0,1.2c-0.6,11.8-1.1,15.9-2.1,17.2c-0.5,0.8-1.1,1-1.9,1.2
		c-0.7,0.1-1.8,0.1-3,0.1c0-0.7-0.3-1.7-0.7-2.4c1.1,0.1,2.1,0.1,2.6,0.1c0.4,0,0.7-0.1,0.9-0.5c0.8-0.9,1.3-4.6,1.8-14.5h-0.7
		c-1.3,6.8-4.1,13.6-8.4,17c-0.5-0.4-1.3-1.1-2-1.4c4.2-3,7-9.3,8.3-15.6h-1.8c-1.2,4.4-3.4,9.2-6.2,11.7c-0.4-0.4-1.2-1-1.9-1.4
		c2.7-2.1,4.8-6.2,6-10.3H360c-0.8,1.9-1.8,3.5-2.8,4.8c-0.4-0.3-1.4-1.1-1.9-1.4c2.1-2.3,3.6-6,4.5-9.9l2.2,0.4
		c-0.3,1.3-0.7,2.6-1.1,3.8H370.9z"/>
	<path class="st3" d="M374.3,520.7c0.7-1.8,1.1-4.6,1.3-6.8l1.8,0.3c-0.1,2.1-0.6,5.2-1.2,7.1L374.3,520.7z M398.5,529.9v2.3h-16.1
		v-2.3h7.3v-5.9h-5.3v-2.3h5.3v-4.9h-3.4c-0.5,1.5-1.1,2.8-1.7,3.9c-0.5-0.3-1.6-0.9-2.2-1.1c0.3-0.5,0.7-1.1,1-1.8l-1.5,0.7
		c-0.2-1-0.9-2.7-1.6-4.1V533h-2.4v-24h2.4v4.8l1.5-0.6c0.7,1.2,1.4,2.8,1.7,3.9c0.8-2,1.4-4.5,1.7-7l2.4,0.4
		c-0.2,1.3-0.5,2.6-0.8,3.8h2.7v-5.3h2.4v5.3h5.7v2.3h-5.7v4.9h5.1v2.3h-5.1v5.9H398.5z"/>
	<path class="st3" d="M424.6,518c-1.1,3.4-2.6,6.3-4.6,8.8c0.9,2.2,1.9,3.6,3,3.6c0.7,0,1-1.3,1.2-4.7c0.6,0.6,1.4,1.1,2.1,1.4
		c-0.4,4.6-1.3,5.8-3.4,5.8c-1.9,0-3.4-1.5-4.6-3.9c-1.5,1.6-3.1,2.9-4.9,4c-0.4-0.5-1.2-1.5-1.8-2c2.2-1.2,4.1-2.7,5.7-4.6
		c-0.9-3-1.5-6.7-1.9-10.8H407v3.2h6.6v0.9c-0.1,5.7-0.3,7.9-0.8,8.7c-0.5,0.6-1,0.8-1.7,0.8c-0.7,0.1-1.8,0.1-3.1,0.1
		c-0.1-0.7-0.3-1.6-0.7-2.3c1.1,0.1,2.1,0.1,2.5,0.1c0.4,0,0.6-0.1,0.8-0.3c0.3-0.4,0.4-1.9,0.5-5.8H407c0,3.7-0.5,9-2.8,12.3
		c-0.4-0.5-1.5-1.4-2-1.7c2.1-3.1,2.3-7.6,2.3-11v-7.4h10.8c-0.1-1.4-0.1-2.8-0.1-4.2h2.6c0,1.4,0,2.8,0.1,4.2h5.1
		c-1-0.9-2.7-2-4.1-2.7l1.5-1.5c1.5,0.8,3.5,2,4.5,2.9l-1.3,1.3h2.7v2.4h-8.2c0.3,3.1,0.7,5.9,1.3,8.3c1.3-1.9,2.2-4.1,3-6.5
		L424.6,518z"/>
	<path class="st3" d="M445.9,509.4c1.7,3.4,5,7.3,7.8,9.3c-0.6,0.5-1.6,1.5-2,2.2c-0.7-0.6-1.5-1.3-2.2-2.1c0,0.2,0,0.8,0,1
		c-0.3,7.9-0.7,11-1.6,12c-0.6,0.8-1.2,0.9-2.1,1.1c-0.9,0.1-2.5,0.1-4.1,0c0-0.7-0.4-1.8-0.8-2.5c1.6,0.2,3.1,0.2,3.7,0.2
		c0.5,0,0.8-0.1,1.1-0.4c0.6-0.6,0.9-3.1,1.2-9.2h-6c-0.7,5.1-2.3,9.7-9.1,12.1c-0.3-0.6-1-1.7-1.5-2.2c6-2,7.4-5.8,8-9.9h-4.9v-2
		c-0.8,0.8-1.6,1.5-2.4,2.1c-0.4-0.5-1.5-1.5-2.1-1.9c3.2-2.2,6.1-5.8,7.8-9.8l2.6,0.8c-1.4,3.2-3.3,6.1-5.6,8.5h15.8
		c-2.2-2.4-4.3-5.4-5.8-8.3L445.9,509.4z"/>
	<path class="st3" d="M470,513.3c-0.5,0.9-1.1,1.8-1.7,2.7v17h-2.6v-13.7c-2.5,2.8-5.6,5.3-8.9,7.1c-0.4-0.7-1.2-1.6-1.7-2.2
		c5-2.4,9.3-6.6,11.8-10.9h-11v-2.5h22.4v2.5H470z M470.2,517.3c2.9,2,6.9,4.9,8.8,6.9l-2,1.9c-1.8-2-5.6-5.1-8.6-7.3L470.2,517.3z"
		/>
	<path class="st3" d="M489.5,509.7c-0.7,1.8-1.6,3.6-2.6,5.3v18.2h-2.3v-14.7c-0.8,1.1-1.7,2.1-2.5,3c-0.2-0.6-0.9-1.9-1.3-2.5
		c2.6-2.4,5-6.2,6.5-10.1L489.5,509.7z M497.8,523.6c-0.2,1.7-0.6,3.4-1.6,4.8c2.5,1.3,5.7,2.1,9.3,2.5c-0.5,0.5-1.1,1.5-1.4,2.2
		c-3.6-0.5-6.7-1.5-9.3-3c-1.3,1.2-3.1,2.3-5.7,3c-0.3-0.5-1-1.5-1.5-2c2.3-0.5,4-1.4,5.2-2.4c-1.4-1.1-2.6-2.5-3.5-4.1l2-0.6
		c0.7,1.2,1.7,2.3,2.9,3.1c0.7-1.1,1-2.3,1.2-3.6h-6.1v-7.4h6.2V514h-6.9v-2.2h6.9v-2.6h2.4v2.6h7.2v2.2H498v2.3h6.5v7.4H497.8z
		 M495.6,521.6v-0.8v-2.5h-4v3.3H495.6z M498,518.2v2.5c0,0.3,0,0.6,0,0.8h4.1v-3.3H498z"/>
	<path class="st3" d="M531.3,530c0,1.4-0.3,2.1-1.3,2.5c-1,0.4-2.5,0.4-4.9,0.4c-0.1-0.7-0.5-1.7-0.8-2.4c1.7,0.1,3.4,0.1,3.9,0.1
		c0.5,0,0.7-0.2,0.7-0.7v-4.7h-6.3v7.5h-2.4v-7.5h-6c-0.4,2.9-1.4,5.8-3.3,7.9c-0.4-0.5-1.4-1.3-1.9-1.6c2.9-3.2,3.1-7.8,3.1-11.5
		v-9.3h19.3V530z M520.1,523v-3.9h-5.7v1c0,0.9,0,1.9-0.1,2.8H520.1z M514.4,513.1v3.7h5.7v-3.7H514.4z M528.8,513.1h-6.3v3.7h6.3
		V513.1z M528.8,523v-3.9h-6.3v3.9H528.8z"/>
</g>
<g>
	<g>
		<path class="st1" d="M387.7,392.7h0.1v19.7c0,1.2,0,2.1,0.1,2.8c0.1,0.7,0.2,1.2,0.3,1.6c0.1,0.4,0.3,0.7,0.6,0.9
			c0.2,0.2,0.6,0.3,0.9,0.5h-6.6c0.4-0.1,0.7-0.3,1-0.4c0.3-0.2,0.5-0.5,0.6-0.9c0.1-0.4,0.2-1,0.3-1.7c0.1-0.7,0.1-1.6,0.1-2.8
			v-10.3c0-1.3-0.1-2.4-0.2-3.2c-0.1-0.8-0.3-1.4-0.6-1.9c-0.3-0.4-0.7-0.8-1.2-0.9c-0.5-0.2-1.1-0.2-1.9-0.2
			c1.5-0.5,2.7-1.1,3.6-1.6C385.9,393.8,386.8,393.3,387.7,392.7z"/>
		<path class="st1" d="M395.5,405.5c0-1.9,0.2-3.7,0.7-5.3c0.4-1.6,1.1-2.9,1.9-4c0.8-1.1,1.8-2,2.9-2.6c1.1-0.6,2.4-0.9,3.8-0.9
			c1.4,0,2.7,0.3,3.8,0.9c1.1,0.6,2.1,1.5,2.9,2.6c0.8,1.1,1.4,2.5,1.9,4c0.4,1.6,0.7,3.3,0.7,5.3c0,1.9-0.2,3.7-0.7,5.3
			c-0.4,1.6-1.1,3-1.9,4.1c-0.8,1.1-1.8,2-2.9,2.6c-1.1,0.6-2.4,0.9-3.8,0.9c-1.4,0-2.6-0.3-3.8-0.9c-1.1-0.6-2.1-1.5-2.9-2.6
			c-0.8-1.1-1.4-2.5-1.9-4.1C395.7,409.2,395.5,407.4,395.5,405.5z M398.6,405.5c0,3.6,0.5,6.5,1.5,8.6c1,2.1,2.6,3.1,4.6,3.1
			c2.1,0,3.6-1,4.7-3.1c1-2.1,1.5-4.9,1.5-8.6c0-3.6-0.5-6.4-1.5-8.5c-1-2-2.6-3.1-4.7-3.1c-2.1,0-3.6,1-4.6,3.1
			C399.1,399.1,398.6,401.9,398.6,405.5z"/>
		<path class="st1" d="M419.6,405.5c0-1.9,0.2-3.7,0.7-5.3c0.4-1.6,1.1-2.9,1.9-4c0.8-1.1,1.8-2,2.9-2.6c1.1-0.6,2.4-0.9,3.8-0.9
			c1.4,0,2.7,0.3,3.8,0.9c1.1,0.6,2.1,1.5,2.9,2.6c0.8,1.1,1.4,2.5,1.9,4c0.4,1.6,0.7,3.3,0.7,5.3c0,1.9-0.2,3.7-0.7,5.3
			c-0.4,1.6-1.1,3-1.9,4.1c-0.8,1.1-1.8,2-2.9,2.6c-1.1,0.6-2.4,0.9-3.8,0.9c-1.4,0-2.6-0.3-3.8-0.9c-1.1-0.6-2.1-1.5-2.9-2.6
			c-0.8-1.1-1.4-2.5-1.9-4.1C419.8,409.2,419.6,407.4,419.6,405.5z M422.7,405.5c0,3.6,0.5,6.5,1.5,8.6c1,2.1,2.6,3.1,4.6,3.1
			c2.1,0,3.6-1,4.7-3.1c1-2.1,1.5-4.9,1.5-8.6c0-3.6-0.5-6.4-1.5-8.5c-1-2-2.6-3.1-4.7-3.1c-2.1,0-3.6,1-4.6,3.1
			C423.2,399.1,422.7,401.9,422.7,405.5z"/>
		<path class="st1" d="M443.9,399.6c0-1,0.2-1.9,0.5-2.7c0.3-0.8,0.8-1.6,1.3-2.2c0.6-0.6,1.2-1.1,1.9-1.4c0.7-0.3,1.5-0.5,2.3-0.5
			c0.8,0,1.6,0.2,2.3,0.5c0.7,0.3,1.4,0.8,1.9,1.4c0.6,0.6,1,1.3,1.3,2.2s0.5,1.8,0.5,2.7c0,1-0.2,2-0.5,2.8s-0.8,1.6-1.3,2.2
			c-0.6,0.6-1.2,1.1-1.9,1.5c-0.7,0.4-1.5,0.5-2.3,0.5c-0.8,0-1.6-0.2-2.3-0.5c-0.7-0.4-1.4-0.8-1.9-1.5c-0.6-0.6-1-1.4-1.3-2.2
			C444.1,401.5,443.9,400.6,443.9,399.6z M446.6,399.6c0,1.9,0.3,3.3,0.9,4.3c0.6,1,1.5,1.5,2.5,1.5c1,0,1.8-0.5,2.5-1.5
			c0.6-1,1-2.5,1-4.3c0-1.8-0.3-3.2-1-4.2c-0.6-1-1.5-1.5-2.5-1.5c-1,0-1.8,0.5-2.5,1.5C446.9,396.4,446.6,397.8,446.6,399.6z
			 M467.1,392.9h1.1l-19.6,25.3h-1.1L467.1,392.9z M459.6,411.3c0-1,0.2-1.9,0.5-2.7c0.3-0.8,0.8-1.5,1.3-2.1
			c0.6-0.6,1.2-1.1,1.9-1.4c0.7-0.3,1.5-0.5,2.3-0.5c0.8,0,1.6,0.2,2.3,0.5c0.7,0.3,1.4,0.8,1.9,1.4c0.6,0.6,1,1.3,1.3,2.1
			c0.3,0.8,0.5,1.7,0.5,2.7c0,1-0.2,2-0.5,2.9c-0.3,0.9-0.8,1.6-1.3,2.2c-0.6,0.6-1.2,1.1-1.9,1.5c-0.7,0.4-1.5,0.5-2.3,0.5
			c-0.8,0-1.6-0.2-2.3-0.5c-0.7-0.4-1.4-0.8-1.9-1.5c-0.6-0.6-1-1.4-1.3-2.2C459.8,413.3,459.6,412.3,459.6,411.3z M465.7,417.2
			c1,0,1.8-0.5,2.5-1.5c0.6-1,1-2.5,1-4.4c0-1.8-0.3-3.2-1-4.2c-0.6-1-1.5-1.5-2.5-1.5c-1,0-1.8,0.5-2.5,1.5c-0.6,1-0.9,2.4-0.9,4.2
			c0,1.9,0.3,3.4,0.9,4.4C463.9,416.7,464.7,417.2,465.7,417.2z"/>
		<path class="st1" d="M374.3,439.4c-0.2,0.1-0.3,0.2-0.4,0.3c-0.1,0.1-0.2,0.4-0.2,0.7c0,0.3,0,0.7,0.1,1.3c0.1,0.5,0.3,1.2,0.7,2
			l7.1,17.1l6.8-17c0.3-0.9,0.6-1.6,0.7-2.1c0.1-0.5,0.2-1,0.2-1.3s-0.1-0.5-0.2-0.7c-0.1-0.1-0.2-0.2-0.4-0.3h4
			c-0.2,0.1-0.4,0.1-0.5,0.3c-0.2,0.1-0.4,0.4-0.7,0.8s-0.6,1-1,1.8c-0.4,0.8-0.8,1.8-1.4,3.2l-7.7,19.2h-0.7l-9.2-21.9
			c-0.3-0.7-0.6-1.2-0.8-1.6c-0.2-0.4-0.4-0.8-0.6-1c-0.2-0.3-0.4-0.4-0.6-0.5c-0.2-0.1-0.3-0.2-0.5-0.2H374.3z"/>
		<path class="st1" d="M406.3,443.9c1.5,0,2.8,0.2,3.8,0.6c1.1,0.4,1.9,1,2.6,1.8c0.7,0.8,1.2,1.7,1.5,2.7c0.3,1,0.5,2.2,0.5,3.4
			h-15.3c0,0.3-0.1,0.7-0.1,1.1c0,0.4,0,0.7,0,1.1c0,1.4,0.2,2.6,0.6,3.8c0.4,1.1,0.9,2.1,1.6,2.9c0.7,0.8,1.5,1.4,2.5,1.9
			c1,0.4,2,0.7,3.1,0.7c1.7,0,3.3-0.6,4.6-1.7c1.3-1.1,2.3-2.8,3.1-5.2l-0.3,5.3c-0.9,0.8-2,1.5-3.4,2c-1.4,0.5-2.8,0.8-4.3,0.8
			c-1.6,0-3-0.3-4.3-0.8c-1.3-0.5-2.4-1.2-3.3-2.1c-0.9-0.9-1.6-2-2.1-3.3c-0.5-1.3-0.8-2.7-0.8-4.3c0-1.5,0.2-2.9,0.7-4.2
			c0.5-1.3,1.1-2.4,2-3.4c0.9-1,1.9-1.7,3.1-2.2C403.5,444.1,404.8,443.9,406.3,443.9z M399.7,451.3H412c-0.1-1.9-0.7-3.4-1.6-4.5
			c-1-1.1-2.3-1.6-4.1-1.6c-1.7,0-3.1,0.5-4.2,1.6C400.9,447.8,400.2,449.3,399.7,451.3z"/>
		<path class="st1" d="M418.6,466.1c0-1.1,0.5-2,1.4-2.7c0.9-0.7,2.5-1.2,4.7-1.3c-1.3-0.2-2.2-0.6-2.8-1.1s-0.9-1.3-0.9-2.1
			c0-0.4,0.1-0.8,0.3-1.1c0.2-0.3,0.5-0.6,0.8-0.8c0.4-0.2,0.7-0.4,1.2-0.6c0.4-0.1,0.9-0.2,1.3-0.3c-1.1-0.6-2-1.3-2.6-2.3
			c-0.6-1-0.9-2.1-0.9-3.3c0-0.9,0.2-1.8,0.5-2.6c0.4-0.8,0.9-1.5,1.6-2s1.5-1,2.4-1.3c0.9-0.3,2-0.5,3.1-0.5c0.8,0,1.6,0.1,2.4,0.3
			c0.8,0.2,1.4,0.5,2,0.8c0.1-0.7,0.2-1.2,0.5-1.7c0.3-0.4,0.6-0.8,0.9-1.1c0.4-0.3,0.7-0.5,1.1-0.6c0.4-0.1,0.8-0.2,1.2-0.2
			c0.6,0,1.1,0.1,1.5,0.4c0.4,0.3,0.5,0.7,0.5,1.2c0,0.5-0.2,0.8-0.5,1.1c-0.3,0.3-0.7,0.4-1.2,0.4c-0.3,0-0.5,0-0.7-0.1
			c-0.2-0.1-0.4-0.2-0.5-0.3c-0.2-0.1-0.3-0.2-0.5-0.3c-0.2-0.1-0.3-0.1-0.5-0.1c-0.3,0-0.5,0.1-0.7,0.3c-0.2,0.2-0.4,0.7-0.5,1.4
			c0.8,0.6,1.4,1.3,1.8,2.1c0.4,0.8,0.6,1.8,0.6,2.8c0,0.9-0.2,1.8-0.5,2.6c-0.4,0.8-0.9,1.5-1.5,2.1c-0.7,0.6-1.5,1-2.4,1.3
			c-0.9,0.3-2,0.5-3.1,0.5c-0.3,0-0.5,0-0.8,0c-0.3,0-0.5,0-0.8-0.1c-0.2,0-0.4,0-0.6-0.1c-0.2,0-0.4,0-0.6,0
			c-0.9,0-1.7,0.1-2.3,0.4c-0.6,0.2-1,0.6-1,1.1c0,0.5,0.3,0.9,0.9,1.2c0.6,0.2,1.5,0.4,2.7,0.5l5.4,0.6c0.9,0.1,1.9,0.2,2.7,0.4
			c0.9,0.2,1.6,0.5,2.3,0.8c0.7,0.4,1.2,0.8,1.6,1.4c0.4,0.6,0.6,1.3,0.6,2.1c0,0.9-0.2,1.7-0.7,2.5c-0.5,0.7-1.2,1.3-2.1,1.8
			c-0.9,0.5-2,0.9-3.2,1.1c-1.3,0.3-2.7,0.4-4.3,0.4c-1.5,0-2.9-0.1-4.1-0.3c-1.2-0.2-2.3-0.5-3.1-1c-0.9-0.4-1.6-1-2-1.6
			C418.9,467.6,418.6,466.9,418.6,466.1z M421.1,466.2c0,0.7,0.2,1.2,0.6,1.7c0.4,0.5,0.9,0.9,1.6,1.2c0.7,0.3,1.5,0.6,2.4,0.7
			c0.9,0.2,2,0.3,3.1,0.3c2.8,0,4.9-0.4,6.2-1.1c1.4-0.8,2-1.7,2-2.8c0-0.8-0.3-1.4-0.9-1.8c-0.6-0.5-1.4-0.8-2.3-1.1
			c-0.9-0.3-1.8-0.4-2.8-0.5c-1-0.1-1.8-0.1-2.5-0.1c-2.5,0-4.3,0.3-5.5,0.9C421.6,464.1,421.1,465,421.1,466.2z M428.9,455.8
			c1.5,0,2.6-0.5,3.5-1.4c0.9-0.9,1.3-2.1,1.3-3.6c0-0.8-0.1-1.5-0.4-2.2c-0.2-0.7-0.6-1.3-1-1.8c-0.4-0.5-1-0.9-1.6-1.2
			c-0.6-0.3-1.4-0.5-2.2-0.5c-0.8,0-1.4,0.1-2,0.4c-0.6,0.3-1.1,0.6-1.5,1.1c-0.4,0.4-0.7,1-0.9,1.6c-0.2,0.6-0.3,1.2-0.3,1.9
			c0,0.8,0.1,1.5,0.4,2.2c0.2,0.7,0.6,1.3,1,1.8c0.4,0.5,1,0.9,1.6,1.3C427.4,455.6,428.1,455.8,428.9,455.8z"/>
		<path class="st1" d="M450.8,453.2l4.4-1.1v-1.4c0-1-0.1-1.9-0.3-2.6c-0.2-0.7-0.5-1.2-0.9-1.7c-0.4-0.4-0.9-0.7-1.4-0.9
			c-0.5-0.2-1.1-0.3-1.7-0.3c-0.7,0-1.3,0.1-2,0.3c-0.7,0.2-1.4,0.6-2,1.1c-0.6,0.5-1.2,1.2-1.8,2.1c-0.5,0.9-1,1.9-1.3,3.2
			l-0.1-5.7c0.9-0.6,2-1.2,3.3-1.6c1.3-0.4,2.7-0.7,4.1-0.7c2.1,0,3.8,0.5,5,1.5c1.3,1,1.9,2.6,1.9,4.7v10.7c0,0.9,0.1,1.7,0.3,2.3
			c0.2,0.7,0.5,1.2,0.9,1.5l-3.6,0.1v-4.3c-0.6,1.2-1.4,2.3-2.6,3.1c-1.1,0.8-2.6,1.3-4.4,1.3c-1.9,0-3.4-0.4-4.5-1.3
			c-1.1-0.9-1.6-2.1-1.6-3.6c0-1.1,0.3-2,0.8-2.8c0.5-0.8,1.2-1.4,2.1-1.9c0.8-0.5,1.8-1,2.8-1.3
			C448.8,453.7,449.8,453.4,450.8,453.2z M445.2,459.7c0,1.2,0.3,2.1,1,2.9c0.7,0.7,1.6,1.1,2.9,1.1c0.7,0,1.4-0.1,2.1-0.4
			c0.7-0.3,1.4-0.6,1.9-1.2c0.6-0.5,1.1-1.2,1.5-2c0.4-0.8,0.6-1.7,0.7-2.8v-4.1l-4.3,1.2c-0.6,0.1-1.2,0.3-1.9,0.6
			c-0.7,0.2-1.3,0.5-1.9,0.9c-0.6,0.4-1,0.9-1.4,1.5C445.3,458,445.2,458.8,445.2,459.7z"/>
		<path class="st1" d="M463.6,464.7c0.8-0.2,1.3-0.7,1.5-1.3c0.2-0.7,0.4-1.5,0.4-2.6v-12.3c0-1-0.1-1.9-0.2-2.5
			c-0.1-0.6-0.4-1.2-0.8-1.7l3.6-0.3v5c0.7-1.6,1.6-2.8,2.9-3.7c1.3-0.9,3-1.3,5-1.3c1,0,2,0.1,2.9,0.4c0.9,0.2,1.7,0.6,2.4,1.1
			c0.7,0.5,1.2,1.2,1.6,2.1c0.4,0.8,0.6,1.9,0.6,3.1v10.3c0,1,0.1,1.9,0.4,2.5c0.3,0.7,0.8,1.1,1.5,1.3h-6.4
			c0.8-0.2,1.3-0.7,1.5-1.3c0.2-0.7,0.4-1.5,0.4-2.6v-9.6c0-2.1-0.5-3.6-1.4-4.5c-1-0.9-2.3-1.4-4-1.4c-1,0-2,0.2-2.8,0.5
			c-0.9,0.4-1.6,0.9-2.3,1.6c-0.7,0.7-1.2,1.6-1.6,2.7c-0.4,1.1-0.6,2.3-0.7,3.7v7c0,1,0.1,1.9,0.4,2.5c0.3,0.7,0.8,1.1,1.5,1.3
			H463.6z"/>
	</g>
</g>
<g>
	<path class="st1" d="M426.9,340.1c-47.9,0-86.9-39-86.9-86.9s39-86.9,86.9-86.9c47.9,0,86.9,39,86.9,86.9S474.8,340.1,426.9,340.1z
		 M426.9,169.1c-46.4,0-84.1,37.7-84.1,84.1s37.7,84.1,84.1,84.1s84.1-37.7,84.1-84.1S473.3,169.1,426.9,169.1z"/>
	<g>
		<path class="st1" d="M421.9,299.1l-2.1-0.5c-3.6-0.9-6.9-1.3-10-1.6c-7.9-0.8-14.7-1.6-23.2-10.9c-9.5-10.5-9.2-22.5-9.1-29
			c0-1.8,0.8-3.5,2.1-4.7c1.3-1.2,3.1-1.8,4.9-1.7c6.4,0.5,18.4,1.5,27.9,12c8.4,9.3,8.4,17.2,8.5,24.8c0,3.1,0,6.2,0.6,9.5
			L421.9,299.1z M384.1,253.5c-0.9,0-1.8,0.3-2.5,1c-0.8,0.7-1.2,1.6-1.2,2.7c-0.1,6.1-0.4,17.4,8.4,27.1c7.7,8.6,13.8,9.2,21.4,10
			c2.7,0.3,5.4,0.6,8.4,1.2c-0.3-2.7-0.3-5.4-0.3-7.9c0-7.4-0.1-14.4-7.7-22.9c-8.7-9.7-20-10.6-26.1-11.1
			C384.3,253.5,384.2,253.5,384.1,253.5z"/>
		<path class="st1" d="M425.5,314.8c-2.6-9.6-7.8-20.9-13.8-30.1c-6.9-10.6-14.3-17.6-20.9-19.8l0.9-2.6
			c16.1,5.4,31.5,33.5,36.5,51.8L425.5,314.8z"/>
	</g>
	<g>
		<path class="st1" d="M433.6,272.8l-0.2-2.1c-0.4-4-1.5-7.7-2.5-11.2c-2.5-8.7-5.1-17.8,1.5-31.2l0,0c7.3-15.1,21-20.4,27.5-22.9
			c2.1-0.8,4.4-0.7,6.4,0.3c2,1,3.5,2.7,4.1,4.8c2.1,6.7,6.4,20.7-0.9,35.8c-6.6,13.5-14.2,16.6-22.9,20.2
			c-3.5,1.4-7.2,2.9-11.1,5.2L433.6,272.8z M462.8,207.5c-0.6,0-1.3,0.1-1.9,0.4c-10,3.8-20,9.1-26,21.5l0,0
			c-6.1,12.5-3.8,20.6-1.3,29.3c0.9,3.1,1.8,6.2,2.3,9.6c3.4-1.8,6.6-3.1,9.6-4.4c8.6-3.5,15.4-6.3,21.5-18.9
			c6-12.4,3.9-23.6,0.8-33.8c-0.4-1.4-1.4-2.5-2.7-3.2C464.4,207.7,463.6,207.5,462.8,207.5z"/>
		<path class="st1" d="M432.1,282.6c-0.4-22.3,7-50.1,24.1-61.9l1.6,2.3c-16.2,11.2-23.2,38.7-22.9,59.6L432.1,282.6z"/>
	</g>
</g>
<g>
	<path class="st3" d="M349.4,998.8h3.3c-0.1,0.7-0.2,2-0.2,2.8v3.2h6.5c1,0,2-0.1,2.5-0.1v2.8c-0.5-0.1-1.6-0.1-2.5-0.1h-6.5
		c-0.1,5.5-1.9,9.8-7.4,13l-2.6-1.9c5-2.3,7-6.2,7.1-11.1h-7.3c-1,0-2,0-2.7,0.1v-2.9c0.6,0.1,1.6,0.2,2.6,0.2h7.3v-3.2
		C349.7,1000.8,349.6,999.5,349.4,998.8z"/>
	<path class="st3" d="M379.4,1002.9c-1,2.9-2.7,6.8-4.9,9.6c-2.3,2.9-6,5.9-9.9,7.5l-2.3-2.4c4-1.4,7.6-4,10-6.9
		c2.5-3,4.2-7.4,4.9-11.2l3.2,0.8C380,1001.1,379.6,1002.1,379.4,1002.9z"/>
	<path class="st3" d="M394.3,1015.4c-0.5-0.8-1.4-2.1-2.3-3.2v9.2h-2.3v-9c-0.9,2.3-2,4.4-3.1,5.8c-0.2-0.8-0.8-1.8-1.2-2.4
		c1.5-1.7,3-4.7,3.9-7.3h-3.5v-2.3h4v-8.9h2.3v8.9h3.6v2.3h-3.6v1c0.9,0.9,3.2,3.3,3.7,3.9L394.3,1015.4z M387,1005.2
		c-0.1-1.5-0.6-3.9-1.3-5.7l1.8-0.4c0.7,1.8,1.3,4.1,1.4,5.6L387,1005.2z M396,999.5c-0.6,1.9-1.3,4.2-1.9,5.7l-1.6-0.5
		c0.5-1.5,1.1-4,1.4-5.7L396,999.5z M409.5,1018.1v2.4h-14.7v-2.4h7.8c0.9-3.4,1.8-8.6,2.1-12.4l2.7,0.5c-0.7,3.9-1.6,8.7-2.5,11.9
		H409.5z M401,1002.3v-4.8h2.4v4.8h5.7v2.4h-13.3v-2.4H401z M398.7,1017c0-2.9-0.6-7.3-1.5-10.7l2.2-0.4c1,3.4,1.6,7.8,1.7,10.7
		L398.7,1017z"/>
	<path class="st3" d="M435.7,1011.2h-10.6v7.1c0,1.5-0.4,2.2-1.5,2.6c-1.1,0.4-2.8,0.4-5.3,0.4c-0.2-0.7-0.6-1.8-1-2.5
		c2,0.1,3.9,0.1,4.5,0.1c0.5,0,0.7-0.2,0.7-0.6v-7.1H412v-2.4h10.6v-4.2h1.4c1.6-0.9,3.3-2.1,4.6-3.2h-13.9v-2.4h16.5l0.5-0.2
		l1.8,1.4c-2.2,2.3-5.5,4.7-8.4,6.3v2.2h10.6V1011.2z"/>
	<path class="st3" d="M458.3,1003.4c-0.6,2.7-1.8,6.8-3.9,9.6c-2.4,3.1-5.7,5.6-10.4,7.1l-2.3-2.5c5.1-1.3,8.1-3.5,10.2-6.2
		c1.8-2.3,2.9-5.6,3.3-8h-12.9c-1.1,0-2.2,0.1-2.8,0.1v-2.9c0.7,0.1,2,0.2,2.8,0.2h12.7c0.4,0,1.1,0,1.7-0.2l2,1.3
		C458.5,1002.3,458.4,1002.9,458.3,1003.4z"/>
	<path class="st3" d="M468.6,1001.4v8.8c0,0.7,0.1,1.6,0.1,2.1h-3c0-0.4,0.1-1.4,0.1-2.1v-8.8c0-0.5,0-1.4-0.1-1.9h3
		C468.6,1000,468.6,1000.7,468.6,1001.4z M480.7,1001.7v4.7c0,6-0.9,8.2-2.9,10.4c-1.7,2-4.3,3.2-6.3,3.8l-2.2-2.3
		c2.5-0.6,4.7-1.6,6.3-3.4c1.8-2.1,2.2-4.1,2.2-8.7v-4.5c0-0.9-0.1-1.7-0.2-2.4h3.1C480.8,999.9,480.7,1000.7,480.7,1001.7z"/>
	<path class="st3" d="M491.8,1007.8H506c1.3,0,2.3-0.1,2.9-0.2v3.2c-0.6,0-1.8-0.1-2.9-0.1h-14.2c-1.4,0-3,0.1-3.9,0.1v-3.2
		C488.8,1007.7,490.4,1007.8,491.8,1007.8z"/>
</g>
<g>
	<g>
		<path class="st1" d="M392.5,881.2h4.3l16.8,20.6v-16c0-1.4-0.1-2.4-0.4-3.1c-0.3-0.7-0.8-1.2-1.6-1.5h5.3
			c-0.8,0.3-1.3,0.8-1.6,1.5c-0.3,0.7-0.4,1.8-0.4,3.1v20.6h-0.6l-18.5-22.1v17.5c0,1.4,0.1,2.4,0.4,3.1c0.3,0.7,0.8,1.2,1.6,1.5
			h-5.3c0.8-0.3,1.3-0.8,1.6-1.5c0.3-0.7,0.4-1.8,0.4-3.1v-16.3c0-1.3-0.1-2.3-0.4-2.9C393.8,881.9,393.3,881.5,392.5,881.2z"/>
		<path class="st1" d="M432.2,885.6c1.5,0,2.9,0.3,4.1,0.8s2.4,1.3,3.3,2.2c0.9,0.9,1.7,2.1,2.2,3.3c0.5,1.3,0.8,2.7,0.8,4.2v0
			c0,1.5-0.3,2.9-0.8,4.2c-0.5,1.3-1.3,2.4-2.2,3.3c-0.9,0.9-2,1.7-3.3,2.2s-2.6,0.8-4.1,0.8s-2.9-0.3-4.1-0.8
			c-1.3-0.5-2.4-1.3-3.3-2.2s-1.7-2.1-2.2-3.3c-0.5-1.3-0.8-2.7-0.8-4.2v0c0-1.5,0.3-2.9,0.8-4.2c0.5-1.3,1.3-2.4,2.2-3.3
			s2-1.7,3.3-2.2C429.4,885.9,430.8,885.6,432.2,885.6z M424.8,896.2c0,1.4,0.2,2.6,0.5,3.7c0.4,1.1,0.9,2.1,1.5,2.9
			c0.7,0.8,1.5,1.5,2.4,1.9c0.9,0.5,1.9,0.7,3,0.7s2.1-0.2,3-0.7c0.9-0.5,1.7-1.1,2.4-1.9c0.7-0.8,1.2-1.8,1.5-2.9
			c0.4-1.1,0.5-2.4,0.5-3.7c0-1.4-0.2-2.6-0.5-3.7c-0.4-1.1-0.9-2.1-1.5-2.9c-0.7-0.8-1.5-1.4-2.4-1.9c-0.9-0.5-1.9-0.7-3-0.7
			s-2.1,0.2-3,0.7c-0.9,0.5-1.7,1.1-2.4,1.9c-0.7,0.8-1.2,1.8-1.5,2.9C424.9,893.6,424.8,894.8,424.8,896.2z"/>
		<path class="st1" d="M301.8,927.7h4.3l16.8,20.6v-16c0-1.4-0.1-2.4-0.4-3.1c-0.3-0.7-0.8-1.2-1.6-1.5h5.3
			c-0.8,0.3-1.3,0.8-1.6,1.5c-0.3,0.7-0.4,1.8-0.4,3.1V953h-0.6l-18.5-22.1v17.5c0,1.4,0.1,2.4,0.4,3.1c0.3,0.7,0.8,1.2,1.6,1.5
			h-5.3c0.8-0.3,1.3-0.8,1.6-1.5c0.3-0.7,0.4-1.8,0.4-3.1V932c0-1.3-0.1-2.3-0.4-2.9C303.1,928.5,302.6,928,301.8,927.7z"/>
		<path class="st1" d="M339.8,941.5l4.4-1.1v-1.4c0-1-0.1-1.9-0.3-2.6c-0.2-0.7-0.5-1.2-0.9-1.7c-0.4-0.4-0.9-0.7-1.4-0.9
			c-0.5-0.2-1.1-0.3-1.7-0.3c-0.7,0-1.3,0.1-2,0.3c-0.7,0.2-1.4,0.6-2,1.1c-0.6,0.5-1.2,1.2-1.8,2.1c-0.5,0.9-1,1.9-1.3,3.2
			l-0.1-5.7c0.9-0.6,2-1.2,3.3-1.6c1.3-0.4,2.7-0.7,4.1-0.7c2.1,0,3.8,0.5,5,1.5c1.3,1,1.9,2.6,1.9,4.7v10.7c0,0.9,0.1,1.7,0.3,2.3
			c0.2,0.7,0.5,1.2,0.9,1.5l-3.6,0.1v-4.3c-0.6,1.2-1.4,2.3-2.6,3.1c-1.1,0.8-2.6,1.3-4.4,1.3c-1.9,0-3.4-0.4-4.5-1.3
			c-1.1-0.9-1.6-2.1-1.6-3.6c0-1.1,0.3-2,0.8-2.8c0.5-0.8,1.2-1.4,2.1-1.9c0.8-0.5,1.8-1,2.8-1.3C337.9,942,338.9,941.7,339.8,941.5
			z M334.2,948c0,1.2,0.3,2.1,1,2.9c0.7,0.7,1.6,1.1,2.9,1.1c0.7,0,1.4-0.1,2.1-0.4c0.7-0.3,1.4-0.6,1.9-1.2c0.6-0.5,1.1-1.2,1.5-2
			c0.4-0.8,0.6-1.7,0.7-2.8v-4.1l-4.3,1.2c-0.6,0.1-1.2,0.3-1.9,0.6c-0.7,0.2-1.3,0.5-1.9,0.9c-0.6,0.4-1,0.9-1.4,1.5
			C334.4,946.3,334.2,947.1,334.2,948z"/>
		<path class="st1" d="M352.7,953c0.8-0.2,1.3-0.7,1.5-1.3c0.2-0.7,0.4-1.5,0.4-2.6v-12.3c0-1-0.1-1.9-0.2-2.5
			c-0.1-0.6-0.4-1.2-0.8-1.7l3.6-0.3v5c0.7-1.6,1.6-2.8,2.9-3.7c1.3-0.9,3-1.3,5-1.3c1,0,2,0.1,2.9,0.4c0.9,0.2,1.7,0.6,2.4,1.1
			c0.7,0.5,1.2,1.2,1.6,2.1c0.4,0.8,0.6,1.9,0.6,3.1v10.3c0,1,0.1,1.9,0.4,2.5c0.3,0.7,0.8,1.1,1.5,1.3h-6.4
			c0.8-0.2,1.3-0.7,1.5-1.3c0.2-0.7,0.4-1.5,0.4-2.6v-9.6c0-2.1-0.5-3.6-1.4-4.5c-1-0.9-2.3-1.4-4-1.4c-1,0-2,0.2-2.8,0.5
			c-0.9,0.4-1.6,0.9-2.3,1.6c-0.7,0.7-1.2,1.6-1.6,2.7c-0.4,1.1-0.6,2.3-0.7,3.7v7c0,1,0.1,1.9,0.4,2.5c0.3,0.7,0.8,1.1,1.5,1.3
			H352.7z"/>
		<path class="st1" d="M389,932.2c1.5,0,2.9,0.3,4.1,0.8c1.3,0.5,2.4,1.3,3.3,2.2c0.9,0.9,1.7,2.1,2.2,3.3c0.5,1.3,0.8,2.7,0.8,4.2
			v0c0,1.5-0.3,2.9-0.8,4.2c-0.5,1.3-1.3,2.4-2.2,3.3c-0.9,0.9-2,1.7-3.3,2.2c-1.3,0.5-2.6,0.8-4.1,0.8c-1.5,0-2.9-0.3-4.1-0.8
			c-1.3-0.5-2.4-1.3-3.3-2.2c-0.9-0.9-1.7-2.1-2.2-3.3c-0.5-1.3-0.8-2.7-0.8-4.2v0c0-1.5,0.3-2.9,0.8-4.2c0.5-1.3,1.3-2.4,2.2-3.3
			c0.9-0.9,2-1.7,3.3-2.2C386.2,932.4,387.6,932.2,389,932.2z M381.5,942.7c0,1.4,0.2,2.6,0.5,3.7c0.4,1.1,0.9,2.1,1.5,2.9
			c0.7,0.8,1.5,1.5,2.4,1.9c0.9,0.5,1.9,0.7,3,0.7c1.1,0,2.1-0.2,3-0.7c0.9-0.5,1.7-1.1,2.4-1.9c0.7-0.8,1.2-1.8,1.5-2.9
			c0.4-1.1,0.5-2.4,0.5-3.7c0-1.4-0.2-2.6-0.5-3.7c-0.4-1.1-0.9-2.1-1.5-2.9c-0.7-0.8-1.5-1.4-2.4-1.9c-0.9-0.5-1.9-0.7-3-0.7
			c-1.1,0-2.1,0.2-3,0.7c-0.9,0.5-1.7,1.1-2.4,1.9c-0.7,0.8-1.2,1.8-1.5,2.9C381.7,940.1,381.5,941.4,381.5,942.7z"/>
		<path class="st1" d="M405.6,956v-19.2c0-1-0.1-1.9-0.2-2.5c-0.1-0.6-0.4-1.2-0.8-1.7l3.5-0.3v2.2c0.9-0.9,2-1.5,3.1-1.8
			c1.1-0.3,2.3-0.5,3.3-0.5c1.4,0,2.7,0.2,3.9,0.7c1.2,0.5,2.3,1.1,3.2,2c0.9,0.9,1.6,1.9,2.1,3.1c0.5,1.2,0.8,2.6,0.8,4.2
			c0,1.5-0.2,2.9-0.7,4.2c-0.5,1.3-1.2,2.5-2,3.6c-0.9,1-2,1.8-3.3,2.5c-1.3,0.6-2.7,0.9-4.3,0.9c-1.1,0-2.1-0.2-3.2-0.5
			c-1.1-0.4-2-1-2.9-1.9v5.1c0,1,0.1,1.9,0.4,2.5c0.3,0.7,0.8,1.1,1.5,1.3h-6.4c0.8-0.2,1.3-0.7,1.5-1.3
			C405.5,957.9,405.6,957,405.6,956z M414.7,952.1c1.1,0,2.1-0.2,3-0.6c0.9-0.4,1.7-1,2.3-1.8c0.6-0.8,1.1-1.7,1.4-2.9
			c0.3-1.1,0.5-2.4,0.5-3.7c0-1.3-0.2-2.5-0.5-3.7s-0.8-2.2-1.5-3.1c-0.7-0.9-1.5-1.6-2.5-2.1c-1-0.5-2.1-0.8-3.5-0.8
			c-1,0-2,0.2-3,0.6c-1,0.4-1.9,1.2-2.7,2.2v11.3c0.4,0.9,0.8,1.6,1.3,2.2c0.5,0.6,1,1,1.5,1.4c0.5,0.3,1.1,0.6,1.7,0.7
			C413.5,952,414.1,952.1,414.7,952.1z"/>
		<path class="st1" d="M437.6,941.5l4.4-1.1v-1.4c0-1-0.1-1.9-0.3-2.6c-0.2-0.7-0.5-1.2-0.9-1.7c-0.4-0.4-0.9-0.7-1.4-0.9
			c-0.5-0.2-1.1-0.3-1.7-0.3c-0.7,0-1.3,0.1-2,0.3c-0.7,0.2-1.4,0.6-2,1.1c-0.6,0.5-1.2,1.2-1.8,2.1c-0.5,0.9-1,1.9-1.3,3.2
			l-0.1-5.7c0.9-0.6,2-1.2,3.3-1.6c1.3-0.4,2.7-0.7,4.1-0.7c2.1,0,3.8,0.5,5,1.5c1.3,1,1.9,2.6,1.9,4.7v10.7c0,0.9,0.1,1.7,0.3,2.3
			c0.2,0.7,0.5,1.2,0.9,1.5l-3.6,0.1v-4.3c-0.6,1.2-1.4,2.3-2.6,3.1c-1.1,0.8-2.6,1.3-4.4,1.3c-1.9,0-3.4-0.4-4.5-1.3
			c-1.1-0.9-1.6-2.1-1.6-3.6c0-1.1,0.3-2,0.8-2.8c0.5-0.8,1.2-1.4,2.1-1.9c0.8-0.5,1.8-1,2.8-1.3C435.7,942,436.7,941.7,437.6,941.5
			z M432,948c0,1.2,0.3,2.1,1,2.9c0.7,0.7,1.6,1.1,2.9,1.1c0.7,0,1.4-0.1,2.1-0.4c0.7-0.3,1.4-0.6,1.9-1.2c0.6-0.5,1.1-1.2,1.5-2
			c0.4-0.8,0.6-1.7,0.7-2.8v-4.1l-4.3,1.2c-0.6,0.1-1.2,0.3-1.9,0.6c-0.7,0.2-1.3,0.5-1.9,0.9c-0.6,0.4-1,0.9-1.4,1.5
			C432.2,946.3,432,947.1,432,948z"/>
		<path class="st1" d="M450.5,953c0.8-0.2,1.3-0.7,1.5-1.3c0.2-0.7,0.4-1.5,0.4-2.6v-12.3c0-1-0.1-1.9-0.2-2.5
			c-0.1-0.6-0.4-1.2-0.8-1.7l3.6-0.3v4.3c0.7-1.3,1.6-2.3,2.7-3.1c1.1-0.8,2.5-1.2,4.2-1.2c0.3,0,0.6,0,0.9,0.1c0.3,0,0.7,0.1,1,0.2
			l0,3.6c-0.5-0.5-1.1-0.9-1.7-1.2c-0.7-0.4-1.4-0.5-2.3-0.5c-1.2,0-2.1,0.4-2.9,1.2c-0.8,0.8-1.4,1.7-1.9,2.9v10.8
			c0,1,0.1,1.9,0.4,2.5c0.3,0.7,0.8,1.1,1.5,1.3H450.5z"/>
		<path class="st1" d="M466.9,932.5h3l2.7-5.9v5.9h5.7v1.1h-5.7v15.3c0,0.2,0,0.5,0,0.9c0,0.4,0.1,0.7,0.2,1.1
			c0.1,0.3,0.4,0.6,0.7,0.9c0.3,0.2,0.7,0.4,1.3,0.4c0.6,0,1.1-0.2,1.5-0.5s0.9-0.7,1.2-1.1l0.7,0.6c-0.2,0.2-0.4,0.5-0.7,0.7
			c-0.2,0.3-0.5,0.5-0.9,0.7c-0.3,0.2-0.7,0.4-1.2,0.5c-0.4,0.1-1,0.2-1.5,0.2c-1,0-1.8-0.2-2.4-0.5c-0.6-0.4-1-0.8-1.2-1.3
			c-0.2-0.5-0.4-1-0.4-1.6c0-0.6-0.1-1-0.1-1.5v-14.9h-3.1V932.5z"/>
		<path class="st1" d="M482.1,953c0.8-0.2,1.3-0.7,1.5-1.3c0.2-0.7,0.4-1.5,0.4-2.6v-12.3c0-1-0.1-1.9-0.2-2.5
			c-0.1-0.6-0.4-1.2-0.8-1.7l3.6-0.3v16.9c0,1,0.1,1.9,0.4,2.5c0.3,0.7,0.8,1.1,1.5,1.3H482.1z M485.2,925.9c0.6,0,1.1,0.2,1.5,0.6
			c0.4,0.4,0.6,0.9,0.6,1.4s-0.2,1.1-0.6,1.4c-0.4,0.4-0.9,0.6-1.5,0.6c-0.6,0-1.1-0.2-1.5-0.6c-0.4-0.4-0.6-0.9-0.6-1.4
			s0.2-1.1,0.6-1.4C484.1,926.1,484.6,925.9,485.2,925.9z"/>
		<path class="st1" d="M492.8,942.8c0-1.5,0.2-2.9,0.7-4.2c0.5-1.3,1.1-2.4,2-3.3s1.9-1.7,3.2-2.2c1.3-0.5,2.7-0.8,4.3-0.8
			c1.5,0,2.9,0.2,4.3,0.7c1.4,0.5,2.5,1.2,3.3,2.1l-0.8,5.4c-0.3-1.4-0.8-2.6-1.3-3.5c-0.5-0.9-1.1-1.6-1.7-2.1
			c-0.6-0.5-1.3-0.9-2-1.1c-0.7-0.2-1.3-0.3-2-0.3c-2.1,0-3.8,0.8-5.1,2.4c-1.3,1.6-1.9,3.9-1.9,6.8c0,1.5,0.2,2.9,0.5,4
			c0.4,1.2,0.9,2.1,1.5,2.9c0.6,0.8,1.4,1.4,2.3,1.8c0.9,0.4,1.8,0.6,2.9,0.6c1.9,0,3.5-0.6,4.9-1.9s2.3-3,3-5.1l-0.1,5.7
			c-0.4,0.4-0.9,0.7-1.5,1c-0.6,0.3-1.2,0.6-1.9,0.8c-0.7,0.2-1.4,0.4-2.1,0.5c-0.7,0.1-1.5,0.2-2.2,0.2c-1.3,0-2.6-0.2-3.8-0.7
			c-1.2-0.5-2.3-1.2-3.2-2.1c-0.9-0.9-1.7-2-2.2-3.3C493.1,945.9,492.8,944.4,492.8,942.8z"/>
		<path class="st1" d="M515.6,953c0.8-0.2,1.3-0.7,1.5-1.3c0.2-0.7,0.4-1.5,0.4-2.6v-19.9c0-0.9-0.1-1.6-0.2-2.1
			c-0.1-0.5-0.4-0.9-0.7-1.2l3.5-0.4v23.6c0,1,0.1,1.9,0.4,2.5c0.3,0.7,0.8,1.1,1.5,1.3H515.6z"/>
		<path class="st1" d="M536.2,932.2c1.5,0,2.8,0.2,3.8,0.6c1.1,0.4,1.9,1,2.6,1.8c0.7,0.8,1.2,1.7,1.5,2.7c0.3,1,0.5,2.2,0.5,3.4
			h-15.3c0,0.3-0.1,0.7-0.1,1.1c0,0.4,0,0.7,0,1.1c0,1.4,0.2,2.6,0.6,3.8c0.4,1.1,0.9,2.1,1.6,2.9c0.7,0.8,1.5,1.4,2.5,1.9
			c1,0.4,2,0.7,3.1,0.7c1.7,0,3.3-0.6,4.6-1.7c1.3-1.1,2.3-2.8,3.1-5.2l-0.3,5.3c-0.9,0.8-2,1.5-3.4,2c-1.4,0.5-2.8,0.8-4.3,0.8
			c-1.6,0-3-0.3-4.3-0.8c-1.3-0.5-2.4-1.2-3.3-2.1c-0.9-0.9-1.6-2-2.1-3.3c-0.5-1.3-0.8-2.7-0.8-4.3c0-1.5,0.2-2.9,0.7-4.2
			c0.5-1.3,1.1-2.4,2-3.4c0.9-1,1.9-1.7,3.1-2.2C533.4,932.4,534.7,932.2,536.2,932.2z M529.7,939.6h12.3c-0.1-1.9-0.7-3.4-1.6-4.5
			c-1-1.1-2.3-1.6-4.1-1.6c-1.7,0-3.1,0.5-4.2,1.6C530.9,936.1,530.1,937.6,529.7,939.6z"/>
	</g>
</g>
<path class="st1" d="M424.8,828.3c-49.3,0-89.5-40.1-89.5-89.5s40.1-89.5,89.5-89.5s89.5,40.1,89.5,89.5S474.1,828.3,424.8,828.3z
	 M424.8,652.1c-47.8,0-86.7,38.9-86.7,86.7s38.9,86.7,86.7,86.7s86.7-38.9,86.7-86.7S472.6,652.1,424.8,652.1z"/>
<pattern  id="SVGID_1_" xlink:href="#Unnamed_Pattern_7" patternTransform="matrix(1.8841 0 0 1.8841 1698.4708 2668.5596)">
</pattern>
<polygon class="st4" points="345,831 343.1,829 518.7,653.3 520.7,655.3 "/>
<g>
	<path class="st3" d="M619.6,997.4c2.8,3.9,7.2,7.4,11.3,9.1c-0.6,0.6-1.2,1.4-1.6,2.2c-1.4-0.7-2.9-1.6-4.2-2.6v1.9h-13v-1.8
		c-1.3,1-2.8,1.9-4.2,2.7c-0.3-0.6-1-1.4-1.5-1.9c4.5-2.3,8.8-6.2,10.8-9.5H619.6z M610.6,1010.9h16.1v10.5h-2.5v-1h-11.3v1h-2.4
		V1010.9z M624.6,1005.7c-2.5-1.8-4.7-4-6.2-6c-1.3,1.9-3.4,4.1-5.9,6H624.6z M612.9,1013.1v5.1h11.3v-5.1H612.9z"/>
	<path class="st3" d="M655.7,1006.3c-1.1,3.4-2.6,6.3-4.6,8.8c0.9,2.2,1.9,3.6,3,3.6c0.7,0,1-1.3,1.2-4.7c0.6,0.6,1.4,1.1,2.1,1.4
		c-0.4,4.6-1.3,5.8-3.4,5.8c-1.9,0-3.4-1.5-4.6-3.9c-1.5,1.6-3.1,2.9-4.9,4c-0.4-0.5-1.2-1.5-1.8-2c2.2-1.2,4.1-2.7,5.7-4.6
		c-0.9-3-1.5-6.7-1.9-10.8h-8.4v3.2h6.6v0.9c-0.1,5.7-0.3,7.9-0.8,8.7c-0.5,0.6-1,0.8-1.7,0.8c-0.7,0.1-1.8,0.1-3.1,0.1
		c-0.1-0.7-0.3-1.6-0.7-2.3c1.1,0.1,2.1,0.1,2.5,0.1c0.4,0,0.6-0.1,0.8-0.3c0.3-0.4,0.4-1.9,0.5-5.8h-4.2c0,3.7-0.5,9-2.8,12.3
		c-0.4-0.5-1.5-1.4-2-1.7c2.1-3.1,2.3-7.6,2.3-11v-7.4h10.8c-0.1-1.4-0.1-2.8-0.1-4.2h2.6c0,1.4,0,2.8,0.1,4.2h5.1
		c-1-0.9-2.7-2-4.1-2.7l1.5-1.5c1.5,0.8,3.5,2,4.5,2.9l-1.3,1.3h2.7v2.4h-8.2c0.3,3.1,0.7,5.9,1.3,8.3c1.3-1.9,2.2-4.1,3-6.5
		L655.7,1006.3z"/>
	<path class="st3" d="M681.6,1003.2c-0.5,3-1,6.7-3,9.8c-2.1,3.4-5.7,6-9.9,7.4l-2.3-2.3c3.7-0.9,7.6-3.2,9.7-6.5
		c1.4-2.3,2.2-5.4,2.4-8.4h-13.6v4.9c0,0.4,0,1.2,0.1,1.9h-3c0.1-0.7,0.1-1.3,0.1-1.9v-5.6c0-0.6-0.1-1.3-0.1-1.9
		c0.7,0.1,1.8,0.1,3,0.1h13c0.7,0,1.5,0,2-0.2l2,1.3C681.9,1002.1,681.6,1003,681.6,1003.2z"/>
	<path class="st3" d="M692.7,1011.3l-2.5,0.9c-0.4-1.4-1.8-4.9-2.4-6l2.5-0.9C690.9,1006.6,692.2,1009.9,692.7,1011.3z
		 M705.4,1007.2c-0.7,2.8-1.8,5.6-3.7,7.9c-2.4,3.1-5.7,5.2-8.6,6.3l-2.2-2.2c3-0.8,6.4-2.8,8.6-5.5c1.8-2.3,3.1-5.7,3.5-9l2.9,0.9
		C705.7,1006.3,705.5,1006.8,705.4,1007.2z M698.4,1009.7l-2.5,0.9c-0.3-1.2-1.5-4.5-2.1-5.8l2.5-0.8
		C696.8,1005.1,698.1,1008.5,698.4,1009.7z"/>
	<path class="st3" d="M721.9,1001.3c-0.1,0.2-0.2,0.4-0.4,0.7h6.3c0.7,0,1.5-0.1,2-0.3l2.1,1.3c-0.3,0.4-0.5,1.1-0.7,1.6
		c-0.7,2.5-2.3,6-4.6,8.9c-2.4,3-5.6,5.4-10.5,7.3l-2.4-2.2c5.1-1.5,8.2-3.8,10.5-6.5c1.9-2.2,3.5-5.5,4-7.7H720
		c-1.7,2.3-3.9,4.6-6.7,6.4l-2.3-1.7c4.6-2.7,7-6.4,8.2-8.7c0.3-0.5,0.8-1.6,1-2.4l3,1C722.7,999.7,722.2,1000.7,721.9,1001.3z"/>
	<path class="st3" d="M754.2,1003c-0.9,2.1-2.5,5.1-4.3,7.5c2.7,2.3,5.9,5.7,7.5,7.7l-2.3,2c-1.7-2.4-4.3-5.2-6.9-7.6
		c-2.8,3-6.3,5.8-10.1,7.5l-2.1-2.2c4.2-1.6,8.2-4.8,10.8-7.7c1.8-2,3.5-4.9,4.2-6.9h-9.6c-1,0-2.4,0.1-2.9,0.2v-3
		c0.5,0.1,2,0.2,2.9,0.2h9.7c1,0,1.8-0.1,2.3-0.3l1.7,1.3C754.8,1001.9,754.4,1002.6,754.2,1003z"/>
	<path class="st3" d="M780.6,1003.4c-0.6,2.7-1.8,6.8-3.9,9.6c-2.4,3.1-5.7,5.6-10.4,7.1l-2.3-2.5c5.1-1.3,8.1-3.5,10.2-6.2
		c1.8-2.3,2.9-5.6,3.3-8h-12.9c-1.1,0-2.2,0.1-2.8,0.1v-2.9c0.7,0.1,2,0.2,2.8,0.2h12.7c0.4,0,1.1,0,1.7-0.2l2,1.3
		C780.9,1002.3,780.7,1002.9,780.6,1003.4z"/>
	<path class="st3" d="M790.9,1001.4v8.8c0,0.7,0.1,1.6,0.1,2.1h-3c0-0.4,0.1-1.4,0.1-2.1v-8.8c0-0.5,0-1.4-0.1-1.9h3
		C790.9,1000,790.9,1000.7,790.9,1001.4z M803,1001.7v4.7c0,6-0.9,8.2-2.9,10.4c-1.7,2-4.3,3.2-6.3,3.8l-2.2-2.3
		c2.5-0.6,4.7-1.6,6.3-3.4c1.8-2.1,2.2-4.1,2.2-8.7v-4.5c0-0.9-0.1-1.7-0.2-2.4h3.1C803.1,999.9,803,1000.7,803,1001.7z"/>
	<path class="st3" d="M814.1,1007.8h14.2c1.3,0,2.3-0.1,2.9-0.2v3.2c-0.6,0-1.8-0.1-2.9-0.1h-14.2c-1.4,0-3,0.1-3.9,0.1v-3.2
		C811.1,1007.7,812.7,1007.8,814.1,1007.8z"/>
</g>
<g>
	<g>
		<path class="st1" d="M597.2,881.2h4.3l16.8,20.6v-16c0-1.4-0.1-2.4-0.4-3.1c-0.3-0.7-0.8-1.2-1.6-1.5h5.3
			c-0.8,0.3-1.3,0.8-1.6,1.5c-0.3,0.7-0.4,1.8-0.4,3.1v20.6H619l-18.5-22.1v17.5c0,1.4,0.1,2.4,0.4,3.1c0.3,0.7,0.8,1.2,1.6,1.5
			h-5.3c0.8-0.3,1.3-0.8,1.6-1.5c0.3-0.7,0.4-1.8,0.4-3.1v-16.3c0-1.3-0.1-2.3-0.4-2.9C598.5,881.9,598,881.5,597.2,881.2z"/>
		<path class="st1" d="M636.9,885.6c1.5,0,2.9,0.3,4.1,0.8s2.4,1.3,3.3,2.2c0.9,0.9,1.7,2.1,2.2,3.3c0.5,1.3,0.8,2.7,0.8,4.2v0
			c0,1.5-0.3,2.9-0.8,4.2c-0.5,1.3-1.3,2.4-2.2,3.3c-0.9,0.9-2,1.7-3.3,2.2s-2.6,0.8-4.1,0.8c-1.5,0-2.9-0.3-4.1-0.8
			c-1.3-0.5-2.4-1.3-3.3-2.2c-0.9-0.9-1.7-2.1-2.2-3.3c-0.5-1.3-0.8-2.7-0.8-4.2v0c0-1.5,0.3-2.9,0.8-4.2c0.5-1.3,1.3-2.4,2.2-3.3
			c0.9-0.9,2-1.7,3.3-2.2C634.1,885.9,635.4,885.6,636.9,885.6z M629.4,896.2c0,1.4,0.2,2.6,0.5,3.7c0.4,1.1,0.9,2.1,1.5,2.9
			c0.7,0.8,1.5,1.5,2.4,1.9c0.9,0.5,1.9,0.7,3,0.7c1.1,0,2.1-0.2,3-0.7c0.9-0.5,1.7-1.1,2.4-1.9c0.7-0.8,1.2-1.8,1.5-2.9
			c0.4-1.1,0.5-2.4,0.5-3.7c0-1.4-0.2-2.6-0.5-3.7c-0.4-1.1-0.9-2.1-1.5-2.9c-0.7-0.8-1.5-1.4-2.4-1.9c-0.9-0.5-1.9-0.7-3-0.7
			c-1.1,0-2.1,0.2-3,0.7c-0.9,0.5-1.7,1.1-2.4,1.9c-0.7,0.8-1.2,1.8-1.5,2.9C629.6,893.6,629.4,894.8,629.4,896.2z"/>
		<path class="st1" d="M664.5,904.2l0.5-6c0.4,2.4,1.3,4.2,2.7,5.4s3.2,1.9,5.3,1.9c0.9,0,1.8-0.1,2.5-0.4c0.8-0.3,1.4-0.6,2-1.1
			c0.6-0.5,1-1,1.3-1.7c0.3-0.7,0.5-1.4,0.5-2.1c0-0.8-0.2-1.4-0.5-2c-0.3-0.5-0.7-1-1.1-1.3c-0.4-0.4-0.9-0.7-1.5-0.9
			c-0.5-0.2-1.1-0.4-1.6-0.6l-4.2-1.5c-0.4-0.1-0.9-0.4-1.5-0.6c-0.6-0.3-1.2-0.6-1.7-1.1c-0.6-0.5-1-1.1-1.5-1.9
			c-0.4-0.8-0.6-1.7-0.6-2.8c0-0.9,0.2-1.8,0.5-2.6c0.3-0.8,0.8-1.5,1.4-2.1c0.6-0.6,1.4-1,2.3-1.3c0.9-0.3,2-0.5,3.2-0.5
			c1.5,0,2.9,0.2,4.1,0.7c1.3,0.4,2.3,1,3.2,1.5l0.4,6.6c-0.2-1.1-0.6-2.1-1-3.1c-0.4-0.9-1-1.7-1.6-2.4s-1.4-1.2-2.2-1.5
			c-0.8-0.4-1.8-0.5-2.9-0.5c-1.6,0-2.9,0.4-3.9,1.1c-1,0.8-1.5,1.8-1.5,3.2c0,0.6,0.1,1.2,0.3,1.6c0.2,0.5,0.5,0.9,0.9,1.2
			c0.4,0.3,0.9,0.6,1.4,0.9c0.6,0.3,1.2,0.5,1.9,0.8l3.7,1.3c0.6,0.2,1.2,0.5,1.9,0.8s1.4,0.7,2,1.2c0.6,0.5,1.1,1.2,1.5,1.9
			c0.4,0.8,0.6,1.8,0.6,3c0,1-0.2,2-0.5,2.9c-0.4,0.9-0.9,1.7-1.6,2.4c-0.7,0.7-1.6,1.2-2.7,1.6c-1.1,0.4-2.3,0.6-3.7,0.6
			c-1.7,0-3.3-0.3-4.8-0.8C666.7,905.4,665.5,904.8,664.5,904.2z"/>
		<path class="st1" d="M690,885.9c-0.2,0.2-0.3,0.4-0.4,0.8c-0.1,0.3,0,0.9,0.4,1.8l5.8,14.3l5.1-12.6c0.3-0.8,0.5-1.5,0.6-2.1
			c0.1-0.5,0.1-0.9,0-1.2c-0.1-0.3-0.2-0.5-0.3-0.6c-0.1-0.1-0.3-0.2-0.4-0.3h4c-0.1,0.1-0.2,0.2-0.4,0.3c-0.2,0.1-0.4,0.4-0.6,0.7
			c-0.2,0.3-0.5,0.7-0.7,1.2c-0.3,0.5-0.6,1.2-0.9,2l-6.9,17c-0.2,0.6-0.5,1.1-0.8,1.8s-0.7,1.2-1.2,1.7c-0.5,0.5-1,1-1.6,1.4
			c-0.6,0.4-1.4,0.7-2.2,0.8l-1.5-3.7c0.8,0.4,1.5,0.7,2.2,0.7c0.9,0,1.8-0.3,2.6-1c0.8-0.7,1.4-1.6,1.9-2.7l-7.5-17.9
			c-0.3-0.8-0.6-1.3-0.9-1.6c-0.3-0.3-0.5-0.5-0.7-0.6H690z"/>
		<path class="st1" d="M708,906.5c0.8-0.2,1.3-0.7,1.5-1.3c0.2-0.7,0.4-1.5,0.4-2.6v-12.3c0-1-0.1-1.9-0.2-2.5
			c-0.1-0.6-0.4-1.2-0.8-1.7l3.6-0.3v5c0.7-1.6,1.6-2.8,2.9-3.7c1.3-0.9,3-1.3,5-1.3c1,0,2,0.1,2.9,0.4c0.9,0.2,1.7,0.6,2.4,1.1
			c0.7,0.5,1.2,1.2,1.6,2.1c0.4,0.8,0.6,1.9,0.6,3.1v10.3c0,1,0.1,1.9,0.4,2.5c0.3,0.7,0.8,1.1,1.5,1.3h-6.4
			c0.8-0.2,1.3-0.7,1.5-1.3c0.2-0.7,0.4-1.5,0.4-2.6V893c0-2.1-0.5-3.6-1.4-4.5c-1-0.9-2.3-1.4-4-1.4c-1,0-2,0.2-2.8,0.5
			c-0.9,0.4-1.6,0.9-2.3,1.6c-0.7,0.7-1.2,1.6-1.6,2.7c-0.4,1.1-0.6,2.3-0.7,3.7v7c0,1,0.1,1.9,0.4,2.5c0.3,0.7,0.8,1.1,1.5,1.3H708
			z"/>
		<path class="st1" d="M733,885.9h3l2.7-5.9v5.9h5.7v1.1h-5.7v15.3c0,0.2,0,0.5,0,0.9c0,0.4,0.1,0.7,0.2,1.1
			c0.1,0.3,0.4,0.6,0.7,0.9c0.3,0.2,0.7,0.4,1.3,0.4c0.6,0,1.1-0.2,1.5-0.5s0.9-0.7,1.2-1.1l0.7,0.6c-0.2,0.2-0.4,0.5-0.7,0.7
			c-0.2,0.3-0.5,0.5-0.9,0.7c-0.3,0.2-0.7,0.4-1.2,0.5c-0.4,0.1-1,0.2-1.5,0.2c-1,0-1.8-0.2-2.4-0.5c-0.6-0.4-1-0.8-1.2-1.3
			c-0.2-0.5-0.4-1-0.4-1.6c0-0.6-0.1-1-0.1-1.5V887H733V885.9z"/>
		<path class="st1" d="M748.1,906.5c0.8-0.2,1.3-0.7,1.5-1.3c0.2-0.7,0.4-1.5,0.4-2.6v-19.9c0-0.9-0.1-1.6-0.2-2.1
			c-0.1-0.5-0.4-0.9-0.7-1.2l3.5-0.4V890c0.7-1.4,1.7-2.5,2.9-3.2c1.2-0.8,2.8-1.1,4.7-1.1c1,0,2,0.1,2.9,0.4
			c0.9,0.2,1.7,0.6,2.4,1.1c0.7,0.5,1.2,1.2,1.6,2.1c0.4,0.8,0.6,1.9,0.6,3.1v10.3c0,1,0.1,1.9,0.4,2.5c0.3,0.7,0.8,1.1,1.5,1.3
			h-6.4c0.8-0.2,1.3-0.7,1.5-1.3c0.2-0.7,0.4-1.5,0.4-2.6V893c0-2.1-0.5-3.6-1.4-4.5c-1-0.9-2.3-1.4-4-1.4c-1.7,0-3.2,0.5-4.5,1.5
			c-1.3,1-2.1,2.5-2.6,4.5v9.5c0,1,0.1,1.9,0.4,2.5c0.3,0.7,0.8,1.1,1.5,1.3H748.1z"/>
		<path class="st1" d="M783.6,885.6c1.5,0,2.8,0.2,3.8,0.6c1.1,0.4,1.9,1,2.6,1.8c0.7,0.8,1.2,1.7,1.5,2.7c0.3,1,0.5,2.2,0.5,3.4
			h-15.3c0,0.3-0.1,0.7-0.1,1.1c0,0.4,0,0.7,0,1.1c0,1.4,0.2,2.6,0.6,3.8c0.4,1.1,0.9,2.1,1.6,2.9c0.7,0.8,1.5,1.4,2.5,1.9
			c1,0.4,2,0.7,3.1,0.7c1.7,0,3.3-0.6,4.6-1.7c1.3-1.1,2.3-2.8,3.1-5.2l-0.3,5.3c-0.9,0.8-2,1.5-3.4,2c-1.4,0.5-2.8,0.8-4.3,0.8
			c-1.6,0-3-0.3-4.3-0.8c-1.3-0.5-2.4-1.2-3.3-2.1s-1.6-2-2.1-3.3c-0.5-1.3-0.8-2.7-0.8-4.3c0-1.5,0.2-2.9,0.7-4.2
			c0.5-1.3,1.1-2.4,2-3.4c0.9-1,1.9-1.7,3.1-2.2C780.7,885.9,782.1,885.6,783.6,885.6z M777,893h12.3c-0.1-1.9-0.7-3.4-1.6-4.5
			c-1-1.1-2.3-1.6-4.1-1.6c-1.7,0-3.1,0.5-4.2,1.6C778.2,889.6,777.4,891.1,777,893z"/>
		<path class="st1" d="M796.1,885.9h3l2.7-5.9v5.9h5.7v1.1h-5.7v15.3c0,0.2,0,0.5,0,0.9c0,0.4,0.1,0.7,0.2,1.1
			c0.1,0.3,0.4,0.6,0.7,0.9c0.3,0.2,0.7,0.4,1.3,0.4c0.6,0,1.1-0.2,1.5-0.5s0.9-0.7,1.2-1.1l0.7,0.6c-0.2,0.2-0.4,0.5-0.7,0.7
			c-0.2,0.3-0.5,0.5-0.9,0.7c-0.3,0.2-0.7,0.4-1.2,0.5c-0.4,0.1-1,0.2-1.5,0.2c-1,0-1.8-0.2-2.4-0.5c-0.6-0.4-1-0.8-1.2-1.3
			c-0.2-0.5-0.4-1-0.4-1.6c0-0.6-0.1-1-0.1-1.5V887h-3.1V885.9z"/>
		<path class="st1" d="M811.3,906.5c0.8-0.2,1.3-0.7,1.5-1.3c0.2-0.7,0.4-1.5,0.4-2.6v-12.3c0-1-0.1-1.9-0.2-2.5
			c-0.1-0.6-0.4-1.2-0.8-1.7l3.6-0.3v16.9c0,1,0.1,1.9,0.4,2.5c0.3,0.7,0.8,1.1,1.5,1.3H811.3z M814.4,879.4c0.6,0,1.1,0.2,1.5,0.6
			c0.4,0.4,0.6,0.9,0.6,1.4s-0.2,1.1-0.6,1.4c-0.4,0.4-0.9,0.6-1.5,0.6c-0.6,0-1.1-0.2-1.5-0.6c-0.4-0.4-0.6-0.9-0.6-1.4
			s0.2-1.1,0.6-1.4C813.3,879.6,813.8,879.4,814.4,879.4z"/>
		<path class="st1" d="M822,896.2c0-1.5,0.2-2.9,0.7-4.2c0.5-1.3,1.1-2.4,2-3.3c0.9-0.9,1.9-1.7,3.2-2.2c1.3-0.5,2.7-0.8,4.3-0.8
			c1.5,0,2.9,0.2,4.3,0.7c1.4,0.5,2.5,1.2,3.3,2.1l-0.8,5.4c-0.3-1.4-0.8-2.6-1.3-3.5c-0.5-0.9-1.1-1.6-1.7-2.1
			c-0.6-0.5-1.3-0.9-2-1.1c-0.7-0.2-1.3-0.3-2-0.3c-2.1,0-3.8,0.8-5.1,2.4c-1.3,1.6-1.9,3.9-1.9,6.8c0,1.5,0.2,2.9,0.5,4
			c0.4,1.2,0.9,2.1,1.5,2.9c0.6,0.8,1.4,1.4,2.3,1.8c0.9,0.4,1.8,0.6,2.9,0.6c1.9,0,3.5-0.6,4.9-1.9c1.3-1.2,2.3-3,3-5.1l-0.1,5.7
			c-0.4,0.4-0.9,0.7-1.5,1c-0.6,0.3-1.2,0.6-1.9,0.8c-0.7,0.2-1.4,0.4-2.1,0.5c-0.7,0.1-1.5,0.2-2.2,0.2c-1.3,0-2.6-0.2-3.8-0.7
			c-1.2-0.5-2.3-1.2-3.2-2.1c-0.9-0.9-1.7-2-2.2-3.3C822.3,899.4,822,897.9,822,896.2z"/>
		<path class="st1" d="M686.1,927.7c-0.2,0.1-0.3,0.2-0.4,0.3c-0.1,0.1-0.2,0.4-0.3,0.7c0,0.3,0,0.7,0,1.1c0,0.4,0.2,1,0.4,1.7
			l4.9,16.3l6.1-20.1h0.7l7.2,20.3l4.2-14.8c0.5-1.9,0.8-3.2,0.8-4c0-0.8-0.2-1.3-0.7-1.5h3.9c-0.2,0.1-0.4,0.2-0.5,0.4
			c-0.2,0.2-0.4,0.5-0.6,0.9c-0.2,0.4-0.4,1-0.7,1.7c-0.2,0.7-0.5,1.5-0.8,2.6l-5.7,19.7H704l-7.2-20.4l-6.3,20.4h-0.7l-6.7-21.3
			c-0.4-1.2-0.7-2.1-1.1-2.7c-0.3-0.7-0.8-1.1-1.2-1.2H686.1z"/>
		<path class="st1" d="M725.6,941.5l4.4-1.1v-1.4c0-1-0.1-1.9-0.3-2.6c-0.2-0.7-0.5-1.2-0.9-1.7c-0.4-0.4-0.9-0.7-1.4-0.9
			c-0.5-0.2-1.1-0.3-1.7-0.3c-0.7,0-1.3,0.1-2,0.3c-0.7,0.2-1.4,0.6-2,1.1c-0.6,0.5-1.2,1.2-1.8,2.1c-0.5,0.9-1,1.9-1.3,3.2
			l-0.1-5.7c0.9-0.6,2-1.2,3.3-1.6c1.3-0.4,2.7-0.7,4.1-0.7c2.1,0,3.8,0.5,5,1.5c1.3,1,1.9,2.6,1.9,4.7v10.7c0,0.9,0.1,1.7,0.3,2.3
			c0.2,0.7,0.5,1.2,0.9,1.5l-3.6,0.1v-4.3c-0.6,1.2-1.4,2.3-2.6,3.1c-1.1,0.8-2.6,1.3-4.4,1.3c-1.9,0-3.4-0.4-4.5-1.3
			c-1.1-0.9-1.6-2.1-1.6-3.6c0-1.1,0.3-2,0.8-2.8c0.5-0.8,1.2-1.4,2.1-1.9c0.8-0.5,1.8-1,2.8-1.3C723.7,942,724.7,941.7,725.6,941.5
			z M720,948c0,1.2,0.3,2.1,1,2.9c0.7,0.7,1.6,1.1,2.9,1.1c0.7,0,1.4-0.1,2.1-0.4c0.7-0.3,1.4-0.6,1.9-1.2c0.6-0.5,1.1-1.2,1.5-2
			c0.4-0.8,0.6-1.7,0.7-2.8v-4.1l-4.3,1.2c-0.6,0.1-1.2,0.3-1.9,0.6c-0.7,0.2-1.3,0.5-1.9,0.9c-0.6,0.4-1,0.9-1.4,1.5
			C720.2,946.3,720,947.1,720,948z"/>
		<path class="st1" d="M737.4,953c0.1-0.1,0.2-0.2,0.4-0.3c0.2-0.1,0.4-0.4,0.8-0.6c0.3-0.3,0.7-0.6,1.1-1.1c0.4-0.5,0.9-1,1.4-1.7
			l4.9-6.6l-4.8-6.8c-0.8-1-1.3-1.8-1.7-2.3c-0.4-0.5-0.8-0.9-1.2-1h4.9c-0.1,0.1-0.2,0.2-0.2,0.3c-0.1,0.1-0.1,0.3-0.1,0.5
			c0,0.2,0,0.4,0.1,0.7c0.1,0.3,0.3,0.6,0.6,1l4.1,5.8l3.3-4.7c0.6-0.8,0.9-1.4,1.1-1.8c0.2-0.4,0.2-0.8,0.2-1
			c0-0.2-0.1-0.4-0.2-0.5c-0.1-0.1-0.2-0.2-0.3-0.3h4.4c-0.3,0.2-0.8,0.5-1.4,0.9c-0.6,0.4-1.3,1.2-2,2.2l-4.4,6.1l5.7,8
			c0.7,0.9,1.2,1.7,1.6,2.2c0.4,0.5,0.8,0.9,1.3,1.1h-4.8c0.1-0.1,0.2-0.2,0.2-0.2c0.1-0.1,0.1-0.2,0.2-0.4c0-0.2,0-0.4-0.1-0.7
			c-0.1-0.3-0.3-0.7-0.7-1.1l-5-7l-4.1,5.6c-0.6,0.8-1,1.5-1.2,2c-0.2,0.5-0.3,0.9-0.3,1.1c0,0.3,0.1,0.4,0.2,0.5
			c0.1,0.1,0.2,0.2,0.3,0.3H737.4z"/>
	</g>
</g>
<path class="st1" d="M720,828.3c-49.3,0-89.5-40.1-89.5-89.5s40.1-89.5,89.5-89.5s89.5,40.1,89.5,89.5S769.4,828.3,720,828.3z
	 M720,652.1c-47.8,0-86.7,38.9-86.7,86.7s38.9,86.7,86.7,86.7s86.7-38.9,86.7-86.7S767.8,652.1,720,652.1z"/>
<pattern  id="SVGID_00000016048011048308496570000010118363211827262396_" xlink:href="#Unnamed_Pattern_7" patternTransform="matrix(1.8841 0 0 1.8841 1993.6896 2668.5596)">
</pattern>
<polygon style="fill:url(#SVGID_00000016048011048308496570000010118363211827262396_);" points="640.2,831 638.3,829 814,653.3 
	815.9,655.3 "/>
<g>
	<path class="st1" d="M731.3,693.9h-22.7c-0.8,0-1.4,0.6-1.4,1.4v0.3c0,0.8,0.6,1.4,1.4,1.4h22.7c0.8,0,1.4-0.6,1.4-1.4v-0.3
		C732.7,694.5,732.1,693.9,731.3,693.9z"/>
	<path class="st1" d="M731.3,698.4h-22.7c-1.6,0-2.8-1.3-2.8-2.8v-0.3c0-1.6,1.3-2.8,2.8-2.8h22.7c1.5,0,2.8,1.3,2.8,2.8v0.3
		C734.1,697.1,732.9,698.4,731.3,698.4z M708.7,695.3l0,0.3l22.7,0l0-0.3l0,0H708.7z"/>
</g>
<g>
	<path class="st3" d="M13.2,997.4c2.8,3.9,7.2,7.4,11.3,9.1c-0.6,0.6-1.2,1.4-1.6,2.2c-1.4-0.7-2.9-1.6-4.2-2.6v1.9h-13v-1.8
		c-1.3,1-2.8,1.9-4.2,2.7c-0.3-0.6-1-1.4-1.5-1.9c4.5-2.3,8.8-6.2,10.8-9.5H13.2z M4.2,1010.8h16.1v10.5h-2.5v-1H6.6v1H4.2V1010.8z
		 M18.3,1005.7c-2.5-1.8-4.7-4-6.2-6c-1.3,1.9-3.4,4.1-5.9,6H18.3z M6.6,1013v5.1h11.3v-5.1H6.6z"/>
	<path class="st3" d="M49.3,1006.2c-1.1,3.4-2.6,6.3-4.6,8.8c0.9,2.2,1.9,3.6,3,3.6c0.7,0,1-1.3,1.2-4.7c0.6,0.6,1.4,1.1,2.1,1.4
		c-0.4,4.6-1.3,5.8-3.4,5.8c-1.9,0-3.4-1.5-4.6-3.9c-1.5,1.6-3.1,2.9-4.9,4c-0.4-0.5-1.2-1.5-1.8-2c2.2-1.2,4.1-2.7,5.7-4.6
		c-0.9-3-1.5-6.7-1.9-10.8h-8.4v3.2h6.6v0.9c-0.1,5.7-0.3,7.9-0.8,8.7c-0.5,0.6-1,0.8-1.7,0.8c-0.7,0.1-1.8,0.1-3.1,0.1
		c-0.1-0.7-0.3-1.6-0.7-2.3c1.1,0.1,2.1,0.1,2.5,0.1c0.4,0,0.6-0.1,0.8-0.3c0.3-0.4,0.4-1.9,0.5-5.8h-4.2c0,3.7-0.5,9-2.8,12.3
		c-0.4-0.5-1.5-1.4-2-1.7c2.1-3.1,2.3-7.6,2.3-11v-7.4h10.8c-0.1-1.4-0.1-2.8-0.1-4.2h2.6c0,1.4,0,2.8,0.1,4.2h5.1
		c-1-0.9-2.7-2-4.1-2.7l1.5-1.5c1.5,0.8,3.5,2,4.5,2.9l-1.3,1.3h2.7v2.4h-8.2c0.3,3.1,0.7,5.9,1.3,8.3c1.3-1.9,2.2-4.1,3-6.5
		L49.3,1006.2z"/>
	<path class="st3" d="M77.4,1011.2c-0.8,2.4-2,4.3-3.6,5.9c1.5,1.1,3.2,1.9,5.2,2.3c-0.5,0.4-1.1,1.3-1.5,1.9
		c-2.1-0.6-4-1.5-5.5-2.8c-1.7,1.2-3.7,2.1-5.7,2.8c-0.2-0.5-0.7-1.2-1-1.7v1.3h-1.9v-1.4h-6.4v1.8h-1.8v-18h2.7v-2.8h-3v-2h10.4v2
		h-2.8v2.8h2.8v4.7c2.3-0.8,3-2.2,3.2-4.2l-2.8,0.2l-0.2-2.1l2.1-0.1c0.8-1.4,1.5-3.2,2-4.6l2.4,0.7c-0.7,1.3-1.4,2.6-2,3.8
		c1.6-0.1,3.3-0.1,5-0.2c-0.5-0.6-1-1.2-1.5-1.7l1.7-0.9c1.4,1.3,3,3.2,3.7,4.6l-1.9,1c-0.2-0.3-0.4-0.8-0.7-1.2l-1.8,0.1v3
		c0,0.5,0.1,0.5,0.5,0.5h1.3c0.4,0,0.5-0.2,0.6-1.8c0.4,0.3,1.3,0.6,1.8,0.7c-0.2,2.4-0.7,3-2.1,3h-1.9c-1.9,0-2.3-0.6-2.3-2.4v-2.9
		l-1.8,0.1c-0.3,2.9-1.2,4.8-4.2,6c-0.2-0.4-0.7-1.1-1.1-1.5v5.9c2.1-1.4,3.9-3.4,4.9-5.8l2.2,0.5c-0.3,0.7-0.6,1.3-0.9,1.9h4.1
		l0.4-0.1L77.4,1011.2z M59.6,1007.3c0,1.5-0.3,3.4-1.8,4.8c-0.2-0.2-0.6-0.5-0.9-0.7v2.2h6.4v-2.7h-0.1h-1.1
		c-1.1,0-1.4-0.3-1.4-1.6v-3.8h-1.2V1007.3z M56.9,1005.3v5.7c1.2-1.2,1.4-2.6,1.4-3.8v-1.9H56.9z M63.4,1017.5v-2.1h-6.4v2.1H63.4z
		 M59.5,1003.3h1.3v-2.8h-1.3V1003.3z M63.4,1005.3H62v3.8c0,0.3,0,0.3,0.3,0.3H63c0.2,0,0.3,0,0.3,0V1005.3z M65.3,1019.4
		c1.9-0.5,3.7-1.3,5.2-2.4c-0.7-0.8-1.4-1.8-1.9-2.7c-0.7,0.7-1.4,1.2-2.2,1.7c-0.2-0.3-0.7-0.8-1.2-1.2V1019.4z M70.2,1012.5
		l-0.2,0.2c0.5,1.1,1.3,2.1,2.1,3c0.9-0.9,1.7-2,2.3-3.2H70.2z"/>
	<path class="st3" d="M91.7,998.5c-0.8,1.8-1.7,3.6-2.8,5.4v17.4h-2.4v-14c-1,1.2-2,2.4-3,3.3c-0.3-0.6-1-1.9-1.5-2.5
		c2.9-2.4,5.7-6.3,7.4-10.3L91.7,998.5z M102.7,1018.7c1.4,0,1.5-0.9,1.8-4.7c0.6,0.4,1.6,0.9,2.3,1c-0.3,4.3-1,5.9-3.9,5.9h-4.9
		c-3,0-3.8-0.9-3.8-4.1v-19h2.4v9.4c2.7-1.5,5.5-3.4,7.3-5.1l1.8,2.1c-2.5,1.9-5.9,3.8-9,5.4v7.1c0,1.5,0.3,1.8,1.6,1.8H102.7z"/>
	<path class="st3" d="M119.1,999.3c-0.8,2.3-1.8,5.1-2.6,7.1c1.9,2.1,2.3,4,2.3,5.6c0,1.5-0.3,2.6-1.1,3.2c-0.4,0.3-0.9,0.5-1.4,0.6
		c-0.5,0.1-1.2,0.1-1.8,0.1c0-0.7-0.2-1.6-0.6-2.2c0.6,0.1,1,0.1,1.4,0.1c0.3,0,0.6-0.1,0.8-0.3c0.4-0.2,0.5-0.9,0.5-1.7
		c0-1.4-0.4-3.1-2.2-5c0.7-1.8,1.4-4.3,1.9-6.1h-3.2v20.8h-2.3v-22.9h6.3l0.3-0.1L119.1,999.3z M125,1003.8
		c-0.1,1.2-0.1,2.4-0.2,3.6h7.4v1c-0.3,7.9-0.6,10.8-1.3,11.8c-0.6,0.7-1.1,0.9-1.9,1c-0.7,0.1-2.1,0.1-3.5,0.1
		c-0.1-0.7-0.3-1.7-0.7-2.4c1.3,0.1,2.5,0.1,3,0.1c0.5,0,0.7-0.1,1-0.3c0.5-0.6,0.8-2.9,1-9h-5.2c-0.6,5-2.2,9.1-6.7,11.6
		c-0.3-0.6-1-1.4-1.6-1.8c5.7-3,6.2-8.7,6.3-15.6h-3.9v-2.3h6.2v-4.3h2.4v4.3h6.4v2.3H125z"/>
	<path class="st3" d="M160.1,1017.6v2.4h-23.5v-2.4h3.5v-14.7h2.5v14.7h5.5v-20.2h2.6v8.4h8.2v2.4h-8.2v9.4H160.1z"/>
	<path class="st3" d="M176.8,1001.8c-0.8,1.3-1.9,2.5-3.2,3.4c1.7,0.7,3.5,1.1,5.3,1.5c-0.5,0.5-1.1,1.4-1.3,2.1
		c-2.1-0.5-4.2-1.1-6.2-2.2c-1.5,0.8-3.2,1.5-5,2h2.3v1.5h5.9v-1.5h2.4v12.6h-2.4v-5.2h-6.1c-0.4,1.9-1.1,3.9-2.7,5.4
		c-0.4-0.4-1.4-1-1.9-1.3c2.3-2.2,2.6-5.4,2.6-7.6v-4c-0.5,0.2-1,0.3-1.6,0.4c-0.2-0.5-0.9-1.5-1.3-2c2.1-0.4,4.1-1,5.9-1.8
		c-1.2-0.9-2.3-2-3.3-3.5h-1.9v-2.1h5.8v-2.1h2.4v2.1h6.1v2.1H176.8z M168.7,1012.1v0.5c0,0.4,0,0.9-0.1,1.4h5.9v-2H168.7z
		 M168.7,1001.8c0.9,1,1.8,1.7,2.8,2.3c1-0.7,1.9-1.4,2.6-2.3H168.7z M181.7,1014.3h-2.3v-14.5h2.3V1014.3z M187,997.8v20.5
		c0,1.4-0.3,2.1-1.2,2.6c-0.9,0.4-2.3,0.5-4.5,0.4c-0.1-0.7-0.5-1.8-0.8-2.5c1.6,0.1,3.1,0.1,3.6,0.1c0.4,0,0.6-0.2,0.6-0.6v-20.5
		H187z"/>
	<path class="st3" d="M211.2,1003.4c-0.6,2.7-1.8,6.8-3.9,9.6c-2.4,3.1-5.7,5.6-10.4,7.1l-2.3-2.5c5.1-1.3,8.1-3.5,10.2-6.2
		c1.8-2.3,2.9-5.6,3.3-8h-12.9c-1.1,0-2.2,0.1-2.8,0.1v-2.9c0.7,0.1,2,0.2,2.8,0.2H208c0.4,0,1.1,0,1.7-0.2l2,1.3
		C211.5,1002.3,211.3,1002.9,211.2,1003.4z"/>
	<path class="st3" d="M221.5,1001.4v8.8c0,0.7,0.1,1.6,0.1,2.1h-3c0-0.4,0.1-1.4,0.1-2.1v-8.8c0-0.5,0-1.4-0.1-1.9h3
		C221.5,1000,221.5,1000.6,221.5,1001.4z M233.6,1001.6v4.7c0,6-0.9,8.2-2.9,10.4c-1.7,2-4.3,3.2-6.3,3.8l-2.2-2.3
		c2.5-0.6,4.7-1.6,6.3-3.4c1.8-2.1,2.2-4.1,2.2-8.7v-4.5c0-0.9-0.1-1.7-0.2-2.4h3.1C233.7,999.9,233.6,1000.7,233.6,1001.6z"/>
	<path class="st3" d="M244.7,1007.8H259c1.3,0,2.3-0.1,2.9-0.2v3.2c-0.6,0-1.8-0.1-2.9-0.1h-14.2c-1.4,0-3,0.1-3.9,0.1v-3.2
		C241.7,1007.6,243.3,1007.8,244.7,1007.8z"/>
</g>
<g>
	<g>
		<path class="st1" d="M106.7,883.8h4.3l16.8,20.6v-16c0-1.4-0.1-2.4-0.4-3.1c-0.3-0.7-0.8-1.2-1.6-1.5h5.3
			c-0.8,0.3-1.3,0.8-1.6,1.5c-0.3,0.7-0.4,1.8-0.4,3.1v20.6h-0.6l-18.5-22.1v17.5c0,1.4,0.1,2.4,0.4,3.1c0.3,0.7,0.8,1.2,1.6,1.5
			h-5.3c0.8-0.3,1.3-0.8,1.6-1.5c0.3-0.7,0.4-1.8,0.4-3.1v-16.3c0-1.3-0.1-2.3-0.4-2.9C108,884.5,107.5,884.1,106.7,883.8z"/>
		<path class="st1" d="M146.5,888.3c1.5,0,2.9,0.3,4.1,0.8c1.3,0.5,2.4,1.3,3.3,2.2c0.9,0.9,1.7,2.1,2.2,3.3
			c0.5,1.3,0.8,2.7,0.8,4.2v0c0,1.5-0.3,2.9-0.8,4.2c-0.5,1.3-1.3,2.4-2.2,3.3c-0.9,0.9-2,1.7-3.3,2.2c-1.3,0.5-2.6,0.8-4.1,0.8
			c-1.5,0-2.9-0.3-4.1-0.8c-1.3-0.5-2.4-1.3-3.3-2.2s-1.7-2.1-2.2-3.3c-0.5-1.3-0.8-2.7-0.8-4.2v0c0-1.5,0.3-2.9,0.8-4.2
			c0.5-1.3,1.3-2.4,2.2-3.3s2-1.7,3.3-2.2C143.6,888.5,145,888.3,146.5,888.3z M139,898.8c0,1.4,0.2,2.6,0.5,3.7s0.9,2.1,1.5,2.9
			c0.7,0.8,1.5,1.5,2.4,1.9c0.9,0.5,1.9,0.7,3,0.7s2.1-0.2,3-0.7c0.9-0.5,1.7-1.1,2.4-1.9c0.7-0.8,1.2-1.8,1.5-2.9
			c0.4-1.1,0.5-2.4,0.5-3.7c0-1.4-0.2-2.6-0.5-3.7c-0.4-1.1-0.9-2.1-1.5-2.9c-0.7-0.8-1.5-1.4-2.4-1.9c-0.9-0.5-1.9-0.7-3-0.7
			s-2.1,0.2-3,0.7c-0.9,0.5-1.7,1.1-2.4,1.9c-0.7,0.8-1.2,1.8-1.5,2.9C139.1,896.2,139,897.4,139,898.8z"/>
		<path class="st1" d="M5.1,955.6c0.8-0.2,1.3-0.6,1.6-1.1c0.3-0.5,0.4-1.3,0.4-2.4v-18.1c0-1.1-0.1-1.9-0.4-2.4
			c-0.3-0.5-0.8-0.9-1.6-1.1h9.1c1.5,0,2.9,0.2,4.1,0.5c1.2,0.3,2.2,0.8,3.1,1.3c0.8,0.6,1.5,1.3,1.9,2.2c0.4,0.9,0.7,1.9,0.7,3.1
			s-0.2,2.2-0.7,3.2c-0.5,1-1.1,1.8-2,2.5c-0.9,0.7-1.9,1.2-3.1,1.6c-1.2,0.4-2.6,0.5-4.1,0.5H9.8v6.9c0,1,0.1,1.8,0.4,2.4
			c0.3,0.5,0.8,0.9,1.6,1.2H5.1z M9.8,931.6v12.3h4c2.3,0,4.1-0.6,5.3-1.7c1.2-1.2,1.8-2.7,1.8-4.7c0-1.9-0.6-3.4-1.8-4.4
			c-1.2-1-3-1.5-5.3-1.5H9.8z"/>
		<path class="st1" d="M28.6,955.6c0.8-0.2,1.3-0.7,1.5-1.3c0.2-0.7,0.4-1.5,0.4-2.6v-12.3c0-1-0.1-1.9-0.2-2.5
			c-0.1-0.6-0.4-1.2-0.8-1.7l3.6-0.3v4.3c0.7-1.3,1.6-2.3,2.7-3.1c1.1-0.8,2.5-1.2,4.2-1.2c0.3,0,0.6,0,0.9,0.1c0.3,0,0.7,0.1,1,0.2
			l0,3.6c-0.5-0.5-1.1-0.9-1.7-1.2c-0.7-0.4-1.4-0.5-2.3-0.5c-1.2,0-2.1,0.4-2.9,1.2c-0.8,0.8-1.4,1.7-1.9,2.9v10.8
			c0,1,0.1,1.9,0.4,2.5c0.3,0.7,0.8,1.1,1.5,1.3H28.6z"/>
		<path class="st1" d="M55.8,934.8c1.5,0,2.8,0.2,3.8,0.6c1.1,0.4,1.9,1,2.6,1.8c0.7,0.8,1.2,1.7,1.5,2.7c0.3,1,0.5,2.2,0.5,3.4H49
			c0,0.3-0.1,0.7-0.1,1.1c0,0.4,0,0.7,0,1.1c0,1.4,0.2,2.6,0.6,3.8c0.4,1.1,0.9,2.1,1.6,2.9c0.7,0.8,1.5,1.4,2.5,1.9
			c1,0.4,2,0.7,3.1,0.7c1.7,0,3.3-0.6,4.6-1.7c1.3-1.1,2.3-2.8,3.1-5.2l-0.3,5.3c-0.9,0.8-2,1.5-3.4,2c-1.4,0.5-2.8,0.8-4.3,0.8
			c-1.6,0-3-0.3-4.3-0.8c-1.3-0.5-2.4-1.2-3.3-2.1s-1.6-2-2.1-3.3c-0.5-1.3-0.8-2.7-0.8-4.3c0-1.5,0.2-2.9,0.7-4.2
			c0.5-1.3,1.1-2.4,2-3.4c0.9-1,1.9-1.7,3.1-2.2C52.9,935.1,54.3,934.8,55.8,934.8z M49.2,942.2h12.3c-0.1-1.9-0.7-3.4-1.6-4.5
			c-1-1.1-2.3-1.6-4.1-1.6c-1.7,0-3.1,0.5-4.2,1.6C50.4,938.7,49.6,940.2,49.2,942.2z"/>
		<path class="st1" d="M69.6,954l0.4-6c0.6,2.4,1.4,4.1,2.5,5.1c1.1,1,2.5,1.5,4.2,1.5s3-0.4,3.9-1.2c1-0.8,1.4-1.8,1.4-3
			c0-0.6-0.1-1.1-0.3-1.5c-0.2-0.4-0.5-0.7-0.8-1c-0.4-0.3-0.7-0.5-1.2-0.6c-0.4-0.2-0.9-0.3-1.3-0.5l-3.9-1.2
			c-1.3-0.4-2.4-1.1-3.2-1.9c-0.8-0.9-1.3-2-1.3-3.5c0-1.7,0.6-3.1,1.7-4c1.2-0.9,2.7-1.4,4.7-1.4c1.3,0,2.5,0.2,3.6,0.6
			c1.2,0.4,2.2,0.9,3,1.6l-0.1,4.7c-0.8-1.9-1.7-3.3-2.7-4.2c-1.1-0.9-2.4-1.4-4-1.4c-1.4,0-2.4,0.3-3.2,0.9s-1.1,1.5-1.1,2.5
			c0,0.6,0.1,1,0.3,1.4c0.2,0.4,0.5,0.7,0.9,1c0.4,0.3,0.7,0.5,1.1,0.7c0.4,0.2,0.8,0.3,1.2,0.4l3.7,1.2c0.5,0.1,1,0.3,1.6,0.5
			c0.6,0.2,1.1,0.5,1.6,0.9c0.5,0.4,0.9,0.9,1.3,1.5c0.4,0.6,0.5,1.4,0.5,2.3c0,0.9-0.2,1.7-0.5,2.5c-0.4,0.8-0.9,1.5-1.5,2.1
			c-0.7,0.6-1.5,1-2.4,1.4c-1,0.3-2,0.5-3.3,0.5c-1.4,0-2.7-0.2-3.9-0.5C71.4,955,70.4,954.5,69.6,954z"/>
		<path class="st1" d="M98.5,934.8c1.5,0,2.8,0.2,3.8,0.6c1.1,0.4,1.9,1,2.6,1.8c0.7,0.8,1.2,1.7,1.5,2.7c0.3,1,0.5,2.2,0.5,3.4
			H91.8c0,0.3-0.1,0.7-0.1,1.1c0,0.4,0,0.7,0,1.1c0,1.4,0.2,2.6,0.6,3.8c0.4,1.1,0.9,2.1,1.6,2.9c0.7,0.8,1.5,1.4,2.5,1.9
			c1,0.4,2,0.7,3.1,0.7c1.7,0,3.3-0.6,4.6-1.7c1.3-1.1,2.3-2.8,3.1-5.2l-0.3,5.3c-0.9,0.8-2,1.5-3.4,2c-1.4,0.5-2.8,0.8-4.3,0.8
			c-1.6,0-3-0.3-4.3-0.8c-1.3-0.5-2.4-1.2-3.3-2.1c-0.9-0.9-1.6-2-2.1-3.3c-0.5-1.3-0.8-2.7-0.8-4.3c0-1.5,0.2-2.9,0.7-4.2
			c0.5-1.3,1.1-2.4,2-3.4c0.9-1,1.9-1.7,3.1-2.2C95.7,935.1,97,934.8,98.5,934.8z M92,942.2h12.3c-0.1-1.9-0.7-3.4-1.6-4.5
			c-1-1.1-2.3-1.6-4.1-1.6c-1.7,0-3.1,0.5-4.2,1.6C93.2,938.7,92.4,940.2,92,942.2z"/>
		<path class="st1" d="M112.1,955.6c0.8-0.2,1.3-0.7,1.5-1.3c0.2-0.7,0.4-1.5,0.4-2.6v-12.3c0-1-0.1-1.9-0.2-2.5
			c-0.1-0.6-0.4-1.2-0.8-1.7l3.6-0.3v4.3c0.7-1.3,1.6-2.3,2.7-3.1c1.1-0.8,2.5-1.2,4.2-1.2c0.3,0,0.6,0,0.9,0.1c0.3,0,0.7,0.1,1,0.2
			l0,3.6c-0.5-0.5-1.1-0.9-1.7-1.2c-0.7-0.4-1.4-0.5-2.3-0.5c-1.2,0-2.1,0.4-2.9,1.2c-0.8,0.8-1.4,1.7-1.9,2.9v10.8
			c0,1,0.1,1.9,0.4,2.5c0.3,0.7,0.8,1.1,1.5,1.3H112.1z"/>
		<path class="st1" d="M133.2,935.1c-0.3,0.2-0.4,0.5-0.4,1c0,0.5,0.2,1.3,0.7,2.5l5.7,13.2l4.5-11.4c0.5-1.2,0.8-2.1,0.9-2.8
			c0.1-0.7,0.2-1.2,0.1-1.5s-0.1-0.6-0.3-0.7c-0.1-0.1-0.2-0.2-0.3-0.3h4.2c-0.2,0-0.4,0.1-0.5,0.3c-0.2,0.1-0.4,0.4-0.6,0.7
			c-0.2,0.3-0.5,0.7-0.7,1.2c-0.3,0.5-0.6,1.1-0.9,1.9l-6.7,16.5h-0.7l-6.9-16.1c-0.4-0.8-0.7-1.5-1-2.1c-0.3-0.5-0.5-1-0.8-1.3
			c-0.2-0.3-0.4-0.6-0.6-0.7c-0.2-0.1-0.3-0.3-0.4-0.3H133.2z"/>
		<path class="st1" d="M160.2,944.1l4.4-1.1v-1.4c0-1-0.1-1.9-0.3-2.6c-0.2-0.7-0.5-1.2-0.9-1.7c-0.4-0.4-0.9-0.7-1.4-0.9
			c-0.5-0.2-1.1-0.3-1.7-0.3c-0.7,0-1.3,0.1-2,0.3c-0.7,0.2-1.4,0.6-2,1.1c-0.6,0.5-1.2,1.2-1.8,2.1c-0.5,0.9-1,1.9-1.3,3.2
			l-0.1-5.7c0.9-0.6,2-1.2,3.3-1.6c1.3-0.4,2.7-0.7,4.1-0.7c2.1,0,3.8,0.5,5,1.5c1.3,1,1.9,2.6,1.9,4.7v10.7c0,0.9,0.1,1.7,0.3,2.3
			c0.2,0.7,0.5,1.2,0.9,1.5l-3.6,0.1v-4.3c-0.6,1.2-1.4,2.3-2.6,3.1c-1.1,0.8-2.6,1.3-4.4,1.3c-1.9,0-3.4-0.4-4.5-1.3
			c-1.1-0.9-1.6-2.1-1.6-3.6c0-1.1,0.3-2,0.8-2.8c0.5-0.8,1.2-1.4,2.1-1.9c0.8-0.5,1.8-1,2.8-1.3
			C158.3,944.6,159.3,944.3,160.2,944.1z M154.6,950.6c0,1.2,0.3,2.1,1,2.9c0.7,0.7,1.6,1.1,2.9,1.1c0.7,0,1.4-0.1,2.1-0.4
			c0.7-0.3,1.4-0.6,1.9-1.2c0.6-0.5,1.1-1.2,1.5-2c0.4-0.8,0.6-1.7,0.7-2.8v-4.1l-4.3,1.2c-0.6,0.1-1.2,0.3-1.9,0.6
			c-0.7,0.2-1.3,0.5-1.9,0.9c-0.6,0.4-1,0.9-1.4,1.5C154.8,948.9,154.6,949.7,154.6,950.6z"/>
		<path class="st1" d="M172.1,935.1h3l2.7-5.9v5.9h5.7v1.1h-5.7v15.3c0,0.2,0,0.5,0,0.9c0,0.4,0.1,0.7,0.2,1.1
			c0.1,0.3,0.4,0.6,0.7,0.9c0.3,0.2,0.7,0.4,1.3,0.4c0.6,0,1.1-0.2,1.5-0.5c0.5-0.3,0.9-0.7,1.2-1.1l0.7,0.6
			c-0.2,0.2-0.4,0.5-0.7,0.7c-0.2,0.3-0.5,0.5-0.9,0.7c-0.3,0.2-0.7,0.4-1.2,0.5c-0.4,0.1-1,0.2-1.5,0.2c-1,0-1.8-0.2-2.4-0.5
			c-0.6-0.4-1-0.8-1.2-1.3c-0.2-0.5-0.4-1-0.4-1.6c0-0.6-0.1-1-0.1-1.5v-14.9h-3.1V935.1z"/>
		<path class="st1" d="M187.2,955.6c0.8-0.2,1.3-0.7,1.5-1.3c0.2-0.7,0.4-1.5,0.4-2.6v-12.3c0-1-0.1-1.9-0.2-2.5
			c-0.1-0.6-0.4-1.2-0.8-1.7l3.6-0.3v16.9c0,1,0.1,1.9,0.4,2.5c0.3,0.7,0.8,1.1,1.5,1.3H187.2z M190.3,928.5c0.6,0,1.1,0.2,1.5,0.6
			c0.4,0.4,0.6,0.9,0.6,1.4s-0.2,1.1-0.6,1.4c-0.4,0.4-0.9,0.6-1.5,0.6c-0.6,0-1.1-0.2-1.5-0.6c-0.4-0.4-0.6-0.9-0.6-1.4
			s0.2-1.1,0.6-1.4C189.2,928.7,189.7,928.5,190.3,928.5z"/>
		<path class="st1" d="M201.6,935.1c-0.3,0.2-0.4,0.5-0.4,1c0,0.5,0.2,1.3,0.7,2.5l5.7,13.2l4.5-11.4c0.5-1.2,0.8-2.1,0.9-2.8
			c0.1-0.7,0.2-1.2,0.1-1.5c0-0.4-0.1-0.6-0.3-0.7c-0.1-0.1-0.2-0.2-0.3-0.3h4.2c-0.2,0-0.4,0.1-0.5,0.3c-0.2,0.1-0.4,0.4-0.6,0.7
			c-0.2,0.3-0.5,0.7-0.7,1.2c-0.3,0.5-0.6,1.1-0.9,1.9l-6.7,16.5h-0.7l-6.9-16.1c-0.4-0.8-0.7-1.5-1-2.1c-0.3-0.5-0.5-1-0.8-1.3
			c-0.2-0.3-0.4-0.6-0.6-0.7c-0.2-0.1-0.3-0.3-0.4-0.3H201.6z"/>
		<path class="st1" d="M229.9,934.8c1.5,0,2.8,0.2,3.8,0.6c1.1,0.4,1.9,1,2.6,1.8c0.7,0.8,1.2,1.7,1.5,2.7c0.3,1,0.5,2.2,0.5,3.4
			h-15.3c0,0.3-0.1,0.7-0.1,1.1c0,0.4,0,0.7,0,1.1c0,1.4,0.2,2.6,0.6,3.8c0.4,1.1,0.9,2.1,1.6,2.9c0.7,0.8,1.5,1.4,2.5,1.9
			c1,0.4,2,0.7,3.1,0.7c1.7,0,3.3-0.6,4.6-1.7c1.3-1.1,2.3-2.8,3.1-5.2l-0.3,5.3c-0.9,0.8-2,1.5-3.4,2c-1.4,0.5-2.8,0.8-4.3,0.8
			c-1.6,0-3-0.3-4.3-0.8c-1.3-0.5-2.4-1.2-3.3-2.1s-1.6-2-2.1-3.3c-0.5-1.3-0.8-2.7-0.8-4.3c0-1.5,0.2-2.9,0.7-4.2
			c0.5-1.3,1.1-2.4,2-3.4c0.9-1,1.9-1.7,3.1-2.2C227.1,935.1,228.4,934.8,229.9,934.8z M223.4,942.2h12.3c-0.1-1.9-0.7-3.4-1.6-4.5
			c-1-1.1-2.3-1.6-4.1-1.6c-1.7,0-3.1,0.5-4.2,1.6C224.5,938.7,223.8,940.2,223.4,942.2z"/>
		<path class="st1" d="M243.7,954l0.4-6c0.6,2.4,1.4,4.1,2.5,5.1c1.1,1,2.5,1.5,4.2,1.5c1.7,0,3-0.4,3.9-1.2c1-0.8,1.4-1.8,1.4-3
			c0-0.6-0.1-1.1-0.3-1.5c-0.2-0.4-0.5-0.7-0.8-1c-0.4-0.3-0.7-0.5-1.2-0.6c-0.4-0.2-0.9-0.3-1.3-0.5l-3.9-1.2
			c-1.3-0.4-2.4-1.1-3.2-1.9c-0.8-0.9-1.3-2-1.3-3.5c0-1.7,0.6-3.1,1.7-4c1.2-0.9,2.7-1.4,4.7-1.4c1.3,0,2.5,0.2,3.6,0.6
			c1.2,0.4,2.2,0.9,3,1.6l-0.1,4.7c-0.8-1.9-1.7-3.3-2.7-4.2c-1.1-0.9-2.4-1.4-4-1.4c-1.4,0-2.4,0.3-3.2,0.9
			c-0.8,0.6-1.1,1.5-1.1,2.5c0,0.6,0.1,1,0.3,1.4c0.2,0.4,0.5,0.7,0.9,1c0.4,0.3,0.7,0.5,1.1,0.7c0.4,0.2,0.8,0.3,1.2,0.4l3.7,1.2
			c0.5,0.1,1,0.3,1.6,0.5c0.6,0.2,1.1,0.5,1.6,0.9c0.5,0.4,0.9,0.9,1.3,1.5c0.4,0.6,0.5,1.4,0.5,2.3c0,0.9-0.2,1.7-0.5,2.5
			c-0.4,0.8-0.9,1.5-1.5,2.1c-0.7,0.6-1.5,1-2.4,1.4c-1,0.3-2,0.5-3.3,0.5c-1.4,0-2.7-0.2-3.9-0.5C245.5,955,244.5,954.5,243.7,954z
			"/>
	</g>
</g>
<g>
	<path class="st1" d="M128.5,828.7c-49.3,0-89.5-40.1-89.5-89.5s40.1-89.5,89.5-89.5s89.5,40.1,89.5,89.5S177.8,828.7,128.5,828.7z
		 M128.5,652.6c-47.8,0-86.7,38.9-86.7,86.7c0,47.8,38.9,86.7,86.7,86.7s86.7-38.9,86.7-86.7C215.2,691.5,176.3,652.6,128.5,652.6z"
		/>
	
		<pattern  id="SVGID_00000044874034591505093990000016263179082172476573_" xlink:href="#Unnamed_Pattern_7" patternTransform="matrix(0.8546 0 0 0.8546 -3669.8359 -3568.5103)">
	</pattern>
	<path style="fill:url(#SVGID_00000044874034591505093990000016263179082172476573_);" d="M99.2,783.5c-4.3,0-5.7-0.3-7-0.6
		c-8.6-2.1-15.3-9.6-16.6-18.5c-0.7-4.7,0.7-8.7,2.1-12.1c3.4-8,8.2-15.1,12.4-21.2c1.4-2,2.8-3.9,4.2-5.8c0.6-0.8,1.1-1.5,1.7-2.3
		c0.2-0.2,0.3-0.4,0.5-0.6l1.4-1.6l2,2.7c0.7,0.9,1.4,1.8,2.1,2.8c5.5,7.6,11.3,15.9,15.5,25.2c1.6,3.6,3.4,8.4,2.3,14
		c-1.8,9.3-11.4,18-19.7,18c0,0,0,0-0.1,0C99.8,783.5,99.5,783.5,99.2,783.5z M97.9,725.2c-0.4,0.6-0.8,1.1-1.3,1.7
		c-1.4,1.9-2.8,3.8-4.1,5.7c-4.1,6-8.8,13-12.1,20.7c-1.3,3-2.5,6.6-1.9,10.6c1.1,7.8,7,14.4,14.5,16.2l0,0c1.2,0.3,2.6,0.5,7.2,0.5
		c0,0,0,0,0,0c6.3,0,15.3-7,17-15.8c0.7-3.7,0.1-7.6-2.1-12.3c-4.1-9.1-9.8-17.3-15.2-24.7C99.2,727,98.5,726.1,97.9,725.2z"/>
	
		<pattern  id="SVGID_00000157295610942089611310000008069750363031796391_" xlink:href="#Unnamed_Pattern_7" patternTransform="matrix(0.6153 0 0 0.6153 -5395.6094 -5357.7974)">
	</pattern>
	<path style="fill:url(#SVGID_00000157295610942089611310000008069750363031796391_);" d="M131.5,729.4c-3.1,0-4.1-0.2-5.1-0.4l0,0
		c-6.4-1.6-11.3-7.1-12.2-13.7c-0.5-3.5,0.5-6.5,1.6-8.9c2.5-5.8,5.9-11,9-15.3c1-1.4,2-2.8,3-4.2l1.2-1.7c0.1-0.2,0.3-0.3,0.4-0.5
		l1.3-1.5l1.8,2.3c0.5,0.7,1,1.3,1.5,2c4,5.5,8.1,11.5,11.2,18.2c1.2,2.6,2.5,6.2,1.7,10.3c-1.4,7-8.3,13.3-14.6,13.3
		C131.9,729.4,131.7,729.4,131.5,729.4z M130.5,687.7l-0.6,0.8c-1,1.4-2,2.7-3,4.1c-3,4.3-6.3,9.3-8.7,14.9
		c-0.9,2.1-1.8,4.7-1.4,7.4c0.8,5.5,4.9,10.1,10.2,11.4h0c0.8,0.2,1.8,0.4,5.1,0.4c0,0,0,0,0,0c4.4,0,10.6-4.9,11.9-11
		c0.5-2.6,0.1-5.3-1.5-8.7c-3-6.5-7-12.4-10.9-17.7C131.3,688.7,130.9,688.2,130.5,687.7z"/>
	
		<pattern  id="SVGID_00000027597563063528514090000011526942873926776994_" xlink:href="#Unnamed_Pattern_7" patternTransform="matrix(0.6153 0 0 0.6153 -5370.2007 -5302.2949)">
	</pattern>
	<path style="fill:url(#SVGID_00000027597563063528514090000011526942873926776994_);" d="M156.9,784.9c-3.1,0-4.1-0.2-5.1-0.4l0,0
		c-6.4-1.6-11.3-7.1-12.2-13.7c-0.5-3.5,0.5-6.5,1.6-8.9c2.5-5.8,5.9-11,9-15.3c1-1.4,2-2.8,3-4.2l1.2-1.7c0.1-0.2,0.3-0.3,0.4-0.5
		l1.3-1.5l1.8,2.4c0.5,0.7,1,1.3,1.5,2c4,5.5,8.1,11.5,11.2,18.2c1.2,2.6,2.5,6.2,1.7,10.3c-1.4,7-8.3,13.3-14.6,13.3
		C157.4,784.9,157.1,784.9,156.9,784.9z M155.9,743.2l-0.6,0.8c-1,1.4-2,2.7-3,4.1c-3,4.3-6.3,9.3-8.7,14.9
		c-0.9,2.1-1.8,4.7-1.4,7.4c0.8,5.5,4.9,10.1,10.2,11.4h0c0.8,0.2,1.8,0.4,5.1,0.4c0,0,0,0,0,0c4.4,0,10.6-4.9,11.9-11
		c0.5-2.6,0.1-5.3-1.5-8.7c-3-6.5-7-12.4-10.9-17.7C156.7,744.2,156.3,743.7,155.9,743.2z"/>
</g>
<pattern  id="SVGID_00000062181015287132266330000008283703818705303941_" xlink:href="#Unnamed_Pattern_7" patternTransform="matrix(1.8841 0 0 1.8841 2191.5881 2668.9861)">
</pattern>
<polygon style="fill:url(#SVGID_00000062181015287132266330000008283703818705303941_);" points="48.7,831.4 46.7,829.4 
	222.4,653.7 224.4,655.7 "/>
<g>
	<path class="st3" d="M39.8,1439.3h14.3c0.8,0,1.6-0.1,2.4-0.2v2.9c-0.7-0.1-1.6-0.1-2.4-0.1h-5.9v11.4h7.4c0.8,0,1.6-0.1,2.3-0.2v3
		c-0.7-0.1-1.7-0.1-2.3-0.1H38.3c-0.8,0-1.6,0-2.4,0.1v-3c0.8,0.1,1.7,0.2,2.4,0.2h7v-11.4h-5.5c-0.6,0-1.6,0-2.3,0.1v-2.9
		C38.2,1439.3,39.2,1439.3,39.8,1439.3z"/>
	<path class="st3" d="M72.1,1438.7c-0.1,0.2-0.2,0.3-0.3,0.5h6.3c0.7,0,1.5-0.1,2-0.3l2.1,1.3c-0.2,0.4-0.5,1.1-0.7,1.6
		c-0.7,2.3-2.1,5.2-4,7.9c1.1,0.8,2.1,1.6,2.9,2.2l-1.9,2.3c-0.7-0.7-1.7-1.5-2.8-2.4c-2.3,2.5-5.4,4.8-9.7,6.5l-2.4-2.1
		c4.5-1.4,7.6-3.6,9.9-6c-1.8-1.3-3.7-2.6-5.2-3.6l1.8-1.9c1.6,0.9,3.4,2.1,5.2,3.3c1.5-2.1,2.8-4.7,3.3-6.6h-8.3
		c-1.7,2.4-4.1,4.9-6.9,6.9l-2.2-1.7c4.5-2.8,7.1-6.6,8.4-8.9c0.3-0.5,0.8-1.6,1-2.4l3,0.9C73,1437.2,72.4,1438.2,72.1,1438.7z"/>
	<path class="st3" d="M102.9,1440.6c-1,2.9-2.7,6.8-4.9,9.6c-2.3,2.9-6,5.9-9.9,7.5l-2.3-2.4c4-1.4,7.6-4,10-6.9
		c2.5-3,4.2-7.4,4.9-11.2l3.2,0.8C103.5,1438.8,103.2,1439.9,102.9,1440.6z"/>
	<path class="st3" d="M112.6,1445.5h14.2c1.3,0,2.3-0.1,2.9-0.2v3.2c-0.6,0-1.8-0.1-2.9-0.1h-14.2c-1.4,0-3,0.1-3.9,0.1v-3.2
		C109.6,1445.4,111.2,1445.5,112.6,1445.5z"/>
	<path class="st3" d="M137,1449.8c0.8-2.3,0.8-7.4,0.8-10.4c0-0.9-0.1-1.5-0.2-2.1h3c0,0.2-0.1,1.2-0.1,2.1c0,3-0.1,8.6-0.8,11.2
		c-0.8,2.9-2.4,5.4-4.7,7.3l-2.5-1.7C134.7,1454.6,136.2,1452.2,137,1449.8z M144.7,1454.8v-15.5c0-1.1-0.2-1.9-0.2-2.1h3
		c0,0.2-0.1,1-0.1,2.1v14.5c2.3-1,5.2-3.2,7.1-6l1.6,2.3c-2.2,3-5.9,5.7-8.9,7.2c-0.5,0.3-0.8,0.5-1,0.7l-1.7-1.4
		C144.6,1456,144.7,1455.4,144.7,1454.8z"/>
	<path class="st3" d="M176.6,1441.1c-0.6,2.7-1.8,6.8-3.9,9.6c-2.4,3.1-5.7,5.6-10.4,7.1l-2.3-2.5c5.1-1.3,8.1-3.5,10.2-6.2
		c1.8-2.3,2.9-5.6,3.3-8h-12.9c-1.1,0-2.2,0.1-2.8,0.1v-2.9c0.7,0.1,2,0.2,2.8,0.2h12.7c0.4,0,1.1,0,1.7-0.2l2,1.3
		C176.8,1440,176.7,1440.6,176.6,1441.1z"/>
	<path class="st3" d="M186.8,1439.1v8.8c0,0.7,0.1,1.6,0.1,2.1h-3c0-0.4,0.1-1.4,0.1-2.1v-8.8c0-0.5,0-1.4-0.1-1.9h3
		C186.9,1437.7,186.8,1438.4,186.8,1439.1z M199,1439.4v4.7c0,6-0.9,8.2-2.9,10.4c-1.7,2-4.3,3.2-6.3,3.8l-2.2-2.3
		c2.5-0.6,4.7-1.6,6.3-3.4c1.8-2.1,2.2-4.1,2.2-8.7v-4.5c0-0.9-0.1-1.7-0.2-2.4h3.1C199,1437.6,199,1438.4,199,1439.4z"/>
	<path class="st3" d="M210.1,1445.5h14.2c1.3,0,2.3-0.1,2.9-0.2v3.2c-0.6,0-1.8-0.1-2.9-0.1h-14.2c-1.4,0-3,0.1-3.9,0.1v-3.2
		C207,1445.4,208.6,1445.5,210.1,1445.5z"/>
</g>
<g>
	<g>
		<path class="st1" d="M27.3,1373.9h4.3l16.8,20.6v-16c0-1.4-0.1-2.4-0.4-3.1c-0.3-0.7-0.8-1.2-1.6-1.5h5.3
			c-0.8,0.3-1.3,0.8-1.6,1.5c-0.3,0.7-0.4,1.8-0.4,3.1v20.6h-0.6L30.6,1377v17.5c0,1.4,0.1,2.4,0.4,3.1c0.3,0.7,0.8,1.2,1.6,1.5
			h-5.3c0.8-0.3,1.3-0.8,1.6-1.5c0.3-0.7,0.4-1.8,0.4-3.1v-16.3c0-1.3-0.1-2.3-0.4-2.9C28.6,1374.6,28.1,1374.2,27.3,1373.9z"/>
		<path class="st1" d="M67,1378.3c1.5,0,2.9,0.3,4.1,0.8c1.3,0.5,2.4,1.3,3.3,2.2c0.9,0.9,1.7,2.1,2.2,3.3c0.5,1.3,0.8,2.7,0.8,4.2
			v0c0,1.5-0.3,2.9-0.8,4.2c-0.5,1.3-1.3,2.4-2.2,3.3c-0.9,0.9-2,1.7-3.3,2.2c-1.3,0.5-2.6,0.8-4.1,0.8s-2.9-0.3-4.1-0.8
			c-1.3-0.5-2.4-1.3-3.3-2.2c-0.9-0.9-1.7-2.1-2.2-3.3c-0.5-1.3-0.8-2.7-0.8-4.2v0c0-1.5,0.3-2.9,0.8-4.2c0.5-1.3,1.3-2.4,2.2-3.3
			c0.9-0.9,2-1.7,3.3-2.2C64.2,1378.6,65.5,1378.3,67,1378.3z M59.5,1388.9c0,1.4,0.2,2.6,0.5,3.7c0.4,1.1,0.9,2.1,1.5,2.9
			c0.7,0.8,1.5,1.5,2.4,1.9c0.9,0.5,1.9,0.7,3,0.7s2.1-0.2,3-0.7c0.9-0.5,1.7-1.1,2.4-1.9c0.7-0.8,1.2-1.8,1.5-2.9
			c0.4-1.1,0.5-2.4,0.5-3.7c0-1.4-0.2-2.6-0.5-3.7c-0.4-1.1-0.9-2.1-1.5-2.9c-0.7-0.8-1.5-1.4-2.4-1.9c-0.9-0.5-1.9-0.7-3-0.7
			s-2.1,0.2-3,0.7c-0.9,0.5-1.7,1.1-2.4,1.9c-0.7,0.8-1.2,1.8-1.5,2.9C59.7,1386.3,59.5,1387.5,59.5,1388.9z"/>
		<path class="st1" d="M94.6,1399.2c0.8-0.2,1.3-0.6,1.6-1.2c0.3-0.6,0.5-1.4,0.5-2.5v-18.1c0-1.1-0.1-1.9-0.3-2.4
			c-0.2-0.5-0.7-0.9-1.5-1.1h16.2l0.8,6.5c-0.3-1.1-0.7-1.9-1.1-2.6c-0.4-0.7-1-1.2-1.7-1.6c-0.7-0.4-1.5-0.6-2.4-0.8
			c-0.9-0.1-2.1-0.2-3.5-0.2h-3.8v9.7h2.6c1.3,0,2.4-0.1,3.2-0.2c0.8-0.1,1.4-0.3,1.9-0.6c0.5-0.2,0.8-0.5,1.1-0.9
			c0.2-0.4,0.4-0.7,0.6-1.2l-0.4,7c-0.1-0.5-0.2-0.9-0.4-1.3c-0.2-0.4-0.5-0.7-1-0.9c-0.4-0.3-1.1-0.5-1.9-0.6
			c-0.8-0.1-1.9-0.2-3.2-0.2h-2.5v11.7h4.8c1.4,0,2.5-0.1,3.4-0.2c0.9-0.2,1.7-0.4,2.3-0.8c0.6-0.4,1.1-0.9,1.5-1.6
			c0.4-0.7,0.7-1.6,1-2.7l-0.7,6.7H94.6z"/>
		<path class="st1" d="M116.5,1378.6h3l2.7-5.9v5.9h5.7v1.1h-5.7v15.3c0,0.2,0,0.5,0,0.9c0,0.4,0.1,0.7,0.2,1.1
			c0.1,0.3,0.4,0.6,0.7,0.9c0.3,0.2,0.7,0.4,1.3,0.4c0.6,0,1.1-0.2,1.5-0.5c0.5-0.3,0.9-0.7,1.2-1.1l0.7,0.6
			c-0.2,0.2-0.4,0.5-0.7,0.7c-0.2,0.3-0.5,0.5-0.9,0.7c-0.3,0.2-0.7,0.4-1.2,0.5c-0.4,0.1-1,0.2-1.5,0.2c-1,0-1.8-0.2-2.4-0.5
			c-0.6-0.4-1-0.8-1.2-1.3c-0.2-0.5-0.4-1-0.4-1.6c0-0.6-0.1-1-0.1-1.5v-14.9h-3.1V1378.6z"/>
		<path class="st1" d="M131.6,1399.2c0.8-0.2,1.3-0.7,1.5-1.3c0.2-0.7,0.4-1.5,0.4-2.6v-19.9c0-0.9-0.1-1.6-0.2-2.1
			c-0.1-0.5-0.4-0.9-0.7-1.2l3.5-0.4v11.1c0.7-1.4,1.7-2.5,2.9-3.2c1.2-0.8,2.8-1.1,4.7-1.1c1,0,2,0.1,2.9,0.4
			c0.9,0.2,1.7,0.6,2.4,1.1c0.7,0.5,1.2,1.2,1.6,2.1c0.4,0.8,0.6,1.9,0.6,3.1v10.3c0,1,0.1,1.9,0.4,2.5c0.3,0.7,0.8,1.1,1.5,1.3
			h-6.4c0.8-0.2,1.3-0.7,1.5-1.3c0.2-0.7,0.4-1.5,0.4-2.6v-9.6c0-2.1-0.5-3.6-1.4-4.5c-1-0.9-2.3-1.4-4-1.4c-1.7,0-3.2,0.5-4.5,1.5
			c-1.3,1-2.1,2.5-2.6,4.5v9.5c0,1,0.1,1.9,0.4,2.5c0.3,0.7,0.8,1.1,1.5,1.3H131.6z"/>
		<path class="st1" d="M165.9,1387.6l4.4-1.1v-1.4c0-1-0.1-1.9-0.3-2.6c-0.2-0.7-0.5-1.2-0.9-1.7c-0.4-0.4-0.9-0.7-1.4-0.9
			c-0.5-0.2-1.1-0.3-1.7-0.3c-0.7,0-1.3,0.1-2,0.3c-0.7,0.2-1.4,0.6-2,1.1c-0.6,0.5-1.2,1.2-1.8,2.1c-0.5,0.9-1,1.9-1.3,3.2
			l-0.1-5.7c0.9-0.6,2-1.2,3.3-1.6c1.3-0.4,2.7-0.7,4.1-0.7c2.1,0,3.8,0.5,5,1.5c1.3,1,1.9,2.6,1.9,4.7v10.7c0,0.9,0.1,1.7,0.3,2.3
			c0.2,0.7,0.5,1.2,0.9,1.5l-3.6,0.1v-4.3c-0.6,1.2-1.4,2.3-2.6,3.1c-1.1,0.8-2.6,1.3-4.4,1.3c-1.9,0-3.4-0.4-4.5-1.3
			c-1.1-0.9-1.6-2.1-1.6-3.6c0-1.1,0.3-2,0.8-2.8c0.5-0.8,1.2-1.4,2.1-1.9c0.8-0.5,1.8-1,2.8-1.3
			C164,1388.2,164.9,1387.9,165.9,1387.6z M160.3,1394.2c0,1.2,0.3,2.1,1,2.9c0.7,0.7,1.6,1.1,2.9,1.1c0.7,0,1.4-0.1,2.1-0.4
			c0.7-0.3,1.4-0.6,1.9-1.2c0.6-0.5,1.1-1.2,1.5-2c0.4-0.8,0.6-1.7,0.7-2.8v-4.1l-4.3,1.2c-0.6,0.1-1.2,0.3-1.9,0.6
			c-0.7,0.2-1.3,0.5-1.9,0.9c-0.6,0.4-1,0.9-1.4,1.5C160.5,1392.5,160.3,1393.3,160.3,1394.2z"/>
		<path class="st1" d="M178.7,1399.2c0.8-0.2,1.3-0.7,1.5-1.3c0.2-0.7,0.4-1.5,0.4-2.6V1383c0-1-0.1-1.9-0.2-2.5
			c-0.1-0.6-0.4-1.2-0.8-1.7l3.6-0.3v5c0.7-1.6,1.6-2.8,2.9-3.7c1.3-0.9,3-1.3,5-1.3c1,0,2,0.1,2.9,0.4c0.9,0.2,1.7,0.6,2.4,1.1
			c0.7,0.5,1.2,1.2,1.6,2.1c0.4,0.8,0.6,1.9,0.6,3.1v10.3c0,1,0.1,1.9,0.4,2.5c0.3,0.7,0.8,1.1,1.5,1.3h-6.4
			c0.8-0.2,1.3-0.7,1.5-1.3c0.2-0.7,0.4-1.5,0.4-2.6v-9.6c0-2.1-0.5-3.6-1.4-4.5c-1-0.9-2.3-1.4-4-1.4c-1,0-2,0.2-2.8,0.5
			c-0.9,0.4-1.6,0.9-2.3,1.6c-0.7,0.7-1.2,1.6-1.6,2.7c-0.4,1.1-0.6,2.3-0.7,3.7v7c0,1,0.1,1.9,0.4,2.5c0.3,0.7,0.8,1.1,1.5,1.3
			H178.7z"/>
		<path class="st1" d="M215.1,1378.3c1.5,0,2.9,0.3,4.1,0.8c1.3,0.5,2.4,1.3,3.3,2.2c0.9,0.9,1.7,2.1,2.2,3.3
			c0.5,1.3,0.8,2.7,0.8,4.2v0c0,1.5-0.3,2.9-0.8,4.2c-0.5,1.3-1.3,2.4-2.2,3.3c-0.9,0.9-2,1.7-3.3,2.2c-1.3,0.5-2.6,0.8-4.1,0.8
			c-1.5,0-2.9-0.3-4.1-0.8c-1.3-0.5-2.4-1.3-3.3-2.2s-1.7-2.1-2.2-3.3c-0.5-1.3-0.8-2.7-0.8-4.2v0c0-1.5,0.3-2.9,0.8-4.2
			c0.5-1.3,1.3-2.4,2.2-3.3s2-1.7,3.3-2.2C212.2,1378.6,213.6,1378.3,215.1,1378.3z M207.6,1388.9c0,1.4,0.2,2.6,0.5,3.7
			c0.4,1.1,0.9,2.1,1.5,2.9c0.7,0.8,1.5,1.5,2.4,1.9c0.9,0.5,1.9,0.7,3,0.7c1.1,0,2.1-0.2,3-0.7c0.9-0.5,1.7-1.1,2.4-1.9
			c0.7-0.8,1.2-1.8,1.5-2.9c0.4-1.1,0.5-2.4,0.5-3.7c0-1.4-0.2-2.6-0.5-3.7c-0.4-1.1-0.9-2.1-1.5-2.9c-0.7-0.8-1.5-1.4-2.4-1.9
			c-0.9-0.5-1.9-0.7-3-0.7c-1.1,0-2.1,0.2-3,0.7c-0.9,0.5-1.7,1.1-2.4,1.9c-0.7,0.8-1.2,1.8-1.5,2.9
			C207.8,1386.3,207.6,1387.5,207.6,1388.9z"/>
		<path class="st1" d="M229.9,1399.2c0.8-0.2,1.3-0.7,1.5-1.3c0.2-0.7,0.4-1.5,0.4-2.6v-19.9c0-0.9-0.1-1.6-0.2-2.1
			c-0.1-0.5-0.4-0.9-0.7-1.2l3.5-0.4v23.6c0,1,0.1,1.9,0.4,2.5c0.3,0.7,0.8,1.1,1.5,1.3H229.9z"/>
	</g>
</g>
<g>
	<path class="st1" d="M128.5,1318.8c-49.3,0-89.5-40.1-89.5-89.5s40.1-89.5,89.5-89.5s89.5,40.1,89.5,89.5
		S177.8,1318.8,128.5,1318.8z M128.5,1142.7c-47.8,0-86.7,38.9-86.7,86.7c0,47.8,38.9,86.7,86.7,86.7s86.7-38.9,86.7-86.7
		C215.2,1181.6,176.3,1142.7,128.5,1142.7z"/>
</g>
<g>
	<path class="st1" d="M130.6,1275.4c-6.3,0-8.4-0.4-10.4-0.9c-12.7-3.1-22.6-14.1-24.5-27.4c-1-6.9,1-12.9,3.2-17.9
		c5.1-12,12.3-22.8,18.6-31.9c2-2.9,4.2-5.9,6.3-8.7c0.9-1.2,1.7-2.3,2.6-3.5c0.2-0.3,0.5-0.6,0.8-0.9l1.5-1.7l2.5,3.4
		c1.1,1.4,2.1,2.8,3.2,4.2c8.4,11.4,17,23.9,23.4,38c2.4,5.3,5,12.5,3.4,20.8c-2.7,13.7-16.8,26.6-29,26.6c0,0-0.1,0-0.1,0
		C131.5,1275.4,131,1275.4,130.6,1275.4z M128.5,1186.9c-0.8,1.1-1.7,2.3-2.5,3.4c-2.1,2.8-4.2,5.7-6.2,8.6
		c-6.3,9-13.4,19.7-18.4,31.4c-2,4.6-3.9,10.2-3,16.4c1.8,12.1,10.8,22.2,22.4,25.1l0,0c1.9,0.5,4,0.8,11.1,0.8c0,0,0,0,0.1,0
		c10.9,0,23.9-12.1,26.3-24.4c1.2-5.8,0.2-11.7-3.2-19.1c-6.3-13.8-14.8-26.2-23.1-37.5c-1-1.4-2.1-2.8-3.1-4.2L128.5,1186.9z"/>
	<g>
		<rect x="113.5" y="1236.5" class="st1" width="30.1" height="6.9"/>
		<rect x="125" y="1224.9" class="st1" width="6.9" height="30.1"/>
	</g>
</g>
<pattern  id="SVGID_00000130649314188537062180000010062308417092467902_" xlink:href="#Unnamed_Pattern_7" patternTransform="matrix(1.8841 0 0 1.8841 2191.5881 3159.0784)">
</pattern>
<polygon style="fill:url(#SVGID_00000130649314188537062180000010062308417092467902_);" points="48.7,1321.5 46.7,1319.5 
	222.4,1143.8 224.4,1145.8 "/>
<g>
	<path class="st3" d="M701.5,513.3c-0.8,2.1-1.8,4.3-3,6.3h14.1V533h-2.6v-1.7h-11.5v1.7h-2.5v-9.9c-1.2,1.5-2.5,2.8-4,3.9
		c-0.4-0.5-1.2-1.4-1.7-1.9c3.9-2.8,6.8-7.5,8.3-11.9h-7.1v-2.4h22.7v2.4H701.5z M698.6,521.9v7h11.5v-7H698.6z"/>
	<path class="st3" d="M722,521.1c-1.1-0.8-3.3-2.1-4.9-2.9l1.3-1.8c1.6,0.7,3.8,1.9,5,2.7L722,521.1z M717.9,531.1
		c1.2-1.8,2.9-4.7,4.2-7.4l1.8,1.5c-1.2,2.4-2.6,5.2-4,7.4L717.9,531.1z M719.8,509.3c1.6,0.7,3.9,1.9,5.1,2.8l-1.4,2
		c-1.1-0.8-3.4-2.1-5.1-3L719.8,509.3z M740,514.4v18.4h-2.4v-1.4h-10v1.5h-2.3v-18.5h6v-5.3h2.4v5.3H740z M727.7,516.7v4.9h3.7
		v-4.9H727.7z M727.7,529.1h3.7V524h-3.7V529.1z M733.8,516.7v4.9h3.9v-4.9H733.8z M737.7,529.1V524h-3.9v5.1H737.7z"/>
	<path class="st3" d="M752.5,526.9c-1.6,2.1-4.1,4.3-6.2,5.7c-0.5-0.5-1.6-1.3-2.2-1.7c2.2-1.2,4.5-3.1,5.9-4.9L752.5,526.9z
		 M766.1,526.4c-0.4-0.6-0.9-1.2-1.5-1.9c-2.4,0.1-4.8,0.2-7.1,0.2v8.3h-2.6v-8.2c-3.8,0.1-7.3,0.2-10,0.3l-0.3-2.5
		c1.6,0,3.5,0,5.6-0.1c0.7-0.5,1.3-1,2-1.5c-1.5-1.4-3.8-3-5.7-4.2l1.7-1.5c0.5,0.3,1,0.6,1.5,0.9c1-1,2.1-2.2,3-3.3
		c-2.3,0.1-4.6,0.2-6.7,0.2c-0.1-0.6-0.3-1.6-0.6-2.2c6.7-0.2,14.5-0.7,19.1-1.6l1.7,2.1c-2.9,0.6-6.6,1-10.4,1.3l0.2,0.1
		c-1.3,1.6-3,3.4-4.4,4.7c0.9,0.7,1.8,1.3,2.5,2c2.3-2,4.5-4.1,6.1-6l2.4,1.3c-2.5,2.6-5.8,5.5-8.8,7.8c2.8-0.1,5.7-0.1,8.6-0.2
		c-0.8-0.8-1.7-1.5-2.5-2.2l2-1.3c2.2,1.8,5,4.4,6.3,6.2L766.1,526.4z M761.7,525.9c2.1,1.5,4.9,3.6,6.4,5.1l-2.2,1.6
		c-1.3-1.5-4-3.7-6.2-5.3L761.7,525.9z"/>
	<path class="st3" d="M641.6,557.9c1.9,1.8,4.8,3.3,7.8,4.1c-0.5,0.5-1.3,1.4-1.6,2.1c-1.7-0.5-3.4-1.4-4.9-2.4v8.7h-2.5v-9.1h1.9
		c-1.3-1-2.5-2.1-3.4-3.4H636c-0.9,1.2-2.1,2.4-3.5,3.3h2.2v1.7c0,2.5-0.6,5.7-5.8,7.7c-0.3-0.6-1.1-1.5-1.6-2
		c4.5-1.5,4.9-3.9,4.9-5.8v-1.4c-1.6,1.1-3.4,2-5.2,2.7c-0.4-0.6-1.1-1.5-1.6-2c2.8-0.8,5.7-2.4,7.6-4.2h-4.7v-10.7h18.1v10.7H641.6
		z M630.7,551.6h5.3v-2.4h-5.3V551.6z M630.7,556h5.3v-2.4h-5.3V556z M643.9,549.3h-5.4v2.4h5.4V549.3z M643.9,553.5h-5.4v2.4h5.4
		V553.5z"/>
	<path class="st3" d="M665.3,550.3c-0.3,1-0.6,2-0.9,2.9h10.2v17.3h-2.5v-1.4h-15.9v1.4h-2.4v-17.3h8.1c0.2-0.9,0.4-1.9,0.6-2.9
		h-9.8V548h23.1v2.3H665.3z M656.2,566.9h3.3v-11.4h-3.3V566.9z M666.5,555.4h-4.9v2.5h4.9V555.4z M666.5,559.8h-4.9v2.5h4.9V559.8z
		 M661.6,566.9h4.9v-2.6h-4.9V566.9z M672.1,555.4h-3.4v11.4h3.4V555.4z"/>
	<path class="st3" d="M684,558.4c-1.1-0.7-3.2-2-4.8-2.8l1.3-1.8c1.5,0.7,3.7,1.9,4.8,2.6L684,558.4z M679.7,568.5
		c1.4-2,3.4-5.3,4.9-8.3l1.8,1.6c-1.3,2.7-3.1,5.8-4.6,8.3L679.7,568.5z M685.2,551.4c-1.1-0.8-3.2-2-4.8-2.9l1.4-1.7
		c1.5,0.7,3.7,1.9,4.9,2.6L685.2,551.4z M696.1,556.3v3.9h5.4v10.1h-2.3v-1h-8.7v1.1h-2.2v-10.2h5.5v-3.9h-7.3V554h7.3v-3.7
		c-1.8,0.3-3.7,0.5-5.4,0.6c-0.1-0.6-0.4-1.5-0.7-2c4.5-0.5,9.6-1.3,12.4-2.4l1.9,1.9c-1.7,0.6-3.7,1.1-5.9,1.5v4.1h6.9v2.3H696.1z
		 M699.2,562.4h-8.7v4.7h8.7V562.4z"/>
	<path class="st3" d="M706.4,558.1c0.7-1.8,1.1-4.6,1.3-6.8l1.8,0.3c-0.1,2.1-0.6,5.2-1.2,7.1L706.4,558.1z M730.5,567.2v2.3h-16.1
		v-2.3h7.3v-5.9h-5.3V559h5.3v-4.9h-3.4c-0.5,1.5-1.1,2.8-1.7,3.9c-0.5-0.3-1.6-0.9-2.2-1.1c0.3-0.5,0.7-1.1,1-1.8l-1.5,0.7
		c-0.2-1-0.9-2.7-1.6-4.1v18.8H710v-24h2.4v4.8l1.5-0.6c0.7,1.2,1.4,2.8,1.7,3.9c0.8-2,1.4-4.5,1.7-7l2.4,0.4
		c-0.2,1.3-0.5,2.6-0.8,3.8h2.7v-5.3h2.4v5.3h5.7v2.3h-5.7v4.9h5.1v2.3h-5.1v5.9H730.5z"/>
	<path class="st3" d="M747.2,550.9c-0.8,1.3-1.9,2.5-3.2,3.4c1.7,0.7,3.5,1.1,5.3,1.5c-0.5,0.5-1.1,1.4-1.3,2.1
		c-2.1-0.5-4.2-1.1-6.2-2.2c-1.5,0.8-3.2,1.5-5,2h2.3v1.5h5.9v-1.5h2.4v12.6H745v-5.2h-6.1c-0.4,1.9-1.1,3.9-2.7,5.4
		c-0.4-0.4-1.4-1-1.9-1.3c2.3-2.2,2.6-5.4,2.6-7.6v-4c-0.5,0.2-1,0.3-1.6,0.4c-0.2-0.5-0.9-1.5-1.3-2c2.1-0.4,4.1-1,5.9-1.8
		c-1.2-0.9-2.3-2-3.3-3.5h-1.9v-2.1h5.8v-2.1h2.4v2.1h6.1v2.1H747.2z M739.1,561.2v0.5c0,0.4,0,0.9-0.1,1.4h5.9v-2H739.1z
		 M739.2,550.9c0.9,1,1.8,1.7,2.8,2.3c1-0.7,1.9-1.4,2.6-2.3H739.2z M752.1,563.4h-2.3v-14.5h2.3V563.4z M757.4,546.9v20.5
		c0,1.4-0.3,2.1-1.2,2.6c-0.9,0.4-2.3,0.5-4.5,0.4c-0.1-0.7-0.5-1.8-0.8-2.5c1.6,0.1,3.1,0.1,3.6,0.1c0.4,0,0.6-0.2,0.6-0.6v-20.5
		H757.4z"/>
	<path class="st3" d="M781.6,552.5c-0.6,2.7-1.8,6.8-3.9,9.6c-2.4,3.1-5.7,5.6-10.4,7.1l-2.3-2.5c5.1-1.3,8.1-3.5,10.2-6.2
		c1.8-2.3,2.9-5.6,3.3-8h-12.9c-1.1,0-2.2,0.1-2.8,0.1v-2.9c0.7,0.1,2,0.2,2.8,0.2h12.7c0.4,0,1.1,0,1.7-0.2l2,1.3
		C781.9,551.4,781.8,552,781.6,552.5z"/>
	<path class="st3" d="M791.9,550.5v8.8c0,0.7,0.1,1.6,0.1,2.1h-3c0-0.4,0.1-1.4,0.1-2.1v-8.8c0-0.5,0-1.4-0.1-1.9h3
		C792,549.1,791.9,549.7,791.9,550.5z M804.1,550.7v4.7c0,6-0.9,8.2-2.9,10.4c-1.7,2-4.3,3.2-6.3,3.8l-2.2-2.3
		c2.5-0.6,4.7-1.6,6.3-3.4c1.8-2.1,2.2-4.1,2.2-8.7v-4.5c0-0.9-0.1-1.7-0.2-2.4h3.1C804.1,549,804.1,549.8,804.1,550.7z"/>
	<path class="st3" d="M815.2,556.8h14.2c1.3,0,2.3-0.1,2.9-0.2v3.2c-0.6,0-1.8-0.1-2.9-0.1h-14.2c-1.4,0-3,0.1-3.9,0.1v-3.2
		C812.1,556.7,813.7,556.8,815.2,556.8z"/>
</g>
<path class="st1" d="M720.5,338.8c-49.3,0-89.5-40.1-89.5-89.5s40.1-89.5,89.5-89.5s89.5,40.1,89.5,89.5S769.8,338.8,720.5,338.8z
	 M720.5,162.6c-47.8,0-86.7,38.9-86.7,86.7s38.9,86.7,86.7,86.7s86.7-38.9,86.7-86.7S768.3,162.6,720.5,162.6z"/>
<g>
	<g>
		<path class="st1" d="M693.7,395.5h4.3l16.8,20.6v-16c0-1.4-0.1-2.4-0.4-3.1c-0.3-0.7-0.8-1.2-1.6-1.5h5.3
			c-0.8,0.3-1.3,0.8-1.6,1.5c-0.3,0.7-0.4,1.8-0.4,3.1v20.6h-0.6L697,398.6v17.5c0,1.4,0.1,2.4,0.4,3.1c0.3,0.7,0.8,1.2,1.6,1.5
			h-5.3c0.8-0.3,1.3-0.8,1.6-1.5c0.3-0.7,0.4-1.8,0.4-3.1v-16.3c0-1.3-0.1-2.3-0.4-2.9C695,396.2,694.5,395.8,693.7,395.5z"/>
		<path class="st1" d="M733.4,400c1.5,0,2.9,0.3,4.1,0.8c1.3,0.5,2.4,1.3,3.3,2.2c0.9,0.9,1.7,2.1,2.2,3.3c0.5,1.3,0.8,2.7,0.8,4.2
			v0c0,1.5-0.3,2.9-0.8,4.2c-0.5,1.3-1.3,2.4-2.2,3.3c-0.9,0.9-2,1.7-3.3,2.2c-1.3,0.5-2.6,0.8-4.1,0.8s-2.9-0.3-4.1-0.8
			c-1.3-0.5-2.4-1.3-3.3-2.2s-1.7-2.1-2.2-3.3c-0.5-1.3-0.8-2.7-0.8-4.2v0c0-1.5,0.3-2.9,0.8-4.2c0.5-1.3,1.3-2.4,2.2-3.3
			s2-1.7,3.3-2.2C730.6,400.2,731.9,400,733.4,400z M725.9,410.5c0,1.4,0.2,2.6,0.5,3.7s0.9,2.1,1.5,2.9c0.7,0.8,1.5,1.5,2.4,1.9
			c0.9,0.5,1.9,0.7,3,0.7s2.1-0.2,3-0.7c0.9-0.5,1.7-1.1,2.4-1.9c0.7-0.8,1.2-1.8,1.5-2.9c0.4-1.1,0.5-2.4,0.5-3.7
			c0-1.4-0.2-2.6-0.5-3.7c-0.4-1.1-0.9-2.1-1.5-2.9c-0.7-0.8-1.5-1.4-2.4-1.9c-0.9-0.5-1.9-0.7-3-0.7s-2.1,0.2-3,0.7
			c-0.9,0.5-1.7,1.1-2.4,1.9c-0.7,0.8-1.2,1.8-1.5,2.9C726.1,407.9,725.9,409.1,725.9,410.5z"/>
		<path class="st1" d="M622.6,465.7l0.4-6c0.6,2.4,1.4,4.1,2.5,5.1c1.1,1,2.5,1.5,4.2,1.5c1.7,0,3-0.4,3.9-1.2c1-0.8,1.4-1.8,1.4-3
			c0-0.6-0.1-1.1-0.3-1.5c-0.2-0.4-0.5-0.7-0.8-1c-0.4-0.3-0.7-0.5-1.2-0.6c-0.4-0.2-0.9-0.3-1.3-0.5l-3.9-1.2
			c-1.3-0.4-2.4-1.1-3.2-1.9c-0.8-0.9-1.3-2-1.3-3.5c0-1.7,0.6-3.1,1.7-4c1.2-0.9,2.7-1.4,4.7-1.4c1.3,0,2.5,0.2,3.6,0.6
			c1.2,0.4,2.2,0.9,3,1.6l-0.1,4.7c-0.8-1.9-1.7-3.3-2.7-4.2c-1.1-0.9-2.4-1.4-4-1.4c-1.4,0-2.4,0.3-3.2,0.9
			c-0.8,0.6-1.1,1.5-1.1,2.5c0,0.6,0.1,1,0.3,1.4c0.2,0.4,0.5,0.7,0.9,1c0.4,0.3,0.7,0.5,1.1,0.7c0.4,0.2,0.8,0.3,1.2,0.4l3.7,1.2
			c0.5,0.1,1,0.3,1.6,0.5c0.6,0.2,1.1,0.5,1.6,0.9c0.5,0.4,0.9,0.9,1.3,1.5c0.4,0.6,0.5,1.4,0.5,2.3c0,0.9-0.2,1.7-0.5,2.5
			c-0.4,0.8-0.9,1.5-1.5,2.1c-0.7,0.6-1.5,1-2.4,1.4c-1,0.3-2,0.5-3.3,0.5c-1.4,0-2.7-0.2-3.9-0.5
			C624.5,466.7,623.4,466.2,622.6,465.7z"/>
		<path class="st1" d="M642,446.9l3.6-0.3v14.1c0,1.2,0.1,2.1,0.4,2.9c0.3,0.8,0.6,1.3,1,1.7s0.9,0.7,1.5,0.9
			c0.5,0.2,1.1,0.2,1.7,0.2c1.1,0,2.1-0.2,2.9-0.7c0.8-0.4,1.5-1,2-1.7c0.5-0.7,0.9-1.4,1.2-2.2c0.3-0.8,0.4-1.6,0.5-2.3v-8.4
			c0-1-0.1-1.9-0.2-2.5c-0.1-0.6-0.4-1.2-0.8-1.7l3.6-0.3v16.8c0,1.1,0.1,1.9,0.3,2.5c0.2,0.6,0.4,1.1,0.8,1.4l-3.5,0.1v-4.3
			c-0.6,1.3-1.5,2.4-2.6,3.3c-1.1,0.8-2.7,1.3-4.6,1.3c-0.9,0-1.8-0.1-2.6-0.3c-0.8-0.2-1.5-0.6-2.1-1.1c-0.6-0.5-1.1-1.1-1.4-1.9
			c-0.4-0.8-0.5-1.8-0.5-2.9v-10.2c0-1-0.1-1.9-0.2-2.5C642.7,447.9,642.4,447.4,642,446.9z"/>
		<path class="st1" d="M665.4,467.3c0.8-0.2,1.3-0.7,1.5-1.3c0.2-0.7,0.4-1.5,0.4-2.6v-12.3c0-1-0.1-1.9-0.2-2.5
			c-0.1-0.6-0.4-1.2-0.8-1.7l3.6-0.3v4.3c0.7-1.3,1.6-2.3,2.7-3.1c1.1-0.8,2.5-1.2,4.2-1.2c0.3,0,0.6,0,0.9,0.1c0.3,0,0.7,0.1,1,0.2
			l0,3.6c-0.5-0.5-1.1-0.9-1.7-1.2c-0.7-0.4-1.4-0.5-2.3-0.5c-1.2,0-2.1,0.4-2.9,1.2c-0.8,0.8-1.4,1.7-1.9,2.9v10.8
			c0,1,0.1,1.9,0.4,2.5c0.3,0.7,0.8,1.1,1.5,1.3H665.4z"/>
		<path class="st1" d="M681.7,447.9v-1.1h3.8v-1.4c0-1.2,0.2-2.3,0.5-3.1c0.3-0.9,0.8-1.6,1.4-2.1c0.6-0.5,1.3-0.9,2.1-1.2
			c0.8-0.2,1.7-0.4,2.6-0.4c1,0,1.9,0.1,2.7,0.3c0.8,0.2,1.4,0.5,1.9,0.8l0,4.9c-0.4-1.7-1-3-1.7-3.8c-0.7-0.8-1.7-1.2-2.9-1.2
			c-1.1,0-2,0.4-2.8,1.2c-0.7,0.8-1.1,2.2-1.1,4.2v1.7h7.5v1.1h-7.5v15.6c0,1,0.1,1.9,0.4,2.5c0.3,0.7,0.8,1.1,1.5,1.3h-6.4
			c0.8-0.2,1.3-0.7,1.5-1.3c0.2-0.7,0.4-1.5,0.4-2.6v-15.6H681.7z"/>
		<path class="st1" d="M707.5,455.8l4.4-1.1v-1.4c0-1-0.1-1.9-0.3-2.6c-0.2-0.7-0.5-1.2-0.9-1.7c-0.4-0.4-0.9-0.7-1.4-0.9
			c-0.5-0.2-1.1-0.3-1.7-0.3c-0.7,0-1.3,0.1-2,0.3c-0.7,0.2-1.4,0.6-2,1.1c-0.6,0.5-1.2,1.2-1.8,2.1c-0.5,0.9-1,1.9-1.3,3.2
			l-0.1-5.7c0.9-0.6,2-1.2,3.3-1.6c1.3-0.4,2.7-0.7,4.1-0.7c2.1,0,3.8,0.5,5,1.5c1.3,1,1.9,2.6,1.9,4.7v10.7c0,0.9,0.1,1.7,0.3,2.3
			c0.2,0.7,0.5,1.2,0.9,1.5l-3.6,0.1v-4.3c-0.6,1.2-1.4,2.3-2.6,3.1c-1.1,0.8-2.6,1.3-4.4,1.3c-1.9,0-3.4-0.4-4.5-1.3
			c-1.1-0.9-1.6-2.1-1.6-3.6c0-1.1,0.3-2,0.8-2.8c0.5-0.8,1.2-1.4,2.1-1.9c0.8-0.5,1.8-1,2.8-1.3C705.6,456.3,706.6,456,707.5,455.8
			z M701.9,462.3c0,1.2,0.3,2.1,1,2.9s1.6,1.1,2.9,1.1c0.7,0,1.4-0.1,2.1-0.4c0.7-0.3,1.4-0.6,1.9-1.2c0.6-0.5,1.1-1.2,1.5-2
			c0.4-0.8,0.6-1.7,0.7-2.8v-4.1l-4.3,1.2c-0.6,0.1-1.2,0.3-1.9,0.6c-0.7,0.2-1.3,0.5-1.9,0.9c-0.6,0.4-1,0.9-1.4,1.5
			C702.1,460.6,701.9,461.4,701.9,462.3z"/>
		<path class="st1" d="M720.3,457.1c0-1.5,0.2-2.9,0.7-4.2c0.5-1.3,1.1-2.4,2-3.3c0.9-0.9,1.9-1.7,3.2-2.2c1.3-0.5,2.7-0.8,4.3-0.8
			c1.5,0,2.9,0.2,4.3,0.7c1.4,0.5,2.5,1.2,3.3,2.1l-0.8,5.4c-0.3-1.4-0.8-2.6-1.3-3.5c-0.5-0.9-1.1-1.6-1.7-2.1
			c-0.6-0.5-1.3-0.9-2-1.1c-0.7-0.2-1.3-0.3-2-0.3c-2.1,0-3.8,0.8-5.1,2.4c-1.3,1.6-1.9,3.9-1.9,6.8c0,1.5,0.2,2.9,0.5,4
			c0.4,1.2,0.9,2.1,1.5,2.9c0.6,0.8,1.4,1.4,2.3,1.8c0.9,0.4,1.8,0.6,2.9,0.6c1.9,0,3.5-0.6,4.9-1.9s2.3-3,3-5.1l-0.1,5.7
			c-0.4,0.4-0.9,0.7-1.5,1c-0.6,0.3-1.2,0.6-1.9,0.8c-0.7,0.2-1.4,0.4-2.1,0.5c-0.7,0.1-1.5,0.2-2.2,0.2c-1.3,0-2.6-0.2-3.8-0.7
			c-1.2-0.5-2.3-1.2-3.2-2.1c-0.9-0.9-1.7-2-2.2-3.3C720.5,460.2,720.3,458.7,720.3,457.1z"/>
		<path class="st1" d="M742.1,446.8h3l2.7-5.9v5.9h5.7v1.1h-5.7v15.3c0,0.2,0,0.5,0,0.9c0,0.4,0.1,0.7,0.2,1.1
			c0.1,0.3,0.4,0.6,0.7,0.9c0.3,0.2,0.7,0.4,1.3,0.4c0.6,0,1.1-0.2,1.5-0.5c0.5-0.3,0.9-0.7,1.2-1.1l0.7,0.6
			c-0.2,0.2-0.4,0.5-0.7,0.7c-0.2,0.3-0.5,0.5-0.9,0.7c-0.3,0.2-0.7,0.4-1.2,0.5c-0.4,0.1-1,0.2-1.5,0.2c-1,0-1.8-0.2-2.4-0.5
			c-0.6-0.4-1-0.8-1.2-1.3c-0.2-0.5-0.4-1-0.4-1.6c0-0.6-0.1-1-0.1-1.5v-14.9h-3.1V446.8z"/>
		<path class="st1" d="M765.8,455.8l4.4-1.1v-1.4c0-1-0.1-1.9-0.3-2.6c-0.2-0.7-0.5-1.2-0.9-1.7c-0.4-0.4-0.9-0.7-1.4-0.9
			c-0.5-0.2-1.1-0.3-1.7-0.3c-0.7,0-1.3,0.1-2,0.3c-0.7,0.2-1.4,0.6-2,1.1c-0.6,0.5-1.2,1.2-1.8,2.1c-0.5,0.9-1,1.9-1.3,3.2
			l-0.1-5.7c0.9-0.6,2-1.2,3.3-1.6c1.3-0.4,2.7-0.7,4.1-0.7c2.1,0,3.8,0.5,5,1.5c1.3,1,1.9,2.6,1.9,4.7v10.7c0,0.9,0.1,1.7,0.3,2.3
			c0.2,0.7,0.5,1.2,0.9,1.5l-3.6,0.1v-4.3c-0.6,1.2-1.4,2.3-2.6,3.1c-1.1,0.8-2.6,1.3-4.4,1.3c-1.9,0-3.4-0.4-4.5-1.3
			c-1.1-0.9-1.6-2.1-1.6-3.6c0-1.1,0.3-2,0.8-2.8c0.5-0.8,1.2-1.4,2.1-1.9c0.8-0.5,1.8-1,2.8-1.3C763.9,456.3,764.9,456,765.8,455.8
			z M760.2,462.3c0,1.2,0.3,2.1,1,2.9c0.7,0.7,1.6,1.1,2.9,1.1c0.7,0,1.4-0.1,2.1-0.4c0.7-0.3,1.4-0.6,1.9-1.2
			c0.6-0.5,1.1-1.2,1.5-2c0.4-0.8,0.6-1.7,0.7-2.8v-4.1L766,457c-0.6,0.1-1.2,0.3-1.9,0.6c-0.7,0.2-1.3,0.5-1.9,0.9
			c-0.6,0.4-1,0.9-1.4,1.5C760.4,460.6,760.2,461.4,760.2,462.3z"/>
		<path class="st1" d="M778.7,467.3c0.8-0.2,1.3-0.7,1.5-1.3c0.2-0.7,0.4-1.5,0.4-2.6v-12.3c0-1-0.1-1.9-0.2-2.5
			c-0.1-0.6-0.4-1.2-0.8-1.7l3.6-0.3v5c0.7-1.6,1.6-2.8,2.9-3.7c1.3-0.9,3-1.3,5-1.3c1,0,2,0.1,2.9,0.4c0.9,0.2,1.7,0.6,2.4,1.1
			c0.7,0.5,1.2,1.2,1.6,2.1s0.6,1.9,0.6,3.1v10.3c0,1,0.1,1.9,0.4,2.5c0.3,0.7,0.8,1.1,1.5,1.3h-6.4c0.8-0.2,1.3-0.7,1.5-1.3
			c0.2-0.7,0.4-1.5,0.4-2.6v-9.6c0-2.1-0.5-3.6-1.4-4.5c-1-0.9-2.3-1.4-4-1.4c-1,0-2,0.2-2.8,0.5c-0.9,0.4-1.6,0.9-2.3,1.6
			c-0.7,0.7-1.2,1.6-1.6,2.7c-0.4,1.1-0.6,2.3-0.7,3.7v7c0,1,0.1,1.9,0.4,2.5c0.3,0.7,0.8,1.1,1.5,1.3H778.7z"/>
		<path class="st1" d="M803.7,446.8h3l2.7-5.9v5.9h5.7v1.1h-5.7v15.3c0,0.2,0,0.5,0,0.9c0,0.4,0.1,0.7,0.2,1.1
			c0.1,0.3,0.4,0.6,0.7,0.9c0.3,0.2,0.7,0.4,1.3,0.4c0.6,0,1.1-0.2,1.5-0.5c0.5-0.3,0.9-0.7,1.2-1.1l0.7,0.6
			c-0.2,0.2-0.4,0.5-0.7,0.7c-0.2,0.3-0.5,0.5-0.9,0.7c-0.3,0.2-0.7,0.4-1.2,0.5c-0.4,0.1-1,0.2-1.5,0.2c-1,0-1.8-0.2-2.4-0.5
			c-0.6-0.4-1-0.8-1.2-1.3c-0.2-0.5-0.4-1-0.4-1.6c0-0.6-0.1-1-0.1-1.5v-14.9h-3.1V446.8z"/>
	</g>
</g>
<path class="st1" d="M399,751.3l-24.4-14.1V709l24.4-14.1l24.4,14.1v28.2L399,751.3z M377.3,735.6l21.7,12.5l21.7-12.5v-25
	L399,698.1l-21.7,12.5V735.6z"/>
<path class="st1" d="M444.1,715.6v8.8c0,1.6,0.8,3,2.2,3.8l7.6,4.4c1.3,0.8,3,0.8,4.4,0l7.6-4.4c1.3-0.8,2.2-2.2,2.2-3.8v-8.8
	c0-1.6-0.8-3-2.2-3.8l-7.6-4.4c-1.3-0.8-3-0.8-4.4,0l-7.6,4.4C444.9,712.6,444.1,714.1,444.1,715.6z"/>
<circle class="st1" cx="399.1" cy="696.8" r="5"/>
<circle class="st1" cx="399.1" cy="748.6" r="5"/>
<circle class="st1" cx="376.4" cy="710.7" r="5"/>
<circle class="st1" cx="376.4" cy="736" r="5"/>
<circle class="st1" cx="421.9" cy="710.7" r="5"/>
<circle class="st1" cx="421.9" cy="736" r="5"/>
<circle class="st1" cx="450.8" cy="759.2" r="5"/>
<circle class="st1" cx="450.8" cy="794.7" r="5"/>
<circle class="st1" cx="466.1" cy="767.8" r="5"/>
<circle class="st1" cx="435.6" cy="786.1" r="5"/>
<circle class="st1" cx="466.5" cy="785.4" r="5"/>
<circle class="st1" cx="435.2" cy="768.6" r="5"/>
<path class="st1" d="M450.8,796.7l-17.3-10v-20l17.3-10l17.3,10v20L450.8,796.7z M436.3,785.1l14.5,8.4l14.5-8.4v-16.8l-14.5-8.4
	l-14.5,8.4V785.1z"/>
<g>
	<g>
		
			<pattern  id="SVGID_00000139292316537310091960000014847092426053218702_" xlink:href="#Unnamed_Pattern_7" patternTransform="matrix(0.2238 0 0 0.2364 -6155.2246 -4120.4883)">
		</pattern>
		
			<rect x="719" y="213.7" style="fill:url(#SVGID_00000139292316537310091960000014847092426053218702_);" width="3" height="71.2"/>
		
			<pattern  id="SVGID_00000176007835024430442150000009305211917896073347_" xlink:href="#Unnamed_Pattern_7" patternTransform="matrix(-0.1519 -0.1213 0.1605 -0.1281 -8416.5947 -5306.4956)">
		</pattern>
		
			<ellipse style="fill:url(#SVGID_00000176007835024430442150000009305211917896073347_);" cx="720.5" cy="210.2" rx="6.1" ry="4.8"/>
		
			<pattern  id="SVGID_00000001622607702682539750000014810535868840763292_" xlink:href="#Unnamed_Pattern_7" patternTransform="matrix(-0.1519 -0.1213 0.1605 -0.1281 -8413.0234 -5332.7588)">
		</pattern>
		
			<ellipse style="fill:url(#SVGID_00000001622607702682539750000014810535868840763292_);" cx="720.5" cy="288.4" rx="6.1" ry="4.8"/>
	</g>
	<g>
		
			<pattern  id="SVGID_00000078031729768331480450000008989830222983459999_" xlink:href="#Unnamed_Pattern_7" patternTransform="matrix(0 -0.2238 0.2364 0 -6546.4502 -5763.0176)">
		</pattern>
		
			<rect x="684.9" y="247.9" style="fill:url(#SVGID_00000078031729768331480450000008989830222983459999_);" width="71.2" height="3"/>
		
			<pattern  id="SVGID_00000071536550702708931860000008152351726022515861_" xlink:href="#Unnamed_Pattern_7" patternTransform="matrix(-0.1213 0.1519 -0.1281 -0.1605 -7647.1655 -3399.1514)">
		</pattern>
		
			<ellipse style="fill:url(#SVGID_00000071536550702708931860000008152351726022515861_);" cx="681.4" cy="249.3" rx="4.8" ry="6.1"/>
		
			<pattern  id="SVGID_00000047740053073308263570000002392598996493987720_" xlink:href="#Unnamed_Pattern_7" patternTransform="matrix(-0.1213 0.1519 -0.1281 -0.1605 -7673.4282 -3402.7229)">
		</pattern>
		
			<ellipse style="fill:url(#SVGID_00000047740053073308263570000002392598996493987720_);" cx="759.6" cy="249.3" rx="4.8" ry="6.1"/>
	</g>
	<g>
		
			<pattern  id="SVGID_00000013185578998113997300000018286939558712162953_" xlink:href="#Unnamed_Pattern_7" patternTransform="matrix(-0.1583 -0.1583 0.1671 -0.1671 -7500.9951 -5605.6494)">
		</pattern>
		<polygon style="fill:url(#SVGID_00000013185578998113997300000018286939558712162953_);" points="744.6,223.1 746.7,225.2 
			696.3,275.6 694.2,273.5 		"/>
		
			<pattern  id="SVGID_00000008118930390544163780000013864983503362334382_" xlink:href="#Unnamed_Pattern_7" patternTransform="matrix(2.169829e-02 0.1932 -0.204 -2.291566e-02 -6743.6689 -3413.5605)">
		</pattern>
		<path style="fill:url(#SVGID_00000008118930390544163780000013864983503362334382_);" d="M688.5,272.7c1.9-1.9,5.4-1.5,7.7,0.9
			c2.4,2.4,2.8,5.8,0.9,7.7c-1.9,1.9-5.4,1.5-7.7-0.9C687,278,686.6,274.6,688.5,272.7z"/>
		
			<pattern  id="SVGID_00000150813376718477189930000012989770097315831975_" xlink:href="#Unnamed_Pattern_7" patternTransform="matrix(2.169829e-02 0.1932 -0.204 -2.291566e-02 -6764.7656 -3397.5154)">
		</pattern>
		<path style="fill:url(#SVGID_00000150813376718477189930000012989770097315831975_);" d="M743.8,217.4c1.9-1.9,5.4-1.5,7.7,0.9
			c2.4,2.4,2.8,5.8,0.9,7.7c-1.9,1.9-5.4,1.5-7.7-0.9C742.3,222.7,741.9,219.3,743.8,217.4z"/>
	</g>
	<g>
		
			<pattern  id="SVGID_00000098909729626822681010000014298847366455785143_" xlink:href="#Unnamed_Pattern_7" patternTransform="matrix(-0.1583 0.1583 -0.1671 -0.1671 -8263.4424 -4647.5098)">
		</pattern>
		<polygon style="fill:url(#SVGID_00000098909729626822681010000014298847366455785143_);" points="694.2,225.2 696.3,223.1 
			746.7,273.5 744.6,275.6 		"/>
		
			<pattern  id="SVGID_00000006671464879511378380000014444991335700325776_" xlink:href="#Unnamed_Pattern_7" patternTransform="matrix(0.1932 -2.169839e-02 -2.291556e-02 0.204 -5875.4917 -5332.8843)">
		</pattern>
		<path style="fill:url(#SVGID_00000006671464879511378380000014444991335700325776_);" d="M743.8,281.3c-1.9-1.9-1.5-5.4,0.9-7.7
			c2.4-2.4,5.8-2.8,7.7-0.9c1.9,1.9,1.5,5.4-0.9,7.7C749.2,282.8,745.7,283.2,743.8,281.3z"/>
		
			<pattern  id="SVGID_00000039114395265500086180000011254085058544132265_" xlink:href="#Unnamed_Pattern_7" patternTransform="matrix(0.1932 -2.169839e-02 -2.291556e-02 0.204 -5859.4468 -5311.7881)">
		</pattern>
		<path style="fill:url(#SVGID_00000039114395265500086180000011254085058544132265_);" d="M688.5,226c-1.9-1.9-1.5-5.4,0.9-7.7
			s5.8-2.8,7.7-0.9c1.9,1.9,1.5,5.4-0.9,7.7S690.4,227.9,688.5,226z"/>
	</g>
	<g>
		<circle class="st23" cx="720.5" cy="249.3" r="23.6"/>
		<path class="st1" d="M720.5,229.2c11.1,0,20.2,9,20.2,20.2c0,11.1-9,20.2-20.2,20.2s-20.2-9-20.2-20.2
			C700.3,238.2,709.4,229.2,720.5,229.2 M720.5,225.7c-13,0-23.6,10.6-23.6,23.6c0,13,10.6,23.6,23.6,23.6s23.6-10.6,23.6-23.6
			C744.1,236.3,733.5,225.7,720.5,225.7L720.5,225.7z"/>
	</g>
</g>
<pattern  id="SVGID_00000034090878023737026360000015515565087284253846_" xlink:href="#Unnamed_Pattern_7" patternTransform="matrix(1.8841 0 0 1.8841 2776.0251 2175.2832)">
</pattern>
<polygon style="fill:url(#SVGID_00000034090878023737026360000015515565087284253846_);" points="633.1,337.7 631.2,335.7 
	806.9,160 808.8,162 "/>
<path class="st1" d="M760.9,760.6L732,723.3c-0.2-0.3-0.5-0.6-0.8-0.9v-25.1h-2.8v26.2l0.4,0.4c0.3,0.4,0.7,0.7,1,1.1l12.1,15.7h-44
	l12.1-15.7c0.5-0.6,1-1.1,1.5-1.6l0.5-0.4v-25.7h-2.8v24.5c-0.5,0.5-1,1-1.4,1.6l-28.7,37.2c-2.8,3.6-3.3,8.5-1.3,12.6
	c2,4.1,6.1,6.7,10.7,6.7l62.8,0.2c0,0,0,0,0,0c4.6,0,8.7-2.6,10.8-6.7C764.2,769.1,763.7,764.3,760.9,760.6z"/>
</svg>
