<?xml version="1.0" encoding="utf-8"?>
<!-- Generator: Adobe Illustrator 25.4.1, SVG Export Plug-In . SVG Version: 6.00 Build 0)  -->
<svg version="1.1" id="レイヤー_1" xmlns="http://www.w3.org/2000/svg" xmlns:xlink="http://www.w3.org/1999/xlink" x="0px"
	 y="0px" viewBox="0 0 49 13" style="enable-background:new 0 0 49 13;" xml:space="preserve">
<style type="text/css">
	.st0{fill:#FFFFFF;}
</style>
<g>
	<g>
		<path class="st0" d="M6.2,10.9L3.8,4.5C3.5,3.7,3.2,3,3,2.3c0,0.8,0.1,1.7,0.1,2.3v6.3H1.7V0.2h1.9l2.7,6.8C6.6,8,6.6,8.1,6.9,9
			c0.3-1,0.4-1.3,0.6-1.9l2.6-6.8H12v10.6h-1.4V4.6c0-0.7,0-1.5,0.1-2.3c-0.3,0.9-0.4,1.5-0.8,2.3l-2.4,6.3H6.2z"/>
		<path class="st0" d="M25.3,5.7c0,3.2-2.2,5.5-5.2,5.5c-3,0-5.2-2.3-5.2-5.6C15,2.3,17.1,0,20.1,0C23.2,0,25.3,2.3,25.3,5.7z
			 M16.5,5.6c0,2.5,1.5,4.3,3.6,4.3c2.1,0,3.6-1.7,3.6-4.2c0-2.6-1.4-4.3-3.6-4.3C18,1.3,16.5,3.1,16.5,5.6z"/>
		<path class="st0" d="M29.8,10.9h-1.5V0.2h4.4c1.4,0,2.1,0.2,2.8,0.7c0.6,0.5,1,1.3,1,2.3c0,1.2-0.5,2-1.6,2.6
			c0.8,0.4,1.2,1,1.3,2.3L36,9c0.1,1,0.2,1.5,0.5,1.9h-1.9c-0.1-0.4-0.2-0.7-0.2-1.9l-0.1-0.8c-0.1-1.1-0.7-1.7-1.7-1.7h-2.9V10.9z
			 M32.3,5.3c0.8,0,1.4-0.1,1.8-0.4c0.4-0.3,0.7-0.9,0.7-1.5c0-1.1-0.8-1.8-2-1.8h-3v3.7H32.3z"/>
		<path class="st0" d="M46.8,1.6h-6v3.2h5.5V6h-5.5v3.6H47v1.3h-7.7V0.2h7.5V1.6z"/>
		<path class="st0" d="M0.4,13v-1h48.2v1H0.4z"/>
	</g>
</g>
</svg>
