<?xml version="1.0" encoding="utf-8"?>
<!-- Generator: Adobe Illustrator 25.4.1, SVG Export Plug-In . SVG Version: 6.00 Build 0)  -->
<svg version="1.1" id="レイヤー_1" xmlns="http://www.w3.org/2000/svg" xmlns:xlink="http://www.w3.org/1999/xlink" x="0px"
	 y="0px" viewBox="0 0 184 14" style="enable-background:new 0 0 184 14;" xml:space="preserve">
<style type="text/css">
	.st0{fill:#FFFFFF;}
</style>
<g>
	<path class="st0" d="M4,11.2L0.1,0.1h1.7l2.4,7.2c0.3,0.9,0.4,1.1,0.7,2.4c0.3-1.1,0.4-1.6,0.7-2.4l2.3-7.2h1.7L5.7,11.2H4z"/>
	<path class="st0" d="M12.3,7.5c0.1,1.6,0.9,2.6,2.3,2.6c0.9,0,1.6-0.4,1.9-1.4H18c-0.4,1.7-1.7,2.7-3.4,2.7c-2.3,0-3.8-1.7-3.8-4.2
		s1.5-4.2,3.8-4.2c1.6,0,2.8,0.8,3.3,2.4c0.2,0.6,0.3,1.2,0.3,2.2H12.3z M16.5,6.4c-0.1-1.5-0.8-2.3-2-2.3c-1.2,0-2.1,0.9-2.2,2.3
		H16.5z"/>
	<path class="st0" d="M27.1,3.1v7.7c0,1.1-0.2,1.8-0.8,2.2c-0.6,0.5-1.6,0.8-2.8,0.8c-1.2,0-2.1-0.3-2.7-0.9
		c-0.3-0.4-0.5-0.8-0.6-1.5h1.5c0.1,0.8,0.7,1.2,1.8,1.2c1.4,0,2.1-0.6,2.1-1.9V9.8c-0.6,0.7-1.4,1-2.4,1c-2,0-3.4-1.6-3.4-3.9
		c0-2.4,1.4-4.1,3.5-4.1c1,0,1.7,0.3,2.4,1.1l0-0.9H27.1z M21.4,6.9c0,1.6,0.8,2.7,2.2,2.7c1.3,0,2.1-1,2.1-2.6
		c0-1.7-0.8-2.7-2.2-2.7C22.2,4.3,21.4,5.3,21.4,6.9z"/>
	<path class="st0" d="M29.6,5.8c0.1-0.9,0.2-1.5,0.6-2c0.5-0.6,1.5-0.9,2.6-0.9c2,0,3.1,0.9,3.1,2.6v3.8c0,0.6,0.1,0.8,0.4,0.8
		c0.1,0,0.2,0,0.4-0.1v1.2c-0.4,0.1-0.7,0.1-1,0.1c-0.7,0-1.1-0.3-1.2-1.1c-0.8,0.8-1.7,1.2-2.8,1.2c-1.6,0-2.6-1-2.6-2.4
		c0-1.3,0.8-2.1,2.4-2.4l1.8-0.3c1-0.2,1.2-0.3,1.2-0.8c0-0.8-0.7-1.3-1.8-1.3c-0.8,0-1.4,0.2-1.6,0.7c-0.1,0.2-0.1,0.4-0.2,1H29.6z
		 M34.7,7c-0.3,0.1-0.5,0.2-0.9,0.3l-1.6,0.4c-0.9,0.2-1.3,0.6-1.3,1.2c0,0.7,0.6,1.2,1.5,1.2c1.3,0,2.4-0.9,2.4-2.1V7z"/>
	<path class="st0" d="M40.1,3.1v0.9c0.8-0.8,1.4-1.1,2.5-1.1c0.9,0,1.7,0.3,2.2,0.9c0.4,0.5,0.5,1.1,0.5,2v5.4h-1.5V5.9
		c0-1.1-0.5-1.6-1.5-1.6c-1.3,0-2.1,0.8-2.1,2v4.9h-1.5v-8H40.1z"/>
	<path class="st0" d="M56.2,11.2L52.3,0.1H54l2.4,7.2c0.3,0.9,0.4,1.1,0.7,2.4c0.3-1.1,0.4-1.6,0.7-2.4l2.3-7.2h1.7l-3.8,11.1H56.2z
		"/>
	<path class="st0" d="M64.9,1.9h-1.5V0.1h1.5V1.9z M64.9,11.2h-1.5v-8h1.5V11.2z"/>
	<path class="st0" d="M70.6,4.4h-1.4v5c0,0.5,0.2,0.7,0.6,0.7c0.2,0,0.4,0,0.8-0.2v1.2c-0.7,0.1-0.9,0.2-1.3,0.2
		c-1.1,0-1.7-0.6-1.7-1.9v-5h-1.1V3.1h1.1V0.6h1.5v2.5h1.4V4.4z"/>
	<path class="st0" d="M72.3,5.8c0.1-0.9,0.2-1.5,0.6-2c0.5-0.6,1.5-0.9,2.6-0.9c2,0,3.1,0.9,3.1,2.6v3.8c0,0.6,0.1,0.8,0.4,0.8
		c0.1,0,0.2,0,0.4-0.1v1.2c-0.4,0.1-0.7,0.1-1,0.1c-0.7,0-1.1-0.3-1.2-1.1c-0.8,0.8-1.7,1.2-2.8,1.2c-1.6,0-2.6-1-2.6-2.4
		c0-1.3,0.8-2.1,2.4-2.4l1.8-0.3c1-0.2,1.2-0.3,1.2-0.8c0-0.8-0.7-1.3-1.8-1.3c-0.8,0-1.4,0.2-1.6,0.7c-0.1,0.2-0.1,0.4-0.2,1H72.3z
		 M77.3,7c-0.3,0.1-0.5,0.2-0.9,0.3l-1.6,0.4c-0.9,0.2-1.3,0.6-1.3,1.2c0,0.7,0.6,1.2,1.5,1.2c1.3,0,2.4-0.9,2.4-2.1V7z"/>
	<path class="st0" d="M94.3,1.5h-5.9v3.3h4.9v1.3h-4.9v5h-1.6V0.1h7.5V1.5z"/>
	<path class="st0" d="M97.6,1.9H96V0.1h1.5V1.9z M97.6,11.2H96v-8h1.5V11.2z"/>
	<path class="st0" d="M101.6,11.2h-1.5V0.1h1.5V11.2z"/>
	<path class="st0" d="M107.4,4.4h-1.4v5c0,0.5,0.2,0.7,0.6,0.7c0.2,0,0.4,0,0.8-0.2v1.2c-0.7,0.1-0.9,0.2-1.3,0.2
		c-1.1,0-1.7-0.6-1.7-1.9v-5h-1.1V3.1h1.1V0.6h1.5v2.5h1.4V4.4z"/>
	<path class="st0" d="M110.2,7.5c0.1,1.6,0.9,2.6,2.3,2.6c0.9,0,1.6-0.4,1.9-1.4h1.5c-0.4,1.7-1.7,2.7-3.4,2.7
		c-2.3,0-3.8-1.7-3.8-4.2s1.5-4.2,3.8-4.2c1.6,0,2.8,0.8,3.3,2.4c0.2,0.6,0.3,1.2,0.3,2.2H110.2z M114.4,6.4c-0.1-1.5-0.8-2.3-2-2.3
		c-1.2,0-2.1,0.9-2.2,2.3H114.4z"/>
	<path class="st0" d="M119.6,3.1v1.3c0.3-0.5,0.4-0.6,0.7-0.8c0.4-0.4,0.9-0.6,1.4-0.6c0.3,0,0.6,0.1,0.8,0.2v1.4
		c-0.3-0.1-0.5-0.1-0.7-0.1c-1.2,0-2.2,1.1-2.2,2.5v4.2h-1.5v-8H119.6z"/>
	<path class="st0" d="M131.3,11.2h-1.6V0.1h3.9c1.5,0,2.3,0.2,3.1,0.8c0.7,0.6,1.1,1.5,1.1,2.5c0,1-0.3,1.8-1,2.4
		c-0.7,0.6-1.5,0.8-3,0.8h-2.4V11.2z M133.9,5.4c0.8,0,1.4-0.1,1.8-0.5c0.4-0.3,0.6-0.9,0.6-1.4c0-0.6-0.2-1.1-0.6-1.4
		c-0.4-0.4-0.9-0.5-1.8-0.5h-2.5v3.9H133.9z"/>
	<path class="st0" d="M147.1,7.2c0,2.5-1.6,4.2-3.9,4.2s-3.9-1.7-3.9-4.2c0-2.5,1.6-4.2,3.9-4.2C145.5,2.9,147.1,4.6,147.1,7.2z
		 M140.9,7.1c0,1.9,0.8,3,2.3,3c1.4,0,2.3-1.1,2.3-2.9c0-1.9-0.8-3-2.3-3C141.7,4.2,140.9,5.3,140.9,7.1z"/>
	<path class="st0" d="M150.6,11.2l-2.4-8h1.6l1.2,4.2c0,0.2,0.1,0.2,0.3,1.2c0,0.2,0,0.3,0.2,1c0.1-0.3,0.1-0.6,0.2-1
		c0-0.3,0.1-0.5,0.1-0.6l0.2-0.6l1.1-4.2h1.4l1.1,4.1c0.1,0.6,0.3,1.6,0.5,2.2c0.2-1.2,0.4-1.7,0.5-2.2l1.1-4.2h1.6l-2.4,8h-1.5
		l-1-3.7c-0.2-0.9-0.4-1.4-0.5-2.1l-0.5,2.1l-1,3.7H150.6z"/>
	<path class="st0" d="M167.9,11.2h-1.5v-0.9c-0.8,0.8-1.5,1.1-2.5,1.1c-2.1,0-3.5-1.7-3.5-4.3c0-2.6,1.4-4.2,3.5-4.2
		c1,0,1.8,0.3,2.5,1.1V0.1h1.5V11.2z M161.9,7.1c0,1.9,0.8,3,2.3,3c1.5,0,2.3-1.1,2.3-2.9c0-1.9-0.8-3-2.3-3
		C162.7,4.2,161.9,5.3,161.9,7.1z"/>
	<path class="st0" d="M171.5,7.5c0.1,1.6,0.9,2.6,2.3,2.6c0.9,0,1.6-0.4,1.9-1.4h1.5c-0.4,1.7-1.7,2.7-3.4,2.7
		c-2.3,0-3.8-1.7-3.8-4.2s1.5-4.2,3.8-4.2c1.6,0,2.8,0.8,3.3,2.4c0.2,0.6,0.3,1.2,0.3,2.2H171.5z M175.8,6.4c-0.1-1.5-0.8-2.3-2-2.3
		c-1.2,0-2.1,0.9-2.2,2.3H175.8z"/>
	<path class="st0" d="M181,3.1v1.3c0.3-0.5,0.4-0.6,0.7-0.8c0.4-0.4,0.9-0.6,1.4-0.6c0.3,0,0.6,0.1,0.8,0.2v1.4
		c-0.3-0.1-0.5-0.1-0.7-0.1c-1.2,0-2.2,1.1-2.2,2.5v4.2h-1.5v-8H181z"/>
</g>
</svg>
