<?xml version="1.0" encoding="utf-8"?>
<!-- Generator: Adobe Illustrator 25.4.1, SVG Export Plug-In . SVG Version: 6.00 Build 0)  -->
<svg version="1.1" id="レイヤー_1" xmlns="http://www.w3.org/2000/svg" xmlns:xlink="http://www.w3.org/1999/xlink" x="0px"
	 y="0px" viewBox="0 0 278 13" style="enable-background:new 0 0 278 13;" xml:space="preserve">
<style type="text/css">
	.st0{fill:#FFFFFF;}
</style>
<g>
	<path class="st0" d="M0.2,6.5c0-3.9,2.6-6.3,7.1-6.3c4.4,0,7.1,2.4,7.1,6.3c0,3.9-2.6,6.3-7.1,6.3C2.8,12.8,0.2,10.4,0.2,6.5z
		 M12.2,6.5c0-3-1.9-4.5-5-4.5c-3.1,0-5,1.5-5,4.5c0,3,1.9,4.5,5,4.5C10.3,11,12.2,9.5,12.2,6.5z"/>
	<path class="st0" d="M19.7,2.9c-1,0.8-2.3,1.2-3.7,1.5V2.6c1.5-0.2,3-1.1,4.1-2.1h1.5v11.9h-2V2.9z"/>
	<path class="st0" d="M42,8.9l1.9,0.9c-1.1,1.7-3.3,3-6.3,3c-4.5,0-7.3-2.4-7.3-6.3c0-3.9,2.8-6.3,7.3-6.3c2.9,0,5.1,1.3,6.2,3
		l-1.9,1C41.1,2.6,39.6,2,37.6,2c-3.1,0-5.2,1.5-5.2,4.5c0,3,2.1,4.5,5.2,4.5C39.6,11,41.1,10.4,42,8.9z"/>
	<path class="st0" d="M57.4,10.6v1.8H46.6V0.6h2v10.1H57.4z"/>
	<path class="st0" d="M71.8,10.7v1.8H59.9V0.6h11.7v1.8h-9.7v3.2h8.1v1.8h-8.1v3.4H71.8z"/>
	<path class="st0" d="M84.5,9.6h-7.6l-1.5,2.9h-2.2l6.4-11.9h2.2l6.4,11.9H86L84.5,9.6z M83.6,7.8l-2.9-5.5l-2.9,5.5H83.6z"/>
	<path class="st0" d="M101.3,12.4l-3.7-4.3h-5v4.3h-2V0.6h8.1c2.8,0,4.8,1.3,4.8,3.8c0,2.1-1.4,3.3-3.5,3.7l3.9,4.4H101.3z
		 M98.5,6.4c1.7,0,2.9-0.5,2.9-2c0-1.5-1.2-2-2.9-2h-5.9v4H98.5z"/>
	<path class="st0" d="M116.7,6.5c0-3.9,2.6-6.3,7.1-6.3c4.4,0,7.1,2.4,7.1,6.3c0,3.9-2.6,6.3-7.1,6.3
		C119.3,12.8,116.7,10.4,116.7,6.5z M128.7,6.5c0-3-1.9-4.5-5-4.5c-3.1,0-5,1.5-5,4.5c0,3,1.9,4.5,5,4.5
		C126.8,11,128.7,9.5,128.7,6.5z"/>
	<path class="st0" d="M139.2,0.2c2.8,0,5.6,1.2,5.6,3.6c0,2-2,3.1-4.7,4c-2.4,0.8-4.3,1.8-4.7,2.9h9.7v1.7h-12.2v-0.9
		c0.4-2.1,2.6-4,6.1-5.2c2.2-0.8,3.8-1.3,3.8-2.5c0-1.3-1.8-2-3.6-2c-1.9,0-3.4,0.8-4.6,2.3l-1.3-1.1C134.2,1.5,136.5,0.2,139.2,0.2
		z"/>
	<path class="st0" d="M165.9,8.9c0,2.3-2.2,3.9-6.3,3.9c-2.8,0-5.3-0.8-7.1-2.4l1.3-1.4c1.6,1.4,3.5,2.1,5.9,2.1
		c2.7,0,4.1-0.7,4.1-1.9c0-1.2-1.5-1.5-4.5-1.8c-3.3-0.3-6.4-1-6.4-3.4c0-2.4,2.7-3.7,6.2-3.7c2.6,0,4.8,0.8,6.2,2L164,3.6
		c-1.2-1.1-2.9-1.6-4.9-1.6c-1.9,0-4.1,0.4-4.1,1.8c0,1.3,2,1.5,4.6,1.7C163.3,5.7,165.9,6.4,165.9,8.9z"/>
	<path class="st0" d="M179.5,12.4l-5.2-6l-3.6,2.9v3.1h-2V0.6h2v6.5l8.1-6.5h2.8l-5.7,4.7l6.1,7.2H179.5z"/>
	<path class="st0" d="M184.1,12.4V0.6h2v11.9H184.1z"/>
	<path class="st0" d="M203.2,0.6v11.9h-1.8l-9.3-9.4v9.4h-2V0.6h2.2l8.9,9v-9H203.2z"/>
	<path class="st0" d="M225.6,9.2c0,2.1-1.8,3.3-4.6,3.3h-8.5V0.6h8c2.6,0,4.4,1.1,4.4,3c0,1.4-0.8,2.6-2.6,2.7
		C224.2,6.4,225.6,7.2,225.6,9.2z M214.6,5.6h5.7c1.6,0,2.7-0.4,2.7-1.7c0-1.3-1.1-1.6-2.7-1.6h-5.7V5.6z M223.5,9
		c0-1.3-1.1-1.8-2.9-1.8h-6.1v3.5h6.1C222.5,10.7,223.5,10.3,223.5,9z"/>
	<path class="st0" d="M240.5,10.7v1.8h-11.8V0.6h11.7v1.8h-9.7v3.2h8.1v1.8h-8.1v3.4H240.5z"/>
	<path class="st0" d="M243.6,12.4V0.6h2v11.9H243.6z"/>
	<path class="st0" d="M262.9,9.8c-1.1,1.8-3.5,3-6.7,3c-4.7,0-7.5-2.4-7.5-6.3c0-3.9,2.8-6.3,7.5-6.3c2.9,0,4.9,1.1,6.1,2.4
		l-1.7,1.2c-1.1-1.2-2.4-1.8-4.4-1.8c-3.3,0-5.4,1.5-5.4,4.5c0,3,2.1,4.5,5.5,4.5c2.1,0,3.8-0.5,4.7-1.9V7.8h-5V6h6.9V9.8z"/>
	<path class="st0" d="M277.8,10.7v1.8H266V0.6h11.7v1.8H268v3.2h8.1v1.8H268v3.4H277.8z"/>
</g>
</svg>
