<?xml version="1.0" encoding="utf-8"?>
<!-- Generator: Adobe Illustrator 25.4.1, SVG Export Plug-In . SVG Version: 6.00 Build 0)  -->
<svg version="1.1" id="レイヤー_1" xmlns="http://www.w3.org/2000/svg" xmlns:xlink="http://www.w3.org/1999/xlink" x="0px"
	 y="0px" viewBox="0 0 105 33" style="enable-background:new 0 0 105 33;" xml:space="preserve">
<style type="text/css">
	.st0{fill:#D2AA86;}
	.st1{fill:#D0A884;}
</style>
<g>
	<path class="st0" d="M11.6,16.6c0,0.4,0,0.8,0,1.1c-0.5,1.3-1.9,3.6-4.2,3.6c-2.6,0-3.3-2.8-3.3-5.8c0-3.5,1.2-8.7,3.3-11.6
		c0.8-1.2,2-2.4,3.5-2.4c1.1,0,1.8,0.6,2.1,1.6l0.6-1.3l0.3,0.3c-0.5,1.4-1.1,3.9-1.2,4.8h-0.4c0.2-1.3,0.3-2.6,0-3.4
		c-0.3-0.9-0.6-1.4-1.4-1.4c-0.8,0-1.8,0.6-2.6,2c-1.7,3-2.8,7.7-2.8,11.5c0,1.3,0.3,2.8,0.6,3.4c0.4,0.9,1.1,1.3,1.8,1.3
		c1.8,0,2.9-1.6,3.6-3.9H11.6z"/>
	<path class="st0" d="M16.5,0.9c0.4-0.1,2-0.2,2.8-0.5c-0.3,1-1.5,6.2-2.6,11.7c0.9-1.7,2.6-4.5,4.3-4.5c0.4,0,0.6,0.2,0.8,0.4
		c0.4,0.6,0.1,2.2-0.1,3c-0.8,3.3-1.7,6.6-2.1,8.3c-0.1,0.3-0.1,1,0.2,1c0.6,0,1.4-1.3,1.9-2.5l0.3,0.5c-0.7,2-1.9,3.1-2.8,3.1
		c-0.8,0-0.8-1.2-0.4-3c0.8-3.5,1.7-6.9,2.1-8.5c0.1-0.5,0.1-1.3-0.4-1.3c-0.8,0-2,1.3-3.2,3.7c-0.7,1.5-1.1,3-1.4,4.3
		c-0.3,1-0.5,2.3-1,4.5c-0.2,0-0.7,0.1-1.2,0.1c0.5-2.1,1.5-6.3,2.6-11.5c1.1-5,1.4-6.9,1.6-7.8c0-0.3,0-0.4-0.3-0.4h-1.1L16.5,0.9z
		"/>
	<path class="st0" d="M30,18c-0.8,2-2.2,3.3-3.7,3.3c-1.4,0-1.9-1.6-1.9-3.5c0-2.9,1.1-6.8,2.8-8.9c0.7-0.8,1.4-1.3,2.2-1.3
		c1.3,0,1.7,1,1.7,2.4c0,1.1-0.4,1.9-1,2.4c-1.1,0.9-2.9,1.9-4.1,2.2c-0.1,0.8-0.3,2.1-0.3,3c0,1.6,0.3,2.8,1.3,2.8
		c1.3,0,2.2-1.2,2.9-3.4H30L30,18z M29.1,8.2c-0.7,0-2.1,1.2-3,5.7c0.9-0.3,2.2-1,2.7-1.4c0.9-0.8,1.1-1.9,1.1-2.7
		C29.9,8.7,29.6,8.2,29.1,8.2L29.1,8.2z"/>
	<path class="st0" d="M38.4,18c-0.6,1.6-1.9,3.3-3.5,3.3c-1.5,0-2.1-1.4-2.1-3.4c0-2.8,0.9-6.3,2.4-8.4c0.6-0.8,1.5-1.9,2.6-1.9
		c1.2,0,1.6,0.9,1.6,2S39,11,38.6,11c-0.2,0-0.3-0.1-0.4-0.2c-0.1-0.1-0.1-0.4,0-0.6c0.1-0.4,0.2-0.6,0.2-1c0-0.6-0.2-1-0.8-1
		c-0.8,0-1.8,1.2-2.7,4C34.4,13.8,34,15.8,34,18c0,1.5,0.4,2.4,1.3,2.4c1.3,0,2.3-1.6,2.8-3.5h0.2L38.4,18z"/>
	<path class="st0" d="M43.5,0.8c1-0.1,2-0.2,2.7-0.5c-0.8,3-2.2,9.4-3,13.4c0.8-0.4,1.7-2,2.2-3c0.8-1.6,1.7-3.2,2.6-3.2
		c0.5,0,0.8,0.3,0.8,0.9s-0.3,0.8-0.5,0.8c-0.1,0-0.3,0-0.3-0.2c-0.1-0.2-0.2-0.3-0.4-0.3c-0.4,0-0.9,0.5-1.8,2.3
		c-0.4,0.9-1.2,1.9-1.4,2.1c0.7,0.1,1.1,1.2,1.3,2.3c0.2,1.2,0.2,2.5,0.3,3.4c0,0.6,0.2,1.2,0.5,1.2c0.2,0,0.9-0.8,1.4-2.5l0.3,0.4
		c-0.7,2.7-1.9,3.3-2.4,3.3c-0.6,0-0.9-0.7-1-2c-0.1-1.5-0.1-2.6-0.2-3.6c0-0.8-0.3-1.8-0.8-1.8c-0.3,0-0.6,0.5-0.7,0.8
		c-0.6,2.5-1.1,4.7-1.4,6.3c-0.5,0-0.9,0.1-1.3,0.2c0.4-1.4,1.3-5.6,2.4-10.5c1-4.7,1.5-7.3,1.8-8.8c0.1-0.3,0-0.4-0.3-0.4l-0.9,0
		L43.5,0.8z"/>
	<path class="st0" d="M58.1,1.9c0.3,0,1.2,0.1,1.7,0.1c0.5,0,1-0.1,1.8-0.1c1.6,0,2.2,0.7,2.6,1.5c0.3,0.6,0.5,1.6,0.5,2.7
		c0,2-0.6,4.3-1.8,5.8c-0.9,1.2-2,1.5-2.8,1.5c-0.4,0-0.8-0.1-1.1-0.3l0.1-0.5c0.3,0.1,0.6,0.1,0.8,0.1c0.5,0,1.3-0.4,1.9-1.2
		c1.1-1.5,1.6-3.7,1.6-5.9c0-0.8-0.2-1.6-0.4-2.1c-0.3-0.6-0.8-1-1.5-1c-0.6,0-0.7,0.1-0.8,0.7c-0.2,0.9-1,4.3-2,8.9
		c-1,4.7-1.3,6.5-1.4,7.1c-0.1,0.7-0.1,1,0.4,1l1.1,0.2L58.6,21c-0.8,0-1.5-0.1-2.5-0.1c-0.8,0-1.5,0.1-1.9,0.1l0.1-0.5l0.7-0.1
		c0.5-0.1,0.7-0.3,0.9-1.2c0.4-1.5,0.8-3.2,1.8-8c1.1-5,1.4-6.8,1.6-7.8c0.1-0.6,0-0.7-0.3-0.8l-1.1-0.2L58.1,1.9z"/>
	<path class="st0" d="M70.6,7.5c1.5,0,2.1,1.6,2.1,3.7c0,2.8-1.1,6.9-2.6,8.7c-0.8,1-1.5,1.3-2.3,1.3c-0.9,0-2.1-0.5-2.1-3.6
		c0-2.9,1.2-7.2,2.9-9C69.2,7.9,69.9,7.5,70.6,7.5L70.6,7.5z M70.5,8.2c-0.6,0-1.2,0.5-1.8,1.8c-1,1.9-1.9,5.8-1.9,8.1
		c0,1.9,0.6,2.5,1.1,2.5c0.6,0,1.1-0.4,1.6-1.3c1.1-2,2.1-6.5,2.1-9C71.6,8.9,71.2,8.2,70.5,8.2L70.5,8.2z"/>
	<path class="st0" d="M76.2,8.2c0.7-0.1,2-0.3,2.8-0.7l0,0.1c-0.4,1.2-2.1,8.3-2.8,11.9c-0.1,0.5,0,0.7,0.2,0.7
		c0.6,0,1.5-1.3,1.9-2.4l0.3,0.4c-0.7,2-1.9,3.1-2.9,3.1c-0.8,0-0.8-1.1-0.4-3c0.6-2.5,1.7-6.9,2.1-9.1c0.1-0.3,0.1-0.4-0.2-0.4
		c-0.3,0-0.8,0-1.2,0L76.2,8.2z M79.7,3.3c0,0.7-0.4,1.2-0.9,1.2c-0.3,0-0.6-0.3-0.6-1c0-0.8,0.5-1.2,0.9-1.2
		C79.5,2.3,79.7,2.6,79.7,3.3z"/>
	<path class="st0" d="M88.9,18.2c-0.7,1.9-1.9,3.1-2.8,3.1c-0.9,0-0.9-1.2-0.4-3.1c0.6-2.5,1.4-5.5,2-8c0.2-0.9,0.2-1.6-0.4-1.6
		c-1.7,0-3.6,4.4-4.3,7c-0.4,1.5-0.7,2.5-1.3,5.3c-0.4,0.1-0.9,0.2-1.2,0.3c1.1-4,2.2-9.5,2.6-12c0-0.4,0-0.5-0.2-0.5l-1.1,0L82,8.2
		c0.8-0.1,1.8-0.3,2.6-0.7c-0.3,1.5-0.6,3.2-1,4.9c1-2.1,2.5-4.9,4.4-4.9c0.3,0,0.6,0.1,0.7,0.3c0.5,0.6,0.2,2.1-0.1,3.3
		c-0.6,2.6-1.5,5.7-2.1,8.3c-0.1,0.5,0,0.7,0.2,0.7c0.6,0,1.5-1.3,1.9-2.5L88.9,18.2z"/>
	<path class="st0" d="M95.4,18.3c-0.7,1.8-2.1,3-3.1,3c-1.3,0-1.1-1.4-0.8-2.5c0.7-3.2,1.7-7.5,2.2-9.9l-1.3-0.2l0.3-0.6h1.2
		c0.3-1,0.6-2.7,0.8-3.5c0.5-0.2,0.8-0.2,1.4-0.5c-0.2,0.5-0.6,2.3-1,4h2.1l-0.3,0.6l-2,0.2c-0.5,2.1-1.9,8.1-2.4,10.6
		c-0.1,0.6,0,0.9,0.4,0.9c1.1,0,1.9-1.8,2.3-3L95.4,18.3z"/>
	<path class="st0" d="M104.1,7.8c-0.4,1.3-0.8,2.8-1.1,3.9l-0.4,0c0.4-2.4-0.1-3.6-1-3.6c-1.1,0-1.5,1.4-1.5,2.6
		c0,0.7,0.1,1.1,0.4,1.7c0.3,0.6,1.1,1.9,1.5,2.7c0.4,0.8,0.6,1.4,0.6,2.5c0,1.2-0.5,2.2-1,2.8c-0.6,0.6-1.3,0.9-2,0.9
		c-0.7,0-1.7-0.2-2.5-1c0.2-0.7,0.6-2,0.9-3.7l0.4-0.2c-0.1,0.5-0.3,1.5-0.3,2.1c-0.1,1.4,0.5,2.2,1.6,2.2c0.8,0,1.6-0.7,1.7-2.4
		c0-0.7-0.1-1.3-0.4-1.8c-0.3-0.7-1-1.8-1.4-2.7c-0.4-0.7-0.6-1.5-0.6-2.4c0-1.2,0.3-2.2,0.9-3c0.6-0.7,1.2-0.9,1.8-0.9
		c0.7,0,1.4,0.4,1.5,0.9l0.5-0.9L104.1,7.8z"/>
</g>
<rect x="0.2" y="31.7" class="st1" width="104.6" height="1"/>
</svg>
