<?xml version="1.0" encoding="utf-8"?>
<!-- Generator: Adobe Illustrator 25.4.1, SVG Export Plug-In . SVG Version: 6.00 Build 0)  -->
<svg version="1.1" id="レイヤー_1" xmlns="http://www.w3.org/2000/svg" xmlns:xlink="http://www.w3.org/1999/xlink" x="0px"
	 y="0px" viewBox="0 0 513 110" style="enable-background:new 0 0 513 110;" xml:space="preserve">
<g>
	<path d="M65.4,1.2c0.4-0.3,1-0.4,1.9-0.4l15.4,0c1.3,0,2,0.1,2.2,0.4c0.2,0.3,0.3,1,0.3,2.1l0,103.8c0,0.9-0.1,1.6-0.2,2.1
		c-0.1,0.5-0.7,0.7-1.7,0.7l-17,0c-0.9,0-1.4-0.1-1.6-0.2c-0.4-0.5-0.5-1.2-0.5-2l0-51.5L44.3,109c-0.1,0.6-0.5,0.9-1.2,0.9
		c-0.6,0-1-0.3-1.1-0.9L21.7,56.1l0,50.8c0,1.1-0.1,1.9-0.2,2.3c-0.1,0.5-0.7,0.7-1.6,0.7l-16.8,0c-1.1,0-1.8-0.2-2.2-0.6
		c-0.4-0.4-0.5-1.3-0.5-2.5l0-102.6c0-0.5,0-1,0.1-1.5c0-0.5,0.2-0.8,0.6-1C1.6,1,2.6,0.8,4,0.8l15.1,0c1.2,0,1.9,0.1,2.2,0.4
		c0.3,0.3,0.7,1,1.2,2.2l20.6,55.2L64.5,2.5C64.8,1.9,65.1,1.4,65.4,1.2z"/>
	<path d="M113.8,0.5c0.5,0,0.9,0.2,1.2,0.6c0.4,0.4,0.5,0.8,0.5,1.2l0,106.1c0,1-0.6,1.5-1.8,1.5l-17.4,0c-1.2,0-1.8-0.5-1.8-1.5
		l0-106.1c0-0.4,0.2-0.8,0.5-1.2c0.4-0.4,0.8-0.6,1.2-0.6L113.8,0.5z"/>
	<path d="M127.3,18.3c1.7-3.7,4-6.9,6.8-9.5c2.8-2.6,6-4.7,9.5-6.1c3.5-1.4,7-2.1,10.6-2.1c7.7,0.2,14,2.3,18.9,6.4
		c4.9,4.1,8.3,10.1,10.1,18c0.2,0.8,0.1,1.3-0.1,1.5c-0.1,0.1-0.5,0.1-1.1,0.1l-18.9,0c-0.4,0-0.6,0-0.7-0.1
		c-0.1-0.1-0.3-0.3-0.5-0.8c-0.9-1.8-2-3.3-3.3-4.2c-1.3-1-2.7-1.4-4.3-1.4c-2.5,0-4.6,1.1-6.1,3.2c-1.5,2.1-2.2,5.1-2.2,8.8l0,47
		c0,7.5,2.9,11.2,8.6,11.2c1.5,0.1,3-0.3,4.5-1c1.5-0.8,2.4-1.9,2.9-3.5c0.2-0.4,0.4-0.8,0.5-1.1c0.2-0.3,0.5-0.5,1-0.4l18.5-0.1
		c0.5,0,0.8,0.1,0.8,0.2c0.2,0.2,0.3,0.5,0.3,1.1c-0.7,3.7-1.9,7.1-3.6,10c-1.7,3-3.8,5.5-6.3,7.7c-2.5,2.2-5.4,3.8-8.6,4.9
		c-3.2,1.1-6.7,1.7-10.4,1.7c-4.3,0-8.2-0.8-11.7-2.3c-3.5-1.6-6.6-3.7-9.2-6.5c-2.6-2.8-4.6-6.1-6.1-10c-1.5-3.9-2.2-8.2-2.2-12.9
		l0-47.6C124.7,26.1,125.5,22,127.3,18.3z"/>
	<path d="M246.5,0.5c0.5,0,0.8,0.2,1.2,0.6c0.3,0.4,0.5,0.8,0.5,1.2l0,106.1c0,1-0.5,1.5-1.6,1.5l-17.7,0c-0.5,0-0.8-0.1-1.2-0.4
		c-0.3-0.3-0.5-0.7-0.5-1.1l0-43.9l-16.6,0l0,43.9c0,1-0.6,1.5-1.9,1.5l-17.4,0c-1.1,0-1.6-0.5-1.6-1.5l0-106.1
		c0-0.4,0.2-0.8,0.5-1.2c0.3-0.4,0.7-0.6,1.2-0.6l17.4,0c0.5,0,1,0.2,1.4,0.6c0.4,0.4,0.5,0.8,0.5,1.2l0,43.9l16.6,0l0-43.9
		c0-0.4,0.2-0.8,0.5-1.2c0.3-0.4,0.7-0.6,1.2-0.6L246.5,0.5z"/>
	<path d="M276.5,0.5c0.4,0,0.9,0.2,1.2,0.6c0.4,0.4,0.5,0.8,0.5,1.2l0,106.1c0,1-0.6,1.5-1.8,1.5l-17.4,0c-1.2,0-1.8-0.5-1.8-1.5
		l0-106.1c0-0.4,0.2-0.8,0.5-1.2c0.4-0.4,0.8-0.6,1.2-0.6L276.5,0.5z"/>
	<path d="M348,19.8c1.5-3.9,3.6-7.2,6.2-10.1c2.6-2.9,5.6-5.1,9-6.7c3.4-1.6,7.1-2.5,11-2.5c16,0.3,25.9,8.8,29.7,25.6
		c0.1,0.3,0.1,0.7,0.1,1.1c0,0.4-0.1,0.8-0.4,1c-0.1,0.4-0.6,0.6-1.6,0.6l-16.6,0c-1,0-1.7-0.3-2-0.8c-0.3-0.5-0.6-1.1-0.8-1.9
		c-0.2-1.7-0.9-3.1-2.3-4.3c-1.4-1.2-3-1.8-4.8-1.8c-2.6,0-4.8,0.8-6.4,2.3c-2.3,2.1-3.4,5.5-3.4,10.2c0,4.1,0.8,7.2,2.5,9.4
		c1.7,2.2,4.1,3.3,7.3,3.3h1.4c5.1,0,9.4,0.9,12.9,2.8c3.5,1.9,6.4,4.4,8.6,7.4c2.2,3,3.8,6.5,4.8,10.3c1,3.8,1.5,7.7,1.6,11.6
		c0,3.9-0.7,7.7-2.1,11.5c-1.4,3.8-3.5,7.3-6.1,10.4c-2.7,3.1-5.9,5.6-9.7,7.5c-3.8,1.9-8.1,2.9-12.9,2.9c-7.2,0-13.2-2.2-18.1-6.6
		c-4.9-4.4-8.2-10.7-9.8-18.9c0-0.4,0-0.8,0.1-1.3c0-0.4,0.2-0.7,0.5-1c0.4-0.4,1-0.6,1.9-0.6l16.6,0c1.6,0,2.3,0.7,2.3,2
		c0,2.2,0.7,3.9,2,5c1.4,1.2,3.3,1.8,5.7,1.8c3.1-0.1,5.5-1.3,7.4-3.5c1.8-2.3,2.7-5.3,2.7-9.2c0-2.5-0.3-4.6-1-6.2
		c-0.6-1.6-1.5-2.9-2.5-3.8c-1-0.9-2.2-1.6-3.4-2c-1.2-0.4-2.4-0.6-3.6-0.6l-1.6,0c-3.1,0-6.1-0.6-8.9-1.8c-2.9-1.2-5.5-3-8-5.2
		c-3.5-3.2-6.1-7.1-8-11.7c-1.9-4.6-2.8-9.2-2.7-14C345.6,27.9,346.4,23.7,348,19.8z"/>
	<path d="M429.7,0.5c1.1,0,1.8,0.1,2,0.4c0.3,0.3,0.4,1,0.4,2.1l0,87.2l27.4,0c1,0,1.6,0.1,1.9,0.4c0.3,0.3,0.4,0.9,0.4,1.9l0,15.2
		c0,0.9-0.1,1.5-0.3,1.8c-0.2,0.3-0.8,0.4-1.7,0.4l-46,0c-1.1,0-1.7-0.2-1.9-0.5c-0.4-0.2-0.5-0.9-0.5-2.3l0-104
		c0-1.1,0.1-1.7,0.4-2c0.3-0.2,0.9-0.4,1.9-0.6L429.7,0.5z"/>
	<path d="M510,0.5c1.2,0,2,0.3,2.5,0.8c0.1,0.3,0.1,0.9,0,1.8l-21.5,59.6c-0.3,0.5-0.4,1.1-0.4,1.8l0,43.2c0,1.5-1,2.3-3.1,2.3
		l-15.4,0c-1.6,0-2.5-0.7-2.5-2.1l0-43.5c0-0.7-0.1-1.2-0.3-1.5L447.5,3.4c-0.4-0.8-0.4-1.5,0-2c0.3-0.4,0.9-0.6,1.8-0.6l18.1,0
		c1.1,0,1.7,0.7,1.9,2c0.1,0.2,0.5,1.3,1.1,3.4c0.6,2.1,1.5,4.8,2.6,8.1c1.1,3.3,2.1,6.6,3.1,9.8c1,3.2,1.9,6,2.7,8.4
		c0.8,2.4,1.2,3.7,1.3,4c0.1-0.2,0.5-1.6,1.2-3.9c0.7-2.3,1.6-5.1,2.5-8.3c1-3.2,1.9-6.5,2.9-9.8c1-3.3,1.8-6,2.4-8.1
		c0.6-2,0.9-3.2,1-3.3c0.2-0.8,0.5-1.3,1-1.7c0.5-0.4,1.1-0.7,1.8-0.8L510,0.5z"/>
	<g>
		<path d="M346,0.1c0.4,0,0.7,0.2,1.1,0.5c0.3,0.3,0.3,0.8,0,1.3l-20.9,52.6c-0.2,0.4-0.2,0.8,0,1.1l20.9,52.6
			c0.4,0.4,0.4,0.8,0,1.1c-0.2,0.3-0.5,0.5-1.1,0.5l-17.6,0c-0.5,0-0.9-0.2-1.3-0.5c-0.4-0.3-0.7-0.6-0.9-1.1l-10.7-26.8l-10.8,26.8
			c-0.2,0.4-0.5,0.8-0.9,1.1c-0.5,0.3-0.9,0.5-1.4,0.5l-17.5,0c-0.5,0-0.9-0.2-1.1-0.5c-0.4-0.3-0.4-0.7,0-1.1l20.9-52.4
			c0.1-0.5,0.1-1-0.1-1.5L283.8,1.9c-0.3-0.5-0.3-0.9,0-1.3c0.4-0.3,0.7-0.5,1.1-0.5l17.5,0c0.5,0,0.9,0.2,1.4,0.5
			c0.5,0.3,0.8,0.7,0.9,1.1l10.8,26.9l10.7-26.9c0.2-0.4,0.5-0.8,0.9-1.1c0.4-0.3,0.8-0.5,1.3-0.5L346,0.1z"/>
	</g>
</g>
</svg>
