<?xml version="1.0" encoding="utf-8"?>
<!-- Generator: Adobe Illustrator 25.4.1, SVG Export Plug-In . SVG Version: 6.00 Build 0)  -->
<svg version="1.1" id="レイヤー_1" xmlns="http://www.w3.org/2000/svg" xmlns:xlink="http://www.w3.org/1999/xlink" x="0px"
	 y="0px" viewBox="0 0 79 93" style="enable-background:new 0 0 79 93;" xml:space="preserve">
<style type="text/css">
	.st0{fill:#D2AA86;stroke:#D2AA86;stroke-width:0.25;stroke-miterlimit:10;}
</style>
<g>
	<path class="st0" d="M11.4,1c0.2,0.1,0.5,0.3,0.7,0.5C12.4,1.7,12.7,2,13,2.3c0.3,0.3,0.5,0.6,0.8,1c0.2,0.4,0.5,0.8,0.6,1.2
		l-2.6,5.2c0.9-2.2,1.2-4.1,1-5.5s-0.7-2.4-1.7-2.9C10.6,1,10,0.8,9.3,0.9c-0.7,0-1.3,0.3-2,0.7C6.6,2,5.9,2.6,5.2,3.4
		c-0.7,0.8-1.4,1.8-2.1,3C2.3,7.7,1.8,8.8,1.5,9.9c-0.3,1-0.5,2-0.4,2.8c0,0.8,0.2,1.5,0.5,2.1c0.3,0.6,0.8,1,1.4,1.4
		c0.4,0.2,0.8,0.3,1.2,0.4c0.4,0.1,0.9,0.1,1.4,0c0.5-0.1,1.1-0.3,1.6-0.6c0.6-0.3,1.2-0.8,1.8-1.4l-1.3,2.4
		c-0.7,0.2-1.5,0.3-2.4,0.3c-0.9,0-1.7-0.3-2.5-0.7c-0.8-0.4-1.4-1-1.9-1.8c-0.5-0.8-0.7-1.6-0.8-2.6c-0.1-1,0-2,0.2-3.1
		s0.7-2.2,1.3-3.3c0.6-1.1,1.3-2,2.1-2.8c0.8-0.8,1.7-1.4,2.5-1.8C7.2,0.7,8.1,0.5,9,0.4C9.9,0.4,10.7,0.6,11.4,1z"/>
	<path class="st0" d="M9.1,20.1c0.2,0,0.4,0.1,0.6,0c0.2,0,0.3-0.1,0.5-0.2c0.1-0.1,0.3-0.2,0.5-0.4c0.2-0.2,0.3-0.4,0.5-0.7
		l8.1-12.3c0.3-0.4,0.5-0.8,0.5-1c0.1-0.2,0.1-0.5,0-0.7l1.7,0.8l-9.2,14c-0.2,0.3-0.3,0.5-0.4,0.8s-0.2,0.4-0.2,0.6s0,0.3,0,0.5
		c0,0.2,0.1,0.3,0.2,0.5L9.1,20.1z"/>
	<path class="st0" d="M26.4,14.8c0.6,0.5,1,1,1.3,1.5c0.3,0.6,0.4,1.2,0.4,1.8c0,0.6-0.2,1.3-0.4,1.9c-0.3,0.7-0.7,1.3-1.1,2
		l-6.3-4.7c-0.2,0.2-0.3,0.4-0.5,0.6c-0.2,0.2-0.3,0.4-0.5,0.6c-0.6,0.8-1,1.5-1.4,2.3c-0.3,0.8-0.6,1.5-0.6,2.2
		c-0.1,0.7,0,1.3,0.1,1.9c0.2,0.6,0.5,1,0.9,1.3c0.4,0.3,0.8,0.5,1.3,0.5s1,0,1.5-0.2c0.5-0.2,1.1-0.4,1.7-0.7
		c0.6-0.3,1.2-0.7,1.8-1.2l-2.3,2.8c-0.8,0.2-1.6,0.2-2.3,0c-0.7-0.2-1.4-0.5-1.9-0.9c-0.6-0.5-1.1-1-1.4-1.7
		c-0.3-0.7-0.5-1.4-0.5-2.2c0-0.8,0.1-1.6,0.5-2.5c0.3-0.9,0.8-1.7,1.4-2.6c0.6-0.8,1.3-1.5,2-2.1c0.7-0.6,1.4-1,2.2-1.2
		c0.7-0.3,1.5-0.3,2.2-0.3S25.8,14.3,26.4,14.8z M20.4,17.1l5.1,3.8c0.4-0.6,0.8-1.2,1-1.8c0.3-0.6,0.4-1.1,0.5-1.6
		c0.1-0.5,0-1-0.1-1.4c-0.1-0.4-0.4-0.8-0.8-1.1c-0.4-0.3-0.8-0.4-1.2-0.4c-0.5,0-0.9,0.1-1.4,0.2c-0.5,0.2-1,0.5-1.6,0.9
		C21.5,16.1,20.9,16.6,20.4,17.1z"/>
	<path class="st0" d="M31.9,27.7l2,0.9l1.2-1.4c0.8-0.9,1.3-1.7,1.4-2.4c0.1-0.7-0.1-1.3-0.7-1.8c-0.3-0.2-0.6-0.4-1-0.5
		c-0.4-0.1-0.8-0.1-1.3,0c-0.5,0.1-1.1,0.3-1.8,0.7c-0.7,0.3-1.4,0.9-2.3,1.5l2.7-3.2c0.7-0.1,1.3,0,2,0.3c0.7,0.2,1.3,0.6,1.8,1.1
		c0.8,0.7,1.2,1.6,1.3,2.5c0,1-0.4,1.9-1.3,2.9l-5.2,5.9c-0.3,0.4-0.6,0.7-0.8,1c-0.2,0.3-0.3,0.6-0.3,0.9L28.4,35l2.2-2.5
		c-0.4,0.2-0.8,0.4-1.2,0.6c-0.4,0.2-0.8,0.3-1.2,0.3c-0.4,0.1-0.8,0-1.2-0.1c-0.4-0.1-0.8-0.3-1.2-0.7c-0.3-0.3-0.6-0.6-0.8-1
		c-0.2-0.4-0.3-0.7-0.4-1.1s0-0.8,0.2-1.2c0.1-0.4,0.4-0.8,0.8-1.2c0.5-0.6,1-0.9,1.6-1.1c0.6-0.2,1.1-0.3,1.7-0.2
		c0.6,0,1.1,0.2,1.7,0.4C31,27.3,31.5,27.5,31.9,27.7z M26.6,29.1c-0.6,0.6-0.9,1.3-1,1.9c-0.1,0.6,0.1,1.2,0.5,1.6
		c0.3,0.2,0.6,0.4,1,0.5c0.4,0.1,0.8,0.1,1.3,0c0.5-0.1,1-0.3,1.5-0.6c0.5-0.3,1.1-0.7,1.6-1.3l2.1-2.3l-2-0.9
		c-0.3-0.1-0.6-0.2-0.9-0.3s-0.8-0.2-1.2-0.1c-0.4,0-0.9,0.1-1.4,0.4C27.6,28.1,27.1,28.5,26.6,29.1z"/>
	<path class="st0" d="M31.5,37.8c0.2,0.1,0.4,0.1,0.5,0.2c0.2,0,0.3,0,0.5-0.1c0.2-0.1,0.3-0.2,0.5-0.3c0.2-0.2,0.4-0.4,0.7-0.6
		l6.6-6.5c0.2-0.2,0.5-0.5,0.6-0.7s0.3-0.4,0.4-0.5c0.1-0.2,0.2-0.3,0.3-0.5c0.1-0.2,0.1-0.3,0.2-0.5l1.5,1.2l-2.4,2.4
		c0.4-0.2,0.9-0.4,1.3-0.6c0.4-0.1,0.8-0.2,1.2-0.3c0.4,0,0.8,0,1.1,0.1c0.4,0.1,0.7,0.3,1,0.6c0.3,0.3,0.5,0.6,0.6,0.9l-1.7,1.7
		c0.1-0.2,0.1-0.4,0.1-0.7c0-0.3,0-0.5,0-0.7c0-0.2,0-0.5-0.1-0.7c-0.1-0.2-0.2-0.4-0.3-0.5c-0.2-0.2-0.4-0.3-0.7-0.3
		c-0.3,0-0.6,0-0.9,0s-0.7,0.2-1,0.3c-0.4,0.2-0.7,0.3-1.1,0.6l-5.8,5.7c-0.2,0.2-0.4,0.5-0.6,0.7c-0.2,0.2-0.3,0.4-0.3,0.5
		s-0.1,0.3-0.1,0.5c0,0.2,0.1,0.3,0.1,0.5L31.5,37.8z"/>
	<path class="st0" d="M42.1,49.1c0.4,0.2,0.7,0.3,1,0.2c0.3-0.1,0.8-0.3,1.3-0.8l10.3-7.9c0.3-0.2,0.5-0.4,0.7-0.6s0.3-0.3,0.4-0.5
		c0.1-0.2,0.1-0.3,0.1-0.5c0-0.2,0-0.4-0.1-0.6l2.6,3.4c0.9,1.2,1.3,2.3,1.3,3.4c0,1.1-0.6,2.1-1.6,2.9c-0.9,0.7-1.8,1-2.8,1
		c-1,0-1.9-0.4-2.8-1.1c0.6,1.1,0.8,2.2,0.7,3.2c-0.1,1-0.7,1.9-1.6,2.6c-0.6,0.5-1.2,0.8-1.8,1c-0.6,0.2-1.2,0.2-1.8,0.2
		c-0.6-0.1-1.1-0.3-1.7-0.6s-1-0.8-1.5-1.4L42.1,49.1z M43.9,50.8l1.2,1.6c0.7,0.9,1.5,1.4,2.5,1.4c1,0,2-0.4,3-1.2
		c1-0.8,1.6-1.7,1.8-2.6c0.2-0.9-0.1-1.8-0.7-2.7l-1.3-1.6L43.9,50.8z M50.8,45.5l1.2,1.6c0.6,0.8,1.3,1.1,2.3,1.1
		c0.9,0,1.9-0.4,2.8-1.1c1-0.8,1.6-1.6,1.7-2.5S58.7,42.9,58,42l-1-1.3L50.8,45.5z"/>
	<path class="st0" d="M64.1,55.3c0.4,0.6,0.6,1.3,0.7,1.9c0.1,0.6,0,1.2-0.3,1.8c-0.2,0.6-0.6,1.1-1.1,1.7c-0.5,0.5-1.1,1-1.8,1.5
		l-4.3-6.6c-0.2,0.1-0.4,0.2-0.7,0.4c-0.2,0.1-0.4,0.3-0.7,0.4c-0.8,0.5-1.5,1.1-2.1,1.7c-0.6,0.6-1,1.2-1.4,1.8
		c-0.3,0.6-0.5,1.2-0.5,1.8c0,0.6,0.1,1.1,0.4,1.6c0.3,0.4,0.6,0.7,1,0.9s0.9,0.3,1.5,0.4c0.6,0,1.2,0,1.8-0.1
		c0.7-0.1,1.4-0.3,2.1-0.5l-3.1,1.8c-0.8-0.1-1.5-0.4-2.2-0.8c-0.6-0.4-1.1-0.9-1.5-1.5c-0.4-0.7-0.7-1.4-0.7-2.1
		c-0.1-0.7,0-1.5,0.3-2.2c0.3-0.7,0.7-1.5,1.3-2.2c0.6-0.7,1.3-1.3,2.2-1.9c0.9-0.6,1.8-1,2.6-1.3c0.9-0.3,1.7-0.4,2.5-0.4
		c0.8,0,1.5,0.2,2.1,0.5C63.1,54.1,63.6,54.6,64.1,55.3z M57.6,55.3l3.5,5.4c0.6-0.4,1.1-0.8,1.6-1.3c0.4-0.4,0.8-0.9,1.1-1.4
		c0.3-0.5,0.4-0.9,0.4-1.4c0-0.5-0.1-0.9-0.4-1.3c-0.2-0.4-0.6-0.7-1-0.8c-0.4-0.2-0.9-0.3-1.4-0.3c-0.5,0-1.1,0.1-1.8,0.3
		C59,54.8,58.3,55,57.6,55.3z"/>
	<path class="st0" d="M55.7,68.9c0.2,0.1,0.3,0.2,0.5,0.3c0.1,0.1,0.3,0.1,0.5,0.1c0.2,0,0.4-0.1,0.6-0.2c0.2-0.1,0.5-0.2,0.8-0.4
		l8.1-4.5c0.3-0.2,0.6-0.3,0.8-0.5c0.2-0.1,0.4-0.3,0.6-0.4c0.2-0.1,0.3-0.3,0.4-0.4c0.1-0.1,0.2-0.3,0.3-0.5l1.1,1.6l-10.6,5.9
		c-0.3,0.2-0.6,0.3-0.8,0.5c-0.2,0.1-0.3,0.3-0.5,0.4c-0.1,0.1-0.2,0.3-0.2,0.5c0,0.2,0,0.3,0,0.5L55.7,68.9z M72.7,61.3
		c0.1,0.3,0.2,0.5,0.1,0.8c-0.1,0.3-0.3,0.5-0.7,0.7c-0.3,0.2-0.6,0.3-0.9,0.2s-0.5-0.2-0.7-0.5c-0.1-0.2-0.1-0.5,0-0.8
		c0.1-0.3,0.3-0.5,0.7-0.7c0.3-0.2,0.6-0.3,0.9-0.2C72.4,60.9,72.6,61,72.7,61.3z"/>
	<path class="st0" d="M57.4,73.8c0.7-0.4,1.4-0.4,2.1,0c0.7,0.4,1.3,1.1,2,2.3c-0.3-0.9-0.4-1.5-0.2-2c0.2-0.5,0.6-0.9,1.1-1.1
		c0.3-0.1,0.6-0.2,0.8-0.2s0.5,0,0.7,0.1c0.2,0.1,0.4,0.2,0.6,0.4c0.2,0.2,0.3,0.4,0.4,0.6l0.1,0.2c0-0.8,0.2-1.5,0.7-2.2
		c0.5-0.7,1.1-1.2,2-1.6c0.6-0.3,1.2-0.5,1.7-0.5c0.6-0.1,1.1,0,1.6,0.1c0.5,0.1,0.9,0.4,1.4,0.7c0.4,0.3,0.7,0.8,1,1.3
		c0.2,0.4,0.3,0.9,0.4,1.3c0,0.4,0,0.9-0.1,1.3c0.8-0.3,1.6-0.4,2.2-0.3c0.6,0.1,1,0.4,1.2,0.8c0.1,0.3,0.1,0.5,0,0.8
		c-0.1,0.2-0.3,0.4-0.6,0.6c-0.3,0.1-0.5,0.2-0.8,0.1c-0.2-0.1-0.4-0.2-0.5-0.4C75,75.9,75,75.8,75,75.7c0-0.1,0-0.3,0-0.4
		c0-0.1,0-0.2,0.1-0.3c0-0.1,0-0.2,0-0.3c-0.1-0.1-0.2-0.2-0.5-0.2c-0.2,0-0.6,0.1-1.1,0.3c-0.2,0.5-0.5,1-0.9,1.5
		c-0.4,0.5-0.9,0.8-1.6,1.1c-0.6,0.3-1.2,0.5-1.7,0.5c-0.6,0.1-1.1,0-1.6-0.1c-0.5-0.1-1-0.4-1.4-0.7c-0.4-0.3-0.7-0.8-1-1.3
		c-0.1-0.2-0.2-0.5-0.3-0.8c0-0.1-0.1-0.3-0.1-0.4c0-0.1-0.1-0.2-0.1-0.3c-0.2-0.4-0.4-0.7-0.7-0.9c-0.3-0.2-0.6-0.2-0.8-0.1
		c-0.2,0.1-0.4,0.3-0.4,0.5c-0.1,0.2-0.1,0.4-0.1,0.6c0,0.2,0,0.4,0.1,0.6l0.6,2.2c0.2,0.7,0.4,1.3,0.5,1.9c0.1,0.6,0.2,1.1,0.1,1.6
		c0,0.5-0.2,0.9-0.4,1.2c-0.2,0.3-0.6,0.7-1.1,0.9c-0.6,0.3-1.1,0.4-1.7,0.4c-0.6,0-1.1-0.1-1.6-0.4c-0.5-0.2-1-0.6-1.4-1.1
		c-0.4-0.5-0.8-1.1-1.2-1.8c-0.3-0.6-0.5-1.2-0.6-1.8c-0.1-0.6-0.2-1.2-0.2-1.8c0-0.6,0.2-1.1,0.4-1.5C56.5,74.4,56.9,74,57.4,73.8z
		 M57.9,74.9c-0.8,0.4-1.3,1-1.5,1.9c-0.2,0.9,0,1.9,0.6,3c0.3,0.6,0.6,1.1,1,1.5c0.4,0.4,0.7,0.7,1.1,0.9c0.4,0.2,0.8,0.3,1.2,0.4
		c0.4,0,0.7,0,1.1-0.2c0.5-0.2,0.8-0.6,1-1.1c0.2-0.5,0.2-1,0.2-1.5c-0.1-0.5-0.2-1.1-0.4-1.6c-0.2-0.5-0.4-1-0.5-1.3
		c-0.3-0.6-0.6-1.1-0.9-1.5s-0.6-0.6-0.9-0.8s-0.6-0.2-0.9-0.2C58.5,74.6,58.2,74.7,57.9,74.9z M65.7,75.7c0.2,0.3,0.4,0.6,0.7,0.8
		c0.3,0.2,0.6,0.3,1,0.4c0.4,0.1,0.8,0,1.3,0c0.5-0.1,1-0.3,1.5-0.5c0.5-0.2,1-0.5,1.4-0.9c0.4-0.3,0.8-0.7,1-1.1s0.4-0.8,0.5-1.2
		c0.1-0.4,0-0.8-0.1-1.2c-0.2-0.3-0.4-0.6-0.7-0.8c-0.3-0.2-0.6-0.3-1-0.4c-0.4-0.1-0.8,0-1.3,0.1c-0.5,0.1-0.9,0.3-1.4,0.5
		c-0.5,0.2-0.9,0.5-1.3,0.9c-0.4,0.3-0.8,0.7-1,1.1c-0.3,0.4-0.4,0.8-0.5,1.2C65.5,74.9,65.5,75.3,65.7,75.7z"/>
	<path class="st0" d="M78.6,84.1c0.3,0.7,0.4,1.4,0.3,2c-0.1,0.6-0.3,1.2-0.6,1.7c-0.4,0.5-0.8,1-1.4,1.4c-0.6,0.4-1.3,0.8-2,1.1
		L72,82.9c-0.2,0.1-0.5,0.1-0.7,0.2c-0.2,0.1-0.5,0.2-0.7,0.3c-0.9,0.3-1.7,0.7-2.4,1.2s-1.3,1-1.7,1.5s-0.7,1.1-0.9,1.6
		c-0.2,0.6-0.1,1.1,0.1,1.6c0.2,0.5,0.5,0.8,0.8,1.1c0.4,0.3,0.8,0.5,1.4,0.7s1.2,0.2,1.8,0.3s1.4,0,2.2-0.1l-3.4,1.1
		c-0.8-0.3-1.4-0.7-1.9-1.3c-0.5-0.6-0.9-1.1-1.1-1.8c-0.3-0.7-0.4-1.5-0.3-2.2c0.1-0.7,0.3-1.4,0.7-2.1c0.4-0.7,1-1.3,1.7-1.8
		c0.7-0.6,1.6-1,2.6-1.4c1-0.4,1.9-0.6,2.8-0.7c0.9-0.1,1.7-0.1,2.5,0.1c0.8,0.2,1.4,0.5,2,0.9C77.9,82.8,78.3,83.4,78.6,84.1z
		 M72.3,82.9l2.3,6c0.7-0.3,1.3-0.6,1.8-0.9c0.5-0.3,1-0.7,1.3-1.1c0.3-0.4,0.6-0.8,0.7-1.3c0.1-0.4,0.1-0.9-0.1-1.3
		c-0.2-0.4-0.4-0.8-0.8-1s-0.8-0.4-1.3-0.6c-0.5-0.1-1.1-0.1-1.8-0.1C73.7,82.6,73,82.7,72.3,82.9z"/>
</g>
</svg>
