<?xml version="1.0" encoding="utf-8"?>
<!-- Generator: Adobe Illustrator 25.4.1, SVG Export Plug-In . SVG Version: 6.00 Build 0)  -->
<svg version="1.1" id="レイヤー_1" xmlns="http://www.w3.org/2000/svg" xmlns:xlink="http://www.w3.org/1999/xlink" x="0px"
	 y="0px" viewBox="0 0 278 129" style="enable-background:new 0 0 278 129;" xml:space="preserve">
<style type="text/css">
	.st0{fill:#FFFFFF;}
</style>
<g>
	<path class="st0" d="M0.1,54c1.5-0.4,2.4-1,2.9-1.8C3.5,51.3,3.8,50,3.8,48V12.6c0-1-0.1-1.8-0.2-2.5C3.5,9.4,3.3,8.9,3,8.4
		C2.7,8,2.4,7.6,1.9,7.3C1.4,7,0.8,6.8,0.1,6.6h15.6c5.4,0,9.6,1,12.8,2.9c3.1,1.9,4.7,4.7,4.7,8.4c0,3-1.1,5.5-3.4,7.6
		c-2.3,2-5.4,3.4-9.5,4.2c4.5,0.5,8.1,1.8,10.7,3.8c2.6,2,3.9,4.5,3.9,7.7c0,2-0.4,3.9-1.2,5.5c-0.8,1.6-2,2.9-3.5,4.1
		c-1.5,1.1-3.3,2-5.5,2.6c-2.2,0.6-4.6,0.9-7.3,0.9H0.1z M8.9,29.1h7.3c3.5,0,6.3-1,8.4-3c2.1-2,3.1-4.6,3.1-7.8
		c0-3.4-1.1-6-3.4-7.8c-2.3-1.8-5.4-2.7-9.5-2.7H8.9V29.1z M8.9,52.9h7.3c4.1,0,7.3-1,9.5-3.1c2.3-2,3.4-4.9,3.4-8.5
		c0-3.5-1.1-6.3-3.4-8.2c-2.3-1.9-5.4-2.9-9.2-2.9H8.9V52.9z"/>
	<path class="st0" d="M59.6,15.1c2.7,0,5.1,0.4,7.1,1.2c2,0.8,3.7,1.9,5,3.3c1.3,1.4,2.3,3.1,3,5c0.7,1.9,1,4,1.1,6.3H47.1
		c-0.1,0.7-0.2,1.4-0.2,2.1c0,0.7-0.1,1.4-0.1,2.1c0,2.6,0.4,5,1.1,7.3c0.7,2.3,1.7,4.2,2.9,5.8c1.2,1.6,2.7,2.9,4.5,3.9
		c1.7,0.9,3.6,1.4,5.7,1.4c1.8,0,3.5-0.3,4.9-1c1.5-0.7,2.8-1.6,4.1-2.8c1.2-1.2,2.3-2.7,3.3-4.4c1-1.7,1.8-3.6,2.6-5.6l-0.6,9.9
		c-2,1.7-4.3,2.9-6.8,3.7c-2.5,0.8-5,1.2-7.4,1.2c-2.9,0-5.5-0.5-7.9-1.4c-2.4-0.9-4.5-2.2-6.2-3.9c-1.8-1.7-3.1-3.7-4.1-6.1
		c-1-2.4-1.4-5.1-1.4-8c0-2.9,0.4-5.5,1.3-7.9c0.8-2.4,2.1-4.5,3.6-6.3c1.6-1.8,3.5-3.1,5.8-4.1C54.2,15.6,56.7,15.1,59.6,15.1z
		 M47.2,30h23.3c0-2-0.3-3.8-0.8-5.5c-0.5-1.7-1.2-3.2-2.1-4.4c-0.9-1.3-2-2.3-3.4-3c-1.3-0.7-2.9-1.1-4.6-1.1c-1.6,0-3.1,0.3-4.5,1
		c-1.4,0.7-2.6,1.6-3.6,2.9c-1.1,1.3-2,2.7-2.7,4.4C48,26.1,47.5,27.9,47.2,30z"/>
	<path class="st0" d="M79.2,16.2v-0.8h7v-3.3c0-2.1,0.3-4,1-5.5c0.6-1.5,1.5-2.8,2.6-3.8c1.1-1,2.4-1.7,4-2.2
		C95.2,0.3,96.8,0,98.6,0c1.9,0,3.6,0.2,4.9,0.6c1.4,0.4,2.6,0.9,3.6,1.6l-0.3,8.3c-0.6-3.1-1.6-5.5-2.8-7.1c-1.2-1.6-3-2.4-5.5-2.4
		c-2.2,0-4,0.7-5.4,2.1c-1.4,1.4-2.1,3.9-2.1,7.5v4.8h14v0.8h-14v31.9c0,1,0.1,1.8,0.2,2.4c0.1,0.7,0.3,1.2,0.6,1.7
		c0.3,0.5,0.6,0.8,1.1,1.1c0.5,0.3,1,0.5,1.7,0.8H82.6c0.7-0.2,1.3-0.5,1.8-0.8c0.5-0.3,0.8-0.6,1.1-1.1c0.3-0.4,0.5-1,0.5-1.7
		c0.1-0.7,0.1-1.5,0.1-2.5V16.2H79.2z"/>
	<path class="st0" d="M109.1,54c0.7-0.2,1.3-0.5,1.8-0.8c0.5-0.3,0.8-0.6,1.1-1.1c0.3-0.4,0.5-1,0.5-1.7c0.1-0.7,0.1-1.5,0.1-2.5
		V22.9c0-1,0-1.8-0.1-2.5c-0.1-0.7-0.2-1.3-0.3-1.9c-0.1-0.5-0.3-1-0.6-1.5c-0.3-0.5-0.6-0.9-0.9-1.4l6.9-0.6v9.1
		c0.5-1.3,1.2-2.5,1.8-3.5c0.7-1.1,1.5-2,2.4-2.9c0.9-0.8,2-1.5,3.2-1.9c1.2-0.5,2.6-0.7,4.1-0.7c1.5,0,2.8,0.2,3.9,0.5l-0.1,6.5
		c-0.4-0.5-0.9-1-1.5-1.6c-0.6-0.5-1.2-1-1.8-1.5c-0.6-0.5-1.3-0.8-2-1.1c-0.7-0.3-1.4-0.4-2.1-0.4c-0.9,0-1.8,0.2-2.5,0.7
		c-0.8,0.5-1.5,1.1-2.1,1.8c-0.7,0.8-1.3,1.6-1.8,2.7c-0.5,1-1,2.1-1.4,3.2v22.1c0,1,0.1,1.8,0.2,2.4c0.1,0.7,0.3,1.2,0.6,1.7
		c0.3,0.5,0.6,0.8,1.1,1.1c0.5,0.3,1,0.5,1.7,0.8H109.1z"/>
	<path class="st0" d="M139.7,54c0.7-0.2,1.3-0.5,1.8-0.8c0.5-0.3,0.8-0.6,1.1-1.1c0.3-0.4,0.5-1,0.5-1.7c0.1-0.7,0.1-1.5,0.1-2.5
		V22.9c0-1,0-1.8-0.1-2.5c-0.1-0.7-0.2-1.3-0.3-1.9c-0.1-0.5-0.3-1-0.6-1.5c-0.3-0.5-0.6-0.9-0.9-1.4l7-0.6v33c0,1,0.1,1.8,0.2,2.4
		c0.1,0.7,0.3,1.2,0.6,1.7c0.3,0.5,0.6,0.8,1.1,1.1c0.5,0.3,1,0.5,1.7,0.8H139.7z M145.5,3.3c1,0,1.9,0.3,2.6,0.9
		c0.7,0.6,1,1.4,1,2.5c0,1-0.3,1.9-1,2.5c-0.7,0.6-1.5,1-2.6,1c-1,0-1.8-0.3-2.5-1c-0.7-0.6-1-1.5-1-2.5c0-1,0.3-1.9,1-2.5
		C143.7,3.6,144.5,3.3,145.5,3.3z"/>
	<path class="st0" d="M174.7,15.1c2.7,0,5.1,0.4,7.1,1.2c2,0.8,3.7,1.9,5,3.3c1.3,1.4,2.3,3.1,3,5c0.7,1.9,1,4,1.1,6.3h-28.7
		c-0.1,0.7-0.2,1.4-0.2,2.1c0,0.7-0.1,1.4-0.1,2.1c0,2.6,0.4,5,1.1,7.3c0.7,2.3,1.7,4.2,2.9,5.8c1.2,1.6,2.7,2.9,4.5,3.9
		c1.7,0.9,3.6,1.4,5.7,1.4c1.8,0,3.5-0.3,4.9-1c1.5-0.7,2.8-1.6,4.1-2.8c1.2-1.2,2.3-2.7,3.3-4.4c1-1.7,1.8-3.6,2.6-5.6l-0.6,9.9
		c-2,1.7-4.3,2.9-6.8,3.7c-2.5,0.8-5,1.2-7.4,1.2c-2.9,0-5.5-0.5-7.9-1.4c-2.4-0.9-4.5-2.2-6.2-3.9c-1.8-1.7-3.1-3.7-4.1-6.1
		c-1-2.4-1.4-5.1-1.4-8c0-2.9,0.4-5.5,1.3-7.9c0.8-2.4,2.1-4.5,3.6-6.3c1.6-1.8,3.5-3.1,5.8-4.1C169.3,15.6,171.9,15.1,174.7,15.1z
		 M162.3,30h23.3c0-2-0.3-3.8-0.8-5.5c-0.5-1.7-1.2-3.2-2.1-4.4c-0.9-1.3-2-2.3-3.4-3c-1.3-0.7-2.9-1.1-4.6-1.1
		c-1.6,0-3.1,0.3-4.5,1c-1.4,0.7-2.6,1.6-3.6,2.9c-1.1,1.3-2,2.7-2.7,4.4C163.2,26.1,162.6,27.9,162.3,30z"/>
	<path class="st0" d="M196.5,54c0.7-0.2,1.3-0.5,1.8-0.8c0.5-0.3,0.8-0.6,1.1-1.1c0.3-0.4,0.5-1,0.5-1.7c0.1-0.7,0.1-1.5,0.1-2.5
		V22.9c0-1,0-1.8-0.1-2.5c-0.1-0.7-0.2-1.3-0.3-1.9c-0.1-0.5-0.3-1-0.6-1.5c-0.3-0.5-0.6-0.9-0.9-1.4l7-0.6v10.8
		c1.1-3.3,3-5.9,5.5-7.9c2.5-1.9,5.7-2.9,9.5-2.9c2.2,0,4.1,0.3,5.8,0.9c1.7,0.6,3.1,1.5,4.3,2.6c1.2,1.1,2,2.5,2.7,4.1
		s0.9,3.3,0.9,5.1v20.2c0,1,0.1,1.8,0.2,2.4c0.1,0.7,0.3,1.2,0.6,1.7c0.3,0.5,0.6,0.8,1.1,1.1c0.5,0.3,1,0.5,1.7,0.8h-12.1
		c0.7-0.2,1.3-0.5,1.8-0.8c0.5-0.3,0.8-0.6,1.1-1.1c0.3-0.4,0.5-1,0.5-1.7c0.1-0.7,0.1-1.5,0.1-2.5V27.2c0-3.4-0.8-6.1-2.5-8
		c-1.6-1.9-4-2.9-7.2-2.9c-1.8,0-3.5,0.3-5.1,1c-1.6,0.7-3.1,1.6-4.4,2.9c-1.3,1.3-2.3,2.8-3.1,4.7c-0.8,1.9-1.3,4-1.4,6.4v16.8
		c0,1,0.1,1.8,0.2,2.4c0.1,0.7,0.3,1.2,0.6,1.7c0.3,0.5,0.6,0.8,1.1,1.1c0.5,0.3,1,0.5,1.7,0.8H196.5z"/>
	<path class="st0" d="M259.9,15.1c2.1,0,4.1,0.3,6,1c1.9,0.7,3.5,1.6,5,3V8c0-1.4-0.1-2.4-0.3-3.1c-0.2-0.6-0.7-1.2-1.4-1.8l6.8-0.8
		v44.9c0,2,0.2,3.4,0.5,4.3c0.3,0.9,0.8,1.7,1.4,2.4l-6.7,0.2V49c-1.4,1.9-3.1,3.3-5.1,4.1c-2,0.8-4,1.3-6.1,1.3
		c-2.9,0-5.5-0.5-7.8-1.4s-4.3-2.3-6-3.9c-1.6-1.7-2.9-3.6-3.8-5.9c-0.9-2.3-1.4-4.7-1.4-7.4c0-3,0.5-5.8,1.4-8.4
		c0.9-2.5,2.2-4.7,3.9-6.5c1.7-1.8,3.7-3.2,6-4.2C254.7,15.6,257.2,15.1,259.9,15.1z M246.4,32.9c0,2.8,0.3,5.4,1,7.8
		c0.7,2.5,1.6,4.6,2.9,6.4c1.3,1.8,2.9,3.3,4.7,4.4c1.9,1.1,4,1.6,6.3,1.6c2,0,3.8-0.5,5.4-1.5c1.6-1,3-2.3,4.2-4.1V24.5
		c-1.2-2.9-2.8-5-4.7-6.3c-2-1.3-4.2-2-6.8-2c-2,0-3.9,0.4-5.5,1.2c-1.6,0.8-3,1.9-4.1,3.4c-1.1,1.5-2,3.2-2.6,5.3
		C246.7,28.1,246.4,30.4,246.4,32.9z"/>
	<path class="st0" d="M19.2,81.3c-0.3,0.1-0.6,0.3-0.9,0.6c-0.3,0.3-0.5,0.6-0.6,1.1c-0.1,0.5-0.1,1.1,0,1.8
		c0.1,0.8,0.4,1.7,0.9,2.8l14.5,34.5l14-34.4c0.5-1.2,0.8-2.2,1-2.9c0.2-0.8,0.2-1.4,0.2-1.9c0-0.5-0.2-0.8-0.4-1.1
		c-0.2-0.2-0.4-0.4-0.7-0.5h6c-0.3,0.1-0.6,0.3-1,0.5c-0.3,0.3-0.8,0.7-1.2,1.4c-0.5,0.7-1,1.6-1.7,2.8c-0.6,1.2-1.4,2.9-2.3,5
		l-15.5,37.7h-0.4L13,86c-0.7-1.6-1.3-2.8-2-3.4c-0.6-0.7-1.3-1.1-1.8-1.3H19.2z"/>
	<path class="st0" d="M57.4,128.7c0.7-0.2,1.3-0.5,1.8-0.8c0.5-0.3,0.8-0.6,1.1-1.1c0.3-0.4,0.5-1,0.5-1.7c0.1-0.7,0.1-1.5,0.1-2.5
		V97.6c0-1,0-1.8-0.1-2.5c-0.1-0.7-0.2-1.3-0.3-1.9c-0.1-0.5-0.3-1-0.6-1.5c-0.3-0.5-0.6-0.9-0.9-1.4l7-0.6v33c0,1,0.1,1.8,0.2,2.4
		c0.1,0.7,0.3,1.2,0.6,1.7c0.3,0.5,0.6,0.8,1.1,1.1c0.5,0.3,1,0.5,1.7,0.8H57.4z M63.3,77.9c1,0,1.9,0.3,2.6,0.9
		c0.7,0.6,1,1.4,1,2.5c0,1-0.3,1.9-1,2.5c-0.7,0.6-1.5,1-2.6,1c-1,0-1.8-0.3-2.5-1c-0.7-0.6-1-1.5-1-2.5c0-1,0.3-1.9,1-2.5
		C61.5,78.2,62.3,77.9,63.3,77.9z"/>
	<path class="st0" d="M79.8,90.1l4.7-9.5v9.5h11.2v0.8H84.5v29.3c0,1.5,0.1,2.8,0.3,3.8c0.2,1,0.5,1.8,0.9,2.4
		c0.4,0.6,0.8,1,1.4,1.2c0.6,0.2,1.2,0.3,1.9,0.3c1.3,0,2.4-0.4,3.3-1.1c0.9-0.8,1.8-1.8,2.5-3.2l0.9,0.6c-0.9,1.5-1.9,2.6-3,3.4
		c-1.1,0.8-2.6,1.3-4.7,1.3c-3.2,0-5.4-0.9-6.7-2.8c-1.3-1.8-1.9-4.4-1.9-7.8V90.9h-6.7v-0.8H79.8z"/>
	<path class="st0" d="M117.2,107.5l7.6-1.8v-4.9c0-3.4-0.7-5.9-2-7.5c-1.3-1.6-3.4-2.4-6.1-2.4c-1.3,0-2.6,0.2-3.9,0.6
		c-1.3,0.4-2.6,1.2-3.7,2.3c-1.2,1.1-2.2,2.6-3.2,4.5c-1,1.9-1.8,4.3-2.4,7.2L103,94.2c1.7-1.3,3.8-2.4,6.2-3.1
		c2.5-0.8,5-1.2,7.6-1.2c4,0,7.2,1,9.5,2.9c2.3,1.9,3.5,4.7,3.5,8.4v21.6c0,1.3,0.1,2.5,0.4,3.5c0.3,1,0.8,1.8,1.5,2.5l-6.7,0.2v-9
		c-0.5,1.1-1,2.3-1.7,3.3c-0.7,1.1-1.6,2.1-2.6,2.9c-1,0.9-2.2,1.5-3.6,2c-1.4,0.5-3,0.8-4.8,0.8c-1.6,0-3.2-0.2-4.6-0.5
		c-1.4-0.4-2.7-0.9-3.7-1.7c-1-0.8-1.8-1.7-2.4-2.8c-0.6-1.1-0.9-2.4-0.9-3.9c0-2,0.6-3.8,1.7-5.2c1.1-1.4,2.5-2.6,4.2-3.5
		s3.5-1.7,5.4-2.3C113.8,108.4,115.5,107.9,117.2,107.5z M106.1,119.9c0,2.3,0.6,4.2,1.9,5.7c1.2,1.5,3,2.3,5.3,2.3
		c1.3,0,2.6-0.3,3.9-0.8c1.3-0.5,2.5-1.4,3.6-2.4c1.1-1.1,2-2.4,2.7-4c0.7-1.6,1.1-3.4,1.2-5.5v-8.5l-7.4,1.8c-1,0.2-2.1,0.6-3.4,1
		c-1.3,0.5-2.5,1.1-3.7,1.9c-1.2,0.8-2.1,1.9-2.9,3.3C106.5,116.1,106.1,117.9,106.1,119.9z"/>
	<path class="st0" d="M140.8,122.7V97.6c0-1,0-1.8-0.1-2.5c-0.1-0.7-0.2-1.3-0.3-1.9c-0.1-0.5-0.3-1-0.6-1.5
		c-0.3-0.5-0.6-0.9-0.9-1.4l7-0.6v10.8c1.1-3.3,2.9-5.9,5.3-7.8c2.4-1.9,5.4-2.9,9-2.9c4,0,7.1,1,9.4,3c2.3,2,3.7,4.7,4,7.9
		c1-3.4,2.8-6.1,5.2-8c2.4-2,5.5-2.9,9.2-2.9c2.1,0,4,0.3,5.7,0.9c1.7,0.6,3.1,1.5,4.3,2.6c1.2,1.1,2,2.5,2.7,4.1
		c0.6,1.6,0.9,3.3,0.9,5.1v20.2c0,1,0.1,1.8,0.2,2.4c0.1,0.7,0.3,1.2,0.6,1.7c0.3,0.5,0.6,0.8,1.1,1.1c0.5,0.3,1,0.5,1.7,0.8H193
		c0.7-0.2,1.3-0.5,1.8-0.8c0.5-0.3,0.8-0.6,1.1-1.1c0.3-0.4,0.5-1,0.5-1.7c0.1-0.7,0.1-1.5,0.1-2.5v-20.9c0-3.4-0.8-6.1-2.4-8.1
		c-1.6-2-4-3-7.1-3c-1.6,0-3.2,0.3-4.7,1c-1.5,0.7-2.9,1.7-4.1,3c-1.2,1.3-2.2,2.9-3,4.7c-0.8,1.9-1.3,4-1.4,6.4v16.8
		c0,1,0.1,1.8,0.2,2.4c0.1,0.7,0.3,1.2,0.6,1.7c0.3,0.5,0.6,0.8,1.1,1.1c0.5,0.3,1,0.5,1.7,0.8h-12.1c0.7-0.2,1.3-0.5,1.8-0.8
		c0.5-0.3,0.8-0.6,1.1-1.1c0.3-0.4,0.5-1,0.5-1.7c0.1-0.7,0.1-1.5,0.1-2.5v-20.9c0-3.4-0.8-6.1-2.4-8.1c-1.6-2-4-3-7.1-3
		c-1.6,0-3.2,0.3-4.7,1c-1.5,0.7-2.9,1.7-4.1,3c-1.2,1.3-2.2,2.9-3,4.7c-0.8,1.9-1.3,4-1.4,6.4v16.8c0,1,0.1,1.8,0.2,2.4
		c0.1,0.7,0.3,1.2,0.6,1.7c0.3,0.5,0.6,0.8,1.1,1.1c0.5,0.3,1,0.5,1.7,0.8h-12.1c0.7-0.2,1.3-0.5,1.8-0.8c0.5-0.3,0.8-0.6,1.1-1.1
		c0.3-0.4,0.5-1,0.5-1.7C140.7,124.5,140.8,123.7,140.8,122.7z"/>
	<path class="st0" d="M210.4,128.7c0.7-0.2,1.3-0.5,1.8-0.8c0.5-0.3,0.8-0.6,1.1-1.1c0.3-0.4,0.5-1,0.5-1.7c0.1-0.7,0.1-1.5,0.1-2.5
		V97.6c0-1,0-1.8-0.1-2.5c-0.1-0.7-0.2-1.3-0.3-1.9c-0.1-0.5-0.3-1-0.6-1.5c-0.3-0.5-0.6-0.9-0.9-1.4l7-0.6v33c0,1,0.1,1.8,0.2,2.4
		c0.1,0.7,0.3,1.2,0.6,1.7c0.3,0.5,0.6,0.8,1.1,1.1c0.5,0.3,1,0.5,1.7,0.8H210.4z M216.3,77.9c1,0,1.9,0.3,2.6,0.9
		c0.7,0.6,1,1.4,1,2.5c0,1-0.3,1.9-1,2.5c-0.7,0.6-1.5,1-2.6,1c-1,0-1.8-0.3-2.5-1c-0.7-0.6-1-1.5-1-2.5c0-1,0.3-1.9,1-2.5
		C214.4,78.2,215.3,77.9,216.3,77.9z"/>
	<path class="st0" d="M227.8,128.7c0.7-0.2,1.3-0.5,1.8-0.8c0.5-0.3,0.8-0.6,1.1-1.1c0.3-0.4,0.5-1,0.5-1.7c0.1-0.7,0.1-1.5,0.1-2.5
		V97.6c0-1,0-1.8-0.1-2.5c-0.1-0.7-0.2-1.3-0.3-1.9c-0.1-0.5-0.3-1-0.6-1.5c-0.3-0.5-0.6-0.9-0.9-1.4l7-0.6v10.8
		c1.1-3.3,3-5.9,5.5-7.9c2.5-1.9,5.7-2.9,9.5-2.9c2.2,0,4.1,0.3,5.8,0.9c1.7,0.6,3.1,1.5,4.3,2.6c1.2,1.1,2,2.5,2.7,4.1
		s0.9,3.3,0.9,5.1v20.2c0,1,0.1,1.8,0.2,2.4c0.1,0.7,0.3,1.2,0.6,1.7c0.3,0.5,0.6,0.8,1.1,1.1c0.5,0.3,1,0.5,1.7,0.8h-12.1
		c0.7-0.2,1.3-0.5,1.8-0.8c0.5-0.3,0.8-0.6,1.1-1.1c0.3-0.4,0.5-1,0.5-1.7c0.1-0.7,0.1-1.5,0.1-2.5v-20.9c0-3.4-0.8-6.1-2.5-8
		c-1.6-1.9-4-2.9-7.2-2.9c-1.8,0-3.5,0.3-5.1,1c-1.6,0.7-3.1,1.6-4.4,2.9c-1.3,1.3-2.3,2.8-3.1,4.7c-0.8,1.9-1.3,4-1.4,6.4v16.8
		c0,1,0.1,1.8,0.2,2.4c0.1,0.7,0.3,1.2,0.6,1.7c0.3,0.5,0.6,0.8,1.1,1.1c0.5,0.3,1,0.5,1.7,0.8H227.8z"/>
</g>
</svg>
