<?xml version="1.0" encoding="utf-8"?>
<!-- Generator: Adobe Illustrator 25.4.1, SVG Export Plug-In . SVG Version: 6.00 Build 0)  -->
<svg version="1.1" id="レイヤー_1" xmlns="http://www.w3.org/2000/svg" xmlns:xlink="http://www.w3.org/1999/xlink" x="0px"
	 y="0px" viewBox="0 0 319 129" style="enable-background:new 0 0 319 129;" xml:space="preserve">
<style type="text/css">
	.st0{fill:#D2AA86;stroke:#D2AA86;stroke-width:0.25;stroke-miterlimit:10;}
</style>
<g>
	<g>
		<path class="st0" d="M40.8,0.9c-0.2,0.1-0.4,0.3-0.6,0.5c-0.2,0.2-0.3,0.6-0.4,1c-0.1,0.4-0.1,1,0,1.7c0.1,0.7,0.3,1.5,0.6,2.6
			l10,31.9L60,6.9c0.3-1.1,0.6-2,0.7-2.7c0.1-0.7,0.1-1.3,0.1-1.7c0-0.4-0.1-0.8-0.3-1c-0.1-0.2-0.3-0.4-0.5-0.5h4.2
			C64,1,63.8,1.2,63.6,1.4c-0.2,0.2-0.5,0.7-0.9,1.3c-0.3,0.6-0.7,1.5-1.2,2.6c-0.4,1.1-1,2.7-1.6,4.6L49.3,44.7H49L36.4,5.3
			c-0.5-1.5-0.9-2.6-1.4-3.2c-0.4-0.6-0.9-1-1.3-1.2H40.8z"/>
		<path class="st0" d="M80.7,8.8c1.9,0,3.5,0.4,4.9,1.1c1.4,0.7,2.6,1.7,3.5,3c0.9,1.3,1.6,2.8,2.1,4.6c0.5,1.8,0.7,3.7,0.7,5.8H72
			c-0.1,0.6-0.1,1.3-0.1,1.9c0,0.7,0,1.3,0,2c0,2.4,0.2,4.6,0.7,6.7c0.5,2.1,1.2,3.9,2,5.4c0.9,1.5,1.9,2.7,3.1,3.6
			c1.2,0.9,2.5,1.3,3.9,1.3c1.3,0,2.4-0.3,3.4-0.9c1-0.6,2-1.5,2.8-2.6c0.9-1.1,1.6-2.5,2.3-4.1c0.7-1.6,1.3-3.3,1.8-5.2l-0.4,9.1
			c-1.4,1.6-3,2.7-4.7,3.4C85,44.7,83.3,45,81.6,45c-2,0-3.8-0.4-5.5-1.3c-1.7-0.9-3.1-2.1-4.3-3.6c-1.2-1.6-2.2-3.4-2.8-5.7
			c-0.7-2.2-1-4.7-1-7.4c0-2.6,0.3-5.1,0.9-7.3c0.6-2.2,1.4-4.2,2.5-5.8c1.1-1.6,2.4-2.9,4-3.8C77,9.3,78.8,8.8,80.7,8.8z
			 M72.1,22.5h16.1c0-1.8-0.2-3.5-0.6-5.1c-0.3-1.6-0.8-2.9-1.5-4.1c-0.6-1.2-1.4-2.1-2.3-2.7c-0.9-0.7-2-1-3.2-1
			c-1.1,0-2.2,0.3-3.1,0.9c-0.9,0.6-1.8,1.5-2.5,2.7c-0.7,1.2-1.4,2.5-1.8,4.1C72.7,18.9,72.4,20.7,72.1,22.5z"/>
		<path class="st0" d="M95.1,47.1c0-2.1,0.8-3.6,2.3-4.8c1.5-1.1,3.9-1.8,7.3-2c-2.3-0.3-3.9-0.9-4.8-1.9c-0.9-1-1.4-2.2-1.4-3.7
			c0-0.8,0.1-1.5,0.4-2c0.3-0.6,0.6-1,1.1-1.4c0.5-0.4,1-0.7,1.6-0.8c0.6-0.2,1.2-0.3,1.8-0.3h0.7c-1.8-0.8-3.2-2.1-4.2-3.9
			c-1-1.8-1.5-3.9-1.5-6.3c0-1.6,0.2-3.1,0.7-4.5c0.5-1.3,1.2-2.5,2-3.5c0.9-1,1.9-1.7,3.1-2.3c1.2-0.5,2.5-0.8,4-0.8
			c1.2,0,2.4,0.2,3.4,0.6c1.1,0.4,2,0.9,2.8,1.6c0.2-2.3,0.8-4,1.7-5.3c0.9-1.2,1.9-1.9,3-1.9c0.7,0,1.3,0.2,1.8,0.7
			c0.5,0.5,0.7,1.1,0.7,2c0,0.8-0.2,1.4-0.6,1.9c-0.4,0.5-0.9,0.8-1.5,0.8c-0.3,0-0.7-0.1-0.9-0.2c-0.3-0.1-0.6-0.3-0.8-0.5
			c-0.3-0.2-0.5-0.4-0.7-0.5c-0.2-0.1-0.5-0.2-0.7-0.2c-0.4,0-0.7,0.3-1,0.8c-0.3,0.5-0.4,1.5-0.6,2.8c1,1,1.8,2.2,2.4,3.6
			c0.6,1.4,0.9,3.1,0.9,4.8c0,1.6-0.2,3.1-0.7,4.5c-0.5,1.4-1.1,2.5-2,3.5c-0.9,1-1.9,1.8-3.1,2.3c-1.2,0.5-2.5,0.8-4,0.8
			c-0.7,0-1.4-0.1-2-0.2c-0.4,0-0.7-0.1-1-0.1c-0.3,0-0.6,0-0.8,0c-1.2,0-2.1,0.2-2.8,0.7c-0.7,0.4-1,1.1-1,1.9
			c0,0.6,0.2,1.1,0.6,1.5c0.4,0.4,0.8,0.7,1.3,0.9c0.5,0.2,1,0.4,1.4,0.4l5.6,0.9c1.8,0.3,3.5,0.6,4.9,1c1.4,0.4,2.7,0.8,3.7,1.4
			c1,0.6,1.8,1.3,2.3,2.2c0.5,0.9,0.8,2.1,0.8,3.6c0,1.6-0.3,3-0.9,4.2s-1.5,2.3-2.6,3.2c-1.1,0.9-2.5,1.6-4,2
			c-1.6,0.5-3.3,0.7-5.3,0.7c-1.6,0-3.2-0.2-4.8-0.5c-1.6-0.4-3-0.9-4.2-1.6c-1.2-0.7-2.2-1.6-3-2.6C95.5,49.7,95.1,48.5,95.1,47.1z
			 M98.1,47.2c0,2.4,0.9,4.2,2.7,5.5s4.3,2,7.5,2c1.7,0,3.2-0.2,4.5-0.6s2.4-0.9,3.4-1.6c0.9-0.7,1.6-1.4,2.1-2.3
			c0.5-0.8,0.7-1.7,0.7-2.7c0-1.4-0.4-2.6-1.3-3.4c-0.9-0.9-2-1.5-3.2-2c-1.3-0.5-2.6-0.8-4-0.9c-1.4-0.1-2.6-0.2-3.6-0.2
			c-1.7,0-3.2,0.1-4.3,0.4c-1.2,0.3-2.1,0.7-2.7,1.2c-0.7,0.5-1.2,1.2-1.4,2S98.1,46.3,98.1,47.2z M108.5,30.3
			c0.9,0,1.7-0.2,2.5-0.7c0.8-0.5,1.4-1.1,2-1.9c0.6-0.8,1-1.8,1.3-3c0.3-1.2,0.5-2.5,0.5-3.8s-0.2-2.7-0.5-4.1
			c-0.3-1.3-0.8-2.5-1.3-3.5s-1.3-1.8-2.1-2.5c-0.8-0.6-1.8-0.9-2.8-0.9c-0.9,0-1.7,0.2-2.5,0.7c-0.8,0.5-1.4,1.1-2,2
			c-0.6,0.8-1,1.8-1.3,3c-0.3,1.2-0.4,2.4-0.4,3.7c0,1.3,0.2,2.7,0.5,4s0.8,2.5,1.3,3.5c0.6,1,1.3,1.9,2.1,2.5
			C106.5,30,107.5,30.3,108.5,30.3z"/>
		<path class="st0" d="M135.9,25.2l5.2-1.7V19c0-3.1-0.5-5.5-1.4-7c-0.9-1.5-2.3-2.2-4.2-2.2c-0.9,0-1.8,0.2-2.7,0.6
			c-0.9,0.4-1.8,1.1-2.6,2.1c-0.8,1-1.5,2.4-2.2,4.2c-0.7,1.8-1.2,4-1.7,6.7L126,12.8c1.2-1.2,2.6-2.2,4.3-2.9
			c1.7-0.7,3.4-1.1,5.2-1.1c2.8,0,5,0.9,6.6,2.6c1.6,1.8,2.4,4.3,2.4,7.7v20c0,1.2,0.1,2.3,0.3,3.2c0.2,0.9,0.5,1.7,1,2.3l-4.6,0.2
			v-8.3c-0.3,1.1-0.7,2.1-1.2,3.1s-1.1,1.9-1.8,2.7c-0.7,0.8-1.6,1.4-2.5,1.9c-1,0.5-2.1,0.7-3.4,0.7c-1.1,0-2.2-0.2-3.2-0.5
			s-1.8-0.9-2.6-1.5c-0.7-0.7-1.3-1.6-1.7-2.6c-0.4-1-0.6-2.2-0.6-3.6c0-1.9,0.4-3.5,1.2-4.8c0.8-1.3,1.7-2.4,2.9-3.3
			c1.2-0.9,2.4-1.6,3.7-2.1C133.5,26,134.7,25.6,135.9,25.2z M128.2,36.7c0,2.1,0.4,3.9,1.3,5.3s2.1,2.1,3.7,2.1
			c0.9,0,1.8-0.3,2.7-0.8s1.7-1.2,2.5-2.2c0.8-1,1.4-2.2,1.9-3.7c0.5-1.5,0.8-3.2,0.8-5.1v-7.8l-5.1,1.6c-0.7,0.2-1.4,0.5-2.3,0.9
			c-0.9,0.4-1.7,1-2.6,1.8c-0.8,0.8-1.5,1.8-2,3.1S128.2,34.7,128.2,36.7z"/>
		<path class="st0" d="M150,44.7c0.5-0.2,0.9-0.4,1.2-0.7c0.3-0.3,0.6-0.6,0.8-1c0.2-0.4,0.3-0.9,0.4-1.5c0.1-0.6,0.1-1.4,0.1-2.3
			V16c0-0.9,0-1.6-0.1-2.3c0-0.7-0.1-1.2-0.2-1.7c-0.1-0.5-0.2-1-0.4-1.4c-0.2-0.4-0.4-0.8-0.6-1.3l4.8-0.6v10
			c0.8-3.1,2-5.5,3.8-7.3c1.7-1.8,3.9-2.7,6.6-2.7c1.5,0,2.9,0.3,4,0.9c1.2,0.6,2.1,1.4,3,2.4c0.8,1.1,1.4,2.3,1.8,3.7
			c0.4,1.4,0.6,3,0.6,4.8v18.6c0,0.9,0,1.6,0.1,2.2c0.1,0.6,0.2,1.1,0.4,1.5c0.2,0.4,0.4,0.8,0.8,1c0.3,0.3,0.7,0.5,1.2,0.7h-8.4
			c0.5-0.2,0.9-0.4,1.2-0.7c0.3-0.3,0.6-0.6,0.8-1c0.2-0.4,0.3-0.9,0.4-1.5c0.1-0.6,0.1-1.4,0.1-2.3V20c0-3.1-0.6-5.6-1.7-7.4
			c-1.1-1.8-2.8-2.7-5-2.7c-1.2,0-2.4,0.3-3.5,0.9c-1.1,0.6-2.1,1.5-3,2.7c-0.9,1.2-1.6,2.6-2.2,4.3c-0.6,1.7-0.9,3.7-1,5.9v15.5
			c0,0.9,0,1.6,0.1,2.2c0.1,0.6,0.2,1.1,0.4,1.5c0.2,0.4,0.4,0.8,0.8,1c0.3,0.3,0.7,0.5,1.2,0.7H150z"/>
		<path class="st0" d="M203.4,0.9c-0.2,0.1-0.4,0.3-0.6,0.5c-0.2,0.2-0.3,0.6-0.4,1c-0.1,0.4-0.1,1,0,1.7c0.1,0.7,0.3,1.5,0.6,2.6
			l10,31.9l9.7-31.8c0.3-1.1,0.6-2,0.7-2.7c0.1-0.7,0.1-1.3,0.1-1.7c0-0.4-0.1-0.8-0.3-1c-0.1-0.2-0.3-0.4-0.5-0.5h4.2
			c-0.2,0.1-0.4,0.2-0.7,0.5c-0.2,0.2-0.5,0.7-0.8,1.3c-0.3,0.6-0.7,1.5-1.2,2.6s-1,2.7-1.6,4.6l-10.7,34.8h-0.3L199,5.3
			c-0.5-1.5-0.9-2.6-1.4-3.2c-0.4-0.6-0.9-1-1.3-1.2H203.4z"/>
		<path class="st0" d="M239.8,0.9c-0.5,0.2-0.9,0.5-1.2,0.7c-0.3,0.3-0.6,0.7-0.8,1.2c-0.2,0.5-0.3,1.3-0.4,2.1
			c-0.1,0.9-0.1,2-0.1,3.4v28.9c0,1.4,0,2.5,0.1,3.4c0.1,0.9,0.2,1.6,0.4,2.1c0.2,0.5,0.4,0.9,0.8,1.2c0.3,0.3,0.7,0.5,1.2,0.8h-8.6
			c0.5-0.2,0.9-0.5,1.3-0.7c0.3-0.3,0.6-0.7,0.8-1.2c0.2-0.5,0.3-1.2,0.4-2.1s0.1-2,0.1-3.4V8.4c0-1.4,0-2.5-0.1-3.4
			c-0.1-0.9-0.2-1.6-0.4-2.1c-0.2-0.5-0.4-0.9-0.8-1.2c-0.3-0.3-0.7-0.5-1.3-0.7H239.8z"/>
		<path class="st0" d="M248.8,9.1l3.3-8.8v8.8h7.8v0.7h-7.8v27.1c0,1.4,0.1,2.5,0.2,3.5c0.1,0.9,0.3,1.7,0.6,2.2
			c0.3,0.5,0.6,0.9,1,1.1c0.4,0.2,0.8,0.3,1.3,0.3c0.9,0,1.7-0.3,2.3-1c0.6-0.7,1.2-1.7,1.7-2.9l0.6,0.6c-0.6,1.3-1.3,2.4-2.1,3.2
			c-0.7,0.8-1.8,1.2-3.2,1.2c-2.2,0-3.8-0.9-4.7-2.6c-0.9-1.7-1.3-4.1-1.3-7.2V9.8h-4.6V9.1H248.8z"/>
		<path class="st0" d="M274.9,25.2l5.2-1.7V19c0-3.1-0.5-5.5-1.4-7c-0.9-1.5-2.3-2.2-4.2-2.2c-0.9,0-1.8,0.2-2.7,0.6
			c-0.9,0.4-1.8,1.1-2.6,2.1c-0.8,1-1.5,2.4-2.2,4.2c-0.7,1.8-1.2,4-1.7,6.7l-0.3-10.5c1.2-1.2,2.6-2.2,4.3-2.9
			c1.7-0.7,3.4-1.1,5.2-1.1c2.8,0,5,0.9,6.6,2.6c1.6,1.8,2.4,4.3,2.4,7.7v20c0,1.2,0.1,2.3,0.3,3.2c0.2,0.9,0.5,1.7,1,2.3l-4.6,0.2
			v-8.3c-0.3,1.1-0.7,2.1-1.2,3.1s-1.1,1.9-1.8,2.7c-0.7,0.8-1.6,1.4-2.5,1.9c-1,0.5-2.1,0.7-3.4,0.7c-1.1,0-2.2-0.2-3.2-0.5
			s-1.8-0.9-2.6-1.5c-0.7-0.7-1.3-1.6-1.7-2.6c-0.4-1-0.6-2.2-0.6-3.6c0-1.9,0.4-3.5,1.2-4.8c0.8-1.3,1.7-2.4,2.9-3.3
			c1.2-0.9,2.4-1.6,3.7-2.1C272.5,26,273.8,25.6,274.9,25.2z M267.2,36.7c0,2.1,0.4,3.9,1.3,5.3s2.1,2.1,3.7,2.1
			c0.9,0,1.8-0.3,2.7-0.8s1.7-1.2,2.5-2.2c0.8-1,1.4-2.2,1.9-3.7c0.5-1.5,0.8-3.2,0.8-5.1v-7.8l-5.1,1.6c-0.7,0.2-1.4,0.5-2.3,0.9
			c-0.9,0.4-1.7,1-2.6,1.8c-0.8,0.8-1.5,1.8-2,3.1S267.2,34.7,267.2,36.7z"/>
		<path class="st0" d="M0.7,72.9h25.6l0.6,14.8c-0.3-3-0.7-5.4-1.1-7.2c-0.4-1.8-1-3.2-1.6-4.2c-0.6-1-1.3-1.6-2.2-2s-1.9-0.5-3-0.5
			h-3.6v37.2c0,0.9,0,1.6,0.1,2.3c0.1,0.6,0.2,1.1,0.4,1.5c0.2,0.4,0.4,0.7,0.8,1c0.3,0.3,0.7,0.5,1.2,0.7H9.1
			c0.5-0.2,0.9-0.4,1.3-0.7c0.3-0.3,0.6-0.6,0.8-1c0.2-0.4,0.3-0.9,0.4-1.5c0.1-0.6,0.1-1.4,0.1-2.3V74H8.1c-1.2,0-2.2,0.2-3,0.5
			s-1.6,1-2.2,2c-0.6,1-1.2,2.4-1.6,4.2c-0.4,1.8-0.8,4.2-1.2,7.2L0.7,72.9z"/>
		<path class="st0" d="M44.9,80.8c2,0,3.9,0.4,5.5,1.3c1.7,0.9,3.1,2.1,4.3,3.7c1.2,1.6,2.1,3.5,2.8,5.7c0.7,2.2,1,4.6,1,7.3V99
			c0,2.6-0.3,5.1-1,7.3c-0.7,2.2-1.6,4.1-2.8,5.7c-1.2,1.6-2.6,2.9-4.3,3.7c-1.7,0.9-3.5,1.3-5.5,1.3c-2,0-3.9-0.4-5.5-1.3
			c-1.7-0.9-3.1-2.1-4.3-3.7c-1.2-1.6-2.1-3.5-2.8-5.7c-0.7-2.2-1-4.6-1-7.3v-0.1c0-2.6,0.3-5.1,1-7.3c0.7-2.2,1.6-4.1,2.8-5.7
			c1.2-1.6,2.6-2.9,4.3-3.7C41.1,81.3,42.9,80.8,44.9,80.8z M35.2,98.9c0,2.5,0.2,4.8,0.7,6.9c0.5,2.1,1.1,3.9,2,5.4
			c0.9,1.5,1.9,2.7,3.1,3.6c1.2,0.8,2.5,1.3,4,1.3c1.4,0,2.8-0.4,4-1.3c1.2-0.8,2.2-2,3.1-3.6c0.9-1.5,1.5-3.3,2-5.4
			c0.5-2.1,0.7-4.4,0.7-6.9S54.4,94.1,54,92c-0.5-2.1-1.1-3.9-2-5.4s-1.9-2.7-3.1-3.5c-1.2-0.8-2.5-1.3-4-1.3c-1.4,0-2.8,0.4-4,1.3
			c-1.2,0.8-2.2,2-3.1,3.5c-0.8,1.5-1.5,3.3-2,5.4C35.4,94.1,35.2,96.4,35.2,98.9z"/>
		<path class="st0" d="M62.5,116.7c0.5-0.2,0.9-0.4,1.2-0.7c0.3-0.3,0.6-0.6,0.8-1c0.2-0.4,0.3-0.9,0.4-1.5c0.1-0.6,0.1-1.4,0.1-2.3
			V88c0-0.9,0-1.6-0.1-2.3c0-0.7-0.1-1.2-0.2-1.7s-0.2-1-0.4-1.4c-0.2-0.4-0.4-0.8-0.6-1.3l4.8-0.6v10c0.8-3.1,2-5.5,3.8-7.3
			c1.7-1.8,3.9-2.7,6.6-2.7c1.5,0,2.9,0.3,4,0.9c1.2,0.6,2.1,1.4,3,2.4c0.8,1.1,1.4,2.3,1.8,3.7c0.4,1.4,0.6,3,0.6,4.8v18.6
			c0,0.9,0,1.6,0.1,2.2c0.1,0.6,0.2,1.1,0.4,1.5c0.2,0.4,0.4,0.8,0.8,1c0.3,0.3,0.7,0.5,1.2,0.7h-8.4c0.5-0.2,0.9-0.4,1.2-0.7
			c0.3-0.3,0.6-0.6,0.8-1c0.2-0.4,0.3-0.9,0.4-1.5c0.1-0.6,0.1-1.4,0.1-2.3V92c0-3.1-0.6-5.6-1.7-7.4c-1.1-1.8-2.8-2.7-5-2.7
			c-1.2,0-2.4,0.3-3.5,0.9c-1.1,0.6-2.1,1.5-3,2.7c-0.9,1.2-1.6,2.6-2.1,4.3c-0.6,1.7-0.9,3.7-1,5.9v15.5c0,0.9,0,1.6,0.1,2.2
			c0.1,0.6,0.2,1.1,0.4,1.5c0.2,0.4,0.4,0.8,0.8,1c0.3,0.3,0.7,0.5,1.2,0.7H62.5z"/>
		<path class="st0" d="M107.1,80.8c1.9,0,3.5,0.4,4.9,1.1c1.4,0.7,2.6,1.7,3.5,3c0.9,1.3,1.6,2.8,2.1,4.6c0.5,1.8,0.7,3.7,0.7,5.8
			H98.4c-0.1,0.6-0.1,1.3-0.1,1.9c0,0.7,0,1.3,0,2c0,2.4,0.2,4.6,0.7,6.7c0.5,2.1,1.2,3.9,2,5.4c0.9,1.5,1.9,2.7,3.1,3.6
			c1.2,0.9,2.5,1.3,3.9,1.3c1.3,0,2.4-0.3,3.4-0.9c1-0.6,2-1.5,2.8-2.6c0.9-1.1,1.6-2.5,2.3-4.1c0.7-1.6,1.3-3.3,1.8-5.2l-0.4,9.1
			c-1.4,1.6-3,2.7-4.7,3.4c-1.8,0.7-3.5,1.1-5.2,1.1c-2,0-3.8-0.4-5.5-1.3c-1.7-0.9-3.1-2.1-4.3-3.6c-1.2-1.6-2.2-3.4-2.8-5.7
			c-0.7-2.2-1-4.7-1-7.4c0-2.6,0.3-5.1,0.9-7.3c0.6-2.2,1.4-4.2,2.5-5.8c1.1-1.6,2.4-2.9,4-3.8C103.4,81.3,105.1,80.8,107.1,80.8z
			 M98.5,94.5h16.1c0-1.8-0.2-3.5-0.6-5.1c-0.3-1.6-0.8-2.9-1.5-4.1c-0.6-1.2-1.4-2.1-2.3-2.7c-0.9-0.7-2-1-3.2-1
			c-1.1,0-2.2,0.3-3.1,0.9c-0.9,0.6-1.8,1.5-2.5,2.7c-0.7,1.2-1.4,2.5-1.8,4.1C99.1,90.9,98.7,92.7,98.5,94.5z"/>
		<path class="st0" d="M146.6,72.9c-1,0.4-1.6,1-2,1.7c-0.4,0.7-0.5,2-0.5,3.8v21.7c0,5,0.8,8.9,2.3,11.7c1.5,2.8,3.7,4.2,6.5,4.2
			c3.3,0,5.8-1.5,7.7-4.4c1.8-2.9,2.7-7.1,2.7-12.3V78.5c0-0.9,0-1.7-0.1-2.3c-0.1-0.6-0.2-1.1-0.4-1.5c-0.2-0.4-0.4-0.8-0.8-1
			c-0.3-0.3-0.7-0.5-1.3-0.7h6c-1,0.4-1.6,1-2,1.7c-0.4,0.7-0.5,2-0.5,3.8v20.7c0,5.7-1,10.1-3,13.2c-2,3.1-4.7,4.7-8.3,4.7
			c-4,0-7-1.3-9.1-4c-2.1-2.7-3.2-6.6-3.2-11.8V78.5c0-0.9,0-1.7-0.1-2.3c-0.1-0.6-0.2-1.1-0.4-1.5c-0.2-0.4-0.4-0.8-0.8-1
			c-0.3-0.3-0.7-0.5-1.3-0.7H146.6z"/>
		<path class="st0" d="M173.1,123.1V88c0-0.9,0-1.6-0.1-2.3c0-0.7-0.1-1.2-0.2-1.7s-0.2-1-0.4-1.4c-0.2-0.4-0.4-0.8-0.6-1.3l4.7-0.6
			v4.5c0.6-0.9,1.2-1.7,1.8-2.2c0.7-0.6,1.3-1,2-1.3c0.7-0.3,1.4-0.5,2.1-0.7c0.7-0.1,1.3-0.2,1.9-0.2c2,0,3.8,0.4,5.5,1.2
			c1.6,0.8,3,2,4.2,3.5s2.1,3.3,2.7,5.4c0.6,2.1,1,4.5,1,7.1c0,2.6-0.3,5.1-1,7.4c-0.7,2.3-1.6,4.3-2.8,6c-1.2,1.7-2.6,3-4.3,4
			c-1.7,1-3.5,1.5-5.4,1.5c-1.5,0-2.9-0.3-4.2-0.9c-1.3-0.6-2.5-1.5-3.5-2.7v9.8c0,0.9,0,1.6,0.1,2.2c0.1,0.6,0.2,1.1,0.4,1.5
			c0.2,0.4,0.4,0.8,0.8,1c0.3,0.3,0.7,0.5,1.2,0.7h-8.4c0.5-0.2,0.9-0.4,1.2-0.7c0.3-0.3,0.6-0.6,0.8-1c0.2-0.4,0.3-0.9,0.4-1.5
			C173.1,124.8,173.1,124,173.1,123.1z M184.6,116c1.5,0,2.8-0.4,4-1.2c1.2-0.8,2.2-1.9,3-3.3c0.8-1.4,1.5-3.1,1.9-5
			c0.4-1.9,0.7-4,0.7-6.2c0-2.6-0.2-5-0.7-7.2c-0.4-2.2-1.1-4.2-2-5.8c-0.9-1.6-2-2.9-3.3-3.8c-1.3-0.9-2.9-1.4-4.7-1.4
			c-1.1,0-2.3,0.3-3.6,0.9c-1.3,0.6-2.4,1.8-3.3,3.5v22.8c0.9,2.4,1.9,4.1,3.3,5.2C181.2,115.4,182.8,116,184.6,116z"/>
		<path class="st0" d="M217,116.7c1-0.4,1.7-0.9,2-1.7c0.3-0.8,0.5-2,0.5-3.8V78.5c0-0.9,0-1.7-0.1-2.3c-0.1-0.6-0.2-1.1-0.4-1.5
			c-0.2-0.4-0.4-0.8-0.8-1c-0.3-0.3-0.7-0.5-1.3-0.7h10.8c3.7,0,6.7,0.9,8.8,2.7c2.2,1.8,3.3,4.4,3.3,7.7c0,2.8-0.8,5.1-2.4,7
			c-1.6,1.9-3.8,3.2-6.6,3.8c3.1,0.5,5.6,1.7,7.4,3.5c1.8,1.8,2.7,4.2,2.7,7.1c0,1.9-0.3,3.6-0.8,5c-0.6,1.5-1.4,2.7-2.4,3.7
			c-1,1-2.3,1.8-3.8,2.4c-1.5,0.5-3.2,0.8-5,0.8H217z M223.1,93.7h5.1c2.4,0,4.4-0.9,5.8-2.8c1.4-1.8,2.1-4.3,2.1-7.2
			c0-3.2-0.8-5.6-2.3-7.2c-1.6-1.7-3.8-2.5-6.6-2.5h-4.1V93.7z M223.1,115.7h5.1c2.8,0,5-0.9,6.6-2.8c1.6-1.9,2.4-4.5,2.4-7.9
			c0-3.3-0.8-5.8-2.4-7.6c-1.6-1.8-3.7-2.7-6.4-2.7h-5.2V115.7z"/>
		<path class="st0" d="M257.1,97.2l5.2-1.7V91c0-3.1-0.5-5.5-1.4-7c-0.9-1.5-2.3-2.2-4.2-2.2c-0.9,0-1.8,0.2-2.7,0.6
			c-0.9,0.4-1.8,1.1-2.6,2.1c-0.8,1-1.5,2.4-2.2,4.2c-0.7,1.8-1.2,4-1.7,6.7l-0.3-10.5c1.2-1.2,2.6-2.2,4.3-2.9
			c1.7-0.7,3.4-1.1,5.2-1.1c2.8,0,5,0.9,6.6,2.6c1.6,1.8,2.4,4.3,2.4,7.7v20c0,1.2,0.1,2.3,0.3,3.2c0.2,0.9,0.5,1.7,1,2.3l-4.6,0.2
			v-8.3c-0.3,1.1-0.7,2.1-1.2,3.1s-1.1,1.9-1.8,2.7c-0.7,0.8-1.6,1.4-2.5,1.9c-1,0.5-2.1,0.7-3.4,0.7c-1.1,0-2.2-0.2-3.2-0.5
			s-1.8-0.9-2.6-1.5c-0.7-0.7-1.3-1.6-1.7-2.6c-0.4-1-0.6-2.2-0.6-3.6c0-1.9,0.4-3.5,1.2-4.8c0.8-1.3,1.7-2.4,2.9-3.3
			c1.2-0.9,2.4-1.6,3.7-2.1C254.8,98,256,97.6,257.1,97.2z M249.5,108.7c0,2.1,0.4,3.9,1.3,5.3c0.9,1.4,2.1,2.1,3.7,2.1
			c0.9,0,1.8-0.3,2.7-0.8c0.9-0.5,1.7-1.2,2.5-2.2c0.8-1,1.4-2.2,1.9-3.7c0.5-1.5,0.8-3.2,0.8-5.1v-7.8l-5.2,1.6
			c-0.7,0.2-1.4,0.5-2.3,0.9c-0.9,0.4-1.7,1-2.6,1.8c-0.8,0.8-1.5,1.8-2,3.1S249.5,106.7,249.5,108.7z"/>
		<path class="st0" d="M271.5,113.4l0.8-11.9c0.2,2.9,0.5,5.2,1.1,7.1c0.5,1.9,1.2,3.4,1.9,4.5c0.8,1.1,1.7,1.9,2.6,2.4
			c1,0.5,2.1,0.7,3.2,0.7c2.4,0,4.1-0.8,5.2-2.3c1.1-1.5,1.7-3.4,1.7-5.5c0-1.3-0.2-2.3-0.5-3.2c-0.3-0.9-0.8-1.6-1.3-2.1
			c-0.5-0.6-1-1-1.6-1.3c-0.6-0.3-1.1-0.6-1.6-0.8l-5.1-2.3c-0.5-0.2-1.1-0.5-1.7-1c-0.6-0.4-1.2-1-1.8-1.7c-0.6-0.7-1-1.6-1.4-2.6
			c-0.4-1-0.6-2.2-0.6-3.6c0-2.8,0.8-5,2.3-6.6c1.5-1.6,3.6-2.4,6.1-2.4c1.7,0,3.3,0.4,4.7,1.1c1.4,0.7,2.7,1.7,3.7,2.9l-0.3,8.5
			c-0.8-4.1-1.8-7.1-3.1-8.9c-1.3-1.8-3-2.7-5.1-2.7c-1.7,0-3.1,0.5-4.3,1.6c-1.1,1.1-1.7,2.7-1.7,4.9c0,1,0.2,1.8,0.5,2.5
			c0.3,0.7,0.7,1.2,1.2,1.7c0.5,0.4,1,0.8,1.5,1.1c0.5,0.3,1,0.5,1.5,0.7l4.6,2c0.6,0.3,1.3,0.6,2.1,1.1c0.8,0.5,1.5,1.1,2.2,1.9
			c0.7,0.8,1.3,1.7,1.7,2.9c0.5,1.2,0.7,2.6,0.7,4.3c0,1.6-0.2,3-0.7,4.3c-0.4,1.3-1.1,2.4-1.9,3.4c-0.9,1-1.9,1.7-3.1,2.3
			c-1.2,0.5-2.7,0.8-4.3,0.8c-1.8,0-3.5-0.3-5.2-0.9C273.9,115.5,272.6,114.6,271.5,113.4z"/>
		<path class="st0" d="M307.7,80.8c1.9,0,3.5,0.4,4.9,1.1c1.4,0.7,2.6,1.7,3.5,3c0.9,1.3,1.6,2.8,2.1,4.6c0.5,1.8,0.7,3.7,0.7,5.8
			h-19.9c-0.1,0.6-0.1,1.3-0.1,1.9c0,0.7,0,1.3,0,2c0,2.4,0.2,4.6,0.7,6.7c0.5,2.1,1.2,3.9,2,5.4c0.9,1.5,1.9,2.7,3.1,3.6
			c1.2,0.9,2.5,1.3,3.9,1.3c1.3,0,2.4-0.3,3.4-0.9c1-0.6,2-1.5,2.8-2.6c0.8-1.1,1.6-2.5,2.3-4.1s1.3-3.3,1.8-5.2l-0.4,9.1
			c-1.4,1.6-3,2.7-4.7,3.4c-1.8,0.7-3.5,1.1-5.2,1.1c-2,0-3.8-0.4-5.5-1.3c-1.7-0.9-3.1-2.1-4.3-3.6c-1.2-1.6-2.2-3.4-2.8-5.7
			c-0.7-2.2-1-4.7-1-7.4c0-2.6,0.3-5.1,0.9-7.3c0.6-2.2,1.4-4.2,2.5-5.8c1.1-1.6,2.4-2.9,4-3.8C304,81.3,305.8,80.8,307.7,80.8z
			 M299.1,94.5h16.1c0-1.8-0.2-3.5-0.6-5.1c-0.3-1.6-0.8-2.9-1.5-4.1c-0.6-1.2-1.4-2.1-2.3-2.7c-0.9-0.7-2-1-3.2-1
			c-1.1,0-2.2,0.3-3.1,0.9s-1.8,1.5-2.5,2.7c-0.7,1.2-1.4,2.5-1.8,4.1S299.4,92.7,299.1,94.5z"/>
	</g>
</g>
</svg>
