<?xml version="1.0" encoding="utf-8"?>
<!-- Generator: Adobe Illustrator 25.4.1, SVG Export Plug-In . SVG Version: 6.00 Build 0)  -->
<svg version="1.1" id="レイヤー_1" xmlns="http://www.w3.org/2000/svg" xmlns:xlink="http://www.w3.org/1999/xlink" x="0px"
	 y="0px" viewBox="0 0 178 28" style="enable-background:new 0 0 178 28;" xml:space="preserve">
<style type="text/css">
	.st0{fill:#99998D;}
</style>
<g>
	<g>
		<path class="st0" d="M0.2,14.7c0-6.8,5-13.5,13.2-13.5c7.1,0,12.8,5.7,12.8,13.4c0,7.3-5.6,13.3-13.1,13.3
			C5.1,27.9,0.2,21.3,0.2,14.7z M22.9,14.8C22.9,5.7,17.9,2,13.1,2C8.3,2,3.5,5.6,3.5,14.6c0,8.7,4.3,12.5,9.5,12.5
			C18.5,27.1,22.9,23.1,22.9,14.8z"/>
		<path class="st0" d="M38.3,25.1c-0.8,1.9-2.3,2.8-4.1,2.8c-1.9,0-3.7-0.4-3.7-4.3v-11c0-1.5-0.3-1.7-1.8-2v-0.2
			c2.3,0,3.8-2.2,4.4-4.8h0.2c-0.2,1.2-0.5,3.1-0.5,4.7h3c1.7,0,2.3,0,2.8-0.9l0.2,0.2c-0.5,0.9-1.1,1.4-1.5,2.6h-0.3
			c0-0.1,0.1-0.3,0.1-0.4c0-0.6-0.5-0.8-1.7-0.8h-2.6v12.4c0,2.5,0.7,3.3,2.6,3.3c1.4,0,2.2-0.5,2.8-1.9L38.3,25.1z"/>
		<path class="st0" d="M56.7,27.6c-0.8,0-1.4-0.1-2.7-0.1s-1.9,0-2.7,0.1v-0.2c1.1-0.2,1.5-0.4,1.5-3.3v-7.8c0-4.5-2.2-5.3-4.4-5.3
			c-1.3,0-3.1,0.5-4.4,1.5v11.7c0,2.9,0.5,3.1,1.5,3.3v0.2c-0.8,0-1.4-0.1-2.7-0.1c-1.3,0-1.9,0-2.7,0.1v-0.2
			c1.1-0.2,1.5-0.4,1.5-3.3V3c0-1.3,0-1.7-1.1-1.9V0.9c1.1-0.1,2.5-0.4,3.4-0.8v11.6c1.6-1,3.5-1.4,5.3-1.4c2.4,0,5.8,0.7,5.8,5.9v8
			c0,2.9,0.5,3.1,1.5,3.3V27.6z"/>
		<path class="st0" d="M73.9,25.1c-1.3,1.7-3.3,2.8-6,2.8c-5.8,0-8.6-4.4-8.6-8.8c0-4.9,3.2-8.9,7.7-8.9c3.6,0,6.6,2.6,6.6,6.4H62.3
			c0,0.4-0.1,0.8-0.1,1.2c0,5.7,3,8.9,7.1,8.9c1.5,0,2.9-0.4,4.4-1.8L73.9,25.1z M70.7,15.9c-0.1-3.3-1.5-5.2-3.7-5.2
			c-2.2,0-4,2.1-4.5,5.2H70.7z"/>
		<path class="st0" d="M82.1,27.6c-0.8,0-1.4-0.1-2.7-0.1s-1.9,0-2.7,0.1v-0.2c1.1-0.2,1.5-0.4,1.5-3.3v-11c0-1.3,0-1.7-1.1-1.9V11
			c1.1-0.1,2.5-0.4,3.4-0.8v1.7c0.8-0.7,2-1.7,3.6-1.7c1.9,0,2.3,1.3,2.3,3h-2.3c0-1.3-0.5-1.9-1.3-1.9c-0.6,0-1.3,0.3-2.3,1.4v11.4
			c0,2.9,0.5,3.1,1.5,3.3V27.6z"/>
		<path class="st0" d="M105.4,27.6c-0.8,0-1.9-0.1-3.1-0.1c-1.3,0-2.3,0-3.1,0.1v-0.2c1.3-0.2,1.8-0.4,1.8-3.3V4.8
			c0-2.9-0.5-3.1-1.8-3.3V1.4c0.8,0,1.8,0.1,3.1,0.1c1.2,0,2.4,0,3.1-0.1v0.2c-1.3,0.2-1.8,0.4-1.8,3.3v19.3c0,2.9,0.5,3.1,1.8,3.3
			V27.6z"/>
		<path class="st0" d="M118.4,25.1c-0.8,1.9-2.3,2.8-4.1,2.8c-1.9,0-3.7-0.4-3.7-4.3v-11c0-1.5-0.3-1.7-1.8-2v-0.2
			c2.3,0,3.8-2.2,4.4-4.8h0.2c-0.2,1.2-0.5,3.1-0.5,4.7h3c1.7,0,2.3,0,2.8-0.9l0.2,0.2c-0.5,0.9-1.1,1.4-1.5,2.6h-0.3
			c0-0.1,0.1-0.3,0.1-0.4c0-0.6-0.5-0.8-1.7-0.8h-2.6v12.4c0,2.5,0.7,3.3,2.6,3.3c1.4,0,2.2-0.5,2.8-1.9L118.4,25.1z"/>
		<path class="st0" d="M134.9,25.1c-1.3,1.7-3.3,2.8-6,2.8c-5.8,0-8.6-4.4-8.6-8.8c0-4.9,3.2-8.9,7.7-8.9c3.6,0,6.6,2.6,6.6,6.4
			h-11.3c0,0.4-0.1,0.8-0.1,1.2c0,5.7,3,8.9,7.1,8.9c1.5,0,2.9-0.4,4.4-1.8L134.9,25.1z M131.7,15.9c-0.1-3.3-1.5-5.2-3.7-5.2
			c-2.2,0-4,2.1-4.5,5.2H131.7z"/>
		<path class="st0" d="M164.5,27.6c-0.8,0-1.4-0.1-2.7-0.1s-1.9,0-2.7,0.1v-0.2c1.1-0.2,1.5-0.4,1.5-3.3v-7.3c0-4.9-2.1-5.9-4-5.9
			c-1.2,0-2.9,0.3-5.2,1.9c0.4,0.9,0.6,2.1,0.6,3.6v7.7c0,2.9,0.5,3.1,1.5,3.3v0.2c-0.8,0-1.4-0.1-2.7-0.1c-1.3,0-1.9,0-2.7,0.1
			v-0.2c1.1-0.2,1.5-0.4,1.5-3.3v-7.5c0-4.9-2.1-5.7-4-5.7c-1.3,0-3,0.4-4.4,1.4v11.8c0,2.9,0.5,3.1,1.5,3.3v0.2
			c-0.8,0-1.4-0.1-2.7-0.1s-1.9,0-2.7,0.1v-0.2c1.1-0.2,1.5-0.4,1.5-3.3v-11c0-1.3,0-1.7-1.1-1.9V11c1.1-0.1,2.5-0.4,3.4-0.8v1.4
			c1.6-1,3.5-1.4,5.3-1.4c1.9,0,3.5,0.5,4.5,2.2c2.4-1.7,4.6-2.2,6.3-2.2c3,0,5.4,1.5,5.4,6.4v7.5c0,2.9,0.5,3.1,1.5,3.3V27.6z"/>
		<path class="st0" d="M177.1,14.4c-0.4-1.8-1.6-3.7-4-3.7c-1.8,0-3.2,1.2-3.2,3.2c0,4.2,7.9,3.5,7.9,9.4c0,3.1-3,4.6-5.8,4.6
			c-1,0-2.8-0.2-4.5-1.2c0.2-1.2,0.1-2.8,0.4-4.3h0.2c0,0.2,0,0.5,0,0.7c0,2.3,1,4.2,4,4.2c1.9,0,3.3-1.2,3.3-3.5
			c0-4.6-7.8-3.8-7.8-9.3c0-3.1,3-4.4,5.7-4.4c1.4,0,3.1,0.3,4.1,0.6c-0.1,0.4-0.1,0.6-0.1,1.2c0,0.7,0,1.2,0.1,2.4H177.1z"/>
	</g>
</g>
</svg>
