<?xml version="1.0" encoding="utf-8"?>
<!-- Generator: Adobe Illustrator 25.4.1, SVG Export Plug-In . SVG Version: 6.00 Build 0)  -->
<svg version="1.1" id="レイヤー_1" xmlns="http://www.w3.org/2000/svg" xmlns:xlink="http://www.w3.org/1999/xlink" x="0px"
	 y="0px" viewBox="0 0 70 620" style="enable-background:new 0 0 70 620;" xml:space="preserve">
<style type="text/css">
	.st0{fill:#FFFFFF;}
</style>
<g>
	<path class="st0" d="M24.6,17.9l43.1,5.6l2.1,0.4v11.9L0.4,24.2V11.5l69.3-11v11.5l-1.3,0.4L24.6,17.9z"/>
	<path class="st0" d="M69.7,65.3v2.5h-2.5h-6.4h-2.5v-2.5V51.9H40.7v7v2.5h-2.5h-6.4h-2.5v-2.5v-7H11.8v13.4v2.5H9.3H2.9H0.4v-2.5
		V43v-2.5h2.5h64.3h2.5V43V65.3z"/>
	<path class="st0" d="M69.7,83.2v2.5h-2.5H11.8v12.9v2.5H9.3H2.9H0.4v-2.5V76.7v-2.5h2.5h64.3h2.5v2.5V83.2z"/>
	<path class="st0" d="M24.6,121.3l43.1,5.6l2.1,0.4v11.9L0.4,127.7v-12.8l69.3-11v11.5l-1.3,0.4L24.6,121.3z"/>
	<path class="st0" d="M69.7,168.7v2.5h-2.5h-6.4h-2.5v-2.5v-13.4H40.7v7v2.5h-2.5h-6.4h-2.5v-2.5v-7H11.8v13.4v2.5H9.3H2.9H0.4v-2.5
		v-22.3v-2.5h2.5h64.3h2.5v2.5V168.7z"/>
	<path class="st0" d="M58.2,178.1v-2.5h2.5h6.4h2.5v2.5v9.6v6.4v9.6v2.5h-2.5h-6.4h-2.5v-2.5v-7.1H2.9H0.4v-2.5v-6.4v-2.5h2.5h55.3
		V178.1z"/>
	<path class="st0" d="M69.7,259.6v2.5h-2.5h-6.4h-2.5v-2.5v-14.2H40.7v7.8v2.5h-2.5h-6.4h-2.5v-2.5v-7.8H2.9H0.4v-2.5v-6.5v-2.5h2.5
		h64.3h2.5v2.5V259.6z"/>
	<path class="st0" d="M69.7,276.6v2.5h-2.5H2.9H0.4v-2.5v-6.5v-2.5h2.5h64.3h2.5v2.5V276.6z"/>
	<path class="st0" d="M69.6,294.4v1.8l-1.8,0.6l-13.2,4l-5.5,1.6l5.5,1.7l13.2,4l1.8,0.5v1.9v6.7v3.3l-3.2-1L35,310l-31.4,9.5
		l-3.2,1v-3.3v-6.7v-1.9l1.8-0.5l13.2-4l5.5-1.7l-5.5-1.6l-13.2-4l-1.8-0.6v-1.8v-6.7v-3.4l3.2,1l31.4,9.5l31.4-9.5l3.2-1v3.4V294.4
		z"/>
	<path class="st0" d="M69.7,356.6v2.5h-2.5H11.8V372v2.5H9.3H2.9H0.4V372v-21.8v-2.5h2.5h64.3h2.5v2.5V356.6z"/>
	<path class="st0" d="M69.7,389v2.5h-2.5H2.9H0.4V389v-6.5v-2.5h2.5h64.3h2.5v2.5V389z"/>
	<path class="st0" d="M0.4,401.6v-2.5h2.5h28.9h14.5h20.9h2.5v2.5v6.5v4c0,4.7-1.7,8.7-5,12c-3.3,3.3-7.3,5-12,5H39.9
		c-4.7,0-8.7-1.7-12-5c-3.3-3.3-5-7.3-5-12v-1.5h-20H0.4v-2.5V401.6z M34.3,410.5v1.5c0,1.5,0.5,2.8,1.6,3.9c1,1.1,2.3,1.6,3.9,1.6
		h12.8c1.5,0,2.8-0.5,3.9-1.6c1.1-1.1,1.6-2.4,1.6-3.9v-1.5H34.3z"/>
	<path class="st0" d="M23.8,488.4h-6.5c-4.7,0-8.7-1.7-12-5c-3.3-3.3-5-7.3-5-12v-13.7h69.3v12.9c0,4.7-1.7,8.6-5,12
		c-3.3,3.3-7.3,5-12,5h-6.4c-4.5,0-8.3-2.4-10.8-4.7C32.8,485.2,28.4,488.4,23.8,488.4z M29.3,471.5v-2.3H11.8v2.3
		c0,3,2.5,5.5,5.5,5.5h6.5C26.8,477,29.3,474.5,29.3,471.5z M58.2,471.1v-1.9H40.7v1.9c0,3,2.5,5.5,5.5,5.5h6.4
		C55.7,476.6,58.2,474.1,58.2,471.1z"/>
	<path class="st0" d="M11.1,505.9c-3.6-0.7-7.1-1.4-10.7-2.1V492L69.7,504v15L0.3,530.8v-11.7c3.6-0.7,7.2-1.4,10.8-2.1V505.9z
		 M55.1,511.4l-33-3.9v7.8L55.1,511.4z"/>
	<path class="st0" d="M69.7,544.6v2.5h-2.5H11.8V560v2.5H9.3H2.9H0.4V560v-21.8v-2.5h2.5h64.3h2.5v2.5V544.6z"/>
	<path class="st0" d="M69.7,567.7v18.6l-46.6,7.3l46.6,7.3v18.6H0.4v-11.8H50l-49.6-8.6v-10.7l49.6-9H0.4c0,0.9,0-8.3,0-11.8H69.7z"
		/>
</g>
</svg>
