<?xml version="1.0" encoding="utf-8"?>
<!-- Generator: Adobe Illustrator 25.4.1, SVG Export Plug-In . SVG Version: 6.00 Build 0)  -->
<svg version="1.1" id="レイヤー_1" xmlns="http://www.w3.org/2000/svg" xmlns:xlink="http://www.w3.org/1999/xlink" x="0px"
	 y="0px" viewBox="0 0 371 145" style="enable-background:new 0 0 371 145;" xml:space="preserve">
<style type="text/css">
	.st0{fill:#FFFFFF;stroke:#FFFFFF;stroke-width:0.25;stroke-miterlimit:10;}
	.st1{fill:#FFFFFF;}
</style>
<g>
	<g>
		<g>
			<path class="st0" d="M46.6,98.8H19.2v15.4h23v6.2h-23v23.5h-7.3V92.4h34.7V98.8z"/>
			<path class="st0" d="M58.9,100.6h-7.1v-8.3h7.1V100.6z M58.9,143.8h-7.1v-37.3h7.1V143.8z"/>
			<path class="st0" d="M74.8,143.8h-7.1V92.4h7.1V143.8z"/>
			<path class="st0" d="M98.4,112.2h-6.7v23.4c0,2.2,1,3.4,2.8,3.4c1,0,2-0.2,3.9-1v5.8c-3.1,0.7-4.2,0.8-5.9,0.8
				c-5.3,0-7.9-2.9-7.9-9v-23.4h-5v-5.6h5V94.8h7.1v11.8h6.7V112.2z"/>
			<path class="st0" d="M108.3,126.9c0.5,7.6,4.4,12,10.8,12c4.4,0,7.3-2.1,9-6.5h6.8c-1.8,7.8-7.7,12.4-16,12.4
				c-10.5,0-17.7-8-17.7-19.7c0-11.7,7.1-19.6,17.5-19.6c7.4,0,12.8,3.9,15.3,11.1c0.9,2.8,1.4,5.8,1.5,10.3H108.3z M128,121.8
				c-0.3-6.8-3.7-10.6-9.3-10.6c-5.8,0-10,4.3-10.3,10.6H128z"/>
			<path class="st0" d="M149.1,106.6v5.9c1.5-2.2,2.1-3,3.1-3.9c1.7-1.8,4.4-2.9,6.6-2.9c1.4,0,2.7,0.3,3.9,0.9v6.4
				c-1.5-0.3-2.2-0.4-3.2-0.4c-5.7,0-10.1,5.1-10.1,11.7v19.6h-7.1v-37.3H149.1z"/>
			<path class="st0" d="M220.9,108.3c-0.8-7.1-5-10.6-12.8-10.6c-6.9,0-11.3,2.9-11.3,7.4c0,3.8,2.7,6,9.3,7.5l8.3,1.9
				c6.1,1.4,9.2,2.7,11.7,4.9c2.7,2.4,4.2,5.9,4.2,9.9c0,9.7-7.9,15.7-20.4,15.7c-13.3,0-21.4-6.8-22.5-19.1h7.6
				c0.8,8.2,6.2,12.7,15,12.7c7.4,0,12.7-3.6,12.7-8.8c0-3.9-2.8-6.4-8.2-7.7l-11.6-2.8c-9.4-2.2-13.7-6.4-13.7-13.3
				c0-9,7.5-14.7,19.3-14.7s18.1,5.5,19.8,17.1H220.9z"/>
			<path class="st0" d="M271.3,143.8h-8.6l-12.9-19.5l-5.3,4.7v14.8h-7.1V92.4h7.1v28.2l16-14h9.4l-15,13.3L271.3,143.8z"/>
			<path class="st0" d="M282.3,100.6h-7.1v-8.3h7.1V100.6z M282.3,143.8h-7.1v-37.3h7.1V143.8z"/>
			<path class="st0" d="M297.9,106.6v4.2c3.7-3.9,6.7-5.2,11.8-5.2c4.4,0,8,1.5,10.1,4.1c1.8,2.3,2.5,4.9,2.5,9.3v24.9h-7.1v-24.4
				c0-5.1-2.3-7.6-7.2-7.6c-6.1,0-9.8,3.5-9.8,9.3v22.6h-7.1v-37.3H297.9z"/>
		</g>
	</g>
	<g>
		<g>
			<path class="st1" d="M72.2,3l-2.2,0.3c-1.6,0.2-2.8,0.5-3.7,0.8c-0.8,0.4-1.5,0.8-1.9,1.4c-0.4,0.6-0.8,1.5-1.2,2.6l-16,49.2
				c-0.4,1.4-0.7,2.3-0.7,2.7c0,0.7,0.3,1.2,1,1.6s2,0.6,3.9,0.8l2,0.2l-0.5,1.8H33.4l0.5-1.8l2.2-0.3c1.6-0.2,2.8-0.5,3.7-0.8
				c0.8-0.4,1.5-0.8,1.9-1.4c0.4-0.6,0.8-1.5,1.2-2.6l8.4-25.8H22.7l-8.4,25.8c-0.4,1.3-0.6,2.2-0.6,2.7c0,0.7,0.3,1.2,1,1.6
				s2,0.6,3.9,0.8l2,0.2L20,64.5H0.5L1,62.7l2.2-0.3c1.6-0.2,2.8-0.5,3.7-0.8c0.8-0.4,1.5-0.8,1.9-1.4c0.4-0.6,0.8-1.5,1.2-2.6
				L26,8.2c0.4-1.2,0.6-2.1,0.6-2.6c0-0.7-0.3-1.3-1-1.6s-2-0.6-3.9-0.8l-2-0.2l0.6-1.8h19.5L39.3,3l-2.2,0.3
				c-1.6,0.2-2.8,0.5-3.7,0.8C32.6,4.5,32,5,31.6,5.6c-0.4,0.6-0.8,1.5-1.2,2.6l-7,21.4h28.5l7-21.4c0.4-1.2,0.6-2.1,0.6-2.6
				c0-0.7-0.3-1.3-1-1.6c-0.7-0.3-1.9-0.6-3.8-0.8l-2-0.2l0.5-1.8h19.5L72.2,3z"/>
			<path class="st1" d="M96.8,35.7c0,4.5-0.9,9.1-2.8,13.8c-1.9,4.7-4.5,8.5-7.7,11.6c-3.3,3.1-6.9,4.6-10.8,4.6
				c-3.8,0-6.6-1.2-8.6-3.6c-2-2.4-3-5.8-3-10.2c0-4.5,0.9-9.1,2.8-13.8c1.9-4.7,4.5-8.5,7.7-11.6c3.3-3,6.9-4.6,10.8-4.6
				c3.8,0,6.6,1.2,8.6,3.6S96.8,31.3,96.8,35.7z M91.4,43.5c0.9-3.6,1.3-6.8,1.3-9.8c0-3.5-0.7-6-2-7.5c-1.3-1.5-3.2-2.2-5.6-2.2
				c-2.4,0-4.6,0.8-6.5,2.4c-2.1,1.8-4,4.2-5.7,7.3c-1.7,3.1-2.9,6.5-3.8,10.1c-0.9,3.6-1.3,6.8-1.3,9.8c0,3.5,0.7,6,2,7.5
				c1.3,1.5,3.2,2.2,5.6,2.2c2.3,0,4.4-0.8,6.5-2.4c2.1-1.8,4-4.2,5.7-7.3S90.5,47.1,91.4,43.5z"/>
			<path class="st1" d="M155.5,45.5c-2,5.7-4.7,10.4-7.9,14.3c-3.3,3.9-6.8,5.8-10.4,5.8c-2.6,0-4.6-0.7-6.2-2.2
				c-1.6-1.5-2.4-3.6-2.4-6.4c0-1.3,0.1-2.4,0.3-3.5h-0.1c-3.9,8-8.4,12.1-13.6,12.1c-2.6,0-4.7-0.8-6.3-2.3
				c-1.6-1.6-2.4-3.8-2.4-6.8c0-2,0.4-4.4,1.2-6.9s1.8-5.4,3.1-8.5l2.9-7.3c0.4-1,0.8-2.1,1.2-3.4s0.6-2.3,0.6-3.2
				c0-0.9-0.2-1.6-0.6-2.1c-0.4-0.4-1-0.6-2-0.6c-0.9,0-1.9,0.3-2.8,1c-0.9,0.6-2,1.8-3.2,3.5c-1.2,1.7-2.5,4-4,7.1l-1.7-0.7
				c2-4.9,4.1-8.3,6-10.3c2-2,4.1-3,6.3-3c1.9,0,3.4,0.5,4.3,1.4c0.9,1,1.4,2.3,1.4,4c0,1.4-0.2,2.9-0.6,4.3s-1.1,3.3-2,5.5l-2,5.1
				c-1.1,2.8-2.1,5.6-2.8,8.2c-0.8,2.7-1.2,4.8-1.2,6.3c0,2.2,0.4,3.8,1.3,4.8c0.8,1,2.3,1.5,4.4,1.5c3.8,0,7.1-2.7,9.8-8
				s5.1-11.3,7.1-18.1l4.3-14.2c0.7,0.1,1.4,0.2,2.1,0.2c0.7,0,1.4-0.1,1.9-0.2l-4.5,14.6l-0.4,1.4c-3,9-4.5,14.8-4.5,17.5
				c0,1.2,0.1,2.3,0.4,3.3c0.2,1,0.8,1.8,1.6,2.5c0.8,0.7,2.1,1,3.9,1c3.1,0,6-1.8,8.7-5.3c2.7-3.5,4.8-7.8,6.5-12.7
				c1.6-4.9,2.4-9.2,2.4-12.8c0-1.5-0.2-2.8-0.5-3.9c-0.4,0.2-0.9,0.3-1.5,0.3c-1,0-1.8-0.3-2.4-0.9c-0.6-0.6-0.9-1.4-0.9-2.3
				c0-1,0.3-1.8,0.9-2.5s1.5-1,2.6-1c3.2,0,4.9,2.6,4.9,7.8C158.5,34.6,157.5,39.8,155.5,45.5z"/>
			<path class="st1" d="M185.3,56.2c-0.5,1.4-0.7,2.7-0.7,4c0,1.1,0.2,1.8,0.6,2.2c0.4,0.4,1.1,0.6,2,0.6c2.8,0,6.1-3.8,9.7-11.5
				l1.7,0.8c-3.9,8.9-8,13.3-12.5,13.3c-1.8,0-3.1-0.5-4-1.6c-0.9-1-1.3-2.4-1.3-4c0-1.3,0.2-2.7,0.6-4.1c0.4-1.4,1-3.2,1.7-5.5
				l8.4-25.3h-8.2L184,23h8.1l4.9-15c0.7,0.1,1.4,0.1,2,0.1c0.6,0,1.3,0,2.1-0.1l-4.9,15h8.3l-0.7,2.2h-8.3l-9.5,28.6
				C186,53.9,185.7,54.7,185.3,56.2z"/>
			<path class="st1" d="M236.3,35.7c0,4.5-0.9,9.1-2.8,13.8c-1.9,4.7-4.5,8.5-7.7,11.6c-3.3,3.1-6.9,4.6-10.8,4.6
				c-3.8,0-6.6-1.2-8.6-3.6c-2-2.4-3-5.8-3-10.2c0-4.5,0.9-9.1,2.8-13.8c1.9-4.7,4.5-8.5,7.7-11.6c3.3-3,6.9-4.6,10.8-4.6
				c3.8,0,6.6,1.2,8.6,3.6S236.3,31.3,236.3,35.7z M231,43.5c0.9-3.6,1.3-6.8,1.3-9.8c0-3.5-0.7-6-2-7.5c-1.3-1.5-3.2-2.2-5.6-2.2
				c-2.4,0-4.6,0.8-6.5,2.4c-2.1,1.8-4,4.2-5.7,7.3c-1.7,3.1-2.9,6.5-3.8,10.1c-0.9,3.6-1.3,6.8-1.3,9.8c0,3.5,0.7,6,2,7.5
				c1.3,1.5,3.2,2.2,5.6,2.2c2.3,0,4.4-0.8,6.5-2.4c2.1-1.8,4-4.2,5.7-7.3S230.1,47.1,231,43.5z"/>
			<path class="st1" d="M313.3,35.9l-0.6,1.8l-3.2,0.3c-1,0.1-1.9,0.3-2.4,0.5s-1.1,0.7-1.5,1.4s-0.8,1.6-1.2,2.9l-7,21.7h-2.1
				l0.9-6.4h-0.2c-1.6,2.1-3.8,3.8-6.5,5.3c-2.7,1.5-5.8,2.2-9.2,2.2c-5.6,0-10-1.7-13.1-5.2c-3.1-3.5-4.7-8.7-4.7-15.6
				c0-7,1.4-14,4.2-21s6.7-12.7,11.6-17.1c5-4.5,10.5-6.7,16.6-6.7c3.7,0,6.5,0.8,8.6,2.2c2.1,1.5,3.6,3.1,4.5,4.9L313,0h1.9
				l-7.2,22.4h-2c0.2-2.4,0.4-4.4,0.4-6.1c0-4.4-0.9-7.8-2.7-10.2c-1.8-2.4-4.6-3.7-8.3-3.7c-3.7,0-7.4,1.2-10.9,3.5
				c-3.5,2.5-6.5,6-9.1,10.5c-2.6,4.5-4.5,9.5-5.9,15c-1.4,5.4-2,10.8-2,15.9c0,4.7,1.1,8.4,3.3,11.3c2.2,2.9,5.7,4.3,10.3,4.3
				c3.7,0,6.9-1.2,9.8-3.6c2.9-2.4,5.2-5.3,6.9-8.8l2.4-7.3c0.1-0.4,0.3-0.9,0.4-1.4c0.1-0.5,0.2-1,0.2-1.3c0-0.9-0.4-1.6-1.1-1.8
				c-0.7-0.3-2-0.5-3.7-0.6l-3.7-0.3l0.6-1.8H313.3z"/>
			<path class="st1" d="M331.5,43.4c-3.9,1.3-8.2,2-13,2.1c-0.7,3.2-1.1,6.2-1.1,8.9c0,3,0.6,5.2,1.7,6.5s2.8,2,5,2
				c2.6,0,5.1-1.2,7.6-3.7c2.4-2.5,4.6-5.8,6.5-10L340,50c-1.8,4.5-4.2,8.2-7.1,11.2c-3,3-6.2,4.5-9.7,4.5c-6.9,0-10.3-4-10.3-12.1
				c0-4.3,1-8.9,2.9-13.9s4.6-9.2,8-12.6c3.4-3.4,7.2-5.1,11.3-5.1c2.7,0,4.8,0.7,6.4,2.1c1.6,1.4,2.4,3.2,2.4,5.5
				c0,3.3-1.1,6.1-3.3,8.4S335.3,42.1,331.5,43.4z M322.8,33.8c-1.6,2.9-2.9,6.1-3.8,9.6c4-0.1,7.7-0.7,10.8-1.8
				c3.2-1.1,5.7-2.7,7.6-4.9s2.8-4.8,2.8-7.9c0-1.4-0.4-2.6-1.2-3.5s-2-1.3-3.5-1.3c-2.5,0-4.8,0.9-7,2.7S324.4,30.9,322.8,33.8z"/>
			<path class="st1" d="M351.2,56.2c-0.5,1.4-0.7,2.7-0.7,4c0,1.1,0.2,1.8,0.6,2.2c0.4,0.4,1.1,0.6,2,0.6c2.8,0,6.1-3.8,9.7-11.5
				l1.7,0.8c-3.9,8.9-8,13.3-12.5,13.3c-1.8,0-3.1-0.5-4-1.6c-0.9-1-1.3-2.4-1.3-4c0-1.3,0.2-2.7,0.6-4.1c0.4-1.4,1-3.2,1.7-5.5
				l8.4-25.3h-8.2L350,23h8.1l4.9-15c0.7,0.1,1.4,0.1,2,0.1c0.6,0,1.3,0,2.1-0.1l-4.9,15h8.3l-0.7,2.2h-8.3l-9.5,28.6
				C352,53.9,351.7,54.7,351.2,56.2z"/>
		</g>
	</g>
</g>
</svg>
