<?xml version="1.0" encoding="utf-8"?>
<!-- Generator: Adobe Illustrator 25.4.1, SVG Export Plug-In . SVG Version: 6.00 Build 0)  -->
<svg version="1.1" id="レイヤー_1" xmlns="http://www.w3.org/2000/svg" xmlns:xlink="http://www.w3.org/1999/xlink" x="0px"
	 y="0px" viewBox="0 0 290 406" style="enable-background:new 0 0 290 406;" xml:space="preserve">
<style type="text/css">
	.st0{fill:#FFFFFF;}
</style>
<g>
	<path class="st0" d="M39.3,4.8c1.9,1.2,3.4,2.4,4.4,3.6c0.3,0.3,0.5,0.6,0.5,0.8s0,0.6-0.2,1.1l-2,7.4c0,0.1-0.2,0.2-0.4,0.1
		c-0.2-0.1-0.3-0.2-0.3-0.3c0.3-3.6-0.5-6.7-2.4-9.2c-1.9-2.5-4.8-4.5-8.5-5.9c-3.2-1.2-6.3-1.6-9.3-1.1C18,1.7,15.3,3,13,5.1
		c-2.3,2.1-4.1,4.9-5.4,8.3c-1.5,4-2.1,7.9-1.7,11.9c0.4,4,1.6,7.5,3.6,10.5c2,3,4.7,5.2,7.9,6.4c3.1,1.2,6.1,1.3,9,0.5
		C29.2,42,32,40,34.5,37c0-0.1,0.2-0.2,0.3-0.1c0.1,0,0.2,0.1,0.3,0.2c0.1,0.1,0.1,0.2,0.1,0.3l-3.7,6.9c-0.3,0.5-0.5,0.8-0.7,0.9
		c-0.2,0.1-0.5,0.2-0.9,0.2c-4.5,0.2-8.8-0.6-13.1-2.2c-5.1-2-9-4.6-11.6-8c-2.6-3.4-4.2-7-4.6-10.8c-0.4-3.8,0.1-7.5,1.4-11
		C3.6,9.4,6,6.3,9.4,4c3.4-2.3,7.2-3.6,11.4-3.9c4.2-0.3,8.4,0.3,12.5,1.8C35.3,2.7,37.3,3.6,39.3,4.8z"/>
	<path class="st0" d="M64,37.9c0.5,0.9,0.5,1.7,0.1,2.4c-0.3,0.5-0.7,0.8-1.3,1c-0.5,0.1-1.1,0-1.8-0.4c-0.3-0.2-0.6-0.5-0.8-0.8
		c-0.2-0.3-0.3-0.7-0.5-1.2c-0.2-0.5-0.3-1-0.6-1.3c-0.2-0.3-0.5-0.7-1-0.9c-0.5-0.3-1.2-0.4-2-0.4c-0.8,0.1-2.3,0.4-4.3,1.1
		L44.3,50c-0.7,1.2-1.1,2.1-1.1,2.8c0,0.7,0.3,1.4,0.9,2.1c0.6,0.7,1.8,1.5,3.4,2.6c0.2,0.1,0.2,0.3,0,0.5c-0.1,0.2-0.3,0.3-0.4,0.2
		c-1.2-0.8-2.2-1.4-2.9-1.9l-4.3-2.7l-3.2-1.9c-0.5-0.3-1.2-0.7-2.1-1.2c-0.1-0.1-0.1-0.2,0-0.5c0.1-0.2,0.3-0.3,0.4-0.2
		c1,0.6,1.9,1,2.5,1.1c0.6,0.1,1.2-0.1,1.7-0.5c0.5-0.4,1.1-1.2,1.8-2.4l7.1-11.5c0.8-1.3,1.2-2.4,1.3-3.1s-0.3-1.4-1-1.8
		c-0.6-0.4-1.8-0.7-3.7-1.1l-0.1-0.1c-0.2-0.1-0.2-0.2-0.2-0.5c0-0.2,0.2-0.3,0.4-0.3l8.7,1c0.1,0,0.2,0.1,0.4,0.2
		c0.3,0.2,0.4,0.9,0.3,2c-0.2,1.1-0.7,2.4-1.5,3.8l0,0.1c2.7-0.9,4.8-1.4,6.1-1.5c1.4-0.1,2.5,0.1,3.3,0.6
		C62.9,36.2,63.5,37,64,37.9z"/>
	<path class="st0" d="M73.5,73.9c0.1,0.1,0.2,0.2,0.1,0.4c0,0.2-0.1,0.3-0.3,0.4c-4.1,0.1-7.5-1-10.2-3.3c-2.1-1.7-3.5-3.7-4.2-5.9
		c-0.7-2.2-0.8-4.4-0.3-6.5c0.5-2.2,1.5-4.1,3-5.9c1.7-2.1,3.8-3.6,6.3-4.5c2.4-0.9,4.9-1.1,7.5-0.7c2.6,0.4,4.9,1.5,7,3.3
		c1.9,1.6,3,3.3,3.3,5.1c0.3,1.8-0.2,3.5-1.6,5.1c-0.3,0.4-0.6,0.7-0.9,0.8c-0.2,0.1-0.5,0.1-0.7-0.1L69.3,51.3
		c-1,0.8-1.8,1.6-2.5,2.5c-2.5,3.1-3.9,6.2-4,9.3c-0.1,3.1,1.1,5.8,3.7,7.9C68.5,72.7,70.8,73.6,73.5,73.9L73.5,73.9z M75,48.9
		c-1.7,0-3.3,0.6-4.9,1.8l10,7.9c1.2-1.4,1.7-2.9,1.6-4.3c-0.1-1.4-0.8-2.6-2.1-3.7C78.2,49.4,76.6,48.8,75,48.9z"/>
	<path class="st0" d="M94,96.2c0.1,0.1,0.1,0.3,0,0.5c-0.1,0.2-0.3,0.2-0.5,0.1l-7.2-3c-0.2-0.1-0.3-0.2-0.5-0.3
		c-0.4-0.4-0.5-1.1-0.2-1.9c0.3-0.9,0.9-1.8,1.8-2.8l-4.5-1.6c-1.5-0.6-2.7-1.1-3.5-1.5c-0.8-0.5-1.6-1-2.1-1.7
		c-0.9-1.1-1.4-2.1-1.3-3.2s0.5-2,1.4-2.7c0.9-0.8,2-1.1,3.2-0.9c1.2,0.2,2.9,0.9,5.1,2.2l7.7,4.2l4.2-3.8c2.2-2,3.5-3.7,3.9-5.1
		c0.4-1.4,0.1-2.6-0.8-3.6c-1-1.2-2.3-1.7-3.6-1.6c-1.4,0.1-2.7,0.6-4,1.5c-1.4,1-2.6,1-3.6-0.1c-0.5-0.5-0.7-1.1-0.7-1.6
		c0-0.5,0.2-1,0.7-1.5c0.8-0.7,2.1-0.9,3.9-0.7c1.8,0.2,3.7,0.8,5.6,1.7c1.9,0.9,3.4,1.9,4.4,3.1c1.2,1.4,1.7,2.9,1.5,4.5
		c-0.2,1.7-1.2,3.3-3.1,5l-9,8.1c-1.2,1.1-1.9,2-2.2,2.8c-0.3,0.8-0.1,1.5,0.6,2.3c0.6,0.6,1.5,1.3,2.9,1.9L94,96.2z M88.1,88.1
		l0.3-0.3l4.3-3.8L86,80.5c-1-0.5-1.8-0.8-2.5-0.7c-0.7,0-1.3,0.3-1.9,0.8c-0.7,0.6-1.1,1.3-1.1,2.1c0,0.8,0.3,1.5,0.8,2.1
		c0.6,0.6,1.4,1.2,2.4,1.6L88.1,88.1z"/>
	<path class="st0" d="M105.2,113.5c0.1,0.2,0.1,0.3,0,0.5c-0.1,0.2-0.3,0.3-0.4,0.2c-2-0.7-3.7-1.4-4.9-2.2c-1.2-0.8-2.2-1.8-3-3
		c-1.1-1.6-1.6-3.1-1.6-4.6c0-1.5,0.9-2.8,2.5-3.9l13.3-9c1-0.7,1.6-1.2,2-1.6c0.3-0.4,0.4-0.9,0.3-1.3c-0.1-0.5-0.5-1.2-1.1-2.1
		c-0.1-0.2,0-0.3,0.2-0.5c0.2-0.2,0.4-0.2,0.5,0c1.1,1.5,2.3,2.4,3.7,2.9c1.4,0.4,2.8,0.3,4.2-0.4c0.1-0.1,0.3,0,0.5,0.3
		c0.2,0.3,0.2,0.4,0.1,0.5l-4.2,2.8c1.3,1.9,3.3,4.4,5.9,7.5c0.1,0.1,0,0.3-0.3,0.5c-0.2,0.3-0.5,0.5-0.8,0.8
		c-0.3,0.2-0.7,0.3-1.1,0.4c-0.4,0.1-0.6,0-0.7-0.1c-0.9-2.4-2.3-5.2-4.3-8.3l-14.1,9.6c-1.5,1-2.4,2.2-2.7,3.5
		c-0.2,1.3,0.1,2.6,1.1,4.1c1.2,1.7,2.7,2.9,4.7,3.5L105.2,113.5z"/>
	<path class="st0" d="M117.1,136.3c0.1,0.1,0,0.3,0,0.4c-0.1,0.2-0.2,0.2-0.4,0.2c-3.7-1.6-6.4-4-8-7.2c-1.2-2.4-1.6-4.8-1.4-7.1
		c0.2-2.3,1-4.3,2.4-6.1c1.4-1.8,3.1-3.1,5.2-4.2c2.5-1.2,5-1.7,7.6-1.5c2.6,0.2,4.9,1,7.1,2.4c2.1,1.4,3.8,3.4,5,5.9
		c1.1,2.2,1.4,4.2,0.9,6c-0.5,1.8-1.7,3.1-3.6,4c-0.5,0.2-0.9,0.4-1.2,0.4c-0.3,0-0.5-0.1-0.6-0.4l-7.5-15.1
		c-1.2,0.3-2.3,0.8-3.3,1.3c-3.6,1.7-6.1,4-7.4,6.8c-1.4,2.8-1.4,5.7,0.1,8.8C113.1,133.2,114.8,135,117.1,136.3L117.1,136.3z
		 M128.8,114.2c-1.5-0.7-3.3-0.8-5.2-0.4l5.8,11.3c1.7-0.8,2.8-1.9,3.3-3.2c0.5-1.3,0.4-2.7-0.3-4.2
		C131.5,116,130.3,114.8,128.8,114.2z"/>
	<path class="st0" d="M172.1,167.8c-0.5,1-1.2,1.6-2.2,1.7c-0.7,0-1.3-0.1-1.7-0.5c-0.4-0.3-0.7-0.8-0.8-1.4
		c-0.1-0.6-0.1-1.1,0.2-1.5c0.3-0.4,0.8-0.8,1.5-1.3c0.7-0.4,1.1-0.8,1.4-1.2c0.3-0.4,0.4-0.9,0.3-1.5c-0.4-1.7-2.2-2.9-5.6-3.4
		c-3.3-0.6-8.1-0.6-14.3-0.1l-4.3,0.3l1.2,4.2l0.7,2.6c0.1,0.4-0.1,0.6-0.5,0.6c-0.5,0-1-0.2-1.6-0.6c-0.6-0.4-1-0.8-1-1.2l-0.1-1.4
		c-0.1-1.5-0.2-2.9-0.4-4l-25.7,2c-4.5,0.4-8,0.4-10.6,0.1c-2.6-0.3-4.6-0.9-5.9-1.8c-1.3-0.9-2.2-2.3-2.6-4.2
		c-0.3-1.5-0.3-2.6,0.1-3.5c0.4-0.9,1-1.3,1.8-1.4c0.6-0.1,1.2,0,1.7,0.4c0.5,0.4,0.8,0.9,0.9,1.5c0.2,0.7,0.1,1.2-0.2,1.6
		c-0.3,0.4-0.7,0.8-1.4,1.1c-0.5,0.3-0.9,0.6-1.1,0.9c-0.2,0.3-0.3,0.6-0.2,1.1c0.1,0.5,0.6,0.9,1.3,1.1c0.8,0.2,2.2,0.3,4.2,0.3
		c2,0,5.2-0.2,9.3-0.6l24.3-1.9c0.9-0.1,1.5-0.2,1.8-0.3c0.8-0.2,1.3-0.6,1.4-1.1c0.1-0.5,0-1.6-0.4-3.1c0-0.1,0.1-0.2,0.3-0.3
		c0.1,0,0.2,0,0.3,0c0.1,0,0.2,0.1,0.2,0.1c0.4,1.6,0.8,2.6,1.4,3.2c0.6,0.6,1.5,0.8,2.6,0.8c5.7-0.3,10.1-0.3,13.3,0.1
		c3.2,0.4,5.5,1.3,7.1,2.7c1.6,1.4,2.7,3.4,3.3,6C172.6,165.5,172.5,166.8,172.1,167.8z"/>
	<path class="st0" d="M125.3,173.9c1.7-1.8,4.1-2.8,7.2-3.2c1.4-0.2,2.7-0.2,3.8-0.1c2.7,0.2,5.2,0.8,7.5,2c2.3,1.1,4.2,2.6,5.7,4.5
		c1.5,1.8,2.4,3.9,2.6,6.1c0.4,2.8-0.3,5.1-2,6.9c-1.7,1.8-4,2.9-7,3.2c-1.3,0.2-2.6,0.2-3.9,0.1c-2.8-0.2-5.4-0.9-7.8-2.1
		s-4.2-2.8-5.6-4.6c-1.4-1.9-2.2-3.8-2.5-5.9C122.9,177.9,123.6,175.7,125.3,173.9z M128.4,187.6c1.9,1.3,4.3,2.1,7.3,2.3
		c1.5,0,2.8,0,4-0.2c3.1-0.4,5.7-1.3,7.8-2.8c2.1-1.5,3-3.3,2.7-5.6c-0.2-1.9-1.3-3.6-3.2-4.9c-1.9-1.3-4.3-2.1-7.3-2.3
		c-1.4-0.1-2.8-0.1-4.2,0.1c-3,0.4-5.6,1.3-7.6,2.9c-2,1.5-2.9,3.4-2.6,5.6C125.5,184.6,126.6,186.3,128.4,187.6z"/>
	<path class="st0" d="M153.6,216.9c-0.6,0.9-1.3,1.3-2.2,1.4c-0.7,0-1.3-0.1-1.8-0.5c-0.5-0.4-0.7-0.9-0.8-1.6
		c0-0.5,0.1-0.9,0.3-1.2c0.2-0.3,0.5-0.6,1-1c0.2-0.2,0.4-0.4,0.6-0.7c0.2-0.2,0.3-0.5,0.3-0.8c-0.1-1-1.5-2.1-4.2-3.3
		c-2.7-1.2-6-2.3-9.8-3.3c-3.8-1-7.1-1.6-9.9-2c-0.3,0-0.6-0.2-0.8-0.6c-0.2-0.4-0.3-0.9-0.4-1.5c0-0.6,0-1,0-1.2
		c0.1-0.2,0.2-0.3,0.3-0.3l1.6,0.2l3.7,0.4l12.8,1.4c1.5,0.2,2.7,0.2,3.6,0.2c2-0.1,3-0.8,3-1.8c-0.1-1-1-2.3-2.8-4l-0.1-0.1
		c0-0.1,0.1-0.3,0.2-0.4c0.2-0.1,0.3-0.1,0.4-0.1c1.6,1.3,2.9,2.5,3.7,3.7c0.9,1.1,1.3,2.3,1.4,3.4c0.1,0.9-0.2,1.6-0.8,2.1
		c-0.6,0.5-1.6,0.8-3,0.9c-1.1,0.1-2.9,0-5.2-0.2l-7.9-0.9c4.9,1.2,9,2.6,12.4,4.3c3.4,1.6,5.1,3.3,5.2,5
		C154.4,215.2,154.2,216.1,153.6,216.9z"/>
	<path class="st0" d="M175.3,273.1c-0.3,0-0.4,0-0.4-0.2c-0.4-2.9-2.8-5.6-7.5-8.1l-15.5-8.6l-15.9-0.8c-0.9-0.1-1.7-0.1-2.3,0
		c-1,0.1-1.5,0.5-1.8,1.2c-0.2,0.7-0.3,1.9,0,3.6c0,0.2-0.1,0.3-0.4,0.3c-0.3,0-0.4,0-0.4-0.2c-0.1-1.2-0.2-2.2-0.3-2.9l-0.4-4.2
		l-0.6-4.3c-0.1-0.7-0.3-1.6-0.4-2.8c0-0.2,0.1-0.3,0.4-0.3c0.3,0,0.4,0,0.4,0.2c0.2,1.5,0.4,2.6,0.8,3.4c0.3,0.7,0.9,1.3,1.5,1.5
		c0.7,0.3,1.7,0.5,3.1,0.5l15.3,0.8l15.5-8.9c1.7-1,2.8-1.9,3.5-2.8c0.6-0.9,0.9-2,0.7-3.2c0-0.2,0.1-0.3,0.4-0.3
		c0.3,0,0.4,0,0.4,0.2l0.2,2.3c0,1.1,0.1,1.9,0.2,2.4c0.1,1.1,0.4,2.7,0.7,4.7l0.4,3.1c0,0.1-0.1,0.1-0.3,0.2c-0.3,0-0.5,0-0.5-0.2
		c-0.1-1.2-0.4-2.1-0.7-2.6c-0.3-0.5-0.7-0.7-1.2-0.6c-0.3,0-0.7,0.2-1.2,0.5l-15.6,8.9l14.2,7.6c1.9,1,3.3,1.5,4.3,1.3
		c1.3-0.2,1.9-1.2,1.6-3.1c0-0.2,0.1-0.3,0.4-0.3c0.3,0,0.4,0,0.4,0.2l0.3,2.7c0.1,1.6,0.2,2.9,0.4,4c0.1,0.7,0.2,1.5,0.4,2.4
		l0.3,2.2C175.7,272.9,175.5,273,175.3,273.1z"/>
	<path class="st0" d="M136.2,279c1.4-2,3.5-3.5,6.5-4.4c1.4-0.4,2.6-0.7,3.7-0.8c2.7-0.3,5.2-0.1,7.7,0.6c2.5,0.7,4.6,1.9,6.4,3.4
		c1.8,1.6,3,3.4,3.7,5.5c0.8,2.7,0.6,5.1-0.8,7.1c-1.4,2-3.5,3.5-6.3,4.4c-1.2,0.4-2.5,0.6-3.8,0.8c-2.8,0.3-5.5,0.1-8-0.7
		c-2.5-0.8-4.6-2-6.3-3.6c-1.7-1.6-2.9-3.4-3.5-5.4C134.5,283.3,134.8,281,136.2,279z M141.6,291.9c2.1,1,4.6,1.3,7.5,1
		c1.5-0.2,2.8-0.5,3.9-0.8c3-0.9,5.4-2.3,7.2-4.1c1.8-1.8,2.4-3.8,1.7-5.9c-0.6-1.9-1.9-3.3-4-4.3c-2.1-1-4.6-1.3-7.6-1
		c-1.4,0.1-2.8,0.4-4.1,0.8c-2.9,0.9-5.2,2.3-7,4.2c-1.7,1.9-2.3,3.9-1.6,6C138.2,289.5,139.6,290.9,141.6,291.9z"/>
	<path class="st0" d="M166.3,331.6c0.1,0.1,0.1,0.3,0,0.4c-0.1,0.2-0.2,0.2-0.3,0.2c-2.4-0.3-4.3-0.7-5.8-1.2
		c-1.4-0.6-2.5-1.3-3.2-2.3c-0.4-0.6-0.6-1.2-0.4-1.8c0.2-0.6,0.7-1.2,1.6-1.8c1-0.7,2-1.3,3.1-1.8l7.6-3.6c-4.8,1.4-9,1.9-12.5,1.6
		c-3.5-0.3-5.9-1.5-7.3-3.5c-1.7-2.5-1.2-4.7,1.6-6.6c1-0.7,2.2-1.3,3.5-1.9l11.4-5c0.7-0.3,1.3-0.6,1.6-0.9c1.2-0.8,1.5-1.6,1-2.3
		c-0.5-0.7-2.2-1.4-5.2-1.9c-0.1,0-0.2-0.1-0.3-0.1c-0.1-0.1-0.1-0.3,0-0.4c0.1-0.2,0.2-0.2,0.4-0.2c2.4,0.3,4.3,0.6,5.7,1.1
		c1.4,0.5,2.4,1.2,3.1,2.1c0.9,1.3,0.5,2.6-1.2,3.8c-0.6,0.4-1.6,0.9-3.2,1.6l-10.2,4.4c-1.6,0.7-2.7,1.3-3.4,1.8
		c-2.1,1.5-2.6,3-1.5,4.6c0.9,1.2,2.5,2,5,2.2c2.5,0.2,5.7-0.1,9.5-1c3.8-0.9,8-2.4,12.6-4.6c0.6-0.3,1.3,0.1,2.1,1.2
		c0.6,0.9,0.8,1.4,0.6,1.6l-1.4,0.7c-1.1,0.4-2.2,0.9-3.4,1.5l-14.1,6.4c-0.6,0.3-1.2,0.6-1.6,0.9c-1.2,0.8-1.5,1.6-1,2.4
		c0.3,0.4,0.9,0.8,1.8,1.2c0.9,0.4,2.1,0.7,3.5,0.9C166.2,331.5,166.3,331.5,166.3,331.6z"/>
	<path class="st0" d="M202.5,335.7c0.2,1,0,1.9-0.5,2.5c-0.4,0.5-1,0.8-1.6,0.9c-0.6,0.1-1.2-0.1-1.7-0.5c-0.4-0.3-0.6-0.7-0.7-1
		c-0.1-0.4-0.1-0.8,0-1.4c0-0.3,0-0.6,0-0.9c0-0.3-0.2-0.5-0.4-0.7c-0.8-0.6-2.5-0.4-5.3,0.7c-2.8,1.1-5.8,2.7-9.2,4.7
		s-6.1,3.9-8.4,5.7c-0.2,0.2-0.6,0.3-1,0.2c-0.4-0.1-0.9-0.4-1.4-0.8c-0.5-0.4-0.7-0.7-0.8-0.9s-0.1-0.3,0-0.4l1.3-1l2.9-2.3
		l9.9-8.2c1.2-1,2.1-1.8,2.6-2.4c1.3-1.6,1.6-2.7,0.7-3.4c-0.8-0.6-2.4-0.9-4.8-0.8l-0.1,0c-0.1-0.1-0.1-0.2-0.1-0.4
		c0-0.2,0.1-0.3,0.2-0.3c2.1-0.3,3.8-0.3,5.2-0.1c1.4,0.2,2.5,0.6,3.4,1.4c0.7,0.6,1,1.3,1,2c-0.1,0.7-0.6,1.7-1.5,2.8
		c-0.7,0.9-2,2.1-3.8,3.6l-6.1,5c4.3-2.6,8.2-4.6,11.7-5.9c3.5-1.3,5.9-1.4,7.3-0.3C201.9,333.9,202.3,334.7,202.5,335.7z"/>
	<path class="st0" d="M192.4,359.6c-0.6-1.4-0.6-2.5,0.2-3.4c0.3-0.5,0.8-0.8,1.3-0.8c0.5-0.1,1,0,1.4,0.3c0.4,0.2,0.6,0.5,0.6,0.9
		c0.1,0.4,0.1,0.9,0.1,1.7c0,1.1,0.1,2,0.3,2.7c0.2,0.7,0.8,1.4,1.8,2c2.1,1.3,4.1,0.9,5.9-1.3c0.2-0.2,0.3-0.4,0.5-0.7
		c0.7-1.1,1-2.3,0.8-3.5c-0.1-1.2-0.5-2.7-1.2-4.6c-0.6-1.8-1-3.3-1.2-4.5c-0.2-1.2,0.1-2.4,0.8-3.5c0.1-0.2,0.4-0.5,0.7-0.9
		c1.4-1.5,3.2-2.4,5.3-2.5c2.1-0.1,4.1,0.4,5.9,1.5c1.3,0.8,2.3,1.7,2.9,2.8c0.6,1.1,0.7,2,0.2,2.8c-0.4,0.6-0.8,0.9-1.4,1
		c-0.6,0.1-1.1,0-1.5-0.3c-0.4-0.3-0.7-0.6-0.9-1c-0.1-0.4-0.3-1-0.3-1.6c0-0.9-0.2-1.6-0.4-2.1c-0.2-0.5-0.7-1-1.5-1.5
		c-0.9-0.6-1.8-0.8-2.7-0.6c-0.9,0.2-1.6,0.8-2.3,1.8c-0.6,1.1-0.9,2.2-0.8,3.4c0.1,1.2,0.5,2.8,1.1,4.6c0.6,2,1,3.7,1.1,4.9
		c0.1,1.2-0.2,2.4-0.9,3.6c-0.8,1.2-1.9,2.2-3.3,3c-1.5,0.7-3.1,1.1-4.8,1c-1.7,0-3.3-0.5-4.8-1.4
		C194.1,362.1,193.1,360.9,192.4,359.6z"/>
	<path class="st0" d="M237.7,361.2c-1.9,0.6-4.2,0.8-6.8,0.6c-2.7-0.2-5.4-0.6-8.2-1.4c-0.8,1.2-1.4,2.3-1.9,3.3
		c-1.2,2.6-1.5,4.9-1.1,7c0.5,2.1,1.7,3.6,3.9,4.6c2.3,1.1,4.7,1.3,7.2,0.8l0.1,0.1c0.1,0.1,0.2,0.2,0.3,0.3c0,0.2,0,0.3-0.2,0.4
		c-4,1.1-7.6,0.9-10.7-0.5c-2.6-1.2-4.2-2.9-4.8-5.2c-0.6-2.3-0.3-4.8,0.9-7.4c0.4-0.9,1-1.9,1.8-3.1c1.3-1.9,3.2-3.6,5.5-5.1
		c2.3-1.4,4.8-2.3,7.4-2.7c2.7-0.4,5.1-0.1,7.4,0.9c1.4,0.6,2.3,1.4,2.8,2.2c0.5,0.8,0.6,1.7,0.2,2.6
		C240.8,359.7,239.6,360.6,237.7,361.2z M228.9,354.4c-2.1,1.1-4,2.8-5.6,5.2c3.1,0.8,5.8,1.1,8.1,1c2.3-0.2,3.9-0.9,5-2.3
		c0.3-0.4,0.4-0.6,0.5-0.8c0.3-0.7,0.3-1.4-0.2-2c-0.4-0.6-1-1.1-1.8-1.5C233,353.2,231,353.4,228.9,354.4z"/>
	<path class="st0" d="M238.8,383c-0.2-0.6-0.1-1.4,0.3-2.5c0.3-0.9,0.8-2,1.6-3.2l18.5-32c0.2-0.3,0.4-0.8,0.6-1.4
		c0.4-1.1,0.1-1.8-0.7-2.1c-0.7-0.2-1.8-0.3-3.4-0.1l-0.1,0c-0.2-0.1-0.3-0.2-0.2-0.4c0-0.2,0.1-0.3,0.3-0.3l9.8-1.1l0.1,0
		c0.2,0.1,0.3,0.2,0.4,0.4c0.1,0.2,0.1,0.3,0,0.4l-21.8,37.9c-0.5,0.9-0.8,1.5-0.9,1.7c-0.2,0.6-0.3,1.2-0.2,1.6
		c0.1,0.4,0.4,0.7,0.8,0.8c0.9,0.3,2.7-0.2,5.2-1.5c0.1-0.1,0.2-0.1,0.3,0c0.1,0,0.2,0.2,0.2,0.3c0,0.2,0,0.3-0.2,0.4
		c-2.1,1.2-3.8,2-5.2,2.4s-2.7,0.4-3.8,0.1C239.5,384,239,383.6,238.8,383z"/>
	<path class="st0" d="M289.5,347.8c0.7,0.9,0.8,1.8,0.5,2.7c-0.3,0.6-0.7,1-1.2,1.2s-1.1,0.2-1.6,0.1c-0.6-0.2-1-0.5-1.2-0.9
		c-0.2-0.4-0.3-1.1-0.4-2c-0.1-0.8-0.2-1.4-0.4-1.9c-0.2-0.5-0.6-0.8-1.2-1c-1.7-0.5-3.6,0.6-5.7,3.2c-2.1,2.6-4.4,6.8-7,12.5
		l-1.8,3.9l4.3,0.9l2.6,0.6c0.4,0.1,0.5,0.4,0.3,0.7c-0.3,0.4-0.7,0.8-1.3,1.2c-0.6,0.4-1.1,0.5-1.5,0.3l-1.3-0.6
		c-1.4-0.7-2.6-1.2-3.8-1.6L258.2,391c-1.8,4.1-3.5,7.2-5,9.4c-1.5,2.2-3,3.6-4.4,4.3c-1.5,0.7-3.1,0.8-5,0.3c-1.4-0.4-2.5-1-3-1.7
		c-0.6-0.8-0.7-1.5-0.3-2.3c0.2-0.6,0.6-1,1.1-1.3c0.5-0.2,1.1-0.3,1.8-0.1c0.7,0.2,1.1,0.5,1.3,0.9c0.2,0.4,0.3,1,0.4,1.7
		c0,0.6,0.1,1.1,0.2,1.4c0.1,0.3,0.4,0.5,0.8,0.7c0.5,0.1,1.1-0.1,1.6-0.6c0.6-0.6,1.3-1.8,2.3-3.6c0.9-1.8,2.3-4.6,4-8.5l10-22.3
		c0.3-0.9,0.5-1.4,0.6-1.7c0.2-0.8,0.1-1.4-0.3-1.8c-0.4-0.4-1.4-0.8-2.9-1.2c-0.1,0-0.2-0.2-0.1-0.4c0-0.1,0.1-0.2,0.2-0.3
		c0.1-0.1,0.2-0.1,0.2-0.1c1.5,0.4,2.7,0.5,3.5,0.3c0.8-0.2,1.5-0.9,1.9-1.9c2.4-5.2,4.6-9,6.5-11.6c1.9-2.6,3.8-4.2,5.7-5
		c1.9-0.7,4.2-0.7,6.9,0C287.8,346.2,288.9,346.9,289.5,347.8z"/>
</g>
</svg>
