<?xml version="1.0" encoding="utf-8"?>
<!-- Generator: Adobe Illustrator 25.4.1, SVG Export Plug-In . SVG Version: 6.00 Build 0)  -->
<svg version="1.1" id="レイヤー_1" xmlns="http://www.w3.org/2000/svg" xmlns:xlink="http://www.w3.org/1999/xlink" x="0px"
	 y="0px" viewBox="0 0 414 115" style="enable-background:new 0 0 414 115;" xml:space="preserve">
<style type="text/css">
	.st0{fill:#FFFFFF;}
</style>
<g>
	<g>
		<path class="st0" d="M34,78.2H10.6v9.8h20.5v8.1H10.6v17.6H0.3v-44H34V78.2z"/>
		<path class="st0" d="M49.7,77.5H40v-7.7h9.8V77.5z M49.7,113.8H40V81.9h9.8V113.8z"/>
		<path class="st0" d="M67.9,113.8h-9.8v-44h9.8V113.8z"/>
		<path class="st0" d="M93.2,88.9h-6v12.4c0,5,0.2,5.4,2.5,5.4h3.5v7.1h-6c-4.3,0-6.4-0.6-7.8-2.1c-1.5-1.6-1.9-3.3-1.9-8.3V88.9
			h-4.7v-6.6h4.7V72.2h9.8v10.1h6V88.9z"/>
		<path class="st0" d="M106.8,100.6c0.6,4.4,3.3,6.7,7.5,6.7c2.6,0,4.5-0.9,5.8-2.8h9.9c-1.9,6.2-8,10.2-15.9,10.2
			c-10.2,0-17-6.7-17-16.8c0-10,6.9-16.8,17-16.8c7,0,12.3,3.4,14.8,9.4c1.2,2.8,1.6,5.7,1.6,10.2H106.8z M120.4,94
			c-0.4-3.8-2.7-5.8-6.5-5.8s-6.2,2-7,5.8H120.4z"/>
		<path class="st0" d="M146.8,81.9l-0.3,5.7c1.9-5.1,4.4-6.6,11.5-6.5v8.8c-1.2-0.1-1.6-0.1-2.5-0.1c-3.4,0-6.1,1.5-7.2,3.8
			c-1,2.1-1.3,5.1-1.3,11.2v9h-9.8V81.9H146.8z"/>
		<path class="st0" d="M194.5,113.8h-10.3v-44h18c6.2,0,9.5,0.9,12.5,3.4c3.2,2.7,4.9,6.7,4.9,11.5c0,4-1.3,7.5-3.9,10.2
			c-2.7,2.8-6.2,4-11.5,4h-9.7V113.8z M202.6,90.4c4.1,0,6.5-2.3,6.5-6.1c0-3.8-2.5-6.1-6.5-6.1h-8.1v12.1H202.6z"/>
		<path class="st0" d="M259,98.1c0,9.6-7.4,16.6-17.6,16.6c-10.3,0-17.6-6.9-17.6-16.8c0-9.8,7.3-16.8,17.6-16.8
			C251.8,81.1,259,87.9,259,98.1z M233.6,97.8c0,6,2.8,9.4,7.8,9.4c4.9,0,7.8-3.4,7.8-9.2c0-6.1-2.7-9.5-7.8-9.5
			C236.4,88.5,233.6,91.9,233.6,97.8z"/>
		<path class="st0" d="M271.5,113.8l-9.9-31.9h9.9l2.8,10.4c0.8,2.8,1.8,7.7,2.2,10.3c1-4.8,1.8-8.5,2.3-10.3l2.8-10.4h8.4l3,10.4
			c1.2,4.9,1.9,7.7,2.3,10.3c0.5-3.3,1.2-6.2,2.1-10.3l2.6-10.4h10.1l-9.4,31.9h-9.3l-3.1-11.2c-1-3.8-1.6-6.5-2.5-10.7
			c-1,4.4-1.8,7.9-2.5,10.7l-2.7,11.2H271.5z"/>
		<path class="st0" d="M345.9,113.8h-9.3v-3.4c-2.5,3.1-5.1,4.3-9.1,4.3c-8.7,0-14.6-6.7-14.6-16.8c0-10.2,5.9-16.9,14.8-16.9
			c3.6,0,6.1,1,8.4,3.3V69.8h9.8V113.8z M322.5,97.8c0,5.6,2.7,9.2,7,9.2c4.2,0,7-3.7,7-9.1c0-5.7-2.7-9.4-7-9.4
			C325.2,88.6,322.5,92.2,322.5,97.8z"/>
		<path class="st0" d="M362.5,100.6c0.6,4.4,3.3,6.7,7.5,6.7c2.6,0,4.5-0.9,5.8-2.8h9.9c-1.9,6.2-8,10.2-15.9,10.2
			c-10.2,0-17-6.7-17-16.8c0-10,6.9-16.8,17-16.8c7,0,12.3,3.4,14.8,9.4c1.2,2.8,1.6,5.7,1.6,10.2H362.5z M376,94
			c-0.4-3.8-2.7-5.8-6.5-5.8s-6.2,2-7,5.8H376z"/>
		<path class="st0" d="M402.5,81.9l-0.3,5.7c1.9-5.1,4.4-6.6,11.5-6.5v8.8c-1.2-0.1-1.6-0.1-2.5-0.1c-3.4,0-6.1,1.5-7.2,3.8
			c-1,2.1-1.3,5.1-1.3,11.2v9h-9.8V81.9H402.5z"/>
	</g>
	<g>
		<g>
			<path class="st0" d="M53.3,44.4l-15.1-44h11.1l6,20.1c0,0.1,0.5,1.7,0.9,3.2c0.3,1.3,0.8,2.6,1.1,3.8l1.4,4.9
				c1.2-4.9,1.6-6.2,3.2-12l6.1-20h10.8l-15.3,44H53.3z"/>
			<path class="st0" d="M91.2,31.2c0.6,4.4,3.3,6.7,7.5,6.7c2.6,0,4.5-0.9,5.8-2.8h9.9c-1.9,6.2-8,10.2-15.9,10.2
				c-10.2,0-17-6.7-17-16.8c0-10,6.9-16.8,17-16.8c7,0,12.3,3.4,14.8,9.4c1.2,2.8,1.6,5.7,1.6,10.2H91.2z M104.7,24.6
				c-0.4-3.8-2.7-5.8-6.5-5.8s-6.2,2-7,5.8H104.7z"/>
			<path class="st0" d="M153.3,12.7v28.7c0,5.2-0.8,7.5-3.1,9.7c-3,2.8-7.6,4.3-13.3,4.3c-9.3,0-14.8-3.6-15.5-10.2h10.1
				c0.7,2,2.6,3,5.8,3c1.9,0,3.6-0.5,4.6-1.3c1.4-1.1,1.9-2.3,1.9-5.5v-2.1c-3,2.6-5.2,3.4-8.9,3.4c-8.7,0-15-6.4-15-15.4
				c0-9,6.3-15.6,14.7-15.6c4.3,0,7.4,1.6,9.7,5l-0.2-3.9H153.3z M129.2,27.1c0,4.7,3,7.9,7.3,7.9c4.5,0,7.3-3.1,7.3-8.1
				c0-4.7-3-7.8-7.3-7.8S129.2,22.4,129.2,27.1z"/>
			<path class="st0" d="M161.8,22.5c0.6-7.3,5.4-10.9,14.7-10.9c5,0,8.9,1.1,11.5,3.3c2.4,2,3.3,4.6,3.3,9.3v14.7
				c0,3.4,0.1,3.9,1.2,5.5h-10c-0.4-1.1-0.4-1.3-0.8-2.5c-3.2,2.6-5.6,3.4-9.5,3.4c-7.3,0-12.2-4-12.2-10s3.9-9.1,13.2-10.6l5.3-0.9
				c2.2-0.3,3-0.9,3-2.2c0-1.8-1.9-2.9-5.1-2.9c-3.6,0-5.5,1.2-5.9,3.8H161.8z M181.8,29.2c-1,0.4-1.9,0.7-3.6,1l-3.5,0.7
				c-3.5,0.8-5,1.9-5,3.8c0,2.1,1.9,3.4,4.9,3.4c3.2,0,5.6-1.3,7.1-4V29.2z"/>
			<path class="st0" d="M209.3,12.5v3.1c3.6-3.2,5.6-4,9.1-4c7.2,0,11.6,4.6,11.6,12.1v20.7h-9.8V27c0-3.2-0.2-4.5-1-5.7
				s-2.3-1.8-4-1.8c-1.6,0-3.2,0.6-4.2,1.7c-1.1,1.2-1.4,2.5-1.4,5.3v17.9h-9.8V12.5H209.3z"/>
			<path class="st0" d="M269.6,44.4l-15.1-44h11.1l6,20.1c0,0.1,0.5,1.7,0.9,3.2c0.3,1.3,0.8,2.6,1.1,3.8l1.4,4.9
				c1.2-4.9,1.6-6.2,3.2-12l6.1-20h10.8l-15.3,44H269.6z"/>
			<path class="st0" d="M309,8.1h-9.8V0.3h9.8V8.1z M309,44.4h-9.8V12.5h9.8V44.4z"/>
			<path class="st0" d="M334.3,19.5h-6v12.4c0,5,0.2,5.4,2.5,5.4h3.5v7.1h-6c-4.3,0-6.4-0.6-7.8-2.1c-1.5-1.6-1.9-3.3-1.9-8.3V19.5
				h-4.7v-6.6h4.7V2.8h9.8v10.1h6V19.5z"/>
			<path class="st0" d="M339.8,22.5c0.6-7.3,5.4-10.9,14.7-10.9c5,0,8.9,1.1,11.5,3.3c2.4,2,3.3,4.6,3.3,9.3v14.7
				c0,3.4,0.1,3.9,1.2,5.5h-10c-0.4-1.1-0.4-1.3-0.8-2.5c-3.2,2.6-5.6,3.4-9.5,3.4c-7.3,0-12.2-4-12.2-10s3.9-9.1,13.2-10.6l5.3-0.9
				c2.2-0.3,3-0.9,3-2.2c0-1.8-1.9-2.9-5.1-2.9c-3.6,0-5.5,1.2-5.9,3.8H339.8z M359.8,29.2c-1,0.4-1.9,0.7-3.6,1l-3.5,0.7
				c-3.5,0.8-5,1.9-5,3.8c0,2.1,1.9,3.4,4.9,3.4c3.2,0,5.6-1.3,7.1-4V29.2z"/>
		</g>
	</g>
</g>
</svg>
