<?xml version="1.0" encoding="utf-8"?>
<!-- Generator: Adobe Illustrator 25.4.1, SVG Export Plug-In . SVG Version: 6.00 Build 0)  -->
<svg version="1.1" id="レイヤー_1" xmlns="http://www.w3.org/2000/svg" xmlns:xlink="http://www.w3.org/1999/xlink" x="0px"
	 y="0px" viewBox="0 0 246 25" style="enable-background:new 0 0 246 25;" xml:space="preserve">
<style type="text/css">
	.st0{fill:#D2AA86;stroke:#D2AA86;stroke-width:0.25;stroke-miterlimit:10;}
</style>
<g>
	<g>
		<path class="st0" d="M3.3,2C3.3,2.1,3.2,2.2,3.1,2.3C3,2.4,3,2.5,2.9,2.7c0,0.2,0,0.4,0,0.7C3,3.7,3,4,3.2,4.4l4.1,13.2l4-13.1
			c0.1-0.5,0.2-0.8,0.3-1.1c0-0.3,0.1-0.5,0-0.7c0-0.2,0-0.3-0.1-0.4c-0.1-0.1-0.1-0.2-0.2-0.2H13c-0.1,0-0.2,0.1-0.3,0.2
			c-0.1,0.1-0.2,0.3-0.4,0.5c-0.1,0.3-0.3,0.6-0.5,1.1c-0.2,0.5-0.4,1.1-0.6,1.9L6.9,20.1H6.7L1.6,3.8C1.4,3.2,1.2,2.8,1,2.5
			C0.8,2.3,0.6,2.1,0.5,2H3.3z"/>
		<path class="st0" d="M21.7,5.3c0.8,0,1.5,0.1,2,0.4C24.3,6,24.8,6.4,25.2,7c0.4,0.5,0.7,1.2,0.8,1.9c0.2,0.7,0.3,1.5,0.3,2.4h-8.2
			c0,0.3,0,0.5-0.1,0.8c0,0.3,0,0.5,0,0.8c0,1,0.1,1.9,0.3,2.8s0.5,1.6,0.8,2.2s0.8,1.1,1.3,1.5c0.5,0.4,1,0.5,1.6,0.5
			c0.5,0,1-0.1,1.4-0.4c0.4-0.3,0.8-0.6,1.2-1.1c0.4-0.5,0.7-1,0.9-1.7c0.3-0.7,0.5-1.4,0.7-2.1l-0.2,3.8c-0.6,0.6-1.2,1.1-2,1.4
			c-0.7,0.3-1.4,0.5-2.1,0.5c-0.8,0-1.6-0.2-2.3-0.5c-0.7-0.4-1.3-0.9-1.8-1.5c-0.5-0.6-0.9-1.4-1.2-2.3c-0.3-0.9-0.4-1.9-0.4-3
			c0-1.1,0.1-2.1,0.4-3c0.2-0.9,0.6-1.7,1-2.4s1-1.2,1.6-1.6C20.1,5.5,20.9,5.3,21.7,5.3z M18.1,11h6.7c0-0.8-0.1-1.5-0.2-2.1
			c-0.1-0.6-0.3-1.2-0.6-1.7c-0.3-0.5-0.6-0.9-1-1.1c-0.4-0.3-0.8-0.4-1.3-0.4c-0.5,0-0.9,0.1-1.3,0.4c-0.4,0.3-0.7,0.6-1,1.1
			c-0.3,0.5-0.6,1-0.8,1.7C18.4,9.5,18.2,10.2,18.1,11z"/>
		<path class="st0" d="M29.5,21.1c0-0.8,0.3-1.5,0.9-2c0.6-0.5,1.6-0.7,3-0.8c-0.9-0.1-1.6-0.4-2-0.8c-0.4-0.4-0.6-0.9-0.6-1.5
			c0-0.3,0.1-0.6,0.2-0.8c0.1-0.2,0.3-0.4,0.4-0.6s0.4-0.3,0.7-0.3c0.2-0.1,0.5-0.1,0.8-0.1h0.3c-0.7-0.3-1.3-0.9-1.7-1.6
			s-0.6-1.6-0.6-2.6c0-0.7,0.1-1.3,0.3-1.8c0.2-0.6,0.5-1,0.8-1.4c0.4-0.4,0.8-0.7,1.3-0.9c0.5-0.2,1-0.3,1.6-0.3
			c0.5,0,1,0.1,1.4,0.2s0.8,0.4,1.2,0.7c0.1-0.9,0.3-1.7,0.7-2.2c0.4-0.5,0.8-0.8,1.3-0.8c0.3,0,0.5,0.1,0.7,0.3
			c0.2,0.2,0.3,0.5,0.3,0.8c0,0.3-0.1,0.6-0.2,0.8c-0.2,0.2-0.4,0.3-0.6,0.3c-0.1,0-0.3,0-0.4-0.1c-0.1-0.1-0.2-0.1-0.3-0.2
			c-0.1-0.1-0.2-0.1-0.3-0.2c-0.1-0.1-0.2-0.1-0.3-0.1c-0.2,0-0.3,0.1-0.4,0.3c-0.1,0.2-0.2,0.6-0.2,1.2c0.4,0.4,0.7,0.9,1,1.5
			c0.2,0.6,0.4,1.3,0.4,2c0,0.7-0.1,1.3-0.3,1.9c-0.2,0.6-0.5,1-0.8,1.5c-0.4,0.4-0.8,0.7-1.3,0.9c-0.5,0.2-1.1,0.3-1.6,0.3
			c-0.3,0-0.6,0-0.8-0.1c-0.2,0-0.3,0-0.4,0c-0.1,0-0.2,0-0.3,0c-0.5,0-0.9,0.1-1.2,0.3c-0.3,0.2-0.4,0.4-0.4,0.8
			c0,0.3,0.1,0.5,0.2,0.6c0.2,0.2,0.3,0.3,0.5,0.4c0.2,0.1,0.4,0.1,0.6,0.2l2.3,0.4c0.8,0.1,1.4,0.3,2,0.4c0.6,0.1,1.1,0.3,1.5,0.6
			c0.4,0.2,0.7,0.5,1,0.9c0.2,0.4,0.3,0.9,0.3,1.5c0,0.6-0.1,1.2-0.4,1.7c-0.3,0.5-0.6,1-1.1,1.3c-0.5,0.4-1,0.6-1.7,0.8
			c-0.7,0.2-1.4,0.3-2.2,0.3c-0.7,0-1.3-0.1-2-0.2c-0.7-0.1-1.2-0.4-1.7-0.7c-0.5-0.3-0.9-0.7-1.2-1.1
			C29.7,22.2,29.5,21.7,29.5,21.1z M30.7,21.1c0,1,0.4,1.7,1.1,2.3c0.7,0.5,1.8,0.8,3.1,0.8c0.7,0,1.3-0.1,1.9-0.2
			c0.5-0.2,1-0.4,1.4-0.6c0.4-0.3,0.7-0.6,0.9-0.9c0.2-0.3,0.3-0.7,0.3-1.1c0-0.6-0.2-1.1-0.5-1.4c-0.4-0.4-0.8-0.6-1.3-0.8
			c-0.5-0.2-1.1-0.3-1.6-0.4c-0.6-0.1-1.1-0.1-1.5-0.1c-0.7,0-1.3,0.1-1.8,0.2c-0.5,0.1-0.9,0.3-1.1,0.5c-0.3,0.2-0.5,0.5-0.6,0.8
			S30.7,20.7,30.7,21.1z M35,14.2c0.4,0,0.7-0.1,1-0.3c0.3-0.2,0.6-0.5,0.8-0.8c0.2-0.3,0.4-0.7,0.5-1.2c0.1-0.5,0.2-1,0.2-1.6
			s-0.1-1.1-0.2-1.7c-0.1-0.5-0.3-1-0.6-1.4c-0.2-0.4-0.5-0.8-0.9-1s-0.7-0.4-1.2-0.4c-0.4,0-0.7,0.1-1,0.3
			c-0.3,0.2-0.6,0.5-0.8,0.8c-0.2,0.3-0.4,0.8-0.5,1.2c-0.1,0.5-0.2,1-0.2,1.5c0,0.6,0.1,1.1,0.2,1.7c0.1,0.5,0.3,1,0.6,1.5
			c0.2,0.4,0.5,0.8,0.9,1C34.2,14,34.6,14.2,35,14.2z"/>
		<path class="st0" d="M48.2,12l2.2-0.7V9.5c0-1.3-0.2-2.3-0.6-2.9c-0.4-0.6-1-0.9-1.7-0.9c-0.4,0-0.7,0.1-1.1,0.2
			c-0.4,0.2-0.7,0.5-1.1,0.9c-0.3,0.4-0.6,1-0.9,1.7s-0.5,1.6-0.7,2.8l-0.1-4.3c0.5-0.5,1.1-0.9,1.8-1.2c0.7-0.3,1.4-0.4,2.2-0.4
			c1.1,0,2,0.4,2.7,1.1c0.7,0.7,1,1.8,1,3.2v8.2c0,0.5,0,0.9,0.1,1.3c0.1,0.4,0.2,0.7,0.4,0.9l-1.9,0.1v-3.4
			c-0.1,0.4-0.3,0.9-0.5,1.3s-0.4,0.8-0.7,1.1c-0.3,0.3-0.6,0.6-1,0.8c-0.4,0.2-0.9,0.3-1.4,0.3c-0.5,0-0.9-0.1-1.3-0.2
			s-0.8-0.4-1.1-0.6c-0.3-0.3-0.5-0.6-0.7-1.1c-0.2-0.4-0.3-0.9-0.3-1.5c0-0.8,0.2-1.4,0.5-2c0.3-0.5,0.7-1,1.2-1.4
			c0.5-0.4,1-0.7,1.5-0.9C47.2,12.4,47.7,12.2,48.2,12z M45,16.8c0,0.9,0.2,1.6,0.5,2.2c0.4,0.6,0.9,0.9,1.5,0.9
			c0.4,0,0.7-0.1,1.1-0.3s0.7-0.5,1-0.9c0.3-0.4,0.6-0.9,0.8-1.5c0.2-0.6,0.3-1.3,0.4-2.1v-3.2l-2.1,0.7c-0.3,0.1-0.6,0.2-1,0.4
			c-0.4,0.2-0.7,0.4-1.1,0.7c-0.3,0.3-0.6,0.7-0.8,1.3C45.1,15.3,45,16,45,16.8z"/>
		<path class="st0" d="M55.8,20.1c0.2-0.1,0.4-0.2,0.5-0.3s0.2-0.2,0.3-0.4c0.1-0.2,0.1-0.4,0.2-0.6c0-0.3,0-0.6,0-0.9V8.2
			c0-0.4,0-0.7,0-0.9c0-0.3,0-0.5-0.1-0.7S56.6,6.2,56.6,6c-0.1-0.2-0.2-0.3-0.3-0.5l2-0.2v4.1c0.3-1.3,0.8-2.3,1.6-3
			c0.7-0.7,1.6-1.1,2.7-1.1c0.6,0,1.2,0.1,1.7,0.4c0.5,0.2,0.9,0.6,1.2,1c0.3,0.4,0.6,0.9,0.8,1.5c0.2,0.6,0.3,1.3,0.3,2v7.7
			c0,0.4,0,0.7,0,0.9c0,0.3,0.1,0.5,0.2,0.6c0.1,0.2,0.2,0.3,0.3,0.4c0.1,0.1,0.3,0.2,0.5,0.3H64c0.2-0.1,0.4-0.2,0.5-0.3
			c0.1-0.1,0.2-0.2,0.3-0.4c0.1-0.2,0.1-0.4,0.2-0.6c0-0.3,0-0.6,0-0.9v-8c0-1.3-0.2-2.3-0.7-3.1c-0.5-0.7-1.2-1.1-2-1.1
			c-0.5,0-1,0.1-1.5,0.4c-0.5,0.3-0.9,0.6-1.2,1.1c-0.4,0.5-0.7,1.1-0.9,1.8c-0.2,0.7-0.4,1.5-0.4,2.4v6.4c0,0.4,0,0.7,0,0.9
			c0,0.3,0.1,0.5,0.2,0.6c0.1,0.2,0.2,0.3,0.3,0.4c0.1,0.1,0.3,0.2,0.5,0.3H55.8z"/>
		<path class="st0" d="M81.6,2c-0.1,0.1-0.2,0.1-0.3,0.2c-0.1,0.1-0.1,0.2-0.2,0.4c0,0.2,0,0.4,0,0.7c0,0.3,0.1,0.6,0.2,1.1
			l4.1,13.2l4-13.1c0.1-0.5,0.2-0.8,0.3-1.1c0-0.3,0.1-0.5,0-0.7c0-0.2,0-0.3-0.1-0.4c-0.1-0.1-0.1-0.2-0.2-0.2h1.7
			c-0.1,0-0.2,0.1-0.3,0.2c-0.1,0.1-0.2,0.3-0.4,0.5c-0.1,0.3-0.3,0.6-0.5,1.1c-0.2,0.5-0.4,1.1-0.6,1.9l-4.4,14.4H85L79.8,3.8
			c-0.2-0.6-0.4-1.1-0.6-1.3C79,2.3,78.9,2.1,78.7,2H81.6z"/>
		<path class="st0" d="M94.6,20.1c0.2-0.1,0.4-0.2,0.5-0.3s0.2-0.2,0.3-0.4c0.1-0.2,0.1-0.4,0.2-0.6c0-0.3,0-0.6,0-0.9V8.2
			c0-0.4,0-0.7,0-0.9c0-0.3,0-0.5-0.1-0.7S95.4,6.2,95.4,6c-0.1-0.2-0.2-0.3-0.3-0.5l2-0.2v12.6c0,0.4,0,0.7,0,0.9
			c0,0.3,0.1,0.5,0.2,0.6c0.1,0.2,0.2,0.3,0.3,0.4s0.3,0.2,0.5,0.3H94.6z M96.3,0.8c0.3,0,0.5,0.1,0.7,0.4c0.2,0.2,0.3,0.6,0.3,0.9
			c0,0.4-0.1,0.7-0.3,1c-0.2,0.2-0.4,0.4-0.7,0.4c-0.3,0-0.5-0.1-0.7-0.4c-0.2-0.2-0.3-0.6-0.3-1c0-0.4,0.1-0.7,0.3-0.9
			C95.8,0.9,96,0.8,96.3,0.8z"/>
		<path class="st0" d="M103.3,5.4l1.3-3.6v3.6h3.2v0.3h-3.2v11.2c0,0.6,0,1,0.1,1.4c0.1,0.4,0.1,0.7,0.2,0.9
			c0.1,0.2,0.2,0.4,0.4,0.5c0.2,0.1,0.3,0.1,0.6,0.1c0.4,0,0.7-0.1,1-0.4c0.3-0.3,0.5-0.7,0.7-1.2l0.3,0.2c-0.3,0.6-0.5,1-0.8,1.3
			c-0.3,0.3-0.8,0.5-1.3,0.5c-0.9,0-1.5-0.4-1.9-1.1c-0.4-0.7-0.6-1.7-0.6-3V5.7h-1.9V5.4H103.3z"/>
		<path class="st0" d="M116,12l2.2-0.7V9.5c0-1.3-0.2-2.3-0.6-2.9c-0.4-0.6-1-0.9-1.7-0.9c-0.4,0-0.7,0.1-1.1,0.2
			c-0.4,0.2-0.7,0.5-1.1,0.9c-0.3,0.4-0.6,1-0.9,1.7c-0.3,0.7-0.5,1.6-0.7,2.8l-0.1-4.3c0.5-0.5,1.1-0.9,1.8-1.2
			c0.7-0.3,1.4-0.4,2.2-0.4c1.1,0,2.1,0.4,2.7,1.1c0.7,0.7,1,1.8,1,3.2v8.2c0,0.5,0,0.9,0.1,1.3c0.1,0.4,0.2,0.7,0.4,0.9l-1.9,0.1
			v-3.4c-0.1,0.4-0.3,0.9-0.5,1.3c-0.2,0.4-0.4,0.8-0.7,1.1c-0.3,0.3-0.6,0.6-1,0.8c-0.4,0.2-0.9,0.3-1.4,0.3
			c-0.5,0-0.9-0.1-1.3-0.2c-0.4-0.1-0.8-0.4-1.1-0.6c-0.3-0.3-0.5-0.6-0.7-1.1c-0.2-0.4-0.3-0.9-0.3-1.5c0-0.8,0.2-1.4,0.5-2
			c0.3-0.5,0.7-1,1.2-1.4c0.5-0.4,1-0.7,1.5-0.9C115,12.4,115.5,12.2,116,12z M112.8,16.8c0,0.9,0.2,1.6,0.5,2.2s0.9,0.9,1.5,0.9
			c0.4,0,0.7-0.1,1.1-0.3s0.7-0.5,1-0.9c0.3-0.4,0.6-0.9,0.8-1.5c0.2-0.6,0.3-1.3,0.4-2.1v-3.2l-2.1,0.7c-0.3,0.1-0.6,0.2-1,0.4
			c-0.4,0.2-0.7,0.4-1.1,0.7c-0.3,0.3-0.6,0.7-0.8,1.3S112.8,16,112.8,16.8z"/>
		<path class="st0" d="M138.3,1.9c0.3,0,0.6,0,0.9,0.1c0.4,0.1,0.7,0.1,1.1,0.3c0.4,0.1,0.8,0.3,1.2,0.5s0.8,0.5,1.2,0.8l0.3,6
			c-0.4-2.5-1-4.3-1.9-5.5c-0.9-1.2-1.9-1.8-3.1-1.8c-0.6,0-1.3,0.2-1.8,0.5s-1.1,0.9-1.5,1.7c-0.4,0.7-0.8,1.7-1,2.8
			c-0.2,1.1-0.4,2.4-0.4,3.8c0,1.5,0.1,2.8,0.4,3.9c0.3,1.1,0.6,2,1,2.8c0.4,0.7,1,1.3,1.6,1.6c0.6,0.4,1.2,0.5,1.9,0.5
			c0.4,0,0.9-0.1,1.3-0.2c0.4-0.1,0.9-0.4,1.3-0.8c0.4-0.4,0.8-0.8,1.2-1.4c0.4-0.6,0.7-1.3,1-2.2v2.9c-0.5,0.6-1.2,1.1-2,1.5
			c-0.8,0.4-1.7,0.6-2.6,0.6c-0.9,0-1.8-0.2-2.6-0.7s-1.5-1.1-2.1-1.9c-0.6-0.8-1.1-1.8-1.4-2.9c-0.3-1.1-0.5-2.3-0.5-3.7
			c0-1.3,0.2-2.5,0.5-3.6c0.3-1.1,0.8-2.1,1.4-2.9c0.6-0.8,1.3-1.5,2.1-1.9S137.5,1.9,138.3,1.9z"/>
		<path class="st0" d="M152.7,5.3c0.8,0,1.6,0.2,2.3,0.5s1.3,0.9,1.8,1.5c0.5,0.7,0.9,1.5,1.2,2.4c0.3,0.9,0.4,1.9,0.4,3v0
			c0,1.1-0.1,2.1-0.4,3c-0.3,0.9-0.7,1.7-1.2,2.4c-0.5,0.7-1.1,1.2-1.8,1.5s-1.4,0.5-2.3,0.5c-0.8,0-1.6-0.2-2.3-0.5
			c-0.7-0.4-1.3-0.9-1.8-1.5c-0.5-0.7-0.9-1.5-1.2-2.4c-0.3-0.9-0.4-1.9-0.4-3v0c0-1.1,0.1-2.1,0.4-3c0.3-0.9,0.7-1.7,1.2-2.4
			c0.5-0.7,1.1-1.2,1.8-1.5C151.1,5.5,151.9,5.3,152.7,5.3z M148.7,12.7c0,1,0.1,2,0.3,2.9c0.2,0.9,0.5,1.6,0.8,2.2
			c0.4,0.6,0.8,1.1,1.3,1.5c0.5,0.3,1,0.5,1.6,0.5c0.6,0,1.1-0.2,1.6-0.5c0.5-0.3,0.9-0.8,1.3-1.5c0.4-0.6,0.6-1.4,0.8-2.2
			c0.2-0.9,0.3-1.8,0.3-2.9c0-1-0.1-2-0.3-2.9c-0.2-0.9-0.5-1.6-0.8-2.2c-0.4-0.6-0.8-1.1-1.3-1.5c-0.5-0.3-1-0.5-1.6-0.5
			c-0.6,0-1.1,0.2-1.6,0.5c-0.5,0.3-0.9,0.8-1.3,1.5c-0.4,0.6-0.6,1.4-0.8,2.2C148.8,10.8,148.7,11.7,148.7,12.7z"/>
		<path class="st0" d="M161.8,20.1c0.2-0.1,0.4-0.2,0.5-0.3s0.2-0.2,0.3-0.4c0.1-0.2,0.1-0.4,0.2-0.6c0-0.3,0-0.6,0-0.9V2.6
			c0-0.5,0-0.9-0.1-1.2c-0.1-0.2-0.2-0.5-0.4-0.7l1.9-0.3v17.4c0,0.4,0,0.7,0,0.9c0,0.3,0.1,0.5,0.2,0.6c0.1,0.2,0.2,0.3,0.3,0.4
			c0.1,0.1,0.3,0.2,0.5,0.3H161.8z"/>
		<path class="st0" d="M168.6,20.1c0.2-0.1,0.4-0.2,0.5-0.3c0.1-0.1,0.2-0.2,0.3-0.4c0.1-0.2,0.1-0.4,0.2-0.6c0-0.3,0-0.6,0-0.9V2.6
			c0-0.5,0-0.9-0.1-1.2c-0.1-0.2-0.2-0.5-0.4-0.7l1.9-0.3v17.4c0,0.4,0,0.7,0,0.9c0,0.3,0.1,0.5,0.2,0.6c0.1,0.2,0.2,0.3,0.3,0.4
			s0.3,0.2,0.5,0.3H168.6z"/>
		<path class="st0" d="M180.8,5.3c0.8,0,1.5,0.1,2,0.4c0.6,0.3,1.1,0.7,1.4,1.2c0.4,0.5,0.7,1.2,0.8,1.9c0.2,0.7,0.3,1.5,0.3,2.4
			h-8.2c0,0.3,0,0.5-0.1,0.8c0,0.3,0,0.5,0,0.8c0,1,0.1,1.9,0.3,2.8s0.5,1.6,0.8,2.2s0.8,1.1,1.3,1.5c0.5,0.4,1,0.5,1.6,0.5
			c0.5,0,1-0.1,1.4-0.4c0.4-0.3,0.8-0.6,1.2-1.1c0.4-0.5,0.7-1,0.9-1.7c0.3-0.7,0.5-1.4,0.7-2.1l-0.2,3.8c-0.6,0.6-1.2,1.1-2,1.4
			c-0.7,0.3-1.4,0.5-2.1,0.5c-0.8,0-1.6-0.2-2.3-0.5c-0.7-0.4-1.3-0.9-1.8-1.5c-0.5-0.6-0.9-1.4-1.2-2.3c-0.3-0.9-0.4-1.9-0.4-3
			c0-1.1,0.1-2.1,0.4-3c0.2-0.9,0.6-1.7,1-2.4s1-1.2,1.6-1.6C179.3,5.5,180,5.3,180.8,5.3z M177.3,11h6.7c0-0.8-0.1-1.5-0.2-2.1
			c-0.1-0.6-0.3-1.2-0.6-1.7c-0.3-0.5-0.6-0.9-1-1.1c-0.4-0.3-0.8-0.4-1.3-0.4c-0.5,0-0.9,0.1-1.3,0.4c-0.4,0.3-0.7,0.6-1,1.1
			c-0.3,0.5-0.6,1-0.8,1.7C177.5,9.5,177.4,10.2,177.3,11z"/>
		<path class="st0" d="M194.5,5.3c0.8,0,1.6,0.2,2.4,0.6c0.7,0.4,1.4,0.9,1.9,1.5l-0.6,4.1c-0.1-1.1-0.2-2-0.5-2.8
			c-0.2-0.7-0.5-1.3-0.8-1.8c-0.3-0.5-0.7-0.8-1.1-1c-0.4-0.2-0.8-0.3-1.2-0.3c-0.6,0-1.1,0.2-1.5,0.5c-0.5,0.3-0.9,0.8-1.2,1.4
			c-0.3,0.6-0.6,1.4-0.8,2.2c-0.2,0.9-0.3,1.8-0.3,2.9c0,1.1,0.1,2.1,0.3,2.9c0.2,0.9,0.5,1.6,0.8,2.3s0.8,1.1,1.2,1.4
			c0.5,0.3,1,0.5,1.6,0.5c1,0,1.9-0.5,2.6-1.5c0.7-1,1.3-2.4,1.7-4.3l-0.1,4.3c-0.3,0.4-0.6,0.7-1,0.9c-0.4,0.2-0.7,0.4-1.1,0.6
			c-0.4,0.1-0.7,0.2-1.1,0.3s-0.7,0.1-1,0.1c-0.8,0-1.5-0.2-2.2-0.5c-0.7-0.4-1.3-0.9-1.7-1.5c-0.5-0.7-0.9-1.5-1.2-2.4
			c-0.3-0.9-0.4-2-0.4-3.1c0-1.1,0.1-2.1,0.4-3c0.3-0.9,0.6-1.7,1.1-2.3c0.5-0.7,1-1.2,1.7-1.5C193,5.5,193.7,5.3,194.5,5.3z"/>
		<path class="st0" d="M204.5,5.4l1.3-3.6v3.6h3.2v0.3h-3.2v11.2c0,0.6,0,1,0.1,1.4c0.1,0.4,0.1,0.7,0.2,0.9
			c0.1,0.2,0.2,0.4,0.4,0.5c0.2,0.1,0.3,0.1,0.6,0.1c0.4,0,0.7-0.1,1-0.4c0.3-0.3,0.5-0.7,0.7-1.2l0.3,0.2c-0.3,0.6-0.5,1-0.8,1.3
			c-0.3,0.3-0.8,0.5-1.3,0.5c-0.9,0-1.5-0.4-1.9-1.1c-0.4-0.7-0.6-1.7-0.6-3V5.7h-1.9V5.4H204.5z"/>
		<path class="st0" d="M212.3,20.1c0.2-0.1,0.4-0.2,0.5-0.3c0.1-0.1,0.2-0.2,0.3-0.4c0.1-0.2,0.1-0.4,0.2-0.6s0-0.6,0-0.9V8.2
			c0-0.4,0-0.7,0-0.9c0-0.3,0-0.5-0.1-0.7S213.1,6.2,213,6c-0.1-0.2-0.2-0.3-0.3-0.5l2-0.2v12.6c0,0.4,0,0.7,0,0.9
			c0,0.3,0.1,0.5,0.2,0.6c0.1,0.2,0.2,0.3,0.3,0.4c0.1,0.1,0.3,0.2,0.5,0.3H212.3z M213.9,0.8c0.3,0,0.5,0.1,0.7,0.4
			c0.2,0.2,0.3,0.6,0.3,0.9c0,0.4-0.1,0.7-0.3,1c-0.2,0.2-0.4,0.4-0.7,0.4c-0.3,0-0.5-0.1-0.7-0.4c-0.2-0.2-0.3-0.6-0.3-1
			c0-0.4,0.1-0.7,0.3-0.9C213.4,0.9,213.7,0.8,213.9,0.8z"/>
		<path class="st0" d="M224.8,5.3c0.8,0,1.6,0.2,2.3,0.5s1.3,0.9,1.8,1.5c0.5,0.7,0.9,1.5,1.2,2.4c0.3,0.9,0.4,1.9,0.4,3v0
			c0,1.1-0.1,2.1-0.4,3c-0.3,0.9-0.7,1.7-1.2,2.4c-0.5,0.7-1.1,1.2-1.8,1.5s-1.4,0.5-2.3,0.5s-1.6-0.2-2.3-0.5
			c-0.7-0.4-1.3-0.9-1.8-1.5c-0.5-0.7-0.9-1.5-1.2-2.4c-0.3-0.9-0.4-1.9-0.4-3v0c0-1.1,0.1-2.1,0.4-3c0.3-0.9,0.7-1.7,1.2-2.4
			c0.5-0.7,1.1-1.2,1.8-1.5C223.2,5.5,224,5.3,224.8,5.3z M220.8,12.7c0,1,0.1,2,0.3,2.9c0.2,0.9,0.5,1.6,0.8,2.2
			c0.4,0.6,0.8,1.1,1.3,1.5c0.5,0.3,1,0.5,1.6,0.5s1.1-0.2,1.6-0.5c0.5-0.3,0.9-0.8,1.3-1.5c0.4-0.6,0.6-1.4,0.8-2.2
			c0.2-0.9,0.3-1.8,0.3-2.9c0-1-0.1-2-0.3-2.9c-0.2-0.9-0.5-1.6-0.8-2.2c-0.4-0.6-0.8-1.1-1.3-1.5c-0.5-0.3-1-0.5-1.6-0.5
			s-1.1,0.2-1.6,0.5c-0.5,0.3-0.9,0.8-1.3,1.5c-0.4,0.6-0.6,1.4-0.8,2.2C220.9,10.8,220.8,11.7,220.8,12.7z"/>
		<path class="st0" d="M233.9,20.1c0.2-0.1,0.4-0.2,0.5-0.3c0.1-0.1,0.2-0.2,0.3-0.4c0.1-0.2,0.1-0.4,0.2-0.6s0-0.6,0-0.9V8.2
			c0-0.4,0-0.7,0-0.9c0-0.3,0-0.5-0.1-0.7s-0.1-0.4-0.2-0.6c-0.1-0.2-0.2-0.3-0.3-0.5l2-0.2v4.1c0.3-1.3,0.8-2.3,1.6-3
			c0.7-0.7,1.6-1.1,2.7-1.1c0.6,0,1.2,0.1,1.7,0.4c0.5,0.2,0.9,0.6,1.2,1c0.3,0.4,0.6,0.9,0.8,1.5c0.2,0.6,0.3,1.3,0.3,2v7.7
			c0,0.4,0,0.7,0,0.9c0,0.3,0.1,0.5,0.2,0.6c0.1,0.2,0.2,0.3,0.3,0.4s0.3,0.2,0.5,0.3h-3.5c0.2-0.1,0.4-0.2,0.5-0.3s0.2-0.2,0.3-0.4
			c0.1-0.2,0.1-0.4,0.2-0.6c0-0.3,0-0.6,0-0.9v-8c0-1.3-0.2-2.3-0.7-3.1c-0.5-0.7-1.2-1.1-2-1.1c-0.5,0-1,0.1-1.5,0.4
			c-0.5,0.3-0.9,0.6-1.2,1.1c-0.4,0.5-0.7,1.1-0.9,1.8c-0.2,0.7-0.4,1.5-0.4,2.4v6.4c0,0.4,0,0.7,0,0.9c0,0.3,0.1,0.5,0.2,0.6
			c0.1,0.2,0.2,0.3,0.3,0.4c0.1,0.1,0.3,0.2,0.5,0.3H233.9z"/>
	</g>
</g>
</svg>
