<?xml version="1.0" encoding="utf-8"?>
<!-- Generator: Adobe Illustrator 25.4.1, SVG Export Plug-In . SVG Version: 6.00 Build 0)  -->
<svg version="1.1" id="レイヤー_1" xmlns="http://www.w3.org/2000/svg" xmlns:xlink="http://www.w3.org/1999/xlink" x="0px"
	 y="0px" viewBox="0 0 507 63" style="enable-background:new 0 0 507 63;" xml:space="preserve">
<style type="text/css">
	.st0{fill:#D37176;}
</style>
<g>
	<path class="st0" d="M24.4,4.4c2.8,2.7,4.2,5.9,4.2,9.8v34.7c0,3.8-1.4,7.1-4.2,9.8c-2.8,2.7-6.1,4.1-10,4.1c-4,0-7.3-1.4-10-4.1
		c-2.8-2.7-4.2-6-4.2-9.8V14.1c0-3.8,1.4-7.1,4.2-9.8c2.7-2.7,6.1-4.1,10-4.1C18.2,0.3,21.6,1.7,24.4,4.4z M11.8,11.6
		c-0.7,0.7-1.1,1.5-1.1,2.5v34.7c0,1,0.4,1.8,1.1,2.5c0.7,0.7,1.6,1,2.6,1c1,0,1.8-0.3,2.5-1c0.7-0.7,1.1-1.5,1.1-2.5V14.1
		c0-1-0.4-1.8-1.1-2.5c-0.7-0.7-1.5-1-2.5-1S12.5,10.9,11.8,11.6z"/>
	<path class="st0" d="M57.9,26.3c2.8,2.7,4.2,6,4.2,9.8v12.7c0,3.8-1.4,7.1-4.2,9.8c-2.8,2.7-6.1,4.1-10,4.1c-4,0-7.3-1.4-10-4.1
		c-2.8-2.7-4.2-6-4.2-9.8V36.1v-22c0-3.8,1.4-7.1,4.2-9.8c2.7-2.7,6.1-4.1,10-4.1c3.9,0,7.2,1.4,10,4.1c2.8,2.7,4.2,5.9,4.2,9.8v5.3
		h-2.3h-5.9h-2.3v-5.3c0-1-0.4-1.8-1.1-2.5c-0.7-0.7-1.5-1-2.5-1s-1.9,0.3-2.6,1s-1.1,1.5-1.1,2.5V19v3.8c1.3-0.3,2.5-0.5,3.6-0.5
		C51.8,22.3,55.1,23.6,57.9,26.3z M47.9,32.6c-1,0-1.9,0.3-2.6,1c-0.7,0.7-1.1,1.5-1.1,2.5v12.3v0.4c0,1,0.4,1.8,1.1,2.5
		c0.7,0.7,1.6,1,2.6,1c1,0,1.8-0.3,2.5-1c0.7-0.7,1.1-1.5,1.1-2.5V36.1c0-1-0.4-1.8-1.1-2.5C49.7,32.9,48.9,32.6,47.9,32.6z"/>
	<path class="st0" d="M89.3,62.6h-2.3v-2.3v-26v-13V2.6V0.3h2.3h6H99c4.3,0,8,1.5,11.1,4.5c3.1,3,4.6,6.6,4.6,10.8v11.6
		c0,4.2-1.5,7.8-4.6,10.8c-3.1,3-6.8,4.5-11.1,4.5h-1.4v18v2.3h-2.3H89.3z M97.6,32.1H99c1.4,0,2.6-0.5,3.6-1.5
		c1-0.9,1.5-2.1,1.5-3.5V15.6c0-1.4-0.5-2.6-1.5-3.5c-1-1-2.2-1.5-3.6-1.5h-1.4V32.1z"/>
	<path class="st0" d="M128.4,0.3h2.3v2.3v57.8v2.3h-2.3h-6h-2.3v-2.3V2.6V0.3h2.3H128.4z"/>
	<path class="st0" d="M136.9,0.3h14.1c5.7,25,6,24,10.3,42.5c0-9.6-0.4-32.9-0.4-42.5h10.6v62.3h-14.5c-6-24.5-6.5-25.9-9.6-41.1
		v41.1h-10.5V0.3z"/>
	<path class="st0" d="M188,0.3v21.9l7.2-20.6l0.6-1.3H207c-4.7,10-6.7,17.1-11.4,28.7c4.5,13.3,7.1,21.9,11.6,33.6h-11.3
		c-1.5-4.8-4.3-14.4-7.8-25.8c0,6-0.1,19.8-0.1,25.8h-10.5V0.3H188z"/>
	<path class="st0" d="M230.8,0.3H248l6.8,41.9l6.7-41.9h17.2v62.3h-10.9V18l-7.9,44.6h-9.9L241.7,18v44.6c0.8,0-7.7,0-10.9,0V0.3z"
		/>
	<path class="st0" d="M295.1,53c-0.7,3.2-1.3,6.4-2,9.7h-10.8l11-62.3h13.8l11,62.4h-10.8c-0.6-3.2-1.3-6.5-2-9.7H295.1z
		 M300.2,13.5l-3.6,29.7h7.2L300.2,13.5z"/>
	<path class="st0" d="M350.2,48.8c0,3.8-1.4,7.1-4.2,9.8c-2.8,2.7-6.1,4.1-10,4.1c-4,0-7.3-1.4-10-4.1c-2.8-2.7-4.2-6-4.2-9.8V2.6
		V0.3h2.3h6h2.3v2.3v46.3c0,1,0.4,1.8,1.1,2.5c0.7,0.7,1.6,1,2.6,1c1,0,1.8-0.3,2.5-1c0.7-0.7,1.1-1.5,1.1-2.5V2.6V0.3h2.3h5.9h2.3
		v2.3V48.8z"/>
	<path class="st0" d="M370,40.9l5.2-38.7l0.3-1.9h11l-10.6,62.3h-11.8L353.9,0.3h10.6l0.3,1.1L370,40.9z"/>
	<path class="st0" d="M413,0.3h2.3v2.3v5.8v2.3H413h-12.4v15.7h6.4h2.3v2.3v5.8v2.2h-2.3h-6.4v15.8H413h2.3v2.2v5.8v2.3H413h-20.6
		h-2.3v-2.3V2.6V0.3h2.3H413z"/>
	<path class="st0" d="M420.9,10.6h-2.3V8.3V2.6V0.3h2.3h8.9h5.9h8.9h2.3v2.3v5.8v2.3h-2.3h-6.6v49.8v2.3h-2.3h-5.9h-2.3v-2.3V10.6
		H420.9z"/>
	<path class="st0" d="M451.5,10.6h-2.3V8.3V2.6V0.3h2.3h8.9h5.9h8.9h2.3v2.3v5.8v2.3h-2.3h-6.6v49.8v2.3h-2.3h-5.9h-2.3v-2.3V10.6
		H451.5z"/>
	<path class="st0" d="M504.5,0.3h2.3v2.3v5.8v2.3h-2.3h-12.4v15.7h6.4h2.3v2.3v5.8v2.2h-2.3h-6.4v15.8h12.4h2.3v2.2v5.8v2.3h-2.3
		h-20.6h-2.3v-2.3V2.6V0.3h2.3H504.5z"/>
</g>
</svg>
