<?xml version="1.0" encoding="utf-8"?>
<!-- Generator: Adobe Illustrator 25.4.1, SVG Export Plug-In . SVG Version: 6.00 Build 0)  -->
<svg version="1.1" id="レイヤー_1" xmlns="http://www.w3.org/2000/svg" xmlns:xlink="http://www.w3.org/1999/xlink" x="0px"
	 y="0px" viewBox="0 0 270 99" style="enable-background:new 0 0 270 99;" xml:space="preserve">
<style type="text/css">
	.st0{fill:#FFFFFF;}
</style>
<g>
	<path class="st0" d="M7.2,3.1C7,3.2,6.8,3.3,6.6,3.5C6.4,3.7,6.2,4,6.2,4.4c-0.1,0.4-0.1,0.8,0,1.4C6.2,6.4,6.4,7.1,6.8,8
		l10.1,26.8l9.8-26.7c0.3-0.9,0.6-1.7,0.7-2.3c0.1-0.6,0.2-1.1,0.1-1.5c0-0.4-0.1-0.6-0.3-0.8c-0.1-0.2-0.3-0.3-0.5-0.4h4.2
		c-0.2,0.1-0.5,0.2-0.7,0.4C30,3.7,29.7,4,29.3,4.5c-0.3,0.5-0.7,1.2-1.2,2.2c-0.4,1-1,2.2-1.6,3.9L15.8,39.9h-0.3L2.8,6.7
		C2.3,5.5,1.9,4.6,1.4,4.1C1,3.6,0.5,3.2,0.1,3.1H7.2z"/>
	<path class="st0" d="M46.4,9.7c1.9,0,3.6,0.3,5,0.9c1.4,0.6,2.6,1.4,3.5,2.5c0.9,1.1,1.6,2.4,2.1,3.9c0.5,1.5,0.7,3.1,0.7,4.9H37.6
		c-0.1,0.5-0.1,1.1-0.1,1.6c0,0.5,0,1.1,0,1.7c0,2,0.2,3.9,0.7,5.6c0.5,1.7,1.2,3.3,2.1,4.5c0.9,1.3,1.9,2.3,3.1,3
		c1.2,0.7,2.5,1.1,4,1.1c1.3,0,2.4-0.3,3.5-0.8c1-0.5,2-1.2,2.8-2.2c0.9-1,1.6-2.1,2.3-3.4c0.7-1.3,1.3-2.8,1.8-4.4l-0.4,7.7
		c-1.4,1.3-3,2.3-4.8,2.9c-1.8,0.6-3.5,0.9-5.2,0.9c-2,0-3.8-0.4-5.5-1.1c-1.7-0.7-3.1-1.7-4.4-3c-1.2-1.3-2.2-2.9-2.8-4.8
		c-0.7-1.9-1-3.9-1-6.2c0-2.2,0.3-4.3,0.9-6.1c0.6-1.9,1.4-3.5,2.6-4.9c1.1-1.4,2.5-2.4,4-3.2C42.6,10.1,44.3,9.7,46.4,9.7z
		 M37.7,21.3h16.3c0-1.6-0.2-3-0.6-4.3c-0.4-1.3-0.8-2.5-1.5-3.4c-0.6-1-1.4-1.8-2.4-2.3c-0.9-0.5-2-0.8-3.2-0.8
		c-1.1,0-2.2,0.3-3.1,0.8c-1,0.5-1.8,1.3-2.6,2.3c-0.7,1-1.4,2.1-1.9,3.4C38.2,18.2,37.9,19.7,37.7,21.3z"/>
	<path class="st0" d="M62.6,41.9c0-1.7,0.8-3.1,2.3-4c1.5-0.9,4-1.5,7.3-1.7c-2.3-0.2-3.9-0.7-4.9-1.6c-1-0.8-1.4-1.9-1.4-3.1
		c0-0.7,0.1-1.2,0.4-1.7c0.3-0.5,0.6-0.9,1.1-1.2c0.5-0.3,1-0.5,1.6-0.7c0.6-0.1,1.2-0.2,1.9-0.2h0.7c-1.8-0.7-3.2-1.8-4.2-3.3
		c-1-1.5-1.5-3.3-1.5-5.3c0-1.4,0.2-2.6,0.7-3.8c0.5-1.1,1.2-2.1,2.1-2.9c0.9-0.8,1.9-1.4,3.2-1.9c1.2-0.5,2.6-0.7,4-0.7
		c1.2,0,2.4,0.2,3.5,0.5c1.1,0.3,2,0.8,2.8,1.4c0.2-1.9,0.8-3.4,1.7-4.4c0.9-1,2-1.6,3.1-1.6c0.7,0,1.3,0.2,1.8,0.6
		c0.5,0.4,0.7,1,0.7,1.7c0,0.6-0.2,1.2-0.6,1.6c-0.4,0.4-0.9,0.6-1.5,0.6c-0.4,0-0.7-0.1-1-0.2c-0.3-0.1-0.6-0.3-0.8-0.4
		c-0.3-0.2-0.5-0.3-0.7-0.4C84.5,9.1,84.3,9,84,9c-0.4,0-0.7,0.2-1,0.7c-0.3,0.4-0.4,1.2-0.6,2.4c1,0.8,1.8,1.8,2.4,3
		c0.6,1.2,0.9,2.6,0.9,4.1c0,1.4-0.2,2.6-0.7,3.8c-0.5,1.1-1.2,2.1-2,3c-0.9,0.8-1.9,1.5-3.1,1.9c-1.2,0.5-2.6,0.7-4,0.7
		c-0.7,0-1.4-0.1-2.1-0.2c-0.4,0-0.7-0.1-1-0.1c-0.3,0-0.6,0-0.8,0c-1.2,0-2.2,0.2-2.9,0.6c-0.7,0.4-1,0.9-1,1.6
		c0,0.5,0.2,1,0.6,1.3c0.4,0.3,0.8,0.6,1.3,0.7c0.5,0.2,1,0.3,1.5,0.4l5.6,0.8c1.8,0.2,3.5,0.5,5,0.8c1.5,0.3,2.7,0.7,3.7,1.2
		c1,0.5,1.8,1.1,2.4,1.9c0.5,0.8,0.8,1.8,0.8,3c0,1.3-0.3,2.5-0.9,3.6s-1.5,2-2.6,2.7c-1.1,0.7-2.5,1.3-4.1,1.7
		c-1.6,0.4-3.4,0.6-5.3,0.6c-1.7,0-3.3-0.2-4.9-0.5c-1.6-0.3-3-0.8-4.3-1.4c-1.3-0.6-2.3-1.3-3-2.2C62.9,44.1,62.6,43.1,62.6,41.9z
		 M65.6,42c0,2,0.9,3.5,2.7,4.6c1.8,1.1,4.4,1.7,7.6,1.7c1.7,0,3.2-0.2,4.6-0.5c1.3-0.3,2.5-0.8,3.4-1.3c0.9-0.6,1.6-1.2,2.1-1.9
		c0.5-0.7,0.7-1.5,0.7-2.3c0-1.2-0.4-2.2-1.3-2.9c-0.9-0.7-2-1.3-3.3-1.7c-1.3-0.4-2.6-0.6-4-0.8c-1.4-0.1-2.6-0.2-3.6-0.2
		c-1.7,0-3.2,0.1-4.4,0.3c-1.2,0.2-2.1,0.6-2.8,1c-0.7,0.4-1.2,1-1.4,1.6C65.7,40.5,65.6,41.2,65.6,42z M76.1,27.8
		c0.9,0,1.7-0.2,2.5-0.6c0.8-0.4,1.4-0.9,2-1.6c0.6-0.7,1-1.5,1.3-2.5c0.3-1,0.5-2.1,0.5-3.2s-0.2-2.3-0.5-3.4
		c-0.3-1.1-0.8-2.1-1.4-2.9c-0.6-0.8-1.3-1.5-2.1-2.1c-0.8-0.5-1.8-0.8-2.8-0.8c-0.9,0-1.8,0.2-2.5,0.6c-0.8,0.4-1.4,0.9-2,1.6
		c-0.6,0.7-1,1.5-1.3,2.5c-0.3,1-0.5,2-0.5,3.2c0,1.1,0.2,2.3,0.5,3.4c0.3,1.1,0.8,2.1,1.4,3c0.6,0.9,1.3,1.6,2.1,2.1
		C74.1,27.5,75,27.8,76.1,27.8z"/>
	<path class="st0" d="M105.4,23.5l5.3-1.4v-3.8c0-2.6-0.5-4.6-1.4-5.9c-0.9-1.3-2.4-1.9-4.3-1.9c-0.9,0-1.8,0.2-2.7,0.5
		c-0.9,0.3-1.8,0.9-2.6,1.8c-0.8,0.9-1.6,2-2.2,3.5c-0.7,1.5-1.2,3.4-1.7,5.6l-0.3-8.9c1.2-1,2.6-1.8,4.3-2.4
		c1.7-0.6,3.5-0.9,5.3-0.9c2.8,0,5,0.7,6.7,2.2c1.6,1.5,2.5,3.7,2.5,6.5v16.8c0,1,0.1,1.9,0.3,2.7c0.2,0.8,0.5,1.4,1,1.9l-4.7,0.2
		v-7c-0.3,0.9-0.7,1.7-1.2,2.6c-0.5,0.8-1.1,1.6-1.8,2.3c-0.7,0.7-1.6,1.2-2.6,1.6c-1,0.4-2.1,0.6-3.4,0.6c-1.1,0-2.2-0.1-3.2-0.4
		c-1-0.3-1.9-0.7-2.6-1.3s-1.3-1.3-1.7-2.2c-0.4-0.9-0.6-1.9-0.6-3c0-1.6,0.4-2.9,1.2-4c0.8-1.1,1.8-2,2.9-2.8
		c1.2-0.7,2.4-1.3,3.8-1.8C103,24.2,104.2,23.8,105.4,23.5z M97.6,33.1c0,1.8,0.4,3.3,1.3,4.5c0.9,1.2,2.1,1.7,3.7,1.7
		c0.9,0,1.8-0.2,2.7-0.6c0.9-0.4,1.8-1.1,2.5-1.9c0.8-0.8,1.4-1.9,1.9-3.1c0.5-1.2,0.8-2.7,0.9-4.3v-6.6l-5.2,1.4
		c-0.7,0.2-1.5,0.4-2.4,0.8c-0.9,0.4-1.8,0.9-2.6,1.5c-0.8,0.7-1.5,1.5-2.1,2.6C97.9,30.2,97.6,31.5,97.6,33.1z"/>
	<path class="st0" d="M121.2,39.9c0.5-0.2,0.9-0.4,1.2-0.6c0.3-0.2,0.6-0.5,0.8-0.8c0.2-0.3,0.3-0.8,0.4-1.3
		c0.1-0.5,0.1-1.2,0.1-1.9V15.8c0-0.7,0-1.4-0.1-1.9c0-0.5-0.1-1-0.2-1.5c-0.1-0.4-0.2-0.8-0.4-1.2c-0.2-0.4-0.4-0.7-0.6-1.1
		l4.9-0.5v8.4c0.8-2.6,2.1-4.6,3.8-6.1c1.7-1.5,4-2.3,6.7-2.3c1.5,0,2.9,0.2,4.1,0.7c1.2,0.5,2.2,1.2,3,2c0.8,0.9,1.4,1.9,1.9,3.2
		s0.6,2.6,0.6,4v15.7c0,0.7,0,1.4,0.1,1.9c0.1,0.5,0.2,0.9,0.4,1.3c0.2,0.4,0.4,0.6,0.8,0.8s0.7,0.4,1.2,0.6h-8.5
		c0.5-0.2,0.9-0.4,1.2-0.6c0.3-0.2,0.6-0.5,0.8-0.8c0.2-0.3,0.3-0.8,0.4-1.3c0.1-0.5,0.1-1.2,0.1-1.9V19.1c0-2.6-0.6-4.7-1.7-6.2
		c-1.1-1.5-2.8-2.3-5-2.3c-1.2,0-2.4,0.3-3.6,0.8c-1.1,0.5-2.2,1.3-3.1,2.3c-0.9,1-1.6,2.2-2.2,3.7c-0.6,1.4-0.9,3.1-1,5v13
		c0,0.7,0,1.4,0.1,1.9c0.1,0.5,0.2,0.9,0.4,1.3c0.2,0.4,0.4,0.6,0.8,0.8c0.3,0.2,0.7,0.4,1.2,0.6H121.2z"/>
	<path class="st0" d="M176.8,10c-0.3,0.2-0.5,0.6-0.6,1.1c-0.1,0.5,0,1.2,0.4,2.2l8.5,21.8l7.2-18.7c0.5-1.4,0.9-2.5,1-3.3
		c0.1-0.8,0.1-1.4,0-1.9c-0.1-0.4-0.2-0.7-0.5-0.9c-0.2-0.2-0.4-0.3-0.5-0.4h4.6c-0.4,0.2-0.8,0.7-1.4,1.3c-0.6,0.6-1.1,1.7-1.7,3.2
		L184,39.9h-0.5l-9.9-25.3c-0.6-1.6-1.2-2.7-1.6-3.4c-0.4-0.7-0.8-1.1-1.1-1.3H176.8z"/>
	<path class="st0" d="M201.5,39.9c0.5-0.2,0.9-0.4,1.2-0.6c0.3-0.2,0.6-0.5,0.8-0.8c0.2-0.3,0.3-0.8,0.4-1.3
		c0.1-0.5,0.1-1.2,0.1-1.9V15.8c0-0.7,0-1.4-0.1-1.9c0-0.5-0.1-1-0.2-1.5c-0.1-0.4-0.2-0.8-0.4-1.2c-0.2-0.4-0.4-0.7-0.6-1.1
		l4.9-0.5v25.7c0,0.7,0,1.4,0.1,1.9c0.1,0.5,0.2,0.9,0.4,1.3c0.2,0.4,0.4,0.6,0.8,0.8c0.3,0.2,0.7,0.4,1.2,0.6H201.5z M205.6,0.5
		c0.7,0,1.3,0.2,1.8,0.7s0.7,1.1,0.7,1.9c0,0.8-0.2,1.5-0.7,2c-0.5,0.5-1.1,0.7-1.8,0.7c-0.7,0-1.3-0.2-1.8-0.7
		c-0.5-0.5-0.7-1.1-0.7-2c0-0.8,0.2-1.5,0.7-1.9S204.9,0.5,205.6,0.5z"/>
	<path class="st0" d="M220,10l3.3-7.4V10h7.8v0.6h-7.8v22.8c0,1.2,0.1,2.1,0.2,2.9c0.1,0.8,0.3,1.4,0.6,1.9c0.3,0.5,0.6,0.8,1,1
		c0.4,0.2,0.9,0.3,1.4,0.3c0.9,0,1.7-0.3,2.3-0.9c0.6-0.6,1.2-1.4,1.8-2.5l0.6,0.5c-0.6,1.1-1.3,2-2.1,2.7c-0.7,0.7-1.8,1-3.3,1
		c-2.2,0-3.8-0.7-4.7-2.1c-0.9-1.4-1.4-3.5-1.4-6.1V10.6h-4.7V10H220z"/>
	<path class="st0" d="M248,23.5l5.3-1.4v-3.8c0-2.6-0.5-4.6-1.4-5.9c-0.9-1.3-2.4-1.9-4.3-1.9c-0.9,0-1.8,0.2-2.7,0.5
		c-0.9,0.3-1.8,0.9-2.6,1.8c-0.8,0.9-1.6,2-2.2,3.5c-0.7,1.5-1.2,3.4-1.7,5.6l-0.3-8.9c1.2-1,2.6-1.8,4.3-2.4
		c1.7-0.6,3.5-0.9,5.3-0.9c2.8,0,5,0.7,6.7,2.2c1.6,1.5,2.5,3.7,2.5,6.5v16.8c0,1,0.1,1.9,0.3,2.7c0.2,0.8,0.5,1.4,1,1.9l-4.7,0.2
		v-7c-0.3,0.9-0.7,1.7-1.2,2.6c-0.5,0.8-1.1,1.6-1.8,2.3c-0.7,0.7-1.6,1.2-2.6,1.6c-1,0.4-2.1,0.6-3.4,0.6c-1.1,0-2.2-0.1-3.2-0.4
		c-1-0.3-1.9-0.7-2.6-1.3s-1.3-1.3-1.7-2.2c-0.4-0.9-0.6-1.9-0.6-3c0-1.6,0.4-2.9,1.2-4c0.8-1.1,1.8-2,2.9-2.8
		c1.2-0.7,2.4-1.3,3.8-1.8C245.6,24.2,246.8,23.8,248,23.5z M240.2,33.1c0,1.8,0.4,3.3,1.3,4.5c0.9,1.2,2.1,1.7,3.7,1.7
		c0.9,0,1.8-0.2,2.7-0.6c0.9-0.4,1.8-1.1,2.5-1.9c0.8-0.8,1.4-1.9,1.9-3.1c0.5-1.2,0.8-2.7,0.9-4.3v-6.6l-5.2,1.4
		c-0.7,0.2-1.5,0.4-2.4,0.8c-0.9,0.4-1.8,0.9-2.6,1.5c-0.8,0.7-1.5,1.5-2.1,2.6C240.5,30.2,240.2,31.5,240.2,33.1z"/>
	<path class="st0" d="M1.1,94.3l0.8-9.9c0.4,4.2,1.5,7.5,3.3,9.8c1.8,2.3,4.3,3.5,7.5,3.5c1.3,0,2.4-0.2,3.4-0.6
		c1-0.4,1.9-1,2.6-1.7c0.7-0.7,1.2-1.6,1.6-2.5c0.4-1,0.5-2,0.5-3c0-1.3-0.3-2.5-0.8-3.4c-0.5-0.9-1.1-1.7-1.8-2.3
		c-0.7-0.6-1.4-1.1-2.1-1.5c-0.7-0.4-1.4-0.7-1.8-0.9l-4.6-2c-0.6-0.2-1.3-0.6-2.2-1c-0.9-0.4-1.7-1-2.5-1.8
		c-0.8-0.7-1.5-1.7-2.1-2.8c-0.6-1.1-0.9-2.4-0.9-4c0-1.3,0.2-2.5,0.6-3.6c0.4-1.1,1-2.1,1.9-3c0.8-0.8,1.8-1.5,3.1-2
		c1.2-0.5,2.6-0.7,4.2-0.7c1.5,0,3.1,0.2,4.8,0.7c1.8,0.5,3.3,1.2,4.7,2.2L21.7,74c-0.5-3.9-1.6-6.9-3.2-9c-1.6-2.1-3.8-3.2-6.6-3.2
		c-1.1,0-2.1,0.2-3.1,0.5c-1,0.3-1.8,0.8-2.5,1.4c-0.7,0.6-1.2,1.3-1.6,2.2c-0.4,0.8-0.6,1.7-0.6,2.7c0,1.1,0.2,2,0.7,2.8
		c0.5,0.8,1,1.4,1.7,2c0.7,0.6,1.3,1,2.1,1.4c0.7,0.4,1.4,0.6,1.9,0.8l4.9,2.1c2.4,1,4.3,2.4,5.8,4c1.4,1.6,2.1,3.8,2.1,6.4
		c0,1.5-0.2,2.9-0.7,4.1c-0.5,1.3-1.2,2.4-2.1,3.3c-0.9,0.9-2.1,1.7-3.4,2.2s-2.8,0.8-4.5,0.8c-2.2,0-4.4-0.4-6.4-1.1
		C4.1,96.7,2.4,95.7,1.1,94.3z"/>
	<path class="st0" d="M29.8,68.4l4.9-0.5v21.5c0,1.5,0.1,2.8,0.4,3.8c0.3,1,0.7,1.9,1.2,2.5c0.5,0.7,1.2,1.1,1.9,1.4
		c0.7,0.3,1.6,0.4,2.5,0.4c1.4,0,2.7-0.4,3.7-1.1c1-0.7,1.9-1.7,2.6-2.8c0.7-1.1,1.2-2.4,1.6-3.8c0.4-1.4,0.6-2.7,0.6-4V74
		c0-0.7,0-1.4-0.1-1.9c0-0.5-0.1-1-0.2-1.5c-0.1-0.4-0.2-0.8-0.4-1.2c-0.2-0.4-0.4-0.7-0.6-1.1l4.9-0.5v25c0,1.6,0.1,2.7,0.3,3.4
		c0.2,0.7,0.6,1.3,1,1.8l-4.7,0.2v-8c-0.5,1.3-1,2.4-1.6,3.4c-0.6,1-1.2,1.8-1.9,2.5c-0.7,0.7-1.6,1.2-2.6,1.6
		c-1,0.4-2.1,0.6-3.4,0.6c-2.7,0-4.9-0.8-6.5-2.3c-1.6-1.5-2.4-3.9-2.4-7V74c0-0.7,0-1.4-0.1-1.9c0-0.5-0.1-1-0.2-1.5
		c-0.1-0.4-0.2-0.8-0.4-1.2C30.3,69.1,30.1,68.8,29.8,68.4z"/>
	<path class="st0" d="M60.1,98.2c0.5-0.2,0.9-0.4,1.2-0.6c0.3-0.2,0.6-0.5,0.8-0.8c0.2-0.3,0.3-0.8,0.4-1.3c0.1-0.5,0.1-1.2,0.1-1.9
		V74c0-0.7,0-1.4-0.1-1.9c0-0.5-0.1-1-0.2-1.5c-0.1-0.4-0.2-0.8-0.4-1.2c-0.2-0.4-0.4-0.7-0.6-1.1l4.9-0.5v8.4
		c0.8-2.6,2.1-4.6,3.8-6.1c1.7-1.5,4-2.3,6.7-2.3c1.5,0,2.9,0.2,4.1,0.7c1.2,0.5,2.2,1.2,3,2c0.8,0.9,1.4,1.9,1.9,3.2s0.6,2.6,0.6,4
		v15.7c0,0.7,0,1.4,0.1,1.9c0.1,0.5,0.2,0.9,0.4,1.3c0.2,0.4,0.4,0.6,0.8,0.8s0.7,0.4,1.2,0.6h-8.5c0.5-0.2,0.9-0.4,1.2-0.6
		c0.3-0.2,0.6-0.5,0.8-0.8c0.2-0.3,0.3-0.8,0.4-1.3c0.1-0.5,0.1-1.2,0.1-1.9V77.4c0-2.6-0.6-4.7-1.7-6.2c-1.1-1.5-2.8-2.3-5-2.3
		c-1.2,0-2.4,0.3-3.6,0.8c-1.1,0.5-2.2,1.3-3.1,2.3c-0.9,1-1.6,2.2-2.2,3.7c-0.6,1.4-0.9,3.1-1,5v13c0,0.7,0,1.4,0.1,1.9
		c0.1,0.5,0.2,0.9,0.4,1.3c0.2,0.4,0.4,0.6,0.8,0.8c0.3,0.2,0.7,0.4,1.2,0.6H60.1z"/>
	<path class="st0" d="M111.3,94.3l0.8-9.9c0.4,4.2,1.5,7.5,3.3,9.8c1.8,2.3,4.3,3.5,7.5,3.5c1.3,0,2.4-0.2,3.4-0.6
		c1-0.4,1.9-1,2.6-1.7c0.7-0.7,1.2-1.6,1.6-2.5c0.4-1,0.5-2,0.5-3c0-1.3-0.3-2.5-0.8-3.4c-0.5-0.9-1.1-1.7-1.8-2.3
		c-0.7-0.6-1.4-1.1-2.1-1.5c-0.7-0.4-1.4-0.7-1.8-0.9l-4.6-2c-0.6-0.2-1.3-0.6-2.2-1c-0.9-0.4-1.7-1-2.5-1.8
		c-0.8-0.7-1.5-1.7-2.1-2.8c-0.6-1.1-0.9-2.4-0.9-4c0-1.3,0.2-2.5,0.6-3.6c0.4-1.1,1-2.1,1.9-3c0.8-0.8,1.8-1.5,3.1-2
		c1.2-0.5,2.6-0.7,4.2-0.7c1.5,0,3.1,0.2,4.8,0.7c1.8,0.5,3.3,1.2,4.7,2.2l0.3,10.1c-0.5-3.9-1.6-6.9-3.2-9
		c-1.6-2.1-3.8-3.2-6.6-3.2c-1.1,0-2.1,0.2-3.1,0.5c-1,0.3-1.8,0.8-2.5,1.4c-0.7,0.6-1.2,1.3-1.6,2.2c-0.4,0.8-0.6,1.7-0.6,2.7
		c0,1.1,0.2,2,0.7,2.8c0.5,0.8,1,1.4,1.7,2c0.7,0.6,1.3,1,2.1,1.4c0.7,0.4,1.4,0.6,1.9,0.8l4.9,2.1c2.4,1,4.3,2.4,5.8,4
		c1.4,1.6,2.1,3.8,2.1,6.4c0,1.5-0.2,2.9-0.7,4.1c-0.5,1.3-1.2,2.4-2.1,3.3c-0.9,0.9-2.1,1.7-3.4,2.2s-2.8,0.8-4.5,0.8
		c-2.2,0-4.4-0.4-6.4-1.1C114.3,96.7,112.6,95.7,111.3,94.3z"/>
	<path class="st0" d="M152.8,68c1.9,0,3.6,0.3,5,0.9c1.4,0.6,2.6,1.4,3.5,2.5c0.9,1.1,1.6,2.4,2.1,3.9c0.5,1.5,0.7,3.1,0.7,4.9H144
		c-0.1,0.5-0.1,1.1-0.1,1.6c0,0.5,0,1.1,0,1.7c0,2,0.2,3.9,0.7,5.6c0.5,1.7,1.2,3.3,2.1,4.5c0.9,1.3,1.9,2.3,3.1,3
		c1.2,0.7,2.5,1.1,4,1.1c1.3,0,2.4-0.3,3.5-0.8c1-0.5,2-1.2,2.8-2.2c0.9-1,1.6-2.1,2.3-3.4c0.7-1.3,1.3-2.8,1.8-4.4l-0.4,7.7
		c-1.4,1.3-3,2.3-4.8,2.9c-1.8,0.6-3.5,0.9-5.2,0.9c-2,0-3.8-0.4-5.5-1.1c-1.7-0.7-3.1-1.7-4.4-3c-1.2-1.3-2.2-2.9-2.8-4.8
		c-0.7-1.9-1-3.9-1-6.2c0-2.2,0.3-4.3,0.9-6.1c0.6-1.9,1.4-3.5,2.6-4.9c1.1-1.4,2.5-2.4,4-3.2C149,68.4,150.8,68,152.8,68z
		 M144.1,79.5h16.3c0-1.6-0.2-3-0.6-4.3c-0.4-1.3-0.8-2.5-1.5-3.4c-0.6-1-1.4-1.8-2.4-2.3c-0.9-0.5-2-0.8-3.2-0.8
		c-1.1,0-2.2,0.3-3.1,0.8c-1,0.5-1.8,1.3-2.6,2.3c-0.7,1-1.4,2.1-1.9,3.4C144.7,76.5,144.3,77.9,144.1,79.5z"/>
	<path class="st0" d="M170.2,98.2c0.5-0.2,0.9-0.4,1.2-0.6c0.3-0.2,0.6-0.5,0.8-0.8c0.2-0.3,0.3-0.8,0.4-1.3
		c0.1-0.5,0.1-1.2,0.1-1.9V74c0-0.7,0-1.4-0.1-1.9c0-0.5-0.1-1-0.2-1.5c-0.1-0.4-0.2-0.8-0.4-1.2c-0.2-0.4-0.4-0.7-0.6-1.1l4.8-0.5
		V75c0.4-1,0.8-1.9,1.3-2.8s1-1.6,1.7-2.2c0.6-0.6,1.4-1.1,2.2-1.5c0.8-0.4,1.8-0.5,2.9-0.5c1,0,1.9,0.1,2.7,0.4l0,5.1
		c-0.3-0.4-0.6-0.8-1-1.2c-0.4-0.4-0.8-0.8-1.3-1.2c-0.4-0.4-0.9-0.6-1.4-0.9c-0.5-0.2-1-0.3-1.5-0.3c-0.6,0-1.2,0.2-1.8,0.5
		c-0.5,0.4-1,0.8-1.5,1.4s-0.9,1.3-1.3,2.1c-0.4,0.8-0.7,1.6-1,2.5v17.2c0,0.7,0,1.4,0.1,1.9c0.1,0.5,0.2,0.9,0.4,1.3
		c0.2,0.4,0.4,0.6,0.8,0.8c0.3,0.2,0.7,0.4,1.2,0.6H170.2z"/>
	<path class="st0" d="M192.2,68.4l4.9-0.5v21.5c0,1.5,0.1,2.8,0.4,3.8c0.3,1,0.7,1.9,1.2,2.5c0.5,0.7,1.2,1.1,1.9,1.4
		c0.7,0.3,1.6,0.4,2.5,0.4c1.4,0,2.7-0.4,3.7-1.1c1-0.7,1.9-1.7,2.6-2.8c0.7-1.1,1.2-2.4,1.6-3.8c0.4-1.4,0.6-2.7,0.6-4V74
		c0-0.7,0-1.4-0.1-1.9c0-0.5-0.1-1-0.2-1.5c-0.1-0.4-0.2-0.8-0.4-1.2c-0.2-0.4-0.4-0.7-0.6-1.1l4.9-0.5v25c0,1.6,0.1,2.7,0.3,3.4
		c0.2,0.7,0.6,1.3,1,1.8l-4.7,0.2v-8c-0.5,1.3-1,2.4-1.6,3.4c-0.6,1-1.2,1.8-1.9,2.5c-0.7,0.7-1.6,1.2-2.6,1.6
		c-1,0.4-2.1,0.6-3.4,0.6c-2.7,0-4.9-0.8-6.5-2.3c-1.6-1.5-2.4-3.9-2.4-7V74c0-0.7,0-1.4-0.1-1.9c0-0.5-0.1-1-0.2-1.5
		c-0.1-0.4-0.2-0.8-0.4-1.2C192.6,69.1,192.4,68.8,192.2,68.4z"/>
	<path class="st0" d="M224.9,93.6V74c0-0.7,0-1.4-0.1-1.9c0-0.5-0.1-1-0.2-1.5c-0.1-0.4-0.2-0.8-0.4-1.2c-0.2-0.4-0.4-0.7-0.6-1.1
		l4.9-0.5v8.4c0.8-2.6,2-4.6,3.7-6.1c1.7-1.5,3.8-2.2,6.3-2.2c2.8,0,5,0.8,6.6,2.4c1.6,1.6,2.6,3.6,2.8,6.2c0.7-2.6,1.9-4.7,3.6-6.3
		c1.7-1.5,3.8-2.3,6.4-2.3c1.5,0,2.8,0.2,4,0.7c1.2,0.5,2.2,1.2,3,2c0.8,0.9,1.4,1.9,1.9,3.2s0.6,2.6,0.6,4v15.7
		c0,0.7,0,1.4,0.1,1.9c0.1,0.5,0.2,0.9,0.4,1.3c0.2,0.4,0.4,0.6,0.8,0.8c0.3,0.2,0.7,0.4,1.2,0.6h-8.5c0.5-0.2,0.9-0.4,1.2-0.6
		c0.3-0.2,0.6-0.5,0.8-0.8c0.2-0.3,0.3-0.8,0.4-1.3c0.1-0.5,0.1-1.2,0.1-1.9V77.4c0-2.6-0.6-4.7-1.7-6.3c-1.1-1.5-2.8-2.3-5-2.3
		c-1.1,0-2.2,0.3-3.3,0.8c-1.1,0.5-2,1.3-2.9,2.3c-0.9,1-1.6,2.2-2.1,3.7c-0.6,1.4-0.9,3.1-1,5v13c0,0.7,0,1.4,0.1,1.9
		c0.1,0.5,0.2,0.9,0.4,1.3c0.2,0.4,0.4,0.6,0.8,0.8c0.3,0.2,0.7,0.4,1.2,0.6h-8.5c0.5-0.2,0.9-0.4,1.2-0.6c0.3-0.2,0.6-0.5,0.8-0.8
		c0.2-0.3,0.3-0.8,0.4-1.3c0.1-0.5,0.1-1.2,0.1-1.9V77.4c0-2.6-0.6-4.7-1.7-6.3c-1.1-1.5-2.8-2.3-4.9-2.3c-1.1,0-2.3,0.3-3.3,0.8
		c-1.1,0.5-2,1.3-2.9,2.3c-0.9,1-1.6,2.2-2.1,3.7c-0.6,1.4-0.9,3.1-1,5v13c0,0.7,0,1.4,0.1,1.9c0.1,0.5,0.2,0.9,0.4,1.3
		c0.2,0.4,0.4,0.6,0.8,0.8c0.3,0.2,0.7,0.4,1.2,0.6h-8.5c0.5-0.2,0.9-0.4,1.2-0.6c0.3-0.2,0.6-0.5,0.8-0.8c0.2-0.3,0.3-0.8,0.4-1.3
		C224.9,95,224.9,94.3,224.9,93.6z"/>
</g>
</svg>
