<?xml version="1.0" encoding="utf-8"?>
<!-- Generator: Adobe Illustrator 25.4.1, SVG Export Plug-In . SVG Version: 6.00 Build 0)  -->
<svg version="1.1" id="レイヤー_1" xmlns="http://www.w3.org/2000/svg" xmlns:xlink="http://www.w3.org/1999/xlink" x="0px"
	 y="0px" viewBox="0 0 245 11" style="enable-background:new 0 0 245 11;" xml:space="preserve">
<style type="text/css">
	.st0{fill:#FFFFFF;}
</style>
<g>
	<g>
		<path class="st0" d="M1.5,0.7l4.5,8.4l4.5-8.4h1.3l-5.1,9.7H5.3L0.2,0.7H1.5z"/>
		<path class="st0" d="M24,9.3v1.1h-9.4V0.7h9.2v1.1h-8.1v3.1h6.8V6h-6.8v3.3H24z"/>
		<path class="st0" d="M38.1,8c-0.8,1.5-2.7,2.6-5.4,2.6c-3.7,0-6-2-6-5.1c0-3.2,2.2-5.1,5.9-5.1c2.4,0,4,0.9,4.9,2l-1,0.7
			c-0.9-1.1-2.2-1.6-3.9-1.6c-2.9,0-4.7,1.4-4.7,4.1c0,2.7,1.9,4.1,4.8,4.1c1.9,0,3.5-0.6,4.2-1.9V6.4h-4.4V5.3h5.6V8z"/>
		<path class="st0" d="M49.5,7.7H43l-1.4,2.6h-1.3l5.3-9.7h1.3l5.3,9.7h-1.3L49.5,7.7z M49,6.7l-2.7-5l-2.7,5H49z"/>
		<path class="st0" d="M65.5,0.7v9.7h-1l-8.1-8.2v8.2h-1.1V0.7h1.3l7.9,8v-8H65.5z"/>
		<path class="st0" d="M75.3,0.7l4.5,8.4l4.5-8.4h1.3l-5.1,9.7h-1.3l-5.1-9.7H75.3z"/>
		<path class="st0" d="M88.4,10.3V0.7h1.2v9.7H88.4z"/>
		<path class="st0" d="M102.9,1.7h-4.6v8.6h-1.2V1.7h-4.6V0.7h10.3V1.7z"/>
		<path class="st0" d="M113.7,7.7h-6.5l-1.4,2.6h-1.3l5.3-9.7h1.3l5.3,9.7h-1.3L113.7,7.7z M113.2,6.7l-2.7-5l-2.7,5H113.2z"/>
		<path class="st0" d="M133.9,7.7l1.1,0.6c-0.9,1.5-2.6,2.4-5,2.4c-3.6,0-5.8-2-5.8-5.1s2.2-5.1,5.9-5.1c2.3,0,4,0.9,4.9,2.4
			l-1.1,0.6c-0.8-1.3-2.1-1.9-3.8-1.9c-2.8,0-4.7,1.4-4.7,4.1c0,2.7,1.9,4.1,4.7,4.1C131.8,9.6,133.1,9,133.9,7.7z"/>
		<path class="st0" d="M137.6,5.5c0-3.2,2.2-5.1,5.9-5.1c3.7,0,5.9,2,5.9,5.1c0,3.2-2.2,5.1-5.9,5.1C139.8,10.6,137.6,8.7,137.6,5.5
			z M148.2,5.5c0-2.6-1.9-4.1-4.7-4.1c-2.8,0-4.7,1.5-4.7,4.1c0,2.6,1.9,4.1,4.7,4.1C146.3,9.6,148.2,8.1,148.2,5.5z"/>
		<path class="st0" d="M161.5,9.3v1.1H153V0.7h1.2v8.6H161.5z"/>
		<path class="st0" d="M173.1,9.3v1.1h-8.6V0.7h1.2v8.6H173.1z"/>
		<path class="st0" d="M185.5,9.3v1.1h-9.4V0.7h9.2v1.1h-8.1v3.1h6.8V6h-6.8v3.3H185.5z"/>
		<path class="st0" d="M198,7.7l1.1,0.6c-0.9,1.5-2.6,2.4-5,2.4c-3.6,0-5.8-2-5.8-5.1s2.2-5.1,5.9-5.1c2.3,0,4,0.9,4.9,2.4L198,3.3
			c-0.8-1.3-2.1-1.9-3.8-1.9c-2.8,0-4.7,1.4-4.7,4.1c0,2.7,1.9,4.1,4.7,4.1C195.9,9.6,197.2,9,198,7.7z"/>
		<path class="st0" d="M211.4,1.7h-4.6v8.6h-1.2V1.7h-4.6V0.7h10.3V1.7z"/>
		<path class="st0" d="M214.4,10.3V0.7h1.2v9.7H214.4z"/>
		<path class="st0" d="M219.2,5.5c0-3.2,2.2-5.1,5.9-5.1c3.7,0,5.9,2,5.9,5.1c0,3.2-2.2,5.1-5.9,5.1C221.4,10.6,219.2,8.7,219.2,5.5
			z M229.8,5.5c0-2.6-1.9-4.1-4.7-4.1c-2.8,0-4.7,1.5-4.7,4.1c0,2.6,1.9,4.1,4.7,4.1C227.9,9.6,229.8,8.1,229.8,5.5z"/>
		<path class="st0" d="M244.8,0.7v9.7h-1l-8.1-8.2v8.2h-1.1V0.7h1.3l7.9,8v-8H244.8z"/>
	</g>
</g>
</svg>
