<?xml version="1.0" encoding="utf-8"?>
<!-- Generator: Adobe Illustrator 25.4.1, SVG Export Plug-In . SVG Version: 6.00 Build 0)  -->
<svg version="1.1" id="レイヤー_1" xmlns="http://www.w3.org/2000/svg" xmlns:xlink="http://www.w3.org/1999/xlink" x="0px"
	 y="0px" viewBox="0 0 83 545" style="enable-background:new 0 0 83 545;" xml:space="preserve">
<style type="text/css">
	.st0{fill:#E0A7B0;}
</style>
<g>
	<path class="st0" d="M81.9,183.6v21.8l-54.6,8.6l54.6,8.6v21.8H0.6v-13.8h58.2L0.6,220.6V208l58.2-10.5H0.6c0,1.1,0-9.8,0-13.8
		L81.9,183.6z"/>
	<path class="st0" d="M13.1,266.8c-4.2-0.8-8.4-1.7-12.6-2.5v-13.8l81.3,14v17.5l-81.4,14v-13.8c4.2-0.8,8.5-1.7,12.7-2.5V266.8z
		 M64.7,273.3L26,268.8v9.1L64.7,273.3z"/>
	<path class="st0" d="M18.6,338.2c-5,0-9.2-1.8-12.7-5.3s-5.3-7.8-5.3-12.7c0-5,1.8-9.3,5.3-12.7c3.5-3.5,7.8-5.3,12.7-5.3h60.4h2.9
		v2.9v7.6v2.9h-2.9H18.6c-1.3,0-2.4,0.5-3.3,1.4c-0.9,0.9-1.4,2-1.4,3.3c0,1.2,0.5,2.3,1.4,3.2c0.9,0.9,2,1.4,3.3,1.4h60.4h2.9v2.9
		v7.5v2.9h-2.9H18.6z"/>
	<path class="st0" d="M28.9,364.8l50.5,6.5l2.4,0.4v13.9L0.6,372.3v-15l81.3-13v13.5l-1.5,0.4L28.9,364.8z"/>
	<path class="st0" d="M81.9,421v2.9h-2.9h-7.5h-2.9V421v-15.7H47.9v8.2v2.9H45h-7.5h-2.9v-2.9v-8.2H13.9V421v2.9H11H3.5H0.6V421
		v-26.2v-2.9h2.9h75.4h2.9v2.9V421z"/>
	<path class="st0" d="M68.4,432.5v-2.9h2.9h7.5h2.9v2.9v11.3v7.5v11.3v2.9h-2.9h-7.5h-2.9v-2.9v-8.4H3.5H0.6v-2.9v-7.5v-2.9h2.9
		h64.9V432.5z"/>
	<path class="st0" d="M68.4,472.7v-2.9h2.9h7.5h2.9v2.9v11.3v7.5v11.3v2.9h-2.9h-7.5h-2.9v-2.9v-8.4H3.5H0.6v-2.9v-7.5v-2.9h2.9
		h64.9V472.7z"/>
	<path class="st0" d="M81.9,541.5v2.9h-2.9h-7.5h-2.9v-2.9v-15.7H47.9v8.2v2.9H45h-7.5h-2.9V534v-8.2H13.9v15.7v2.9H11H3.5H0.6v-2.9
		v-26.2v-2.9h2.9h75.4h2.9v2.9V541.5z"/>
</g>
<g>
	<path class="st0" d="M62.2,36.6H47.2c-5.6,0-10.5-2-14.4-6c-4-4-6-8.8-6-14.4v-1.3H0.3V0.5h82.3v15.7c0,5.6-2,10.5-6,14.4
		C72.7,34.6,67.8,36.6,62.2,36.6z M1.3,13.9h26.4v2.3c0,5.3,1.9,9.9,5.7,13.7c3.8,3.8,8.4,5.7,13.7,5.7h15.1c5.3,0,9.9-1.9,13.7-5.7
		c3.8-3.8,5.7-8.4,5.7-13.7V1.5H1.3V13.9z M62.2,23.2H47.2c-2,0-3.6-0.7-4.9-2.1c-1.4-1.4-2.1-3-2.1-4.9v-2.3h29.1v2.3
		c0,1.9-0.7,3.6-2.1,4.9C65.8,22.5,64.2,23.2,62.2,23.2z M41.2,14.9v1.3c0,1.7,0.6,3,1.8,4.2c1.1,1.2,2.5,1.8,4.2,1.8h15.1
		c1.7,0,3.1-0.6,4.2-1.8c1.2-1.2,1.8-2.6,1.8-4.2v-1.3H41.2z"/>
	<path class="st0" d="M82.7,58.4H0.3V44h82.3V58.4z M1.3,57.4h80.3V45H1.3V57.4z"/>
	<path class="st0" d="M82.7,111.8H0.3V92.5l0.4-0.1c6.2-1.5,11.2-2.7,15.5-3.7c15.9-3.8,21-5,33.2-7.5H0.3V66.8h82.3v18.9l-0.4,0.1
		c-18.9,4.2-26.3,6-34.1,8c-4.7,1.2-9.5,2.4-17,4.1c6.3,0,14.9-0.1,23.3-0.2c10.5-0.1,21.4-0.2,27.7-0.2h0.5V111.8z M1.3,110.8h80.3
		V98.4c-6.3,0-16.9,0.1-27.2,0.2c-10.5,0.1-21.4,0.2-27.7,0.2h-4.4l4.3-1c10.1-2.3,15.8-3.7,21.3-5.1c7.8-1.9,15.1-3.8,33.7-7.9
		V67.8H1.3v12.4h53.1l0.1,1c-16,3.2-20.2,4.2-38.1,8.5c-4.2,1-9.1,2.2-15.1,3.6V110.8z"/>
	<path class="st0" d="M0.3,158.7v-15.4l0.4-0.1c3.3-1,8.1-2.4,14.3-4.2c4.9-1.4,10.3-3,16.2-4.7c-3.8,0-8.6-0.1-13.4-0.1
		c-6.5,0-12.9-0.1-16.8-0.1H0.3v-14.4h82.3v14.4h-26l24,8.2l2,0.9v15.3l-0.7-0.3c-8.1-3.7-14.7-6.1-22.3-8.8
		c-4.6-1.6-9.3-3.3-15-5.6c-5.3,1.7-10,3.3-14.4,4.7c-10,3.2-18.7,6-29.3,10L0.3,158.7z M1.3,144.1v13.2c10.3-3.8,18.8-6.6,28.6-9.8
		c4.5-1.4,9.2-3,14.5-4.7l0.2-0.1l0.2,0.1c5.7,2.2,10.5,3.9,15.1,5.6c7.4,2.7,13.8,5,21.6,8.5v-13.1l-1.4-0.6l-29.7-10.1h31v-12.4
		H1.3v12.4c3.9,0,10.1,0,16.3,0.1c6.5,0,12.9,0.1,16.8,0.1H38l-3.3,1c-7.2,2.1-13.7,4-19.4,5.7C9.3,141.7,4.6,143.1,1.3,144.1z"/>
</g>
</svg>
