<?xml version="1.0" encoding="utf-8"?>
<!-- Generator: Adobe Illustrator 25.4.1, SVG Export Plug-In . SVG Version: 6.00 Build 0)  -->
<svg version="1.1" id="レイヤー_1" xmlns="http://www.w3.org/2000/svg" xmlns:xlink="http://www.w3.org/1999/xlink" x="0px"
	 y="0px" viewBox="0 0 429 306" style="enable-background:new 0 0 429 306;" xml:space="preserve">
<style type="text/css">
	.st0{fill:#FFFFFF;}
</style>
<g>
	<g>
		<path class="st0" d="M49.5,1.5c3.5,0.7,6.2,1.7,8.3,3.1c0.6,0.3,1,0.6,1.2,1c0.2,0.4,0.3,1,0.4,1.8l1.2,13.2
			c0,0.2-0.2,0.4-0.5,0.4c-0.4,0-0.6-0.1-0.6-0.3c-1.6-6.1-4.4-10.5-8.7-13.4C46.5,4.4,41.2,3,35,3c-5.4,0-10.1,1.3-14.1,4
			c-4,2.6-7.2,6.4-9.3,11.2c-2.2,4.8-3.3,10.3-3.3,16.6c0,7.3,1.4,14.1,4.1,20.3c2.7,6.2,6.4,11.1,11,14.8c4.6,3.6,9.6,5.4,15,5.4
			c5.1,0,9.5-1.6,13.3-4.7c3.8-3.1,6.6-7.9,8.6-14.3c0-0.2,0.1-0.4,0.4-0.4c0.2,0,0.4,0,0.6,0.1c0.2,0.1,0.3,0.2,0.3,0.4l-1.5,13.3
			c-0.1,0.9-0.3,1.6-0.5,1.8c-0.2,0.3-0.6,0.6-1.2,0.9c-6.4,3-13.1,4.5-20.2,4.5c-8.5,0-15.6-1.9-21.3-5.7
			C11.2,67.3,7,62.5,4.3,56.6c-2.7-5.9-4-12.1-4-18.6c0-7.2,1.8-13.7,5.4-19.5C9.3,12.7,14.1,8.3,20,5.1C26,2,32.4,0.4,39.2,0.4
			C42.6,0.4,46,0.8,49.5,1.5z"/>
		<path class="st0" d="M101.9,30.3c1.4,0.9,2.1,2.1,2.1,3.4c0,1-0.3,1.9-0.9,2.6s-1.5,1.1-2.6,1.1c-0.6,0-1.2-0.1-1.6-0.4
			c-0.5-0.3-1-0.7-1.6-1.2c-0.6-0.6-1.2-1.1-1.8-1.4c-0.6-0.3-1.2-0.5-2-0.5c-0.9,0-1.9,0.4-2.9,1.2c-1,0.8-2.6,2.7-4.8,5.5v25.4
			c0,2.4,0.3,4.1,0.8,5.2c0.5,1.1,1.5,1.9,2.9,2.3C90.8,73.8,93,74,96,74c0.3,0,0.4,0.2,0.4,0.7s-0.1,0.7-0.4,0.7
			c-2.3,0-4.1,0-5.4-0.1l-7.9-0.1l-5.8,0.1c-0.9,0.1-2.2,0.1-3.8,0.1c-0.2,0-0.3-0.2-0.3-0.7S72.8,74,73,74c1.9,0,3.3-0.2,4.2-0.6
			c0.9-0.4,1.5-1.2,1.9-2.3c0.3-1.1,0.5-2.8,0.5-5.2V42.5c0-2.7-0.3-4.6-0.8-5.8c-0.6-1.2-1.5-1.8-2.9-1.8c-1.1,0-3,0.6-5.7,1.8H70
			c-0.3,0-0.5-0.2-0.6-0.5c-0.1-0.4,0-0.6,0.3-0.8L82,29c0.1-0.1,0.4-0.1,0.6-0.1c0.6,0,1.3,0.9,2,2.7c0.7,1.8,1.1,4.1,1.1,7v0.1
			c2.9-3.8,5.2-6.4,6.9-7.7c1.7-1.4,3.3-2.1,4.9-2.1C99,28.8,100.5,29.3,101.9,30.3z"/>
		<path class="st0" d="M146.4,68.8c0.2,0,0.4,0.1,0.6,0.4c0.2,0.3,0.2,0.5,0.1,0.8c-4.8,4.6-10,6.8-15.5,6.8
			c-4.2,0-7.8-1.1-10.8-3.2c-3-2.1-5.3-4.9-6.9-8.3c-1.5-3.4-2.3-7.1-2.3-11.2c0-4.7,1-9,3-12.9c2-3.9,4.8-6.9,8.2-9.1
			c3.5-2.2,7.3-3.4,11.6-3.4c3.8,0,6.8,1,8.9,3.1c2.1,2.1,3.2,4.9,3.2,8.6c0,0.9-0.1,1.6-0.3,2.1c-0.2,0.4-0.5,0.6-1,0.6l-26.1,0.2
			c-0.4,2.1-0.5,4.2-0.5,6.1c0,6.8,1.5,12.4,4.5,16.7c3,4.3,7.1,6.4,12.3,6.4c4,0,7.7-1.3,10.9-3.9H146.4z M123.5,34
			c-1.9,1.8-3.3,4.5-4.1,7.8l19.8-0.5c0-3.2-0.8-5.7-2.3-7.5c-1.5-1.8-3.6-2.7-6.1-2.7C127.9,31.2,125.5,32.1,123.5,34z"/>
		<path class="st0" d="M196.8,69.1c0.3,0,0.5,0.2,0.5,0.5c0.1,0.4,0,0.6-0.3,0.8L186,76.2c-0.3,0.2-0.6,0.2-0.8,0.2
			c-0.9,0-1.7-0.7-2.4-2c-0.7-1.3-1.2-3.2-1.4-5.5l-6.6,3.9c-2.2,1.3-4,2.2-5.4,2.7c-1.4,0.5-2.8,0.8-4.1,0.8c-2.2,0-3.9-0.6-5-1.9
			s-1.8-2.9-1.8-4.9c0-2.1,0.7-3.8,2.2-5.1c1.5-1.3,4.1-2.7,7.8-4.1l12.9-5.1v-9.8c0-5.2-0.6-8.8-1.8-10.9c-1.2-2.1-2.9-3.1-5-3.1
			c-2.4,0-4.3,0.9-5.6,2.8c-1.3,1.9-2.2,4.2-2.4,6.8c-0.3,3-1.6,4.5-3.9,4.5c-1.1,0-2-0.3-2.7-0.9c-0.6-0.6-1-1.5-1-2.6
			c0-1.8,1.1-3.7,3.2-5.8c2.1-2,4.7-3.8,7.7-5.2c3-1.4,5.7-2.1,8.1-2.1c2.8,0,5.1,1.1,6.8,3.2c1.7,2.2,2.5,5.4,2.5,9.7v20.9
			c0,2.8,0.3,4.8,1,6c0.6,1.3,1.7,1.9,3.2,1.9c1.3,0,3.1-0.5,5.2-1.5H196.8z M181.3,67.2v-0.7v-9.9l-10.9,4.6
			c-1.6,0.7-2.8,1.5-3.5,2.4c-0.7,0.9-1,2-1,3.3c0,1.7,0.4,2.9,1.3,3.8c0.8,0.9,1.9,1.4,3.3,1.4c1.3,0,2.8-0.4,4.4-1.2L181.3,67.2z"
			/>
		<path class="st0" d="M232.3,69.3c0.3,0,0.5,0.2,0.6,0.5c0.1,0.4,0.1,0.6-0.1,0.8c-2.6,2.3-5,3.9-7.1,4.8c-2.1,0.9-4.3,1.4-6.5,1.4
			c-3,0-5.4-0.7-7.3-2.2c-1.9-1.5-2.9-4-2.9-7.4V39.5c0-2-0.1-3.5-0.4-4.4c-0.2-0.9-0.7-1.4-1.4-1.7c-0.7-0.3-1.9-0.4-3.6-0.4
			c-0.3,0-0.4-0.3-0.4-0.8c0-0.5,0.1-0.8,0.4-0.8c2.8-0.1,5.1-0.9,6.9-2.5c1.8-1.6,2.8-3.8,3.1-6.4c0-0.2,0.3-0.4,0.8-0.4
			c0.5,0,0.7,0.1,0.7,0.4v8.7c3.5-0.1,8.5-0.5,14.8-1.2c0.1,0,0.3,0.3,0.5,0.9c0.2,0.6,0.3,1.2,0.3,1.9c0,0.6-0.1,1.3-0.4,1.9
			c-0.2,0.7-0.5,1-0.8,0.9c-3.9-1.1-8.7-1.7-14.3-1.9v29.4c0,3.2,0.7,5.6,2.2,7.2c1.5,1.6,3.5,2.4,6.2,2.4c3.3,0,6.1-1.1,8.5-3.3
			L232.3,69.3z"/>
		<path class="st0" d="M276,68.8c0.2,0,0.4,0.1,0.6,0.4c0.2,0.3,0.2,0.5,0.1,0.8c-4.8,4.6-10,6.8-15.5,6.8c-4.2,0-7.8-1.1-10.8-3.2
			c-3-2.1-5.3-4.9-6.9-8.3c-1.5-3.4-2.3-7.1-2.3-11.2c0-4.7,1-9,3-12.9c2-3.9,4.8-6.9,8.2-9.1c3.5-2.2,7.3-3.4,11.6-3.4
			c3.8,0,6.8,1,8.9,3.1c2.1,2.1,3.2,4.9,3.2,8.6c0,0.9-0.1,1.6-0.3,2.1c-0.2,0.4-0.5,0.6-1,0.6l-26.1,0.2c-0.4,2.1-0.5,4.2-0.5,6.1
			c0,6.8,1.5,12.4,4.5,16.7c3,4.3,7.1,6.4,12.3,6.4c4,0,7.7-1.3,10.9-3.9H276z M253.1,34c-1.9,1.8-3.3,4.5-4.1,7.8l19.8-0.5
			c0-3.2-0.8-5.7-2.3-7.5c-1.5-1.8-3.6-2.7-6.1-2.7C257.5,31.2,255,32.1,253.1,34z"/>
		<path class="st0" d="M171.9,109.8c2.6,1.2,3.8,2.7,3.8,4.4c0,1.2-0.4,2.1-1.2,2.8c-0.8,0.7-1.8,1-2.9,1c-0.9,0-1.8-0.2-2.5-0.7
			c-0.7-0.5-1.5-1.3-2.2-2.4c-1.2-1.7-2.5-2.9-3.8-3.7c-1.4-0.8-3.1-1.2-5.1-1.2c-4.6,0-8.2,2.6-10.9,7.9c-2.7,5.3-4,13.3-4,24v7.6
			c3.6-0.1,8.7-0.5,15.1-1.2c0.2,0,0.4,0.3,0.6,0.8c0.2,0.6,0.2,1.2,0.2,2c0,0.6-0.1,1.3-0.4,1.9c-0.2,0.7-0.5,1-0.8,0.9
			c-4.6-1.1-9.5-1.7-14.8-1.9v32.1c0,2.4,0.3,4.2,0.8,5.3c0.5,1.1,1.6,1.8,3.2,2.2c1.6,0.4,4.1,0.6,7.6,0.6c0.2,0,0.4,0.2,0.4,0.7
			s-0.1,0.7-0.4,0.7l-7.6-0.1c-1.7-0.1-4.2-0.1-7.6-0.1l-6.6,0.1c-1.1,0.1-2.7,0.1-4.7,0.1c-0.2,0-0.4-0.2-0.4-0.7s0.1-0.7,0.4-0.7
			c2.4,0,4.1-0.2,5.2-0.6c1.1-0.4,1.9-1.2,2.3-2.3c0.4-1.1,0.6-2.8,0.6-5.2v-26.5c0-2-0.2-3.5-0.6-4.3c-0.4-0.8-1.2-1.4-2.3-1.7
			c-1.1-0.3-3-0.4-5.7-0.4c-0.2,0-0.4-0.3-0.4-0.8c0-0.5,0.1-0.8,0.4-0.8c3.2,0,5.4-0.4,6.5-1.1c1.1-0.7,1.7-2.1,1.8-4.2
			c0.4-12.7,2.7-22,7-27.7c4.3-5.7,10.6-8.6,18.9-8.6C166.1,108,169.3,108.6,171.9,109.8z"/>
		<path class="st0" d="M170,190.4c-2.6-3.3-4-7.6-4-13c0-2.4,0.2-4.6,0.6-6.5c0.9-4.6,2.5-8.7,5-12.4c2.4-3.7,5.4-6.6,8.8-8.7
			c3.5-2.1,7.1-3.2,11-3.2c4.9,0,8.7,1.6,11.3,4.9c2.7,3.3,4,7.5,4,12.7c0,2.2-0.2,4.4-0.7,6.7c-0.9,4.8-2.7,9.1-5.3,12.8
			c-2.6,3.7-5.6,6.6-9.1,8.6c-3.5,2-7.1,3-10.7,3C176.3,195.3,172.6,193.7,170,190.4z M194,188c2.7-2.9,4.5-6.9,5.4-11.9
			c0.4-2.5,0.6-4.8,0.6-6.8c0-5.4-1-10.1-3.1-14c-2.1-3.9-5.1-5.8-8.9-5.8c-3.4,0-6.4,1.5-9.1,4.4c-2.7,3-4.5,6.9-5.5,12
			c-0.5,2.4-0.7,4.8-0.7,7.2c0,5.3,1.1,9.8,3.3,13.6c2.2,3.8,5.2,5.7,9.1,5.7C188.4,192.4,191.4,190.9,194,188z"/>
		<path class="st0" d="M250.6,148.7c1.4,1.1,2.1,2.4,2.1,3.9c0,1.2-0.4,2.2-1.1,3c-0.7,0.8-1.7,1.2-2.8,1.2c-0.9,0-1.6-0.2-2.1-0.6
			c-0.5-0.4-1-1-1.6-1.8c-0.3-0.4-0.7-0.8-1.1-1.1c-0.4-0.4-0.8-0.5-1.3-0.5c-1.7,0-3.8,2.3-6.2,6.8c-2.4,4.6-4.7,10-6.8,16.4
			s-3.7,12-4.6,16.9c-0.1,0.6-0.5,1-1.1,1.3c-0.7,0.3-1.6,0.5-2.7,0.5c-1,0-1.7-0.1-2.1-0.2c-0.4-0.1-0.5-0.3-0.5-0.5l0.6-2.7
			l1.2-6.3l3.9-21.8c0.5-2.6,0.7-4.6,0.7-6.1c0-3.5-0.9-5.3-2.8-5.3c-1.7,0-4.1,1.5-7.2,4.4l-0.2,0.1c-0.2,0-0.4-0.1-0.6-0.4
			c-0.2-0.3-0.2-0.5-0.1-0.6c2.4-2.7,4.7-4.7,6.7-6c2-1.3,4-2,6-2c1.6,0,2.7,0.5,3.5,1.5c0.7,1,1.1,2.8,1.1,5.3c0,2-0.3,5-0.9,9
			l-2.5,13.5c2.7-8.3,5.6-15.2,8.8-20.8c3.2-5.6,6.3-8.4,9.3-8.4C247.7,147.1,249.1,147.6,250.6,148.7z"/>
		<path class="st0" d="M103.5,304.2h-9.9v-27.6l-26.3-42.1h11.7l13.7,23c1,1.8,4.2,7.6,5.5,10.3c2.1-4.2,4-7.6,5.5-10.3l13.4-23
			h11.7l-25.3,42.1V304.2z"/>
		<path class="st0" d="M174.8,279.4c0,15.5-9.9,26.2-24.4,26.2c-14.4,0-24.3-10.8-24.3-26.7c0-15.8,9.8-26.6,24.3-26.6
			C165.2,252.4,174.8,263.1,174.8,279.4z M135.9,278.9c0,11.8,5.3,18.6,14.6,18.6c9.1,0,14.5-6.8,14.5-18.3
			c0-12.1-5.2-18.8-14.6-18.8C141.3,260.4,135.9,267.2,135.9,278.9z"/>
		<path class="st0" d="M219.2,304.2v-5.8c-5,5.3-9.1,7.1-16,7.1c-6,0-10.9-2-13.7-5.5c-2.4-3.1-3.3-6.7-3.3-12.5v-33.8h9.6v33
			c0,6.9,3.1,10.2,9.7,10.2c8.3,0,13.3-4.8,13.3-12.6v-30.6h9.6v50.5H219.2z"/>
		<path class="st0" d="M251.7,253.7v7.9c2-2.9,2.8-4.1,4.2-5.3c2.3-2.4,6-4,9-4c1.9,0,3.7,0.4,5.3,1.3v8.7c-2-0.4-3-0.5-4.4-0.5
			c-7.7,0-13.7,6.9-13.7,15.9v26.6h-9.6v-50.5H251.7z"/>
		<path class="st0" d="M308.2,269.2c-1.4-6.3-4.8-8.9-11.5-8.9c-5.8,0-9.6,2.4-9.6,6c0,2.5,1.8,4.2,5.9,5.2l11.7,3
			c10.6,2.7,14.9,7.1,14.9,14.8c0,9.9-8.2,16.2-21,16.2c-13.7,0-21.8-6.7-22.9-18.7h9.5c0.5,6.7,5.5,10.7,13.6,10.7
			c6.9,0,11.4-3,11.4-7.7c0-3.3-2.2-5.1-8-6.7l-10-2.5c-5.3-1.4-8.6-2.8-10.7-4.7c-2.3-2-3.8-5.3-3.8-8.7c0-8.7,8-14.8,19.4-14.8
			c7.2,0,13.2,2.4,16.7,6.7c2.2,2.7,3.1,5.4,3.6,10.1H308.2z"/>
		<path class="st0" d="M337,281.3c0.7,10.3,6,16.2,14.6,16.2c6,0,9.9-2.8,12.2-8.8h9.2c-2.4,10.6-10.5,16.8-21.6,16.8
			c-14.2,0-24-10.9-24-26.7s9.6-26.6,23.7-26.6c10,0,17.4,5.3,20.7,15.1c1.3,3.8,1.9,7.8,2,13.9H337z M363.8,274.3
			c-0.4-9.2-5-14.3-12.6-14.3c-7.8,0-13.5,5.9-14,14.3H363.8z"/>
		<path class="st0" d="M394.8,304.2h-9.6v-69.7h9.6V304.2z"/>
		<path class="st0" d="M428.7,261.4h-8.9v42.9h-9.6v-42.9h-7.1v-7.6h7.1v-8.3c0-8.8,3.8-12.2,13.4-12.2c1.7,0,2.8,0.1,5.1,0.5v8.2
			c-1.7-0.2-2.5-0.3-3.7-0.3c-4.2,0-5.2,1.4-5.2,6.9v5.2h8.9V261.4z"/>
	</g>
</g>
</svg>
