<?xml version="1.0" encoding="utf-8"?>
<!-- Generator: Adobe Illustrator 25.4.1, SVG Export Plug-In . SVG Version: 6.00 Build 0)  -->
<svg version="1.1" id="レイヤー_1" xmlns="http://www.w3.org/2000/svg" xmlns:xlink="http://www.w3.org/1999/xlink" x="0px"
	 y="0px" viewBox="0 0 431 132" style="enable-background:new 0 0 431 132;" xml:space="preserve">
<style type="text/css">
	.st0{fill:#FFFFFF;}
</style>
<g>
	<g>
		<g>
			<path class="st0" d="M82.6,51.2H70.6L53.8,0.2h13.5L74,23.4c0.1,0.2,0.3,1,0.5,1.9l0.4,1.5c0.2,0.8,0.4,1.6,0.7,2.4
				c0.2,0.6,0.4,1.2,0.5,1.9l0.7,2.7c0.8-3.4,1.4-5.4,2.8-10.6l6.8-23h13.2L82.6,51.2z M71.6,49.7h9.9l16-47.9h-10l-6.4,21.9
				c-1.8,6.5-2.2,8-3.5,13.4l-0.7,2.8l-2.2-8.3c-0.2-0.6-0.3-1.2-0.5-1.8c-0.2-0.8-0.5-1.6-0.7-2.5l-0.4-1.5
				c-0.4-1.4-0.5-1.9-0.6-2.1l-6.4-22H55.8L71.6,49.7z"/>
			<path class="st0" d="M121.3,52.1c-11.4,0-19.1-7.9-19.1-19.6c0-11.6,7.8-19.6,19.1-19.6c7.8,0,13.9,4,16.6,11
				c1.3,3.2,1.8,6.6,1.8,11.7v0.8h-25.3c0.8,4,3.3,6.1,7.2,6.1c2.6,0,4.3-0.9,5.6-2.8l0.2-0.3h12.1l-0.3,1
				C137.2,47.4,130.1,52.1,121.3,52.1z M121.3,14.4c-10.3,0-17.6,7.5-17.6,18.1c0,10.8,7.1,18.1,17.6,18.1c7.7,0,13.9-3.9,16.2-9.9
				h-9.2c-1.5,2.2-3.6,3.2-6.6,3.2c-4.9,0-8.1-3-8.8-8.2l-0.1-0.9h25.5c0-4.5-0.6-7.5-1.7-10.4C133.9,18,128.5,14.4,121.3,14.4z
				 M129,28.9h-16.3l0.2-0.9c0.9-4.6,3.8-7.1,8.3-7.1c4.5,0,7.2,2.6,7.7,7.2L129,28.9z M114.6,27.4h12.7c-0.6-3.3-2.7-5-6.1-5
				C117.8,22.4,115.5,24.1,114.6,27.4z"/>
			<path class="st0" d="M164.6,63.5c-10.3,0-16.7-4.4-17.5-12.1l-0.1-0.8h12.3l0.2,0.5c0.6,1.9,2.5,2.8,5.6,2.8
				c1.9,0,3.5-0.5,4.5-1.2c1.3-1,1.7-2,1.7-5.6v-0.7c-2.8,2.2-5.2,3-8.9,3c-9.8,0-16.9-7.6-16.9-18c0-10.4,7.1-18.3,16.6-18.3
				c4,0,7.2,1.3,9.6,3.9l-0.1-2.8H183V47c0,6-0.9,8.8-3.6,11.4C176.1,61.7,171,63.5,164.6,63.5z M148.7,52c1.1,6.4,6.7,9.9,15.9,9.9
				c6,0,10.7-1.5,13.8-4.6c2.4-2.3,3.1-4.7,3.1-10.4V15.6h-8.4l0.3,6.4l-1.5-2.4c-2.3-3.6-5.4-5.2-9.8-5.2
				c-8.6,0-15.1,7.2-15.1,16.8c0,9.7,6.3,16.5,15.4,16.5c3.8,0,6.1-0.9,9.1-3.7l1.3-1.1V47c0,3.8-0.5,5.4-2.3,6.8
				c-1.3,1-3.2,1.6-5.4,1.6c-3.5,0-5.8-1.1-6.8-3.3H148.7z M164.2,40.7c-5.1,0-8.7-4-8.7-9.6c0-5.8,3.5-9.6,8.7-9.6
				c5.2,0,8.7,3.8,8.7,9.5C172.9,36.9,169.5,40.7,164.2,40.7z M164.2,22.9c-4.4,0-7.2,3.2-7.2,8.1c0,4.9,2.9,8.1,7.2,8.1
				c4.5,0,7.2-3.1,7.2-8.3C171.4,26.1,168.5,22.9,164.2,22.9z"/>
			<path class="st0" d="M204.4,52.1c-8.3,0-13.9-4.8-13.9-11.9c0-7.1,4.4-10.9,14.9-12.6l5.7-1c2.4-0.4,2.6-0.9,2.6-1.7
				c0-1.9-2.4-2.5-4.7-2.5c-4.5,0-5.4,1.9-5.6,3.6l-0.1,0.6h-10.9l0.1-0.8c0.7-8.7,6.1-12.9,16.6-12.9c5.6,0,9.9,1.3,12.9,3.9
				c2.7,2.4,3.8,5.5,3.8,11v16.5c0,3.8,0.1,4.1,1.2,5.7l0.8,1.2h-12.7l-0.2-0.5c-0.3-0.8-0.4-1.2-0.5-1.8
				C211.1,51.3,208.5,52.1,204.4,52.1z M208.9,20.9c3.8,0,6.2,1.5,6.2,4c0,2.4-2,2.9-3.8,3.2l-5.7,1c-9.7,1.6-13.6,4.8-13.6,11.1
				c0,6.3,4.9,10.4,12.4,10.4c4.1,0,6.5-0.9,9.7-3.6l0.9-0.7l0.3,1.1c0.1,0.4,0.2,0.8,0.3,1c0.1,0.4,0.2,0.7,0.4,1.2h8.9
				c-0.7-1.3-0.7-2.3-0.7-5.4V27.8c0-5.1-0.9-7.8-3.3-9.9c-2.7-2.3-6.7-3.5-11.9-3.5c-9.3,0-14.1,3.4-15,10.7h8
				C202.6,22.3,204.9,20.9,208.9,20.9z M206.9,44.1c-3.8,0-6.1-1.7-6.1-4.5c0-3.2,3-4.3,6-5l3.8-0.8c1.8-0.4,2.7-0.7,3.7-1.1l1-0.4
				V39l-0.1,0.2C213.5,42.5,210.7,44.1,206.9,44.1z M213.9,34.4c-0.9,0.3-1.7,0.5-3,0.8l-3.8,0.8c-4.2,1-4.8,2.3-4.8,3.6
				c0,2.7,3.2,3,4.6,3c3.2,0,5.4-1.3,7-4V34.4z"/>
			<path class="st0" d="M269,51.2h-12V30.9c0-3.5-0.2-4.8-1-6c-0.7-1.1-2.1-1.7-3.7-1.7c-1.6,0-3,0.6-4,1.7c-1,1.2-1.4,2.5-1.4,5.4
				v20.8h-12V13.9h11.7v2.6c3.2-2.7,5.5-3.6,9-3.6c8.2,0,13.3,5.5,13.3,14.4V51.2z M258.5,49.7h9V27.2c0-8.1-4.4-12.9-11.8-12.9
				c-3.6,0-5.6,1-9.3,4.3l-1.3,1.2v-4.4h-8.7v34.3h9V30.3c0-3.3,0.4-5,1.7-6.4c1.2-1.4,3-2.2,5.1-2.2c2.1,0,3.9,0.9,4.9,2.4
				c1,1.5,1.2,2.9,1.2,6.8V49.7z"/>
			<path class="st0" d="M325.8,51.2h-12.1L297,0.2h13.5l6.7,23.2c0.1,0.2,0.3,1,0.5,1.9l0.4,1.5c0.2,0.8,0.4,1.6,0.7,2.4
				c0.2,0.6,0.4,1.2,0.5,1.9l0.7,2.7c0.8-3.4,1.4-5.4,2.8-10.6l6.8-23h13.2L325.8,51.2z M314.9,49.7h9.9l16-47.9h-10l-6.4,21.9
				c-1.8,6.5-2.2,8-3.5,13.4l-0.7,2.8l-2.2-8.3c-0.2-0.6-0.3-1.2-0.5-1.8c-0.2-0.8-0.5-1.6-0.7-2.5l-0.4-1.5
				c-0.4-1.4-0.5-1.9-0.6-2.1l-6.4-22h-10.3L314.9,49.7z"/>
			<path class="st0" d="M359.3,51.2h-12V13.9h12V51.2z M348.7,49.7h9V15.4h-9V49.7z M359.3,10.4h-12V0.2h12V10.4z M348.7,8.9h9V1.7
				h-9V8.9z"/>
			<path class="st0" d="M388.2,51.2H381c-4.8,0-7.3-0.7-9-2.6c-1.8-1.9-2.3-4-2.3-9.8V23.2h-5v-8.9h5V3h12v11.3h6.4v8.9h-6.4v13.2
				c0,5.3,0.1,5.3,1.9,5.3h4.5V51.2z M366.1,21.7h5v17.1c0,5.7,0.5,7.2,1.9,8.8c1.4,1.6,3.6,2.1,7.9,2.1h5.7v-6.4h-3
				c-3.3,0-3.4-1.4-3.4-6.8V21.7h6.4v-5.9h-6.4V4.5h-9v11.3h-5V21.7z"/>
			<path class="st0" d="M406.4,52.1c-8.3,0-13.9-4.8-13.9-11.9c0-7.1,4.4-10.9,14.9-12.6l5.7-1c2.4-0.4,2.6-0.9,2.6-1.7
				c0-1.9-2.4-2.5-4.7-2.5c-4.5,0-5.4,1.9-5.6,3.6l-0.1,0.6h-10.9l0.1-0.8c0.7-8.7,6.1-12.9,16.6-12.9c5.6,0,9.9,1.3,12.9,3.9
				c2.7,2.4,3.8,5.5,3.8,11v16.5c0,3.8,0.1,4.1,1.2,5.7l0.8,1.2h-12.7l-0.2-0.5c-0.3-0.8-0.4-1.2-0.5-1.8
				C413,51.3,410.4,52.1,406.4,52.1z M410.8,20.9c3.8,0,6.2,1.5,6.2,4c0,2.4-2,2.9-3.8,3.2l-5.7,1c-9.7,1.6-13.6,4.8-13.6,11.1
				c0,6.3,4.9,10.4,12.4,10.4c4.1,0,6.5-0.9,9.7-3.6l0.9-0.7l0.3,1.1c0.1,0.4,0.2,0.8,0.3,1c0.1,0.4,0.2,0.7,0.4,1.2h8.9
				c-0.7-1.3-0.7-2.3-0.7-5.4V27.8c0-5.1-0.9-7.8-3.3-9.9c-2.7-2.3-6.7-3.5-11.9-3.5c-9.3,0-14.1,3.4-15,10.7h8
				C404.5,22.3,406.8,20.9,410.8,20.9z M408.9,44.1c-3.8,0-6.1-1.7-6.1-4.5c0-3.2,3-4.3,6-5l3.8-0.8c1.8-0.4,2.7-0.7,3.7-1.1l1-0.4
				V39l-0.1,0.2C415.4,42.5,412.7,44.1,408.9,44.1z M415.9,34.4c-0.9,0.3-1.7,0.5-3,0.8l-3.8,0.8c-4.2,1-4.8,2.3-4.8,3.6
				c0,2.7,3.2,3,4.6,3c3.2,0,5.4-1.3,7-4V34.4z"/>
		</g>
	</g>
	<g>
		<path class="st0" d="M36.7,90.9H11.5v11h22.1v9.1H11.5v19.8H0.4V81.4h36.3V90.9z"/>
		<path class="st0" d="M52.4,90.1H41.9v-8.7h10.5V90.1z M52.4,130.8H41.9V95h10.5V130.8z"/>
		<path class="st0" d="M70.7,130.8H60.2V81.4h10.5V130.8z"/>
		<path class="st0" d="M96.6,102.9h-6.4v13.9c0,5.6,0.2,6.1,2.7,6.1h3.8v7.9h-6.4c-4.6,0-6.9-0.7-8.4-2.4c-1.6-1.8-2.1-3.7-2.1-9.3
			v-16.3h-5v-7.4h5V84.1h10.5v11.3h6.4V102.9z"/>
		<path class="st0" d="M110,116c0.7,4.9,3.6,7.6,8.1,7.6c2.8,0,4.8-1,6.2-3.2H135c-2,7-8.7,11.4-17.2,11.4c-11,0-18.4-7.6-18.4-18.8
			c0-11.2,7.5-18.9,18.3-18.9c7.6,0,13.3,3.8,15.9,10.5c1.3,3.1,1.8,6.4,1.8,11.4H110z M124.6,108.6c-0.4-4.2-2.9-6.5-7-6.5
			s-6.7,2.3-7.6,6.5H124.6z"/>
		<path class="st0" d="M151.8,95l-0.3,6.4c2.1-5.8,4.7-7.4,12.4-7.3v9.9c-1.3-0.1-1.8-0.1-2.7-0.1c-3.6,0-6.6,1.6-7.8,4.3
			c-1,2.4-1.4,5.7-1.4,12.6v10.1h-10.5V95H151.8z"/>
		<path class="st0" d="M200.7,130.8h-11.1V81.4H209c6.7,0,10.3,1,13.5,3.8c3.4,3,5.3,7.6,5.3,12.9c0,4.5-1.4,8.4-4.2,11.4
			c-3,3.1-6.7,4.5-12.5,4.5h-10.4V130.8z M209.4,104.5c4.4,0,7-2.6,7-6.8c0-4.3-2.7-6.8-7-6.8h-8.7v13.6H209.4z"/>
		<path class="st0" d="M268.9,113.2c0,10.8-8,18.6-19,18.6c-11.1,0-19-7.8-19-18.9c0-11,7.9-18.8,19-18.8
			C261.2,94.1,268.9,101.8,268.9,113.2z M241.5,112.9c0,6.7,3,10.5,8.4,10.5c5.3,0,8.4-3.8,8.4-10.3c0-6.9-3-10.7-8.4-10.7
			C244.6,102.4,241.5,106.2,241.5,112.9z"/>
		<path class="st0" d="M281.2,130.8L270.5,95h10.7l3,11.7c0.8,3.2,1.9,8.6,2.4,11.6c1-5.3,1.9-9.5,2.4-11.6l3-11.7h9.1l3.2,11.7
			c1.3,5.5,2,8.6,2.5,11.6c0.6-3.7,1.3-7,2.3-11.6L312,95h10.9l-10.2,35.8h-10.1l-3.3-12.5c-1-4.3-1.7-7.3-2.7-12
			c-1,5-1.9,8.9-2.7,12l-3,12.5H281.2z"/>
		<path class="st0" d="M360.1,130.8H350V127c-2.7,3.5-5.5,4.8-9.9,4.8c-9.4,0-15.7-7.5-15.7-18.8c0-11.4,6.4-19,16-19
			c3.9,0,6.6,1.1,9.1,3.7V81.4h10.5V130.8z M334.8,112.9c0,6.3,3,10.4,7.6,10.4c4.5,0,7.6-4.2,7.6-10.2c0-6.4-3-10.5-7.6-10.5
			S334.8,106.6,334.8,112.9z"/>
		<path class="st0" d="M376.7,116c0.7,4.9,3.6,7.6,8.1,7.6c2.8,0,4.8-1,6.2-3.2h10.7c-2,7-8.7,11.4-17.2,11.4
			c-11,0-18.4-7.6-18.4-18.8c0-11.2,7.5-18.9,18.3-18.9c7.6,0,13.3,3.8,15.9,10.5c1.3,3.1,1.8,6.4,1.8,11.4H376.7z M391.3,108.6
			c-0.4-4.2-2.9-6.5-7-6.5s-6.7,2.3-7.6,6.5H391.3z"/>
		<path class="st0" d="M418.5,95l-0.3,6.4c2.1-5.8,4.7-7.4,12.4-7.3v9.9c-1.3-0.1-1.8-0.1-2.7-0.1c-3.6,0-6.6,1.6-7.8,4.3
			c-1,2.4-1.4,5.7-1.4,12.6v10.1h-10.5V95H418.5z"/>
	</g>
</g>
</svg>
