<?xml version="1.0" encoding="utf-8"?>
<!-- Generator: Adobe Illustrator 25.4.1, SVG Export Plug-In . SVG Version: 6.00 Build 0)  -->
<svg version="1.1" id="レイヤー_1" xmlns="http://www.w3.org/2000/svg" xmlns:xlink="http://www.w3.org/1999/xlink" x="0px"
	 y="0px" viewBox="0 0 96 26" style="enable-background:new 0 0 96 26;" xml:space="preserve">
<style type="text/css">
	.st0{fill:#E0BEB1;}
</style>
<g>
	<g>
		<path class="st0" d="M16.4,10.4c-0.2,0.7-0.4,1.5-0.8,2.2c-0.4,0.7-0.9,1.4-1.6,1.9c-0.6,0.6-1.4,1-2.3,1.4
			c-0.9,0.4-1.9,0.5-3,0.5c-1.3,0-2.4-0.2-3.3-0.7c-1-0.4-1.7-1-2.4-1.8c-0.6-0.7-1.1-1.6-1.4-2.6c-0.3-1-0.5-2-0.5-3.1
			c0-1.1,0.2-2.1,0.5-3.1c0.3-1,0.8-1.9,1.5-2.6c0.6-0.7,1.5-1.3,2.5-1.8s2.2-0.7,3.5-0.7c0.9,0,1.7,0.1,2.4,0.3
			c0.7,0.2,1.3,0.4,1.8,0.7s0.9,0.6,1.3,1c0.3,0.4,0.6,0.7,0.9,1.1s0.4,0.7,0.5,1c0.1,0.3,0.2,0.5,0.3,0.7L14,5.2
			c-0.1-0.3-0.2-0.6-0.3-0.8c-0.1-0.3-0.3-0.6-0.6-0.9c-0.4-0.5-0.9-0.9-1.6-1.3C10.9,1.9,10,1.7,9.1,1.7c-0.8,0-1.6,0.2-2.4,0.5
			C5.9,2.5,5.3,3,4.8,3.7C4.3,4.3,3.9,5,3.8,5.8S3.5,7.3,3.5,8.1c0,1,0.1,1.9,0.4,2.7c0.2,0.8,0.6,1.5,1.1,2.1c0.5,0.6,1,1,1.7,1.4
			c0.7,0.3,1.5,0.5,2.4,0.5c0.6,0,1.1-0.1,1.7-0.3c0.6-0.2,1.1-0.4,1.6-0.8c0.5-0.4,0.9-0.8,1.2-1.4c0.3-0.6,0.6-1.3,0.7-2.1
			L16.4,10.4z"/>
		<path class="st0" d="M33.8,8.1c0,1.2-0.2,2.3-0.5,3.3c-0.3,1-0.8,1.9-1.5,2.6s-1.5,1.3-2.5,1.8c-1,0.4-2.1,0.6-3.4,0.6
			c-1.2,0-2.3-0.2-3.2-0.6c-1-0.4-1.8-1-2.4-1.7c-0.7-0.7-1.2-1.6-1.6-2.6s-0.5-2.1-0.5-3.3c0-1.4,0.2-2.7,0.7-3.7
			c0.5-1,1.1-1.9,1.8-2.5c0.7-0.7,1.6-1.1,2.5-1.5c0.9-0.3,1.9-0.5,2.8-0.5c1.1,0,2.1,0.2,3.1,0.5c1,0.4,1.8,0.9,2.5,1.6
			c0.7,0.7,1.3,1.5,1.7,2.5C33.6,5.7,33.8,6.8,33.8,8.1z M31.6,8.1c0-0.9-0.1-1.8-0.4-2.6c-0.2-0.8-0.6-1.4-1.1-2
			c-0.5-0.6-1-1-1.7-1.3S26.9,1.7,26,1.7c-1,0-1.8,0.2-2.5,0.5s-1.3,0.8-1.7,1.4c-0.5,0.6-0.8,1.3-1,2.1c-0.2,0.8-0.3,1.6-0.3,2.5
			c0,0.8,0.1,1.6,0.3,2.4c0.2,0.8,0.5,1.5,1,2.1c0.5,0.6,1,1.1,1.7,1.5c0.7,0.4,1.6,0.6,2.6,0.6c1,0,1.9-0.2,2.6-0.6
			c0.7-0.4,1.3-0.9,1.7-1.5c0.4-0.6,0.7-1.3,0.9-2.1C31.5,9.7,31.6,8.9,31.6,8.1z"/>
		<path class="st0" d="M38.9,14.2h7.5V16h-9.6V0.4h2.1V14.2z"/>
		<path class="st0" d="M64,8.1c0,1.2-0.2,2.3-0.5,3.3c-0.3,1-0.8,1.9-1.5,2.6s-1.5,1.3-2.5,1.8c-1,0.4-2.1,0.6-3.4,0.6
			c-1.2,0-2.3-0.2-3.2-0.6c-1-0.4-1.8-1-2.4-1.7c-0.7-0.7-1.2-1.6-1.6-2.6s-0.5-2.1-0.5-3.3c0-1.4,0.2-2.7,0.7-3.7
			c0.5-1,1.1-1.9,1.8-2.5c0.7-0.7,1.6-1.1,2.5-1.5c0.9-0.3,1.9-0.5,2.8-0.5c1.1,0,2.1,0.2,3.1,0.5c1,0.4,1.8,0.9,2.5,1.6
			c0.7,0.7,1.3,1.5,1.7,2.5C63.8,5.7,64,6.8,64,8.1z M61.8,8.1c0-0.9-0.1-1.8-0.4-2.6c-0.2-0.8-0.6-1.4-1.1-2c-0.5-0.6-1-1-1.7-1.3
			s-1.5-0.5-2.4-0.5c-1,0-1.8,0.2-2.5,0.5S52.4,3.1,52,3.7c-0.5,0.6-0.8,1.3-1,2.1c-0.2,0.8-0.3,1.6-0.3,2.5c0,0.8,0.1,1.6,0.3,2.4
			c0.2,0.8,0.5,1.5,1,2.1c0.5,0.6,1,1.1,1.7,1.5c0.7,0.4,1.6,0.6,2.6,0.6c1,0,1.9-0.2,2.6-0.6c0.7-0.4,1.3-0.9,1.7-1.5
			c0.4-0.6,0.7-1.3,0.9-2.1C61.7,9.7,61.8,8.9,61.8,8.1z"/>
		<path class="st0" d="M69.3,9.4V16h-2V0.5h5.8c0.5,0,1,0,1.5,0c0.4,0,0.8,0.1,1.2,0.1s0.7,0.2,1,0.3c0.3,0.1,0.6,0.3,0.9,0.5
			c0.6,0.4,1,0.9,1.2,1.6c0.3,0.6,0.4,1.3,0.4,2c0,0.9-0.2,1.6-0.5,2.2c-0.3,0.5-0.7,1-1.1,1.3c-0.4,0.3-0.8,0.5-1.2,0.6
			s-0.7,0.2-0.9,0.2L80,16h-2.5l-4.2-6.6H69.3z M69.3,7.7h4.1c0.3,0,0.7,0,1,0c0.3,0,0.6-0.1,0.9-0.1c0.7-0.2,1.2-0.5,1.5-1
			c0.3-0.5,0.4-1,0.4-1.5c0-0.1,0-0.2,0-0.4S77.2,4.2,77.1,4S77,3.6,76.8,3.4c-0.1-0.2-0.3-0.4-0.5-0.6c-0.4-0.3-0.9-0.5-1.4-0.6
			c-0.5-0.1-1-0.1-1.6-0.1h-4V7.7z"/>
		<path class="st0" d="M87.8,8.8c-0.6-0.1-1.2-0.3-1.8-0.4c-0.7-0.2-1.3-0.4-1.8-0.7c-0.6-0.3-1-0.7-1.4-1.3c-0.4-0.5-0.6-1.2-0.6-2
			c0-0.4,0-0.7,0.1-1c0.1-0.3,0.2-0.6,0.4-0.8C82.9,2.3,83,2,83.2,1.9c0.2-0.2,0.3-0.3,0.5-0.5c0.4-0.3,0.7-0.5,1.1-0.7
			c0.4-0.2,0.7-0.3,1.1-0.4c0.4-0.1,0.7-0.1,1.1-0.2c0.3,0,0.6,0,0.9,0c0.3,0,0.6,0,0.9,0c0.3,0,0.7,0.1,1.1,0.2
			c0.4,0.1,0.7,0.2,1.1,0.3s0.7,0.3,1.1,0.6c0.4,0.3,0.7,0.6,0.9,0.9c0.2,0.3,0.4,0.7,0.6,1c0.1,0.3,0.3,0.6,0.3,0.9
			C93.9,4.3,94,4.6,94,4.8L91.9,5c0-0.1,0-0.3,0-0.5s-0.1-0.4-0.2-0.7c-0.1-0.2-0.2-0.5-0.4-0.7c-0.2-0.2-0.4-0.5-0.7-0.7
			c-0.4-0.3-0.8-0.5-1.3-0.6s-1-0.2-1.5-0.2c-0.5,0-0.9,0-1.3,0.1c-0.4,0.1-0.8,0.2-1.1,0.5S84.9,2.7,84.7,3
			c-0.2,0.3-0.3,0.7-0.3,1.1c0,0.4,0.1,0.8,0.3,1.1c0.2,0.3,0.4,0.5,0.7,0.7s0.6,0.3,1,0.4c0.4,0.1,0.7,0.2,1,0.3L89.2,7
			c0.6,0.1,1.1,0.3,1.4,0.4c0.4,0.1,0.7,0.2,1,0.3c0.6,0.2,1.1,0.5,1.4,0.9c0.4,0.3,0.6,0.7,0.8,1s0.3,0.7,0.4,1.1s0.1,0.6,0.1,0.9
			c0,0.7-0.2,1.4-0.5,2.1c-0.3,0.7-0.8,1.2-1.5,1.7c-0.4,0.2-0.8,0.4-1.2,0.6c-0.4,0.1-0.8,0.3-1.2,0.3c-0.4,0.1-0.7,0.1-1.1,0.1
			s-0.6,0-0.8,0s-0.6,0-1,0s-0.8-0.1-1.3-0.2c-0.5-0.1-0.9-0.3-1.4-0.5c-0.5-0.2-0.9-0.5-1.3-0.9s-0.7-0.9-1-1.5
			c-0.3-0.6-0.5-1.3-0.5-2.2l2.2-0.3c0,0.1,0,0.3,0,0.6c0,0.2,0.1,0.5,0.2,0.8s0.2,0.5,0.4,0.8c0.2,0.3,0.4,0.6,0.7,0.8
			c0.4,0.4,0.9,0.6,1.5,0.8c0.6,0.2,1.1,0.2,1.7,0.2c0.5,0,1.1-0.1,1.5-0.2s0.9-0.3,1.2-0.6c0.3-0.3,0.6-0.6,0.8-1
			c0.2-0.4,0.3-0.8,0.3-1.3c0-0.5-0.1-0.8-0.2-1.1c-0.2-0.3-0.4-0.5-0.7-0.7c-0.3-0.2-0.6-0.4-0.9-0.5c-0.4-0.1-0.7-0.2-1.1-0.3
			L87.8,8.8z"/>
	</g>
	<rect x="0.2" y="24.9" class="st0" width="95.7" height="1"/>
</g>
</svg>
