<?xml version="1.0" encoding="utf-8"?>
<!-- Generator: Adobe Illustrator 25.4.1, SVG Export Plug-In . SVG Version: 6.00 Build 0)  -->
<svg version="1.1" id="レイヤー_1" xmlns="http://www.w3.org/2000/svg" xmlns:xlink="http://www.w3.org/1999/xlink" x="0px"
	 y="0px" viewBox="0 0 265 12" style="enable-background:new 0 0 265 12;" xml:space="preserve">
<style type="text/css">
	.st0{fill:#DCD034;}
</style>
<g>
	<g>
		<path class="st0" d="M2.3,0.7l4.5,8.8l4.5-8.8h2L7.7,11.3H5.8L0.2,0.7H2.3z"/>
		<path class="st0" d="M26.5,9.7v1.6H15.9V0.7h10.5v1.6h-8.6v2.8H25v1.6h-7.3v3H26.5z"/>
		<path class="st0" d="M41.8,8.9c-1,1.6-3.1,2.7-6,2.7C31.6,11.6,29,9.5,29,6s2.5-5.6,6.7-5.6c2.6,0,4.4,1,5.5,2.1l-1.5,1.1
			c-0.9-1.1-2.2-1.6-4-1.6c-3,0-4.8,1.4-4.8,4c0,2.7,1.9,4,4.9,4c1.9,0,3.4-0.5,4.2-1.7V7.1h-4.4V5.6h6.2V8.9z"/>
		<path class="st0" d="M53.8,8.8H47l-1.4,2.6h-2l5.8-10.6h2l5.8,10.6h-2L53.8,8.8z M53,7.2l-2.6-4.9l-2.6,4.9H53z"/>
		<path class="st0" d="M71.6,0.7v10.6h-1.6l-8.3-8.4v8.4h-1.8V0.7h1.9l8,8.1V0.7H71.6z"/>
		<path class="st0" d="M81.7,0.7l4.5,8.8l4.5-8.8h2l-5.5,10.6h-1.9L79.7,0.7H81.7z"/>
		<path class="st0" d="M95.3,11.3V0.7h1.8v10.6H95.3z"/>
		<path class="st0" d="M111.5,2.3h-4.9v9.1h-1.8V2.3H100V0.7h11.5V2.3z"/>
		<path class="st0" d="M123,8.8h-6.8l-1.4,2.6h-2l5.8-10.6h2l5.8,10.6h-2L123,8.8z M122.2,7.2l-2.6-4.9L117,7.2H122.2z"/>
		<path class="st0" d="M144.2,8.1l1.7,0.8c-1,1.6-3,2.7-5.6,2.7c-4,0-6.5-2.1-6.5-5.6s2.5-5.6,6.6-5.6c2.6,0,4.6,1.1,5.6,2.6
			l-1.7,0.9C143.4,2.5,142,2,140.3,2c-2.8,0-4.7,1.4-4.7,4c0,2.7,1.9,4,4.7,4C142,10,143.4,9.5,144.2,8.1z"/>
		<path class="st0" d="M148.2,6c0-3.5,2.5-5.6,6.6-5.6c4.1,0,6.6,2.1,6.6,5.6s-2.5,5.6-6.6,5.6C150.7,11.6,148.2,9.5,148.2,6z
			 M159.6,6c0-2.6-1.9-4-4.7-4c-2.9,0-4.8,1.4-4.8,4c0,2.6,1.9,4,4.8,4C157.7,10,159.6,8.6,159.6,6z"/>
		<path class="st0" d="M174.5,9.7v1.6h-9.7V0.7h1.8v9H174.5z"/>
		<path class="st0" d="M187,9.7v1.6h-9.7V0.7h1.8v9H187z"/>
		<path class="st0" d="M200.5,9.7v1.6h-10.6V0.7h10.5v1.6h-8.6v2.8h7.3v1.6h-7.3v3H200.5z"/>
		<path class="st0" d="M213.5,8.1l1.7,0.8c-1,1.6-3,2.7-5.6,2.7c-4,0-6.5-2.1-6.5-5.6s2.5-5.6,6.6-5.6c2.6,0,4.6,1.1,5.6,2.6
			l-1.7,0.9c-0.8-1.3-2.1-1.9-3.9-1.9c-2.8,0-4.7,1.4-4.7,4c0,2.7,1.9,4,4.7,4C211.3,10,212.7,9.5,213.5,8.1z"/>
		<path class="st0" d="M228.4,2.3h-4.9v9.1h-1.8V2.3h-4.8V0.7h11.5V2.3z"/>
		<path class="st0" d="M231.2,11.3V0.7h1.8v10.6H231.2z"/>
		<path class="st0" d="M236.4,6c0-3.5,2.5-5.6,6.6-5.6c4.1,0,6.6,2.1,6.6,5.6s-2.5,5.6-6.6,5.6C239,11.6,236.4,9.5,236.4,6z
			 M247.8,6c0-2.6-1.9-4-4.7-4c-2.9,0-4.8,1.4-4.8,4c0,2.6,1.9,4,4.8,4C245.9,10,247.8,8.6,247.8,6z"/>
		<path class="st0" d="M264.8,0.7v10.6h-1.6l-8.3-8.4v8.4h-1.8V0.7h1.9l8,8.1V0.7H264.8z"/>
	</g>
</g>
</svg>
