<?xml version="1.0" encoding="utf-8"?>
<!-- Generator: Adobe Illustrator 25.4.1, SVG Export Plug-In . SVG Version: 6.00 Build 0)  -->
<svg version="1.1" id="レイヤー_1" xmlns="http://www.w3.org/2000/svg" xmlns:xlink="http://www.w3.org/1999/xlink" x="0px"
	 y="0px" viewBox="0 0 470 67" style="enable-background:new 0 0 470 67;" xml:space="preserve">
<style type="text/css">
	.st0{fill:#C99A90;}
</style>
<g>
	<g>
		<path class="st0" d="M26.2,4.7c2.9,2.8,4.4,6.3,4.4,10.4v36.8c0,4-1.5,7.5-4.4,10.4s-6.5,4.3-10.6,4.3c-4.2,0-7.7-1.4-10.6-4.3
			C2,59.4,0.5,56,0.5,51.9V15.1C0.5,11,2,7.6,4.9,4.7c2.9-2.9,6.5-4.3,10.6-4.3C19.7,0.4,23.2,1.9,26.2,4.7z M12.8,12.4
			c-0.8,0.7-1.1,1.6-1.1,2.7v36.8c0,1,0.4,1.9,1.1,2.7c0.8,0.7,1.7,1.1,2.7,1.1s1.9-0.4,2.7-1.1s1.1-1.6,1.1-2.7V15.1
			c0-1-0.4-1.9-1.1-2.7c-0.7-0.7-1.6-1.1-2.7-1.1S13.6,11.7,12.8,12.4z"/>
		<path class="st0" d="M34.5,2.8V0.4h2.5h25.2h2.5v2.4v6.4l-0.1,0.5l-11.6,55l-0.4,1.9h-2h-6.4h-3l0.6-2.9l11-52.4H36.9h-2.5V8.9
			V2.8z"/>
		<path class="st0" d="M120.8,44.2v6.2c0,4.5-1.6,8.3-4.9,11.4c-3.3,3.2-7.2,4.8-11.7,4.8H90.8V0.4h12.7c4.6,0,8.5,1.6,11.7,4.8
			c3.3,3.1,4.9,7,4.9,11.5v6.1c0,4.3-2.3,7.9-4.6,10.4C117.7,35.7,120.8,39.9,120.8,44.2z M103.8,11.3H102v16.7h1.9
			c2.9,0,5.4-2.4,5.4-5.3v-6.1C109.3,13.8,106.8,11.3,103.8,11.3z M104.2,38.9H102v16.8h2.3c2.9,0,5.4-2.4,5.4-5.3v-6.2
			C109.7,41.4,107.2,38.9,104.2,38.9z"/>
		<path class="st0" d="M128.4,66.6H126v-2.4v-30V20.4V2.8V0.4h2.4h6.3h4.3c4.6,0,8.5,1.6,11.8,4.8s4.9,7,4.9,11.5v9.9
			c0,4.1-1.8,7.7-4.6,10.7c2.8,3.1,4.6,6.7,4.6,10.7v12.5c-0.1,2.7,0.2,4.7,1,6.1h-11.2c-0.5-0.8-0.8-1.7-0.9-2.8s-0.2-2.2-0.2-3.3
			V48c0-1.5-0.5-2.7-1.6-3.7c-1.1-1-2.3-1.6-3.8-1.6h-1.9v21.5v2.4h-2.4H128.4z M137.1,31.8h2.3c1.5,0,2.8-0.5,3.8-1.6
			c1.1-1,1.6-2.3,1.6-3.7v-9.9c0-1.5-0.5-2.7-1.6-3.7c-1.1-1-2.3-1.6-3.8-1.6h-2.3V31.8z"/>
		<path class="st0" d="M170.9,0.4h2.4v2.4v61.4v2.4h-2.4h-6.3h-2.4v-2.4V2.8V0.4h2.4H170.9z"/>
		<path class="st0" d="M205.1,4.7c2.9,2.8,4.4,6.3,4.4,10.4v1.5V19H207h-6.3h-2.5v-2.4v-1.5c0-1-0.4-1.9-1.1-2.7
			c-0.7-0.7-1.6-1.1-2.7-1.1s-2,0.4-2.7,1.1s-1.1,1.6-1.1,2.7v36.8c0,1,0.4,1.9,1.1,2.7c0.8,0.7,1.7,1.1,2.7,1.1
			c1,0,1.9-0.4,2.7-1.1s1.1-1.6,1.1-2.7v-1.5V48h2.5h6.3h2.5v2.4v1.5c0,4-1.5,7.5-4.4,10.4c-2.9,2.9-6.5,4.3-10.6,4.3
			c-4.2,0-7.7-1.4-10.6-4.3c-2.9-2.9-4.4-6.3-4.4-10.4V15.1c0-4.1,1.5-7.5,4.4-10.4c2.9-2.9,6.5-4.3,10.6-4.3
			C198.6,0.4,202.1,1.9,205.1,4.7z"/>
		<path class="st0" d="M225.6,0.4v23.2l7.7-21.9l0.6-1.4h11.8c-5,10.6-7.1,18.1-12.1,30.5c4.8,14.1,7.5,23.3,12.3,35.7h-12
			c-1.6-5.1-4.5-15.3-8.2-27.4c0,6.3-0.2,21.1-0.2,27.4h-11.2V0.4H225.6z"/>
		<path class="st0" d="M301.1,44.2v6.2c0,4.5-1.6,8.3-4.9,11.4c-3.3,3.2-7.2,4.8-11.7,4.8H271V0.4h12.7c4.6,0,8.5,1.6,11.7,4.8
			c3.3,3.1,4.9,7,4.9,11.5v6.1c0,4.3-2.3,7.9-4.6,10.4C298,35.7,301.1,39.9,301.1,44.2z M284.1,11.3h-1.9v16.7h1.9
			c2.9,0,5.4-2.4,5.4-5.3v-6.1C289.5,13.8,287,11.3,284.1,11.3z M284.5,38.9h-2.3v16.8h2.3c2.9,0,5.4-2.4,5.4-5.3v-6.2
			C289.9,41.4,287.4,38.9,284.5,38.9z"/>
		<path class="st0" d="M308.6,66.6h-2.4v-2.4v-30V20.4V2.8V0.4h2.4h6.3h4.3c4.6,0,8.5,1.6,11.8,4.8s4.9,7,4.9,11.5v9.9
			c0,4.1-1.8,7.7-4.6,10.7c2.8,3.1,4.6,6.7,4.6,10.7v12.5c-0.1,2.7,0.2,4.7,1,6.1h-11.2c-0.5-0.8-0.8-1.7-0.9-2.8s-0.2-2.2-0.2-3.3
			V48c0-1.5-0.5-2.7-1.6-3.7c-1.1-1-2.3-1.6-3.8-1.6h-1.9v21.5v2.4H315H308.6z M317.4,31.8h2.3c1.5,0,2.8-0.5,3.8-1.6
			c1.1-1,1.6-2.3,1.6-3.7v-9.9c0-1.5-0.5-2.7-1.6-3.7c-1.1-1-2.3-1.6-3.8-1.6h-2.3V31.8z"/>
		<path class="st0" d="M367.1,4.7c2.9,2.9,4.4,6.3,4.4,10.4v36.8c0,4-1.5,7.5-4.4,10.4c-2.9,2.9-6.5,4.3-10.6,4.3
			c-4.2,0-7.7-1.4-10.6-4.3c-2.9-2.9-4.4-6.3-4.4-10.4V15.1c0-4.1,1.5-7.5,4.4-10.4c2.9-2.9,6.5-4.3,10.6-4.3
			C360.6,0.4,364.1,1.9,367.1,4.7z M353.7,12.4c-0.8,0.7-1.1,1.6-1.1,2.7v36.8c0,1,0.4,1.9,1.1,2.7c0.8,0.7,1.7,1.1,2.7,1.1
			c1,0,1.9-0.4,2.7-1.1c0.8-0.7,1.1-1.6,1.1-2.7V15.1c0-1-0.4-1.9-1.1-2.7s-1.7-1.1-2.7-1.1C355.4,11.3,354.5,11.7,353.7,12.4z"/>
		<path class="st0" d="M391.9,39.3l5.8-38.9h8.2l5.8,38.9l5.5-36.9l0.4-2h11.3c-3.8,21.4-7.5,42.8-11.3,64.2l-0.4,2h-10.9
			c-1.7-11.4-2.9-23.2-4.5-34.8l-4.1,32.8l-0.4,2h-10.9c-3.7-21.1-7.4-42.3-11.1-63.4l-0.5-2.8h11.3l0.4,2L391.9,39.3z"/>
		<path class="st0" d="M432.7,0.4h15c6,26.6,6.3,25.5,10.9,45.1c0-10.2-0.4-34.9-0.4-45.1h11.2v66.2h-15.4
			c-6.4-26.1-6.9-27.5-10.2-43.6v43.6h-11.2V0.4z"/>
	</g>
</g>
</svg>
