<?xml version="1.0" encoding="utf-8"?>
<!-- Generator: Adobe Illustrator 25.4.1, SVG Export Plug-In . SVG Version: 6.00 Build 0)  -->
<svg version="1.1" id="レイヤー_1" xmlns="http://www.w3.org/2000/svg" xmlns:xlink="http://www.w3.org/1999/xlink" x="0px"
	 y="0px" viewBox="0 0 222 95" style="enable-background:new 0 0 222 95;" xml:space="preserve">
<style type="text/css">
	.st0{fill:#E4C8AD;}
	.st1{fill:#FFFFFF;}
	.st2{fill:#666666;}
</style>
<g>
	<rect x="18" y="1.6" class="st0" width="187" height="27.7"/>
	<g>
		<g>
			<path class="st1" d="M31.3,9c-0.1,0.5-0.1,0.9-0.2,2.2c-0.1,1.5-0.2,4.7-0.2,5.9c0,1.5,0.1,2.1,0.4,2.6c0.4,0.5,1.1,0.8,2.1,0.8
				c1.7,0,3.1-1,3.9-2.7c0.4-0.8,0.6-1.6,0.7-2.7c0.9,0.7,1.2,0.9,1.9,1.2c-0.6,2.2-1.1,3.2-1.9,4.1c-1.2,1.4-2.8,2-4.8,2
				c-1.1,0-2.1-0.3-2.8-0.7c-1.1-0.7-1.6-2-1.6-4.1c0-0.8,0-2.4,0.1-6.5c0-0.5,0-0.8,0-1c0-0.4,0-0.7-0.1-1.1L31.3,9z"/>
			<path class="st1" d="M45.1,14.5c0.4,0,0.4,0,1.7-0.3c2.2-0.5,3.6-0.7,4.9-0.7c1.8,0,3.1,0.5,3.8,1.6c0.4,0.6,0.6,1.3,0.6,2.1
				c0,2.1-1.5,3.9-4,4.7c-1,0.3-1.4,0.4-3.5,0.6c-0.2-0.8-0.3-1.1-0.7-1.8c0.1,0,0.2,0,0.2,0c0.6,0,1.5-0.1,2.3-0.2
				c1.2-0.2,2-0.5,2.7-1.1c0.8-0.6,1.1-1.3,1.1-2.2c0-1.2-0.9-1.9-2.6-1.9c-1.1,0-2.3,0.2-4.2,0.6c-1,0.2-1.3,0.3-1.9,0.5L45.1,14.5
				z"/>
			<path class="st1" d="M66.7,8.9c0,0.1-0.1,0.3-0.1,0.5c0,0.2,0,0.3-0.1,0.5c0,0.3,0,0.3-0.3,1.5c-0.1,0.4-0.1,0.4-0.1,0.6
				c0.5,0,0.7,0,1,0c1.1,0,1.8,0.3,2.4,0.8c0.5,0.6,0.8,1.4,0.8,2.8c0,2.8-0.5,4.9-1.2,5.8c-0.4,0.5-0.9,0.7-1.8,0.7
				c-0.7,0-1.4-0.1-2.5-0.5c0-0.3,0-0.5,0-0.7c0-0.4,0-0.7-0.2-1.4c0.9,0.4,1.8,0.6,2.3,0.6c0.5,0,0.7-0.3,1-1.1
				c0.3-0.8,0.4-2.3,0.4-3.7c0-1.5-0.4-1.9-1.6-1.9c-0.3,0-0.6,0-0.9,0c-0.5,2-0.6,2.4-1,3.5c-0.6,1.6-1,2.6-1.9,4.5
				c-0.1,0.2-0.1,0.2-0.2,0.5c0,0.1,0,0.1-0.1,0.3l-1.9-1c0.5-0.6,1.1-1.8,1.7-3c0.7-1.6,0.9-2.2,1.6-4.5C63,14,61.5,14.2,61,14.4
				l-0.2-1.9c0.6,0,2.5-0.2,3.4-0.3c0.3-1.7,0.4-2.7,0.4-3.2c0-0.1,0-0.2,0-0.3L66.7,8.9z M72,10.9c1.6,1.9,2.6,3.8,3.3,6.2
				l-1.8,0.9c-0.3-1.4-0.7-2.4-1.3-3.6c-0.6-1.2-1.1-1.9-1.8-2.7L72,10.9z"/>
			<path class="st1" d="M82.4,8.7c-0.2,0.5-0.3,1-0.6,3.1c-0.1,0.7-0.2,1.2-0.2,1.6h0c0-0.1,0-0.1,0.1-0.4c0.2-0.6,0.6-1.3,1-1.9
				c0.9-1.1,1.9-1.6,3-1.6c1.1,0,2,0.5,2.7,1.4c0.8,1.1,1.2,2.4,1.2,4.3c0,3.1-1.4,5.4-4.1,6.6c-0.8,0.4-1.9,0.7-3.1,0.9
				c-0.3-0.9-0.5-1.3-0.9-1.9c1.6-0.2,2.5-0.4,3.5-0.9c1.9-0.9,2.7-2.5,2.7-4.9c0-2.3-0.8-3.6-2.1-3.6c-0.6,0-1.2,0.3-1.7,0.8
				c-1.2,1.3-2,3.3-2,5.2c0,0.1,0,0.2,0,0.3l-1.9,0c0-0.1,0-0.2,0-0.2c0-0.1,0-0.2,0-0.3c0-0.5,0-1.6,0-2c0-1.3,0.1-3.1,0.2-4.2
				l0.2-2c0-0.3,0-0.3,0-0.5L82.4,8.7z"/>
			<path class="st1" d="M107.8,12.3c-0.1,0.3-0.2,0.5-0.2,1.1c0,1.8-0.2,4.3-0.4,5.3c-0.4,2.8-1,3.4-2.9,3.4c-0.6,0-1.2,0-2-0.2
				c0-1-0.1-1.3-0.4-2c0.9,0.3,1.6,0.4,2.1,0.4c0.7,0,0.9-0.4,1.2-1.7c0.2-1.1,0.4-3.3,0.4-5.1l-3.7,0c-0.2,2-0.6,3.2-1.3,4.6
				c-0.9,1.7-2.3,3.2-4.3,4.4c-0.5-0.8-0.8-1.1-1.4-1.7c2-1.1,3.3-2.3,4.2-4c0.4-0.9,0.7-1.7,0.8-2.8c0-0.2,0.1-0.4,0.1-0.5l-2.7,0
				c-1,0-1.2,0-1.7,0.1l0-2c0.5,0.1,1,0.1,1.8,0.1l2.8,0c0-0.6,0.1-1.5,0.1-2V9.3c0-0.2,0-0.3,0-0.6l2.1,0c0,0.2,0,0.3-0.1,0.5
				c0,0.1,0,0.2,0,0.3c0,0.3,0,0.3-0.1,1.2c0,0.4,0,0.5-0.1,1l3.6,0c0.7,0,0.9,0,1.3-0.1L107.8,12.3z"/>
			<path class="st1" d="M117.3,10.2c0,0.2-0.1,0.2-0.1,0.3l0,0.3l-0.1,0.5l0,0.4c-0.7,4.6-1.9,7.7-4.1,10.2c-0.8-0.7-1.1-1-1.8-1.4
				c1-1,1.6-1.9,2.3-3.4c0.7-1.5,1.2-3.5,1.5-5.5c0.1-0.7,0.1-1.2,0.1-1.6c0,0,0-0.1,0-0.2L117.3,10.2z M121.8,9.8
				c0,0.7,0.3,2.3,0.7,3.7c0.8,3,1.9,5.1,3.6,6.9c-0.8,0.5-1.2,0.8-1.8,1.5c-2.1-2.5-3.6-6.2-4.2-10.5c-0.1-0.7-0.1-0.9-0.2-1.2
				L121.8,9.8z M123.2,8.8c0.6,0.8,0.9,1.5,1.3,2.6l-1.2,0.4c-0.4-1-0.7-1.7-1.3-2.6L123.2,8.8z M125.4,11.2c-0.4-1-0.8-1.8-1.3-2.5
				l1.2-0.3c0.6,0.8,1,1.5,1.3,2.5L125.4,11.2z"/>
			<path class="st1" d="M128.7,14.5c0.7,0.1,1,0.1,2.6,0.1h8.5c1.6,0,1.9,0,2.6-0.1v2.2c-0.6-0.1-0.8-0.1-2.6-0.1h-8.5
				c-1.8,0-2,0-2.6,0.1V14.5z"/>
			<path class="st1" d="M147.1,16.7c0-0.8,0-1,0-1.8c-0.5,0.8-0.7,1.1-1.4,1.9c-0.2-0.7-0.2-0.8-0.7-1.9c1-1,1.8-2.2,2.5-3.7
				c0.6-1.2,0.9-2.2,1-3l1.8,0.5c-0.1,0.3-0.1,0.3-0.5,1.3c-0.3,0.7-0.4,1-1,2.3v8.9c0,0.7,0,1.2,0.1,1.9h-2
				c0.1-0.6,0.1-1.1,0.1-1.9V16.7z M153.6,10.2c0-0.8,0-1.2-0.1-1.7h2c-0.1,0.5-0.1,0.9-0.1,1.7v2.8h2.8c0.8,0,1.3,0,1.8-0.1v1.9
				c-0.6-0.1-1.2-0.1-1.8-0.1h-2.8v6h2.4c0.7,0,1.3,0,1.8-0.1v1.9c-0.5-0.1-1.1-0.1-1.8-0.1h-6.1c-0.7,0-1.3,0-1.8,0.1v-1.9
				c0.5,0.1,1.1,0.1,1.8,0.1h2v-6h-2.2c-0.6,0-1.2,0-1.8,0.1V13c0.5,0.1,1.1,0.1,1.9,0.1h2.2V10.2z"/>
			<path class="st1" d="M170,20.7h4.6c0.8,0,1.6,0,2.2-0.1v1.9c-0.7-0.1-1.3-0.1-2.1-0.1h-10.2c-0.8,0-1.5,0-2.2,0.1v-1.9
				c0.6,0.1,1.3,0.1,2.2,0.1h3.7V10.4c0-0.7,0-1.2-0.1-1.8h2.1c-0.1,0.6-0.1,1.1-0.1,1.8v2.7h3.8c0.7,0,1.3,0,1.9-0.1v1.9
				c-0.6-0.1-1.2-0.1-1.9-0.1H170V20.7z"/>
			<path class="st1" d="M184.4,16.9c-1,1.8-1.8,4.2-1.8,5.1l-1.9,0.1c0-0.2,0-0.3-0.1-0.6c-0.4-1.8-0.6-3.4-0.6-5.2s0.1-2.8,0.6-6.1
				c0.1-0.7,0.1-0.8,0.1-1.2l2.1,0.2c-0.6,1.9-1,4.8-1,7.4c0,0.2,0,1.5,0,1.6c0,0.2,0,0.4,0,0.6c0.2-0.7,0.3-0.9,0.4-1.1
				c0.5-1.3,0.5-1.3,0.7-1.6L184.4,16.9z M184,12.3c0.7,0.2,1.6,0.2,2.9,0.2c0.6,0,0.7,0,1.7-0.1c0-1.5-0.1-1.6-0.1-2.1
				c0-0.7,0-0.8-0.1-1.2l2,0c0,0.3,0,0.5,0,0.6c0,0,0,0.1,0,0.2c0,0.5,0,1.3,0.1,2.3c1.1-0.2,2-0.4,2.4-0.6l0.1,1.9
				c-0.3,0-0.4,0-0.9,0.2c-0.8,0.2-0.9,0.2-1.6,0.3c0,0.3,0,0.5,0,0.8c0,1.7-0.1,3-0.3,3.8c-0.4,1.3-0.9,2.3-1.8,3.1
				c-0.5,0.4-0.9,0.7-1.7,1.2c-0.5-0.7-0.9-1-1.6-1.5c1.1-0.5,1.8-1,2.4-1.7c0.8-1,1.1-2.1,1.1-4.5c0-0.3,0-0.5,0-1
				c-0.5,0-1.4,0.1-2.2,0.1c-0.4,0-1,0-1.5,0c-0.5,0-0.5,0-0.7,0c-0.1,0-0.1,0-0.2,0V12.3z M191.4,8.2c0.5,0.8,0.8,1.6,1.1,2.5
				l-1.1,0.3c-0.3-1-0.6-1.8-1.1-2.5L191.4,8.2z M193.4,10.5c-0.3-0.9-0.6-1.8-1.1-2.4l1-0.3c0.4,0.7,0.8,1.4,1.1,2.4L193.4,10.5z"
				/>
		</g>
	</g>
	<g>
		<g>
			<path class="st2" d="M24.9,51.6c-0.1,0.2-0.1,0.4-0.2,0.7c-0.7,2.4-1.4,4-2.7,5.6c-0.2-0.3-0.4-0.4-0.6-0.7c-0.3,0-0.6,0-1.1,0
				h-0.7c0.6,1.3,1.3,2.4,2.3,3.4c-0.3,0.3-0.4,0.5-0.6,0.8c-0.9-1.1-1.3-1.8-1.9-3.3c0,0.8,0.1,2,0.1,2.4v3.1c0,0.8,0,1.3,0.1,1.8
				h-1.2c0.1-0.4,0.1-0.9,0.1-1.8v-2.8c0-0.5,0-1.6,0.1-2.5c-0.5,2-1.2,3.4-2.4,4.8c-0.2-0.4-0.4-0.6-0.6-0.9c1.2-1.2,2.1-2.9,2.7-5
				H17c-0.4,0-0.9,0-1.2,0.1v-1c0.3,0,0.7,0.1,1.2,0.1h1.4v-3.8c0-0.8,0-1.2-0.1-1.7h1.2c-0.1,0.4-0.1,0.8-0.1,1.7v3.8h0.8
				c0.5,0,0.8,0,1.1-0.1v0.8c1-1.3,1.6-2.4,2-4c0.3-1,0.4-1.4,0.4-1.8L24.9,51.6z M16.8,51.8c0.5,1.3,0.7,2.1,1,3.5L17,55.7
				c-0.2-1.4-0.4-2.2-0.9-3.5L16.8,51.8z M21.9,52.2c-0.4,1.5-0.7,2.3-1.2,3.6l-0.7-0.4c0.5-1.1,0.8-2.1,1.1-3.6L21.9,52.2z
				 M24,58.1c-0.6,0-1,0-1.4,0.1v-1.1c0.4,0.1,0.8,0.1,1.4,0.1h3.6c0.6,0,1,0,1.3-0.1c0,0.2-0.1,0.5-0.1,0.8c0,0.4,0,1.2-0.1,2.3
				c-0.1,2-0.3,3.5-0.6,4.1c-0.3,0.5-0.7,0.8-1.6,0.8c-0.4,0-1.1,0-1.6-0.1c0-0.4-0.1-0.6-0.2-1c0.8,0.1,1.2,0.2,1.7,0.2
				c0.7,0,0.8-0.2,1-1.1c0.2-1,0.3-2.5,0.4-4.9h-2.7c-0.1,1.1-0.1,1.3-0.2,1.9c-0.3,1.5-1,2.8-1.9,3.9c-0.6,0.6-1.1,1-2,1.5
				c-0.2-0.4-0.4-0.5-0.7-0.8c1.5-0.8,2.4-1.6,3-2.8c0.6-1.1,0.8-2,0.9-3.7H24z M27.4,51.2c0.1,0.3,0.2,0.6,0.3,0.9
				c0.7,1.9,1.6,3.4,3,5c-0.3,0.2-0.5,0.4-0.8,0.8c-1.1-1.4-1.6-2.1-2.2-3.4c-0.4-0.8-0.7-1.4-1-2.2c0-0.1-0.2-0.6-0.3-0.7
				L27.4,51.2z"/>
			<path class="st2" d="M39.3,50.9c1.1,1.4,2.1,2.3,3.8,3.4c1.2,0.8,2.1,1.2,3.3,1.6c-0.3,0.3-0.5,0.5-0.7,0.9c-2.9-1.3-5.2-3-7-5.1
				c-1.1,1.4-2,2.2-3.2,3c-1.1,0.8-2.2,1.5-3.6,2.1c-0.3-0.4-0.3-0.5-0.7-0.9c1.3-0.5,2.5-1.2,3.6-2c1.4-0.9,2.4-1.9,3.3-3.2H39.3z
				 M43,60c0.5,0,0.8,0,1.1-0.1c-0.1,0.4-0.1,0.8-0.1,1.2V64c0,0.5,0,0.9,0.1,1.3H43v-0.8h-8.3v0.8h-1.1c0.1-0.5,0.1-0.9,0.1-1.3
				v-2.8c0-0.4,0-0.8-0.1-1.2c0.3,0,0.7,0.1,1.2,0.1h4.6l2.6-2.2h-6.8c-0.6,0-1.1,0-1.5,0.1v-1c0.4,0.1,0.8,0.1,1.4,0.1h6.7
				c0.7,0,1,0,1.2-0.1l0.6,0.6c0,0,0,0-0.2,0.1c0,0-0.1,0.1-0.2,0.1c0,0-0.1,0.1-0.3,0.2l-2.3,2H43z M34.8,63.7H43v-2.8h-8.3V63.7z
				 M36.1,54.6c0.4,0.1,0.7,0.1,1.3,0.1h2.9c0.6,0,0.9,0,1.3-0.1v1c-0.4-0.1-0.7-0.1-1.3-0.1h-2.9c-0.6,0-1,0-1.4,0.1V54.6z"/>
			<path class="st2" d="M50,52.2c0.4,0.1,0.8,0.1,1.6,0.1c0.9,0,2.2,0,2.7-0.1c0.3,0,0.4-0.1,0.6-0.2l0.8,0.7
				c-0.2,0.3-0.2,0.4-0.9,2.3c-0.4,1.1-0.5,1.4-0.8,2.2c1.5,0.2,2.7,0.5,4.4,1.3c0.1-0.9,0.2-1.6,0.2-3.2c0-0.4,0-0.5-0.1-0.8l1.2,0
				c0,0.3,0,0.4-0.1,1c0,1.6-0.1,2.5-0.3,3.5c0.9,0.4,1.4,0.7,2.2,1.2c0.1,0.1,0.2,0.1,0.5,0.2l-0.4,1.2c-0.5-0.4-1.3-0.9-2.5-1.6
				c-0.4,1.2-0.9,2-1.6,2.9c-0.7,0.8-1.6,1.5-2.5,2c-0.4-0.4-0.5-0.6-0.8-0.8c1.2-0.6,1.9-1,2.6-1.8c0.7-0.8,1.2-1.7,1.5-2.7
				c-1.4-0.8-2.8-1.2-4.4-1.3c-0.5,1.6-1.1,3.1-1.5,3.9c-0.6,1.1-1.2,1.6-1.9,1.6c-1.2,0-2.1-1.1-2.1-2.6c0-1.3,0.7-2.5,1.9-3.2
				c0.8-0.5,1.6-0.7,2.9-0.7c0.5-1.6,0.7-2.2,1.3-4c-1.3,0.1-1.5,0.1-3,0.2c-0.6,0-0.8,0-1.2,0.1L50,52.2z M50,59.1
				c-0.5,0.5-0.8,1.2-0.8,1.8c0,0.8,0.5,1.5,1,1.5c0.7,0,1.2-1,2.4-4.4C51.4,58.2,50.6,58.5,50,59.1z"/>
			<path class="st2" d="M64.1,55.4c0.6,0,1.2-0.1,3.5-0.4c0.3-1.2,0.5-2.7,0.5-3.4c0,0,0-0.1,0-0.2l1.3,0.1
				c-0.1,0.3-0.2,0.7-0.3,1.5c-0.1,0.4-0.2,1.1-0.3,1.8c0.4,0,0.6,0,0.9,0c1.1,0,1.8,0.2,2.3,0.7c0.6,0.5,0.8,1.3,0.8,2.6
				c0,2.4-0.4,4.6-1.1,5.5c-0.4,0.5-0.8,0.8-1.6,0.8c-0.7,0-1.4-0.2-2.4-0.6c0-0.2,0-0.4,0-0.6c0-0.2,0-0.3,0-0.6
				c0.9,0.5,1.8,0.7,2.4,0.7c0.4,0,0.7-0.3,0.9-0.8c0.4-1,0.7-2.7,0.7-4.5c0-1.7-0.5-2.2-2-2.2c-0.4,0-0.6,0-1.2,0.1
				c-0.7,3-1.8,5.8-3.5,8.7L64,63.9c1.3-1.7,2.7-4.9,3.4-8c-2,0.3-2.5,0.4-3.2,0.6L64.1,55.4z M74.6,53.9c1.6,1.7,2.7,3.6,3.3,5.7
				l-1,0.6c-0.5-2-1.8-4.3-3.3-5.7L74.6,53.9z M75.3,51.2c0.7,0.9,1.2,1.5,1.6,2.5l-0.8,0.5c-0.4-0.8-1.2-2-1.6-2.5L75.3,51.2z
				 M77.1,50.3c0.7,0.9,1.1,1.5,1.6,2.5L78,53.2c-0.3-0.8-1-1.8-1.6-2.5L77.1,50.3z"/>
			<path class="st2" d="M87.3,51.2c-0.1,0.4-0.1,0.9-0.1,2.1c0,0.4,0,0.5,0,1.7c1.8,0,3.8-0.3,4.7-0.6l0.1,1.2c-0.3,0-0.3,0-1,0.1
				c-1.4,0.2-2.5,0.3-3.9,0.4c0,1.6,0.1,3.1,0.2,4.1c1.3,0.4,2.6,1.1,4.3,2.3c0.3,0.2,0.3,0.3,0.7,0.5l-0.8,1.1
				c-0.3-0.4-0.8-0.8-1.7-1.4c-0.7-0.5-1.6-1-2.2-1.2c-0.2-0.1-0.2-0.1-0.4-0.2c0,0.2,0.1,0.5,0.1,0.7c0,0.7-0.1,1.3-0.4,1.6
				c-0.5,0.7-1.5,1.1-2.8,1.1c-2.1,0-3.3-0.9-3.3-2.4c0-1.5,1.5-2.5,3.8-2.5c0.5,0,1.1,0.1,1.4,0.1c0.1,0,0.1,0,0.1,0c0,0,0,0,0.1,0
				c0-0.1,0-0.1,0-0.1c0,0,0,0,0-0.1c-0.1-1.8-0.2-4.9-0.3-7.2c0-0.8,0-0.9-0.1-1.3H87.3z M84.7,60.8c-1.6,0-2.6,0.6-2.6,1.5
				c0,0.3,0.1,0.5,0.2,0.7c0.3,0.4,1.1,0.6,1.9,0.6c0.8,0,1.4-0.2,1.8-0.5c0.3-0.3,0.4-0.6,0.4-1.2c0-0.2,0-0.9,0-0.9
				C85.7,60.8,85.4,60.8,84.7,60.8z"/>
			<path class="st2" d="M105.9,52.1c-0.2,0.1-0.3,0.3-2,1.9c-0.8,0.8-1.7,1.5-3.7,3c-0.6,0.4-0.7,0.6-0.7,0.8c0,0.3,0.1,0.4,1.4,1.4
				c2.3,1.8,2.8,2.1,5.1,4.4c0.2,0.2,0.3,0.3,0.4,0.4l-1,1c-0.4-0.5-1-1.2-2.1-2.2c-1.1-1-1.7-1.5-4-3.3c-0.9-0.7-1.2-1.1-1.2-1.6
				c0-0.4,0.2-0.8,0.5-1.1c0.2-0.2,0.2-0.2,1.4-1.1c2.1-1.6,4.1-3.5,4.7-4.4L105.9,52.1z"/>
			<path class="st2" d="M112.4,61c1.3,1.1,2.1,1.9,3.2,3.4l-0.9,0.8c-1-1.5-2-2.5-3.2-3.5L112.4,61z"/>
			<path class="st2" d="M132,51.7c-0.1,0.5-0.2,1.4-0.2,3.4c-0.1,1.9-0.1,4.1-0.1,4.8c0,0.2,0,0.6,0,1c0.1,1,0.3,1.5,0.8,1.9
				c0.4,0.4,1.2,0.6,2,0.6c1.9,0,3.4-1,4.3-2.8c0.4-0.8,0.6-1.4,0.8-2.5c0.4,0.4,0.6,0.5,1.2,0.8c-0.6,1.9-1.1,2.8-1.8,3.6
				c-1.1,1.3-2.6,2-4.5,2c-1.4,0-2.4-0.4-3-1.1c-0.7-0.8-0.9-1.6-0.9-3.3c0-1.1,0-1.5,0.1-6.5c0-0.5,0-0.8,0-1c0-0.3,0-0.5-0.1-0.8
				H132z"/>
			<path class="st2" d="M149.4,51.3c-0.1,0.3-0.1,0.4-0.3,1c-0.1,0.5-0.2,0.9-0.4,1.7c1.1-0.1,2.1-0.3,2.9-0.5l0,1.1
				c-0.2,0-0.2,0-0.6,0.1c-0.7,0.1-1.6,0.3-2.6,0.3c-0.5,1.7-1.1,3.2-1.8,4.7c-0.4,0.8-0.5,1-1.1,2.1c-0.1,0.2-0.2,0.4-0.3,0.5
				l-1.1-0.6c0.5-0.6,0.9-1.3,1.5-2.5c0.7-1.5,1.2-2.6,1.7-4.1c-0.4,0-0.9,0-1.2,0c-0.3,0-0.8,0-1.1,0c-0.2,0-0.3,0-0.4,0
				c0,0-0.1,0-0.2,0l0-1.1c0.5,0.1,1,0.1,1.9,0.1c0.3,0,0.8,0,1.2,0c0.3-0.9,0.5-2.3,0.5-3L149.4,51.3z M157,63.8
				c-0.6-0.8-1.6-1.6-2.8-2.2c0,0.3,0,0.4,0,0.5c0,1.6-1.1,2.6-3,2.6c-1.9,0-3.1-0.9-3.1-2.3c0-0.9,0.6-1.7,1.5-2
				c0.6-0.2,1.2-0.4,1.9-0.4c0.6,0,1,0.1,1.6,0.2c-0.1-1-0.1-1.8-0.1-2.2c0-0.6,0-1,0.2-1.6l1.1,0.1c-0.2,0.6-0.2,0.9-0.2,1.5
				c0,0.7,0.1,1.8,0.2,2.4c1.3,0.6,2.3,1.2,3.1,1.9c0.2,0.2,0.2,0.2,0.3,0.3L157,63.8z M151.4,60.9c-1.4,0-2.2,0.6-2.2,1.4
				c0,0.8,0.8,1.3,2,1.3c1.4,0,2-0.5,2-1.7c0-0.2,0-0.7,0-0.7C152.5,61,152,60.9,151.4,60.9z M157,56.5c-1.3-0.9-2.6-1.6-4.2-2.2
				l0.6-0.9c1.9,0.7,2.9,1.3,4.2,2.1L157,56.5z"/>
			<path class="st2" d="M163.2,51.9c0.1,0.4,0.1,0.5,0.3,1c0.3,0.9,0.5,1.4,0.7,2.1c2.2-0.7,2.2-0.7,3.4-0.9c0-2.3,0-2.4-0.1-2.8
				h1.2c-0.1,0.4-0.1,0.9-0.1,2.2c0,0,0,0.3,0,0.5c0.4-0.1,0.8-0.1,1.2-0.1c2.1,0,3.5,1.2,3.5,2.9c0,1.9-1.6,3.3-3.8,3.3
				c-0.9,0-1.8-0.2-2.7-0.6c0-0.1,0-0.2,0-0.3c0-0.2,0-0.3-0.1-0.9c0.8,0.5,1.8,0.7,2.7,0.7c0.7,0,1.4-0.2,1.9-0.6
				c0.5-0.4,0.8-0.9,0.8-1.6c0-1.2-0.9-1.9-2.6-1.9c-1.2,0-2.9,0.4-5.2,1.1c0.8,2.7,1.4,5,2.1,8c0.1,0.3,0.1,0.4,0.2,0.7l-1.3,0.3
				c-0.1-1.3-1-5.2-2-8.6c-0.1,0.1-0.1,0.1-0.9,0.3c-0.9,0.3-1.8,0.6-2.2,0.9l-0.4-1.1c0.4-0.1,0.4-0.1,2.4-0.8
				c0.4-0.1,0.6-0.2,0.8-0.3c-0.5-1.6-0.8-2.5-1.2-3L163.2,51.9z"/>
			<path class="st2" d="M176.3,55.3c0.6,0,2.2-0.2,3.5-0.4c0.3-1.2,0.5-2.7,0.5-3.4c0,0,0-0.1,0-0.2l1.3,0.1
				c-0.1,0.4-0.2,0.6-0.3,1.5c-0.1,0.5-0.2,1.1-0.3,1.8c0.4,0,0.6,0,0.9,0c1.1,0,1.8,0.2,2.3,0.7c0.6,0.5,0.8,1.3,0.8,2.6
				c0,2.4-0.4,4.6-1.1,5.5c-0.4,0.5-0.8,0.8-1.6,0.8c-0.7,0-1.4-0.2-2.4-0.6c0-0.2,0-0.4,0-0.6c0-0.2,0-0.4,0-0.6
				c0.9,0.5,1.8,0.7,2.4,0.7c0.4,0,0.7-0.3,0.9-0.8c0.4-1,0.7-2.7,0.7-4.5c0-1.7-0.5-2.2-2-2.2c-0.4,0-0.6,0-1.2,0.1
				c-0.6,2.5-1.3,4.6-2.4,6.8c-0.2,0.4-0.5,1-1,1.9l-1.1-0.6c0.5-0.6,1.1-1.7,1.7-2.9c0.8-1.6,1.2-3,1.8-5.1
				c-1.4,0.2-2.1,0.3-2.3,0.4c-0.4,0.1-0.5,0.1-0.9,0.2L176.3,55.3z M186.8,53.8c1.6,1.8,2.6,3.4,3.3,5.7l-1,0.6
				c-0.6-2.2-1.7-4.2-3.3-5.7L186.8,53.8z"/>
			<path class="st2" d="M192.3,53.5c0.3,0,0.5,0,0.6,0c0.2,0,0.4,0,0.9,0c0.9-0.1,1-0.1,3-0.2l2.5-0.2c2-0.1,2.2-0.1,2.7-0.1l0.9,0
				c1.4-0.1,1.7-0.1,1.9-0.2l0.1,1.2c-0.6,0-1.2,0.1-1.8,0.2c-1.1,0.3-2.2,0.8-3.1,1.6c-1.3,1.1-2,2.4-2,3.7c0,1.3,0.8,2.4,2.2,3
				c0.8,0.3,1.8,0.5,2.4,0.5c0,0,0.1,0,0.2,0l-0.2,1.3c-0.2,0-0.2,0-0.5-0.1c-1.6-0.3-2.5-0.6-3.5-1.2c-1.1-0.8-1.8-1.9-1.8-3.3
				c0-1.9,1.1-3.6,3-4.9c0.5-0.3,0.9-0.6,1.5-0.8c-0.9,0.2-1.8,0.2-3.5,0.4c-3.2,0.2-4.9,0.4-5.5,0.5L192.3,53.5z M203,55.9
				c0.7,0.9,1.2,1.5,1.6,2.5l-0.8,0.5c-0.4-0.8-1.2-2-1.6-2.5L203,55.9z M204.8,55.1c0.7,0.9,1.1,1.5,1.6,2.5l-0.8,0.4
				c-0.4-0.8-1-1.8-1.6-2.5L204.8,55.1z"/>
			<path class="st2" d="M18.7,86.7c0.7,0,1,0,1.4-0.1c0,0.5,0,0.5-0.1,1.4c-0.1,1.7-0.3,3.2-0.6,4c-0.3,0.9-0.6,1.1-1.8,1.1
				c-0.5,0-0.9,0-1.6-0.1c0-0.4,0-0.7-0.2-1.1c0.7,0.1,1.4,0.2,1.9,0.2c0.6,0,0.7-0.2,0.9-1.1c0.2-0.8,0.3-1.9,0.4-3.4h-2
				c-0.6,0-0.8,0-1.2,0c0.3-1.4,0.5-3.2,0.5-4.2c0,0,0-0.1,0-0.3c0.4,0.1,0.6,0.1,1.3,0.1h1.6v-2.6h-1.9c-0.6,0-1.1,0-1.5,0.1v-1.1
				c0.4,0.1,0.9,0.1,1.5,0.1H19c0.7,0,0.8,0,1.2,0c0,0.3,0,0.7,0,1.1v2.1c0,0.7,0,0.9,0,1.2c-0.3,0-0.5,0-1.1,0h-1.8
				c-0.1,0.9-0.2,1.6-0.3,2.6H18.7z M22.6,87.8c-0.7,0-1.1,0-1.5,0.1c0-0.3,0-0.6,0-1.4v-3.2c0-0.8,0-1.1,0-1.4
				c0.4,0,0.7,0.1,1.4,0.1h4.3c0.7-1,1.2-2.1,1.5-3.1l1,0.4c-0.5,1.2-1,2-1.4,2.8c0.8,0,1.1,0,1.5-0.1c0,0.3-0.1,0.8-0.1,1.5v3
				c0,0.6,0,1.1,0.1,1.5c-0.4,0-0.8-0.1-1.5-0.1h-2.3v1.5h2.8c0.9,0,1.3,0,1.8-0.1v1.1c-0.6-0.1-1.2-0.1-1.8-0.1h-2.8v1.5
				c0,0.8,0,1.3,0.1,1.8h-1.2c0.1-0.4,0.1-1,0.1-1.8v-1.5h-2.2c-0.8,0-1.4,0-1.9,0.1v-1.1c0.4,0.1,1,0.1,1.8,0.1h2.3v-1.5H22.6z
				 M22.2,81.8c-0.4-1-0.6-1.5-1.2-2.4l0.9-0.4c0.5,0.8,0.9,1.5,1.2,2.4L22.2,81.8z M22.1,82.8v1.6h2.5v-1.6H22.1z M22.1,85.2V87
				h2.5v-1.8H22.1z M25,81.6c-0.3-1-0.6-1.6-1.1-2.6l0.9-0.3c0.5,0.9,0.8,1.6,1.1,2.5L25,81.6z M25.6,84.4h2.8v-1.6h-2.8V84.4z
				 M25.6,87h2.8v-1.8h-2.8V87z"/>
			<path class="st2" d="M43,82.2c1,0,1.4,0,1.9-0.1c0,0.6,0,0.6-0.1,2.1c0,2.4-0.3,5.6-0.6,6.8c-0.3,1.4-0.8,1.8-2,1.8
				c-0.8,0-1.6-0.1-2.8-0.3c0-0.5-0.1-0.8-0.3-1.2c1.2,0.3,2.2,0.4,3,0.4c0.8,0,1.1-0.4,1.3-2.3c0.2-1.6,0.3-3.7,0.4-6.2h-4.9
				c-0.2,2.2-0.8,4.2-1.6,5.7c-0.9,1.6-2.3,2.9-4.4,4.1c-0.3-0.4-0.5-0.7-0.8-0.9c1.2-0.6,1.9-1,2.7-1.7c1.9-1.7,2.8-3.7,3.1-7.2
				h-3.1c-0.9,0-1.6,0-2,0.1v-1.2c0.4,0.1,1,0.1,2,0.1h3.2c0-0.7,0.1-1.2,0.1-1.9c0-0.8,0-1.2-0.1-1.6H39c0,0.4-0.1,0.6-0.1,1.3
				c0,0.8,0,0.8-0.1,2.1H43z"/>
			<path class="st2" d="M54.2,87.9c-0.9,2.1-1.9,3.1-3,3.1c-1.5,0-2.7-1.7-2.7-3.9c0-1.6,0.6-3.2,1.7-4.4c1.3-1.4,3-2.1,5.2-2.1
				c1.8,0,3.4,0.6,4.4,1.6c1,1,1.6,2.4,1.6,3.9c0,2.5-1.3,4.5-3.7,5.5c-0.7,0.3-1.3,0.5-2.4,0.7c-0.2-0.5-0.3-0.7-0.6-1.1
				c1.2-0.2,1.9-0.4,2.7-0.8c1.8-0.8,2.8-2.5,2.8-4.5c0-1.8-0.9-3.3-2.5-4c-0.6-0.3-1.1-0.4-1.9-0.4C55.5,83.8,54.9,86.2,54.2,87.9z
				 M52.2,82.3c-1.6,1-2.6,2.8-2.6,4.8c0,1.5,0.7,2.7,1.5,2.7c0.7,0,1.3-0.8,2-2.3c0.7-1.5,1.2-3.9,1.5-5.9
				C53.6,81.6,52.9,81.9,52.2,82.3z"/>
			<path class="st2" d="M65.1,81.2c0.7,0.2,1.5,0.3,3,0.3c0,0,0.1,0,0.4,0c0-0.4,0-0.4,0.1-1.2c0-0.2,0-0.8,0-0.9c0,0,0-0.1,0-0.2
				l1.2,0.1c-0.1,0.4-0.2,1-0.3,2.2c2.6-0.1,4.9-0.5,6.1-0.9l0.1,1.1c-0.2,0-0.3,0-0.6,0.1c-1.7,0.3-4.2,0.6-5.7,0.6
				c-0.1,1.4-0.1,1.4-0.1,2.1c0.8-0.2,1.5-0.3,2.4-0.3c0.3,0,0.5,0,0.9,0c0.2-0.5,0.3-1,0.4-1.4l1.1,0.3c0,0.1-0.2,0.5-0.5,1.3
				c2.2,0.5,3.4,1.9,3.4,3.7c0,1.6-0.9,2.8-2.5,3.7c-0.9,0.5-1.8,0.7-3.3,0.9c-0.1-0.5-0.2-0.6-0.5-1.1c0.9,0,1.6-0.2,2.4-0.4
				c1.7-0.6,2.8-1.8,2.8-3.2c0-1.4-0.9-2.3-2.6-2.8c-0.9,2.2-1.8,3.5-3,4.8C69,91.4,67.8,92,66.7,92c-1.2,0-2.1-1-2.1-2.4
				c0-2,1.4-3.8,3.7-4.8c0-1.2,0-1.2,0.1-2.4h-0.6c-0.2,0-0.9,0-2.2-0.1c-0.1,0-0.3,0-0.3,0c-0.1,0-0.1,0-0.3,0L65.1,81.2z
				 M66.6,87.2c-0.6,0.7-1,1.6-1,2.4c0,0.9,0.5,1.5,1.2,1.5c0.6,0,1.1-0.2,1.8-0.8c-0.2-1.2-0.3-2.4-0.3-4.3
				C67.5,86.3,67.1,86.7,66.6,87.2z M69.5,89.5c0.2-0.3,0.2-0.3,0.3-0.4c1-1.2,1.7-2.3,2.4-4c-0.5,0-0.6,0-0.8,0
				c-0.7,0-1.5,0.1-2.2,0.4c0,2.1,0,2.3,0.2,3.7c0,0.1,0,0.1,0,0.2C69.5,89.4,69.5,89.4,69.5,89.5L69.5,89.5z"/>
			<path class="st2" d="M82.6,80.2c0.4,0.1,0.7,0.1,1.5,0.1c1.3,0,3.5-0.1,4.9-0.2c0.4,0,0.6-0.1,0.8-0.2l0.7,0.9
				c-0.2,0.1-0.3,0.2-0.8,0.7c-2.2,2.2-4.1,3.8-5.3,4.5l0,0c1.2-0.7,2.5-1,3.9-1c2.7,0,4.4,1.3,4.4,3.4c0,2.5-2.3,4.1-5.9,4.1
				c-2.3,0-3.6-0.8-3.6-2.3c0-1.1,1-1.9,2.3-1.9c1.1,0,2,0.5,2.6,1.3c0.3,0.4,0.5,0.8,0.7,1.5c1.7-0.5,2.6-1.4,2.6-2.8
				c0-1.5-1.3-2.4-3.4-2.4c-2.4,0-4.9,1-6.7,2.7l-0.7-1c0.6-0.3,1.2-0.8,2.2-1.6c1.7-1.4,4.2-3.6,5.3-4.7c0.1-0.1,0.1-0.1,0.2-0.2
				c0,0,0,0,0.1-0.1l0.1-0.1l0,0c0,0,0,0-0.1,0c-0.5,0.1-2.4,0.2-4.9,0.3c-0.4,0-0.5,0-0.9,0.1L82.6,80.2z M85.7,89.3
				c-0.8,0-1.3,0.4-1.3,1c0,0.4,0.2,0.7,0.6,1c0.4,0.2,1.1,0.4,1.8,0.4c0.4,0,0.6,0,1.2-0.1C87.6,90.1,86.8,89.3,85.7,89.3z"/>
			<path class="st2" d="M104.4,85.1c0-0.1,0-0.4,0-1c-0.3,0.6-0.4,0.8-1.2,1.8c-0.8,1.1-2.2,2.4-3.8,3.5c-0.7,0.5-1.3,0.9-2.6,1.6
				c-0.3-0.5-0.4-0.6-0.8-1c1.9-0.9,3.7-2.1,5.4-3.8c0.9-0.9,1.8-2,2.3-2.9l-5.2,0c-1,0-1.2,0-1.8,0.1v-1.2c0.6,0.1,0.9,0.1,1.8,0.1
				l5.8,0l0-1.6c0-0.8,0-0.8-0.1-1.3h1.3c0,0.4-0.1,0.6-0.1,0.9v0.4l0,1.6h2.1c0.9,0,1.1,0,1.6-0.1v1.2c-0.3,0-0.7,0-1.3,0
				c-0.1,0-0.2,0-0.2,0h-2.1l0.1,7.8c0,0.7,0,1.2,0.1,1.6h-1.3c0-0.5,0.1-0.6,0.1-1.3c0-0.2,0-0.3,0-0.4l-0.1-5.9V85.1L104.4,85.1z"
				/>
			<path class="st2" d="M115.9,79.8c0,0.4-0.1,0.6-0.1,1.3v4.3c0,0.8,0,0.9,0.1,1.3h-1.3c0-0.4,0.1-0.7,0.1-1.3v-4.3
				c0-0.7,0-1-0.1-1.3H115.9z M123,79.8c-0.1,0.4-0.1,0.6-0.1,1.4v1.9c0,2.5-0.1,4-0.4,4.9c-0.5,1.5-1.5,2.7-3,3.6
				c-0.8,0.4-1.6,0.8-2.9,1.2c-0.2-0.5-0.3-0.6-0.7-1.1c1.4-0.3,2.2-0.6,3-1.1c1.5-0.9,2.3-1.9,2.6-3.4c0.2-0.9,0.2-1.6,0.2-4.1
				v-1.8c0-0.8,0-1.1-0.1-1.4H123z"/>
			<path class="st2" d="M129.7,83.7c1.4,0.6,2.8,1.3,4.1,2.1l-0.6,1.1c-0.9-0.7-2.8-1.7-4.1-2.2L129.7,83.7z M129.3,91
				C129.3,91,129.3,91,129.3,91c1,0,2.8-0.4,4.3-1c3.1-1.1,5.6-3.8,6.7-7.2c0.4,0.4,0.6,0.6,1,0.9c-2,4.8-5.3,7.4-11.1,8.5
				c-0.4,0.1-0.4,0.1-0.6,0.2L129.3,91z M130.9,79.9c1.5,0.6,2.7,1.2,4,2l-0.7,1.1c-0.9-0.7-3-1.9-3.9-2.1L130.9,79.9z M139.3,79.2
				c0.7,0.9,1.2,1.5,1.6,2.5l-0.8,0.5c-0.4-0.8-1.2-2-1.6-2.5L139.3,79.2z M141.1,78.3c0.7,0.9,1.1,1.5,1.7,2.5l-0.8,0.5
				c-0.4-0.8-1-1.8-1.6-2.5L141.1,78.3z"/>
			<path class="st2" d="M155.5,83.5c0.9,0,1.3,0,1.9-0.1v1.2c-0.5-0.1-1-0.1-1.9-0.1h-3.6c-0.1,2.2-0.4,3.4-1.2,4.7
				c-0.8,1.4-2.1,2.4-4,3.3c-0.3-0.5-0.4-0.7-0.8-1c1.9-0.8,3.2-1.9,4-3.3c0.5-1,0.7-1.8,0.8-3.7h-4.4c-0.8,0-1.3,0-1.9,0.1v-1.2
				c0.6,0.1,0.9,0.1,1.9,0.1h4.5c0-0.6,0-0.9,0-1.4v-1.2c0-0.6,0-1-0.1-1.4h1.3c-0.1,0.4-0.1,0.5-0.1,1.4l0,1.2c0,1.2,0,1.2,0,1.4
				H155.5z"/>
			<path class="st2" d="M164.5,80c-0.1,0.4-0.1,0.4-0.1,1.4c-0.1,4.3-0.3,5.5-0.9,7.1c-0.5,1.5-1.3,2.6-2.8,4
				c-0.3-0.4-0.5-0.6-1-0.9c1.3-1,2.2-2.2,2.7-3.7c0.5-1.4,0.7-3.5,0.7-6.9c0-0.6,0-0.8-0.1-1.1L164.5,80z M168.5,79.8
				c-0.1,0.4-0.1,0.7-0.1,1.4l-0.1,9.7c1.3-0.5,2.1-1,3-1.9c0.9-0.9,1.5-2,1.9-3.2c0.3,0.4,0.5,0.6,0.9,0.9
				c-0.8,1.8-1.8,3.2-3.2,4.1c-0.7,0.5-1.3,0.8-2.3,1.2c-0.3,0.1-0.3,0.1-0.5,0.2c-0.2,0.1-0.2,0.1-0.4,0.2l-0.6-0.7
				c0.1-0.3,0.1-0.4,0.1-1.1l0.1-9.4c0-1,0-1-0.1-1.4L168.5,79.8z"/>
			<path class="st2" d="M181.1,80.7c-0.1,0.2-0.1,0.3-0.2,1.1c-0.7,4.6-2,7.6-4.2,10c-0.4-0.4-0.6-0.6-1-0.8c1-0.9,1.6-1.8,2.3-3.2
				c0.8-1.6,1.3-3.5,1.6-5.6c0.1-0.6,0.2-1.2,0.2-1.5c0,0,0-0.1,0-0.3L181.1,80.7z M185.5,80.5c0,0.7,0.4,2.5,0.7,3.8
				c0.8,2.8,2.1,5.2,3.6,6.6c-0.4,0.3-0.6,0.4-1,0.9c-2.1-2.3-3.7-6-4.4-10.1c-0.1-0.6-0.1-0.8-0.2-1.1L185.5,80.5z M190.4,81.1
				c0,1-0.8,1.8-1.8,1.8c-1,0-1.8-0.8-1.8-1.8s0.8-1.8,1.8-1.8C189.6,79.3,190.4,80.1,190.4,81.1z M187.5,81.1
				c0,0.6,0.5,1.1,1.2,1.1c0.6,0,1.1-0.5,1.1-1.1s-0.5-1.1-1.1-1.1C188,79.9,187.5,80.5,187.5,81.1z"/>
			<path class="st2" d="M204.6,81.5c-0.1,0.2-0.1,0.2-0.3,1c-0.8,3.1-2.1,5.2-4,6.9c-1.5,1.3-2.9,2.2-5,3c-0.2-0.5-0.4-0.7-0.8-1.1
				c1.4-0.4,2.4-0.9,3.6-1.7c2.6-1.7,4.1-4,5-7.6H195c-0.8,0-1.3,0-1.8,0.1v-1.3c0.6,0.1,0.9,0.1,1.8,0.1h7.9c0.6,0,0.8,0,1-0.1
				L204.6,81.5z"/>
		</g>
	</g>
</g>
</svg>
