<?xml version="1.0" encoding="utf-8"?>
<!-- Generator: Adobe Illustrator 25.4.1, SVG Export Plug-In . SVG Version: 6.00 Build 0)  -->
<svg version="1.1" id="レイヤー_1" xmlns="http://www.w3.org/2000/svg" xmlns:xlink="http://www.w3.org/1999/xlink" x="0px"
	 y="0px" viewBox="0 0 222 95" style="enable-background:new 0 0 222 95;" xml:space="preserve">
<style type="text/css">
	.st0{fill:#E4C8AD;}
	.st1{fill:#FFFFFF;}
	.st2{fill:#666666;}
</style>
<g>
	<g>
		<rect x="1.3" y="0.2" class="st0" width="220" height="27.7"/>
		<g>
			<g>
				<path class="st1" d="M13.8,15.3c-0.1,0.2-0.1,0.3-0.2,0.7c-0.3,1.3-0.9,3-1.4,4.1c-0.1,0.1-0.3,0.5-0.6,1.1
					c-0.7-0.5-1-0.7-1.7-1.1c0.5-0.7,0.8-1.3,1.3-2.5c0.4-1,0.6-1.9,0.8-2.8L13.8,15.3z M20.3,11.4c-0.4,0.1-0.8,0.2-1.4,0.6
					c-1,0.6-1.6,1.3-1.6,1.9c0,0.2,0.1,0.4,0.1,0.6c0.2,0.3,0.2,0.4,1.2,1.4c0.6,0.6,0.9,1.1,1.1,1.5c0.2,0.5,0.3,1,0.3,1.4
					c0,0.8-0.4,1.7-1,2.2c-0.6,0.5-1.3,0.7-2.2,0.7c-1.1,0-2.2-0.4-3.4-1.2c0.2-0.7,0.3-1,0.4-1.9c0.9,0.8,1.9,1.3,2.8,1.3
					c0.7,0,1.2-0.4,1.2-1.1c0-0.3-0.1-0.6-0.3-0.9c-0.2-0.4-0.4-0.6-1-1.3c-0.9-1-1.2-1.6-1.2-2.4c0-0.7,0.3-1.4,0.9-2.1
					c0.3-0.4,0.5-0.5,1.2-0.9c-0.2,0-0.2,0-0.5-0.1c-1-0.1-1.8-0.3-3.2-0.8C13.5,10,13.5,10,13.2,10l0.7-1.8
					c0.5,0.3,1.1,0.5,2.1,0.8c1.2,0.3,3,0.6,3.9,0.6c0,0,0.2,0,0.3,0L20.3,11.4z M22,14.4c0.8,1.2,1.2,1.8,1.6,2.8
					c0.5,1.1,0.8,1.7,1,2.7l-1.9,0.9c-0.2-0.9-0.5-1.8-1-3.1c-0.5-1.2-1-2-1.4-2.6L22,14.4z"/>
				<path class="st1" d="M31.2,15.2c0.1-0.1,0.1-0.1,0.3-0.4c0.5-0.6,1.3-0.9,2.1-0.9c0.7,0,1.4,0.4,1.8,0.9
					c0.3,0.5,0.4,1.1,0.4,2.9c0,1.2,0.1,1.5,0.4,1.7c0.2,0.1,0.5,0.2,0.8,0.2c0.8,0,1.5-0.6,2-1.7c0.3-0.7,0.5-1.7,0.6-2.5
					c0.5,0.5,0.8,0.7,1.8,1.2c-0.7,3.3-2.3,5-4.7,5c-1.2,0-2.1-0.5-2.5-1.4c-0.2-0.4-0.3-1-0.3-1.8c0,0,0-0.1,0-0.2c0-0.6,0-1,0-1.1
					c0-0.5,0-0.7-0.1-0.9c-0.1-0.2-0.4-0.4-0.7-0.4c-0.9,0-1.8,0.8-2.5,2.2c-0.5,0.9-1.1,2.7-1.3,3.7l-2.1-0.7
					c0.2-0.5,0.4-0.8,0.9-2.2c3.7-10.2,3.7-10.2,3.8-10.9l2.2,0.5c-0.2,0.4-0.3,0.6-0.8,1.8C32.2,12.7,31.5,14.4,31.2,15.2
					L31.2,15.2z"/>
				<path class="st1" d="M43.8,17.3c0.4-0.3,1-0.8,2.9-2.6c0-1,0-1,0.1-2.3c-1.9,0.1-1.9,0.1-2.4,0.2l-0.1-1.8c0.3,0,0.4,0,0.5,0
					c0.3,0,1.2,0,2.1-0.1c0-0.4,0-0.6,0-1.2c0-0.3,0-0.5,0-0.7c0-0.1,0-0.1,0-0.2c0-0.3,0-0.4-0.1-0.7l2.1,0
					c-0.1,0.4-0.1,0.4-0.2,1.5c0,0.3,0,0.3,0,0.8c0,0.1,0,0.1,0,0.3c0.1,0,0.1,0,0.2-0.1l0.6,0.7c-0.2,0.2-0.3,0.3-0.9,1
					c0,0.7,0,1-0.1,1.1l0,0c0.1-0.1,0.2-0.2,0.4-0.3c1.7-1.3,3-1.8,4.6-1.8c1.2,0,2.3,0.5,3.1,1.3c0.8,0.8,1.2,2,1.2,3.3
					c0,2-1,3.7-2.5,4.5c-0.8,0.4-1.8,0.6-2.8,0.6c-0.8,0-1.6-0.1-2.4-0.4c0-0.8,0-1.2-0.3-2.1c0.9,0.4,1.9,0.6,2.8,0.6
					c1.9,0,3.3-1.4,3.3-3.3c0-1.7-1.1-2.8-2.7-2.8c-1.3,0-2.9,0.8-4.7,2.4l0,1.7c0,2.3,0,4.1,0.1,4.8h-2.1c0.1-0.5,0.1-0.9,0.1-2.6
					V18c0-0.4,0-0.6,0-0.9h0c-0.1,0.2-0.2,0.3-0.7,0.8c-0.6,0.6-1,1.1-1.2,1.4L43.8,17.3z"/>
				<path class="st1" d="M65.8,8c-0.2,0.5-0.3,1-0.6,3.1c-0.1,0.7-0.2,1.2-0.2,1.6h0c0-0.1,0-0.1,0.1-0.4c0.2-0.6,0.6-1.3,1-1.9
					c0.9-1.1,1.9-1.6,3-1.6c1.1,0,2,0.5,2.7,1.4c0.8,1.1,1.2,2.4,1.2,4.3c0,3.1-1.4,5.4-4.1,6.6c-0.8,0.4-1.9,0.7-3.1,0.9
					c-0.3-0.9-0.5-1.3-0.9-1.9c1.6-0.2,2.5-0.4,3.5-0.9c1.9-0.9,2.7-2.5,2.7-4.9c0-2.3-0.8-3.6-2.1-3.6c-0.6,0-1.2,0.3-1.7,0.8
					c-1.2,1.3-2,3.3-2,5.2c0,0.1,0,0.2,0,0.3l-1.9,0c0-0.1,0-0.2,0-0.2c0-0.1,0-0.2,0-0.3c0-0.5,0-1.6,0-2c0-1.3,0.1-3.1,0.2-4.2
					l0.2-2c0-0.3,0-0.3,0-0.5L65.8,8z"/>
				<path class="st1" d="M89.7,12c1.1,0,1.5,0,2.1-0.1v2c-0.6-0.1-1-0.1-2-0.1h-3.3c-0.1,2.2-0.4,3.3-1.2,4.5
					c-0.9,1.5-2,2.4-4.1,3.6c-0.5-0.9-0.8-1.2-1.5-1.7c1.9-0.8,3.1-1.8,3.9-3.2c0.5-0.9,0.7-1.6,0.8-3.2h-4c-1.1,0-1.5,0-2,0.1v-2
					c0.6,0.1,1,0.1,2.1,0.1h4c0-0.7,0-1,0-1.2V9.8c0-0.7,0-1.1-0.1-1.5h2.2c-0.1,0.5-0.1,0.5-0.1,1.5l0,1c0,1.1,0,1.1,0,1.2H89.7z"
					/>
				<path class="st1" d="M107.4,9.7c-0.2,0-0.2,0-1.3,0.4c-0.9,0.3-1.4,0.4-2.7,0.7c0,2.2,0,2.2,0,2.7h3.4c1.1,0,1.4,0,2-0.1v1.9
					c-0.6-0.1-0.9-0.1-1.9-0.1h-3.5c-0.2,1.5-0.5,2.6-1.1,3.5c-0.6,0.9-1.5,1.8-2.6,2.5c-0.4,0.3-0.8,0.5-1.5,0.8
					c-0.5-0.8-0.7-1.1-1.4-1.7c1.2-0.4,1.8-0.8,2.5-1.3c1-0.8,1.6-1.7,1.8-2.7c0.1-0.3,0.1-0.5,0.2-1.1h-4c-1,0-1.3,0-1.9,0.1v-1.9
					c0.6,0.1,0.9,0.1,2,0.1h4.1c0-0.7,0-1.3,0-2.4c-1.3,0.2-1.8,0.2-4.4,0.4c-0.2-0.7-0.2-1-0.6-1.7c0.5,0,0.8,0,1,0
					c2.1,0,4.9-0.4,6.9-0.9c0.9-0.3,1.4-0.4,1.9-0.8L107.4,9.7z"/>
				<path class="st1" d="M123.1,19.7c0.7,0,1,0,1.5-0.1v1.8c-0.4,0-0.8-0.1-1.5-0.1h-8.3c-0.7,0-1,0-1.5,0.1v-1.8
					c0.4,0.1,0.7,0.1,1.5,0.1h4.7c0.3-1.4,0.6-3.7,0.8-5.1h-4c-0.8,0-1,0-1.4,0.1v-1.8c0.4,0.1,0.8,0.1,1.5,0.1h4
					c0.6,0,0.8,0,1.2-0.1l0.9,0.8c-0.2,0.5-0.2,0.5-0.4,1.8c-0.2,1.8-0.4,2.9-0.7,4.3H123.1z"/>
				<path class="st1" d="M142.2,13.4c-0.2,0.3-0.3,0.5-0.4,1c-0.8,2.4-2,4.1-3.7,5.4c-1.1,0.9-2.2,1.4-4.2,2.2
					c-0.4-0.8-0.5-1.1-1.2-1.9c2-0.5,3.2-1.1,4.5-2.1c1.2-1,1.9-2,2.6-3.7h-7.8c-1.1,0-1.5,0-2,0.1v-2c0.6,0.1,1,0.1,2.1,0.1h7.6
					c1,0,1.3,0,1.8-0.1L142.2,13.4z M131.1,8.5c0.5,0.1,0.9,0.1,1.9,0.1h5.6c1,0,1.3,0,1.9-0.1v2c-0.5-0.1-0.8-0.1-1.8-0.1H133
					c-1,0-1.3,0-1.8,0.1V8.5z"/>
				<path class="st1" d="M150.8,8.7c-0.1,0.4-0.1,0.4-0.2,3.6c-0.1,3.1-0.5,4.9-1.3,6.6c-0.5,1.1-1.2,1.9-2.2,3
					c-0.6-0.8-0.9-1-1.6-1.6c0.8-0.6,1.2-1.1,1.6-1.8c1.2-1.8,1.5-3.9,1.5-8.4c0-0.9,0-1-0.1-1.5L150.8,8.7z M155,8.5
					c-0.1,0.5-0.1,0.7-0.1,1.5l-0.1,9.1c1.1-0.5,1.8-1,2.4-1.8c0.7-0.9,1.2-1.7,1.6-2.9c0.6,0.7,0.8,0.9,1.5,1.5
					c-0.7,1.6-1.5,2.8-2.5,3.7c-0.9,0.8-1.7,1.3-3.4,1.9c-0.4,0.1-0.5,0.2-0.7,0.3l-1-1.1c0.1-0.5,0.1-0.8,0.1-1.7l0.1-9V9.5
					c0-0.4,0-0.8-0.1-1.1L155,8.5z"/>
				<path class="st1" d="M164.3,16c0-0.8,0-1,0-1.8c-0.5,0.8-0.7,1.1-1.4,1.9c-0.2-0.7-0.2-0.8-0.7-1.9c1-1,1.8-2.2,2.5-3.7
					c0.6-1.2,0.9-2.2,1-3l1.8,0.5c-0.1,0.3-0.1,0.3-0.5,1.3c-0.3,0.7-0.4,1-1,2.3v8.9c0,0.7,0,1.2,0.1,1.9h-2
					c0.1-0.6,0.1-1.1,0.1-1.9V16z M170.8,9.5c0-0.8,0-1.2-0.1-1.7h2c-0.1,0.5-0.1,0.9-0.1,1.7v2.8h2.8c0.8,0,1.3,0,1.8-0.1v1.9
					c-0.6-0.1-1.2-0.1-1.8-0.1h-2.8v6h2.4c0.7,0,1.3,0,1.8-0.1v1.9c-0.5-0.1-1.1-0.1-1.8-0.1h-6.1c-0.7,0-1.3,0-1.8,0.1V20
					c0.5,0.1,1.1,0.1,1.8,0.1h2v-6h-2.2c-0.6,0-1.2,0-1.8,0.1v-1.9c0.5,0.1,1.1,0.1,1.9,0.1h2.2V9.5z"/>
				<path class="st1" d="M187.3,20h4.6c0.8,0,1.6,0,2.2-0.1v1.9c-0.7-0.1-1.3-0.1-2.1-0.1h-10.2c-0.8,0-1.5,0-2.2,0.1v-1.9
					c0.6,0.1,1.3,0.1,2.2,0.1h3.6V9.7c0-0.7,0-1.2-0.1-1.8h2.1c-0.1,0.6-0.1,1.1-0.1,1.8v2.7h3.8c0.7,0,1.3,0,1.9-0.1v1.9
					c-0.6-0.1-1.2-0.1-1.9-0.1h-3.8V20z"/>
				<path class="st1" d="M201.7,16.2c-1,1.8-1.8,4.2-1.8,5.1l-1.9,0.1c0-0.2,0-0.3-0.1-0.6c-0.4-1.8-0.6-3.4-0.6-5.2
					s0.1-2.8,0.6-6.1c0.1-0.7,0.1-0.8,0.1-1.2l2.1,0.2c-0.6,1.9-1,4.8-1,7.4c0,0.2,0,1.5,0,1.6c0,0.2,0,0.4,0,0.6
					c0.2-0.7,0.3-0.9,0.4-1.1c0.5-1.3,0.5-1.3,0.7-1.6L201.7,16.2z M201.3,11.6c0.7,0.2,1.6,0.2,2.9,0.2c0.6,0,0.7,0,1.7-0.1
					c0-1.5-0.1-1.6-0.1-2.1c0-0.7,0-0.8-0.1-1.2l2,0c0,0.3,0,0.5,0,0.6c0,0,0,0.1,0,0.2c0,0.5,0,1.3,0.1,2.3c1.1-0.2,2-0.4,2.4-0.6
					l0.1,1.9c-0.3,0-0.4,0-0.9,0.2c-0.8,0.2-0.9,0.2-1.6,0.3c0,0.3,0,0.5,0,0.8c0,1.7-0.1,3-0.3,3.8c-0.4,1.3-0.9,2.3-1.8,3.1
					c-0.5,0.4-0.9,0.7-1.7,1.2c-0.5-0.7-0.9-1-1.6-1.5c1.1-0.5,1.8-1,2.4-1.7c0.8-1,1.1-2.1,1.1-4.5c0-0.3,0-0.5,0-1
					c-0.5,0-1.4,0.1-2.2,0.1c-0.4,0-1,0-1.5,0c-0.5,0-0.5,0-0.7,0c-0.1,0-0.1,0-0.2,0V11.6z M208.7,7.5c0.5,0.8,0.8,1.6,1.1,2.5
					l-1.1,0.3c-0.3-1-0.6-1.8-1.1-2.5L208.7,7.5z M210.7,9.8c-0.3-0.9-0.6-1.8-1.1-2.4l1-0.3c0.4,0.7,0.8,1.4,1.1,2.4L210.7,9.8z"/>
			</g>
		</g>
	</g>
	<g>
		<g>
			<path class="st2" d="M42.4,55.4c0,4.2-0.2,7.1-0.8,9c-0.2,0.9-0.5,1.6-1.1,2.6c-0.3-0.4-0.5-0.6-0.8-0.8c0.6-1,0.8-1.7,1.1-2.8
				c0.4-1.8,0.6-4.1,0.6-7.7c0-1.5,0-2-0.1-2.5c0.6,0.1,1.2,0.1,2,0.1h9.1c0.9,0,1.4,0,1.8-0.1v1c-0.4-0.1-0.9-0.1-1.8-0.1h-10V55.4
				z M47.9,63.3c0-0.4,0-0.6,0-0.8h0.7c0.9-0.3,1.5-0.6,2.2-0.9h-5.5c-0.8,0-1.2,0-1.6,0.1v-1c0.4,0.1,0.8,0.1,1.6,0.1h5.7
				c0.7,0,0.9,0,1.3-0.1l0.6,0.6c-1.4,0.8-2.5,1.3-3.7,1.8v0.2h3.8c0.7,0,1.2,0,1.7-0.1v1c-0.5-0.1-1-0.1-1.7-0.1h-3.8v1.6
				c0,0.5-0.1,0.9-0.4,1.1C48.3,67,47.8,67,47,67c-0.5,0-1.1,0-1.8-0.1c-0.1-0.5-0.1-0.6-0.3-1c0.8,0.1,1.6,0.2,2.2,0.2
				c0.6,0,0.7-0.1,0.7-0.5v-1.6h-3.7c-0.7,0-1.1,0-1.6,0.1v-1c0.4,0.1,0.9,0.1,1.6,0.1H47.9z M44,56.4c0-0.6,0-0.9-0.1-1.3
				c0.5,0,1,0.1,1.7,0.1h5.5c0.8,0,1.2,0,1.7-0.1c0,0.4-0.1,0.7-0.1,1.3v2c0,0.6,0,0.9,0.1,1.4c-0.5,0-1-0.1-1.7-0.1h-5.5
				c-0.7,0-1.2,0-1.7,0.1c0-0.4,0.1-0.8,0.1-1.3V56.4z M44.9,57h6.9v-1.1h-6.9V57z M44.9,58.9h6.9v-1.2h-6.9V58.9z"/>
			<path class="st2" d="M58.3,54c0.4,0.1,0.8,0.1,1.6,0.1c0.9,0,2.2,0,2.7-0.1c0.3,0,0.4-0.1,0.6-0.2l0.8,0.7
				c-0.2,0.3-0.2,0.4-0.9,2.3c-0.4,1.1-0.5,1.4-0.8,2.2c1.5,0.2,2.7,0.5,4.4,1.3c0.1-0.9,0.2-1.6,0.2-3.2c0-0.4,0-0.5-0.1-0.8l1.2,0
				c0,0.3,0,0.4-0.1,1c0,1.6-0.1,2.5-0.3,3.5c0.9,0.4,1.4,0.7,2.2,1.2c0.1,0.1,0.2,0.1,0.5,0.2l-0.4,1.2c-0.5-0.4-1.3-0.9-2.5-1.6
				c-0.4,1.2-0.9,2-1.6,2.9c-0.7,0.8-1.6,1.5-2.5,2c-0.4-0.4-0.5-0.6-0.8-0.8c1.2-0.6,1.9-1,2.6-1.8c0.7-0.8,1.2-1.7,1.5-2.7
				c-1.4-0.8-2.8-1.2-4.4-1.3c-0.5,1.6-1.1,3.1-1.5,3.9c-0.6,1.1-1.2,1.6-1.9,1.6c-1.2,0-2.1-1.1-2.1-2.6c0-1.3,0.7-2.5,1.9-3.2
				c0.8-0.5,1.6-0.7,2.9-0.7c0.5-1.6,0.7-2.2,1.3-4c-1.3,0.1-1.5,0.1-3,0.2c-0.6,0-0.8,0-1.2,0.1L58.3,54z M58.3,60.9
				c-0.5,0.5-0.8,1.2-0.8,1.8c0,0.8,0.5,1.5,1,1.5c0.7,0,1.2-1,2.4-4.4C59.8,60,59,60.3,58.3,60.9z"/>
			<path class="st2" d="M78.5,61.7c-0.9,2.1-1.9,3.1-3,3.1c-1.5,0-2.7-1.7-2.7-3.9c0-1.6,0.6-3.2,1.7-4.4c1.3-1.4,3-2.1,5.2-2.1
				c1.8,0,3.4,0.6,4.4,1.6c1,1,1.6,2.4,1.6,3.9c0,2.5-1.3,4.5-3.7,5.5c-0.7,0.3-1.3,0.5-2.4,0.7c-0.2-0.5-0.3-0.7-0.6-1.1
				c1.2-0.2,1.9-0.4,2.7-0.8c1.8-0.8,2.8-2.5,2.8-4.5c0-1.8-0.9-3.3-2.5-4c-0.6-0.3-1.1-0.4-1.9-0.4C79.8,57.5,79.2,60,78.5,61.7z
				 M76.5,56.1c-1.6,1-2.6,2.8-2.6,4.8c0,1.5,0.7,2.7,1.5,2.7c0.7,0,1.3-0.8,2-2.3c0.7-1.5,1.2-3.9,1.5-5.9
				C77.9,55.4,77.2,55.6,76.5,56.1z"/>
			<path class="st2" d="M89.4,55c0.7,0.2,1.5,0.3,3,0.3c0,0,0.1,0,0.4,0c0-0.4,0-0.4,0.1-1.2c0-0.2,0-0.8,0-0.9c0,0,0-0.1,0-0.2
				l1.2,0.1c-0.1,0.4-0.2,1-0.3,2.2c2.6-0.1,4.9-0.5,6.1-0.9l0.1,1.1c-0.2,0-0.3,0-0.6,0.1c-1.7,0.3-4.2,0.6-5.7,0.6
				c-0.1,1.4-0.1,1.4-0.1,2.1c0.8-0.2,1.5-0.3,2.4-0.3c0.3,0,0.5,0,0.9,0c0.2-0.5,0.3-1,0.4-1.4l1.1,0.3c0,0.1-0.2,0.5-0.5,1.3
				c2.2,0.5,3.4,1.9,3.4,3.7c0,1.6-0.9,2.8-2.5,3.7c-0.9,0.5-1.8,0.7-3.3,0.9c-0.1-0.5-0.2-0.6-0.5-1.1c0.9,0,1.6-0.2,2.4-0.4
				c1.7-0.6,2.8-1.8,2.8-3.2c0-1.4-0.9-2.3-2.6-2.8c-0.9,2.2-1.8,3.5-3,4.8c-1.2,1.3-2.4,1.9-3.6,1.9c-1.2,0-2.1-1-2.1-2.4
				c0-2,1.4-3.8,3.7-4.8c0-1.2,0-1.2,0.1-2.4h-0.6c-0.2,0-0.9,0-2.2-0.1c-0.1,0-0.3,0-0.3,0c-0.1,0-0.1,0-0.3,0L89.4,55z M90.9,61
				c-0.6,0.7-1,1.6-1,2.4c0,0.9,0.5,1.5,1.2,1.5c0.6,0,1.1-0.2,1.8-0.8c-0.2-1.2-0.3-2.4-0.3-4.3C91.8,60.1,91.4,60.4,90.9,61z
				 M93.9,63.3c0.2-0.3,0.2-0.3,0.3-0.4c1-1.2,1.7-2.3,2.4-4c-0.5,0-0.6,0-0.8,0c-0.7,0-1.5,0.1-2.2,0.4c0,2.1,0,2.3,0.2,3.7
				c0,0.1,0,0.1,0,0.2C93.8,63.1,93.8,63.2,93.9,63.3L93.9,63.3z"/>
			<path class="st2" d="M107,54c0.4,0.1,0.7,0.1,1.5,0.1c1.3,0,3.5-0.1,4.9-0.2c0.4,0,0.6-0.1,0.8-0.2l0.7,0.9
				c-0.2,0.1-0.3,0.2-0.8,0.7c-2.2,2.2-4.1,3.8-5.3,4.5l0,0c1.2-0.7,2.5-1,3.9-1c2.7,0,4.4,1.3,4.4,3.4c0,2.5-2.3,4.1-5.9,4.1
				c-2.3,0-3.6-0.8-3.6-2.3c0-1.1,1-1.9,2.3-1.9c1.1,0,2,0.5,2.6,1.3c0.3,0.4,0.5,0.8,0.7,1.5c1.7-0.5,2.6-1.4,2.6-2.8
				c0-1.5-1.3-2.4-3.4-2.4c-2.4,0-4.9,1-6.7,2.7l-0.7-1c0.6-0.3,1.2-0.8,2.2-1.6c1.7-1.4,4.2-3.6,5.3-4.7c0.1-0.1,0.1-0.1,0.2-0.2
				c0,0,0,0,0.1-0.1l0.1-0.1l0,0c0,0,0,0-0.1,0c-0.5,0.1-2.4,0.2-4.9,0.3c-0.4,0-0.5,0-0.9,0.1L107,54z M110,63.1
				c-0.8,0-1.3,0.4-1.3,1c0,0.4,0.2,0.7,0.6,1c0.4,0.2,1.1,0.4,1.8,0.4c0.4,0,0.6,0,1.2-0.1C111.9,63.9,111.1,63.1,110,63.1z"/>
			<path class="st2" d="M132.4,61.7c0.8,0,1.3,0,1.8-0.1v1.1c-0.5-0.1-1-0.1-1.8-0.1h-4c1.6,1.5,3.4,2.4,6.2,3.2
				c-0.3,0.4-0.4,0.5-0.7,1c-3-1-4.8-2.1-6.4-3.9c0,0.9,0.1,1.2,0.1,1.5v1.5c0,0.6,0,1,0.1,1.3h-1.2c0.1-0.4,0.1-0.8,0.1-1.3v-1.5
				c0-0.4,0-0.8,0-1.5c-1.5,1.7-3.2,2.8-6.1,3.9c-0.2-0.4-0.3-0.5-0.7-0.9c2.5-0.8,4.7-2,6-3.2h-3.8c-0.8,0-1.3,0-1.8,0.1v-1.1
				c0.4,0.1,0.9,0.1,1.7,0.1h4.7c0-0.4,0-0.6-0.1-0.9h1.1c0,0.3-0.1,0.4-0.1,0.9H132.4z M122.2,57.1c-0.8,0-1.3,0-1.8,0.1v-1
				c0.5,0.1,1,0.1,1.8,0.1h4.7c-0.6-0.5-1.3-0.9-2.6-1.5l0.7-0.5c1.1,0.5,1.5,0.8,2.2,1.2c1.4-0.5,2.1-0.9,3.1-1.5h-7
				c-0.7,0-1.1,0-1.6,0.1v-1c0.5,0.1,1,0.1,1.7,0.1h6.7c0.7,0,1.1,0,1.4,0l0.5,0.7l-0.1,0.1c-0.1,0.1-0.1,0.1-0.3,0.2
				c0,0-0.1,0.1-0.2,0.1c-1,0.7-1.7,1.1-3.7,1.8c0.1,0.1,0.2,0.2,0.3,0.3h3.6c0.5,0,1,0,1.4-0.1l0.6,0.7c-0.1,0.1-0.3,0.3-0.5,0.5
				c-0.8,0.8-1.7,1.5-3.1,2.2c-0.3-0.3-0.4-0.4-0.8-0.7c1.4-0.7,1.9-1,2.8-1.8h-4v2.3c0,0.5-0.1,0.7-0.4,0.9
				c-0.2,0.1-0.5,0.1-1.1,0.1c-0.5,0-1.1,0-1.6-0.1c0-0.4-0.1-0.5-0.2-0.9c0.8,0.1,1.5,0.2,2.1,0.2c0.3,0,0.4-0.1,0.4-0.4v-2.1h-0.1
				c-0.7,0.7-1.4,1.3-2.4,1.8c-1.2,0.7-2.4,1.1-4.4,1.7c-0.2-0.4-0.3-0.5-0.6-0.8c2.2-0.5,3-0.8,4.1-1.3c0.8-0.4,1.6-0.9,2.2-1.3
				H122.2z"/>
			<path class="st2" d="M140.1,56.1c-0.1,0.5-0.2,0.9-0.4,1.8c-0.4,2.3-0.4,2.4-0.5,2.8c0,0.2,0,0.2-0.1,0.4l0,0
				c0.2-0.2,0.3-0.3,0.5-0.5c1.1-0.8,2.9-1.4,4.6-1.4c2.6,0,4.3,1.2,4.3,3.1c0,1.1-0.5,2.1-1.4,2.8c-1,0.7-2.3,1.1-4,1.1
				c-1,0-1.9-0.1-2.8-0.3c-0.3-0.1-0.3-0.1-1.3-0.3c0-0.1,0-0.2,0-0.3c0-0.4,0-0.6-0.1-1c1.2,0.5,2.7,0.8,4.1,0.8
				c2.6,0,4.3-1.1,4.3-2.7c0-1.3-1.2-2.1-3.1-2.1c-1.6,0-3.3,0.5-4.5,1.4c-0.3,0.2-0.4,0.3-0.6,0.7l-1.2,0c0-0.3,0.1-0.4,0.1-0.9
				c0.2-1.2,0.4-3.1,0.7-4.4c0.1-0.4,0.1-0.6,0.1-0.8L140.1,56.1z M140.8,53.4c1.2,0.7,3.7,1.5,5.4,1.8l-0.4,1.1
				c-2-0.5-2-0.5-3.1-0.9c-1-0.4-1-0.4-2.4-1L140.8,53.4z"/>
			<path class="st2" d="M152.6,57.1c0.6,0,2.2-0.2,3.5-0.4c0.3-1.2,0.5-2.7,0.5-3.4c0,0,0-0.1,0-0.2l1.3,0.1
				c-0.1,0.4-0.2,0.6-0.3,1.5c-0.1,0.5-0.2,1.1-0.3,1.8c0.4,0,0.6,0,0.9,0c1.1,0,1.8,0.2,2.3,0.7c0.6,0.5,0.8,1.3,0.8,2.6
				c0,2.4-0.4,4.6-1.1,5.5c-0.4,0.5-0.8,0.8-1.6,0.8c-0.7,0-1.4-0.2-2.4-0.6c0-0.2,0-0.4,0-0.6c0-0.2,0-0.4,0-0.6
				c0.9,0.5,1.8,0.7,2.4,0.7c0.4,0,0.7-0.3,0.9-0.8c0.4-1,0.7-2.7,0.7-4.5c0-1.7-0.5-2.2-2-2.2c-0.4,0-0.6,0-1.2,0.1
				c-0.6,2.5-1.3,4.6-2.4,6.8c-0.2,0.4-0.5,1-1,1.9l-1.1-0.6c0.5-0.6,1.1-1.7,1.7-2.9c0.8-1.6,1.2-3,1.8-5.1
				c-1.4,0.2-2.1,0.3-2.3,0.4c-0.4,0.1-0.5,0.1-0.9,0.2L152.6,57.1z M163.1,55.6c1.6,1.8,2.6,3.4,3.3,5.7l-1,0.6
				c-0.6-2.2-1.7-4.2-3.3-5.7L163.1,55.6z"/>
			<path class="st2" d="M173.7,53.1c-0.1,0.3-0.1,0.4-0.3,1c-0.1,0.5-0.2,0.9-0.4,1.7c1.1-0.1,2.1-0.3,2.9-0.5l0,1.1
				c-0.2,0-0.2,0-0.6,0.1c-0.7,0.1-1.6,0.3-2.6,0.3c-0.5,1.7-1.1,3.2-1.8,4.7c-0.4,0.8-0.5,1-1.1,2.1c-0.1,0.2-0.2,0.4-0.3,0.5
				l-1.1-0.6c0.5-0.6,0.9-1.3,1.5-2.5c0.7-1.5,1.2-2.6,1.7-4.1c-0.4,0-0.9,0-1.2,0c-0.3,0-0.8,0-1.1,0c-0.2,0-0.3,0-0.4,0
				c0,0-0.1,0-0.2,0l0-1.1c0.5,0.1,1,0.1,1.9,0.1c0.3,0,0.8,0,1.2,0c0.3-0.9,0.5-2.3,0.5-3L173.7,53.1z M181.3,65.6
				c-0.6-0.8-1.6-1.6-2.8-2.2c0,0.3,0,0.4,0,0.5c0,1.6-1.1,2.6-3,2.6c-1.9,0-3.1-0.9-3.1-2.3c0-0.9,0.6-1.7,1.5-2
				c0.6-0.2,1.2-0.4,1.9-0.4c0.6,0,1,0.1,1.6,0.2c-0.1-1-0.1-1.8-0.1-2.2c0-0.6,0-1,0.2-1.6l1.1,0.1c-0.2,0.6-0.2,0.9-0.2,1.5
				c0,0.7,0.1,1.8,0.2,2.4c1.3,0.6,2.3,1.2,3.1,1.9c0.2,0.2,0.2,0.2,0.3,0.3L181.3,65.6z M175.7,62.7c-1.4,0-2.2,0.6-2.2,1.4
				c0,0.8,0.8,1.3,2,1.3c1.4,0,2-0.5,2-1.7c0-0.2,0-0.7,0-0.7C176.8,62.8,176.3,62.7,175.7,62.7z M181.3,58.3
				c-1.3-0.9-2.6-1.6-4.2-2.2l0.6-0.9c1.9,0.7,2.9,1.3,4.2,2.1L181.3,58.3z"/>
			<path class="st2" d="M8.7,86.9c0-0.1,0-0.4,0-1c-0.3,0.6-0.4,0.8-1.2,1.8c-0.8,1.1-2.2,2.4-3.8,3.5c-0.7,0.5-1.3,0.9-2.6,1.6
				c-0.3-0.5-0.4-0.6-0.8-1C2.2,91,4,89.7,5.7,88c0.9-0.9,1.8-2,2.3-2.9l-5.2,0c-1,0-1.2,0-1.8,0.1V84c0.6,0.1,0.9,0.1,1.8,0.1
				l5.8,0l0-1.6c0-0.8,0-0.8-0.1-1.3h1.3c0,0.4-0.1,0.6-0.1,0.9v0.4l0,1.6h2.1c0.9,0,1.1,0,1.6-0.1v1.2c-0.3,0-0.7,0-1.3,0
				c-0.1,0-0.2,0-0.2,0H9.8l0.1,7.8c0,0.7,0,1.2,0.1,1.6H8.7c0-0.5,0.1-0.6,0.1-1.3c0-0.2,0-0.3,0-0.4L8.7,87V86.9L8.7,86.9z"/>
			<path class="st2" d="M20.3,81.6c0,0.4-0.1,0.6-0.1,1.3v4.3c0,0.8,0,0.9,0.1,1.3h-1.3c0-0.4,0.1-0.7,0.1-1.3v-4.3
				c0-0.7,0-1-0.1-1.3H20.3z M27.3,81.6c-0.1,0.4-0.1,0.6-0.1,1.4v1.9c0,2.5-0.1,4-0.4,4.9c-0.5,1.5-1.5,2.7-3,3.6
				c-0.8,0.4-1.6,0.8-2.9,1.2c-0.2-0.5-0.3-0.6-0.7-1.1c1.4-0.3,2.2-0.6,3-1.1c1.5-0.9,2.3-1.9,2.6-3.4c0.2-0.9,0.2-1.6,0.2-4.1V83
				c0-0.8,0-1.1-0.1-1.4H27.3z"/>
			<path class="st2" d="M34,85.5c1.4,0.6,2.8,1.3,4.1,2.1l-0.6,1.1c-0.9-0.7-2.8-1.7-4.1-2.2L34,85.5z M33.6,92.8
				C33.6,92.8,33.6,92.8,33.6,92.8c1,0,2.8-0.4,4.3-1c3.1-1.1,5.6-3.8,6.7-7.2c0.4,0.4,0.6,0.6,1,0.9c-2,4.8-5.3,7.4-11.1,8.5
				c-0.4,0.1-0.4,0.1-0.6,0.2L33.6,92.8z M35.2,81.7c1.5,0.6,2.7,1.2,4,2l-0.7,1.1c-0.9-0.7-3-1.9-3.9-2.1L35.2,81.7z M43.6,81
				c0.7,0.9,1.2,1.5,1.6,2.5l-0.8,0.5c-0.4-0.8-1.2-2-1.6-2.5L43.6,81z M45.4,80.1c0.7,0.9,1.1,1.5,1.7,2.5L46.3,83
				c-0.4-0.8-1-1.8-1.6-2.5L45.4,80.1z"/>
			<path class="st2" d="M59.8,85.3c0.9,0,1.3,0,1.9-0.1v1.2c-0.5-0.1-1-0.1-1.9-0.1h-3.6C56,88.6,55.8,89.8,55,91
				c-0.8,1.4-2.1,2.4-4,3.3c-0.3-0.5-0.4-0.7-0.8-1c1.9-0.8,3.2-1.9,4-3.3c0.5-1,0.7-1.8,0.8-3.7h-4.4c-0.8,0-1.3,0-1.9,0.1v-1.2
				c0.6,0.1,0.9,0.1,1.9,0.1H55c0-0.6,0-0.9,0-1.4v-1.2c0-0.6,0-1-0.1-1.4h1.3c-0.1,0.4-0.1,0.5-0.1,1.4l0,1.2c0,1.2,0,1.2,0,1.4
				H59.8z"/>
			<path class="st2" d="M68.8,81.8c-0.1,0.4-0.1,0.4-0.1,1.4c-0.1,4.3-0.3,5.5-0.9,7.1c-0.5,1.5-1.3,2.6-2.8,4
				c-0.3-0.4-0.5-0.6-1-0.9c1.3-1,2.2-2.2,2.7-3.7c0.5-1.4,0.7-3.5,0.7-6.9c0-0.6,0-0.8-0.1-1.1L68.8,81.8z M72.8,81.6
				c-0.1,0.4-0.1,0.7-0.1,1.4l-0.1,9.7c1.3-0.5,2.1-1,3-1.9c0.9-0.9,1.5-2,1.9-3.2c0.3,0.4,0.5,0.6,0.9,0.9
				c-0.8,1.8-1.8,3.2-3.2,4.1c-0.7,0.5-1.3,0.8-2.3,1.2c-0.3,0.1-0.3,0.1-0.5,0.2c-0.2,0.1-0.2,0.1-0.4,0.2l-0.6-0.7
				c0.1-0.3,0.1-0.4,0.1-1.1l0.1-9.4c0-1,0-1-0.1-1.4L72.8,81.6z"/>
			<path class="st2" d="M86.5,89.7c-0.9,2.1-1.9,3.1-3,3.1c-1.5,0-2.7-1.7-2.7-3.9c0-1.6,0.6-3.2,1.7-4.4c1.3-1.4,3-2.1,5.2-2.1
				c1.8,0,3.4,0.6,4.4,1.6c1,1,1.6,2.4,1.6,3.9c0,2.5-1.3,4.5-3.7,5.5c-0.7,0.3-1.3,0.5-2.4,0.7c-0.2-0.5-0.3-0.7-0.6-1.1
				c1.2-0.2,1.9-0.4,2.7-0.8c1.8-0.8,2.8-2.5,2.8-4.5c0-1.8-0.9-3.3-2.5-4c-0.6-0.3-1.1-0.4-1.9-0.4C87.8,85.5,87.2,88,86.5,89.7z
				 M84.5,84.1c-1.6,1-2.6,2.8-2.6,4.8c0,1.5,0.7,2.7,1.5,2.7c0.7,0,1.3-0.8,2-2.3c0.7-1.5,1.2-3.9,1.5-5.9
				C85.9,83.4,85.2,83.6,84.5,84.1z"/>
			<path class="st2" d="M107.2,83.7c0.9,0,0.9,0,1.2-0.1l0.6,0.6c-0.1,0.2-0.1,0.3-0.2,0.5l0,0.2l-0.1,0.9c-0.7,4.3-3.1,7-7.6,8.5
				c-0.2-0.5-0.3-0.6-0.7-1.1c2.4-0.6,4.3-1.8,5.5-3.4c0.9-1.2,1.6-3.1,1.7-5.1h-8.7v2.4c0,0.7,0,0.9,0,1.2h-1.3c0-0.3,0-0.3,0-0.5
				l0-0.7V85c0-0.7,0-0.9-0.1-1.3c0.4,0,0.8,0.1,1.5,0.1h3.4v-1.6c0-0.5,0-0.7-0.1-1h1.3c0,0.3-0.1,0.6-0.1,1v1.6H107.2z
				 M107.4,80.5c0.7,0.8,1.2,1.6,1.6,2.5l-0.8,0.5c-0.5-1-1.2-2-1.6-2.5L107.4,80.5z M109.4,80c0.7,0.9,1.1,1.5,1.6,2.5l-0.8,0.4
				c-0.3-0.8-1-1.8-1.6-2.5L109.4,80z"/>
			<path class="st2" d="M123.8,84.7c-0.2,0.1-0.2,0.2-0.4,0.4c-0.9,0.9-1.7,1.6-3.2,2.8v5.4c0,0.6,0,1,0.1,1.4H119
				c0-0.4,0.1-0.6,0.1-1.4v-4.8c-1.6,1-2.9,1.6-4.9,2.2c-0.2-0.4-0.3-0.6-0.6-1c1.6-0.4,2.5-0.8,3.7-1.4c1.8-0.9,3.2-2,4.6-3.3
				c0.5-0.5,0.7-0.7,0.9-1L123.8,84.7z"/>
			<path class="st2" d="M128.6,87.1c0.5,0.1,0.9,0.1,2,0.1h9.3c1.2,0,1.4,0,1.9-0.1v1.3c-0.5,0-0.9-0.1-2-0.1h-9.3
				c-1.2,0-1.5,0-2,0.1V87.1z"/>
			<path class="st2" d="M149.9,84.4c0.1-0.8,0.1-1.7,0.1-2.4c0-0.4,0-0.5-0.1-0.8l1.3,0c-0.1,0.3-0.1,0.5-0.1,2.1
				c0,0.6,0,0.7-0.1,1.1l4,0c0.7,0,0.7,0,1.1-0.1l0.6,0.5c-0.1,0.2-0.1,0.4-0.1,0.9c0,2.1-0.2,4.5-0.4,5.6c-0.4,2.2-0.9,2.8-2.3,2.8
				c-0.5,0-1.1-0.1-2-0.3c0-0.1,0-0.1,0-0.2c0-0.4,0-0.6-0.2-1c0.9,0.3,1.5,0.4,2.1,0.4c0.8,0,1-0.4,1.3-2c0.2-1.3,0.4-3.3,0.4-5.7
				l-4.5,0c-0.2,1.9-0.6,3.4-1.3,4.7c-0.8,1.6-2.5,3.3-4.2,4.2c-0.3-0.4-0.4-0.6-0.8-0.9c3.1-1.6,4.8-4.4,5.2-8l-2.9,0
				c-0.9,0-1.2,0-1.7,0.1l0-1.2c0.5,0.1,0.8,0.1,1.7,0.1H149.9z M155.6,80.9c0.7,0.9,1.2,1.5,1.6,2.5l-0.8,0.5
				c-0.4-0.8-1.2-2-1.6-2.5L155.6,80.9z M157.4,80c0.7,0.9,1.1,1.5,1.7,2.5l-0.8,0.4c-0.4-0.8-1-1.8-1.6-2.5L157.4,80z"/>
			<path class="st2" d="M161.4,92.5c1.2,0,3.2-0.5,4.7-1.2c3.1-1.4,5.2-3.7,6.5-7.1c0.4,0.5,0.5,0.6,1,0.9c-1.3,2.8-2.8,4.7-4.9,6.1
				c-1.6,1.1-3.3,1.8-6,2.4c-0.4,0.1-0.6,0.1-1,0.3L161.4,92.5z M162.4,82.6c1.7,1.1,2.7,1.9,3.9,3l-0.8,1c-1.2-1.2-2.4-2.3-3.8-3.1
				L162.4,82.6z"/>
			<path class="st2" d="M188.7,84c-0.1,0.1-0.1,0.2-0.3,1c-0.9,3-2,5-3.9,6.6c-1.5,1.4-3,2.3-5,3c-0.2-0.5-0.4-0.7-0.8-1.1
				c2.1-0.6,4.4-2,5.9-3.6c1.3-1.5,2.2-3.4,2.8-5.7h-8.1c-0.9,0-1.3,0-1.8,0.1V83c0.6,0.1,0.9,0.1,1.8,0.1h7.7c0.3,0,0.5,0,0.9,0
				c-0.7-1.1-0.9-1.5-1.5-2.2l0.8-0.4c0.8,1,1.4,1.8,1.7,2.6l-0.6,0.4L188.7,84z M189.2,80c0.7,0.9,1.1,1.5,1.7,2.5l-0.8,0.5
				c-0.3-0.8-1-1.8-1.6-2.5L189.2,80z"/>
			<path class="st2" d="M193.4,85.5c0.6,0.1,0.9,0.1,1.9,0.1h8.2c0.6,0,0.8,0,1-0.1l0.6,0.7c-0.1,0.2-0.2,0.3-0.4,1
				c-1.4,3.7-3.6,5.8-7.7,7.2c-0.2-0.5-0.3-0.6-0.7-1.1c2.1-0.6,3.6-1.3,4.8-2.4c1.1-1,1.9-2.2,2.6-4.2h-8.4c-0.8,0-1.3,0-1.9,0.1
				V85.5z M194.8,81.8c0.5,0.1,0.8,0.1,1.7,0.1h5.3c0.9,0,1.2,0,1.7-0.1V83c-0.4-0.1-0.8-0.1-1.7-0.1h-5.4c-0.8,0-1.2,0-1.7,0.1
				V81.8z"/>
			<path class="st2" d="M210.1,85.5c1.5,0.6,2.7,1.2,4.1,2.1l-0.6,1.1c-1.2-0.8-2.6-1.6-4.1-2.2L210.1,85.5z M209.7,92.8
				c1,0,2.7-0.4,4.3-1c2-0.8,3.5-1.9,4.8-3.6c0.9-1.2,1.4-2.2,1.9-3.6c0.4,0.4,0.6,0.6,1,0.8c-1.4,3.3-3.3,5.5-6.2,6.9
				c-1.1,0.6-2.7,1.1-4,1.4c-0.3,0-0.5,0.1-0.9,0.2c-0.3,0.1-0.4,0.1-0.6,0.2L209.7,92.8z M211.4,81.6c1.6,0.6,2.6,1.2,4,2l-0.7,1.1
				c-1.1-0.8-2.8-1.7-3.9-2.1L211.4,81.6z"/>
		</g>
	</g>
</g>
</svg>
