<?xml version="1.0" encoding="utf-8"?>
<!-- Generator: Adobe Illustrator 25.4.1, SVG Export Plug-In . SVG Version: 6.00 Build 0)  -->
<svg version="1.1" id="レイヤー_1" xmlns="http://www.w3.org/2000/svg" xmlns:xlink="http://www.w3.org/1999/xlink" x="0px"
	 y="0px" viewBox="0 0 15 343" style="enable-background:new 0 0 15 343;" xml:space="preserve">
<style type="text/css">
	.st0{fill:#FFFFFF;}
</style>
<g>
	<g>
		<path class="st0" d="M14.8,13.6H5.4c-1.9,0-3.2-0.6-4.1-2C0.4,10.4,0,8.9,0,6.9C0,4.7,0.5,3,1.5,1.8c1-1.1,2.2-1.7,3.9-1.7h9.3
			v2.2H5.5C3.2,2.4,1.9,4,1.9,6.9c0,2.8,1.3,4.5,3.7,4.5h9.2V13.6z"/>
		<path class="st0" d="M0.4,19.1V17h14.4v2.1H0.4z"/>
		<path class="st0" d="M11,24.7v2.5H9.3v-2.5H3.2c-1,0-1.2,0.3-1.2,1.3c0,0.4,0,0.6,0.1,1.1H0.3c-0.1-0.8-0.2-1.2-0.2-1.7
			c0-1.1,0.2-1.9,0.7-2.3c0.4-0.4,0.9-0.5,2.2-0.5h6.2v-1.4H11v1.4h3v2.1H11z"/>
		<path class="st0" d="M11,31.2H9.4c1.5,1.3,1.9,2,1.9,3.5c0,0.4,0,0.7-0.1,1.3H9.1c0.2-0.6,0.2-0.9,0.2-1.4c0-1.1-0.4-2-1.1-2.7
			c-0.6-0.6-1.1-0.8-2-0.8H0.4v-2.1H11V31.2z"/>
		<path class="st0" d="M7.5,38c1,0.1,1.6,0.3,2.1,0.7c1.1,0.9,1.7,2.4,1.7,4.6c0,1.8-0.3,3-0.9,3.9c-0.5,0.7-1.2,1-2.5,1H3.2
			c-1,0-1.4,0.3-1.4,1c0,0.1,0,0.3,0,0.5H0.4c-0.1-0.4-0.2-0.6-0.2-1.1c0-1.3,0.4-1.9,1.6-2.3c-1.2-1.3-1.8-2.6-1.8-4.6
			c0-2.6,1.2-4.1,3.2-4.1c1.1,0,2.1,0.6,2.6,1.6c0.3,0.8,0.5,1.3,0.7,3.5c0.2,1.9,0.2,2.2,0.4,2.8C7.1,46,7.5,46.3,8,46.3
			c1.1,0,1.7-0.9,1.7-2.9c0-2.3-0.6-3.2-2.2-3.3V38z M5.7,46.3c-0.4-1.2-0.6-2.4-0.8-4.1c-0.2-1.9-0.6-2.5-1.5-2.5
			c-1.1,0-1.6,0.9-1.6,2.6c0,1.4,0.4,2.5,1.1,3.2c0.6,0.6,1,0.8,2,0.8H5.7z"/>
		<path class="st0" d="M9.3,56.6v-2.5H0.4V52h8.9v-1.6H11V52h1.3c2.1,0,2.7,0.8,2.7,3.1c0,0.5,0,0.9-0.1,1.5h-1.8c0-0.5,0-0.7,0-1.2
			c0-1.1-0.2-1.3-1-1.3H11v2.5H9.3z"/>
		<path class="st0" d="M11,58.4v2.1H0.4v-2.1H11z M14.8,58.4v2.1h-2.2v-2.1H14.8z"/>
		<path class="st0" d="M11,63.7v2.1H9.5c1.3,1.4,1.8,2.4,1.8,4.1c0,1.3-0.4,2.5-1.1,3.3c-0.6,0.7-1.5,1-3,1H0.4v-2.1H7
			c1.1,0,1.5-0.2,1.9-0.7c0.4-0.5,0.6-1.1,0.6-1.9c0-2.1-1.3-3.7-3-3.7H0.4v-2.1H11z"/>
		<path class="st0" d="M5.1,78.9C3,79.2,1.8,80.7,1.8,83c0,1.7,0.6,2.8,1.9,3.3v2.3c-2.4-1.1-3.6-3-3.6-5.8c0-3.5,2.2-5.9,5.6-5.9
			c3.3,0,5.7,2.4,5.7,6c0,2.5-1.2,4.6-3.2,5.4c-0.9,0.4-1.7,0.5-3,0.5V78.9z M6.7,86.7c1.9-0.5,2.9-1.9,2.9-3.8c0-2-1.1-3.3-2.9-3.8
			V86.7z"/>
		<path class="st0" d="M0.4,98.1h14.4v7.8c0,2.9-1.6,4.6-4.3,4.6c-2.6,0-4.3-1.8-4.3-4.6v-5.7H0.4V98.1z M8.1,105.4
			c0,1.1,0.1,1.7,0.5,2.2c0.4,0.5,1.1,0.8,1.9,0.8c0.8,0,1.5-0.3,1.9-0.8c0.4-0.5,0.5-1.1,0.5-2.2v-5H8.1V105.4z"/>
		<path class="st0" d="M7.5,112.8c1,0.1,1.6,0.3,2.1,0.7c1.1,0.9,1.7,2.4,1.7,4.6c0,1.8-0.3,3-0.9,3.9c-0.5,0.7-1.2,1-2.5,1H3.2
			c-1,0-1.4,0.3-1.4,1c0,0.1,0,0.3,0,0.5H0.4c-0.1-0.4-0.2-0.6-0.2-1.1c0-1.3,0.4-1.9,1.6-2.3c-1.2-1.3-1.8-2.6-1.8-4.6
			c0-2.6,1.2-4.1,3.2-4.1c1.1,0,2.1,0.6,2.6,1.6c0.3,0.8,0.5,1.3,0.7,3.5c0.2,1.9,0.2,2.2,0.4,2.8c0.2,0.6,0.5,0.8,1.1,0.8
			c1.1,0,1.7-0.9,1.7-2.9c0-2.3-0.6-3.2-2.2-3.3V112.8z M5.7,121.1c-0.4-1.2-0.6-2.4-0.8-4.1c-0.2-1.9-0.6-2.5-1.5-2.5
			c-1.1,0-1.6,0.9-1.6,2.6c0,1.4,0.4,2.5,1.1,3.2c0.6,0.6,1,0.8,2,0.8H5.7z"/>
		<path class="st0" d="M11,128.4H9.4c1.5,1.3,1.9,2,1.9,3.5c0,0.4,0,0.7-0.1,1.3H9.1c0.2-0.6,0.2-0.9,0.2-1.4c0-1.1-0.4-2-1.1-2.7
			c-0.6-0.6-1.1-0.8-2-0.8H0.4v-2.1H11V128.4z"/>
		<path class="st0" d="M11,137.8v2.5H9.3v-2.5H3.2c-1,0-1.2,0.3-1.2,1.3c0,0.4,0,0.6,0.1,1.1H0.3c-0.1-0.8-0.2-1.2-0.2-1.7
			c0-1.1,0.2-1.9,0.7-2.3c0.4-0.4,0.9-0.5,2.2-0.5h6.2v-1.4H11v1.4h3v2.1H11z"/>
		<path class="st0" d="M11,142.2v2.1H0.4v-2.1H11z M14.8,142.2v2.1h-2.2v-2.1H14.8z"/>
		<path class="st0" d="M4.2,158.2c-2.7-0.6-4.1-2.5-4.1-5.4c0-3.7,2.1-5.9,5.6-5.9c3.5,0,5.7,2.2,5.7,5.9c0,2.8-1.4,4.8-3.8,5.3v-2
			c1.4-0.5,2.1-1.6,2.1-3.3c0-2.4-1.5-3.8-3.9-3.8c-2.5,0-4,1.4-4,3.8c0,1.7,0.8,2.8,2.5,3.3V158.2z"/>
		<path class="st0" d="M0.4,162.8v-2.1h14.4v2.1H0.4z"/>
		<path class="st0" d="M5.1,167.5c-2.1,0.2-3.3,1.8-3.3,4.1c0,1.7,0.6,2.8,1.9,3.3v2.3c-2.4-1.1-3.6-3-3.6-5.8
			c0-3.5,2.2-5.9,5.6-5.9c3.3,0,5.7,2.4,5.7,6c0,2.5-1.2,4.6-3.2,5.4c-0.9,0.4-1.7,0.5-3,0.5V167.5z M6.7,175.2
			c1.9-0.5,2.9-1.9,2.9-3.8c0-2-1.1-3.3-2.9-3.8V175.2z"/>
		<path class="st0" d="M7.7,187.7c1.3-0.2,1.9-1.1,1.9-3c0-1.7-0.6-2.8-1.4-2.8c-0.4,0-0.8,0.3-1,0.8c-0.2,0.4-0.2,0.8-0.5,2.6
			c-0.5,2.9-0.5,3.3-1,3.9c-0.5,0.7-1.3,1-2.2,1c-2.2,0-3.4-1.9-3.4-5.3s1.1-5.2,3.7-5.6v2.2c-1.4,0.2-2.1,1.3-2.1,3.4
			c0,2,0.6,3.2,1.6,3.2c0.4,0,0.8-0.2,1-0.6s0.2-0.4,0.5-2.6c0.3-2.1,0.5-2.6,0.7-3.3c0.4-1,1.4-1.7,2.5-1.7c2.1,0,3.3,1.9,3.3,5
			c0,3.2-1.1,4.8-3.6,5V187.7z"/>
		<path class="st0" d="M0.4,199.3h14.4v11.2h-2v-9H8.7v7.9h-2v-7.9H0.4V199.3z"/>
		<path class="st0" d="M11,212.5v2.1H0.4v-2.1H11z M14.8,212.5v2.1h-2.2v-2.1H14.8z"/>
		<path class="st0" d="M0.4,219.9v-2.1h14.4v2.1H0.4z"/>
		<path class="st0" d="M11,225.5v2.5H9.3v-2.5H3.2c-1,0-1.2,0.3-1.2,1.3c0,0.4,0,0.6,0.1,1.1H0.3c-0.1-0.8-0.2-1.2-0.2-1.7
			c0-1.1,0.2-1.9,0.7-2.3c0.4-0.4,0.9-0.5,2.2-0.5h6.2V222H11v1.4h3v2.1H11z"/>
		<path class="st0" d="M5.1,231.4c-2.1,0.2-3.3,1.8-3.3,4.1c0,1.7,0.6,2.8,1.9,3.3v2.3c-2.4-1.1-3.6-3-3.6-5.8
			c0-3.5,2.2-5.9,5.6-5.9c3.3,0,5.7,2.4,5.7,6c0,2.5-1.2,4.6-3.2,5.4c-0.9,0.4-1.7,0.5-3,0.5V231.4z M6.7,239.2
			c1.9-0.5,2.9-1.9,2.9-3.8c0-2-1.1-3.3-2.9-3.8V239.2z"/>
		<path class="st0" d="M11,246.1H9.4c1.5,1.3,1.9,2,1.9,3.5c0,0.4,0,0.7-0.1,1.3H9.1c0.2-0.6,0.2-0.9,0.2-1.4c0-1.1-0.4-2-1.1-2.7
			c-0.6-0.6-1.1-0.8-2-0.8H0.4V244H11V246.1z"/>
		<path class="st0" d="M0.4,259.6h14.4v7.8c0,2.9-1.6,4.6-4.3,4.6c-2.6,0-4.3-1.8-4.3-4.6v-5.7H0.4V259.6z M8.1,266.9
			c0,1.1,0.1,1.7,0.5,2.2c0.4,0.5,1.1,0.8,1.9,0.8c0.8,0,1.5-0.3,1.9-0.8c0.4-0.5,0.5-1.1,0.5-2.2v-5H8.1V266.9z"/>
		<path class="st0" d="M5.6,286.3c-3.2,0-5.5-2.6-5.5-6.2c0-3.7,2.3-6.2,5.6-6.2s5.6,2.5,5.6,6.3C11.3,283.8,9,286.3,5.6,286.3z
			 M5.7,276.1c-2.4,0-4,1.6-4,4c0,2.4,1.6,4,3.9,4c2.4,0,4-1.6,4-4C9.6,277.7,8.1,276.1,5.7,276.1z"/>
		<path class="st0" d="M0.4,299.3l8.3-2.7l-8.3-2.8v-2.2l10.7-4v2.2l-8.3,2.9l8.3,2.7v2.4l-8.3,2.6l8.3,2.9v2.2l-10.7-4V299.3z"/>
		<path class="st0" d="M0.4,318.7v-2.1h1.4c-1.2-1.4-1.7-2.6-1.7-4.2c0-3.2,2.4-5.6,5.6-5.6s5.6,2.4,5.6,5.6c0,1.6-0.5,2.8-1.7,4.2
			h5.2v2.1H0.4z M5.7,308.9c-2.3,0-3.8,1.6-3.8,3.9c0,2.3,1.6,3.9,3.8,3.9c2.4,0,3.9-1.6,3.9-3.9C9.6,310.5,8,308.9,5.7,308.9z"/>
		<path class="st0" d="M5.1,323.4c-2.1,0.2-3.3,1.8-3.3,4.1c0,1.7,0.6,2.8,1.9,3.3v2.3c-2.4-1.1-3.6-3-3.6-5.8
			c0-3.5,2.2-5.9,5.6-5.9c3.3,0,5.7,2.4,5.7,6c0,2.5-1.2,4.6-3.2,5.4c-0.9,0.4-1.7,0.5-3,0.5V323.4z M6.7,331.1
			c1.9-0.5,2.9-1.9,2.9-3.8c0-2-1.1-3.3-2.9-3.8V331.1z"/>
		<path class="st0" d="M11,338H9.4c1.5,1.3,1.9,2,1.9,3.5c0,0.4,0,0.7-0.1,1.3H9.1c0.2-0.6,0.2-0.9,0.2-1.4c0-1.1-0.4-2-1.1-2.7
			c-0.6-0.6-1.1-0.8-2-0.8H0.4v-2.1H11V338z"/>
	</g>
</g>
</svg>
