<?xml version="1.0" encoding="utf-8"?>
<!-- Generator: Adobe Illustrator 25.4.1, SVG Export Plug-In . SVG Version: 6.00 Build 0)  -->
<svg version="1.1" id="レイヤー_1" xmlns="http://www.w3.org/2000/svg" xmlns:xlink="http://www.w3.org/1999/xlink" x="0px"
	 y="0px" viewBox="0 0 302 201" style="enable-background:new 0 0 302 201;" xml:space="preserve">
<style type="text/css">
	.st0{fill:#FFFFFF;}
</style>
<g>
	<g>
		<g>
			<path class="st0" d="M70.1,68.8c-3.8-5.1-5.8-11.4-5.8-18.9c0-2.1,0.2-4.7,0.7-7.7c1-6.3,3.2-11.9,6.7-16.9
				c3.5-5,7.6-8.9,12.5-11.7c4.9-2.8,9.8-4.2,14.7-4.2c2.6,0,5.1,0.3,7.6,1c2.4,0.7,4.4,1.6,5.8,2.8c0.4,0.3,0.6,0.7,0.7,0.9
				c0.1,0.3,0.1,0.8,0,1.5l-0.7,10.8c-0.1,0.3-0.2,0.4-0.6,0.4c-0.3,0-0.5-0.1-0.5-0.4c-0.3-5.3-1.8-9.1-4.6-11.5
				c-2.7-2.3-6.5-3.5-11.2-3.5c-4.1,0-7.9,1.2-11.3,3.5c-3.5,2.3-6.4,5.6-8.7,9.8c-2.3,4.2-3.9,9-4.8,14.6c-0.5,3.2-0.7,6-0.7,8.6
				c0,5.2,0.8,9.9,2.3,14c1.5,4.1,3.7,7.4,6.5,9.7c2.8,2.3,6.1,3.5,9.8,3.5s7.3-1.3,10.6-3.9c3.4-2.6,6.3-6.5,8.7-11.6
				c0.1-0.1,0.2-0.2,0.3-0.2c0.2,0,0.4,0.1,0.5,0.2c0.2,0.1,0.2,0.3,0.1,0.4L106.1,71c-0.2,0.9-0.5,1.5-0.6,1.8
				c-0.2,0.3-0.5,0.5-1.1,0.7c-5.5,1.9-10.9,2.9-16.3,2.9C80,76.4,74,73.8,70.1,68.8z"/>
			<path class="st0" d="M118.8,72.1c-2-2.9-3.1-6.7-3.1-11.5c0-2.1,0.2-3.9,0.5-5.6c0.7-3.9,2-7.5,3.9-10.8c1.9-3.3,4.2-5.8,6.9-7.7
				c2.7-1.9,5.6-2.8,8.5-2.8c3.8,0,6.7,1.5,8.8,4.4c2.1,2.9,3.1,6.7,3.1,11.2c0,1.8-0.2,3.7-0.6,5.7c-0.7,4.2-2.1,7.9-4.2,11.1
				c-2,3.2-4.4,5.7-7.2,7.5c-2.7,1.8-5.5,2.7-8.3,2.7C123.7,76.5,120.9,75,118.8,72.1z M138.1,70.1c2.3-2.5,3.8-6,4.5-10.4
				c0.3-1.9,0.5-3.8,0.5-5.6c0-4.7-0.9-8.9-2.6-12.4c-1.8-3.5-4.3-5.3-7.6-5.3c-2.8,0-5.4,1.3-7.7,4c-2.3,2.6-3.8,6.1-4.6,10.4
				c-0.4,1.9-0.6,3.8-0.6,5.8c0,4.7,0.9,8.8,2.8,12.3c1.9,3.4,4.5,5.2,7.8,5.2C133.3,73.9,135.8,72.6,138.1,70.1z"/>
			<path class="st0" d="M155.9,74.9c-0.5-0.7-0.7-1.8-0.7-3.4c0-1,0.2-2.9,0.7-5.7l9.4-55.5c0.1-1,0.2-1.6,0.2-1.9
				c0-1.7-0.7-2.6-2-2.6c-1.1,0-2.7,0.6-4.6,1.7h-0.2c-0.2,0-0.4-0.2-0.5-0.5c-0.1-0.3,0-0.6,0.2-0.6l11.4-6.2h0.2
				c0.2,0,0.5,0.1,0.7,0.3c0.2,0.2,0.2,0.4,0.2,0.5l-10.9,64.8c-0.2,1.5-0.4,2.5-0.4,3c0,1,0.2,1.8,0.6,2.4c0.4,0.6,0.8,0.9,1.4,0.9
				c1.4,0,3.5-1.7,6.4-5.1c0.1-0.1,0.2-0.2,0.4-0.2c0.2,0,0.3,0.1,0.5,0.4c0.1,0.2,0.1,0.5-0.1,0.7c-2.2,2.8-4.1,4.8-5.7,6.1
				c-1.6,1.3-3.2,2-4.7,2C157.2,75.9,156.4,75.6,155.9,74.9z"/>
			<path class="st0" d="M177.4,72.1c-2-2.9-3.1-6.7-3.1-11.5c0-2.1,0.2-3.9,0.5-5.6c0.7-3.9,2-7.5,3.9-10.8c1.9-3.3,4.2-5.8,6.9-7.7
				c2.7-1.9,5.6-2.8,8.5-2.8c3.8,0,6.7,1.5,8.8,4.4c2.1,2.9,3.1,6.7,3.1,11.2c0,1.8-0.2,3.7-0.6,5.7c-0.7,4.2-2.1,7.9-4.2,11.1
				c-2,3.2-4.4,5.7-7.2,7.5c-2.7,1.8-5.5,2.7-8.3,2.7C182.3,76.5,179.5,75,177.4,72.1z M196.7,70.1c2.3-2.5,3.8-6,4.5-10.4
				c0.3-1.9,0.5-3.8,0.5-5.6c0-4.7-0.9-8.9-2.6-12.4c-1.8-3.5-4.3-5.3-7.6-5.3c-2.8,0-5.4,1.3-7.7,4c-2.3,2.6-3.8,6.1-4.6,10.4
				c-0.4,1.9-0.6,3.8-0.6,5.8c0,4.7,0.9,8.8,2.8,12.3c1.9,3.4,4.5,5.2,7.8,5.2C191.9,73.9,194.5,72.6,196.7,70.1z"/>
			<path class="st0" d="M238.6,35.9c1.1,1.1,1.5,2.3,1.2,3.7c-0.4,1.7-1.3,2.5-2.7,2.5c-0.7,0-1.2-0.2-1.6-0.5
				c-0.4-0.3-0.7-0.9-1.1-1.5c-0.2-0.3-0.4-0.7-0.7-1c-0.3-0.3-0.6-0.5-1-0.5c-1.4,0-3.1,2-5.1,6.1c-2,4.1-3.8,8.9-5.6,14.7
				c-1.8,5.7-3.1,10.7-3.9,15.1c-0.1,0.4-0.3,0.8-0.7,1c-0.4,0.3-0.9,0.4-1.6,0.4c-0.8,0-1.3-0.1-1.5-0.2c-0.2-0.1-0.3-0.3-0.3-0.5
				l0.5-2.4l0.9-5.5l2.9-18.1c0.4-2.4,0.7-4.5,0.7-6.2c0-3.4-0.8-5.1-2.4-5.1c-1.4,0-3.3,1.2-5.7,3.7l-0.2,0.1
				c-0.1,0-0.3-0.1-0.4-0.4c-0.2-0.2-0.2-0.4-0.1-0.6c3.5-4.5,6.7-6.7,9.7-6.7c1.1,0,2,0.4,2.6,1.3c0.6,0.9,0.9,2.4,0.9,4.6
				c0,2.3-0.3,5.4-0.9,9.1l-2,11.8c2.2-7.4,4.6-13.7,7.2-18.9c2.7-5.3,5.2-7.9,7.5-7.9C236.4,34.2,237.5,34.8,238.6,35.9z"/>
		</g>
	</g>
	<g>
		<path class="st0" d="M72.5,171.8c0,0.4-0.1,0.6-0.3,0.6c-1.9,0-3.4,0-4.6-0.1l-6.4-0.1l-5.9,0.1c-1,0.1-2.4,0.1-4.2,0.1
			c-0.1,0-0.2-0.2-0.2-0.6s0.1-0.6,0.2-0.6c2.1,0,3.7-0.2,4.7-0.6c1-0.4,1.7-1,2-2c0.3-1,0.4-2.5,0.3-4.5l-1.7-47l-21.2,54.6
			c-0.1,0.3-0.4,0.4-0.7,0.4c-0.3,0-0.6-0.1-0.8-0.4l-22.9-54L10,161.2c-0.1,3.6,0.5,6.2,1.7,7.7c1.2,1.5,3.3,2.3,6.2,2.3
			c0.1,0,0.2,0.2,0.2,0.6s-0.1,0.6-0.2,0.6c-1.7,0-3.1,0-4-0.1l-5-0.1l-4.8,0.1c-0.9,0.1-2.1,0.1-3.7,0.1c-0.1,0-0.2-0.2-0.2-0.6
			s0.1-0.6,0.2-0.6c2.6,0,4.5-0.8,5.6-2.3c1.1-1.5,1.7-4.1,1.8-7.7l0.8-47.9c-1.9-2.8-4.4-4.1-7.6-4.1c-0.1,0-0.2-0.2-0.2-0.6
			s0.1-0.6,0.2-0.6l3.4,0.1c0.6,0.1,1.5,0.1,2.6,0.1c1.1,0,2.1,0,2.8-0.1c0.8-0.1,1.4-0.1,1.8-0.1c0.8,0,1.5,0.3,2,1
			c0.5,0.7,1.3,2.1,2.3,4.4l20.7,48.5l20.2-51.3c0.7-1.7,1.6-2.6,2.8-2.6c0.3,0,0.8,0,1.3,0.1c0.6,0.1,1.4,0.1,2.4,0.1l4.4-0.1
			c0.7-0.1,1.7-0.1,3.1-0.1c0.2,0,0.3,0.2,0.3,0.6s-0.1,0.6-0.3,0.6c-3.1,0-5.3,0.5-6.6,1.5c-1.3,1-2,2.9-1.9,5.6l1.9,47.8
			c0.1,2.1,0.3,3.7,0.7,4.6c0.4,1,1.1,1.6,2.2,2c1.1,0.3,2.8,0.5,5.1,0.5C72.4,171.2,72.5,171.4,72.5,171.8z"/>
		<path class="st0" d="M109.2,166.9c0.2,0,0.4,0.2,0.5,0.5c0.1,0.3,0,0.5-0.3,0.7l-9.6,5.1c-0.2,0.1-0.5,0.2-0.7,0.2
			c-0.8,0-1.5-0.6-2.1-1.8c-0.6-1.2-1-2.8-1.2-4.9l-5.8,3.4c-1.9,1.1-3.5,1.9-4.7,2.4c-1.2,0.5-2.4,0.7-3.6,0.7
			c-1.9,0-3.4-0.6-4.4-1.7c-1-1.1-1.5-2.6-1.5-4.3c0-1.9,0.6-3.4,1.9-4.5c1.3-1.1,3.5-2.3,6.8-3.6l11.2-4.4v-8.6
			c0-4.5-0.5-7.7-1.6-9.5c-1.1-1.8-2.5-2.7-4.4-2.7c-2.1,0-3.7,0.8-4.9,2.5c-1.2,1.7-1.9,3.6-2.1,6c-0.2,2.6-1.4,3.9-3.4,3.9
			c-1,0-1.8-0.3-2.3-0.8c-0.6-0.6-0.8-1.3-0.8-2.3c0-1.6,0.9-3.3,2.8-5.1c1.9-1.8,4.1-3.3,6.7-4.5c2.6-1.2,5-1.9,7.1-1.9
			c2.5,0,4.5,0.9,5.9,2.8c1.5,1.9,2.2,4.7,2.2,8.5v18.3c0,2.4,0.3,4.2,0.8,5.3c0.6,1.1,1.5,1.7,2.8,1.7c1.2,0,2.7-0.4,4.6-1.3H109.2
			z M95.7,165.2v-0.6v-8.7l-9.6,4c-1.4,0.6-2.4,1.3-3,2.1c-0.6,0.8-0.9,1.7-0.9,2.9c0,1.4,0.4,2.6,1.1,3.4c0.7,0.8,1.7,1.2,2.9,1.2
			c1.2,0,2.4-0.3,3.8-1L95.7,165.2z"/>
		<path class="st0" d="M151,171.8c0,0.4-0.1,0.6-0.3,0.6c-1.4,0-2.6,0-3.4-0.1l-5-0.1l-6.7,0.1c-1,0.1-2.3,0.1-4,0.1
			c-0.1,0-0.2-0.2-0.2-0.6s0.1-0.6,0.2-0.6c3.1,0,4.6-0.7,4.6-2c0-0.6-0.3-1.4-0.8-2.3L124,149.7l-4.6,4v10.3c0,2,0.2,3.5,0.5,4.5
			c0.3,1,0.9,1.7,1.7,2.1c0.8,0.4,2,0.6,3.7,0.6c0.2,0,0.3,0.2,0.3,0.6s-0.1,0.6-0.3,0.6c-1.4,0-2.6,0-3.4-0.1l-5-0.1l-5,0.1
			c-0.9,0.1-2,0.1-3.4,0.1c-0.2,0-0.3-0.2-0.3-0.6s0.1-0.6,0.3-0.6c1.7,0,2.9-0.2,3.7-0.6c0.8-0.4,1.4-1.1,1.7-2.1
			c0.3-1,0.5-2.5,0.5-4.5v-53.4c0-2.5-0.2-4.3-0.7-5.4c-0.4-1.1-1.2-1.7-2.3-1.7c-0.9,0-2.4,0.5-4.3,1.4h-0.2
			c-0.2,0-0.3-0.2-0.5-0.5c-0.1-0.3-0.1-0.5,0.2-0.6l11.6-6.3l0.5-0.1c0.2,0,0.4,0.1,0.6,0.3c0.2,0.2,0.3,0.4,0.3,0.6v53.7
			l12.4-11.1c2-1.7,3-3.2,3-4.5c0-1.7-1.8-2.6-5.3-2.6c-0.2,0-0.3-0.2-0.3-0.6s0.1-0.6,0.3-0.6c1.7,0,2.9,0,3.8,0.1l6.8,0.1l6.2-0.1
			c0.8-0.1,1.9-0.1,3.3-0.1c0.2,0,0.3,0.2,0.3,0.6s-0.1,0.6-0.3,0.6c-2.3,0-4.8,0.6-7.6,1.9s-5.6,3.1-8.4,5.6l-5.4,4.7l11.8,18.1
			c3.1,4.7,6.7,7.1,10.7,7.1C151,171.2,151,171.4,151,171.8z"/>
		<path class="st0" d="M179.9,166.6c0.2,0,0.4,0.1,0.5,0.4c0.2,0.2,0.2,0.5,0,0.7c-4.2,4-8.7,6-13.6,6c-3.7,0-6.8-0.9-9.5-2.8
			c-2.7-1.9-4.7-4.3-6-7.3c-1.3-3-2-6.2-2-9.8c0-4.1,0.9-7.9,2.6-11.3c1.8-3.4,4.2-6,7.2-8c3-2,6.4-2.9,10.1-2.9
			c3.3,0,5.9,0.9,7.8,2.7c1.9,1.8,2.8,4.3,2.8,7.5c0,0.8-0.1,1.4-0.2,1.8c-0.2,0.4-0.4,0.6-0.9,0.6l-22.9,0.2
			c-0.3,1.9-0.5,3.6-0.5,5.4c0,6,1.3,10.9,3.9,14.6c2.6,3.8,6.2,5.6,10.8,5.6C173.8,170.1,177,168.9,179.9,166.6L179.9,166.6z
			 M159.9,136.1c-1.7,1.6-2.9,3.9-3.6,6.9l17.3-0.4c0-2.8-0.7-5-2-6.6c-1.3-1.5-3.1-2.3-5.3-2.3
			C163.7,133.7,161.6,134.5,159.9,136.1z"/>
		<path class="st0" d="M243.4,109.2c-0.2,0-0.3-0.2-0.3-0.6s0.1-0.6,0.3-0.6l4,0.1c2.2,0.1,4,0.2,5.3,0.2c1.1,0,2.6-0.1,4.6-0.2
			l3.9-0.1c0.1,0,0.2,0.2,0.2,0.6s-0.1,0.6-0.2,0.6c-5,0-7.4,3.4-7.4,10.1v29.3c0,7.9-2,14.1-5.9,18.5c-4,4.4-9.3,6.7-16,6.7
			c-4.6,0-8.6-1-12-3c-3.4-2-6.1-4.8-8-8.5c-1.9-3.7-2.8-8-2.8-13v-33c0-2.1-0.2-3.6-0.6-4.5c-0.4-1-1.1-1.6-2.2-2
			c-1.1-0.4-2.8-0.6-5.2-0.6c-0.1,0-0.2-0.2-0.2-0.6s0.1-0.6,0.2-0.6l4.6,0.1c2.6,0.1,4.7,0.2,6.3,0.2c1.7,0,3.9-0.1,6.5-0.2
			l4.5-0.1c0.2,0,0.3,0.2,0.3,0.6s-0.1,0.6-0.3,0.6c-2.3,0-4,0.2-5.1,0.6c-1.1,0.4-1.9,1.1-2.2,2.1c-0.4,1-0.6,2.5-0.6,4.6v29.2
			c0,8.1,1.7,14.2,5,18.5c3.3,4.3,7.9,6.5,13.9,6.5c5.6,0,9.9-1.9,13-5.8c3.1-3.9,4.6-9.3,4.6-16.2v-29.4
			C251.5,112.5,248.8,109.2,243.4,109.2z"/>
		<path class="st0" d="M294.7,133.5c2.2,1.5,3.9,3.7,5.2,6.6c1.3,2.9,2,6.3,2,10.1c0,5.2-1.1,9.5-3.2,13.1c-2.1,3.5-4.7,6.2-7.8,7.9
			c-3.1,1.7-6.1,2.6-9.1,2.6c-1.9,0-3.6-0.2-5.2-0.6c-1.5-0.4-3.1-1.1-4.7-2.1v21.4c0,2.1,0.2,3.6,0.7,4.5c0.5,1,1.3,1.6,2.6,2
			c1.3,0.4,3.3,0.6,5.9,0.6c0.1,0,0.2,0.2,0.2,0.6s-0.1,0.6-0.2,0.6c-2.1,0-3.8,0-5-0.1l-6.8-0.1l-5.1,0.1c-0.9,0.1-2,0.1-3.4,0.1
			c-0.2,0-0.3-0.2-0.3-0.6s0.1-0.6,0.3-0.6c1.7,0,2.9-0.2,3.7-0.6c0.8-0.4,1.4-1,1.7-2c0.3-1,0.5-2.5,0.5-4.5v-48.5
			c0-2.5-0.2-4.2-0.7-5.3c-0.5-1.1-1.4-1.6-2.6-1.6c-1.4,0-3,0.5-4.9,1.4l-0.2,0.1c-0.2,0-0.4-0.2-0.5-0.5c-0.1-0.3,0-0.6,0.1-0.7
			l10.3-5.5c0.1-0.1,0.3-0.1,0.7-0.1c0.9,0,1.6,0.7,2.1,2.2c0.6,1.4,0.9,3.5,0.9,6.2c5.3-5.9,10.5-8.9,15.6-8.9
			C290.1,131.2,292.5,132,294.7,133.5z M292.7,166.8c2.1-3.2,3.2-7.7,3.2-13.4c0-5.8-1.1-10.3-3.4-13.5c-2.3-3.2-5.2-4.8-8.7-4.8
			c-2.2,0-4.2,0.6-6,1.8c-1.9,1.2-3.7,2.8-5.7,5v23.2c1.7,2.1,3.5,3.8,5.5,4.9c2,1.1,4.4,1.7,7.2,1.7
			C287.9,171.6,290.6,170,292.7,166.8z"/>
	</g>
</g>
</svg>
