<?xml version="1.0" encoding="utf-8"?>
<!-- Generator: Adobe Illustrator 25.4.1, SVG Export Plug-In . SVG Version: 6.00 Build 0)  -->
<svg version="1.1" id="レイヤー_1" xmlns="http://www.w3.org/2000/svg" xmlns:xlink="http://www.w3.org/1999/xlink" x="0px"
	 y="0px" viewBox="0 0 425 43" style="enable-background:new 0 0 425 43;" xml:space="preserve">
<style type="text/css">
	.st0{fill:#FFFFFF;}
</style>
<g>
	<g>
		<path class="st0" d="M3.3,38.3C1.2,35.5,0.1,32,0.1,27.8c0-1.2,0.1-2.6,0.4-4.2C1,20.1,2.3,17,4.2,14.2c1.9-2.7,4.2-4.9,6.9-6.4
			c2.7-1.5,5.4-2.3,8.2-2.3c1.4,0,2.8,0.2,4.2,0.5c1.4,0.4,2.4,0.8,3.2,1.5C26.9,7.7,27,7.9,27.1,8c0.1,0.2,0.1,0.4,0,0.9l-0.5,6.3
			c0,0.2-0.1,0.2-0.3,0.2c-0.2,0-0.3-0.1-0.3-0.2c-0.2-2.9-1.1-5-2.6-6.4c-1.5-1.4-3.5-2-6.1-2c-2.2,0-4.2,0.6-6,1.9
			c-1.8,1.3-3.4,3-4.6,5.3c-1.2,2.3-2.1,5-2.5,8.1c-0.2,1.6-0.4,3.1-0.4,4.8c0,2.8,0.4,5.3,1.2,7.6c0.8,2.3,2,4,3.5,5.3
			c1.5,1.3,3.2,1.9,5.2,1.9c2,0,3.9-0.7,5.7-2.1c1.8-1.4,3.5-3.6,5-6.4c0.1-0.1,0.1-0.1,0.2-0.1c0.1,0,0.2,0,0.3,0.1
			c0.1,0.1,0.1,0.2,0.1,0.2l-1.5,6.1c-0.1,0.5-0.2,0.8-0.3,1c-0.1,0.2-0.3,0.3-0.6,0.4c-3,1.1-6,1.6-9.1,1.6
			C8.8,42.5,5.4,41.1,3.3,38.3z"/>
		<path class="st0" d="M31.2,40.1c-1.1-1.6-1.7-3.7-1.7-6.3c0-1.2,0.1-2.2,0.3-3.1c0.4-2.2,1.1-4.2,2.2-6c1.1-1.8,2.3-3.2,3.8-4.2
			c1.5-1,3.1-1.5,4.8-1.5c2.1,0,3.8,0.8,4.9,2.4c1.2,1.6,1.7,3.6,1.7,6.1c0,1.1-0.1,2.1-0.3,3.2c-0.4,2.3-1.2,4.4-2.3,6.2
			c-1.1,1.8-2.5,3.2-4,4.2c-1.5,1-3.1,1.5-4.6,1.5C34,42.5,32.4,41.7,31.2,40.1z M41.7,39c1.2-1.4,1.9-3.3,2.4-5.7
			c0.2-1.2,0.3-2.3,0.3-3.3c0-2.6-0.5-4.9-1.4-6.7c-0.9-1.9-2.2-2.8-3.9-2.8c-1.5,0-2.8,0.7-3.9,2.1c-1.2,1.4-2,3.3-2.4,5.8
			c-0.2,1.1-0.3,2.3-0.3,3.5c0,2.5,0.5,4.7,1.4,6.6c1,1.8,2.3,2.8,3.9,2.8C39.2,41.1,40.5,40.4,41.7,39z"/>
		<path class="st0" d="M52.7,41.6c-0.3-0.4-0.4-1.1-0.4-2c0-0.8,0.1-1.8,0.3-3l5.1-30.2c0.1-0.3,0.1-0.7,0.1-1.3
			c0-0.9-0.3-1.4-1-1.4c-0.5,0-1.4,0.3-2.5,0.9h-0.1c-0.1,0-0.2-0.1-0.3-0.3c-0.1-0.2,0-0.3,0.1-0.3l6.6-3.6h0.1
			c0.1,0,0.3,0.1,0.4,0.2c0.1,0.1,0.2,0.2,0.1,0.3l-5.9,35.7c-0.1,0.8-0.2,1.4-0.2,1.6c0,0.6,0.1,1,0.3,1.3c0.2,0.3,0.4,0.4,0.7,0.4
			c0.7,0,1.8-0.9,3.3-2.6c0.1-0.1,0.1-0.1,0.2-0.1c0.1,0,0.2,0.1,0.3,0.2c0.1,0.1,0.1,0.3-0.1,0.4c-1.2,1.5-2.2,2.6-3.1,3.4
			c-0.9,0.7-1.8,1.1-2.6,1.1C53.5,42.2,53,42,52.7,41.6z"/>
		<path class="st0" d="M65.8,40.1c-1.1-1.6-1.7-3.7-1.7-6.3c0-1.2,0.1-2.2,0.3-3.1c0.4-2.2,1.1-4.2,2.2-6c1.1-1.8,2.3-3.2,3.8-4.2
			c1.5-1,3.1-1.5,4.8-1.5c2.1,0,3.8,0.8,4.9,2.4c1.2,1.6,1.7,3.6,1.7,6.1c0,1.1-0.1,2.1-0.3,3.2c-0.4,2.3-1.2,4.4-2.3,6.2
			c-1.1,1.8-2.5,3.2-4,4.2c-1.5,1-3.1,1.5-4.6,1.5C68.5,42.5,66.9,41.7,65.8,40.1z M76.2,39c1.2-1.4,1.9-3.3,2.4-5.7
			c0.2-1.2,0.3-2.3,0.3-3.3c0-2.6-0.5-4.9-1.4-6.7c-0.9-1.9-2.2-2.8-3.9-2.8c-1.5,0-2.8,0.7-3.9,2.1c-1.2,1.4-2,3.3-2.4,5.8
			c-0.2,1.1-0.3,2.3-0.3,3.5c0,2.5,0.5,4.7,1.4,6.6c1,1.8,2.3,2.8,3.9,2.8C73.8,41.1,75.1,40.4,76.2,39z"/>
		<path class="st0" d="M100.8,20c0.6,0.5,0.9,1.2,0.9,1.9c0,0.6-0.2,1-0.5,1.4c-0.3,0.4-0.7,0.6-1.2,0.6c-0.4,0-0.7-0.1-0.9-0.3
			c-0.2-0.2-0.5-0.5-0.7-0.9c-0.1-0.2-0.3-0.4-0.5-0.5c-0.2-0.2-0.4-0.3-0.6-0.3c-0.8,0-1.6,1.1-2.7,3.3c-1,2.2-2,4.8-2.9,7.9
			s-1.6,5.8-2,8.1c0,0.3-0.2,0.5-0.5,0.6c-0.3,0.2-0.7,0.2-1.2,0.2c-0.4,0-0.7,0-0.9-0.1C87.1,42,87,42,87,41.8l0.3-1.3l0.5-3
			L89.4,27c0.2-1.3,0.3-2.2,0.3-3c0-1.7-0.4-2.6-1.2-2.6c-0.8,0-1.8,0.7-3.1,2.1l-0.1,0.1c-0.1,0-0.2-0.1-0.3-0.2
			c-0.1-0.1-0.1-0.2-0.1-0.3c1.1-1.3,2-2.3,2.9-2.9c0.9-0.6,1.8-1,2.6-1c0.7,0,1.2,0.2,1.5,0.7c0.3,0.5,0.5,1.3,0.5,2.6
			c0,0.9-0.1,2.4-0.4,4.3L91,33.4c1.2-4,2.4-7.3,3.8-10c1.4-2.7,2.7-4.1,4-4.1C99.5,19.3,100.1,19.5,100.8,20z"/>
		<path class="st0" d="M142.3,17.8c-1-4.4-4.3-7-8.9-7c-6.3,0-10.5,5.2-10.5,12.9c0,8,4.2,13.4,10.4,13.4c5.2,0,8.7-3.5,9.5-9.2h4.8
			c-0.4,3.3-1.1,5.3-2.8,7.7c-2.7,3.8-6.5,5.6-11.5,5.6c-4.9,0-8.8-1.9-11.6-5.6c-2.4-3.2-3.6-7.2-3.6-11.7
			c0-10.1,6.4-17.1,15.5-17.1c7,0,12,4,13.5,10.6L142.3,17.8z"/>
		<path class="st0" d="M175.7,28.7c0,7.3-4.7,12.4-11.5,12.4c-6.8,0-11.5-5.1-11.5-12.6c0-7.5,4.7-12.6,11.5-12.6
			C171.2,15.9,175.7,20.9,175.7,28.7z M157.3,28.5c0,5.6,2.5,8.8,6.9,8.8c4.3,0,6.9-3.2,6.9-8.7c0-5.7-2.5-8.9-6.9-8.9
			C159.8,19.7,157.3,22.9,157.3,28.5z"/>
		<path class="st0" d="M186.5,16.5v2.7c2.4-2.5,4.3-3.4,7.6-3.4c2.8,0,5.2,0.9,6.5,2.6c1.1,1.5,1.6,3.2,1.6,5.9v16h-4.6V24.8
			c0-3.3-1.5-4.9-4.6-4.9c-3.9,0-6.3,2.3-6.3,6v14.5h-4.6V16.5H186.5z"/>
		<path class="st0" d="M219.3,20.2H215v15c0,1.4,0.6,2.2,1.8,2.2c0.6,0,1.3-0.1,2.5-0.6v3.7c-2,0.4-2.7,0.5-3.8,0.5
			c-3.4,0-5.1-1.8-5.1-5.8v-15h-3.2v-3.6h3.2V9h4.6v7.6h4.3V20.2z"/>
		<path class="st0" d="M224.6,24.5c0.2-2.8,0.7-4.5,1.9-5.8c1.5-1.7,4.4-2.7,7.8-2.7c5.9,0,9.3,2.8,9.3,7.8v11.2
			c0,1.9,0.2,2.3,1.3,2.3c0.4,0,0.6,0,1.2-0.2v3.5c-1.1,0.2-2,0.3-3,0.3c-2.2,0-3.2-0.9-3.6-3.2c-2.4,2.4-5.1,3.5-8.3,3.5
			c-4.7,0-7.8-2.9-7.8-7.1c0-3.9,2.4-6.2,7.2-7.2l5.3-1c2.9-0.5,3.5-1,3.5-2.5c0-2.3-2-3.8-5.2-3.8c-2.3,0-4.2,0.7-4.8,2
			c-0.3,0.6-0.4,1.2-0.5,2.9H224.6z M239.6,28.2c-0.8,0.3-1.6,0.6-2.8,0.9l-4.7,1.1c-2.8,0.6-4,1.8-4,3.7c0,2.2,1.8,3.7,4.5,3.7
			c3.9,0,7-2.8,7-6.2V28.2z"/>
		<path class="st0" d="M268.2,24.7c-0.7-3.3-2.8-5-6-5c-4.4,0-7.3,3.5-7.3,8.7c0,5.4,2.9,8.9,7.3,8.9c3.6,0,5.7-1.9,6.3-5.8h4.3
			c-0.6,6.1-4.6,9.6-10.7,9.6c-7.1,0-11.8-5-11.8-12.6s4.7-12.6,11.9-12.6c5.8,0,9.7,3.2,10.3,8.8H268.2z"/>
		<path class="st0" d="M288.2,20.2h-4.3v15c0,1.4,0.6,2.2,1.8,2.2c0.6,0,1.3-0.1,2.5-0.6v3.7c-2,0.4-2.7,0.5-3.8,0.5
			c-3.4,0-5.1-1.8-5.1-5.8v-15h-3.2v-3.6h3.2V9h4.6v7.6h4.3V20.2z"/>
		<path class="st0" d="M306.2,41.4c0-0.2,0-0.3,0.1-0.3c1.1,0,1.9-0.1,2.5-0.3c0.5-0.2,1-0.6,1.2-1.1c0.3-0.5,0.5-1.4,0.7-2.5
			l4.2-26.3C314.9,10,315,9.4,315,9c0-0.9-0.2-1.5-0.7-1.7c-0.5-0.3-1.3-0.4-2.6-0.4c-0.1,0-0.1-0.1-0.1-0.3s0-0.3,0.1-0.3l2.2,0.1
			c1.2,0.1,2.2,0.1,3,0.1c0.8,0,1.9,0,3.2-0.1l2.1-0.1c0.1,0,0.1,0.1,0.1,0.3s0,0.3-0.1,0.3c-1.1,0-1.9,0.1-2.4,0.3
			c-0.5,0.2-0.9,0.6-1.2,1.1c-0.3,0.6-0.5,1.4-0.7,2.5l-4.1,26.1c-0.1,0.7-0.2,1.3-0.2,1.7c0,0.8,0.2,1.3,0.7,1.6
			c0.4,0.3,1.2,0.4,2.4,0.4h5.2c1.9,0,3.4-0.6,4.7-1.9c1.2-1.3,2.3-3.2,3.1-5.6c0-0.1,0.1-0.1,0.2-0.1c0.1,0,0.2,0,0.3,0.1
			c0.1,0.1,0.1,0.1,0.1,0.1c-0.8,2.8-1.3,5.3-1.6,7.7c-0.1,0.3-0.2,0.5-0.3,0.7c-0.1,0.1-0.3,0.2-0.5,0.2h-21.4
			C306.2,41.7,306.2,41.6,306.2,41.4z"/>
		<path class="st0" d="M347.3,25c-1.1,1.1-2.6,2-4.5,2.8s-3.9,1.4-6,1.8c-0.2,1.2-0.3,2.3-0.3,3.1c0,2.4,0.5,4.2,1.4,5.7
			c1,1.4,2.3,2.1,4,2.1c1.9,0,3.6-0.6,5.1-1.9h0.1c0.1,0,0.2,0.1,0.3,0.2s0.1,0.2,0,0.3c-2.4,2.2-4.9,3.3-7.5,3.3
			c-2.2,0-3.8-0.8-4.9-2.3c-1.1-1.5-1.7-3.5-1.7-5.9c0-0.8,0.1-1.8,0.3-3c0.3-1.9,1-3.8,2.2-5.7c1.1-1.9,2.5-3.4,4.2-4.6
			c1.7-1.2,3.5-1.8,5.3-1.8c1.1,0,2,0.2,2.6,0.7s0.9,1.1,0.9,1.9C348.9,22.8,348.4,23.9,347.3,25z M339.2,22.9
			c-1.1,1.5-1.8,3.5-2.2,5.9c2.4-0.5,4.3-1.1,5.8-2c1.5-0.9,2.4-2,2.7-3.4c0.1-0.4,0.1-0.6,0.1-0.8c0-0.6-0.2-1.1-0.7-1.5
			c-0.5-0.3-1-0.5-1.7-0.5C341.6,20.6,340.3,21.3,339.2,22.9z"/>
		<path class="st0" d="M373.4,37.2c0.1,0,0.2,0.1,0.3,0.2c0.1,0.1,0.1,0.3,0,0.4c-1.2,1.5-2.2,2.6-3.1,3.4c-0.9,0.7-1.8,1.1-2.6,1.1
			c-0.6,0-1.1-0.2-1.4-0.6c-0.3-0.4-0.4-1.1-0.4-2c0-0.8,0.1-1.8,0.3-3l1.5-9c0.2-1.2,0.3-2.2,0.3-3.1c0-2.2-0.7-3.3-2.2-3.3
			c-1.1,0-2.3,0.8-3.5,2.4c-1.2,1.6-2.3,3.9-3.4,7c-1.1,3.1-1.9,6.6-2.6,10.7c-0.1,0.3-0.2,0.5-0.5,0.6c-0.3,0.2-0.7,0.2-1.2,0.2
			c-0.5,0-0.8,0-0.9-0.1c-0.2-0.1-0.2-0.1-0.2-0.3l0.2-1.3c0.2-0.9,0.4-1.9,0.6-3l2.1-12.7c0.1-0.6,0.2-1.1,0.2-1.5
			c0-1.2-0.3-1.8-1-1.8c-0.4,0-0.9,0.2-1.6,0.7s-1.3,1.1-2,1.9c0,0-0.1,0.1-0.2,0.1c-0.1,0-0.2-0.1-0.3-0.2c-0.1-0.1-0.1-0.2,0-0.3
			c1.2-1.5,2.2-2.6,3.2-3.3c1-0.7,1.9-1.1,2.8-1.1c0.6,0,1,0.2,1.3,0.6s0.4,1,0.4,1.9c0,1-0.1,2-0.3,3l-1.1,6.9
			c1.2-3.9,2.7-7,4.4-9.2s3.4-3.3,5.3-3.3c1.1,0,2,0.3,2.5,1c0.5,0.7,0.8,1.8,0.8,3.2c0,0.9-0.1,2-0.3,3.2l-1.7,10.1
			c-0.1,0.6-0.2,1.1-0.2,1.5c0,1.2,0.3,1.8,1,1.8c0.7,0,1.8-0.9,3.3-2.6C373.3,37.3,373.4,37.2,373.4,37.2z"/>
		<path class="st0" d="M377.3,41.3c-0.9-0.7-1.3-1.5-1.2-2.5c0-0.5,0.2-0.9,0.5-1.2c0.3-0.3,0.6-0.4,1-0.4c0.3,0,0.6,0.1,0.7,0.3
			c0.2,0.2,0.4,0.6,0.7,1.1c0.4,0.8,0.8,1.3,1.3,1.8c0.4,0.4,1.1,0.6,1.9,0.6c1.9,0,3-1.2,3.3-3.5c0-0.2,0.1-0.4,0.1-0.7
			c0-1.1-0.3-2-0.8-2.8c-0.5-0.8-1.4-1.7-2.6-2.8c-1.1-1-2-1.9-2.5-2.7c-0.6-0.8-0.8-1.7-0.8-2.8c0-0.2,0-0.5,0.1-1
			c0.3-1.7,1.1-3.1,2.4-4.1c1.3-1,2.8-1.5,4.4-1.5c1.2,0,2.1,0.2,2.9,0.7c0.8,0.5,1.2,1.1,1.2,1.9c0,0.6-0.2,1-0.5,1.3
			c-0.3,0.3-0.7,0.5-1.1,0.5c-0.4,0-0.7-0.1-0.9-0.3c-0.3-0.2-0.5-0.6-0.8-1c-0.4-0.6-0.7-1.1-1.1-1.3c-0.4-0.3-0.9-0.4-1.5-0.4
			c-0.8,0-1.5,0.3-2,0.8c-0.5,0.5-0.7,1.3-0.7,2.2c0,1,0.3,1.9,0.8,2.8c0.6,0.8,1.4,1.7,2.5,2.8c1.2,1.2,2.1,2.2,2.6,3
			c0.6,0.8,0.8,1.8,0.8,2.9c0,1.2-0.3,2.4-1,3.6c-0.6,1.2-1.5,2.1-2.7,2.8c-1.1,0.7-2.3,1.1-3.6,1.1C379.3,42.4,378.2,42,377.3,41.3
			z"/>
		<path class="st0" d="M407.2,25c-1.1,1.1-2.6,2-4.5,2.8s-3.9,1.4-6,1.8c-0.2,1.2-0.3,2.3-0.3,3.1c0,2.4,0.5,4.2,1.4,5.7
			c1,1.4,2.3,2.1,4,2.1c1.9,0,3.6-0.6,5.1-1.9h0.1c0.1,0,0.2,0.1,0.3,0.2s0.1,0.2,0,0.3c-2.4,2.2-4.9,3.3-7.5,3.3
			c-2.2,0-3.8-0.8-4.9-2.3c-1.1-1.5-1.7-3.5-1.7-5.9c0-0.8,0.1-1.8,0.3-3c0.3-1.9,1-3.8,2.2-5.7c1.1-1.9,2.5-3.4,4.2-4.6
			c1.7-1.2,3.5-1.8,5.3-1.8c1.1,0,2,0.2,2.6,0.7s0.9,1.1,0.9,1.9C408.8,22.8,408.3,23.9,407.2,25z M399.1,22.9
			c-1.1,1.5-1.8,3.5-2.2,5.9c2.4-0.5,4.3-1.1,5.8-2c1.5-0.9,2.4-2,2.7-3.4c0.1-0.4,0.1-0.6,0.1-0.8c0-0.6-0.2-1.1-0.7-1.5
			c-0.5-0.3-1-0.5-1.7-0.5C401.5,20.6,400.2,21.3,399.1,22.9z"/>
		<path class="st0" d="M412.3,41.3c-0.9-0.7-1.3-1.5-1.2-2.5c0-0.5,0.2-0.9,0.5-1.2c0.3-0.3,0.6-0.4,1-0.4c0.3,0,0.6,0.1,0.7,0.3
			c0.2,0.2,0.4,0.6,0.7,1.1c0.4,0.8,0.8,1.3,1.3,1.8c0.4,0.4,1.1,0.6,1.9,0.6c1.9,0,3-1.2,3.3-3.5c0-0.2,0.1-0.4,0.1-0.7
			c0-1.1-0.3-2-0.8-2.8c-0.5-0.8-1.4-1.7-2.6-2.8c-1.1-1-2-1.9-2.5-2.7c-0.6-0.8-0.8-1.7-0.8-2.8c0-0.2,0-0.5,0.1-1
			c0.3-1.7,1.1-3.1,2.4-4.1c1.3-1,2.8-1.5,4.4-1.5c1.2,0,2.1,0.2,2.9,0.7c0.8,0.5,1.2,1.1,1.2,1.9c0,0.6-0.2,1-0.5,1.3
			c-0.3,0.3-0.7,0.5-1.1,0.5c-0.4,0-0.7-0.1-0.9-0.3c-0.3-0.2-0.5-0.6-0.8-1c-0.4-0.6-0.7-1.1-1.1-1.3c-0.4-0.3-0.9-0.4-1.5-0.4
			c-0.8,0-1.5,0.3-2,0.8c-0.5,0.5-0.7,1.3-0.7,2.2c0,1,0.3,1.9,0.8,2.8c0.6,0.8,1.4,1.7,2.5,2.8c1.2,1.2,2.1,2.2,2.6,3
			c0.6,0.8,0.8,1.8,0.8,2.9c0,1.2-0.3,2.4-1,3.6c-0.6,1.2-1.5,2.1-2.7,2.8c-1.1,0.7-2.3,1.1-3.6,1.1C414.4,42.4,413.3,42,412.3,41.3
			z"/>
	</g>
</g>
</svg>
