<?xml version="1.0" encoding="utf-8"?>
<!-- Generator: Adobe Illustrator 25.4.1, SVG Export Plug-In . SVG Version: 6.00 Build 0)  -->
<svg version="1.1" id="レイヤー_1" xmlns="http://www.w3.org/2000/svg" xmlns:xlink="http://www.w3.org/1999/xlink" x="0px"
	 y="0px" viewBox="0 0 307 60" style="enable-background:new 0 0 307 60;" xml:space="preserve">
<style type="text/css">
	.st0{fill:#FFFFFF;}
</style>
<g>
	<g>
		<path class="st0" d="M25.2,25.1c1.5,1.6,2.2,3.6,2.2,6.1c0,0.7-0.1,1.4-0.2,2.1c-0.3,2.1-1.2,4.1-2.4,5.9
			c-1.3,1.8-2.8,3.2-4.7,4.3c-1.8,1.1-3.8,1.6-5.9,1.6c-1.2,0-2.4-0.1-3.7-0.2c-0.5,0-1-0.1-1.7-0.1c-0.7,0-1.4-0.1-2.2-0.1L3,44.7
			c-0.6,0-1.5,0.1-2.5,0.1c-0.1,0-0.2-0.1-0.1-0.4c0-0.3,0.1-0.4,0.1-0.4c1.3,0,2.3-0.1,3-0.4C4.1,43.4,4.6,43,5,42.4
			c0.3-0.6,0.6-1.6,0.8-2.8l4.7-29.6c0.1-0.8,0.2-1.4,0.2-1.9c0-1-0.3-1.6-0.8-2C9.3,5.7,8.3,5.6,6.8,5.6c-0.2,0-0.2-0.1-0.2-0.4
			c0-0.3,0.1-0.4,0.2-0.4l2.6,0.1C10.9,4.9,12,5,12.8,5c0.7,0,1.3,0,1.9-0.1c0.6,0,1-0.1,1.5-0.1c1.1-0.1,2.1-0.2,2.9-0.2
			c2.8,0,4.9,0.6,6.3,1.8c1.4,1.2,2.1,2.8,2.1,4.9c0,0.6-0.1,1.3-0.2,2c-0.4,2.1-1.3,3.9-2.7,5.4c-1.4,1.5-3.2,2.7-5.4,3.6
			C21.7,22.5,23.7,23.5,25.2,25.1z M23.5,31.8c0-2.6-0.7-4.5-2-6c-1.3-1.4-3.3-2.1-5.9-2.2c-1.2,0-2.5,0-4,0.1L9.1,39.7
			c-0.1,0.6-0.2,1.1-0.2,1.6c0,1,0.3,1.7,1,2c0.7,0.4,1.8,0.6,3.6,0.6c2.8,0,5-0.9,6.7-2.6c1.7-1.7,2.7-4.1,3.2-7
			C23.5,33.4,23.5,32.6,23.5,31.8z M11.9,22.3l2.3,0.1c2.7,0,4.9-0.8,6.5-2.5c1.6-1.7,2.7-3.8,3.1-6.5c0.1-0.7,0.2-1.4,0.2-2.1
			c0-1.7-0.5-3.1-1.5-4.2c-1-1-2.5-1.5-4.6-1.5c-0.9,0-1.6,0.1-2.1,0.3c-0.5,0.2-0.9,0.7-1.2,1.3c-0.3,0.7-0.6,1.7-0.8,3.1
			L11.9,22.3z"/>
		<path class="st0" d="M54.8,39.8c0.1,0,0.2,0.1,0.3,0.2c0.1,0.2,0.1,0.3,0,0.4c-1.3,1.7-2.5,2.9-3.5,3.7c-1,0.8-2,1.2-3,1.2
			c-0.7,0-1.1-0.2-1.5-0.7c-0.3-0.4-0.5-1.2-0.5-2.2c0-0.9,0.1-2,0.3-3.4l1-6.7c-1.8,4-3.8,7.2-6,9.6c-2.2,2.4-4.3,3.6-6.4,3.6
			c-2.4,0-3.6-1.6-3.6-4.7c0-0.3,0-1,0.1-1.9c0.4-3,1.4-6.1,3.1-9.2c1.7-3.1,3.6-5.6,5.8-7.6c2.2-2,4.3-3,6.3-3
			c0.7,0,1.4,0.1,2.1,0.4c0.7,0.3,1.2,0.7,1.7,1.3c0.7-0.6,1.2-1.4,1.4-2.3c0-0.1,0.2-0.2,0.4-0.1c0.2,0,0.3,0.1,0.3,0.2L50,39.1
			c-0.1,0.6-0.2,1.2-0.2,1.7c0,1.3,0.3,2,1,2c0.8,0,2.1-1,3.8-2.9C54.7,39.8,54.7,39.8,54.8,39.8z M42.2,40.1c1.6-1.6,2.9-3.6,4.2-6
			c1.2-2.4,2.1-4.8,2.5-7.1c0.1-0.6,0.2-1,0.1-1.5c0-1.3-0.3-2.3-0.9-3c-0.6-0.7-1.5-1.1-2.7-1.1c-1.3,0-2.7,0.7-4.1,2
			c-1.4,1.3-2.6,3.1-3.7,5.2c-1,2.2-1.7,4.6-2.1,7.3c-0.1,0.9-0.2,1.8-0.2,2.6c0,2.6,0.8,3.8,2.4,3.8C39.2,42.5,40.6,41.7,42.2,40.1
			z"/>
		<path class="st0" d="M59.2,44.4c-1.1-0.8-1.5-1.7-1.4-2.8c0-0.6,0.2-1,0.6-1.3c0.3-0.3,0.7-0.5,1.2-0.5c0.3,0,0.6,0.1,0.8,0.4
			c0.2,0.3,0.5,0.7,0.8,1.3c0.5,0.9,0.9,1.5,1.4,2c0.5,0.5,1.2,0.7,2.2,0.7c2.1,0,3.3-1.3,3.7-3.9c0-0.2,0.1-0.5,0.1-0.8
			c0-1.2-0.3-2.3-0.9-3.2C67,35.3,66,34.2,64.7,33c-1.3-1.2-2.2-2.2-2.9-3c-0.6-0.9-1-1.9-1-3.2c0-0.2,0-0.6,0.1-1.1
			c0.3-1.9,1.3-3.4,2.7-4.6c1.5-1.1,3.1-1.7,4.9-1.7c1.3,0,2.4,0.3,3.3,0.8c0.9,0.6,1.4,1.3,1.4,2.1c0,0.6-0.2,1.1-0.5,1.5
			c-0.4,0.3-0.8,0.5-1.2,0.5c-0.4,0-0.8-0.1-1.1-0.4c-0.3-0.3-0.6-0.6-1-1.2c-0.4-0.7-0.8-1.2-1.2-1.5c-0.4-0.3-1-0.5-1.7-0.5
			c-0.9,0-1.7,0.3-2.2,0.9c-0.6,0.6-0.8,1.4-0.8,2.5c0,1.2,0.3,2.2,1,3.1c0.6,0.9,1.6,2,2.8,3.1c1.3,1.3,2.3,2.4,3,3.4
			c0.6,0.9,1,2,1,3.3c0,1.4-0.4,2.7-1.1,4c-0.7,1.3-1.7,2.4-3,3.2s-2.6,1.2-4.1,1.2C61.5,45.5,60.3,45.1,59.2,44.4z"/>
		<path class="st0" d="M92.8,26c-1.2,1.2-2.9,2.3-5,3.2c-2.1,0.9-4.3,1.6-6.8,2c-0.2,1.4-0.3,2.5-0.3,3.5c0,2.6,0.5,4.8,1.6,6.4
			c1.1,1.6,2.6,2.4,4.6,2.4c2.1,0,4.1-0.7,5.8-2.1h0.1c0.1,0,0.2,0.1,0.3,0.2c0.1,0.1,0.1,0.3,0,0.4c-2.7,2.5-5.5,3.7-8.4,3.7
			c-2.4,0-4.3-0.9-5.5-2.6s-1.9-4-1.9-6.7c0-0.9,0.1-2,0.3-3.3c0.3-2.2,1.2-4.3,2.4-6.4c1.3-2.1,2.9-3.9,4.8-5.2c1.9-1.4,3.9-2,6-2
			c1.3,0,2.2,0.3,2.9,0.8c0.7,0.5,1,1.2,1,2.1C94.7,23.5,94.1,24.7,92.8,26z M83.7,23.6c-1.2,1.7-2,3.9-2.5,6.6
			c2.7-0.5,4.9-1.3,6.5-2.3c1.7-1,2.7-2.3,3-3.8c0.1-0.4,0.1-0.7,0.1-0.9c0-0.7-0.3-1.3-0.8-1.6c-0.5-0.4-1.2-0.5-1.9-0.5
			C86.4,21,84.9,21.9,83.7,23.6z"/>
		<path class="st0" d="M155.2,43c0,0.2,0,0.4-0.1,0.4c-1.1,0-2.1,0-2.7-0.1l-3.8-0.1l-3.6,0.1c-0.6,0-1.4,0.1-2.5,0.1
			c-0.1,0-0.2-0.1-0.2-0.4c0-0.2,0.1-0.4,0.2-0.4c1.6,0,2.6-0.2,3.2-0.6c0.6-0.4,0.8-1.2,0.8-2.5l-0.1-1l-1-26.1L133.6,43
			c-0.1,0.2-0.2,0.2-0.4,0.2s-0.4-0.1-0.4-0.2l-13.3-30.3L119,36.5c0,2.1,0.3,3.6,1,4.6c0.7,1,1.9,1.5,3.5,1.5
			c0.1,0,0.2,0.1,0.2,0.4c0,0.2-0.1,0.4-0.2,0.4c-1,0-1.7,0-2.2-0.1l-2.9-0.1l-2.9,0.1c-0.5,0-1.2,0.1-2.2,0.1
			c-0.1,0-0.1-0.1-0.1-0.4c0-0.2,0-0.4,0.1-0.4c3,0,4.5-2,4.5-6.1l0.5-26.6c-1.1-2-2.7-3-4.6-3c-0.1,0-0.1-0.1-0.1-0.4
			c0-0.2,0-0.4,0.1-0.4l2.1,0.1c0.4,0,1,0.1,1.7,0.1c0.8,0,1.4,0,1.9-0.1c0.5,0,0.9-0.1,1.2-0.1c0.5,0,0.8,0.2,1.1,0.5
			c0.3,0.4,0.7,1.2,1.3,2.6l11.9,26.8L146,7.7c0.4-1,0.9-1.5,1.6-1.5c0.2,0,0.5,0,0.9,0.1c0.4,0,0.8,0.1,1.4,0.1l2.7-0.1
			c0.4,0,1.1-0.1,1.9-0.1c0.1,0,0.2,0.1,0.2,0.4c0,0.2-0.1,0.4-0.2,0.4c-1.7,0-3,0.3-3.8,1c-0.8,0.6-1.1,1.7-1.1,3.3l1.2,27.3
			c0.1,1.2,0.2,2.1,0.4,2.7c0.2,0.6,0.6,0.9,1.2,1.1c0.6,0.2,1.5,0.3,2.8,0.3C155.2,42.7,155.2,42.8,155.2,43z"/>
		<path class="st0" d="M179.6,40.2c0.1,0,0.2,0.1,0.3,0.3c0.1,0.2,0,0.3-0.1,0.4l-5.5,2.9c-0.1,0.1-0.3,0.1-0.5,0.1
			c-0.5,0-0.9-0.3-1.3-1s-0.7-1.6-0.8-2.7l-3,1.8c-2,1.2-3.7,1.8-5.1,1.8c-1.1,0-2-0.3-2.6-1c-0.6-0.7-0.9-1.5-0.9-2.6
			c0-1.1,0.4-2,1.1-2.7c0.8-0.6,2.2-1.3,4.3-2.1l6.2-2.4v-4.8c0-2.5-0.3-4.3-0.8-5.4c-0.6-1.1-1.3-1.6-2.4-1.6c-1.1,0-2,0.4-2.6,1.3
			c-0.6,0.9-1,2.1-1.1,3.5c-0.1,1.7-0.9,2.6-2.4,2.6c-0.6,0-1.1-0.2-1.5-0.5c-0.4-0.4-0.5-0.9-0.5-1.5c0-1,0.6-2,1.7-3
			c1.1-1,2.5-1.9,4-2.6c1.6-0.7,3-1,4.2-1c1.5,0,2.7,0.5,3.6,1.6c0.9,1.1,1.4,2.7,1.4,4.9V37c0,1.3,0.2,2.3,0.5,2.9
			c0.3,0.6,0.9,1,1.6,1C177.9,40.8,178.7,40.6,179.6,40.2L179.6,40.2z M171.6,39.3v-0.6v-4.8l-4.7,2c-0.9,0.4-1.5,0.8-1.8,1.2
			c-0.4,0.5-0.6,1-0.6,1.7c0,0.8,0.2,1.5,0.6,2s1,0.7,1.7,0.7c0.8,0,1.6-0.2,2.4-0.7L171.6,39.3z"/>
		<path class="st0" d="M207.1,43c0,0.2,0,0.4-0.1,0.4c-0.9,0-1.6,0-2.1-0.1l-3-0.1l-3.9,0.1c-0.6,0-1.4,0.1-2.4,0.1
			c-0.1,0-0.2-0.1-0.2-0.4c0-0.2,0.1-0.4,0.2-0.4c1.6,0,2.4-0.4,2.4-1.2c0-0.4-0.2-0.8-0.5-1.2l-6.4-9.6l-2.2,2v5.9
			c0,1.7,0.2,2.8,0.6,3.3s1.3,0.8,2.6,0.8c0.1,0,0.2,0.1,0.2,0.4c0,0.2-0.1,0.4-0.2,0.4c-0.9,0-1.6,0-2.1-0.1l-2.9-0.1l-3,0.1
			c-0.5,0-1.2,0.1-2,0.1c-0.1,0-0.1-0.1-0.1-0.4c0-0.2,0-0.4,0.1-0.4c1.3,0,2.2-0.3,2.6-0.8c0.4-0.5,0.6-1.6,0.6-3.3V8
			c0-1.4-0.1-2.4-0.3-3.1c-0.2-0.6-0.7-0.9-1.3-0.9c-0.6,0-1.4,0.3-2.4,0.8h-0.1c-0.1,0-0.2-0.1-0.3-0.3c-0.1-0.2-0.1-0.3,0.1-0.4
			l7.1-3.8l0.3-0.1c0.1,0,0.3,0.1,0.4,0.2s0.2,0.3,0.2,0.4v30.7l6.5-6.2c1.1-1,1.6-1.9,1.6-2.7c0-0.5-0.2-0.9-0.7-1.2
			c-0.5-0.3-1.1-0.4-2-0.4c-0.1,0-0.1-0.1-0.1-0.4s0-0.4,0.1-0.4c1,0,1.8,0,2.4,0.1l4,0.1l3.6-0.1c0.5,0,1.2-0.1,2-0.1
			c0.1,0,0.1,0.1,0.1,0.4s0,0.4-0.1,0.4c-1.4,0-3,0.4-4.7,1.1c-1.7,0.8-3.4,1.9-5,3.4l-2.7,2.5l7,10.4c1.8,2.7,3.9,4.1,6.1,4.1
			C207.1,42.7,207.1,42.8,207.1,43z"/>
		<path class="st0" d="M227.1,39.9c0.1,0,0.2,0.1,0.3,0.2c0.1,0.1,0.1,0.3,0,0.4c-1.2,1.3-2.5,2.2-3.8,2.8c-1.3,0.6-2.7,0.9-4.2,0.9
			c-2.1,0-4-0.5-5.5-1.6c-1.6-1-2.7-2.4-3.5-4.2c-0.8-1.7-1.2-3.6-1.2-5.6c0-2.3,0.5-4.5,1.5-6.4c1-2,2.4-3.5,4.2-4.6
			c1.8-1.1,3.8-1.7,6-1.7c2,0,3.5,0.5,4.7,1.6c1.1,1.1,1.7,2.5,1.7,4.3c0,1-0.2,1.5-0.6,1.5H224l-10.5,0.1c-0.1,0.8-0.2,1.8-0.2,2.9
			c0,3.4,0.7,6.2,2.2,8.3c1.5,2.1,3.5,3.1,6.1,3.1C223.7,41.7,225.5,41.1,227.1,39.9L227.1,39.9z M215.6,22.5c-0.9,0.9-1.6,2.2-2,4
			l9.2-0.2c0-1.6-0.4-2.8-1.1-3.7c-0.7-0.9-1.6-1.4-2.8-1.4C217.7,21.1,216.6,21.6,215.6,22.5z"/>
		<path class="st0" d="M273.3,8.5c-0.8-1-2-1.6-3.6-1.6c-0.1,0-0.2-0.1-0.2-0.4c0-0.2,0.1-0.4,0.2-0.4l2.4,0.1
			c1.3,0.1,2.3,0.1,3,0.1c0.6,0,1.6,0,2.8-0.1l2.3-0.1c0.1,0,0.1,0.1,0.1,0.4c0,0.2,0,0.4-0.1,0.4c-2.9,0-4.3,2.1-4.3,6.2v16.8
			c0,4.4-1.2,7.9-3.5,10.5c-2.3,2.5-5.4,3.8-9.3,3.8c-2.6,0-5-0.6-7-1.7c-2-1.1-3.5-2.8-4.7-4.9c-1.1-2.1-1.7-4.6-1.7-7.5V11
			c0-1.2-0.1-2.1-0.3-2.6c-0.2-0.6-0.6-0.9-1.2-1.2c-0.6-0.2-1.5-0.3-2.8-0.3c-0.1,0-0.2-0.1-0.2-0.4c0-0.2,0.1-0.4,0.2-0.4l2.7,0.1
			c1.6,0.1,2.8,0.1,3.7,0.1c1,0,2.3,0,3.9-0.1l2.6-0.1c0.1,0,0.2,0.1,0.2,0.4c0,0.2-0.1,0.4-0.2,0.4c-1.2,0-2.2,0.1-2.8,0.4
			c-0.6,0.2-1,0.6-1.2,1.2c-0.2,0.6-0.3,1.5-0.3,2.6V28c0,4.7,0.9,8.2,2.8,10.6c1.8,2.4,4.4,3.6,7.7,3.6c3.1,0,5.5-1.1,7.3-3.2
			c1.8-2.2,2.6-5.2,2.6-9.1V13.1C274.5,11.1,274.1,9.6,273.3,8.5z"/>
		<path class="st0" d="M302.5,21c1.3,0.9,2.3,2.1,3,3.8c0.7,1.7,1.1,3.6,1.1,5.8c0,3.1-0.6,5.6-1.8,7.6c-1.2,2-2.7,3.5-4.5,4.5
			c-1.8,1-3.6,1.4-5.3,1.4c-1,0-2-0.1-2.8-0.3c-0.8-0.2-1.6-0.5-2.5-0.9v11.9c0,1.2,0.1,2.1,0.4,2.6c0.2,0.6,0.7,0.9,1.4,1.2
			c0.7,0.2,1.8,0.3,3.3,0.3c0.1,0,0.2,0.1,0.2,0.4s-0.1,0.4-0.2,0.4c-1.2,0-2.2,0-2.9-0.1l-4-0.1l-3,0.1c-0.5,0-1.2,0.1-2.1,0.1
			c-0.1,0-0.2-0.1-0.2-0.4s0.1-0.4,0.2-0.4c0.9,0,1.6-0.1,2.1-0.3c0.5-0.2,0.8-0.6,0.9-1.2c0.2-0.6,0.2-1.4,0.2-2.6V27.1
			c0-1.3-0.1-2.3-0.4-2.9c-0.3-0.6-0.8-0.9-1.4-0.9c-0.7,0-1.6,0.3-2.7,0.9h-0.1c-0.1,0-0.3-0.1-0.3-0.3c-0.1-0.2-0.1-0.3,0.1-0.4
			l6.5-3.4l0.3-0.1c0.4,0,0.8,0.4,1.2,1.2c0.3,0.8,0.5,1.9,0.6,3.3c2.8-3.1,5.7-4.7,8.6-4.7C299.9,19.7,301.3,20.1,302.5,21z
			 M301,40.1c1.1-1.8,1.7-4.4,1.7-7.7c0-3.2-0.6-5.8-1.9-7.5c-1.3-1.8-2.9-2.6-4.9-2.6c-1.1,0-2.2,0.3-3.1,0.8
			c-0.9,0.6-1.9,1.3-2.9,2.4v13.8c0.9,1.1,1.9,2,2.9,2.6c1,0.6,2.3,0.9,3.8,0.9C298.4,42.8,299.8,41.9,301,40.1z"/>
	</g>
</g>
</svg>
