<?xml version="1.0" encoding="utf-8"?>
<!-- Generator: Adobe Illustrator 25.4.1, SVG Export Plug-In . SVG Version: 6.00 Build 0)  -->
<svg version="1.1" id="レイヤー_1" xmlns="http://www.w3.org/2000/svg" xmlns:xlink="http://www.w3.org/1999/xlink" x="0px"
	 y="0px" viewBox="0 0 341 68" style="enable-background:new 0 0 341 68;" xml:space="preserve">
<style type="text/css">
	.st0{fill:#FFFFFF;}
</style>
<g>
	<g>
		<path class="st0" d="M3.9,9.4V1.5H0.4V0.2h8.5v1.3H5.4v7.9H3.9z"/>
		<path class="st0" d="M17.4,6.1c0,2-1.7,3.5-4,3.5c-2.3,0-4-1.5-4-3.6s1.6-3.6,4-3.6C15.7,2.4,17.4,3.9,17.4,6.1z M10.8,6
			c0,1.5,1,2.5,2.6,2.5c1.5,0,2.6-1,2.6-2.5c0-1.5-1-2.6-2.6-2.6C11.8,3.5,10.8,4.5,10.8,6z"/>
		<path class="st0" d="M20.1,2.6v1c0.7-0.8,1.6-1.2,2.6-1.2c1.1,0,1.9,0.4,2.4,1.3c0.9-0.9,1.6-1.3,2.7-1.3c1,0,1.8,0.4,2.3,0.9
			c0.3,0.5,0.4,0.9,0.4,2.1v4h-1.3V5.5c0-0.9-0.1-1.1-0.3-1.4c-0.3-0.3-0.8-0.5-1.4-0.5c-1.3,0-2.1,0.7-2.1,1.8v4h-1.3v-4
			c0-0.9-0.1-1.1-0.3-1.4c-0.3-0.3-0.8-0.5-1.3-0.5c-0.6,0-1.1,0.2-1.5,0.5c-0.4,0.3-0.6,0.8-0.6,1.4v4h-1.3V2.6H20.1z"/>
		<path class="st0" d="M39.8,6.1c0,2-1.7,3.5-4,3.5c-2.3,0-4-1.5-4-3.6s1.6-3.6,4-3.6C38.2,2.4,39.8,3.9,39.8,6.1z M33.3,6
			c0,1.5,1,2.5,2.6,2.5c1.5,0,2.6-1,2.6-2.5c0-1.5-1-2.6-2.6-2.6C34.3,3.5,33.3,4.5,33.3,6z"/>
		<path class="st0" d="M42.6,2.6v1c0.8-0.9,1.3-1.2,2.3-1.2c0.3,0,0.4,0,0.8,0.1v1.3c-0.4-0.1-0.6-0.1-0.9-0.1
			c-0.7,0-1.3,0.2-1.7,0.7c-0.4,0.4-0.5,0.7-0.5,1.3v3.7h-1.3V2.6H42.6z"/>
		<path class="st0" d="M48.1,2.6v1c0.8-0.9,1.3-1.2,2.3-1.2c0.3,0,0.4,0,0.8,0.1v1.3c-0.4-0.1-0.6-0.1-0.9-0.1
			c-0.7,0-1.3,0.2-1.7,0.7c-0.4,0.4-0.5,0.7-0.5,1.3v3.7h-1.3V2.6H48.1z"/>
		<path class="st0" d="M59.8,6.1c0,2-1.7,3.5-4,3.5c-2.3,0-4-1.5-4-3.6s1.6-3.6,4-3.6C58.2,2.4,59.8,3.9,59.8,6.1z M53.3,6
			c0,1.5,1,2.5,2.6,2.5c1.5,0,2.6-1,2.6-2.5c0-1.5-1-2.6-2.6-2.6C54.3,3.5,53.3,4.5,53.3,6z"/>
		<path class="st0" d="M67.9,9.4l-1.8-5.3l-1.8,5.3h-1.4l-2.6-6.8h1.4l1.9,5.3l1.8-5.3h1.5l1.7,5.3l1.8-5.3h1.4l-2.6,6.8H67.9z"/>
		<path class="st0" d="M74.2,7.9v1.2c0,1.2-0.6,2.1-1.6,2.3v-0.8c0.5-0.2,0.7-0.6,0.8-1.2h-0.8V7.9H74.2z"/>
		<path class="st0" d="M82.9,9.4V5.6l-4.1-5.4h1.8l3,4.2l3-4.2h1.7l-4.1,5.4v3.8H82.9z"/>
		<path class="st0" d="M96.7,6.1c0,2-1.7,3.5-4,3.5c-2.3,0-4-1.5-4-3.6s1.6-3.6,4-3.6C95.1,2.4,96.7,3.9,96.7,6.1z M90.1,6
			c0,1.5,1,2.5,2.6,2.5c1.5,0,2.6-1,2.6-2.5c0-1.5-1-2.6-2.6-2.6C91.2,3.5,90.1,4.5,90.1,6z"/>
		<path class="st0" d="M104.9,9.4h-1.3v-1c-0.9,0.9-1.5,1.1-2.7,1.1c-0.9,0-1.6-0.2-2.1-0.7c-0.5-0.4-0.6-0.9-0.6-1.9V2.6h1.3v4.2
			c0,0.7,0.1,1,0.5,1.2c0.3,0.2,0.7,0.4,1.2,0.4c1.3,0,2.4-0.9,2.4-1.9v-4h1.3V9.4z"/>
		<path class="st0" d="M117.1,9.4l-1.8-5.3l-1.8,5.3h-1.4l-2.6-6.8h1.4l1.9,5.3l1.8-5.3h1.5l1.7,5.3l1.8-5.3h1.4l-2.6,6.8H117.1z"/>
		<path class="st0" d="M122,0.2h1.3v1.4H122V0.2z M122,2.6h1.3v6.8H122V2.6z"/>
		<path class="st0" d="M126.5,9.4h-1.3V0.2h1.3V9.4z"/>
		<path class="st0" d="M129.6,9.4h-1.3V0.2h1.3V9.4z"/>
		<path class="st0" d="M136.6,0.2v3.3c0.9-0.8,1.7-1.1,2.7-1.1c2.1,0,3.6,1.5,3.6,3.6c0,2.1-1.5,3.6-3.6,3.6c-1,0-1.8-0.3-2.7-1.1
			v0.9h-1.3V0.2H136.6z M136.4,6c0,1.5,1,2.5,2.5,2.5s2.5-1,2.5-2.5c0-1.5-1-2.5-2.5-2.5C137.5,3.5,136.4,4.5,136.4,6z"/>
		<path class="st0" d="M145.2,6.4c0.1,1.3,1.1,2.1,2.6,2.1c1.1,0,1.8-0.4,2.1-1.2h1.5c-0.7,1.5-1.9,2.3-3.7,2.3
			c-2.3,0-3.8-1.4-3.8-3.6c0-2.1,1.6-3.6,3.8-3.6c1.6,0,2.9,0.8,3.5,2c0.2,0.6,0.3,1.1,0.3,1.9H145.2z M150.2,5.3
			c-0.3-1.2-1.2-1.9-2.4-1.9c-1.3,0-2.1,0.7-2.5,1.9H150.2z"/>
		<path class="st0" d="M158.2,0.2v3.3c0.9-0.8,1.7-1.1,2.7-1.1c2.1,0,3.6,1.5,3.6,3.6c0,2.1-1.5,3.6-3.6,3.6c-1,0-1.8-0.3-2.7-1.1
			v0.9h-1.3V0.2H158.2z M158.1,6c0,1.5,1,2.5,2.5,2.5s2.5-1,2.5-2.5c0-1.5-1-2.5-2.5-2.5C159.1,3.5,158.1,4.5,158.1,6z"/>
		<path class="st0" d="M166.9,6.4c0.1,1.3,1.1,2.1,2.6,2.1c1.1,0,1.8-0.4,2.1-1.2h1.5c-0.7,1.5-1.9,2.3-3.7,2.3
			c-2.3,0-3.8-1.4-3.8-3.6c0-2.1,1.6-3.6,3.8-3.6c1.6,0,2.9,0.8,3.5,2c0.2,0.6,0.3,1.1,0.3,1.9H166.9z M171.8,5.3
			c-0.3-1.2-1.2-1.9-2.4-1.9c-1.3,0-2.1,0.7-2.5,1.9H171.8z"/>
		<path class="st0" d="M176.2,2.6h1.6v1.1h-1.6v3.9c0,0.6,0.2,0.8,0.9,0.8c0.3,0,0.4,0,0.7-0.1v1.1c-0.5,0.1-0.8,0.1-1.1,0.1
			c-0.7,0-1.2-0.2-1.5-0.4c-0.3-0.3-0.3-0.6-0.3-1.4v-4H174V2.6h0.9V0.7h1.3V2.6z"/>
		<path class="st0" d="M180.3,2.6h1.6v1.1h-1.6v3.9c0,0.6,0.2,0.8,0.9,0.8c0.3,0,0.4,0,0.7-0.1v1.1c-0.5,0.1-0.8,0.1-1.1,0.1
			c-0.7,0-1.2-0.2-1.5-0.4C179,8.8,179,8.5,179,7.7v-4h-0.9V2.6h0.9V0.7h1.3V2.6z"/>
		<path class="st0" d="M183.8,6.4c0.1,1.3,1.1,2.1,2.6,2.1c1.1,0,1.8-0.4,2.1-1.2h1.5c-0.7,1.5-1.9,2.3-3.7,2.3
			c-2.3,0-3.8-1.4-3.8-3.6c0-2.1,1.6-3.6,3.8-3.6c1.6,0,2.9,0.8,3.5,2c0.2,0.6,0.3,1.1,0.3,1.9H183.8z M188.8,5.3
			c-0.3-1.2-1.2-1.9-2.4-1.9c-1.3,0-2.1,0.7-2.5,1.9H188.8z"/>
		<path class="st0" d="M192.9,2.6v1c0.8-0.9,1.3-1.2,2.3-1.2c0.3,0,0.4,0,0.8,0.1v1.3c-0.4-0.1-0.6-0.1-0.9-0.1
			c-0.7,0-1.3,0.2-1.7,0.7c-0.4,0.4-0.5,0.7-0.5,1.3v3.7h-1.3V2.6H192.9z"/>
		<path class="st0" d="M202.5,2.6h1.6v1.1h-1.6v3.9c0,0.6,0.2,0.8,0.9,0.8c0.3,0,0.4,0,0.7-0.1v1.1c-0.5,0.1-0.8,0.1-1.1,0.1
			c-0.7,0-1.2-0.2-1.5-0.4c-0.3-0.3-0.3-0.6-0.3-1.4v-4h-0.9V2.6h0.9V0.7h1.3V2.6z"/>
		<path class="st0" d="M205,0.2h1.3v3.4c0.9-0.9,1.5-1.1,2.7-1.1c0.9,0,1.6,0.2,2.1,0.7c0.5,0.4,0.6,0.9,0.6,1.9v4.3h-1.3V5.2
			c0-0.7-0.1-1-0.5-1.2c-0.3-0.2-0.7-0.4-1.2-0.4c-1.3,0-2.4,0.9-2.4,1.9v4H205V0.2z"/>
		<path class="st0" d="M213.5,4.8c0.1-0.7,0.2-1,0.5-1.4c0.6-0.7,1.5-1.1,3-1.1c1.1,0,1.9,0.2,2.5,0.6c0.5,0.3,0.7,0.8,0.7,1.6v3
			c0,0.7,0.2,0.9,0.6,0.9c0.1,0,0.2,0,0.3,0v0.9c-0.2,0.1-0.4,0.1-0.7,0.1c-0.8,0-1.2-0.3-1.5-1c-0.8,0.8-1.7,1.1-2.9,1.1
			c-1.6,0-2.7-0.8-2.7-2c0-0.7,0.4-1.4,1-1.7c0.5-0.2,0.8-0.3,2.2-0.4c1.2-0.1,1.4-0.2,1.8-0.3c0.4-0.1,0.5-0.3,0.5-0.7
			c0-0.7-0.6-1.1-1.8-1.1c-1.5,0-2,0.4-2.1,1.4H213.5z M218.8,6c-0.7,0.2-1.5,0.4-2.6,0.5c-1.2,0.1-1.6,0.4-1.6,1c0,0.7,0.6,1,1.6,1
			c0.9,0,1.6-0.2,2.1-0.7c0.4-0.4,0.5-0.6,0.5-1.3V6z"/>
		<path class="st0" d="M221.9,2.6h1.3v1c0.9-0.9,1.5-1.1,2.7-1.1c0.9,0,1.6,0.2,2.1,0.7c0.5,0.4,0.6,0.9,0.6,1.9v4.3h-1.3V5.2
			c0-0.7-0.1-1-0.5-1.2c-0.3-0.2-0.7-0.4-1.2-0.4c-1.3,0-2.4,0.9-2.4,1.9v4h-1.3V2.6z"/>
		<path class="st0" d="M241.1,2.6l-3.3,7.3c-0.6,1.4-1.2,1.8-2.5,1.8c-0.3,0-0.5,0-1-0.1v-1.1c0.5,0.1,0.7,0.1,0.9,0.1
			c0.7,0,1.1-0.3,1.3-1.1l-3.2-6.9h1.6l2.3,5.5l2.3-5.5H241.1z"/>
		<path class="st0" d="M249.6,6.1c0,2-1.7,3.5-4,3.5c-2.3,0-4-1.5-4-3.6s1.6-3.6,4-3.6C248,2.4,249.6,3.9,249.6,6.1z M243,6
			c0,1.5,1,2.5,2.6,2.5c1.5,0,2.6-1,2.6-2.5c0-1.5-1-2.6-2.6-2.6C244.1,3.5,243,4.5,243,6z"/>
		<path class="st0" d="M257.8,9.4h-1.3v-1c-0.9,0.9-1.5,1.1-2.7,1.1c-0.9,0-1.6-0.2-2.1-0.7c-0.5-0.4-0.6-0.9-0.6-1.9V2.6h1.3v4.2
			c0,0.7,0.1,1,0.5,1.2c0.3,0.2,0.7,0.4,1.2,0.4c1.3,0,2.4-0.9,2.4-1.9v-4h1.3V9.4z"/>
		<path class="st0" d="M263.4,4.8c0.1-0.7,0.2-1,0.5-1.4c0.6-0.7,1.5-1.1,3-1.1c1.1,0,1.9,0.2,2.5,0.6c0.5,0.3,0.7,0.8,0.7,1.6v3
			c0,0.7,0.2,0.9,0.6,0.9c0.1,0,0.2,0,0.3,0v0.9c-0.2,0.1-0.4,0.1-0.7,0.1c-0.8,0-1.2-0.3-1.5-1c-0.8,0.8-1.7,1.1-2.9,1.1
			c-1.6,0-2.7-0.8-2.7-2c0-0.7,0.4-1.4,1-1.7c0.5-0.2,0.8-0.3,2.2-0.4c1.2-0.1,1.4-0.2,1.8-0.3c0.4-0.1,0.5-0.3,0.5-0.7
			c0-0.7-0.6-1.1-1.8-1.1c-1.5,0-2,0.4-2.1,1.4H263.4z M268.7,6c-0.7,0.2-1.5,0.4-2.6,0.5c-1.2,0.1-1.6,0.4-1.6,1c0,0.7,0.6,1,1.6,1
			c0.9,0,1.6-0.2,2.1-0.7c0.4-0.4,0.5-0.6,0.5-1.3V6z"/>
		<path class="st0" d="M273.1,2.6v1c0.8-0.9,1.3-1.2,2.3-1.2c0.3,0,0.4,0,0.8,0.1v1.3c-0.4-0.1-0.6-0.1-0.9-0.1
			c-0.7,0-1.3,0.2-1.7,0.7c-0.4,0.4-0.5,0.7-0.5,1.3v3.7h-1.3V2.6H273.1z"/>
		<path class="st0" d="M278.2,6.4c0.1,1.3,1.1,2.1,2.6,2.1c1.1,0,1.8-0.4,2.1-1.2h1.5c-0.7,1.5-1.9,2.3-3.7,2.3
			c-2.3,0-3.8-1.4-3.8-3.6c0-2.1,1.6-3.6,3.8-3.6c1.6,0,2.9,0.8,3.5,2c0.2,0.6,0.3,1.1,0.3,1.9H278.2z M283.1,5.3
			c-0.3-1.2-1.2-1.9-2.4-1.9c-1.3,0-2.1,0.7-2.5,1.9H283.1z"/>
		<path class="st0" d="M287.5,7.9v1.5h-1.6V7.9H287.5z"/>
		<path class="st0" d="M1.4,28.1v-9.2h1.4v7.9h5.8v1.3H1.4z"/>
		<path class="st0" d="M10.7,25.1c0.1,1.3,1.1,2.1,2.6,2.1c1.1,0,1.8-0.4,2.1-1.2h1.5c-0.7,1.5-1.9,2.3-3.7,2.3
			c-2.3,0-3.8-1.4-3.8-3.6c0-2.1,1.6-3.6,3.8-3.6c1.6,0,2.9,0.8,3.5,2c0.2,0.6,0.3,1.1,0.3,1.9H10.7z M15.6,24
			c-0.3-1.2-1.2-1.9-2.4-1.9c-1.3,0-2.1,0.7-2.5,1.9H15.6z"/>
		<path class="st0" d="M20,21.3h1.6v1.1H20v3.9c0,0.6,0.2,0.8,0.9,0.8c0.3,0,0.4,0,0.7-0.1v1.1c-0.5,0.1-0.8,0.1-1.1,0.1
			c-0.7,0-1.2-0.2-1.5-0.4c-0.3-0.3-0.3-0.6-0.3-1.4v-4h-0.9v-1.1h0.9v-1.9H20V21.3z"/>
		<path class="st0" d="M33.2,21.3l-3.3,7.3c-0.6,1.4-1.2,1.8-2.5,1.8c-0.3,0-0.5,0-1-0.1v-1.1c0.5,0.1,0.7,0.1,0.9,0.1
			c0.7,0,1.1-0.3,1.3-1.1l-3.2-6.9h1.6l2.3,5.5l2.3-5.5H33.2z"/>
		<path class="st0" d="M41.7,24.7c0,2-1.7,3.5-4,3.5c-2.3,0-4-1.5-4-3.6s1.6-3.6,4-3.6C40.1,21.1,41.7,22.6,41.7,24.7z M35.2,24.7
			c0,1.5,1,2.5,2.6,2.5c1.5,0,2.6-1,2.6-2.5c0-1.5-1-2.6-2.6-2.6C36.2,22.1,35.2,23.1,35.2,24.7z"/>
		<path class="st0" d="M49.9,28.1h-1.3v-1c-0.9,0.9-1.5,1.1-2.7,1.1c-0.9,0-1.6-0.2-2.1-0.7c-0.5-0.4-0.6-0.9-0.6-1.9v-4.3h1.3v4.2
			c0,0.7,0.1,1,0.5,1.2c0.3,0.2,0.7,0.4,1.2,0.4c1.3,0,2.4-0.9,2.4-1.9v-4h1.3V28.1z"/>
		<path class="st0" d="M53,21.3v1c0.8-0.9,1.3-1.2,2.3-1.2c0.3,0,0.4,0,0.8,0.1v1.3c-0.4-0.1-0.6-0.1-0.9-0.1
			c-0.7,0-1.3,0.2-1.7,0.7c-0.4,0.4-0.5,0.7-0.5,1.3v3.7h-1.3v-6.8H53z"/>
		<path class="st0" d="M66,23.4c-0.1-0.9-0.7-1.2-1.9-1.2c-1.1,0-1.8,0.4-1.8,0.9c0,0.3,0.2,0.5,0.5,0.6c0.3,0.1,0.5,0.2,1.7,0.3
			c1.9,0.3,2.1,0.3,2.5,0.6c0.4,0.3,0.7,0.8,0.7,1.4c0,1.4-1.2,2.2-3.4,2.2s-3.3-0.7-3.6-2.4H62c0.1,0.9,0.9,1.3,2.2,1.3
			c1.3,0,2-0.4,2-1c0-0.3-0.2-0.5-0.4-0.6s-0.3-0.1-1.7-0.3C62.8,25,62.4,25,62,24.8c-0.7-0.3-1.1-0.9-1.1-1.6
			c0-1.3,1.2-2.1,3.2-2.1s3.1,0.7,3.2,2.3H66z"/>
		<path class="st0" d="M69.8,25.1c0.1,1.3,1.1,2.1,2.6,2.1c1.1,0,1.8-0.4,2.1-1.2H76c-0.7,1.5-1.9,2.3-3.7,2.3
			c-2.3,0-3.8-1.4-3.8-3.6c0-2.1,1.6-3.6,3.8-3.6c1.6,0,2.9,0.8,3.5,2c0.2,0.6,0.3,1.1,0.3,1.9H69.8z M74.7,24
			c-0.3-1.2-1.2-1.9-2.4-1.9c-1.3,0-2.1,0.7-2.5,1.9H74.7z"/>
		<path class="st0" d="M77.6,21.3h1.3v1c0.9-0.9,1.5-1.1,2.7-1.1c0.9,0,1.6,0.2,2.1,0.7c0.5,0.4,0.6,0.9,0.6,1.9v4.3H83v-4.2
			c0-0.7-0.1-1-0.5-1.2c-0.3-0.2-0.7-0.4-1.2-0.4c-1.3,0-2.4,0.9-2.4,1.9v4h-1.3V21.3z"/>
		<path class="st0" d="M91,23.4c-0.1-0.9-0.7-1.2-1.9-1.2c-1.1,0-1.8,0.4-1.8,0.9c0,0.3,0.2,0.5,0.5,0.6c0.3,0.1,0.5,0.2,1.7,0.3
			c1.9,0.3,2.1,0.3,2.5,0.6c0.4,0.3,0.7,0.8,0.7,1.4c0,1.4-1.2,2.2-3.4,2.2s-3.3-0.7-3.6-2.4H87c0.1,0.9,0.9,1.3,2.2,1.3
			c1.3,0,2-0.4,2-1c0-0.3-0.2-0.5-0.4-0.6s-0.3-0.1-1.7-0.3C87.8,25,87.5,25,87,24.8c-0.7-0.3-1.1-0.9-1.1-1.6
			c0-1.3,1.2-2.1,3.2-2.1s3.1,0.7,3.2,2.3H91z"/>
		<path class="st0" d="M93.9,18.9h1.3v1.4h-1.3V18.9z M93.9,21.3h1.3v6.8h-1.3V21.3z"/>
		<path class="st0" d="M98.6,21.3h1.6v1.1h-1.6v3.9c0,0.6,0.2,0.8,0.9,0.8c0.3,0,0.4,0,0.7-0.1v1.1c-0.5,0.1-0.8,0.1-1.1,0.1
			c-0.7,0-1.2-0.2-1.5-0.4c-0.3-0.3-0.3-0.6-0.3-1.4v-4h-0.9v-1.1h0.9v-1.9h1.3V21.3z"/>
		<path class="st0" d="M101.1,18.9h1.3v1.4h-1.3V18.9z M101.1,21.3h1.3v6.8h-1.3V21.3z"/>
		<path class="st0" d="M107.8,28.1h-1.4l-3.1-6.8h1.6l2.2,5.3l2.3-5.3h1.5L107.8,28.1z"/>
		<path class="st0" d="M111.9,18.9h1.3v1.4h-1.3V18.9z M111.9,21.3h1.3v6.8h-1.3V21.3z"/>
		<path class="st0" d="M116.6,21.3h1.6v1.1h-1.6v3.9c0,0.6,0.2,0.8,0.9,0.8c0.3,0,0.4,0,0.7-0.1v1.1c-0.5,0.1-0.8,0.1-1.1,0.1
			c-0.7,0-1.2-0.2-1.5-0.4c-0.3-0.3-0.3-0.6-0.3-1.4v-4h-0.9v-1.1h0.9v-1.9h1.3V21.3z"/>
		<path class="st0" d="M125.9,21.3l-3.3,7.3c-0.6,1.4-1.2,1.8-2.5,1.8c-0.3,0-0.5,0-1-0.1v-1.1c0.5,0.1,0.7,0.1,0.9,0.1
			c0.7,0,1.1-0.3,1.3-1.1l-3.2-6.9h1.6l2.3,5.5l2.3-5.5H125.9z"/>
		<path class="st0" d="M137.3,28.1l-1.8-5.3l-1.8,5.3h-1.4l-2.6-6.8h1.4l1.9,5.3l1.8-5.3h1.5l1.7,5.3l1.8-5.3h1.4l-2.6,6.8H137.3z"
			/>
		<path class="st0" d="M142.2,18.9h1.3v3.4c0.9-0.9,1.5-1.1,2.7-1.1c0.9,0,1.6,0.2,2.1,0.7c0.5,0.4,0.6,0.9,0.6,1.9v4.3h-1.3v-4.2
			c0-0.7-0.1-1-0.5-1.2c-0.3-0.2-0.7-0.4-1.2-0.4c-1.3,0-2.4,0.9-2.4,1.9v4h-1.3V18.9z"/>
		<path class="st0" d="M151.6,25.1c0.1,1.3,1.1,2.1,2.6,2.1c1.1,0,1.8-0.4,2.1-1.2h1.5c-0.7,1.5-1.9,2.3-3.7,2.3
			c-2.3,0-3.8-1.4-3.8-3.6c0-2.1,1.6-3.6,3.8-3.6c1.6,0,2.9,0.8,3.5,2c0.2,0.6,0.3,1.1,0.3,1.9H151.6z M156.6,24
			c-0.3-1.2-1.2-1.9-2.4-1.9c-1.3,0-2.1,0.7-2.5,1.9H156.6z"/>
		<path class="st0" d="M160.7,21.3v1c0.8-0.9,1.3-1.2,2.3-1.2c0.3,0,0.4,0,0.8,0.1v1.3c-0.4-0.1-0.6-0.1-0.9-0.1
			c-0.7,0-1.3,0.2-1.7,0.7c-0.4,0.4-0.5,0.7-0.5,1.3v3.7h-1.3v-6.8H160.7z"/>
		<path class="st0" d="M165.8,25.1c0.1,1.3,1.1,2.1,2.6,2.1c1.1,0,1.8-0.4,2.1-1.2h1.5c-0.7,1.5-1.9,2.3-3.7,2.3
			c-2.3,0-3.8-1.4-3.8-3.6c0-2.1,1.6-3.6,3.8-3.6c1.6,0,2.9,0.8,3.5,2c0.2,0.6,0.3,1.1,0.3,1.9H165.8z M170.8,24
			c-0.3-1.2-1.2-1.9-2.4-1.9c-1.3,0-2.1,0.7-2.5,1.9H170.8z"/>
		<path class="st0" d="M177.2,28.1h-1.4l-3.1-6.8h1.6l2.2,5.3l2.3-5.3h1.5L177.2,28.1z"/>
		<path class="st0" d="M182.2,25.1c0.1,1.3,1.1,2.1,2.6,2.1c1.1,0,1.8-0.4,2.1-1.2h1.5c-0.7,1.5-1.9,2.3-3.7,2.3
			c-2.3,0-3.8-1.4-3.8-3.6c0-2.1,1.6-3.6,3.8-3.6c1.6,0,2.9,0.8,3.5,2c0.2,0.6,0.3,1.1,0.3,1.9H182.2z M187.1,24
			c-0.3-1.2-1.2-1.9-2.4-1.9c-1.3,0-2.1,0.7-2.5,1.9H187.1z"/>
		<path class="st0" d="M191.3,21.3v1c0.8-0.9,1.3-1.2,2.3-1.2c0.3,0,0.4,0,0.8,0.1v1.3c-0.4-0.1-0.6-0.1-0.9-0.1
			c-0.7,0-1.3,0.2-1.7,0.7c-0.4,0.4-0.5,0.7-0.5,1.3v3.7h-1.3v-6.8H191.3z"/>
		<path class="st0" d="M206.1,21.3l-3.3,7.3c-0.6,1.4-1.2,1.8-2.5,1.8c-0.3,0-0.5,0-1-0.1v-1.1c0.5,0.1,0.7,0.1,0.9,0.1
			c0.7,0,1.1-0.3,1.3-1.1l-3.2-6.9h1.6l2.3,5.5l2.3-5.5H206.1z"/>
		<path class="st0" d="M214.6,24.7c0,2-1.7,3.5-4,3.5c-2.3,0-4-1.5-4-3.6s1.6-3.6,4-3.6C213,21.1,214.6,22.6,214.6,24.7z M208,24.7
			c0,1.5,1,2.5,2.6,2.5c1.5,0,2.6-1,2.6-2.5c0-1.5-1-2.6-2.6-2.6C209.1,22.1,208,23.1,208,24.7z"/>
		<path class="st0" d="M222.8,28.1h-1.3v-1c-0.9,0.9-1.5,1.1-2.7,1.1c-0.9,0-1.6-0.2-2.1-0.7c-0.5-0.4-0.6-0.9-0.6-1.9v-4.3h1.3v4.2
			c0,0.7,0.1,1,0.5,1.2c0.3,0.2,0.7,0.4,1.2,0.4c1.3,0,2.4-0.9,2.4-1.9v-4h1.3V28.1z"/>
		<path class="st0" d="M225.9,21.3v1c0.8-0.9,1.3-1.2,2.3-1.2c0.3,0,0.4,0,0.8,0.1v1.3c-0.4-0.1-0.6-0.1-0.9-0.1
			c-0.7,0-1.3,0.2-1.7,0.7c-0.4,0.4-0.5,0.7-0.5,1.3v3.7h-1.3v-6.8H225.9z"/>
		<path class="st0" d="M233.9,18.9h1.3v3.4c0.9-0.9,1.5-1.1,2.7-1.1c0.9,0,1.6,0.2,2.1,0.7c0.5,0.4,0.6,0.9,0.6,1.9v4.3h-1.3v-4.2
			c0-0.7-0.1-1-0.5-1.2c-0.3-0.2-0.7-0.4-1.2-0.4c-1.3,0-2.4,0.9-2.4,1.9v4h-1.3V18.9z"/>
		<path class="st0" d="M243.4,25.1c0.1,1.3,1.1,2.1,2.6,2.1c1.1,0,1.8-0.4,2.1-1.2h1.5c-0.7,1.5-1.9,2.3-3.7,2.3
			c-2.3,0-3.8-1.4-3.8-3.6c0-2.1,1.6-3.6,3.8-3.6c1.6,0,2.9,0.8,3.5,2c0.2,0.6,0.3,1.1,0.3,1.9H243.4z M248.3,24
			c-0.3-1.2-1.2-1.9-2.4-1.9c-1.3,0-2.1,0.7-2.5,1.9H248.3z"/>
		<path class="st0" d="M251.1,23.5c0.1-0.7,0.2-1,0.5-1.4c0.6-0.7,1.5-1.1,3-1.1c1.1,0,1.9,0.2,2.5,0.6c0.5,0.3,0.7,0.8,0.7,1.6v3
			c0,0.7,0.2,0.9,0.6,0.9c0.1,0,0.2,0,0.3,0v0.9c-0.2,0.1-0.4,0.1-0.7,0.1c-0.8,0-1.2-0.3-1.5-1c-0.8,0.8-1.7,1.1-2.9,1.1
			c-1.6,0-2.7-0.8-2.7-2c0-0.7,0.4-1.4,1-1.7c0.5-0.2,0.8-0.3,2.2-0.4c1.2-0.1,1.4-0.2,1.8-0.3c0.4-0.1,0.5-0.3,0.5-0.7
			c0-0.7-0.6-1.1-1.8-1.1c-1.5,0-2,0.4-2.1,1.4H251.1z M256.4,24.7c-0.7,0.2-1.5,0.4-2.6,0.5c-1.2,0.1-1.6,0.4-1.6,1
			c0,0.7,0.6,1.1,1.6,1.1c0.9,0,1.6-0.2,2.1-0.7c0.4-0.4,0.5-0.6,0.5-1.3V24.7z"/>
		<path class="st0" d="M260.8,21.3v1c0.8-0.9,1.3-1.2,2.3-1.2c0.3,0,0.4,0,0.8,0.1v1.3c-0.4-0.1-0.6-0.1-0.9-0.1
			c-0.7,0-1.3,0.2-1.7,0.7c-0.4,0.4-0.5,0.7-0.5,1.3v3.7h-1.3v-6.8H260.8z"/>
		<path class="st0" d="M266.5,21.3h1.6v1.1h-1.6v3.9c0,0.6,0.2,0.8,0.9,0.8c0.3,0,0.4,0,0.7-0.1v1.1c-0.5,0.1-0.8,0.1-1.1,0.1
			c-0.7,0-1.2-0.2-1.5-0.4c-0.3-0.3-0.3-0.6-0.3-1.4v-4h-0.9v-1.1h0.9v-1.9h1.3V21.3z"/>
		<path class="st0" d="M274.5,21.3h1.6v1.1h-1.6v3.9c0,0.6,0.2,0.8,0.9,0.8c0.3,0,0.4,0,0.7-0.1v1.1c-0.5,0.1-0.8,0.1-1.1,0.1
			c-0.7,0-1.2-0.2-1.5-0.4c-0.3-0.3-0.3-0.6-0.3-1.4v-4h-0.9v-1.1h0.9v-1.9h1.3V21.3z"/>
		<path class="st0" d="M277,23.5c0.1-0.7,0.2-1,0.5-1.4c0.6-0.7,1.5-1.1,3-1.1c1.1,0,1.9,0.2,2.5,0.6c0.5,0.3,0.7,0.8,0.7,1.6v3
			c0,0.7,0.2,0.9,0.6,0.9c0.1,0,0.2,0,0.3,0v0.9c-0.2,0.1-0.4,0.1-0.7,0.1c-0.8,0-1.2-0.3-1.5-1c-0.8,0.8-1.7,1.1-2.9,1.1
			c-1.6,0-2.7-0.8-2.7-2c0-0.7,0.4-1.4,1-1.7c0.5-0.2,0.8-0.3,2.2-0.4c1.2-0.1,1.4-0.2,1.8-0.3c0.4-0.1,0.5-0.3,0.5-0.7
			c0-0.7-0.6-1.1-1.8-1.1c-1.5,0-2,0.4-2.1,1.4H277z M282.3,24.7c-0.7,0.2-1.5,0.4-2.6,0.5c-1.2,0.1-1.6,0.4-1.6,1
			c0,0.7,0.6,1.1,1.6,1.1c0.9,0,1.6-0.2,2.1-0.7c0.4-0.4,0.5-0.6,0.5-1.3V24.7z"/>
		<path class="st0" d="M286.7,18.9v5.3l3.5-2.8h2l-3.2,2.6l3.6,4.2h-1.8l-2.9-3.4l-1.2,0.9v2.5h-1.3v-9.2H286.7z"/>
		<path class="st0" d="M294.4,25.1c0.1,1.3,1.1,2.1,2.6,2.1c1.1,0,1.8-0.4,2.1-1.2h1.5c-0.7,1.5-1.9,2.3-3.7,2.3
			c-2.3,0-3.8-1.4-3.8-3.6c0-2.1,1.6-3.6,3.8-3.6c1.6,0,2.9,0.8,3.5,2c0.2,0.6,0.3,1.1,0.3,1.9H294.4z M299.3,24
			c-0.3-1.2-1.2-1.9-2.4-1.9c-1.3,0-2.1,0.7-2.5,1.9H299.3z"/>
		<path class="st0" d="M307,23.4c-0.1-0.9-0.7-1.2-1.9-1.2c-1.1,0-1.8,0.4-1.8,0.9c0,0.3,0.2,0.5,0.5,0.6c0.3,0.1,0.5,0.2,1.7,0.3
			c1.9,0.3,2.1,0.3,2.5,0.6c0.4,0.3,0.7,0.8,0.7,1.4c0,1.4-1.2,2.2-3.4,2.2s-3.3-0.7-3.6-2.4h1.4c0.1,0.9,0.9,1.3,2.2,1.3
			c1.3,0,2-0.4,2-1c0-0.3-0.2-0.5-0.4-0.6s-0.3-0.1-1.7-0.3c-1.3-0.2-1.7-0.3-2.1-0.5c-0.7-0.3-1.1-0.9-1.1-1.6
			c0-1.3,1.2-2.1,3.2-2.1s3.1,0.7,3.2,2.3H307z"/>
		<path class="st0" d="M320.6,21.3l-3.3,7.3c-0.6,1.4-1.2,1.8-2.5,1.8c-0.3,0-0.5,0-1-0.1v-1.1c0.5,0.1,0.7,0.1,0.9,0.1
			c0.7,0,1.1-0.3,1.3-1.1l-3.2-6.9h1.6l2.3,5.5l2.3-5.5H320.6z"/>
		<path class="st0" d="M329.1,24.7c0,2-1.7,3.5-4,3.5c-2.3,0-4-1.5-4-3.6s1.6-3.6,4-3.6C327.5,21.1,329.1,22.6,329.1,24.7z
			 M322.5,24.7c0,1.5,1,2.5,2.6,2.5c1.5,0,2.6-1,2.6-2.5c0-1.5-1-2.6-2.6-2.6C323.6,22.1,322.5,23.1,322.5,24.7z"/>
		<path class="st0" d="M337.3,28.1h-1.3v-1c-0.9,0.9-1.5,1.1-2.7,1.1c-0.9,0-1.6-0.2-2.1-0.7c-0.5-0.4-0.6-0.9-0.6-1.9v-4.3h1.3v4.2
			c0,0.7,0.1,1,0.5,1.2c0.3,0.2,0.7,0.4,1.2,0.4c1.3,0,2.4-0.9,2.4-1.9v-4h1.3V28.1z"/>
		<path class="st0" d="M340.6,26.6v1.5H339v-1.5H340.6z"/>
		<path class="st0" d="M1.4,46.8v-9.2h7.2v1.3H2.9v2.6h5v1.3h-5v4.1H1.4z"/>
		<path class="st0" d="M9.6,37.5H11V39H9.6V37.5z M9.6,39.9H11v6.8H9.6V39.9z"/>
		<path class="st0" d="M12.7,39.9h1.3v1c0.9-0.9,1.5-1.1,2.7-1.1c0.9,0,1.6,0.2,2.1,0.7c0.5,0.4,0.6,0.9,0.6,1.9v4.3h-1.3v-4.2
			c0-0.7-0.1-1-0.5-1.2c-0.3-0.2-0.7-0.4-1.2-0.4c-1.3,0-2.4,0.9-2.4,1.9v4h-1.3V39.9z"/>
		<path class="st0" d="M28.6,46.8h-1.3v-0.9c-0.9,0.8-1.7,1.1-2.7,1.1c-2.1,0-3.6-1.5-3.6-3.6s1.5-3.6,3.6-3.6c1,0,1.8,0.3,2.7,1.1
			v-3.3h1.3V46.8z M22.3,43.3c0,1.5,1,2.5,2.5,2.5c1.5,0,2.5-1,2.5-2.4c0-1.5-1-2.5-2.5-2.5C23.3,40.9,22.3,41.9,22.3,43.3z"/>
		<path class="st0" d="M34.2,37.5h1.3v3.4c0.9-0.9,1.5-1.1,2.7-1.1c0.9,0,1.6,0.2,2.1,0.7c0.5,0.4,0.6,0.9,0.6,1.9v4.3h-1.3v-4.2
			c0-0.7-0.1-1-0.5-1.2c-0.3-0.2-0.7-0.4-1.2-0.4c-1.3,0-2.4,0.9-2.4,1.9v4h-1.3V37.5z"/>
		<path class="st0" d="M42.7,37.5h1.3V39h-1.3V37.5z M42.7,39.9h1.3v6.8h-1.3V39.9z"/>
		<path class="st0" d="M53.1,46.8h-1.3v-0.9c-0.9,0.8-1.7,1.1-2.7,1.1c-2.1,0-3.6-1.5-3.6-3.6s1.5-3.6,3.6-3.6c1,0,1.8,0.3,2.7,1.1
			v-3.3h1.3V46.8z M46.9,43.3c0,1.5,1,2.5,2.5,2.5c1.5,0,2.5-1,2.5-2.4c0-1.5-1-2.5-2.5-2.5C47.9,40.9,46.9,41.9,46.9,43.3z"/>
		<path class="st0" d="M62.2,46.8h-1.3v-0.9c-0.9,0.8-1.7,1.1-2.7,1.1c-2.1,0-3.6-1.5-3.6-3.6s1.5-3.6,3.6-3.6c1,0,1.8,0.3,2.7,1.1
			v-3.3h1.3V46.8z M55.9,43.3c0,1.5,1,2.5,2.5,2.5c1.5,0,2.5-1,2.5-2.4c0-1.5-1-2.5-2.5-2.5C56.9,40.9,55.9,41.9,55.9,43.3z"/>
		<path class="st0" d="M64.9,43.7c0.1,1.3,1.1,2.1,2.6,2.1c1.1,0,1.8-0.4,2.1-1.2h1.5c-0.7,1.5-1.9,2.3-3.7,2.3
			c-2.3,0-3.8-1.4-3.8-3.6c0-2.1,1.6-3.6,3.8-3.6c1.6,0,2.9,0.8,3.5,2c0.2,0.6,0.3,1.1,0.3,1.9H64.9z M69.9,42.7
			c-0.3-1.2-1.2-1.9-2.4-1.9c-1.3,0-2.1,0.7-2.5,1.9H69.9z"/>
		<path class="st0" d="M72.7,39.9H74v1c0.9-0.9,1.5-1.1,2.7-1.1c0.9,0,1.6,0.2,2.1,0.7c0.5,0.4,0.6,0.9,0.6,1.9v4.3h-1.3v-4.2
			c0-0.7-0.1-1-0.5-1.2c-0.3-0.2-0.7-0.4-1.2-0.4c-1.3,0-2.4,0.9-2.4,1.9v4h-1.3V39.9z"/>
		<path class="st0" d="M91.9,39.9l-3.3,7.3c-0.6,1.4-1.2,1.8-2.5,1.8c-0.3,0-0.5,0-1-0.1v-1.1c0.5,0.1,0.7,0.1,0.9,0.1
			c0.7,0,1.1-0.3,1.3-1.1l-3.2-6.9h1.6l2.3,5.5l2.3-5.5H91.9z"/>
		<path class="st0" d="M100.4,43.4c0,2-1.7,3.5-4,3.5c-2.3,0-4-1.5-4-3.6s1.6-3.6,4-3.6C98.8,39.8,100.4,41.2,100.4,43.4z
			 M93.8,43.3c0,1.5,1,2.5,2.6,2.5c1.5,0,2.6-1,2.6-2.5c0-1.5-1-2.6-2.6-2.6C94.9,40.8,93.8,41.8,93.8,43.3z"/>
		<path class="st0" d="M108.6,46.8h-1.3v-1c-0.9,0.9-1.5,1.1-2.7,1.1c-0.9,0-1.6-0.2-2.1-0.7c-0.5-0.4-0.6-0.9-0.6-1.9v-4.3h1.3v4.2
			c0,0.7,0.1,1,0.5,1.2c0.3,0.2,0.7,0.4,1.2,0.4c1.3,0,2.4-0.9,2.4-1.9v-4h1.3V46.8z"/>
		<path class="st0" d="M111.7,39.9v1c0.8-0.9,1.3-1.2,2.3-1.2c0.3,0,0.4,0,0.8,0.1v1.3c-0.4-0.1-0.6-0.1-0.9-0.1
			c-0.7,0-1.3,0.2-1.7,0.7c-0.4,0.4-0.5,0.7-0.5,1.3v3.7h-1.3v-6.8H111.7z"/>
		<path class="st0" d="M127.3,43.4c0,2-1.7,3.5-4,3.5c-2.3,0-4-1.5-4-3.6s1.6-3.6,4-3.6C125.7,39.8,127.3,41.2,127.3,43.4z
			 M120.7,43.3c0,1.5,1,2.5,2.6,2.5c1.5,0,2.6-1,2.6-2.5c0-1.5-1-2.6-2.6-2.6C121.8,40.8,120.7,41.8,120.7,43.3z"/>
		<path class="st0" d="M135.3,46.8l-1.8-5.3l-1.8,5.3h-1.4l-2.6-6.8h1.4l1.9,5.3l1.8-5.3h1.5l1.7,5.3l1.8-5.3h1.4l-2.6,6.8H135.3z"
			/>
		<path class="st0" d="M140.2,39.9h1.3v1c0.9-0.9,1.5-1.1,2.7-1.1c0.9,0,1.6,0.2,2.1,0.7c0.5,0.4,0.6,0.9,0.6,1.9v4.3h-1.3v-4.2
			c0-0.7-0.1-1-0.5-1.2c-0.3-0.2-0.7-0.4-1.2-0.4c-1.3,0-2.4,0.9-2.4,1.9v4h-1.3V39.9z"/>
		<path class="st0" d="M153.9,37.5v3.3c0.9-0.8,1.7-1.1,2.7-1.1c2.1,0,3.6,1.5,3.6,3.6s-1.5,3.6-3.6,3.6c-1,0-1.8-0.3-2.7-1.1v0.9
			h-1.3v-9.2H153.9z M153.8,43.3c0,1.5,1,2.5,2.5,2.5s2.5-1,2.5-2.5s-1-2.5-2.5-2.5C154.9,40.9,153.8,41.9,153.8,43.3z"/>
		<path class="st0" d="M162.6,43.7c0.1,1.3,1.1,2.1,2.6,2.1c1.1,0,1.8-0.4,2.1-1.2h1.5c-0.7,1.5-1.9,2.3-3.7,2.3
			c-2.3,0-3.8-1.4-3.8-3.6c0-2.1,1.6-3.6,3.8-3.6c1.6,0,2.9,0.8,3.5,2c0.2,0.6,0.3,1.1,0.3,1.9H162.6z M167.6,42.7
			c-0.3-1.2-1.2-1.9-2.4-1.9c-1.3,0-2.1,0.7-2.5,1.9H167.6z"/>
		<path class="st0" d="M170.3,42.2c0.1-0.7,0.2-1,0.5-1.4c0.6-0.7,1.5-1.1,3-1.1c1.1,0,1.9,0.2,2.5,0.6c0.5,0.3,0.7,0.8,0.7,1.6v3
			c0,0.7,0.2,0.9,0.6,0.9c0.1,0,0.2,0,0.3,0v0.9c-0.2,0.1-0.4,0.1-0.7,0.1c-0.8,0-1.2-0.3-1.5-1c-0.8,0.8-1.7,1.1-2.9,1.1
			c-1.6,0-2.7-0.8-2.7-2c0-0.7,0.4-1.4,1-1.7c0.5-0.2,0.8-0.3,2.2-0.4c1.2-0.1,1.4-0.2,1.8-0.3c0.4-0.1,0.5-0.3,0.5-0.7
			c0-0.7-0.6-1.1-1.8-1.1c-1.5,0-2,0.4-2.1,1.4H170.3z M175.6,43.3c-0.7,0.2-1.5,0.4-2.6,0.5c-1.2,0.1-1.6,0.4-1.6,1
			c0,0.7,0.6,1.1,1.6,1.1c0.9,0,1.6-0.2,2.1-0.7c0.4-0.4,0.5-0.6,0.5-1.3V43.3z"/>
		<path class="st0" d="M185.4,46.8h-1.3v-1c-0.9,0.9-1.5,1.1-2.7,1.1c-0.9,0-1.6-0.2-2.1-0.7c-0.5-0.4-0.6-0.9-0.6-1.9v-4.3h1.3v4.2
			c0,0.7,0.1,1,0.5,1.2c0.3,0.2,0.7,0.4,1.2,0.4c1.3,0,2.4-0.9,2.4-1.9v-4h1.3V46.8z"/>
		<path class="st0" d="M188.8,39.9h1.6V41h-1.6V45c0,0.6,0.2,0.8,0.9,0.8c0.3,0,0.4,0,0.7-0.1v1.1c-0.5,0.1-0.8,0.1-1.1,0.1
			c-0.7,0-1.2-0.2-1.5-0.4c-0.3-0.3-0.3-0.6-0.3-1.4v-4h-0.9v-1.1h0.9V38h1.3V39.9z"/>
		<path class="st0" d="M198.2,39.9l-3.3,7.3c-0.6,1.4-1.2,1.8-2.5,1.8c-0.3,0-0.5,0-1-0.1v-1.1c0.5,0.1,0.7,0.1,0.9,0.1
			c0.7,0,1.1-0.3,1.3-1.1l-3.2-6.9h1.6l2.3,5.5l2.3-5.5H198.2z"/>
		<path class="st0" d="M209.5,46.8l-1.8-5.3l-1.8,5.3h-1.4l-2.6-6.8h1.4l1.9,5.3l1.8-5.3h1.5l1.7,5.3l1.8-5.3h1.4l-2.6,6.8H209.5z"
			/>
		<path class="st0" d="M214.4,37.5h1.3V39h-1.3V37.5z M214.4,39.9h1.3v6.8h-1.3V39.9z"/>
		<path class="st0" d="M219.1,39.9h1.6V41h-1.6V45c0,0.6,0.2,0.8,0.9,0.8c0.3,0,0.4,0,0.7-0.1v1.1c-0.5,0.1-0.8,0.1-1.1,0.1
			c-0.7,0-1.2-0.2-1.5-0.4c-0.3-0.3-0.3-0.6-0.3-1.4v-4h-0.9v-1.1h0.9V38h1.3V39.9z"/>
		<path class="st0" d="M221.6,37.5h1.3v3.4c0.9-0.9,1.5-1.1,2.7-1.1c0.9,0,1.6,0.2,2.1,0.7c0.5,0.4,0.6,0.9,0.6,1.9v4.3H227v-4.2
			c0-0.7-0.1-1-0.5-1.2c-0.3-0.2-0.7-0.4-1.2-0.4c-1.3,0-2.4,0.9-2.4,1.9v4h-1.3V37.5z"/>
		<path class="st0" d="M230.1,37.5h1.3V39h-1.3V37.5z M230.1,39.9h1.3v6.8h-1.3V39.9z"/>
		<path class="st0" d="M233.3,39.9h1.3v1c0.9-0.9,1.5-1.1,2.7-1.1c0.9,0,1.6,0.2,2.1,0.7c0.5,0.4,0.6,0.9,0.6,1.9v4.3h-1.3v-4.2
			c0-0.7-0.1-1-0.5-1.2c-0.3-0.2-0.7-0.4-1.2-0.4c-1.3,0-2.4,0.9-2.4,1.9v4h-1.3V39.9z"/>
		<path class="st0" d="M252.5,39.9l-3.3,7.3c-0.6,1.4-1.2,1.8-2.5,1.8c-0.3,0-0.5,0-1-0.1v-1.1c0.5,0.1,0.7,0.1,0.9,0.1
			c0.7,0,1.1-0.3,1.3-1.1l-3.2-6.9h1.6l2.3,5.5l2.3-5.5H252.5z"/>
		<path class="st0" d="M261,43.4c0,2-1.7,3.5-4,3.5c-2.3,0-4-1.5-4-3.6s1.6-3.6,4-3.6C259.4,39.8,261,41.2,261,43.4z M254.4,43.3
			c0,1.5,1,2.5,2.6,2.5c1.5,0,2.6-1,2.6-2.5c0-1.5-1-2.6-2.6-2.6C255.4,40.8,254.4,41.8,254.4,43.3z"/>
		<path class="st0" d="M269.2,46.8h-1.3v-1c-0.9,0.9-1.5,1.1-2.7,1.1c-0.9,0-1.6-0.2-2.1-0.7c-0.5-0.4-0.6-0.9-0.6-1.9v-4.3h1.3v4.2
			c0,0.7,0.1,1,0.5,1.2c0.3,0.2,0.7,0.4,1.2,0.4c1.3,0,2.4-0.9,2.4-1.9v-4h1.3V46.8z"/>
		<path class="st0" d="M272.3,39.9v1c0.8-0.9,1.3-1.2,2.3-1.2c0.3,0,0.4,0,0.8,0.1v1.3c-0.4-0.1-0.6-0.1-0.9-0.1
			c-0.7,0-1.3,0.2-1.7,0.7c-0.4,0.4-0.5,0.7-0.5,1.3v3.7h-1.3v-6.8H272.3z"/>
		<path class="st0" d="M281.3,42.1c-0.1-0.9-0.7-1.2-1.9-1.2c-1.1,0-1.8,0.4-1.8,0.9c0,0.3,0.2,0.5,0.5,0.6c0.3,0.1,0.5,0.2,1.7,0.3
			c1.9,0.3,2.1,0.3,2.5,0.6c0.4,0.3,0.7,0.8,0.7,1.4c0,1.4-1.2,2.2-3.4,2.2s-3.3-0.7-3.6-2.4h1.4c0.1,0.9,0.9,1.3,2.2,1.3
			c1.3,0,2-0.4,2-1c0-0.3-0.2-0.5-0.4-0.6s-0.3-0.1-1.7-0.3c-1.3-0.2-1.7-0.3-2.1-0.5c-0.7-0.3-1.1-0.9-1.1-1.6
			c0-1.3,1.2-2.1,3.2-2.1s3.1,0.7,3.2,2.3H281.3z"/>
		<path class="st0" d="M285.2,43.7c0.1,1.3,1.1,2.1,2.6,2.1c1.1,0,1.8-0.4,2.1-1.2h1.5c-0.7,1.5-1.9,2.3-3.7,2.3
			c-2.3,0-3.8-1.4-3.8-3.6c0-2.1,1.6-3.6,3.8-3.6c1.6,0,2.9,0.8,3.5,2c0.2,0.6,0.3,1.1,0.3,1.9H285.2z M290.1,42.7
			c-0.3-1.2-1.2-1.9-2.4-1.9c-1.3,0-2.1,0.7-2.5,1.9H290.1z"/>
		<path class="st0" d="M294.3,46.8h-1.3v-9.2h1.3V46.8z"/>
		<path class="st0" d="M299.3,41h-1.6v5.7h-1.3V41h-1.1v-1.1h1.1v-0.8c0-1.3,0.5-1.7,2-1.7c0.3,0,0.6,0,0.9,0.1v1.2
			c-0.3,0-0.5,0-0.8,0c-0.7,0-0.8,0.1-0.8,0.6v0.7h1.6V41z"/>
		<path class="st0" d="M301.7,45.2v1.5h-1.6v-1.5H301.7z"/>
		<path class="st0" d="M11.5,65.4v-7.6l-3.7,7.6H6.5l-3.6-7.6v7.6H1.4v-9.2h2L7.2,64l3.7-7.8h2v9.2H11.5z"/>
		<path class="st0" d="M15.7,62.4c0.1,1.3,1.1,2.1,2.6,2.1c1.1,0,1.8-0.4,2.1-1.2h1.5c-0.7,1.5-1.9,2.3-3.7,2.3
			c-2.3,0-3.8-1.4-3.8-3.6c0-2.1,1.6-3.6,3.8-3.6c1.6,0,2.9,0.8,3.5,2c0.2,0.6,0.3,1.1,0.3,1.9H15.7z M20.7,61.4
			c-0.3-1.2-1.2-1.9-2.4-1.9c-1.3,0-2.1,0.7-2.5,1.9H20.7z"/>
		<path class="st0" d="M24.5,62.4c0.1,1.3,1.1,2.1,2.6,2.1c1.1,0,1.8-0.4,2.1-1.2h1.5c-0.7,1.5-1.9,2.3-3.7,2.3
			c-2.3,0-3.8-1.4-3.8-3.6c0-2.1,1.6-3.6,3.8-3.6c1.6,0,2.9,0.8,3.5,2c0.2,0.6,0.3,1.1,0.3,1.9H24.5z M29.4,61.4
			c-0.3-1.2-1.2-1.9-2.4-1.9c-1.3,0-2.1,0.7-2.5,1.9H29.4z"/>
		<path class="st0" d="M33.8,58.6h1.6v1.1h-1.6v3.9c0,0.6,0.2,0.8,0.9,0.8c0.3,0,0.4,0,0.7-0.1v1.1c-0.5,0.1-0.8,0.1-1.1,0.1
			c-0.7,0-1.2-0.2-1.5-0.4c-0.3-0.3-0.3-0.6-0.3-1.4v-4h-0.9v-1.1h0.9v-1.9h1.3V58.6z"/>
		<path class="st0" d="M40.1,60.9c0.1-0.7,0.2-1,0.5-1.4c0.6-0.7,1.5-1.1,3-1.1c1.1,0,1.9,0.2,2.5,0.6c0.5,0.3,0.7,0.8,0.7,1.6v3
			c0,0.7,0.2,0.9,0.6,0.9c0.1,0,0.2,0,0.3,0v0.9c-0.2,0.1-0.4,0.1-0.7,0.1c-0.8,0-1.2-0.3-1.5-1c-0.8,0.8-1.7,1.1-2.9,1.1
			c-1.6,0-2.7-0.8-2.7-2c0-0.7,0.4-1.4,1-1.7c0.5-0.2,0.8-0.3,2.2-0.4c1.2-0.1,1.4-0.2,1.8-0.3c0.4-0.1,0.5-0.3,0.5-0.7
			c0-0.7-0.6-1.1-1.8-1.1c-1.5,0-2,0.4-2.1,1.4H40.1z M45.5,62c-0.7,0.2-1.5,0.4-2.6,0.5c-1.2,0.1-1.6,0.4-1.6,1
			c0,0.7,0.6,1.1,1.6,1.1c0.9,0,1.6-0.2,2.1-0.7c0.4-0.4,0.5-0.6,0.5-1.3V62z"/>
		<path class="st0" d="M52.4,58.6h1.3v1c0.9-0.9,1.5-1.1,2.7-1.1c0.9,0,1.6,0.2,2.1,0.7c0.5,0.4,0.6,0.9,0.6,1.9v4.3h-1.3v-4.2
			c0-0.7-0.1-1-0.5-1.2c-0.3-0.2-0.7-0.4-1.2-0.4c-1.3,0-2.4,0.9-2.4,1.9v4h-1.3V58.6z"/>
		<path class="st0" d="M61.9,62.4c0.1,1.3,1.1,2.1,2.6,2.1c1.1,0,1.8-0.4,2.1-1.2h1.5c-0.7,1.5-1.9,2.3-3.7,2.3
			c-2.3,0-3.8-1.4-3.8-3.6c0-2.1,1.6-3.6,3.8-3.6c1.6,0,2.9,0.8,3.5,2c0.2,0.6,0.3,1.1,0.3,1.9H61.9z M66.8,61.4
			c-0.3-1.2-1.2-1.9-2.4-1.9c-1.3,0-2.1,0.7-2.5,1.9H66.8z"/>
		<path class="st0" d="M76.3,65.4l-1.8-5.3l-1.8,5.3h-1.4l-2.6-6.8h1.4l1.9,5.3l1.8-5.3h1.5l1.7,5.3l1.8-5.3h1.4l-2.6,6.8H76.3z"/>
		<path class="st0" d="M91.8,58.6l-3.3,7.3c-0.6,1.4-1.2,1.8-2.5,1.8c-0.3,0-0.5,0-1-0.1v-1.1c0.5,0.1,0.7,0.1,0.9,0.1
			c0.7,0,1.1-0.3,1.3-1.1l-3.2-6.9h1.6l2.3,5.5l2.3-5.5H91.8z"/>
		<path class="st0" d="M100.3,62.1c0,2-1.7,3.5-4,3.5c-2.3,0-4-1.5-4-3.6s1.6-3.6,4-3.6C98.7,58.4,100.3,59.9,100.3,62.1z M93.7,62
			c0,1.5,1,2.5,2.6,2.5c1.5,0,2.6-1,2.6-2.5c0-1.5-1-2.6-2.6-2.6C94.8,59.5,93.7,60.5,93.7,62z"/>
		<path class="st0" d="M108.5,65.4h-1.3v-1c-0.9,0.9-1.5,1.1-2.7,1.1c-0.9,0-1.6-0.2-2.1-0.7c-0.5-0.4-0.6-0.9-0.6-1.9v-4.3h1.3v4.2
			c0,0.7,0.1,1,0.5,1.2c0.3,0.2,0.7,0.4,1.2,0.4c1.3,0,2.4-0.9,2.4-1.9v-4h1.3V65.4z"/>
		<path class="st0" d="M120.7,65.4l-1.8-5.3l-1.8,5.3h-1.4l-2.6-6.8h1.4l1.9,5.3l1.8-5.3h1.5l1.7,5.3l1.8-5.3h1.4l-2.6,6.8H120.7z"
			/>
		<path class="st0" d="M125.6,56.2h1.3v1.4h-1.3V56.2z M125.6,58.6h1.3v6.8h-1.3V58.6z"/>
		<path class="st0" d="M130.3,58.6h1.6v1.1h-1.6v3.9c0,0.6,0.2,0.8,0.9,0.8c0.3,0,0.4,0,0.7-0.1v1.1c-0.5,0.1-0.8,0.1-1.1,0.1
			c-0.7,0-1.2-0.2-1.5-0.4c-0.3-0.3-0.3-0.6-0.3-1.4v-4H128v-1.1h0.9v-1.9h1.3V58.6z"/>
		<path class="st0" d="M132.8,56.2h1.3v3.4c0.9-0.9,1.5-1.1,2.7-1.1c0.9,0,1.6,0.2,2.1,0.7c0.5,0.4,0.6,0.9,0.6,1.9v4.3h-1.3v-4.2
			c0-0.7-0.1-1-0.5-1.2c-0.3-0.2-0.7-0.4-1.2-0.4c-1.3,0-2.4,0.9-2.4,1.9v4h-1.3V56.2z"/>
		<path class="st0" d="M145.2,58.6h1.3v0.9c0.9-0.8,1.7-1.1,2.7-1.1c2.1,0,3.6,1.5,3.6,3.6c0,2.1-1.5,3.6-3.6,3.6
			c-1,0-1.8-0.3-2.7-1.1v3.3h-1.3V58.6z M146.4,62c0,1.5,1,2.5,2.5,2.5s2.5-1,2.5-2.5c0-1.5-1-2.4-2.5-2.4
			C147.5,59.6,146.4,60.6,146.4,62z"/>
		<path class="st0" d="M155.2,62.4c0.1,1.3,1.1,2.1,2.6,2.1c1.1,0,1.8-0.4,2.1-1.2h1.5c-0.7,1.5-1.9,2.3-3.7,2.3
			c-2.3,0-3.8-1.4-3.8-3.6c0-2.1,1.6-3.6,3.8-3.6c1.6,0,2.9,0.8,3.5,2c0.2,0.6,0.3,1.1,0.3,1.9H155.2z M160.2,61.4
			c-0.3-1.2-1.2-1.9-2.4-1.9c-1.3,0-2.1,0.7-2.5,1.9H160.2z"/>
		<path class="st0" d="M164.3,58.6v1c0.8-0.9,1.3-1.2,2.3-1.2c0.3,0,0.4,0,0.8,0.1v1.3c-0.4-0.1-0.6-0.1-0.9-0.1
			c-0.7,0-1.3,0.2-1.7,0.7c-0.4,0.4-0.5,0.7-0.5,1.3v3.7H163v-6.8H164.3z"/>
		<path class="st0" d="M173.4,60.7c-0.1-0.9-0.7-1.2-1.9-1.2c-1.1,0-1.8,0.4-1.8,0.9c0,0.3,0.2,0.5,0.5,0.6c0.3,0.1,0.5,0.2,1.7,0.3
			c1.9,0.3,2.1,0.3,2.5,0.6c0.4,0.3,0.7,0.8,0.7,1.4c0,1.4-1.2,2.2-3.4,2.2s-3.3-0.7-3.6-2.4h1.4c0.1,0.9,0.9,1.3,2.2,1.3
			c1.3,0,2-0.4,2-1c0-0.3-0.2-0.5-0.4-0.6c-0.3-0.1-0.3-0.1-1.7-0.3c-1.3-0.2-1.7-0.3-2.1-0.5c-0.7-0.3-1.1-0.9-1.1-1.6
			c0-1.3,1.2-2.1,3.2-2.1s3.1,0.7,3.2,2.3H173.4z"/>
		<path class="st0" d="M177.2,62.4c0.1,1.3,1.1,2.1,2.6,2.1c1.1,0,1.8-0.4,2.1-1.2h1.5c-0.7,1.5-1.9,2.3-3.7,2.3
			c-2.3,0-3.8-1.4-3.8-3.6c0-2.1,1.6-3.6,3.8-3.6c1.6,0,2.9,0.8,3.5,2c0.2,0.6,0.3,1.1,0.3,1.9H177.2z M182.2,61.4
			c-0.3-1.2-1.2-1.9-2.4-1.9c-1.3,0-2.1,0.7-2.5,1.9H182.2z"/>
		<path class="st0" d="M186.5,63.9v1.5h-1.6v-1.5H186.5z"/>
	</g>
</g>
</svg>
