<?xml version="1.0" encoding="utf-8"?>
<!-- Generator: Adobe Illustrator 25.4.1, SVG Export Plug-In . SVG Version: 6.00 Build 0)  -->
<svg version="1.1" id="レイヤー_1" xmlns="http://www.w3.org/2000/svg" xmlns:xlink="http://www.w3.org/1999/xlink" x="0px"
	 y="0px" viewBox="0 0 435 85" style="enable-background:new 0 0 435 85;" xml:space="preserve">
<style type="text/css">
	.st0{fill:#FFFFFF;}
</style>
<g>
	<g>
		<g>
			<path class="st0" d="M152.1,63.3V20.8c0-1.2,0-2.2-0.1-3c-0.1-0.8-0.3-1.4-0.5-2c-0.2-0.5-0.6-0.9-1.1-1.3
				c-0.5-0.3-1.1-0.6-1.9-0.8h33.1l1.5,15c-0.6-2.8-1.4-5.1-2.5-6.9c-1.1-1.8-2.3-3.1-3.7-4.1c-1.4-1-2.9-1.6-4.6-2
				c-1.6-0.4-3.4-0.5-5.2-0.5h-9.4v25.5h6.1c2.5,0,4.6-0.2,6.1-0.5c1.6-0.3,2.9-0.8,3.8-1.5c1-0.7,1.7-1.4,2.1-2.4
				c0.4-0.9,0.8-2,1-3.2l-1,16.6c0-1.2-0.2-2.3-0.6-3.2c-0.3-1-0.9-1.8-1.8-2.4c-0.9-0.7-2.1-1.2-3.6-1.5c-1.6-0.4-3.7-0.5-6.3-0.5
				h-6v21.2c0,2.4,0.3,4.1,1,5.1c0.6,1,1.7,1.8,3.3,2.2h-14.1c1.6-0.5,2.7-1.2,3.3-2.2C151.8,67.4,152.1,65.7,152.1,63.3z"/>
			<path class="st0" d="M187.7,70.6c0.8-0.3,1.4-0.6,1.9-0.9c0.5-0.3,0.9-0.7,1.2-1.3c0.3-0.5,0.5-1.2,0.6-2
				c0.1-0.8,0.1-1.8,0.1-2.9V33.3c0-1.1,0-2.1-0.1-3c-0.1-0.8-0.2-1.6-0.3-2.2c-0.1-0.7-0.4-1.3-0.6-1.8c-0.3-0.5-0.6-1.1-1-1.6
				l7.4-0.7v11c0.6-1.5,1.3-2.9,2-4.3c0.7-1.3,1.6-2.5,2.6-3.4c1-1,2.1-1.7,3.4-2.3c1.3-0.5,2.8-0.8,4.5-0.8c1.6,0,3,0.2,4.2,0.6
				l-0.1,7.9c-0.4-0.6-1-1.2-1.6-1.9c-0.6-0.7-1.3-1.3-2-1.8c-0.7-0.5-1.4-1-2.1-1.3c-0.7-0.4-1.5-0.5-2.3-0.5c-1,0-1.9,0.3-2.7,0.8
				c-0.8,0.5-1.6,1.3-2.3,2.2c-0.7,0.9-1.4,2-2,3.2c-0.6,1.2-1.1,2.5-1.5,3.9v26.5c0,1.1,0.1,2.1,0.2,2.9c0.1,0.8,0.3,1.5,0.6,2
				c0.3,0.5,0.7,1,1.2,1.3c0.5,0.3,1.1,0.6,1.8,0.9H187.7z"/>
			<path class="st0" d="M216.8,70.6c0.8-0.3,1.4-0.6,1.9-0.9c0.5-0.3,0.9-0.7,1.2-1.3c0.3-0.5,0.5-1.2,0.6-2
				c0.1-0.8,0.1-1.8,0.1-2.9V33.3c0-1.1,0-2.1-0.1-3c-0.1-0.8-0.2-1.6-0.3-2.2c-0.1-0.7-0.4-1.3-0.6-1.8c-0.3-0.5-0.6-1.1-1-1.6
				l7.5-0.7v39.6c0,1.1,0.1,2.1,0.2,2.9c0.1,0.8,0.3,1.5,0.6,2c0.3,0.5,0.7,1,1.2,1.3c0.5,0.3,1.1,0.6,1.8,0.9H216.8z M223.1,9.8
				c1.1,0,2.1,0.4,2.8,1.1s1.1,1.7,1.1,3c0,1.3-0.4,2.3-1.1,3c-0.7,0.8-1.7,1.1-2.8,1.1c-1.1,0-2-0.4-2.7-1.1
				c-0.7-0.8-1.1-1.8-1.1-3c0-1.3,0.4-2.2,1.1-3S222,9.8,223.1,9.8z"/>
			<path class="st0" d="M253.9,24c2.9,0,5.5,0.5,7.7,1.4c2.2,0.9,4,2.2,5.4,3.9c1.4,1.7,2.5,3.7,3.2,6c0.7,2.3,1.1,4.8,1.1,7.5h-31
				c-0.1,0.8-0.2,1.7-0.2,2.5c0,0.8-0.1,1.7-0.1,2.6c0,3.1,0.4,6,1.1,8.7c0.8,2.7,1.8,5,3.2,7c1.3,2,3,3.5,4.8,4.6
				c1.9,1.1,3.9,1.7,6.1,1.7c2,0,3.7-0.4,5.3-1.2c1.6-0.8,3.1-1.9,4.4-3.4s2.5-3.2,3.6-5.3c1.1-2,2-4.3,2.8-6.8l-0.7,11.9
				c-2.2,2-4.6,3.5-7.4,4.5c-2.8,1-5.4,1.4-8,1.4c-3.1,0-5.9-0.6-8.5-1.7c-2.6-1.1-4.8-2.7-6.7-4.7c-1.9-2-3.4-4.5-4.4-7.4
				c-1-2.9-1.5-6.1-1.5-9.6c0-3.4,0.5-6.6,1.4-9.5c0.9-2.9,2.2-5.4,3.9-7.5c1.7-2.1,3.8-3.8,6.2-4.9S250.8,24,253.9,24z M240.5,41.8
				h25.1c0-2.4-0.3-4.6-0.9-6.6c-0.5-2-1.3-3.8-2.3-5.3c-1-1.5-2.2-2.7-3.6-3.6c-1.4-0.8-3.1-1.3-5-1.3c-1.8,0-3.4,0.4-4.9,1.2
				c-1.5,0.8-2.8,2-3.9,3.5c-1.2,1.5-2.1,3.3-2.9,5.3C241.4,37.1,240.8,39.4,240.5,41.8z"/>
			<path class="st0" d="M276.4,70.6c0.8-0.3,1.4-0.6,1.9-0.9c0.5-0.3,0.9-0.7,1.2-1.3c0.3-0.5,0.5-1.2,0.6-2
				c0.1-0.8,0.1-1.8,0.1-2.9V33.3c0-1.1,0-2.1-0.1-3c-0.1-0.8-0.2-1.6-0.3-2.2c-0.1-0.7-0.4-1.3-0.6-1.8c-0.3-0.5-0.6-1.1-1-1.6
				l7.5-0.7v13c1.2-4,3.2-7.1,5.9-9.4c2.7-2.3,6.1-3.5,10.3-3.5c2.4,0,4.4,0.4,6.3,1.1c1.8,0.7,3.4,1.8,4.6,3.1
				c1.3,1.4,2.2,3,2.9,4.9c0.7,1.9,1,3.9,1,6.2v24.2c0,1.1,0.1,2.1,0.2,2.9c0.1,0.8,0.3,1.5,0.6,2c0.3,0.5,0.7,1,1.2,1.3
				c0.5,0.3,1.1,0.6,1.8,0.9h-13.1c0.8-0.3,1.4-0.6,1.9-0.9c0.5-0.3,0.9-0.7,1.2-1.3c0.3-0.5,0.5-1.2,0.6-2c0.1-0.8,0.1-1.8,0.1-2.9
				v-25c0-4.1-0.9-7.3-2.7-9.6c-1.8-2.3-4.3-3.5-7.7-3.5c-1.9,0-3.8,0.4-5.5,1.2c-1.8,0.8-3.3,2-4.7,3.5c-1.4,1.5-2.5,3.4-3.4,5.6
				c-0.9,2.2-1.4,4.8-1.5,7.7v20.1c0,1.1,0.1,2.1,0.2,2.9c0.1,0.8,0.3,1.5,0.6,2c0.3,0.5,0.7,1,1.2,1.3c0.5,0.3,1.1,0.6,1.8,0.9
				H276.4z"/>
			<path class="st0" d="M344.3,24c2.3,0,4.5,0.4,6.5,1.2c2,0.8,3.8,2,5.4,3.6V15.5c0-1.7-0.1-2.9-0.4-3.7c-0.2-0.8-0.7-1.5-1.5-2.1
				l7.3-1v53.9c0,2.3,0.2,4.1,0.5,5.2c0.3,1.1,0.9,2.1,1.5,2.8l-7.2,0.2v-6.3c-1.5,2.3-3.4,3.9-5.5,5c-2.2,1-4.3,1.5-6.6,1.5
				c-3.1,0-5.9-0.6-8.4-1.7c-2.5-1.1-4.7-2.7-6.4-4.7c-1.8-2-3.1-4.3-4.1-7.1c-1-2.7-1.5-5.7-1.5-8.8c0-3.7,0.5-7,1.5-10
				c1-3,2.4-5.6,4.2-7.8c1.8-2.2,4-3.9,6.4-5.1C338.7,24.6,341.4,24,344.3,24z M329.7,45.4c0,3.3,0.4,6.5,1.1,9.4
				c0.7,2.9,1.8,5.5,3.2,7.7c1.4,2.2,3.1,4,5.1,5.2c2,1.3,4.3,1.9,6.8,1.9c2.1,0,4-0.6,5.8-1.8c1.8-1.2,3.3-2.8,4.6-4.9V35.3
				c-1.3-3.4-3-5.9-5.1-7.5c-2.1-1.6-4.6-2.4-7.3-2.4c-2.2,0-4.2,0.5-5.9,1.4c-1.7,1-3.2,2.3-4.4,4c-1.2,1.7-2.1,3.8-2.8,6.3
				C330,39.6,329.7,42.4,329.7,45.4z"/>
			<path class="st0" d="M368.4,70.6c0.8-0.3,1.4-0.6,1.9-0.9c0.5-0.3,0.9-0.7,1.2-1.3c0.3-0.5,0.5-1.2,0.6-2
				c0.1-0.8,0.1-1.8,0.1-2.9V33.3c0-1.1,0-2.1-0.1-3c-0.1-0.8-0.2-1.6-0.3-2.2c-0.1-0.7-0.4-1.3-0.6-1.8c-0.3-0.5-0.6-1.1-1-1.6
				l7.4-0.7v11c0.6-1.5,1.3-2.9,2-4.3c0.7-1.3,1.6-2.5,2.6-3.4c1-1,2.1-1.7,3.4-2.3c1.3-0.5,2.8-0.8,4.5-0.8c1.6,0,3,0.2,4.2,0.6
				l-0.1,7.9c-0.4-0.6-1-1.2-1.6-1.9c-0.6-0.7-1.3-1.3-2-1.8c-0.7-0.5-1.4-1-2.1-1.3c-0.7-0.4-1.5-0.5-2.3-0.5c-1,0-1.9,0.3-2.7,0.8
				c-0.8,0.5-1.6,1.3-2.3,2.2c-0.7,0.9-1.4,2-2,3.2c-0.6,1.2-1.1,2.5-1.5,3.9v26.5c0,1.1,0.1,2.1,0.2,2.9c0.1,0.8,0.3,1.5,0.6,2
				c0.3,0.5,0.7,1,1.2,1.3c0.5,0.3,1.1,0.6,1.8,0.9H368.4z"/>
			<path class="st0" d="M405.4,24.4c-0.4,0.4-0.7,1-0.9,1.7c-0.2,0.8,0,2.1,0.7,4l12.2,33.5l11.8-33.3c0.4-1,0.6-1.9,0.5-2.6
				c0-0.7-0.2-1.2-0.4-1.7c-0.2-0.4-0.5-0.8-0.8-1c-0.3-0.2-0.5-0.5-0.7-0.6h6.8c-0.4,0.3-1.1,0.9-1.8,1.7c-0.8,0.8-1.5,2.2-2.2,4
				l-15.5,43.3c-0.3,0.9-0.8,2-1.4,3.2c-0.6,1.2-1.3,2.4-2.2,3.5c-0.9,1.1-1.9,2.2-3.2,3c-1.2,0.9-2.7,1.4-4.3,1.7l-2.6-8.1
				c1.9,1.1,3.7,1.6,5.4,1.6c1.7,0,3.3-0.6,4.7-1.8c1.4-1.2,2.6-3.1,3.4-5.6l-15.5-41.6c-0.6-1.7-1.2-2.9-1.8-3.6
				c-0.5-0.7-1-1.2-1.4-1.4H405.4z"/>
		</g>
	</g>
	<g>
		<g>
			<path class="st0" d="M6.9,67.2c-1.9-0.5-3.9-1.3-6-2.4c-0.5-0.3-0.7-0.9-0.6-1.7l1.3-12.1c0-0.3,0.2-0.5,0.5-0.5
				c0.3,0,0.5,0.2,0.5,0.5C2.8,55.3,3.9,59,5.9,62c2.1,3,5.1,4.5,9.2,4.5c3,0,5.7-0.9,8-2.6c2.3-1.7,3.8-4.5,4.4-8.1
				c0.2-1,0.3-2,0.3-2.8c0-3-0.9-5.5-2.6-7.5c-1.7-2-4.3-4.1-7.6-6.4c-2.3-1.7-4.1-3-5.4-4.2c-1.3-1.1-2.4-2.5-3.4-4.1
				c-0.9-1.6-1.4-3.4-1.4-5.5c0-0.9,0.1-1.7,0.3-2.7c0.6-3.1,1.9-5.7,3.7-7.8c1.9-2.1,4.1-3.8,6.8-4.8c2.6-1.1,5.4-1.6,8.2-1.6
				c3.2,0,6.6,0.7,9.9,2.2c0.8,0.4,1.2,1,1.1,1.6l-1.2,10.2c0,0.2-0.2,0.4-0.5,0.4c-0.3,0-0.5-0.1-0.6-0.4c-0.2-3.6-1.1-6.6-2.7-9
				c-1.5-2.4-4-3.6-7.5-3.6c-2.6,0-4.8,0.7-6.6,2c-1.7,1.3-3,3-3.9,4.9c-0.8,2-1.2,3.9-1.2,5.8s0.5,3.6,1.4,5.1
				c0.9,1.5,2,2.8,3.3,3.8c1.3,1,3.1,2.4,5.3,4c3.5,2.3,6.2,4.5,8,6.6c1.8,2.1,2.8,4.7,2.8,7.8c0,1.1-0.1,2-0.2,2.6
				c-0.8,4.5-3,8.2-6.7,11.2c-3.7,3-8.4,4.5-14.2,4.5C10.8,67.9,8.8,67.7,6.9,67.2z"/>
			<path class="st0" d="M72.2,59.8c0.2,0,0.4,0.1,0.6,0.3c0.1,0.2,0.1,0.4,0,0.5c-4.1,4.7-7.4,7-9.7,7c-1.4,0-2.6-0.4-3.6-1.3
				s-2.2-2.5-3.6-4.9l-5.3-9.3c-0.6-0.9-1-1.6-1.5-1.9c-0.4-0.4-1-0.6-1.7-0.6l-0.8,0.1l-2.9,16.4c-0.1,0.4-0.4,0.8-1,1
				c-0.5,0.2-1.2,0.4-2.1,0.4c-1.4,0-2.1-0.2-2.1-0.6l0.4-2.1c0.4-1.5,0.7-3.1,1-4.9l9.4-50.1c0.1-1,0.2-1.6,0.2-1.9
				c0-1.6-0.7-2.4-2-2.4c-1,0-2.5,0.5-4.4,1.4h-0.2c-0.2,0-0.4-0.1-0.5-0.4c-0.1-0.3,0-0.5,0.2-0.6l11.9-5.8h0.2
				c0.2,0,0.5,0.1,0.7,0.3c0.2,0.2,0.3,0.3,0.2,0.5l-6.9,37.6c2.3-2.6,4.9-4.6,7.7-6.1c2.8-1.5,5.6-2.3,8.5-2.3
				c1.8,0,3.1,0.4,3.9,1.3c0.8,0.9,1.2,1.9,1.2,3.1c0,0.6,0,0.9-0.1,1.1c-0.4,2.2-2,4.4-4.8,6.5c-2.8,2.1-6.5,4-11.1,5.6l6.2,10.7
				c1.2,2.1,2.3,3.5,3.2,4.2c0.9,0.7,1.8,1.1,2.8,1.1c1.6,0,3.6-1.3,6.1-3.8C72,59.8,72.1,59.8,72.2,59.8z M52.2,36.9
				c-2.5,2.7-4.3,6.3-5.3,10.8l-0.1,0.7c5.5-1.3,9.5-2.8,12-4.4s4-3.9,4.5-6.8c0.1-0.6,0.2-1,0.2-1.3c0-1-0.2-1.7-0.7-2.3
				c-0.5-0.6-1.2-0.8-2-0.8C57.5,32.9,54.7,34.2,52.2,36.9z"/>
			<path class="st0" d="M77,66.6c-0.6-0.6-0.8-1.7-0.8-3.2c0-0.9,0.2-2.5,0.6-4.9l3.8-19.1c0.2-0.9,0.3-1.7,0.3-2.5
				c0-2-0.6-2.9-1.8-2.9c-0.7,0-1.7,0.4-2.8,1.1c-1.1,0.7-2.3,1.8-3.5,3.1c-0.1,0.1-0.2,0.1-0.3,0.1c-0.2,0-0.4-0.1-0.5-0.3
				c-0.2-0.2-0.1-0.4,0-0.5c2.1-2.5,4.1-4.2,5.8-5.4c1.7-1.1,3.3-1.7,4.9-1.7c1.1,0,1.9,0.3,2.4,1c0.5,0.6,0.8,1.7,0.8,3.2
				c0,1.2-0.2,2.7-0.6,4.7l-3.8,19.3c-0.2,1-0.3,1.8-0.3,2.5c0,1.9,0.6,2.8,1.7,2.8c1.5,0,3.6-1.3,6.3-4c0.1-0.1,0.2-0.2,0.4-0.2
				c0.2,0,0.3,0.1,0.5,0.3c0.1,0.2,0.1,0.4-0.1,0.6c-2.1,2.4-4,4.2-5.6,5.3c-1.7,1.1-3.3,1.7-4.9,1.7C78.4,67.6,77.6,67.3,77,66.6z
				 M82.4,18.6c-0.7-0.7-1.1-1.7-1.1-2.9c0-1.2,0.4-2.1,1.1-2.8c0.7-0.7,1.7-1,2.9-1c1.2,0,2.2,0.3,2.8,1c0.7,0.7,1,1.6,1,2.8
				c0,1.2-0.3,2.2-1,2.9c-0.7,0.7-1.6,1.1-2.8,1.1C84.1,19.6,83.1,19.3,82.4,18.6z"/>
			<path class="st0" d="M129.3,59.5c0.2,0,0.4,0.1,0.5,0.3c0.2,0.2,0.1,0.4,0,0.6c-2.1,2.5-3.9,4.3-5.6,5.4
				c-1.6,1.2-3.2,1.7-4.7,1.7c-1.1,0-1.9-0.3-2.4-1c-0.5-0.6-0.8-1.7-0.8-3.2c0-1.2,0.2-2.8,0.6-4.9l2.7-14.6c0.4-2,0.6-3.6,0.6-5
				c0-3.6-1.3-5.3-4-5.3c-2,0-4.1,1.3-6.3,3.9c-2.2,2.6-4.2,6.3-6.1,11.3c-1.9,4.9-3.4,10.7-4.6,17.3c-0.1,0.4-0.4,0.8-1,1
				c-0.5,0.2-1.2,0.4-2.1,0.4c-0.9,0-1.4,0-1.7-0.1c-0.3-0.1-0.4-0.2-0.4-0.4l0.4-2.1c0.4-1.5,0.7-3.1,1-4.9l3.8-20.5
				c0.2-0.9,0.3-1.7,0.3-2.5c0-2-0.6-2.9-1.8-2.9c-0.7,0-1.7,0.4-2.8,1.1c-1.1,0.7-2.3,1.8-3.5,3.1c-0.1,0.1-0.2,0.1-0.3,0.1
				c-0.2,0-0.4-0.1-0.5-0.3c-0.2-0.2-0.1-0.4,0-0.5c2.1-2.4,4-4.2,5.7-5.3c1.7-1.2,3.4-1.7,5-1.7c1,0,1.8,0.3,2.3,1
				c0.5,0.6,0.7,1.7,0.7,3.1c0,1.6-0.2,3.2-0.5,4.8l-1.9,11.1c2.2-6.4,4.8-11.4,7.8-14.9c3-3.6,6.2-5.4,9.5-5.4c2,0,3.5,0.6,4.5,1.7
				c1,1.1,1.5,2.8,1.5,5.2c0,1.5-0.2,3.2-0.6,5.2l-3,16.4c-0.2,0.9-0.3,1.7-0.3,2.5c0,1.9,0.6,2.8,1.8,2.8c1.3,0,3.3-1.4,6-4.2
				C129.2,59.6,129.3,59.5,129.3,59.5z"/>
		</g>
	</g>
</g>
</svg>
