<?xml version="1.0" encoding="utf-8"?>
<!-- Generator: Adobe Illustrator 25.4.1, SVG Export Plug-In . SVG Version: 6.00 Build 0)  -->
<svg version="1.1" id="レイヤー_1" xmlns="http://www.w3.org/2000/svg" xmlns:xlink="http://www.w3.org/1999/xlink" x="0px"
	 y="0px" viewBox="0 0 443 317" style="enable-background:new 0 0 443 317;" xml:space="preserve">
<style type="text/css">
	.st0{fill:#FFFFFF;}
</style>
<g>
	<g>
		<path class="st0" d="M10.2,21.6H7.1V2.8H0.4V0.1h16.5v2.7h-6.7V21.6z"/>
		<path class="st0" d="M34,13.9c0,4.8-3.1,8.1-7.5,8.1c-4.4,0-7.5-3.3-7.5-8.2c0-4.9,3-8.2,7.5-8.2C31.1,5.6,34,8.9,34,13.9z
			 M22.1,13.8c0,3.6,1.6,5.7,4.5,5.7c2.8,0,4.5-2.1,4.5-5.6c0-3.7-1.6-5.8-4.5-5.8C23.7,8.1,22.1,10.2,22.1,13.8z"/>
		<path class="st0" d="M40.9,6v2c1.2-1.8,2.3-2.4,4.2-2.4c2.1,0,3.3,0.8,4,2.6c1.2-1.9,2.5-2.6,4.7-2.6c1.6,0,3.1,0.6,3.8,1.6
			c0.7,0.9,1,2,1,3.8v10.6h-3V11.2c0-2-0.8-3-2.6-3c-2,0-3.3,1.5-3.3,3.9v9.5h-3V11c0-1.8-0.9-2.7-2.6-2.7c-2,0-3.3,1.4-3.3,3.7v9.6
			h-3V6H40.9z"/>
		<path class="st0" d="M77.7,13.9c0,4.8-3.1,8.1-7.5,8.1c-4.4,0-7.5-3.3-7.5-8.2c0-4.9,3-8.2,7.5-8.2C74.7,5.6,77.7,8.9,77.7,13.9z
			 M65.7,13.8c0,3.6,1.6,5.7,4.5,5.7c2.8,0,4.5-2.1,4.5-5.6c0-3.7-1.6-5.8-4.5-5.8C67.3,8.1,65.7,10.2,65.7,13.8z"/>
		<path class="st0" d="M84.5,6v2.4c0.6-0.9,0.9-1.3,1.3-1.6c0.7-0.7,1.8-1.2,2.8-1.2c0.6,0,1.1,0.1,1.6,0.4v2.7
			c-0.6-0.1-0.9-0.2-1.4-0.2c-2.4,0-4.2,2.1-4.2,4.9v8.2h-3V6H84.5z"/>
		<path class="st0" d="M96.2,6v2.4c0.6-0.9,0.9-1.3,1.3-1.6c0.7-0.7,1.8-1.2,2.8-1.2c0.6,0,1.1,0.1,1.6,0.4v2.7
			c-0.6-0.1-0.9-0.2-1.4-0.2c-2.4,0-4.2,2.1-4.2,4.9v8.2h-3V6H96.2z"/>
		<path class="st0" d="M119.2,13.9c0,4.8-3.1,8.1-7.5,8.1c-4.4,0-7.5-3.3-7.5-8.2c0-4.9,3-8.2,7.5-8.2
			C116.3,5.6,119.2,8.9,119.2,13.9z M107.3,13.8c0,3.6,1.6,5.7,4.5,5.7c2.8,0,4.5-2.1,4.5-5.6c0-3.7-1.6-5.8-4.5-5.8
			C108.9,8.1,107.3,10.2,107.3,13.8z"/>
		<path class="st0" d="M125.9,21.6L121.2,6h3.1l2.3,8.1c0.1,0.3,0.1,0.5,0.6,2.4c0.1,0.3,0.1,0.5,0.4,1.9c0.2-0.6,0.3-1.3,0.4-1.9
			c0.1-0.5,0.2-1.1,0.3-1.1l0.3-1.3l2.1-8.1h2.8l2.2,8c0.3,1.2,0.7,3.1,0.9,4.3c0.5-2.3,0.7-3.3,1-4.3l2.2-8h3.1l-4.7,15.6h-3
			l-2-7.2c-0.5-1.8-0.7-2.8-1-4l-1,4l-1.9,7.2H125.9z"/>
		<path class="st0" d="M148.7,18.3v2.7c0,2.6-1.2,4.3-3.3,4.9V24c0.9-0.5,1.3-1.2,1.3-2.4h-1.3v-3.2H148.7z"/>
		<path class="st0" d="M11.2,63.1H8.2v-8.5L0,41.6h3.6l4.2,7.1c0.3,0.5,1.3,2.4,1.7,3.2c0.6-1.3,1.2-2.4,1.7-3.2l4.1-7.1H19l-7.8,13
			V63.1z"/>
		<path class="st0" d="M35.8,55.4c0,4.8-3.1,8.1-7.5,8.1c-4.4,0-7.5-3.3-7.5-8.2c0-4.9,3-8.2,7.5-8.2C32.8,47.1,35.8,50.4,35.8,55.4
			z M23.8,55.3c0,3.6,1.6,5.7,4.5,5.7c2.8,0,4.5-2.1,4.5-5.6c0-3.7-1.6-5.8-4.5-5.8C25.4,49.6,23.8,51.7,23.8,55.3z"/>
		<path class="st0" d="M49.9,63.1v-1.8c-1.5,1.6-2.8,2.2-4.9,2.2c-1.8,0-3.3-0.6-4.2-1.7c-0.7-1-1-2.1-1-3.9V47.5h3v10.2
			c0,2.1,1,3.2,3,3.2c2.5,0,4.1-1.5,4.1-3.9v-9.4h3v15.6H49.9z"/>
		<path class="st0" d="M70.4,63.1l-4.7-15.6h3.1l2.3,8.1c0.1,0.3,0.1,0.5,0.6,2.4c0.1,0.3,0.1,0.5,0.4,1.9c0.2-0.6,0.3-1.3,0.4-1.9
			c0.1-0.5,0.2-1.1,0.3-1.1l0.3-1.3l2.1-8.1h2.8l2.2,8c0.3,1.2,0.7,3.1,0.9,4.3c0.5-2.3,0.7-3.3,1-4.3l2.2-8h3.1l-4.7,15.6h-3
			l-2-7.2c-0.5-1.8-0.7-2.8-1-4l-1,4l-1.9,7.2H70.4z"/>
		<path class="st0" d="M92.9,45h-3v-3.4h3V45z M92.9,63.1h-3V47.5h3V63.1z"/>
		<path class="st0" d="M100.7,63.1h-3V41.6h3V63.1z"/>
		<path class="st0" d="M108.4,63.1h-3V41.6h3V63.1z"/>
		<path class="st0" d="M123.4,41.6h3v7.7c1.5-1.5,3-2.2,5-2.2c4,0,6.7,3.2,6.7,8.1c0,5.1-2.6,8.3-6.8,8.3c-2,0-3.4-0.6-4.9-2.2v1.7
			h-3V41.6z M126.2,55.2c0,3.7,1.5,5.8,4.4,5.8c2.8,0,4.4-2.1,4.4-5.7c0-3.6-1.6-5.7-4.4-5.7C127.8,49.6,126.2,51.6,126.2,55.2z"/>
		<path class="st0" d="M144.2,56c0.2,3.2,1.8,5,4.5,5c1.8,0,3.1-0.9,3.8-2.7h2.8c-0.7,3.3-3.2,5.2-6.7,5.2c-4.4,0-7.4-3.3-7.4-8.2
			c0-4.9,3-8.2,7.3-8.2c3.1,0,5.3,1.6,6.4,4.6c0.4,1.2,0.6,2.4,0.6,4.3H144.2z M152.4,53.8c-0.1-2.8-1.5-4.4-3.9-4.4
			c-2.4,0-4.2,1.8-4.3,4.4H152.4z"/>
		<path class="st0" d="M169.7,41.6h3v7.7c1.5-1.5,3-2.2,5-2.2c4,0,6.7,3.2,6.7,8.1c0,5.1-2.6,8.3-6.8,8.3c-2,0-3.4-0.6-4.9-2.2v1.7
			h-3V41.6z M172.5,55.2c0,3.7,1.5,5.8,4.4,5.8c2.8,0,4.4-2.1,4.4-5.7c0-3.6-1.6-5.7-4.4-5.7C174.1,49.6,172.5,51.6,172.5,55.2z"/>
		<path class="st0" d="M190.5,56c0.2,3.2,1.8,5,4.5,5c1.8,0,3.1-0.9,3.8-2.7h2.8c-0.7,3.3-3.2,5.2-6.7,5.2c-4.4,0-7.4-3.3-7.4-8.2
			c0-4.9,3-8.2,7.3-8.2c3.1,0,5.3,1.6,6.4,4.6c0.4,1.2,0.6,2.4,0.6,4.3H190.5z M198.7,53.8c-0.1-2.8-1.5-4.4-3.9-4.4
			c-2.4,0-4.2,1.8-4.3,4.4H198.7z"/>
		<path class="st0" d="M212,49.9h-2.8v9.8c0,0.9,0.4,1.4,1.2,1.4c0.4,0,0.8-0.1,1.6-0.4V63c-1.3,0.3-1.8,0.4-2.5,0.4
			c-2.2,0-3.3-1.2-3.3-3.8v-9.8h-2.1v-2.4h2.1v-4.9h3v4.9h2.8V49.9z"/>
		<path class="st0" d="M221.3,49.9h-2.8v9.8c0,0.9,0.4,1.4,1.2,1.4c0.4,0,0.8-0.1,1.6-0.4V63c-1.3,0.3-1.8,0.4-2.5,0.4
			c-2.2,0-3.3-1.2-3.3-3.8v-9.8h-2.1v-2.4h2.1v-4.9h3v4.9h2.8V49.9z"/>
		<path class="st0" d="M226.5,56c0.2,3.2,1.8,5,4.5,5c1.8,0,3.1-0.9,3.8-2.7h2.8c-0.7,3.3-3.2,5.2-6.7,5.2c-4.4,0-7.4-3.3-7.4-8.2
			c0-4.9,3-8.2,7.3-8.2c3.1,0,5.3,1.6,6.4,4.6c0.4,1.2,0.6,2.4,0.6,4.3H226.5z M234.7,53.8c-0.1-2.8-1.5-4.4-3.9-4.4
			c-2.4,0-4.2,1.8-4.3,4.4H234.7z"/>
		<path class="st0" d="M244.7,47.5V50c0.6-0.9,0.9-1.3,1.3-1.6c0.7-0.7,1.8-1.2,2.8-1.2c0.6,0,1.1,0.1,1.6,0.4v2.7
			c-0.6-0.1-0.9-0.2-1.4-0.2c-2.4,0-4.2,2.1-4.2,4.9v8.2h-3V47.5H244.7z"/>
		<path class="st0" d="M8.4,91.3H5.6v9.8c0,0.9,0.4,1.4,1.2,1.4c0.4,0,0.8-0.1,1.6-0.4v2.4c-1.3,0.3-1.8,0.4-2.5,0.4
			c-2.2,0-3.3-1.2-3.3-3.8v-9.8H0.6V89h2.1v-4.9h3V89h2.8V91.3z"/>
		<path class="st0" d="M14.5,90.4c1.5-1.3,2.8-1.8,4.6-1.8c1.9,0,3.4,0.6,4.4,1.8c0.7,0.9,1,2,1,3.8v10.4h-3v-9.9
			c0-1.3-0.2-2-0.6-2.5c-0.5-0.6-1.4-0.9-2.4-0.9c-2.6,0-4.1,1.5-4.1,4.2v9.2h-3V83.1h3V90.4z"/>
		<path class="st0" d="M29.3,94.1c0.1-1.8,0.5-2.9,1.3-3.8c1-1.1,2.9-1.8,5.1-1.8c3.9,0,6.1,1.8,6.1,5.1v7.3c0,1.2,0.2,1.5,0.8,1.5
			c0.3,0,0.4,0,0.8-0.2v2.3c-0.7,0.2-1.3,0.2-1.9,0.2c-1.4,0-2.1-0.6-2.3-2.1c-1.6,1.6-3.3,2.3-5.4,2.3c-3,0-5.1-1.9-5.1-4.6
			c0-2.5,1.5-4.1,4.7-4.7l3.4-0.7c1.9-0.4,2.3-0.6,2.3-1.6c0-1.5-1.3-2.4-3.4-2.4c-1.5,0-2.7,0.5-3.1,1.3c-0.2,0.4-0.3,0.8-0.4,1.9
			H29.3z M39,96.6c-0.5,0.2-1.1,0.4-1.8,0.6l-3,0.7c-1.8,0.4-2.6,1.2-2.6,2.4c0,1.4,1.2,2.4,2.9,2.4c2.5,0,4.6-1.8,4.6-4.1V96.6z"/>
		<path class="st0" d="M49.5,89v1.8c1.5-1.6,2.8-2.2,4.9-2.2c1.8,0,3.3,0.6,4.2,1.7c0.7,1,1,2.1,1,3.9v10.4h-3V94.4
			c0-2.1-1-3.2-3-3.2c-2.5,0-4.1,1.5-4.1,3.9v9.4h-3V89H49.5z"/>
		<path class="st0" d="M87.7,89l-6.9,17.4c-0.9,2.2-2,3.1-3.9,3.1c-0.8,0-1.4-0.1-2.4-0.5v-2.4c0.9,0.4,1.3,0.4,1.9,0.4
			c1.1,0,1.7-0.5,2.2-1.6l0.4-1.2L72.6,89h3.2l3.4,8.9c0.5,1.4,0.6,1.6,1.2,3.3c0.4-1.2,0.9-2.8,1.1-3.3l3.2-8.9H87.7z"/>
		<path class="st0" d="M104.7,96.9c0,4.8-3.1,8.1-7.5,8.1c-4.4,0-7.5-3.3-7.5-8.2c0-4.9,3-8.2,7.5-8.2
			C101.7,88.6,104.7,91.9,104.7,96.9z M92.7,96.8c0,3.6,1.6,5.7,4.5,5.7c2.8,0,4.5-2.1,4.5-5.6c0-3.7-1.6-5.8-4.5-5.8
			C94.4,91.1,92.7,93.1,92.7,96.8z"/>
		<path class="st0" d="M118.9,104.5v-1.8c-1.5,1.6-2.8,2.2-4.9,2.2c-1.8,0-3.3-0.6-4.2-1.7c-0.7-1-1-2.1-1-3.9V89h3v10.2
			c0,2.1,1,3.2,3,3.2c2.5,0,4.1-1.5,4.1-3.9V89h3v15.6H118.9z"/>
		<path class="st0" d="M136.6,94.1c0.1-1.8,0.5-2.9,1.3-3.8c1-1.1,2.9-1.8,5.1-1.8c3.9,0,6.1,1.8,6.1,5.1v7.3c0,1.2,0.2,1.5,0.8,1.5
			c0.3,0,0.4,0,0.8-0.2v2.3c-0.7,0.2-1.3,0.2-1.9,0.2c-1.4,0-2.1-0.6-2.3-2.1c-1.6,1.6-3.3,2.3-5.4,2.3c-3,0-5.1-1.9-5.1-4.6
			c0-2.5,1.5-4.1,4.7-4.7L144,95c1.9-0.4,2.3-0.6,2.3-1.6c0-1.5-1.3-2.4-3.4-2.4c-1.5,0-2.7,0.5-3.1,1.3c-0.2,0.4-0.3,0.8-0.4,1.9
			H136.6z M146.4,96.6c-0.5,0.2-1.1,0.4-1.8,0.6l-3,0.7c-1.8,0.4-2.6,1.2-2.6,2.4c0,1.4,1.2,2.4,2.9,2.4c2.5,0,4.6-1.8,4.6-4.1V96.6
			z"/>
		<path class="st0" d="M156.8,89v2.4c0.6-0.9,0.9-1.3,1.3-1.6c0.7-0.7,1.8-1.2,2.8-1.2c0.6,0,1.1,0.1,1.6,0.4v2.7
			c-0.6-0.1-0.9-0.2-1.4-0.2c-2.4,0-4.2,2.1-4.2,4.9v8.2h-3V89H156.8z"/>
		<path class="st0" d="M167.8,97.5c0.2,3.2,1.8,5,4.5,5c1.8,0,3.1-0.9,3.8-2.7h2.8c-0.7,3.3-3.2,5.2-6.7,5.2c-4.4,0-7.4-3.3-7.4-8.2
			c0-4.9,3-8.2,7.3-8.2c3.1,0,5.3,1.6,6.4,4.6c0.4,1.2,0.6,2.4,0.6,4.3H167.8z M176.1,95.3c-0.1-2.8-1.5-4.4-3.9-4.4
			c-2.4,0-4.2,1.8-4.3,4.4H176.1z"/>
		<path class="st0" d="M186.5,104.5h-3.3v-3.2h3.3V104.5z"/>
		<path class="st0" d="M5.7,143.4h11.2v2.7H2.6v-21.5h3.1V143.4z"/>
		<path class="st0" d="M22.4,139c0.2,3.2,1.8,5,4.5,5c1.8,0,3.1-0.9,3.8-2.7h2.8c-0.7,3.3-3.2,5.2-6.7,5.2c-4.4,0-7.4-3.3-7.4-8.2
			c0-4.9,3-8.2,7.3-8.2c3.1,0,5.3,1.6,6.4,4.6c0.4,1.2,0.6,2.4,0.6,4.3H22.4z M30.6,136.8c-0.1-2.8-1.5-4.4-3.9-4.4
			c-2.4,0-4.2,1.8-4.3,4.4H30.6z"/>
		<path class="st0" d="M43.9,132.8h-2.8v9.8c0,0.9,0.4,1.4,1.2,1.4c0.4,0,0.8-0.1,1.6-0.4v2.4c-1.3,0.3-1.8,0.4-2.5,0.4
			c-2.2,0-3.3-1.2-3.3-3.8v-9.8H36v-2.4h2.1v-4.9h3v4.9h2.8V132.8z"/>
		<path class="st0" d="M70.2,130.5l-6.9,17.4c-0.9,2.2-2,3.1-3.9,3.1c-0.8,0-1.4-0.1-2.4-0.5v-2.4c0.9,0.4,1.3,0.4,1.9,0.4
			c1.1,0,1.7-0.5,2.2-1.6l0.4-1.2L55,130.5h3.2l3.4,8.9c0.5,1.4,0.6,1.6,1.2,3.3c0.4-1.2,0.9-2.8,1.1-3.3l3.2-8.9H70.2z"/>
		<path class="st0" d="M87.1,138.4c0,4.8-3.1,8.1-7.5,8.1c-4.4,0-7.5-3.3-7.5-8.2c0-4.9,3-8.2,7.5-8.2
			C84.2,130.1,87.1,133.3,87.1,138.4z M75.2,138.2c0,3.6,1.6,5.7,4.5,5.7c2.8,0,4.5-2.1,4.5-5.6c0-3.7-1.6-5.8-4.5-5.8
			C76.8,132.5,75.2,134.6,75.2,138.2z"/>
		<path class="st0" d="M101.3,146v-1.8c-1.5,1.6-2.8,2.2-4.9,2.2c-1.8,0-3.3-0.6-4.2-1.7c-0.7-1-1-2.1-1-3.9v-10.4h3v10.2
			c0,2.1,1,3.2,3,3.2c2.5,0,4.1-1.5,4.1-3.9v-9.4h3V146H101.3z"/>
		<path class="st0" d="M111.8,130.5v2.4c0.6-0.9,0.9-1.3,1.3-1.6c0.7-0.7,1.8-1.2,2.8-1.2c0.6,0,1.1,0.1,1.6,0.4v2.7
			c-0.6-0.1-0.9-0.2-1.4-0.2c-2.4,0-4.2,2.1-4.2,4.9v8.2h-3v-15.6H111.8z"/>
		<path class="st0" d="M139.8,135.2c-0.4-1.9-1.5-2.7-3.5-2.7c-1.8,0-3,0.7-3,1.8c0,0.8,0.5,1.3,1.8,1.6l3.6,0.9
			c3.3,0.8,4.6,2.2,4.6,4.6c0,3.1-2.5,5-6.5,5c-4.2,0-6.7-2.1-7.1-5.8h2.9c0.2,2.1,1.7,3.3,4.2,3.3c2.1,0,3.5-0.9,3.5-2.4
			c0-1-0.7-1.6-2.5-2.1l-3.1-0.8c-1.6-0.4-2.6-0.9-3.3-1.4c-0.7-0.6-1.2-1.6-1.2-2.7c0-2.7,2.5-4.6,6-4.6c2.2,0,4.1,0.7,5.2,2.1
			c0.7,0.8,1,1.7,1.1,3.1H139.8z"/>
		<path class="st0" d="M149.1,139c0.2,3.2,1.8,5,4.5,5c1.8,0,3.1-0.9,3.8-2.7h2.8c-0.7,3.3-3.2,5.2-6.7,5.2c-4.4,0-7.4-3.3-7.4-8.2
			c0-4.9,3-8.2,7.3-8.2c3.1,0,5.3,1.6,6.4,4.6c0.4,1.2,0.6,2.4,0.6,4.3H149.1z M157.4,136.8c-0.1-2.8-1.5-4.4-3.9-4.4
			c-2.4,0-4.2,1.8-4.3,4.4H157.4z"/>
		<path class="st0" d="M167.3,130.5v1.8c1.5-1.6,2.8-2.2,4.9-2.2c1.8,0,3.3,0.6,4.2,1.7c0.7,1,1,2.1,1,3.9V146h-3v-10.2
			c0-2.1-1-3.2-3-3.2c-2.5,0-4.1,1.5-4.1,3.9v9.4h-3v-15.6H167.3z"/>
		<path class="st0" d="M191.2,135.2c-0.4-1.9-1.5-2.7-3.5-2.7c-1.8,0-3,0.7-3,1.8c0,0.8,0.5,1.3,1.8,1.6l3.6,0.9
			c3.3,0.8,4.6,2.2,4.6,4.6c0,3.1-2.5,5-6.5,5c-4.2,0-6.7-2.1-7.1-5.8h2.9c0.2,2.1,1.7,3.3,4.2,3.3c2.1,0,3.5-0.9,3.5-2.4
			c0-1-0.7-1.6-2.5-2.1l-3.1-0.8c-1.6-0.4-2.6-0.9-3.3-1.4c-0.7-0.6-1.2-1.6-1.2-2.7c0-2.7,2.5-4.6,6-4.6c2.2,0,4.1,0.7,5.2,2.1
			c0.7,0.8,1,1.7,1.1,3.1H191.2z"/>
		<path class="st0" d="M201.4,128h-3v-3.4h3V128z M201.4,146h-3v-15.6h3V146z"/>
		<path class="st0" d="M212.4,132.8h-2.8v9.8c0,0.9,0.4,1.4,1.2,1.4c0.4,0,0.8-0.1,1.6-0.4v2.4c-1.3,0.3-1.8,0.4-2.5,0.4
			c-2.2,0-3.3-1.2-3.3-3.8v-9.8h-2.1v-2.4h2.1v-4.9h3v4.9h2.8V132.8z"/>
		<path class="st0" d="M218.4,128h-3v-3.4h3V128z M218.4,146h-3v-15.6h3V146z"/>
		<path class="st0" d="M226.5,146l-5.3-15.6h3.2l2.6,8.3c0.3,1,0.8,2.9,1.2,4.3c0-0.2,0.1-0.5,0.2-0.6l0.3-1.2
			c0.1-0.3,0.6-2,0.7-2.5l2.6-8.4h3.2l-5.4,15.6H226.5z"/>
		<path class="st0" d="M240.8,128h-3v-3.4h3V128z M240.8,146h-3v-15.6h3V146z"/>
		<path class="st0" d="M251.8,132.8H249v9.8c0,0.9,0.4,1.4,1.2,1.4c0.4,0,0.8-0.1,1.6-0.4v2.4c-1.3,0.3-1.8,0.4-2.5,0.4
			c-2.2,0-3.3-1.2-3.3-3.8v-9.8H244v-2.4h2.1v-4.9h3v4.9h2.8V132.8z"/>
		<path class="st0" d="M268,130.5l-6.9,17.4c-0.9,2.2-2,3.1-3.9,3.1c-0.8,0-1.4-0.1-2.4-0.5v-2.4c0.9,0.4,1.3,0.4,1.9,0.4
			c1.1,0,1.7-0.5,2.2-1.6l0.4-1.2l-6.4-15.2h3.2l3.4,8.9c0.5,1.4,0.6,1.6,1.2,3.3c0.4-1.2,0.9-2.8,1.1-3.3l3.2-8.9H268z"/>
		<path class="st0" d="M4.9,187.5L0.2,172h3.1l2.3,8.1c0.1,0.3,0.1,0.5,0.6,2.4c0.1,0.3,0.1,0.5,0.4,1.9c0.2-0.6,0.3-1.3,0.4-1.9
			c0.1-0.5,0.2-1.1,0.3-1.1l0.3-1.3l2.1-8.1h2.8l2.2,8c0.3,1.2,0.7,3.1,0.9,4.3c0.5-2.3,0.7-3.3,1-4.3l2.2-8h3.1l-4.7,15.6h-3
			l-2-7.2c-0.5-1.8-0.7-2.8-1-4l-1,4l-1.9,7.2H4.9z"/>
		<path class="st0" d="M27.4,173.4c1.5-1.3,2.8-1.8,4.6-1.8c1.9,0,3.4,0.6,4.4,1.8c0.7,0.9,1,2,1,3.8v10.4h-3v-9.9
			c0-1.3-0.2-2-0.6-2.5c-0.5-0.6-1.4-0.9-2.4-0.9c-2.6,0-4.1,1.5-4.1,4.2v9.2h-3V166h3V173.4z"/>
		<path class="st0" d="M44.5,180.5c0.2,3.2,1.8,5,4.5,5c1.8,0,3.1-0.9,3.8-2.7h2.8c-0.7,3.3-3.2,5.2-6.7,5.2c-4.4,0-7.4-3.3-7.4-8.2
			c0-4.9,3-8.2,7.3-8.2c3.1,0,5.3,1.6,6.4,4.6c0.4,1.2,0.6,2.4,0.6,4.3H44.5z M52.7,178.3c-0.1-2.8-1.5-4.4-3.9-4.4
			c-2.4,0-4.2,1.8-4.3,4.4H52.7z"/>
		<path class="st0" d="M62.6,172v2.4c0.6-0.9,0.9-1.3,1.3-1.6c0.7-0.7,1.8-1.2,2.8-1.2c0.6,0,1.1,0.1,1.6,0.4v2.7
			c-0.6-0.1-0.9-0.2-1.4-0.2c-2.4,0-4.2,2.1-4.2,4.9v8.2h-3V172H62.6z"/>
		<path class="st0" d="M73.7,180.5c0.2,3.2,1.8,5,4.5,5c1.8,0,3.1-0.9,3.8-2.7h2.8c-0.7,3.3-3.2,5.2-6.7,5.2c-4.4,0-7.4-3.3-7.4-8.2
			c0-4.9,3-8.2,7.3-8.2c3.1,0,5.3,1.6,6.4,4.6c0.4,1.2,0.6,2.4,0.6,4.3H73.7z M81.9,178.3c-0.1-2.8-1.5-4.4-3.9-4.4
			c-2.4,0-4.2,1.8-4.3,4.4H81.9z"/>
		<path class="st0" d="M92.3,187.5L86.9,172h3.2l2.6,8.3c0.3,1,0.8,2.9,1.2,4.3c0-0.2,0.1-0.5,0.2-0.6l0.3-1.2
			c0.1-0.3,0.6-2,0.7-2.5l2.6-8.4h3.2l-5.4,15.6H92.3z"/>
		<path class="st0" d="M105.9,180.5c0.2,3.2,1.8,5,4.5,5c1.8,0,3.1-0.9,3.8-2.7h2.8c-0.7,3.3-3.2,5.2-6.7,5.2
			c-4.4,0-7.4-3.3-7.4-8.2c0-4.9,3-8.2,7.3-8.2c3.1,0,5.3,1.6,6.4,4.6c0.4,1.2,0.6,2.4,0.6,4.3H105.9z M114.1,178.3
			c-0.1-2.8-1.5-4.4-3.9-4.4c-2.4,0-4.2,1.8-4.3,4.4H114.1z"/>
		<path class="st0" d="M124,172v2.4c0.6-0.9,0.9-1.3,1.3-1.6c0.7-0.7,1.8-1.2,2.8-1.2c0.6,0,1.1,0.1,1.6,0.4v2.7
			c-0.6-0.1-0.9-0.2-1.4-0.2c-2.4,0-4.2,2.1-4.2,4.9v8.2h-3V172H124z"/>
		<path class="st0" d="M156.1,172l-6.9,17.4c-0.9,2.2-2,3.1-3.9,3.1c-0.8,0-1.4-0.1-2.4-0.5v-2.4c0.9,0.4,1.3,0.4,1.9,0.4
			c1.1,0,1.7-0.5,2.2-1.6l0.4-1.2L141,172h3.2l3.4,8.9c0.5,1.4,0.6,1.6,1.2,3.3c0.4-1.2,0.9-2.8,1.1-3.3l3.2-8.9H156.1z"/>
		<path class="st0" d="M173.1,179.9c0,4.8-3.1,8.1-7.5,8.1c-4.4,0-7.5-3.3-7.5-8.2c0-4.9,3-8.2,7.5-8.2
			C170.2,171.5,173.1,174.8,173.1,179.9z M161.1,179.7c0,3.6,1.6,5.7,4.5,5.7c2.8,0,4.5-2.1,4.5-5.6c0-3.7-1.6-5.8-4.5-5.8
			C162.8,174,161.1,176.1,161.1,179.7z"/>
		<path class="st0" d="M187.3,187.5v-1.8c-1.5,1.6-2.8,2.2-4.9,2.2c-1.8,0-3.3-0.6-4.2-1.7c-0.7-1-1-2.1-1-3.9V172h3v10.2
			c0,2.1,1,3.2,3,3.2c2.5,0,4.1-1.5,4.1-3.9V172h3v15.6H187.3z"/>
		<path class="st0" d="M197.8,172v2.4c0.6-0.9,0.9-1.3,1.3-1.6c0.7-0.7,1.8-1.2,2.8-1.2c0.6,0,1.1,0.1,1.6,0.4v2.7
			c-0.6-0.1-0.9-0.2-1.4-0.2c-2.4,0-4.2,2.1-4.2,4.9v8.2h-3V172H197.8z"/>
		<path class="st0" d="M219.7,173.4c1.5-1.3,2.8-1.8,4.6-1.8c1.9,0,3.4,0.6,4.4,1.8c0.7,0.9,1,2,1,3.8v10.4h-3v-9.9
			c0-1.3-0.2-2-0.6-2.5c-0.5-0.6-1.4-0.9-2.4-0.9c-2.6,0-4.1,1.5-4.1,4.2v9.2h-3V166h3V173.4z"/>
		<path class="st0" d="M236.8,180.5c0.2,3.2,1.8,5,4.5,5c1.8,0,3.1-0.9,3.8-2.7h2.8c-0.7,3.3-3.2,5.2-6.7,5.2
			c-4.4,0-7.4-3.3-7.4-8.2c0-4.9,3-8.2,7.3-8.2c3.1,0,5.3,1.6,6.4,4.6c0.4,1.2,0.6,2.4,0.6,4.3H236.8z M245.1,178.3
			c-0.1-2.8-1.5-4.4-3.9-4.4c-2.4,0-4.2,1.8-4.3,4.4H245.1z"/>
		<path class="st0" d="M252.1,177.1c0.1-1.8,0.5-2.9,1.3-3.8c1-1.1,2.9-1.8,5.1-1.8c3.9,0,6.1,1.8,6.1,5.1v7.3
			c0,1.2,0.2,1.5,0.8,1.5c0.3,0,0.4,0,0.8-0.2v2.3c-0.7,0.2-1.3,0.2-1.9,0.2c-1.4,0-2.1-0.6-2.3-2.1c-1.6,1.6-3.3,2.3-5.4,2.3
			c-3,0-5.1-1.9-5.1-4.6c0-2.5,1.5-4.1,4.7-4.7l3.4-0.7c1.9-0.4,2.3-0.6,2.3-1.6c0-1.5-1.3-2.4-3.4-2.4c-1.5,0-2.7,0.5-3.1,1.3
			c-0.2,0.4-0.3,0.8-0.4,1.9H252.1z M261.8,179.5c-0.5,0.2-1.1,0.4-1.8,0.6l-3,0.7c-1.8,0.4-2.6,1.2-2.6,2.4c0,1.4,1.2,2.4,2.9,2.4
			c2.5,0,4.6-1.8,4.6-4.1V179.5z"/>
		<path class="st0" d="M272.3,172v2.4c0.6-0.9,0.9-1.3,1.3-1.6c0.7-0.7,1.8-1.2,2.8-1.2c0.6,0,1.1,0.1,1.6,0.4v2.7
			c-0.6-0.1-0.9-0.2-1.4-0.2c-2.4,0-4.2,2.1-4.2,4.9v8.2h-3V172H272.3z"/>
		<path class="st0" d="M287.3,174.3h-2.8v9.8c0,0.9,0.4,1.4,1.2,1.4c0.4,0,0.8-0.1,1.6-0.4v2.4c-1.3,0.3-1.8,0.4-2.5,0.4
			c-2.2,0-3.3-1.2-3.3-3.8v-9.8h-2.1V172h2.1V167h3v4.9h2.8V174.3z"/>
		<path class="st0" d="M306.7,174.3h-2.8v9.8c0,0.9,0.4,1.4,1.2,1.4c0.4,0,0.8-0.1,1.6-0.4v2.4c-1.3,0.3-1.8,0.4-2.5,0.4
			c-2.2,0-3.3-1.2-3.3-3.8v-9.8h-2.1V172h2.1V167h3v4.9h2.8V174.3z"/>
		<path class="st0" d="M309.7,177.1c0.1-1.8,0.5-2.9,1.3-3.8c1-1.1,2.9-1.8,5.1-1.8c3.9,0,6.1,1.8,6.1,5.1v7.3
			c0,1.2,0.2,1.5,0.8,1.5c0.3,0,0.4,0,0.8-0.2v2.3c-0.7,0.2-1.3,0.2-1.9,0.2c-1.4,0-2.1-0.6-2.3-2.1c-1.6,1.6-3.3,2.3-5.4,2.3
			c-3,0-5.1-1.9-5.1-4.6c0-2.5,1.5-4.1,4.7-4.7l3.4-0.7c1.9-0.4,2.3-0.6,2.3-1.6c0-1.5-1.3-2.4-3.4-2.4c-1.5,0-2.7,0.5-3.1,1.3
			c-0.2,0.4-0.3,0.8-0.4,1.9H309.7z M319.4,179.5c-0.5,0.2-1.1,0.4-1.8,0.6l-3,0.7c-1.8,0.4-2.6,1.2-2.6,2.4c0,1.4,1.2,2.4,2.9,2.4
			c2.5,0,4.6-1.8,4.6-4.1V179.5z"/>
		<path class="st0" d="M341.2,187.5h-3.6l-5.4-8.1l-2.2,2v6.2h-3V166h3v11.8l6.7-5.9h3.9l-6.3,5.5L341.2,187.5z"/>
		<path class="st0" d="M346.1,180.5c0.2,3.2,1.8,5,4.5,5c1.8,0,3.1-0.9,3.8-2.7h2.8c-0.7,3.3-3.2,5.2-6.7,5.2
			c-4.4,0-7.4-3.3-7.4-8.2c0-4.9,3-8.2,7.3-8.2c3.1,0,5.3,1.6,6.4,4.6c0.4,1.2,0.6,2.4,0.6,4.3H346.1z M354.4,178.3
			c-0.1-2.8-1.5-4.4-3.9-4.4c-2.4,0-4.2,1.8-4.3,4.4H354.4z"/>
		<path class="st0" d="M370.4,176.7c-0.4-1.9-1.5-2.7-3.5-2.7c-1.8,0-3,0.7-3,1.8c0,0.8,0.5,1.3,1.8,1.6l3.6,0.9
			c3.3,0.8,4.6,2.2,4.6,4.6c0,3.1-2.5,5-6.5,5c-4.2,0-6.7-2.1-7.1-5.8h2.9c0.2,2.1,1.7,3.3,4.2,3.3c2.1,0,3.5-0.9,3.5-2.4
			c0-1-0.7-1.6-2.5-2.1l-3.1-0.8c-1.6-0.4-2.6-0.9-3.3-1.4c-0.7-0.6-1.2-1.6-1.2-2.7c0-2.7,2.5-4.6,6-4.6c2.2,0,4.1,0.7,5.2,2.1
			c0.7,0.8,1,1.7,1.1,3.1H370.4z"/>
		<path class="st0" d="M400.8,172l-6.9,17.4c-0.9,2.2-2,3.1-3.9,3.1c-0.8,0-1.4-0.1-2.4-0.5v-2.4c0.9,0.4,1.3,0.4,1.9,0.4
			c1.1,0,1.7-0.5,2.2-1.6l0.4-1.2l-6.4-15.2h3.2l3.4,8.9c0.5,1.4,0.6,1.6,1.2,3.3c0.4-1.2,0.9-2.8,1.1-3.3l3.2-8.9H400.8z"/>
		<path class="st0" d="M417.8,179.9c0,4.8-3.1,8.1-7.5,8.1c-4.4,0-7.5-3.3-7.5-8.2c0-4.9,3-8.2,7.5-8.2
			C414.8,171.5,417.8,174.8,417.8,179.9z M405.8,179.7c0,3.6,1.6,5.7,4.5,5.7c2.8,0,4.5-2.1,4.5-5.6c0-3.7-1.6-5.8-4.5-5.8
			C407.5,174,405.8,176.1,405.8,179.7z"/>
		<path class="st0" d="M432,187.5v-1.8c-1.5,1.6-2.8,2.2-4.9,2.2c-1.8,0-3.3-0.6-4.2-1.7c-0.7-1-1-2.1-1-3.9V172h3v10.2
			c0,2.1,1,3.2,3,3.2c2.5,0,4.1-1.5,4.1-3.9V172h3v15.6H432z"/>
		<path class="st0" d="M443,187.5h-3.3v-3.2h3.3V187.5z"/>
		<path class="st0" d="M17.1,210.2H5.7v6.4h9.6v2.6H5.7v9.8H2.6v-21.5h14.5V210.2z"/>
		<path class="st0" d="M23.4,211h-3v-3.4h3V211z M23.4,229h-3v-15.6h3V229z"/>
		<path class="st0" d="M31,213.5v1.8c1.5-1.6,2.8-2.2,4.9-2.2c1.8,0,3.3,0.6,4.2,1.7c0.7,1,1,2.1,1,3.9V229h-3v-10.2
			c0-2.1-1-3.2-3-3.2c-2.5,0-4.1,1.5-4.1,3.9v9.4h-3v-15.6H31z"/>
		<path class="st0" d="M59.9,229h-3v-1.7c-1.5,1.5-3,2.1-4.9,2.1c-4.2,0-6.8-3.2-6.8-8.3c0-5,2.6-8.1,6.8-8.1c2,0,3.5,0.6,4.9,2.1
			v-7.6h3V229z M48.2,221.2c0,3.7,1.6,5.7,4.4,5.7c2.8,0,4.4-2.1,4.4-5.6c0-3.7-1.6-5.8-4.4-5.8C49.8,215.5,48.2,217.6,48.2,221.2z"
			/>
		<path class="st0" d="M77.8,214.9c1.5-1.3,2.8-1.8,4.6-1.8c1.9,0,3.4,0.6,4.4,1.8c0.7,0.9,1,2,1,3.8V229h-3v-9.9
			c0-1.3-0.2-2-0.6-2.5c-0.5-0.6-1.4-0.9-2.4-0.9c-2.6,0-4.1,1.5-4.1,4.2v9.2h-3v-21.5h3V214.9z"/>
		<path class="st0" d="M95.6,211h-3v-3.4h3V211z M95.6,229h-3v-15.6h3V229z"/>
		<path class="st0" d="M114.3,229h-3v-1.7c-1.5,1.5-3,2.1-4.9,2.1c-4.2,0-6.8-3.2-6.8-8.3c0-5,2.6-8.1,6.8-8.1c2,0,3.5,0.6,4.9,2.1
			v-7.6h3V229z M102.6,221.2c0,3.7,1.6,5.7,4.4,5.7c2.8,0,4.4-2.1,4.4-5.6c0-3.7-1.6-5.8-4.4-5.8
			C104.2,215.5,102.6,217.6,102.6,221.2z"/>
		<path class="st0" d="M132.9,229h-3v-1.7c-1.5,1.5-3,2.1-4.9,2.1c-4.2,0-6.8-3.2-6.8-8.3c0-5,2.6-8.1,6.8-8.1c2,0,3.5,0.6,4.9,2.1
			v-7.6h3V229z M121.2,221.2c0,3.7,1.6,5.7,4.4,5.7c2.8,0,4.4-2.1,4.4-5.6c0-3.7-1.6-5.8-4.4-5.8
			C122.9,215.5,121.2,217.6,121.2,221.2z"/>
		<path class="st0" d="M139.9,222c0.2,3.2,1.8,5,4.5,5c1.8,0,3.1-0.9,3.8-2.7h2.8c-0.7,3.3-3.2,5.2-6.7,5.2c-4.4,0-7.4-3.3-7.4-8.2
			c0-4.9,3-8.2,7.3-8.2c3.1,0,5.3,1.6,6.4,4.6c0.4,1.2,0.6,2.4,0.6,4.3H139.9z M148.1,219.8c-0.1-2.8-1.5-4.4-3.9-4.4
			c-2.4,0-4.2,1.8-4.3,4.4H148.1z"/>
		<path class="st0" d="M158,213.5v1.8c1.5-1.6,2.8-2.2,4.9-2.2c1.8,0,3.3,0.6,4.2,1.7c0.7,1,1,2.1,1,3.9V229h-3v-10.2
			c0-2.1-1-3.2-3-3.2c-2.5,0-4.1,1.5-4.1,3.9v9.4h-3v-15.6H158z"/>
		<path class="st0" d="M196.3,213.5l-6.9,17.4c-0.9,2.2-2,3.1-3.9,3.1c-0.8,0-1.4-0.1-2.4-0.5V231c0.9,0.4,1.3,0.4,1.9,0.4
			c1.1,0,1.7-0.5,2.2-1.6l0.4-1.2l-6.4-15.2h3.2l3.4,8.9c0.5,1.4,0.6,1.6,1.2,3.3c0.4-1.2,0.9-2.8,1.1-3.3l3.2-8.9H196.3z"/>
		<path class="st0" d="M213.3,221.3c0,4.8-3.1,8.1-7.5,8.1c-4.4,0-7.5-3.3-7.5-8.2c0-4.9,3-8.2,7.5-8.2
			C210.3,213,213.3,216.3,213.3,221.3z M201.3,221.2c0,3.6,1.6,5.7,4.5,5.7c2.8,0,4.5-2.1,4.5-5.6c0-3.7-1.6-5.8-4.5-5.8
			C202.9,215.5,201.3,217.6,201.3,221.2z"/>
		<path class="st0" d="M227.4,229v-1.8c-1.5,1.6-2.8,2.2-4.9,2.2c-1.8,0-3.3-0.6-4.2-1.7c-0.7-1-1-2.1-1-3.9v-10.4h3v10.2
			c0,2.1,1,3.2,3,3.2c2.5,0,4.1-1.5,4.1-3.9v-9.4h3V229H227.4z"/>
		<path class="st0" d="M237.9,213.5v2.4c0.6-0.9,0.9-1.3,1.3-1.6c0.7-0.7,1.8-1.2,2.8-1.2c0.6,0,1.1,0.1,1.6,0.4v2.7
			c-0.6-0.1-0.9-0.2-1.4-0.2c-2.4,0-4.2,2.1-4.2,4.9v8.2h-3v-15.6H237.9z"/>
		<path class="st0" d="M271.1,221.3c0,4.8-3.1,8.1-7.5,8.1c-4.4,0-7.5-3.3-7.5-8.2c0-4.9,3-8.2,7.5-8.2
			C268.2,213,271.1,216.3,271.1,221.3z M259.2,221.2c0,3.6,1.6,5.7,4.5,5.7c2.8,0,4.5-2.1,4.5-5.6c0-3.7-1.6-5.8-4.5-5.8
			C260.8,215.5,259.2,217.6,259.2,221.2z"/>
		<path class="st0" d="M277.8,229l-4.7-15.6h3.1l2.3,8.1c0.1,0.3,0.1,0.5,0.6,2.4c0.1,0.3,0.1,0.5,0.4,1.9c0.2-0.6,0.3-1.3,0.4-1.9
			c0.1-0.5,0.2-1.1,0.3-1.1l0.3-1.3l2.1-8.1h2.8l2.2,8c0.3,1.2,0.7,3.1,0.9,4.3c0.5-2.3,0.7-3.3,1-4.3l2.2-8h3.1l-4.7,15.6h-3
			l-2-7.2c-0.5-1.8-0.7-2.8-1-4l-1,4l-1.9,7.2H277.8z"/>
		<path class="st0" d="M300.1,213.5v1.8c1.5-1.6,2.8-2.2,4.9-2.2c1.8,0,3.3,0.6,4.2,1.7c0.7,1,1,2.1,1,3.9V229h-3v-10.2
			c0-2.1-1-3.2-3-3.2c-2.5,0-4.1,1.5-4.1,3.9v9.4h-3v-15.6H300.1z"/>
		<path class="st0" d="M325.3,207.5h3v7.7c1.5-1.5,3-2.2,5-2.2c4,0,6.7,3.2,6.7,8.1c0,5.1-2.6,8.3-6.8,8.3c-2,0-3.4-0.6-4.9-2.2v1.7
			h-3V207.5z M328.2,221.2c0,3.7,1.5,5.8,4.4,5.8c2.8,0,4.4-2.1,4.4-5.7c0-3.6-1.6-5.7-4.4-5.7C329.8,215.5,328.2,217.6,328.2,221.2
			z"/>
		<path class="st0" d="M346.1,222c0.2,3.2,1.8,5,4.5,5c1.8,0,3.1-0.9,3.8-2.7h2.8c-0.7,3.3-3.2,5.2-6.7,5.2c-4.4,0-7.4-3.3-7.4-8.2
			c0-4.9,3-8.2,7.3-8.2c3.1,0,5.3,1.6,6.4,4.6c0.4,1.2,0.6,2.4,0.6,4.3H346.1z M354.4,219.8c-0.1-2.8-1.5-4.4-3.9-4.4
			c-2.4,0-4.2,1.8-4.3,4.4H354.4z"/>
		<path class="st0" d="M361.4,218.6c0.1-1.8,0.5-2.9,1.3-3.8c1-1.1,2.9-1.8,5.1-1.8c3.9,0,6.1,1.8,6.1,5.1v7.3
			c0,1.2,0.2,1.5,0.8,1.5c0.3,0,0.4,0,0.8-0.2v2.3c-0.7,0.2-1.3,0.2-1.9,0.2c-1.4,0-2.1-0.6-2.3-2.1c-1.6,1.6-3.3,2.3-5.4,2.3
			c-3,0-5.1-1.9-5.1-4.6c0-2.5,1.5-4.1,4.7-4.7l3.4-0.7c1.9-0.4,2.3-0.6,2.3-1.6c0-1.5-1.3-2.4-3.4-2.4c-1.5,0-2.7,0.5-3.1,1.3
			c-0.2,0.4-0.3,0.8-0.4,1.9H361.4z M371.2,221c-0.5,0.2-1.1,0.4-1.8,0.6l-3,0.7c-1.8,0.4-2.6,1.2-2.6,2.4c0,1.4,1.2,2.4,2.9,2.4
			c2.5,0,4.6-1.8,4.6-4.1V221z"/>
		<path class="st0" d="M388.9,229v-1.8c-1.5,1.6-2.8,2.2-4.9,2.2c-1.8,0-3.3-0.6-4.2-1.7c-0.7-1-1-2.1-1-3.9v-10.4h3v10.2
			c0,2.1,1,3.2,3,3.2c2.5,0,4.1-1.5,4.1-3.9v-9.4h3V229H388.9z"/>
		<path class="st0" d="M402.8,215.8H400v9.8c0,0.9,0.4,1.4,1.2,1.4c0.4,0,0.8-0.1,1.6-0.4v2.4c-1.3,0.3-1.8,0.4-2.5,0.4
			c-2.2,0-3.3-1.2-3.3-3.8v-9.8h-2.1v-2.4h2.1v-4.9h3v4.9h2.8V215.8z"/>
		<path class="st0" d="M418.9,213.5l-6.9,17.4c-0.9,2.2-2,3.1-3.9,3.1c-0.8,0-1.4-0.1-2.4-0.5V231c0.9,0.4,1.3,0.4,1.9,0.4
			c1.1,0,1.7-0.5,2.2-1.6l0.4-1.2l-6.4-15.2h3.2l3.4,8.9c0.5,1.4,0.6,1.6,1.2,3.3c0.4-1.2,0.9-2.8,1.1-3.3l3.2-8.9H418.9z"/>
		<path class="st0" d="M4.9,270.5l-4.7-15.6h3.1l2.3,8.1c0.1,0.3,0.1,0.5,0.6,2.4c0.1,0.3,0.1,0.5,0.4,1.9c0.2-0.6,0.3-1.3,0.4-1.9
			c0.1-0.5,0.2-1.1,0.3-1.1l0.3-1.3l2.1-8.1h2.8l2.2,8c0.3,1.2,0.7,3.1,0.9,4.3c0.5-2.3,0.7-3.3,1-4.3l2.2-8h3.1l-4.7,15.6h-3
			l-2-7.2c-0.5-1.8-0.7-2.8-1-4l-1,4l-1.9,7.2H4.9z"/>
		<path class="st0" d="M27.4,252.5h-3V249h3V252.5z M27.4,270.5h-3v-15.6h3V270.5z"/>
		<path class="st0" d="M38.4,257.3h-2.8v9.8c0,0.9,0.4,1.4,1.2,1.4c0.4,0,0.8-0.1,1.6-0.4v2.4c-1.3,0.3-1.8,0.4-2.5,0.4
			c-2.2,0-3.3-1.2-3.3-3.8v-9.8h-2.1v-2.4h2.1V250h3v4.9h2.8V257.3z"/>
		<path class="st0" d="M44.4,256.4c1.5-1.3,2.8-1.8,4.6-1.8c1.9,0,3.4,0.6,4.4,1.8c0.7,0.9,1,2,1,3.8v10.4h-3v-9.9
			c0-1.3-0.2-2-0.6-2.5c-0.5-0.6-1.4-0.9-2.4-0.9c-2.6,0-4.1,1.5-4.1,4.2v9.2h-3V249h3V256.4z"/>
		<path class="st0" d="M62.2,252.5h-3V249h3V252.5z M62.2,270.5h-3v-15.6h3V270.5z"/>
		<path class="st0" d="M69.9,254.9v1.8c1.5-1.6,2.8-2.2,4.9-2.2c1.8,0,3.3,0.6,4.2,1.7c0.7,1,1,2.1,1,3.9v10.4h-3v-10.2
			c0-2.1-1-3.2-3-3.2c-2.5,0-4.1,1.5-4.1,3.9v9.4h-3v-15.6H69.9z"/>
		<path class="st0" d="M108.1,254.9l-6.9,17.4c-0.9,2.2-2,3.1-3.9,3.1c-0.8,0-1.4-0.1-2.4-0.5v-2.4c0.9,0.4,1.3,0.4,1.9,0.4
			c1.1,0,1.7-0.5,2.2-1.6l0.4-1.2L93,254.9h3.2l3.4,8.9c0.5,1.4,0.6,1.6,1.2,3.3c0.4-1.2,0.9-2.8,1.1-3.3l3.2-8.9H108.1z"/>
		<path class="st0" d="M125.1,262.8c0,4.8-3.1,8.1-7.5,8.1c-4.4,0-7.5-3.3-7.5-8.2c0-4.9,3-8.2,7.5-8.2
			C122.1,254.5,125.1,257.8,125.1,262.8z M113.1,262.7c0,3.6,1.6,5.7,4.5,5.7c2.8,0,4.5-2.1,4.5-5.6c0-3.7-1.6-5.8-4.5-5.8
			C114.8,257,113.1,259.1,113.1,262.7z"/>
		<path class="st0" d="M139.3,270.5v-1.8c-1.5,1.6-2.8,2.2-4.9,2.2c-1.8,0-3.3-0.6-4.2-1.7c-0.7-1-1-2.1-1-3.9v-10.4h3v10.2
			c0,2.1,1,3.2,3,3.2c2.5,0,4.1-1.5,4.1-3.9v-9.4h3v15.6H139.3z"/>
		<path class="st0" d="M149.8,254.9v2.4c0.6-0.9,0.9-1.3,1.3-1.6c0.7-0.7,1.8-1.2,2.8-1.2c0.6,0,1.1,0.1,1.6,0.4v2.7
			c-0.6-0.1-0.9-0.2-1.4-0.2c-2.4,0-4.2,2.1-4.2,4.9v8.2h-3v-15.6H149.8z"/>
		<path class="st0" d="M167.6,259.7c-0.4-1.9-1.5-2.7-3.5-2.7c-1.8,0-3,0.7-3,1.8c0,0.8,0.5,1.3,1.8,1.6l3.6,0.9
			c3.3,0.8,4.6,2.2,4.6,4.6c0,3.1-2.5,5-6.5,5c-4.2,0-6.7-2.1-7.1-5.8h2.9c0.2,2.1,1.7,3.3,4.2,3.3c2.1,0,3.5-0.9,3.5-2.4
			c0-1-0.7-1.6-2.5-2.1l-3.1-0.8c-1.6-0.4-2.6-0.9-3.3-1.4c-0.7-0.6-1.2-1.6-1.2-2.7c0-2.7,2.5-4.6,6-4.6c2.2,0,4.1,0.7,5.2,2.1
			c0.7,0.8,1,1.7,1.1,3.1H167.6z"/>
		<path class="st0" d="M176.9,263.4c0.2,3.2,1.8,5,4.5,5c1.8,0,3.1-0.9,3.8-2.7h2.8c-0.7,3.3-3.2,5.2-6.7,5.2
			c-4.4,0-7.4-3.3-7.4-8.2c0-4.9,3-8.2,7.3-8.2c3.1,0,5.3,1.6,6.4,4.6c0.4,1.2,0.6,2.4,0.6,4.3H176.9z M185.2,261.3
			c-0.1-2.8-1.5-4.4-3.9-4.4c-2.4,0-4.2,1.8-4.3,4.4H185.2z"/>
		<path class="st0" d="M195.2,270.5h-3V249h3V270.5z"/>
		<path class="st0" d="M206.2,257.3h-2.7v13.2h-3v-13.2h-2.2v-2.4h2.2v-2.5c0-2.7,1.2-3.8,4.1-3.8c0.5,0,0.9,0,1.6,0.2v2.5
			c-0.5-0.1-0.8-0.1-1.1-0.1c-1.3,0-1.6,0.4-1.6,2.1v1.6h2.7V257.3z"/>
		<path class="st0" d="M212.4,270.5h-3.3v-3.2h3.3V270.5z"/>
		<path class="st0" d="M11.8,312l-5-12.9c-0.6-1.6-1.1-3.1-1.4-4.4c0.1,1.6,0.2,3.3,0.2,4.7V312H2.6v-21.5h3.8l5.3,13.7
			c0.7,1.9,0.8,2.1,1.3,3.8c0.6-1.9,0.9-2.6,1.3-3.7l5.3-13.7h3.8V312h-2.9v-12.6c0-1.5,0.1-3,0.2-4.7c-0.5,1.7-0.9,3-1.6,4.7
			L14.2,312H11.8z"/>
		<path class="st0" d="M30.8,304.9c0.2,3.2,1.8,5,4.5,5c1.8,0,3.1-0.9,3.8-2.7h2.8c-0.7,3.3-3.2,5.2-6.7,5.2c-4.4,0-7.4-3.3-7.4-8.2
			c0-4.9,3-8.2,7.3-8.2c3.1,0,5.3,1.6,6.4,4.6c0.4,1.2,0.6,2.4,0.6,4.3H30.8z M39,302.8c-0.1-2.8-1.5-4.4-3.9-4.4
			c-2.4,0-4.2,1.8-4.3,4.4H39z"/>
		<path class="st0" d="M48.3,304.9c0.2,3.2,1.8,5,4.5,5c1.8,0,3.1-0.9,3.8-2.7h2.8c-0.7,3.3-3.2,5.2-6.7,5.2c-4.4,0-7.4-3.3-7.4-8.2
			c0-4.9,3-8.2,7.3-8.2c3.1,0,5.3,1.6,6.4,4.6c0.4,1.2,0.6,2.4,0.6,4.3H48.3z M56.5,302.8c-0.1-2.8-1.5-4.4-3.9-4.4
			c-2.4,0-4.2,1.8-4.3,4.4H56.5z"/>
		<path class="st0" d="M69.8,298.8H67v9.8c0,0.9,0.4,1.4,1.2,1.4c0.4,0,0.8-0.1,1.6-0.4v2.4c-1.3,0.3-1.8,0.4-2.5,0.4
			c-2.2,0-3.3-1.2-3.3-3.8v-9.8H62v-2.4h2.1v-4.9h3v4.9h2.8V298.8z"/>
		<path class="st0" d="M83,301.6c0.1-1.8,0.5-2.9,1.3-3.8c1-1.1,2.9-1.8,5.1-1.8c3.9,0,6.1,1.8,6.1,5.1v7.3c0,1.2,0.2,1.5,0.8,1.5
			c0.3,0,0.4,0,0.8-0.2v2.3c-0.7,0.2-1.3,0.2-1.9,0.2c-1.4,0-2.1-0.6-2.3-2.1c-1.6,1.6-3.3,2.3-5.4,2.3c-3,0-5.1-1.9-5.1-4.6
			c0-2.5,1.5-4.1,4.7-4.7l3.4-0.7c1.9-0.4,2.3-0.6,2.3-1.6c0-1.5-1.3-2.4-3.4-2.4c-1.5,0-2.7,0.5-3.1,1.3c-0.2,0.4-0.3,0.8-0.4,1.9
			H83z M92.7,304c-0.5,0.2-1.1,0.4-1.8,0.6l-3,0.7c-1.8,0.4-2.6,1.2-2.6,2.4c0,1.4,1.2,2.4,2.9,2.4c2.5,0,4.6-1.8,4.6-4.1V304z"/>
		<path class="st0" d="M113.3,296.4v1.8c1.5-1.6,2.8-2.2,4.9-2.2c1.8,0,3.3,0.6,4.2,1.7c0.7,1,1,2.1,1,3.9V312h-3v-10.2
			c0-2.1-1-3.2-3-3.2c-2.5,0-4.1,1.5-4.1,3.9v9.4h-3v-15.6H113.3z"/>
		<path class="st0" d="M130.5,304.9c0.2,3.2,1.8,5,4.5,5c1.8,0,3.1-0.9,3.8-2.7h2.8c-0.7,3.3-3.2,5.2-6.7,5.2
			c-4.4,0-7.4-3.3-7.4-8.2c0-4.9,3-8.2,7.3-8.2c3.1,0,5.3,1.6,6.4,4.6c0.4,1.2,0.6,2.4,0.6,4.3H130.5z M138.7,302.8
			c-0.1-2.8-1.5-4.4-3.9-4.4c-2.4,0-4.2,1.8-4.3,4.4H138.7z"/>
		<path class="st0" d="M148.5,312l-4.7-15.6h3.1l2.3,8.1c0.1,0.3,0.1,0.5,0.6,2.4c0.1,0.3,0.1,0.5,0.4,1.9c0.2-0.6,0.3-1.3,0.4-1.9
			c0.1-0.5,0.2-1.1,0.3-1.1l0.3-1.3l2.1-8.1h2.8l2.2,8c0.3,1.2,0.7,3.1,0.9,4.3c0.5-2.3,0.7-3.3,1-4.3l2.2-8h3.1l-4.7,15.6h-3
			l-2-7.2c-0.5-1.8-0.7-2.8-1-4l-1,4l-1.9,7.2H148.5z"/>
		<path class="st0" d="M191.2,296.4l-6.9,17.4c-0.9,2.2-2,3.1-3.9,3.1c-0.8,0-1.4-0.1-2.4-0.5V314c0.9,0.4,1.3,0.4,1.9,0.4
			c1.1,0,1.7-0.5,2.2-1.6l0.4-1.2l-6.4-15.2h3.2l3.4,8.9c0.5,1.4,0.6,1.6,1.2,3.3c0.4-1.2,0.9-2.8,1.1-3.3l3.2-8.9H191.2z"/>
		<path class="st0" d="M208.2,304.3c0,4.8-3.1,8.1-7.5,8.1c-4.4,0-7.5-3.3-7.5-8.2c0-4.9,3-8.2,7.5-8.2
			C205.3,296,208.2,299.3,208.2,304.3z M196.2,304.2c0,3.6,1.6,5.7,4.5,5.7c2.8,0,4.5-2.1,4.5-5.6c0-3.7-1.6-5.8-4.5-5.8
			C197.9,298.5,196.2,300.6,196.2,304.2z"/>
		<path class="st0" d="M222.4,312v-1.8c-1.5,1.6-2.8,2.2-4.9,2.2c-1.8,0-3.3-0.6-4.2-1.7c-0.7-1-1-2.1-1-3.9v-10.4h3v10.2
			c0,2.1,1,3.2,3,3.2c2.5,0,4.1-1.5,4.1-3.9v-9.4h3V312H222.4z"/>
		<path class="st0" d="M242.8,312l-4.7-15.6h3.1l2.3,8.1c0.1,0.3,0.1,0.5,0.6,2.4c0.1,0.3,0.1,0.5,0.4,1.9c0.2-0.6,0.3-1.3,0.4-1.9
			c0.1-0.5,0.2-1.1,0.3-1.1l0.3-1.3l2.1-8.1h2.8l2.2,8c0.3,1.2,0.7,3.1,0.9,4.3c0.5-2.3,0.7-3.3,1-4.3l2.2-8h3.1l-4.7,15.6h-3
			l-2-7.2c-0.5-1.8-0.7-2.8-1-4l-1,4L246,312H242.8z"/>
		<path class="st0" d="M265.3,294h-3v-3.4h3V294z M265.3,312h-3v-15.6h3V312z"/>
		<path class="st0" d="M276.3,298.8h-2.8v9.8c0,0.9,0.4,1.4,1.2,1.4c0.4,0,0.8-0.1,1.6-0.4v2.4c-1.3,0.3-1.8,0.4-2.5,0.4
			c-2.2,0-3.3-1.2-3.3-3.8v-9.8h-2.1v-2.4h2.1v-4.9h3v4.9h2.8V298.8z"/>
		<path class="st0" d="M282.3,297.8c1.5-1.3,2.8-1.8,4.6-1.8c1.9,0,3.4,0.6,4.4,1.8c0.7,0.9,1,2,1,3.8V312h-3v-9.9
			c0-1.3-0.2-2-0.6-2.5c-0.5-0.6-1.4-0.9-2.4-0.9c-2.6,0-4.1,1.5-4.1,4.2v9.2h-3v-21.5h3V297.8z"/>
		<path class="st0" d="M310.3,296.3v1.7c1.4-1.4,2.8-2,4.7-2c4.2,0,6.9,3.3,6.9,8.3c0,4.9-2.6,8.1-6.6,8.1c-2.1,0-3.8-0.7-5-2.2v6.7
			h-3v-20.6H310.3z M310.2,304.1c0,3.8,1.5,5.8,4.4,5.8c2.8,0,4.4-2.1,4.4-5.7c0-3.7-1.6-5.7-4.4-5.7S310.2,300.5,310.2,304.1z"/>
		<path class="st0" d="M328.1,304.9c0.2,3.2,1.8,5,4.5,5c1.8,0,3.1-0.9,3.8-2.7h2.8c-0.7,3.3-3.2,5.2-6.7,5.2
			c-4.4,0-7.4-3.3-7.4-8.2c0-4.9,3-8.2,7.3-8.2c3.1,0,5.3,1.6,6.4,4.6c0.4,1.2,0.6,2.4,0.6,4.3H328.1z M336.4,302.8
			c-0.1-2.8-1.5-4.4-3.9-4.4c-2.4,0-4.2,1.8-4.3,4.4H336.4z"/>
		<path class="st0" d="M346.3,296.4v2.4c0.6-0.9,0.9-1.3,1.3-1.6c0.7-0.7,1.8-1.2,2.8-1.2c0.6,0,1.1,0.1,1.6,0.4v2.7
			c-0.6-0.1-0.9-0.2-1.4-0.2c-2.4,0-4.2,2.1-4.2,4.9v8.2h-3v-15.6H346.3z"/>
		<path class="st0" d="M364.1,301.2c-0.4-1.9-1.5-2.7-3.5-2.7c-1.8,0-3,0.7-3,1.8c0,0.8,0.5,1.3,1.8,1.6l3.6,0.9
			c3.3,0.8,4.6,2.2,4.6,4.6c0,3.1-2.5,5-6.5,5c-4.2,0-6.7-2.1-7.1-5.8h2.9c0.2,2.1,1.7,3.3,4.2,3.3c2.1,0,3.5-0.9,3.5-2.4
			c0-1-0.7-1.6-2.5-2.1l-3.1-0.8c-1.6-0.4-2.6-0.9-3.3-1.4c-0.7-0.6-1.2-1.6-1.2-2.7c0-2.7,2.5-4.6,6-4.6c2.2,0,4.1,0.7,5.2,2.1
			c0.7,0.8,1,1.7,1.1,3.1H364.1z"/>
		<path class="st0" d="M373.5,304.9c0.2,3.2,1.8,5,4.5,5c1.8,0,3.1-0.9,3.8-2.7h2.8c-0.7,3.3-3.2,5.2-6.7,5.2
			c-4.4,0-7.4-3.3-7.4-8.2c0-4.9,3-8.2,7.3-8.2c3.1,0,5.3,1.6,6.4,4.6c0.4,1.2,0.6,2.4,0.6,4.3H373.5z M381.7,302.8
			c-0.1-2.8-1.5-4.4-3.9-4.4c-2.4,0-4.2,1.8-4.3,4.4H381.7z"/>
		<path class="st0" d="M392.1,312h-3.3v-3.2h3.3V312z"/>
	</g>
</g>
</svg>
