<?xml version="1.0" encoding="utf-8"?>
<!-- Generator: Adobe Illustrator 25.4.1, SVG Export Plug-In . SVG Version: 6.00 Build 0)  -->
<svg version="1.1" id="レイヤー_1" xmlns="http://www.w3.org/2000/svg" xmlns:xlink="http://www.w3.org/1999/xlink" x="0px"
	 y="0px" viewBox="0 0 57 52" style="enable-background:new 0 0 57 52;" xml:space="preserve">
<style type="text/css">
	.st0{fill:#DFD032;}
</style>
<g>
	<path class="st0" d="M4.5,2.3L7.1,0L5.8,2.9l3,1.4L8.7,4.5l-3-1.4l-3.9,8.8c-0.2,0.4-0.3,0.8-0.4,1.2s-0.1,0.6-0.1,0.8
		c0,0.2,0.1,0.4,0.2,0.5c0.1,0.1,0.3,0.2,0.5,0.3c0.4,0.2,0.7,0.2,1.1,0.1c0.3-0.1,0.7-0.3,1.1-0.6l0.2,0.3C3.8,14.8,3.4,15,3,15.1
		s-0.9,0.1-1.4-0.2c-0.9-0.4-1.3-0.9-1.4-1.6s0.1-1.6,0.5-2.6l3.7-8.2L2.5,1.7l0.1-0.2L4.5,2.3z"/>
	<path class="st0" d="M15.1,7.4c0.7,0.4,1.3,0.8,1.7,1.3s0.7,1.1,0.8,1.6c0.1,0.6,0.1,1.2,0,1.9c-0.1,0.6-0.4,1.3-0.7,2l-7.4-4
		c-0.1,0.2-0.3,0.4-0.4,0.6c-0.1,0.2-0.2,0.4-0.4,0.6c-0.4,0.7-0.7,1.5-0.9,2.2c-0.2,0.7-0.2,1.4-0.2,2.1c0.1,0.6,0.3,1.2,0.6,1.7
		c0.3,0.5,0.7,0.9,1.2,1.2c0.5,0.3,1,0.4,1.4,0.4c0.5,0,1-0.1,1.5-0.2c0.5-0.2,1-0.4,1.5-0.8s1-0.8,1.5-1.3l-1.7,2.8
		c-0.8,0.2-1.6,0.2-2.4,0.1c-0.8-0.1-1.5-0.4-2.1-0.7C8.6,18.5,8,18,7.5,17.4c-0.5-0.6-0.8-1.3-1-2c-0.2-0.7-0.2-1.5-0.1-2.3
		c0.1-0.8,0.4-1.7,0.9-2.5c0.4-0.8,1-1.5,1.6-2.1c0.6-0.6,1.2-1,1.9-1.3c0.7-0.3,1.4-0.4,2.1-0.4C13.6,6.8,14.4,7,15.1,7.4z
		 M9.6,9.9l6,3.3c0.3-0.6,0.5-1.2,0.7-1.7c0.1-0.6,0.2-1.1,0.1-1.6c0-0.5-0.2-0.9-0.4-1.3c-0.2-0.4-0.6-0.7-1-1
		c-0.4-0.2-0.9-0.3-1.3-0.3c-0.5,0-0.9,0.1-1.4,0.3c-0.5,0.2-0.9,0.5-1.4,0.9C10.4,8.9,10,9.4,9.6,9.9z"/>
	<path class="st0" d="M13.7,21.2c0.1,0,0.4-0.1,0.8-0.1c0.4-0.1,1-0.2,1.7-0.5l5-2l0.1-5.3c0-0.7,0-1.3,0-1.7c0-0.4-0.1-0.6-0.2-0.8
		l2.2,1.5c-0.1,0-0.3,0.1-0.4,0.3c-0.2,0.1-0.2,0.5-0.2,0.9l-0.1,4.6l3.5-1.3c0.5-0.2,0.9-0.4,1.1-0.6c0.2-0.2,0.4-0.3,0.5-0.5
		c0.1-0.1,0.1-0.3,0.1-0.4c0-0.1,0-0.2,0-0.2l1.7,1.1c-0.2,0-0.5,0-0.9,0c-0.4,0-1,0.2-1.7,0.5l-4.1,1.6l-0.1,6.2c0,0.6,0,1.1,0,1.4
		c0,0.4,0.1,0.7,0.2,1l-2.2-1.5c0.1,0,0.1,0,0.2,0c0.1,0,0.1-0.1,0.2-0.1c0.1-0.1,0.1-0.2,0.2-0.4c0-0.2,0.1-0.4,0.1-0.7l0.1-5.5
		l-4.3,1.7c-0.5,0.2-0.9,0.4-1.1,0.6c-0.2,0.2-0.4,0.3-0.5,0.5c-0.1,0.1-0.1,0.3,0,0.4c0,0.1,0.1,0.2,0.1,0.2L13.7,21.2z"/>
	<path class="st0" d="M32.2,18.6l3-1.6l-1.9,2.5l2.6,2l-0.2,0.2l-2.6-2l-5.9,7.6c-0.3,0.4-0.5,0.7-0.7,1c-0.2,0.3-0.2,0.6-0.3,0.8
		c0,0.2,0,0.4,0.1,0.6c0.1,0.2,0.2,0.3,0.4,0.4c0.3,0.2,0.6,0.3,1,0.3c0.4,0,0.8-0.2,1.2-0.4l0.1,0.3c-0.5,0.2-1,0.3-1.4,0.4
		s-0.9-0.1-1.3-0.5c-0.7-0.6-1.1-1.2-1-1.9c0.1-0.7,0.4-1.5,1.1-2.4l5.5-7.1l-1.6-1.2l0.2-0.2L32.2,18.6z"/>
	<path class="st0" d="M37.2,22.6l1.7,1.2l-6.1,6.7c-0.4,0.5-0.7,0.9-1,1.3c-0.2,0.4-0.3,0.8-0.3,1.1c0,0.4,0,0.7,0.2,1
		c0.2,0.3,0.4,0.6,0.6,0.8c0.4,0.4,0.9,0.6,1.5,0.7c0.5,0.1,1.1,0,1.6-0.1c0.5-0.2,1.1-0.4,1.6-0.7c0.5-0.3,1-0.7,1.3-1.1l3.4-3.7
		c0.2-0.2,0.4-0.4,0.5-0.6c0.1-0.2,0.3-0.4,0.3-0.5c0.1-0.2,0.2-0.3,0.2-0.5c0-0.2,0.1-0.3,0.1-0.5l1.7,1.2l-7.1,7.8
		c-0.4,0.5-0.7,0.9-0.9,1.2c-0.1,0.3-0.2,0.6-0.2,0.9l-1.5-1.3l2.3-2.5c-0.5,0.3-1,0.5-1.4,0.6c-0.5,0.2-0.9,0.2-1.3,0.2
		c-0.4,0-0.8-0.1-1.3-0.2c-0.4-0.2-0.8-0.4-1.2-0.8c-0.9-0.8-1.3-1.6-1.4-2.6c-0.1-0.9,0.3-1.9,1.2-2.9l4.3-4.7
		c0.2-0.2,0.4-0.4,0.5-0.6c0.1-0.2,0.3-0.4,0.3-0.5c0.1-0.2,0.2-0.3,0.2-0.5C37.2,22.9,37.2,22.8,37.2,22.6z"/>
	<path class="st0" d="M37.1,39.5c0.2,0.1,0.4,0.2,0.5,0.2c0.2,0,0.3,0,0.5,0c0.2,0,0.3-0.1,0.5-0.3c0.2-0.1,0.4-0.3,0.6-0.5l6-5.7
		c0.2-0.2,0.4-0.4,0.6-0.6s0.3-0.3,0.4-0.5s0.2-0.3,0.2-0.5c0.1-0.2,0.1-0.3,0.1-0.5l1.5,1.3l-2.2,2.1c0.4-0.2,0.8-0.3,1.2-0.4
		c0.4-0.1,0.8-0.1,1.2-0.1c0.4,0,0.7,0.1,1.1,0.2c0.4,0.2,0.7,0.4,1,0.7c0.3,0.3,0.5,0.6,0.7,0.9l-1.6,1.5c0-0.2,0.1-0.4,0.1-0.7
		c0-0.2,0-0.5,0-0.7c0-0.2-0.1-0.5-0.1-0.7c-0.1-0.2-0.2-0.4-0.3-0.6c-0.2-0.2-0.4-0.3-0.7-0.4c-0.3-0.1-0.6-0.1-0.9-0.1
		c-0.3,0-0.6,0.1-1,0.2s-0.7,0.3-1.1,0.4l-5.3,5c-0.2,0.2-0.4,0.4-0.5,0.6c-0.1,0.2-0.2,0.3-0.3,0.5c-0.1,0.2-0.1,0.3,0,0.5
		c0,0.2,0.1,0.3,0.2,0.5L37.1,39.5z"/>
	<path class="st0" d="M55.7,41.3c0.5,0.6,0.9,1.2,1,1.9c0.2,0.6,0.2,1.2,0.1,1.8c-0.1,0.6-0.4,1.2-0.7,1.7c-0.4,0.5-0.8,1.1-1.4,1.5
		l-5.3-6.6c-0.2,0.1-0.4,0.2-0.6,0.4c-0.2,0.1-0.4,0.3-0.6,0.4c-0.7,0.5-1.2,1.1-1.7,1.7c-0.4,0.6-0.8,1.3-0.9,1.9s-0.2,1.2-0.1,1.8
		c0.1,0.6,0.3,1.1,0.7,1.6c0.3,0.4,0.7,0.7,1.2,0.9s0.9,0.3,1.5,0.3c0.5,0,1.1,0,1.7-0.2c0.6-0.1,1.3-0.3,1.9-0.6L49.9,52
		c-0.8-0.1-1.5-0.4-2.2-0.8c-0.7-0.4-1.2-0.9-1.7-1.5c-0.5-0.7-0.9-1.4-1.1-2.1c-0.2-0.7-0.3-1.5-0.2-2.2c0.1-0.7,0.4-1.5,0.8-2.2
		c0.4-0.7,1-1.4,1.8-2c0.7-0.6,1.5-1,2.2-1.3c0.8-0.3,1.5-0.5,2.3-0.5c0.7,0,1.5,0.2,2.1,0.5C54.6,40.2,55.2,40.6,55.7,41.3z
		 M49.6,41.5l4.3,5.3c0.5-0.4,0.9-0.9,1.3-1.3c0.3-0.5,0.6-0.9,0.7-1.4c0.2-0.5,0.2-0.9,0.1-1.4c-0.1-0.5-0.3-0.9-0.6-1.3
		c-0.3-0.4-0.7-0.6-1.1-0.8c-0.4-0.2-0.9-0.2-1.4-0.2c-0.5,0-1.1,0.1-1.6,0.3C50.8,40.9,50.2,41.2,49.6,41.5z"/>
</g>
</svg>
