<?xml version="1.0" encoding="utf-8"?>
<!-- Generator: Adobe Illustrator 25.4.1, SVG Export Plug-In . SVG Version: 6.00 Build 0)  -->
<svg version="1.1" id="レイヤー_1" xmlns="http://www.w3.org/2000/svg" xmlns:xlink="http://www.w3.org/1999/xlink" x="0px"
	 y="0px" viewBox="0 0 419 82" style="enable-background:new 0 0 419 82;" xml:space="preserve">
<style type="text/css">
	.st0{fill:#E0A7B0;}
</style>
<g>
	<path class="st0" d="M36.4,12.2h-1.7l2.3-10.6h-3.6l0.3-1.5h8.8l-0.3,1.5h-3.5L36.4,12.2z"/>
	<path class="st0" d="M50.8,7c0,1.5-0.6,2.9-1.6,4c-0.9,1-2,1.5-3.3,1.5c-2.3,0-3.7-1.5-3.7-3.8c0-3,2.2-5.4,4.9-5.4
		C49.4,3.2,50.8,4.7,50.8,7z M43.9,8.6c0,1.5,0.8,2.5,2,2.5c0.7,0,1.5-0.4,2-1c0.7-0.8,1.1-2,1.1-3c0-1.5-0.7-2.4-2-2.4
		C45.3,4.6,43.9,6.4,43.9,8.6z"/>
	<path class="st0" d="M55.8,3.5l-0.3,1.2c1.1-1,2-1.4,3-1.4c1.1,0,1.9,0.5,2,1.6c0.9-1,2-1.6,3.1-1.6c1.3,0,2.2,0.8,2.2,2
		c0,0.3-0.1,0.7-0.2,1.3l-1.2,5.7h-1.7l1.2-5.5c0.2-0.7,0.2-0.9,0.2-1.1c0-0.6-0.4-1-1-1c-1.4,0-2.5,1.2-2.9,3l-1,4.6h-1.7l1.2-5.5
		c0.1-0.6,0.2-0.8,0.2-1.1c0-0.6-0.3-1-0.9-1c-0.7,0-1.5,0.4-2,1.1c-0.5,0.6-0.8,1.4-1,2.5l-0.8,4h-1.7l1.9-8.8H55.8z"/>
	<path class="st0" d="M76.5,7c0,1.5-0.6,2.9-1.6,4c-0.9,1-2,1.5-3.3,1.5c-2.3,0-3.7-1.5-3.7-3.8c0-3,2.2-5.4,4.9-5.4
		C75.1,3.2,76.5,4.7,76.5,7z M69.7,8.6c0,1.5,0.8,2.5,2,2.5c0.7,0,1.5-0.4,2-1c0.7-0.8,1.1-2,1.1-3c0-1.5-0.7-2.4-2-2.4
		C71,4.6,69.7,6.4,69.7,8.6z"/>
	<path class="st0" d="M81.6,3.3l-0.4,1.9c0.8-1.4,1.5-1.9,2.4-1.9c0.3,0,0.6,0.1,1,0.3L84.2,5c-0.4-0.1-0.6-0.1-0.9-0.1
		c-0.6,0-1.2,0.3-1.7,0.8c-0.4,0.5-0.7,1-0.9,2.1l-0.9,4.5h-1.7l1.9-9H81.6z"/>
	<path class="st0" d="M88.4,3.3L88,5.1c0.8-1.4,1.5-1.9,2.4-1.9c0.3,0,0.6,0.1,1,0.3L91,5c-0.4-0.1-0.6-0.1-0.9-0.1
		c-0.6,0-1.2,0.3-1.7,0.8c-0.4,0.5-0.7,1-0.9,2.1l-0.9,4.5H85l1.9-9H88.4z"/>
	<path class="st0" d="M100.7,7c0,1.5-0.6,2.9-1.6,4c-0.9,1-2,1.5-3.3,1.5c-2.3,0-3.7-1.5-3.7-3.8c0-3,2.2-5.4,4.9-5.4
		C99.3,3.2,100.7,4.7,100.7,7z M93.8,8.6c0,1.5,0.8,2.5,2,2.5c0.7,0,1.5-0.4,2-1C98.5,9.3,99,8,99,7c0-1.5-0.7-2.4-2-2.4
		C95.2,4.6,93.8,6.4,93.8,8.6z"/>
	<path class="st0" d="M104,12.2l-1.1-8.8h1.7l0.4,5c0,0.5,0.1,1.2,0.1,1.4c0,0.2,0,0.3,0,0.6c0.3-0.8,0.4-1.3,0.8-2.2l2.2-4.8h1.7
		l0.3,5c0,0.5,0,0.8,0,1.1c0,0.2,0,0.2,0,1c0.3-0.9,0.5-1.4,0.8-2.1l2.4-5h1.8l-4.6,8.8h-1.6l-0.3-5c0-0.3,0-0.9,0-1.1V5.5V5.2
		c-0.3,1-0.4,1.3-0.8,2l-2.3,5H104z"/>
	<path class="st0" d="M117.6,10.3l-0.3,1.4c-0.4,1.9-1.2,2.9-2.5,3.1l0.2-1c0.6-0.2,0.9-0.6,1.2-1.5h-0.9l0.4-1.9H117.6z"/>
	<path class="st0" d="M131,12.2h-1.7l1-4.7l-2.7-7.4h2l1.9,5.9l4-5.9h2.1l-5.5,7.7L131,12.2z"/>
	<path class="st0" d="M145.8,7c0,1.5-0.6,2.9-1.6,4c-0.9,1-2,1.5-3.3,1.5c-2.3,0-3.7-1.5-3.7-3.8c0-3,2.2-5.4,4.9-5.4
		C144.4,3.2,145.8,4.7,145.8,7z M139,8.6c0,1.5,0.8,2.5,2,2.5c0.7,0,1.5-0.4,2-1c0.7-0.8,1.1-2,1.1-3c0-1.5-0.7-2.4-2-2.4
		C140.4,4.6,139,6.4,139,8.6z"/>
	<path class="st0" d="M154.5,12.2H153l0.3-1.4c-1,1.2-1.8,1.7-3,1.7c-1.4,0-2.3-0.9-2.3-2.1c0-0.3,0.1-1,0.2-1.6l1.1-5.3h1.7
		l-1.2,5.6c-0.1,0.3-0.1,0.7-0.1,1c0,0.6,0.4,1,1.1,1c0.7,0,1.6-0.5,2.2-1.2c0.5-0.6,0.7-1.2,1-2.4l0.9-4h1.7L154.5,12.2z"/>
	<path class="st0" d="M165.5,12.2l-1.1-8.8h1.7l0.4,5c0,0.5,0.1,1.2,0.1,1.4c0,0.2,0,0.3,0,0.6c0.3-0.8,0.4-1.3,0.8-2.2l2.2-4.8h1.7
		l0.3,5c0,0.5,0,0.8,0,1.1c0,0.2,0,0.2,0,1c0.3-0.9,0.5-1.4,0.8-2.1l2.4-5h1.8l-4.6,8.8h-1.6l-0.3-5c0-0.3,0-0.9,0-1.1V5.5V5.2
		c-0.3,1-0.4,1.3-0.8,2l-2.3,5H165.5z"/>
	<path class="st0" d="M178.5,12.2h-1.7l1.9-8.8h1.7L178.5,12.2z M180.7,1.9H179l0.4-1.8h1.7L180.7,1.9z"/>
	<path class="st0" d="M183.4,12.2h-1.7l2.6-12.1h1.7L183.4,12.2z"/>
	<path class="st0" d="M188.2,12.2h-1.7l2.6-12.1h1.7L188.2,12.2z"/>
	<path class="st0" d="M201.7,0.1l-0.9,4.1c0.8-0.7,1.5-1,2.4-1c1.9,0,3.1,1.5,3.1,3.6c0,1.4-0.5,2.9-1.3,4c-0.8,1.1-1.9,1.7-3.2,1.7
		s-2.1-0.5-2.6-1.5l-0.3,1.2h-1.5l2.6-12.1H201.7z M199.8,8.9c0,1.3,0.7,2.2,1.9,2.2c0.7,0,1.4-0.4,1.9-1c0.6-0.8,1.1-2.1,1.1-3.1
		c0-1.5-0.7-2.4-1.9-2.4C201.2,4.6,199.8,6.6,199.8,8.9z"/>
	<path class="st0" d="M210.1,8.3c0,0.3-0.1,0.4-0.1,0.6c0,1.4,0.8,2.2,2.1,2.2c1,0,1.8-0.5,2.3-1.3h1.7c-0.9,1.9-2.2,2.7-4.1,2.7
		c-2.2,0-3.6-1.4-3.6-3.8c0-1.5,0.5-2.9,1.4-4c0.8-1,2-1.6,3.4-1.6c2.1,0,3.5,1.4,3.5,3.5c0,0.5-0.1,0.9-0.2,1.6H210.1z M215.1,6.5
		c0-1.2-0.7-1.9-2-1.9c-1.4,0-2.3,0.8-2.8,2.4h4.7L215.1,6.5z"/>
	<path class="st0" d="M228.8,0.1l-0.9,4.1c0.8-0.7,1.5-1,2.4-1c1.9,0,3.1,1.5,3.1,3.6c0,1.4-0.5,2.9-1.3,4c-0.8,1.1-1.9,1.7-3.2,1.7
		s-2.1-0.5-2.6-1.5l-0.3,1.2h-1.5l2.6-12.1H228.8z M226.9,8.9c0,1.3,0.7,2.2,1.9,2.2c0.7,0,1.4-0.4,1.9-1c0.6-0.8,1.1-2.1,1.1-3.1
		c0-1.5-0.7-2.4-1.9-2.4C228.2,4.6,226.9,6.6,226.9,8.9z"/>
	<path class="st0" d="M237.1,8.3c0,0.3-0.1,0.4-0.1,0.6c0,1.4,0.8,2.2,2.1,2.2c1,0,1.8-0.5,2.3-1.3h1.7c-0.9,1.9-2.2,2.7-4.1,2.7
		c-2.2,0-3.6-1.4-3.6-3.8c0-1.5,0.5-2.9,1.4-4c0.8-1,2-1.6,3.4-1.6c2.1,0,3.5,1.4,3.5,3.5c0,0.5-0.1,0.9-0.2,1.6H237.1z M242.2,6.5
		c0-1.2-0.7-1.9-2-1.9c-1.4,0-2.3,0.8-2.8,2.4h4.7L242.2,6.5z"/>
	<path class="st0" d="M250.2,4.7h-1.3l-1.1,5c-0.1,0.5-0.1,0.5-0.1,0.6c0,0.4,0.2,0.5,0.7,0.5c0.3,0,0.5,0,0.8-0.1l-0.3,1.4
		c-0.4,0.1-0.7,0.2-1,0.2c-1.1,0-1.9-0.6-1.9-1.4c0-0.2,0.1-0.7,0.1-0.9l1.1-5.2h-1.3l0.3-1.2h1.3l0.5-2.6h1.7l-0.5,2.6h1.3
		L250.2,4.7z"/>
	<path class="st0" d="M255.8,4.7h-1.3l-1.1,5c-0.1,0.5-0.1,0.5-0.1,0.6c0,0.4,0.2,0.5,0.7,0.5c0.3,0,0.5,0,0.8-0.1l-0.3,1.4
		c-0.4,0.1-0.7,0.2-1,0.2c-1.1,0-1.9-0.6-1.9-1.4c0-0.2,0.1-0.7,0.1-0.9l1.1-5.2h-1.3l0.3-1.2h1.3l0.5-2.6h1.7l-0.5,2.6h1.3
		L255.8,4.7z"/>
	<path class="st0" d="M258.5,8.3c0,0.3-0.1,0.4-0.1,0.6c0,1.4,0.8,2.2,2.1,2.2c1,0,1.8-0.5,2.3-1.3h1.7c-0.9,1.9-2.2,2.7-4.1,2.7
		c-2.2,0-3.6-1.4-3.6-3.8c0-1.5,0.5-2.9,1.4-4c0.8-1,2-1.6,3.4-1.6c2.1,0,3.5,1.4,3.5,3.5c0,0.5-0.1,0.9-0.2,1.6H258.5z M263.6,6.5
		c0-1.2-0.7-1.9-2-1.9c-1.4,0-2.3,0.8-2.8,2.4h4.7L263.6,6.5z"/>
	<path class="st0" d="M270.2,3.3l-0.4,1.9c0.8-1.4,1.5-1.9,2.4-1.9c0.3,0,0.6,0.1,1,0.3L272.8,5c-0.4-0.1-0.6-0.1-0.9-0.1
		c-0.6,0-1.2,0.3-1.7,0.8c-0.4,0.5-0.7,1-0.9,2.1l-0.9,4.5h-1.7l1.9-9H270.2z"/>
	<path class="st0" d="M284.6,4.7h-1.3l-1.1,5c-0.1,0.5-0.1,0.5-0.1,0.6c0,0.4,0.2,0.5,0.7,0.5c0.3,0,0.5,0,0.8-0.1l-0.3,1.4
		c-0.4,0.1-0.7,0.2-1,0.2c-1.1,0-1.9-0.6-1.9-1.4c0-0.2,0.1-0.7,0.1-0.9l1.1-5.2h-1.3l0.3-1.2h1.3l0.5-2.6h1.7l-0.5,2.6h1.3
		L284.6,4.7z"/>
	<path class="st0" d="M289.6,0.1l-0.9,4.4c1.1-0.9,1.8-1.3,2.8-1.3c1.3,0,2.3,0.8,2.3,2c0,0.3-0.1,0.8-0.2,1.3l-1.2,5.6h-1.7
		l1.2-5.6c0.1-0.5,0.1-0.8,0.1-1c0-0.6-0.4-0.9-1.1-0.9c-1.4,0-2.6,1.2-3,3l-1,4.6h-1.7l2.6-12.1H289.6z"/>
	<path class="st0" d="M296.6,5.9c0.5-1.8,1.8-2.7,3.9-2.7c1.8,0,2.9,0.8,2.9,2c0,0.2-0.1,0.9-0.2,1.3l-0.7,3.1
		c-0.1,0.6-0.1,0.7-0.1,0.9c0,0.5,0.2,0.6,0.7,0.6h0.3l-0.3,1.3h-0.6c-0.9,0-1.3-0.3-1.3-1.1c-0.7,0.8-1.5,1.2-2.7,1.2
		c-0.9,0-1.6-0.2-2.1-0.7c-0.5-0.5-0.8-1.3-0.8-2c0-0.8,0.3-1.6,0.9-2c0.5-0.5,1.3-0.7,2.5-0.8l1.4-0.1c0.7-0.1,0.9-0.1,1.1-0.4
		c0.2-0.2,0.3-0.6,0.3-1c0-0.7-0.5-1-1.5-1c-1.3,0-1.9,0.4-2.3,1.4H296.6z M301.5,8c-0.2,0-0.3,0.1-0.5,0.1c-0.1,0-0.3,0-0.5,0.1
		l-0.4,0l-1,0.1c-1.1,0.1-1.7,0.6-1.7,1.5c0,0.8,0.5,1.3,1.4,1.3c0.7,0,1.5-0.4,1.9-0.9c0.3-0.4,0.5-1,0.7-1.9L301.5,8z"/>
	<path class="st0" d="M308.7,3.5l-0.3,1.2c1-1,1.9-1.4,2.9-1.4c1.4,0,2.4,0.8,2.4,2.1c0,0.3,0,0.7-0.1,1.2l-1.2,5.7h-1.7l1.2-5.6
		C312,6,312,5.9,312,5.7c0-0.7-0.4-1-1-1c-0.6,0-1.2,0.3-1.8,0.7c-0.7,0.6-1,1.3-1.3,2.4l-0.9,4.5h-1.7l1.9-8.8H308.7z"/>
	<path class="st0" d="M330.2,3.5l-5.4,10.3c-0.7,1.3-1.2,1.5-2.7,1.5h-1l0.3-1.3h0.6c0.9,0,1.1-0.1,1.6-1.1l0.3-0.5l-1.5-8.9h1.7
		l0.6,4.4c0.1,0.5,0.2,1.7,0.2,2.8c0.3-0.6,0.7-1.6,1.2-2.5l2.3-4.6H330.2z"/>
	<path class="st0" d="M339.4,7c0,1.5-0.6,2.9-1.6,4c-0.9,1-2,1.5-3.3,1.5c-2.3,0-3.7-1.5-3.7-3.8c0-3,2.2-5.4,4.9-5.4
		C338,3.2,339.4,4.7,339.4,7z M332.5,8.6c0,1.5,0.8,2.5,2,2.5c0.7,0,1.5-0.4,2-1c0.7-0.8,1.1-2,1.1-3c0-1.5-0.7-2.4-2-2.4
		C333.9,4.6,332.5,6.4,332.5,8.6z"/>
	<path class="st0" d="M348.1,12.2h-1.5l0.3-1.4c-1,1.2-1.8,1.7-3,1.7c-1.4,0-2.3-0.9-2.3-2.1c0-0.3,0.1-1,0.2-1.6l1.1-5.3h1.7
		l-1.2,5.6c-0.1,0.3-0.1,0.7-0.1,1c0,0.6,0.4,1,1.1,1c0.7,0,1.6-0.5,2.2-1.2c0.5-0.6,0.7-1.2,1-2.4l0.9-4h1.7L348.1,12.2z"/>
	<path class="st0" d="M358.5,5.9c0.5-1.8,1.8-2.7,3.9-2.7c1.8,0,2.9,0.8,2.9,2c0,0.2-0.1,0.9-0.2,1.3l-0.7,3.1
		c-0.1,0.6-0.1,0.7-0.1,0.9c0,0.5,0.2,0.6,0.7,0.6h0.3l-0.3,1.3h-0.6c-0.9,0-1.3-0.3-1.3-1.1c-0.7,0.8-1.5,1.2-2.7,1.2
		c-0.9,0-1.6-0.2-2.1-0.7c-0.5-0.5-0.8-1.3-0.8-2c0-0.8,0.3-1.6,0.9-2c0.5-0.5,1.3-0.7,2.5-0.8l1.4-0.1c0.7-0.1,0.9-0.1,1.1-0.4
		c0.2-0.2,0.3-0.6,0.3-1c0-0.7-0.5-1-1.5-1c-1.3,0-1.9,0.4-2.3,1.4H358.5z M363.4,8c-0.2,0-0.3,0.1-0.5,0.1c-0.1,0-0.3,0-0.5,0.1
		l-0.4,0l-1,0.1c-1.1,0.1-1.7,0.6-1.7,1.5c0,0.8,0.5,1.3,1.4,1.3c0.7,0,1.5-0.4,1.9-0.9c0.3-0.4,0.5-1,0.7-1.9L363.4,8z"/>
	<path class="st0" d="M370.7,3.3l-0.4,1.9c0.8-1.4,1.5-1.9,2.4-1.9c0.3,0,0.6,0.1,1,0.3L373.3,5c-0.4-0.1-0.6-0.1-0.9-0.1
		c-0.6,0-1.2,0.3-1.7,0.8c-0.4,0.5-0.7,1-0.9,2.1l-0.9,4.5h-1.7l1.9-9H370.7z"/>
	<path class="st0" d="M376.1,8.3c0,0.3-0.1,0.4-0.1,0.6c0,1.4,0.8,2.2,2.1,2.2c1,0,1.8-0.5,2.3-1.3h1.7c-0.9,1.9-2.2,2.7-4.1,2.7
		c-2.2,0-3.6-1.4-3.6-3.8c0-1.5,0.5-2.9,1.4-4c0.8-1,2-1.6,3.4-1.6c2.1,0,3.5,1.4,3.5,3.5c0,0.5-0.1,0.9-0.2,1.6H376.1z M381.1,6.5
		c0-1.2-0.7-1.9-2-1.9c-1.4,0-2.3,0.8-2.8,2.4h4.7L381.1,6.5z"/>
	<path class="st0" d="M386.2,12.2h-1.9l0.4-1.9h1.9L386.2,12.2z"/>
	<path class="st0" d="M2.1,32.9h6.3l-0.3,1.5h-8l2.6-12.1h1.7L2.1,32.9z"/>
	<path class="st0" d="M12.4,30.5c0,0.3-0.1,0.4-0.1,0.6c0,1.4,0.8,2.2,2.1,2.2c1,0,1.8-0.5,2.3-1.3h1.7c-0.9,1.9-2.2,2.7-4.1,2.7
		c-2.2,0-3.6-1.4-3.6-3.8c0-1.5,0.5-2.9,1.4-4c0.8-1,2-1.6,3.4-1.6c2.1,0,3.5,1.4,3.5,3.5c0,0.5-0.1,0.9-0.2,1.6H12.4z M17.4,28.7
		c0-1.2-0.7-1.9-2-1.9c-1.4,0-2.3,0.8-2.8,2.4h4.7L17.4,28.7z"/>
	<path class="st0" d="M25.5,26.9h-1.3l-1.1,5C23,32.3,23,32.3,23,32.5c0,0.4,0.2,0.5,0.7,0.5c0.3,0,0.5,0,0.8-0.1l-0.3,1.4
		c-0.4,0.1-0.7,0.2-1,0.2c-1.1,0-1.9-0.6-1.9-1.4c0-0.2,0.1-0.7,0.1-0.9l1.1-5.2h-1.3l0.3-1.2h1.3l0.5-2.6H25l-0.5,2.6h1.3
		L25.5,26.9z"/>
	<path class="st0" d="M40.9,25.7l-5.4,10.3c-0.7,1.3-1.2,1.5-2.7,1.5h-1l0.3-1.3h0.6c0.9,0,1.1-0.1,1.6-1.1l0.3-0.5L33,25.7h1.7
		l0.6,4.4c0.1,0.5,0.2,1.7,0.2,2.8c0.3-0.6,0.7-1.6,1.2-2.5l2.3-4.6H40.9z"/>
	<path class="st0" d="M50,29.2c0,1.5-0.6,2.9-1.6,4c-0.9,1-2,1.5-3.3,1.5c-2.3,0-3.7-1.5-3.7-3.8c0-3,2.2-5.4,4.9-5.4
		C48.6,25.4,50,26.9,50,29.2z M43.2,30.8c0,1.5,0.8,2.5,2,2.5c0.7,0,1.5-0.4,2-1c0.7-0.8,1.1-2,1.1-3c0-1.5-0.7-2.4-2-2.4
		C44.6,26.8,43.2,28.6,43.2,30.8z"/>
	<path class="st0" d="M58.8,34.4h-1.5l0.3-1.4c-1,1.2-1.8,1.7-3,1.7c-1.4,0-2.3-0.9-2.3-2.1c0-0.3,0.1-1,0.2-1.6l1.1-5.3h1.7
		L54,31.3c-0.1,0.3-0.1,0.7-0.1,1c0,0.6,0.4,1,1.1,1c0.7,0,1.6-0.5,2.2-1.2c0.5-0.6,0.7-1.2,1-2.4l0.9-4h1.7L58.8,34.4z"/>
	<path class="st0" d="M65.4,25.5L65,27.3c0.8-1.4,1.5-1.9,2.4-1.9c0.3,0,0.6,0.1,1,0.3l-0.4,1.5c-0.4-0.1-0.6-0.1-0.9-0.1
		c-0.6,0-1.2,0.3-1.7,0.8c-0.4,0.5-0.7,1-0.9,2.1l-0.9,4.5h-1.7l1.9-9H65.4z"/>
	<path class="st0" d="M81.2,28.4c0-0.9-0.8-1.5-1.9-1.5c-1,0-1.7,0.5-1.7,1.1c0,0.4,0.2,0.6,1.1,1l1.3,0.6c1.5,0.7,2,1.3,2,2.4
		c0,1.7-1.5,2.8-3.6,2.8c-2.2,0-3.6-1.3-3.6-3.3v-0.3h1.6c0,0.1,0,0.3,0,0.4c0,1.1,0.8,1.8,2.1,1.8c1.1,0,1.9-0.5,1.9-1.3
		c0-0.5-0.2-0.7-1.1-1.1l-1.4-0.7c-0.8-0.3-1-0.5-1.3-0.8c-0.4-0.4-0.5-0.8-0.5-1.4c0-1.6,1.3-2.7,3.3-2.7c1.4,0,2.5,0.6,3.1,1.6
		c0.2,0.4,0.3,0.7,0.3,1.3H81.2z"/>
	<path class="st0" d="M86,30.5c0,0.3-0.1,0.4-0.1,0.6c0,1.4,0.8,2.2,2.1,2.2c1,0,1.8-0.5,2.3-1.3H92c-0.9,1.9-2.2,2.7-4.1,2.7
		c-2.2,0-3.6-1.4-3.6-3.8c0-1.5,0.5-2.9,1.4-4c0.8-1,2-1.6,3.4-1.6c2.1,0,3.5,1.4,3.5,3.5c0,0.5-0.1,0.9-0.2,1.6H86z M91,28.7
		c0-1.2-0.7-1.9-2-1.9c-1.4,0-2.3,0.8-2.8,2.4H91L91,28.7z"/>
	<path class="st0" d="M97.7,25.7l-0.3,1.2c1-1,1.9-1.4,2.9-1.4c1.4,0,2.4,0.8,2.4,2.1c0,0.3,0,0.7-0.1,1.2l-1.2,5.7h-1.7l1.2-5.6
		c0.1-0.6,0.1-0.7,0.1-0.9c0-0.7-0.4-1-1-1c-0.6,0-1.2,0.3-1.8,0.7c-0.7,0.6-1,1.3-1.3,2.4l-0.9,4.5h-1.7l1.9-8.8H97.7z"/>
	<path class="st0" d="M110.8,28.4c0-0.9-0.8-1.5-1.9-1.5c-1,0-1.7,0.5-1.7,1.1c0,0.4,0.2,0.6,1.1,1l1.3,0.6c1.5,0.7,2,1.3,2,2.4
		c0,1.7-1.5,2.8-3.6,2.8c-2.2,0-3.6-1.3-3.6-3.3v-0.3h1.6c0,0.1,0,0.3,0,0.4c0,1.1,0.8,1.8,2.1,1.8c1.1,0,1.9-0.5,1.9-1.3
		c0-0.5-0.2-0.7-1.1-1.1l-1.4-0.7c-0.8-0.3-1-0.5-1.3-0.8c-0.4-0.4-0.5-0.8-0.5-1.4c0-1.6,1.3-2.7,3.3-2.7c1.4,0,2.5,0.6,3.1,1.6
		c0.2,0.4,0.3,0.7,0.3,1.3H110.8z"/>
	<path class="st0" d="M115.2,34.4h-1.7l1.9-8.8h1.7L115.2,34.4z M117.4,24.1h-1.7l0.4-1.8h1.7L117.4,24.1z"/>
	<path class="st0" d="M123.2,26.9h-1.3l-1.1,5c-0.1,0.5-0.1,0.5-0.1,0.6c0,0.4,0.2,0.5,0.7,0.5c0.3,0,0.5,0,0.8-0.1l-0.3,1.4
		c-0.4,0.1-0.7,0.2-1,0.2c-1.1,0-1.9-0.6-1.9-1.4c0-0.2,0.1-0.7,0.1-0.9l1.1-5.2h-1.3l0.3-1.2h1.3l0.5-2.6h1.7l-0.5,2.6h1.3
		L123.2,26.9z"/>
	<path class="st0" d="M125.6,34.4h-1.7l1.9-8.8h1.7L125.6,34.4z M127.8,24.1h-1.7l0.4-1.8h1.7L127.8,24.1z"/>
	<path class="st0" d="M137.2,25.7l-4.8,8.8h-1.7l-1.3-8.8h1.7l0.5,5c0.1,1.1,0.2,1.8,0.2,2.3c0.3-0.8,0.5-1.3,0.9-2.1l2.7-5.2H137.2
		z"/>
	<path class="st0" d="M139.1,34.4h-1.7l1.9-8.8h1.7L139.1,34.4z M141.3,24.1h-1.7l0.4-1.8h1.7L141.3,24.1z"/>
	<path class="st0" d="M147.1,26.9h-1.3l-1.1,5c-0.1,0.5-0.1,0.5-0.1,0.6c0,0.4,0.2,0.5,0.7,0.5c0.3,0,0.5,0,0.8-0.1l-0.3,1.4
		c-0.4,0.1-0.7,0.2-1,0.2c-1.1,0-1.9-0.6-1.9-1.4c0-0.2,0.1-0.7,0.1-0.9l1.1-5.2h-1.3l0.3-1.2h1.3l0.5-2.6h1.7l-0.5,2.6h1.3
		L147.1,26.9z"/>
	<path class="st0" d="M156.3,25.7l-5.4,10.3c-0.7,1.3-1.2,1.5-2.7,1.5h-1l0.3-1.3h0.6c0.9,0,1.1-0.1,1.6-1.1l0.3-0.5l-1.5-8.9h1.7
		l0.6,4.4c0.1,0.5,0.2,1.7,0.2,2.8c0.3-0.6,0.7-1.6,1.2-2.5l2.3-4.6H156.3z"/>
	<path class="st0" d="M164.4,34.4l-1.1-8.8h1.7l0.4,5c0,0.5,0.1,1.2,0.1,1.4c0,0.2,0,0.3,0,0.6c0.3-0.8,0.4-1.3,0.8-2.2l2.2-4.8h1.7
		l0.3,5c0,0.5,0,0.8,0,1.1c0,0.2,0,0.2,0,1c0.3-0.9,0.5-1.4,0.8-2.1l2.4-5h1.8l-4.6,8.8h-1.6l-0.3-5c0-0.3,0-0.9,0-1.1v-0.6v-0.3
		c-0.3,1-0.4,1.3-0.8,2l-2.3,5H164.4z"/>
	<path class="st0" d="M180,22.3l-0.9,4.4c1.1-0.9,1.8-1.3,2.8-1.3c1.3,0,2.3,0.8,2.3,2c0,0.3-0.1,0.8-0.2,1.3l-1.2,5.6h-1.7l1.2-5.6
		c0.1-0.5,0.1-0.8,0.1-1c0-0.6-0.4-0.9-1.1-0.9c-1.4,0-2.6,1.2-3,3l-1,4.6h-1.7l2.6-12.1H180z"/>
	<path class="st0" d="M187.9,30.5c0,0.3-0.1,0.4-0.1,0.6c0,1.4,0.8,2.2,2.1,2.2c1,0,1.8-0.5,2.3-1.3h1.7c-0.9,1.9-2.2,2.7-4.1,2.7
		c-2.2,0-3.6-1.4-3.6-3.8c0-1.5,0.5-2.9,1.4-4c0.8-1,2-1.6,3.4-1.6c2.1,0,3.5,1.4,3.5,3.5c0,0.5-0.1,0.9-0.2,1.6H187.9z M193,28.7
		c0-1.2-0.7-1.9-2-1.9c-1.4,0-2.3,0.8-2.8,2.4h4.7L193,28.7z"/>
	<path class="st0" d="M199.7,25.5l-0.4,1.9c0.8-1.4,1.5-1.9,2.4-1.9c0.3,0,0.6,0.1,1,0.3l-0.4,1.5c-0.4-0.1-0.6-0.1-0.9-0.1
		c-0.6,0-1.2,0.3-1.7,0.8c-0.4,0.5-0.7,1-0.9,2.1l-0.9,4.5h-1.7l1.9-9H199.7z"/>
	<path class="st0" d="M205.1,30.5c0,0.3-0.1,0.4-0.1,0.6c0,1.4,0.8,2.2,2.1,2.2c1,0,1.8-0.5,2.3-1.3h1.7c-0.9,1.9-2.2,2.7-4.1,2.7
		c-2.2,0-3.6-1.4-3.6-3.8c0-1.5,0.5-2.9,1.4-4c0.8-1,2-1.6,3.4-1.6c2.1,0,3.5,1.4,3.5,3.5c0,0.5-0.1,0.9-0.2,1.6H205.1z M210.1,28.7
		c0-1.2-0.7-1.9-2-1.9c-1.4,0-2.3,0.8-2.8,2.4h4.7L210.1,28.7z"/>
	<path class="st0" d="M221.8,25.7l-4.8,8.8h-1.7l-1.3-8.8h1.7l0.5,5c0.1,1.1,0.2,1.8,0.2,2.3c0.3-0.8,0.5-1.3,0.9-2.1l2.7-5.2H221.8
		z"/>
	<path class="st0" d="M224.1,30.5c0,0.3-0.1,0.4-0.1,0.6c0,1.4,0.8,2.2,2.1,2.2c1,0,1.8-0.5,2.3-1.3h1.7c-0.9,1.9-2.2,2.7-4.1,2.7
		c-2.2,0-3.6-1.4-3.6-3.8c0-1.5,0.5-2.9,1.4-4c0.8-1,2-1.6,3.4-1.6c2.1,0,3.5,1.4,3.5,3.5c0,0.5-0.1,0.9-0.2,1.6H224.1z M229.1,28.7
		c0-1.2-0.7-1.9-2-1.9c-1.4,0-2.3,0.8-2.8,2.4h4.7L229.1,28.7z"/>
	<path class="st0" d="M235.8,25.5l-0.4,1.9c0.8-1.4,1.5-1.9,2.4-1.9c0.3,0,0.6,0.1,1,0.3l-0.4,1.5c-0.4-0.1-0.6-0.1-0.9-0.1
		c-0.6,0-1.2,0.3-1.7,0.8c-0.4,0.5-0.7,1-0.9,2.1l-0.9,4.5h-1.7l1.9-9H235.8z"/>
	<path class="st0" d="M253.9,25.7l-5.4,10.3c-0.7,1.3-1.2,1.5-2.7,1.5h-1l0.3-1.3h0.6c0.9,0,1.1-0.1,1.6-1.1l0.3-0.5l-1.5-8.9h1.7
		l0.6,4.4c0.1,0.5,0.2,1.7,0.2,2.8c0.3-0.6,0.7-1.6,1.2-2.5l2.3-4.6H253.9z"/>
	<path class="st0" d="M263,29.2c0,1.5-0.6,2.9-1.6,4c-0.9,1-2,1.5-3.3,1.5c-2.3,0-3.7-1.5-3.7-3.8c0-3,2.2-5.4,4.9-5.4
		C261.6,25.4,263,26.9,263,29.2z M256.2,30.8c0,1.5,0.8,2.5,2,2.5c0.7,0,1.5-0.4,2-1c0.7-0.8,1.1-2,1.1-3c0-1.5-0.7-2.4-2-2.4
		C257.6,26.8,256.2,28.6,256.2,30.8z"/>
	<path class="st0" d="M271.7,34.4h-1.5l0.3-1.4c-1,1.2-1.8,1.7-3,1.7c-1.4,0-2.3-0.9-2.3-2.1c0-0.3,0.1-1,0.2-1.6l1.1-5.3h1.7
		l-1.2,5.6c-0.1,0.3-0.1,0.7-0.1,1c0,0.6,0.4,1,1.1,1c0.7,0,1.6-0.5,2.2-1.2c0.5-0.6,0.7-1.2,1-2.4l0.9-4h1.7L271.7,34.4z"/>
	<path class="st0" d="M278.3,25.5l-0.4,1.9c0.8-1.4,1.5-1.9,2.4-1.9c0.3,0,0.6,0.1,1,0.3l-0.4,1.5c-0.4-0.1-0.6-0.1-0.9-0.1
		c-0.6,0-1.2,0.3-1.7,0.8c-0.4,0.5-0.7,1-0.9,2.1l-0.9,4.5h-1.7l1.9-9H278.3z"/>
	<path class="st0" d="M292.1,22.3l-0.9,4.4c1.1-0.9,1.8-1.3,2.8-1.3c1.3,0,2.3,0.8,2.3,2c0,0.3-0.1,0.8-0.2,1.3l-1.2,5.6h-1.7
		l1.2-5.6c0.1-0.5,0.1-0.8,0.1-1c0-0.6-0.4-0.9-1.1-0.9c-1.4,0-2.6,1.2-3,3l-1,4.6h-1.7l2.6-12.1H292.1z"/>
	<path class="st0" d="M300.1,30.5c0,0.3-0.1,0.4-0.1,0.6c0,1.4,0.8,2.2,2.1,2.2c1,0,1.8-0.5,2.3-1.3h1.7c-0.9,1.9-2.2,2.7-4.1,2.7
		c-2.2,0-3.6-1.4-3.6-3.8c0-1.5,0.5-2.9,1.4-4c0.8-1,2-1.6,3.4-1.6c2.1,0,3.5,1.4,3.5,3.5c0,0.5-0.1,0.9-0.2,1.6H300.1z M305.1,28.7
		c0-1.2-0.7-1.9-2-1.9c-1.4,0-2.3,0.8-2.8,2.4h4.7L305.1,28.7z"/>
	<path class="st0" d="M309.5,28.1c0.5-1.8,1.8-2.7,3.9-2.7c1.8,0,2.9,0.8,2.9,2c0,0.2-0.1,0.9-0.2,1.3l-0.7,3.1
		c-0.1,0.6-0.1,0.7-0.1,0.9c0,0.5,0.2,0.6,0.7,0.6h0.3l-0.3,1.3h-0.6c-0.9,0-1.3-0.3-1.3-1.1c-0.7,0.8-1.5,1.2-2.7,1.2
		c-0.9,0-1.6-0.2-2.1-0.7c-0.5-0.5-0.8-1.3-0.8-2c0-0.8,0.3-1.6,0.9-2c0.5-0.5,1.3-0.7,2.5-0.8l1.4-0.1c0.7-0.1,0.9-0.1,1.1-0.4
		c0.2-0.2,0.3-0.6,0.3-1c0-0.7-0.5-1-1.5-1c-1.3,0-1.9,0.4-2.3,1.4H309.5z M314.3,30.2c-0.2,0-0.3,0.1-0.5,0.1c-0.1,0-0.3,0-0.5,0.1
		l-0.4,0l-1,0.1c-1.1,0.1-1.7,0.6-1.7,1.5c0,0.8,0.5,1.3,1.4,1.3c0.7,0,1.5-0.4,1.9-0.9c0.3-0.4,0.5-1,0.7-1.9L314.3,30.2z"/>
	<path class="st0" d="M321.6,25.5l-0.4,1.9c0.8-1.4,1.5-1.9,2.4-1.9c0.3,0,0.6,0.1,1,0.3l-0.4,1.5c-0.4-0.1-0.6-0.1-0.9-0.1
		c-0.6,0-1.2,0.3-1.7,0.8c-0.4,0.5-0.7,1-0.9,2.1l-0.9,4.5h-1.7l1.9-9H321.6z"/>
	<path class="st0" d="M329.8,26.9h-1.3l-1.1,5c-0.1,0.5-0.1,0.5-0.1,0.6c0,0.4,0.2,0.5,0.7,0.5c0.3,0,0.5,0,0.8-0.1l-0.3,1.4
		c-0.4,0.1-0.7,0.2-1,0.2c-1.1,0-1.9-0.6-1.9-1.4c0-0.2,0.1-0.7,0.1-0.9l1.1-5.2h-1.3l0.3-1.2h1.3l0.5-2.6h1.7l-0.5,2.6h1.3
		L329.8,26.9z"/>
	<path class="st0" d="M341.5,26.9h-1.3l-1.1,5c-0.1,0.5-0.1,0.5-0.1,0.6c0,0.4,0.2,0.5,0.7,0.5c0.3,0,0.5,0,0.8-0.1l-0.3,1.4
		c-0.4,0.1-0.7,0.2-1,0.2c-1.1,0-1.9-0.6-1.9-1.4c0-0.2,0.1-0.7,0.1-0.9l1.1-5.2h-1.3l0.3-1.2h1.3l0.5-2.6h1.7l-0.5,2.6h1.3
		L341.5,26.9z"/>
	<path class="st0" d="M343.4,28.1c0.5-1.8,1.8-2.7,3.9-2.7c1.8,0,2.9,0.8,2.9,2c0,0.2-0.1,0.9-0.2,1.3l-0.7,3.1
		c-0.1,0.6-0.1,0.7-0.1,0.9c0,0.5,0.2,0.6,0.7,0.6h0.3l-0.3,1.3h-0.6c-0.9,0-1.3-0.3-1.3-1.1c-0.7,0.8-1.5,1.2-2.7,1.2
		c-0.9,0-1.6-0.2-2.1-0.7c-0.5-0.5-0.8-1.3-0.8-2c0-0.8,0.3-1.6,0.9-2c0.5-0.5,1.3-0.7,2.5-0.8l1.4-0.1c0.7-0.1,0.9-0.1,1.1-0.4
		c0.2-0.2,0.3-0.6,0.3-1c0-0.7-0.5-1-1.5-1c-1.3,0-1.9,0.4-2.3,1.4H343.4z M348.2,30.2c-0.2,0-0.3,0.1-0.5,0.1c-0.1,0-0.3,0-0.5,0.1
		l-0.4,0l-1,0.1c-1.1,0.1-1.7,0.6-1.7,1.5c0,0.8,0.5,1.3,1.4,1.3c0.7,0,1.5-0.4,1.9-0.9c0.3-0.4,0.5-1,0.7-1.9L348.2,30.2z"/>
	<path class="st0" d="M359.4,34.4h-1.7l-1.6-4.6l-1.6,1.3l-0.7,3.3h-1.7l2.6-12.1h1.7l-1.5,6.8l4-3.5h2.3l-3.8,3.1L359.4,34.4z"/>
	<path class="st0" d="M363.6,30.5c0,0.3-0.1,0.4-0.1,0.6c0,1.4,0.8,2.2,2.1,2.2c1,0,1.8-0.5,2.3-1.3h1.7c-0.9,1.9-2.2,2.7-4.1,2.7
		c-2.2,0-3.6-1.4-3.6-3.8c0-1.5,0.5-2.9,1.4-4c0.8-1,2-1.6,3.4-1.6c2.1,0,3.5,1.4,3.5,3.5c0,0.5-0.1,0.9-0.2,1.6H363.6z M368.6,28.7
		c0-1.2-0.7-1.9-2-1.9c-1.4,0-2.3,0.8-2.8,2.4h4.7L368.6,28.7z"/>
	<path class="st0" d="M378.2,28.4c0-0.9-0.8-1.5-1.9-1.5c-1,0-1.7,0.5-1.7,1.1c0,0.4,0.2,0.6,1.1,1l1.3,0.6c1.5,0.7,2,1.3,2,2.4
		c0,1.7-1.5,2.8-3.6,2.8c-2.2,0-3.6-1.3-3.6-3.3v-0.3h1.6c0,0.1,0,0.3,0,0.4c0,1.1,0.8,1.8,2.1,1.8c1.1,0,1.9-0.5,1.9-1.3
		c0-0.5-0.2-0.7-1.1-1.1l-1.4-0.7c-0.8-0.3-1-0.5-1.3-0.8c-0.4-0.4-0.5-0.8-0.5-1.4c0-1.6,1.3-2.7,3.3-2.7c1.4,0,2.5,0.6,3.1,1.6
		c0.2,0.4,0.3,0.7,0.3,1.3H378.2z"/>
	<path class="st0" d="M395.6,25.7l-5.4,10.3c-0.7,1.3-1.2,1.5-2.7,1.5h-1l0.3-1.3h0.6c0.9,0,1.1-0.1,1.6-1.1l0.3-0.5l-1.5-8.9h1.7
		l0.6,4.4c0.1,0.5,0.2,1.7,0.2,2.8c0.3-0.6,0.7-1.6,1.2-2.5l2.3-4.6H395.6z"/>
	<path class="st0" d="M404.8,29.2c0,1.5-0.6,2.9-1.6,4c-0.9,1-2,1.5-3.3,1.5c-2.3,0-3.7-1.5-3.7-3.8c0-3,2.2-5.4,4.9-5.4
		C403.4,25.4,404.8,26.9,404.8,29.2z M397.9,30.8c0,1.5,0.8,2.5,2,2.5c0.7,0,1.5-0.4,2-1c0.7-0.8,1.1-2,1.1-3c0-1.5-0.7-2.4-2-2.4
		C399.3,26.8,397.9,28.6,397.9,30.8z"/>
	<path class="st0" d="M413.5,34.4h-1.5l0.3-1.4c-1,1.2-1.8,1.7-3,1.7c-1.4,0-2.3-0.9-2.3-2.1c0-0.3,0.1-1,0.2-1.6l1.1-5.3h1.7
		l-1.2,5.6c-0.1,0.3-0.1,0.7-0.1,1c0,0.6,0.4,1,1.1,1c0.7,0,1.6-0.5,2.2-1.2c0.5-0.6,0.7-1.2,1-2.4l0.9-4h1.7L413.5,34.4z"/>
	<path class="st0" d="M418.5,34.4h-1.9l0.4-1.9h1.9L418.5,34.4z"/>
	<path class="st0" d="M33.4,46H28l-0.8,3.7h5.5l-0.3,1.5h-5.5l-1.2,5.4H24l2.6-12.1h7.1L33.4,46z"/>
	<path class="st0" d="M35.3,56.6h-1.7l1.9-8.8h1.7L35.3,56.6z M37.5,46.3h-1.7l0.4-1.8h1.7L37.5,46.3z"/>
	<path class="st0" d="M41.9,47.9L41.7,49c1-1,1.9-1.4,2.9-1.4c1.4,0,2.4,0.8,2.4,2.1c0,0.3,0,0.7-0.1,1.2l-1.2,5.7h-1.7l1.2-5.6
		c0.1-0.6,0.1-0.7,0.1-0.9c0-0.7-0.4-1-1-1c-0.6,0-1.2,0.3-1.8,0.7c-0.7,0.6-1,1.3-1.3,2.4l-0.9,4.5h-1.7l1.9-8.8H41.9z"/>
	<path class="st0" d="M56.1,56.6h-1.5l0.2-1c-0.9,0.9-1.6,1.3-2.6,1.3c-1.9,0-3.2-1.4-3.2-3.5c0-1.5,0.6-3.1,1.6-4.3
		c0.8-0.9,1.9-1.5,3.1-1.5c1.1,0,1.8,0.4,2.4,1.5l1-4.6h1.7L56.1,56.6z M51.6,50.2c-0.6,0.9-1,2.1-1,3.1c0,1.3,0.7,2.2,1.8,2.2
		c0.8,0,1.6-0.5,2.1-1.2c0.6-0.9,1-2.2,1-3.1c0-1.4-0.7-2.1-1.9-2.1C52.9,49,52.2,49.4,51.6,50.2z"/>
	<path class="st0" d="M69.6,44.5l-0.9,4.4c1.1-0.9,1.8-1.3,2.8-1.3c1.3,0,2.3,0.8,2.3,2c0,0.3-0.1,0.8-0.2,1.3l-1.2,5.6h-1.7L72,51
		c0.1-0.5,0.1-0.8,0.1-1c0-0.6-0.4-0.9-1.1-0.9c-1.4,0-2.6,1.2-3,3l-1,4.6h-1.7L68,44.5H69.6z"/>
	<path class="st0" d="M77.3,56.6h-1.7l1.9-8.8h1.7L77.3,56.6z M79.4,46.3h-1.7l0.4-1.8h1.7L79.4,46.3z"/>
	<path class="st0" d="M87.8,56.6h-1.5l0.2-1c-0.9,0.9-1.6,1.3-2.6,1.3c-1.9,0-3.2-1.4-3.2-3.5c0-1.5,0.6-3.1,1.6-4.3
		c0.8-0.9,1.9-1.5,3.1-1.5c1.1,0,1.8,0.4,2.4,1.5l1-4.6h1.7L87.8,56.6z M83.4,50.2c-0.6,0.9-1,2.1-1,3.1c0,1.3,0.7,2.2,1.8,2.2
		c0.8,0,1.6-0.5,2.1-1.2c0.6-0.9,1-2.2,1-3.1c0-1.4-0.7-2.1-1.9-2.1C84.6,49,83.9,49.4,83.4,50.2z"/>
	<path class="st0" d="M98.3,56.6h-1.5l0.2-1c-0.9,0.9-1.6,1.3-2.6,1.3c-1.9,0-3.2-1.4-3.2-3.5c0-1.5,0.6-3.1,1.6-4.3
		c0.8-0.9,1.9-1.5,3.1-1.5c1.1,0,1.8,0.4,2.4,1.5l1-4.6h1.7L98.3,56.6z M93.9,50.2c-0.6,0.9-1,2.1-1,3.1c0,1.3,0.7,2.2,1.8,2.2
		c0.8,0,1.6-0.5,2.1-1.2c0.6-0.9,1-2.2,1-3.1c0-1.4-0.7-2.1-1.9-2.1C95.2,49,94.4,49.4,93.9,50.2z"/>
	<path class="st0" d="M103.5,52.7c0,0.3-0.1,0.4-0.1,0.6c0,1.4,0.8,2.2,2.1,2.2c1,0,1.8-0.5,2.3-1.3h1.7c-0.9,1.9-2.2,2.7-4.1,2.7
		c-2.2,0-3.6-1.4-3.6-3.8c0-1.5,0.5-2.9,1.4-4c0.8-1,2-1.6,3.4-1.6c2.1,0,3.5,1.4,3.5,3.5c0,0.5-0.1,0.9-0.2,1.6H103.5z M108.5,50.9
		c0-1.2-0.7-1.9-2-1.9c-1.4,0-2.3,0.8-2.8,2.4h4.7L108.5,50.9z"/>
	<path class="st0" d="M115.2,47.9l-0.3,1.2c1-1,1.9-1.4,2.9-1.4c1.4,0,2.4,0.8,2.4,2.1c0,0.3,0,0.7-0.1,1.2l-1.2,5.7h-1.7l1.2-5.6
		c0.1-0.6,0.1-0.7,0.1-0.9c0-0.7-0.4-1-1-1c-0.6,0-1.2,0.3-1.8,0.7c-0.7,0.6-1,1.3-1.3,2.4l-0.9,4.5h-1.7l1.9-8.8H115.2z"/>
	<path class="st0" d="M136.7,47.9l-5.4,10.3c-0.7,1.3-1.2,1.5-2.7,1.5h-1l0.3-1.3h0.6c0.9,0,1.1-0.1,1.6-1.1l0.3-0.5l-1.5-8.9h1.7
		l0.6,4.4c0.1,0.5,0.2,1.7,0.2,2.8c0.3-0.6,0.7-1.6,1.2-2.5l2.3-4.6H136.7z"/>
	<path class="st0" d="M145.8,51.4c0,1.5-0.6,2.9-1.6,4c-0.9,1-2,1.5-3.3,1.5c-2.3,0-3.7-1.5-3.7-3.8c0-3,2.2-5.4,4.9-5.4
		C144.4,47.6,145.8,49.1,145.8,51.4z M139,53c0,1.5,0.8,2.5,2,2.5c0.7,0,1.5-0.4,2-1c0.7-0.8,1.1-2,1.1-3c0-1.5-0.7-2.4-2-2.4
		C140.4,49,139,50.8,139,53z"/>
	<path class="st0" d="M154.5,56.6H153l0.3-1.4c-1,1.2-1.8,1.7-3,1.7c-1.4,0-2.3-0.9-2.3-2.1c0-0.3,0.1-1,0.2-1.6l1.1-5.3h1.7
		l-1.2,5.6c-0.1,0.3-0.1,0.7-0.1,1c0,0.6,0.4,1,1.1,1c0.7,0,1.6-0.5,2.2-1.2c0.5-0.6,0.7-1.2,1-2.4l0.9-4h1.7L154.5,56.6z"/>
	<path class="st0" d="M161.1,47.7l-0.4,1.9c0.8-1.4,1.5-1.9,2.4-1.9c0.3,0,0.6,0.1,1,0.3l-0.4,1.5c-0.4-0.1-0.6-0.1-0.9-0.1
		c-0.6,0-1.2,0.3-1.7,0.8c-0.4,0.5-0.7,1-0.9,2.1l-0.9,4.5h-1.7l1.9-9H161.1z"/>
	<path class="st0" d="M179.6,51.4c0,1.5-0.6,2.9-1.6,4c-0.9,1-2,1.5-3.3,1.5c-2.3,0-3.7-1.5-3.7-3.8c0-3,2.2-5.4,4.9-5.4
		C178.2,47.6,179.6,49.1,179.6,51.4z M172.7,53c0,1.5,0.8,2.5,2,2.5c0.7,0,1.5-0.4,2-1c0.7-0.8,1.1-2,1.1-3c0-1.5-0.7-2.4-2-2.4
		C174.1,49,172.7,50.8,172.7,53z"/>
	<path class="st0" d="M182.9,56.6l-1.1-8.8h1.7l0.4,5c0,0.5,0.1,1.2,0.1,1.4c0,0.2,0,0.3,0,0.6c0.3-0.8,0.4-1.3,0.8-2.2l2.2-4.8h1.7
		l0.3,5c0,0.5,0,0.8,0,1.1c0,0.2,0,0.2,0,1c0.3-0.9,0.5-1.4,0.8-2.1l2.4-5h1.8l-4.6,8.8h-1.6l-0.3-5c0-0.3,0-0.9,0-1.1v-0.6v-0.3
		c-0.3,1-0.4,1.3-0.8,2l-2.3,5H182.9z"/>
	<path class="st0" d="M197.6,47.9l-0.3,1.2c1-1,1.9-1.4,2.9-1.4c1.4,0,2.4,0.8,2.4,2.1c0,0.3,0,0.7-0.1,1.2l-1.2,5.7h-1.7l1.2-5.6
		c0.1-0.6,0.1-0.7,0.1-0.9c0-0.7-0.4-1-1-1c-0.6,0-1.2,0.3-1.8,0.7c-0.7,0.6-1,1.3-1.3,2.4l-0.9,4.5h-1.7l1.9-8.8H197.6z"/>
	<path class="st0" d="M214.8,44.5l-0.9,4.1c0.8-0.7,1.5-1,2.4-1c1.9,0,3.1,1.5,3.1,3.6c0,1.4-0.5,2.9-1.3,4
		c-0.8,1.1-1.9,1.7-3.2,1.7s-2.1-0.5-2.6-1.5l-0.3,1.2h-1.5l2.6-12.1H214.8z M212.9,53.3c0,1.3,0.7,2.2,1.9,2.2c0.7,0,1.4-0.4,1.9-1
		c0.6-0.8,1.1-2.1,1.1-3.1c0-1.5-0.7-2.4-1.9-2.4C214.2,49,212.9,51,212.9,53.3z"/>
	<path class="st0" d="M223.2,52.7c0,0.3-0.1,0.4-0.1,0.6c0,1.4,0.8,2.2,2.1,2.2c1,0,1.8-0.5,2.3-1.3h1.7c-0.9,1.9-2.2,2.7-4.1,2.7
		c-2.2,0-3.6-1.4-3.6-3.8c0-1.5,0.5-2.9,1.4-4c0.8-1,2-1.6,3.4-1.6c2.1,0,3.5,1.4,3.5,3.5c0,0.5-0.1,0.9-0.2,1.6H223.2z M228.2,50.9
		c0-1.2-0.7-1.9-2-1.9c-1.4,0-2.3,0.8-2.8,2.4h4.7L228.2,50.9z"/>
	<path class="st0" d="M232.6,50.3c0.5-1.8,1.8-2.7,3.9-2.7c1.8,0,2.9,0.8,2.9,2c0,0.2-0.1,0.9-0.2,1.3l-0.7,3.1
		c-0.1,0.6-0.1,0.7-0.1,0.9c0,0.5,0.2,0.6,0.7,0.6h0.3l-0.3,1.3h-0.6c-0.9,0-1.3-0.3-1.3-1.1c-0.7,0.8-1.5,1.2-2.7,1.2
		c-0.9,0-1.6-0.2-2.1-0.7c-0.5-0.5-0.8-1.3-0.8-2c0-0.8,0.3-1.6,0.9-2c0.5-0.5,1.3-0.7,2.5-0.8l1.4-0.1c0.7-0.1,0.9-0.1,1.1-0.4
		c0.2-0.2,0.3-0.6,0.3-1c0-0.7-0.5-1-1.5-1c-1.3,0-1.9,0.4-2.3,1.4H232.6z M237.4,52.4c-0.2,0-0.3,0.1-0.5,0.1c-0.1,0-0.3,0-0.5,0.1
		l-0.4,0l-1,0.1c-1.1,0.1-1.7,0.6-1.7,1.5c0,0.8,0.5,1.3,1.4,1.3c0.7,0,1.5-0.4,1.9-0.9c0.3-0.4,0.5-1,0.7-1.9L237.4,52.4z"/>
	<path class="st0" d="M248.3,56.6h-1.5l0.3-1.4c-1,1.2-1.8,1.7-3,1.7c-1.4,0-2.3-0.9-2.3-2.1c0-0.3,0.1-1,0.2-1.6l1.1-5.3h1.7
		l-1.2,5.6c-0.1,0.3-0.1,0.7-0.1,1c0,0.6,0.4,1,1.1,1c0.7,0,1.6-0.5,2.2-1.2c0.5-0.6,0.7-1.2,1-2.4l0.9-4h1.7L248.3,56.6z"/>
	<path class="st0" d="M256.3,49.1H255l-1.1,5c-0.1,0.5-0.1,0.5-0.1,0.6c0,0.4,0.2,0.5,0.7,0.5c0.3,0,0.5,0,0.8-0.1l-0.3,1.4
		c-0.4,0.1-0.7,0.2-1,0.2c-1.1,0-1.9-0.6-1.9-1.4c0-0.2,0.1-0.7,0.1-0.9l1.1-5.2H252l0.3-1.2h1.3l0.5-2.6h1.7l-0.5,2.6h1.3
		L256.3,49.1z"/>
	<path class="st0" d="M265.6,47.9l-5.4,10.3c-0.7,1.3-1.2,1.5-2.7,1.5h-1l0.3-1.3h0.6c0.9,0,1.1-0.1,1.6-1.1l0.3-0.5l-1.5-8.9h1.7
		l0.6,4.4c0.1,0.5,0.2,1.7,0.2,2.8c0.3-0.6,0.7-1.6,1.2-2.5l2.3-4.6H265.6z"/>
	<path class="st0" d="M273.6,56.6l-1.1-8.8h1.7l0.4,5c0,0.5,0.1,1.2,0.1,1.4c0,0.2,0,0.3,0,0.6c0.3-0.8,0.4-1.3,0.8-2.2l2.2-4.8h1.7
		l0.3,5c0,0.5,0,0.8,0,1.1c0,0.2,0,0.2,0,1c0.3-0.9,0.5-1.4,0.8-2.1l2.4-5h1.8l-4.6,8.8h-1.6l-0.3-5c0-0.3,0-0.9,0-1.1v-0.6v-0.3
		c-0.3,1-0.4,1.3-0.8,2l-2.3,5H273.6z"/>
	<path class="st0" d="M286.6,56.6H285l1.9-8.8h1.7L286.6,56.6z M288.8,46.3h-1.7l0.4-1.8h1.7L288.8,46.3z"/>
	<path class="st0" d="M294.6,49.1h-1.3l-1.1,5c-0.1,0.5-0.1,0.5-0.1,0.6c0,0.4,0.2,0.5,0.7,0.5c0.3,0,0.5,0,0.8-0.1l-0.3,1.4
		c-0.4,0.1-0.7,0.2-1,0.2c-1.1,0-1.9-0.6-1.9-1.4c0-0.2,0.1-0.7,0.1-0.9l1.1-5.2h-1.3l0.3-1.2h1.3l0.5-2.6h1.7l-0.5,2.6h1.3
		L294.6,49.1z"/>
	<path class="st0" d="M299.6,44.5l-0.9,4.4c1.1-0.9,1.8-1.3,2.8-1.3c1.3,0,2.3,0.8,2.3,2c0,0.3-0.1,0.8-0.2,1.3l-1.2,5.6h-1.7
		l1.2-5.6c0.1-0.5,0.1-0.8,0.1-1c0-0.6-0.4-0.9-1.1-0.9c-1.4,0-2.6,1.2-3,3l-1,4.6h-1.7l2.6-12.1H299.6z"/>
	<path class="st0" d="M307.2,56.6h-1.7l1.9-8.8h1.7L307.2,56.6z M309.4,46.3h-1.7l0.4-1.8h1.7L309.4,46.3z"/>
	<path class="st0" d="M313.8,47.9l-0.3,1.2c1-1,1.9-1.4,2.9-1.4c1.4,0,2.4,0.8,2.4,2.1c0,0.3,0,0.7-0.1,1.2l-1.2,5.7h-1.7l1.2-5.6
		c0.1-0.6,0.1-0.7,0.1-0.9c0-0.7-0.4-1-1-1c-0.6,0-1.2,0.3-1.8,0.7c-0.7,0.6-1,1.3-1.3,2.4l-0.9,4.5h-1.7l1.9-8.8H313.8z"/>
	<path class="st0" d="M335.2,47.9l-5.4,10.3c-0.7,1.3-1.2,1.5-2.7,1.5h-1l0.3-1.3h0.6c0.9,0,1.1-0.1,1.6-1.1l0.3-0.5l-1.5-8.9h1.7
		l0.6,4.4c0.1,0.5,0.2,1.7,0.2,2.8c0.3-0.6,0.7-1.6,1.2-2.5l2.3-4.6H335.2z"/>
	<path class="st0" d="M344.4,51.4c0,1.5-0.6,2.9-1.6,4c-0.9,1-2,1.5-3.3,1.5c-2.3,0-3.7-1.5-3.7-3.8c0-3,2.2-5.4,4.9-5.4
		C343,47.6,344.4,49.1,344.4,51.4z M337.5,53c0,1.5,0.8,2.5,2,2.5c0.7,0,1.5-0.4,2-1c0.7-0.8,1.1-2,1.1-3c0-1.5-0.7-2.4-2-2.4
		C338.9,49,337.5,50.8,337.5,53z"/>
	<path class="st0" d="M353.1,56.6h-1.5l0.3-1.4c-1,1.2-1.8,1.7-3,1.7c-1.4,0-2.3-0.9-2.3-2.1c0-0.3,0.1-1,0.2-1.6l1.1-5.3h1.7
		l-1.2,5.6c-0.1,0.3-0.1,0.7-0.1,1c0,0.6,0.4,1,1.1,1c0.7,0,1.6-0.5,2.2-1.2c0.5-0.6,0.7-1.2,1-2.4l0.9-4h1.7L353.1,56.6z"/>
	<path class="st0" d="M359.7,47.7l-0.4,1.9c0.8-1.4,1.5-1.9,2.4-1.9c0.3,0,0.6,0.1,1,0.3l-0.4,1.5c-0.4-0.1-0.6-0.1-0.9-0.1
		c-0.6,0-1.2,0.3-1.7,0.8c-0.4,0.5-0.7,1-0.9,2.1l-0.9,4.5h-1.7l1.9-9H359.7z"/>
	<path class="st0" d="M369.4,50.6c0-0.9-0.8-1.5-1.9-1.5c-1,0-1.7,0.5-1.7,1.1c0,0.4,0.2,0.6,1.1,1l1.3,0.6c1.5,0.7,2,1.3,2,2.4
		c0,1.7-1.5,2.8-3.6,2.8c-2.2,0-3.6-1.3-3.6-3.3v-0.3h1.6c0,0.1,0,0.3,0,0.4c0,1.1,0.8,1.8,2.1,1.8c1.1,0,1.9-0.5,1.9-1.3
		c0-0.5-0.2-0.7-1.1-1.1l-1.4-0.7c-0.8-0.3-1-0.5-1.3-0.8c-0.4-0.4-0.5-0.8-0.5-1.4c0-1.6,1.3-2.7,3.3-2.7c1.4,0,2.5,0.6,3.1,1.6
		c0.2,0.4,0.3,0.7,0.3,1.3H369.4z"/>
	<path class="st0" d="M374.2,52.7c0,0.3-0.1,0.4-0.1,0.6c0,1.4,0.8,2.2,2.1,2.2c1,0,1.8-0.5,2.3-1.3h1.7c-0.9,1.9-2.2,2.7-4.1,2.7
		c-2.2,0-3.6-1.4-3.6-3.8c0-1.5,0.5-2.9,1.4-4c0.8-1,2-1.6,3.4-1.6c2.1,0,3.5,1.4,3.5,3.5c0,0.5-0.1,0.9-0.2,1.6H374.2z M379.2,50.9
		c0-1.2-0.7-1.9-2-1.9c-1.4,0-2.3,0.8-2.8,2.4h4.7L379.2,50.9z"/>
	<path class="st0" d="M384.1,56.6h-1.7l2.6-12.1h1.7L384.1,56.6z"/>
	<path class="st0" d="M392.3,49.1h-1.6l-1.6,7.6h-1.7l1.6-7.6h-1.3l0.3-1.2h1.3l0.3-1.6c0.3-1.4,0.7-1.7,2.2-1.7h1.1l-0.3,1.3h-0.5
		c-0.7,0-0.9,0.1-1,0.9l-0.3,1.1h1.6L392.3,49.1z"/>
	<path class="st0" d="M394.6,56.6h-1.9l0.4-1.9h1.9L394.6,56.6z"/>
	<path class="st0" d="M100.7,78.8L99.7,72c-0.1-1-0.3-2.2-0.3-3.1c-0.2,1.3-0.2,1.5-0.6,3.1l-1.4,6.8h-1.6l2.6-12.1h2.3l1,8.4
		c0.1,0.7,0.1,1.4,0.2,2c0.2-0.5,0.4-0.8,0.9-1.8l4.8-8.7h2.2l-2.6,12.1h-1.6l1.4-6.6c0.3-1.5,0.4-1.9,0.8-3.3
		c-0.6,1.3-1.2,2.4-1.6,3.1l-3.8,6.8H100.7z"/>
	<path class="st0" d="M112.5,74.9c0,0.3-0.1,0.4-0.1,0.6c0,1.4,0.8,2.2,2.1,2.2c1,0,1.8-0.5,2.3-1.3h1.7c-0.9,1.9-2.2,2.7-4.1,2.7
		c-2.2,0-3.6-1.4-3.6-3.8c0-1.5,0.5-2.9,1.4-4c0.8-1,2-1.6,3.4-1.6c2.1,0,3.5,1.4,3.5,3.5c0,0.5-0.1,0.9-0.2,1.6H112.5z M117.6,73.1
		c0-1.2-0.7-1.9-2-1.9c-1.4,0-2.3,0.8-2.8,2.4h4.7L117.6,73.1z"/>
	<path class="st0" d="M122.8,74.9c0,0.3-0.1,0.4-0.1,0.6c0,1.4,0.8,2.2,2.1,2.2c1,0,1.8-0.5,2.3-1.3h1.7c-0.9,1.9-2.2,2.7-4.1,2.7
		c-2.2,0-3.6-1.4-3.6-3.8c0-1.5,0.5-2.9,1.4-4c0.8-1,2-1.6,3.4-1.6c2.1,0,3.5,1.4,3.5,3.5c0,0.5-0.1,0.9-0.2,1.6H122.8z M127.9,73.1
		c0-1.2-0.7-1.9-2-1.9c-1.4,0-2.3,0.8-2.8,2.4h4.7L127.9,73.1z"/>
	<path class="st0" d="M135.9,71.3h-1.3l-1.1,5c-0.1,0.5-0.1,0.5-0.1,0.6c0,0.4,0.2,0.5,0.7,0.5c0.3,0,0.5,0,0.8-0.1l-0.3,1.4
		c-0.4,0.1-0.7,0.2-1,0.2c-1.1,0-1.9-0.6-1.9-1.4c0-0.2,0.1-0.7,0.1-0.9l1.1-5.2h-1.3l0.3-1.2h1.3l0.5-2.6h1.7l-0.5,2.6h1.3
		L135.9,71.3z"/>
	<path class="st0" d="M144,72.5c0.5-1.8,1.8-2.7,3.9-2.7c1.8,0,2.9,0.8,2.9,2c0,0.2-0.1,0.9-0.2,1.3l-0.7,3.1
		c-0.1,0.6-0.1,0.7-0.1,0.9c0,0.5,0.2,0.6,0.7,0.6h0.3l-0.3,1.3h-0.6c-0.9,0-1.3-0.3-1.3-1.1c-0.7,0.8-1.5,1.2-2.7,1.2
		c-0.9,0-1.6-0.2-2.1-0.7c-0.5-0.5-0.8-1.3-0.8-2c0-0.8,0.3-1.6,0.9-2c0.5-0.5,1.3-0.7,2.5-0.8l1.4-0.1c0.7-0.1,0.9-0.1,1.1-0.4
		c0.2-0.2,0.3-0.6,0.3-1c0-0.7-0.5-1-1.5-1c-1.3,0-1.9,0.4-2.3,1.4H144z M148.8,74.6c-0.2,0-0.3,0.1-0.5,0.1c-0.1,0-0.3,0-0.5,0.1
		l-0.4,0l-1,0.1c-1.1,0.1-1.7,0.6-1.7,1.5c0,0.8,0.5,1.3,1.4,1.3c0.7,0,1.5-0.4,1.9-0.9c0.3-0.4,0.5-1,0.7-1.9L148.8,74.6z"/>
	<path class="st0" d="M162.2,70.1l-0.3,1.2c1-1,1.9-1.4,2.9-1.4c1.4,0,2.4,0.8,2.4,2.1c0,0.3,0,0.7-0.1,1.2l-1.2,5.7h-1.7l1.2-5.6
		c0.1-0.6,0.1-0.7,0.1-0.9c0-0.7-0.4-1-1-1c-0.6,0-1.2,0.3-1.8,0.7c-0.7,0.6-1,1.3-1.3,2.4l-0.9,4.5h-1.7l1.9-8.8H162.2z"/>
	<path class="st0" d="M171,74.9c0,0.3-0.1,0.4-0.1,0.6c0,1.4,0.8,2.2,2.1,2.2c1,0,1.8-0.5,2.3-1.3h1.7c-0.9,1.9-2.2,2.7-4.1,2.7
		c-2.2,0-3.6-1.4-3.6-3.8c0-1.5,0.5-2.9,1.4-4c0.8-1,2-1.6,3.4-1.6c2.1,0,3.5,1.4,3.5,3.5c0,0.5-0.1,0.9-0.2,1.6H171z M176.1,73.1
		c0-1.2-0.7-1.9-2-1.9c-1.4,0-2.3,0.8-2.8,2.4h4.7L176.1,73.1z"/>
	<path class="st0" d="M181,78.8l-1.1-8.8h1.7l0.4,5c0,0.5,0.1,1.2,0.1,1.4c0,0.2,0,0.3,0,0.6c0.3-0.8,0.4-1.3,0.8-2.2l2.2-4.8h1.7
		l0.3,5c0,0.5,0,0.8,0,1.1c0,0.2,0,0.2,0,1c0.3-0.9,0.5-1.4,0.8-2.1l2.4-5h1.8l-4.6,8.8h-1.6l-0.3-5c0-0.3,0-0.9,0-1.1v-0.6v-0.3
		c-0.3,1-0.4,1.3-0.8,2l-2.3,5H181z"/>
	<path class="st0" d="M207,70.1l-5.4,10.3c-0.7,1.3-1.2,1.5-2.7,1.5h-1l0.3-1.3h0.6c0.9,0,1.1-0.1,1.6-1.1l0.3-0.5l-1.5-8.9h1.7
		l0.6,4.4c0.1,0.5,0.2,1.7,0.2,2.8c0.3-0.6,0.7-1.6,1.2-2.5l2.3-4.6H207z"/>
	<path class="st0" d="M216.1,73.6c0,1.5-0.6,2.9-1.6,4c-0.9,1-2,1.5-3.3,1.5c-2.3,0-3.7-1.5-3.7-3.8c0-3,2.2-5.4,4.9-5.4
		C214.7,69.8,216.1,71.3,216.1,73.6z M209.3,75.2c0,1.5,0.8,2.5,2,2.5c0.7,0,1.5-0.4,2-1c0.7-0.8,1.1-2,1.1-3c0-1.5-0.7-2.4-2-2.4
		C210.7,71.2,209.3,73,209.3,75.2z"/>
	<path class="st0" d="M224.9,78.8h-1.5l0.3-1.4c-1,1.2-1.8,1.7-3,1.7c-1.4,0-2.3-0.9-2.3-2.1c0-0.3,0.1-1,0.2-1.6l1.1-5.3h1.7
		l-1.2,5.6c-0.1,0.3-0.1,0.7-0.1,1c0,0.6,0.4,1,1.1,1c0.7,0,1.6-0.5,2.2-1.2c0.5-0.6,0.7-1.2,1-2.4l0.9-4h1.7L224.9,78.8z"/>
	<path class="st0" d="M235.8,78.8l-1.1-8.8h1.7l0.4,5c0,0.5,0.1,1.2,0.1,1.4c0,0.2,0,0.3,0,0.6c0.3-0.8,0.4-1.3,0.8-2.2l2.2-4.8h1.7
		l0.3,5c0,0.5,0,0.8,0,1.1c0,0.2,0,0.2,0,1c0.3-0.9,0.5-1.4,0.8-2.1l2.4-5h1.8l-4.6,8.8h-1.6l-0.3-5c0-0.3,0-0.9,0-1.1v-0.6v-0.3
		c-0.3,1-0.4,1.3-0.8,2l-2.3,5H235.8z"/>
	<path class="st0" d="M248.8,78.8h-1.7l1.9-8.8h1.7L248.8,78.8z M251,68.5h-1.7l0.4-1.8h1.7L251,68.5z"/>
	<path class="st0" d="M256.8,71.3h-1.3l-1.1,5c-0.1,0.5-0.1,0.5-0.1,0.6c0,0.4,0.2,0.5,0.7,0.5c0.3,0,0.5,0,0.8-0.1l-0.3,1.4
		c-0.4,0.1-0.7,0.2-1,0.2c-1.1,0-1.9-0.6-1.9-1.4c0-0.2,0.1-0.7,0.1-0.9l1.1-5.2h-1.3l0.3-1.2h1.3l0.5-2.6h1.7l-0.5,2.6h1.3
		L256.8,71.3z"/>
	<path class="st0" d="M261.8,66.7l-0.9,4.4c1.1-0.9,1.8-1.3,2.8-1.3c1.3,0,2.3,0.8,2.3,2c0,0.3-0.1,0.8-0.2,1.3l-1.2,5.6h-1.7
		l1.2-5.6c0.1-0.5,0.1-0.8,0.1-1c0-0.6-0.4-0.9-1.1-0.9c-1.4,0-2.6,1.2-3,3l-1,4.6h-1.7l2.6-12.1H261.8z"/>
	<path class="st0" d="M277.3,70.1l-0.2,1c1-0.9,1.6-1.2,2.5-1.2c1.8,0,3.1,1.5,3.1,3.7c0,3.1-2,5.6-4.4,5.6c-1.1,0-1.8-0.3-2.5-1.3
		l-0.9,4.1h-1.7l2.5-11.8H277.3z M276.2,75.4c0,1.4,0.7,2.3,1.9,2.3c0.7,0,1.6-0.5,2-1.1c0.6-0.8,1-2.1,1-3.1c0-1.4-0.7-2.3-1.9-2.3
		C277.6,71.2,276.2,73.2,276.2,75.4z"/>
	<path class="st0" d="M286.5,74.9c0,0.3-0.1,0.4-0.1,0.6c0,1.4,0.8,2.2,2.1,2.2c1,0,1.8-0.5,2.3-1.3h1.7c-0.9,1.9-2.2,2.7-4.1,2.7
		c-2.2,0-3.6-1.4-3.6-3.8c0-1.5,0.5-2.9,1.4-4c0.8-1,2-1.6,3.4-1.6c2.1,0,3.5,1.4,3.5,3.5c0,0.5-0.1,0.9-0.2,1.6H286.5z M291.5,73.1
		c0-1.2-0.7-1.9-2-1.9c-1.4,0-2.3,0.8-2.8,2.4h4.7L291.5,73.1z"/>
	<path class="st0" d="M298.2,69.9l-0.4,1.9c0.8-1.4,1.5-1.9,2.4-1.9c0.3,0,0.6,0.1,1,0.3l-0.4,1.5c-0.4-0.1-0.6-0.1-0.9-0.1
		c-0.6,0-1.2,0.3-1.7,0.8c-0.4,0.5-0.7,1-0.9,2.1l-0.9,4.5h-1.7l1.9-9H298.2z"/>
	<path class="st0" d="M307.8,72.8c0-0.9-0.8-1.5-1.9-1.5c-1,0-1.7,0.5-1.7,1.1c0,0.4,0.2,0.6,1.1,1l1.3,0.6c1.5,0.7,2,1.3,2,2.4
		c0,1.7-1.5,2.8-3.6,2.8c-2.2,0-3.6-1.3-3.6-3.3v-0.3h1.6c0,0.1,0,0.3,0,0.4c0,1.1,0.8,1.8,2.1,1.8c1.1,0,1.9-0.5,1.9-1.3
		c0-0.5-0.2-0.7-1.1-1.1l-1.4-0.7c-0.8-0.3-1-0.5-1.3-0.8c-0.4-0.4-0.5-0.8-0.5-1.4c0-1.6,1.3-2.7,3.3-2.7c1.4,0,2.5,0.6,3.1,1.6
		c0.2,0.4,0.3,0.7,0.3,1.3H307.8z"/>
	<path class="st0" d="M312.6,74.9c0,0.3-0.1,0.4-0.1,0.6c0,1.4,0.8,2.2,2.1,2.2c1,0,1.8-0.5,2.3-1.3h1.7c-0.9,1.9-2.2,2.7-4.1,2.7
		c-2.2,0-3.6-1.4-3.6-3.8c0-1.5,0.5-2.9,1.4-4c0.8-1,2-1.6,3.4-1.6c2.1,0,3.5,1.4,3.5,3.5c0,0.5-0.1,0.9-0.2,1.6H312.6z M317.7,73.1
		c0-1.2-0.7-1.9-2-1.9c-1.4,0-2.3,0.8-2.8,2.4h4.7L317.7,73.1z"/>
	<path class="st0" d="M322.8,78.8h-1.9l0.4-1.9h1.9L322.8,78.8z"/>
</g>
</svg>
