<?xml version="1.0" encoding="utf-8"?>
<!-- Generator: Adobe Illustrator 25.4.1, SVG Export Plug-In . SVG Version: 6.00 Build 0)  -->
<svg version="1.1" id="レイヤー_1" xmlns="http://www.w3.org/2000/svg" xmlns:xlink="http://www.w3.org/1999/xlink" x="0px"
	 y="0px" viewBox="0 0 316 118" style="enable-background:new 0 0 316 118;" xml:space="preserve">
<style type="text/css">
	.st0{fill:#F3FF88;}
</style>
<g>
	<g>
		<path class="st0" d="M27.7,3.4C27.5,3.6,27.2,3.7,27,4c-0.2,0.2-0.4,0.6-0.5,1c-0.1,0.4-0.1,1,0,1.7c0.1,0.7,0.3,1.5,0.7,2.5
			l12,31.8L50.8,9.3c0.4-1.1,0.7-2,0.8-2.7c0.1-0.7,0.2-1.3,0.1-1.7c0-0.4-0.1-0.8-0.3-1c-0.2-0.2-0.4-0.4-0.6-0.5h5
			c-0.3,0.1-0.5,0.2-0.8,0.5c-0.3,0.2-0.6,0.6-1,1.3c-0.4,0.6-0.9,1.5-1.4,2.6c-0.5,1.1-1.1,2.7-1.9,4.6L37.9,47.1h-0.3l-15-39.3
			c-0.6-1.5-1.1-2.6-1.6-3.2c-0.5-0.6-1-1-1.5-1.2H27.7z"/>
		<path class="st0" d="M69.3,11.3c2.3,0,4.2,0.4,5.9,1.1c1.7,0.7,3.1,1.7,4.2,3c1.1,1.3,1.9,2.8,2.5,4.6c0.5,1.8,0.8,3.7,0.9,5.8
			H58.9c-0.1,0.6-0.1,1.3-0.2,1.9c0,0.6-0.1,1.3-0.1,2c0,2.4,0.3,4.6,0.9,6.7c0.6,2.1,1.4,3.9,2.4,5.4c1,1.5,2.3,2.7,3.7,3.5
			c1.4,0.9,3,1.3,4.7,1.3c1.5,0,2.9-0.3,4.1-0.9c1.2-0.6,2.3-1.5,3.4-2.6c1-1.1,1.9-2.5,2.7-4.1c0.8-1.6,1.5-3.3,2.1-5.2l-0.5,9.1
			c-1.7,1.5-3.5,2.7-5.7,3.4c-2.1,0.7-4.2,1.1-6.2,1.1c-2.4,0-4.6-0.4-6.6-1.3c-2-0.9-3.7-2.1-5.2-3.6c-1.5-1.5-2.6-3.4-3.4-5.7
			c-0.8-2.2-1.2-4.7-1.2-7.3c0-2.6,0.3-5.1,1-7.3c0.7-2.2,1.7-4.1,3-5.8c1.3-1.6,2.9-2.9,4.8-3.8C64.8,11.7,66.9,11.3,69.3,11.3z
			 M59,25h19.3c0-1.8-0.3-3.5-0.7-5.1c-0.4-1.5-1-2.9-1.8-4.1c-0.8-1.2-1.7-2.1-2.8-2.7c-1.1-0.6-2.4-1-3.8-1
			c-1.4,0-2.6,0.3-3.7,0.9c-1.1,0.6-2.1,1.5-3,2.7c-0.9,1.2-1.6,2.5-2.2,4.1C59.7,21.4,59.3,23.1,59,25z"/>
		<path class="st0" d="M84.9,49.4c0-2.1,0.9-3.6,2.7-4.7c1.8-1.1,4.7-1.8,8.7-2c-2.7-0.3-4.6-0.9-5.8-1.9c-1.1-1-1.7-2.2-1.7-3.7
			c0-0.8,0.2-1.5,0.5-2c0.3-0.6,0.8-1,1.3-1.4c0.5-0.4,1.2-0.6,1.9-0.8c0.7-0.2,1.5-0.3,2.2-0.3h0.8c-2.1-0.8-3.8-2.1-5-3.9
			c-1.2-1.8-1.8-3.9-1.8-6.3c0-1.6,0.3-3.1,0.8-4.5c0.6-1.3,1.4-2.5,2.4-3.5c1.1-1,2.3-1.7,3.8-2.3c1.5-0.5,3-0.8,4.8-0.8
			c1.5,0,2.8,0.2,4.1,0.6c1.3,0.4,2.4,0.9,3.4,1.6c0.3-2.3,1-4,2.1-5.2c1.1-1.2,2.3-1.9,3.6-1.9c0.9,0,1.6,0.2,2.1,0.7
			c0.5,0.5,0.8,1.1,0.8,2c0,0.8-0.2,1.4-0.7,1.9c-0.5,0.5-1.1,0.8-1.8,0.8c-0.4,0-0.8-0.1-1.1-0.2c-0.3-0.1-0.7-0.3-1-0.5
			c-0.3-0.2-0.6-0.4-0.9-0.5c-0.3-0.1-0.6-0.2-0.9-0.2c-0.5,0-0.9,0.3-1.2,0.8c-0.3,0.5-0.5,1.5-0.7,2.8c1.2,1,2.1,2.2,2.8,3.6
			s1,3,1,4.8c0,1.6-0.3,3.1-0.8,4.5c-0.6,1.4-1.4,2.5-2.4,3.5c-1,1-2.3,1.7-3.7,2.3c-1.5,0.5-3,0.8-4.8,0.8c-0.8,0-1.6-0.1-2.4-0.2
			c-0.5,0-0.8-0.1-1.2-0.1c-0.3,0-0.7,0-1,0c-1.4,0-2.6,0.2-3.4,0.7c-0.8,0.4-1.2,1.1-1.2,1.9c0,0.6,0.2,1.1,0.7,1.5
			c0.5,0.4,1,0.7,1.6,0.9c0.6,0.2,1.2,0.4,1.7,0.4l6.7,0.9c2.2,0.3,4.1,0.6,5.9,1c1.7,0.4,3.2,0.8,4.4,1.4c1.2,0.6,2.2,1.3,2.8,2.2
			c0.6,0.9,1,2.1,1,3.6c0,1.5-0.4,3-1.1,4.2s-1.8,2.3-3.1,3.2c-1.3,0.9-2.9,1.6-4.8,2c-1.9,0.5-4,0.7-6.3,0.7c-2,0-3.9-0.2-5.8-0.5
			c-1.9-0.4-3.6-0.9-5.1-1.6c-1.5-0.7-2.7-1.6-3.6-2.6C85.3,52.1,84.9,50.8,84.9,49.4z M88.4,49.6c0,2.3,1.1,4.2,3.2,5.5
			c2.2,1.3,5.2,2,9,2c2,0,3.8-0.2,5.4-0.6c1.6-0.4,2.9-0.9,4-1.6c1.1-0.7,1.9-1.4,2.5-2.3c0.6-0.8,0.8-1.7,0.8-2.7
			c0-1.4-0.5-2.6-1.6-3.4c-1.1-0.9-2.3-1.5-3.9-2c-1.5-0.5-3.1-0.8-4.7-0.9c-1.6-0.1-3.1-0.2-4.3-0.2c-2.1,0-3.8,0.1-5.2,0.4
			c-1.4,0.3-2.5,0.7-3.3,1.2c-0.8,0.5-1.4,1.2-1.7,1.9C88.6,47.8,88.4,48.6,88.4,49.6z M100.8,32.7c1.1,0,2-0.2,2.9-0.7
			c0.9-0.5,1.7-1.1,2.3-1.9c0.7-0.8,1.2-1.8,1.6-3c0.4-1.2,0.6-2.4,0.6-3.8s-0.2-2.7-0.6-4.1c-0.4-1.3-0.9-2.5-1.6-3.5
			c-0.7-1-1.5-1.8-2.5-2.4c-1-0.6-2.1-0.9-3.4-0.9c-1.1,0-2.1,0.2-3,0.7c-0.9,0.5-1.7,1.1-2.3,1.9c-0.7,0.8-1.2,1.8-1.5,3
			c-0.4,1.2-0.5,2.4-0.5,3.7c0,1.3,0.2,2.7,0.6,4c0.4,1.3,0.9,2.5,1.6,3.5c0.7,1,1.5,1.9,2.5,2.5C98.5,32.4,99.6,32.7,100.8,32.7z"
			/>
		<path class="st0" d="M131.9,27.6l6.3-1.7v-4.5c0-3.1-0.6-5.5-1.7-6.9c-1.1-1.5-2.8-2.2-5.1-2.2c-1.1,0-2.1,0.2-3.2,0.6
			c-1.1,0.4-2.1,1.1-3.1,2.1c-1,1-1.8,2.4-2.7,4.2c-0.8,1.8-1.5,4-2,6.7l-0.3-10.5c1.4-1.2,3.1-2.2,5.1-2.9c2-0.7,4.1-1.1,6.3-1.1
			c3.3,0,5.9,0.9,7.9,2.6c1.9,1.8,2.9,4.3,2.9,7.7v19.9c0,1.2,0.1,2.3,0.4,3.2c0.2,0.9,0.6,1.7,1.2,2.3l-5.5,0.2V39
			c-0.4,1-0.9,2.1-1.4,3.1c-0.6,1-1.3,1.9-2.1,2.7c-0.8,0.8-1.9,1.4-3,1.9c-1.2,0.5-2.5,0.7-4,0.7c-1.4,0-2.6-0.2-3.8-0.5
			c-1.2-0.3-2.2-0.8-3.1-1.5s-1.5-1.5-2-2.6c-0.5-1-0.7-2.2-0.7-3.6c0-1.9,0.5-3.5,1.4-4.8c0.9-1.3,2.1-2.4,3.5-3.3
			c1.4-0.9,2.9-1.6,4.5-2.1C129,28.4,130.5,28,131.9,27.6z M122.7,39c0,2.1,0.5,3.9,1.6,5.3c1,1.4,2.5,2.1,4.4,2.1
			c1.1,0,2.1-0.3,3.2-0.8c1.1-0.5,2.1-1.2,3-2.2c0.9-1,1.7-2.2,2.3-3.7c0.6-1.5,0.9-3.2,1-5.1v-7.8l-6.2,1.6
			c-0.8,0.2-1.7,0.5-2.8,0.9c-1.1,0.4-2.1,1-3.1,1.8c-1,0.8-1.8,1.8-2.4,3C123,35.5,122.7,37.1,122.7,39z"/>
		<path class="st0" d="M147,47.1c0.6-0.2,1.1-0.4,1.5-0.7c0.4-0.3,0.7-0.6,0.9-1c0.2-0.4,0.4-0.9,0.5-1.5c0.1-0.6,0.1-1.4,0.1-2.3
			V18.4c0-0.9,0-1.6-0.1-2.3c-0.1-0.6-0.1-1.2-0.3-1.7c-0.1-0.5-0.3-1-0.5-1.4c-0.2-0.4-0.5-0.8-0.8-1.3l5.8-0.6v10
			c0.9-3.1,2.4-5.5,4.5-7.3c2.1-1.8,4.7-2.7,7.9-2.7c1.8,0,3.4,0.3,4.8,0.8c1.4,0.6,2.6,1.4,3.5,2.4c1,1,1.7,2.3,2.2,3.7
			s0.8,3,0.8,4.7v18.6c0,0.9,0,1.6,0.1,2.2c0.1,0.6,0.3,1.1,0.5,1.5c0.2,0.4,0.5,0.8,0.9,1c0.4,0.3,0.8,0.5,1.4,0.7h-10.1
			c0.6-0.2,1.1-0.4,1.5-0.7c0.4-0.3,0.7-0.6,0.9-1c0.2-0.4,0.4-0.9,0.5-1.5c0.1-0.6,0.1-1.4,0.1-2.3V22.4c0-3.1-0.7-5.6-2-7.4
			c-1.4-1.8-3.3-2.7-5.9-2.7c-1.5,0-2.9,0.3-4.2,0.9c-1.4,0.6-2.6,1.5-3.6,2.7c-1.1,1.2-1.9,2.6-2.6,4.3c-0.7,1.7-1,3.7-1.2,5.9
			v15.4c0,0.9,0,1.6,0.1,2.2c0.1,0.6,0.3,1.1,0.5,1.5c0.2,0.4,0.5,0.8,0.9,1c0.4,0.3,0.8,0.5,1.4,0.7H147z"/>
		<path class="st0" d="M205.5,11.6c-0.3,0.3-0.5,0.7-0.7,1.3c-0.2,0.5,0,1.4,0.4,2.6l10.1,25.9l8.5-22.2c0.6-1.6,1-2.9,1.1-3.9
			c0.1-1,0.1-1.7,0-2.2c-0.1-0.5-0.3-0.8-0.5-1c-0.2-0.2-0.4-0.3-0.6-0.5h5.5c-0.4,0.3-1,0.8-1.6,1.5c-0.7,0.7-1.4,2-2,3.8L214,47.1
			h-0.6l-11.7-30c-0.8-1.9-1.4-3.2-1.9-4c-0.5-0.8-1-1.3-1.4-1.5H205.5z"/>
		<path class="st0" d="M231.1,47.1c0.6-0.2,1.1-0.4,1.5-0.7c0.4-0.3,0.7-0.6,0.9-1c0.2-0.4,0.4-0.9,0.5-1.5c0.1-0.6,0.1-1.4,0.1-2.3
			V18.4c0-0.9,0-1.6-0.1-2.3c-0.1-0.6-0.1-1.2-0.3-1.7c-0.1-0.5-0.3-1-0.5-1.4c-0.2-0.4-0.5-0.8-0.8-1.3l5.8-0.6v30.4
			c0,0.9,0,1.6,0.1,2.2c0.1,0.6,0.3,1.1,0.5,1.5c0.2,0.4,0.5,0.8,0.9,1c0.4,0.3,0.8,0.5,1.4,0.7H231.1z M236,0.4
			c0.9,0,1.6,0.3,2.1,0.8c0.6,0.6,0.8,1.3,0.8,2.3c0,1-0.3,1.7-0.8,2.3c-0.6,0.6-1.3,0.9-2.1,0.9c-0.8,0-1.5-0.3-2.1-0.9
			c-0.6-0.6-0.8-1.4-0.8-2.3c0-1,0.3-1.7,0.8-2.3C234.4,0.6,235.1,0.4,236,0.4z"/>
		<path class="st0" d="M249.3,11.6l3.9-8.7v8.7h9.3v0.7h-9.3v27c0,1.4,0.1,2.5,0.3,3.5c0.2,0.9,0.4,1.7,0.7,2.2
			c0.3,0.5,0.7,0.9,1.2,1.1c0.5,0.2,1,0.3,1.6,0.3c1.1,0,2-0.3,2.8-1c0.8-0.7,1.4-1.7,2.1-2.9l0.7,0.6c-0.8,1.3-1.6,2.4-2.5,3.2
			c-0.9,0.8-2.2,1.2-3.9,1.2c-2.6,0-4.5-0.8-5.6-2.5s-1.6-4.1-1.6-7.2V12.3h-5.5v-0.7H249.3z"/>
		<path class="st0" d="M278.8,27.6l6.3-1.7v-4.5c0-3.1-0.6-5.5-1.7-6.9c-1.1-1.5-2.8-2.2-5.1-2.2c-1.1,0-2.1,0.2-3.2,0.6
			c-1.1,0.4-2.1,1.1-3.1,2.1c-1,1-1.8,2.4-2.7,4.2c-0.8,1.8-1.5,4-2,6.7l-0.3-10.5c1.4-1.2,3.1-2.2,5.1-2.9c2-0.7,4.1-1.1,6.3-1.1
			c3.3,0,5.9,0.9,7.9,2.6c1.9,1.8,2.9,4.3,2.9,7.7v19.9c0,1.2,0.1,2.3,0.4,3.2c0.2,0.9,0.6,1.7,1.2,2.3l-5.5,0.2V39
			c-0.4,1-0.9,2.1-1.4,3.1c-0.6,1-1.3,1.9-2.1,2.7c-0.8,0.8-1.9,1.4-3,1.9c-1.2,0.5-2.5,0.7-4,0.7c-1.4,0-2.6-0.2-3.8-0.5
			c-1.2-0.3-2.2-0.8-3.1-1.5s-1.5-1.5-2-2.6c-0.5-1-0.7-2.2-0.7-3.6c0-1.9,0.5-3.5,1.4-4.8c0.9-1.3,2.1-2.4,3.5-3.3
			c1.4-0.9,2.9-1.6,4.5-2.1C276,28.4,277.5,28,278.8,27.6z M269.7,39c0,2.1,0.5,3.9,1.6,5.3c1,1.4,2.5,2.1,4.4,2.1
			c1.1,0,2.1-0.3,3.2-0.8c1.1-0.5,2.1-1.2,3-2.2c0.9-1,1.7-2.2,2.3-3.7c0.6-1.5,0.9-3.2,1-5.1v-7.8l-6.2,1.6
			c-0.8,0.2-1.7,0.5-2.8,0.9c-1.1,0.4-2.1,1-3.1,1.8c-1,0.8-1.8,1.8-2.4,3C270,35.5,269.7,37.1,269.7,39z"/>
	</g>
	<g>
		<path class="st0" d="M6.4,116.6c-1.8-0.4-3.6-1.2-5.6-2.3c-0.5-0.3-0.6-0.8-0.5-1.6l1.2-11.4c0-0.3,0.2-0.4,0.5-0.4
			c0.3,0,0.5,0.1,0.5,0.4c0.1,4.1,1.1,7.6,3.1,10.4c1.9,2.8,4.8,4.2,8.7,4.2c2.8,0,5.3-0.8,7.5-2.5c2.2-1.6,3.5-4.2,4.1-7.6
			c0.2-1,0.3-1.8,0.3-2.6c0-2.8-0.8-5.2-2.5-7c-1.6-1.9-4-3.9-7.1-6c-2.1-1.6-3.8-2.9-5-3.9c-1.2-1.1-2.3-2.3-3.1-3.8
			c-0.9-1.5-1.3-3.2-1.3-5.2c0-0.8,0.1-1.6,0.3-2.5c0.6-2.9,1.7-5.3,3.5-7.3c1.8-2,3.9-3.5,6.3-4.5c2.5-1,5-1.5,7.7-1.5
			c3,0,6.1,0.7,9.3,2.1c0.7,0.4,1.1,0.9,1,1.5l-1.1,9.6c0,0.2-0.2,0.3-0.5,0.3c-0.3,0-0.5-0.1-0.6-0.3c-0.2-3.4-1.1-6.2-2.5-8.4
			c-1.4-2.2-3.8-3.4-7.1-3.4c-2.5,0-4.5,0.6-6.2,1.9c-1.6,1.2-2.8,2.8-3.6,4.6c-0.8,1.8-1.2,3.6-1.2,5.4c0,1.8,0.4,3.4,1.3,4.8
			c0.9,1.4,1.9,2.6,3.1,3.6c1.2,1,2.9,2.2,5,3.7c3.3,2.2,5.8,4.3,7.5,6.2c1.7,2,2.6,4.4,2.6,7.3c0,1-0.1,1.8-0.2,2.4
			c-0.7,4.2-2.8,7.7-6.3,10.5c-3.4,2.8-7.9,4.2-13.4,4.2C10,117.3,8.2,117.1,6.4,116.6z"/>
		<path class="st0" d="M70.4,109.6c0.2,0,0.3,0.1,0.4,0.3c0.1,0.2,0.1,0.4,0,0.5c-2,2.3-3.8,4-5.4,5c-1.6,1.1-3.2,1.6-4.7,1.6
			c-1,0-1.7-0.3-2.2-0.9c-0.5-0.6-0.7-1.6-0.7-2.9c0-1.5,0.1-3,0.4-4.5l1.8-10.4c-2.1,6-4.5,10.6-7.3,14c-2.8,3.4-5.8,5-8.9,5
			c-3.8,0-5.7-2.1-5.7-6.4c0-1.6,0.2-3.2,0.6-5L42,90.6c0.2-1,0.3-1.8,0.3-2.3c0-1.8-0.5-2.7-1.6-2.7c-1.1,0-3,1.3-5.7,4
			c-0.1,0.1-0.2,0.2-0.3,0.2c-0.2,0-0.3-0.1-0.4-0.3c-0.1-0.2-0.1-0.4,0.1-0.6c2-2.3,3.8-4,5.3-5.1c1.5-1.1,3-1.6,4.4-1.6
			c2,0,3,1.3,3,4c0,0.9-0.2,2.4-0.6,4.5l-2.8,13.7c-0.4,2.2-0.6,3.8-0.6,4.7c0,3.3,1.2,4.9,3.7,4.9c1.9,0,3.9-1.2,5.9-3.6
			c2-2.4,4-5.9,5.8-10.5c1.8-4.6,3.3-10,4.4-16.3c0.2-0.9,1.1-1.3,2.8-1.3c1.4,0,2.1,0.2,2.1,0.5l-0.3,2c-0.3,1.4-0.7,2.9-0.9,4.6
			l-3.5,19.2c-0.2,0.9-0.3,1.6-0.3,2.3c0,1.8,0.6,2.8,1.7,2.8c0.6,0,1.5-0.3,2.5-1c1.1-0.7,2.2-1.7,3.4-2.9
			C70.2,109.6,70.3,109.6,70.4,109.6z"/>
		<path class="st0" d="M107.5,109.4c0.2,0,0.3,0.1,0.5,0.3c0.1,0.2,0.1,0.4,0,0.6c-2,2.3-3.7,4-5.2,5.1c-1.5,1.1-3,1.6-4.4,1.6
			c-1,0-1.8-0.3-2.3-0.9c-0.5-0.6-0.7-1.6-0.7-3c0-1.1,0.2-2.7,0.5-4.6l2.5-13.7c0.3-1.8,0.5-3.4,0.5-4.7c0-3.3-1.2-5-3.7-5
			c-1.9,0-3.9,1.2-5.9,3.6c-2,2.4-4,5.9-5.7,10.6c-1.8,4.6-3.2,10-4.3,16.2c-0.1,0.4-0.4,0.7-0.9,0.9c-0.5,0.2-1.1,0.3-1.9,0.3
			c-0.8,0-1.3,0-1.6-0.1c-0.3-0.1-0.4-0.2-0.4-0.4l0.3-2c0.3-1.4,0.7-2.9,0.9-4.6l3.5-19.2c0.2-0.9,0.3-1.6,0.3-2.3
			c0-1.8-0.6-2.8-1.7-2.8c-0.7,0-1.6,0.3-2.6,1c-1.1,0.7-2.2,1.7-3.3,2.9c-0.1,0.1-0.1,0.1-0.3,0.1c-0.2,0-0.3-0.1-0.5-0.3
			c-0.1-0.2-0.1-0.4,0-0.5c2-2.2,3.7-3.9,5.4-5c1.6-1.1,3.2-1.6,4.7-1.6c1,0,1.7,0.3,2.2,0.9c0.5,0.6,0.7,1.6,0.7,2.9
			c0,1.5-0.1,3-0.4,4.5l-1.8,10.4c2.1-6,4.5-10.6,7.3-14c2.8-3.4,5.8-5,8.9-5c1.9,0,3.3,0.5,4.2,1.6c0.9,1,1.4,2.7,1.4,4.9
			c0,1.4-0.2,3-0.5,4.9l-2.8,15.3c-0.2,0.9-0.3,1.6-0.3,2.3c0,1.8,0.6,2.7,1.7,2.7c1.2,0,3.1-1.3,5.6-4
			C107.4,109.5,107.4,109.4,107.5,109.4z"/>
		<path class="st0" d="M129,112.3l1-12.6c0.5,5.4,1.9,9.5,4.2,12.5c2.3,3,5.5,4.4,9.6,4.4c1.6,0,3.1-0.3,4.4-0.8
			c1.3-0.5,2.4-1.2,3.3-2.2c0.9-0.9,1.6-2,2-3.2c0.5-1.2,0.7-2.5,0.7-3.9c0-1.7-0.3-3.2-1-4.3c-0.7-1.2-1.4-2.2-2.3-3
			c-0.9-0.8-1.8-1.5-2.7-1.9c-1-0.5-1.7-0.8-2.3-1.1l-5.9-2.5c-0.8-0.3-1.7-0.8-2.8-1.3c-1.1-0.6-2.2-1.3-3.2-2.3
			c-1-0.9-1.9-2.1-2.7-3.5c-0.7-1.4-1.1-3.1-1.1-5.1c0-1.6,0.3-3.2,0.8-4.6c0.5-1.4,1.3-2.7,2.4-3.8c1.1-1.1,2.4-1.9,3.9-2.5
			c1.5-0.6,3.4-0.9,5.4-0.9c1.9,0,3.9,0.3,6.2,0.9c2.3,0.6,4.3,1.5,6,2.8l0.4,12.9c-0.7-5-2.1-8.8-4.1-11.5
			c-2.1-2.7-4.9-4.1-8.4-4.1c-1.4,0-2.7,0.2-4,0.6c-1.2,0.4-2.3,1-3.1,1.8c-0.9,0.8-1.6,1.7-2,2.8c-0.5,1.1-0.7,2.2-0.7,3.4
			c0,1.4,0.3,2.6,0.9,3.6c0.6,1,1.3,1.9,2.1,2.6c0.8,0.7,1.7,1.3,2.7,1.8c0.9,0.5,1.7,0.8,2.4,1.1l6.3,2.6c3.1,1.3,5.5,3,7.4,5.1
			s2.7,4.8,2.7,8.2c0,1.9-0.3,3.7-0.9,5.3c-0.6,1.6-1.5,3-2.7,4.2c-1.2,1.2-2.6,2.1-4.3,2.8c-1.7,0.7-3.6,1-5.8,1
			c-2.8,0-5.6-0.5-8.2-1.4C132.8,115.4,130.6,114.1,129,112.3z"/>
		<path class="st0" d="M178,78.6c2.4,0,4.6,0.4,6.4,1.2c1.8,0.8,3.3,1.9,4.5,3.3c1.2,1.4,2.1,3,2.7,4.9c0.6,1.9,0.9,4,0.9,6.2h-25.7
			c-0.1,0.7-0.1,1.4-0.2,2.1c0,0.7-0.1,1.4-0.1,2.1c0,2.6,0.3,5,0.9,7.2c0.6,2.2,1.5,4.2,2.6,5.8c1.1,1.6,2.4,2.9,4,3.8
			c1.5,0.9,3.2,1.4,5.1,1.4c1.6,0,3.1-0.3,4.4-1c1.3-0.7,2.5-1.6,3.6-2.8c1.1-1.2,2.1-2.7,3-4.4c0.9-1.7,1.6-3.6,2.3-5.6l-0.5,9.8
			c-1.8,1.7-3.8,2.9-6.1,3.7c-2.3,0.8-4.5,1.2-6.6,1.2c-2.6,0-4.9-0.5-7.1-1.4c-2.2-0.9-4-2.2-5.6-3.9c-1.6-1.7-2.8-3.7-3.6-6.1
			c-0.9-2.4-1.3-5-1.3-7.9c0-2.8,0.4-5.5,1.1-7.9c0.8-2.4,1.8-4.5,3.3-6.2c1.4-1.8,3.1-3.1,5.2-4.1C173.2,79.1,175.5,78.6,178,78.6z
			 M166.9,93.4h20.8c0-2-0.3-3.8-0.7-5.5c-0.4-1.7-1.1-3.1-1.9-4.4c-0.8-1.3-1.8-2.2-3-2.9c-1.2-0.7-2.6-1-4.1-1c-1.5,0-2.8,0.3-4,1
			c-1.2,0.7-2.3,1.6-3.3,2.9c-1,1.2-1.7,2.7-2.4,4.4C167.7,89.5,167.2,91.4,166.9,93.4z"/>
		<path class="st0" d="M196.4,117.2c0.6-0.2,1.2-0.5,1.6-0.7c0.4-0.3,0.7-0.6,1-1c0.2-0.4,0.4-1,0.5-1.7c0.1-0.7,0.1-1.5,0.1-2.4
			v-25c0-0.9,0-1.8-0.1-2.5c-0.1-0.7-0.2-1.3-0.3-1.9c-0.1-0.5-0.3-1-0.5-1.5c-0.2-0.5-0.5-0.9-0.8-1.4l6.2-0.6v9.1
			c0.5-1.3,1-2.4,1.6-3.5c0.6-1.1,1.3-2,2.1-2.8c0.8-0.8,1.8-1.4,2.8-1.9c1.1-0.5,2.3-0.7,3.7-0.7c1.3,0,2.5,0.2,3.5,0.5l-0.1,6.5
			c-0.4-0.5-0.8-1-1.3-1.6c-0.5-0.5-1-1-1.6-1.5c-0.6-0.5-1.2-0.8-1.8-1.1c-0.6-0.3-1.2-0.4-1.9-0.4c-0.8,0-1.6,0.2-2.3,0.7
			c-0.7,0.5-1.3,1-1.9,1.8c-0.6,0.7-1.1,1.6-1.6,2.6c-0.5,1-0.9,2.1-1.3,3.2v21.9c0,0.9,0.1,1.8,0.2,2.4c0.1,0.7,0.3,1.2,0.5,1.7
			c0.2,0.5,0.6,0.8,1,1.1c0.4,0.3,0.9,0.5,1.5,0.7H196.4z"/>
		<path class="st0" d="M220.4,79.2l6.2-0.6v27.5c0,1.9,0.2,3.6,0.5,4.9c0.4,1.3,0.9,2.4,1.6,3.3c0.7,0.8,1.5,1.4,2.4,1.8
			c1,0.4,2,0.5,3.1,0.5c1.8,0,3.4-0.5,4.8-1.4c1.3-0.9,2.5-2.1,3.4-3.6c0.9-1.4,1.6-3,2.1-4.8c0.5-1.8,0.8-3.5,0.8-5.1V86.4
			c0-0.9,0-1.8-0.1-2.5c-0.1-0.7-0.2-1.3-0.3-1.9c-0.1-0.5-0.3-1-0.5-1.5c-0.2-0.5-0.5-0.9-0.8-1.4l6.2-0.6v32c0,2,0.1,3.4,0.4,4.4
			c0.3,0.9,0.7,1.7,1.3,2.3l-6,0.2v-10.2c-0.6,1.6-1.3,3.1-2,4.3c-0.7,1.3-1.5,2.3-2.5,3.3c-0.9,0.9-2,1.6-3.3,2.1
			c-1.2,0.5-2.7,0.7-4.3,0.7c-3.5,0-6.3-1-8.3-2.9c-2.1-1.9-3.1-4.9-3.1-8.9V86.4c0-0.9,0-1.8-0.1-2.5c-0.1-0.7-0.2-1.3-0.3-1.9
			c-0.1-0.5-0.3-1-0.5-1.5C221,80.1,220.8,79.6,220.4,79.2z"/>
		<path class="st0" d="M258.3,111.3v-25c0-0.9,0-1.8-0.1-2.5c-0.1-0.7-0.2-1.3-0.3-1.9c-0.1-0.5-0.3-1-0.5-1.5
			c-0.2-0.5-0.5-0.9-0.8-1.4l6.2-0.6v10.7c1-3.3,2.5-5.9,4.7-7.8c2.2-1.9,4.9-2.8,8.1-2.8c3.5,0,6.3,1,8.4,3c2.1,2,3.3,4.6,3.6,7.9
			c0.9-3.4,2.5-6,4.7-8c2.2-1.9,4.9-2.9,8.2-2.9c1.9,0,3.6,0.3,5.1,0.9c1.5,0.6,2.8,1.5,3.8,2.6c1,1.1,1.8,2.5,2.4,4
			c0.5,1.6,0.8,3.3,0.8,5.1v20c0,0.9,0.1,1.8,0.2,2.4c0.1,0.7,0.3,1.2,0.5,1.7c0.2,0.5,0.6,0.8,1,1.1c0.4,0.3,0.9,0.5,1.5,0.7h-10.8
			c0.6-0.2,1.2-0.5,1.6-0.7c0.4-0.3,0.7-0.6,1-1c0.2-0.4,0.4-1,0.5-1.7c0.1-0.7,0.1-1.5,0.1-2.4V90.6c0-3.4-0.7-6.1-2.2-8
			c-1.4-2-3.6-2.9-6.4-2.9c-1.5,0-2.9,0.3-4.2,1c-1.4,0.7-2.6,1.7-3.7,2.9s-2,2.9-2.7,4.7c-0.7,1.9-1.1,4-1.2,6.4v16.7
			c0,0.9,0.1,1.8,0.2,2.4c0.1,0.7,0.3,1.2,0.5,1.7c0.2,0.5,0.6,0.8,1,1.1c0.4,0.3,0.9,0.5,1.5,0.7H280c0.6-0.2,1.2-0.5,1.6-0.7
			c0.4-0.3,0.7-0.6,1-1c0.2-0.4,0.4-1,0.5-1.7c0.1-0.7,0.1-1.5,0.1-2.4V90.6c0-3.4-0.7-6.1-2.2-8c-1.4-2-3.5-2.9-6.3-2.9
			c-1.5,0-2.9,0.3-4.2,1c-1.4,0.7-2.6,1.7-3.7,2.9s-2,2.9-2.7,4.7c-0.7,1.9-1.1,4-1.2,6.4v16.7c0,0.9,0.1,1.8,0.2,2.4
			c0.1,0.7,0.3,1.2,0.5,1.7c0.2,0.5,0.6,0.8,1,1.1c0.4,0.3,0.9,0.5,1.5,0.7h-10.8c0.6-0.2,1.2-0.5,1.6-0.7c0.4-0.3,0.7-0.6,1-1
			c0.2-0.4,0.4-1,0.5-1.7C258.2,113.1,258.3,112.3,258.3,111.3z"/>
	</g>
</g>
</svg>
