<?xml version="1.0" encoding="utf-8"?>
<!-- Generator: Adobe Illustrator 25.4.1, SVG Export Plug-In . SVG Version: 6.00 Build 0)  -->
<svg version="1.1" id="レイヤー_1" xmlns="http://www.w3.org/2000/svg" xmlns:xlink="http://www.w3.org/1999/xlink" x="0px"
	 y="0px" viewBox="0 0 338 143" style="enable-background:new 0 0 338 143;" xml:space="preserve">
<style type="text/css">
	.st0{fill:#FFFFFF;}
</style>
<g>
	<path class="st0" d="M0.3,26.2c0-3.9,0.4-7.5,1.3-10.7c0.9-3.2,2.1-5.9,3.6-8.2C6.8,5,8.7,3.3,10.9,2c2.2-1.3,4.7-1.9,7.4-1.9
		c2.4,0,4.6,0.3,6.5,0.9c1.9,0.6,3.6,1.4,5.1,2.4l-0.3,8.4c-0.9-2.3-1.8-4.1-2.8-5.5c-1-1.4-2-2.4-3-3.2c-1-0.8-1.9-1.3-2.9-1.5
		c-1-0.2-1.8-0.4-2.6-0.4c-4,0-7,2.2-9.1,6.6C7,12.3,6,18.4,6,26.2v0.2c1.2-2,2.7-3.5,4.7-4.7c1.9-1.2,4.2-1.8,6.7-1.8
		c2.1,0,4,0.3,5.9,1c1.8,0.7,3.4,1.7,4.8,3c1.4,1.3,2.5,2.9,3.3,4.8c0.8,1.9,1.2,4.1,1.2,6.6c0,2.3-0.4,4.5-1.1,6.5
		c-0.8,2-1.8,3.8-3.2,5.4c-1.4,1.5-3,2.7-4.9,3.6c-1.9,0.9-3.9,1.3-6.2,1.3c-2.5,0-4.8-0.6-6.9-1.9s-3.8-3-5.3-5.3
		c-1.5-2.3-2.6-5-3.4-8.2C0.7,33.7,0.3,30.1,0.3,26.2z M17.1,51.2c1.4,0,2.7-0.3,4-0.9c1.2-0.6,2.3-1.6,3.2-2.8
		c0.9-1.3,1.6-2.8,2.2-4.8s0.8-4.2,0.8-6.8c0-2.4-0.3-4.5-0.8-6.4c-0.6-1.8-1.3-3.4-2.2-4.6c-0.9-1.2-2-2.2-3.3-2.8
		c-1.3-0.6-2.6-0.9-4-0.9c-2.3,0-4.4,0.7-6.4,2c-2,1.4-3.5,3.1-4.5,5.1c0.1,3.4,0.4,6.6,0.9,9.4c0.5,2.8,1.2,5.2,2.1,7.2
		c0.9,2,2,3.5,3.4,4.6C13.7,50.6,15.3,51.2,17.1,51.2z"/>
	<path class="st0" d="M64.2,0.6L64.2,0.6L64.2,0.6h0.6v34.1h6.1l-0.7,3.9h-5.5v4.6c0,1.6,0.1,2.9,0.2,4c0.1,1,0.3,1.8,0.6,2.4
		c0.3,0.6,0.6,1.1,1.1,1.4c0.4,0.3,1,0.6,1.7,0.9H56.1c0.7-0.2,1.3-0.5,1.8-0.8c0.5-0.3,0.8-0.8,1.1-1.4c0.3-0.6,0.5-1.4,0.6-2.5
		c0.1-1,0.2-2.4,0.2-4v-4.6H38.2V38L64.2,0.6z M59.7,34.7v-26l-18,26H59.7z"/>
	<path class="st0" d="M77,13.7c0-2,0.3-3.9,0.8-5.5c0.6-1.6,1.3-3.1,2.3-4.3c1-1.2,2.1-2.2,3.5-2.8c1.4-0.7,2.8-1,4.5-1
		c1.6,0,3.1,0.3,4.5,1c1.4,0.7,2.5,1.6,3.5,2.8c1,1.2,1.8,2.7,2.3,4.3c0.6,1.7,0.8,3.5,0.8,5.5c0,2.1-0.3,4-0.8,5.7
		c-0.6,1.7-1.3,3.2-2.3,4.5c-1,1.3-2.2,2.2-3.5,2.9c-1.4,0.7-2.8,1-4.5,1c-1.6,0-3.1-0.3-4.5-1c-1.4-0.7-2.5-1.7-3.5-2.9
		c-1-1.3-1.7-2.7-2.3-4.5C77.2,17.7,77,15.8,77,13.7z M81.8,13.7c0,1.9,0.2,3.7,0.5,5.3c0.3,1.6,0.7,3,1.3,4.1
		c0.6,1.2,1.2,2.1,2,2.7c0.8,0.6,1.6,1,2.5,1s1.8-0.3,2.6-1c0.8-0.6,1.4-1.5,2-2.7c0.6-1.2,1-2.5,1.3-4.1c0.3-1.6,0.5-3.4,0.5-5.3
		c0-1.9-0.2-3.6-0.5-5.1c-0.3-1.5-0.7-2.9-1.3-4c-0.6-1.1-1.2-2-2-2.6c-0.8-0.6-1.6-0.9-2.6-0.9S86.3,1.4,85.5,2
		c-0.8,0.6-1.4,1.5-2,2.6c-0.6,1.1-1,2.5-1.3,4C82,10.2,81.8,11.9,81.8,13.7z M119.6,0.6l1.2-0.1L85.3,51.9h-1.2L119.6,0.6z
		 M105.7,38.3c0-2,0.3-3.9,0.8-5.5c0.6-1.6,1.3-3.1,2.3-4.3c1-1.2,2.1-2.1,3.5-2.8c1.4-0.7,2.8-1,4.5-1c1.6,0,3.1,0.3,4.5,1
		c1.4,0.7,2.5,1.6,3.5,2.8c1,1.2,1.8,2.6,2.3,4.3c0.6,1.7,0.8,3.5,0.8,5.5c0,2.1-0.3,4-0.8,5.7c-0.6,1.7-1.3,3.2-2.3,4.5
		c-1,1.3-2.2,2.2-3.5,3c-1.4,0.7-2.8,1.1-4.5,1.1c-1.6,0-3.1-0.4-4.5-1.1c-1.4-0.7-2.5-1.7-3.5-3c-1-1.3-1.7-2.7-2.3-4.5
		C106,42.3,105.7,40.4,105.7,38.3z M116.8,51.5c0.9,0,1.8-0.3,2.6-1c0.8-0.6,1.4-1.6,2-2.7c0.6-1.2,1-2.6,1.3-4.2
		c0.3-1.6,0.5-3.4,0.5-5.3c0-1.9-0.2-3.6-0.5-5.1c-0.3-1.5-0.7-2.8-1.3-4c-0.6-1.1-1.2-2-2-2.6c-0.8-0.6-1.6-0.9-2.6-0.9
		s-1.8,0.3-2.5,0.9c-0.8,0.6-1.4,1.5-2,2.6c-0.6,1.1-1,2.4-1.3,4c-0.3,1.5-0.5,3.2-0.5,5.1c0,1.9,0.2,3.7,0.5,5.3
		c0.3,1.6,0.7,3,1.3,4.2c0.6,1.2,1.2,2.1,2,2.7C115,51.2,115.8,51.5,116.8,51.5z"/>
	<path class="st0" d="M80,83.5c0,0.4-0.1,0.6-0.4,0.6c-1.9,0-3.5,0.5-4.9,1.5c-1.4,1-2.9,2.9-4.3,5.7l-26,49.9
		c-0.1,0.2-0.4,0.4-1,0.4c-0.6,0-0.9-0.1-0.9-0.4l-5.8-26.4L23,141.2c-0.2,0.2-0.6,0.4-1.1,0.4s-0.9-0.1-0.9-0.4L10,90.7
		c-0.5-2.4-1.2-4.1-2.1-5.1c-0.9-1-2.1-1.5-3.7-1.5c-0.2,0-0.3-0.2-0.3-0.6c0-0.4,0.1-0.6,0.3-0.6L7.7,83c1.6,0.1,2.9,0.2,3.7,0.2
		c1.6,0,3.5-0.1,5.6-0.2l3.4-0.1c0.2,0,0.4,0.2,0.4,0.6c0,0.4-0.1,0.6-0.4,0.6c-1.7,0-3,0.3-3.8,0.8c-0.9,0.6-1.3,1.6-1.3,3
		c0,0.8,0.1,1.4,0.2,1.9l9.8,43.7L36,112.1l-4.7-21.5c-0.5-2.5-1.1-4.2-1.9-5.2c-0.8-1-2-1.4-3.6-1.4c-0.2,0-0.3-0.2-0.3-0.6
		c0-0.4,0.1-0.6,0.3-0.6l3.4,0.1c1.6,0.1,2.8,0.2,3.6,0.2c1.1,0,2.4-0.1,3.9-0.2l2.3-0.1c0.3,0,0.5,0.2,0.5,0.6
		c0,0.4-0.2,0.6-0.5,0.6c-1.1,0-1.8,0.1-2.2,0.4c-0.4,0.2-0.6,0.7-0.6,1.5c0,0.7,0.2,2,0.6,3.8l3.5,15.5l7.5-14.6
		c1.1-2,1.6-3.5,1.6-4.6c0-1.4-1.1-2.1-3.3-2.1c-0.2,0-0.3-0.2-0.3-0.6c0-0.4,0.1-0.6,0.3-0.6l2.1,0.1c1.2,0.1,2.4,0.2,3.4,0.2
		c0.9,0,2.1-0.1,3.6-0.2l3.4-0.1c0.2,0,0.3,0.2,0.3,0.6c0,0.4-0.1,0.6-0.3,0.6c-1.8,0-3.4,0.5-4.8,1.5c-1.4,1-2.8,2.9-4.3,5.7
		L40.9,108l5.7,25.5l21.9-42.8c0.8-1.6,1.2-2.8,1.2-3.6c0-1-0.5-1.7-1.4-2.2c-0.9-0.5-2.3-0.7-4.2-0.7c-0.2,0-0.4-0.2-0.4-0.6
		c0-0.4,0.1-0.6,0.4-0.6l3.3,0.1c1.9,0.1,3.5,0.2,4.9,0.2c1,0,2.2-0.1,3.7-0.2l3.5-0.1C79.9,82.9,80,83.1,80,83.5z"/>
	<path class="st0" d="M98.9,134c0.2,0,0.3,0.1,0.5,0.3c0.1,0.2,0.1,0.4,0,0.5c-2.1,2.4-4,4.2-5.6,5.5c-1.6,1.2-3.3,1.8-4.8,1.8
		c-1.1,0-1.9-0.3-2.4-1c-0.5-0.7-0.8-1.7-0.8-3.2c0-1.2,0.2-2.9,0.6-4.9l1.7-9.7c-2.9,5.8-6.1,10.4-9.7,14c-3.6,3.5-7,5.3-10.3,5.3
		c-3.9,0-5.8-2.3-5.8-6.9c0-0.5,0.1-1.4,0.2-2.8c0.6-4.4,2.3-8.9,4.9-13.3c2.7-4.5,5.8-8.2,9.4-11.1c3.6-2.9,7-4.3,10.2-4.3
		c1.2,0,2.3,0.2,3.5,0.7c1.1,0.4,2,1.1,2.7,2c1.1-0.9,1.9-2.1,2.2-3.4c0.1-0.2,0.3-0.2,0.7-0.2c0.4,0.1,0.5,0.2,0.5,0.3L91,133
		c-0.2,0.9-0.3,1.8-0.3,2.5c0,1.9,0.6,2.9,1.7,2.9c1.4,0,3.4-1.4,6.2-4.3C98.6,134,98.7,134,98.9,134z M78.5,134.4
		c2.5-2.3,4.8-5.2,6.8-8.7c2-3.5,3.3-7,4-10.3c0.2-0.8,0.2-1.5,0.2-2.1c0-1.9-0.5-3.3-1.4-4.4c-1-1.1-2.4-1.6-4.3-1.6
		c-2.2,0.1-4.4,1-6.7,2.9c-2.3,1.9-4.2,4.5-5.9,7.7c-1.7,3.2-2.8,6.8-3.4,10.7c-0.2,1.4-0.3,2.6-0.3,3.7c0,3.7,1.3,5.6,3.9,5.6
		C73.6,137.9,75.9,136.7,78.5,134.4z"/>
	<path class="st0" d="M124.9,106.2c0,0.5-0.3,1.2-1,2c-0.7,0.8-1.3,1.2-2,1.2c-0.3,0-1.5-0.1-3.7-0.4c-2.1-0.3-4.2-0.5-6.3-0.5
		l-4.1,23.2c-0.2,1-0.3,1.9-0.3,2.7c0,1.6,0.4,2.7,1.1,3.5c0.7,0.7,1.9,1.1,3.5,1.1c1.6,0,3.1-0.4,4.6-1.1c1.4-0.7,2.9-1.7,4.4-3
		h0.1c0.2,0,0.4,0.1,0.6,0.3c0.2,0.2,0.2,0.3,0,0.5c-2.8,2.4-5.2,4.2-7.3,5.3c-2.1,1.1-4.1,1.6-6,1.6c-1.8,0-3.3-0.5-4.5-1.4
		c-1.2-0.9-1.8-2.4-1.8-4.5c0-0.4,0.1-1.1,0.2-2.1l4-21.8c0.2-1.2,0.4-2.2,0.4-3c0-0.9-0.2-1.4-0.7-1.7c-0.5-0.3-1.4-0.4-2.8-0.4
		c-0.2,0-0.3-0.2-0.3-0.5c0-0.1,0-0.3,0.1-0.4c0.1-0.2,0.2-0.2,0.2-0.2c2.1,0,4-0.7,5.5-2.1c1.6-1.4,2.6-3.1,3.2-5.1
		c0.1-0.2,0.4-0.3,0.8-0.3c0.6,0,0.9,0.1,0.7,0.3l-1.2,6.9c3-0.1,5.9-0.3,8.7-0.5l3.2-0.2C124.7,105.5,124.9,105.7,124.9,106.2z"/>
	<path class="st0" d="M148.7,113.8c-2,1.8-4.7,3.3-8.1,4.6c-3.4,1.3-7,2.3-11,2.9c-0.3,2-0.5,3.7-0.5,5.1c0,3.9,0.9,7,2.6,9.3
		c1.7,2.3,4.2,3.5,7.4,3.5c3.5,0,6.6-1,9.3-3.1h0.2c0.2,0,0.4,0.1,0.5,0.3c0.2,0.2,0.1,0.4,0,0.6c-4.4,3.6-8.9,5.4-13.6,5.4
		c-3.9,0-6.9-1.3-8.9-3.8c-2-2.5-3-5.8-3-9.8c0-1.4,0.2-3,0.5-4.9c0.6-3.2,1.9-6.3,3.9-9.4s4.6-5.6,7.7-7.6c3.1-2,6.3-3,9.7-3
		c2.1,0,3.6,0.4,4.8,1.1c1.1,0.7,1.7,1.8,1.7,3.1C151.7,110.1,150.7,112,148.7,113.8z M133.9,110.3c-2,2.5-3.3,5.7-4.1,9.7
		c4.4-0.7,7.9-1.9,10.6-3.4c2.7-1.5,4.3-3.4,4.9-5.6c0.1-0.6,0.2-1.1,0.2-1.3c0-1.1-0.4-1.9-1.3-2.4c-0.9-0.5-1.9-0.8-3.1-0.8
		C138.3,106.5,135.9,107.8,133.9,110.3z"/>
	<path class="st0" d="M179.7,105.7c1.1,0.9,1.7,1.9,1.7,3.1c0,0.9-0.3,1.7-0.9,2.3c-0.6,0.6-1.3,0.9-2.2,0.9c-0.7,0-1.2-0.2-1.6-0.5
		c-0.4-0.3-0.8-0.8-1.3-1.4c-0.2-0.3-0.5-0.6-0.8-0.9c-0.3-0.3-0.7-0.4-1-0.4c-1.4,0-3,1.8-4.9,5.4c-1.9,3.6-3.7,7.9-5.4,13
		c-1.7,5-2.9,9.5-3.6,13.3c-0.1,0.4-0.4,0.8-0.9,1c-0.5,0.2-1.2,0.4-2.1,0.4c-0.8,0-1.4,0-1.6-0.1c-0.3-0.1-0.4-0.2-0.4-0.4l0.5-2.1
		l0.9-4.9l3.1-17.3c0.4-2.1,0.6-3.7,0.6-4.9c0-2.8-0.7-4.2-2.2-4.2c-1.4,0-3.3,1.2-5.7,3.5l-0.2,0.1c-0.2,0-0.3-0.1-0.5-0.3
		c-0.1-0.2-0.2-0.4-0.1-0.5c1.9-2.1,3.7-3.7,5.3-4.8c1.6-1.1,3.2-1.6,4.8-1.6c1.2,0,2.2,0.4,2.8,1.2c0.6,0.8,0.9,2.2,0.9,4.2
		c0,1.6-0.2,3.9-0.7,7.1l-2,10.6c2.1-6.5,4.4-12,7-16.5c2.5-4.4,5-6.7,7.3-6.7C177.4,104.4,178.6,104.8,179.7,105.7z"/>
	<path class="st0" d="M199.2,142.6c1.4-0.4,2.4-1.1,2.9-2c0.5-0.9,0.7-2.4,0.7-4.5V97.7c0-1.1-0.1-2-0.2-2.7
		c-0.1-0.7-0.3-1.3-0.6-1.8c-0.3-0.5-0.6-0.9-1.1-1.2c-0.5-0.3-1.1-0.6-1.8-0.8h15.2c5.2,0,9.4,1,12.4,3.1c3.1,2.1,4.6,5.1,4.6,9
		c0,3.2-1.1,6-3.3,8.2c-2.2,2.2-5.3,3.7-9.2,4.5c4.4,0.6,7.9,2,10.4,4.1c2.5,2.1,3.8,4.9,3.8,8.3c0,2.2-0.4,4.2-1.2,5.9
		c-0.8,1.7-1.9,3.2-3.4,4.4c-1.5,1.2-3.2,2.1-5.4,2.8c-2.1,0.6-4.5,1-7.1,1H199.2z M207.9,115.6h7.1c3.4,0,6.1-1.1,8.1-3.2
		c2-2.2,3-5,3-8.5c0-3.7-1.1-6.5-3.3-8.5c-2.2-2-5.3-3-9.3-3h-5.7V115.6z M207.9,141.4h7.1c4,0,7.1-1.1,9.3-3.3
		c2.2-2.2,3.3-5.3,3.3-9.2c0-3.8-1.1-6.8-3.4-8.9c-2.2-2.1-5.2-3.1-9-3.1h-7.4V141.4z"/>
	<path class="st0" d="M254.1,119.7l7.4-2v-5.3c0-3.7-0.7-6.4-2-8.2c-1.3-1.7-3.3-2.6-6-2.6c-1.2,0-2.5,0.2-3.8,0.7
		c-1.3,0.5-2.5,1.3-3.6,2.5c-1.1,1.2-2.2,2.8-3.1,4.9c-1,2.1-1.7,4.7-2.4,7.8l-0.4-12.3c1.6-1.4,3.7-2.6,6-3.4
		c2.4-0.8,4.9-1.3,7.4-1.3c3.9,0,7,1,9.3,3.1c2.3,2.1,3.4,5.1,3.4,9.1v23.4c0,1.4,0.1,2.7,0.4,3.8c0.3,1.1,0.8,2,1.4,2.7l-6.5,0.2
		V133c-0.4,1.2-1,2.4-1.7,3.6c-0.7,1.2-1.5,2.2-2.5,3.2c-1,0.9-2.2,1.7-3.6,2.2c-1.4,0.5-2.9,0.8-4.7,0.8c-1.6,0-3.1-0.2-4.5-0.6
		c-1.4-0.4-2.6-1-3.6-1.8c-1-0.8-1.8-1.8-2.4-3c-0.6-1.2-0.9-2.6-0.9-4.2c0-2.2,0.5-4.1,1.6-5.6c1.1-1.5,2.4-2.8,4.1-3.8
		c1.6-1,3.4-1.9,5.3-2.5C250.7,120.6,252.5,120.1,254.1,119.7z M243.3,133.1c0,2.5,0.6,4.6,1.8,6.2c1.2,1.6,2.9,2.4,5.2,2.4
		c1.2,0,2.5-0.3,3.8-0.9c1.3-0.6,2.5-1.5,3.5-2.6c1.1-1.2,1.9-2.6,2.7-4.3c0.7-1.7,1.1-3.7,1.2-6v-9.2l-7.2,1.9
		c-0.9,0.2-2,0.6-3.3,1.1c-1.3,0.5-2.5,1.2-3.6,2.1c-1.1,0.9-2.1,2.1-2.9,3.6C243.7,129,243.3,130.8,243.3,133.1z"/>
	<path class="st0" d="M272.6,138.6l1.1-14c0.3,3.3,0.8,6.1,1.5,8.3s1.6,4,2.7,5.3c1.1,1.3,2.3,2.2,3.7,2.8c1.4,0.5,2.9,0.8,4.5,0.8
		c3.3,0,5.8-0.9,7.3-2.7c1.6-1.8,2.4-3.9,2.4-6.5c0-1.5-0.2-2.7-0.7-3.7c-0.5-1-1.1-1.8-1.8-2.5c-0.7-0.7-1.4-1.2-2.2-1.6
		c-0.8-0.4-1.5-0.7-2.2-0.9l-7.1-2.7c-0.7-0.2-1.5-0.6-2.4-1.1c-0.9-0.5-1.7-1.2-2.5-2c-0.8-0.8-1.5-1.9-2-3.1
		c-0.6-1.2-0.8-2.6-0.8-4.2c0-3.2,1.1-5.8,3.3-7.7c2.2-1.9,5.1-2.8,8.6-2.8c2.4,0,4.7,0.4,6.7,1.3c2,0.8,3.8,2,5.2,3.4l-0.5,10
		c-1.1-4.8-2.6-8.3-4.4-10.4c-1.8-2.1-4.2-3.2-7.2-3.2c-2.4,0-4.4,0.6-6,1.9c-1.6,1.3-2.4,3.2-2.4,5.8c0,1.2,0.2,2.2,0.7,3
		c0.4,0.8,1,1.4,1.6,2c0.6,0.5,1.3,0.9,2.1,1.3c0.8,0.3,1.5,0.6,2.1,0.8l6.4,2.4c0.8,0.3,1.8,0.7,2.9,1.3c1.1,0.5,2.1,1.3,3.1,2.2
		c1,0.9,1.8,2,2.5,3.4c0.7,1.4,1,3,1,5c0,1.8-0.3,3.5-0.9,5c-0.6,1.5-1.5,2.9-2.7,4c-1.2,1.1-2.7,2-4.4,2.7c-1.8,0.6-3.8,1-6.1,1
		c-2.5,0-5-0.4-7.3-1.1C276,141.1,274.1,140,272.6,138.6z"/>
	<path class="st0" d="M321.9,100.5c2.7,0,5,0.4,6.9,1.3c2,0.8,3.6,2,4.9,3.5c1.3,1.5,2.2,3.3,2.9,5.4c0.6,2.1,1,4.3,1,6.8h-28
		c-0.1,0.7-0.2,1.5-0.2,2.3c0,0.8-0.1,1.5-0.1,2.3c0,2.8,0.3,5.4,1,7.9c0.7,2.4,1.6,4.5,2.9,6.3c1.2,1.8,2.7,3.2,4.4,4.2
		c1.7,1,3.5,1.5,5.5,1.5c1.8,0,3.4-0.4,4.8-1.1c1.4-0.7,2.8-1.7,4-3.1c1.2-1.3,2.3-2.9,3.2-4.8c1-1.8,1.8-3.9,2.5-6.1l-0.6,10.7
		c-2,1.8-4.2,3.2-6.6,4c-2.5,0.9-4.9,1.3-7.2,1.3c-2.8,0-5.4-0.5-7.7-1.5c-2.3-1-4.4-2.4-6.1-4.2c-1.7-1.8-3-4-4-6.6
		c-0.9-2.6-1.4-5.5-1.4-8.6c0-3.1,0.4-6,1.2-8.6c0.8-2.6,2-4.9,3.6-6.8c1.6-1.9,3.4-3.4,5.6-4.5C316.7,101,319.1,100.5,321.9,100.5z
		 M309.8,116.6h22.7c0-2.2-0.3-4.2-0.8-6c-0.5-1.8-1.2-3.4-2.1-4.8c-0.9-1.4-2-2.4-3.3-3.2c-1.3-0.8-2.8-1.1-4.5-1.1
		c-1.6,0-3.1,0.4-4.4,1.1c-1.3,0.7-2.5,1.8-3.6,3.1c-1,1.4-1.9,3-2.6,4.8C310.6,112.3,310.1,114.3,309.8,116.6z"/>
</g>
</svg>
