<?xml version="1.0" encoding="utf-8"?>
<!-- Generator: Adobe Illustrator 25.4.1, SVG Export Plug-In . SVG Version: 6.00 Build 0)  -->
<svg version="1.1" id="レイヤー_1" xmlns="http://www.w3.org/2000/svg" xmlns:xlink="http://www.w3.org/1999/xlink" x="0px"
	 y="0px" viewBox="0 0 125 40" style="enable-background:new 0 0 125 40;" xml:space="preserve">
<style type="text/css">
	.st0{fill:#FFFFFF;stroke:#FFFFFF;stroke-width:0.25;stroke-miterlimit:10;}
</style>
<g>
	<path class="st0" d="M5.4,10.7H4.5L5,7.6H3.1l-0.4,3.2H1.8l0.4-3.2h-2l0.1-0.8h2L2.6,5h-2l0.1-0.8h2l0.4-2.9H4L3.6,4.1h1.8l0.4-2.9
		h0.9L6.3,4.1h2L8.2,5h-2L6,6.7h2L7.9,7.6h-2L5.4,10.7z M3.5,5L3.2,6.7h1.9L5.3,5H3.5z"/>
	<path class="st0" d="M13.2,3.1v1.2c0.9-0.9,1.9-1.4,3.1-1.4c1.3,0,2.3,0.5,2.9,1.5c1-1.1,1.9-1.5,3.2-1.5c1.2,0,2.2,0.4,2.7,1.1
		c0.4,0.5,0.5,1.1,0.5,2.5v4.8H24V6.6c0-1-0.1-1.3-0.4-1.7c-0.4-0.4-0.9-0.6-1.6-0.6c-1.5,0-2.6,0.9-2.6,2.2v4.8h-1.6V6.5
		c0-1.1-0.1-1.4-0.4-1.7c-0.4-0.3-0.9-0.5-1.6-0.5c-0.7,0-1.3,0.2-1.8,0.6c-0.5,0.4-0.7,0.9-0.7,1.7v4.7h-1.6V3.1H13.2z"/>
	<path class="st0" d="M38.1,7.3c0,2.5-2,4.2-4.8,4.2c-2.8,0-4.8-1.8-4.8-4.3s2-4.3,4.8-4.3C36.2,2.9,38.1,4.7,38.1,7.3z M30.2,7.2
		c0,1.8,1.2,3,3.1,3c1.8,0,3.1-1.2,3.1-3c0-1.9-1.2-3.1-3.1-3.1C31.5,4.2,30.2,5.4,30.2,7.2z"/>
	<path class="st0" d="M41.1,0.2h1.6v1.7h-1.6V0.2z M41.1,3.1h1.6v8.2h-1.6V3.1z"/>
	<path class="st0" d="M52,5.7c-0.1-1-0.8-1.5-2.3-1.5c-1.3,0-2.2,0.4-2.2,1.1c0,0.3,0.2,0.6,0.6,0.7c0.3,0.1,0.6,0.2,2,0.4
		c2.2,0.3,2.5,0.4,3,0.8c0.5,0.4,0.8,1,0.8,1.7c0,1.7-1.4,2.6-4.1,2.6s-4-0.9-4.3-2.9h1.7c0.1,1,1,1.6,2.6,1.6
		c1.6,0,2.4-0.4,2.4-1.2c0-0.3-0.2-0.6-0.5-0.7s-0.3-0.1-2-0.4c-1.6-0.2-2-0.3-2.5-0.6c-0.8-0.3-1.3-1-1.3-1.9
		c0-1.6,1.4-2.5,3.9-2.5s3.7,0.9,3.9,2.8H52z"/>
	<path class="st0" d="M58.5,3.1h1.9v1.3h-1.9v4.7c0,0.7,0.2,0.9,1,0.9c0.3,0,0.5,0,0.9-0.1v1.3c-0.6,0.1-0.9,0.1-1.3,0.1
		c-0.8,0-1.4-0.2-1.8-0.5c-0.3-0.3-0.4-0.7-0.4-1.7V4.5h-1.1V3.1h1.1V0.8h1.6V3.1z"/>
	<path class="st0" d="M71,11.3h-1.6v-1.2c-1.1,1-1.9,1.4-3.2,1.4c-1,0-1.9-0.3-2.5-0.8c-0.6-0.5-0.8-1.1-0.8-2.3V3.1h1.6v5.1
		c0,0.8,0.1,1.1,0.6,1.5c0.4,0.3,0.9,0.4,1.5,0.4c1.6,0,2.9-1,2.9-2.3V3.1H71V11.3z"/>
	<path class="st0" d="M75.9,3.1v1.2c1-1.1,1.6-1.4,2.7-1.4c0.3,0,0.5,0,1,0.1v1.6c-0.5-0.1-0.7-0.1-1.1-0.1c-0.8,0-1.5,0.3-2,0.8
		c-0.4,0.5-0.6,0.8-0.6,1.6v4.5h-1.6V3.1H75.9z"/>
	<path class="st0" d="M83.3,7.7c0.2,1.6,1.4,2.6,3.1,2.6c1.3,0,2.1-0.5,2.6-1.5h1.7c-0.8,1.9-2.3,2.8-4.4,2.8
		c-2.7,0-4.5-1.7-4.5-4.3c0-2.6,1.9-4.3,4.6-4.3c2,0,3.5,0.9,4.2,2.4c0.3,0.7,0.4,1.3,0.4,2.3H83.3z M89.2,6.4
		c-0.4-1.4-1.4-2.3-2.9-2.3c-1.5,0-2.6,0.8-3,2.3H89.2z"/>
	<path class="st0" d="M5.4,36.3H4.5L5,33.2H3.1l-0.4,3.2H1.8l0.4-3.2h-2l0.1-0.8h2l0.2-1.8h-2l0.1-0.8h2l0.4-2.9H4l-0.4,2.9h1.8
		l0.4-2.9h0.9l-0.4,2.9h2l-0.1,0.8h-2L6,32.3h2l-0.1,0.8h-2L5.4,36.3z M3.5,30.6l-0.2,1.8h1.9l0.2-1.8H3.5z"/>
	<path class="st0" d="M20.3,28.7v6.9c0,1.6-0.2,2.4-0.9,3c-0.8,0.8-2,1.2-3.6,1.2c-2.7,0-4-0.8-4.2-2.5h1.8c0.1,0.9,0.9,1.3,2.4,1.3
		c2.1,0,3-0.8,3-2.5v-0.4c-1.1,1-2,1.3-3.3,1.3c-2.6,0-4.3-1.7-4.3-4.2c0-2.5,1.8-4.2,4.4-4.2c1.3,0,2.2,0.4,3.2,1.2v-1H20.3z
		 M12.8,32.7c0,1.7,1.2,2.8,3,2.8c1.8,0,3-1.1,3-2.8c0-1.7-1.2-2.9-3-2.9C14,29.9,12.8,31,12.8,32.7z"/>
	<path class="st0" d="M25.3,36.9h-1.6V25.8h1.6V36.9z"/>
	<path class="st0" d="M37.7,32.9c0,2.5-2,4.2-4.8,4.2c-2.8,0-4.8-1.8-4.8-4.3s2-4.3,4.8-4.3C35.8,28.5,37.7,30.3,37.7,32.9z
		 M29.9,32.8c0,1.8,1.2,3,3.1,3c1.8,0,3.1-1.2,3.1-3c0-1.9-1.2-3.1-3.1-3.1C31.1,29.8,29.9,31,29.9,32.8z"/>
	<path class="st0" d="M48.7,36.9l-2.1-6.3l-2.1,6.3h-1.7l-3.1-8.2h1.7l2.2,6.3l2.1-6.3h1.8l2,6.3l2.2-6.3h1.7l-3.1,8.2H48.7z"/>
	<path class="st0" d="M55.7,25.8h1.6v1.7h-1.6V25.8z M55.7,28.7h1.6v8.2h-1.6V28.7z"/>
	<path class="st0" d="M60.7,28.7h1.6v1.2c1.1-1,1.9-1.4,3.2-1.4c1,0,1.9,0.3,2.5,0.8c0.6,0.5,0.8,1.1,0.8,2.3v5.2h-1.6v-5.1
		c0-0.8-0.1-1.1-0.6-1.5c-0.4-0.3-0.9-0.4-1.5-0.4c-1.6,0-2.9,1-2.9,2.3v4.8h-1.6V28.7z"/>
	<path class="st0" d="M80.9,28.7v6.9c0,1.6-0.2,2.4-0.9,3c-0.8,0.8-2,1.2-3.6,1.2c-2.7,0-4-0.8-4.2-2.5H74c0.1,0.9,0.9,1.3,2.4,1.3
		c2.1,0,3-0.8,3-2.5v-0.4c-1.1,1-2,1.3-3.3,1.3c-2.6,0-4.3-1.7-4.3-4.2c0-2.5,1.8-4.2,4.4-4.2c1.3,0,2.2,0.4,3.2,1.2v-1H80.9z
		 M73.4,32.7c0,1.7,1.2,2.8,3,2.8c1.8,0,3-1.1,3-2.8c0-1.7-1.2-2.9-3-2.9C74.6,29.9,73.4,31,73.4,32.7z"/>
	<path class="st0" d="M96,31.3c-0.1-1-0.8-1.5-2.3-1.5c-1.3,0-2.2,0.4-2.2,1.1c0,0.3,0.2,0.6,0.6,0.7c0.3,0.1,0.6,0.2,2,0.4
		c2.2,0.3,2.5,0.4,3,0.8c0.5,0.4,0.8,1,0.8,1.7c0,1.7-1.4,2.6-4.1,2.6s-4-0.9-4.3-2.9h1.7c0.1,1,1,1.6,2.6,1.6
		c1.6,0,2.4-0.4,2.4-1.2c0-0.3-0.2-0.6-0.5-0.7s-0.3-0.1-2-0.4c-1.6-0.2-2-0.3-2.5-0.6c-0.8-0.3-1.3-1-1.3-1.9
		c0-1.6,1.4-2.5,3.9-2.5s3.7,0.9,3.9,2.8H96z"/>
	<path class="st0" d="M102.3,25.8v6.3l4.2-3.4h2.4l-3.9,3.1l4.4,5.1h-2.2l-3.4-4.1l-1.4,1.1v3h-1.6V25.8H102.3z"/>
	<path class="st0" d="M111.6,25.8h1.6v1.7h-1.6V25.8z M111.6,28.7h1.6v8.2h-1.6V28.7z"/>
	<path class="st0" d="M116.6,28.7h1.6v1.2c1.1-1,1.9-1.4,3.2-1.4c1,0,1.9,0.3,2.5,0.8c0.6,0.5,0.8,1.1,0.8,2.3v5.2h-1.6v-5.1
		c0-0.8-0.1-1.1-0.6-1.5c-0.4-0.3-0.9-0.4-1.5-0.4c-1.6,0-2.9,1-2.9,2.3v4.8h-1.6V28.7z"/>
</g>
</svg>
