<?xml version="1.0" encoding="utf-8"?>
<!-- Generator: Adobe Illustrator 25.4.1, SVG Export Plug-In . SVG Version: 6.00 Build 0)  -->
<svg version="1.1" id="レイヤー_1" xmlns="http://www.w3.org/2000/svg" xmlns:xlink="http://www.w3.org/1999/xlink" x="0px"
	 y="0px" viewBox="0 0 100 560" style="enable-background:new 0 0 100 560;" xml:space="preserve">
<style type="text/css">
	.st0{fill:#9B5852;}
</style>
<g>
	<g>
		<path class="st0" d="M34.1,44h-9.2c-6.7,0-12.4-2.4-17-7.1c-4.7-4.7-7.1-10.4-7.1-17V0.3h98.8v18.4c0,6.6-2.4,12.3-7.1,17
			c-4.7,4.7-10.4,7.1-17.1,7.1h-9.1c-6.4,0-11.8-3.4-15.5-6.7C46.9,39.5,40.6,44,34.1,44z M42,19.9v-3.3H17v3.3
			c0,4.3,3.6,7.9,7.9,7.9h9.2C38.4,27.8,42,24.2,42,19.9z M83.2,19.3v-2.7H58.3v2.7c0,4.3,3.6,7.9,7.9,7.9h9.1
			C79.6,27.2,83.2,23.6,83.2,19.3z"/>
		<path class="st0" d="M0.8,56.7v-3.5h3.6h44.8h20.6H96h3.6v3.5v9.2v6.3c0,6.7-2.4,12.4-7.1,17.1S82,96.4,75.3,96.4H60.6
			c-6.1,0-11.5-2.6-16-6.7c-4.6,4.1-9.9,6.7-16,6.7H9.9c-4-0.2-7,0.3-9.1,1.5V81.6c1.1-0.7,2.5-1.1,4.2-1.2s3.3-0.2,4.9-0.3h18.6
			c2.2,0,4.1-0.8,5.6-2.3c1.6-1.6,2.3-3.4,2.3-5.6v-2.7h-32H0.8v-3.5V56.7z M52.7,69.5v3.3c0,2.2,0.8,4,2.3,5.6
			c1.6,1.6,3.4,2.3,5.6,2.3h14.8c2.2,0,4.1-0.8,5.6-2.3c1.6-1.6,2.3-3.4,2.3-5.6v-3.3H52.7z"/>
		<path class="st0" d="M99.6,120.3v3.5H96H4.4H0.8v-3.5v-9.2v-3.5h3.6H96h3.6v3.5V120.3z"/>
		<path class="st0" d="M93.1,171.7c-4.2,4.3-9.4,6.4-15.5,6.4h-2.3h-3.6v-3.6v-9.1v-3.6h3.6h2.3c1.6,0,2.9-0.5,4-1.6
			c1.1-1.1,1.6-2.4,1.6-3.9c0-1.6-0.5-2.9-1.6-4c-1.1-1.1-2.4-1.6-4-1.6H22.7c-1.6,0-2.9,0.5-4,1.6c-1.1,1.1-1.6,2.5-1.6,4
			c0,1.5,0.5,2.8,1.6,3.9s2.4,1.6,4,1.6h2.3h3.6v3.6v9.1v3.6h-3.6h-2.3c-6,0-11.2-2.1-15.5-6.4c-4.3-4.3-6.4-9.4-6.4-15.5
			c0-6.1,2.1-11.3,6.4-15.5c4.3-4.3,9.4-6.4,15.5-6.4h54.9c6.1,0,11.2,2.1,15.5,6.4c4.3,4.2,6.5,9.4,6.5,15.5
			C99.6,162.2,97.4,167.4,93.1,171.7z"/>
		<path class="st0" d="M99.6,203.3H64.9l32.6,11.1l2,0.9v17.2c-15.8-7.3-27-10.3-45.5-17.6c-21.1,7-34.7,11-53.2,17.9v-17.4
			c7.6-2.4,22.8-6.6,40.9-12c-9.5,0-31.4-0.2-40.9-0.2V187h98.8V203.3z"/>
	</g>
	<g>
		<path class="st0" d="M34,307.9h-9.2c-6.8,0-12.7-2.4-17.4-7.3c-4.8-4.8-7.2-10.7-7.2-17.4v-20h99.8v18.9c0,6.7-2.4,12.6-7.2,17.4
			c-4.8,4.8-10.6,7.2-17.5,7.2H66c-6.6,0-12-3.5-15.5-6.5C44.6,305.3,39,307.9,34,307.9z M1.1,264.2v19c0,6.5,2.3,12.1,7,16.7
			c4.5,4.6,10.2,7,16.7,7H34c4.8,0,10.4-2.7,16.3-7.7l0.3-0.3l0.3,0.3c3.3,3,8.6,6.6,15.1,6.6h9.1c6.5,0,12.2-2.3,16.7-7
			c4.6-4.6,7-10.2,7-16.7v-17.9H1.1z M34,291.6h-9.2c-4.6,0-8.4-3.8-8.4-8.4v-3.8h26v3.8C42.4,287.8,38.5,291.6,34,291.6z
			 M17.4,280.4v2.8c0,4,3.4,7.4,7.4,7.4H34c4,0,7.4-3.4,7.4-7.4v-2.8H17.4z M75.2,291H66c-4.6,0-8.4-3.8-8.4-8.4v-3.2h25.9v3.2
			C83.6,287.2,79.7,291,75.2,291z M58.6,280.4v2.2c0,4,3.4,7.4,7.4,7.4h9.1c4,0,7.4-3.4,7.4-7.4v-2.2H58.6z"/>
		<path class="st0" d="M0.1,362v-17.4l0.2-0.1c1.2-0.7,2.7-1.2,4.4-1.3c1.7-0.2,3.3-0.2,4.9-0.3h18.6c2.1,0,3.8-0.7,5.2-2.2
			c1.5-1.5,2.2-3.2,2.2-5.2v-2.2H0.1V316h99.8v19.5c0,6.8-2.4,12.6-7.2,17.5s-10.7,7.2-17.5,7.2H60.4c-5.7,0-11.1-2.2-16-6.5
			c-5,4.3-10.4,6.5-16,6.5H9.7c-3.9-0.2-6.9,0.3-8.9,1.4L0.1,362z M1.1,345.2v15.2c2.1-0.9,5-1.3,8.6-1.2h18.6
			c5.5,0,10.8-2.2,15.7-6.6l0.3-0.3l0.3,0.3c4.8,4.4,10.1,6.6,15.7,6.6h14.8c6.5,0,12.1-2.3,16.8-7s7-10.3,7-16.8V317H1.1v15.3h35.6
			v3.2c0,2.3-0.8,4.3-2.5,5.9c-1.6,1.6-3.6,2.5-5.9,2.5H9.7c-1.6,0-3.2,0.1-4.8,0.3C3.4,344.3,2.1,344.7,1.1,345.2z M75.2,344.5
			H60.4c-2.3,0-4.3-0.8-5.9-2.5c-1.6-1.6-2.5-3.6-2.5-5.9v-3.8h31.6v3.8c0,2.3-0.8,4.3-2.5,5.9C79.5,343.6,77.5,344.5,75.2,344.5z
			 M53,333.3v2.8c0,2,0.7,3.7,2.2,5.2c1.5,1.5,3.2,2.2,5.2,2.2h14.8c2.1,0,3.8-0.7,5.2-2.2c1.5-1.5,2.2-3.2,2.2-5.2v-2.8H53z"/>
		<path class="st0" d="M77.4,413.7H22.5c-6.1,0-11.4-2.2-15.8-6.6c-4.4-4.4-6.6-9.7-6.6-15.8c0-6.2,2.2-11.5,6.6-15.8
			c4.4-4.4,9.7-6.6,15.8-6.6h54.9c6.2,0,11.5,2.2,15.8,6.6c4.4,4.3,6.6,9.6,6.6,15.8c0,6.1-2.2,11.4-6.6,15.8l0,0l0,0
			C88.9,411.5,83.6,413.7,77.4,413.7z M22.5,370c-5.9,0-10.9,2.1-15.1,6.3c-4.2,4.1-6.3,9.2-6.3,15.1c0,5.9,2.1,10.9,6.3,15.1
			c4.2,4.2,9.3,6.3,15.1,6.3h54.9c5.9,0,10.9-2.1,15.1-6.3l0,0c4.2-4.2,6.3-9.3,6.3-15.1c0-5.9-2.1-11-6.3-15.1
			c-4.1-4.2-9.2-6.3-15.1-6.3H22.5z M77.4,397.4H22.5c-1.7,0-3.1-0.6-4.3-1.8c-1.2-1.3-1.8-2.7-1.8-4.3c0-1.6,0.6-3.1,1.8-4.3
			c1.2-1.2,2.7-1.8,4.3-1.8h54.9c1.7,0,3.1,0.6,4.3,1.8c1.2,1.2,1.8,2.6,1.8,4.3c0,1.6-0.6,3.1-1.8,4.3
			C80.6,396.8,79.1,397.4,77.4,397.4z M22.5,386.2c-1.4,0-2.6,0.5-3.6,1.5c-1,1-1.5,2.2-1.5,3.6c0,1.3,0.5,2.5,1.5,3.6
			c1,1,2.2,1.5,3.6,1.5h54.9c1.4,0,2.6-0.5,3.6-1.5c1-1,1.5-2.2,1.5-3.6c0-1.4-0.5-2.6-1.5-3.6l0,0c-1-1-2.2-1.5-3.6-1.5H22.5z"/>
		<path class="st0" d="M99.9,498.9l-0.6-0.1c-19.6-3.4-39.2-6.7-58.9-10.1c-12.3-2.1-24.6-4.2-36.9-6.3l-3.4-0.6v-16.8l0.4-0.1
			c10.5-1.5,21.4-2.8,32-4.1c5.2-0.6,10.6-1.3,15.9-1.9l-44.9-5.4L0.1,453v-16.8l0.4-0.1c19.2-3.3,38.4-6.6,57.6-9.8l41.8-7.2v17.4
			l-3.4,0.6l-51.7,7.5l55.1,8v12.7l-55.1,8l51.7,7.5l3.4,0.6V498.9z M1.1,481l2.5,0.4c12.3,2.1,24.6,4.2,36.9,6.3
			c19.4,3.3,38.9,6.6,58.3,10v-15.4l-2.5-0.4l-58.5-8.4l61.1-8.9v-11l-61.1-8.9l58.5-8.4l2.5-0.4v-15.3l-3.6,0.6l-37,6.3
			c-19,3.2-38.1,6.5-57.1,9.8v15.1l2.5,0.4l52.9,6.4l-4,0.5c-6.6,0.8-13.4,1.6-19.9,2.4c-10.4,1.2-21.2,2.5-31.5,4V481z"/>
		<path class="st0" d="M99.9,559.7H0.1v-23.3l0.4-0.1c7.5-1.8,13.6-3.2,18.7-4.5c19.8-4.7,25.9-6.2,41.5-9.4H0.1v-17.3h99.8v22.7
			l-0.4,0.1c-23,5.1-31.9,7.3-41.4,9.7c-5.9,1.5-11.9,3-21.6,5.2c7.8,0,18.6-0.2,29.2-0.3c12.8-0.1,26-0.3,33.7-0.3h0.5V559.7z
			 M1.1,558.7h97.8v-15.3c-7.7,0-20.6,0.1-33.2,0.3c-12.8,0.1-26,0.3-33.7,0.3h-4.4l4.3-1c12.3-2.8,19.2-4.5,25.9-6.2
			c9.4-2.4,18.3-4.6,41-9.6v-20.9H1.1v15.3h64.6l0.1,1c-19.4,3.9-24.6,5.1-46.3,10.4c-5.1,1.2-11.1,2.7-18.3,4.4V558.7z"/>
	</g>
</g>
</svg>
