<?xml version="1.0" encoding="utf-8"?>
<!-- Generator: Adobe Illustrator 25.4.1, SVG Export Plug-In . SVG Version: 6.00 Build 0)  -->
<svg version="1.1" id="レイヤー_1" xmlns="http://www.w3.org/2000/svg" xmlns:xlink="http://www.w3.org/1999/xlink" x="0px"
	 y="0px" viewBox="0 0 126 56" style="enable-background:new 0 0 126 56;" xml:space="preserve">
<style type="text/css">
	.st0{fill:#F3FF88;}
</style>
<g>
	<path class="st0" d="M38.1,31.2h-2v2.4h-1.6v-2.4h-7.4v-1.1l7.5-7h1.5v6.7h2V31.2z M34.5,29.8v-4.7l-5.1,4.7H34.5z"/>
	<path class="st0" d="M54.9,26.6c0,2.2-1.5,3.5-3.8,3.5h-4.8v3.7h-1.6V23.1H51C53.3,23.1,54.9,24.4,54.9,26.6z M53.2,26.6
		c0-1.4-0.9-1.9-2.3-1.9h-4.7v3.8h4.7C52.3,28.5,53.2,27.9,53.2,26.6z"/>
	<path class="st0" d="M56.3,29.6c0-2.7,1.8-4.5,4.6-4.5c2.9,0,4.6,1.7,4.6,4.5c0,2.7-1.7,4.4-4.6,4.4C58.1,34,56.3,32.3,56.3,29.6z
		 M64.1,29.6c0-2-1.3-3-3.1-3c-1.8,0-3.1,1-3.1,3c0,2,1.3,3,3.1,3C62.7,32.5,64.1,31.5,64.1,29.6z"/>
	<path class="st0" d="M67.6,23.3c0-0.6,0.4-1,1-1s1,0.4,1,1c0,0.5-0.4,1-1,1S67.6,23.8,67.6,23.3z M69.4,33.7h-1.6v-8.3h1.6V33.7z"
		/>
	<path class="st0" d="M72.1,33.7v-8.3h1.6V27c0.7-1.2,1.9-1.9,3.4-1.9c2.3,0,3.4,1.6,3.4,3.8v4.7H79v-4.6c0-1.6-0.7-2.5-2.2-2.5
		c-1.3,0-2.3,0.7-3,2v5.1H72.1z"/>
	<path class="st0" d="M88.6,33.2C88,33.7,87.1,34,86.3,34c-1.5,0-2.6-0.9-2.6-2.6v-4.6h-1.4v-1.4h1.4v-1.9h1.6v1.9h3.2v1.4h-3.2v4.3
		c0,0.9,0.6,1.4,1.4,1.4c0.6,0,1-0.2,1.5-0.5L88.6,33.2z"/>
	<path class="st0" d="M98.1,31.2c0,1.5-1.4,2.7-4,2.7c-1.8,0-3.4-0.7-4.5-1.7l0.9-1c0.9,0.8,2.1,1.4,3.7,1.4c1.4,0,2.4-0.4,2.4-1.2
		s-1-1.1-2.7-1.2c-2-0.2-4-0.7-4-2.5c0-1.6,1.5-2.6,4-2.6c1.5,0,2.9,0.6,3.8,1.3l-0.8,1.1c-0.7-0.6-1.7-1.1-3.1-1.1
		c-1,0-2.4,0.2-2.4,1.1c0,0.8,1.2,1,2.7,1.1C96.4,28.9,98.1,29.6,98.1,31.2z"/>
</g>
<path class="st0" d="M63,55.9L0.3,28L63,0.1L125.7,28L63,55.9z M2.8,28L63,54.8L123.2,28L63,1.2L2.8,28z"/>
</svg>
