<?xml version="1.0" encoding="utf-8"?>
<!-- Generator: Adobe Illustrator 25.4.1, SVG Export Plug-In . SVG Version: 6.00 Build 0)  -->
<svg version="1.1" id="レイヤー_1" xmlns="http://www.w3.org/2000/svg" xmlns:xlink="http://www.w3.org/1999/xlink" x="0px"
	 y="0px" viewBox="0 0 368 70" style="enable-background:new 0 0 368 70;" xml:space="preserve">
<style type="text/css">
	.st0{fill:#F3FF88;}
</style>
<g>
	<path class="st0" d="M31.9,9.2V1.7h-3.3V0.5h8v1.2h-3.3v7.5H31.9z"/>
	<path class="st0" d="M45.5,6c0,1.9-1.6,3.3-3.7,3.3C39.6,9.3,38,7.9,38,6c0-2,1.5-3.4,3.8-3.4C44,2.6,45.5,4,45.5,6z M39.3,6
		c0,1.4,1,2.4,2.4,2.4c1.4,0,2.4-1,2.4-2.3c0-1.5-1-2.4-2.4-2.4C40.3,3.6,39.3,4.5,39.3,6z"/>
	<path class="st0" d="M49.1,2.8v0.9c0.7-0.7,1.5-1.1,2.4-1.1c1,0,1.8,0.4,2.2,1.2c0.8-0.9,1.5-1.2,2.5-1.2c0.9,0,1.7,0.3,2.1,0.9
		c0.3,0.4,0.4,0.8,0.4,2v3.7h-1.3V5.5c0-0.8-0.1-1-0.3-1.3c-0.3-0.3-0.7-0.5-1.3-0.5c-1.2,0-2,0.7-2,1.7v3.8h-1.3V5.4
		c0-0.8-0.1-1.1-0.3-1.3c-0.3-0.3-0.7-0.4-1.2-0.4c-0.5,0-1,0.2-1.4,0.5c-0.4,0.3-0.6,0.7-0.6,1.3v3.7h-1.3V2.8H49.1z"/>
	<path class="st0" d="M68.6,6c0,1.9-1.6,3.3-3.7,3.3c-2.2,0-3.7-1.4-3.7-3.4c0-2,1.5-3.4,3.8-3.4C67.1,2.6,68.6,4,68.6,6z M62.4,6
		c0,1.4,1,2.4,2.4,2.4c1.4,0,2.4-1,2.4-2.3c0-1.5-1-2.4-2.4-2.4C63.4,3.6,62.4,4.5,62.4,6z"/>
	<path class="st0" d="M72.2,2.8v0.9c0.8-0.9,1.2-1.1,2.1-1.1c0.2,0,0.4,0,0.8,0.1v1.3c-0.4-0.1-0.6-0.1-0.8-0.1
		c-0.7,0-1.2,0.2-1.6,0.6c-0.4,0.4-0.5,0.6-0.5,1.2v3.5h-1.3V2.8H72.2z"/>
	<path class="st0" d="M78.3,2.8v0.9c0.8-0.9,1.2-1.1,2.1-1.1c0.2,0,0.4,0,0.8,0.1v1.3c-0.4-0.1-0.6-0.1-0.8-0.1
		c-0.7,0-1.2,0.2-1.6,0.6c-0.4,0.4-0.5,0.6-0.5,1.2v3.5H77V2.8H78.3z"/>
	<path class="st0" d="M90.3,6c0,1.9-1.6,3.3-3.7,3.3c-2.2,0-3.7-1.4-3.7-3.4c0-2,1.5-3.4,3.8-3.4C88.8,2.6,90.3,4,90.3,6z M84.1,6
		c0,1.4,1,2.4,2.4,2.4C88,8.3,89,7.4,89,6c0-1.5-1-2.4-2.4-2.4C85.1,3.6,84.1,4.5,84.1,6z"/>
	<path class="st0" d="M98.8,9.2l-1.7-5l-1.7,5h-1.3l-2.4-6.4h1.3l1.7,5l1.7-5h1.4l1.6,5l1.7-5h1.3l-2.4,6.4H98.8z"/>
	<path class="st0" d="M105.8,7.7v1.1c0,1.1-0.5,2-1.5,2.2v-0.7c0.5-0.2,0.7-0.5,0.7-1.1h-0.8V7.7H105.8z"/>
	<path class="st0" d="M115.9,9.2V5.6L112,0.5h1.7l2.8,3.9l2.8-3.9h1.6l-3.8,5.1v3.6H115.9z"/>
	<path class="st0" d="M129.8,6c0,1.9-1.6,3.3-3.7,3.3c-2.2,0-3.7-1.4-3.7-3.4c0-2,1.5-3.4,3.8-3.4C128.3,2.6,129.8,4,129.8,6z
		 M123.7,6c0,1.4,1,2.4,2.4,2.4c1.4,0,2.4-1,2.4-2.3c0-1.5-1-2.4-2.4-2.4C124.7,3.6,123.7,4.5,123.7,6z"/>
	<path class="st0" d="M138.5,9.2h-1.3V8.3c-0.8,0.8-1.5,1.1-2.5,1.1c-0.8,0-1.5-0.2-2-0.7c-0.4-0.4-0.6-0.9-0.6-1.8V2.8h1.3v4
		c0,0.6,0.1,0.9,0.4,1.2c0.3,0.2,0.7,0.4,1.1,0.4c1.2,0,2.2-0.8,2.2-1.8V2.8h1.3V9.2z"/>
	<path class="st0" d="M152,9.2l-1.7-5l-1.7,5h-1.3l-2.4-6.4h1.3l1.7,5l1.7-5h1.4l1.6,5l1.7-5h1.3l-2.4,6.4H152z"/>
	<path class="st0" d="M157.5,0.5h1.3v1.3h-1.3V0.5z M157.5,2.8h1.3v6.4h-1.3V2.8z"/>
	<path class="st0" d="M162.7,9.2h-1.3V0.5h1.3V9.2z"/>
	<path class="st0" d="M166.6,9.2h-1.3V0.5h1.3V9.2z"/>
	<path class="st0" d="M175.1,0.5v3.1c0.8-0.8,1.6-1,2.5-1c2,0,3.4,1.4,3.4,3.4c0,1.9-1.4,3.4-3.4,3.4c-1,0-1.7-0.3-2.5-1v0.9h-1.3
		V0.5H175.1z M175,5.9c0,1.4,0.9,2.4,2.4,2.4c1.4,0,2.4-0.9,2.4-2.3c0-1.4-1-2.3-2.4-2.3C176,3.6,175,4.6,175,5.9z"/>
	<path class="st0" d="M184.2,6.3c0.1,1.2,1.1,2,2.5,2c1,0,1.7-0.4,2-1.2h1.4c-0.6,1.5-1.8,2.2-3.5,2.2C184.4,9.3,183,8,183,6
		c0-2,1.5-3.4,3.6-3.4c1.5,0,2.8,0.7,3.3,1.9c0.2,0.5,0.3,1,0.3,1.8H184.2z M188.9,5.3c-0.3-1.1-1.1-1.8-2.3-1.8
		c-1.2,0-2,0.6-2.3,1.8H188.9z"/>
	<path class="st0" d="M198.4,0.5v3.1c0.8-0.8,1.6-1,2.5-1c2,0,3.4,1.4,3.4,3.4c0,1.9-1.4,3.4-3.4,3.4c-1,0-1.7-0.3-2.5-1v0.9h-1.3
		V0.5H198.4z M198.3,5.9c0,1.4,0.9,2.4,2.4,2.4c1.4,0,2.4-0.9,2.4-2.3c0-1.4-1-2.3-2.4-2.3C199.2,3.6,198.3,4.6,198.3,5.9z"/>
	<path class="st0" d="M207.5,6.3c0.1,1.2,1.1,2,2.5,2c1,0,1.7-0.4,2-1.2h1.4c-0.6,1.5-1.8,2.2-3.5,2.2c-2.1,0-3.6-1.3-3.6-3.3
		c0-2,1.5-3.4,3.6-3.4c1.5,0,2.8,0.7,3.3,1.9c0.2,0.5,0.3,1,0.3,1.8H207.5z M212.2,5.3c-0.3-1.1-1.1-1.8-2.3-1.8
		c-1.2,0-2,0.6-2.3,1.8H212.2z"/>
	<path class="st0" d="M217.2,2.8h1.5v1h-1.5v3.7c0,0.6,0.2,0.7,0.8,0.7c0.3,0,0.4,0,0.7-0.1v1.1c-0.5,0.1-0.7,0.1-1,0.1
		c-0.6,0-1.1-0.1-1.4-0.4C216,8.6,216,8.3,216,7.5V3.8h-0.8v-1h0.8V1h1.3V2.8z"/>
	<path class="st0" d="M222.1,2.8h1.5v1h-1.5v3.7c0,0.6,0.2,0.7,0.8,0.7c0.3,0,0.4,0,0.7-0.1v1.1c-0.5,0.1-0.7,0.1-1,0.1
		c-0.6,0-1.1-0.1-1.4-0.4c-0.3-0.2-0.3-0.5-0.3-1.4V3.8H220v-1h0.8V1h1.3V2.8z"/>
	<path class="st0" d="M226.4,6.3c0.1,1.2,1.1,2,2.5,2c1,0,1.7-0.4,2-1.2h1.4c-0.6,1.5-1.8,2.2-3.5,2.2c-2.1,0-3.6-1.3-3.6-3.3
		c0-2,1.5-3.4,3.6-3.4c1.5,0,2.8,0.7,3.3,1.9c0.2,0.5,0.3,1,0.3,1.8H226.4z M231,5.3c-0.3-1.1-1.1-1.8-2.3-1.8c-1.2,0-2,0.6-2.3,1.8
		H231z"/>
	<path class="st0" d="M235.9,2.8v0.9c0.8-0.9,1.2-1.1,2.1-1.1c0.2,0,0.4,0,0.8,0.1v1.3c-0.4-0.1-0.6-0.1-0.8-0.1
		c-0.7,0-1.2,0.2-1.6,0.6c-0.4,0.4-0.5,0.6-0.5,1.2v3.5h-1.3V2.8H235.9z"/>
	<path class="st0" d="M246.8,2.8h1.5v1h-1.5v3.7c0,0.6,0.2,0.7,0.8,0.7c0.3,0,0.4,0,0.7-0.1v1.1c-0.5,0.1-0.7,0.1-1,0.1
		c-0.6,0-1.1-0.1-1.4-0.4c-0.3-0.2-0.3-0.5-0.3-1.4V3.8h-0.8v-1h0.8V1h1.3V2.8z"/>
	<path class="st0" d="M250.2,0.5h1.3v3.2c0.8-0.8,1.5-1.1,2.5-1.1c0.8,0,1.5,0.2,2,0.7c0.4,0.4,0.6,0.9,0.6,1.8v4.1h-1.3v-4
		c0-0.6-0.1-0.9-0.4-1.2c-0.3-0.2-0.7-0.4-1.1-0.4c-1.2,0-2.2,0.8-2.2,1.8v3.7h-1.3V0.5z"/>
	<path class="st0" d="M259.1,4.9c0.1-0.6,0.2-1,0.4-1.3c0.5-0.7,1.5-1,2.8-1c1.1,0,1.8,0.2,2.4,0.5c0.4,0.3,0.6,0.7,0.6,1.5v2.8
		c0,0.6,0.2,0.8,0.6,0.8c0.1,0,0.2,0,0.3,0v0.9c-0.2,0.1-0.4,0.1-0.7,0.1c-0.8,0-1.2-0.2-1.4-1c-0.8,0.7-1.6,1.1-2.7,1.1
		c-1.5,0-2.5-0.7-2.5-1.9c0-0.7,0.4-1.3,1-1.6c0.5-0.2,0.8-0.3,2.1-0.4c1.1-0.1,1.3-0.1,1.7-0.2c0.4-0.1,0.5-0.3,0.5-0.6
		c0-0.7-0.6-1-1.7-1c-1.4,0-1.9,0.4-2,1.3H259.1z M264.1,6c-0.7,0.2-1.4,0.4-2.5,0.5c-1.1,0.1-1.5,0.3-1.5,0.9c0,0.6,0.5,1,1.5,1
		c0.8,0,1.5-0.2,1.9-0.7c0.4-0.4,0.5-0.6,0.5-1.2V6z"/>
	<path class="st0" d="M268,2.8h1.3v0.9c0.8-0.8,1.5-1.1,2.5-1.1c0.8,0,1.5,0.2,2,0.7c0.4,0.4,0.6,0.9,0.6,1.8v4.1h-1.3v-4
		c0-0.6-0.1-0.9-0.4-1.2c-0.3-0.2-0.7-0.4-1.1-0.4c-1.2,0-2.2,0.8-2.2,1.8v3.7H268V2.8z"/>
	<path class="st0" d="M288,2.8l-3.1,6.9c-0.6,1.3-1.1,1.7-2.3,1.7c-0.3,0-0.5,0-0.9-0.1v-1.1c0.4,0.1,0.6,0.1,0.9,0.1
		c0.7,0,1-0.3,1.3-1l-3-6.5h1.5l2.2,5.2l2.1-5.2H288z"/>
	<path class="st0" d="M297,6c0,1.9-1.6,3.3-3.7,3.3c-2.2,0-3.7-1.4-3.7-3.4c0-2,1.5-3.4,3.8-3.4C295.5,2.6,297,4,297,6z M290.8,6
		c0,1.4,1,2.4,2.4,2.4c1.4,0,2.4-1,2.4-2.3c0-1.5-1-2.4-2.4-2.4C291.8,3.6,290.8,4.5,290.8,6z"/>
	<path class="st0" d="M305.6,9.2h-1.3V8.3c-0.8,0.8-1.5,1.1-2.5,1.1c-0.8,0-1.5-0.2-2-0.7c-0.4-0.4-0.6-0.9-0.6-1.8V2.8h1.3v4
		c0,0.6,0.1,0.9,0.4,1.2c0.3,0.2,0.7,0.4,1.1,0.4c1.2,0,2.2-0.8,2.2-1.8V2.8h1.3V9.2z"/>
	<path class="st0" d="M312.8,4.9c0.1-0.6,0.2-1,0.4-1.3c0.5-0.7,1.5-1,2.8-1c1.1,0,1.8,0.2,2.4,0.5c0.4,0.3,0.6,0.7,0.6,1.5v2.8
		c0,0.6,0.2,0.8,0.6,0.8c0.1,0,0.2,0,0.3,0v0.9c-0.2,0.1-0.4,0.1-0.7,0.1c-0.8,0-1.2-0.2-1.4-1c-0.8,0.7-1.6,1.1-2.7,1.1
		c-1.5,0-2.5-0.7-2.5-1.9c0-0.7,0.4-1.3,1-1.6c0.5-0.2,0.8-0.3,2.1-0.4c1.1-0.1,1.3-0.1,1.7-0.2c0.4-0.1,0.5-0.3,0.5-0.6
		c0-0.7-0.6-1-1.7-1c-1.4,0-1.9,0.4-2,1.3H312.8z M317.8,6c-0.7,0.2-1.4,0.4-2.5,0.5c-1.1,0.1-1.5,0.3-1.5,0.9c0,0.6,0.5,1,1.5,1
		c0.8,0,1.5-0.2,1.9-0.7c0.4-0.4,0.5-0.6,0.5-1.2V6z"/>
	<path class="st0" d="M322.9,2.8v0.9c0.8-0.9,1.2-1.1,2.1-1.1c0.2,0,0.4,0,0.8,0.1v1.3c-0.4-0.1-0.6-0.1-0.8-0.1
		c-0.7,0-1.2,0.2-1.6,0.6c-0.4,0.4-0.5,0.6-0.5,1.2v3.5h-1.3V2.8H322.9z"/>
	<path class="st0" d="M328.7,6.3c0.1,1.2,1.1,2,2.5,2c1,0,1.7-0.4,2-1.2h1.4c-0.6,1.5-1.8,2.2-3.5,2.2c-2.1,0-3.6-1.3-3.6-3.3
		c0-2,1.5-3.4,3.6-3.4c1.5,0,2.8,0.7,3.3,1.9c0.2,0.5,0.3,1,0.3,1.8H328.7z M333.4,5.3c-0.3-1.1-1.1-1.8-2.3-1.8
		c-1.2,0-2,0.6-2.3,1.8H333.4z"/>
	<path class="st0" d="M338.4,7.7v1.4h-1.5V7.7H338.4z"/>
	<path class="st0" d="M0.2,28.5v-8.7h1.3v7.5H7v1.2H0.2z"/>
	<path class="st0" d="M9.9,25.7c0.1,1.2,1.1,2,2.5,2c1,0,1.7-0.4,2-1.2h1.4c-0.6,1.5-1.8,2.2-3.5,2.2c-2.1,0-3.6-1.3-3.6-3.3
		c0-2,1.5-3.4,3.6-3.4c1.5,0,2.8,0.7,3.3,1.9c0.2,0.5,0.3,1,0.3,1.8H9.9z M14.5,24.7c-0.3-1.1-1.1-1.8-2.3-1.8c-1.2,0-2,0.6-2.3,1.8
		H14.5z"/>
	<path class="st0" d="M19.6,22.1h1.5v1h-1.5v3.7c0,0.6,0.2,0.7,0.8,0.7c0.3,0,0.4,0,0.7-0.1v1.1c-0.5,0.1-0.7,0.1-1,0.1
		c-0.6,0-1.1-0.1-1.4-0.4c-0.3-0.2-0.3-0.5-0.3-1.4v-3.7h-0.8v-1h0.8v-1.8h1.3V22.1z"/>
	<path class="st0" d="M34,22.1L30.9,29c-0.6,1.3-1.1,1.7-2.3,1.7c-0.3,0-0.5,0-0.9-0.1v-1.1c0.4,0.1,0.6,0.1,0.9,0.1
		c0.7,0,1-0.3,1.3-1l-3-6.5h1.5l2.2,5.2l2.1-5.2H34z"/>
	<path class="st0" d="M43,25.4c0,1.9-1.6,3.3-3.7,3.3c-2.2,0-3.7-1.4-3.7-3.4c0-2,1.5-3.4,3.8-3.4C41.5,22,43,23.4,43,25.4z
		 M36.8,25.3c0,1.4,1,2.4,2.4,2.4c1.4,0,2.4-1,2.4-2.3c0-1.5-1-2.4-2.4-2.4C37.8,23,36.8,23.9,36.8,25.3z"/>
	<path class="st0" d="M51.6,28.5h-1.3v-0.9c-0.8,0.8-1.5,1.1-2.5,1.1c-0.8,0-1.5-0.2-2-0.7c-0.4-0.4-0.6-0.9-0.6-1.8v-4.1h1.3v4
		c0,0.6,0.1,0.9,0.4,1.2c0.3,0.2,0.7,0.4,1.1,0.4c1.2,0,2.2-0.8,2.2-1.8v-3.7h1.3V28.5z"/>
	<path class="st0" d="M55.5,22.1v0.9c0.8-0.9,1.2-1.1,2.1-1.1c0.2,0,0.4,0,0.8,0.1v1.3c-0.4-0.1-0.6-0.1-0.8-0.1
		c-0.7,0-1.2,0.2-1.6,0.6c-0.4,0.4-0.5,0.7-0.5,1.2v3.5h-1.3v-6.4H55.5z"/>
	<path class="st0" d="M69.6,24.1C69.5,23.3,69,23,67.8,23c-1,0-1.7,0.3-1.7,0.9c0,0.2,0.2,0.5,0.5,0.6c0.3,0.1,0.5,0.1,1.6,0.3
		c1.7,0.3,2,0.3,2.4,0.6c0.4,0.3,0.6,0.8,0.6,1.3c0,1.3-1.1,2.1-3.2,2.1s-3.1-0.7-3.4-2.2h1.3c0.1,0.8,0.8,1.2,2.1,1.2
		c1.2,0,1.9-0.3,1.9-0.9c0-0.3-0.1-0.5-0.4-0.6s-0.2-0.1-1.6-0.3c-1.2-0.2-1.6-0.3-2-0.4c-0.6-0.2-1-0.8-1-1.5c0-1.2,1.1-2,3-2
		c1.9,0,2.9,0.7,3,2.2H69.6z"/>
	<path class="st0" d="M74.2,25.7c0.1,1.2,1.1,2,2.5,2c1,0,1.7-0.4,2-1.2H80c-0.6,1.5-1.8,2.2-3.5,2.2c-2.1,0-3.6-1.3-3.6-3.3
		c0-2,1.5-3.4,3.6-3.4c1.5,0,2.8,0.7,3.3,1.9c0.2,0.5,0.3,1,0.3,1.8H74.2z M78.9,24.7c-0.3-1.1-1.1-1.8-2.3-1.8
		c-1.2,0-2,0.6-2.3,1.8H78.9z"/>
	<path class="st0" d="M82.5,22.1h1.3V23c0.8-0.8,1.5-1.1,2.5-1.1c0.8,0,1.5,0.2,2,0.7c0.4,0.4,0.6,0.9,0.6,1.8v4.1h-1.3v-4
		c0-0.6-0.1-0.9-0.4-1.2C86.9,23.1,86.5,23,86,23c-1.2,0-2.2,0.8-2.2,1.8v3.7h-1.3V22.1z"/>
	<path class="st0" d="M96.1,24.1C96,23.3,95.5,23,94.3,23c-1,0-1.7,0.3-1.7,0.9c0,0.2,0.2,0.5,0.5,0.6c0.3,0.1,0.5,0.1,1.6,0.3
		c1.7,0.3,2,0.3,2.4,0.6c0.4,0.3,0.6,0.8,0.6,1.3c0,1.3-1.1,2.1-3.2,2.1s-3.1-0.7-3.4-2.2h1.3c0.1,0.8,0.8,1.2,2.1,1.2
		c1.2,0,1.9-0.3,1.9-0.9c0-0.3-0.1-0.5-0.4-0.6s-0.2-0.1-1.6-0.3c-1.2-0.2-1.6-0.3-2-0.4c-0.6-0.2-1-0.8-1-1.5c0-1.2,1.1-2,3-2
		c1.9,0,2.9,0.7,3,2.2H96.1z"/>
	<path class="st0" d="M99.8,19.9h1.3v1.3h-1.3V19.9z M99.8,22.1h1.3v6.4h-1.3V22.1z"/>
	<path class="st0" d="M105.2,22.1h1.5v1h-1.5v3.7c0,0.6,0.2,0.7,0.8,0.7c0.3,0,0.4,0,0.7-0.1v1.1c-0.5,0.1-0.7,0.1-1,0.1
		c-0.6,0-1.1-0.1-1.4-0.4c-0.3-0.2-0.3-0.5-0.3-1.4v-3.7h-0.8v-1h0.8v-1.8h1.3V22.1z"/>
	<path class="st0" d="M108.5,19.9h1.3v1.3h-1.3V19.9z M108.5,22.1h1.3v6.4h-1.3V22.1z"/>
	<path class="st0" d="M115.8,28.5h-1.3l-2.9-6.4h1.5l2.1,5l2.2-5h1.4L115.8,28.5z"/>
	<path class="st0" d="M120.6,19.9h1.3v1.3h-1.3V19.9z M120.6,22.1h1.3v6.4h-1.3V22.1z"/>
	<path class="st0" d="M126,22.1h1.5v1H126v3.7c0,0.6,0.2,0.7,0.8,0.7c0.3,0,0.4,0,0.7-0.1v1.1c-0.5,0.1-0.7,0.1-1,0.1
		c-0.6,0-1.1-0.1-1.4-0.4c-0.3-0.2-0.3-0.5-0.3-1.4v-3.7h-0.8v-1h0.8v-1.8h1.3V22.1z"/>
	<path class="st0" d="M135.8,22.1l-3.1,6.9c-0.6,1.3-1.1,1.7-2.3,1.7c-0.3,0-0.5,0-0.9-0.1v-1.1c0.4,0.1,0.6,0.1,0.9,0.1
		c0.7,0,1-0.3,1.3-1l-3-6.5h1.5l2.2,5.2l2.1-5.2H135.8z"/>
	<path class="st0" d="M148.4,28.5l-1.7-5l-1.7,5h-1.3l-2.4-6.4h1.3l1.7,5l1.7-5h1.4l1.6,5l1.7-5h1.3l-2.4,6.4H148.4z"/>
	<path class="st0" d="M153.9,19.9h1.3V23c0.8-0.8,1.5-1.1,2.5-1.1c0.8,0,1.5,0.2,2,0.7c0.4,0.4,0.6,0.9,0.6,1.8v4.1H159v-4
		c0-0.6-0.1-0.9-0.4-1.2c-0.3-0.2-0.7-0.4-1.1-0.4c-1.2,0-2.2,0.8-2.2,1.8v3.7h-1.3V19.9z"/>
	<path class="st0" d="M163.8,25.7c0.1,1.2,1.1,2,2.5,2c1,0,1.7-0.4,2-1.2h1.4c-0.6,1.5-1.8,2.2-3.5,2.2c-2.1,0-3.6-1.3-3.6-3.3
		c0-2,1.5-3.4,3.6-3.4c1.5,0,2.8,0.7,3.3,1.9c0.2,0.5,0.3,1,0.3,1.8H163.8z M168.5,24.7c-0.3-1.1-1.1-1.8-2.3-1.8
		c-1.2,0-2,0.6-2.3,1.8H168.5z"/>
	<path class="st0" d="M173.4,22.1v0.9c0.8-0.9,1.2-1.1,2.1-1.1c0.2,0,0.4,0,0.8,0.1v1.3c-0.4-0.1-0.6-0.1-0.8-0.1
		c-0.7,0-1.2,0.2-1.6,0.6c-0.4,0.4-0.5,0.7-0.5,1.2v3.5h-1.3v-6.4H173.4z"/>
	<path class="st0" d="M179.1,25.7c0.1,1.2,1.1,2,2.5,2c1,0,1.7-0.4,2-1.2h1.4c-0.6,1.5-1.8,2.2-3.5,2.2c-2.1,0-3.6-1.3-3.6-3.3
		c0-2,1.5-3.4,3.6-3.4c1.5,0,2.8,0.7,3.3,1.9c0.2,0.5,0.3,1,0.3,1.8H179.1z M183.8,24.7c-0.3-1.1-1.1-1.8-2.3-1.8
		c-1.2,0-2,0.6-2.3,1.8H183.8z"/>
	<path class="st0" d="M190.8,28.5h-1.3l-2.9-6.4h1.5l2.1,5l2.2-5h1.4L190.8,28.5z"/>
	<path class="st0" d="M196.4,25.7c0.1,1.2,1.1,2,2.5,2c1,0,1.7-0.4,2-1.2h1.4c-0.6,1.5-1.8,2.2-3.5,2.2c-2.1,0-3.6-1.3-3.6-3.3
		c0-2,1.5-3.4,3.6-3.4c1.5,0,2.8,0.7,3.3,1.9c0.2,0.5,0.3,1,0.3,1.8H196.4z M201.1,24.7c-0.3-1.1-1.1-1.8-2.3-1.8
		c-1.2,0-2,0.6-2.3,1.8H201.1z"/>
	<path class="st0" d="M206,22.1v0.9c0.8-0.9,1.2-1.1,2.1-1.1c0.2,0,0.4,0,0.8,0.1v1.3c-0.4-0.1-0.6-0.1-0.8-0.1
		c-0.7,0-1.2,0.2-1.6,0.6c-0.4,0.4-0.5,0.7-0.5,1.2v3.5h-1.3v-6.4H206z"/>
	<path class="st0" d="M221.9,22.1l-3.1,6.9c-0.6,1.3-1.1,1.7-2.3,1.7c-0.3,0-0.5,0-0.9-0.1v-1.1c0.4,0.1,0.6,0.1,0.9,0.1
		c0.7,0,1-0.3,1.3-1l-3-6.5h1.5l2.2,5.2l2.1-5.2H221.9z"/>
	<path class="st0" d="M230.8,25.4c0,1.9-1.6,3.3-3.7,3.3c-2.2,0-3.7-1.4-3.7-3.4c0-2,1.5-3.4,3.8-3.4
		C229.3,22,230.8,23.4,230.8,25.4z M224.6,25.3c0,1.4,1,2.4,2.4,2.4c1.4,0,2.4-1,2.4-2.3c0-1.5-1-2.4-2.4-2.4
		C225.6,23,224.6,23.9,224.6,25.3z"/>
	<path class="st0" d="M239.5,28.5h-1.3v-0.9c-0.8,0.8-1.5,1.1-2.5,1.1c-0.8,0-1.5-0.2-2-0.7c-0.4-0.4-0.6-0.9-0.6-1.8v-4.1h1.3v4
		c0,0.6,0.1,0.9,0.4,1.2c0.3,0.2,0.7,0.4,1.1,0.4c1.2,0,2.2-0.8,2.2-1.8v-3.7h1.3V28.5z"/>
	<path class="st0" d="M243.4,22.1v0.9c0.8-0.9,1.2-1.1,2.1-1.1c0.2,0,0.4,0,0.8,0.1v1.3c-0.4-0.1-0.6-0.1-0.8-0.1
		c-0.7,0-1.2,0.2-1.6,0.6c-0.4,0.4-0.5,0.7-0.5,1.2v3.5h-1.3v-6.4H243.4z"/>
	<path class="st0" d="M252.9,19.9h1.3V23c0.8-0.8,1.5-1.1,2.5-1.1c0.8,0,1.5,0.2,2,0.7c0.4,0.4,0.6,0.9,0.6,1.8v4.1H258v-4
		c0-0.6-0.1-0.9-0.4-1.2c-0.3-0.2-0.7-0.4-1.1-0.4c-1.2,0-2.2,0.8-2.2,1.8v3.7h-1.3V19.9z"/>
	<path class="st0" d="M262.8,25.7c0.1,1.2,1.1,2,2.5,2c1,0,1.7-0.4,2-1.2h1.4c-0.6,1.5-1.8,2.2-3.5,2.2c-2.1,0-3.6-1.3-3.6-3.3
		c0-2,1.5-3.4,3.6-3.4c1.5,0,2.8,0.7,3.3,1.9c0.2,0.5,0.3,1,0.3,1.8H262.8z M267.4,24.7c-0.3-1.1-1.1-1.8-2.3-1.8
		c-1.2,0-2,0.6-2.3,1.8H267.4z"/>
	<path class="st0" d="M270.9,24.2c0.1-0.6,0.2-1,0.4-1.3c0.5-0.7,1.5-1,2.8-1c1.1,0,1.8,0.2,2.4,0.5c0.4,0.3,0.6,0.7,0.6,1.5v2.8
		c0,0.6,0.2,0.8,0.6,0.8c0.1,0,0.2,0,0.3,0v0.9c-0.2,0.1-0.4,0.1-0.7,0.1c-0.8,0-1.2-0.2-1.4-1c-0.8,0.7-1.6,1.1-2.7,1.1
		c-1.5,0-2.5-0.7-2.5-1.9c0-0.7,0.4-1.3,1-1.6c0.5-0.2,0.8-0.3,2.1-0.4c1.1-0.1,1.3-0.1,1.7-0.2c0.4-0.1,0.5-0.3,0.5-0.6
		c0-0.7-0.6-1-1.7-1c-1.4,0-1.9,0.4-2,1.3H270.9z M276,25.3c-0.7,0.2-1.4,0.4-2.5,0.5c-1.1,0.1-1.5,0.3-1.5,0.9c0,0.6,0.5,1,1.5,1
		c0.8,0,1.5-0.2,1.9-0.7c0.4-0.4,0.5-0.6,0.5-1.2V25.3z"/>
	<path class="st0" d="M281.1,22.1v0.9c0.8-0.9,1.2-1.1,2.1-1.1c0.2,0,0.4,0,0.8,0.1v1.3c-0.4-0.1-0.6-0.1-0.8-0.1
		c-0.7,0-1.2,0.2-1.6,0.6c-0.4,0.4-0.5,0.7-0.5,1.2v3.5h-1.3v-6.4H281.1z"/>
	<path class="st0" d="M287.4,22.1h1.5v1h-1.5v3.7c0,0.6,0.2,0.7,0.8,0.7c0.3,0,0.4,0,0.7-0.1v1.1c-0.5,0.1-0.7,0.1-1,0.1
		c-0.6,0-1.1-0.1-1.4-0.4c-0.3-0.2-0.3-0.5-0.3-1.4v-3.7h-0.8v-1h0.8v-1.8h1.3V22.1z"/>
	<path class="st0" d="M296.9,22.1h1.5v1h-1.5v3.7c0,0.6,0.2,0.7,0.8,0.7c0.3,0,0.4,0,0.7-0.1v1.1c-0.5,0.1-0.7,0.1-1,0.1
		c-0.6,0-1.1-0.1-1.4-0.4c-0.3-0.2-0.3-0.5-0.3-1.4v-3.7h-0.8v-1h0.8v-1.8h1.3V22.1z"/>
	<path class="st0" d="M300.2,24.2c0.1-0.6,0.2-1,0.4-1.3c0.5-0.7,1.5-1,2.8-1c1.1,0,1.8,0.2,2.4,0.5c0.4,0.3,0.6,0.7,0.6,1.5v2.8
		c0,0.6,0.2,0.8,0.6,0.8c0.1,0,0.2,0,0.3,0v0.9c-0.2,0.1-0.4,0.1-0.7,0.1c-0.8,0-1.2-0.2-1.4-1c-0.8,0.7-1.6,1.1-2.7,1.1
		c-1.5,0-2.5-0.7-2.5-1.9c0-0.7,0.4-1.3,1-1.6c0.5-0.2,0.8-0.3,2.1-0.4c1.1-0.1,1.3-0.1,1.7-0.2c0.4-0.1,0.5-0.3,0.5-0.6
		c0-0.7-0.6-1-1.7-1c-1.4,0-1.9,0.4-2,1.3H300.2z M305.2,25.3c-0.7,0.2-1.4,0.4-2.5,0.5c-1.1,0.1-1.5,0.3-1.5,0.9c0,0.6,0.5,1,1.5,1
		c0.8,0,1.5-0.2,1.9-0.7c0.4-0.4,0.5-0.6,0.5-1.2V25.3z"/>
	<path class="st0" d="M310.3,19.9v4.9l3.3-2.7h1.8l-3.1,2.4l3.4,4h-1.7l-2.7-3.2l-1.1,0.9v2.3H309v-8.7H310.3z"/>
	<path class="st0" d="M318.5,25.7c0.1,1.2,1.1,2,2.5,2c1,0,1.7-0.4,2-1.2h1.4c-0.6,1.5-1.8,2.2-3.5,2.2c-2.1,0-3.6-1.3-3.6-3.3
		c0-2,1.5-3.4,3.6-3.4c1.5,0,2.8,0.7,3.3,1.9c0.2,0.5,0.3,1,0.3,1.8H318.5z M323.1,24.7c-0.3-1.1-1.1-1.8-2.3-1.8
		c-1.2,0-2,0.6-2.3,1.8H323.1z"/>
	<path class="st0" d="M331.4,24.1c-0.1-0.8-0.7-1.2-1.8-1.2c-1,0-1.7,0.3-1.7,0.9c0,0.2,0.2,0.5,0.5,0.6c0.3,0.1,0.5,0.1,1.6,0.3
		c1.7,0.3,2,0.3,2.4,0.6c0.4,0.3,0.6,0.8,0.6,1.3c0,1.3-1.1,2.1-3.2,2.1s-3.1-0.7-3.4-2.2h1.3c0.1,0.8,0.8,1.2,2.1,1.2
		c1.2,0,1.9-0.3,1.9-0.9c0-0.3-0.1-0.5-0.4-0.6s-0.2-0.1-1.6-0.3c-1.2-0.2-1.6-0.3-2-0.4c-0.6-0.2-1-0.8-1-1.5c0-1.2,1.1-2,3-2
		c1.9,0,2.9,0.7,3,2.2H331.4z"/>
	<path class="st0" d="M346.1,22.1l-3.1,6.9c-0.6,1.3-1.1,1.7-2.3,1.7c-0.3,0-0.5,0-0.9-0.1v-1.1c0.4,0.1,0.6,0.1,0.9,0.1
		c0.7,0,1-0.3,1.3-1l-3-6.5h1.5l2.2,5.2l2.1-5.2H346.1z"/>
	<path class="st0" d="M355,25.4c0,1.9-1.6,3.3-3.7,3.3c-2.2,0-3.7-1.4-3.7-3.4c0-2,1.5-3.4,3.8-3.4C353.5,22,355,23.4,355,25.4z
		 M348.8,25.3c0,1.4,1,2.4,2.4,2.4c1.4,0,2.4-1,2.4-2.3c0-1.5-1-2.4-2.4-2.4C349.8,23,348.8,23.9,348.8,25.3z"/>
	<path class="st0" d="M363.7,28.5h-1.3v-0.9c-0.8,0.8-1.5,1.1-2.5,1.1c-0.8,0-1.5-0.2-2-0.7c-0.4-0.4-0.6-0.9-0.6-1.8v-4.1h1.3v4
		c0,0.6,0.1,0.9,0.4,1.2c0.3,0.2,0.7,0.4,1.1,0.4c1.2,0,2.2-0.8,2.2-1.8v-3.7h1.3V28.5z"/>
	<path class="st0" d="M367.8,27.1v1.4h-1.5v-1.4H367.8z"/>
	<path class="st0" d="M21.9,47.9v-8.7h6.7v1.2h-5.4v2.4H28v1.2h-4.7v3.8H21.9z"/>
	<path class="st0" d="M30.6,39.2h1.3v1.3h-1.3V39.2z M30.6,41.5h1.3v6.4h-1.3V41.5z"/>
	<path class="st0" d="M34.5,41.5h1.3v0.9c0.8-0.8,1.5-1.1,2.5-1.1c0.8,0,1.5,0.2,2,0.7c0.4,0.4,0.6,0.9,0.6,1.8v4.1h-1.3v-4
		c0-0.6-0.1-0.9-0.4-1.2c-0.3-0.2-0.7-0.4-1.1-0.4c-1.2,0-2.2,0.8-2.2,1.8v3.7h-1.3V41.5z"/>
	<path class="st0" d="M50.3,47.9h-1.3V47c-0.9,0.7-1.6,1-2.5,1c-1.9,0-3.4-1.4-3.4-3.4c0-2,1.4-3.4,3.4-3.4c1,0,1.7,0.3,2.5,1v-3.1
		h1.3V47.9z M44.5,44.7c0,1.4,1,2.3,2.4,2.3c1.4,0,2.4-0.9,2.4-2.3c0-1.4-0.9-2.4-2.4-2.4C45.4,42.4,44.5,43.3,44.5,44.7z"/>
	<path class="st0" d="M57.6,39.2h1.3v3.2c0.8-0.8,1.5-1.1,2.5-1.1c0.8,0,1.5,0.2,2,0.7c0.4,0.4,0.6,0.9,0.6,1.8v4.1h-1.3v-4
		c0-0.6-0.1-0.9-0.4-1.2c-0.3-0.2-0.7-0.4-1.1-0.4c-1.2,0-2.2,0.8-2.2,1.8v3.7h-1.3V39.2z"/>
	<path class="st0" d="M66.6,39.2h1.3v1.3h-1.3V39.2z M66.6,41.5h1.3v6.4h-1.3V41.5z"/>
	<path class="st0" d="M77.3,47.9h-1.3V47c-0.9,0.7-1.6,1-2.5,1c-2,0-3.4-1.4-3.4-3.4c0-2,1.4-3.4,3.4-3.4c1,0,1.7,0.3,2.5,1v-3.1
		h1.3V47.9z M71.5,44.7c0,1.4,1,2.3,2.4,2.3c1.4,0,2.4-0.9,2.4-2.3c0-1.4-0.9-2.4-2.4-2.4C72.4,42.4,71.5,43.3,71.5,44.7z"/>
	<path class="st0" d="M86.8,47.9h-1.3V47c-0.9,0.7-1.6,1-2.5,1c-2,0-3.4-1.4-3.4-3.4c0-2,1.4-3.4,3.4-3.4c1,0,1.7,0.3,2.5,1v-3.1
		h1.3V47.9z M80.9,44.7c0,1.4,1,2.3,2.4,2.3c1.4,0,2.4-0.9,2.4-2.3c0-1.4-0.9-2.4-2.4-2.4C81.9,42.4,80.9,43.3,80.9,44.7z"/>
	<path class="st0" d="M90.4,45.1c0.1,1.2,1.1,2,2.5,2c1,0,1.7-0.4,2-1.2h1.4c-0.6,1.5-1.8,2.2-3.5,2.2c-2.1,0-3.6-1.3-3.6-3.3
		c0-2,1.5-3.4,3.6-3.4c1.5,0,2.8,0.7,3.3,1.9c0.2,0.5,0.3,1,0.3,1.8H90.4z M95,44.1c-0.3-1.1-1.1-1.8-2.3-1.8c-1.2,0-2,0.6-2.3,1.8
		H95z"/>
	<path class="st0" d="M98.6,41.5h1.3v0.9c0.8-0.8,1.5-1.1,2.5-1.1c0.8,0,1.5,0.2,2,0.7c0.4,0.4,0.6,0.9,0.6,1.8v4.1h-1.3v-4
		c0-0.6-0.1-0.9-0.4-1.2c-0.3-0.2-0.7-0.4-1.1-0.4c-1.2,0-2.2,0.8-2.2,1.8v3.7h-1.3V41.5z"/>
	<path class="st0" d="M118.7,41.5l-3.1,6.9c-0.6,1.3-1.1,1.7-2.3,1.7c-0.3,0-0.5,0-0.9-0.1v-1.1c0.4,0.1,0.6,0.1,0.9,0.1
		c0.7,0,1-0.3,1.3-1l-3-6.5h1.5l2.2,5.2l2.1-5.2H118.7z"/>
	<path class="st0" d="M127.6,44.7c0,1.9-1.6,3.3-3.7,3.3c-2.2,0-3.7-1.4-3.7-3.4c0-2,1.5-3.4,3.8-3.4
		C126.1,41.3,127.6,42.7,127.6,44.7z M121.4,44.7c0,1.4,1,2.4,2.4,2.4c1.4,0,2.4-1,2.4-2.3c0-1.5-1-2.4-2.4-2.4
		C122.4,42.3,121.4,43.3,121.4,44.7z"/>
	<path class="st0" d="M136.3,47.9H135V47c-0.8,0.8-1.5,1.1-2.5,1.1c-0.8,0-1.5-0.2-2-0.7c-0.4-0.4-0.6-0.9-0.6-1.8v-4.1h1.3v4
		c0,0.6,0.1,0.9,0.4,1.2c0.3,0.2,0.7,0.4,1.1,0.4c1.2,0,2.2-0.8,2.2-1.8v-3.7h1.3V47.9z"/>
	<path class="st0" d="M140.2,41.5v0.9c0.8-0.9,1.2-1.1,2.1-1.1c0.2,0,0.4,0,0.8,0.1v1.3c-0.4-0.1-0.6-0.1-0.8-0.1
		c-0.7,0-1.2,0.2-1.6,0.6c-0.4,0.4-0.5,0.6-0.5,1.2v3.5h-1.3v-6.4H140.2z"/>
	<path class="st0" d="M156.8,44.7c0,1.9-1.6,3.3-3.7,3.3c-2.2,0-3.7-1.4-3.7-3.4c0-2,1.5-3.4,3.8-3.4
		C155.3,41.3,156.8,42.7,156.8,44.7z M150.6,44.7c0,1.4,1,2.4,2.4,2.4c1.4,0,2.4-1,2.4-2.3c0-1.5-1-2.4-2.4-2.4
		C151.6,42.3,150.6,43.3,150.6,44.7z"/>
	<path class="st0" d="M165.3,47.9l-1.7-5l-1.7,5h-1.3l-2.4-6.4h1.3l1.7,5l1.7-5h1.4l1.6,5l1.7-5h1.3l-2.4,6.4H165.3z"/>
	<path class="st0" d="M170.9,41.5h1.3v0.9c0.8-0.8,1.5-1.1,2.5-1.1c0.8,0,1.5,0.2,2,0.7c0.4,0.4,0.6,0.9,0.6,1.8v4.1H176v-4
		c0-0.6-0.1-0.9-0.4-1.2c-0.3-0.2-0.7-0.4-1.1-0.4c-1.2,0-2.2,0.8-2.2,1.8v3.7h-1.3V41.5z"/>
	<path class="st0" d="M185.8,39.2v3.1c0.8-0.8,1.6-1,2.5-1c1.9,0,3.4,1.4,3.4,3.4c0,1.9-1.4,3.4-3.4,3.4c-1,0-1.7-0.3-2.5-1v0.9
		h-1.3v-8.7H185.8z M185.6,44.6c0,1.4,0.9,2.4,2.4,2.4s2.4-0.9,2.4-2.3c0-1.4-1-2.3-2.4-2.3C186.6,42.4,185.6,43.3,185.6,44.6z"/>
	<path class="st0" d="M194.9,45.1c0.1,1.2,1.1,2,2.5,2c1,0,1.7-0.4,2-1.2h1.4c-0.6,1.5-1.8,2.2-3.5,2.2c-2.1,0-3.6-1.3-3.6-3.3
		c0-2,1.5-3.4,3.6-3.4c1.5,0,2.8,0.7,3.3,1.9c0.2,0.5,0.3,1,0.3,1.8H194.9z M199.5,44.1c-0.3-1.1-1.1-1.8-2.3-1.8
		c-1.2,0-2,0.6-2.3,1.8H199.5z"/>
	<path class="st0" d="M203.1,43.6c0.1-0.6,0.2-1,0.4-1.3c0.5-0.7,1.5-1,2.8-1c1.1,0,1.8,0.2,2.4,0.5c0.4,0.3,0.6,0.7,0.6,1.5v2.8
		c0,0.6,0.2,0.8,0.6,0.8c0.1,0,0.2,0,0.3,0v0.9c-0.2,0.1-0.4,0.1-0.7,0.1c-0.8,0-1.2-0.2-1.4-1c-0.8,0.7-1.6,1.1-2.7,1.1
		c-1.5,0-2.5-0.7-2.5-1.9c0-0.7,0.4-1.3,1-1.6c0.5-0.2,0.8-0.3,2.1-0.4c1.1-0.1,1.3-0.1,1.7-0.2c0.4-0.1,0.5-0.3,0.5-0.6
		c0-0.7-0.6-1-1.7-1c-1.4,0-1.9,0.4-2,1.3H203.1z M208.1,44.7c-0.7,0.2-1.4,0.4-2.5,0.5c-1.1,0.1-1.5,0.3-1.5,0.9c0,0.6,0.5,1,1.5,1
		c0.8,0,1.5-0.2,1.9-0.7c0.4-0.4,0.5-0.6,0.5-1.2V44.7z"/>
	<path class="st0" d="M218.3,47.9H217V47c-0.8,0.8-1.5,1.1-2.5,1.1c-0.8,0-1.5-0.2-2-0.7c-0.4-0.4-0.6-0.9-0.6-1.8v-4.1h1.3v4
		c0,0.6,0.1,0.9,0.4,1.2c0.3,0.2,0.7,0.4,1.1,0.4c1.2,0,2.2-0.8,2.2-1.8v-3.7h1.3V47.9z"/>
	<path class="st0" d="M222.4,41.5h1.5v1h-1.5v3.7c0,0.6,0.2,0.7,0.8,0.7c0.3,0,0.4,0,0.7-0.1v1.1c-0.5,0.1-0.7,0.1-1,0.1
		c-0.6,0-1.1-0.1-1.4-0.4c-0.3-0.2-0.3-0.5-0.3-1.4v-3.7h-0.8v-1h0.8v-1.8h1.3V41.5z"/>
	<path class="st0" d="M232.2,41.5l-3.1,6.9c-0.6,1.3-1.1,1.7-2.3,1.7c-0.3,0-0.5,0-0.9-0.1v-1.1c0.4,0.1,0.6,0.1,0.9,0.1
		c0.7,0,1-0.3,1.3-1l-3-6.5h1.5l2.2,5.2l2.1-5.2H232.2z"/>
	<path class="st0" d="M244.8,47.9l-1.7-5l-1.7,5h-1.3l-2.4-6.4h1.3l1.7,5l1.7-5h1.4l1.6,5l1.7-5h1.3l-2.4,6.4H244.8z"/>
	<path class="st0" d="M250.4,39.2h1.3v1.3h-1.3V39.2z M250.4,41.5h1.3v6.4h-1.3V41.5z"/>
	<path class="st0" d="M255.7,41.5h1.5v1h-1.5v3.7c0,0.6,0.2,0.7,0.8,0.7c0.3,0,0.4,0,0.7-0.1v1.1c-0.5,0.1-0.7,0.1-1,0.1
		c-0.6,0-1.1-0.1-1.4-0.4c-0.3-0.2-0.3-0.5-0.3-1.4v-3.7h-0.8v-1h0.8v-1.8h1.3V41.5z"/>
	<path class="st0" d="M259.1,39.2h1.3v3.2c0.8-0.8,1.5-1.1,2.5-1.1c0.8,0,1.5,0.2,2,0.7c0.4,0.4,0.6,0.9,0.6,1.8v4.1h-1.3v-4
		c0-0.6-0.1-0.9-0.4-1.2c-0.3-0.2-0.7-0.4-1.1-0.4c-1.2,0-2.2,0.8-2.2,1.8v3.7h-1.3V39.2z"/>
	<path class="st0" d="M268.1,39.2h1.3v1.3h-1.3V39.2z M268.1,41.5h1.3v6.4h-1.3V41.5z"/>
	<path class="st0" d="M272,41.5h1.3v0.9c0.8-0.8,1.5-1.1,2.5-1.1c0.8,0,1.5,0.2,2,0.7c0.4,0.4,0.6,0.9,0.6,1.8v4.1h-1.3v-4
		c0-0.6-0.1-0.9-0.4-1.2c-0.3-0.2-0.7-0.4-1.1-0.4c-1.2,0-2.2,0.8-2.2,1.8v3.7H272V41.5z"/>
	<path class="st0" d="M292,41.5l-3.1,6.9c-0.6,1.3-1.1,1.7-2.3,1.7c-0.3,0-0.5,0-0.9-0.1v-1.1c0.4,0.1,0.6,0.1,0.9,0.1
		c0.7,0,1-0.3,1.3-1l-3-6.5h1.5l2.2,5.2l2.1-5.2H292z"/>
	<path class="st0" d="M301,44.7c0,1.9-1.6,3.3-3.7,3.3c-2.2,0-3.7-1.4-3.7-3.4c0-2,1.5-3.4,3.8-3.4C299.5,41.3,301,42.7,301,44.7z
		 M294.8,44.7c0,1.4,1,2.4,2.4,2.4c1.4,0,2.4-1,2.4-2.3c0-1.5-1-2.4-2.4-2.4C295.8,42.3,294.8,43.3,294.8,44.7z"/>
	<path class="st0" d="M309.7,47.9h-1.3V47c-0.8,0.8-1.5,1.1-2.5,1.1c-0.8,0-1.5-0.2-2-0.7c-0.4-0.4-0.6-0.9-0.6-1.8v-4.1h1.3v4
		c0,0.6,0.1,0.9,0.4,1.2c0.3,0.2,0.7,0.4,1.1,0.4c1.2,0,2.2-0.8,2.2-1.8v-3.7h1.3V47.9z"/>
	<path class="st0" d="M313.6,41.5v0.9c0.8-0.9,1.2-1.1,2.1-1.1c0.2,0,0.4,0,0.8,0.1v1.3c-0.4-0.1-0.6-0.1-0.8-0.1
		c-0.7,0-1.2,0.2-1.6,0.6c-0.4,0.4-0.5,0.6-0.5,1.2v3.5h-1.3v-6.4H313.6z"/>
	<path class="st0" d="M323,43.5c-0.1-0.8-0.7-1.2-1.8-1.2c-1,0-1.7,0.3-1.7,0.9c0,0.2,0.2,0.5,0.5,0.6c0.3,0.1,0.5,0.1,1.6,0.3
		c1.7,0.3,2,0.3,2.4,0.6c0.4,0.3,0.6,0.8,0.6,1.3c0,1.3-1.1,2.1-3.2,2.1s-3.1-0.7-3.4-2.2h1.3c0.1,0.8,0.8,1.2,2.1,1.2
		c1.2,0,1.9-0.3,1.9-0.9c0-0.3-0.1-0.5-0.4-0.6s-0.2-0.1-1.6-0.3c-1.2-0.2-1.6-0.3-2-0.4c-0.6-0.2-1-0.8-1-1.5c0-1.2,1.1-2,3-2
		c1.9,0,2.9,0.7,3,2.2H323z"/>
	<path class="st0" d="M327.6,45.1c0.1,1.2,1.1,2,2.5,2c1,0,1.7-0.4,2-1.2h1.4c-0.6,1.5-1.8,2.2-3.5,2.2c-2.1,0-3.6-1.3-3.6-3.3
		c0-2,1.5-3.4,3.6-3.4c1.5,0,2.8,0.7,3.3,1.9c0.2,0.5,0.3,1,0.3,1.8H327.6z M332.3,44.1c-0.3-1.1-1.1-1.8-2.3-1.8
		c-1.2,0-2,0.6-2.3,1.8H332.3z"/>
	<path class="st0" d="M337.1,47.9h-1.3v-8.7h1.3V47.9z"/>
	<path class="st0" d="M342.8,42.5h-1.5v5.4h-1.3v-5.4h-1v-1h1v-0.8c0-1.2,0.5-1.6,1.9-1.6c0.3,0,0.5,0,0.9,0.1v1.1
		c-0.3,0-0.4,0-0.7,0c-0.6,0-0.8,0.1-0.8,0.6v0.7h1.5V42.5z"/>
	<path class="st0" d="M346.1,46.5v1.4h-1.5v-1.4H346.1z"/>
	<path class="st0" d="M94.3,67.3v-7.1l-3.5,7.1h-1.2l-3.4-7.1v7.1h-1.3v-8.7h1.9l3.5,7.3l3.5-7.3h1.9v8.7H94.3z"/>
	<path class="st0" d="M99.2,64.4c0.1,1.2,1.1,2,2.5,2c1,0,1.7-0.4,2-1.2h1.4c-0.6,1.5-1.8,2.2-3.5,2.2c-2.1,0-3.6-1.3-3.6-3.3
		c0-2,1.5-3.4,3.6-3.4c1.5,0,2.8,0.7,3.3,1.9c0.2,0.5,0.3,1,0.3,1.8H99.2z M103.9,63.4c-0.3-1.1-1.1-1.8-2.3-1.8
		c-1.2,0-2,0.6-2.3,1.8H103.9z"/>
	<path class="st0" d="M108.4,64.4c0.1,1.2,1.1,2,2.5,2c1,0,1.7-0.4,2-1.2h1.4c-0.6,1.5-1.8,2.2-3.5,2.2c-2.1,0-3.6-1.3-3.6-3.3
		c0-2,1.5-3.4,3.6-3.4c1.5,0,2.8,0.7,3.3,1.9c0.2,0.5,0.3,1,0.3,1.8H108.4z M113.1,63.4c-0.3-1.1-1.1-1.8-2.3-1.8
		c-1.2,0-2,0.6-2.3,1.8H113.1z"/>
	<path class="st0" d="M118.2,60.8h1.5v1h-1.5v3.7c0,0.6,0.2,0.7,0.8,0.7c0.3,0,0.4,0,0.7-0.1v1.1c-0.5,0.1-0.7,0.1-1,0.1
		c-0.6,0-1.1-0.1-1.4-0.4c-0.3-0.2-0.3-0.5-0.3-1.4v-3.7h-0.8v-1h0.8v-1.8h1.3V60.8z"/>
	<path class="st0" d="M126.1,63c0.1-0.6,0.2-1,0.4-1.3c0.5-0.7,1.5-1,2.8-1c1.1,0,1.8,0.2,2.4,0.5c0.4,0.3,0.6,0.7,0.6,1.5v2.8
		c0,0.6,0.2,0.8,0.6,0.8c0.1,0,0.2,0,0.3,0v0.9c-0.2,0.1-0.4,0.1-0.7,0.1c-0.8,0-1.2-0.2-1.4-1c-0.8,0.7-1.6,1.1-2.7,1.1
		c-1.5,0-2.5-0.7-2.5-1.9c0-0.7,0.4-1.3,1-1.6c0.5-0.2,0.8-0.3,2.1-0.4c1.1-0.1,1.3-0.1,1.7-0.2c0.4-0.1,0.5-0.3,0.5-0.6
		c0-0.7-0.6-1-1.7-1c-1.4,0-1.9,0.4-2,1.3H126.1z M131.1,64.1c-0.7,0.2-1.4,0.4-2.5,0.5c-1.1,0.1-1.5,0.3-1.5,0.9c0,0.6,0.5,1,1.5,1
		c0.8,0,1.5-0.2,1.9-0.7c0.4-0.4,0.5-0.6,0.5-1.2V64.1z"/>
	<path class="st0" d="M139.5,60.8h1.3v0.9c0.8-0.8,1.5-1.1,2.5-1.1c0.8,0,1.5,0.2,2,0.7c0.4,0.4,0.6,0.9,0.6,1.8v4.1h-1.3v-4
		c0-0.6-0.1-0.9-0.4-1.2c-0.3-0.2-0.7-0.4-1.1-0.4c-1.2,0-2.2,0.8-2.2,1.8v3.7h-1.3V60.8z"/>
	<path class="st0" d="M149.4,64.4c0.1,1.2,1.1,2,2.5,2c1,0,1.7-0.4,2-1.2h1.4c-0.6,1.5-1.8,2.2-3.5,2.2c-2.1,0-3.6-1.3-3.6-3.3
		c0-2,1.5-3.4,3.6-3.4c1.5,0,2.8,0.7,3.3,1.9c0.2,0.5,0.3,1,0.3,1.8H149.4z M154.1,63.4c-0.3-1.1-1.1-1.8-2.3-1.8
		c-1.2,0-2,0.6-2.3,1.8H154.1z"/>
	<path class="st0" d="M163.9,67.3l-1.7-5l-1.7,5h-1.3l-2.4-6.4h1.3l1.7,5l1.7-5h1.4l1.6,5l1.7-5h1.3l-2.4,6.4H163.9z"/>
	<path class="st0" d="M180.5,60.8l-3.1,6.9c-0.6,1.3-1.1,1.7-2.3,1.7c-0.3,0-0.5,0-0.9-0.1v-1.1c0.4,0.1,0.6,0.1,0.9,0.1
		c0.7,0,1-0.3,1.3-1l-3-6.5h1.5l2.2,5.2l2.1-5.2H180.5z"/>
	<path class="st0" d="M189.4,64.1c0,1.9-1.6,3.3-3.7,3.3c-2.2,0-3.7-1.4-3.7-3.4c0-2,1.5-3.4,3.8-3.4
		C187.9,60.7,189.4,62.1,189.4,64.1z M183.3,64c0,1.4,1,2.4,2.4,2.4c1.4,0,2.4-1,2.4-2.3c0-1.5-1-2.4-2.4-2.4
		C184.2,61.7,183.3,62.6,183.3,64z"/>
	<path class="st0" d="M198.1,67.3h-1.3v-0.9c-0.8,0.8-1.5,1.1-2.5,1.1c-0.8,0-1.5-0.2-2-0.7c-0.4-0.4-0.6-0.9-0.6-1.8v-4.1h1.3v4
		c0,0.6,0.1,0.9,0.4,1.2c0.3,0.2,0.7,0.4,1.1,0.4c1.2,0,2.2-0.8,2.2-1.8v-3.7h1.3V67.3z"/>
	<path class="st0" d="M211.6,67.3l-1.7-5l-1.7,5H207l-2.4-6.4h1.3l1.7,5l1.7-5h1.4l1.6,5l1.7-5h1.3l-2.4,6.4H211.6z"/>
	<path class="st0" d="M217.1,58.6h1.3v1.3h-1.3V58.6z M217.1,60.8h1.3v6.4h-1.3V60.8z"/>
	<path class="st0" d="M222.5,60.8h1.5v1h-1.5v3.7c0,0.6,0.2,0.7,0.8,0.7c0.3,0,0.4,0,0.7-0.1v1.1c-0.5,0.1-0.7,0.1-1,0.1
		c-0.6,0-1.1-0.1-1.4-0.4c-0.3-0.2-0.3-0.5-0.3-1.4v-3.7h-0.8v-1h0.8v-1.8h1.3V60.8z"/>
	<path class="st0" d="M225.9,58.6h1.3v3.2c0.8-0.8,1.5-1.1,2.5-1.1c0.8,0,1.5,0.2,2,0.7c0.4,0.4,0.6,0.9,0.6,1.8v4.1H231v-4
		c0-0.6-0.1-0.9-0.4-1.2c-0.3-0.2-0.7-0.4-1.1-0.4c-1.2,0-2.2,0.8-2.2,1.8v3.7h-1.3V58.6z"/>
	<path class="st0" d="M239.5,60.8h1.3v0.9c0.9-0.7,1.6-1,2.5-1c1.9,0,3.4,1.4,3.4,3.4c0,1.9-1.4,3.4-3.4,3.4c-1,0-1.7-0.3-2.5-1v3.1
		h-1.3V60.8z M240.6,64c0,1.4,0.9,2.3,2.4,2.3s2.4-0.9,2.4-2.3c0-1.4-1-2.3-2.4-2.3C241.6,61.7,240.6,62.7,240.6,64z"/>
	<path class="st0" d="M249.9,64.4c0.1,1.2,1.1,2,2.5,2c1,0,1.7-0.4,2-1.2h1.4c-0.6,1.5-1.8,2.2-3.5,2.2c-2.1,0-3.6-1.3-3.6-3.3
		c0-2,1.5-3.4,3.6-3.4c1.5,0,2.8,0.7,3.3,1.9c0.2,0.5,0.3,1,0.3,1.8H249.9z M254.5,63.4c-0.3-1.1-1.1-1.8-2.3-1.8
		c-1.2,0-2,0.6-2.3,1.8H254.5z"/>
	<path class="st0" d="M259.4,60.8v0.9c0.8-0.9,1.2-1.1,2.1-1.1c0.2,0,0.4,0,0.8,0.1V62c-0.4-0.1-0.6-0.1-0.8-0.1
		c-0.7,0-1.2,0.2-1.6,0.6c-0.4,0.4-0.5,0.6-0.5,1.2v3.5h-1.3v-6.4H259.4z"/>
	<path class="st0" d="M268.9,62.8c-0.1-0.8-0.7-1.2-1.8-1.2c-1,0-1.7,0.3-1.7,0.9c0,0.2,0.2,0.5,0.5,0.6c0.3,0.1,0.5,0.1,1.6,0.3
		c1.7,0.3,2,0.3,2.4,0.6c0.4,0.3,0.6,0.8,0.6,1.3c0,1.3-1.1,2.1-3.2,2.1s-3.1-0.7-3.4-2.2h1.3c0.1,0.8,0.8,1.2,2.1,1.2
		c1.2,0,1.9-0.3,1.9-0.9c0-0.3-0.1-0.5-0.4-0.6s-0.2-0.1-1.6-0.3c-1.2-0.2-1.6-0.3-2-0.4c-0.6-0.2-1-0.8-1-1.5c0-1.2,1.1-2,3-2
		c1.9,0,2.9,0.7,3,2.2H268.9z"/>
	<path class="st0" d="M273.5,64.4c0.1,1.2,1.1,2,2.5,2c1,0,1.7-0.4,2-1.2h1.4c-0.6,1.5-1.8,2.2-3.5,2.2c-2.1,0-3.6-1.3-3.6-3.3
		c0-2,1.5-3.4,3.6-3.4c1.5,0,2.8,0.7,3.3,1.9c0.2,0.5,0.3,1,0.3,1.8H273.5z M278.1,63.4c-0.3-1.1-1.1-1.8-2.3-1.8
		c-1.2,0-2,0.6-2.3,1.8H278.1z"/>
	<path class="st0" d="M283.2,65.8v1.4h-1.5v-1.4H283.2z"/>
</g>
</svg>
