<?xml version="1.0" encoding="utf-8"?>
<!-- Generator: Adobe Illustrator 25.4.1, SVG Export Plug-In . SVG Version: 6.00 Build 0)  -->
<svg version="1.1" id="レイヤー_1" xmlns="http://www.w3.org/2000/svg" xmlns:xlink="http://www.w3.org/1999/xlink" x="0px"
	 y="0px" viewBox="0 0 462 18" style="enable-background:new 0 0 462 18;" xml:space="preserve">
<style type="text/css">
	.st0{fill:#F3FF88;}
</style>
<g>
	<g>
		<g>
			<g>
				<path class="st0" d="M187.4,3.6c0.8,0,1.5,0.1,2.1,0.4c0.7,0.3,1.2,0.7,1.7,1.1l-0.6,3.1c-0.1-0.8-0.2-1.5-0.4-2.1
					c-0.2-0.6-0.5-1-0.8-1.3c-0.3-0.3-0.6-0.6-1-0.7c-0.4-0.1-0.7-0.2-1.1-0.2c-0.5,0-1,0.1-1.4,0.4c-0.4,0.3-0.8,0.6-1.1,1.1
					s-0.5,1-0.7,1.7c-0.2,0.6-0.3,1.4-0.3,2.1c0,0.8,0.1,1.5,0.3,2.2c0.2,0.7,0.4,1.2,0.7,1.7c0.3,0.5,0.7,0.8,1.1,1.1
					c0.4,0.3,0.9,0.4,1.4,0.4c0.9,0,1.7-0.4,2.3-1.1c0.7-0.7,1.2-1.8,1.5-3.2l-0.1,3.2c-0.3,0.3-0.6,0.5-0.9,0.7s-0.6,0.3-1,0.4
					c-0.3,0.1-0.6,0.2-1,0.2c-0.3,0-0.6,0.1-0.9,0.1c-0.7,0-1.4-0.1-2-0.4c-0.6-0.3-1.1-0.6-1.6-1.1s-0.8-1.1-1-1.8
					c-0.2-0.7-0.4-1.5-0.4-2.3c0-0.8,0.1-1.6,0.3-2.2c0.2-0.7,0.6-1.3,1-1.7c0.4-0.5,0.9-0.9,1.5-1.1C186.1,3.8,186.7,3.6,187.4,3.6
					z"/>
				<path class="st0" d="M198.3,3.6c0.7,0,1.4,0.1,2,0.4c0.6,0.3,1.1,0.7,1.6,1.2c0.4,0.5,0.8,1.1,1,1.8c0.2,0.7,0.4,1.4,0.4,2.2v0
					c0,0.8-0.1,1.6-0.4,2.2c-0.2,0.7-0.6,1.3-1,1.8c-0.4,0.5-1,0.9-1.6,1.2c-0.6,0.3-1.3,0.4-2,0.4c-0.7,0-1.4-0.1-2-0.4
					c-0.6-0.3-1.1-0.7-1.6-1.2c-0.4-0.5-0.8-1.1-1-1.8c-0.2-0.7-0.4-1.4-0.4-2.2v0c0-0.8,0.1-1.6,0.4-2.2c0.2-0.7,0.6-1.3,1-1.8
					c0.4-0.5,1-0.9,1.6-1.2C196.9,3.8,197.6,3.6,198.3,3.6z M194.7,9.2c0,0.8,0.1,1.5,0.3,2.1c0.2,0.6,0.4,1.2,0.7,1.7
					c0.3,0.5,0.7,0.8,1.1,1.1c0.4,0.3,0.9,0.4,1.5,0.4c0.5,0,1-0.1,1.5-0.4c0.4-0.3,0.8-0.6,1.1-1.1s0.6-1,0.7-1.7
					c0.2-0.6,0.3-1.4,0.3-2.1s-0.1-1.5-0.3-2.1c-0.2-0.6-0.4-1.2-0.7-1.7c-0.3-0.5-0.7-0.8-1.1-1.1s-0.9-0.4-1.5-0.4
					c-0.5,0-1,0.1-1.5,0.4c-0.4,0.3-0.8,0.6-1.1,1.1c-0.3,0.5-0.6,1-0.7,1.7C194.8,7.7,194.7,8.4,194.7,9.2z"/>
				<path class="st0" d="M205,14.7c0.2-0.1,0.3-0.1,0.5-0.2c0.1-0.1,0.2-0.2,0.3-0.3c0.1-0.1,0.1-0.3,0.1-0.5c0-0.2,0-0.4,0-0.7V1.6
					c0-0.4,0-0.7-0.1-0.9c-0.1-0.2-0.2-0.3-0.3-0.5l1.7-0.2v13c0,0.3,0,0.5,0,0.7c0,0.2,0.1,0.3,0.1,0.5c0.1,0.1,0.2,0.2,0.3,0.3
					c0.1,0.1,0.3,0.1,0.4,0.2H205z"/>
				<path class="st0" d="M209.7,14.7c0.2-0.1,0.3-0.1,0.5-0.2c0.1-0.1,0.2-0.2,0.3-0.3c0.1-0.1,0.1-0.3,0.1-0.5c0-0.2,0-0.4,0-0.7
					V1.6c0-0.4,0-0.7-0.1-0.9s-0.2-0.3-0.3-0.5l1.7-0.2v13c0,0.3,0,0.5,0,0.7c0,0.2,0.1,0.3,0.1,0.5c0.1,0.1,0.2,0.2,0.3,0.3
					c0.1,0.1,0.3,0.1,0.4,0.2H209.7z"/>
				<path class="st0" d="M219.2,3.6c0.7,0,1.3,0.1,1.8,0.3c0.5,0.2,0.9,0.5,1.3,0.9c0.3,0.4,0.6,0.9,0.8,1.4s0.3,1.1,0.3,1.8H216
					c0,0.2,0,0.4-0.1,0.6c0,0.2,0,0.4,0,0.6c0,0.7,0.1,1.4,0.3,2.1c0.2,0.6,0.4,1.2,0.7,1.7c0.3,0.5,0.7,0.8,1.1,1.1
					c0.4,0.3,0.9,0.4,1.4,0.4c0.5,0,0.9-0.1,1.3-0.3c0.4-0.2,0.7-0.5,1-0.8c0.3-0.3,0.6-0.8,0.8-1.2c0.2-0.5,0.5-1,0.7-1.6l-0.2,2.8
					c-0.5,0.5-1.1,0.8-1.7,1.1c-0.7,0.2-1.3,0.3-1.9,0.3c-0.7,0-1.4-0.1-2-0.4c-0.6-0.3-1.1-0.6-1.6-1.1c-0.4-0.5-0.8-1.1-1-1.7
					c-0.2-0.7-0.4-1.4-0.4-2.3c0-0.8,0.1-1.6,0.3-2.2c0.2-0.7,0.5-1.3,0.9-1.8c0.4-0.5,0.9-0.9,1.5-1.2
					C217.8,3.8,218.5,3.6,219.2,3.6z M216.1,7.8h5.9c0-0.6-0.1-1.1-0.2-1.6c-0.1-0.5-0.3-0.9-0.5-1.3s-0.5-0.6-0.9-0.8
					s-0.7-0.3-1.2-0.3c-0.4,0-0.8,0.1-1.2,0.3c-0.3,0.2-0.7,0.5-0.9,0.8c-0.3,0.4-0.5,0.8-0.7,1.3S216.1,7.3,216.1,7.8z"/>
				<path class="st0" d="M230.1,3.6c0.8,0,1.5,0.1,2.1,0.4c0.7,0.3,1.2,0.7,1.7,1.1l-0.6,3.1c-0.1-0.8-0.2-1.5-0.4-2.1
					c-0.2-0.6-0.5-1-0.8-1.3c-0.3-0.3-0.6-0.6-1-0.7c-0.4-0.1-0.7-0.2-1.1-0.2c-0.5,0-1,0.1-1.4,0.4c-0.4,0.3-0.8,0.6-1.1,1.1
					s-0.5,1-0.7,1.7c-0.2,0.6-0.3,1.4-0.3,2.1c0,0.8,0.1,1.5,0.3,2.2c0.2,0.7,0.4,1.2,0.7,1.7c0.3,0.5,0.7,0.8,1.1,1.1
					c0.4,0.3,0.9,0.4,1.4,0.4c0.9,0,1.7-0.4,2.3-1.1c0.7-0.7,1.2-1.8,1.5-3.2l-0.1,3.2c-0.3,0.3-0.6,0.5-0.9,0.7s-0.6,0.3-1,0.4
					c-0.3,0.1-0.6,0.2-1,0.2c-0.3,0-0.6,0.1-0.9,0.1c-0.7,0-1.4-0.1-2-0.4c-0.6-0.3-1.1-0.6-1.6-1.1s-0.8-1.1-1-1.8
					c-0.2-0.7-0.4-1.5-0.4-2.3c0-0.8,0.1-1.6,0.3-2.2c0.2-0.7,0.6-1.3,1-1.7c0.4-0.5,0.9-0.9,1.5-1.1C228.7,3.8,229.4,3.6,230.1,3.6
					z"/>
				<path class="st0" d="M237.6,3.7l1.2-2.7v2.7h2.9v0.2h-2.9v8.3c0,0.4,0,0.8,0.1,1.1c0.1,0.3,0.1,0.5,0.2,0.7
					c0.1,0.2,0.2,0.3,0.4,0.3s0.3,0.1,0.5,0.1c0.3,0,0.6-0.1,0.9-0.3c0.2-0.2,0.4-0.5,0.6-0.9l0.2,0.2c-0.2,0.4-0.5,0.7-0.8,1
					s-0.7,0.4-1.2,0.4c-0.8,0-1.4-0.3-1.7-0.8c-0.3-0.5-0.5-1.3-0.5-2.2V3.9h-1.7V3.7H237.6z"/>
				<path class="st0" d="M243.1,14.7c0.2-0.1,0.3-0.1,0.5-0.2c0.1-0.1,0.2-0.2,0.3-0.3c0.1-0.1,0.1-0.3,0.1-0.5c0-0.2,0-0.4,0-0.7
					V5.8c0-0.3,0-0.5,0-0.7c0-0.2,0-0.4-0.1-0.5c0-0.2-0.1-0.3-0.1-0.4c-0.1-0.1-0.1-0.3-0.2-0.4l1.8-0.2V13c0,0.3,0,0.5,0,0.7
					c0,0.2,0.1,0.3,0.1,0.5c0.1,0.1,0.2,0.2,0.3,0.3c0.1,0.1,0.3,0.1,0.4,0.2H243.1z M244.6,0.3c0.3,0,0.5,0.1,0.7,0.3
					c0.2,0.2,0.3,0.4,0.3,0.7s-0.1,0.5-0.3,0.7c-0.2,0.2-0.4,0.3-0.7,0.3c-0.3,0-0.5-0.1-0.6-0.3c-0.2-0.2-0.3-0.4-0.3-0.7
					s0.1-0.5,0.3-0.7S244.4,0.3,244.6,0.3z"/>
				<path class="st0" d="M252.9,3.6c0.7,0,1.4,0.1,2,0.4c0.6,0.3,1.1,0.7,1.6,1.2c0.4,0.5,0.8,1.1,1,1.8c0.2,0.7,0.4,1.4,0.4,2.2v0
					c0,0.8-0.1,1.6-0.4,2.2c-0.2,0.7-0.6,1.3-1,1.8c-0.4,0.5-1,0.9-1.6,1.2c-0.6,0.3-1.3,0.4-2,0.4c-0.7,0-1.4-0.1-2-0.4
					c-0.6-0.3-1.1-0.7-1.6-1.2c-0.4-0.5-0.8-1.1-1-1.8c-0.2-0.7-0.4-1.4-0.4-2.2v0c0-0.8,0.1-1.6,0.4-2.2c0.2-0.7,0.6-1.3,1-1.8
					c0.4-0.5,1-0.9,1.6-1.2C251.5,3.8,252.2,3.6,252.9,3.6z M249.4,9.2c0,0.8,0.1,1.5,0.3,2.1c0.2,0.6,0.4,1.2,0.7,1.7
					c0.3,0.5,0.7,0.8,1.1,1.1c0.4,0.3,0.9,0.4,1.5,0.4c0.5,0,1-0.1,1.5-0.4c0.4-0.3,0.8-0.6,1.1-1.1s0.6-1,0.7-1.7
					c0.2-0.6,0.3-1.4,0.3-2.1s-0.1-1.5-0.3-2.1c-0.2-0.6-0.4-1.2-0.7-1.7c-0.3-0.5-0.7-0.8-1.1-1.1s-0.9-0.4-1.5-0.4
					c-0.5,0-1,0.1-1.5,0.4c-0.4,0.3-0.8,0.6-1.1,1.1c-0.3,0.5-0.6,1-0.7,1.7C249.4,7.7,249.4,8.4,249.4,9.2z"/>
				<path class="st0" d="M259.7,14.7c0.2-0.1,0.3-0.1,0.5-0.2c0.1-0.1,0.2-0.2,0.3-0.3c0.1-0.1,0.1-0.3,0.1-0.5c0-0.2,0-0.4,0-0.7
					V5.8c0-0.3,0-0.5,0-0.7c0-0.2,0-0.4-0.1-0.5c0-0.2-0.1-0.3-0.1-0.4c-0.1-0.1-0.1-0.3-0.2-0.4l1.8-0.2v3.1
					c0.3-0.9,0.8-1.7,1.4-2.2c0.6-0.5,1.5-0.8,2.4-0.8c0.6,0,1.1,0.1,1.5,0.3c0.4,0.2,0.8,0.4,1.1,0.7s0.5,0.7,0.7,1.2
					s0.2,0.9,0.2,1.5V13c0,0.3,0,0.5,0,0.7c0,0.2,0.1,0.3,0.1,0.5c0.1,0.1,0.2,0.2,0.3,0.3c0.1,0.1,0.3,0.1,0.4,0.2H267
					c0.2-0.1,0.3-0.1,0.5-0.2c0.1-0.1,0.2-0.2,0.3-0.3c0.1-0.1,0.1-0.3,0.1-0.5c0-0.2,0-0.4,0-0.7V7.1c0-1-0.2-1.7-0.6-2.3
					c-0.4-0.5-1-0.8-1.8-0.8c-0.5,0-0.9,0.1-1.3,0.3c-0.4,0.2-0.8,0.5-1.1,0.8c-0.3,0.4-0.6,0.8-0.8,1.3c-0.2,0.5-0.3,1.1-0.4,1.8
					V13c0,0.3,0,0.5,0,0.7c0,0.2,0.1,0.3,0.1,0.5c0.1,0.1,0.2,0.2,0.3,0.3c0.1,0.1,0.3,0.1,0.4,0.2H259.7z"/>
			</g>
		</g>
		<g>
			<g>
				<path class="st0" d="M366.5,13.2l0.3-3.6c0.1,1.5,0.5,2.7,1.2,3.6c0.7,0.8,1.6,1.3,2.7,1.3c0.5,0,0.9-0.1,1.3-0.2
					c0.4-0.1,0.7-0.4,0.9-0.6c0.3-0.3,0.4-0.6,0.6-0.9c0.1-0.3,0.2-0.7,0.2-1.1c0-0.5-0.1-0.9-0.3-1.2c-0.2-0.3-0.4-0.6-0.7-0.9
					s-0.5-0.4-0.8-0.6c-0.3-0.1-0.5-0.2-0.7-0.3l-1.7-0.7c-0.2-0.1-0.5-0.2-0.8-0.4c-0.3-0.2-0.6-0.4-0.9-0.6
					c-0.3-0.3-0.5-0.6-0.8-1c-0.2-0.4-0.3-0.9-0.3-1.5c0-0.5,0.1-0.9,0.2-1.3c0.2-0.4,0.4-0.8,0.7-1.1c0.3-0.3,0.7-0.6,1.1-0.7
					c0.4-0.2,1-0.3,1.6-0.3c0.5,0,1.1,0.1,1.8,0.3c0.6,0.2,1.2,0.4,1.7,0.8l0.1,3.7c-0.2-1.4-0.6-2.5-1.2-3.3
					c-0.6-0.8-1.4-1.2-2.4-1.2c-0.4,0-0.8,0.1-1.1,0.2c-0.3,0.1-0.6,0.3-0.9,0.5c-0.2,0.2-0.4,0.5-0.6,0.8c-0.1,0.3-0.2,0.6-0.2,1
					c0,0.4,0.1,0.7,0.3,1c0.2,0.3,0.4,0.5,0.6,0.7c0.2,0.2,0.5,0.4,0.8,0.5c0.3,0.1,0.5,0.2,0.7,0.3l1.8,0.8
					c0.9,0.4,1.6,0.9,2.1,1.5c0.5,0.6,0.8,1.4,0.8,2.3c0,0.5-0.1,1-0.3,1.5c-0.2,0.5-0.4,0.9-0.8,1.2c-0.3,0.3-0.7,0.6-1.2,0.8
					c-0.5,0.2-1,0.3-1.7,0.3c-0.8,0-1.6-0.1-2.3-0.4S366.9,13.8,366.5,13.2z"/>
				<path class="st0" d="M376.6,3.8l1.8-0.2v7.9c0,0.6,0.1,1,0.2,1.4c0.1,0.4,0.3,0.7,0.4,0.9c0.2,0.2,0.4,0.4,0.7,0.5
					c0.3,0.1,0.6,0.2,0.9,0.2c0.5,0,1-0.1,1.4-0.4s0.7-0.6,1-1c0.3-0.4,0.5-0.9,0.6-1.4c0.1-0.5,0.2-1,0.2-1.5V5.8
					c0-0.3,0-0.5,0-0.7c0-0.2,0-0.4-0.1-0.5c0-0.2-0.1-0.3-0.1-0.4c-0.1-0.1-0.1-0.3-0.2-0.4l1.8-0.2v9.1c0,0.6,0,1,0.1,1.2
					c0.1,0.3,0.2,0.5,0.4,0.7l-1.7,0.1v-2.9c-0.2,0.5-0.4,0.9-0.6,1.2c-0.2,0.4-0.4,0.7-0.7,0.9c-0.3,0.3-0.6,0.5-0.9,0.6
					c-0.4,0.1-0.8,0.2-1.2,0.2c-1,0-1.8-0.3-2.4-0.8c-0.6-0.6-0.9-1.4-0.9-2.6V5.8c0-0.3,0-0.5,0-0.7c0-0.2,0-0.4-0.1-0.5
					c0-0.2-0.1-0.3-0.1-0.4C376.8,4,376.7,3.9,376.6,3.8z"/>
				<path class="st0" d="M387.3,14.7c0.2-0.1,0.3-0.1,0.5-0.2c0.1-0.1,0.2-0.2,0.3-0.3c0.1-0.1,0.1-0.3,0.1-0.5c0-0.2,0-0.4,0-0.7
					V5.8c0-0.3,0-0.5,0-0.7c0-0.2,0-0.4-0.1-0.5c0-0.2-0.1-0.3-0.1-0.4c-0.1-0.1-0.1-0.3-0.2-0.4l1.8-0.2v3.1
					c0.3-0.9,0.8-1.7,1.4-2.2c0.6-0.5,1.5-0.8,2.4-0.8c0.6,0,1.1,0.1,1.5,0.3c0.4,0.2,0.8,0.4,1.1,0.7s0.5,0.7,0.7,1.2
					s0.2,0.9,0.2,1.5V13c0,0.3,0,0.5,0,0.7c0,0.2,0.1,0.3,0.1,0.5c0.1,0.1,0.2,0.2,0.3,0.3c0.1,0.1,0.3,0.1,0.4,0.2h-3.1
					c0.2-0.1,0.3-0.1,0.5-0.2c0.1-0.1,0.2-0.2,0.3-0.3c0.1-0.1,0.1-0.3,0.1-0.5c0-0.2,0-0.4,0-0.7V7.1c0-1-0.2-1.7-0.6-2.3
					c-0.4-0.5-1-0.8-1.8-0.8c-0.5,0-0.9,0.1-1.3,0.3c-0.4,0.2-0.8,0.5-1.1,0.8c-0.3,0.4-0.6,0.8-0.8,1.3c-0.2,0.5-0.3,1.1-0.4,1.8
					V13c0,0.3,0,0.5,0,0.7c0,0.2,0.1,0.3,0.1,0.5c0.1,0.1,0.2,0.2,0.3,0.3c0.1,0.1,0.3,0.1,0.4,0.2H387.3z"/>
				<path class="st0" d="M405.3,13.2l0.3-3.6c0.1,1.5,0.5,2.7,1.2,3.6c0.7,0.8,1.6,1.3,2.7,1.3c0.5,0,0.9-0.1,1.3-0.2
					c0.4-0.1,0.7-0.4,0.9-0.6c0.3-0.3,0.4-0.6,0.6-0.9c0.1-0.3,0.2-0.7,0.2-1.1c0-0.5-0.1-0.9-0.3-1.2c-0.2-0.3-0.4-0.6-0.7-0.9
					s-0.5-0.4-0.8-0.6c-0.3-0.1-0.5-0.2-0.7-0.3l-1.7-0.7c-0.2-0.1-0.5-0.2-0.8-0.4c-0.3-0.2-0.6-0.4-0.9-0.6
					c-0.3-0.3-0.5-0.6-0.8-1c-0.2-0.4-0.3-0.9-0.3-1.5c0-0.5,0.1-0.9,0.2-1.3c0.2-0.4,0.4-0.8,0.7-1.1c0.3-0.3,0.7-0.6,1.1-0.7
					c0.4-0.2,1-0.3,1.6-0.3c0.5,0,1.1,0.1,1.8,0.3c0.6,0.2,1.2,0.4,1.7,0.8l0.1,3.7c-0.2-1.4-0.6-2.5-1.2-3.3
					c-0.6-0.8-1.4-1.2-2.4-1.2c-0.4,0-0.8,0.1-1.1,0.2c-0.3,0.1-0.6,0.3-0.9,0.5c-0.2,0.2-0.4,0.5-0.6,0.8c-0.1,0.3-0.2,0.6-0.2,1
					c0,0.4,0.1,0.7,0.3,1c0.2,0.3,0.4,0.5,0.6,0.7c0.2,0.2,0.5,0.4,0.8,0.5c0.3,0.1,0.5,0.2,0.7,0.3l1.8,0.8
					c0.9,0.4,1.6,0.9,2.1,1.5c0.5,0.6,0.8,1.4,0.8,2.3c0,0.5-0.1,1-0.3,1.5c-0.2,0.5-0.4,0.9-0.8,1.2c-0.3,0.3-0.7,0.6-1.2,0.8
					c-0.5,0.2-1,0.3-1.7,0.3c-0.8,0-1.6-0.1-2.3-0.4S405.8,13.8,405.3,13.2z"/>
				<path class="st0" d="M420.1,3.6c0.7,0,1.3,0.1,1.8,0.3c0.5,0.2,0.9,0.5,1.3,0.9c0.3,0.4,0.6,0.9,0.8,1.4s0.3,1.1,0.3,1.8h-7.3
					c0,0.2,0,0.4-0.1,0.6c0,0.2,0,0.4,0,0.6c0,0.7,0.1,1.4,0.3,2.1c0.2,0.6,0.4,1.2,0.7,1.7c0.3,0.5,0.7,0.8,1.1,1.1
					c0.4,0.3,0.9,0.4,1.4,0.4c0.5,0,0.9-0.1,1.3-0.3c0.4-0.2,0.7-0.5,1-0.8c0.3-0.3,0.6-0.8,0.8-1.2c0.2-0.5,0.5-1,0.7-1.6l-0.2,2.8
					c-0.5,0.5-1.1,0.8-1.7,1.1c-0.7,0.2-1.3,0.3-1.9,0.3c-0.7,0-1.4-0.1-2-0.4c-0.6-0.3-1.1-0.6-1.6-1.1c-0.4-0.5-0.8-1.1-1-1.7
					c-0.2-0.7-0.4-1.4-0.4-2.3c0-0.8,0.1-1.6,0.3-2.2c0.2-0.7,0.5-1.3,0.9-1.8c0.4-0.5,0.9-0.9,1.5-1.2
					C418.7,3.8,419.4,3.6,420.1,3.6z M416.9,7.8h5.9c0-0.6-0.1-1.1-0.2-1.6c-0.1-0.5-0.3-0.9-0.5-1.3s-0.5-0.6-0.9-0.8
					s-0.7-0.3-1.2-0.3c-0.4,0-0.8,0.1-1.2,0.3c-0.3,0.2-0.7,0.5-0.9,0.8c-0.3,0.4-0.5,0.8-0.7,1.3S417,7.3,416.9,7.8z"/>
				<path class="st0" d="M426.1,14.7c0.2-0.1,0.3-0.1,0.5-0.2c0.1-0.1,0.2-0.2,0.3-0.3c0.1-0.1,0.1-0.3,0.1-0.5c0-0.2,0-0.4,0-0.7
					V5.8c0-0.3,0-0.5,0-0.7c0-0.2,0-0.4-0.1-0.5c0-0.2-0.1-0.3-0.1-0.4c-0.1-0.1-0.1-0.3-0.2-0.4l1.8-0.2v2.6c0.1-0.4,0.3-0.7,0.5-1
					c0.2-0.3,0.4-0.6,0.6-0.8c0.2-0.2,0.5-0.4,0.8-0.5c0.3-0.1,0.7-0.2,1.1-0.2c0.4,0,0.7,0,1,0.1l0,1.9c-0.1-0.1-0.2-0.3-0.4-0.4
					c-0.1-0.2-0.3-0.3-0.5-0.4c-0.2-0.1-0.3-0.2-0.5-0.3c-0.2-0.1-0.4-0.1-0.5-0.1c-0.2,0-0.4,0.1-0.6,0.2c-0.2,0.1-0.4,0.3-0.5,0.5
					s-0.3,0.5-0.5,0.8c-0.1,0.3-0.3,0.6-0.4,0.9V13c0,0.3,0,0.5,0,0.7c0,0.2,0.1,0.3,0.1,0.5c0.1,0.1,0.2,0.2,0.3,0.3
					c0.1,0.1,0.3,0.1,0.4,0.2H426.1z"/>
				<path class="st0" d="M433.8,3.8l1.8-0.2v7.9c0,0.6,0.1,1,0.2,1.4c0.1,0.4,0.3,0.7,0.4,0.9c0.2,0.2,0.4,0.4,0.7,0.5
					c0.3,0.1,0.6,0.2,0.9,0.2c0.5,0,1-0.1,1.4-0.4s0.7-0.6,1-1c0.3-0.4,0.5-0.9,0.6-1.4c0.1-0.5,0.2-1,0.2-1.5V5.8
					c0-0.3,0-0.5,0-0.7c0-0.2,0-0.4-0.1-0.5c0-0.2-0.1-0.3-0.1-0.4c-0.1-0.1-0.1-0.3-0.2-0.4l1.8-0.2v9.1c0,0.6,0,1,0.1,1.2
					c0.1,0.3,0.2,0.5,0.4,0.7l-1.7,0.1v-2.9c-0.2,0.5-0.4,0.9-0.6,1.2c-0.2,0.4-0.4,0.7-0.7,0.9c-0.3,0.3-0.6,0.5-0.9,0.6
					c-0.4,0.1-0.8,0.2-1.2,0.2c-1,0-1.8-0.3-2.4-0.8c-0.6-0.6-0.9-1.4-0.9-2.6V5.8c0-0.3,0-0.5,0-0.7c0-0.2,0-0.4-0.1-0.5
					c0-0.2-0.1-0.3-0.1-0.4C434,4,433.9,3.9,433.8,3.8z"/>
				<path class="st0" d="M445.4,13V5.8c0-0.3,0-0.5,0-0.7c0-0.2,0-0.4-0.1-0.5c0-0.2-0.1-0.3-0.1-0.4c-0.1-0.1-0.1-0.3-0.2-0.4
					l1.8-0.2v3.1c0.3-0.9,0.7-1.7,1.4-2.2c0.6-0.5,1.4-0.8,2.3-0.8c1,0,1.8,0.3,2.4,0.9c0.6,0.6,0.9,1.3,1,2.3
					c0.3-1,0.7-1.7,1.3-2.3c0.6-0.6,1.4-0.8,2.3-0.8c0.5,0,1,0.1,1.5,0.3s0.8,0.4,1.1,0.7s0.5,0.7,0.7,1.2s0.2,0.9,0.2,1.5V13
					c0,0.3,0,0.5,0,0.7c0,0.2,0.1,0.3,0.1,0.5c0.1,0.1,0.2,0.2,0.3,0.3c0.1,0.1,0.3,0.1,0.4,0.2h-3.1c0.2-0.1,0.3-0.1,0.5-0.2
					c0.1-0.1,0.2-0.2,0.3-0.3c0.1-0.1,0.1-0.3,0.1-0.5c0-0.2,0-0.4,0-0.7V7.1c0-1-0.2-1.7-0.6-2.3c-0.4-0.6-1-0.8-1.8-0.8
					c-0.4,0-0.8,0.1-1.2,0.3c-0.4,0.2-0.7,0.5-1.1,0.8c-0.3,0.4-0.6,0.8-0.8,1.3c-0.2,0.5-0.3,1.1-0.4,1.8V13c0,0.3,0,0.5,0,0.7
					c0,0.2,0.1,0.3,0.1,0.5c0.1,0.1,0.2,0.2,0.3,0.3c0.1,0.1,0.3,0.1,0.4,0.2h-3.1c0.2-0.1,0.3-0.1,0.5-0.2c0.1-0.1,0.2-0.2,0.3-0.3
					c0.1-0.1,0.1-0.3,0.1-0.5c0-0.2,0-0.4,0-0.7V7.1c0-1-0.2-1.7-0.6-2.3c-0.4-0.6-1-0.8-1.8-0.8c-0.4,0-0.8,0.1-1.2,0.3
					c-0.4,0.2-0.7,0.5-1.1,0.8c-0.3,0.4-0.6,0.8-0.8,1.3c-0.2,0.5-0.3,1.1-0.4,1.8V13c0,0.3,0,0.5,0,0.7c0,0.2,0.1,0.3,0.1,0.5
					c0.1,0.1,0.2,0.2,0.3,0.3c0.1,0.1,0.3,0.1,0.4,0.2h-3.1c0.2-0.1,0.3-0.1,0.5-0.2c0.1-0.1,0.2-0.2,0.3-0.3
					c0.1-0.1,0.1-0.3,0.1-0.5C445.4,13.5,445.4,13.2,445.4,13z"/>
			</g>
		</g>
		<g>
			<g>
				<path class="st0" d="M2.3,3.7C2.2,3.8,2.2,3.9,2.1,4.1c-0.1,0.2,0,0.4,0.1,0.8l3.1,8L8,6.1c0.2-0.5,0.3-0.9,0.3-1.2s0-0.5,0-0.7
					S8.2,3.9,8.2,3.9C8.1,3.8,8,3.8,8,3.7h1.7C9.5,3.8,9.4,4,9.2,4.2S8.8,4.8,8.5,5.4L5,14.7H4.8L1.2,5.4c-0.2-0.6-0.4-1-0.6-1.2
					S0.3,3.8,0.2,3.7H2.3z"/>
				<path class="st0" d="M15.8,3.6c0.7,0,1.3,0.1,1.8,0.3c0.5,0.2,0.9,0.5,1.3,0.9c0.3,0.4,0.6,0.9,0.8,1.4s0.3,1.1,0.3,1.8h-7.3
					c0,0.2,0,0.4-0.1,0.6c0,0.2,0,0.4,0,0.6c0,0.7,0.1,1.4,0.3,2.1c0.2,0.6,0.4,1.2,0.7,1.7c0.3,0.5,0.7,0.8,1.1,1.1
					c0.4,0.3,0.9,0.4,1.4,0.4c0.5,0,0.9-0.1,1.3-0.3c0.4-0.2,0.7-0.5,1-0.8c0.3-0.3,0.6-0.8,0.8-1.2c0.2-0.5,0.5-1,0.7-1.6l-0.2,2.8
					c-0.5,0.5-1.1,0.8-1.7,1.1c-0.7,0.2-1.3,0.3-1.9,0.3c-0.7,0-1.4-0.1-2-0.4c-0.6-0.3-1.1-0.6-1.6-1.1c-0.4-0.5-0.8-1.1-1-1.7
					c-0.2-0.7-0.4-1.4-0.4-2.3c0-0.8,0.1-1.6,0.3-2.2c0.2-0.7,0.5-1.3,0.9-1.8c0.4-0.5,0.9-0.9,1.5-1.2C14.4,3.8,15,3.6,15.8,3.6z
					 M12.6,7.8h5.9c0-0.6-0.1-1.1-0.2-1.6C18.2,5.8,18,5.4,17.8,5s-0.5-0.6-0.9-0.8s-0.7-0.3-1.2-0.3c-0.4,0-0.8,0.1-1.2,0.3
					c-0.3,0.2-0.7,0.5-0.9,0.8c-0.3,0.4-0.5,0.8-0.7,1.3S12.7,7.3,12.6,7.8z"/>
				<path class="st0" d="M21.4,15.4c0-0.6,0.3-1.1,0.8-1.5c0.6-0.3,1.5-0.5,2.7-0.6c-0.8-0.1-1.4-0.3-1.8-0.6s-0.5-0.7-0.5-1.1
					c0-0.2,0-0.5,0.1-0.6c0.1-0.2,0.2-0.3,0.4-0.4c0.2-0.1,0.4-0.2,0.6-0.3c0.2-0.1,0.4-0.1,0.7-0.1h0.2C24,10,23.5,9.6,23.1,9
					c-0.4-0.5-0.6-1.2-0.6-1.9c0-0.5,0.1-1,0.3-1.4c0.2-0.4,0.4-0.8,0.7-1.1s0.7-0.5,1.2-0.7c0.4-0.2,0.9-0.3,1.5-0.3
					c0.5,0,0.9,0.1,1.3,0.2s0.7,0.3,1,0.5c0.1-0.7,0.3-1.2,0.6-1.6s0.7-0.6,1.1-0.6c0.3,0,0.5,0.1,0.7,0.2s0.3,0.4,0.3,0.6
					c0,0.2-0.1,0.4-0.2,0.6c-0.1,0.2-0.3,0.2-0.5,0.2c-0.1,0-0.2,0-0.3-0.1s-0.2-0.1-0.3-0.2c-0.1-0.1-0.2-0.1-0.3-0.2
					c-0.1,0-0.2-0.1-0.3-0.1c-0.2,0-0.3,0.1-0.4,0.2c-0.1,0.2-0.2,0.4-0.2,0.9c0.4,0.3,0.7,0.7,0.9,1.1c0.2,0.4,0.3,0.9,0.3,1.5
					c0,0.5-0.1,1-0.3,1.4c-0.2,0.4-0.4,0.8-0.7,1.1c-0.3,0.3-0.7,0.5-1.2,0.7c-0.4,0.2-0.9,0.3-1.5,0.3c-0.3,0-0.5,0-0.7-0.1
					c-0.1,0-0.3,0-0.4,0c-0.1,0-0.2,0-0.3,0c-0.4,0-0.8,0.1-1,0.2c-0.3,0.1-0.4,0.3-0.4,0.6c0,0.2,0.1,0.3,0.2,0.5
					c0.1,0.1,0.3,0.2,0.5,0.3c0.2,0.1,0.4,0.1,0.5,0.1l2.1,0.3c0.7,0.1,1.3,0.2,1.8,0.3c0.5,0.1,1,0.3,1.4,0.4s0.7,0.4,0.9,0.7
					c0.2,0.3,0.3,0.7,0.3,1.1c0,0.5-0.1,0.9-0.3,1.3s-0.5,0.7-1,1c-0.4,0.3-0.9,0.5-1.5,0.6s-1.2,0.2-2,0.2c-0.6,0-1.2-0.1-1.8-0.2
					c-0.6-0.1-1.1-0.3-1.6-0.5c-0.5-0.2-0.8-0.5-1.1-0.8C21.5,16.2,21.4,15.8,21.4,15.4z M22.4,15.4c0,0.7,0.3,1.3,1,1.7
					c0.7,0.4,1.6,0.6,2.8,0.6c0.6,0,1.2-0.1,1.7-0.2s0.9-0.3,1.2-0.5c0.3-0.2,0.6-0.4,0.8-0.7c0.2-0.3,0.3-0.5,0.3-0.8
					c0-0.4-0.2-0.8-0.5-1.1c-0.3-0.3-0.7-0.5-1.2-0.6c-0.5-0.1-1-0.2-1.5-0.3c-0.5,0-0.9-0.1-1.3-0.1c-0.6,0-1.2,0-1.6,0.1
					c-0.4,0.1-0.8,0.2-1,0.4c-0.2,0.2-0.4,0.4-0.5,0.6C22.5,14.9,22.4,15.1,22.4,15.4z M26.3,10.2c0.3,0,0.6-0.1,0.9-0.2
					c0.3-0.1,0.5-0.3,0.7-0.6c0.2-0.3,0.4-0.6,0.5-0.9c0.1-0.4,0.2-0.8,0.2-1.2c0-0.4-0.1-0.8-0.2-1.2S28.1,5.3,27.9,5
					c-0.2-0.3-0.5-0.6-0.8-0.8c-0.3-0.2-0.7-0.3-1-0.3c-0.3,0-0.6,0.1-0.9,0.2c-0.3,0.1-0.5,0.3-0.7,0.6C24.2,5,24.1,5.3,24,5.7
					c-0.1,0.4-0.2,0.7-0.2,1.2c0,0.4,0.1,0.8,0.2,1.2c0.1,0.4,0.3,0.8,0.5,1.1c0.2,0.3,0.5,0.6,0.8,0.8
					C25.6,10.1,25.9,10.2,26.3,10.2z"/>
				<path class="st0" d="M36.6,8.7l1.9-0.5V6.7c0-1-0.2-1.7-0.5-2.1c-0.3-0.5-0.9-0.7-1.6-0.7c-0.3,0-0.7,0.1-1,0.2
					c-0.3,0.1-0.7,0.3-0.9,0.7C34.3,5.1,34,5.5,33.7,6c-0.2,0.5-0.5,1.2-0.6,2.1L33,4.9c0.4-0.4,1-0.7,1.6-0.9
					c0.6-0.2,1.3-0.3,1.9-0.3c1,0,1.8,0.3,2.4,0.8s0.9,1.3,0.9,2.4V13c0,0.4,0,0.7,0.1,1c0.1,0.3,0.2,0.5,0.4,0.7l-1.7,0.1v-2.6
					c-0.1,0.3-0.3,0.6-0.4,0.9c-0.2,0.3-0.4,0.6-0.7,0.8s-0.6,0.4-0.9,0.6c-0.4,0.1-0.8,0.2-1.2,0.2c-0.4,0-0.8-0.1-1.2-0.2
					c-0.4-0.1-0.7-0.3-0.9-0.5s-0.5-0.5-0.6-0.8c-0.2-0.3-0.2-0.7-0.2-1.1c0-0.6,0.1-1.1,0.4-1.5c0.3-0.4,0.6-0.7,1.1-1
					c0.4-0.3,0.9-0.5,1.4-0.6C35.8,8.9,36.2,8.8,36.6,8.7z M33.8,12.2c0,0.7,0.2,1.2,0.5,1.6c0.3,0.4,0.8,0.6,1.4,0.6
					c0.3,0,0.7-0.1,1-0.2s0.6-0.4,0.9-0.7c0.3-0.3,0.5-0.7,0.7-1.1c0.2-0.5,0.3-1,0.3-1.6V8.4l-1.9,0.5c-0.2,0.1-0.5,0.2-0.9,0.3
					s-0.6,0.3-0.9,0.6c-0.3,0.2-0.5,0.6-0.7,0.9S33.8,11.6,33.8,12.2z"/>
				<path class="st0" d="M42.1,14.7c0.2-0.1,0.3-0.1,0.5-0.2c0.1-0.1,0.2-0.2,0.3-0.3c0.1-0.1,0.1-0.3,0.1-0.5c0-0.2,0-0.4,0-0.7
					V5.8c0-0.3,0-0.5,0-0.7c0-0.2,0-0.4-0.1-0.5c0-0.2-0.1-0.3-0.1-0.4c-0.1-0.1-0.1-0.3-0.2-0.4l1.8-0.2v3.1
					C44.6,5.7,45,5,45.7,4.4c0.6-0.5,1.5-0.8,2.4-0.8c0.6,0,1.1,0.1,1.5,0.3c0.4,0.2,0.8,0.4,1.1,0.7s0.5,0.7,0.7,1.2
					s0.2,0.9,0.2,1.5V13c0,0.3,0,0.5,0,0.7c0,0.2,0.1,0.3,0.1,0.5c0.1,0.1,0.2,0.2,0.3,0.3c0.1,0.1,0.3,0.1,0.4,0.2h-3.1
					c0.2-0.1,0.3-0.1,0.5-0.2c0.1-0.1,0.2-0.2,0.3-0.3c0.1-0.1,0.1-0.3,0.1-0.5c0-0.2,0-0.4,0-0.7V7.1c0-1-0.2-1.7-0.6-2.3
					c-0.4-0.5-1-0.8-1.8-0.8c-0.5,0-0.9,0.1-1.3,0.3c-0.4,0.2-0.8,0.5-1.1,0.8c-0.3,0.4-0.6,0.8-0.8,1.3c-0.2,0.5-0.3,1.1-0.4,1.8
					V13c0,0.3,0,0.5,0,0.7c0,0.2,0.1,0.3,0.1,0.5c0.1,0.1,0.2,0.2,0.3,0.3c0.1,0.1,0.3,0.1,0.4,0.2H42.1z"/>
				<path class="st0" d="M61.7,3.7c-0.1,0.1-0.2,0.2-0.2,0.4c-0.1,0.2,0,0.4,0.1,0.8l3.1,8l2.6-6.8c0.2-0.5,0.3-0.9,0.3-1.2
					s0-0.5,0-0.7s-0.1-0.3-0.2-0.3c-0.1-0.1-0.1-0.1-0.2-0.1H69c-0.1,0.1-0.3,0.2-0.5,0.5s-0.4,0.6-0.6,1.2l-3.6,9.3h-0.2l-3.6-9.2
					c-0.2-0.6-0.4-1-0.6-1.2s-0.3-0.4-0.4-0.5H61.7z"/>
				<path class="st0" d="M70.4,14.7c0.2-0.1,0.3-0.1,0.5-0.2c0.1-0.1,0.2-0.2,0.3-0.3c0.1-0.1,0.1-0.3,0.1-0.5c0-0.2,0-0.4,0-0.7
					V5.8c0-0.3,0-0.5,0-0.7c0-0.2,0-0.4-0.1-0.5c0-0.2-0.1-0.3-0.1-0.4C71,4,70.9,3.9,70.8,3.8l1.8-0.2V13c0,0.3,0,0.5,0,0.7
					c0,0.2,0.1,0.3,0.1,0.5c0.1,0.1,0.2,0.2,0.3,0.3c0.1,0.1,0.3,0.1,0.4,0.2H70.4z M71.9,0.3c0.3,0,0.5,0.1,0.7,0.3
					c0.2,0.2,0.3,0.4,0.3,0.7s-0.1,0.5-0.3,0.7c-0.2,0.2-0.4,0.3-0.7,0.3c-0.3,0-0.5-0.1-0.6-0.3C71,1.8,71,1.5,71,1.2
					s0.1-0.5,0.3-0.7S71.6,0.3,71.9,0.3z"/>
				<path class="st0" d="M76.8,3.7L78,1v2.7h2.9v0.2H78v8.3c0,0.4,0,0.8,0.1,1.1c0.1,0.3,0.1,0.5,0.2,0.7c0.1,0.2,0.2,0.3,0.4,0.3
					s0.3,0.1,0.5,0.1c0.3,0,0.6-0.1,0.9-0.3c0.2-0.2,0.4-0.5,0.6-0.9l0.2,0.2c-0.2,0.4-0.5,0.7-0.8,1s-0.7,0.4-1.2,0.4
					c-0.8,0-1.4-0.3-1.7-0.8c-0.3-0.5-0.5-1.3-0.5-2.2V3.9H75V3.7H76.8z"/>
				<path class="st0" d="M86.6,8.7l1.9-0.5V6.7c0-1-0.2-1.7-0.5-2.1c-0.3-0.5-0.9-0.7-1.6-0.7c-0.3,0-0.7,0.1-1,0.2
					c-0.3,0.1-0.7,0.3-0.9,0.7C84.3,5.1,84,5.5,83.7,6c-0.2,0.5-0.5,1.2-0.6,2.1L83,4.9c0.4-0.4,1-0.7,1.6-0.9
					c0.6-0.2,1.3-0.3,1.9-0.3c1,0,1.8,0.3,2.4,0.8s0.9,1.3,0.9,2.4V13c0,0.4,0,0.7,0.1,1c0.1,0.3,0.2,0.5,0.4,0.7l-1.7,0.1v-2.6
					c-0.1,0.3-0.3,0.6-0.4,0.9c-0.2,0.3-0.4,0.6-0.7,0.8s-0.6,0.4-0.9,0.6c-0.4,0.1-0.8,0.2-1.2,0.2c-0.4,0-0.8-0.1-1.2-0.2
					c-0.4-0.1-0.7-0.3-0.9-0.5s-0.5-0.5-0.6-0.8c-0.2-0.3-0.2-0.7-0.2-1.1c0-0.6,0.1-1.1,0.4-1.5c0.3-0.4,0.6-0.7,1.1-1
					c0.4-0.3,0.9-0.5,1.4-0.6C85.8,8.9,86.2,8.8,86.6,8.7z M83.8,12.2c0,0.7,0.2,1.2,0.5,1.6c0.3,0.4,0.8,0.6,1.4,0.6
					c0.3,0,0.7-0.1,1-0.2s0.6-0.4,0.9-0.7c0.3-0.3,0.5-0.7,0.7-1.1c0.2-0.5,0.3-1,0.3-1.6V8.4l-1.9,0.5c-0.2,0.1-0.5,0.2-0.9,0.3
					s-0.6,0.3-0.9,0.6c-0.3,0.2-0.5,0.6-0.7,0.9S83.8,11.6,83.8,12.2z"/>
			</g>
		</g>
	</g>
	<circle class="st0" cx="138.1" cy="9.8" r="1.7"/>
	<circle class="st0" cx="316.5" cy="9.8" r="1.7"/>
</g>
</svg>
